<svg id="Layer_1" data-name="Layer 1" xmlns="http://www.w3.org/2000/svg" viewBox="0 0 510.3 230.3"><title>stockholm_stolthet</title><path d="M509.3,1V229.3H1V1H509.3m1-1H0V230.3H510.3V0Z" transform="translate(0)"/><path d="M47.16,66.5a4.62,4.62,0,0,1-3.25,1.3H34.46a4.62,4.62,0,0,1-3.25-1.3l-4.55-4.65,4.15-3.5,4.05,4.15h8.65l2.6-2.65v-4.5L29.66,44.84a3.89,3.89,0,0,1-1.35-3.2v-5.1a4.77,4.77,0,0,1,1.35-3.2l3.1-3.15A4.62,4.62,0,0,1,36,28.89h8a4.62,4.62,0,0,1,3.25,1.3l3.9,4L47,37.69l-3.4-3.5H36.41l-2.6,2.65v4l16.45,10.5a3.89,3.89,0,0,1,1.35,3.2v5.6a4.77,4.77,0,0,1-1.35,3.2Z" transform="translate(0)"/><path d="M391.2,66.5a4.62,4.62,0,0,1-3.25,1.3H378.5a4.62,4.62,0,0,1-3.25-1.3l-4.55-4.65,4.15-3.5,4.05,4.15h8.65l2.6-2.65v-4.5L373.7,44.84a3.89,3.89,0,0,1-1.35-3.2v-5.1a4.77,4.77,0,0,1,1.35-3.2l3.1-3.15a4.62,4.62,0,0,1,3.25-1.3h8a4.62,4.62,0,0,1,3.25,1.3l3.9,4L391,37.69l-3.4-3.5h-7.15l-2.6,2.65v4l16.45,10.5a3.89,3.89,0,0,1,1.35,3.2v5.6a4.77,4.77,0,0,1-1.35,3.2Z" transform="translate(0)"/><path d="M72.36,67.8V34.19H62.61v-5.3h25v5.3H77.86V67.8Z" transform="translate(0)"/><path d="M120.71,66.5a4.62,4.62,0,0,1-3.25,1.3h-9.75a4.62,4.62,0,0,1-3.25-1.3l-3.1-3.15a4.77,4.77,0,0,1-1.35-3.2V36.54a4.77,4.77,0,0,1,1.35-3.2l3.1-3.15a4.62,4.62,0,0,1,3.25-1.3h9.75a4.62,4.62,0,0,1,3.25,1.3l3.1,3.15a4.77,4.77,0,0,1,1.35,3.2v23.6a4.77,4.77,0,0,1-1.35,3.2Zm-1-6.65v-23l-2.6-2.65h-9l-2.6,2.65v23l2.6,2.65h9Z" transform="translate(0)"/><path d="M160.76,66.5a4.62,4.62,0,0,1-3.25,1.3h-10a4.62,4.62,0,0,1-3.25-1.3l-3.1-3.15a4.77,4.77,0,0,1-1.35-3.2V36.54a4.77,4.77,0,0,1,1.35-3.2l3.1-3.15a4.62,4.62,0,0,1,3.25-1.3h10a4.62,4.62,0,0,1,3.25,1.3l3.9,4-4.15,3.5-3.4-3.5H148l-2.6,2.65v23L148,62.5h9.15l3.4-3.5,4.15,3.5Z" transform="translate(0)"/><path d="M200,67.8l-13.45-18.9-3.05,3.05V67.8H178V28.89h5.5V44.34l15.45-15.45h4.3v3.25L190.41,45l13.85,19.45V67.8Z" transform="translate(0)"/><path d="M235.56,67.8V50.64h-13.8V67.8h-5.5V28.89h5.5V45.34h13.8V28.89h5.5V67.8Z" transform="translate(0)"/><path d="M276.46,66.5a4.61,4.61,0,0,1-3.25,1.3h-9.75a4.61,4.61,0,0,1-3.25-1.3l-3.1-3.15a4.77,4.77,0,0,1-1.35-3.2V36.54a4.77,4.77,0,0,1,1.35-3.2l3.1-3.15a4.61,4.61,0,0,1,3.25-1.3h9.75a4.61,4.61,0,0,1,3.25,1.3l3.1,3.15a4.77,4.77,0,0,1,1.35,3.2v23.6a4.77,4.77,0,0,1-1.35,3.2Zm-1-6.65v-23l-2.6-2.65h-9l-2.6,2.65v23l2.6,2.65h9Z" transform="translate(0)"/><path d="M295.61,67.8V28.89h5.5V62.5h15.2v5.3Z" transform="translate(0)"/><path d="M352.91,67.8V46.14l.2-4.6-4.8,12.05c-.45,1.15-1,2.1-2.6,2.1h-3.6c-1.6,0-2.15-1-2.6-2.1l-4.8-12.05.2,4.6V67.8h-5.5V28.89h5.7l8.4,21.5h.8l8.4-21.5h5.7V67.8Z" transform="translate(0)"/><path d="M47.16,126.5a4.62,4.62,0,0,1-3.25,1.3H34.46a4.62,4.62,0,0,1-3.25-1.3l-4.55-4.65,4.15-3.5,4.05,4.15h8.65l2.6-2.65v-4.5l-16.45-10.5a3.89,3.89,0,0,1-1.35-3.2v-5.1a4.77,4.77,0,0,1,1.35-3.2l3.1-3.15A4.62,4.62,0,0,1,36,88.89h8a4.62,4.62,0,0,1,3.25,1.3l3.9,4L47,97.69l-3.4-3.5H36.41l-2.6,2.65v4l16.45,10.5a3.89,3.89,0,0,1,1.35,3.2v5.6a4.77,4.77,0,0,1-1.35,3.2Z" transform="translate(0)"/><path d="M72.36,127.79V94.19H62.61v-5.3h25v5.3H77.86v33.6Z" transform="translate(0)"/><path d="M120.71,126.5a4.62,4.62,0,0,1-3.25,1.3h-9.75a4.62,4.62,0,0,1-3.25-1.3l-3.1-3.15a4.77,4.77,0,0,1-1.35-3.2V96.54a4.77,4.77,0,0,1,1.35-3.2l3.1-3.15a4.62,4.62,0,0,1,3.25-1.3h9.75a4.62,4.62,0,0,1,3.25,1.3l3.1,3.15a4.77,4.77,0,0,1,1.35,3.2v23.6a4.77,4.77,0,0,1-1.35,3.2Zm-1-6.65v-23l-2.6-2.65h-9l-2.6,2.65v23l2.6,2.65h9Z" transform="translate(0)"/><path d="M139.86,127.79V88.89h5.5v33.6h15.2v5.3Z" transform="translate(0)"/><path d="M178.11,127.79V94.19h-9.75v-5.3h25v5.3h-9.75v33.6Z" transform="translate(0)"/><path d="M225.06,127.79V110.64h-13.8v17.15h-5.5V88.89h5.5v16.45h13.8V88.89h5.5v38.9Z" transform="translate(0)"/><path d="M245.26,127.79V88.89h22.25v5.3H250.76v11.35h12.85v5.3H250.76V122.5h16.75v5.3Z" transform="translate(0)"/><path d="M288.16,127.79V94.19h-9.75v-5.3h25v5.3h-9.75v33.6Z" transform="translate(0)"/><path d="M473.83,190.9l3.31,3.53-1,1-3.31-3.53Zm-.24,5a.74.74,0,1,0,1,0A.74.74,0,0,0,473.59,195.92Zm4.26-4a.74.74,0,1,0,1,0A.74.74,0,0,0,477.84,191.93Zm-6.08,4.23a2.36,2.36,0,0,1-.07,3.38l-1.18,1.11-3.31-3.52,1.18-1.11A2.35,2.35,0,0,1,471.76,196.16Zm-1,.94a1.13,1.13,0,0,0-1.65-.1l-.08.07,1.65,1.76.07-.06A1.12,1.12,0,0,0,470.77,197.1Zm15.73-8.26a26.43,26.43,0,0,1-11.84,21.27l-.26.15-.26-.15a26.43,26.43,0,0,1-11.89-21.23,25.09,25.09,0,0,1,.4-5.88l.11-.47.48.1a16.43,16.43,0,0,0,10.87-1.75l.26-.16.26.16a16.44,16.44,0,0,0,10.87,1.72l.48-.1.11.47A25.09,25.09,0,0,1,486.5,188.84Zm-21.71,8L479,183.52a17.43,17.43,0,0,1-4.59-1.66,17.28,17.28,0,0,1-10.83,1.82,27.17,27.17,0,0,0-.29,5.16A25.17,25.17,0,0,0,464.79,196.82Zm20.7-7.61-16.25,15.26a23,23,0,0,0,5.17,4.64A25.46,25.46,0,0,0,485.49,189.2Zm-.28-5.55a16.07,16.07,0,0,1-5.42,0l-14.73,13.83a26,26,0,0,0,3.75,6.42l16.71-15.69A26.71,26.71,0,0,0,485.2,183.65Zm-4.66,3.72-1.08,1-.54-.58,1.09-1-.85-.9-2.1,2,3.31,3.52,1-.95-1.07-1.14,1.08-1Zm1.84.29a.74.74,0,1,0,1,0A.74.74,0,0,0,482.38,187.67Z" transform="translate(0)"/></svg>