<svg id="Layer_1" data-name="Layer 1" xmlns="http://www.w3.org/2000/svg" viewBox="0 0 600 600"><defs><style>.cls-1{fill:#fff;}.cls-2{fill:#cfb571;}.cls-3{fill:#ffec0d;}.cls-4{fill:#0568af;}.cls-5{fill:#e21f26;}</style></defs><title>do&amp;apos;s_don&amp;apos;ts</title><rect class="cls-1" width="600" height="600"/><g id="Guld_sköld" data-name="Guld sköld"><path class="cls-2" d="M450.55,138.88l-1.42-6.09L443,134.1C367.47,150.23,303.82,112.38,303.19,112l-3.32-2-3.3,2c-.63.38-64.18,38.4-139.76,22.46l-6.11-1.29-1.41,6.09c-.27,1.17-6.6,29.25-5.16,75.66C148.64,360.48,242.39,455.07,297.08,488l3.3,2,3.29-2c54.6-33.09,148.11-127.92,152.24-273.48C457.22,168.11,450.82,140,450.55,138.88Z"/></g><path class="cls-3" d="M358.87,146.07a224.21,224.21,0,0,1-59-21.29c-14.13,7.77-70.71,35.46-139.32,23.38-1.73,10.43-4.73,33.87-3.72,66.37a323.64,323.64,0,0,0,19.86,102.53Z"/><path class="cls-4" d="M300.35,475.07C352.48,442,437.11,353.53,442.94,219.17L233.9,415.4C256.75,442.69,280.83,462.75,300.35,475.07Z"/><path class="cls-5" d="M232.36,319.4l-1,.91,21.27,22.62.88-.83c5.19-4.88,7.47-13.49.06-21.37C246.8,313.5,237.95,314.15,232.36,319.4Z"/><path class="cls-5" d="M439.28,147.8a206.62,206.62,0,0,1-69.65.27L180.15,325.94a334,334,0,0,0,48.17,82.61l215-201.79C443.58,178.15,440.9,157.41,439.28,147.8ZM265.58,352.19l-15.13,14.23-42.63-45.33L223,306.85c12.62-11.87,31.49-10.93,43.48,1.82S278.15,340.37,265.58,352.19Zm37.28-32.79a9.48,9.48,0,1,1,.43-13.4A9.48,9.48,0,0,1,302.87,319.4Zm19.62-20.76-42.57-45.36L293,241l42.57,45.36Zm35.1-30.6a9.48,9.48,0,1,1,.43-13.4A9.48,9.48,0,0,1,357.59,268ZM390.22,235l-13,12.18-42.63-45.33,27-25.41L372.6,188l-14.07,13.23,7,7.42,13.85-13,10.91,11.61-13.85,13ZM416,213.24a9.48,9.48,0,1,1,.43-13.4A9.48,9.48,0,0,1,416,213.24Z"/></svg>