<svg id="Layer_1" data-name="Layer 1" xmlns="http://www.w3.org/2000/svg" viewBox="0 0 600 600"><defs><style>.cls-1{fill:#fff;}.cls-2{fill:#cfb571;}.cls-3{fill:#ffec0d;}.cls-4{fill:#0568af;}.cls-5{fill:#e21f26;}.cls-6{fill:none;stroke:#b4b4b4;stroke-miterlimit:10;}</style></defs><title>do&amp;apos;s_don&amp;apos;ts</title><rect class="cls-1" width="600" height="600"/><g id="Guld_sköld" data-name="Guld sköld"><path class="cls-2" d="M445.71,141.35l-1.4-6-6,1.29c-74.39,15.88-137.06-21.38-137.68-21.75l-3.27-2-3.25,2c-.62.37-63.2,37.81-137.62,22.11l-6-1.27-1.39,6c-.26,1.15-6.5,28.8-5.08,74.5,4.44,143.31,96.76,236.45,150.6,268.9l3.25,2,3.24-2c53.76-32.58,145.84-126,149.91-269.29C452.29,170.13,446,142.5,445.71,141.35Z"/></g><path class="cls-3" d="M355.44,148.43a220.77,220.77,0,0,1-58.07-21c-13.92,7.65-69.62,34.92-137.18,23-1.7,10.27-4.66,33.35-3.67,65.35a318.68,318.68,0,0,0,19.56,101Z"/><path class="cls-4" d="M297.82,472.39c51.33-32.57,134.66-119.67,140.4-252L232.39,413.63C254.88,440.5,278.6,460.26,297.82,472.39Z"/><path class="cls-5" d="M230.87,319.1l-1,.9,20.95,22.27.86-.81c5.11-4.81,7.36-13.28.06-21C245.09,313.29,236.37,313.93,230.87,319.1Z"/><path class="cls-5" d="M434.62,150.14a203.45,203.45,0,0,1-68.58.26L179.46,325.54a328.9,328.9,0,0,0,47.43,81.34l211.66-198.7C438.85,180,436.21,159.6,434.62,150.14Zm-171,201.25-14.9,14-42-44.64,14.9-14c12.43-11.69,31-10.76,42.81,1.79S276,339.75,263.58,351.39Zm36.71-32.28a9.34,9.34,0,1,1,.42-13.2A9.34,9.34,0,0,1,300.29,319.1Zm19.32-20.44L277.7,254l12.85-12.06,41.92,44.67Zm34.57-30.13a9.34,9.34,0,1,1,.42-13.2A9.34,9.34,0,0,1,354.18,268.54ZM386.31,236l-12.76,12-42-44.64,26.61-25L369,189.76l-13.85,13,6.89,7.3,13.64-12.81,10.75,11.43-13.64,12.81Zm25.38-21.4a9.34,9.34,0,1,1,.42-13.2A9.34,9.34,0,0,1,411.69,214.57Z"/><line class="cls-6" x1="50.24" y1="112.91" x2="544.79" y2="112.91"/><line class="cls-6" x1="143.78" y1="580.63" x2="143.78" y2="19.37"/><line class="cls-6" x1="143.78" y1="580.63" x2="143.78" y2="19.37"/><line class="cls-6" x1="451.16" y1="580.63" x2="451.16" y2="19.37"/><line class="cls-6" x1="50.24" y1="19.37" x2="544.79" y2="19.37"/><line class="cls-6" x1="50.24" y1="206.46" x2="544.79" y2="206.46"/><line class="cls-6" x1="50.24" y1="300" x2="544.79" y2="300"/><line class="cls-6" x1="50.24" y1="393.54" x2="544.79" y2="393.54"/><line class="cls-6" x1="50.24" y1="487.09" x2="544.79" y2="487.09"/><rect class="cls-6" x="50.24" y="19.37" width="494.56" height="561.26"/><line class="cls-6" x1="544.79" y1="19.37" x2="451.16" y2="112.91"/><line class="cls-6" x1="451.16" y1="19.37" x2="544.79" y2="112.91"/><line class="cls-6" x1="143.87" y1="19.37" x2="50.24" y2="112.91"/><line class="cls-6" x1="50.24" y1="19.37" x2="143.87" y2="112.91"/><line class="cls-6" x1="544.79" y1="487.09" x2="451.16" y2="580.63"/><line class="cls-6" x1="451.16" y1="487.09" x2="544.79" y2="580.63"/><line class="cls-6" x1="143.87" y1="487.09" x2="50.24" y2="580.63"/><line class="cls-6" x1="50.24" y1="487.09" x2="143.87" y2="580.63"/></svg>