<svg id="Layer_1" data-name="Layer 1" xmlns="http://www.w3.org/2000/svg" viewBox="0 0 600 600"><defs><style>.cls-1{fill:#fff;}.cls-2,.cls-6{fill:#cfb571;}.cls-3{fill:#ffec0d;}.cls-4{fill:#0568af;}.cls-5{fill:#e21f26;}.cls-6{font-size:60px;font-family:DIFDisplay-MediumE, DIF Display;letter-spacing:0.03em;}.cls-7{fill:none;stroke:#000;stroke-miterlimit:10;stroke-width:6px;}</style></defs><title>do&amp;apos;s_don&amp;apos;ts</title><rect class="cls-1" width="600" height="600"/><g id="Guld_sköld" data-name="Guld sköld"><path class="cls-2" d="M408.84,119.21l-1-4.4-4.42.94c-54.62,11.66-100.63-15.7-101.09-16l-2.4-1.45-2.39,1.46c-.46.27-46.4,27.76-101,16.24l-4.42-.93-1,4.4c-.19.84-4.77,21.15-3.73,54.7,3.26,105.23,71,173.61,110.58,197.43l2.38,1.43,2.38-1.44c39.47-23.92,107.08-92.48,110.07-197.72C413.67,140.34,409,120.05,408.84,119.21Z"/></g><path class="cls-3" d="M342.56,124.41A162.1,162.1,0,0,1,299.92,109c-10.22,5.62-51.12,25.64-100.72,16.91-1.25,7.54-3.42,24.49-2.69,48A234,234,0,0,0,210.87,248Z"/><path class="cls-4" d="M300.26,362.27c37.69-23.91,98.87-87.87,103.08-185L252.22,319.12C268.73,338.85,286.14,353.36,300.26,362.27Z"/><path class="cls-5" d="M251.1,249.72l-.7.66,15.38,16.35.63-.6c3.75-3.53,5.4-9.75,0-15.45C261.54,245.46,255.14,245.92,251.1,249.72Z"/><path class="cls-5" d="M400.69,125.66a149.38,149.38,0,0,1-50.36.19l-137,128.59a241.49,241.49,0,0,0,34.83,59.72L403.59,168.28A248.29,248.29,0,0,0,400.69,125.66ZM275.12,273.42l-10.94,10.29-30.82-32.77,10.94-10.29c9.13-8.58,22.77-7.9,31.43,1.32S284.2,264.88,275.12,273.42Zm27-23.7a6.86,6.86,0,1,1,.31-9.69A6.86,6.86,0,0,1,302.07,249.72Zm14.18-15-30.78-32.8,9.44-8.86,30.78,32.8Zm25.38-22.12a6.86,6.86,0,1,1,.31-9.69A6.86,6.86,0,0,1,341.64,212.59Zm23.59-23.91-9.37,8.81L325,164.71l19.54-18.37,7.91,8.41-10.17,9.56,5.06,5.36,10-9.4,7.89,8.39-10,9.4ZM383.86,173a6.86,6.86,0,1,1,.31-9.69A6.86,6.86,0,0,1,383.86,173Z"/><text class="cls-6" transform="translate(107.08 452.75)">stockholms<tspan x="47.61" y="80">stolthet</tspan></text><line class="cls-7" x1="1" y1="600" x2="601"/></svg>