<svg id="Layer_1" data-name="Layer 1" xmlns="http://www.w3.org/2000/svg" viewBox="0 0 600 600"><defs><style>.cls-1{fill:#fff;}.cls-2{fill:#cfb571;}.cls-3{fill:#ffec0d;}.cls-4{fill:#0568af;}.cls-5{fill:#e21f26;}.cls-6{fill:none;stroke:#000;stroke-miterlimit:10;stroke-width:6px;}</style></defs><title>do&amp;apos;s_don&amp;apos;ts</title><rect class="cls-1" width="600" height="600"/><g id="Guld_sköld" data-name="Guld sköld"><path class="cls-2" d="M416.74,112l-3.42-5.23L408,110c-65.47,41-138.23,27.2-138.95,27.06l-3.81-.75-2.41,3c-.46.57-47.18,58-123.65,68.9l-6.19.88.76,6.2c.15,1.19,3.8,29.74,21,72.86,54,135.23,174.47,192,237.12,204.3l3.78.74,2.41-3c40-49.76,95.43-170.86,49.52-309.06C433,137.15,417.39,113,416.74,112Z"/></g><path class="cls-3" d="M333.06,150.08a224.21,224.21,0,0,1-62.7.17c-10.63,12.14-54.32,57.5-122.92,69.62,1.94,10.39,7.14,33.45,19.2,63.64a323.64,323.64,0,0,0,53.73,89.55Z"/><path class="cls-4" d="M390.59,479.25c37.67-48.91,86.94-161,46.46-289.24L307.74,445.9C338.54,463.73,368,474.35,390.59,479.25Z"/><path class="cls-5" d="M273.46,356.22l-.6,1.19,27.73,14,.54-1.08c3.21-6.37,2.41-15.23-7.25-20.1C285,345.74,276.91,349.37,273.46,356.22Z"/><path class="cls-5" d="M409.21,124.2a206.62,206.62,0,0,1-65.36,24.07L226.63,380.22a334,334,0,0,0,73.52,61.15l133-263.14C423.63,151.25,414,132.68,409.21,124.2ZM315.89,375.67l-9.35,18.55L251,366.2l9.35-18.55c7.8-15.47,25.86-21,41.48-13.16S323.65,360.27,315.89,375.67Zm23.82-43.56a9.48,9.48,0,1,1-4.18-12.74A9.48,9.48,0,0,1,339.71,332.11ZM351,305.89l-55.52-28.07,8.08-16,55.52,28.07Zm22.52-40.76a9.48,9.48,0,1,1-4.18-12.74A9.48,9.48,0,0,1,373.57,265.14Zm19.35-42.24-8,15.88-55.56-28,16.7-33.12,14.26,7.19-8.7,17.24,9.11,4.58,8.57-17,14.22,7.17-8.57,17Zm16.79-29.24a9.48,9.48,0,1,1-4.18-12.74A9.48,9.48,0,0,1,409.71,193.66Z"/><g id="Guld_sköld-2" data-name="Guld sköld"><path class="cls-2" d="M417.74,112l-3.42-5.23L409,110c-65.47,41-138.23,27.2-138.95,27.06l-3.81-.75-2.41,3c-.46.57-47.18,58-123.65,68.9l-6.19.88.76,6.2c.15,1.19,3.8,29.74,21,72.86,54,135.23,174.47,192,237.12,204.3l3.78.74,2.41-3c40-49.76,95.43-170.86,49.52-309.06C434,137.15,418.39,113,417.74,112Z"/></g><path class="cls-3" d="M334.06,150.08a224.21,224.21,0,0,1-62.7.17c-10.63,12.14-54.32,57.5-122.92,69.62,1.94,10.39,7.14,33.45,19.2,63.64a323.64,323.64,0,0,0,53.73,89.55Z"/><path class="cls-4" d="M391.59,479.25c37.67-48.91,86.94-161,46.46-289.24L308.74,445.9C339.54,463.73,369,474.35,391.59,479.25Z"/><path class="cls-5" d="M274.46,356.22l-.6,1.19,27.73,14,.54-1.08c3.21-6.37,2.41-15.23-7.25-20.1C286,345.74,277.91,349.37,274.46,356.22Z"/><path class="cls-5" d="M410.21,124.2a206.62,206.62,0,0,1-65.36,24.07L227.63,380.22a334,334,0,0,0,73.52,61.15l133-263.14C424.63,151.25,415,132.68,410.21,124.2ZM316.89,375.67l-9.35,18.55L252,366.2l9.35-18.55c7.8-15.47,25.86-21,41.48-13.16S324.65,360.27,316.89,375.67Zm23.82-43.56a9.48,9.48,0,1,1-4.18-12.74A9.48,9.48,0,0,1,340.71,332.11ZM352,305.89l-55.52-28.07,8.08-16,55.52,28.07Zm22.52-40.76a9.48,9.48,0,1,1-4.18-12.74A9.48,9.48,0,0,1,374.57,265.14Zm19.35-42.24-8,15.88-55.56-28,16.7-33.12,14.26,7.19-8.7,17.24,9.11,4.58,8.57-17,14.22,7.17-8.57,17Zm16.79-29.24a9.48,9.48,0,1,1-4.18-12.74A9.48,9.48,0,0,1,410.71,193.66Z"/><line class="cls-6" y1="600" x2="600"/></svg>