<svg id="Layer_1" data-name="Layer 1" xmlns="http://www.w3.org/2000/svg" viewBox="0 0 600 600"><defs><style>.cls-1{fill:#fff;}.cls-2{fill:#cfb571;}.cls-3{fill:#ffec0d;}.cls-4{fill:#0568af;}.cls-5{fill:#e21f26;}.cls-6{fill:none;stroke:#000;stroke-miterlimit:10;stroke-width:6px;}</style></defs><title>do&amp;apos;s_don&amp;apos;ts</title><rect class="cls-1" width="600" height="600"/><g id="Guld_sköld" data-name="Guld sköld"><path class="cls-2" d="M436.48,138.88l-1.29-6.09-5.54,1.31C361.16,150.23,303.46,112.38,302.89,112l-3-2-3,2c-.57.38-58.18,38.4-126.7,22.46l-5.54-1.29-1.28,6.09c-.24,1.17-6,29.25-4.68,75.66C162.78,360.48,247.77,455.07,297.35,488l3,2,3-2c49.5-33.09,134.27-127.92,138-273.48C442.53,168.11,436.72,140,436.48,138.88Z"/></g><path class="cls-3" d="M353.37,146.07a191.82,191.82,0,0,1-53.47-21.29c-12.81,7.77-64.1,35.46-126.3,23.38-1.57,10.43-4.29,33.87-3.38,66.37a353.09,353.09,0,0,0,18,102.53Z"/><path class="cls-4" d="M300.32,475.07c47.26-33.08,124-121.54,129.26-255.9L240.08,415.4C260.79,442.69,282.63,462.75,300.32,475.07Z"/><path class="cls-5" d="M238.68,319.4l-.88.91,19.29,22.62.8-.83c4.71-4.88,6.77-13.49.05-21.37C251.77,313.5,243.74,314.15,238.68,319.4Z"/><path class="cls-5" d="M426.26,147.8a170.08,170.08,0,0,1-63.14.27L191.35,325.94A343.41,343.41,0,0,0,235,408.54L429.89,206.75C430.17,178.15,427.73,157.41,426.26,147.8ZM268.8,352.19l-13.72,14.23-38.65-45.33,13.72-14.23c11.44-11.87,28.55-10.93,39.42,1.82S280.19,340.37,268.8,352.19Zm33.8-32.79a8,8,0,0,1-12.15-.43,10.19,10.19,0,0,1,.39-13.4A8,8,0,0,1,303,306,10.19,10.19,0,0,1,302.6,319.4Zm17.79-20.76-38.59-45.36L293.63,241l38.59,45.36ZM352.21,268a8,8,0,0,1-12.15-.43,10.19,10.19,0,0,1,.39-13.4,8,8,0,0,1,12.15.43A10.19,10.19,0,0,1,352.21,268ZM381.79,235,370,247.15,331.4,201.82l24.5-25.41L365.81,188l-12.75,13.23,6.34,7.42,12.56-13,9.89,11.61-12.56,13Zm23.37-21.73a8,8,0,0,1-12.15-.43,10.19,10.19,0,0,1,.39-13.4,8,8,0,0,1,12.15.43A10.19,10.19,0,0,1,405.16,213.24Z"/><line class="cls-6" y1="600" x2="600"/></svg>