<svg id="Layer_1" data-name="Layer 1" xmlns="http://www.w3.org/2000/svg" viewBox="0 0 600 600"><defs><style>.cls-1{fill:#fff;}.cls-2{fill:#cfb571;}.cls-3{fill:#ff0;}.cls-4{fill:#0500af;}.cls-5{fill:red;}.cls-6{fill:none;stroke:#000;stroke-miterlimit:10;stroke-width:6px;}</style></defs><title>do&amp;apos;s_don&amp;apos;ts</title><rect class="cls-1" width="600" height="600"/><g id="Guld_sköld" data-name="Guld sköld"><path class="cls-2" d="M451.42,138.88,450,132.79l-6.11,1.31C368.34,150.23,304.69,112.38,304.06,112l-3.32-2-3.3,2c-.63.38-64.18,38.4-139.76,22.46l-6.11-1.29-1.41,6.09c-.27,1.17-6.6,29.25-5.16,75.66C149.51,360.48,243.26,455.07,297.95,488l3.3,2,3.29-2c54.6-33.09,148.11-127.92,152.24-273.48C458.1,168.11,451.69,140,451.42,138.88Z"/></g><path class="cls-3" d="M359.74,146.07a224.21,224.21,0,0,1-59-21.29c-14.13,7.77-70.71,35.46-139.32,23.38-1.73,10.43-4.73,33.87-3.72,66.37a323.64,323.64,0,0,0,19.86,102.53Z"/><path class="cls-4" d="M301.23,475.07C353.35,442,438,353.53,443.81,219.17l-209,196.23C257.62,442.69,281.71,462.75,301.23,475.07Z"/><path class="cls-5" d="M440.15,147.8a206.62,206.62,0,0,1-69.65.27L181,325.94a334,334,0,0,0,48.17,82.61l215-201.79C444.46,178.15,441.77,157.41,440.15,147.8Z"/><path class="cls-2" d="M283,318.47a6.49,6.49,0,0,1,1.7,4.41l-.07,6a6.27,6.27,0,0,1-2,4.34l-17.09,16.46-36.7-38.1,17.09-16.46a6.28,6.28,0,0,1,4.41-1.79l6,.16a6.48,6.48,0,0,1,4.34,1.86Zm-43.73-6.88,26.7,27.72,11.31-10.9,0-5-21.7-22.53-5-.14Z"/><path class="cls-2" d="M297.66,306.77l5.73-5.52,6,6.22L303.65,313Z"/><path class="cls-2" d="M285.46,257.06l13.42-12.93,4.81,5-4,3.87,27.08,28.11,4-3.87,4.81,5-13.42,12.93-4.81-5,4-3.87-27.08-28.11-4,3.87Z"/><path class="cls-2" d="M342.37,263.7l5.73-5.52,6,6.22-5.73,5.52Z"/><path class="cls-2" d="M330.86,213.33l20.81-20,5,5.19-15.43,14.86L352,224.45l11.61-11.18,5,5.19L357,229.64l16,16.6-5.39,5.19Z"/><path class="cls-2" d="M387.52,220.21l5.73-5.52,6,6.22-5.73,5.52Z"/><line class="cls-6" y1="600" x2="600"/></svg>