<svg id="Layer_1" data-name="Layer 1" xmlns="http://www.w3.org/2000/svg" viewBox="0 0 600 600"><defs><style>.cls-1{fill:#fff;}.cls-2{fill:none;stroke:#000;stroke-miterlimit:10;stroke-width:6px;}</style></defs><title>do&amp;apos;s_don&amp;apos;ts</title><rect class="cls-1" width="600" height="600"/><line class="cls-2" y1="600" x2="600"/><rect x="298.78" y="238.73" width="17.9" height="62.21" transform="translate(-101.32 283.65) rotate(-43.18)"/><circle cx="351.1" cy="261.13" r="9.48" transform="translate(-83.62 310.97) rotate(-43.18)"/><circle cx="296.38" cy="312.48" r="9.48" transform="translate(-133.57 287.43) rotate(-43.18)"/><path d="M450.55,138.88l-1.42-6.09L443,134.1C367.47,150.23,303.82,112.38,303.19,112l-3.32-2-3.3,2c-.63.38-64.18,38.4-139.76,22.46l-6.11-1.29-1.41,6.09c-.27,1.17-6.6,29.25-5.16,75.66C148.64,360.48,242.39,455.07,297.08,488l3.3,2,3.29-2c54.6-33.09,148.11-127.92,152.24-273.48C457.22,168.11,450.82,140,450.55,138.88Zm-7.26,67.88-215,201.79a334,334,0,0,1-48.17-82.61L369.63,148.07a206.62,206.62,0,0,0,69.65-.27C440.9,157.41,443.58,178.15,443.28,206.75Z"/><polygon points="379.38 195.68 365.53 208.69 358.53 201.27 372.6 188.05 361.66 176.41 334.64 201.82 377.27 247.15 390.22 234.97 376.44 220.29 390.3 207.29 379.38 195.68"/><path d="M223,306.85l-15.13,14.23,42.63,45.33,15.13-14.23c12.57-11.82,12.84-30.76.85-43.51S235.57,295,223,306.85Zm30.59,35.25-.88.83-21.27-22.62,1-.91c5.59-5.25,14.44-5.9,21.24,1.34C261,328.62,258.74,337.22,253.54,342.11Z"/><circle cx="409.51" cy="206.32" r="9.48" transform="translate(-30.29 336.09) rotate(-43.18)"/></svg>