<svg id="Layer_1" data-name="Layer 1" xmlns="http://www.w3.org/2000/svg" viewBox="0 0 592.43 171.57"><title>dif_display_set</title><path d="M12.06,39.16,8.84,52.39H3.23V47.74L12.77,8.52A3,3,0,0,1,15.87,6h7.57a3,3,0,0,1,3.1,2.5l9.54,39.23v4.65h-5.6L27.26,39.16Zm6.38-26.83L13.67,32.84h12L20.88,12.33Z" transform="translate(-3.23 -6.01)"/><path d="M70.84,22.11a5.69,5.69,0,0,1-1.61,3.82l-1.55,1.55,2.74,2.74A5.69,5.69,0,0,1,72,34v9.24a5.69,5.69,0,0,1-1.61,3.82l-3.7,3.76a5.5,5.5,0,0,1-3.87,1.55H43.23V6H61.66a5.5,5.5,0,0,1,3.87,1.55l3.7,3.76a5.69,5.69,0,0,1,1.61,3.82Zm-6.56-.36V15.49l-3.1-3.16H49.79V24.91H61.18ZM49.79,31.23V46.07H62.37l3.1-3.16V34.39l-3.1-3.16Z" transform="translate(-3.23 -6.01)"/><path d="M111.08,46.07l-4.65,4.77a5.5,5.5,0,0,1-3.87,1.55H90.69a5.5,5.5,0,0,1-3.88-1.55l-3.7-3.76a5.69,5.69,0,0,1-1.61-3.82V15.13a5.69,5.69,0,0,1,1.61-3.82l3.7-3.76A5.51,5.51,0,0,1,90.69,6h11.86a5.5,5.5,0,0,1,3.87,1.55l4.65,4.77-4.95,4.17-4.05-4.17H91.16l-3.1,3.16V42.91l3.1,3.16h10.91l4.05-4.17Z" transform="translate(-3.23 -6.01)"/><path d="M150.36,43.27a5.69,5.69,0,0,1-1.61,3.82l-3.7,3.76a5.5,5.5,0,0,1-3.87,1.55H120.37V6h20.81a5.5,5.5,0,0,1,3.87,1.55l3.7,3.76a5.69,5.69,0,0,1,1.61,3.82ZM126.93,12.33V46.07H140.7l3.1-3.16V15.49l-3.1-3.16Z" transform="translate(-3.23 -6.01)"/><path d="M160.73,6h26.53v6.32h-20V25.86h15.32v6.32H167.29V46.07h20v6.32H160.73Z" transform="translate(-3.23 -6.01)"/><path d="M197,6h25.34v6.32H203.59V25.86h14.13v6.32H203.59V52.39H197Z" transform="translate(-3.23 -6.01)"/><path d="M240.14,52.39a5.5,5.5,0,0,1-3.88-1.55l-3.7-3.76A5.69,5.69,0,0,1,231,43.27V15.13a5.69,5.69,0,0,1,1.61-3.82l3.7-3.76A5.51,5.51,0,0,1,240.14,6H252a5.5,5.5,0,0,1,3.87,1.55l4.65,4.77-4.95,4.17-4.05-4.17H240.61l-3.1,3.16V42.91l3.1,3.16h10.91l3.1-3.16V32.18h-8.29V25.86h14.84V43.27a5.69,5.69,0,0,1-1.61,3.82l-3.7,3.76A5.5,5.5,0,0,1,252,52.39Z" transform="translate(-3.23 -6.01)"/><path d="M293.73,31.94H277.27V52.39h-6.56V6h6.56V25.63h16.45V6h6.56V52.39h-6.56Z" transform="translate(-3.23 -6.01)"/><path d="M309.82,6h16.33v6.08h-4.89V46.31h4.89v6.08H309.82V46.31h4.89V12.09h-4.89Z" transform="translate(-3.23 -6.01)"/><path d="M343.15,52.39a5.5,5.5,0,0,1-3.87-1.55l-4.65-4.77,4.95-4.17,4.05,4.17h7.09l3.1-3.16V12.33H342.37V6h18V43.27a5.69,5.69,0,0,1-1.61,3.82l-3.7,3.76a5.51,5.51,0,0,1-3.88,1.55Z" transform="translate(-3.23 -6.01)"/><path d="M385.59,25.21,402.1,48.4v4H397l-16-22.54-3.64,3.64v18.9h-6.56V6h6.56V24.43L395.73,6h5.13V9.89Z" transform="translate(-3.23 -6.01)"/><path d="M409.26,6h6.56V46.07h18.12v6.32H409.26Z" transform="translate(-3.23 -6.01)"/><path d="M442.4,6h6.8l10,25.64h1L470.18,6H477V52.39h-6.56V26.58l.24-5.48-5.72,14.37c-.48,1.37-1.19,2.5-3.1,2.5h-4.29c-1.91,0-2.62-1.13-3.1-2.5l-5.72-14.37.24,5.48V52.39H442.4Z" transform="translate(-3.23 -6.01)"/><path d="M487.35,6h6.74l15.5,24.68V6h6.56V52.39h-6.56V42.56L493.91,17.64V52.39h-6.56Z" transform="translate(-3.23 -6.01)"/><path d="M547.32,6a5.51,5.51,0,0,1,3.87,1.55l3.7,3.76a5.68,5.68,0,0,1,1.61,3.82V43.27a5.68,5.68,0,0,1-1.61,3.82l-3.7,3.76a5.51,5.51,0,0,1-3.87,1.55H535.69a5.5,5.5,0,0,1-3.87-1.55l-3.7-3.76a5.69,5.69,0,0,1-1.61-3.82V15.13a5.69,5.69,0,0,1,1.61-3.82l3.7-3.76A5.5,5.5,0,0,1,535.69,6ZM536.17,46.07h10.67l3.1-3.16V15.49l-3.1-3.16H536.17l-3.1,3.16V42.91Z" transform="translate(-3.23 -6.01)"/><path d="M566.87,6h19.61a5.51,5.51,0,0,1,3.88,1.55l3.7,3.76a5.68,5.68,0,0,1,1.61,3.82V29.74a5.68,5.68,0,0,1-1.61,3.82l-3.7,3.76a5.51,5.51,0,0,1-3.88,1.55H573.43V52.39h-6.56Zm22.24,9.48L586,12.33H573.43V32.54H586l3.1-3.16Z" transform="translate(-3.23 -6.01)"/><path d="M27.26,68.61a5.5,5.5,0,0,1,3.87,1.55l3.7,3.76a5.69,5.69,0,0,1,1.61,3.82v28.14a5.69,5.69,0,0,1-1.61,3.82l-2.39,2.44,4,5.13v4H31.61L26.72,115H15.64a5.51,5.51,0,0,1-3.88-1.55l-3.7-3.76a5.69,5.69,0,0,1-1.61-3.82V77.73a5.69,5.69,0,0,1,1.61-3.82l3.7-3.76a5.51,5.51,0,0,1,3.88-1.55ZM16.11,108.67H26.78l3.1-3.16V78.08l-3.1-3.16H16.11L13,78.08v27.42Z" transform="translate(-3.23 -6.01)"/><path d="M46.81,68.61H66.43a5.5,5.5,0,0,1,3.87,1.55L74,73.91a5.69,5.69,0,0,1,1.61,3.82V92.33A5.69,5.69,0,0,1,74,96.15L70.3,99.9a5.34,5.34,0,0,1-2.38,1.37L75.61,111v4H70.48L59.93,101.45H53.37V115H46.81ZM69,78.08l-3.1-3.16H53.37V95.13H65.95L69,92Z" transform="translate(-3.23 -6.01)"/><path d="M106.37,100.14,86.75,87.62c-1.13-.72-1.61-2.44-1.61-3.82V77.73a5.69,5.69,0,0,1,1.61-3.82l3.7-3.76a5.51,5.51,0,0,1,3.88-1.55h9.48a5.51,5.51,0,0,1,3.88,1.55l4.65,4.77-4.95,4.17-4.05-4.17H94.8l-3.1,3.16v4.77l19.61,12.52c1.13.72,1.61,2.44,1.61,3.81v6.68a5.69,5.69,0,0,1-1.61,3.82l-3.7,3.76a5.5,5.5,0,0,1-3.87,1.55H92.48a5.5,5.5,0,0,1-3.87-1.55l-5.43-5.54,4.95-4.17L93,108.67h10.31l3.1-3.16Z" transform="translate(-3.23 -6.01)"/><path d="M119.72,68.61h29.81v6.32H137.9V115h-6.56V74.92H119.72Z" transform="translate(-3.23 -6.01)"/><path d="M166.33,115a5.51,5.51,0,0,1-3.88-1.55l-3.7-3.76a5.69,5.69,0,0,1-1.61-3.82V68.61h6.56v36.9l3.1,3.16h10.67l3.1-3.16V68.61h6.56v37.26a5.69,5.69,0,0,1-1.61,3.82l-3.7,3.76A5.5,5.5,0,0,1,178,115Z" transform="translate(-3.23 -6.01)"/><path d="M222.13,68.61h5.6v4.65l-9.54,39.23a3,3,0,0,1-3.1,2.5h-7.57a3,3,0,0,1-3.1-2.5l-9.54-39.23V68.61h5.6l9.6,40.06h2.44Z" transform="translate(-3.23 -6.01)"/><path d="M234.41,68.61H241l2.15,30.7,4.83-15c.48-1.37,1.19-2.5,3.1-2.5h4.89c1.91,0,2.62,1.13,3.1,2.5l4.83,15L266,68.61h6.56L268.39,115h-5.6L254,88.16h-1L244.19,115h-5.6Z" transform="translate(-3.23 -6.01)"/><path d="M346.54,68.61V84.16A5.68,5.68,0,0,1,344.93,88l-9.6,9.66V115h-6.56V97.64L319.18,88a5.68,5.68,0,0,1-1.61-3.82V68.61h6.56v15.2l7.93,8,7.93-8V68.61Z" transform="translate(-3.23 -6.01)"/><path d="M356.68,68.61h26.95v5.6l-21.34,30.7v3.76h21.34V115h-27.9V103.24L375.4,74.92H356.68Z" transform="translate(-3.23 -6.01)"/><path d="M398.23,101.75,395,115h-5.6v-4.65L399.24,70A8.17,8.17,0,1,1,414,65.15,8.47,8.47,0,0,1,412.42,70l9.84,40.36V115h-5.61l-3.22-13.23Zm6.5-27.42-4.89,21.1h12l-4.89-21.1Zm1-4.95a4.23,4.23,0,1,0-4.17-4.17A4.18,4.18,0,0,0,405.74,69.38Z" transform="translate(-3.23 -6.01)"/><path d="M435,101.75,431.79,115h-5.6v-4.65l9.54-39.23a3,3,0,0,1,3.1-2.5h7.57a3,3,0,0,1,3.1,2.5L459,110.34V115h-5.61l-3.22-13.23Zm-1.61-43h6.5v6.5h-6.5Zm8,16.16-4.77,20.51h12l-4.77-20.51Zm4-16.16h6.5v6.5h-6.5Z" transform="translate(-3.23 -6.01)"/><path d="M487,68.61a5.51,5.51,0,0,1,3.87,1.55l3.7,3.76a5.68,5.68,0,0,1,1.61,3.82v28.14a5.68,5.68,0,0,1-1.61,3.82l-3.7,3.76A5.51,5.51,0,0,1,487,115H475.37a5.5,5.5,0,0,1-3.87-1.55l-3.7-3.76a5.69,5.69,0,0,1-1.61-3.82V77.73a5.69,5.69,0,0,1,1.61-3.82l3.7-3.76a5.5,5.5,0,0,1,3.87-1.55Zm-14.85-9.84h6.5v6.5h-6.5Zm3.7,49.9h10.67l3.1-3.16V78.08l-3.1-3.16H475.84l-3.1,3.16v27.42Zm8.29-49.9h6.5v6.5h-6.5Z" transform="translate(-3.23 -6.01)"/><path d="M26.07,131.2a5.5,5.5,0,0,1,3.87,1.55l3.7,3.76a5.69,5.69,0,0,1,1.61,3.82v28.14a5.69,5.69,0,0,1-1.61,3.82L29.94,176a5.5,5.5,0,0,1-3.87,1.55H15.64A5.51,5.51,0,0,1,11.76,176l-3.7-3.76a5.69,5.69,0,0,1-1.61-3.82V140.32a5.69,5.69,0,0,1,1.61-3.82l3.7-3.76a5.51,5.51,0,0,1,3.88-1.55Zm2.62,9.48-3.1-3.16H16.11L13,140.68v15l15.68-10ZM16.11,171.26h9.48l3.1-3.16v-15L13,163.09v5Z" transform="translate(-3.23 -6.01)"/><path d="M48.3,171.5H56v-34H54.92l-4.05,4.17-4.95-4.17,4.65-4.77a5.51,5.51,0,0,1,3.88-1.55h8.11v40.3h7.57v6.08H48.3Z" transform="translate(-3.23 -6.01)"/><path d="M100.35,137.52H92.06l-4.59,4.71-4.95-4.17,5.19-5.31a5.51,5.51,0,0,1,3.88-1.55h9.24a5.5,5.5,0,0,1,3.87,1.55l3.7,3.76a5.69,5.69,0,0,1,1.61,3.82v6.26a5.69,5.69,0,0,1-1.61,3.82L89,170.43v.83h21.1v6.32H82.46V171a6.45,6.45,0,0,1,1.73-4.77l19.26-20v-5.54Z" transform="translate(-3.23 -6.01)"/><path d="M127.77,171.26H138.2l3.1-3.16v-7.93L138.2,157h-7.87v-6.32h7.27l3.1-3.16v-6.86l-3.1-3.16H129L125,141.69,120,137.52l4.65-4.77a5.5,5.5,0,0,1,3.87-1.55h9.54a5.51,5.51,0,0,1,3.88,1.55l3.7,3.76a5.69,5.69,0,0,1,1.61,3.82v7.57a5.69,5.69,0,0,1-1.61,3.82l-1.79,1.79,2.38,2.5a5.69,5.69,0,0,1,1.61,3.82v8.64a5.69,5.69,0,0,1-1.61,3.82l-3.7,3.76a5.51,5.51,0,0,1-3.88,1.55H127.29a5.51,5.51,0,0,1-3.88-1.55l-4.65-4.77,4.95-4.17Z" transform="translate(-3.23 -6.01)"/><path d="M184.64,131.2v26.95h3.58v6.32h-3.58v13.11h-6.56V164.47H157.69v-7.39a8,8,0,0,1,1.73-4.89l13.83-21Zm-6.56,26.95V137.52h-1.55L164,156.6v1.55Z" transform="translate(-3.23 -6.01)"/><path d="M197.75,131.2h25.69v6.32H204.07v9.18H215.4a5.5,5.5,0,0,1,3.87,1.55L223,152a5.68,5.68,0,0,1,1.61,3.82v12.64a5.68,5.68,0,0,1-1.61,3.82l-3.7,3.76a5.5,5.5,0,0,1-3.87,1.55H203.77a5.47,5.47,0,0,1-3.64-1.55l-3.7-3.76,4.95-4.17,3.1,3.16h10.43l3.1-3.16V156.18l-3.1-3.16H197.75Z" transform="translate(-3.23 -6.01)"/><path d="M257.37,131.2l-12.1,18.42h9.06a5.51,5.51,0,0,1,3.88,1.55l3.7,3.76a5.69,5.69,0,0,1,1.61,3.82v9.72a5.69,5.69,0,0,1-1.61,3.82L258.2,176a5.51,5.51,0,0,1-3.88,1.55H243.89a5.47,5.47,0,0,1-3.64-1.55l-3.7-3.76a5.69,5.69,0,0,1-1.61-3.82v-12.7a7.63,7.63,0,0,1,1.73-4.89l12.94-19.67Zm-15.86,24.74V168.1l3.1,3.16h9.24l3.1-3.16v-9l-3.1-3.16Z" transform="translate(-3.23 -6.01)"/><path d="M299.69,142.23a7.93,7.93,0,0,1-1.79,4.17l-15.8,24v7.15h-6.56V170.9a7.62,7.62,0,0,1,1.73-4.89l15.86-24.09v-4.41H273V131.2h26.65Z" transform="translate(-3.23 -6.01)"/><path d="M327.11,131.2a5.51,5.51,0,0,1,3.88,1.55l3.7,3.76a5.69,5.69,0,0,1,1.61,3.82v7a5.69,5.69,0,0,1-1.61,3.82l-1.55,1.55,2.74,2.74a5.69,5.69,0,0,1,1.61,3.82v9.24a5.69,5.69,0,0,1-1.61,3.82l-3.7,3.76a5.51,5.51,0,0,1-3.88,1.55H318.17a5.5,5.5,0,0,1-3.87-1.55l-3.7-3.76a5.69,5.69,0,0,1-1.61-3.82v-9.24a5.69,5.69,0,0,1,1.61-3.82l2.74-2.74-1.55-1.55a5.69,5.69,0,0,1-1.61-3.82v-7a5.69,5.69,0,0,1,1.61-3.82l3.7-3.76a5.5,5.5,0,0,1,3.87-1.55Zm-8.46,40.06h9.18l3.1-3.16v-8.53l-3.1-3.16h-9.18l-3.1,3.16v8.53Zm8-21.16,3.1-3.16v-6.26l-3.1-3.16h-6.8l-3.1,3.16v6.26l3.1,3.16Z" transform="translate(-3.23 -6.01)"/><path d="M354,177.58l12.1-18.42H357a5.5,5.5,0,0,1-3.87-1.55l-3.7-3.76a5.69,5.69,0,0,1-1.61-3.82v-9.72a5.69,5.69,0,0,1,1.61-3.82l3.7-3.76A5.5,5.5,0,0,1,357,131.2h10.43a5.2,5.2,0,0,1,3.64,1.55l3.7,3.76a5.69,5.69,0,0,1,1.61,3.82V153a8,8,0,0,1-1.73,4.89l-12.94,19.67Zm15.86-24.74V140.68l-3.1-3.16h-9.24l-3.1,3.16v9l3.1,3.16Z" transform="translate(-3.23 -6.01)"/><path d="M299.52,90.72l12,20.27v4h-5.13L295.77,97l-10.85,18h-4.83v-4l12-20.09L281.28,72.6v-4h5.13l9.48,16,9.66-16h4.83v4Z" transform="translate(-3.23 -6.01)"/></svg>