<svg id="Sheild_type" data-name="Sheild + type" xmlns="http://www.w3.org/2000/svg" viewBox="0 0 1009.13 1009.13"><defs><style>.cls-1{fill:none;stroke:#b4b4b4;stroke-miterlimit:10;}.cls-2{fill:#998247;}.cls-3{fill:#fff100;}.cls-4{fill:#e4412b;}.cls-5{fill:#006bb5;}</style></defs><title>DIF_primary_skold_clearspace</title><line class="cls-1" x1="21.25" y1="156.52" x2="993.78" y2="156.52"/><line class="cls-1" x1="166.68" y1="883.68" x2="166.68" y2="11.09"/><line class="cls-1" x1="847.03" y1="883.68" x2="847.03" y2="11.09"/><line class="cls-1" x1="123.43" y1="11.09" x2="892.32" y2="11.09"/><line class="cls-1" x1="21.25" y1="301.95" x2="993.78" y2="301.95"/><line class="cls-1" x1="21.25" y1="447.38" x2="993.78" y2="447.38"/><line class="cls-1" x1="21.25" y1="592.81" x2="993.78" y2="592.81"/><line class="cls-1" x1="21.25" y1="738.25" x2="993.78" y2="738.25"/><rect class="cls-1" x="21.25" y="11.09" width="972.53" height="872.59"/><line class="cls-1" x1="992.6" y1="11.09" x2="847.03" y2="156.52"/><line class="cls-1" x1="847.03" y1="11.09" x2="992.6" y2="156.52"/><line class="cls-1" x1="166.81" y1="11.09" x2="21.25" y2="156.52"/><line class="cls-1" x1="21.25" y1="11.09" x2="166.81" y2="156.52"/><line class="cls-1" x1="992.6" y1="738.25" x2="847.03" y2="883.68"/><line class="cls-1" x1="847.03" y1="738.25" x2="992.6" y2="883.68"/><line class="cls-1" x1="166.81" y1="738.25" x2="21.25" y2="883.68"/><line class="cls-1" x1="21.25" y1="738.25" x2="166.81" y2="883.68"/><path class="cls-2" d="M276.32,390.57H240.83s-17.26,19.91-17.31,20.1v27.74l8.24,7.83-8.24,7.83v28.49c.28.41,14.33,18.7,14.6,19.42h37.21s15.53-19.91,15.59-20.1V454.15l-8.24-7.83,8.24-7.83V410C290.64,409.59,276.59,391.29,276.32,390.57Zm6.86,44.71-11.06,11.19-.51-.08,11.56,11v23.18c0,.14-11.6,15.47-11.6,15.47h-29c-.21-.55-11-14.63-11.23-14.95l-.06-.58V457.28l11.06-11.19.51.07-11.56-11V412c0-.14,13.32-15.47,13.32-15.47h27.31c.21.55,11,14.63,11.23,14.95l.05.59Z"/><path class="cls-2" d="M200.37,478.81V391.24H167.15l.16,22.75h7.3v64.82h-7.3v22.32h40.78V478.81Zm0,16.31H174.61v-9.87h7.3V407.79h-7.3V397.25H193.5v88h6.87C200.37,489.06,200.47,492.24,200.37,495.13Z"/><path class="cls-2" d="M839.31,479V391.44H806.09l.16,22.75h7.3V479h-7.3v22.32H847V479Zm0,16.31H813.55v-9.87h7.3V408h-7.3V397.45h18.89v88h6.87C839.31,489.26,839.41,492.44,839.31,495.32Z"/><path class="cls-2" d="M266.88,406.27H248.42l-5.58,5.16V434l5.58,5.16,17.49,0,5.78-5.34V413.1Zm-3,26.19H250.56V412.62h13.31Z"/><path class="cls-2" d="M248.53,453.33l-5.78,5.34v20.79l4.82,6.83H266l5.58-5.16V458.52L266,453.36Zm15.35,26.61H250.56V460.1h13.31Z"/><path class="cls-2" d="M774.74,390.78H739.25S722,412.31,721.94,412.51v30L737,458h25.33v21H749.41v-7.3H721.7v15l15.69,15h36.92l15-15.45V411.79C789.05,411.34,775,391.56,774.74,390.78Zm6.8,92.65L770,495.32H741.57l-11.26-11.56v-5.61h12.23v4.06l4.72,4.09h17.6l5.24-5.88V450.91H741.24l-11.56-11.85V414c0-.15,13.33-16.73,13.33-16.73h27.31c.21.6,11,15.83,11.23,16.17Z"/><path class="cls-2" d="M765.29,407.75H746.84l-5.58,5.58V437.8l5.58,5.58h23.28V415.14Zm-3,28.33H749V414.62h13.31Z"/><path class="cls-2" d="M233.3,353.9l1.42-3.65c3.8-9.8,11.59-12.18,19.31-9.18s12.09,10.41,8.58,19.46l-1.6,4.12Zm-1.7,4.52,27.66,10.73-1.58,4.07,3.27,1.27,5.2-13.4c4.7-12.12-1.71-21.15-10.19-24.44-11.13-4.32-20.29,1.61-23.63,10.23l-5.57,14.35,3.27,1.27Z"/><path class="cls-2" d="M241.77,324.67l6.49-12.77,3.12,1.59-2.07,4.08L275.71,331c5,2.56,7.55,6.23,4.88,11.48l-1.15,2.26-3.89-2,.87-1.72c1.1-2.17.78-3.88-1.44-5l-27.85-14.15-2.23,4.39Z"/><path class="cls-2" d="M261.64,289.66l7-11,3,1.89-2.08,3.25,17,10.89c7.7,4.94,8.81,11.86,4.67,18.32s-10.9,8.34-18.6,3.4l-17-10.89-2.08,3.25-3-1.89,7-11,3,1.89-2.36,3.68,18.17,11.65c4.62,3,8.62,1.43,11.12-2.47s2.22-8.17-2.4-11.13l-18.17-11.65-2.36,3.68Z"/><path class="cls-2" d="M281.3,268.62l3.47-4.11c2.56-3,6-6.17,9.81-3s2.39,7.4-.49,10.82l-3.47,4.11Zm28.16,18.06-2.68-2.26L304,287.76l-10.67-9,3.9-4.62c2.13-2.52,4.58-4.64,7.45-2.21l10.09,8.52,5.87-6.95-2.68-2.26-2.75,3.26-7.76-6.55c-2.33-2-5.36-2-7.23.21l-.08-.07c1.2-4.1,1.12-7.23-2.37-10.18-4.27-3.61-9.3-3-13.57,1.9l-11.44,13.54,2.68,2.26,2.79-3.3,22.66,19.14-2.79,3.3,2.68,2.26Z"/><path class="cls-2" d="M328.88,233.5c-4.42-3.28-10.93-2.57-15,1a14.81,14.81,0,0,0,19.66,22.07c4.63-4.12,5.29-10.7,3.09-14.86l-7.17,6.39-2.64-3,13.24-11.79,2.64,3-3.19,2.84,8.38,9.41-3,2.64L342,248c-.52,5.22-2,8.73-5.58,11.91A19.15,19.15,0,0,1,311,231.28,16.79,16.79,0,0,1,322.49,227l-2.43-2.73,3-2.64,8.48,9.52Z"/><path class="cls-2" d="M340.37,200.12a2.76,2.76,0,0,1,.79-4,2.83,2.83,0,0,1,4,.83,2.72,2.72,0,0,1-.83,4A2.68,2.68,0,0,1,340.37,200.12Zm5.22,2.77a5.17,5.17,0,0,0,1.49-7.17,5.16,5.16,0,1,0-8.62,5.65A5.13,5.13,0,0,0,345.59,202.89Zm-4,9.58,3.74-2.45,7.64,30.46L350,242.4l1.92,2.93,10.32-6.77-1.92-2.93-3.69,2.42-2.45-9.2,10.62-7,7.38,6-3.7,2.42,1.92,2.93,10.66-7-1.92-2.93-2.85,1.87-24.51-19.4,3.7-2.42-1.92-2.93-13.93,9.14Zm20.39,7.1-8.62,5.65L349,209.33l.08-.06Z"/><path class="cls-2" d="M376.05,191.89l4.85-2.33c3.57-1.72,8-3.17,10.16,1.32s-.85,7.73-4.88,9.67l-4.85,2.33Zm18.3,28-1.52-3.16-3.94,1.89-6-12.59,5.45-2.62c3-1.43,6.08-2.36,7.71,1l5.72,11.9,8.19-3.94-1.52-3.16-3.85,1.85-4.4-9.16c-1.32-2.75-4.07-4-6.68-2.76l0-.09c2.78-3.25,4-6.14,2-10.26-2.42-5-7.26-6.54-13.16-3.82l-16,7.68,1.52,3.16L371.7,194l12.85,26.74-3.89,1.87,1.52,3.16Z"/><path class="cls-2" d="M409.83,177.27l3.72-1.21c10-3.26,16.76,1.27,19.33,9.14s-.41,15.95-9.64,19l-4.2,1.37Zm-4.57,1.54,9.19,28.2-4.15,1.35,1.09,3.33,13.67-4.46c12.36-4,15.29-14.71,12.47-23.35-3.7-11.35-14.09-14.69-22.88-11.83L400,176.84l1.08,3.33Z"/><path class="cls-2" d="M445.24,201l-.66-3.44,4.29-.82-5.56-29.14-4.29.82-.66-3.44,27.84-5.31,1.84,9.63-4.29.82-1.18-6.19-14.52,2.77,2.19,11.48,12.22-2.33.74,3.89L451,182l2.63,13.77L468.14,193l-1.39-7.29,4.29-.82,2,10.73Z"/><path class="cls-2" d="M476.83,161.9l-4.05.26-.22-3.5,9.43-.6L499,183.89h.1l-1.48-23.32-4.21.27-.22-3.5,12.88-.82.22,3.5-4.11.26,2.11,33.1-4.16.26-18.39-27.54h-.1l1.6,25.09,4.51-.29.22,3.5-13.23.84-.22-3.5,4.16-.26Z"/><path class="cls-2" d="M515.77,181.17c.58,5.33,4.25,9.37,9.67,9.71,3.8.24,7.89-1.69,8.15-5.85.64-10.24-21.75-5.48-20.88-19.37.42-6.64,5.78-9.41,11.86-9a12,12,0,0,1,8.93,4.48l.19-3.09,4,.25L537,169l-4.05-.25a8.83,8.83,0,0,0-8.21-7.94c-4.66-.29-7.25,2-7.43,5-.55,8.77,21.8,4.57,20.89,19.22-.4,6.34-5.9,10.47-12,10.09a15.92,15.92,0,0,1-10.91-4.55l-.19,3-4-.25.78-12.42Z"/><path class="cls-2" d="M552.51,197.42l.7-3.43,4.33.88,5.9-29.07-4.23-.86.7-3.43,13.39,2.72-.7,3.43-4.43-.9-5.9,29.07,4.33.88-.7,3.43Z"/><path class="cls-2" d="M577.78,168.62l1-3.36,26.91,8-2.81,9.39-4.18-1.25,1.8-6-13.92-4.16-3.35,11.19,12.27,3.67-1.14,3.8-12.26-3.67-4,13.43,5,1.48-1,3.36-13.87-4.15,1-3.36,4.28,1.28,8.5-28.42Z"/><path class="cls-2" d="M622.91,183.79l1.54-3.15L649.69,193l-4.3,8.81-3.92-1.92,2.77-5.66-13.05-6.38L626,198.33l11.5,5.62-1.74,3.56-11.5-5.62-6.16,12.6,4.66,2.27-1.54,3.15-13-6.36,1.54-3.15,4,2,13-26.65Z"/><path class="cls-2" d="M670,209.89a14.79,14.79,0,1,1-20.22,4.23A14.37,14.37,0,0,1,670,209.89Zm2.43-3.63a19.15,19.15,0,1,0,5.31,26.63A19,19,0,0,0,672.44,206.27Z"/><path class="cls-2" d="M686.78,230l6.75-7.59,20.68,18.41-6.76,7.59-3.26-2.9,4.42-5-5.27-4.69L683.62,258l3.42,3-2.33,2.62-10.43-9.29,2.33-2.62,3.42,3,19.72-22.16L694.46,228l-4.42,5Z"/><path class="cls-2" d="M710.48,264.65l2.57,2.88c4.05,4.55,4.5,8.1.78,11.41s-7,2.95-11.33-1.95l-2.6-2.92ZM722,254.34l3.18,3.56c2.77,3.11,2.82,6.6-.17,9.27-2.39,2.13-6.41,1.36-8.61-1.11l-3.35-3.75Zm-30.88,15.21,9.09,10.2c5.07,5.69,10.72,8.21,16.4,3.14,5.31-4.73,3.47-9.69,2.26-11.81L719,271a7.56,7.56,0,0,0,9.79-.7c4.59-4.09,4.32-8.82-1.05-14.85l-9.13-10.24L716,247.56l2.84,3.18-22.14,19.74-2.91-3.26Z"/><path class="cls-2" d="M749.81,289.66a14.79,14.79,0,1,1-20.31-3.74A14.37,14.37,0,0,1,749.81,289.66Zm3.63-2.43a19.15,19.15,0,1,0-5.18,26.65A19,19,0,0,0,753.43,287.23Z"/><path class="cls-2" d="M763.5,311.54l3.14-1.55,6.16,12.48L769.66,324l-2.09-4.24L741,332.91l5,10.2,6.51-3.22,1.93,3.92-9.65,4.77-11.09-22.45,3.14-1.55,2,4,26.6-13.13Z"/><path class="cls-2" d="M776.85,339.26l3.29-1.21,4.8,13.06-3.29,1.21L780,347.89l-27.84,10.23,3.93,10.68,6.82-2.51,1.51,4.1-10.11,3.72-8.64-23.5L749,349.4l1.54,4.2,27.84-10.24Z"/><path class="cls-2" d="M245.94,537.09c-4.66,2.5-7,7.34-5.31,12.42,1.19,3.56,4.46,6.59,8.35,5.29,9.59-3.19-3-21.89,10-26.22,6.22-2.07,10.73,1.81,12.62,7.51a11.79,11.79,0,0,1-.8,9.81l2.9-1,1.23,3.7L264.87,552l-1.26-3.8a8.7,8.7,0,0,0,4.24-10.43c-1.45-4.37-4.54-5.87-7.29-5-8.22,2.73,3.86,21.61-9.87,26.17-5.94,2-11.74-1.53-13.65-7.28a15.69,15.69,0,0,1,.14-11.65l-2.85.95-1.23-3.7,11.64-3.87Z"/><path class="cls-2" d="M268.54,559.71l8.94-4.5,12.27,24.36-8.94,4.5-1.94-3.84,5.86-3-3.13-6.21-26.11,13.15,2,4-3.08,1.55-6.19-12.29,3.08-1.56,2,4,26.11-13.15-3.13-6.21-5.86,3Z"/><path class="cls-2" d="M300,601A14.57,14.57,0,1,1,279.89,598,14.15,14.15,0,0,1,300,601Zm3.48-2.53a18.87,18.87,0,1,0-4.13,26.44A18.75,18.75,0,0,0,303.51,598.44Z"/><path class="cls-2" d="M330.25,646.17c2.53-4.74,1.06-9.74-2.66-13.39-5.58-5.46-13.89-4.55-19.45,1.14s-6.49,14.23-.91,19.69c4.33,4.24,8.91,5.14,14.29,2.78l3.15,3.08c-6.61,3.82-14.23,3.31-20.38-2.71-7.66-7.49-6.79-18.76.38-26.09s18.35-8.38,25.83-1.07a17.29,17.29,0,0,1,5.29,10.56l2.13-2.18,2.79,2.73-7.84,8Z"/><path class="cls-2" d="M356.78,652.92l-2,2.8-3.69-2.67-8.16,11.27.08.06,18.5-3.79-3.12-2.26,2-2.8,10.5,7.6-2,2.8L366.19,664l-18.92,3.85-.06.08,1.67,19.63,2.84,2.06-2,2.8-10.54-7.63,2-2.8,3.12,2.26L342.55,665l-.08-.06-8.54,11.8,3.65,2.64-2,2.8-10.95-7.92,2-2.8,3.45,2.5,17.14-23.68-3.36-2.44,2-2.8Z"/><path class="cls-2" d="M356.7,696.85l1.61-3.05,3.68,1.94,13.65-25.85L372,667.94l1.61-3.05,12,6.33L384,674.28l-4.12-2.17-5.52,10.44L388.4,690l5.52-10.45-4.07-2.15,1.61-3.05,12,6.31-1.61,3.06-3.67-1.94L384.47,707.6l3.67,1.94-1.61,3.05-12-6.33,1.61-3.05,4.12,2.17,6.31-12L372.5,686l-6.31,12,4.07,2.15-1.61,3.05Z"/><path class="cls-2" d="M423.85,691.82A14.57,14.57,0,1,1,405.7,701,14.16,14.16,0,0,1,423.85,691.82Zm1.39-4.07a18.87,18.87,0,1,0,11.87,24A18.75,18.75,0,0,0,425.24,687.75Z"/><path class="cls-2" d="M446.75,698.71l.63-3.4,13.48,2.52-.64,3.39-4.57-.85-5.38,28.73,11,2.06,1.32-7,4.23.79-2,10.43-24.25-4.54.64-3.39,4.33.81L451,699.51Z"/><path class="cls-2" d="M483.63,733.87l4.55.13-.1,3.45-13.36-.38.1-3.45,4.3.12.83-29.22-4.3-.12.1-3.45,11.66.33L496,726.21h.1l10.05-24.4,11,.31-.1,3.45-4.3-.12-.83,29.22,4.3.12-.1,3.45-13.21-.37.1-3.45,4.4.12.78-27.47h-.1l-11.29,27.47-2.45-.07-9.82-28.07h-.1Z"/><path class="cls-2" d="M528.7,724.47c1.55,5.05,5.84,8.29,11.16,7.62,3.72-.47,7.33-3.1,6.81-7.17-1.27-10-22.06-1.29-23.79-14.89-.82-6.5,3.86-10.18,9.81-10.93a11.8,11.8,0,0,1,9.47,2.68l-.39-3,3.87-.49L547,708.78l-4,.5a8.7,8.7,0,0,0-9.41-6.17c-4.57.58-6.64,3.31-6.28,6.19,1.09,8.59,21.95.4,23.77,14.75.79,6.21-3.77,11.22-9.78,12a15.7,15.7,0,0,1-11.4-2.39l.38,3-3.87.49L524.88,725Z"/><path class="cls-2" d="M578.29,715.3c2.41,4.7,7.2,7.14,12.32,5.55,3.58-1.12,6.67-4.33,5.45-8.25-3-9.65-21.95,2.59-26-10.51-1.95-6.26,2-10.69,7.75-12.48a11.79,11.79,0,0,1,9.8,1l-.91-2.92,3.73-1.16,3.16,10.13-3.82,1.19a8.7,8.7,0,0,0-10.35-4.43c-4.4,1.37-6,4.42-5.1,7.2,2.57,8.27,21.68-3.45,26,10.36,1.86,6-1.75,11.71-7.54,13.51a15.69,15.69,0,0,1-11.65-.36L582,727l-3.73,1.16-3.65-11.71Z"/><path class="cls-2" d="M601.42,693.2l-4.08-9.14,24.91-11.11,4.08,9.14-3.93,1.75-2.67-6-6.35,2.83,11.91,26.7,4.11-1.83,1.41,3.15-12.57,5.61-1.41-3.16,4.11-1.83L609,682.63l-6.35,2.83,2.67,6Z"/><path class="cls-2" d="M644.54,664a14.57,14.57,0,1,1-4.37,19.88A14.16,14.16,0,0,1,644.54,664Zm-2.28-3.65a18.87,18.87,0,1,0,26.08,6A18.75,18.75,0,0,0,642.26,660.36Z"/><path class="cls-2" d="M664.45,650.66l-2.2-2.66,10.55-8.76L675,641.9l-3.58,3,18.67,22.49,8.63-7.16-4.57-5.51,3.31-2.75,6.78,8.17-19,15.76L683,673.22l3.39-2.81-18.67-22.49Z"/><path class="cls-2" d="M689.31,638.5l-7.18-7,19-19.57,7.18,7-3,3.09-4.7-4.57-4.85,5,21,20.37,3.14-3.23,2.48,2.41-9.59,9.87-2.48-2.41,3.14-3.23-21-20.37-4.85,5,4.7,4.57Z"/><path class="cls-2" d="M733.18,630.26l-2.8-2,2.43-3.37-23.7-17.1-2.43,3.37-2.8-2,7.94-11,2.8,2-2.72,3.77,9.58,6.91,9.31-12.91L721.2,591l-2.69,3.73-2.8-2,7.91-11,2.8,2L724,587.14l23.7,17.1,2.43-3.37,2.8,2-7.94,11-2.8-2,2.72-3.78-11-7.91-9.31,12.91,11,7.91,2.69-3.74,2.8,2Z"/><path class="cls-2" d="M757.49,595l-3.08-1.56,1.94-3.84-26.09-13.17-1.94,3.84-3.08-1.56,12.59-24.93,8.62,4.35L744.5,562,739,559.2l-6.56,13,10.28,5.19,5.53-10.94,3.49,1.76-5.53,10.94,12.33,6.23,6.56-13-6.52-3.29,1.94-3.84,9.61,4.85Z"/><path class="cls-2" d="M748.85,553.21l-9.53-3.07,8.37-26,9.53,3.07-1.32,4.1-6.24-2L747.52,536l27.82,9,1.38-4.29,3.29,1.06-4.22,13.1-3.29-1.06,1.38-4.29-27.82-9-2.13,6.62,6.24,2Z"/><path class="cls-2" d="M532.24,280.73c37.92,16.51,86,20.86,128.62,11.61.73,0,.73,1.09.91,1.63,21.41,115-12.15,229.12-89.25,312.57-19.77,20.32-41.36,39.37-65.13,54.24l-1.45-.36a330.79,330.79,0,0,1-50.43-39c-51.7-47.35-88.89-109.57-103.77-175.79a270,270,0,0,1-8.16-44.81A350.67,350.67,0,0,1,341,359.64c.18-6.17,0-12.34.72-18.14a93.62,93.62,0,0,1,.73-12.34c.91-11.07,2.54-22.49,4.54-33.74,11.61,1.45,23.58,3.63,35.74,3.63,44.81,1.45,85.63-10,121.36-32.47C513.38,271.66,522.45,276.74,532.24,280.73Z"/><path class="cls-3" d="M511.75,286.35a218.81,218.81,0,0,0,56.6,20l.36.36c-7.26,6.71-14.88,13.61-21.59,20.14l-36.46,34.47c-43.9,40.82-87.26,83.09-131.7,123.18-.18.18-.54.36-.91.72-22.13-53.88-29-115-20.5-174l.55-.36c51.34,7.44,103.22-3.27,145.49-28.12C506.67,282.91,508.84,285.26,511.75,286.35Z"/><path class="cls-4" d="M651.25,311.75a361.65,361.65,0,0,1,3.63,57.51l-6.71,6.17-27,25.58c-29.93,29.21-62.95,57.87-92.7,87.26-3.63,3.27-7.44,6.71-10.7,10.16l-.72.36c-27.21,25.76-55.51,52.43-83.09,78.19-.73,0-.73,1.09-1.63.72A348.7,348.7,0,0,1,381.86,495l.18-.73,62.22-58.59,106.13-99.78c9.62-8.71,19.23-18.32,29.21-26.85,2.54-1.09,5.26.36,8,.36,20.14,2.72,42.27,1.81,62.23-1.45C652.16,307.94,650.71,310.48,651.25,311.75Z"/><path class="cls-2" d="M584.13,348v.54l-12.34,11.79,4.72,5.08c4.54-3.08,8-7.07,11.79-10.7,4.17,3.81,8.16,8.35,11.79,12.34v.36c-4.17,3.63-7.62,7.44-11.43,11.07,5.44,5.8,10.7,11.61,16.15,17.41-4,4.72-8.53,8.53-13.24,12.7-14.88-16.33-30.48-31.2-45.17-47.89,2.36-2.72,5.62-5.08,8.34-7.8,5.8-6.17,12-10.88,17.6-16.87l1.27.54Z"/><path class="cls-2" d="M632.56,360.19c2.54,3.27,2.18,8.16.18,11.43-1.63,2.9-4.54,4.17-7.44,4.72a10.57,10.57,0,0,1-9.07-4.9c-1.45-2.9-2.18-6.89-.18-10.16,1.27-2.9,4.72-4.72,7.8-5.08C627.49,355.65,630.39,357.47,632.56,360.19Z"/><path class="cls-5" d="M654.34,386.49c-.91,6.89-1.45,14.15-2.36,21l.18.36c-2.9,21.22-8.17,42.09-14.33,62h0a427.31,427.31,0,0,1-16.14,40.45C607,540.51,588.12,570.8,564,595.84c-16.87,17.6-34.47,33.92-54.6,47.89-3.08,2.9-5.44-1.27-8-2.54-23.22-16-43.9-35-62.77-56.42l13.24-12.88,37.37-35.38,19-18,74-69.3,18-16.87,48.25-45.53,5.26-4.9C654.52,382.86,654,385,654.34,386.49Z"/><path class="cls-2" d="M549.66,447.63c-4.17,4.17-8.89,8.35-13.42,12.52-.73.18-.91-.91-1.27-1.45-14.51-15.6-29.75-31.38-43.54-46.8,4.35-4.35,8.89-8.16,13.61-12.52l10.89,11.43Z"/><path class="cls-2" d="M571.79,420.78a10.31,10.31,0,0,1-1.81,10c-2,3.27-6,4-9.62,3.45a10.43,10.43,0,0,1-7.8-7.62,10.82,10.82,0,0,1,4-10,9.8,9.8,0,0,1,10.16-1.27A12.22,12.22,0,0,1,571.79,420.78Z"/><path class="cls-2" d="M480.54,477.2c5.26,8.71,7.08,21.23,2.18,30.84-2.18,4.72-6.71,8.71-10.34,12.52L459,533.07l-18.32-20-26.49-28.48c11.25-9.07,20.14-23.4,36.1-24.49C462.95,459.6,473.65,466.86,480.54,477.2Z"/><path class="cls-2" d="M516.64,470.49a10.4,10.4,0,0,1,0,9.79,9.88,9.88,0,0,1-8.16,5.08c-4,.36-7.26-2-9.25-5.08a10.75,10.75,0,0,1,.54-10.7,11,11,0,0,1,10.89-3.81A10.26,10.26,0,0,1,516.64,470.49Z"/><path class="cls-4" d="M465.85,489a15.71,15.71,0,0,1-.54,15.24c-1.27,1.27-2,3.45-4.17,3.27l-21.77-23.4c.91-1.81,3.08-2.9,4.72-3.81,4.17-2.18,9.8-2.36,13.79.18A21.29,21.29,0,0,1,465.85,489Z"/></svg>