<svg id="Layer_1" data-name="Layer 1" xmlns="http://www.w3.org/2000/svg" viewBox="0 0 337.71 237.84"><title>dif_type_overview</title><path d="M49.59,60.86A7.63,7.63,0,0,1,47.43,66l-5,5a7.39,7.39,0,0,1-5.2,2.08H9.35V10.86H37.27a7.38,7.38,0,0,1,5.2,2.08l5,5a7.63,7.63,0,0,1,2.16,5.12ZM18.15,19.34V64.63H36.63l4.16-4.24V23.58l-4.16-4.24Z" transform="translate(-9.35 -10.86)"/><path d="M62.39,10.86H84.31V19H77.75V64.95h6.56v8.16H62.39V64.95h6.56V19H62.39Z" transform="translate(-9.35 -10.86)"/><path d="M97.11,10.86h34v8.48h-25.2V37.5h19V46h-19V73.11h-8.8Z" transform="translate(-9.35 -10.86)"/><path d="M49.59,145.86A7.63,7.63,0,0,1,47.43,151l-5,5a7.38,7.38,0,0,1-5.2,2.08H9.35V95.86H37.27a7.38,7.38,0,0,1,5.2,2.08l5,5a7.63,7.63,0,0,1,2.16,5.12ZM18.15,104.34v45.28H36.63l4.16-4.24v-36.8l-4.16-4.24Z" transform="translate(-9.35 -10.86)"/><path d="M62.39,95.86H84.31V104H77.75v45.92h6.56v8.16H62.39v-8.16h6.56V104H62.39Z" transform="translate(-9.35 -10.86)"/><path d="M126,138.18l-26.32-16.8c-1.52-1-2.16-3.28-2.16-5.12V108.1A7.63,7.63,0,0,1,99.67,103l5-5a7.38,7.38,0,0,1,5.2-2.08h12.72a7.38,7.38,0,0,1,5.2,2.08l6.24,6.4-6.64,5.6-5.44-5.6H110.47l-4.16,4.24V115l26.32,16.8c1.52,1,2.16,3.28,2.16,5.12v9a7.63,7.63,0,0,1-2.16,5.12l-5,5a7.38,7.38,0,0,1-5.2,2.08H107.35a7.38,7.38,0,0,1-5.2-2.08l-7.28-7.44,6.64-5.6,6.48,6.64h13.84l4.16-4.24Z" transform="translate(-9.35 -10.86)"/><path d="M147.59,95.86h26.32a7.38,7.38,0,0,1,5.2,2.08l5,5a7.63,7.63,0,0,1,2.16,5.12v19.6a7.63,7.63,0,0,1-2.16,5.12l-5,5a7.38,7.38,0,0,1-5.2,2.08H156.39v18.16h-8.8Zm29.84,12.72-4.16-4.24H156.39v27.12h16.88l4.16-4.24Z" transform="translate(-9.35 -10.86)"/><path d="M197.59,95.86h8.8v53.76h24.32v8.48H197.59Z" transform="translate(-9.35 -10.86)"/><path d="M249.58,140.34l-4.32,17.76h-7.52v-6.24l12.8-52.64a4,4,0,0,1,4.16-3.36h10.16A4,4,0,0,1,269,99.22l12.8,52.64v6.24h-7.52L270,140.34Zm8.56-36-6.4,27.52h16.08l-6.4-27.52Z" transform="translate(-9.35 -10.86)"/><path d="M329.74,95.86v20.88a7.63,7.63,0,0,1-2.16,5.12l-12.88,13v23.28h-8.8V134.82l-12.88-13a7.63,7.63,0,0,1-2.16-5.12V95.86h8.8v20.4L310.3,127l10.64-10.72V95.86Z" transform="translate(-9.35 -10.86)"/><path d="M9.35,203.11v-28h5.56L23,193.27h.08l8.12-18.16h5.6v28H31.55v-17.2h-.08l-8,17.2h-.88l-8-17.2h-.08v17.2Z" transform="translate(-9.35 -10.86)"/><path d="M54.71,203.11v-2h-.08l-.2.3a4.47,4.47,0,0,1-.6.62,5.85,5.85,0,0,1-2.72,1.44,8.6,8.6,0,0,1-2.24.28q-3.84,0-5.74-1.82a5.94,5.94,0,0,1-1.9-4.46,5.29,5.29,0,0,1,1.64-4.2,13.47,13.47,0,0,1,5.56-2.4,23.13,23.13,0,0,0,4.56-1.4,1.62,1.62,0,0,0,.92-1.48,1.91,1.91,0,0,0-.9-1.6,4.67,4.67,0,0,0-2.7-.64,4.13,4.13,0,0,0-3,.94,6.38,6.38,0,0,0-1.44,2.54l-4.32-1.8a8.24,8.24,0,0,1,3-4.38,9.16,9.16,0,0,1,5.76-1.7,9.68,9.68,0,0,1,6.36,2q2.48,2,2.48,6.32v13.44Zm-5.24-8.68a5.56,5.56,0,0,0-2.62,1.14,2.13,2.13,0,0,0-.62,1.5q0,2.16,3.12,2.16a5.8,5.8,0,0,0,3.54-.9,2.71,2.71,0,0,0,1.18-2.22v-3.68H54a1.91,1.91,0,0,1-.34.5,5,5,0,0,1-1.22.6A23.69,23.69,0,0,1,49.47,194.43Z" transform="translate(-9.35 -10.86)"/><path d="M64.07,178.83v-4.92h5.2v4.92Zm0,24.28v-21.2h5.2v21.2Z" transform="translate(-9.35 -10.86)"/><path d="M73.07,196.11l4.68-1.2q.56,4.44,4.76,4.44a6.41,6.41,0,0,0,3.06-.62A1.91,1.91,0,0,0,86.71,197a1.48,1.48,0,0,0-.88-1.38,23.92,23.92,0,0,0-3.68-1.26L81,194a15,15,0,0,1-5.4-2.46,4.65,4.65,0,0,1-1.72-3.78A5.93,5.93,0,0,1,76,183.23a8.45,8.45,0,0,1,5.86-1.92q7.12,0,8.92,6.24l-4.32,1.32a5.7,5.7,0,0,0-1.58-2.4,5.42,5.42,0,0,0-5.4-.3,1.65,1.65,0,0,0-.9,1.38,1.53,1.53,0,0,0,1.06,1.38,46.34,46.34,0,0,0,5.3,1.7q3.72,1,5.06,2.54a5.79,5.79,0,0,1,1.34,3.94,6.06,6.06,0,0,1-2.22,4.58q-2.22,2-6.42,2-4.4,0-6.78-2.22A9,9,0,0,1,73.07,196.11Z" transform="translate(-9.35 -10.86)"/><path d="M110.79,200.75a10,10,0,0,1-14.24,0q-2.8-3-2.8-8.24a11.35,11.35,0,0,1,2.88-8.2,9.76,9.76,0,0,1,14.08,0,11.35,11.35,0,0,1,2.88,8.2Q113.59,197.78,110.79,200.75Zm-10.64-3.4a4.51,4.51,0,0,0,7,0,7.88,7.88,0,0,0,1.28-4.82,7.8,7.8,0,0,0-1.3-4.82,4.47,4.47,0,0,0-7,0,7.78,7.78,0,0,0-1.3,4.84A7.87,7.87,0,0,0,100.15,197.35Z" transform="translate(-9.35 -10.86)"/><path d="M117.58,203.11v-21.2h5v2h.08a6.93,6.93,0,0,1,2.4-1.88,7.07,7.07,0,0,1,3.2-.76,7.26,7.26,0,0,1,5.52,2.1,8.1,8.1,0,0,1,2,5.82v13.88h-5.2v-12.6a5.4,5.4,0,0,0-.84-3.3,3.41,3.41,0,0,0-2.88-1.1,3.77,3.77,0,0,0-4.08,4v13Z" transform="translate(-9.35 -10.86)"/><path d="M151.19,203.11v-28h5.4l10.24,18.36h.08V175.11h5.44v28H167l-10.36-18.36h-.08v18.36Z" transform="translate(-9.35 -10.86)"/><path d="M191.9,195.79l3.64,3.2a10.11,10.11,0,0,1-8.76,4.72,9.36,9.36,0,0,1-7.24-3.06,13.27,13.27,0,0,1,0-16.28,9.08,9.08,0,0,1,7-3.06,9,9,0,0,1,7,3.06,11.75,11.75,0,0,1,2.74,8.14v1.56H182a5.69,5.69,0,0,0,1.34,3.74,4.36,4.36,0,0,0,3.34,1.3,4.77,4.77,0,0,0,3-.9A10.38,10.38,0,0,0,191.9,195.79Zm-9.88-5.6h9.2a4.87,4.87,0,0,0-1.4-3.18,4.57,4.57,0,0,0-3.28-1.14,4.21,4.21,0,0,0-3.14,1.24A4.84,4.84,0,0,0,182,190.19Z" transform="translate(-9.35 -10.86)"/><path d="M200.06,195.59V181.91h5.2V195a4.21,4.21,0,0,0,.76,2.84,3.14,3.14,0,0,0,2.44.84,4.55,4.55,0,0,0,3-1,3.84,3.84,0,0,0,1.16-3.1V181.91h5.2v21.2h-5v-2h-.08a6.47,6.47,0,0,1-5.52,2.64,6.61,6.61,0,0,1-5.46-2.2A9.14,9.14,0,0,1,200.06,195.59Z" transform="translate(-9.35 -10.86)"/><path d="M237,195.79l3.64,3.2a10.11,10.11,0,0,1-8.76,4.72,9.36,9.36,0,0,1-7.24-3.06,13.27,13.27,0,0,1,0-16.28,9.08,9.08,0,0,1,7-3.06,9,9,0,0,1,7,3.06,11.75,11.75,0,0,1,2.74,8.14v1.56H227.14a5.69,5.69,0,0,0,1.34,3.74,4.36,4.36,0,0,0,3.34,1.3,4.77,4.77,0,0,0,3-.9A10.38,10.38,0,0,0,237,195.79Zm-9.88-5.6h9.2a4.87,4.87,0,0,0-1.4-3.18,4.57,4.57,0,0,0-3.28-1.14,4.21,4.21,0,0,0-3.14,1.24A4.84,4.84,0,0,0,227.14,190.19Z" transform="translate(-9.35 -10.86)"/><path d="M255.58,203.11v-28h11.88a8.25,8.25,0,0,1,6,2.18,7.13,7.13,0,0,1,2.26,5.34,5.81,5.81,0,0,1-3,5.32v0a6.65,6.65,0,0,1,2.94,2.42,6.86,6.86,0,0,1,1.14,4,8.58,8.58,0,0,1-2.44,6.4q-2.44,2.32-8,2.32Zm5.4-16.72h5.8a3.92,3.92,0,0,0,2.58-.78,2.82,2.82,0,0,0,.94-2.3,3,3,0,0,0-.92-2.4,3.85,3.85,0,0,0-2.6-.8H261Zm0,11.72h6.52q3.84,0,3.84-3.72a3.44,3.44,0,0,0-1-2.66,4,4,0,0,0-2.78-.94H261Z" transform="translate(-9.35 -10.86)"/><path d="M296.58,200.75a10,10,0,0,1-14.24,0q-2.8-3-2.8-8.24a11.35,11.35,0,0,1,2.88-8.2,9.76,9.76,0,0,1,14.08,0,11.35,11.35,0,0,1,2.88,8.2Q299.38,197.78,296.58,200.75Zm-10.64-3.4a4.51,4.51,0,0,0,7,0,7.88,7.88,0,0,0,1.28-4.82,7.8,7.8,0,0,0-1.3-4.82,4.47,4.47,0,0,0-7,0,7.78,7.78,0,0,0-1.3,4.84A7.87,7.87,0,0,0,285.94,197.35Z" transform="translate(-9.35 -10.86)"/><path d="M303.38,203.11v-29.2h5.4v29.2Z" transform="translate(-9.35 -10.86)"/><path d="M327.66,203.11v-2h-.08c-.13.19-.33.43-.58.72a6.87,6.87,0,0,1-1.84,1.18,6.94,6.94,0,0,1-3.18.74,8.23,8.23,0,0,1-6.7-3,12.45,12.45,0,0,1-2.5-8.16,11.77,11.77,0,0,1,2.72-8.18,8.36,8.36,0,0,1,6.4-3,6.74,6.74,0,0,1,3,.66,5.11,5.11,0,0,1,1.82,1.3l.52.68h.08v-10h5.2v29.2Zm-.32-8.68v-3.88a4.6,4.6,0,0,0-1.22-3.24,4.33,4.33,0,0,0-3.34-1.32,4.21,4.21,0,0,0-3.54,1.64,10,10,0,0,0,0,9.74,4.18,4.18,0,0,0,3.54,1.66,4.29,4.29,0,0,0,3.34-1.34A4.67,4.67,0,0,0,327.34,194.43Z" transform="translate(-9.35 -10.86)"/><path d="M9.95,248.11v-28h4.68l8.76,21.48h.08l8.76-21.48h4.68v28H33.67V224.75h-.08l-9.64,23.36h-1l-9.64-23.36h-.08v23.36Z" transform="translate(-9.35 -10.86)"/><path d="M56.23,248.11v-2.32h-.08a5.82,5.82,0,0,1-2.28,2,8.52,8.52,0,0,1-4.2.94A7.5,7.5,0,0,1,44.33,247a5.69,5.69,0,0,1-1.82-4.32,5.36,5.36,0,0,1,1.62-4.14,13,13,0,0,1,5.5-2.5q1.44-.36,2.14-.56t1.62-.54a5,5,0,0,0,1.32-.66,3.14,3.14,0,0,0,.7-.8,2,2,0,0,0,.3-1.08,2.8,2.8,0,0,0-1.1-2.26,5.2,5.2,0,0,0-3.34-.9,4.8,4.8,0,0,0-5.16,4.2l-3-.84a7.51,7.51,0,0,1,2.6-4.54,8.13,8.13,0,0,1,5.4-1.74A8.69,8.69,0,0,1,57,228.13q2.14,1.82,2.14,5.7v14.28Zm-5.84-9.56a9.8,9.8,0,0,0-3.7,1.64,2.92,2.92,0,0,0-1,2.28q0,3.32,4.2,3.32a6.75,6.75,0,0,0,4.44-1.3,4,4,0,0,0,1.56-3.18V236h-.08Q55.27,237.19,50.39,238.55Z" transform="translate(-9.35 -10.86)"/><path d="M65.31,222.63v-3.72h3.76v3.72Zm.24,25.48v-21.2h3.28v21.2Z" transform="translate(-9.35 -10.86)"/><path d="M74.07,240.91l3.08-.6q.6,5.56,5.88,5.56a6.39,6.39,0,0,0,3.78-.92,2.87,2.87,0,0,0,1.26-2.44,2.71,2.71,0,0,0-1.18-2.4,19.53,19.53,0,0,0-4.94-1.84,15,15,0,0,1-5.52-2.44,4.58,4.58,0,0,1-1.6-3.68,5.32,5.32,0,0,1,2-4.1,7.85,7.85,0,0,1,5.4-1.74A8.49,8.49,0,0,1,87.71,228a8,8,0,0,1,2.72,4.42l-2.84.76a5.19,5.19,0,0,0-5.4-4A5.08,5.08,0,0,0,79,230a2.59,2.59,0,0,0-1.12,2.08,2.12,2.12,0,0,0,1.08,2,26.65,26.65,0,0,0,5,1.76q4.12,1.16,5.66,2.66a5.54,5.54,0,0,1,1.58,4.06,5.71,5.71,0,0,1-2,4.36q-2,1.84-6.06,1.84-4.2,0-6.42-2.18A8.9,8.9,0,0,1,74.07,240.91Z" transform="translate(-9.35 -10.86)"/><path d="M104.39,248.71a9,9,0,0,1-6.92-3q-2.72-3-2.72-8.24t2.8-8.2a9,9,0,0,1,6.84-3,8.77,8.77,0,0,1,6.74,3q2.74,3,2.74,8.2t-2.68,8.24A8.77,8.77,0,0,1,104.39,248.71Zm0-3a5.53,5.53,0,0,0,4.46-2.18,11.26,11.26,0,0,0,0-12.12,5.51,5.51,0,0,0-4.48-2.18,5.75,5.75,0,0,0-4.6,2.14,11.24,11.24,0,0,0,0,12.2A5.74,5.74,0,0,0,104.39,245.75Z" transform="translate(-9.35 -10.86)"/><path d="M119.07,248.11v-21.2h3.2v2h.08a6.36,6.36,0,0,1,2.52-1.9,8.27,8.27,0,0,1,3.44-.74,7.45,7.45,0,0,1,5.54,2.12,7.83,7.83,0,0,1,2.1,5.76v13.92h-3.24V235.23q0-5.92-4.88-5.92a5.6,5.6,0,0,0-4,1.4,5,5,0,0,0-1.5,3.88v13.52Z" transform="translate(-9.35 -10.86)"/><path d="M152.54,248.11v-28h3.6l12.76,22.52H169V220.11h3.28v28h-3.48l-12.84-22.52h-.08v22.52Z" transform="translate(-9.35 -10.86)"/><path d="M193.94,241.59l2.64,1.72a10.54,10.54,0,0,1-3.42,3.86,9.35,9.35,0,0,1-5.46,1.54,9.11,9.11,0,0,1-7.08-3.06,11.69,11.69,0,0,1-2.76-8.14,11.86,11.86,0,0,1,2.7-8.14,8.88,8.88,0,0,1,7-3.06,8.73,8.73,0,0,1,6.88,3q2.64,3,2.64,8.2v1H181.14a8.3,8.3,0,0,0,1.7,5.16,5.71,5.71,0,0,0,4.78,2.12,7.14,7.14,0,0,0,2.24-.34,7.91,7.91,0,0,0,1.6-.68,4.74,4.74,0,0,0,1.18-1.12,12,12,0,0,0,.76-1Q193.54,242.35,193.94,241.59Zm-12.72-5.72h12.6a7.75,7.75,0,0,0-1.6-4.64,6.41,6.41,0,0,0-9.36.14A7.5,7.5,0,0,0,181.22,235.86Z" transform="translate(-9.35 -10.86)"/><path d="M202.06,240.71v-13.8h3.28v13.32q0,3,1.14,4.2a4.94,4.94,0,0,0,3.78,1.24,4.6,4.6,0,0,0,3.68-1.48,6.1,6.1,0,0,0,1.28-4.12V226.91h3.24v21.2h-3.2v-2h-.08a8.56,8.56,0,0,1-.6.72,7.34,7.34,0,0,1-1.86,1.18,6.94,6.94,0,0,1-3.18.74,7.39,7.39,0,0,1-5.5-2Q202.06,244.71,202.06,240.71Z" transform="translate(-9.35 -10.86)"/><path d="M239.74,241.59l2.64,1.72a10.54,10.54,0,0,1-3.42,3.86,9.35,9.35,0,0,1-5.46,1.54,9.11,9.11,0,0,1-7.08-3.06,11.69,11.69,0,0,1-2.76-8.14,11.86,11.86,0,0,1,2.7-8.14,8.88,8.88,0,0,1,7-3.06,8.73,8.73,0,0,1,6.88,3q2.64,3,2.64,8.2v1H226.94a8.3,8.3,0,0,0,1.7,5.16,5.71,5.71,0,0,0,4.78,2.12,7.14,7.14,0,0,0,2.24-.34,7.91,7.91,0,0,0,1.6-.68,4.74,4.74,0,0,0,1.18-1.12,12,12,0,0,0,.76-1Q239.34,242.35,239.74,241.59ZM227,235.86h12.6a7.75,7.75,0,0,0-1.6-4.64,6.41,6.41,0,0,0-9.36.14A7.5,7.5,0,0,0,227,235.86Z" transform="translate(-9.35 -10.86)"/><path d="M258.26,248.11v-28H269a8.44,8.44,0,0,1,5.94,2,6.75,6.75,0,0,1,2.22,5.2,5.58,5.58,0,0,1-3.48,5.6v.12a6.41,6.41,0,0,1,3.2,2.36,7.13,7.13,0,0,1,1.32,4.4,7.79,7.79,0,0,1-2.42,6.1q-2.42,2.18-7.46,2.18Zm3.32-16.16h6.84q5.48,0,5.48-4.4a3.89,3.89,0,0,0-1.46-3.26,6.45,6.45,0,0,0-4.06-1.14h-6.8Zm0,13.12h6.32a9.19,9.19,0,0,0,5.28-1.24,4.55,4.55,0,0,0,1.76-4,4.23,4.23,0,0,0-1.68-3.8,9.72,9.72,0,0,0-5.28-1.12h-6.4Z" transform="translate(-9.35 -10.86)"/><path d="M291.86,248.71a9,9,0,0,1-6.92-3q-2.72-3-2.72-8.24t2.8-8.2a9,9,0,0,1,6.84-3,8.77,8.77,0,0,1,6.74,3q2.74,3,2.74,8.2t-2.68,8.24A8.77,8.77,0,0,1,291.86,248.71Zm0-3a5.53,5.53,0,0,0,4.46-2.18,11.26,11.26,0,0,0,0-12.12,5.51,5.51,0,0,0-4.48-2.18,5.75,5.75,0,0,0-4.6,2.14,11.24,11.24,0,0,0,0,12.2A5.74,5.74,0,0,0,291.86,245.75Z" transform="translate(-9.35 -10.86)"/><path d="M314.78,248.71a9,9,0,0,1-6.92-3q-2.72-3-2.72-8.24t2.8-8.2a9,9,0,0,1,6.84-3,8.77,8.77,0,0,1,6.74,3q2.74,3,2.74,8.2t-2.68,8.24A8.77,8.77,0,0,1,314.78,248.71Zm0-3a5.53,5.53,0,0,0,4.46-2.18,11.26,11.26,0,0,0,0-12.12,5.51,5.51,0,0,0-4.48-2.18,5.75,5.75,0,0,0-4.6,2.14,11.24,11.24,0,0,0,0,12.2A5.74,5.74,0,0,0,314.78,245.75Z" transform="translate(-9.35 -10.86)"/><path d="M329.46,248.11v-29.2h3.28v17.72h.08l8.92-9.72h4.36l-7.76,8.4,8.72,12.8h-3.8L336,237.35h-.08l-3.16,3.4v7.36Z" transform="translate(-9.35 -10.86)"/></svg>