<?xml version="1.0" encoding="utf-8"?>
<!-- Generator: Adobe Illustrator 20.1.0, SVG Export Plug-In . SVG Version: 6.00 Build 0)  -->
<svg version="1.1" id="Layer_1" xmlns="http://www.w3.org/2000/svg" xmlns:xlink="http://www.w3.org/1999/xlink" x="0px" y="0px"
	 viewBox="0 0 269 113" style="enable-background:new 0 0 269 113;" xml:space="preserve">
<style type="text/css">
	.st0{fill:none;stroke:#B4B4B4;stroke-miterlimit:10;}
</style>
<g>
	<path d="M43,66.7L15.3,49c-1.6-1-2.3-3.4-2.3-5.4v-8.6c0-1.9,0.9-4,2.3-5.4l5.2-5.3c1.3-1.4,3.5-2.2,5.5-2.2h13.4
		c1.9,0,4.1,0.8,5.5,2.2l6.6,6.7l-7,5.9l-5.7-5.9h-12l-4.4,4.5v6.7L50,59.9c1.6,1,2.3,3.4,2.3,5.4v9.4c0,1.9-0.9,4-2.3,5.4l-5.2,5.3
		c-1.3,1.4-3.5,2.2-5.5,2.2H23.4c-1.9,0-4.1-0.8-5.5-2.2l-7.6-7.8l7-5.9l6.8,7h14.5l4.4-4.5V66.7z"/>
	<path d="M63.6,22.2h37.4v8.9H72.8v19.1h21.6v8.9H72.8v19.6h28.1v8.9H63.6V22.2z"/>
	<path d="M125.1,87.6c-1.9,0-4.1-0.8-5.5-2.2l-5.2-5.3c-1.3-1.3-2.3-3.4-2.3-5.4V35.1c0-1.9,0.9-4,2.3-5.4l5.2-5.3
		c1.3-1.4,3.5-2.2,5.5-2.2h16.7c1.9,0,4.1,0.8,5.5,2.2l6.6,6.7l-7,5.9l-5.7-5.9h-15.4l-4.4,4.5v38.6l4.4,4.5h15.4l4.4-4.5V59.1
		h-11.7v-8.9h20.9v24.5c0,1.9-0.9,4-2.3,5.4l-5.2,5.3c-1.3,1.4-3.5,2.2-5.5,2.2H125.1z"/>
	<path d="M166.2,22.2h37.4v8.9h-28.1v19.1H197v8.9h-21.6v19.6h28.1v8.9h-37.4V22.2z"/>
	<path d="M215,22.2h27.6c1.9,0,4.1,0.8,5.5,2.2l5.2,5.3c1.3,1.3,2.3,3.4,2.3,5.4v20.6c0,1.9-0.9,4-2.3,5.4l-5.2,5.3
		c-0.9,0.9-2.1,1.6-3.4,1.9L255.6,82v5.6h-7.2l-14.9-19.1h-9.2v19.1H215V22.2z M246.4,35.6l-4.4-4.5h-17.7v28.5H242l4.4-4.5V35.6z"
		/>
</g>
<line class="st0" x1="52.2" y1="13.5" x2="52.2" y2="100.2"/>
<line class="st0" x1="63.6" y1="13.5" x2="63.6" y2="100.2"/>
<line class="st0" x1="100.9" y1="13.5" x2="100.9" y2="100.2"/>
<line class="st0" x1="112.2" y1="13.5" x2="112.2" y2="100.2"/>
<line class="st0" x1="154.8" y1="13.5" x2="154.8" y2="100.2"/>
<line class="st0" x1="166.2" y1="13.5" x2="166.2" y2="100.2"/>
<line class="st0" x1="203.5" y1="13.5" x2="203.5" y2="100.2"/>
<line class="st0" x1="215" y1="13.5" x2="215" y2="100.2"/>
</svg>
