<?xml version="1.0" encoding="utf-8"?>
<!-- Generator: Adobe Illustrator 20.1.0, SVG Export Plug-In . SVG Version: 6.00 Build 0)  -->
<svg version="1.1" id="Layer_1" xmlns="http://www.w3.org/2000/svg" xmlns:xlink="http://www.w3.org/1999/xlink" x="0px" y="0px"
	 viewBox="0 0 702 424.5" style="enable-background:new 0 0 702 424.5;" xml:space="preserve">
<g>
	<path d="M88,10.4c5.4,0,11.5,2.1,15.3,6.1l14.6,14.8c3.8,3.8,6.3,9.6,6.3,15v110.8c0,5.4-2.6,11.3-6.3,15L103.2,187
		c-3.8,4-9.9,6.1-15.3,6.1H46.9c-5.4,0-11.5-2.1-15.3-6.1l-14.6-14.8c-3.8-3.8-6.3-9.6-6.3-15V46.3c0-5.4,2.6-11.3,6.3-15l14.6-14.8
		c3.8-4,9.9-6.1,15.3-6.1H88z M98.3,47.7L86.1,35.3H48.8L36.6,47.7v59.2l61.7-39.4V47.7z M48.8,168.2h37.3l12.2-12.4V96.6L36.6,136
		v19.7L48.8,168.2z"/>
	<path d="M168.5,169.1h30.3V35.3h-4.2l-16,16.4l-19.5-16.4l18.3-18.8c3.8-4,9.9-6.1,15.3-6.1h31.9v158.7h29.8v23.9h-85.9V169.1z"/>
	<path d="M378.6,69.6V47.7l-12.2-12.4h-32.6l-12.2,12.4v20.4h-25.8V46.3c0-5.4,2.6-11.3,6.3-15l14.6-14.8c3.8-4,9.9-6.1,15.3-6.1
		h36.4c5.4,0,11.5,2.1,15.3,6.1l14.6,14.8c3.8,3.8,6.3,9.6,6.3,15V71c0,5.4-2.6,11.3-6.3,15l-76.3,78.9v3.3h83.1v24.9H296V167
		c0-8.5,2.6-14.6,6.8-18.8L378.6,69.6z"/>
	<path d="M472.1,168.2h36.4l12.2-12.4v-31.2l-12.2-12.4h-31V87.2h28.6l12.2-12.4v-27l-12.2-12.4h-31.5l-12.2,12.4v12h-25.8V46.3
		c0-5.4,2.6-11.3,6.3-15l14.6-14.8c3.8-4,9.9-6.1,15.3-6.1H508c5.4,0,11.5,2.1,15.3,6.1l14.6,14.8c3.8,3.8,6.3,9.6,6.3,15v29.8
		c0,5.4-2.6,11.3-6.3,15l-7,7l9.4,9.9c3.8,3.8,6.3,9.6,6.3,15v34c0,5.4-2.6,11.3-6.3,15L525.6,187c-3.8,4-9.9,6.1-15.3,6.1h-41.1
		c-5.2-0.2-10.8-2.3-14.3-6.1l-14.6-14.8c-3.8-3.8-6.3-9.6-6.3-15v-13.4h25.8v12L472.1,168.2z"/>
	<path d="M573.5,103.8L632,10.4h47.7v106.1h14.1v24.9h-14.1v51.6h-25.8v-51.6h-80.3V103.8z M653.8,116.5V35.3h-10.1l-44.8,74.7v6.6
		H653.8z"/>
	<path d="M43.4,255.3v16L114,313c6.1,3.5,9.2,9.2,9.2,17.8v46.2c0,5.4-2.6,11.3-6.3,15L102.3,407c-3.8,4-9.9,6.1-15.3,6.1H46
		c-5.2,0-10.8-2.3-14.3-6.1l-14.6-14.8c-3.8-3.8-6.3-9.6-6.3-15v-18.1h25.8v16.7l12.2,12.4h36.4l12.2-12.4v-44.6l-73.5-43.4
		c-4.5-2.6-6.3-9.6-6.3-15v-42.3h103.5v24.9H43.4z"/>
	<path d="M152.3,320.3c0-5.4,2.6-11.3,6.3-15l76.3-78.9l19,16.7l-57.8,59.9h32.4c5.4,0,11.5,2.1,15.3,6.1l14.6,14.8
		c3.8,3.8,6.3,9.6,6.3,15v38.3c0,5.4-2.6,11.3-6.3,15L243.9,407c-3.8,4-9.9,6.1-15.3,6.1h-41.1c-5.2-0.2-10.8-2.3-14.3-6.1
		l-14.6-14.8c-3.8-3.8-6.3-9.6-6.3-15V320.3z M178.1,375.7l12.2,12.4h36.4l12.2-12.4v-35.5l-12.2-12.4h-48.6V375.7z"/>
	<path d="M395.5,273.8c0,5.9-3.8,11.7-7,16.4l-62.2,94.6v28.2h-25.8v-26.3c0-8.5,2.6-13.1,6.8-19.3l62.4-94.8v-17.4h-79.1v-24.9
		h104.9V273.8z"/>
	<path d="M456.6,413.1c-5.4,0-11.5-2.1-15.3-6.1l-14.6-14.8c-3.8-3.8-6.3-9.6-6.3-15v-29.3c0-7.5,3.5-13.1,10.3-17.4l22.3-13.4
		l-17.6-10.6c-6.8-4.2-10.3-9.9-10.3-17.4v-22.8c0-5.4,2.6-11.3,6.3-15l14.6-14.8c3.8-4,9.9-6.1,15.3-6.1h30.5
		c5.4,0,11.5,2.1,15.3,6.1l14.6,14.8c3.8,3.8,6.3,9.6,6.3,15v22.8c0,7.5-3.5,13.1-10.3,17.4L500,317l22.3,13.4
		c6.8,4.2,10.3,9.9,10.3,17.4v29.3c0,5.4-2.6,11.3-6.3,15L511.8,407c-3.8,4-9.9,6.1-15.3,6.1H456.6z M458.5,388.2h36.2l12.2-12.4
		v-26.5l-30.3-18.1l-30.3,18.1v26.5L458.5,388.2z M463.2,255.3l-12.2,12.4v20l25.6,15.3l25.6-15.3v-20l-12.2-12.4H463.2z"/>
	<path d="M674.2,323.1c0,5.4-2.6,11.3-6.3,15L591.6,417l-19-16.7l57.8-59.9h-32.4c-5.4,0-11.5-2.1-15.3-6.1l-14.6-14.8
		c-3.8-3.8-6.3-9.6-6.3-15v-38.3c0-5.4,2.6-11.3,6.3-15l14.6-14.8c3.8-4,9.9-6.1,15.3-6.1H639c5.2,0.2,10.8,2.3,14.3,6.1l14.6,14.8
		c3.8,3.8,6.3,9.6,6.3,15V323.1z M648.4,267.7l-12.2-12.4h-36.4l-12.2,12.4v35.5l12.2,12.4h48.6V267.7z"/>
</g>
</svg>
