<?xml version="1.0" encoding="utf-8"?>
<!-- Generator: Adobe Illustrator 20.1.0, SVG Export Plug-In . SVG Version: 6.00 Build 0)  -->
<svg version="1.1" id="Layer_1" xmlns="http://www.w3.org/2000/svg" xmlns:xlink="http://www.w3.org/1999/xlink" x="0px" y="0px"
	 viewBox="0 0 502 293" style="enable-background:new 0 0 502 293;" xml:space="preserve">
<g>
	<path d="M12.6,279v-56H22l17.5,43h0.2l17.5-43h9.4v56H60v-46.7h-0.2L40.6,279h-2.1l-19.3-46.7H19V279H12.6z"/>
	<path d="M101.8,279v-4.6h-0.2c-0.8,1.4-2.3,2.7-4.6,4c-2.2,1.3-5,1.9-8.4,1.9c-4.7,0-8.3-1.1-10.7-3.4c-2.4-2.3-3.6-5.2-3.6-8.6
		c0-3.5,1.1-6.3,3.2-8.3c2.2-2,5.8-3.7,11-5c1.9-0.5,3.3-0.9,4.3-1.1c0.9-0.3,2-0.6,3.2-1.1s2.1-0.9,2.6-1.3s1-1,1.4-1.6
		s0.6-1.4,0.6-2.2c0-1.8-0.7-3.3-2.2-4.5s-3.7-1.8-6.7-1.8c-5.7,0-9.1,2.8-10.3,8.4l-5.9-1.7c0.7-3.7,2.4-6.8,5.2-9.1
		c2.8-2.3,6.4-3.5,10.8-3.5c4.9,0,8.8,1.2,11.6,3.6c2.9,2.4,4.3,6.2,4.3,11.4V279H101.8z M90.1,259.9c-3.6,1-6.1,2.1-7.4,3.3
		c-1.3,1.2-2,2.7-2,4.6c0,4.4,2.8,6.6,8.4,6.6c3.8,0,6.8-0.9,8.9-2.6s3.1-3.9,3.1-6.4v-10.6H101C100.3,256.4,96.6,258.1,90.1,259.9z
		"/>
	<path d="M117.9,266.7v-24.2H112v-5.8h6.1v-10.4h6.2v10.4h10.5v5.8h-10.4v23.4c0,2.5,0.3,4.3,1,5.3s2.1,1.5,4.2,1.5h3.2v6.3h-3.5
		c-4,0-6.9-1-8.7-3.1C118.8,273.9,117.9,270.8,117.9,266.7z"/>
	<path d="M168.1,262.8l6.3,1.3c-0.7,4.9-2.6,8.8-5.8,11.8c-3.2,2.9-7.1,4.4-11.8,4.4c-5.7,0-10.3-2-13.9-6c-3.6-4-5.4-9.5-5.4-16.4
		s1.8-12.3,5.5-16.4c3.7-4,8.3-6,13.8-6c4.5,0,8.4,1.4,11.6,4.3c3.2,2.9,5.1,6.6,5.8,11.2l-6.2,1.3c-0.6-3.1-1.9-5.7-3.7-7.8
		c-1.8-2.1-4.3-3.1-7.5-3.1c-3.8,0-6.9,1.5-9.3,4.4c-2.3,2.9-3.5,6.9-3.5,12.1c0,5.1,1.1,9.1,3.4,12.1c2.3,2.9,5.4,4.4,9.4,4.4
		c3.1,0,5.7-1.1,7.7-3.4C166.5,268.6,167.7,265.9,168.1,262.8z"/>
	<path d="M180.9,279v-58.4h6.6v20.2h0.2c1.2-1.6,2.9-2.9,5.2-3.9s4.7-1.5,7.2-1.5c4.5,0,8.2,1.4,11,4.1s4.2,6.7,4.2,11.8V279h-6.6
		v-25.9c0-7.8-3.3-11.7-9.8-11.7c-3.5,0-6.2,1-8.3,3s-3.1,4.7-3.1,7.9V279H180.9z"/>
</g>
<g>
	<path d="M7.8,163.3l11.4-2.5c0.7,4.4,1.8,7.5,3.4,9.5c1.6,1.9,4.1,2.9,7.7,2.9c3,0,5.5-0.5,7.3-1.6s2.7-2.7,2.7-4.8
		c0-2.2-0.9-4-2.6-5.2c-1.7-1.2-5.7-2.8-11.9-4.7c-5.8-1.8-9.9-4-12.4-6.6c-2.4-2.6-3.6-5.8-3.6-9.6c0-4.4,1.7-8.1,5.1-11.2
		c3.4-3.1,8-4.7,13.8-4.7c5.3,0,9.8,1.3,13.6,3.8c3.8,2.6,6.2,6.4,7.2,11.4L39,142.7c-1.7-5.3-5.1-7.9-10.3-7.9
		c-2.8,0-4.8,0.5-6.2,1.6c-1.4,1.1-2,2.5-2,4.2s0.8,2.9,2.3,3.8c1.5,0.9,5.5,2.4,11.9,4.6c6.2,2.1,10.4,4.4,12.7,6.9s3.4,5.8,3.4,10
		c0,5-1.9,9.1-5.6,12.3c-3.7,3.3-8.7,4.9-15,4.9s-11.5-1.7-15.4-5C11,174.9,8.6,169.9,7.8,163.3z"/>
	<path d="M81.1,182v-4.1h-0.2c-0.1,0.2-0.2,0.4-0.4,0.6c-0.2,0.2-0.6,0.7-1.2,1.2c-0.6,0.6-1.4,1.1-2.2,1.6
		c-0.8,0.5-1.9,0.9-3.3,1.3c-1.4,0.4-2.9,0.6-4.5,0.6c-5.1,0-8.9-1.2-11.5-3.6c-2.5-2.4-3.8-5.4-3.8-8.9c0-3.7,1.1-6.5,3.3-8.4
		s5.9-3.5,11.1-4.8c4.9-1.2,7.9-2.1,9.1-2.8s1.8-1.7,1.8-3s-0.6-2.3-1.8-3.2c-1.2-0.9-3-1.3-5.4-1.3c-2.8,0-4.9,0.6-6.1,1.9
		c-1.2,1.3-2.2,2.9-2.9,5.1l-8.6-3.6c1-3.6,3-6.5,5.9-8.8s6.8-3.4,11.5-3.4c5.2,0,9.4,1.4,12.7,4.1c3.3,2.7,5,6.9,5,12.6V182H81.1z
		 M59.9,134.4v-9.2h9.8v9.2H59.9z M70.6,164.6c-2.7,0.6-4.4,1.4-5.2,2.3c-0.8,0.9-1.2,1.9-1.2,3c0,2.9,2.1,4.3,6.2,4.3
		c3.1,0,5.5-0.6,7.1-1.8s2.4-2.7,2.4-4.4v-7.4h-0.2c-0.2,0.4-0.4,0.8-0.7,1c-0.2,0.2-1.1,0.6-2.4,1.2
		C75.1,163.4,73.1,164,70.6,164.6z M75.9,134.4v-9.2h9.8v9.2H75.9z"/>
	<path d="M94.3,168l9.4-2.4c0.7,5.9,3.9,8.9,9.5,8.9c2.6,0,4.6-0.4,6.1-1.2s2.3-2,2.3-3.5c0-1.2-0.6-2.1-1.8-2.8
		c-1.2-0.6-3.6-1.5-7.4-2.5c-1-0.3-1.8-0.5-2.3-0.6c-4.9-1.4-8.5-3-10.8-4.9s-3.4-4.4-3.4-7.6c0-3.5,1.4-6.6,4.3-9.1
		c2.9-2.6,6.8-3.8,11.7-3.8c9.5,0,15.4,4.2,17.8,12.5l-8.6,2.6c-0.7-2-1.8-3.6-3.2-4.8c-1.4-1.2-3.3-1.8-6-1.8c-2,0-3.6,0.4-4.8,1.2
		c-1.2,0.8-1.8,1.7-1.8,2.8c0,1.2,0.7,2.1,2.1,2.8s4.9,1.8,10.6,3.4c5,1.3,8.3,3,10.1,5.1c1.8,2.1,2.7,4.7,2.7,7.9
		c0,3.4-1.5,6.5-4.4,9.2c-3,2.7-7.2,4-12.8,4c-5.9,0-10.4-1.5-13.6-4.4C96.9,175.8,95,172.2,94.3,168z"/>
	<path d="M168,177.3c-3.7,3.9-8.5,5.9-14.2,5.9c-5.8,0-10.5-2-14.2-5.9s-5.6-9.4-5.6-16.5c0-6.9,1.9-12.4,5.8-16.4s8.5-6,14.1-6
		c5.5,0,10.2,2,14.1,6c3.8,4,5.8,9.5,5.8,16.4C173.6,167.8,171.7,173.3,168,177.3z M146.7,170.5c1.7,2.2,4.1,3.4,7,3.4
		c3,0,5.3-1.1,7-3.4c1.7-2.3,2.6-5.5,2.6-9.6c0-4.2-0.9-7.4-2.6-9.6c-1.7-2.3-4.1-3.4-7-3.4s-5.3,1.1-7,3.4
		c-1.7,2.2-2.6,5.5-2.6,9.7C144.1,165,145,168.2,146.7,170.5z"/>
	<path d="M179.4,182v-42.4h10v4.1h0.2c1.2-1.5,2.8-2.7,4.8-3.8c2-1,4.2-1.5,6.4-1.5c4.7,0,8.4,1.4,11,4.2c2.7,2.8,4,6.7,4,11.6V182
		h-10.4v-25.2c0-2.9-0.6-5.1-1.7-6.6c-1.1-1.5-3-2.2-5.8-2.2c-2.6,0-4.6,0.7-6,2.2s-2.2,3.4-2.2,5.9V182H179.4z"/>
	<path d="M224.3,190.6l7.8-5.4c1.2,2.4,2.6,4.1,4.2,5.2c1.5,1.1,3.5,1.6,6,1.6c2.7,0,4.9-0.7,6.5-2.1c1.6-1.4,2.4-3.7,2.4-6.8v-5.4
		H251c-0.8,1.4-2.2,2.7-4.2,3.7s-4.1,1.6-6.4,1.6c-5.4,0-10-2-13.7-6s-5.5-9.5-5.5-16.4s1.9-12.3,5.7-16.4c3.8-4,8.2-6,13.4-6
		c4.9,0,8.6,1.8,11.2,5.3h0.2v-4.1h9.9V182c0,6.2-1.8,10.9-5.4,14.2s-8.3,5-14,5c-4.4,0-8.2-1-11.2-2.9
		C227.9,196.4,225.6,193.8,224.3,190.6z M251.1,165.1v-8.7c0-2.4-0.8-4.4-2.5-6.1c-1.7-1.7-3.9-2.5-6.6-2.5c-3.1,0-5.6,1.1-7.5,3.4
		c-1.9,2.2-2.9,5.5-2.9,9.7s1,7.4,2.9,9.7c1.9,2.2,4.4,3.4,7.5,3.4c2.8,0,5-0.8,6.6-2.5C250.3,169.6,251.1,167.6,251.1,165.1z"/>
	<path d="M269.5,182v-58.4h10.4v33.5h0.2l15.4-17.5h13l-15.3,17.2l16.6,25.2h-11.5l-13-19.4h-0.2l-5.4,6.1V182H269.5z"/>
	<path d="M342.3,177.3c-3.7,3.9-8.5,5.9-14.2,5.9c-5.8,0-10.5-2-14.2-5.9s-5.6-9.4-5.6-16.5c0-6.9,1.9-12.4,5.8-16.4
		c3.8-4,8.5-6,14.1-6s10.2,2,14.1,6s5.8,9.5,5.8,16.4C347.9,167.8,346,173.3,342.3,177.3z M321,170.5c1.7,2.2,4.1,3.4,7,3.4
		c3,0,5.3-1.1,7-3.4c1.7-2.3,2.6-5.5,2.6-9.6c0-4.2-0.9-7.4-2.6-9.6c-1.7-2.3-4.1-3.4-7-3.4s-5.3,1.1-7,3.4
		c-1.7,2.2-2.6,5.5-2.6,9.7C318.4,165,319.3,168.2,321,170.5z"/>
	<path d="M353.7,182v-42.4h9.8v4.5h0.2c0.8-1.6,2-2.9,3.6-3.8c1.6-1,3.3-1.4,5.2-1.4c1.3,0,2.6,0.3,3.8,0.8l-1.6,10.1
		c-1.2-0.4-2.3-0.6-3.3-0.6c-4.9,0-7.3,3.2-7.3,9.7V182H353.7z"/>
	<path d="M384.9,166.9v-18.5h-6.6v-8.8h6.8v-10.4h9.8v10.4h10.7v8.8H395v17.5c0,2.2,0.4,3.8,1.1,4.7s2.3,1.4,4.6,1.4h3.4v10h-4.4
		c-5.7,0-9.6-1.2-11.8-3.6C385.9,176,384.9,172.2,384.9,166.9z"/>
</g>
<g>
	<path d="M60.7,27L37.1,58.7l23.7,27.7V92h-7.1L31.3,66.3l-7.6,10.1V92h-9.2V26.6h9.2v35.1l26.5-35.1h10.5V27z"/>
	<path d="M83.5,73.4L79,92h-7.9v-6.6l13.4-55.3c0.5-1.9,1.7-3.5,4.4-3.5h10.7c2.7,0,3.9,1.6,4.4,3.5l13.4,55.3V92h-7.9L105,73.4
		H83.5z M81.3,12.8h9.2v9.2h-9.2V12.8z M92.5,35.6l-6.7,28.9h16.9L96,35.6H92.5z M98.2,12.8h9.2v9.2h-9.2V12.8z"/>
	<path d="M129.7,26.6h9.2v56.4h25.5V92h-34.8V26.6z"/>
	<path d="M177.7,26.6h9.2v56.4h25.5V92h-34.8V26.6z"/>
	<path d="M257.7,71.1L230,53.4c-1.6-1-2.3-3.4-2.3-5.4v-8.6c0-1.9,0.9-4,2.3-5.4l5.2-5.3c1.3-1.4,3.5-2.2,5.5-2.2h13.4
		c1.9,0,4.1,0.8,5.5,2.2l6.6,6.7l-7,5.9l-5.7-5.9h-12L237,40v6.7l27.6,17.6c1.6,1,2.3,3.4,2.3,5.4v9.4c0,1.9-0.9,4-2.3,5.4l-5.2,5.3
		c-1.3,1.4-3.5,2.2-5.5,2.2h-15.9c-1.9,0-4.1-0.8-5.5-2.2L225,82l7-5.9l6.8,7h14.5l4.4-4.5V71.1z"/>
	<path d="M278.6,26.6h42v8.9h-16.4V92H295V35.6h-16.4V26.6z"/>
	<path d="M333.2,26.6h27.6c1.9,0,4.1,0.8,5.5,2.2l5.2,5.3c1.3,1.3,2.3,3.4,2.3,5.4v20.6c0,1.9-0.9,4-2.3,5.4l-5.2,5.3
		c-0.9,0.9-2.1,1.6-3.4,1.9l10.8,13.7V92h-7.2l-14.9-19.1h-9.2V92h-9.2V26.6z M364.6,40l-4.4-4.5h-17.7V64h17.7l4.4-4.5V40z"/>
	<path d="M416.8,26.6c1.9,0,4.1,0.8,5.5,2.2l5.2,5.3c1.3,1.3,2.3,3.4,2.3,5.4v39.6c0,1.9-0.9,4-2.3,5.4l-5.2,5.3
		c-1.3,1.4-3.5,2.2-5.5,2.2h-16.4c-1.9,0-4.1-0.8-5.5-2.2l-5.2-5.3c-1.3-1.3-2.3-3.4-2.3-5.4V39.5c0-1.9,0.9-4,2.3-5.4l5.2-5.3
		c1.3-1.4,3.5-2.2,5.5-2.2H416.8z M395.9,21.9h9.2v-9.2h-9.2V21.9z M401.1,83.1h15l4.4-4.5V40l-4.4-4.5h-15l-4.4,4.5v38.6
		L401.1,83.1z M412.8,21.9h9.2v-9.2h-9.2V21.9z"/>
	<path d="M444.3,26.6h9.6l13.3,37.8h1.3l13.3-37.8h9.6V92h-9.2V57.3l0.3-7.7l-6,20.2c-0.6,1.9-1.7,3.5-4.4,3.5h-8.6
		c-2.7,0-3.8-1.6-4.4-3.5l-6-20.2l0.3,7.7V92h-9.2V26.6z"/>
</g>
</svg>
