<?xml version="1.0" encoding="utf-8"?>
<!-- Generator: Adobe Illustrator 20.1.0, SVG Export Plug-In . SVG Version: 6.00 Build 0)  -->
<svg version="1.1" id="Layer_1" xmlns="http://www.w3.org/2000/svg" xmlns:xlink="http://www.w3.org/1999/xlink" x="0px" y="0px"
	 viewBox="0 0 600 182" style="enable-background:new 0 0 600 182;" xml:space="preserve">
<g>
	<path d="M82.8,118.1L15.7,75.3c-3.9-2.4-5.5-8.4-5.5-13.1V41.4c0-4.7,2.2-9.8,5.5-13.1l12.6-12.9c3.3-3.5,8.6-5.3,13.3-5.3h32.4
		c4.7,0,10,1.8,13.3,5.3l15.9,16.3L86.3,46.1L72.4,31.8H43.3L32.6,42.6v16.3l67.1,42.8c3.9,2.4,5.5,8.4,5.5,13.1v22.8
		c0,4.7-2.2,9.8-5.5,13.1l-12.6,12.9c-3.3,3.5-8.6,5.3-13.3,5.3H35.3c-4.7,0-10-1.8-13.3-5.3l-18.6-19l16.9-14.3l16.5,16.9h35.3
		l10.6-10.8V118.1z"/>
	<path d="M131.5,10.2h102v21.6h-39.8v137.1h-22.4V31.8h-39.8V10.2z"/>
	<path d="M332.7,10.2c4.7,0,10,1.8,13.3,5.3l12.6,12.9c3.3,3.3,5.5,8.4,5.5,13.1v96.3c0,4.7-2.2,9.8-5.5,13.1L346,163.6
		c-3.3,3.5-8.6,5.3-13.3,5.3H293c-4.7,0-10-1.8-13.3-5.3l-12.6-12.9c-3.3-3.3-5.5-8.4-5.5-13.1V41.4c0-4.7,2.2-9.8,5.5-13.1
		l12.6-12.9c3.3-3.5,8.6-5.3,13.3-5.3H332.7z M294.6,147.3h36.5l10.6-10.8V42.6l-10.6-10.8h-36.5L284,42.6v93.8L294.6,147.3z"/>
	<path d="M397.5,10.2h22.4v137.1h62v21.6h-84.4V10.2z"/>
	<path d="M485.7,10.2h102v21.6h-39.8v137.1h-22.4V31.8h-39.8V10.2z"/>
</g>
</svg>
