<?xml version="1.0" encoding="utf-8"?>
<!-- Generator: Adobe Illustrator 20.1.0, SVG Export Plug-In . SVG Version: 6.00 Build 0)  -->
<svg version="1.1" id="Layer_1" xmlns="http://www.w3.org/2000/svg" xmlns:xlink="http://www.w3.org/1999/xlink" x="0px" y="0px"
	 viewBox="0 0 510.3 230.3" style="enable-background:new 0 0 510.3 230.3;" xml:space="preserve">
<style type="text/css">
	.st0{fill:#FFFFFF;}
	.st1{fill:#002554;}
	.st2{fill:#32BAF2;}
	.st3{fill:#CFB571;}
	.st4{fill:#E21F26;}
</style>
<g>
	<path d="M8.5,5.5h30.6v7.6H16.4v16.3h17.1v7.6H16.4v24.4H8.5V5.5z"/>
	<path d="M47.8,5.5h19.7v7.3h-5.9v41.3h5.9v7.3H47.8v-7.3h5.9V12.8h-5.9V5.5z"/>
	<path d="M77.2,5.5h8.1l18.7,29.3V5.5h7.9v56h-7.9V49.6L85.2,20v41.5h-7.9V5.5z"/>
	<path d="M131.1,45.5l-3.9,16h-6.8v-5.6L132,8.5c0.4-1.7,1.4-3,3.7-3h9.1c2.3,0,3.3,1.4,3.7,3l11.5,47.4v5.6h-6.8l-3.9-16H131.1z
		 M138.8,13.1L133,37.9h14.5l-5.8-24.8H138.8z"/>
	<path d="M168.5,5.5h7.9v48.4h21.9v7.6h-29.8V5.5z"/>
	<path d="M207.5,5.5h32v7.6h-24.1v16.3h18.5v7.6h-18.5v16.8h24.1v7.6h-32V5.5z"/>
</g>
<g>
	<path class="st0" d="M273.8,5.5h30.6v7.6h-22.7v16.3h17.1v7.6h-17.1v24.4h-7.9V5.5z"/>
	<path class="st0" d="M313.2,5.5h19.7v7.3H327v41.3h5.9v7.3h-19.7v-7.3h5.9V12.8h-5.9V5.5z"/>
	<path class="st0" d="M342.6,5.5h8.1l18.7,29.3V5.5h7.9v56h-7.9V49.6L350.5,20v41.5h-7.9V5.5z"/>
	<path class="st0" d="M396.5,45.5l-3.9,16h-6.8v-5.6l11.5-47.4c0.4-1.7,1.4-3,3.7-3h9.1c2.3,0,3.3,1.4,3.7,3l11.5,47.4v5.6h-6.8
		l-3.9-16H396.5z M404.2,13.1l-5.8,24.8h14.5l-5.8-24.8H404.2z"/>
	<path class="st0" d="M433.9,5.5h7.9v48.4h21.9v7.6h-29.8V5.5z"/>
	<path class="st0" d="M472.9,5.5h32v7.6h-24.1v16.3h18.5v7.6h-18.5v16.8h24.1v7.6h-32V5.5z"/>
</g>
<g>
	<path class="st1" d="M273.8,86.6h30.6v7.6h-22.7v16.3h17.1v7.6h-17.1v24.4h-7.9V86.6z"/>
	<path class="st1" d="M313.2,86.6h19.7v7.3H327v41.3h5.9v7.3h-19.7v-7.3h5.9V93.9h-5.9V86.6z"/>
	<path class="st1" d="M342.6,86.6h8.1l18.7,29.3V86.6h7.9v56h-7.9v-11.9l-18.9-29.6v41.5h-7.9V86.6z"/>
	<path class="st1" d="M396.5,126.6l-3.9,16h-6.8V137l11.5-47.4c0.4-1.7,1.4-3,3.7-3h9.1c2.3,0,3.3,1.4,3.7,3l11.5,47.4v5.6h-6.8
		l-3.9-16H396.5z M404.2,94.2l-5.8,24.8h14.5l-5.8-24.8H404.2z"/>
	<path class="st1" d="M433.9,86.6h7.9V135h21.9v7.6h-29.8V86.6z"/>
	<path class="st1" d="M472.9,86.6h32v7.6h-24.1v16.3h18.5v7.6h-18.5V135h24.1v7.6h-32V86.6z"/>
</g>
<g>
	<path class="st2" d="M8.5,86.6h30.6v7.6H16.4v16.3h17.1v7.6H16.4v24.4H8.5V86.6z"/>
	<path class="st2" d="M47.8,86.6h19.7v7.3h-5.9v41.3h5.9v7.3H47.8v-7.3h5.9V93.9h-5.9V86.6z"/>
	<path class="st2" d="M77.2,86.6h8.1l18.7,29.3V86.6h7.9v56h-7.9v-11.9l-18.9-29.6v41.5h-7.9V86.6z"/>
	<path class="st2" d="M131.1,126.6l-3.9,16h-6.8V137L132,89.6c0.4-1.7,1.4-3,3.7-3h9.1c2.3,0,3.3,1.4,3.7,3l11.5,47.4v5.6h-6.8
		l-3.9-16H131.1z M138.8,94.2L133,119h14.5l-5.8-24.8H138.8z"/>
	<path class="st2" d="M168.5,86.6h7.9V135h21.9v7.6h-29.8V86.6z"/>
	<path class="st2" d="M207.5,86.6h32v7.6h-24.1v16.3h18.5v7.6h-18.5V135h24.1v7.6h-32V86.6z"/>
</g>
<g>
	<path class="st3" d="M8.5,168h30.6v7.6H16.4V192h17.1v7.6H16.4V224H8.5V168z"/>
	<path class="st3" d="M47.8,168h19.7v7.3h-5.9v41.3h5.9v7.3H47.8v-7.3h5.9v-41.3h-5.9V168z"/>
	<path class="st3" d="M77.2,168h8.1l18.7,29.3V168h7.9v56h-7.9v-11.9l-18.9-29.6V224h-7.9V168z"/>
	<path class="st3" d="M131.1,208l-3.9,16h-6.8v-5.6L132,171c0.4-1.7,1.4-3,3.7-3h9.1c2.3,0,3.3,1.4,3.7,3l11.5,47.4v5.6h-6.8
		l-3.9-16H131.1z M138.8,175.6l-5.8,24.8h14.5l-5.8-24.8H138.8z"/>
	<path class="st3" d="M168.5,168h7.9v48.4h21.9v7.6h-29.8V168z"/>
	<path class="st3" d="M207.5,168h32v7.6h-24.1V192h18.5v7.6h-18.5v16.8h24.1v7.6h-32V168z"/>
</g>
<g>
	<path class="st4" d="M273.8,168h30.6v7.6h-22.7V192h17.1v7.6h-17.1V224h-7.9V168z"/>
	<path class="st4" d="M313.2,168h19.7v7.3H327v41.3h5.9v7.3h-19.7v-7.3h5.9v-41.3h-5.9V168z"/>
	<path class="st4" d="M342.6,168h8.1l18.7,29.3V168h7.9v56h-7.9v-11.9l-18.9-29.6V224h-7.9V168z"/>
	<path class="st4" d="M396.5,208l-3.9,16h-6.8v-5.6l11.5-47.4c0.4-1.7,1.4-3,3.7-3h9.1c2.3,0,3.3,1.4,3.7,3l11.5,47.4v5.6h-6.8
		l-3.9-16H396.5z M404.2,175.6l-5.8,24.8h14.5l-5.8-24.8H404.2z"/>
	<path class="st4" d="M433.9,168h7.9v48.4h21.9v7.6h-29.8V168z"/>
	<path class="st4" d="M472.9,168h32v7.6h-24.1V192h18.5v7.6h-18.5v16.8h24.1v7.6h-32V168z"/>
</g>
</svg>
