<?xml version="1.0" encoding="utf-8"?>
<!-- Generator: Adobe Illustrator 20.1.0, SVG Export Plug-In . SVG Version: 6.00 Build 0)  -->
<svg version="1.1" id="Layer_1" xmlns="http://www.w3.org/2000/svg" xmlns:xlink="http://www.w3.org/1999/xlink" x="0px" y="0px"
	 viewBox="0 0 756 88" style="enable-background:new 0 0 756 88;" xml:space="preserve">
<g>
	<path d="M46.4,55.1L18.7,37.4c-1.6-1-2.3-3.4-2.3-5.4v-8.6c0-1.9,0.9-4,2.3-5.4l5.2-5.3c1.3-1.4,3.5-2.2,5.5-2.2h13.4
		c1.9,0,4.1,0.8,5.5,2.2l6.6,6.7l-7,5.9l-5.7-5.9h-12L25.7,24v6.7l27.6,17.6c1.6,1,2.3,3.4,2.3,5.4v9.4c0,1.9-0.9,4-2.3,5.4
		l-5.2,5.3c-1.3,1.4-3.5,2.2-5.5,2.2H26.8c-1.9,0-4.1-0.8-5.5-2.2L13.7,66l7-5.9l6.8,7H42l4.4-4.5V55.1z"/>
	<path d="M68.2,10.6h9.2v56.4H103V76H68.2V10.6z"/>
	<path d="M122,57.4L117.4,76h-7.9v-6.6L123,14.2c0.5-1.9,1.7-3.5,4.4-3.5H138c2.7,0,3.9,1.6,4.4,3.5l13.4,55.3V76h-7.9l-4.5-18.6
		H122z M131,19.6l-6.7,28.9h16.9l-6.7-28.9H131z"/>
	<path d="M211.3,11l-23.7,31.7l23.7,27.7V76h-7.1l-22.3-25.7l-7.6,10.1V76h-9.2V10.6h9.2v35.1l26.5-35.1h10.5V11z"/>
	<path d="M216.6,10.6h42v8.9h-16.4V76H233V19.6h-16.4V10.6z"/>
	<path d="M301,47.2h-23.2V76h-9.2V10.6h9.2v27.6H301V10.6h9.2V76H301V47.2z"/>
	<path d="M336.9,76c-1.9,0-4.1-0.8-5.5-2.2l-5.2-5.3c-1.3-1.3-2.3-3.4-2.3-5.4V10.6h9.2v52l4.4,4.5h15l4.4-4.5v-52h9.2v52.5
		c0,1.9-0.9,4-2.3,5.4l-5.2,5.3c-1.3,1.4-3.5,2.2-5.5,2.2H336.9z"/>
	<path d="M411.2,55.1l-27.6-17.6c-1.6-1-2.3-3.4-2.3-5.4v-8.6c0-1.9,0.9-4,2.3-5.4l5.2-5.3c1.3-1.4,3.5-2.2,5.5-2.2h13.4
		c1.9,0,4.1,0.8,5.5,2.2l6.6,6.7l-7,5.9l-5.7-5.9h-12l-4.4,4.5v6.7l27.6,17.6c1.6,1,2.3,3.4,2.3,5.4v9.4c0,1.9-0.9,4-2.3,5.4
		l-5.2,5.3c-1.3,1.4-3.5,2.2-5.5,2.2h-15.9c-1.9,0-4.1-0.8-5.5-2.2l-7.6-7.8l7-5.9l6.8,7h14.5l4.4-4.5V55.1z"/>
	<path d="M479.2,11l-23.7,31.7l23.7,27.7V76h-7.1l-22.3-25.7l-7.6,10.1V76H433V10.6h9.2v35.1l26.5-35.1h10.5V11z"/>
	<path d="M501.4,76c-1.9,0-4.1-0.8-5.5-2.2l-5.2-5.3c-1.3-1.3-2.3-3.4-2.3-5.4V10.6h9.2v52l4.4,4.5h15l4.4-4.5v-52h9.2v52.5
		c0,1.9-0.9,4-2.3,5.4l-5.2,5.3c-1.3,1.4-3.5,2.2-5.5,2.2H501.4z"/>
	<path d="M544.5,10.6h27.6c1.9,0,4.1,0.8,5.5,2.2l5.2,5.3c1.3,1.3,2.3,3.4,2.3,5.4v20.6c0,1.9-0.9,4-2.3,5.4l-5.2,5.3
		c-0.9,0.9-2.1,1.6-3.4,1.9l10.8,13.7V76h-7.2L563,56.9h-9.2V76h-9.2V10.6z M575.8,24l-4.4-4.5h-17.7V48h17.7l4.4-4.5V24z"/>
	<path d="M631.9,10.6h7.9v6.6l-13.4,55.3c-0.5,1.9-1.7,3.5-4.4,3.5h-10.7c-2.7,0-3.9-1.6-4.4-3.5l-13.4-55.3v-6.6h7.9L615,67.1h3.4
		L631.9,10.6z"/>
	<path d="M657.8,57.4L653.3,76h-7.9v-6.6l13.4-55.3c0.5-1.9,1.7-3.5,4.4-3.5h10.7c2.7,0,3.9,1.6,4.4,3.5l13.4,55.3V76h-7.9
		l-4.5-18.6H657.8z M666.8,19.6l-6.7,28.9H677l-6.7-28.9H666.8z"/>
	<path d="M700.9,10.6h9.5l21.8,34.2V10.6h9.2V76h-9.2V62.1l-22.1-34.5V76h-9.2V10.6z"/>
</g>
</svg>
