<?xml version="1.0" encoding="utf-8"?>
<!-- Generator: Adobe Illustrator 20.1.0, SVG Export Plug-In . SVG Version: 6.00 Build 0)  -->
<svg version="1.1" id="Layer_1" xmlns="http://www.w3.org/2000/svg" xmlns:xlink="http://www.w3.org/1999/xlink" x="0px" y="0px"
	 viewBox="0 0 482 194.7" style="enable-background:new 0 0 482 194.7;" xml:space="preserve">
<style type="text/css">
	.st0{fill:none;stroke:#B4B4B4;stroke-miterlimit:10;}
</style>
<g>
	<path d="M70.3,72.2l-6.6,6.7c-1.3,1.4-3.5,2.2-5.5,2.2H41.6c-1.9,0-4.1-0.8-5.5-2.2l-5.2-5.3c-1.3-1.3-2.3-3.4-2.3-5.4V28.6
		c0-1.9,0.9-4,2.3-5.4l5.2-5.3c1.3-1.4,3.5-2.2,5.5-2.2h16.7c1.9,0,4.1,0.8,5.5,2.2l6.6,6.7l-7,5.9l-5.7-5.9H42.3l-4.4,4.5v38.6
		l4.4,4.5h15.4l5.7-5.9L70.3,72.2z"/>
	<path d="M110.5,15.7c1.9,0,4.1,0.8,5.5,2.2l5.2,5.3c1.3,1.3,2.3,3.4,2.3,5.4v39.6c0,1.9-0.9,4-2.3,5.4l-5.2,5.3
		c-1.3,1.4-3.5,2.2-5.5,2.2H94.2c-1.9,0-4.1-0.8-5.5-2.2l-5.2-5.3c-1.3-1.3-2.3-3.4-2.3-5.4V28.6c0-1.9,0.9-4,2.3-5.4l5.2-5.3
		c1.3-1.4,3.5-2.2,5.5-2.2H110.5z M94.8,72.2h15l4.4-4.5V29.1l-4.4-4.5h-15l-4.4,4.5v38.6L94.8,72.2z"/>
	<path d="M135.5,15.7h9.6l13.3,37.8h1.3L173,15.7h9.6v65.4h-9.2V46.4l0.3-7.7l-6,20.2c-0.6,1.9-1.7,3.5-4.4,3.5h-8.6
		c-2.7,0-3.8-1.6-4.4-3.5l-6-20.2l0.3,7.7v34.7h-9.2V15.7z"/>
	<path d="M194.7,15.7h37.4v8.9H204v19.1h21.6v8.9H204v19.6h28.1v8.9h-37.4V15.7z"/>
	<path d="M282.5,38.4c0,1.9-0.9,4-2.3,5.4L278,46l3.9,3.9c1.3,1.3,2.3,3.4,2.3,5.4v13c0,1.9-0.9,4-2.3,5.4l-5.2,5.3
		c-1.3,1.4-3.5,2.2-5.5,2.2h-27.6V15.7h26c1.9,0,4.1,0.8,5.5,2.2l5.2,5.3c1.3,1.3,2.3,3.4,2.3,5.4V38.4z M273.2,37.9v-8.8l-4.4-4.5
		h-16v17.7h16L273.2,37.9z M252.8,51.3v20.9h17.7l4.4-4.5v-12l-4.4-4.5H252.8z"/>
	<path d="M305.4,62.4l-4.5,18.6H293v-6.6l13.4-55.3c0.5-1.9,1.7-3.5,4.4-3.5h10.7c2.7,0,3.9,1.6,4.4,3.5l13.4,55.3v6.6h-7.9
		l-4.5-18.6H305.4z M314.4,24.6l-6.7,28.9h16.9l-6.7-28.9H314.4z"/>
	<path d="M390.3,72.2l-6.6,6.7c-1.3,1.4-3.5,2.2-5.5,2.2h-16.7c-1.9,0-4.1-0.8-5.5-2.2l-5.2-5.3c-1.3-1.3-2.3-3.4-2.3-5.4V28.6
		c0-1.9,0.9-4,2.3-5.4l5.2-5.3c1.3-1.4,3.5-2.2,5.5-2.2h16.7c1.9,0,4.1,0.8,5.5,2.2l6.6,6.7l-7,5.9l-5.7-5.9h-15.4l-4.4,4.5v38.6
		l4.4,4.5h15.4l5.7-5.9L390.3,72.2z"/>
	<path d="M447.7,16.1L424,47.7l23.7,27.7v5.6h-7.1l-22.3-25.7l-7.6,10.1v15.6h-9.2V15.7h9.2v35.1l26.5-35.1h10.5V16.1z"/>
</g>
<g>
	<path d="M59.8,150.2l-27.6-17.6c-1.6-1-2.3-3.4-2.3-5.4v-8.6c0-1.9,0.9-4,2.3-5.4l5.2-5.3c1.3-1.4,3.5-2.2,5.5-2.2h13.4
		c1.9,0,4.1,0.8,5.5,2.2l6.6,6.7l-7,5.9l-5.7-5.9h-12l-4.4,4.5v6.7l27.6,17.6c1.6,1,2.3,3.4,2.3,5.4v9.4c0,1.9-0.9,4-2.3,5.4
		l-5.2,5.3c-1.3,1.4-3.5,2.2-5.5,2.2H40.2c-1.9,0-4.1-0.8-5.5-2.2l-7.6-7.8l7-5.9l6.8,7h14.5l4.4-4.5V150.2z"/>
	<path d="M80.4,105.7h37.4v8.9H89.6v19.1h21.6v8.9H89.6v19.6h28.1v8.9H80.4V105.7z"/>
	<path d="M141.9,171.1c-1.9,0-4.1-0.8-5.5-2.2l-5.2-5.3c-1.3-1.3-2.3-3.4-2.3-5.4v-39.6c0-1.9,0.9-4,2.3-5.4l5.2-5.3
		c1.3-1.4,3.5-2.2,5.5-2.2h16.7c1.9,0,4.1,0.8,5.5,2.2l6.6,6.7l-7,5.9l-5.7-5.9h-15.4l-4.4,4.5v38.6l4.4,4.5H158l4.4-4.5v-15.1
		h-11.7v-8.9h20.9v24.5c0,1.9-0.9,4-2.3,5.4l-5.2,5.3c-1.3,1.4-3.5,2.2-5.5,2.2H141.9z"/>
	<path d="M183,105.7h37.4v8.9h-28.1v19.1h21.6v8.9h-21.6v19.6h28.1v8.9H183V105.7z"/>
	<path d="M231.9,105.7h27.6c1.9,0,4.1,0.8,5.5,2.2l5.2,5.3c1.3,1.3,2.3,3.4,2.3,5.4v20.6c0,1.9-0.9,4-2.3,5.4l-5.2,5.3
		c-0.9,0.9-2.1,1.6-3.4,1.9l10.8,13.7v5.6h-7.2L250.3,152h-9.2v19.1h-9.2V105.7z M263.2,119.1l-4.4-4.5h-17.7v28.5h17.7l4.4-4.5
		V119.1z"/>
</g>
<line class="st0" x1="13.3" y1="81.1" x2="468.7" y2="81.1"/>
<line class="st0" x1="13.3" y1="105.7" x2="468.7" y2="105.7"/>
</svg>
