<?xml version="1.0" encoding="utf-8"?>
<!-- Generator: Adobe Illustrator 20.1.0, SVG Export Plug-In . SVG Version: 6.00 Build 0)  -->
<svg version="1.1" id="Layer_1" xmlns="http://www.w3.org/2000/svg" xmlns:xlink="http://www.w3.org/1999/xlink" x="0px" y="0px"
	 viewBox="0 0 600 600" style="enable-background:new 0 0 600 600;" xml:space="preserve">
<style type="text/css">
	.st0{fill:#FFFFFF;}
</style>
<rect class="st0" width="600" height="600"/>
<g>
	<path d="M62.5,102.8V62.2H87v4.4H67.3v14.7h18v4.2h-18v17.3H62.5z"/>
	<path d="M106.2,103.7c-4.1,0-7.4-1.4-10-4.3c-2.6-2.9-3.9-6.8-3.9-11.9c0-5,1.4-9,4.1-11.9c2.7-2.9,6-4.4,9.9-4.4
		c3.9,0,7.1,1.4,9.8,4.4c2.6,2.9,4,6.9,4,11.9c0,5.1-1.3,9.1-3.9,11.9C113.5,102.3,110.2,103.7,106.2,103.7z M106.2,99.4
		c2.6,0,4.7-1.1,6.5-3.2c1.7-2.1,2.6-5,2.6-8.8c0-3.8-0.9-6.7-2.6-8.8c-1.7-2.1-3.9-3.2-6.5-3.2c-2.7,0-4.9,1-6.7,3.1
		c-1.7,2.1-2.6,5-2.6,8.8s0.9,6.8,2.6,8.8C101.3,98.4,103.5,99.4,106.2,99.4z M98.4,67.4v-5.3h5.3v5.3H98.4z M109.5,67.4v-5.3h5.3
		v5.3H109.5z"/>
	<path d="M127.8,102.8V72.1h4.5v3.3h0.1c0.6-1.2,1.5-2.2,2.7-2.8c1.2-0.7,2.4-1,3.7-1c0.5,0,0.9,0,1.4,0.1c0.4,0.1,0.8,0.2,1,0.3
		l0.3,0.2l-0.9,4.7c-0.6-0.3-1.4-0.5-2.4-0.5c-2,0-3.4,0.6-4.3,1.9c-0.9,1.3-1.3,3.4-1.3,6.2v18.3H127.8z"/>
	<path d="M145.8,92.4l4.5-0.9c0.6,5.4,3.4,8.1,8.5,8.1c2.4,0,4.3-0.4,5.5-1.3c1.2-0.9,1.8-2.1,1.8-3.5c0-1.5-0.6-2.7-1.7-3.5
		c-1.1-0.8-3.5-1.7-7.2-2.7c-3.8-1-6.5-2.2-8-3.5c-1.5-1.3-2.3-3.1-2.3-5.3c0-2.3,0.9-4.3,2.8-5.9c1.9-1.7,4.5-2.5,7.8-2.5
		c3.4,0,6,0.8,8,2.4c2,1.6,3.3,3.7,3.9,6.4l-4.1,1.1c-1.2-3.9-3.8-5.9-7.8-5.9c-2,0-3.6,0.4-4.6,1.3c-1.1,0.9-1.6,1.9-1.6,3
		c0,1.3,0.5,2.2,1.6,2.8c1,0.6,3.4,1.5,7.2,2.6c4,1.1,6.7,2.4,8.2,3.9c1.5,1.4,2.3,3.4,2.3,5.9c0,2.4-1,4.5-2.9,6.3
		c-2,1.8-4.9,2.7-8.8,2.7c-4.1,0-7.2-1.1-9.3-3.2C147.4,98.4,146.1,95.7,145.8,92.4z"/>
	<path d="M196,102.8v-3.4h-0.1c-0.6,1-1.7,2-3.3,2.9c-1.6,0.9-3.7,1.4-6.1,1.4c-3.4,0-6-0.8-7.7-2.5c-1.8-1.7-2.6-3.8-2.6-6.3
		c0-2.6,0.8-4.6,2.3-6c1.6-1.4,4.2-2.7,8-3.6c1.4-0.3,2.4-0.6,3.1-0.8c0.7-0.2,1.5-0.5,2.3-0.8c0.9-0.3,1.5-0.6,1.9-1
		c0.4-0.3,0.7-0.7,1-1.2s0.4-1,0.4-1.6c0-1.3-0.5-2.4-1.6-3.3c-1.1-0.9-2.7-1.3-4.8-1.3c-4.1,0-6.6,2-7.5,6.1l-4.3-1.2
		c0.5-2.7,1.8-4.9,3.8-6.6c2-1.7,4.6-2.5,7.8-2.5c3.6,0,6.4,0.9,8.4,2.6c2.1,1.8,3.1,4.5,3.1,8.3v20.7H196z M187.5,89
		c-2.6,0.7-4.4,1.5-5.4,2.4c-0.9,0.9-1.4,2-1.4,3.3c0,3.2,2,4.8,6.1,4.8c2.8,0,4.9-0.6,6.4-1.9c1.5-1.3,2.3-2.8,2.3-4.6v-7.7h-0.1
		C194.8,86.4,192.2,87.7,187.5,89z M181,67.4v-5.3h5.3v5.3H181z M192.1,67.4v-5.3h5.3v5.3H192.1z"/>
	<path d="M207.1,92.4l4.5-0.9c0.6,5.4,3.4,8.1,8.5,8.1c2.4,0,4.3-0.4,5.5-1.3c1.2-0.9,1.8-2.1,1.8-3.5c0-1.5-0.6-2.7-1.7-3.5
		c-1.1-0.8-3.5-1.7-7.2-2.7c-3.8-1-6.5-2.2-8-3.5c-1.5-1.3-2.3-3.1-2.3-5.3c0-2.3,0.9-4.3,2.8-5.9c1.9-1.7,4.5-2.5,7.8-2.5
		c3.4,0,6,0.8,8,2.4c2,1.6,3.3,3.7,3.9,6.4l-4.1,1.1c-1.2-3.9-3.8-5.9-7.8-5.9c-2,0-3.6,0.4-4.6,1.3c-1.1,0.9-1.6,1.9-1.6,3
		c0,1.3,0.5,2.2,1.6,2.8c1,0.6,3.4,1.5,7.2,2.6c4,1.1,6.7,2.4,8.2,3.9c1.5,1.4,2.3,3.4,2.3,5.9c0,2.4-1,4.5-2.9,6.3
		c-2,1.8-4.9,2.7-8.8,2.7c-4.1,0-7.2-1.1-9.3-3.2C208.7,98.4,207.5,95.7,207.1,92.4z"/>
	<path d="M251.4,103.7c-4.1,0-7.4-1.4-10-4.3c-2.6-2.9-3.9-6.8-3.9-11.9c0-5,1.4-9,4.1-11.9c2.7-2.9,6-4.4,9.9-4.4
		c3.9,0,7.1,1.4,9.8,4.4c2.6,2.9,4,6.9,4,11.9c0,5.1-1.3,9.1-3.9,11.9C258.6,102.3,255.3,103.7,251.4,103.7z M251.4,99.4
		c2.6,0,4.7-1.1,6.5-3.2c1.7-2.1,2.6-5,2.6-8.8c0-3.8-0.9-6.7-2.6-8.8c-1.7-2.1-3.9-3.2-6.5-3.2c-2.7,0-4.9,1-6.7,3.1
		c-1.7,2.1-2.6,5-2.6,8.8s0.9,6.8,2.6,8.8C246.4,98.4,248.6,99.4,251.4,99.4z"/>
	<path d="M272.9,102.8V72.1h4.6v3h0.1c0.9-1.1,2.1-2,3.7-2.8c1.6-0.7,3.2-1.1,5-1.1c3.3,0,6,1,8,3.1c2,2.1,3,4.8,3,8.4v20.2h-4.7
		V84.2c0-5.7-2.4-8.6-7.1-8.6c-2.4,0-4.3,0.7-5.8,2c-1.4,1.4-2.2,3.2-2.2,5.6v19.6H272.9z"/>
	<path d="M307.3,108.4l4-2c0.7,1.9,1.7,3.4,2.9,4.5c1.2,1.1,2.9,1.7,5.2,1.7c2.5,0,4.4-0.7,5.7-2.2c1.4-1.5,2-3.5,2-6.1v-4.1H327
		c-2,2.4-4.9,3.5-8.5,3.5c-4.1,0-7.3-1.5-9.8-4.4c-2.5-2.9-3.7-6.9-3.7-11.8c0-4.9,1.3-8.8,3.9-11.8c2.6-3,5.8-4.4,9.6-4.4
		c3.7,0,6.6,1.3,8.6,3.8h0.1v-3h4.6v31.2c0,4.4-1.1,7.7-3.3,10c-2.2,2.3-5.2,3.5-9.1,3.5c-3.1,0-5.7-0.8-7.8-2.3
		C309.6,112.9,308.1,110.9,307.3,108.4z M327.1,92.7V83c0-1.9-0.7-3.6-2.2-5.2c-1.4-1.5-3.4-2.3-5.8-2.3c-3,0-5.3,1.1-7,3.2
		c-1.6,2.1-2.5,5-2.5,8.8c0,3.8,0.8,6.7,2.4,8.8c1.6,2.1,4,3.1,7,3.1c2.3,0,4.2-0.7,5.7-2S327.1,94.5,327.1,92.7z"/>
	<path d="M362.7,93.4l3.8,2.5c-1.2,2.2-2.8,4.1-5,5.6c-2.1,1.5-4.8,2.2-7.9,2.2c-4.2,0-7.6-1.5-10.3-4.4s-4-6.9-4-11.8
		c0-4.9,1.3-8.8,3.9-11.8c2.6-3,6-4.4,10.1-4.4c4.1,0,7.4,1.4,10,4.4c2.6,2.9,3.8,6.9,3.8,11.9v1.4h-23.1c0,2.9,0.9,5.4,2.5,7.5
		c1.6,2,3.9,3.1,6.9,3.1c1.2,0,2.2-0.2,3.2-0.5c1-0.3,1.8-0.7,2.3-1c0.5-0.3,1.1-0.9,1.7-1.6s1-1.2,1.1-1.5
		C362,94.6,362.3,94.1,362.7,93.4z M344.2,85.1h18.3c-0.1-2.6-0.9-4.8-2.3-6.7c-1.5-1.9-3.7-2.8-6.8-2.8c-3,0-5.2,1-6.8,3
		C345,80.6,344.2,82.8,344.2,85.1z"/>
	<path d="M375,102.8V72.1h4.6v3h0.1c0.8-1.1,2.1-2,3.7-2.8c1.6-0.7,3.2-1.1,5-1.1c3.3,0,6,1,8,3.1c2,2.1,3,4.8,3,8.4v20.2h-4.7V84.2
		c0-5.7-2.4-8.6-7.1-8.6c-2.4,0-4.3,0.7-5.8,2c-1.5,1.4-2.2,3.2-2.2,5.6v19.6H375z"/>
	<path d="M423.8,108.4l4-2c0.7,1.9,1.7,3.4,2.9,4.5c1.2,1.1,2.9,1.7,5.2,1.7c2.5,0,4.4-0.7,5.7-2.2c1.4-1.5,2-3.5,2-6.1v-4.1h-0.1
		c-2,2.4-4.9,3.5-8.5,3.5c-4.1,0-7.3-1.5-9.8-4.4c-2.5-2.9-3.7-6.9-3.7-11.8c0-4.9,1.3-8.8,3.9-11.8s5.8-4.4,9.6-4.4
		c3.7,0,6.6,1.3,8.6,3.8h0.1v-3h4.6v31.2c0,4.4-1.1,7.7-3.3,10c-2.2,2.3-5.2,3.5-9.1,3.5c-3.1,0-5.7-0.8-7.8-2.3
		C426.2,112.9,424.7,110.9,423.8,108.4z M443.7,92.7V83c0-1.9-0.7-3.6-2.2-5.2c-1.5-1.5-3.4-2.3-5.8-2.3c-3,0-5.3,1.1-7,3.2
		c-1.6,2.1-2.5,5-2.5,8.8c0,3.8,0.8,6.7,2.4,8.8c1.6,2.1,4,3.1,7,3.1c2.3,0,4.2-0.7,5.7-2S443.7,94.5,443.7,92.7z"/>
	<path d="M475.8,102.8v-3.4h-0.1c-0.6,1-1.7,2-3.3,2.9c-1.6,0.9-3.7,1.4-6.1,1.4c-3.4,0-6-0.8-7.7-2.5c-1.8-1.7-2.6-3.8-2.6-6.3
		c0-2.6,0.8-4.6,2.3-6c1.6-1.4,4.2-2.7,8-3.6c1.4-0.3,2.4-0.6,3.1-0.8c0.7-0.2,1.5-0.5,2.3-0.8c0.9-0.3,1.5-0.6,1.9-1
		c0.4-0.3,0.7-0.7,1-1.2c0.3-0.5,0.4-1,0.4-1.6c0-1.3-0.5-2.4-1.6-3.3c-1.1-0.9-2.7-1.3-4.8-1.3c-4.1,0-6.6,2-7.5,6.1l-4.3-1.2
		c0.4-2.2,1.3-4.2,2.8-5.7c1.5-1.6,3.4-2.6,5.8-3.1c-1.6-1.1-2.4-2.7-2.4-4.9c0-1.6,0.5-3,1.6-4.2c1.1-1.2,2.4-1.7,4.1-1.7
		c1.7,0,3,0.6,4.1,1.7c1.1,1.1,1.6,2.5,1.6,4.2c0,2.3-0.8,3.9-2.4,5c5.3,1.1,7.9,4.6,7.9,10.6v20.7H475.8z M467.3,89
		c-2.6,0.7-4.4,1.5-5.4,2.4c-0.9,0.9-1.4,2-1.4,3.3c0,3.2,2,4.8,6.1,4.8c2.8,0,4.9-0.6,6.4-1.9c1.5-1.3,2.3-2.8,2.3-4.6v-7.7h-0.1
		C474.7,86.4,472.1,87.7,467.3,89z M468.8,70c0.8,0,1.4-0.3,2-0.9c0.5-0.6,0.8-1.4,0.8-2.5c0-1-0.3-1.8-0.8-2.4
		c-0.5-0.6-1.2-0.8-2-0.8c-0.8,0-1.4,0.3-1.9,0.8c-0.5,0.5-0.8,1.4-0.8,2.4c0,1.1,0.3,1.9,0.8,2.5C467.4,69.7,468.1,70,468.8,70z"/>
	<path d="M489.3,102.8V72.1h4.5v3.3h0.1c0.6-1.2,1.5-2.2,2.7-2.8c1.2-0.7,2.4-1,3.7-1c0.5,0,0.9,0,1.4,0.1c0.4,0.1,0.8,0.2,1,0.3
		l0.3,0.2l-0.9,4.7c-0.6-0.3-1.4-0.5-2.4-0.5c-2,0-3.4,0.6-4.3,1.9c-0.9,1.3-1.3,3.4-1.3,6.2v18.3H489.3z"/>
	<path d="M61.9,127.9v-5.4h5.5v5.4H61.9z M62.3,164.8v-30.7H67v30.7H62.3z"/>
	<path d="M77.2,164.8v-30.7h4.6v3H82c0.9-1.1,2.1-2,3.7-2.8c1.6-0.7,3.2-1.1,5-1.1c3.3,0,6,1,8,3.1c2,2.1,3,4.8,3,8.4v20.2H97v-18.7
		c0-5.7-2.4-8.6-7.1-8.6c-2.4,0-4.3,0.7-5.8,2c-1.4,1.4-2.2,3.2-2.2,5.6v19.6H77.2z"/>
	<path d="M125.8,127.9v-5.4h5.5v5.4H125.8z M126.1,164.8v-30.7h4.8v30.7H126.1z"/>
	<path d="M153.3,154.4l4.5-0.9c0.6,5.4,3.4,8.1,8.5,8.1c2.4,0,4.3-0.4,5.5-1.3c1.2-0.9,1.8-2.1,1.8-3.5c0-1.5-0.6-2.7-1.7-3.5
		c-1.1-0.8-3.5-1.7-7.2-2.7c-3.8-1-6.5-2.2-8-3.5c-1.5-1.3-2.3-3.1-2.3-5.3c0-2.3,0.9-4.3,2.8-5.9c1.9-1.7,4.5-2.5,7.8-2.5
		c3.4,0,6,0.8,8,2.4c2,1.6,3.3,3.7,3.9,6.4l-4.1,1.1c-1.2-3.9-3.8-5.9-7.8-5.9c-2,0-3.6,0.4-4.6,1.3c-1.1,0.9-1.6,1.9-1.6,3
		c0,1.3,0.5,2.2,1.6,2.8c1,0.6,3.4,1.5,7.2,2.6c4,1.1,6.7,2.4,8.2,3.9c1.5,1.4,2.3,3.4,2.3,5.9c0,2.4-1,4.5-2.9,6.3
		c-2,1.8-4.9,2.7-8.8,2.7c-4.1,0-7.2-1.1-9.3-3.2C154.9,160.4,153.6,157.7,153.3,154.4z"/>
	<path d="M185.6,164.8v-42.3h4.8v42.3H185.6z"/>
	<path d="M200,154.1v-20h4.8v19.3c0,2.9,0.6,4.9,1.7,6.1c1.1,1.2,2.9,1.8,5.5,1.8c2.3,0,4.1-0.7,5.3-2.1c1.2-1.4,1.9-3.4,1.9-6
		v-19.1h4.7v30.7h-4.6v-3H219c-0.2,0.3-0.5,0.6-0.9,1c-0.4,0.4-1.3,1-2.7,1.7c-1.4,0.7-2.9,1.1-4.6,1.1c-3.4,0-6.1-1-8-2.9
		C200.9,160.9,200,158,200,154.1z"/>
	<path d="M234.7,155.9v-17.6h-4.3v-4.2h4.4v-7.5h4.5v7.5h7.6v4.2h-7.5v17c0,1.8,0.3,3.1,0.8,3.8c0.5,0.7,1.5,1.1,3,1.1h2.3v4.6h-2.6
		c-2.9,0-5-0.7-6.3-2.2C235.4,161.1,234.7,158.9,234.7,155.9z"/>
	<path d="M251.6,154.4l4.5-0.9c0.6,5.4,3.4,8.1,8.5,8.1c2.4,0,4.3-0.4,5.5-1.3c1.2-0.9,1.8-2.1,1.8-3.5c0-1.5-0.6-2.7-1.7-3.5
		c-1.1-0.8-3.5-1.7-7.2-2.7c-3.8-1-6.5-2.2-8-3.5c-1.5-1.3-2.3-3.1-2.3-5.3c0-2.3,0.9-4.3,2.8-5.9c1.9-1.7,4.5-2.5,7.8-2.5
		c3.4,0,6,0.8,8,2.4c2,1.6,3.3,3.7,3.9,6.4l-4.1,1.1c-1.2-3.9-3.8-5.9-7.8-5.9c-2,0-3.6,0.4-4.6,1.3c-1.1,0.9-1.6,1.9-1.6,3
		c0,1.3,0.5,2.2,1.6,2.8c1,0.6,3.4,1.5,7.2,2.6c4,1.1,6.7,2.4,8.2,3.9c1.5,1.4,2.3,3.4,2.3,5.9c0,2.4-1,4.5-2.9,6.3
		c-2,1.8-4.9,2.7-8.8,2.7c-4.1,0-7.2-1.1-9.3-3.2C253.2,160.4,251.9,157.7,251.6,154.4z"/>
	<path d="M283.9,164.8v-42.3h4.8v25.7h0.1l12.9-14.1h6.3l-11.3,12.2l12.6,18.6h-5.5l-10.6-15.6h-0.1l-4.6,4.9v10.7H283.9z"/>
	<path d="M335.3,155.4l3.8,2.5c-1.2,2.2-2.8,4.1-5,5.6c-2.1,1.5-4.8,2.2-7.9,2.2c-4.2,0-7.6-1.5-10.3-4.4s-4-6.9-4-11.8
		c0-4.9,1.3-8.8,3.9-11.8c2.6-3,6-4.4,10.1-4.4c4.1,0,7.4,1.4,10,4.4c2.6,2.9,3.8,6.9,3.8,11.9v1.4h-23.1c0,2.9,0.9,5.4,2.5,7.5
		c1.6,2,3.9,3.1,6.9,3.1c1.2,0,2.2-0.2,3.2-0.5c1-0.3,1.8-0.7,2.3-1c0.5-0.3,1.1-0.9,1.7-1.6c0.6-0.8,1-1.2,1.1-1.5
		C334.7,156.6,335,156.1,335.3,155.4z M316.9,147.1h18.3c-0.1-2.6-0.9-4.8-2.3-6.7c-1.5-1.9-3.7-2.8-6.8-2.8c-3,0-5.2,1-6.8,3
		C317.7,142.6,316.9,144.8,316.9,147.1z"/>
	<path d="M368.1,164.8v-3H368c-0.8,1-2,1.8-3.6,2.6c-1.6,0.8-3.4,1.2-5.4,1.2c-4.1,0-7.3-1.5-9.7-4.4c-2.4-2.9-3.6-6.9-3.6-11.8
		c0-4.9,1.3-8.8,3.8-11.8c2.5-3,5.7-4.4,9.5-4.4c3.5,0,6.4,1.3,8.5,3.8h0.1v-14.6h4.8v42.3H368.1z M367.6,154.6v-9.5
		c0-1.9-0.7-3.7-2.1-5.2c-1.4-1.6-3.3-2.3-5.7-2.3c-3.1,0-5.4,1-7,3.1c-1.6,2.1-2.4,5-2.4,8.8c0,3.8,0.8,6.7,2.4,8.8
		c1.6,2.1,3.9,3.1,7,3.1c2.2,0,4.1-0.7,5.6-2C366.9,158,367.6,156.4,367.6,154.6z"/>
	<path d="M403.5,155.4l3.8,2.5c-1.2,2.2-2.8,4.1-5,5.6c-2.1,1.5-4.8,2.2-7.9,2.2c-4.2,0-7.6-1.5-10.3-4.4s-4-6.9-4-11.8
		c0-4.9,1.3-8.8,3.9-11.8s6-4.4,10.1-4.4c4.1,0,7.4,1.4,10,4.4c2.6,2.9,3.8,6.9,3.8,11.9v1.4H385c0,2.9,0.9,5.4,2.5,7.5
		c1.6,2,3.9,3.1,6.9,3.1c1.2,0,2.2-0.2,3.2-0.5c1-0.3,1.8-0.7,2.3-1c0.5-0.3,1.1-0.9,1.7-1.6s1-1.2,1.1-1.5
		C402.9,156.6,403.2,156.1,403.5,155.4z M385.1,147.1h18.3c-0.1-2.6-0.9-4.8-2.3-6.7c-1.5-1.9-3.7-2.8-6.8-2.8c-3,0-5.2,1-6.8,3
		C385.9,142.6,385.1,144.8,385.1,147.1z"/>
	<path d="M417,155.9v-17.6h-4.3v-4.2h4.4v-7.5h4.5v7.5h7.6v4.2h-7.5v17c0,1.8,0.2,3.1,0.8,3.8c0.5,0.7,1.5,1.1,3,1.1h2.3v4.6h-2.6
		c-2.9,0-5-0.7-6.3-2.2C417.6,161.1,417,158.9,417,155.9z"/>
	<path d="M61.9,226.8v-30.7h4.6v3h0.1c0.9-1.1,2.1-2,3.7-2.8c1.6-0.7,3.2-1.1,5-1.1c3.3,0,6,1,8,3.1c2,2.1,3,4.8,3,8.4v20.2h-4.7
		v-18.7c0-5.7-2.4-8.6-7.1-8.6c-2.4,0-4.3,0.7-5.8,2c-1.4,1.4-2.2,3.2-2.2,5.6v19.6H61.9z"/>
	<path d="M113.8,226.8v-3.4h-0.1c-0.6,1-1.7,2-3.3,2.9c-1.6,0.9-3.7,1.4-6.1,1.4c-3.4,0-6-0.8-7.7-2.5c-1.8-1.7-2.6-3.8-2.6-6.3
		c0-2.6,0.8-4.6,2.3-6c1.6-1.4,4.2-2.7,8-3.6c1.4-0.3,2.4-0.6,3.1-0.8c0.7-0.2,1.5-0.5,2.3-0.8c0.9-0.3,1.5-0.6,1.9-1
		c0.4-0.3,0.7-0.7,1-1.2s0.4-1,0.4-1.6c0-1.3-0.5-2.4-1.6-3.3c-1.1-0.9-2.7-1.3-4.8-1.3c-4.1,0-6.6,2-7.5,6.1l-4.3-1.2
		c0.5-2.7,1.8-4.9,3.8-6.6c2-1.7,4.6-2.5,7.8-2.5c3.6,0,6.4,0.9,8.4,2.6c2.1,1.8,3.1,4.5,3.1,8.3v20.7H113.8z M105.4,213
		c-2.6,0.7-4.4,1.5-5.4,2.4c-0.9,0.9-1.4,2-1.4,3.3c0,3.2,2,4.8,6.1,4.8c2.8,0,4.9-0.6,6.4-1.9c1.5-1.3,2.3-2.8,2.3-4.6v-7.7h-0.1
		C112.7,210.4,110.1,211.7,105.4,213z M98.9,191.4v-5.3h5.3v5.3H98.9z M110,191.4v-5.3h5.3v5.3H110z"/>
	<path d="M127.3,226.8v-30.7h4.5v3.3h0.1c0.6-1.2,1.5-2.2,2.7-2.8c1.2-0.7,2.4-1,3.7-1c0.5,0,0.9,0,1.4,0.1c0.4,0.1,0.8,0.2,1,0.3
		l0.3,0.2l-0.9,4.7c-0.6-0.3-1.4-0.5-2.4-0.5c-2,0-3.4,0.6-4.3,1.9c-0.9,1.3-1.3,3.4-1.3,6.2v18.3H127.3z"/>
	<path d="M162.2,226.8v-42.3h4.8v14.7h0.1c0.9-1.2,2.1-2.1,3.7-2.8c1.6-0.7,3.4-1.1,5.2-1.1c3.3,0,5.9,1,8,3c2,2,3,4.8,3,8.6v20.1
		h-4.8V208c0-5.6-2.4-8.5-7.1-8.5c-2.5,0-4.5,0.7-6,2.2c-1.5,1.5-2.2,3.4-2.2,5.7v19.3H162.2z"/>
	<path d="M217.9,217.4l3.8,2.5c-1.2,2.2-2.8,4.1-5,5.6c-2.1,1.5-4.8,2.2-7.9,2.2c-4.2,0-7.6-1.5-10.3-4.4s-4-6.9-4-11.8
		c0-4.9,1.3-8.8,3.9-11.8s6-4.4,10.1-4.4c4.1,0,7.4,1.4,10,4.4c2.6,2.9,3.8,6.9,3.8,11.9v1.4h-23.1c0,2.9,0.9,5.4,2.5,7.5
		c1.6,2,3.9,3.1,6.9,3.1c1.2,0,2.2-0.2,3.2-0.5c1-0.3,1.8-0.7,2.3-1c0.5-0.3,1.1-0.9,1.7-1.6c0.6-0.8,1-1.2,1.1-1.5
		C217.2,218.6,217.5,218.1,217.9,217.4z M199.4,209.1h18.3c-0.1-2.6-0.9-4.8-2.3-6.7c-1.5-1.9-3.7-2.8-6.8-2.8c-3,0-5.2,1-6.8,3
		C200.3,204.6,199.5,206.8,199.4,209.1z"/>
	<path d="M230.2,226.8v-30.7h4.5v3.3h0.1c0.6-1.2,1.5-2.2,2.7-2.8c1.2-0.7,2.4-1,3.7-1c0.5,0,0.9,0,1.4,0.1c0.4,0.1,0.8,0.2,1,0.3
		l0.3,0.2l-0.9,4.7c-0.6-0.3-1.4-0.5-2.4-0.5c-2,0-3.4,0.6-4.3,1.9c-0.9,1.3-1.3,3.4-1.3,6.2v18.3H230.2z"/>
	<path d="M250,226.8v-30.7h4.5v3.3h0.1c0.6-1.2,1.5-2.2,2.7-2.8c1.2-0.7,2.4-1,3.7-1c0.5,0,0.9,0,1.4,0.1c0.4,0.1,0.8,0.2,1,0.3
		l0.3,0.2l-0.9,4.7c-0.6-0.3-1.4-0.5-2.4-0.5c-2,0-3.4,0.6-4.3,1.9c-0.9,1.3-1.3,3.4-1.3,6.2v18.3H250z"/>
	<path d="M288.2,226.8v-3.4h-0.1c-0.6,1-1.7,2-3.3,2.9c-1.6,0.9-3.7,1.4-6.1,1.4c-3.4,0-6-0.8-7.7-2.5c-1.8-1.7-2.6-3.8-2.6-6.3
		c0-2.6,0.8-4.6,2.3-6c1.6-1.4,4.2-2.7,8-3.6c1.4-0.3,2.4-0.6,3.1-0.8c0.7-0.2,1.5-0.5,2.3-0.8c0.9-0.3,1.5-0.6,1.9-1
		c0.4-0.3,0.7-0.7,1-1.2s0.4-1,0.4-1.6c0-1.3-0.5-2.4-1.6-3.3c-1.1-0.9-2.7-1.3-4.8-1.3c-4.1,0-6.6,2-7.5,6.1l-4.3-1.2
		c0.5-2.7,1.8-4.9,3.8-6.6c2-1.7,4.6-2.5,7.8-2.5c3.6,0,6.4,0.9,8.4,2.6c2.1,1.8,3.1,4.5,3.1,8.3v20.7H288.2z M279.8,213
		c-2.6,0.7-4.4,1.5-5.4,2.4c-0.9,0.9-1.4,2-1.4,3.3c0,3.2,2,4.8,6.1,4.8c2.8,0,4.9-0.6,6.4-1.9c1.5-1.3,2.3-2.8,2.3-4.6v-7.7h-0.1
		C287.1,210.4,284.5,211.7,279.8,213z"/>
	<path d="M301.7,226.8v-30.7h4.5v3.3h0.1c0.6-1.2,1.5-2.2,2.7-2.8c1.2-0.7,2.4-1,3.7-1c0.5,0,0.9,0,1.4,0.1c0.4,0.1,0.8,0.2,1,0.3
		l0.3,0.2l-0.9,4.7c-0.6-0.3-1.4-0.5-2.4-0.5c-2,0-3.4,0.6-4.3,1.9c-0.9,1.3-1.3,3.4-1.3,6.2v18.3H301.7z"/>
	<path d="M322.1,226.8v-30.7h4.6v3h0.1c0.8-1.1,2.1-2,3.7-2.8c1.6-0.7,3.2-1.1,5-1.1c3.3,0,6,1,8,3.1c2,2.1,3,4.8,3,8.4v20.2h-4.7
		v-18.7c0-5.7-2.4-8.6-7.1-8.6c-2.4,0-4.3,0.7-5.8,2c-1.4,1.4-2.2,3.2-2.2,5.6v19.6H322.1z"/>
	<path d="M374,226.8v-3.4h-0.1c-0.6,1-1.7,2-3.3,2.9c-1.6,0.9-3.7,1.4-6.1,1.4c-3.4,0-6-0.8-7.7-2.5c-1.8-1.7-2.6-3.8-2.6-6.3
		c0-2.6,0.8-4.6,2.3-6c1.6-1.4,4.2-2.7,8-3.6c1.4-0.3,2.4-0.6,3.1-0.8c0.7-0.2,1.5-0.5,2.3-0.8c0.9-0.3,1.5-0.6,1.9-1
		c0.4-0.3,0.7-0.7,1-1.2s0.4-1,0.4-1.6c0-1.3-0.5-2.4-1.6-3.3c-1.1-0.9-2.7-1.3-4.8-1.3c-4.1,0-6.6,2-7.5,6.1l-4.3-1.2
		c0.5-2.7,1.8-4.9,3.8-6.6c2-1.7,4.6-2.5,7.8-2.5c3.6,0,6.4,0.9,8.4,2.6c2.1,1.8,3.1,4.5,3.1,8.3v20.7H374z M365.5,213
		c-2.6,0.7-4.4,1.5-5.4,2.4c-0.9,0.9-1.4,2-1.4,3.3c0,3.2,2,4.8,6.1,4.8c2.8,0,4.9-0.6,6.4-1.9c1.5-1.3,2.3-2.8,2.3-4.6v-7.7h-0.1
		C372.8,210.4,370.2,211.7,365.5,213z"/>
	<path d="M403,217.9v-17.6h-4.3v-4.2h4.4v-7.5h4.5v7.5h7.6v4.2h-7.5v17c0,1.8,0.3,3.1,0.8,3.8c0.5,0.7,1.5,1.1,3,1.1h2.3v4.6h-2.6
		c-2.9,0-5-0.7-6.3-2.2C403.7,223.1,403,220.9,403,217.9z"/>
	<path d="M422.8,189.9v-5.4h5.5v5.4H422.8z M423.2,226.8v-30.7h4.8v30.7H423.2z"/>
	<path d="M438.1,226.8v-42.3h4.8v42.3H438.1z"/>
	<path d="M452.8,226.8v-42.3h4.8v42.3H452.8z"/>
	<path d="M61.9,288.8v-42.3h4.8v14.7h0.1c0.9-1.2,2.1-2.1,3.7-2.8c1.6-0.7,3.4-1.1,5.2-1.1c3.3,0,5.9,1,8,3c2,2,3,4.8,3,8.6v20.1
		h-4.8V270c0-5.6-2.4-8.5-7.1-8.5c-2.5,0-4.5,0.7-6,2.2c-1.5,1.5-2.2,3.4-2.2,5.7v19.3H61.9z"/>
	<path d="M117.7,279.4l3.8,2.5c-1.2,2.2-2.8,4.1-5,5.6c-2.1,1.5-4.8,2.2-7.9,2.2c-4.2,0-7.6-1.5-10.3-4.4s-4-6.9-4-11.8
		c0-4.9,1.3-8.8,3.9-11.8s6-4.4,10.1-4.4c4.1,0,7.4,1.4,10,4.4c2.6,2.9,3.8,6.9,3.8,11.9v1.4H99.1c0,2.9,0.9,5.4,2.5,7.5
		c1.6,2,3.9,3.1,6.9,3.1c1.2,0,2.2-0.2,3.2-0.5c1-0.3,1.8-0.7,2.3-1c0.5-0.3,1.1-0.9,1.7-1.6c0.6-0.8,1-1.2,1.1-1.5
		C117,280.6,117.3,280.1,117.7,279.4z M99.2,271.1h18.3c-0.1-2.6-0.9-4.8-2.3-6.7c-1.5-1.9-3.7-2.8-6.8-2.8c-3,0-5.2,1-6.8,3
		C100.1,266.6,99.3,268.8,99.2,271.1z"/>
	<path d="M130,288.8v-42.3h4.8v42.3H130z"/>
	<path d="M145,294.4l4-2c0.7,1.9,1.7,3.4,2.9,4.5c1.2,1.1,2.9,1.7,5.2,1.7c2.5,0,4.4-0.7,5.7-2.2c1.4-1.5,2-3.5,2-6.1v-4.1h-0.1
		c-2,2.4-4.9,3.5-8.5,3.5c-4.1,0-7.3-1.5-9.8-4.4c-2.5-2.9-3.7-6.9-3.7-11.8c0-4.9,1.3-8.8,3.9-11.8c2.6-3,5.8-4.4,9.6-4.4
		c3.7,0,6.6,1.3,8.6,3.8h0.1v-3h4.6v31.2c0,4.4-1.1,7.7-3.3,10c-2.2,2.3-5.2,3.5-9.1,3.5c-3.1,0-5.7-0.8-7.8-2.3
		C147.3,298.9,145.8,296.9,145,294.4z M164.8,278.7V269c0-1.9-0.7-3.6-2.2-5.2c-1.4-1.5-3.4-2.3-5.8-2.3c-3,0-5.3,1.1-7,3.2
		c-1.6,2.1-2.5,5-2.5,8.8c0,3.8,0.8,6.7,2.4,8.8c1.6,2.1,4,3.1,7,3.1c2.3,0,4.2-0.7,5.7-2S164.8,280.5,164.8,278.7z"/>
	<path d="M200.4,279.4l3.8,2.5c-1.2,2.2-2.8,4.1-5,5.6c-2.1,1.5-4.8,2.2-7.9,2.2c-4.2,0-7.6-1.5-10.3-4.4s-4-6.9-4-11.8
		c0-4.9,1.3-8.8,3.9-11.8s6-4.4,10.1-4.4c4.1,0,7.4,1.4,10,4.4c2.6,2.9,3.8,6.9,3.8,11.9v1.4h-23.1c0,2.9,0.9,5.4,2.5,7.5
		c1.6,2,3.9,3.1,6.9,3.1c1.2,0,2.2-0.2,3.2-0.5c1-0.3,1.8-0.7,2.3-1c0.5-0.3,1.1-0.9,1.7-1.6c0.6-0.8,1-1.2,1.1-1.5
		C199.7,280.6,200,280.1,200.4,279.4z M181.9,271.1h18.3c-0.1-2.6-0.9-4.8-2.3-6.7c-1.5-1.9-3.7-2.8-6.8-2.8c-3,0-5.2,1-6.8,3
		C182.8,266.6,182,268.8,181.9,271.1z"/>
	<path d="M212.7,288.8v-30.7h4.6v3h0.1c0.9-1.1,2.1-2,3.7-2.8c1.6-0.7,3.2-1.1,5-1.1c3.3,0,6,1,8,3.1c2,2.1,3,4.8,3,8.4v20.2h-4.7
		v-18.7c0-5.7-2.4-8.6-7.1-8.6c-2.4,0-4.3,0.7-5.8,2c-1.4,1.4-2.2,3.2-2.2,5.6v19.6H212.7z"/>
	<path d="M259,278.4l4.5-0.9c0.6,5.4,3.4,8.1,8.5,8.1c2.4,0,4.3-0.4,5.5-1.3c1.2-0.9,1.8-2.1,1.8-3.5c0-1.5-0.6-2.7-1.7-3.5
		c-1.1-0.8-3.5-1.7-7.2-2.7c-3.8-1-6.5-2.2-8-3.5c-1.5-1.3-2.3-3.1-2.3-5.3c0-2.3,0.9-4.3,2.8-5.9c1.9-1.7,4.5-2.5,7.8-2.5
		c3.4,0,6,0.8,8,2.4c2,1.6,3.3,3.7,3.9,6.4l-4.1,1.1c-1.2-3.9-3.8-5.9-7.8-5.9c-2,0-3.6,0.4-4.6,1.3c-1.1,0.9-1.6,1.9-1.6,3
		c0,1.3,0.5,2.2,1.6,2.8c1,0.6,3.4,1.5,7.2,2.6c4,1.1,6.7,2.4,8.2,3.9c1.5,1.4,2.3,3.4,2.3,5.9c0,2.4-1,4.5-2.9,6.3
		c-2,1.8-4.9,2.7-8.8,2.7c-4.1,0-7.2-1.1-9.3-3.2C260.5,284.4,259.3,281.7,259,278.4z"/>
	<path d="M291.3,301.9v-43.8h4.5v3h0.1c0.8-1,1.9-1.8,3.5-2.6c1.5-0.8,3.3-1.2,5.3-1.2c3.8,0,7,1.5,9.6,4.4c2.6,3,3.8,6.9,3.8,11.8
		c0,5-1.2,8.9-3.7,11.8c-2.5,2.9-5.7,4.4-9.7,4.4c-1.9,0-3.6-0.4-5.2-1.2c-1.6-0.8-2.7-1.7-3.4-2.6H296v16H291.3z M296,269v9.7
		c0,1.8,0.8,3.3,2.3,4.7c1.5,1.3,3.4,2,5.6,2c3.1,0,5.4-1,7-3.1c1.6-2.1,2.5-5,2.5-8.8c0-3.8-0.8-6.7-2.5-8.8c-1.7-2.1-4-3.2-7-3.2
		c-2.4,0-4.3,0.8-5.7,2.3C296.7,265.4,296,267.1,296,269z"/>
	<path d="M347.2,279.4l3.8,2.5c-1.2,2.2-2.8,4.1-5,5.6c-2.1,1.5-4.8,2.2-7.9,2.2c-4.2,0-7.6-1.5-10.3-4.4s-4-6.9-4-11.8
		c0-4.9,1.3-8.8,3.9-11.8s6-4.4,10.1-4.4c4.1,0,7.4,1.4,10,4.4c2.6,2.9,3.8,6.9,3.8,11.9v1.4h-23.1c0,2.9,0.9,5.4,2.5,7.5
		c1.6,2,3.9,3.1,6.9,3.1c1.2,0,2.2-0.2,3.2-0.5c1-0.3,1.8-0.7,2.3-1c0.5-0.3,1.1-0.9,1.7-1.6s1-1.2,1.1-1.5
		C346.6,280.6,346.8,280.1,347.2,279.4z M328.8,271.1h18.3c-0.1-2.6-0.9-4.8-2.3-6.7c-1.5-1.9-3.7-2.8-6.8-2.8c-3,0-5.2,1-6.8,3
		C329.6,266.6,328.8,268.8,328.8,271.1z"/>
	<path d="M359.6,288.8v-42.3h4.8v42.3H359.6z"/>
	<path d="M392.1,288.8v-3.4H392c-0.6,1-1.7,2-3.3,2.9c-1.6,0.9-3.7,1.4-6.1,1.4c-3.4,0-6-0.8-7.7-2.5c-1.8-1.7-2.6-3.8-2.6-6.3
		c0-2.6,0.8-4.6,2.3-6c1.6-1.4,4.2-2.7,8-3.6c1.4-0.3,2.4-0.6,3.1-0.8c0.7-0.2,1.5-0.5,2.3-0.8c0.9-0.3,1.5-0.6,1.9-1
		c0.4-0.3,0.7-0.7,1-1.2s0.4-1,0.4-1.6c0-1.3-0.5-2.4-1.6-3.3c-1.1-0.9-2.7-1.3-4.8-1.3c-4.1,0-6.6,2-7.5,6.1l-4.3-1.2
		c0.5-2.7,1.8-4.9,3.8-6.6c2-1.7,4.6-2.5,7.8-2.5c3.6,0,6.4,0.9,8.4,2.6c2.1,1.8,3.1,4.5,3.1,8.3v20.7H392.1z M383.7,275
		c-2.6,0.7-4.4,1.5-5.4,2.4c-0.9,0.9-1.4,2-1.4,3.3c0,3.2,2,4.8,6.1,4.8c2.8,0,4.9-0.6,6.4-1.9c1.5-1.3,2.3-2.8,2.3-4.6v-7.7h-0.1
		C391,272.4,388.4,273.7,383.7,275z"/>
	<path d="M405.6,288.8v-30.7h4.5v3.3h0.1c0.6-1.2,1.5-2.2,2.7-2.8c1.2-0.7,2.4-1,3.7-1c0.5,0,0.9,0,1.4,0.1c0.4,0.1,0.8,0.2,1,0.3
		l0.3,0.2l-0.9,4.7c-0.6-0.3-1.4-0.5-2.4-0.5c-2,0-3.4,0.6-4.3,1.9c-0.9,1.3-1.3,3.4-1.3,6.2v18.3H405.6z"/>
	<path d="M62.2,356.4l4-2c0.7,1.9,1.7,3.4,2.9,4.5c1.2,1.1,2.9,1.7,5.2,1.7c2.5,0,4.4-0.7,5.7-2.2c1.4-1.5,2-3.5,2-6.1v-4.1h-0.1
		c-2,2.4-4.9,3.5-8.5,3.5c-4.1,0-7.3-1.5-9.8-4.4c-2.5-2.9-3.7-6.9-3.7-11.8c0-4.9,1.3-8.8,3.9-11.8c2.6-3,5.8-4.4,9.6-4.4
		c3.7,0,6.6,1.3,8.6,3.8h0.1v-3h4.6v31.2c0,4.4-1.1,7.7-3.3,10c-2.2,2.3-5.2,3.5-9.1,3.5c-3.1,0-5.7-0.8-7.8-2.3
		C64.5,360.9,63.1,358.9,62.2,356.4z M82.1,340.7V331c0-1.9-0.7-3.6-2.2-5.2c-1.4-1.5-3.4-2.3-5.8-2.3c-3,0-5.3,1.1-7,3.2
		c-1.6,2.1-2.5,5-2.5,8.8c0,3.8,0.8,6.7,2.4,8.8s4,3.1,7,3.1c2.3,0,4.2-0.7,5.7-2S82.1,342.5,82.1,340.7z"/>
	<path d="M117.6,341.4l3.8,2.5c-1.2,2.2-2.8,4.1-5,5.6c-2.1,1.5-4.8,2.2-7.9,2.2c-4.2,0-7.6-1.5-10.3-4.4s-4-6.9-4-11.8
		c0-4.9,1.3-8.8,3.9-11.8s6-4.4,10.1-4.4c4.1,0,7.4,1.5,10,4.4c2.6,2.9,3.8,6.9,3.8,11.9v1.4H99c0,2.9,0.9,5.4,2.5,7.5
		c1.6,2,3.9,3.1,6.9,3.1c1.2,0,2.2-0.2,3.2-0.5c1-0.3,1.8-0.7,2.3-1c0.5-0.3,1.1-0.9,1.7-1.6c0.6-0.8,1-1.2,1.1-1.5
		C117,342.6,117.2,342.1,117.6,341.4z M99.2,333.1h18.3c-0.1-2.6-0.9-4.8-2.3-6.7c-1.5-1.9-3.7-2.8-6.8-2.8c-3,0-5.2,1-6.8,3
		C100,328.6,99.2,330.8,99.2,333.1z"/>
	<path d="M130,350.8v-30.7h4.6v3h0.1c0.9-1.1,2.1-2,3.7-2.8c1.6-0.7,3.2-1.1,5-1.1c3.3,0,6,1,8,3.1c2,2,3,4.8,3,8.4v20.2h-4.7v-18.7
		c0-5.7-2.4-8.6-7.1-8.6c-2.4,0-4.3,0.7-5.8,2c-1.4,1.4-2.2,3.2-2.2,5.6v19.6H130z"/>
	<path d="M164,350.8v-30.7h4.5v3.3h0.1c0.6-1.2,1.5-2.2,2.7-2.8c1.2-0.7,2.4-1,3.7-1c0.5,0,0.9,0,1.4,0.1c0.4,0.1,0.8,0.2,1,0.3
		l0.3,0.2l-0.9,4.7c-0.6-0.3-1.4-0.5-2.4-0.5c-2,0-3.4,0.6-4.3,1.9c-0.9,1.3-1.3,3.4-1.3,6.2v18.3H164z"/>
	<path d="M205.7,341.4l3.8,2.5c-1.2,2.2-2.8,4.1-5,5.6c-2.1,1.5-4.8,2.2-7.9,2.2c-4.2,0-7.6-1.5-10.3-4.4s-4-6.9-4-11.8
		c0-4.9,1.3-8.8,3.9-11.8s6-4.4,10.1-4.4c4.1,0,7.4,1.5,10,4.4c2.6,2.9,3.8,6.9,3.8,11.9v1.4h-23.1c0,2.9,0.9,5.4,2.5,7.5
		c1.6,2,3.9,3.1,6.9,3.1c1.2,0,2.2-0.2,3.2-0.5c1-0.3,1.8-0.7,2.3-1c0.5-0.3,1.1-0.9,1.7-1.6c0.6-0.8,1-1.2,1.1-1.5
		C205,342.6,205.3,342.1,205.7,341.4z M187.2,333.1h18.3c-0.1-2.6-0.9-4.8-2.3-6.7c-1.5-1.9-3.7-2.8-6.8-2.8c-3,0-5.2,1-6.8,3
		C188,328.6,187.2,330.8,187.2,333.1z"/>
	<path d="M218,363.9v-43.8h4.5v3h0.1c0.8-1,1.9-1.8,3.5-2.6c1.5-0.8,3.3-1.2,5.3-1.2c3.8,0,7,1.5,9.6,4.4c2.6,3,3.8,6.9,3.8,11.8
		c0,5-1.2,8.9-3.7,11.8c-2.5,2.9-5.7,4.4-9.7,4.4c-1.9,0-3.6-0.4-5.2-1.2c-1.6-0.8-2.7-1.7-3.4-2.6h-0.1v16H218z M222.8,331v9.7
		c0,1.8,0.8,3.3,2.3,4.7c1.5,1.3,3.4,2,5.6,2c3.1,0,5.4-1,7-3.1c1.6-2.1,2.5-5,2.5-8.8c0-3.8-0.8-6.7-2.5-8.8c-1.7-2.1-4-3.2-7-3.2
		c-2.4,0-4.3,0.8-5.7,2.3C223.5,327.4,222.8,329.1,222.8,331z"/>
	<path d="M267.2,350.8v-30.7h4.3v3h0.1c0.7-1.1,1.8-2,3.2-2.8c1.4-0.7,3-1.1,4.6-1.1c1.9,0,3.6,0.4,5,1.3c1.4,0.9,2.4,1.9,3.2,3.2
		h0.1c0.7-1.2,1.9-2.3,3.4-3.2c1.5-0.9,3.3-1.3,5.2-1.3c3.2,0,5.8,1,7.7,2.9s2.9,4.5,2.9,7.8v20.9h-4.6v-19.5c0-5.2-2.1-7.8-6.3-7.8
		c-2.1,0-3.8,0.6-5,1.9c-1.2,1.3-1.8,3.1-1.8,5.4v19.9h-4.6v-19.5c0-5.2-2.1-7.8-6.3-7.8c-2.2,0-3.9,0.7-5,2.1
		c-1.1,1.4-1.6,3.1-1.6,5.3v19.9H267.2z"/>
	<path d="M328.4,351.7c-4.1,0-7.4-1.4-10-4.3c-2.6-2.9-3.9-6.8-3.9-11.9c0-5,1.4-9,4.1-11.9c2.7-2.9,6-4.4,9.9-4.4
		c3.9,0,7.1,1.5,9.8,4.4c2.6,2.9,4,6.9,4,11.9c0,5.1-1.3,9.1-3.9,11.9C335.7,350.3,332.4,351.7,328.4,351.7z M328.4,347.4
		c2.6,0,4.7-1.1,6.5-3.2c1.7-2.1,2.6-5,2.6-8.8c0-3.8-0.9-6.7-2.6-8.8c-1.7-2.1-3.9-3.2-6.5-3.2c-2.7,0-4.9,1-6.7,3.1
		s-2.6,5-2.6,8.8s0.9,6.8,2.6,8.8C323.5,346.4,325.7,347.4,328.4,347.4z"/>
	<path d="M351.1,341.9v-17.6h-4.3v-4.2h4.4v-7.5h4.5v7.5h7.6v4.2h-7.5v17c0,1.8,0.3,3.1,0.8,3.8s1.5,1.1,3,1.1h2.3v4.6h-2.6
		c-2.9,0-5-0.7-6.3-2.2C351.8,347.1,351.1,344.9,351.1,341.9z"/>
	<path d="M61.9,412.8v-30.7h4.6v3h0.1c0.9-1.1,2.1-2,3.7-2.8c1.6-0.7,3.2-1.1,5-1.1c3.3,0,6,1,8,3.1c2,2,3,4.8,3,8.4v20.2h-4.7
		v-18.7c0-5.7-2.4-8.6-7.1-8.6c-2.4,0-4.3,0.7-5.8,2c-1.4,1.4-2.2,3.2-2.2,5.6v19.6H61.9z"/>
	<path d="M107.9,413.7c-4.1,0-7.4-1.4-10-4.3c-2.6-2.9-3.9-6.8-3.9-11.9c0-5,1.4-9,4.1-11.9c2.7-2.9,6-4.4,9.9-4.4
		c3.9,0,7.1,1.5,9.8,4.4c2.6,2.9,4,6.9,4,11.9c0,5.1-1.3,9.1-3.9,11.9C115.2,412.3,111.9,413.7,107.9,413.7z M107.9,409.4
		c2.6,0,4.7-1.1,6.5-3.2c1.7-2.1,2.6-5,2.6-8.8c0-3.8-0.9-6.7-2.6-8.8c-1.7-2.1-3.9-3.2-6.5-3.2c-2.7,0-4.9,1-6.7,3.1
		s-2.6,5-2.6,8.8s0.9,6.8,2.6,8.8C103,408.4,105.2,409.4,107.9,409.4z"/>
	<path d="M129.5,412.8v-30.7h4.5v3.3h0.1c0.6-1.2,1.5-2.2,2.7-2.8c1.2-0.7,2.4-1,3.7-1c0.5,0,0.9,0,1.4,0.1c0.4,0.1,0.8,0.2,1,0.3
		l0.3,0.2l-0.9,4.7c-0.6-0.3-1.4-0.5-2.4-0.5c-2,0-3.4,0.6-4.3,1.9c-0.9,1.3-1.3,3.4-1.3,6.2v18.3H129.5z"/>
	<path d="M147.5,402.4l4.5-0.9c0.6,5.4,3.4,8.1,8.5,8.1c2.4,0,4.3-0.4,5.5-1.3c1.2-0.9,1.8-2.1,1.8-3.5c0-1.5-0.6-2.7-1.7-3.5
		c-1.1-0.8-3.5-1.7-7.2-2.7c-3.8-1-6.5-2.2-8-3.5c-1.5-1.3-2.3-3.1-2.3-5.3c0-2.3,0.9-4.3,2.8-5.9c1.9-1.7,4.5-2.5,7.8-2.5
		c3.4,0,6,0.8,8,2.4c2,1.6,3.3,3.7,3.9,6.4l-4.1,1.1c-1.2-3.9-3.8-5.9-7.8-5.9c-2,0-3.6,0.4-4.6,1.3c-1.1,0.9-1.6,1.9-1.6,3
		c0,1.3,0.5,2.2,1.6,2.8c1,0.6,3.4,1.5,7.2,2.6c4,1.1,6.7,2.4,8.2,3.9c1.5,1.5,2.3,3.4,2.3,5.9c0,2.4-1,4.5-2.9,6.3
		c-2,1.8-4.9,2.7-8.8,2.7c-4.1,0-7.2-1.1-9.3-3.2C149.1,408.4,147.9,405.7,147.5,402.4z"/>
	<path d="M179.8,412.8v-42.3h4.8v25.7h0.1l12.9-14.1h6.3l-11.3,12.2l12.6,18.6h-5.5l-10.6-15.6h-0.1l-4.6,4.9v10.7H179.8z"/>
	<path d="M229,412.8v-3.4h-0.1c-0.6,1-1.7,2-3.3,2.9s-3.7,1.4-6.1,1.4c-3.4,0-6-0.8-7.7-2.5c-1.8-1.7-2.6-3.8-2.6-6.3
		c0-2.6,0.8-4.6,2.3-6c1.6-1.5,4.2-2.7,8-3.6c1.4-0.3,2.4-0.6,3.1-0.8c0.7-0.2,1.5-0.5,2.3-0.8c0.9-0.3,1.5-0.6,1.9-1
		c0.4-0.3,0.7-0.7,1-1.2c0.3-0.5,0.4-1,0.4-1.6c0-1.3-0.5-2.4-1.6-3.3c-1.1-0.9-2.7-1.3-4.8-1.3c-4.1,0-6.6,2-7.5,6.1l-4.3-1.2
		c0.5-2.7,1.8-4.9,3.8-6.6c2-1.7,4.6-2.5,7.8-2.5c3.6,0,6.4,0.9,8.4,2.6c2.1,1.8,3.1,4.5,3.1,8.3v20.7H229z M220.6,399
		c-2.6,0.7-4.4,1.5-5.4,2.4c-0.9,0.9-1.4,2-1.4,3.3c0,3.2,2,4.8,6.1,4.8c2.8,0,4.9-0.6,6.4-1.9c1.5-1.3,2.3-2.8,2.3-4.6v-7.7h-0.1
		C227.9,396.4,225.3,397.7,220.6,399z"/>
	<path d="M267.5,412.8l-14.3-40.6h5.2l11.9,34.7h0.1l11.7-34.7h5.1l-14,40.6H267.5z"/>
	<path d="M292.2,375.9v-5.4h5.5v5.4H292.2z M292.5,412.8v-30.7h4.8v30.7H292.5z"/>
	<path d="M307.5,412.8v-42.3h4.8v25.7h0.1l12.9-14.1h6.3l-11.3,12.2l12.6,18.6h-5.5L317,397.2h-0.1l-4.6,4.9v10.7H307.5z"/>
	<path d="M338.8,375.9v-5.4h5.5v5.4H338.8z M339.2,412.8v-30.7h4.8v30.7H339.2z"/>
	<path d="M354.1,412.8v-30.7h4.6v3h0.1c0.9-1.1,2.1-2,3.7-2.8c1.6-0.7,3.2-1.1,5-1.1c3.3,0,6,1,8,3.1c2,2,3,4.8,3,8.4v20.2h-4.7
		v-18.7c0-5.7-2.4-8.6-7.1-8.6c-2.4,0-4.3,0.7-5.8,2c-1.4,1.4-2.2,3.2-2.2,5.6v19.6H354.1z"/>
	<path d="M388.5,418.4l4-2c0.7,1.9,1.7,3.4,2.9,4.5c1.2,1.1,2.9,1.7,5.2,1.7c2.5,0,4.4-0.7,5.7-2.2c1.4-1.5,2-3.5,2-6.1v-4.1h-0.1
		c-2,2.4-4.9,3.5-8.5,3.5c-4.1,0-7.3-1.5-9.8-4.4c-2.5-2.9-3.7-6.9-3.7-11.8c0-4.9,1.3-8.8,3.9-11.8c2.6-3,5.8-4.4,9.6-4.4
		c3.7,0,6.6,1.3,8.6,3.8h0.1v-3h4.6v31.2c0,4.4-1.1,7.7-3.3,10c-2.2,2.3-5.2,3.5-9.1,3.5c-3.1,0-5.7-0.8-7.8-2.3
		C390.8,422.9,389.3,420.9,388.5,418.4z M408.3,402.7V393c0-1.9-0.7-3.6-2.2-5.2c-1.5-1.5-3.4-2.3-5.8-2.3c-3,0-5.3,1.1-7,3.2
		c-1.6,2.1-2.5,5-2.5,8.8c0,3.8,0.8,6.7,2.4,8.8s4,3.1,7,3.1c2.3,0,4.2-0.7,5.7-2S408.3,404.5,408.3,402.7z"/>
	<path d="M59.9,460.9l5-1c0.6,3.9,1.7,6.8,3.3,8.6c1.6,1.8,4.3,2.7,8.1,2.7c3,0,5.3-0.7,6.8-2c1.5-1.4,2.3-3,2.3-5
		c0-1.9-0.7-3.5-2.1-4.6c-1.4-1.1-4.4-2.5-9.1-4c-4.5-1.4-7.7-3-9.7-4.7c-2-1.7-2.9-4-2.9-6.8c0-2.9,1.2-5.5,3.5-7.5
		c2.3-2.1,5.4-3.1,9.3-3.1c3.8,0,7,0.9,9.6,2.8c2.6,1.9,4.1,4.7,4.6,8.4l-4.9,1c-0.5-2.5-1.4-4.4-2.8-5.7c-1.4-1.3-3.6-2-6.5-2
		c-2.6,0-4.5,0.6-5.9,1.7c-1.4,1.2-2,2.6-2,4.4c0,1.5,0.6,2.8,1.9,3.8c1.2,1,4,2.1,8.2,3.5c5.4,1.7,9,3.5,10.8,5.3
		c1.9,1.8,2.8,4.2,2.8,7.3c0,3.3-1.3,6.1-3.8,8.4c-2.5,2.3-6,3.4-10.4,3.4C66.6,475.7,61.1,470.8,59.9,460.9z"/>
	<path d="M98.7,465.9v-17.6h-4.3v-4.2h4.4v-7.5h4.5v7.5h7.6v4.2h-7.5v17c0,1.8,0.3,3.1,0.8,3.8c0.5,0.7,1.5,1.1,3,1.1h2.3v4.6h-2.6
		c-2.9,0-5-0.7-6.3-2.2C99.3,471.1,98.7,468.9,98.7,465.9z"/>
	<path d="M135.8,474.8v-3.4h-0.1c-0.6,1-1.7,2-3.3,2.9s-3.7,1.4-6.1,1.4c-3.4,0-6-0.8-7.7-2.5c-1.8-1.7-2.6-3.8-2.6-6.3
		c0-2.6,0.8-4.6,2.3-6c1.6-1.5,4.2-2.7,8-3.6c1.4-0.3,2.4-0.6,3.1-0.8c0.7-0.2,1.5-0.5,2.3-0.8c0.9-0.3,1.5-0.6,1.9-1
		c0.4-0.3,0.7-0.7,1-1.2c0.3-0.5,0.4-1,0.4-1.6c0-1.3-0.5-2.4-1.6-3.3c-1.1-0.9-2.7-1.3-4.8-1.3c-4.1,0-6.6,2-7.5,6.1l-4.3-1.2
		c0.5-2.7,1.8-4.9,3.8-6.6c2-1.7,4.6-2.5,7.8-2.5c3.6,0,6.4,0.9,8.4,2.6c2.1,1.8,3.1,4.5,3.1,8.3v20.7H135.8z M127.3,461
		c-2.6,0.7-4.4,1.5-5.4,2.4c-0.9,0.9-1.4,2-1.4,3.3c0,3.2,2,4.8,6.1,4.8c2.8,0,4.9-0.6,6.4-1.9c1.5-1.3,2.3-2.8,2.3-4.6v-7.7h-0.1
		C134.6,458.4,132,459.7,127.3,461z"/>
	<path d="M156.4,474.8L144,444.1h4.9l9.4,24.1h0.1l9.4-24.1h4.9l-12.4,30.7H156.4z"/>
	<path d="M195.7,474.8v-3.4h-0.1c-0.6,1-1.7,2-3.3,2.9s-3.7,1.4-6.1,1.4c-3.4,0-6-0.8-7.7-2.5c-1.8-1.7-2.6-3.8-2.6-6.3
		c0-2.6,0.8-4.6,2.3-6c1.6-1.5,4.2-2.7,8-3.6c1.4-0.3,2.4-0.6,3.1-0.8c0.7-0.2,1.5-0.5,2.3-0.8c0.9-0.3,1.5-0.6,1.9-1
		c0.4-0.3,0.7-0.7,1-1.2c0.3-0.5,0.4-1,0.4-1.6c0-1.3-0.5-2.4-1.6-3.3c-1.1-0.9-2.7-1.3-4.8-1.3c-4.1,0-6.6,2-7.5,6.1l-4.3-1.2
		c0.5-2.7,1.8-4.9,3.8-6.6c2-1.7,4.6-2.5,7.8-2.5c3.6,0,6.4,0.9,8.4,2.6c2.1,1.8,3.1,4.5,3.1,8.3v20.7H195.7z M187.3,461
		c-2.6,0.7-4.4,1.5-5.4,2.4c-0.9,0.9-1.4,2-1.4,3.3c0,3.2,2,4.8,6.1,4.8c2.8,0,4.9-0.6,6.4-1.9c1.5-1.3,2.3-2.8,2.3-4.6v-7.7h-0.1
		C194.6,458.4,192,459.7,187.3,461z"/>
	<path d="M209.2,474.8v-30.7h4.6v3h0.1c0.9-1.1,2.1-2,3.7-2.8c1.6-0.7,3.2-1.1,5-1.1c3.3,0,6,1,8,3.1c2,2,3,4.8,3,8.4v20.2H229
		v-18.7c0-5.7-2.4-8.6-7.1-8.6c-2.4,0-4.3,0.7-5.8,2c-1.4,1.4-2.2,3.2-2.2,5.6v19.6H209.2z"/>
	<path d="M243.5,480.4l4-2c0.7,1.9,1.7,3.4,2.9,4.5c1.2,1.1,2.9,1.7,5.2,1.7c2.5,0,4.4-0.7,5.7-2.2c1.4-1.5,2-3.5,2-6.1v-4.1h-0.1
		c-2,2.4-4.9,3.5-8.5,3.5c-4.1,0-7.3-1.5-9.8-4.4c-2.5-2.9-3.7-6.9-3.7-11.8c0-4.9,1.3-8.8,3.9-11.8c2.6-3,5.8-4.4,9.6-4.4
		c3.7,0,6.6,1.3,8.6,3.8h0.1v-3h4.6v31.2c0,4.4-1.1,7.7-3.3,10c-2.2,2.3-5.2,3.5-9.1,3.5c-3.1,0-5.7-0.8-7.8-2.3
		C245.8,484.9,244.4,482.9,243.5,480.4z M263.4,464.7V455c0-1.9-0.7-3.6-2.2-5.2c-1.4-1.5-3.4-2.3-5.8-2.3c-3,0-5.3,1.1-7,3.2
		c-1.6,2.1-2.5,5-2.5,8.8c0,3.8,0.8,6.7,2.4,8.8s4,3.1,7,3.1c2.3,0,4.2-0.7,5.7-2S263.4,466.5,263.4,464.7z"/>
	<path d="M298.9,465.4l3.8,2.5c-1.2,2.2-2.8,4.1-5,5.6c-2.1,1.5-4.8,2.2-7.9,2.2c-4.2,0-7.6-1.5-10.3-4.4s-4-6.9-4-11.8
		c0-4.9,1.3-8.8,3.9-11.8s6-4.4,10.1-4.4c4.1,0,7.4,1.5,10,4.4c2.6,2.9,3.8,6.9,3.8,11.9v1.4h-23.1c0,2.9,0.9,5.4,2.5,7.5
		c1.6,2,3.9,3.1,6.9,3.1c1.2,0,2.2-0.2,3.2-0.5c1-0.3,1.8-0.7,2.3-1c0.5-0.3,1.1-0.9,1.7-1.6c0.6-0.8,1-1.2,1.1-1.5
		C298.3,466.6,298.5,466.1,298.9,465.4z M280.5,457.1h18.3c-0.1-2.6-0.9-4.8-2.3-6.7c-1.5-1.9-3.7-2.8-6.8-2.8c-3,0-5.2,1-6.8,3
		C281.3,452.6,280.5,454.8,280.5,457.1z"/>
	<path d="M311.3,474.8v-30.7h4.5v3.3h0.1c0.6-1.2,1.5-2.2,2.7-2.8c1.2-0.7,2.4-1,3.7-1c0.5,0,0.9,0,1.4,0.1c0.4,0.1,0.8,0.2,1,0.3
		l0.3,0.2l-0.9,4.7c-0.6-0.3-1.4-0.5-2.4-0.5c-2,0-3.4,0.6-4.3,1.9c-0.9,1.3-1.3,3.4-1.3,6.2v18.3H311.3z"/>
</g>
</svg>
