<?xml version="1.0" encoding="utf-8"?>
<!-- Generator: Adobe Illustrator 20.1.0, SVG Export Plug-In . SVG Version: 6.00 Build 0)  -->
<svg version="1.1" id="Layer_1" xmlns="http://www.w3.org/2000/svg" xmlns:xlink="http://www.w3.org/1999/xlink" x="0px" y="0px"
	 viewBox="0 0 319 201" style="enable-background:new 0 0 319 201;" xml:space="preserve">
<style type="text/css">
	.st0{fill:#FFFFFF;}
</style>
<g>
	<path d="M9.5,73.9V11.3h24.1c6.3,0,11.4,1.7,15.2,5.1c3.8,3.4,5.7,8.1,5.7,14.3c0,6.1-1.9,10.8-5.6,14.1c-3.8,3.3-8.8,5-15.1,5
		H16.9v24.1H9.5z M16.9,43h16.4c3.9,0,7.2-1,9.8-3.1c2.6-2.1,3.9-5.2,3.9-9.2c0-4.2-1.3-7.4-3.9-9.4c-2.6-2.1-5.9-3.1-9.9-3.1H16.9
		V43z"/>
	<path d="M89.6,73.9v-5.2h-0.2c-0.9,1.6-2.6,3-5.1,4.4s-5.6,2.1-9.4,2.1c-5.2,0-9.2-1.3-11.9-3.8c-2.7-2.6-4.1-5.8-4.1-9.7
		c0-3.9,1.2-7,3.6-9.3c2.4-2.2,6.5-4.1,12.3-5.6c2.1-0.5,3.7-1,4.8-1.3c1-0.3,2.2-0.7,3.6-1.2c1.4-0.5,2.4-1,3-1.5
		c0.6-0.5,1.1-1.1,1.6-1.8c0.4-0.7,0.7-1.5,0.7-2.4c0-2-0.8-3.7-2.5-5.1c-1.6-1.3-4.1-2-7.5-2c-6.3,0-10.2,3.1-11.5,9.4l-6.6-1.9
		c0.6-3.5,2.1-6.4,4.4-8.9c2.3-2.4,5.3-4,8.9-4.7C71.2,24,70,21.4,70,18c0-2.5,0.8-4.7,2.5-6.4c1.7-1.8,3.8-2.7,6.3-2.7
		c2.6,0,4.7,0.9,6.3,2.6c1.6,1.8,2.5,3.9,2.5,6.5c0,3.5-1.3,6.1-3.8,7.7C92,27.4,96.1,32.8,96.1,42v31.9H89.6z M76.6,52.5
		c-4.1,1.1-6.8,2.4-8.3,3.7c-1.5,1.3-2.2,3-2.2,5.1c0,5,3.1,7.4,9.4,7.4c4.3,0,7.6-1,9.9-2.9c2.3-1.9,3.5-4.3,3.5-7.1V46.9h-0.2
		C87.9,48.6,83.8,50.5,76.6,52.5z M78.8,23.2c1.2,0,2.2-0.5,3-1.4c0.8-0.9,1.3-2.2,1.3-3.9c0-1.6-0.4-2.8-1.3-3.7
		c-0.8-0.9-1.8-1.3-3-1.3c-1.2,0-2.2,0.4-3,1.3c-0.8,0.8-1.2,2.1-1.2,3.8c0,1.7,0.4,3,1.3,3.9C76.7,22.7,77.7,23.2,78.8,23.2z"/>
	<path d="M131.8,94V26.5h7v4.6h0.2c1.2-1.5,3-2.8,5.4-4.1c2.4-1.2,5.1-1.8,8.2-1.8c5.9,0,10.8,2.3,14.8,6.8
		c3.9,4.6,5.9,10.6,5.9,18.2c0,7.6-1.9,13.7-5.7,18.2c-3.8,4.5-8.8,6.8-14.9,6.8c-2.9,0-5.6-0.6-8-1.9c-2.4-1.3-4.2-2.6-5.2-4h-0.2
		V94H131.8z M139.2,43.3v15c0,2.7,1.2,5.1,3.5,7.2c2.3,2.1,5.2,3.1,8.7,3.1c4.7,0,8.3-1.6,10.9-4.8c2.5-3.2,3.8-7.8,3.8-13.6
		c0-5.8-1.3-10.3-3.8-13.5c-2.6-3.2-6.2-4.9-10.8-4.9c-3.6,0-6.6,1.2-8.8,3.6C140.3,37.8,139.2,40.4,139.2,43.3z"/>
	<path d="M182.4,73.9V8.6h7.4v65.3H182.4z"/>
	<path d="M229.6,73.9v-5.2h-0.2c-0.9,1.6-2.6,3-5.1,4.4s-5.6,2.1-9.4,2.1c-5.2,0-9.2-1.3-11.9-3.8c-2.7-2.6-4.1-5.8-4.1-9.7
		c0-3.9,1.2-7,3.6-9.3c2.4-2.2,6.5-4.1,12.3-5.6c2.1-0.5,3.7-1,4.8-1.3c1-0.3,2.2-0.7,3.6-1.2c1.4-0.5,2.4-1,3-1.5
		c0.6-0.5,1.1-1.1,1.6-1.8c0.4-0.7,0.7-1.5,0.7-2.4c0-2-0.8-3.7-2.5-5.1c-1.6-1.3-4.1-2-7.5-2c-6.3,0-10.2,3.1-11.5,9.4l-6.6-1.9
		c0.8-4.2,2.7-7.6,5.8-10.2c3.1-2.6,7.1-3.9,12.1-3.9c5.5,0,9.8,1.4,13,4.1c3.2,2.7,4.8,7,4.8,12.7v31.9H229.6z M216.5,52.5
		c-4.1,1.1-6.8,2.4-8.3,3.7c-1.5,1.3-2.2,3-2.2,5.1c0,5,3.1,7.4,9.4,7.4c4.3,0,7.6-1,9.9-2.9c2.3-1.9,3.5-4.3,3.5-7.1V46.9h-0.2
		C227.8,48.6,223.8,50.5,216.5,52.5z"/>
	<path d="M248.9,60.1V33h-6.6v-6.5h6.8V14.9h7v11.6h11.7V33h-11.6v26.2c0,2.8,0.4,4.8,1.2,5.9c0.8,1.1,2.3,1.7,4.7,1.7h3.6v7.1h-3.9
		c-4.5,0-7.7-1.1-9.7-3.4C249.9,68.2,248.9,64.7,248.9,60.1z"/>
	<path d="M272.9,57.8l6.9-1.3c0.9,8.3,5.3,12.4,13.1,12.4c3.8,0,6.6-0.7,8.5-2.1c1.9-1.4,2.8-3.2,2.8-5.5c0-2.4-0.9-4.2-2.6-5.4
		c-1.8-1.2-5.4-2.6-11-4.1c-5.8-1.6-10-3.4-12.3-5.5c-2.4-2-3.6-4.8-3.6-8.2c0-3.5,1.5-6.6,4.4-9.2c2.9-2.6,6.9-3.9,12.1-3.9
		c5.2,0,9.3,1.2,12.3,3.7c3,2.5,5.1,5.8,6.1,9.9l-6.4,1.7c-1.8-6-5.9-9-12.1-9c-3.1,0-5.5,0.7-7.2,2c-1.7,1.3-2.5,2.9-2.5,4.7
		c0,2,0.8,3.4,2.4,4.4c1.6,1,5.3,2.3,11.1,3.9c6.1,1.7,10.4,3.7,12.7,5.9c2.3,2.2,3.5,5.3,3.5,9.1c0,3.8-1.5,7-4.5,9.7
		c-3,2.7-7.5,4.1-13.5,4.1c-6.3,0-11-1.6-14.4-4.9C275.4,67.1,273.5,63,272.9,57.8z"/>
</g>
<g>
	<path class="st0" d="M9.5,169v-62.6h24.1c6.3,0,11.4,1.7,15.2,5.1c3.8,3.4,5.7,8.1,5.7,14.3c0,6.1-1.9,10.8-5.6,14.1
		c-3.8,3.3-8.8,5-15.1,5H16.9V169H9.5z M16.9,138h16.4c3.9,0,7.2-1,9.8-3.1c2.6-2.1,3.9-5.2,3.9-9.2c0-4.2-1.3-7.4-3.9-9.4
		c-2.6-2.1-5.9-3.1-9.9-3.1H16.9V138z"/>
	<path class="st0" d="M89.6,169v-5.2h-0.2c-0.9,1.6-2.6,3-5.1,4.4c-2.5,1.4-5.6,2.1-9.4,2.1c-5.2,0-9.2-1.3-11.9-3.8
		c-2.7-2.6-4.1-5.8-4.1-9.7c0-3.9,1.2-7,3.6-9.3c2.4-2.2,6.5-4.1,12.3-5.6c2.1-0.5,3.7-1,4.8-1.3c1-0.3,2.2-0.7,3.6-1.2
		c1.4-0.5,2.4-1,3-1.5c0.6-0.5,1.1-1.1,1.6-1.8c0.4-0.7,0.7-1.5,0.7-2.4c0-2-0.8-3.7-2.5-5.1c-1.6-1.3-4.1-2-7.5-2
		c-6.3,0-10.2,3.1-11.5,9.4l-6.6-1.9c0.6-3.5,2.1-6.4,4.4-8.9c2.3-2.4,5.3-4,8.9-4.7c-2.4-1.7-3.7-4.2-3.7-7.6
		c0-2.5,0.8-4.7,2.5-6.4c1.7-1.8,3.8-2.7,6.3-2.7c2.6,0,4.7,0.9,6.3,2.6c1.6,1.8,2.5,3.9,2.5,6.5c0,3.5-1.3,6.1-3.8,7.7
		c8.2,1.7,12.3,7.1,12.3,16.3V169H89.6z M76.6,147.6c-4.1,1.1-6.8,2.4-8.3,3.7c-1.5,1.3-2.2,3-2.2,5.1c0,4.9,3.1,7.4,9.4,7.4
		c4.3,0,7.6-1,9.9-2.9s3.5-4.3,3.5-7.1V142h-0.2C87.9,143.7,83.8,145.6,76.6,147.6z M78.8,118.3c1.2,0,2.2-0.5,3-1.4
		c0.8-0.9,1.3-2.2,1.3-3.9c0-1.6-0.4-2.8-1.3-3.7c-0.8-0.9-1.8-1.3-3-1.3c-1.2,0-2.2,0.4-3,1.3c-0.8,0.8-1.2,2.1-1.2,3.8
		c0,1.7,0.4,3,1.3,3.9C76.7,117.8,77.7,118.3,78.8,118.3z"/>
	<path class="st0" d="M131.8,189.1v-67.5h7v4.6h0.2c1.2-1.5,3-2.8,5.4-4.1c2.4-1.2,5.1-1.8,8.2-1.8c5.9,0,10.8,2.3,14.8,6.8
		c3.9,4.6,5.9,10.6,5.9,18.2c0,7.6-1.9,13.7-5.7,18.2c-3.8,4.5-8.8,6.8-14.9,6.8c-2.9,0-5.6-0.6-8-1.9c-2.4-1.3-4.2-2.6-5.2-4h-0.2
		v24.7H131.8z M139.2,138.4v15c0,2.7,1.2,5.1,3.5,7.2c2.3,2.1,5.2,3.1,8.7,3.1c4.7,0,8.3-1.6,10.9-4.8c2.5-3.2,3.8-7.8,3.8-13.6
		c0-5.8-1.3-10.3-3.8-13.5c-2.6-3.2-6.2-4.9-10.8-4.9c-3.6,0-6.6,1.2-8.8,3.6C140.3,132.8,139.2,135.5,139.2,138.4z"/>
	<path class="st0" d="M182.4,169v-65.3h7.4V169H182.4z"/>
	<path class="st0" d="M229.6,169v-5.2h-0.2c-0.9,1.6-2.6,3-5.1,4.4c-2.5,1.4-5.6,2.1-9.4,2.1c-5.2,0-9.2-1.3-11.9-3.8
		c-2.7-2.6-4.1-5.8-4.1-9.7c0-3.9,1.2-7,3.6-9.3c2.4-2.2,6.5-4.1,12.3-5.6c2.1-0.5,3.7-1,4.8-1.3c1-0.3,2.2-0.7,3.6-1.2
		c1.4-0.5,2.4-1,3-1.5c0.6-0.5,1.1-1.1,1.6-1.8c0.4-0.7,0.7-1.5,0.7-2.4c0-2-0.8-3.7-2.5-5.1c-1.6-1.3-4.1-2-7.5-2
		c-6.3,0-10.2,3.1-11.5,9.4l-6.6-1.9c0.8-4.2,2.7-7.6,5.8-10.2c3.1-2.6,7.1-3.9,12.1-3.9c5.5,0,9.8,1.4,13,4.1
		c3.2,2.7,4.8,7,4.8,12.7V169H229.6z M216.5,147.6c-4.1,1.1-6.8,2.4-8.3,3.7c-1.5,1.3-2.2,3-2.2,5.1c0,4.9,3.1,7.4,9.4,7.4
		c4.3,0,7.6-1,9.9-2.9s3.5-4.3,3.5-7.1V142h-0.2C227.8,143.7,223.8,145.6,216.5,147.6z"/>
	<path class="st0" d="M248.9,155.2v-27.1h-6.6v-6.5h6.8v-11.6h7v11.6h11.7v6.5h-11.6v26.2c0,2.8,0.4,4.8,1.2,5.9
		c0.8,1.1,2.3,1.7,4.7,1.7h3.6v7.1h-3.9c-4.5,0-7.7-1.1-9.7-3.4C249.9,163.2,248.9,159.8,248.9,155.2z"/>
	<path class="st0" d="M272.9,152.9l6.9-1.3c0.9,8.3,5.3,12.4,13.1,12.4c3.8,0,6.6-0.7,8.5-2.1c1.9-1.4,2.8-3.2,2.8-5.5
		c0-2.4-0.9-4.2-2.6-5.4c-1.8-1.2-5.4-2.6-11-4.1c-5.8-1.6-10-3.4-12.3-5.5c-2.4-2-3.6-4.8-3.6-8.2c0-3.5,1.5-6.6,4.4-9.2
		c2.9-2.6,6.9-3.9,12.1-3.9c5.2,0,9.3,1.2,12.3,3.7c3,2.5,5.1,5.8,6.1,9.9l-6.4,1.7c-1.8-6-5.9-9-12.1-9c-3.1,0-5.5,0.7-7.2,2
		c-1.7,1.3-2.5,2.9-2.5,4.7c0,2,0.8,3.4,2.4,4.4c1.6,1,5.3,2.3,11.1,3.9c6.1,1.7,10.4,3.7,12.7,5.9c2.3,2.2,3.5,5.3,3.5,9.1
		c0,3.8-1.5,7-4.5,9.7c-3,2.7-7.5,4.1-13.5,4.1c-6.3,0-11-1.6-14.4-4.9C275.4,162.2,273.5,158,272.9,152.9z"/>
</g>
</svg>
