<?xml version="1.0" encoding="utf-8"?>
<!-- Generator: Adobe Illustrator 20.1.0, SVG Export Plug-In . SVG Version: 6.00 Build 0)  -->
<svg version="1.1" id="Layer_1" xmlns="http://www.w3.org/2000/svg" xmlns:xlink="http://www.w3.org/1999/xlink" x="0px" y="0px"
	 viewBox="0 0 657.3 266.7" style="enable-background:new 0 0 657.3 266.7;" xml:space="preserve">
<style type="text/css">
	.st0{fill:none;stroke:#B4B4B4;stroke-miterlimit:10;}
</style>
<g>
	<path d="M31.7,45.6V13.4h4.1l14.7,25.9h0.1V13.4h3.8v32.2h-4L35.6,19.7h-0.1v25.9H31.7z"/>
	<path d="M62.4,37.1V21.2h3.8v15.3c0,2.3,0.4,3.9,1.3,4.8c0.9,1,2.3,1.4,4.3,1.4c1.8,0,3.3-0.6,4.2-1.7c1-1.1,1.5-2.7,1.5-4.7V21.2
		h3.7v24.4h-3.7v-2.3h-0.1c-0.2,0.2-0.4,0.5-0.7,0.8c-0.3,0.3-1,0.8-2.1,1.4c-1.1,0.6-2.3,0.9-3.7,0.9c-2.7,0-4.8-0.8-6.3-2.3
		C63.2,42.4,62.4,40.1,62.4,37.1z"/>
	<path d="M100.6,45.6V12h3.8v11.6h0.1c0.7-0.9,1.7-1.7,3-2.3c1.3-0.6,2.7-0.9,4.2-0.9c2.6,0,4.7,0.8,6.3,2.4
		c1.6,1.6,2.4,3.8,2.4,6.8v15.9h-3.8V30.7c0-4.5-1.9-6.7-5.7-6.7c-2,0-3.6,0.6-4.8,1.7c-1.2,1.2-1.8,2.7-1.8,4.6v15.3H100.6z"/>
	<path d="M142.1,45.6v-2.7H142c-0.5,0.8-1.3,1.6-2.6,2.3c-1.3,0.7-2.9,1.1-4.8,1.1c-2.7,0-4.7-0.7-6.1-2c-1.4-1.3-2.1-3-2.1-5
		c0-2,0.6-3.6,1.9-4.8c1.2-1.1,3.4-2.1,6.3-2.9c1.1-0.3,1.9-0.5,2.5-0.6c0.5-0.2,1.2-0.4,1.9-0.6c0.7-0.3,1.2-0.5,1.5-0.8
		c0.3-0.2,0.6-0.6,0.8-0.9c0.2-0.4,0.3-0.8,0.3-1.2c0-1-0.4-1.9-1.3-2.6c-0.8-0.7-2.1-1-3.8-1c-3.3,0-5.2,1.6-5.9,4.8l-3.4-1
		c0.4-2.1,1.4-3.9,3-5.2c1.6-1.3,3.7-2,6.2-2c2.8,0,5.1,0.7,6.7,2.1c1.6,1.4,2.5,3.6,2.5,6.6v16.4H142.1z M135.4,34.6
		c-2.1,0.6-3.5,1.2-4.3,1.9c-0.8,0.7-1.1,1.5-1.1,2.6c0,2.5,1.6,3.8,4.8,3.8c2.2,0,3.9-0.5,5.1-1.5c1.2-1,1.8-2.2,1.8-3.7v-6.1h-0.1
		C141.2,32.6,139.1,33.5,135.4,34.6z"/>
	<path d="M152.8,45.6V21.2h3.7v2.3h0.1c0.7-0.9,1.6-1.6,2.9-2.2c1.3-0.6,2.6-0.9,4-0.9c2.6,0,4.8,0.8,6.4,2.4
		c1.6,1.6,2.4,3.8,2.4,6.6v16h-3.7V30.8c0-4.5-1.9-6.8-5.6-6.8c-1.9,0-3.4,0.5-4.6,1.6c-1.2,1.1-1.7,2.6-1.7,4.5v15.5H152.8z"/>
	<path d="M196,45.6v-2.3h-0.1c-0.6,0.8-1.6,1.5-2.8,2.1c-1.2,0.6-2.7,0.9-4.3,0.9c-3.2,0-5.8-1.2-7.7-3.5c-1.9-2.3-2.9-5.5-2.9-9.4
		c0-3.9,1-7,3-9.4c2-2.3,4.5-3.5,7.6-3.5c2.8,0,5,1,6.8,3h0.1V12h3.8v33.6H196z M195.6,37.5v-7.5c0-1.5-0.6-2.9-1.7-4.2
		c-1.1-1.2-2.7-1.9-4.6-1.9c-2.4,0-4.3,0.8-5.5,2.5c-1.3,1.7-1.9,4-1.9,7c0,3,0.6,5.3,1.9,7c1.3,1.7,3.1,2.5,5.5,2.5
		c1.8,0,3.3-0.5,4.5-1.6C195,40.2,195.6,38.9,195.6,37.5z"/>
	<path d="M207.2,45.6V12h3.8v33.6H207.2z"/>
	<path d="M233,45.6v-2.7h-0.1c-0.5,0.8-1.3,1.6-2.6,2.3c-1.3,0.7-2.9,1.1-4.8,1.1c-2.7,0-4.7-0.7-6.1-2c-1.4-1.3-2.1-3-2.1-5
		c0-2,0.6-3.6,1.9-4.8c1.2-1.1,3.4-2.1,6.3-2.9c1.1-0.3,1.9-0.5,2.5-0.6c0.5-0.2,1.2-0.4,1.9-0.6c0.7-0.3,1.2-0.5,1.5-0.8
		c0.3-0.2,0.6-0.6,0.8-0.9c0.2-0.4,0.3-0.8,0.3-1.2c0-1-0.4-1.9-1.3-2.6c-0.8-0.7-2.1-1-3.8-1c-3.3,0-5.2,1.6-5.9,4.8l-3.4-1
		c0.4-2.1,1.4-3.9,3-5.2c1.6-1.3,3.7-2,6.2-2c2.8,0,5.1,0.7,6.7,2.1c1.6,1.4,2.5,3.6,2.5,6.6v16.4H233z M226.3,34.6
		c-2.1,0.6-3.5,1.2-4.3,1.9c-0.8,0.7-1.1,1.5-1.1,2.6c0,2.5,1.6,3.8,4.8,3.8c2.2,0,3.9-0.5,5.1-1.5c1.2-1,1.8-2.2,1.8-3.7v-6.1h-0.1
		C232.1,32.6,230,33.5,226.3,34.6z"/>
	<path d="M243.7,45.6V21.2h3.6v2.6h0.1c0.5-1,1.2-1.7,2.2-2.3c1-0.5,1.9-0.8,2.9-0.8c0.4,0,0.7,0,1.1,0.1c0.4,0.1,0.6,0.1,0.8,0.2
		l0.2,0.1l-0.7,3.7c-0.5-0.2-1.1-0.4-1.9-0.4c-1.6,0-2.7,0.5-3.4,1.5c-0.7,1-1.1,2.7-1.1,4.9v14.5H243.7z"/>
	<path d="M287.5,45.6v-2.3h-0.1c-0.6,0.8-1.6,1.5-2.8,2.1c-1.2,0.6-2.7,0.9-4.3,0.9c-3.2,0-5.8-1.2-7.7-3.5
		c-1.9-2.3-2.9-5.5-2.9-9.4c0-3.9,1-7,3-9.4c2-2.3,4.5-3.5,7.6-3.5c2.8,0,5,1,6.8,3h0.1V12h3.8v33.6H287.5z M287.1,37.5v-7.5
		c0-1.5-0.6-2.9-1.7-4.2c-1.1-1.2-2.7-1.9-4.6-1.9c-2.4,0-4.3,0.8-5.5,2.5c-1.3,1.7-1.9,4-1.9,7c0,3,0.6,5.3,1.9,7
		c1.3,1.7,3.1,2.5,5.5,2.5c1.8,0,3.3-0.5,4.5-1.6C286.5,40.2,287.1,38.9,287.1,37.5z"/>
	<path d="M315.6,38.1l3,2c-0.9,1.8-2.2,3.3-3.9,4.4s-3.8,1.8-6.3,1.8c-3.3,0-6-1.2-8.1-3.5c-2.1-2.3-3.2-5.5-3.2-9.4
		c0-3.9,1-7,3.1-9.4c2.1-2.3,4.7-3.5,8-3.5c3.2,0,5.9,1.1,7.9,3.4c2,2.3,3,5.4,3,9.4v1.1h-18.3c0,2.3,0.7,4.3,2,5.9
		c1.3,1.6,3.1,2.4,5.5,2.4c0.9,0,1.8-0.1,2.6-0.4c0.8-0.3,1.4-0.5,1.8-0.8c0.4-0.3,0.9-0.7,1.4-1.3c0.5-0.6,0.8-1,0.9-1.2
		C315.1,39,315.3,38.7,315.6,38.1z M301,31.5h14.5c-0.1-2.1-0.7-3.8-1.8-5.3c-1.2-1.5-3-2.3-5.4-2.3c-2.4,0-4.2,0.8-5.4,2.4
		S301,29.7,301,31.5z"/>
	<path d="M326.3,38.5V24.6h-3.4v-3.4h3.5v-6h3.6v6h6v3.4h-6V38c0,1.4,0.2,2.5,0.6,3c0.4,0.6,1.2,0.9,2.4,0.9h1.8v3.6h-2
		c-2.3,0-4-0.6-5-1.8C326.8,42.6,326.3,40.9,326.3,38.5z"/>
	<path d="M362.9,46.3c-3.2,0-5.9-1.1-8-3.4c-2.1-2.3-3.1-5.4-3.1-9.5c0-4,1.1-7.1,3.2-9.4c2.1-2.3,4.8-3.4,7.9-3.4
		c3.1,0,5.7,1.1,7.8,3.4c2.1,2.3,3.2,5.4,3.2,9.4c0,4-1,7.2-3.1,9.5C368.7,45.1,366.1,46.3,362.9,46.3z M362.9,42.9
		c2.1,0,3.8-0.8,5.1-2.5c1.4-1.7,2-4,2-7c0-3-0.7-5.3-2-7c-1.3-1.7-3.1-2.5-5.2-2.5c-2.1,0-3.9,0.8-5.3,2.5c-1.4,1.6-2.1,4-2.1,7
		s0.7,5.4,2.1,7S360.8,42.9,362.9,42.9z"/>
	<path d="M380.1,45.6V21.2h3.4v2.3h0.1c0.6-0.9,1.4-1.6,2.6-2.2c1.1-0.6,2.3-0.9,3.6-0.9c1.5,0,2.8,0.3,3.9,1
		c1.1,0.7,1.9,1.5,2.5,2.6h0.1c0.6-1,1.5-1.8,2.7-2.5c1.2-0.7,2.6-1.1,4.2-1.1c2.6,0,4.6,0.8,6.1,2.3c1.5,1.5,2.3,3.6,2.3,6.2v16.6
		h-3.6V30.1c0-4.1-1.7-6.2-5-6.2c-1.7,0-3,0.5-3.9,1.5c-0.9,1-1.4,2.5-1.4,4.3v15.8H394V30.1c0-4.1-1.7-6.2-5-6.2
		c-1.8,0-3.1,0.5-4,1.6c-0.9,1.1-1.3,2.5-1.3,4.2v15.8H380.1z"/>
	<path d="M444.8,45.6v-2.7h-0.1c-0.5,0.8-1.3,1.6-2.6,2.3s-2.9,1.1-4.8,1.1c-2.7,0-4.7-0.7-6.1-2c-1.4-1.3-2.1-3-2.1-5
		c0-2,0.6-3.6,1.9-4.8s3.3-2.1,6.3-2.9c1.1-0.3,1.9-0.5,2.5-0.6c0.5-0.2,1.2-0.4,1.9-0.6c0.7-0.3,1.2-0.5,1.5-0.8
		c0.3-0.2,0.6-0.6,0.8-0.9c0.2-0.4,0.3-0.8,0.3-1.2c0-1-0.4-1.9-1.3-2.6c-0.8-0.7-2.1-1-3.8-1c-3.3,0-5.2,1.6-5.9,4.8l-3.4-1
		c0.4-2.1,1.4-3.9,3-5.2c1.6-1.3,3.7-2,6.2-2c2.8,0,5.1,0.7,6.7,2.1c1.6,1.4,2.5,3.6,2.5,6.6v16.4H444.8z M438.1,34.6
		c-2.1,0.6-3.5,1.2-4.3,1.9c-0.8,0.7-1.1,1.5-1.1,2.6c0,2.5,1.6,3.8,4.8,3.8c2.2,0,3.9-0.5,5.1-1.5c1.2-1,1.8-2.2,1.8-3.7v-6.1h-0.1
		C443.9,32.6,441.8,33.5,438.1,34.6z"/>
	<path d="M456.4,38.5V24.6H453v-3.4h3.5v-6h3.6v6h6v3.4h-6V38c0,1.4,0.2,2.5,0.6,3c0.4,0.6,1.2,0.9,2.4,0.9h1.8v3.6h-2
		c-2.3,0-4-0.6-5-1.8C456.9,42.6,456.4,40.9,456.4,38.5z"/>
	<path d="M472.5,38.5V24.6h-3.4v-3.4h3.5v-6h3.6v6h6v3.4h-6V38c0,1.4,0.2,2.5,0.6,3c0.4,0.6,1.2,0.9,2.4,0.9h1.8v3.6h-2
		c-2.3,0-4-0.6-5-1.8C473,42.6,472.5,40.9,472.5,38.5z"/>
	<path d="M499.7,45.6V12h3.8v11.5h0.1c1.7-2,4-3,6.8-3c3.1,0,5.6,1.2,7.6,3.5c2,2.4,3,5.5,3,9.3c0,3.9-1,7.1-2.9,9.4
		c-1.9,2.3-4.5,3.5-7.7,3.5c-1.6,0-3.1-0.3-4.3-0.9c-1.2-0.6-2.2-1.3-2.8-2.1h-0.1v2.3H499.7z M503.4,29.9v7.5
		c0,1.4,0.6,2.7,1.8,3.8c1.2,1.1,2.7,1.6,4.5,1.6c2.4,0,4.3-0.8,5.5-2.5c1.3-1.7,1.9-4,1.9-7c0-3-0.6-5.3-1.9-7
		c-1.3-1.7-3.1-2.5-5.5-2.5c-1.9,0-3.4,0.6-4.6,1.9C504,27,503.4,28.4,503.4,29.9z"/>
	<path d="M527.1,45.6V12h3.8v33.6H527.1z"/>
	<path d="M538.7,16.3V12h4.3v4.3H538.7z M539,45.6V21.2h3.8v24.4H539z"/>
	<path d="M566.9,36.2l3.6,0.7c-0.4,2.8-1.5,5.1-3.4,6.8c-1.8,1.7-4.1,2.5-6.8,2.5c-3.3,0-5.9-1.1-8-3.4c-2.1-2.3-3.1-5.4-3.1-9.5
		c0-4,1.1-7.1,3.2-9.4c2.1-2.3,4.8-3.5,7.9-3.5c2.6,0,4.8,0.8,6.6,2.5c1.8,1.7,2.9,3.8,3.3,6.4l-3.5,0.7c-0.4-1.8-1.1-3.3-2.1-4.5
		c-1-1.2-2.5-1.8-4.3-1.8c-2.2,0-4,0.8-5.3,2.5c-1.3,1.7-2,4-2,7c0,2.9,0.7,5.3,2,6.9c1.3,1.7,3.1,2.5,5.4,2.5c1.8,0,3.3-0.7,4.4-2
		C565.9,39.6,566.6,38.1,566.9,36.2z"/>
	<path d="M576.5,45.6V12h3.8v20.4h0.1l10.3-11.2h5l-8.9,9.7l10,14.7h-4.4L584,33.2h-0.1l-3.6,3.9v8.5H576.5z"/>
	<path d="M615.5,45.6v-2.7h-0.1c-0.5,0.8-1.3,1.6-2.6,2.3s-2.9,1.1-4.8,1.1c-2.7,0-4.7-0.7-6.1-2c-1.4-1.3-2.1-3-2.1-5
		c0-2,0.6-3.6,1.9-4.8s3.3-2.1,6.3-2.9c1.1-0.3,1.9-0.5,2.5-0.6c0.5-0.2,1.2-0.4,1.9-0.6c0.7-0.3,1.2-0.5,1.5-0.8
		c0.3-0.2,0.6-0.6,0.8-0.9c0.2-0.4,0.3-0.8,0.3-1.2c0-1-0.4-1.9-1.3-2.6c-0.8-0.7-2.1-1-3.8-1c-3.3,0-5.2,1.6-5.9,4.8l-3.4-1
		c0.4-2.1,1.4-3.9,3-5.2c1.6-1.3,3.7-2,6.2-2c2.8,0,5.1,0.7,6.7,2.1c1.6,1.4,2.5,3.6,2.5,6.6v16.4H615.5z M608.8,34.6
		c-2.1,0.6-3.5,1.2-4.3,1.9c-0.8,0.7-1.1,1.5-1.1,2.6c0,2.5,1.6,3.8,4.8,3.8c2.2,0,3.9-0.5,5.1-1.5c1.2-1,1.8-2.2,1.8-3.7v-6.1H615
		C614.6,32.6,612.5,33.5,608.8,34.6z"/>
	<path d="M32.1,95.6v-21h-3.4v-3.4h3.5v-3.7c0-2.1,0.5-3.5,1.4-4.3s2.2-1.2,4-1.2h3.9v3.4h-3.2c-1,0-1.6,0.2-1.9,0.6
		c-0.3,0.4-0.5,1.1-0.5,2.3v3h6v3.4h-6v21H32.1z"/>
	<path d="M46.4,95.6V71.2H50v2.6h0.1c0.5-1,1.2-1.7,2.2-2.3c1-0.5,1.9-0.8,2.9-0.8c0.4,0,0.7,0,1.1,0.1c0.4,0.1,0.6,0.1,0.8,0.2
		l0.2,0.1L56.6,75c-0.5-0.2-1.1-0.4-1.9-0.4c-1.6,0-2.7,0.5-3.4,1.5c-0.7,1-1.1,2.7-1.1,4.9v14.5H46.4z"/>
	<path d="M76.7,95.6v-2.7h-0.1c-0.5,0.8-1.3,1.6-2.6,2.3c-1.3,0.7-2.9,1.1-4.8,1.1c-2.7,0-4.7-0.7-6.1-2c-1.4-1.3-2.1-3-2.1-5
		c0-2,0.6-3.6,1.9-4.8c1.2-1.1,3.4-2.1,6.3-2.9c1.1-0.3,1.9-0.5,2.5-0.6c0.5-0.2,1.2-0.4,1.9-0.6c0.7-0.3,1.2-0.5,1.5-0.8
		c0.3-0.2,0.6-0.6,0.8-0.9c0.2-0.4,0.3-0.8,0.3-1.2c0-1-0.4-1.9-1.3-2.6c-0.8-0.7-2.1-1-3.8-1c-3.3,0-5.2,1.6-5.9,4.8l-3.4-1
		c0.4-2.1,1.4-3.9,3-5.2c1.6-1.3,3.7-2,6.2-2c2.8,0,5.1,0.7,6.7,2.1c1.6,1.4,2.5,3.6,2.5,6.6v16.4H76.7z M70,84.6
		c-2.1,0.6-3.5,1.2-4.3,1.9c-0.8,0.7-1.1,1.5-1.1,2.6c0,2.5,1.6,3.8,4.8,3.8c2.2,0,3.9-0.5,5.1-1.5c1.2-1,1.8-2.2,1.8-3.7v-6.1h-0.1
		C75.8,82.6,73.8,83.5,70,84.6z"/>
	<path d="M87.4,95.6V71.2h3.4v2.3h0.1c0.6-0.9,1.4-1.6,2.6-2.2c1.1-0.6,2.3-0.9,3.6-0.9c1.5,0,2.8,0.3,3.9,1
		c1.1,0.7,1.9,1.5,2.5,2.6h0.1c0.6-1,1.5-1.8,2.7-2.5c1.2-0.7,2.6-1.1,4.2-1.1c2.6,0,4.6,0.8,6.1,2.3s2.3,3.6,2.3,6.2v16.6h-3.6
		V80.1c0-4.1-1.7-6.2-5-6.2c-1.7,0-3,0.5-3.9,1.5c-0.9,1-1.4,2.5-1.4,4.3v15.8h-3.6V80.1c0-4.1-1.7-6.2-5-6.2c-1.8,0-3.1,0.5-4,1.6
		c-0.9,1.1-1.3,2.5-1.3,4.2v15.8H87.4z"/>
	<path d="M140.7,95.6v-2.7h-0.1c-0.5,0.8-1.3,1.6-2.6,2.3c-1.3,0.7-2.9,1.1-4.8,1.1c-2.7,0-4.7-0.7-6.1-2c-1.4-1.3-2.1-3-2.1-5
		c0-2,0.6-3.6,1.9-4.8c1.2-1.1,3.4-2.1,6.3-2.9c1.1-0.3,1.9-0.5,2.5-0.6c0.5-0.2,1.2-0.4,1.9-0.6c0.7-0.3,1.2-0.5,1.5-0.8
		c0.3-0.2,0.6-0.6,0.8-0.9c0.2-0.4,0.3-0.8,0.3-1.2c0-1-0.4-1.9-1.3-2.6c-0.8-0.7-2.1-1-3.8-1c-3.3,0-5.2,1.6-5.9,4.8l-3.4-1
		c0.3-1.8,1.1-3.3,2.3-4.6c1.2-1.3,2.7-2.1,4.6-2.4c-1.3-0.9-1.9-2.2-1.9-3.9c0-1.3,0.4-2.4,1.3-3.3c0.9-0.9,1.9-1.4,3.2-1.4
		c1.3,0,2.4,0.5,3.2,1.4c0.8,0.9,1.3,2,1.3,3.3c0,1.8-0.6,3.1-1.9,4c4.2,0.9,6.3,3.6,6.3,8.4v16.4H140.7z M134,84.6
		c-2.1,0.6-3.5,1.2-4.3,1.9c-0.8,0.7-1.1,1.5-1.1,2.6c0,2.5,1.6,3.8,4.8,3.8c2.2,0,3.9-0.5,5.1-1.5c1.2-1,1.8-2.2,1.8-3.7v-6.1h-0.1
		C139.8,82.6,137.7,83.5,134,84.6z M135.1,69.5c0.6,0,1.1-0.2,1.6-0.7c0.4-0.5,0.6-1.1,0.6-2c0-0.8-0.2-1.5-0.6-1.9
		c-0.4-0.4-1-0.7-1.6-0.7c-0.6,0-1.1,0.2-1.5,0.6c-0.4,0.4-0.6,1.1-0.6,1.9c0,0.9,0.2,1.5,0.6,2C134,69.3,134.5,69.5,135.1,69.5z"/>
	<path d="M152.2,88.5V74.6h-3.4v-3.4h3.5v-6h3.6v6h6v3.4h-6V88c0,1.4,0.2,2.5,0.6,3c0.4,0.6,1.2,0.9,2.4,0.9h1.8v3.6h-2
		c-2.3,0-4-0.6-5-1.8C152.7,92.6,152.2,90.9,152.2,88.5z"/>
	<path d="M188.9,96.3c-3.2,0-5.9-1.1-8-3.4c-2.1-2.3-3.1-5.4-3.1-9.5c0-4,1.1-7.1,3.2-9.4c2.1-2.3,4.8-3.4,7.9-3.4
		c3.1,0,5.6,1.1,7.8,3.4c2.1,2.3,3.2,5.4,3.2,9.4c0,4-1,7.2-3.1,9.5C194.6,95.1,192,96.3,188.9,96.3z M188.9,92.9
		c2.1,0,3.8-0.8,5.1-2.5c1.4-1.7,2-4,2-7c0-3-0.7-5.3-2-7c-1.4-1.7-3.1-2.5-5.2-2.5c-2.1,0-3.9,0.8-5.3,2.5c-1.4,1.6-2.1,4-2.1,7
		s0.7,5.4,2.1,7C185,92,186.7,92.9,188.9,92.9z"/>
	<path d="M222,86.2l3.6,0.7c-0.4,2.8-1.5,5.1-3.4,6.8c-1.8,1.7-4.1,2.5-6.8,2.5c-3.3,0-6-1.1-8-3.4c-2.1-2.3-3.1-5.4-3.1-9.5
		c0-4,1.1-7.1,3.2-9.4c2.1-2.3,4.8-3.5,7.9-3.5c2.6,0,4.8,0.8,6.6,2.5c1.8,1.7,2.9,3.8,3.3,6.4l-3.5,0.7c-0.4-1.8-1.1-3.3-2.1-4.5
		c-1-1.2-2.5-1.8-4.3-1.8c-2.2,0-4,0.8-5.3,2.5c-1.3,1.7-2,4-2,7c0,2.9,0.7,5.3,2,6.9c1.3,1.7,3.1,2.5,5.4,2.5c1.8,0,3.3-0.7,4.4-2
		C221.1,89.6,221.8,88.1,222,86.2z"/>
	<path d="M231.6,95.6V62h3.8v11.6h0.1c0.7-0.9,1.7-1.7,3-2.3c1.3-0.6,2.7-0.9,4.2-0.9c2.6,0,4.7,0.8,6.3,2.4
		c1.6,1.6,2.4,3.8,2.4,6.8v15.9h-3.8V80.7c0-4.5-1.9-6.7-5.7-6.7c-2,0-3.6,0.6-4.8,1.7c-1.2,1.2-1.8,2.7-1.8,4.6v15.3H231.6z"/>
	<path d="M270.9,95.6V63.4h3.8v13.8h14.4V63.4h3.8v32.2h-3.8v-15h-14.4v15H270.9z"/>
	<path d="M315.3,95.6v-2.7h-0.1c-0.5,0.8-1.3,1.6-2.6,2.3c-1.3,0.7-2.9,1.1-4.8,1.1c-2.7,0-4.7-0.7-6.1-2c-1.4-1.3-2.1-3-2.1-5
		c0-2,0.6-3.6,1.9-4.8c1.2-1.1,3.4-2.1,6.3-2.9c1.1-0.3,1.9-0.5,2.5-0.6c0.5-0.2,1.2-0.4,1.9-0.6c0.7-0.3,1.2-0.5,1.5-0.8
		c0.3-0.2,0.6-0.6,0.8-0.9c0.2-0.4,0.3-0.8,0.3-1.2c0-1-0.4-1.9-1.3-2.6c-0.8-0.7-2.1-1-3.8-1c-3.3,0-5.2,1.6-5.9,4.8l-3.4-1
		c0.4-2.1,1.4-3.9,3-5.2c1.6-1.3,3.7-2,6.2-2c2.8,0,5.1,0.7,6.7,2.1c1.6,1.4,2.5,3.6,2.5,6.6v16.4H315.3z M308.6,84.6
		c-2.1,0.6-3.5,1.2-4.3,1.9c-0.8,0.7-1.1,1.5-1.1,2.6c0,2.5,1.6,3.8,4.8,3.8c2.2,0,3.9-0.5,5.1-1.5c1.2-1,1.8-2.2,1.8-3.7v-6.1h-0.1
		C314.4,82.6,312.4,83.5,308.6,84.6z"/>
	<path d="M326,95.6V71.2h3.6v2.6h0.1c0.5-1,1.2-1.7,2.2-2.3c1-0.5,1.9-0.8,2.9-0.8c0.4,0,0.7,0,1.1,0.1c0.4,0.1,0.6,0.1,0.8,0.2
		l0.2,0.1l-0.7,3.7c-0.5-0.2-1.1-0.4-1.9-0.4c-1.6,0-2.7,0.5-3.4,1.5c-0.7,1-1.1,2.7-1.1,4.9v14.5H326z"/>
	<path d="M342.2,66.3V62h4.3v4.3H342.2z M342.4,95.6V71.2h3.8v24.4H342.4z"/>
	<path d="M352.5,87.3l3.5-0.7c0.5,4.3,2.7,6.4,6.8,6.4c1.9,0,3.4-0.4,4.3-1.1c1-0.7,1.4-1.6,1.4-2.8c0-1.2-0.5-2.1-1.4-2.8
		c-0.9-0.6-2.8-1.3-5.7-2.1c-3-0.8-5.1-1.8-6.3-2.8c-1.2-1-1.8-2.5-1.8-4.2c0-1.8,0.8-3.4,2.3-4.7c1.5-1.3,3.6-2,6.2-2
		c2.7,0,4.8,0.6,6.3,1.9c1.6,1.3,2.6,3,3.1,5.1l-3.3,0.9c-1-3.1-3-4.6-6.2-4.6c-1.6,0-2.8,0.3-3.7,1c-0.9,0.7-1.3,1.5-1.3,2.4
		c0,1,0.4,1.8,1.2,2.3c0.8,0.5,2.7,1.2,5.7,2c3.2,0.9,5.3,1.9,6.5,3.1s1.8,2.7,1.8,4.7c0,1.9-0.8,3.6-2.3,5s-3.9,2.1-7,2.1
		c-3.2,0-5.7-0.8-7.4-2.5C353.7,92.1,352.7,89.9,352.5,87.3z"/>
	<path d="M403.7,95.6v-2.7h-0.1c-0.5,0.8-1.3,1.6-2.6,2.3s-2.9,1.1-4.8,1.1c-2.7,0-4.7-0.7-6.1-2c-1.4-1.3-2.1-3-2.1-5
		c0-2,0.6-3.6,1.9-4.8s3.3-2.1,6.3-2.9c1.1-0.3,1.9-0.5,2.5-0.6c0.5-0.2,1.2-0.4,1.9-0.6c0.7-0.3,1.2-0.5,1.5-0.8
		c0.3-0.2,0.6-0.6,0.8-0.9c0.2-0.4,0.3-0.8,0.3-1.2c0-1-0.4-1.9-1.3-2.6c-0.8-0.7-2.1-1-3.8-1c-3.3,0-5.2,1.6-5.9,4.8l-3.4-1
		c0.4-2.1,1.4-3.9,3-5.2c1.6-1.3,3.7-2,6.2-2c2.8,0,5.1,0.7,6.7,2.1c1.6,1.4,2.5,3.6,2.5,6.6v16.4H403.7z M397,84.6
		c-2.1,0.6-3.5,1.2-4.3,1.9c-0.8,0.7-1.1,1.5-1.1,2.6c0,2.5,1.6,3.8,4.8,3.8c2.2,0,3.9-0.5,5.1-1.5c1.2-1,1.8-2.2,1.8-3.7v-6.1h-0.1
		C402.9,82.6,400.8,83.5,397,84.6z M391.9,67.5v-4.2h4.2v4.2H391.9z M400.7,67.5v-4.2h4.2v4.2H400.7z"/>
	<path d="M414.4,95.6V71.2h3.6v2.6h0.1c0.5-1,1.2-1.7,2.2-2.3c1-0.5,1.9-0.8,2.9-0.8c0.4,0,0.7,0,1.1,0.1c0.4,0.1,0.6,0.1,0.8,0.2
		l0.2,0.1l-0.7,3.7c-0.5-0.2-1.1-0.4-1.9-0.4c-1.6,0-2.7,0.5-3.4,1.5c-0.7,1-1.1,2.7-1.1,4.9v14.5H414.4z"/>
	<path d="M442.1,95.6V62h3.8v11.6h0.1c0.7-0.9,1.7-1.7,3-2.3c1.3-0.6,2.7-0.9,4.2-0.9c2.6,0,4.7,0.8,6.3,2.4
		c1.6,1.6,2.4,3.8,2.4,6.8v15.9H458V80.7c0-4.5-1.9-6.7-5.7-6.7c-2,0-3.6,0.6-4.8,1.7c-1.2,1.2-1.8,2.7-1.8,4.6v15.3H442.1z"/>
	<path d="M478.9,96.3c-3.2,0-5.9-1.1-8-3.4c-2.1-2.3-3.1-5.4-3.1-9.5c0-4,1.1-7.1,3.2-9.4c2.1-2.3,4.8-3.4,7.9-3.4
		c3.1,0,5.7,1.1,7.8,3.4c2.1,2.3,3.2,5.4,3.2,9.4c0,4-1,7.2-3.1,9.5C484.6,95.1,482,96.3,478.9,96.3z M478.9,92.9
		c2.1,0,3.8-0.8,5.1-2.5c1.4-1.7,2-4,2-7c0-3-0.7-5.3-2-7c-1.3-1.7-3.1-2.5-5.2-2.5c-2.1,0-3.9,0.8-5.3,2.5c-1.4,1.6-2.1,4-2.1,7
		s0.7,5.4,2.1,7S476.7,92.9,478.9,92.9z"/>
	<path d="M496,105.9V71.2h3.6v2.3h0.1c0.6-0.8,1.5-1.5,2.8-2.1c1.2-0.6,2.6-0.9,4.2-0.9c3,0,5.6,1.2,7.6,3.5c2,2.3,3,5.5,3,9.4
		c0,3.9-1,7.1-2.9,9.4c-2,2.3-4.5,3.5-7.7,3.5c-1.5,0-2.9-0.3-4.1-1c-1.3-0.6-2.1-1.3-2.7-2.1h-0.1v12.7H496z M499.7,79.8v7.7
		c0,1.4,0.6,2.6,1.8,3.7c1.2,1.1,2.7,1.6,4.5,1.6c2.4,0,4.3-0.8,5.6-2.5c1.3-1.7,2-4,2-7c0-3-0.7-5.3-2-7c-1.3-1.7-3.2-2.5-5.6-2.5
		c-1.9,0-3.4,0.6-4.5,1.8C500.3,77,499.7,78.3,499.7,79.8z"/>
	<path d="M523.5,105.9V71.2h3.6v2.3h0.1c0.6-0.8,1.5-1.5,2.8-2.1c1.2-0.6,2.6-0.9,4.2-0.9c3,0,5.6,1.2,7.6,3.5c2,2.3,3,5.5,3,9.4
		c0,3.9-1,7.1-2.9,9.4c-2,2.3-4.5,3.5-7.7,3.5c-1.5,0-2.9-0.3-4.1-1c-1.3-0.6-2.1-1.3-2.7-2.1h-0.1v12.7H523.5z M527.3,79.8v7.7
		c0,1.4,0.6,2.6,1.8,3.7c1.2,1.1,2.7,1.6,4.5,1.6c2.4,0,4.3-0.8,5.6-2.5c1.3-1.7,2-4,2-7c0-3-0.7-5.3-2-7c-1.3-1.7-3.2-2.5-5.6-2.5
		c-1.9,0-3.4,0.6-4.5,1.8C527.8,77,527.3,78.3,527.3,79.8z"/>
	<path d="M551.9,95.6v-21h-3.4v-3.4h3.5v-3.7c0-2.1,0.5-3.5,1.4-4.3s2.2-1.2,4-1.2h3.9v3.4h-3.2c-1,0-1.6,0.2-1.9,0.6
		c-0.3,0.4-0.5,1.1-0.5,2.3v3h6v3.4h-6v21H551.9z"/>
	<path d="M565.9,87.1V71.2h3.8v15.3c0,2.3,0.4,3.9,1.3,4.8c0.9,1,2.3,1.4,4.3,1.4c1.8,0,3.2-0.6,4.2-1.7c1-1.1,1.5-2.7,1.5-4.7V71.2
		h3.7v24.4h-3.7v-2.3H581c-0.2,0.2-0.4,0.5-0.7,0.8c-0.3,0.3-1,0.8-2.1,1.4c-1.1,0.6-2.3,0.9-3.7,0.9c-2.7,0-4.8-0.8-6.3-2.3
		C566.7,92.4,565.9,90.1,565.9,87.1z"/>
	<path d="M592.6,95.6V62h3.8v33.6H592.6z"/>
	<path d="M604.3,95.6V62h3.8v33.6H604.3z"/>
	<path d="M31.2,116.3V112h4.3v4.3H31.2z M31.5,145.6v-24.4h3.8v24.4H31.5z"/>
	<path d="M43.4,145.6v-24.4h3.7v2.3h0.1c0.7-0.9,1.6-1.6,2.9-2.2c1.3-0.6,2.6-0.9,4-0.9c2.6,0,4.8,0.8,6.4,2.4
		c1.6,1.6,2.4,3.8,2.4,6.6v16h-3.7v-14.8c0-4.5-1.9-6.8-5.6-6.8c-1.9,0-3.4,0.5-4.6,1.6c-1.2,1.1-1.7,2.6-1.7,4.5v15.5H43.4z"/>
	<path d="M71.3,145.6v-21h-3.4v-3.4h3.5v-3.7c0-2.1,0.5-3.5,1.4-4.3s2.2-1.2,4-1.2h3.9v3.4h-3.2c-1,0-1.6,0.2-1.9,0.6
		c-0.3,0.4-0.5,1.1-0.5,2.3v3h6v3.4h-6v21H71.3z"/>
	<path d="M95,146.3c-3.2,0-5.9-1.1-8-3.4c-2.1-2.3-3.1-5.4-3.1-9.5c0-4,1.1-7.1,3.2-9.4c2.1-2.3,4.8-3.4,7.9-3.4
		c3.1,0,5.6,1.1,7.8,3.4c2.1,2.3,3.2,5.4,3.2,9.4c0,4-1,7.2-3.1,9.5C100.8,145.1,98.2,146.3,95,146.3z M95,142.9
		c2.1,0,3.8-0.8,5.1-2.5c1.4-1.7,2-4,2-7c0-3-0.7-5.3-2-7c-1.4-1.7-3.1-2.5-5.2-2.5c-2.1,0-3.9,0.8-5.3,2.5c-1.4,1.6-2.1,4-2.1,7
		s0.7,5.4,2.1,7C91.1,142,92.9,142.9,95,142.9z M88.9,117.5v-4.2h4.2v4.2H88.9z M97.7,117.5v-4.2h4.2v4.2H97.7z"/>
	<path d="M112.2,145.6v-24.4h3.6v2.6h0.1c0.5-1,1.2-1.7,2.2-2.3c1-0.5,1.9-0.8,2.9-0.8c0.4,0,0.7,0,1.1,0.1c0.4,0.1,0.6,0.1,0.8,0.2
		l0.2,0.1l-0.7,3.7c-0.5-0.2-1.1-0.4-1.9-0.4c-1.6,0-2.7,0.5-3.4,1.5c-0.7,1-1.1,2.7-1.1,4.9v14.5H112.2z"/>
	<path d="M156,145.6v-2.3h-0.1c-0.6,0.8-1.6,1.5-2.8,2.1c-1.2,0.6-2.7,0.9-4.3,0.9c-3.2,0-5.8-1.2-7.7-3.5c-1.9-2.3-2.9-5.5-2.9-9.4
		c0-3.9,1-7,3-9.4c2-2.3,4.5-3.5,7.6-3.5c2.8,0,5,1,6.8,3h0.1V112h3.8v33.6H156z M155.6,137.5v-7.5c0-1.5-0.6-2.9-1.7-4.2
		c-1.1-1.2-2.7-1.9-4.6-1.9c-2.4,0-4.3,0.8-5.5,2.5c-1.3,1.7-1.9,4-1.9,7c0,3,0.6,5.3,1.9,7c1.3,1.7,3.1,2.5,5.5,2.5
		c1.8,0,3.3-0.5,4.5-1.6C155,140.2,155.6,138.9,155.6,137.5z"/>
	<path d="M184.1,138.1l3,2c-0.9,1.8-2.2,3.3-3.9,4.4s-3.8,1.8-6.3,1.8c-3.3,0-6-1.2-8.1-3.5c-2.1-2.3-3.2-5.5-3.2-9.4
		c0-3.9,1-7,3.1-9.4c2.1-2.3,4.7-3.5,8-3.5c3.2,0,5.9,1.1,7.9,3.4c2,2.3,3,5.4,3,9.4v1.1h-18.3c0,2.3,0.7,4.3,2,5.9
		c1.3,1.6,3.1,2.4,5.5,2.4c0.9,0,1.8-0.1,2.6-0.4c0.8-0.3,1.4-0.5,1.8-0.8c0.4-0.3,0.9-0.7,1.4-1.3c0.5-0.6,0.8-1,0.9-1.2
		C183.6,139,183.8,138.7,184.1,138.1z M169.5,131.5H184c-0.1-2.1-0.7-3.8-1.8-5.3c-1.2-1.5-3-2.3-5.4-2.3c-2.4,0-4.2,0.8-5.4,2.4
		S169.5,129.7,169.5,131.5z"/>
	<path d="M193.9,145.6v-24.4h3.7v2.3h0.1c0.7-0.9,1.6-1.6,2.9-2.2c1.3-0.6,2.6-0.9,4-0.9c2.6,0,4.8,0.8,6.4,2.4
		c1.6,1.6,2.4,3.8,2.4,6.6v16h-3.7v-14.8c0-4.5-1.9-6.8-5.6-6.8c-1.9,0-3.4,0.5-4.6,1.6c-1.2,1.1-1.7,2.6-1.7,4.5v15.5H193.9z"/>
	<path d="M230.6,137.3l3.5-0.7c0.5,4.3,2.7,6.4,6.8,6.4c1.9,0,3.4-0.4,4.3-1.1c1-0.7,1.4-1.6,1.4-2.8c0-1.2-0.5-2.1-1.4-2.8
		c-0.9-0.6-2.8-1.3-5.7-2.1c-3-0.8-5.1-1.8-6.3-2.8c-1.2-1-1.8-2.5-1.8-4.2c0-1.8,0.8-3.4,2.3-4.7c1.5-1.3,3.6-2,6.2-2
		c2.7,0,4.8,0.6,6.3,1.9c1.6,1.3,2.6,3,3.1,5.1l-3.3,0.9c-1-3.1-3-4.6-6.2-4.6c-1.6,0-2.8,0.3-3.7,1c-0.9,0.7-1.3,1.5-1.3,2.4
		c0,1,0.4,1.8,1.2,2.3c0.8,0.5,2.7,1.2,5.7,2c3.2,0.9,5.3,1.9,6.5,3.1c1.2,1.1,1.8,2.7,1.8,4.7c0,1.9-0.8,3.6-2.3,5
		c-1.5,1.4-3.9,2.1-7,2.1c-3.2,0-5.7-0.8-7.4-2.5C231.8,142.1,230.8,139.9,230.6,137.3z"/>
	<path d="M257.1,138.5v-13.9h-3.4v-3.4h3.5v-6h3.6v6h6v3.4h-6V138c0,1.4,0.2,2.5,0.6,3c0.4,0.6,1.2,0.9,2.4,0.9h1.8v3.6h-2
		c-2.3,0-4-0.6-5-1.8C257.6,142.6,257.1,140.9,257.1,138.5z"/>
	<path d="M272.5,137.1v-15.9h3.8v15.3c0,2.3,0.4,3.9,1.3,4.8c0.9,1,2.3,1.4,4.3,1.4c1.8,0,3.3-0.6,4.2-1.7c1-1.1,1.5-2.7,1.5-4.7
		v-15.1h3.7v24.4h-3.7v-2.3h-0.1c-0.2,0.2-0.4,0.5-0.7,0.8c-0.3,0.3-1,0.8-2.1,1.4c-1.1,0.6-2.3,0.9-3.7,0.9c-2.7,0-4.8-0.8-6.3-2.3
		C273.3,142.4,272.5,140.1,272.5,137.1z"/>
	<path d="M299.2,145.6v-24.4h3.7v2.3h0.1c0.7-0.9,1.6-1.6,2.9-2.2c1.3-0.6,2.6-0.9,4-0.9c2.6,0,4.8,0.8,6.4,2.4
		c1.6,1.6,2.4,3.8,2.4,6.6v16h-3.7v-14.8c0-4.5-1.9-6.8-5.6-6.8c-1.9,0-3.4,0.5-4.6,1.6c-1.2,1.1-1.7,2.6-1.7,4.5v15.5H299.2z"/>
	<path d="M342.4,145.6v-2.3h-0.1c-0.6,0.8-1.6,1.5-2.8,2.1c-1.2,0.6-2.7,0.9-4.3,0.9c-3.2,0-5.8-1.2-7.7-3.5
		c-1.9-2.3-2.9-5.5-2.9-9.4c0-3.9,1-7,3-9.4c2-2.3,4.5-3.5,7.6-3.5c2.8,0,5,1,6.8,3h0.1V112h3.8v33.6H342.4z M342,137.5v-7.5
		c0-1.5-0.6-2.9-1.7-4.2c-1.1-1.2-2.7-1.9-4.6-1.9c-2.4,0-4.3,0.8-5.5,2.5c-1.3,1.7-1.9,4-1.9,7c0,3,0.6,5.3,1.9,7
		c1.3,1.7,3.1,2.5,5.5,2.5c1.8,0,3.3-0.5,4.5-1.6C341.4,140.2,342,138.9,342,137.5z"/>
	<path d="M367.8,145.6v-2.7h-0.1c-0.5,0.8-1.3,1.6-2.6,2.3s-2.9,1.1-4.8,1.1c-2.7,0-4.7-0.7-6.1-2c-1.4-1.3-2.1-3-2.1-5
		c0-2,0.6-3.6,1.9-4.8s3.3-2.1,6.3-2.9c1.1-0.3,1.9-0.5,2.5-0.6c0.5-0.2,1.2-0.4,1.9-0.6c0.7-0.3,1.2-0.5,1.5-0.8
		c0.3-0.2,0.6-0.6,0.8-0.9c0.2-0.4,0.3-0.8,0.3-1.2c0-1-0.4-1.9-1.3-2.6c-0.8-0.7-2.1-1-3.8-1c-3.3,0-5.2,1.6-5.9,4.8l-3.4-1
		c0.4-2.1,1.4-3.9,3-5.2c1.6-1.3,3.7-2,6.2-2c2.8,0,5.1,0.7,6.7,2.1c1.6,1.4,2.5,3.6,2.5,6.6v16.4H367.8z M361.1,134.6
		c-2.1,0.6-3.5,1.2-4.3,1.9c-0.8,0.7-1.1,1.5-1.1,2.6c0,2.5,1.6,3.8,4.8,3.8c2.2,0,3.9-0.5,5.1-1.5c1.2-1,1.8-2.2,1.8-3.7v-6.1h-0.1
		C366.9,132.6,364.8,133.5,361.1,134.6z"/>
	<path d="M378.4,145.6v-24.4h3.7v2.3h0.1c0.7-0.9,1.6-1.6,2.9-2.2c1.3-0.6,2.6-0.9,4-0.9c2.6,0,4.8,0.8,6.4,2.4
		c1.6,1.6,2.4,3.8,2.4,6.6v16h-3.7v-14.8c0-4.5-1.9-6.8-5.6-6.8c-1.9,0-3.4,0.5-4.6,1.6c-1.2,1.1-1.7,2.6-1.7,4.5v15.5H378.4z"/>
	<path d="M421.6,145.6v-2.3h-0.1c-0.6,0.8-1.6,1.5-2.8,2.1c-1.2,0.6-2.7,0.9-4.3,0.9c-3.2,0-5.8-1.2-7.7-3.5
		c-1.9-2.3-2.9-5.5-2.9-9.4c0-3.9,1-7,3-9.4c2-2.3,4.5-3.5,7.6-3.5c2.8,0,5,1,6.8,3h0.1V112h3.8v33.6H421.6z M421.3,137.5v-7.5
		c0-1.5-0.6-2.9-1.7-4.2c-1.1-1.2-2.7-1.9-4.6-1.9c-2.4,0-4.3,0.8-5.5,2.5c-1.3,1.7-1.9,4-1.9,7c0,3,0.6,5.3,1.9,7
		c1.3,1.7,3.1,2.5,5.5,2.5c1.8,0,3.3-0.5,4.5-1.6C420.7,140.2,421.3,138.9,421.3,137.5z"/>
	<path d="M449.7,138.1l3,2c-0.9,1.8-2.2,3.3-3.9,4.4c-1.7,1.2-3.8,1.8-6.3,1.8c-3.3,0-6-1.2-8.1-3.5c-2.1-2.3-3.2-5.5-3.2-9.4
		c0-3.9,1-7,3.1-9.4c2.1-2.3,4.7-3.5,8-3.5c3.3,0,5.9,1.1,7.9,3.4c2,2.3,3,5.4,3,9.4v1.1H435c0,2.3,0.7,4.3,2,5.9
		c1.3,1.6,3.1,2.4,5.5,2.4c0.9,0,1.8-0.1,2.6-0.4c0.8-0.3,1.4-0.5,1.8-0.8c0.4-0.3,0.9-0.7,1.4-1.3c0.5-0.6,0.8-1,0.9-1.2
		S449.4,138.7,449.7,138.1z M435.1,131.5h14.5c-0.1-2.1-0.7-3.8-1.8-5.3c-1.2-1.5-3-2.3-5.4-2.3c-2.4,0-4.2,0.8-5.4,2.4
		S435.1,129.7,435.1,131.5z"/>
	<path d="M29.4,187.3l3.5-0.7c0.5,4.3,2.7,6.4,6.8,6.4c1.9,0,3.4-0.4,4.3-1.1c1-0.7,1.4-1.6,1.4-2.8c0-1.2-0.5-2.1-1.4-2.8
		c-0.9-0.6-2.8-1.3-5.7-2.1c-3-0.8-5.1-1.8-6.3-2.8c-1.2-1-1.8-2.5-1.8-4.2c0-1.8,0.8-3.4,2.3-4.7c1.5-1.3,3.6-2,6.2-2
		c2.7,0,4.8,0.6,6.3,1.9c1.6,1.3,2.6,3,3.1,5.1l-3.3,0.9c-1-3.1-3-4.6-6.2-4.6c-1.6,0-2.8,0.3-3.7,1c-0.9,0.7-1.3,1.5-1.3,2.4
		c0,1,0.4,1.8,1.2,2.3c0.8,0.5,2.7,1.2,5.7,2c3.2,0.9,5.3,1.9,6.5,3.1c1.2,1.2,1.8,2.7,1.8,4.7c0,1.9-0.8,3.6-2.3,5
		c-1.5,1.4-3.9,2.1-7,2.1c-3.2,0-5.7-0.8-7.4-2.5C30.7,192.1,29.7,189.9,29.4,187.3z"/>
	<path d="M69.2,195.6v-2.7h-0.1c-0.5,0.8-1.3,1.6-2.6,2.3c-1.3,0.7-2.9,1.1-4.8,1.1c-2.7,0-4.7-0.7-6.1-2c-1.4-1.3-2.1-3-2.1-5
		c0-2,0.6-3.6,1.9-4.8c1.2-1.2,3.4-2.1,6.3-2.9c1.1-0.3,1.9-0.5,2.5-0.6c0.5-0.2,1.2-0.4,1.9-0.6c0.7-0.3,1.2-0.5,1.5-0.8
		c0.3-0.2,0.6-0.6,0.8-0.9c0.2-0.4,0.3-0.8,0.3-1.2c0-1-0.4-1.9-1.3-2.6c-0.8-0.7-2.1-1-3.8-1c-3.3,0-5.2,1.6-5.9,4.8l-3.4-1
		c0.4-2.1,1.4-3.9,3-5.2c1.6-1.3,3.7-2,6.2-2c2.8,0,5.1,0.7,6.7,2.1c1.6,1.4,2.5,3.6,2.5,6.6v16.4H69.2z M62.5,184.6
		c-2.1,0.6-3.5,1.2-4.3,1.9c-0.8,0.7-1.1,1.5-1.1,2.6c0,2.5,1.6,3.8,4.8,3.8c2.2,0,3.9-0.5,5.1-1.5c1.2-1,1.8-2.2,1.8-3.7v-6.1h-0.1
		C68.3,182.6,66.2,183.5,62.5,184.6z M57.3,167.5v-4.2h4.2v4.2H57.3z M66.2,167.5v-4.2h4.2v4.2H66.2z"/>
	<path d="M78,187.3l3.5-0.7c0.5,4.3,2.7,6.4,6.8,6.4c1.9,0,3.4-0.4,4.3-1.1c1-0.7,1.4-1.6,1.4-2.8c0-1.2-0.5-2.1-1.4-2.8
		c-0.9-0.6-2.8-1.3-5.7-2.1c-3-0.8-5.1-1.8-6.3-2.8c-1.2-1-1.8-2.5-1.8-4.2c0-1.8,0.8-3.4,2.3-4.7c1.5-1.3,3.6-2,6.2-2
		c2.7,0,4.8,0.6,6.3,1.9c1.6,1.3,2.6,3,3.1,5.1l-3.3,0.9c-1-3.1-3-4.6-6.2-4.6c-1.6,0-2.8,0.3-3.7,1c-0.9,0.7-1.3,1.5-1.3,2.4
		c0,1,0.4,1.8,1.2,2.3c0.8,0.5,2.7,1.2,5.7,2c3.2,0.9,5.3,1.9,6.5,3.1c1.2,1.2,1.8,2.7,1.8,4.7c0,1.9-0.8,3.6-2.3,5
		c-1.5,1.4-3.9,2.1-7,2.1c-3.2,0-5.7-0.8-7.4-2.5C79.3,192.1,78.3,189.9,78,187.3z"/>
	<path d="M113.1,196.3c-3.2,0-5.9-1.1-8-3.4c-2.1-2.3-3.1-5.4-3.1-9.5c0-4,1.1-7.1,3.2-9.4c2.1-2.3,4.8-3.4,7.9-3.4
		c3.1,0,5.6,1.1,7.8,3.4c2.1,2.3,3.2,5.4,3.2,9.4c0,4-1,7.2-3.1,9.5C118.9,195.1,116.3,196.3,113.1,196.3z M113.1,192.9
		c2.1,0,3.8-0.8,5.1-2.5c1.4-1.7,2-4,2-7c0-3-0.7-5.3-2-7c-1.4-1.7-3.1-2.5-5.2-2.5c-2.1,0-3.9,0.8-5.3,2.5c-1.4,1.6-2.1,4-2.1,7
		c0,3,0.7,5.4,2.1,7C109.2,192,111,192.9,113.1,192.9z"/>
	<path d="M130.2,195.6v-24.4h3.7v2.3h0.1c0.7-0.9,1.6-1.6,2.9-2.2c1.3-0.6,2.6-0.9,4-0.9c2.6,0,4.8,0.8,6.4,2.4
		c1.6,1.6,2.4,3.8,2.4,6.6v16h-3.7v-14.8c0-4.5-1.9-6.8-5.6-6.8c-1.9,0-3.4,0.5-4.6,1.6c-1.2,1.1-1.7,2.6-1.7,4.5v15.5H130.2z"/>
	<path d="M157.5,200l3.2-1.6c0.6,1.5,1.3,2.7,2.3,3.6c1,0.9,2.3,1.3,4.1,1.3c2,0,3.5-0.6,4.6-1.7c1.1-1.2,1.6-2.8,1.6-4.8v-3.3h-0.1
		c-1.6,1.9-3.8,2.8-6.8,2.8c-3.2,0-5.8-1.2-7.8-3.5c-2-2.3-2.9-5.5-2.9-9.4c0-3.9,1-7,3.1-9.4c2-2.3,4.6-3.5,7.6-3.5
		c2.9,0,5.2,1,6.9,3h0.1v-2.3h3.7v24.7c0,3.5-0.9,6.1-2.6,7.9c-1.7,1.8-4.1,2.7-7.2,2.7c-2.5,0-4.5-0.6-6.2-1.8S158.1,202,157.5,200
		z M173.2,187.6v-7.7c0-1.5-0.6-2.9-1.7-4.1c-1.1-1.2-2.7-1.8-4.6-1.8c-2.4,0-4.2,0.8-5.5,2.5c-1.3,1.7-2,4-2,7c0,3,0.6,5.3,1.9,7
		c1.3,1.7,3.1,2.5,5.6,2.5c1.8,0,3.3-0.5,4.5-1.6C172.6,190.2,173.2,189,173.2,187.6z"/>
	<path d="M201.4,188.1l3,2c-0.9,1.8-2.2,3.3-3.9,4.4c-1.7,1.2-3.8,1.8-6.3,1.8c-3.3,0-6-1.2-8.1-3.5c-2.1-2.3-3.2-5.5-3.2-9.4
		c0-3.9,1-7,3.1-9.4c2.1-2.3,4.7-3.5,8-3.5c3.2,0,5.9,1.1,7.9,3.4c2,2.3,3,5.4,3,9.4v1.1h-18.3c0,2.3,0.7,4.3,2,5.9
		c1.3,1.6,3.1,2.4,5.5,2.4c0.9,0,1.8-0.1,2.6-0.4c0.8-0.3,1.4-0.5,1.8-0.8c0.4-0.3,0.9-0.7,1.4-1.3c0.5-0.6,0.8-1,0.9-1.2
		C200.9,189,201.1,188.7,201.4,188.1z M186.8,181.5h14.5c-0.1-2.1-0.7-3.8-1.8-5.3c-1.2-1.5-3-2.3-5.4-2.3c-2.4,0-4.2,0.8-5.4,2.4
		S186.8,179.7,186.8,181.5z"/>
	<path d="M211.2,195.6v-24.4h3.7v2.3h0.1c0.7-0.9,1.6-1.6,2.9-2.2c1.3-0.6,2.6-0.9,4-0.9c2.6,0,4.8,0.8,6.4,2.4
		c1.6,1.6,2.4,3.8,2.4,6.6v16h-3.7v-14.8c0-4.5-1.9-6.8-5.6-6.8c-1.9,0-3.4,0.5-4.6,1.6c-1.2,1.1-1.7,2.6-1.7,4.5v15.5H211.2z"/>
	<path d="M249.7,195.6v-24.4h3.4v2.3h0.1c0.6-0.9,1.4-1.6,2.6-2.2c1.1-0.6,2.3-0.9,3.6-0.9c1.5,0,2.8,0.3,3.9,1
		c1.1,0.7,1.9,1.5,2.5,2.6h0.1c0.6-1,1.5-1.8,2.7-2.5c1.2-0.7,2.6-1.1,4.2-1.1c2.6,0,4.6,0.8,6.1,2.3s2.3,3.6,2.3,6.2v16.6h-3.6
		v-15.5c0-4.1-1.7-6.2-5-6.2c-1.7,0-3,0.5-3.9,1.5c-0.9,1-1.4,2.5-1.4,4.3v15.8h-3.6v-15.5c0-4.1-1.7-6.2-5-6.2
		c-1.8,0-3.1,0.5-4,1.6c-0.9,1.1-1.3,2.5-1.3,4.2v15.8H249.7z"/>
	<path d="M305.7,188.1l3,2c-0.9,1.8-2.2,3.3-3.9,4.4c-1.7,1.2-3.8,1.8-6.3,1.8c-3.3,0-6-1.2-8.1-3.5c-2.1-2.3-3.2-5.5-3.2-9.4
		c0-3.9,1-7,3.1-9.4c2.1-2.3,4.7-3.5,8-3.5c3.2,0,5.9,1.1,7.9,3.4c2,2.3,3,5.4,3,9.4v1.1H291c0,2.3,0.7,4.3,2,5.9
		c1.3,1.6,3.1,2.4,5.5,2.4c0.9,0,1.8-0.1,2.6-0.4c0.8-0.3,1.4-0.5,1.8-0.8c0.4-0.3,0.9-0.7,1.4-1.3c0.5-0.6,0.8-1,0.9-1.2
		C305.2,189,305.4,188.7,305.7,188.1z M291,181.5h14.5c-0.1-2.1-0.7-3.8-1.8-5.3c-1.2-1.5-3-2.3-5.4-2.3c-2.4,0-4.2,0.8-5.4,2.4
		S291.1,179.7,291,181.5z"/>
	<path d="M331.7,195.6v-2.3h-0.1c-0.6,0.8-1.6,1.5-2.8,2.1c-1.2,0.6-2.7,0.9-4.3,0.9c-3.2,0-5.8-1.2-7.7-3.5
		c-1.9-2.3-2.9-5.5-2.9-9.4c0-3.9,1-7,3-9.4c2-2.3,4.5-3.5,7.6-3.5c2.8,0,5,1,6.8,3h0.1V162h3.8v33.6H331.7z M331.3,187.5v-7.5
		c0-1.5-0.6-2.9-1.7-4.2c-1.1-1.2-2.7-1.9-4.6-1.9c-2.4,0-4.3,0.8-5.5,2.5c-1.3,1.7-1.9,4-1.9,7c0,3,0.6,5.3,1.9,7
		c1.3,1.7,3.1,2.5,5.5,2.5c1.8,0,3.3-0.5,4.5-1.6C330.7,190.2,331.3,188.9,331.3,187.5z"/>
	<path d="M355.3,188.5v-13.9h-3.4v-3.4h3.5v-6h3.6v6h6v3.4h-6V188c0,1.4,0.2,2.5,0.6,3c0.4,0.6,1.2,0.9,2.4,0.9h1.8v3.6h-2
		c-2.3,0-4-0.6-5-1.8C355.8,192.6,355.3,190.9,355.3,188.5z"/>
	<path d="M384.7,195.6v-2.7h-0.1c-0.5,0.8-1.3,1.6-2.6,2.3c-1.3,0.7-2.9,1.1-4.8,1.1c-2.7,0-4.7-0.7-6.1-2s-2.1-3-2.1-5
		c0-2,0.6-3.6,1.9-4.8c1.2-1.2,3.3-2.1,6.3-2.9c1.1-0.3,1.9-0.5,2.5-0.6c0.5-0.2,1.2-0.4,1.9-0.6c0.7-0.3,1.2-0.5,1.5-0.8
		c0.3-0.2,0.6-0.6,0.8-0.9c0.2-0.4,0.3-0.8,0.3-1.2c0-1-0.4-1.9-1.3-2.6c-0.8-0.7-2.1-1-3.8-1c-3.3,0-5.2,1.6-5.9,4.8l-3.4-1
		c0.4-2.1,1.4-3.9,3-5.2c1.6-1.3,3.7-2,6.2-2c2.8,0,5.1,0.7,6.7,2.1c1.6,1.4,2.5,3.6,2.5,6.6v16.4H384.7z M377.9,184.6
		c-2.1,0.6-3.5,1.2-4.3,1.9c-0.8,0.7-1.1,1.5-1.1,2.6c0,2.5,1.6,3.8,4.8,3.8c2.2,0,3.9-0.5,5.1-1.5c1.2-1,1.8-2.2,1.8-3.7v-6.1h-0.1
		C383.8,182.6,381.7,183.5,377.9,184.6z"/>
	<path d="M395.3,195.6v-24.4h3.7v2.3h0.1c0.7-0.9,1.6-1.6,2.9-2.2c1.3-0.6,2.6-0.9,4-0.9c2.6,0,4.8,0.8,6.4,2.4
		c1.6,1.6,2.4,3.8,2.4,6.6v16H411v-14.8c0-4.5-1.9-6.8-5.6-6.8c-1.9,0-3.4,0.5-4.6,1.6c-1.2,1.1-1.7,2.6-1.7,4.5v15.5H395.3z"/>
	<path d="M422.3,195.6V162h3.8v20.4h0.1l10.3-11.2h5l-8.9,9.7l10,14.7h-4.4l-8.4-12.4h-0.1l-3.6,3.9v8.5H422.3z"/>
	<path d="M463.1,188.1l3,2c-0.9,1.8-2.2,3.3-3.9,4.4c-1.7,1.2-3.8,1.8-6.3,1.8c-3.3,0-6-1.2-8.1-3.5c-2.1-2.3-3.2-5.5-3.2-9.4
		c0-3.9,1-7,3.1-9.4c2.1-2.3,4.7-3.5,8-3.5c3.3,0,5.9,1.1,7.9,3.4c2,2.3,3,5.4,3,9.4v1.1h-18.3c0,2.3,0.7,4.3,2,5.9
		c1.3,1.6,3.1,2.4,5.5,2.4c0.9,0,1.8-0.1,2.6-0.4c0.8-0.3,1.4-0.5,1.8-0.8c0.4-0.3,0.9-0.7,1.4-1.3c0.5-0.6,0.8-1,0.9-1.2
		C462.6,189,462.8,188.7,463.1,188.1z M448.5,181.5H463c-0.1-2.1-0.7-3.8-1.8-5.3c-1.2-1.5-3-2.3-5.4-2.3c-2.4,0-4.2,0.8-5.4,2.4
		S448.5,179.7,448.5,181.5z"/>
	<path d="M484.4,205.9v-34.7h3.6v2.3h0.1c0.6-0.8,1.5-1.5,2.8-2.1c1.2-0.6,2.6-0.9,4.2-0.9c3,0,5.6,1.2,7.6,3.5c2,2.3,3,5.5,3,9.4
		c0,3.9-1,7.1-2.9,9.4c-2,2.3-4.5,3.5-7.7,3.5c-1.5,0-2.9-0.3-4.1-1c-1.3-0.6-2.1-1.3-2.7-2.1h-0.1v12.7H484.4z M488.2,179.8v7.7
		c0,1.4,0.6,2.6,1.8,3.7c1.2,1.1,2.7,1.6,4.5,1.6c2.4,0,4.3-0.8,5.6-2.5c1.3-1.7,2-4,2-7c0-3-0.7-5.3-2-7c-1.3-1.7-3.2-2.5-5.6-2.5
		c-1.9,0-3.4,0.6-4.5,1.8C488.8,177,488.2,178.3,488.2,179.8z"/>
	<path d="M526.1,195.6v-2.7H526c-0.5,0.8-1.3,1.6-2.6,2.3c-1.3,0.7-2.9,1.1-4.8,1.1c-2.7,0-4.7-0.7-6.1-2c-1.4-1.3-2.1-3-2.1-5
		c0-2,0.6-3.6,1.9-4.8c1.2-1.2,3.3-2.1,6.3-2.9c1.1-0.3,1.9-0.5,2.5-0.6c0.5-0.2,1.2-0.4,1.9-0.6c0.7-0.3,1.2-0.5,1.5-0.8
		c0.3-0.2,0.6-0.6,0.8-0.9c0.2-0.4,0.3-0.8,0.3-1.2c0-1-0.4-1.9-1.3-2.6c-0.8-0.7-2.1-1-3.8-1c-3.3,0-5.2,1.6-5.9,4.8l-3.4-1
		c0.3-1.8,1.1-3.3,2.3-4.6c1.2-1.3,2.7-2.1,4.6-2.4c-1.3-0.9-1.9-2.2-1.9-3.9c0-1.3,0.4-2.4,1.3-3.3c0.9-0.9,1.9-1.4,3.2-1.4
		c1.3,0,2.4,0.5,3.2,1.4c0.8,0.9,1.3,2,1.3,3.3c0,1.8-0.6,3.1-1.9,4c4.2,0.9,6.3,3.6,6.3,8.4v16.4H526.1z M519.4,184.6
		c-2.1,0.6-3.5,1.2-4.3,1.9c-0.8,0.7-1.1,1.5-1.1,2.6c0,2.5,1.6,3.8,4.8,3.8c2.2,0,3.9-0.5,5.1-1.5c1.2-1,1.8-2.2,1.8-3.7v-6.1h-0.1
		C525.2,182.6,523.1,183.5,519.4,184.6z M520.5,169.5c0.6,0,1.1-0.2,1.6-0.7c0.4-0.5,0.6-1.1,0.6-2c0-0.8-0.2-1.5-0.6-1.9
		c-0.4-0.4-1-0.7-1.6-0.7s-1.1,0.2-1.5,0.6c-0.4,0.4-0.6,1.1-0.6,1.9c0,0.9,0.2,1.5,0.6,2C519.5,169.3,520,169.5,520.5,169.5z"/>
	<path d="M564.5,195.6v-2.3h-0.1c-0.6,0.8-1.6,1.5-2.8,2.1c-1.2,0.6-2.7,0.9-4.3,0.9c-3.2,0-5.8-1.2-7.7-3.5
		c-1.9-2.3-2.9-5.5-2.9-9.4c0-3.9,1-7,3-9.4c2-2.3,4.5-3.5,7.6-3.5c2.8,0,5,1,6.8,3h0.1V162h3.8v33.6H564.5z M564.1,187.5v-7.5
		c0-1.5-0.6-2.9-1.7-4.2c-1.1-1.2-2.7-1.9-4.6-1.9c-2.4,0-4.3,0.8-5.5,2.5c-1.3,1.7-1.9,4-1.9,7c0,3,0.6,5.3,1.9,7
		c1.3,1.7,3.1,2.5,5.5,2.5c1.8,0,3.3-0.5,4.5-1.6C563.5,190.2,564.1,188.9,564.1,187.5z"/>
	<path d="M592.6,188.1l3,2c-0.9,1.8-2.2,3.3-3.9,4.4c-1.7,1.2-3.8,1.8-6.3,1.8c-3.3,0-6-1.2-8.1-3.5c-2.1-2.3-3.2-5.5-3.2-9.4
		c0-3.9,1-7,3.1-9.4c2.1-2.3,4.7-3.5,8-3.5c3.3,0,5.9,1.1,7.9,3.4c2,2.3,3,5.4,3,9.4v1.1h-18.3c0,2.3,0.7,4.3,2,5.9
		c1.3,1.6,3.1,2.4,5.5,2.4c0.9,0,1.8-0.1,2.6-0.4c0.8-0.3,1.4-0.5,1.8-0.8c0.4-0.3,0.9-0.7,1.4-1.3c0.5-0.6,0.8-1,0.9-1.2
		C592.1,189,592.3,188.7,592.6,188.1z M577.9,181.5h14.5c-0.1-2.1-0.7-3.8-1.8-5.3c-1.2-1.5-3-2.3-5.4-2.3c-2.4,0-4.2,0.8-5.4,2.4
		S578,179.7,577.9,181.5z"/>
	<path d="M602.4,195.6v-24.4h3.7v2.3h0.1c0.7-0.9,1.6-1.6,2.9-2.2c1.3-0.6,2.6-0.9,4-0.9c2.6,0,4.8,0.8,6.4,2.4
		c1.6,1.6,2.4,3.8,2.4,6.6v16h-3.7v-14.8c0-4.5-1.9-6.8-5.6-6.8c-1.9,0-3.4,0.5-4.6,1.6c-1.2,1.1-1.7,2.6-1.7,4.5v15.5H602.4z"/>
	<path d="M29.4,237.3l3.5-0.7c0.5,4.3,2.7,6.4,6.8,6.4c1.9,0,3.4-0.4,4.3-1.1c1-0.7,1.4-1.6,1.4-2.8c0-1.2-0.5-2.1-1.4-2.8
		c-0.9-0.6-2.8-1.3-5.7-2.1c-3-0.8-5.1-1.8-6.3-2.8c-1.2-1-1.8-2.5-1.8-4.2c0-1.8,0.8-3.4,2.3-4.7c1.5-1.3,3.6-2,6.2-2
		c2.7,0,4.8,0.6,6.3,1.9c1.6,1.3,2.6,3,3.1,5.1l-3.3,0.9c-1-3.1-3-4.6-6.2-4.6c-1.6,0-2.8,0.3-3.7,1c-0.9,0.7-1.3,1.5-1.3,2.4
		c0,1,0.4,1.8,1.2,2.3c0.8,0.5,2.7,1.2,5.7,2c3.2,0.9,5.3,1.9,6.5,3.1c1.2,1.2,1.8,2.7,1.8,4.7c0,1.9-0.8,3.6-2.3,5
		c-1.5,1.4-3.9,2.1-7,2.1c-3.2,0-5.7-0.8-7.4-2.5C30.7,242.1,29.7,239.9,29.4,237.3z"/>
	<path d="M55.9,238.5v-13.9h-3.4v-3.4H56v-6h3.6v6h6v3.4h-6V238c0,1.4,0.2,2.5,0.6,3c0.4,0.6,1.2,0.9,2.4,0.9h1.8v3.6h-2
		c-2.3,0-4-0.6-5-1.8C56.4,242.6,55.9,240.9,55.9,238.5z"/>
	<path d="M85.3,245.6v-2.7h-0.1c-0.5,0.8-1.3,1.6-2.6,2.3c-1.3,0.7-2.9,1.1-4.8,1.1c-2.7,0-4.7-0.7-6.1-2c-1.4-1.3-2.1-3-2.1-5
		c0-2,0.6-3.6,1.9-4.8c1.2-1.2,3.4-2.1,6.3-2.9c1.1-0.3,1.9-0.5,2.5-0.6c0.5-0.2,1.2-0.4,1.9-0.6c0.7-0.3,1.2-0.5,1.5-0.8
		c0.3-0.2,0.6-0.6,0.8-0.9c0.2-0.4,0.3-0.8,0.3-1.2c0-1-0.4-1.9-1.3-2.6c-0.8-0.7-2.1-1-3.8-1c-3.3,0-5.2,1.6-5.9,4.8l-3.4-1
		c0.4-2.1,1.4-3.9,3-5.2c1.6-1.3,3.7-2,6.2-2c2.8,0,5.1,0.7,6.7,2.1c1.6,1.4,2.5,3.6,2.5,6.6v16.4H85.3z M78.6,234.6
		c-2.1,0.6-3.5,1.2-4.3,1.9c-0.8,0.7-1.1,1.5-1.1,2.6c0,2.5,1.6,3.8,4.8,3.8c2.2,0,3.9-0.5,5.1-1.5c1.2-1,1.8-2.2,1.8-3.7v-6.1h-0.1
		C84.4,232.6,82.3,233.5,78.6,234.6z"/>
	<path d="M96,245.6v-24.4h3.6v2.6h0.1c0.5-1,1.2-1.7,2.2-2.3c1-0.5,1.9-0.8,2.9-0.8c0.4,0,0.7,0,1.1,0.1c0.4,0.1,0.6,0.1,0.8,0.2
		l0.2,0.1l-0.7,3.7c-0.5-0.2-1.1-0.4-1.9-0.4c-1.6,0-2.7,0.5-3.4,1.5c-0.7,1-1.1,2.7-1.1,4.9v14.5H96z"/>
	<path d="M112.1,245.6V212h3.8v20.4h0.1l10.3-11.2h5l-8.9,9.7l10,14.7H128l-8.4-12.4h-0.1l-3.6,3.9v8.5H112.1z"/>
	<path d="M151.1,245.6v-2.7H151c-0.5,0.8-1.3,1.6-2.6,2.3c-1.3,0.7-2.9,1.1-4.8,1.1c-2.7,0-4.7-0.7-6.1-2c-1.4-1.3-2.1-3-2.1-5
		c0-2,0.6-3.6,1.9-4.8c1.2-1.2,3.4-2.1,6.3-2.9c1.1-0.3,1.9-0.5,2.5-0.6c0.5-0.2,1.2-0.4,1.9-0.6c0.7-0.3,1.2-0.5,1.5-0.8
		c0.3-0.2,0.6-0.6,0.8-0.9c0.2-0.4,0.3-0.8,0.3-1.2c0-1-0.4-1.9-1.3-2.6c-0.8-0.7-2.1-1-3.8-1c-3.3,0-5.2,1.6-5.9,4.8l-3.4-1
		c0.4-2.1,1.4-3.9,3-5.2c1.6-1.3,3.7-2,6.2-2c2.8,0,5.1,0.7,6.7,2.1c1.6,1.4,2.5,3.6,2.5,6.6v16.4H151.1z M144.4,234.6
		c-2.1,0.6-3.5,1.2-4.3,1.9c-0.8,0.7-1.1,1.5-1.1,2.6c0,2.5,1.6,3.8,4.8,3.8c2.2,0,3.9-0.5,5.1-1.5c1.2-1,1.8-2.2,1.8-3.7v-6.1h-0.1
		C150.2,232.6,148.1,233.5,144.4,234.6z"/>
	<path d="M187.5,245.6v-2.7h-0.1c-0.5,0.8-1.3,1.6-2.6,2.3c-1.3,0.7-2.9,1.1-4.8,1.1c-2.7,0-4.7-0.7-6.1-2c-1.4-1.3-2.1-3-2.1-5
		c0-2,0.6-3.6,1.9-4.8c1.2-1.2,3.4-2.1,6.3-2.9c1.1-0.3,1.9-0.5,2.5-0.6c0.5-0.2,1.2-0.4,1.9-0.6c0.7-0.3,1.2-0.5,1.5-0.8
		c0.3-0.2,0.6-0.6,0.8-0.9c0.2-0.4,0.3-0.8,0.3-1.2c0-1-0.4-1.9-1.3-2.6c-0.8-0.7-2.1-1-3.8-1c-3.3,0-5.2,1.6-5.9,4.8l-3.4-1
		c0.4-2.1,1.4-3.9,3-5.2c1.6-1.3,3.7-2,6.2-2c2.8,0,5.1,0.7,6.7,2.1c1.6,1.4,2.5,3.6,2.5,6.6v16.4H187.5z M180.7,234.6
		c-2.1,0.6-3.5,1.2-4.3,1.9c-0.8,0.7-1.1,1.5-1.1,2.6c0,2.5,1.6,3.8,4.8,3.8c2.2,0,3.9-0.5,5.1-1.5c1.2-1,1.8-2.2,1.8-3.7v-6.1H187
		C186.6,232.6,184.5,233.5,180.7,234.6z"/>
	<path d="M203.8,245.6l-9.8-24.4h3.9l7.5,19.1h0.1l7.5-19.1h3.9l-9.8,24.4H203.8z"/>
	<path d="M219.5,237.3l3.5-0.7c0.5,4.3,2.7,6.4,6.8,6.4c1.9,0,3.4-0.4,4.3-1.1c1-0.7,1.4-1.6,1.4-2.8c0-1.2-0.5-2.1-1.4-2.8
		c-0.9-0.6-2.8-1.3-5.7-2.1c-3-0.8-5.1-1.8-6.3-2.8c-1.2-1-1.8-2.5-1.8-4.2c0-1.8,0.8-3.4,2.3-4.7c1.5-1.3,3.6-2,6.2-2
		c2.7,0,4.8,0.6,6.3,1.9c1.6,1.3,2.6,3,3.1,5.1l-3.3,0.9c-1-3.1-3-4.6-6.2-4.6c-1.6,0-2.8,0.3-3.7,1c-0.9,0.7-1.3,1.5-1.3,2.4
		c0,1,0.4,1.8,1.2,2.3c0.8,0.5,2.7,1.2,5.7,2c3.2,0.9,5.3,1.9,6.5,3.1c1.2,1.2,1.8,2.7,1.8,4.7c0,1.9-0.8,3.6-2.3,5
		c-1.5,1.4-3.9,2.1-7,2.1c-3.2,0-5.7-0.8-7.4-2.5C220.7,242.1,219.7,239.9,219.5,237.3z"/>
	<path d="M245.1,245.6V212h3.8v33.6H245.1z"/>
	<path d="M256.5,237.1v-15.9h3.8v15.3c0,2.3,0.4,3.9,1.3,4.8c0.9,1,2.3,1.4,4.3,1.4c1.8,0,3.3-0.6,4.2-1.7s1.5-2.7,1.5-4.7v-15.1
		h3.7v24.4h-3.7v-2.3h-0.1c-0.2,0.2-0.4,0.5-0.7,0.8c-0.3,0.3-1,0.8-2.1,1.4c-1.1,0.6-2.3,0.9-3.7,0.9c-2.7,0-4.8-0.8-6.3-2.3
		C257.3,242.4,256.5,240.1,256.5,237.1z"/>
	<path d="M284.1,238.5v-13.9h-3.4v-3.4h3.5v-6h3.6v6h6v3.4h-6V238c0,1.4,0.2,2.5,0.6,3c0.4,0.6,1.2,0.9,2.4,0.9h1.8v3.6h-2
		c-2.3,0-4-0.6-5-1.8C284.6,242.6,284.1,240.9,284.1,238.5z"/>
	<path d="M299.7,245.6v-24.4h3.7v2.3h0.1c0.7-0.9,1.6-1.6,2.9-2.2c1.3-0.6,2.6-0.9,4-0.9c2.6,0,4.8,0.8,6.4,2.4
		c1.6,1.6,2.4,3.8,2.4,6.6v16h-3.7v-14.8c0-4.5-1.9-6.8-5.6-6.8c-1.9,0-3.4,0.5-4.6,1.6c-1.2,1.1-1.7,2.6-1.7,4.5v15.5H299.7z"/>
	<path d="M326.7,216.3V212h4.3v4.3H326.7z M327,245.6v-24.4h3.8v24.4H327z"/>
	<path d="M338.9,245.6v-24.4h3.7v2.3h0.1c0.7-0.9,1.6-1.6,2.9-2.2c1.3-0.6,2.6-0.9,4-0.9c2.6,0,4.8,0.8,6.4,2.4
		c1.6,1.6,2.4,3.8,2.4,6.6v16h-3.7v-14.8c0-4.5-1.9-6.8-5.6-6.8c-1.9,0-3.4,0.5-4.6,1.6c-1.2,1.1-1.7,2.6-1.7,4.5v15.5H338.9z"/>
	<path d="M366.1,250l3.2-1.6c0.6,1.5,1.3,2.7,2.3,3.6s2.3,1.3,4.1,1.3c2,0,3.5-0.6,4.6-1.7s1.6-2.8,1.6-4.8v-3.3h-0.1
		c-1.6,1.9-3.8,2.8-6.8,2.8c-3.2,0-5.8-1.2-7.8-3.5c-2-2.3-2.9-5.5-2.9-9.4c0-3.9,1-7,3.1-9.4c2-2.3,4.6-3.5,7.6-3.5
		c2.9,0,5.2,1,6.9,3h0.1v-2.3h3.7v24.7c0,3.5-0.9,6.1-2.6,7.9c-1.7,1.8-4.1,2.7-7.2,2.7c-2.5,0-4.5-0.6-6.2-1.8
		C367.9,253.6,366.8,252,366.1,250z M381.8,237.6v-7.7c0-1.5-0.6-2.9-1.7-4.1c-1.2-1.2-2.7-1.8-4.6-1.8c-2.4,0-4.2,0.8-5.5,2.5
		c-1.3,1.7-2,4-2,7c0,3,0.6,5.3,1.9,7c1.3,1.7,3.1,2.5,5.6,2.5c1.8,0,3.3-0.5,4.5-1.6C381.3,240.2,381.8,239,381.8,237.6z"/>
	<path d="M410,238.1l3,2c-0.9,1.8-2.2,3.3-3.9,4.4c-1.7,1.2-3.8,1.8-6.3,1.8c-3.3,0-6-1.2-8.1-3.5c-2.1-2.3-3.2-5.5-3.2-9.4
		c0-3.9,1-7,3.1-9.4c2.1-2.3,4.7-3.5,8-3.5c3.3,0,5.9,1.2,7.9,3.5c2,2.3,3,5.4,3,9.4v1.1h-18.3c0,2.3,0.7,4.3,2,5.9
		c1.3,1.6,3.1,2.4,5.5,2.4c0.9,0,1.8-0.1,2.6-0.4c0.8-0.3,1.4-0.5,1.8-0.8c0.4-0.3,0.9-0.7,1.4-1.3c0.5-0.6,0.8-1,0.9-1.2
		C409.5,239,409.7,238.7,410,238.1z M395.4,231.5h14.5c-0.1-2.1-0.7-3.8-1.8-5.3c-1.2-1.5-3-2.3-5.4-2.3c-2.4,0-4.2,0.8-5.4,2.4
		S395.4,229.7,395.4,231.5z"/>
	<path d="M419.8,245.6v-24.4h3.7v2.3h0.1c0.7-0.9,1.6-1.6,2.9-2.2c1.3-0.6,2.6-0.9,4-0.9c2.6,0,4.8,0.8,6.4,2.4
		c1.6,1.6,2.4,3.8,2.4,6.6v16h-3.7v-14.8c0-4.5-1.9-6.8-5.6-6.8c-1.9,0-3.4,0.5-4.6,1.6c-1.2,1.1-1.7,2.6-1.7,4.5v15.5H419.8z"/>
	<path d="M472.5,245.6v-2.7h-0.1c-0.5,0.8-1.3,1.6-2.6,2.3c-1.3,0.7-2.9,1.1-4.8,1.1c-2.7,0-4.7-0.7-6.1-2s-2.1-3-2.1-5
		c0-2,0.6-3.6,1.9-4.8c1.2-1.2,3.3-2.1,6.3-2.9c1.1-0.3,1.9-0.5,2.5-0.6c0.5-0.2,1.2-0.4,1.9-0.6c0.7-0.3,1.2-0.5,1.5-0.8
		c0.3-0.2,0.6-0.6,0.8-0.9c0.2-0.4,0.3-0.8,0.3-1.2c0-1-0.4-1.9-1.3-2.6c-0.8-0.7-2.1-1-3.8-1c-3.3,0-5.2,1.6-5.9,4.8l-3.4-1
		c0.4-2.1,1.4-3.9,3-5.2c1.6-1.3,3.7-2,6.2-2c2.8,0,5.1,0.7,6.7,2.1s2.5,3.6,2.5,6.6v16.4H472.5z M465.8,234.6
		c-2.1,0.6-3.5,1.2-4.3,1.9c-0.8,0.7-1.1,1.5-1.1,2.6c0,2.5,1.6,3.8,4.8,3.8c2.2,0,3.9-0.5,5.1-1.5c1.2-1,1.8-2.2,1.8-3.7v-6.1h-0.1
		C471.6,232.6,469.5,233.5,465.8,234.6z"/>
	<path d="M488.9,245.6l-9.8-24.4h3.9l7.5,19.1h0.1l7.5-19.1h3.9l-9.8,24.4H488.9z"/>
	<path d="M517.4,245.6v-2.9c0-3,0.6-5.3,1.7-6.9c1-1.6,3.4-3.4,7.2-5.4c1.3-0.7,2.2-1.2,2.6-1.4c0.4-0.2,1.1-0.6,2-1.2
		s1.5-1,1.7-1.3c0.3-0.3,0.6-0.7,1.1-1.2s0.7-1,0.8-1.6c0.1-0.5,0.2-1.1,0.2-1.8c0-1.6-0.5-2.9-1.6-4s-2.7-1.7-4.9-1.7
		c-2.1,0-3.8,0.7-5.1,2c-1.3,1.3-2,3.1-2.1,5.5l-3.7-0.4c0.1-3.3,1.2-5.9,3.2-7.8c2-1.9,4.6-2.8,7.8-2.8c3.2,0,5.7,0.9,7.5,2.7
		c1.8,1.8,2.7,4,2.7,6.6c0,1.4-0.2,2.6-0.6,3.7c-0.4,1.1-1.1,2-2.2,2.9c-1,0.9-1.8,1.5-2.4,1.9c-0.6,0.4-1.6,0.9-3.2,1.8
		c-0.3,0.2-0.5,0.3-0.6,0.4c-0.3,0.2-0.8,0.5-1.5,0.8c-0.7,0.4-1.1,0.6-1.4,0.7c-0.2,0.1-0.6,0.3-1.1,0.6c-0.5,0.3-0.8,0.5-1,0.6
		c-0.2,0.2-0.5,0.4-0.8,0.6c-0.3,0.2-0.6,0.5-0.7,0.7c-0.2,0.2-0.4,0.4-0.5,0.7c-0.6,1-0.9,2.4-0.9,4.3h16.9v3.8H517.4z"/>
	<path d="M555.4,246.3c-3.8,0-6.7-1.5-8.8-4.5c-2.1-3-3.2-7.2-3.2-12.7c0-5.3,1.1-9.3,3.3-12.1c2.2-2.8,5.1-4.2,8.7-4.2
		s6.5,1.4,8.7,4.2c2.2,2.8,3.3,6.9,3.3,12.1c0,5.5-1.1,9.8-3.2,12.7C562.1,244.8,559.1,246.3,555.4,246.3z M549.4,239.2
		c1.4,2.4,3.4,3.6,6,3.6s4.6-1.2,6-3.6c1.4-2.4,2.1-5.8,2.1-10.1c0-4.1-0.7-7.3-2.1-9.5c-1.4-2.2-3.4-3.3-6-3.3
		c-2.6,0-4.6,1.1-6,3.3c-1.4,2.2-2.1,5.4-2.1,9.5C547.3,233.4,548,236.8,549.4,239.2z"/>
	<path d="M579.8,245.6v-27.8l-6.9,4.4V218l7.4-4.6h3.1v32.2H579.8z"/>
	<path d="M615.7,220.9l-3.5,0.9c-1-3.8-3.1-5.7-6.5-5.7c-2.3,0-4.3,1.1-5.9,3.4s-2.5,5.6-2.5,9.9l0,0c0.2-0.4,0.5-0.9,0.9-1.4
		c0.4-0.5,1-1.1,1.7-1.7c0.7-0.6,1.7-1.2,2.8-1.6c1.2-0.4,2.4-0.6,3.8-0.6c3,0,5.6,1,7.7,2.9c2.1,2,3.2,4.6,3.2,7.9
		c0,3.5-1,6.2-3.1,8.3c-2.1,2-4.8,3-8,3c-1.7,0-3.2-0.3-4.7-0.9c-1.5-0.6-2.9-1.5-4.1-2.8c-1.2-1.2-2.2-2.9-2.9-5.1
		s-1.1-4.7-1.1-7.5c0-5.1,1.2-9.2,3.5-12.5c2.4-3.2,5.4-4.8,9-4.8c2.8,0,5.1,0.8,6.7,2.3C614.1,216.6,615.2,218.5,615.7,220.9z
		 M606.1,242.8c2.4,0,4.2-0.7,5.5-2.1c1.3-1.4,2-3.3,2-5.6c0-2.3-0.7-4.1-2-5.5c-1.4-1.4-3.2-2.1-5.5-2.1c-2.2,0-4,0.7-5.5,2.2
		c-1.5,1.4-2.2,3.1-2.2,5c0,2.4,0.7,4.3,2.2,5.9C602,242,603.8,242.8,606.1,242.8z"/>
	<path d="M623.7,245.6v-5.4h5.4v5.4H623.7z"/>
</g>
<line class="st0" x1="11.3" y1="46.3" x2="646.7" y2="46.3"/>
<line class="st0" x1="11.3" y1="62" x2="646.7" y2="62"/>
<line class="st0" x1="11.3" y1="112" x2="646.7" y2="112"/>
<line class="st0" x1="11.3" y1="162" x2="646.7" y2="162"/>
<line class="st0" x1="11.3" y1="213.1" x2="646.7" y2="213.1"/>
<line class="st0" x1="11.3" y1="96.3" x2="646.7" y2="96.3"/>
<line class="st0" x1="11.3" y1="146.3" x2="646.7" y2="146.3"/>
<line class="st0" x1="11.3" y1="196.3" x2="646.7" y2="196.3"/>
</svg>
