<?xml version="1.0" encoding="utf-8"?>
<!-- Generator: Adobe Illustrator 20.1.0, SVG Export Plug-In . SVG Version: 6.00 Build 0)  -->
<svg version="1.1" id="Layer_1" xmlns="http://www.w3.org/2000/svg" xmlns:xlink="http://www.w3.org/1999/xlink" x="0px" y="0px"
	 viewBox="0 0 658.7 78" style="enable-background:new 0 0 658.7 78;" xml:space="preserve">
<g>
	<path d="M5.8,58.7V8.3h10L30.4,41h0.1L45.1,8.3h10.1v50.4h-9.5v-31h-0.1l-14.3,31h-1.6l-14.3-31h-0.1v31H5.8z"/>
	<path d="M89.3,45.5l6.6,5.8c-3.9,5.7-9.1,8.5-15.8,8.5c-5.3,0-9.7-1.8-13-5.5c-3.4-3.7-5-8.6-5-14.7c0-6.1,1.7-11,5-14.7
		c3.3-3.7,7.5-5.5,12.6-5.5c5.1,0,9.3,1.8,12.6,5.5c3.3,3.7,4.9,8.6,4.9,14.7v2.8H71.5c0.1,2.9,0.9,5.2,2.4,6.7
		c1.5,1.6,3.5,2.3,6,2.3c2.2,0,3.9-0.5,5.4-1.6C86.7,48.8,88,47.3,89.3,45.5z M71.5,35.4H88c-0.2-2.4-1.1-4.4-2.5-5.7
		s-3.4-2.1-5.9-2.1c-2.3,0-4.2,0.7-5.7,2.2C72.5,31.4,71.7,33.2,71.5,35.4z"/>
	<path d="M127.7,58.7V55h-0.1c-0.2,0.3-0.6,0.8-1,1.3c-0.5,0.5-1.6,1.2-3.3,2.1c-1.8,0.9-3.7,1.3-5.7,1.3c-5,0-9.1-1.8-12.1-5.5
		c-3-3.6-4.5-8.5-4.5-14.7c0-6.2,1.6-11.1,4.9-14.7c3.3-3.6,7.1-5.4,11.5-5.4c2,0,3.8,0.4,5.4,1.2c1.6,0.8,2.7,1.6,3.3,2.3l0.9,1.2
		h0.1V6.1h9.4v52.6H127.7z M127.1,43v-7c0-2.3-0.7-4.2-2.2-5.8c-1.5-1.6-3.5-2.4-6-2.4c-2.7,0-4.9,1-6.4,3c-1.5,2-2.3,4.9-2.3,8.8
		c0,3.8,0.8,6.8,2.3,8.7c1.5,2,3.6,3,6.4,3c2.5,0,4.5-0.8,6-2.4C126.4,47.3,127.1,45.3,127.1,43z"/>
	<path d="M144.5,58.7V6.1h9.7v52.6H144.5z"/>
	<path d="M187.5,45.5l6.6,5.8c-3.9,5.7-9.1,8.5-15.8,8.5c-5.3,0-9.7-1.8-13-5.5c-3.4-3.7-5-8.6-5-14.7c0-6.1,1.7-11,5-14.7
		c3.3-3.7,7.5-5.5,12.6-5.5c5.1,0,9.3,1.8,12.6,5.5c3.3,3.7,4.9,8.6,4.9,14.7v2.8h-25.6c0.1,2.9,0.9,5.2,2.4,6.7
		c1.5,1.6,3.5,2.3,6,2.3c2.2,0,3.9-0.5,5.4-1.6C184.9,48.8,186.2,47.3,187.5,45.5z M169.7,35.4h16.6c-0.2-2.4-1.1-4.4-2.5-5.7
		s-3.4-2.1-5.9-2.1c-2.3,0-4.2,0.7-5.7,2.2C170.7,31.4,169.9,33.2,169.7,35.4z"/>
	<path d="M201.2,58.7V20.5h8.6v3.7h0.1c0.9-1.3,2.1-2.5,3.8-3.4c1.7-0.9,3.5-1.4,5.4-1.4c2,0,3.9,0.5,5.7,1.4c1.8,0.9,3.1,2.1,4,3.6
		h0.1c1-1.5,2.3-2.7,4.1-3.6c1.8-0.9,3.7-1.4,5.8-1.4c4.6,0,8.2,1.2,10.8,3.6c2.7,2.4,4,5.6,4,9.5v26.1h-8.6V34.5
		c0-1.9-0.5-3.4-1.6-4.6c-1.1-1.2-2.7-1.8-5-1.8c-2.1,0-3.7,0.6-4.9,1.7c-1.1,1.1-1.7,2.5-1.7,4.2v24.7h-8.6V34.5
		c0-1.8-0.6-3.3-1.7-4.6c-1.2-1.2-2.8-1.8-4.9-1.8c-2.2,0-3.8,0.6-4.9,1.7c-1.1,1.1-1.7,2.5-1.7,4.2v24.7H201.2z"/>
	<path d="M258.7,46.1l8.4-2.2c0.7,5.3,3.5,8,8.6,8c2.3,0,4.1-0.4,5.5-1.1c1.4-0.7,2.1-1.8,2.1-3.1c0-1.1-0.5-1.9-1.6-2.5
		c-1.1-0.6-3.3-1.3-6.6-2.3c-0.9-0.2-1.6-0.4-2.1-0.6c-4.4-1.2-7.7-2.7-9.7-4.4c-2.1-1.7-3.1-4-3.1-6.8c0-3.2,1.3-5.9,3.9-8.2
		c2.6-2.3,6.1-3.5,10.5-3.5c8.5,0,13.9,3.7,16.1,11.2l-7.8,2.4c-0.7-1.8-1.6-3.3-2.8-4.3c-1.2-1.1-3-1.6-5.4-1.6
		c-1.8,0-3.3,0.3-4.4,1c-1.1,0.7-1.6,1.5-1.6,2.5c0,1.1,0.6,1.9,1.9,2.5c1.3,0.6,4.5,1.6,9.5,3.1c4.5,1.2,7.5,2.7,9.1,4.6
		c1.6,1.8,2.4,4.2,2.4,7.1c0,3.1-1.3,5.8-4,8.2c-2.7,2.4-6.5,3.6-11.6,3.6c-5.3,0-9.3-1.3-12.2-4C261,53.1,259.2,49.9,258.7,46.1z"
		/>
	<path d="M322.3,45.5l6.6,5.8c-3.9,5.7-9.1,8.5-15.8,8.5c-5.3,0-9.7-1.8-13-5.5c-3.4-3.7-5-8.6-5-14.7c0-6.1,1.7-11,5-14.7
		c3.3-3.7,7.5-5.5,12.6-5.5c5.1,0,9.3,1.8,12.6,5.5s4.9,8.6,4.9,14.7v2.8h-25.6c0.1,2.9,0.9,5.2,2.4,6.7c1.5,1.6,3.5,2.3,6,2.3
		c2.2,0,3.9-0.5,5.4-1.6C319.7,48.8,321,47.3,322.3,45.5z M304.5,35.4H321c-0.2-2.4-1.1-4.4-2.5-5.7c-1.4-1.4-3.4-2.1-5.9-2.1
		c-2.3,0-4.2,0.7-5.7,2.2C305.5,31.4,304.7,33.2,304.5,35.4z"/>
	<path d="M336,58.7V20.5h8.9v4h0.1c0.7-1.4,1.8-2.6,3.2-3.5c1.4-0.9,3-1.3,4.6-1.3c1.2,0,2.4,0.2,3.5,0.7l-1.4,9.1
		c-1.1-0.4-2-0.6-3-0.6c-4.4,0-6.6,2.9-6.6,8.7v21H336z"/>
	<path d="M360.6,58.7V6.1h9.4v18.1h0.1c0.1-0.1,0.2-0.3,0.4-0.5c0.1-0.2,0.5-0.6,1.1-1.1c0.6-0.5,1.2-1,1.9-1.4
		c0.7-0.4,1.6-0.8,2.7-1.2c1.1-0.3,2.3-0.5,3.6-0.5c4.7,0,8.6,1.9,11.7,5.6c3.1,3.7,4.6,8.6,4.6,14.6c0,6.1-1.5,11-4.5,14.7
		c-3,3.6-7,5.5-12.1,5.5c-2.1,0-3.9-0.4-5.6-1.2c-1.7-0.8-2.8-1.6-3.5-2.3l-1-1.2h-0.1v3.7H360.6z M370,36.1v7
		c0,2.3,0.7,4.3,2.2,5.9c1.5,1.6,3.5,2.4,6,2.4c2.7,0,4.9-1,6.4-3c1.5-2,2.3-4.9,2.3-8.7c0-3.9-0.8-6.8-2.3-8.8c-1.5-2-3.6-3-6.4-3
		c-2.5,0-4.5,0.8-6,2.4C370.7,31.8,370,33.8,370,36.1z"/>
	<path d="M397.5,72.7V63h1.7c1.8,0,2.7-1.1,2.7-3.2V20.5h9.4v41.9c0,6.9-3.3,10.3-9.9,10.3H397.5z M402,15V6.1h9.4V15H402z"/>
	<path d="M419.1,45.1V20.5h9.4v23.6c0,2.4,0.5,4.1,1.4,5.1c0.9,1,2.4,1.5,4.4,1.5c2.3,0,4.1-0.6,5.5-1.8c1.4-1.2,2.1-3,2.1-5.6V20.5
		h9.4v38.2h-8.9V55h-0.1c-2.4,3.2-5.7,4.8-9.9,4.8c-4.4,0-7.7-1.3-9.8-4C420.2,53.1,419.1,49.6,419.1,45.1z"/>
	<path d="M483.9,58.7V55h-0.1c-0.2,0.3-0.6,0.8-1,1.3c-0.5,0.5-1.6,1.2-3.3,2.1c-1.8,0.9-3.7,1.3-5.7,1.3c-5,0-9.1-1.8-12.1-5.5
		c-3-3.6-4.5-8.5-4.5-14.7c0-6.2,1.6-11.1,4.9-14.7c3.3-3.6,7.1-5.4,11.5-5.4c2,0,3.8,0.4,5.4,1.2c1.6,0.8,2.7,1.6,3.3,2.3l0.9,1.2
		h0.1V6.1h9.4v52.6H483.9z M483.4,43v-7c0-2.3-0.7-4.2-2.2-5.8c-1.5-1.6-3.5-2.4-6-2.4c-2.7,0-4.9,1-6.4,3c-1.5,2-2.3,4.9-2.3,8.8
		c0,3.8,0.8,6.8,2.3,8.7c1.5,2,3.6,3,6.4,3c2.5,0,4.5-0.8,6-2.4C482.6,47.3,483.4,45.3,483.4,43z"/>
	<path d="M522.9,58.7V55h-0.1c-0.1,0.1-0.2,0.3-0.4,0.5c-0.1,0.2-0.5,0.6-1.1,1.1c-0.6,0.5-1.2,1-1.9,1.4c-0.7,0.4-1.7,0.8-3,1.2
		c-1.2,0.3-2.6,0.5-4,0.5c-4.6,0-8.1-1.1-10.3-3.3c-2.3-2.2-3.4-4.9-3.4-8c0-3.3,1-5.8,3-7.6c2-1.7,5.3-3.2,10-4.3
		c4.4-1.1,7.1-1.9,8.2-2.5c1.1-0.6,1.7-1.5,1.7-2.7c0-1.2-0.5-2.1-1.6-2.9c-1.1-0.8-2.7-1.2-4.9-1.2c-2.5,0-4.4,0.6-5.5,1.7
		c-1.1,1.1-2,2.7-2.6,4.6l-7.8-3.2c0.9-3.2,2.7-5.8,5.3-7.9c2.6-2,6.1-3.1,10.4-3.1c4.7,0,8.5,1.2,11.4,3.7c3,2.4,4.5,6.2,4.5,11.4
		v24.2H522.9z M513.4,43c-2.4,0.6-4,1.3-4.7,2.1s-1.1,1.7-1.1,2.7c0,2.6,1.9,3.9,5.6,3.9c2.8,0,5-0.5,6.4-1.6c1.4-1.1,2.1-2.4,2.1-4
		v-6.6h-0.1c-0.2,0.4-0.4,0.7-0.6,0.9c-0.2,0.2-0.9,0.6-2.2,1.1S515.7,42.5,513.4,43z"/>
	<path d="M538.3,58.7V20.5h9v3.7h0.1c1.1-1.3,2.5-2.5,4.3-3.4c1.8-0.9,3.7-1.4,5.8-1.4c4.2,0,7.5,1.3,9.9,3.8
		c2.4,2.5,3.6,6,3.6,10.5v25h-9.4V36c0-2.6-0.5-4.6-1.5-5.9c-1-1.3-2.7-2-5.2-2c-2.3,0-4.1,0.7-5.4,2c-1.3,1.3-1.9,3.1-1.9,5.3v23.3
		H538.3z"/>
	<path d="M603.6,58.7V55h-0.1c-0.2,0.3-0.6,0.8-1,1.3c-0.5,0.5-1.6,1.2-3.3,2.1c-1.8,0.9-3.7,1.3-5.7,1.3c-5,0-9.1-1.8-12.1-5.5
		c-3-3.6-4.5-8.5-4.5-14.7c0-6.2,1.6-11.1,4.9-14.7c3.3-3.6,7.1-5.4,11.5-5.4c2,0,3.8,0.4,5.4,1.2c1.6,0.8,2.7,1.6,3.3,2.3l0.9,1.2
		h0.1V6.1h9.4v52.6H603.6z M603,43v-7c0-2.3-0.7-4.2-2.2-5.8c-1.5-1.6-3.5-2.4-6-2.4c-2.7,0-4.9,1-6.4,3c-1.5,2-2.3,4.9-2.3,8.8
		c0,3.8,0.8,6.8,2.3,8.7c1.5,2,3.6,3,6.4,3c2.5,0,4.5-0.8,6-2.4C602.3,47.3,603,45.3,603,43z"/>
	<path d="M645.7,45.5l6.6,5.8c-3.9,5.7-9.1,8.5-15.8,8.5c-5.3,0-9.7-1.8-13-5.5c-3.4-3.7-5-8.6-5-14.7c0-6.1,1.7-11,5-14.7
		c3.3-3.7,7.5-5.5,12.6-5.5c5.1,0,9.3,1.8,12.6,5.5s4.9,8.6,4.9,14.7v2.8h-25.6c0.1,2.9,0.9,5.2,2.4,6.7c1.5,1.6,3.5,2.3,6,2.3
		c2.2,0,3.9-0.5,5.4-1.6C643.1,48.8,644.4,47.3,645.7,45.5z M627.9,35.4h16.6c-0.2-2.4-1.1-4.4-2.5-5.7c-1.4-1.4-3.4-2.1-5.9-2.1
		c-2.3,0-4.2,0.7-5.7,2.2C628.9,31.4,628.1,33.2,627.9,35.4z"/>
</g>
</svg>
