<?xml version="1.0" encoding="utf-8"?>
<!-- Generator: Adobe Illustrator 20.1.0, SVG Export Plug-In . SVG Version: 6.00 Build 0)  -->
<svg version="1.1" id="Layer_1" xmlns="http://www.w3.org/2000/svg" xmlns:xlink="http://www.w3.org/1999/xlink" x="0px" y="0px"
	 viewBox="0 0 355.3 130.3" style="enable-background:new 0 0 355.3 130.3;" xml:space="preserve">
<style type="text/css">
	.st0{fill:none;stroke:#B4B4B4;stroke-miterlimit:10;}
</style>
<path d="M18.5,109.3V52.8H9.4v-9h9.3v-10c0-5.5,1.2-9.4,3.7-11.5c2.5-2.1,6-3.2,10.6-3.2h10.5v9h-8.7c-2.6,0-4.3,0.5-5.1,1.5
	c-0.9,1-1.3,3.1-1.3,6.2v8h16.2v9H28.5v56.5H18.5z"/>
<path d="M54,109.3V43.8h9.6v7h0.2c1.3-2.6,3.3-4.7,5.8-6.1c2.6-1.4,5.2-2.1,7.8-2.1c1,0,2,0.1,2.9,0.3c0.9,0.2,1.7,0.4,2.2,0.6
	l0.6,0.4l-1.9,10c-1.2-0.7-3-1-5.2-1c-4.2,0-7.3,1.4-9.2,4.1c-1.9,2.8-2.8,7.2-2.8,13.3v39H54z"/>
<path d="M130.9,109.3v-7.2h-0.2c-1.2,2.1-3.6,4.2-7,6.1c-3.5,1.9-7.8,2.9-13,2.9c-7.3,0-12.8-1.8-16.5-5.3c-3.8-3.5-5.6-8-5.6-13.4
	c0-5.4,1.7-9.7,5-12.8c3.3-3.1,9-5.7,17-7.7c3-0.7,5.2-1.3,6.6-1.7c1.4-0.4,3.1-1,5-1.7c1.9-0.7,3.3-1.4,4.1-2
	c0.8-0.7,1.5-1.5,2.2-2.5s0.9-2.1,0.9-3.3c0-2.8-1.1-5.1-3.4-7c-2.3-1.9-5.7-2.8-10.3-2.8c-8.7,0-14.1,4.3-16,13l-9.2-2.6
	c1.1-5.8,3.8-10.4,8-14c4.3-3.6,9.8-5.4,16.7-5.4c7.6,0,13.6,1.9,18,5.6c4.4,3.8,6.6,9.6,6.6,17.6v44.1H130.9z M112.8,79.8
	c-5.6,1.6-9.4,3.3-11.4,5.1c-2,1.8-3,4.2-3,7c0,6.8,4.3,10.3,13,10.3c5.9,0,10.5-1.3,13.7-4c3.2-2.7,4.8-6,4.8-9.8V72h-0.2
	C128.5,74.4,122.9,77,112.8,79.8z"/>
<path d="M152.3,109.3V43.8h9.2v6.3h0.2c1.6-2.4,3.9-4.3,6.9-5.9c3-1.5,6.3-2.3,9.8-2.3c4.1,0,7.6,0.9,10.6,2.8
	c2.9,1.9,5.2,4.1,6.7,6.9h0.2c1.6-2.6,4-4.9,7.2-6.8c3.3-1.9,7-2.8,11.2-2.8c6.9,0,12.4,2,16.5,6.1s6.1,9.6,6.1,16.6v44.6h-9.8V67.8
	c0-11-4.5-16.6-13.4-16.6c-4.5,0-8.1,1.4-10.6,4.1c-2.5,2.8-3.8,6.6-3.8,11.6v42.4h-9.8V67.8c0-11-4.5-16.6-13.4-16.6
	c-4.8,0-8.3,1.5-10.6,4.4c-2.3,2.9-3.5,6.7-3.5,11.3v42.4H152.3z"/>
<path d="M290.5,109.3v-7.2h-0.2c-1.2,2.1-3.6,4.2-7,6.1c-3.5,1.9-7.8,2.9-13,2.9c-7.3,0-12.8-1.8-16.5-5.3c-3.8-3.5-5.6-8-5.6-13.4
	c0-5.4,1.7-9.7,5-12.8c3.3-3.1,9-5.7,17-7.7c3-0.7,5.2-1.3,6.6-1.7c1.4-0.4,3.1-1,5-1.7c1.9-0.7,3.3-1.4,4.1-2
	c0.8-0.7,1.5-1.5,2.2-2.5s0.9-2.1,0.9-3.3c0-2.8-1.1-5.1-3.4-7c-2.3-1.9-5.7-2.8-10.3-2.8c-8.7,0-14.1,4.3-16,13l-9.2-2.6
	c0.8-4.8,2.8-8.9,6.1-12.2c3.2-3.4,7.3-5.6,12.4-6.6c-3.4-2.3-5.1-5.8-5.1-10.5c0-3.5,1.2-6.4,3.5-8.9c2.3-2.5,5.2-3.7,8.7-3.7
	c3.5,0,6.4,1.2,8.7,3.6c2.3,2.4,3.4,5.4,3.4,9c0,4.9-1.7,8.4-5.2,10.6c11.3,2.3,16.9,9.8,16.9,22.5v44.1H290.5z M272.5,79.8
	c-5.6,1.6-9.4,3.3-11.4,5.1c-2,1.8-3,4.2-3,7c0,6.8,4.3,10.3,13,10.3c5.9,0,10.5-1.3,13.7-4c3.2-2.7,4.8-6,4.8-9.8V72h-0.2
	C288.1,74.4,282.5,77,272.5,79.8z M275.6,39.2c1.6,0,3-0.6,4.2-1.9c1.2-1.3,1.7-3.1,1.7-5.4c0-2.2-0.6-3.9-1.7-5.1
	c-1.2-1.2-2.6-1.8-4.2-1.8c-1.7,0-3,0.6-4.1,1.7c-1.1,1.2-1.7,2.9-1.7,5.2c0,2.3,0.6,4.1,1.7,5.4C272.6,38.6,274,39.2,275.6,39.2z"
	/>
<path d="M317.2,90.3V52.8h-9.2v-9h9.4V27.7h9.6v16.1h16.2v9h-16.1v36.2c0,3.9,0.5,6.6,1.6,8.2c1.1,1.6,3.2,2.3,6.4,2.3h4.9v9.8h-5.4
	c-6.2,0-10.7-1.6-13.4-4.8C318.6,101.4,317.2,96.6,317.2,90.3z"/>
<line class="st0" x1="44.6" y1="8" x2="44.6" y2="121.7"/>
<line class="st0" x1="54" y1="8" x2="54" y2="121.7"/>
<line class="st0" x1="83.1" y1="8" x2="83.1" y2="121.7"/>
<line class="st0" x1="88.5" y1="8" x2="88.5" y2="121.7"/>
<line class="st0" x1="139.8" y1="8" x2="139.8" y2="121.7"/>
<line class="st0" x1="152.3" y1="8" x2="152.3" y2="121.7"/>
<line class="st0" x1="237" y1="8" x2="237" y2="121.7"/>
<line class="st0" x1="248.1" y1="8" x2="248.1" y2="121.7"/>
<line class="st0" x1="299.4" y1="8" x2="299.4" y2="121.7"/>
<line class="st0" x1="308.1" y1="8" x2="308.1" y2="121.7"/>
</svg>
