<?xml version="1.0" encoding="utf-8"?>
<!-- Generator: Adobe Illustrator 20.1.0, SVG Export Plug-In . SVG Version: 6.00 Build 0)  -->
<svg version="1.1" id="Layer_1" xmlns="http://www.w3.org/2000/svg" xmlns:xlink="http://www.w3.org/1999/xlink" x="0px" y="0px"
	 viewBox="0 0 763 763" style="enable-background:new 0 0 763 763;" xml:space="preserve">
<style type="text/css">
	.st0{fill:#FFFFFF;}
	.st1{fill:none;}
	.st2{font-family:'MaisonNeue-Bold';}
	.st3{font-size:20px;}
	.st4{font-family:'MaisonNeue-Book';}
</style>
<rect class="st0" width="763" height="763"/>
<rect x="56.6" y="49.6" class="st1" width="480.5" height="112.5"/>
<text transform="matrix(1 0 0 1 56.5996 64.2051)"><tspan x="0" y="0" class="st2 st3">Säsongens första derby slutade med seger 3-0 i </tspan><tspan x="0" y="24" class="st2 st3">träningsmatchen borta mot AIK på Skytteholms IP.</tspan></text>
<rect x="56.6" y="288.6" class="st1" width="293" height="489"/>
<text transform="matrix(1 0 0 1 56.5996 303.1968)"><tspan x="0" y="0" class="st4 st3">Efter en lite skakig inledning </tspan><tspan x="0" y="24" class="st4 st3">där AIK skapade några </tspan><tspan x="0" y="48" class="st4 st3">halvchanser kunde vi sakta </tspan><tspan x="0" y="72" class="st4 st3">men säkert ta över matchen. </tspan><tspan x="0" y="96" class="st4 st3">AIK gjorde det dock svårt för </tspan><tspan x="0" y="120" class="st4 st3">oss att skapa riktigt heta </tspan><tspan x="0" y="144" class="st4 st3">målchanser. Mycket beroende </tspan><tspan x="0" y="168" class="st4 st3">på att de spelade ett lågt 5-3-2 </tspan><tspan x="0" y="192" class="st4 st3">och lite slarvigt passningsspel </tspan><tspan x="0" y="216" class="st4 st3">från oss. Men tack vare två </tspan><tspan x="0" y="240" class="st4 st3">hörnmål och ett fint samarbete </tspan><tspan x="0" y="264" class="st4 st3">mellan Petronella och Mia </tspan><tspan x="0" y="288" class="st4 st3">kunde vi gå till halvtidsvila med </tspan><tspan x="0" y="312" class="st4 st3">en stabil 3-0 ledning. I andra </tspan><tspan x="0" y="336" class="st4 st3">halvlek kontrollerade vi </tspan><tspan x="0" y="360" class="st4 st3">matchen på ett bra sätt och </tspan><tspan x="0" y="384" class="st4 st3">borde gjort något mer mål.</tspan></text>
<rect x="403.6" y="288.6" class="st1" width="293" height="489"/>
<text transform="matrix(1 0 0 1 403.5827 303.1968)"><tspan x="0" y="0" class="st4 st3">Sammantaget är jag nöjd med </tspan><tspan x="0" y="24" class="st4 st3">årets första nolla och ett bra </tspan><tspan x="0" y="48" class="st4 st3">kollektivt försvarsspel. </tspan><tspan x="0" y="72" class="st4 st3">Offensivt visade vi stundtals </tspan><tspan x="0" y="96" class="st4 st3">prov på ett bra bollinnehav, </tspan><tspan x="0" y="120" class="st4 st3">men skulle omvandlat det till </tspan><tspan x="0" y="144" class="st4 st3">några fler heta målchanser. Nu </tspan><tspan x="0" y="168" class="st4 st3">har vi ett landslagsuppehåll </tspan><tspan x="0" y="192" class="st4 st3">med många spelare på fina </tspan><tspan x="0" y="216" class="st4 st3">uppdrag, samtidigt som vi på </tspan><tspan x="0" y="240" class="st4 st3">hemmaplan kan finslipa detaljer </tspan><tspan x="0" y="264" class="st4 st3">i anfallsspelet.</tspan><tspan x="0" y="288" class="st4 st3">Mot nya segrar!</tspan></text>
</svg>
