<?xml version="1.0" encoding="utf-8"?>
<!-- Generator: Adobe Illustrator 20.1.0, SVG Export Plug-In . SVG Version: 6.00 Build 0)  -->
<svg version="1.1" id="Layer_1" xmlns="http://www.w3.org/2000/svg" xmlns:xlink="http://www.w3.org/1999/xlink" x="0px" y="0px"
	 viewBox="0 0 600 600" style="enable-background:new 0 0 600 600;" xml:space="preserve">
<style type="text/css">
	.st0{fill:#FFFFFF;}
	.st1{enable-background:new    ;}
	.st2{fill:none;stroke:#E21F26;stroke-width:2;stroke-miterlimit:10;}
</style>
<rect class="st0" width="600" height="600"/>
<g class="st1">
	<path d="M64.3,231.6c2.2,0,6.2,0.3,12.7,0.3c6.7,0,10.2-0.3,12.6-0.3c0.3,0.4,0.3,2.6-0.1,2.9c-1.5,0.2-3.3,0.5-4.2,0.8
		c-1.8,0.6-2.2,1.6-2.3,4.4c-0.1,4-0.1,9.2-0.1,15.4c0.1,0.4,0.3,0.6,0.5,0.7c0.8,0.2,2.1,0.2,12.9,0.2c7,0,10.2,0,11.2-0.1
		c0.2-0.1,0.5-0.4,0.5-0.6c0-4.5,0-12.4-0.2-16.8c-0.1-1.3-0.5-2.6-1.9-3c-1.3-0.5-2.8-0.7-4.9-1c-0.5-0.4-0.5-2.5,0-2.9
		c3.2,0,6.7,0.3,12.9,0.3c6.5,0,10.1-0.3,12.2-0.3c0.4,0.4,0.5,2.4,0,2.9c-1.8,0.3-3.3,0.4-4.4,0.9c-1.7,0.6-2.2,1.5-2.3,4.4
		c-0.2,5-0.2,9.4-0.2,20.3c0,6.6,0,14.6,0.2,18.3c0.2,2.4,0.5,3.8,2.2,4.3c1.3,0.5,2.7,0.7,5.7,1.1c0.3,0.5,0.1,2.7-0.4,3
		c-2.4,0-7.1-0.3-13-0.3c-5.5,0-10.8,0.3-12.9,0.3c-0.5-0.4-0.5-2.4-0.1-3c2.1-0.2,3.3-0.4,4.6-0.8c1.6-0.5,2.3-1.5,2.4-4.3
		c0.1-3.7,0.1-11.2,0.1-17c0-0.3-0.2-0.6-0.5-0.6c-1.7-0.1-7.3-0.1-11.5-0.1c-9.3,0.1-12.2,0.1-12.8,0.3c-0.1,0.1-0.3,0.5-0.3,0.5
		c0,5.4,0,12.9,0.1,16.2c0.1,2.8,0.5,4.2,2.6,4.9c1.2,0.4,3.1,0.7,5.1,1c0.4,0.5,0,2.7-0.4,3c-1.7,0-5.9-0.3-13.4-0.3
		c-6.4,0-10.9,0.3-12.8,0.3c-0.3-0.3-0.4-2.5,0-3c2.1-0.3,3.1-0.4,4.3-0.7c2.4-0.6,3-2.1,3.1-6c0.1-1.9,0.2-10,0.2-17.9
		c0-8.7-0.1-17.2-0.2-19.5c-0.2-2.8-0.6-3.8-2.4-4.2c-1.4-0.5-2.9-0.6-5-0.9C63.9,234.1,64.1,231.9,64.3,231.6z"/>
	<path d="M137.5,231.6c3.1,0,8.5,0.3,13,0.3h18c3.4,0,8.4-0.1,11.1-0.5c0.2,0,0.4,0.2,0.4,0.4c-0.6,2.7-1.2,8.6-1.4,13.1
		c-0.4,0.5-2.8,0.5-3.2,0.3c-0.4-3.1-0.8-4.9-1.4-6.3c-0.8-1.9-2.1-2.5-3.9-2.7c-2.2-0.2-11.7-0.2-13,0c-0.5,0.1-1,1.2-1,1.6
		c-0.1,5.6-0.1,12.6,0,18c0,0.4,0.3,0.7,0.5,0.7c2.8,0,9.3,0.1,12.2-0.2c1.9-0.1,2.6-1,3.1-3c0.4-1,0.5-2.2,0.8-3.3
		c0.5-0.4,3-0.2,3.4,0.2c-0.2,2.1-0.5,5.7-0.5,8.6c0,2.8,0.1,6.4,0.2,8.7c-0.5,0.4-2.9,0.5-3.3,0.1c-0.6-2.5-0.5-2.5-0.9-3.7
		c-0.5-1.3-1.2-2.3-3.1-2.5c-2-0.2-9.1-0.2-12-0.2c-0.3,0-0.5,0.5-0.5,0.7c-0.1,5,0,12.2,0,16.6c0,1.6,0.9,2.9,2,3.2
		c1.8,0.4,7.3,0.6,11.9,0.6c4-0.1,5.2-0.5,7.1-2.8c1.6-1.9,3.3-5.1,4.7-8.2c0.5-0.1,2.7,0.6,3.1,1.2c-0.5,2.2-2.5,10-4,12.9
		c-0.5,0.9-1,1.4-5,1.4c-7.6,0-15.5-0.4-25-0.4c-5.1,0-11,0.3-15.5,0.3c-0.3-0.5-0.3-2.5,0-3c3-0.3,5.3-0.6,6.7-1
		c1.8-0.5,2.6-1.5,2.7-4.6c0.3-4,0.3-11.4,0.3-21.6c0-7.2-0.1-14.6-0.3-17.3c-0.2-2.8-0.7-3.5-2.5-4c-1.4-0.4-2.9-0.6-4.8-0.8
		C137,234,137.1,231.9,137.5,231.6z"/>
	<path d="M202,276.2c4.9-11.4,12.5-32.3,14.7-38.6c0.7-1.8,1.5-4.5,1.7-5.9c1.1,0.1,2.5,0.2,4,0.2c1.9,0,3.1-0.1,4-0.2
		c0.4,1.4,1,3.5,1.5,5c2.7,7.6,10.7,30.7,13.9,38.5c2.8,7,3.3,7.7,10,8.5c0.3,0.4,0,2.6-0.3,3c-2.3,0-6.5-0.3-12.4-0.3
		c-6.5,0-10.3,0.2-13.1,0.3c-0.2-0.4-0.4-2.5,0-3c1.8-0.3,3.6-0.6,4.6-1.1c1-0.5,1.1-1.4,0.9-2c-0.8-3.2-3.2-9.9-4.6-13.3
		c-0.1-0.2-0.5-0.6-0.8-0.6c-1.4-0.1-4.5,0-7.5,0c-4.2,0-6,0-7.2,0.1c-0.4,0-0.8,0.5-1,0.8c-1.6,4.5-3.9,10.5-3.9,12.2
		c0,1.3,0.2,2.5,2.6,3.1c1.4,0.4,2.7,0.6,4.4,0.8c0.3,0.4,0,2.6-0.3,3c-2.3,0-6.2-0.3-11.4-0.3c-3.9,0-7.3,0.3-10,0.3
		c-0.3-0.4-0.3-2.4,0-3C198.3,282.9,199.5,282.2,202,276.2z M218.7,243.7c-1.7,4.9-4.5,13.2-5.9,17.5c-0.1,0.4,0,0.5,0.2,0.6
		c1,0.1,3.1,0.1,5.9,0.1c2.7,0,5.1,0,6-0.1c0.1,0,0.3-0.4,0.3-0.5c-1.2-3.8-4.3-13.1-6-17.6C219,243.7,218.8,243.6,218.7,243.7z"/>
	<path d="M257.8,231.6c1.9,0,10,0.3,12.6,0.3c6.4-0.1,9.5-0.4,17-0.4c8,0,14.2,1.9,19.1,5.8c5.8,4.9,9,12.3,9,20.5
		c0,10.5-4.4,17.6-9.8,22c-6.6,5.3-14.5,7.2-24,7.2c-5.4,0-12.8-0.3-21.1-0.4h-3.8c-0.4-0.5-0.4-2.8,0-3c2.4-0.2,3.9-0.4,5.5-0.8
		c1.8-0.5,2.7-1.6,2.9-4.2c0.3-3.5,0.3-11.2,0.3-20.8c0-8.2,0-14.7-0.2-18.5c-0.3-2.5-0.7-3.3-2.8-4c-1.2-0.4-3.2-0.7-4.9-0.9
		C257.3,234,257.5,232,257.8,231.6z M278.4,281.1c2.1,1.7,6,2.2,8.4,2.2c3.9,0,7.6-1.3,10.9-5c3.5-4.1,5.8-9.6,5.8-19.1
		c0-8.5-3.1-16.6-9.4-20.9c-3.5-2.4-8-3.3-12.9-3.3c-1.4,0-3,0.2-3.5,0.4c-0.4,0.2-0.7,0.8-0.8,1.4c-0.1,3.1-0.1,14.1-0.1,22.2
		c0,8.4,0,16.5,0.3,18.9C276.9,278.9,277.5,280.3,278.4,281.1z"/>
	<path d="M327.9,231.6c3.3,0,5.9,0.3,12.9,0.3c6.3,0,9.7-0.3,12.6-0.3c0.4,0.4,0.4,2.4,0,2.9c-2.3,0.4-3.4,0.5-4.4,0.8
		c-2.1,0.6-2.3,1.6-2.4,3.8c-0.1,2.1-0.2,8.5-0.2,17.5c-0.1,9.7,0.1,19.6,0.3,22.5c0.1,1.6,1,2.4,1.7,2.7c2.2,0.5,8.5,0.6,12.6,0.5
		c1.8,0,3.4-0.7,5.2-3.1c1.7-2.3,4.2-6.9,5.8-10.5c0.5-0.2,2.9,0.5,3.2,1.2c-0.5,2.6-3.3,12.7-5.3,15.9c-0.3,0.7-1.3,1.2-4.8,1.2
		c-6.7,0-18.4-0.5-24.7-0.5c-6,0-10.6,0.3-13.4,0.3c-0.4-0.4-0.4-2.6,0-3c2.9-0.3,3.8-0.4,5.5-0.8c1.8-0.5,2.3-1.5,2.5-3.7
		c0.3-2.2,0.4-11.6,0.4-21.6c0-10.1,0.1-15.1-0.2-18.2c-0.1-2.4-0.5-3.7-2.7-4.2c-1.1-0.4-3.1-0.5-4.8-0.8
		C327.3,233.9,327.5,231.9,327.9,231.6z"/>
	<path d="M383.3,231.6c2.8,0,7.1,0.3,12.8,0.3c7.4,0,10.9-0.3,12.9-0.3c0.3,0.4,0.4,2.4,0,2.9c-1.9,0.3-3.5,0.4-4.7,0.8
		c-2,0.7-2.2,2-2.2,4.6c-0.2,3.1-0.2,9.9-0.2,17.7c0,10.2,0,17.5,0.2,20.8c0.1,2,0.3,3.9,2.9,4.5c1.2,0.4,3.2,0.6,5.1,0.9
		c0.4,0.5,0.1,2.7-0.4,3c-3.1-0.1-7.1-0.3-12.9-0.3c-7.1,0-10.3,0.3-13.6,0.3c-0.5-0.4-0.5-2.6,0-3c1.9-0.2,3.1-0.4,4.2-0.6
		c2.4-0.5,2.9-1.5,3.1-4.6c0.2-2.9,0.2-12.9,0.2-21.7c0-8.8,0-13.7-0.2-17.6c-0.2-2-0.6-3.3-2.3-3.9c-1.5-0.5-2.9-0.6-5-0.9
		C382.8,234,382.9,232,383.3,231.6z"/>
	<path d="M418.8,231.6c2.9-0.1,7.3,0.3,12.6,0.3c2.4,0,4.8-0.1,5.8-0.2c0.4,1.3,1.3,2.4,3.3,4.9c7.7,9.8,22.5,28.4,28,34.8
		c0.1,0,0.2-0.1,0.3-0.1c0-11.5,0.2-24.8-0.4-30.9c-0.3-3-1.1-4.3-3.9-5c-1.7-0.4-3.3-0.7-5.7-1c-0.3-0.4-0.2-2.7,0.1-2.9
		c2.2,0,6.4,0.3,12.1,0.3c4.4,0,8.6-0.3,10.3-0.3c0.3,0.3,0.3,2.5,0,2.9c-1.4,0.3-2.5,0.4-3.7,0.8c-2.5,0.8-3.3,2-3.7,5.3
		c-0.5,7.7-0.6,20.7-0.7,34c0,4,0.1,9.3,0.2,12.4c-1.3-0.2-6.6-0.1-8.1,0.1c-5.1-7.2-26.8-35.2-32.6-42.6c-0.2-0.3-0.5-0.1-0.5,0
		c-0.2,9.7-0.1,28.5,0.2,32.7c0.2,3.8,1.4,5.1,4,5.7c1.4,0.4,3.1,0.6,5.3,0.9c0.3,0.4,0.3,2.5-0.2,3c-2.9,0-6.9-0.3-11.3-0.3
		c-5,0-8.9,0.3-11.4,0.3c-0.4-0.4-0.3-2.6,0-3c2-0.3,3.5-0.4,5-1c2-0.6,2.9-2.1,3.2-5.1c0.5-4.8,0.8-21.1,0.9-36.3
		c0-1.9-0.9-4.4-3-5.3c-1.7-0.8-3.5-1.3-6.2-1.5C418.4,234.2,418.5,231.9,418.8,231.6z"/>
	<path d="M490.1,231.6c3.2,0,8.5,0.3,13,0.3h18c3.4,0,8.4-0.1,11.1-0.5c0.2,0,0.4,0.2,0.4,0.4c-0.6,2.7-1.2,8.6-1.4,13.1
		c-0.5,0.5-2.8,0.5-3.2,0.3c-0.4-3.1-0.8-4.9-1.4-6.3c-0.8-1.9-2.1-2.5-3.9-2.7c-2.2-0.2-11.7-0.2-13,0c-0.5,0.1-1,1.2-1,1.6
		c-0.1,5.6-0.1,12.6,0,18c0,0.4,0.3,0.7,0.5,0.7c2.8,0,9.3,0.1,12.2-0.2c1.9-0.1,2.6-1,3.1-3c0.4-1,0.5-2.2,0.8-3.3
		c0.5-0.4,3-0.2,3.4,0.2c-0.2,2.1-0.5,5.7-0.5,8.6c0,2.8,0.1,6.4,0.2,8.7c-0.5,0.4-2.9,0.5-3.3,0.1c-0.6-2.5-0.5-2.5-0.9-3.7
		c-0.5-1.3-1.2-2.3-3.1-2.5c-2-0.2-9.1-0.2-12-0.2c-0.3,0-0.5,0.5-0.5,0.7c-0.1,5,0,12.2,0,16.6c0,1.6,0.9,2.9,2,3.2
		c1.8,0.4,7.3,0.6,11.9,0.6c4-0.1,5.2-0.5,7.1-2.8c1.6-1.9,3.3-5.1,4.7-8.2c0.5-0.1,2.7,0.6,3.1,1.2c-0.4,2.2-2.5,10-4,12.9
		c-0.4,0.9-1,1.4-5,1.4c-7.6,0-15.5-0.4-25-0.4c-5.1,0-11,0.3-15.5,0.3c-0.3-0.5-0.3-2.5,0-3c3-0.3,5.3-0.6,6.7-1
		c1.8-0.5,2.6-1.5,2.7-4.6c0.3-4,0.3-11.4,0.3-21.6c0-7.2-0.1-14.6-0.3-17.3c-0.2-2.8-0.7-3.5-2.5-4c-1.3-0.4-2.9-0.6-4.8-0.8
		C489.6,234,489.8,231.9,490.1,231.6z"/>
</g>
<g class="st1">
	<path d="M185.7,342.5c2.3-0.5,5.9-0.8,9.5-0.8c5.2,0,8.6,0.9,11.1,2.9c2.1,1.6,3.4,4,3.4,7.1c0,3.9-2.6,7.3-6.8,8.9v0.1
		c3.8,1,8.3,4.1,8.3,10.1c0,3.5-1.4,6.1-3.4,8.1c-2.8,2.6-7.4,3.8-14,3.8c-3.6,0-6.4-0.2-8.1-0.5V342.5z M190.9,359.1h4.7
		c5.5,0,8.8-2.9,8.8-6.8c0-4.7-3.6-6.6-8.9-6.6c-2.4,0-3.8,0.2-4.6,0.4V359.1z M190.9,378.5c1,0.2,2.5,0.2,4.4,0.2
		c5.4,0,10.4-2,10.4-7.9c0-5.5-4.7-7.8-10.4-7.8h-4.3V378.5z"/>
	<path d="M244.6,367.7c0,10.7-7.4,15.4-14.5,15.4c-7.9,0-13.9-5.8-13.9-14.9c0-9.7,6.4-15.4,14.4-15.4
		C238.9,352.7,244.6,358.8,244.6,367.7z M221.5,368c0,6.4,3.7,11.2,8.8,11.2c5,0,8.8-4.7,8.8-11.3c0-4.9-2.5-11.2-8.7-11.2
		C224.2,356.7,221.5,362.4,221.5,368z"/>
	<path d="M276.3,339.8v35.1c0,2.6,0.1,5.5,0.2,7.5h-4.7l-0.2-5h-0.1c-1.6,3.2-5.2,5.7-9.9,5.7c-7,0-12.4-5.9-12.4-14.8
		c-0.1-9.7,5.9-15.6,13-15.6c4.4,0,7.4,2.1,8.8,4.4h0.1v-17.3H276.3z M271,365.2c0-0.7-0.1-1.6-0.2-2.2c-0.8-3.4-3.7-6.1-7.6-6.1
		c-5.5,0-8.7,4.8-8.7,11.2c0,5.9,2.9,10.7,8.6,10.7c3.5,0,6.8-2.3,7.7-6.3c0.2-0.7,0.2-1.4,0.2-2.3V365.2z"/>
	<path d="M287,353.4l6.4,17.2c0.7,1.9,1.4,4.2,1.9,5.9h0.1c0.5-1.7,1.1-4,1.9-6.1l5.8-17h5.6l-7.9,20.7c-3.8,10-6.4,15.1-10,18.2
		c-2.6,2.3-5.2,3.2-6.5,3.4l-1.3-4.4c1.3-0.4,3.1-1.3,4.6-2.6c1.4-1.1,3.2-3.2,4.4-5.9c0.2-0.5,0.4-1,0.4-1.3c0-0.3-0.1-0.7-0.4-1.4
		l-10.7-26.8H287z"/>
	<path d="M332.4,345v8.3h7.6v4h-7.6v15.7c0,3.6,1,5.6,4,5.6c1.4,0,2.4-0.2,3.1-0.4l0.2,4c-1,0.4-2.6,0.7-4.7,0.7
		c-2.5,0-4.4-0.8-5.7-2.2c-1.5-1.6-2-4.1-2-7.6v-15.8h-4.5v-4h4.5v-7L332.4,345z"/>
	<path d="M348.5,368.9c0.1,7.1,4.7,10.1,10,10.1c3.8,0,6.1-0.7,8-1.5l0.9,3.8c-1.9,0.8-5,1.8-9.7,1.8c-8.9,0-14.3-5.9-14.3-14.6
		s5.2-15.7,13.6-15.7c9.5,0,12,8.3,12,13.7c0,1.1-0.1,1.9-0.2,2.5H348.5z M364,365.1c0.1-3.4-1.4-8.6-7.3-8.6
		c-5.3,0-7.7,4.9-8.1,8.6H364z"/>
	<path d="M377.9,353.4l4.1,6.2c1.1,1.6,2,3.1,2.9,4.7h0.2c1-1.7,1.9-3.2,2.9-4.8l4.1-6.2h5.7l-9.9,14l10.2,15h-6l-4.3-6.5
		c-1.1-1.7-2.1-3.3-3.1-5h-0.1c-1,1.7-2,3.3-3.1,5l-4.2,6.5h-5.8l10.3-14.8l-9.8-14.2H377.9z"/>
	<path d="M410.4,345v8.3h7.6v4h-7.6v15.7c0,3.6,1,5.6,4,5.6c1.4,0,2.4-0.2,3.1-0.4l0.2,4c-1,0.4-2.6,0.7-4.7,0.7
		c-2.5,0-4.4-0.8-5.7-2.2c-1.5-1.6-2-4.1-2-7.6v-15.8h-4.5v-4h4.5v-7L410.4,345z"/>
</g>
<line class="st2" x1="0" y1="0" x2="600" y2="600"/>
<line class="st2" x1="0" y1="600" x2="600" y2="0"/>
</svg>
