<?xml version="1.0" encoding="utf-8"?>
<!-- Generator: Adobe Illustrator 20.1.0, SVG Export Plug-In . SVG Version: 6.00 Build 0)  -->
<svg version="1.1" id="Layer_1" xmlns="http://www.w3.org/2000/svg" xmlns:xlink="http://www.w3.org/1999/xlink" x="0px" y="0px"
	 viewBox="0 0 600 600" style="enable-background:new 0 0 600 600;" xml:space="preserve">
<style type="text/css">
	.st0{fill:#FFFFFF;}
	.st1{enable-background:new    ;}
</style>
<rect class="st0" width="600" height="600"/>
<g class="st1">
	<path d="M121.4,255.6H96.6v30.9h-9.9v-70h9.9v29.6h24.8v-29.6h9.9v70h-9.9V255.6z"/>
	<path d="M147.4,216.5h40v9.5h-30.1v20.4h23.1v9.5h-23.1v21h30.1v9.5h-40V216.5z"/>
	<path d="M211.1,266.5l-4.9,20h-8.5v-7l14.4-59.2c0.5-2.1,1.8-3.8,4.7-3.8h11.4c2.9,0,4.1,1.7,4.7,3.8l14.4,59.2v7h-8.5l-4.9-20
		H211.1z M220.8,226l-7.2,31h18.1l-7.2-31H220.8z"/>
	<path d="M303.9,272.7c0,2.1-1,4.3-2.4,5.8l-5.6,5.7c-1.4,1.5-3.8,2.3-5.9,2.3h-31.4v-70h31.4c2.1,0,4.4,0.8,5.9,2.3l5.6,5.7
		c1.4,1.4,2.4,3.7,2.4,5.8V272.7z M268.5,226V277h20.8l4.7-4.8v-41.4l-4.7-4.8H268.5z"/>
	<path d="M320,216.5h9.9V277h27.4v9.5H320V216.5z"/>
	<path d="M369.3,216.5h24.7v9.2h-7.4v51.7h7.4v9.2h-24.7v-9.2h7.4v-51.7h-7.4V216.5z"/>
	<path d="M408.8,216.5h10.2l23.4,36.6v-36.6h9.9v70h-9.9v-14.8l-23.7-37v51.8h-9.9V216.5z"/>
	<path d="M468.3,216.5h40v9.5h-30.1v20.4h23.1v9.5h-23.1v21h30.1v9.5h-40V216.5z"/>
</g>
<g class="st1">
	<path d="M172.9,381v-42H189c3.7,0,6.7,1,8.9,3.1s3.3,4.6,3.3,7.8c0,4.1-1.7,6.9-5.2,8.4v0.2c1.9,0.6,3.5,1.8,4.8,3.5
		c1.3,1.8,2,4,2,6.6c0,3.9-1.2,7-3.6,9.2c-2.4,2.2-6.1,3.3-11.2,3.3H172.9z M177.9,356.8h10.3c5.5,0,8.2-2.2,8.2-6.6
		c0-2.1-0.7-3.8-2.2-4.9c-1.5-1.1-3.5-1.7-6.1-1.7h-10.2V356.8z M177.9,376.4h9.5c3.5,0,6.2-0.6,7.9-1.9c1.8-1.2,2.6-3.2,2.6-6
		c0-2.7-0.8-4.6-2.5-5.7c-1.7-1.1-4.3-1.7-7.9-1.7h-9.6V376.4z"/>
	<path d="M223.6,381.9c-4.2,0-7.7-1.5-10.4-4.4c-2.7-3-4.1-7.1-4.1-12.4c0-5.2,1.4-9.3,4.2-12.3c2.8-3,6.2-4.5,10.3-4.5
		c4,0,7.4,1.5,10.1,4.5c2.7,3,4.1,7.1,4.1,12.3c0,5.3-1.3,9.4-4,12.4C231.1,380.4,227.7,381.9,223.6,381.9z M223.6,377.5
		c2.7,0,4.9-1.1,6.7-3.3c1.8-2.2,2.7-5.2,2.7-9.1c0-3.9-0.9-6.9-2.6-9.1c-1.8-2.2-4-3.3-6.7-3.3c-2.8,0-5.1,1.1-6.9,3.2
		c-1.8,2.1-2.7,5.2-2.7,9.1s0.9,7,2.7,9.2C218.5,376.4,220.8,377.5,223.6,377.5z"/>
	<path d="M267,381v-3.1h-0.1c-0.8,1-2.1,1.9-3.7,2.7c-1.6,0.8-3.5,1.2-5.6,1.2c-4.2,0-7.6-1.5-10-4.6c-2.5-3-3.8-7.1-3.8-12.2
		c0-5.1,1.3-9.1,3.9-12.2c2.6-3.1,5.9-4.6,9.9-4.6c3.6,0,6.6,1.3,8.8,4h0.1v-15.1h4.9V381H267z M266.6,370.4v-9.8
		c0-2-0.7-3.8-2.2-5.4c-1.5-1.6-3.5-2.4-5.9-2.4c-3.2,0-5.6,1.1-7.2,3.2c-1.6,2.2-2.5,5.2-2.5,9.1c0,3.9,0.8,7,2.5,9.1
		c1.6,2.2,4,3.2,7.2,3.2c2.3,0,4.3-0.7,5.8-2.1S266.6,372.3,266.6,370.4z"/>
	<path d="M283.4,394.5l6.4-16.9l-11.9-28.4h5.2l9,22h0.1l8.1-22h5l-17.1,45.3H283.4z"/>
	<path d="M327.6,371.8v-18.2h-4.4v-4.4h4.6v-7.8h4.7v7.8h7.9v4.4h-7.8v17.6c0,1.9,0.3,3.2,0.8,4c0.5,0.8,1.6,1.1,3.1,1.1h2.4v4.7
		h-2.6c-3,0-5.2-0.8-6.5-2.3C328.3,377.1,327.6,374.8,327.6,371.8z"/>
	<path d="M368.9,371.2l4,2.6c-1.2,2.3-2.9,4.3-5.1,5.8s-5,2.3-8.2,2.3c-4.3,0-7.9-1.5-10.6-4.6c-2.8-3.1-4.1-7.1-4.1-12.2
		c0-5.1,1.4-9.1,4-12.2c2.7-3.1,6.2-4.6,10.5-4.6c4.2,0,7.7,1.5,10.3,4.5c2.6,3,4,7.1,4,12.3v1.4h-23.9c0,3,0.9,5.6,2.6,7.7
		c1.7,2.1,4,3.2,7.2,3.2c1.2,0,2.3-0.2,3.4-0.5s1.8-0.7,2.4-1c0.6-0.3,1.1-0.9,1.8-1.7s1-1.3,1.1-1.5
		C368.2,372.5,368.5,372,368.9,371.2z M349.8,362.6h18.9c-0.1-2.7-0.9-5-2.4-7c-1.5-2-3.9-2.9-7-2.9c-3.1,0-5.4,1-7,3.1
		C350.7,358,349.9,360.2,349.8,362.6z"/>
	<path d="M376.9,381l10.7-16.3l-10.1-15.5h5.4l7.7,12.2h0.1l7.7-12.2h5.3l-10,15.5l10.7,16.3h-5.5l-8.4-13.1h-0.1l-8.3,13.1H376.9z"
		/>
	<path d="M412.3,371.8v-18.2h-4.4v-4.4h4.6v-7.8h4.7v7.8h7.9v4.4h-7.8v17.6c0,1.9,0.3,3.2,0.8,4s1.6,1.1,3.1,1.1h2.4v4.7h-2.6
		c-3,0-5.2-0.8-6.5-2.3C413,377.1,412.3,374.8,412.3,371.8z"/>
</g>
</svg>
