<?xml version="1.0" encoding="utf-8"?>
<!-- Generator: Adobe Illustrator 21.1.0, SVG Export Plug-In . SVG Version: 6.00 Build 0)  -->
<svg version="1.1" id="Layer_1" xmlns="http://www.w3.org/2000/svg" xmlns:xlink="http://www.w3.org/1999/xlink" x="0px" y="0px"
	 viewBox="0 0 600 520" style="enable-background:new 0 0 600 520;" xml:space="preserve">
<style type="text/css">
	.st0{fill:#CFB571;}
	.st1{fill:#FFEC0D;}
	.st2{fill:#0568AF;}
	.st3{fill:#E21F26;}
</style>
<g>
	<g>
		<path class="st0" d="M276,112.8V78h11.4c2,0,3.9,0.3,5.6,1c1.8,0.7,3.4,1.7,4.8,3.1s2.6,3.2,3.4,5.5s1.3,4.9,1.3,7.8
			c0,3.2-0.4,6-1.3,8.3c-0.9,2.4-2,4.2-3.5,5.5s-3.1,2.2-4.9,2.8c-1.7,0.6-3.6,0.9-5.7,0.9H276V112.8z M281.9,107.4h5.1
			c2.9,0,5.2-0.9,6.8-2.6c1.6-1.8,2.4-4.9,2.4-9.4c0-4.1-0.8-7.1-2.4-9c-1.6-2-3.8-2.9-6.5-2.9h-5.4V107.4z"/>
		<path class="st0" d="M305.3,122.6v-5.9h1.1c1.3,0,2-0.8,2-2.4V86.5h5.7v29.2c0,4.6-2.1,6.9-6.4,6.9H305.3z M308.2,82.1v-5.6h5.9
			v5.6H308.2z"/>
		<path class="st0" d="M321.3,103.5v-17h5.7v16.4c0,2,0.4,3.3,1.1,4.1c0.7,0.8,1.9,1.2,3.6,1.2s3-0.5,4-1.4s1.5-2.4,1.5-4.3v-16h5.7
			v26.4h-5.5v-2.5h-0.1c-1.6,2.2-3.8,3.3-6.8,3.3s-5.3-0.9-6.8-2.6C322.1,109.2,321.3,106.7,321.3,103.5z"/>
		<path class="st0" d="M350.2,112.8V86.5h5.4v2.8h0.1c0.5-1,1.3-1.8,2.3-2.4s2.1-0.9,3.2-0.9c0.8,0,1.5,0.2,2.3,0.5l-0.9,5.5
			c-1-0.3-1.7-0.4-2.1-0.4c-3.1,0-4.6,2.2-4.6,6.6v14.7L350.2,112.8L350.2,112.8z"/>
		<path class="st0" d="M367.5,118l4.4-2.8c0.7,1.5,1.5,2.7,2.5,3.4c1,0.8,2.3,1.1,4,1.1c1.8,0,3.3-0.5,4.3-1.5
			c1.1-1,1.6-2.5,1.6-4.5v-3.4h-0.1c-0.6,0.9-1.5,1.6-2.7,2.2s-2.6,0.9-4.1,0.9c-3.4,0-6.3-1.2-8.5-3.7s-3.4-5.9-3.4-10.2
			c0-4.2,1.2-7.6,3.5-10.2c2.3-2.5,5.1-3.8,8.3-3.8c3.1,0,5.5,1.1,7.1,3.3h0.1v-2.5h5.5V113c0,3.8-1.1,6.7-3.2,8.8
			c-2.1,2-4.9,3-8.4,3c-2.7,0-5-0.6-6.9-1.9C369.6,121.7,368.3,120.1,367.5,118z M384.3,102.9v-6.4c0-1.6-0.6-2.9-1.7-4
			s-2.6-1.7-4.4-1.7c-2.1,0-3.8,0.8-5.1,2.3c-1.3,1.5-1.9,3.7-1.9,6.5s0.6,5,1.9,6.5s3,2.3,5.1,2.3c1.8,0,3.3-0.5,4.4-1.6
			C383.7,105.8,384.3,104.5,384.3,102.9z"/>
		<path class="st0" d="M412.3,112.8v-2.6h-0.1c-0.1,0.2-0.3,0.4-0.6,0.7c-0.3,0.3-0.7,0.6-1.3,1.1c-0.6,0.4-1.4,0.8-2.3,1.1
			c-1,0.3-2.1,0.4-3.3,0.4c-3.1,0-5.4-0.7-7-2.2s-2.3-3.3-2.3-5.5c0-2.3,0.7-4,2-5.2c1.4-1.2,3.7-2.2,6.9-3c2.9-0.7,4.8-1.3,5.7-1.8
			c0.9-0.5,1.3-1.2,1.3-2.1s-0.4-1.6-1.2-2.2c-0.8-0.6-2-0.9-3.6-0.9c-1.8,0-3.2,0.4-4,1.2c-0.8,0.8-1.5,2-1.9,3.4l-4.8-1.8
			c0.4-1.9,1.3-3.5,2.7-4.8c1.3-1.3,3.1-2.2,5.3-2.6c-1.4-1-2.1-2.5-2.1-4.4c0-1.5,0.5-2.7,1.5-3.7s2.2-1.5,3.6-1.5
			c1.5,0,2.7,0.5,3.7,1.5s1.4,2.3,1.4,3.8c0,2-0.7,3.5-2.2,4.5c2.3,0.5,4.1,1.5,5.4,3.1s2,3.8,2,6.6V113h-4.8V112.8z M405.6,101.7
			c-1.9,0.5-3.1,1-3.7,1.6s-0.9,1.3-0.9,2.2c0,2.1,1.4,3.2,4.3,3.2c2.1,0,3.7-0.4,4.8-1.3c1.1-0.9,1.6-1.9,1.6-3.1V99h-0.1
			c-0.1,0.3-0.3,0.5-0.5,0.7s-0.8,0.5-1.7,0.8C408.5,100.9,407.2,101.3,405.6,101.7z M405.4,83.5c0.4,0.5,0.9,0.7,1.5,0.7
			s1.1-0.2,1.5-0.7s0.7-1.1,0.7-1.9s-0.2-1.5-0.6-1.9S407.6,79,407,79s-1.1,0.2-1.5,0.7c-0.4,0.4-0.6,1.1-0.6,1.9
			C404.8,82.4,405,83,405.4,83.5z"/>
		<path class="st0" d="M424.1,112.8V86.5h5.4v2.8h0.1c0.5-1,1.3-1.8,2.3-2.4s2.1-0.9,3.2-0.9c0.8,0,1.5,0.2,2.3,0.5l-0.9,5.5
			c-1-0.3-1.7-0.4-2.1-0.4c-3.1,0-4.6,2.2-4.6,6.6v14.7L424.1,112.8L424.1,112.8z"/>
		<path class="st0" d="M459.2,112.8v-2.5h-0.1c-0.3,0.4-0.6,0.7-1,1.1s-1.2,0.8-2.4,1.4c-1.2,0.5-2.4,0.8-3.8,0.8
			c-3.5,0-6.3-1.3-8.3-3.8c-2.1-2.5-3.1-5.9-3.1-10.2c0-4.2,1.1-7.6,3.4-10.2c2.2-2.5,4.9-3.8,8-3.8c2.8,0,5.1,1.1,6.9,3.3h0.1V76.5
			h5.7v36.4L459.2,112.8L459.2,112.8z M458.8,102.7v-6c0-1.6-0.5-3-1.6-4.2s-2.5-1.7-4.4-1.7c-2.1,0-3.8,0.8-4.9,2.3
			c-1.2,1.5-1.7,3.7-1.7,6.5c0,2.9,0.6,5,1.7,6.5c1.2,1.5,2.8,2.3,4.9,2.3c1.8,0,3.2-0.6,4.4-1.7
			C458.2,105.7,458.8,104.3,458.8,102.7z"/>
		<path class="st0" d="M489.5,104.1l4.1,3.3c-2.6,4.1-6.2,6.2-11,6.2c-3.7,0-6.6-1.3-8.9-3.8s-3.5-5.9-3.5-10.1s1.1-7.6,3.4-10.1
			s5.2-3.8,8.7-3.8s6.4,1.3,8.6,3.8s3.4,5.9,3.4,10.2v1.7h-18.4c0.1,2.2,0.7,3.9,1.8,5.3c1.1,1.3,2.7,2,4.8,2c1,0,1.8-0.1,2.6-0.4
			c0.8-0.3,1.4-0.7,2-1.2s1-1,1.3-1.4C488.7,105.2,489.1,104.7,489.5,104.1z M476,97.1h12.8c-0.1-1.9-0.7-3.4-1.8-4.6
			c-1.1-1.2-2.7-1.8-4.7-1.8c-1.9,0-3.4,0.6-4.5,1.9C476.7,93.9,476.1,95.4,476,97.1z"/>
		<path class="st0" d="M500.1,112.8V86.5h5.5V89h0.1c0.7-0.9,1.7-1.7,3-2.3c1.3-0.6,2.7-0.9,4.1-0.9c2.9,0,5.2,0.9,6.9,2.6
			s2.5,4.2,2.5,7.2v17.3h-5.6V97.1c0-4.1-1.7-6.1-5.1-6.1c-1.7,0-3.1,0.5-4.1,1.5s-1.5,2.3-1.5,4v16.4L500.1,112.8L500.1,112.8z"/>
		<path class="st0" d="M276,165.2v-34.9h21.8v5.4h-15.9V146h14.4v5.2h-14.4v13.9H276V165.2z"/>
		<path class="st0" d="M322.3,162.2c-2.3,2.5-5.2,3.7-8.7,3.7c-3.6,0-6.5-1.2-8.8-3.7s-3.5-5.9-3.5-10.3c0-4.3,1.2-7.7,3.6-10.2
			s5.3-3.7,8.7-3.7s6.3,1.2,8.6,3.7c2.3,2.5,3.5,5.9,3.5,10.2C325.7,156.4,324.5,159.8,322.3,162.2z M313.5,160.8
			c2,0,3.5-0.8,4.8-2.3c1.2-1.5,1.8-3.7,1.8-6.5s-0.6-5-1.8-6.5c-1.2-1.5-2.8-2.3-4.8-2.3s-3.6,0.8-4.8,2.3
			c-1.2,1.5-1.8,3.7-1.8,6.5c0,2.9,0.6,5,1.8,6.5S311.5,160.8,313.5,160.8z"/>
		<path class="st0" d="M332.6,156.4v-12.7h-4v-4.9h4.1v-6.5h5.4v6.5h6.6v4.9h-6.6v12.1c0,1.5,0.2,2.5,0.7,3.1
			c0.4,0.6,1.4,0.9,2.8,0.9h2.1v5.5h-2.5c-3.2,0-5.4-0.7-6.7-2.1C333.3,161.6,332.6,159.4,332.6,156.4z"/>
		<path class="st0" d="M350.3,165.2v-36.4h5.7v12.5h0.1c1.8-2.2,4.1-3.3,6.9-3.3c3.3,0,6,1.3,8.1,3.8c2.1,2.6,3.2,5.9,3.2,10.1
			c0,4.3-1,7.6-3.1,10.2c-2.1,2.5-4.9,3.8-8.3,3.8c-2.9,0-5.3-1.1-7.2-3.3h-0.1v2.5h-5.3V165.2z M356,149.1v6c0,1.6,0.6,2.9,1.7,4.1
			c1.1,1.1,2.6,1.7,4.4,1.7c2.1,0,3.8-0.8,4.9-2.3s1.7-3.7,1.7-6.5c0-2.9-0.6-5-1.7-6.5s-2.8-2.3-4.9-2.3c-1.9,0-3.3,0.6-4.4,1.7
			C356.5,146.1,356,147.5,356,149.1z"/>
		<path class="st0" d="M399.3,162.2c-2.3,2.5-5.2,3.7-8.7,3.7c-3.6,0-6.5-1.2-8.8-3.7s-3.5-5.9-3.5-10.3c0-4.3,1.2-7.7,3.6-10.2
			s5.3-3.7,8.7-3.7c3.4,0,6.3,1.2,8.6,3.7c2.3,2.5,3.5,5.9,3.5,10.2C402.7,156.4,401.6,159.8,399.3,162.2z M390.6,160.8
			c2,0,3.5-0.8,4.8-2.3c1.2-1.5,1.8-3.7,1.8-6.5s-0.6-5-1.8-6.5c-1.2-1.5-2.8-2.3-4.8-2.3s-3.6,0.8-4.8,2.3
			c-1.2,1.5-1.8,3.7-1.8,6.5c0,2.9,0.6,5,1.8,6.5S388.6,160.8,390.6,160.8z"/>
		<path class="st0" d="M408.4,165.2v-36.4h5.9v36.4L408.4,165.2L408.4,165.2z"/>
		<path class="st0" d="M421.8,165.2v-36.4h5.9v36.4L421.8,165.2L421.8,165.2z"/>
	</g>
	<g>
		<g id="Guld_sköld_1_">
			<g>
				<path class="st0" d="M246.8,32.5l-0.8-3.4l-3.4,0.7c-41.6,8.9-76.7-12-77-12.2l-1.8-1.1l-1.8,1.1c-0.3,0.2-35.4,21.2-77,12.4
					l-3.4-0.7l-0.8,3.4c-0.1,0.6-3.6,16.1-2.8,41.7c2.5,80.2,54.1,132.3,84.3,150.5l1.8,1.1l1.8-1.1c30.1-18.2,81.6-70.5,83.9-150.7
					C250.4,48.6,246.9,33.2,246.8,32.5z"/>
			</g>
		</g>
		<g>
			<path class="st1" d="M196.3,36.5c-16.3-3.5-28.1-9.3-32.5-11.7C156,29,124.8,44.3,87,37.6c-1,5.7-2.6,18.7-2.1,36.6
				c0.6,20.8,4.7,39.7,10.9,56.5L196.3,36.5z"/>
			<path class="st2" d="M164,217.7c28.7-18.2,75.4-67,78.6-141L127.4,184.9C140,199.9,153.3,211,164,217.7z"/>
			<g>
				<path class="st3" d="M126.5,132l-0.5,0.5l11.7,12.5l0.5-0.5c2.9-2.7,4.1-7.4,0-11.8C134.5,128.7,129.6,129.1,126.5,132z"/>
				<path class="st3" d="M240.6,37.4c-14,2.5-27.1,2-38.4,0.1l-104.4,98c7.1,17.7,16.5,32.9,26.5,45.5L242.8,69.9
					C242.9,54.2,241.4,42.7,240.6,37.4z M144.8,150l-8.3,7.8l-23.5-25l8.3-7.8c7-6.5,17.4-6,24,1C151.9,133.1,151.8,143.5,144.8,150
					z M165.4,132c-2.1,2-5.4,1.9-7.4-0.2c-2-2.1-1.9-5.4,0.2-7.4c2.1-2,5.4-1.9,7.4,0.2C167.6,126.7,167.5,130,165.4,132z
					 M176.2,120.5l-23.5-25l7.2-6.7l23.5,25L176.2,120.5z M195.5,103.7c-2.1,2-5.4,1.9-7.4-0.2s-1.9-5.4,0.2-7.4
					c2.1-2,5.4-1.9,7.4,0.2C197.8,98.4,197.6,101.7,195.5,103.7z M213.5,85.5l-7.1,6.7l-23.5-25l14.9-14l6,6.4l-7.8,7.3l3.9,4.1
					l7.6-7.2l6,6.4l-7.6,7.2L213.5,85.5z M227.7,73.5c-2.1,2-5.4,1.9-7.4-0.2s-1.9-5.4,0.2-7.4c2.1-2,5.4-1.9,7.4,0.2
					S229.8,71.5,227.7,73.5z"/>
			</g>
		</g>
	</g>
</g>
<g>
	<g>
		<g>
			<path class="st0" d="M246.9,309.8l-0.8-3.4l-3.4,0.7c-41.6,8.9-76.7-12-77.1-12.2l-1.8-1.1L162,295c-0.3,0.2-35.4,21.2-77.1,12.4
				l-3.4-0.7l-0.8,3.4c-0.1,0.6-3.6,16.1-2.8,41.7c2.5,80.2,54.2,132.4,84.3,150.6l1.8,1.1l1.8-1.1c30.1-18.2,81.7-70.5,83.9-150.8
				C250.6,325.9,247.1,310.5,246.9,309.8z"/>
		</g>
	</g>
	<path class="st1" d="M196.4,313.8c-16.3-3.5-28.1-9.3-32.5-11.7c-7.8,4.3-39,19.5-76.8,12.9c-1,5.8-2.6,18.7-2.1,36.6
		c0.6,20.9,4.7,39.7,10.9,56.5L196.4,313.8z"/>
	<path class="st2" d="M164.1,495.2c28.7-18.2,75.4-67,78.6-141.1L127.5,462.3C140.1,477.3,153.4,488.4,164.1,495.2z"/>
	<path class="st3" d="M138.4,410.1c4.1,4.3,2.8,9.1,0,11.8l-0.5,0.5l-11.7-12.5l0.5-0.5C129.7,406.4,134.6,406.1,138.4,410.1z
		 M242.9,347.2L124.4,458.5c-10-12.6-19.4-27.9-26.6-45.5l104.5-98.1c11.3,1.8,24.4,2.4,38.4-0.1C241.6,320,243.1,331.5,242.9,347.2
		z M145.4,403.4c-6.6-7-17-7.5-24-1l-8.3,7.8l23.5,25l8.3-7.8C151.9,420.9,152,410.5,145.4,403.4z M165.7,402
		c-2-2.1-5.3-2.2-7.4-0.2c-2.1,2-2.2,5.3-0.2,7.4c2,2.1,5.3,2.2,7.4,0.2C167.6,407.4,167.7,404.1,165.7,402z M183.5,391.1l-23.5-25
		l-7.2,6.8l23.5,25L183.5,391.1z M195.9,373.6c-2-2.1-5.3-2.2-7.4-0.2c-2.1,2-2.2,5.3-0.2,7.4c2,2.1,5.3,2.2,7.4,0.2
		C197.8,379.1,197.9,375.7,195.9,373.6z M206.1,354.7l7.6-7.2l-6-6.4l-7.6,7.2l-3.9-4.1l7.8-7.3l-6-6.4l-14.9,14l23.5,25l7.1-6.7
		L206.1,354.7z M228.1,343.4c-2-2.1-5.3-2.2-7.4-0.2c-2.1,2-2.2,5.3-0.2,7.4c2,2.1,5.3,2.2,7.4,0.2
		C230,348.8,230.1,345.5,228.1,343.4z"/>
	<g>
		<g>
			<g>
				<g>
					<path class="st0" d="M276.2,390.2v-34.9h11.4c2,0,3.9,0.3,5.6,1c1.8,0.7,3.4,1.7,4.8,3.1c1.4,1.4,2.6,3.2,3.4,5.5
						c0.8,2.3,1.3,4.9,1.3,7.8c0,3.2-0.4,6-1.3,8.3c-0.9,2.4-2,4.2-3.5,5.5c-1.5,1.3-3.1,2.2-4.9,2.8c-1.7,0.6-3.6,0.9-5.7,0.9
						H276.2z M282.1,384.8h5.1c2.9,0,5.2-0.9,6.8-2.6c1.6-1.8,2.4-4.9,2.4-9.4c0-4.1-0.8-7.1-2.4-9c-1.6-2-3.8-2.9-6.5-2.9h-5.4
						V384.8z"/>
					<path class="st0" d="M305,399.9V394h1.1c1.3,0,2-0.8,2-2.4v-27.8h5.7V393c0,4.6-2.1,6.9-6.4,6.9H305z M308,359.5v-5.6h5.9v5.6
						H308z"/>
					<path class="st0" d="M320.6,380.9v-17.1h5.7v16.4c0,2,0.4,3.3,1.1,4.1c0.7,0.8,1.9,1.2,3.6,1.2c1.7,0,3-0.5,4-1.4
						c1-0.9,1.5-2.4,1.5-4.3v-16h5.7v26.4h-5.5v-2.5h-0.1c-1.6,2.2-3.8,3.3-6.8,3.3c-3,0-5.3-0.9-6.8-2.6
						C321.3,386.6,320.6,384.1,320.6,380.9z"/>
				</g>
			</g>
			<g>
				<g>
					<path class="st0" d="M349,390.2v-26.4h5.4v2.8h0.1c0.5-1,1.3-1.8,2.3-2.4c1-0.6,2.1-0.9,3.2-0.9c0.8,0,1.5,0.2,2.3,0.5
						l-0.9,5.5c-1-0.3-1.7-0.4-2.1-0.4c-3.1,0-4.6,2.2-4.6,6.6v14.7H349z"/>
				</g>
			</g>
			<g>
				<g>
					<path class="st0" d="M365.7,395.4l4.4-2.8c0.7,1.5,1.5,2.7,2.5,3.4c1,0.8,2.3,1.1,4,1.1c1.8,0,3.3-0.5,4.3-1.5
						c1.1-1,1.6-2.5,1.6-4.5v-3.4h-0.1c-0.6,0.9-1.5,1.6-2.7,2.2c-1.2,0.6-2.6,0.9-4.1,0.9c-3.4,0-6.3-1.2-8.5-3.7
						s-3.4-5.9-3.4-10.2c0-4.3,1.2-7.6,3.5-10.2c2.3-2.5,5.1-3.8,8.3-3.8c3.1,0,5.5,1.1,7.1,3.3h0.1v-2.5h5.5v26.6
						c0,3.8-1.1,6.7-3.2,8.8s-4.9,3-8.4,3c-2.7,0-5-0.6-6.9-1.9C367.9,399.1,366.5,397.4,365.7,395.4z M382.5,380.3v-6.4
						c0-1.6-0.6-2.9-1.7-4c-1.1-1.1-2.6-1.7-4.4-1.7c-2.1,0-3.8,0.8-5.1,2.3c-1.3,1.5-1.9,3.7-1.9,6.5c0,2.8,0.6,5,1.9,6.5
						c1.3,1.5,3,2.3,5.1,2.3c1.8,0,3.3-0.5,4.4-1.6C382,383.1,382.5,381.8,382.5,380.3z"/>
					<path class="st0" d="M410.1,390.2v-2.6H410c-0.1,0.2-0.3,0.4-0.6,0.7c-0.3,0.3-0.7,0.6-1.3,1.1c-0.6,0.4-1.4,0.8-2.3,1.1
						c-1,0.3-2.1,0.4-3.3,0.4c-3.1,0-5.4-0.7-7-2.2c-1.6-1.5-2.3-3.3-2.3-5.5c0-2.3,0.7-4,2-5.2c1.4-1.2,3.7-2.2,6.9-3
						c2.9-0.7,4.8-1.3,5.7-1.8c0.9-0.5,1.3-1.2,1.3-2.1c0-0.9-0.4-1.6-1.2-2.2c-0.8-0.6-2-0.9-3.6-0.9c-1.8,0-3.2,0.4-4,1.2
						c-0.8,0.8-1.5,2-1.9,3.4l-4.8-1.8c0.4-1.9,1.3-3.5,2.7-4.8c1.3-1.3,3.1-2.2,5.3-2.6c-1.4-1-2.1-2.5-2.1-4.4
						c0-1.5,0.5-2.7,1.5-3.7c1-1,2.2-1.5,3.6-1.5c1.5,0,2.7,0.5,3.7,1.5c1,1,1.4,2.3,1.4,3.8c0,2-0.7,3.5-2.2,4.5
						c2.3,0.5,4.1,1.5,5.4,3.1c1.3,1.6,2,3.8,2,6.6v17.1H410.1z M403.3,379c-1.9,0.5-3.1,1-3.7,1.6c-0.6,0.6-0.9,1.3-0.9,2.2
						c0,2.1,1.4,3.2,4.3,3.2c2.1,0,3.7-0.4,4.8-1.3c1.1-0.9,1.6-1.9,1.6-3.1v-5.3h-0.1c-0.1,0.3-0.3,0.5-0.5,0.7
						c-0.2,0.2-0.8,0.5-1.7,0.8C406.2,378.2,405,378.6,403.3,379z M403.2,360.8c0.4,0.5,0.9,0.7,1.5,0.7c0.6,0,1.1-0.2,1.5-0.7
						c0.4-0.5,0.7-1.1,0.7-1.9c0-0.8-0.2-1.5-0.6-1.9c-0.4-0.4-0.9-0.7-1.5-0.7c-0.6,0-1.1,0.2-1.5,0.7c-0.4,0.4-0.6,1.1-0.6,1.9
						C402.5,359.7,402.7,360.3,403.2,360.8z"/>
					<path class="st0" d="M421.4,390.2v-26.4h5.4v2.8h0.1c0.5-1,1.3-1.8,2.3-2.4c1-0.6,2.1-0.9,3.2-0.9c0.8,0,1.5,0.2,2.3,0.5
						l-0.9,5.5c-1-0.3-1.7-0.4-2.1-0.4c-3.1,0-4.6,2.2-4.6,6.6v14.7H421.4z"/>
					<path class="st0" d="M456,390.2v-2.5h-0.1c-0.3,0.4-0.6,0.7-1,1.1c-0.4,0.4-1.2,0.8-2.4,1.4c-1.2,0.5-2.5,0.8-3.8,0.8
						c-3.5,0-6.3-1.3-8.3-3.8c-2.1-2.5-3.1-5.9-3.1-10.2c0-4.3,1.1-7.6,3.4-10.2c2.2-2.5,4.9-3.8,8-3.8c2.8,0,5.1,1.1,6.9,3.3h0.1
						v-12.5h5.7v36.4H456z M455.6,380.1v-6c0-1.6-0.5-3-1.6-4.2c-1.1-1.2-2.6-1.7-4.4-1.7c-2.1,0-3.8,0.8-4.9,2.3
						c-1.2,1.5-1.7,3.7-1.7,6.6c0,2.9,0.6,5,1.7,6.6c1.2,1.5,2.8,2.3,4.9,2.3c1.8,0,3.2-0.6,4.4-1.7
						C455,383,455.6,381.7,455.6,380.1z"/>
					<path class="st0" d="M485.8,381.4l4.1,3.3c-2.6,4.1-6.2,6.2-11,6.2c-3.7,0-6.6-1.3-8.9-3.8c-2.3-2.5-3.5-5.9-3.5-10.1
						c0-4.2,1.1-7.6,3.4-10.1c2.3-2.5,5.2-3.8,8.7-3.8c3.5,0,6.4,1.3,8.6,3.8c2.2,2.5,3.4,5.9,3.4,10.2v1.7h-18.4
						c0.1,2.2,0.7,3.9,1.8,5.3c1.1,1.3,2.7,2,4.8,2c1,0,1.8-0.1,2.6-0.4c0.8-0.3,1.4-0.7,2-1.2c0.6-0.5,1-1,1.3-1.4
						C485.1,382.5,485.4,382,485.8,381.4z M472.3,374.4h12.9c-0.1-1.9-0.7-3.4-1.8-4.6c-1.1-1.2-2.7-1.8-4.7-1.8
						c-1.9,0-3.4,0.6-4.5,1.9C473,371.2,472.4,372.7,472.3,374.4z"/>
					<path class="st0" d="M495.9,390.2v-26.4h5.5v2.5h0.1c0.7-0.9,1.7-1.7,3-2.3c1.3-0.6,2.7-0.9,4.1-0.9c2.9,0,5.2,0.9,6.9,2.6
						c1.7,1.7,2.5,4.2,2.5,7.3v17.3h-5.6v-15.8c0-4.1-1.7-6.1-5.1-6.1c-1.7,0-3.1,0.5-4.1,1.5c-1,1-1.5,2.3-1.5,4v16.4H495.9z"/>
				</g>
			</g>
		</g>
		<g>
			<g>
				<path class="st0" d="M276.2,442.6v-34.9h5.9V422h13.2v-14.4h5.9v34.9h-5.9v-15.4h-13.2v15.4H276.2z"/>
				<path class="st0" d="M326.9,439.6c-2.3,2.5-5.2,3.7-8.7,3.7c-3.6,0-6.5-1.2-8.8-3.7c-2.3-2.5-3.5-5.9-3.5-10.3
					c0-4.3,1.2-7.7,3.6-10.2c2.4-2.5,5.3-3.7,8.7-3.7c3.4,0,6.3,1.2,8.6,3.7c2.3,2.5,3.5,5.9,3.5,10.2
					C330.3,433.7,329.1,437.2,326.9,439.6z M318.1,438.2c2,0,3.5-0.8,4.8-2.3c1.2-1.5,1.8-3.7,1.8-6.5c0-2.8-0.6-5-1.8-6.5
					c-1.2-1.5-2.8-2.3-4.8-2.3c-2,0-3.6,0.8-4.8,2.3c-1.2,1.5-1.8,3.7-1.8,6.5c0,2.9,0.6,5,1.8,6.6
					C314.5,437.4,316.1,438.2,318.1,438.2z"/>
				<path class="st0" d="M351.6,432l5.6,1.2c-0.5,3.2-1.7,5.7-3.6,7.4c-1.9,1.8-4.4,2.6-7.5,2.6c-3.6,0-6.5-1.2-8.8-3.7
					c-2.3-2.5-3.4-5.9-3.4-10.3c0-4.2,1.2-7.6,3.5-10.1c2.3-2.5,5.2-3.8,8.7-3.8c3,0,5.5,0.9,7.5,2.7c2,1.8,3.1,4.2,3.4,7.1
					l-5.3,0.9c-0.6-3.7-2.4-5.5-5.5-5.5c-2,0-3.6,0.8-4.8,2.3c-1.2,1.5-1.8,3.7-1.8,6.5c0,2.8,0.6,5,1.7,6.5
					c1.2,1.5,2.8,2.3,4.9,2.3C349.1,438.2,351,436.1,351.6,432z"/>
				<path class="st0" d="M362.2,442.6v-36.4h5.7v21.3h0.1l10.1-11.3h7.2l-9.6,10.6l10.6,15.8h-6.4l-8.4-12.5h-0.1l-3.5,3.9v8.6
					H362.2z"/>
				<path class="st0" d="M405.3,433.8l4.1,3.3c-2.6,4.1-6.2,6.2-11,6.2c-3.7,0-6.6-1.3-8.9-3.8c-2.3-2.5-3.5-5.9-3.5-10.1
					c0-4.2,1.1-7.6,3.4-10.1c2.3-2.5,5.2-3.8,8.7-3.8c3.5,0,6.4,1.3,8.6,3.8c2.2,2.5,3.4,5.9,3.4,10.2v1.7h-18.4
					c0.1,2.2,0.7,3.9,1.8,5.3c1.1,1.3,2.7,2,4.8,2c1,0,1.8-0.1,2.6-0.4c0.8-0.3,1.4-0.7,2-1.2c0.6-0.5,1-1,1.3-1.4
					C404.6,434.9,404.9,434.4,405.3,433.8z M391.8,426.8h12.9c-0.1-1.9-0.7-3.4-1.8-4.6c-1.1-1.2-2.7-1.8-4.7-1.8
					c-1.9,0-3.4,0.6-4.5,1.9C392.5,423.6,391.9,425.1,391.8,426.8z"/>
				<path class="st0" d="M416.5,453.8l5-12.4l-10.3-25.2h6l6.9,18.2h0.1l6.9-18.2h5.9l-15,37.6H416.5z"/>
			</g>
		</g>
	</g>
</g>
</svg>
