<?xml version="1.0" encoding="utf-8"?>
<!-- Generator: Adobe Illustrator 21.0.2, SVG Export Plug-In . SVG Version: 6.00 Build 0)  -->
<svg version="1.1" id="Layer_1" xmlns="http://www.w3.org/2000/svg" xmlns:xlink="http://www.w3.org/1999/xlink" x="0px" y="0px"
	 viewBox="0 0 1600 681" style="enable-background:new 0 0 1600 681;" xml:space="preserve">
<style type="text/css">
	.st0{fill:#FFFFFF;}
	.st1{opacity:0.5;enable-background:new    ;}
	.st2{clip-path:url(#SVGID_2_);}
	.st3{opacity:0.25;enable-background:new    ;}
	.st4{clip-path:url(#SVGID_4_);}
	.st5{fill:none;stroke:#00FFFF;stroke-width:0.5;stroke-miterlimit:10;}
	.st6{clip-path:url(#SVGID_6_);}
	.st7{clip-path:url(#SVGID_8_);}
	.st8{clip-path:url(#SVGID_10_);}
	.st9{clip-path:url(#SVGID_12_);}
</style>
<title>expressive_positioning_grid</title>
<g>
	<rect x="1121.1" class="st0" width="478.9" height="677.3"/>
	<polygon class="st1" points="1121.1,668.5 1518.1,271.5 1360.5,113.9 1121.1,353.4 	"/>
	<rect x="0.4" class="st0" width="478.9" height="677.3"/>
	<g>
		<defs>
			<rect id="SVGID_1_" x="0.4" y="260.7" width="239.5" height="416.6"/>
		</defs>
		<clipPath id="SVGID_2_">
			<use xlink:href="#SVGID_1_"  style="overflow:visible;"/>
		</clipPath>
		<g class="st2">
			<polygon class="st3" points="0.8,634.7 296.8,338.7 240.3,282.2 0.8,521.8 			"/>
			<polygon class="st3" points="181.8,677.3 408.6,450.5 352.2,394.1 68.9,677.3 			"/>
		</g>
	</g>
	<g>
		<defs>
			<rect id="SVGID_3_" x="239.9" y="260.7" width="239.5" height="416.6"/>
		</defs>
		<clipPath id="SVGID_4_">
			<use xlink:href="#SVGID_3_"  style="overflow:visible;"/>
		</clipPath>
		<g class="st4">
			<polygon class="st1" points="479.4,522.3 239.4,282.2 182.9,338.7 479.4,635.2 			"/>
			<polygon class="st1" points="410.8,677.3 127.5,394.1 71.1,450.5 297.9,677.3 			"/>
		</g>
	</g>
	<rect x="0.4" class="st5" width="478.9" height="677.3"/>
	<line class="st5" x1="479.3" y1="56.5" x2="0.4" y2="56.5"/>
	<line class="st5" x1="479.3" y1="112.9" x2="0.4" y2="112.9"/>
	<line class="st5" x1="479.3" y1="169.3" x2="0.4" y2="169.3"/>
	<line class="st5" x1="479.3" y1="225.8" x2="0.4" y2="225.8"/>
	<line class="st5" x1="479.3" y1="282.2" x2="0.4" y2="282.2"/>
	<line class="st5" x1="479.3" y1="338.7" x2="0.4" y2="338.7"/>
	<line class="st5" x1="479.3" y1="395.1" x2="0.4" y2="395.1"/>
	<line class="st5" x1="479.3" y1="451.6" x2="0.4" y2="451.6"/>
	<line class="st5" x1="479.3" y1="508" x2="0.4" y2="508"/>
	<line class="st5" x1="479.3" y1="564.4" x2="0.4" y2="564.4"/>
	<line class="st5" x1="479.3" y1="620.9" x2="0.4" y2="620.9"/>
	<rect x="0.4" class="st5" width="478.9" height="677.3"/>
	<line class="st5" x1="40.3" y1="677.3" x2="40.3" y2="0"/>
	<line class="st5" x1="80.2" y1="677.3" x2="80.2" y2="0"/>
	<line class="st5" x1="120.1" y1="677.3" x2="120.1" y2="0"/>
	<line class="st5" x1="160" y1="677.3" x2="160" y2="0"/>
	<line class="st5" x1="199.9" y1="677.3" x2="199.9" y2="0"/>
	<line class="st5" x1="239.8" y1="677.3" x2="239.8" y2="0"/>
	<line class="st5" x1="279.8" y1="677.3" x2="279.8" y2="0"/>
	<line class="st5" x1="319.7" y1="677.3" x2="319.7" y2="0"/>
	<line class="st5" x1="359.6" y1="677.3" x2="359.6" y2="0"/>
	<line class="st5" x1="399.5" y1="677.3" x2="399.5" y2="0"/>
	<line class="st5" x1="439.4" y1="677.3" x2="439.4" y2="0"/>
	<rect class="st0" width="478.9" height="677.3"/>
	<g>
		<defs>
			<rect id="SVGID_5_" y="260.7" width="239.5" height="416.6"/>
		</defs>
		<clipPath id="SVGID_6_">
			<use xlink:href="#SVGID_5_"  style="overflow:visible;"/>
		</clipPath>
		<g class="st6">
			<polygon class="st3" points="0.4,634.7 296.4,338.7 239.9,282.2 0.4,521.8 			"/>
			<polygon class="st3" points="181.4,677.3 408.2,450.5 351.8,394.1 68.5,677.3 			"/>
		</g>
	</g>
	<g>
		<defs>
			<rect id="SVGID_7_" x="239.5" y="260.7" width="239.5" height="416.6"/>
		</defs>
		<clipPath id="SVGID_8_">
			<use xlink:href="#SVGID_7_"  style="overflow:visible;"/>
		</clipPath>
		<g class="st7">
			<polygon class="st1" points="479,522.3 239,282.2 182.5,338.7 479,635.2 			"/>
			<polygon class="st1" points="410.4,677.3 127.1,394.1 70.7,450.5 297.5,677.3 			"/>
		</g>
	</g>
	<rect class="st5" width="478.9" height="677.3"/>
	<line class="st5" x1="478.9" y1="56.5" x2="0" y2="56.5"/>
	<line class="st5" x1="478.9" y1="112.9" x2="0" y2="112.9"/>
	<line class="st5" x1="478.9" y1="169.3" x2="0" y2="169.3"/>
	<line class="st5" x1="478.9" y1="225.8" x2="0" y2="225.8"/>
	<line class="st5" x1="478.9" y1="282.2" x2="0" y2="282.2"/>
	<line class="st5" x1="478.9" y1="338.7" x2="0" y2="338.7"/>
	<line class="st5" x1="478.9" y1="395.1" x2="0" y2="395.1"/>
	<line class="st5" x1="478.9" y1="451.6" x2="0" y2="451.6"/>
	<line class="st5" x1="478.9" y1="508" x2="0" y2="508"/>
	<line class="st5" x1="478.9" y1="564.4" x2="0" y2="564.4"/>
	<line class="st5" x1="478.9" y1="620.9" x2="0" y2="620.9"/>
	<rect class="st5" width="478.9" height="677.3"/>
	<line class="st5" x1="39.9" y1="677.3" x2="39.9" y2="0"/>
	<line class="st5" x1="79.8" y1="677.3" x2="79.8" y2="0"/>
	<line class="st5" x1="119.7" y1="677.3" x2="119.7" y2="0"/>
	<line class="st5" x1="159.6" y1="677.3" x2="159.6" y2="0"/>
	<line class="st5" x1="199.5" y1="677.3" x2="199.5" y2="0"/>
	<line class="st5" x1="239.5" y1="677.3" x2="239.5" y2="0"/>
	<line class="st5" x1="279.4" y1="677.3" x2="279.4" y2="0"/>
	<line class="st5" x1="319.3" y1="677.3" x2="319.3" y2="0"/>
	<line class="st5" x1="359.2" y1="677.3" x2="359.2" y2="0"/>
	<line class="st5" x1="399.1" y1="677.3" x2="399.1" y2="0"/>
	<line class="st5" x1="439" y1="677.3" x2="439" y2="0"/>
	<rect x="560.9" class="st0" width="478.9" height="677.3"/>
	<g>
		<defs>
			<rect id="SVGID_9_" x="560.9" width="472.8" height="338.7"/>
		</defs>
		<clipPath id="SVGID_10_">
			<use xlink:href="#SVGID_9_"  style="overflow:visible;"/>
		</clipPath>
		<g class="st8">
			<polygon class="st1" points="621.4,0 560.5,0 560.5,180.5 838.6,458.6 959.3,337.9 			"/>
		</g>
	</g>
	<g>
		<defs>
			<rect id="SVGID_11_" x="560.9" y="338.7" width="472.8" height="338.7"/>
		</defs>
		<clipPath id="SVGID_12_">
			<use xlink:href="#SVGID_11_"  style="overflow:visible;"/>
		</clipPath>
		<g class="st9">
			<polygon class="st3" points="621.4,677.3 959.3,339.4 838.6,218.7 560.5,496.8 560.5,677.3 			"/>
		</g>
	</g>
	<rect x="560.9" class="st5" width="478.9" height="677.3"/>
	<line class="st5" x1="1039.8" y1="56.5" x2="560.9" y2="56.5"/>
	<line class="st5" x1="1039.8" y1="112.9" x2="560.9" y2="112.9"/>
	<line class="st5" x1="1039.8" y1="169.3" x2="560.9" y2="169.3"/>
	<line class="st5" x1="1039.8" y1="225.8" x2="560.9" y2="225.8"/>
	<line class="st5" x1="1039.8" y1="282.2" x2="560.9" y2="282.2"/>
	<line class="st5" x1="1039.8" y1="338.7" x2="560.9" y2="338.7"/>
	<line class="st5" x1="1039.8" y1="395.1" x2="560.9" y2="395.1"/>
	<line class="st5" x1="1039.8" y1="451.6" x2="560.9" y2="451.6"/>
	<line class="st5" x1="1039.8" y1="508" x2="560.9" y2="508"/>
	<line class="st5" x1="1039.8" y1="564.4" x2="560.9" y2="564.4"/>
	<line class="st5" x1="1039.8" y1="620.9" x2="560.9" y2="620.9"/>
	<rect x="560.9" class="st5" width="478.9" height="677.3"/>
	<line class="st5" x1="600.8" y1="677.3" x2="600.8" y2="0"/>
	<line class="st5" x1="640.7" y1="677.3" x2="640.7" y2="0"/>
	<line class="st5" x1="680.6" y1="677.3" x2="680.6" y2="0"/>
	<line class="st5" x1="720.5" y1="677.3" x2="720.5" y2="0"/>
	<line class="st5" x1="760.5" y1="677.3" x2="760.5" y2="0"/>
	<line class="st5" x1="800.4" y1="677.3" x2="800.4" y2="0"/>
	<line class="st5" x1="840.3" y1="677.3" x2="840.3" y2="0"/>
	<line class="st5" x1="880.2" y1="677.3" x2="880.2" y2="0"/>
	<line class="st5" x1="920.1" y1="677.3" x2="920.1" y2="0"/>
	<line class="st5" x1="960" y1="677.3" x2="960" y2="0"/>
	<line class="st5" x1="999.9" y1="677.3" x2="999.9" y2="0"/>
	<rect x="1121.1" class="st5" width="478.9" height="677.3"/>
	<line class="st5" x1="1600" y1="56.5" x2="1121.1" y2="56.5"/>
	<line class="st5" x1="1600" y1="112.9" x2="1121.1" y2="112.9"/>
	<line class="st5" x1="1600" y1="169.3" x2="1121.1" y2="169.3"/>
	<line class="st5" x1="1600" y1="225.8" x2="1121.1" y2="225.8"/>
	<line class="st5" x1="1600" y1="282.2" x2="1121.1" y2="282.2"/>
	<line class="st5" x1="1600" y1="338.7" x2="1121.1" y2="338.7"/>
	<line class="st5" x1="1600" y1="395.1" x2="1121.1" y2="395.1"/>
	<line class="st5" x1="1600" y1="451.6" x2="1121.1" y2="451.6"/>
	<line class="st5" x1="1600" y1="508" x2="1121.1" y2="508"/>
	<line class="st5" x1="1600" y1="564.4" x2="1121.1" y2="564.4"/>
	<line class="st5" x1="1600" y1="620.9" x2="1121.1" y2="620.9"/>
	<rect x="1121.1" class="st5" width="478.9" height="677.3"/>
	<line class="st5" x1="1161" y1="677.3" x2="1161" y2="0"/>
	<line class="st5" x1="1200.9" y1="677.3" x2="1200.9" y2="0"/>
	<line class="st5" x1="1240.8" y1="677.3" x2="1240.8" y2="0"/>
	<line class="st5" x1="1280.7" y1="677.3" x2="1280.7" y2="0"/>
	<line class="st5" x1="1320.6" y1="677.3" x2="1320.6" y2="0"/>
	<line class="st5" x1="1360.5" y1="677.3" x2="1360.5" y2="0"/>
	<line class="st5" x1="1400.4" y1="677.3" x2="1400.4" y2="0"/>
	<line class="st5" x1="1440.4" y1="677.3" x2="1440.4" y2="0"/>
	<line class="st5" x1="1480.3" y1="677.3" x2="1480.3" y2="0"/>
	<line class="st5" x1="1520.2" y1="677.3" x2="1520.2" y2="0"/>
	<line class="st5" x1="1560.1" y1="677.3" x2="1560.1" y2="0"/>
</g>
</svg>
