<svg id="Layer_2" data-name="Layer 2" xmlns="http://www.w3.org/2000/svg" viewBox="0 0 520.75 169.83"><title>dif_maison_set</title><path d="M9,26.65V8.45h3.61l5.28,11.8H18l5.28-11.8h3.64v18.2H23.46V15.47h-.05L18.23,26.65h-.57L12.49,15.47h-.05V26.65Z" transform="translate(-7.08 -7.67)"/><path d="M38.64,26.65V25.32h-.05l-.13.2a2.94,2.94,0,0,1-.39.4,3.81,3.81,0,0,1-1.77.94,5.6,5.6,0,0,1-1.46.18,5.21,5.21,0,0,1-3.73-1.18A3.86,3.86,0,0,1,29.88,23a3.44,3.44,0,0,1,1.07-2.73,8.76,8.76,0,0,1,3.61-1.56,15,15,0,0,0,3-.91,1.05,1.05,0,0,0,.6-1,1.24,1.24,0,0,0-.58-1,3,3,0,0,0-1.75-.42,2.69,2.69,0,0,0-2,.61,4.15,4.15,0,0,0-.94,1.65l-2.81-1.17A5.36,5.36,0,0,1,32,13.58a6,6,0,0,1,3.74-1.1,6.3,6.3,0,0,1,4.13,1.33,5,5,0,0,1,1.61,4.11v8.74ZM35.24,21a3.61,3.61,0,0,0-1.7.74,1.38,1.38,0,0,0-.4,1q0,1.4,2,1.4a3.76,3.76,0,0,0,2.3-.58,1.76,1.76,0,0,0,.77-1.44V19.7h-.05A1.23,1.23,0,0,1,38,20a3.29,3.29,0,0,1-.79.39A15.35,15.35,0,0,1,35.24,21Z" transform="translate(-7.08 -7.67)"/><path d="M44.86,10.86V7.67h3.38v3.2Zm0,15.78V12.87h3.38V26.65Z" transform="translate(-7.08 -7.67)"/><path d="M50.84,22.1l3-.78Q54.24,24.2,57,24.2a4.17,4.17,0,0,0,2-.4,1.24,1.24,0,0,0,.74-1.13,1,1,0,0,0-.57-.9A15.46,15.46,0,0,0,56.74,21L56,20.74a9.79,9.79,0,0,1-3.51-1.6,3,3,0,0,1-1.12-2.46,3.86,3.86,0,0,1,1.39-3,5.5,5.5,0,0,1,3.81-1.25q4.63,0,5.8,4.06l-2.81.86a3.7,3.7,0,0,0-1-1.56,3.52,3.52,0,0,0-3.51-.2,1.07,1.07,0,0,0-.58.9,1,1,0,0,0,.69.9,30.21,30.21,0,0,0,3.44,1.1,6.67,6.67,0,0,1,3.29,1.65,3.76,3.76,0,0,1,.87,2.56,3.94,3.94,0,0,1-1.44,3A6,6,0,0,1,57.1,27a6.22,6.22,0,0,1-4.41-1.44A5.86,5.86,0,0,1,50.84,22.1Z" transform="translate(-7.08 -7.67)"/><path d="M75.48,25.11a6.53,6.53,0,0,1-9.26,0,7.48,7.48,0,0,1-1.82-5.36,7.38,7.38,0,0,1,1.87-5.33,6.34,6.34,0,0,1,9.15,0,7.38,7.38,0,0,1,1.87,5.33A7.48,7.48,0,0,1,75.48,25.11ZM68.57,22.9a2.93,2.93,0,0,0,4.58,0A5.13,5.13,0,0,0,74,19.76a5.06,5.06,0,0,0-.85-3.13,2.91,2.91,0,0,0-4.55,0,5.06,5.06,0,0,0-.85,3.15A5.11,5.11,0,0,0,68.57,22.9Z" transform="translate(-7.08 -7.67)"/><path d="M80,26.65V12.87h3.25v1.33h.05A4.49,4.49,0,0,1,84.9,13,4.59,4.59,0,0,1,87,12.48a4.72,4.72,0,0,1,3.59,1.36,5.27,5.27,0,0,1,1.3,3.78v9H88.48V18.46a3.51,3.51,0,0,0-.55-2.15,2.21,2.21,0,0,0-1.87-.71,2.45,2.45,0,0,0-2.65,2.63v8.42Z" transform="translate(-7.08 -7.67)"/><path d="M102.13,26.65V8.45h7.72a5.36,5.36,0,0,1,3.89,1.42,4.64,4.64,0,0,1,1.47,3.47,3.78,3.78,0,0,1-2,3.46v0a4.32,4.32,0,0,1,1.91,1.57,4.46,4.46,0,0,1,.74,2.59,5.57,5.57,0,0,1-1.59,4.16q-1.59,1.51-5.23,1.51Zm3.51-10.87h3.77a2.55,2.55,0,0,0,1.68-.51,1.83,1.83,0,0,0,.61-1.5,2,2,0,0,0-.6-1.56,2.5,2.5,0,0,0-1.69-.52h-3.77Zm0,7.62h4.24a2.17,2.17,0,0,0,2.5-2.42,2.23,2.23,0,0,0-.66-1.73,2.56,2.56,0,0,0-1.81-.61h-4.26Z" transform="translate(-7.08 -7.67)"/><path d="M128.91,25.11a6.53,6.53,0,0,1-9.26,0,7.48,7.48,0,0,1-1.82-5.36,7.38,7.38,0,0,1,1.87-5.33,6.34,6.34,0,0,1,9.15,0,7.38,7.38,0,0,1,1.87,5.33A7.48,7.48,0,0,1,128.91,25.11ZM122,22.9a2.93,2.93,0,0,0,4.58,0,5.13,5.13,0,0,0,.83-3.13,5.06,5.06,0,0,0-.85-3.13,2.91,2.91,0,0,0-4.55,0,5.06,5.06,0,0,0-.85,3.15A5.11,5.11,0,0,0,122,22.9Z" transform="translate(-7.08 -7.67)"/><path d="M133.46,26.65v-19H137v19Z" transform="translate(-7.08 -7.67)"/><path d="M149.38,26.65V25.32h-.05q-.13.18-.38.47a4.45,4.45,0,0,1-1.2.77,4.51,4.51,0,0,1-2.07.48,5.35,5.35,0,0,1-4.35-2,8.09,8.09,0,0,1-1.62-5.3,7.65,7.65,0,0,1,1.77-5.32,5.43,5.43,0,0,1,4.16-2,4.39,4.39,0,0,1,2,.43,3.33,3.33,0,0,1,1.18.85l.34.44h.05V7.67h3.38v19ZM149.17,21V18.48a3,3,0,0,0-.79-2.11,2.81,2.81,0,0,0-2.17-.86,2.73,2.73,0,0,0-2.3,1.07,5.16,5.16,0,0,0-.82,3.17,5.16,5.16,0,0,0,.82,3.16A2.72,2.72,0,0,0,146.2,24a2.79,2.79,0,0,0,2.17-.87A3,3,0,0,0,149.17,21Z" transform="translate(-7.08 -7.67)"/><path d="M19.59,55.65l-1-3H11.6l-1,3H7.08l6.58-18.2h3l6.55,18.2Zm-4.52-13-2.47,7.1h5l-2.44-7.1Z" transform="translate(-7.08 -7.67)"/><path d="M33,55.65V54.32H33l-.13.2a2.94,2.94,0,0,1-.39.4,3.81,3.81,0,0,1-1.77.94,5.6,5.6,0,0,1-1.46.18,5.21,5.21,0,0,1-3.73-1.18A3.86,3.86,0,0,1,24.24,52a3.44,3.44,0,0,1,1.07-2.73,8.76,8.76,0,0,1,3.61-1.56,15,15,0,0,0,3-.91,1.05,1.05,0,0,0,.6-1,1.24,1.24,0,0,0-.58-1,3,3,0,0,0-1.75-.42,2.69,2.69,0,0,0-2,.61,4.15,4.15,0,0,0-.94,1.65l-2.81-1.17a5.36,5.36,0,0,1,1.92-2.85,6,6,0,0,1,3.74-1.1,6.3,6.3,0,0,1,4.13,1.33,5,5,0,0,1,1.61,4.11v8.74ZM29.6,50a3.61,3.61,0,0,0-1.7.74,1.38,1.38,0,0,0-.4,1q0,1.4,2,1.4a3.76,3.76,0,0,0,2.3-.58,1.76,1.76,0,0,0,.77-1.44V48.7h-.05a1.23,1.23,0,0,1-.22.32,3.29,3.29,0,0,1-.79.39A15.35,15.35,0,0,1,29.6,50Z" transform="translate(-7.08 -7.67)"/><path d="M39.48,55.65V37.45H47.2a5.36,5.36,0,0,1,3.89,1.42,4.64,4.64,0,0,1,1.47,3.47,3.78,3.78,0,0,1-2,3.46v0a4.32,4.32,0,0,1,1.91,1.57A4.46,4.46,0,0,1,53.23,50a5.57,5.57,0,0,1-1.59,4.16q-1.59,1.51-5.23,1.51ZM43,44.78h3.77a2.55,2.55,0,0,0,1.68-.51,1.83,1.83,0,0,0,.61-1.5,2,2,0,0,0-.6-1.56,2.5,2.5,0,0,0-1.69-.52H43Zm0,7.62h4.24A2.17,2.17,0,0,0,49.72,50a2.23,2.23,0,0,0-.66-1.73,2.56,2.56,0,0,0-1.81-.61H43Z" transform="translate(-7.08 -7.67)"/><path d="M56.09,55.65v-19h3.38v6.53h.05l.13-.19a2.75,2.75,0,0,1,.4-.4,5.18,5.18,0,0,1,.7-.52,4.1,4.1,0,0,1,1-.42A4.49,4.49,0,0,1,63,41.48a5.27,5.27,0,0,1,4.22,2,8,8,0,0,1,1.68,5.26,8.1,8.1,0,0,1-1.62,5.3A5.35,5.35,0,0,1,63,56a4.7,4.7,0,0,1-2-.43,3.61,3.61,0,0,1-1.25-.84l-.36-.44h-.05v1.33Zm3.38-8.16V50a3,3,0,0,0,.79,2.12,2.79,2.79,0,0,0,2.17.87,2.72,2.72,0,0,0,2.3-1.08,5.16,5.16,0,0,0,.82-3.16,5.15,5.15,0,0,0-.82-3.17,2.73,2.73,0,0,0-2.3-1.07,2.81,2.81,0,0,0-2.17.86A3,3,0,0,0,59.47,47.48Z" transform="translate(-7.08 -7.67)"/><path d="M82.35,48.42l3.64.81a8.32,8.32,0,0,1-2.31,5A6.71,6.71,0,0,1,78.79,56a7.33,7.33,0,0,1-5.71-2.43q-2.2-2.43-2.2-7.35a9.4,9.4,0,0,1,2.33-6.76,7.4,7.4,0,0,1,5.55-2.44,6.91,6.91,0,0,1,4.77,1.75,7.06,7.06,0,0,1,2.27,4.72l-3.48.55a5.4,5.4,0,0,0-1.09-2.72,3,3,0,0,0-2.44-1.05,3.77,3.77,0,0,0-3,1.56,6.87,6.87,0,0,0-1.25,4.39,8.17,8.17,0,0,0,1.21,4.93,3.71,3.71,0,0,0,3.08,1.6Q81.86,52.79,82.35,48.42Z" transform="translate(-7.08 -7.67)"/><path d="M97,50.08l3.2.83a6.33,6.33,0,0,1-2,3.8A5.85,5.85,0,0,1,94.23,56a6.05,6.05,0,0,1-4.62-1.92,7.52,7.52,0,0,1-1.81-5.36,7.4,7.4,0,0,1,1.86-5.34,6.11,6.11,0,0,1,4.59-1.94,5.71,5.71,0,0,1,3.87,1.35,5.83,5.83,0,0,1,1.92,3.61l-3.15.6q-.49-2.52-2.65-2.52A2.74,2.74,0,0,0,92,45.6a5,5,0,0,0-.85,3.16A5.1,5.1,0,0,0,92,51.91,2.73,2.73,0,0,0,94.26,53Q96.55,53,97,50.08Z" transform="translate(-7.08 -7.67)"/><path d="M103,55.65V37.45h6.08a7.9,7.9,0,0,1,2.94.55,7.71,7.71,0,0,1,2.5,1.61,7.45,7.45,0,0,1,1.78,2.85,11.62,11.62,0,0,1,.66,4.07,12.63,12.63,0,0,1-.68,4.34,6.67,6.67,0,0,1-1.85,2.85,7.74,7.74,0,0,1-2.54,1.47,9.12,9.12,0,0,1-3,.47Zm3.51-3.25H109a5.46,5.46,0,0,0,1.64-.22,3.39,3.39,0,0,0,1.33-.82,3.91,3.91,0,0,0,1-1.81,11.46,11.46,0,0,0,.34-3,7,7,0,0,0-1.13-4.43,3.65,3.65,0,0,0-3-1.39h-2.57Z" transform="translate(-7.08 -7.67)"/><path d="M128.5,55.65V54.32h-.05q-.13.18-.38.47a4.45,4.45,0,0,1-1.2.77,4.51,4.51,0,0,1-2.07.48,5.35,5.35,0,0,1-4.35-2,8.09,8.09,0,0,1-1.62-5.3,7.65,7.65,0,0,1,1.77-5.32,5.43,5.43,0,0,1,4.16-2,4.39,4.39,0,0,1,2,.43,3.33,3.33,0,0,1,1.18.85l.34.44h.05V36.67h3.38v19ZM128.29,50V47.48a3,3,0,0,0-.79-2.11,2.81,2.81,0,0,0-2.17-.86,2.73,2.73,0,0,0-2.3,1.07,5.16,5.16,0,0,0-.82,3.17,5.16,5.16,0,0,0,.82,3.16,2.72,2.72,0,0,0,2.3,1.08,2.79,2.79,0,0,0,2.17-.87A3,3,0,0,0,128.29,50Z" transform="translate(-7.08 -7.67)"/><path d="M135.57,55.65V37.45h11.52V40.7h-8v4.08h7.28V47.9h-7.28v4.5h8v3.25Z" transform="translate(-7.08 -7.67)"/><path d="M159.28,50.89,161.65,53A6.57,6.57,0,0,1,156,56a6.09,6.09,0,0,1-4.71-2,7.53,7.53,0,0,1-1.82-5.29,7.57,7.57,0,0,1,1.81-5.29,5.9,5.9,0,0,1,4.56-2,5.82,5.82,0,0,1,4.54,2,7.64,7.64,0,0,1,1.78,5.29v1h-9.26a3.7,3.7,0,0,0,.87,2.43,2.83,2.83,0,0,0,2.17.84,3.1,3.1,0,0,0,1.94-.58A6.75,6.75,0,0,0,159.28,50.89Zm-6.42-3.64h6a3.16,3.16,0,0,0-.91-2.07,3,3,0,0,0-2.13-.74,2.74,2.74,0,0,0-2,.81A3.15,3.15,0,0,0,152.86,47.25Z" transform="translate(-7.08 -7.67)"/><path d="M165.11,55.65V37.45h11.54V40.7h-8v4.81h7.31V48.6h-7.31v7Z" transform="translate(-7.08 -7.67)"/><path d="M180.08,55.65V44.73h-2.13V41.87h2.21v-2a3,3,0,0,1,.92-2.51,4.22,4.22,0,0,1,2.69-.74h2.7v3h-2a1.22,1.22,0,0,0-.87.25,1.17,1.17,0,0,0-.25.85v1.12h3.48v2.86h-3.38V55.65Z" transform="translate(-7.08 -7.67)"/><path d="M195.79,56a7.33,7.33,0,0,1-5.71-2.43q-2.2-2.43-2.2-7.35a9.4,9.4,0,0,1,2.33-6.76,7.4,7.4,0,0,1,5.55-2.44,6.83,6.83,0,0,1,7,6.19l-3.51.57q-.65-3.51-3.48-3.51a3.77,3.77,0,0,0-3,1.56,6.87,6.87,0,0,0-1.25,4.39,8.17,8.17,0,0,0,1.21,4.93,3.71,3.71,0,0,0,3.08,1.6,3.36,3.36,0,0,0,3.64-3.67H196v-3h6.73v2.42a7.54,7.54,0,0,1-2,5.47A6.71,6.71,0,0,1,195.79,56Z" transform="translate(-7.08 -7.67)"/><path d="M205.72,58.45l2.52-1.74a4.58,4.58,0,0,0,1.35,1.7,3.3,3.3,0,0,0,2,.53,3.12,3.12,0,0,0,2.12-.69,2.76,2.76,0,0,0,.79-2.2V54.32h-.05A3.17,3.17,0,0,1,213,55.53,4.39,4.39,0,0,1,211,56a5.81,5.81,0,0,1-4.45-1.94,7.56,7.56,0,0,1-1.79-5.34,7.45,7.45,0,0,1,1.85-5.32,5.78,5.78,0,0,1,4.34-2,4.26,4.26,0,0,1,3.64,1.72h.05V41.87h3.22V55.65a6,6,0,0,1-1.76,4.63,6.44,6.44,0,0,1-4.54,1.61,6.75,6.75,0,0,1-3.65-.94A5.45,5.45,0,0,1,205.72,58.45Zm8.74-8.29V47.33a2.73,2.73,0,0,0-.81-2,2.89,2.89,0,0,0-2.16-.82A3.06,3.06,0,0,0,209,45.61a4.7,4.7,0,0,0-.94,3.15,4.66,4.66,0,0,0,.95,3.15A3.08,3.08,0,0,0,211.49,53a2.89,2.89,0,0,0,2.16-.82A2.76,2.76,0,0,0,214.45,50.16Z" transform="translate(-7.08 -7.67)"/><path d="M221.6,55.65V37.45h3.51v7.33h6.24V37.45h3.51v18.2h-3.51V47.77h-6.24v7.88Z" transform="translate(-7.08 -7.67)"/><path d="M238.76,55.65v-19h3.38v6.53h.05a3.54,3.54,0,0,1,1.38-1.2,4.11,4.11,0,0,1,2-.52,4.64,4.64,0,0,1,3.51,1.35,5,5,0,0,1,1.3,3.64v9.18H247V47.22a2.87,2.87,0,0,0-.61-1.89,2.24,2.24,0,0,0-1.83-.74,2.3,2.3,0,0,0-1.78.66,2.45,2.45,0,0,0-.61,1.73v8.66Z" transform="translate(-7.08 -7.67)"/><path d="M254.26,55.65V37.45h3.51v18.2Z" transform="translate(-7.08 -7.67)"/><path d="M261.8,39.86v-3.2h3.38v3.2Zm0,15.78V41.87h3.38V55.65Z" transform="translate(-7.08 -7.67)"/><path d="M267.26,51.77l3.15-.91q.36,1.92,1.64,1.92a1.38,1.38,0,0,0,1.08-.39,2,2,0,0,0,.35-1.33V37.45H277V50.81a5.33,5.33,0,0,1-1.3,3.94A5,5,0,0,1,272,56a4.42,4.42,0,0,1-3.33-1.26A5.21,5.21,0,0,1,267.26,51.77Z" transform="translate(-7.08 -7.67)"/><path d="M279.19,60.72V57.21h.62q1,0,1-1.14V41.87h3.38V57q0,3.72-3.56,3.72Zm1.61-20.85v-3.2h3.38v3.2Z" transform="translate(-7.08 -7.67)"/><path d="M287.82,55.65V37.45h3.51v7.64h.05l6.45-7.64h4.08l-6.81,8,7.36,10.17h-4.24l-5.49-7.49h-.05L291.33,50v5.69Z" transform="translate(-7.08 -7.67)"/><path d="M304,55.65v-19h3.38V47.56h.05l5-5.69h4.24l-5,5.59,5.41,8.19h-3.74l-4.21-6.29h-.05l-1.74,2v4.32Z" transform="translate(-7.08 -7.67)"/><path d="M319.23,55.65V37.45h3.51v15h7.51v3.25Z" transform="translate(-7.08 -7.67)"/><path d="M332.46,55.65v-19H336v19Z" transform="translate(-7.08 -7.67)"/><path d="M339.87,55.65V37.45h3.61l5.28,11.8h.05l5.28-11.8h3.64v18.2H354.3V44.47h-.05l-5.17,11.18h-.57l-5.17-11.18h-.05V55.65Z" transform="translate(-7.08 -7.67)"/><path d="M361.64,55.65V41.87h3.09v1.33h.05A3.7,3.7,0,0,1,366.15,42a4,4,0,0,1,2-.49,4.34,4.34,0,0,1,2.05.51,3.65,3.65,0,0,1,1.46,1.31h.05A3.84,3.84,0,0,1,373.15,42a4.45,4.45,0,0,1,2.11-.51,5.63,5.63,0,0,1,3.91,1.3,4.4,4.4,0,0,1,1.44,3.43v9.44h-3.09V46.91a2.39,2.39,0,0,0-.58-1.66,2.31,2.31,0,0,0-1.81-.65,2.41,2.41,0,0,0-1.76.6,2.05,2.05,0,0,0-.61,1.53v8.92h-3.09V46.91a2.21,2.21,0,0,0-2.39-2.31,2.4,2.4,0,0,0-1.77.6,2.08,2.08,0,0,0-.6,1.53v8.92Z" transform="translate(-7.08 -7.67)"/><path d="M384.39,55.65V37.45h3.51l6.66,11.93h.05V37.45h3.54v18.2h-3.46l-6.73-11.93h-.05V55.65Z" transform="translate(-7.08 -7.67)"/><path d="M402,55.65V41.87h3.25v1.33h.05A4.5,4.5,0,0,1,406.9,42a4.6,4.6,0,0,1,2.08-.49,4.72,4.72,0,0,1,3.59,1.36,5.26,5.26,0,0,1,1.3,3.78v9h-3.38V47.46a3.51,3.51,0,0,0-.55-2.15,2.21,2.21,0,0,0-1.87-.71,2.45,2.45,0,0,0-2.65,2.63v8.42Z" transform="translate(-7.08 -7.67)"/><path d="M427.44,55.49a8.18,8.18,0,0,1-5.88,0,7.27,7.27,0,0,1-4.3-4.67,13.5,13.5,0,0,1-.66-4.43,11.85,11.85,0,0,1,.66-4.08,7.94,7.94,0,0,1,1.79-3,7.86,7.86,0,0,1,2.52-1.72,7.61,7.61,0,0,1,5.85,0A7.86,7.86,0,0,1,430,39.36a7.94,7.94,0,0,1,1.79,3,11.85,11.85,0,0,1,.66,4.08,13.5,13.5,0,0,1-.66,4.43,7.27,7.27,0,0,1-4.3,4.67Zm-6-4.23a3.83,3.83,0,0,0,6.14,0q1.2-1.52,1.2-4.9a7.16,7.16,0,0,0-1.24-4.52,3.73,3.73,0,0,0-6.07,0,7.21,7.21,0,0,0-1.22,4.52A8,8,0,0,0,421.44,51.26Z" transform="translate(-7.08 -7.67)"/><path d="M445.43,54.11a6.53,6.53,0,0,1-9.26,0,7.48,7.48,0,0,1-1.82-5.36,7.38,7.38,0,0,1,1.87-5.33,6.34,6.34,0,0,1,9.15,0,7.38,7.38,0,0,1,1.87,5.33A7.48,7.48,0,0,1,445.43,54.11Zm-6.92-2.21a2.93,2.93,0,0,0,4.58,0,5.13,5.13,0,0,0,.83-3.13,5.06,5.06,0,0,0-.84-3.13,2.91,2.91,0,0,0-4.55,0,5.06,5.06,0,0,0-.84,3.15A5.11,5.11,0,0,0,438.52,51.9Z" transform="translate(-7.08 -7.67)"/><path d="M450.24,55.65V37.45h7.38A6.5,6.5,0,0,1,462.15,39a5.41,5.41,0,0,1,1.74,4.23,5.47,5.47,0,0,1-1.68,4.21A6.47,6.47,0,0,1,457.63,49h-3.87v6.63Zm3.51-9.88h3.82a2.74,2.74,0,0,0,1.92-.69,2.36,2.36,0,0,0,.75-1.83,2.33,2.33,0,0,0-.77-1.94,3,3,0,0,0-1.91-.61h-3.82Z" transform="translate(-7.08 -7.67)"/><path d="M465.84,61.5V41.87h3.22v1.33h.05l.13-.19a2.81,2.81,0,0,1,.4-.4,4.86,4.86,0,0,1,.71-.52,4.26,4.26,0,0,1,1.05-.42,5.34,5.34,0,0,1,1.42-.18,5.68,5.68,0,0,1,4.28,2,7.48,7.48,0,0,1,1.83,5.32,7.64,7.64,0,0,1-1.77,5.33,5.58,5.58,0,0,1-4.29,2,5.06,5.06,0,0,1-1.39-.18,4,4,0,0,1-1-.43,5.7,5.7,0,0,1-.68-.49,2.56,2.56,0,0,1-.42-.43l-.1-.18h-.05V61.5Zm3.38-14.17v2.83a2.76,2.76,0,0,0,.81,2,2.89,2.89,0,0,0,2.16.82,3.07,3.07,0,0,0,2.43-1.09,4.66,4.66,0,0,0,.95-3.15,4.7,4.7,0,0,0-.94-3.15,3.07,3.07,0,0,0-2.44-1.09,2.89,2.89,0,0,0-2.16.82A2.73,2.73,0,0,0,469.22,47.33Z" transform="translate(-7.08 -7.67)"/><path d="M495,56.06l-1.61-1.61A7.21,7.21,0,0,1,488.8,56a7.91,7.91,0,0,1-2.94-.55,7.27,7.27,0,0,1-4.3-4.67,13.5,13.5,0,0,1-.66-4.43,11.85,11.85,0,0,1,.66-4.08,7.94,7.94,0,0,1,1.79-3,7.86,7.86,0,0,1,2.52-1.72,7.61,7.61,0,0,1,5.85,0,7.86,7.86,0,0,1,2.52,1.72,7.94,7.94,0,0,1,1.79,3,11.85,11.85,0,0,1,.66,4.08,11,11,0,0,1-1.64,6.21l1.72,1.69Zm-7.62-7.59,1.77-1.77,3.41,3.41a11.62,11.62,0,0,0,.49-3.72,7.16,7.16,0,0,0-1.24-4.52,3.73,3.73,0,0,0-6.07,0,7.21,7.21,0,0,0-1.22,4.52,8,8,0,0,0,1.2,4.88,3.71,3.71,0,0,0,3.07,1.55,4.11,4.11,0,0,0,2.34-.6Z" transform="translate(-7.08 -7.67)"/><path d="M508.46,61.5V54.32h-.05l-.13.2a3.12,3.12,0,0,1-.38.4,3.63,3.63,0,0,1-1.7.94,5.2,5.2,0,0,1-1.4.18,5.58,5.58,0,0,1-4.29-2,7.64,7.64,0,0,1-1.77-5.33,7.48,7.48,0,0,1,1.83-5.32,5.68,5.68,0,0,1,4.28-2,5.34,5.34,0,0,1,1.42.18,4.17,4.17,0,0,1,1.07.43,6.21,6.21,0,0,1,.7.49,1.79,1.79,0,0,1,.4.43l.13.18h.05V41.87h3.22V61.5Zm0-11.34V47.33a2.73,2.73,0,0,0-.81-2,2.89,2.89,0,0,0-2.16-.82A3.07,3.07,0,0,0,503,45.61a4.7,4.7,0,0,0-.94,3.15,4.66,4.66,0,0,0,.95,3.15A3.07,3.07,0,0,0,505.49,53a2.89,2.89,0,0,0,2.16-.82A2.76,2.76,0,0,0,508.46,50.16Z" transform="translate(-7.08 -7.67)"/><path d="M9,84.65V66.45h7.38A6.48,6.48,0,0,1,21,68a5.6,5.6,0,0,1-2.12,9.53l3.87,7.1h-3.8l-3.67-6.76h-2.7v6.76Zm3.51-9.8h3.59q3,0,3-2.6t-3-2.63H12.54Z" transform="translate(-7.08 -7.67)"/><path d="M25.31,84.65V70.87h3.2v1.46h.05a3,3,0,0,1,1.16-1.25,3.16,3.16,0,0,1,1.68-.47,3.1,3.1,0,0,1,1.25.26l-.52,3.28a3.13,3.13,0,0,0-1.07-.21q-2.37,0-2.37,3.15v7.57Z" transform="translate(-7.08 -7.67)"/><path d="M33.94,78.56l3.69-.81a6.62,6.62,0,0,0,1.1,3.08,3,3,0,0,0,2.51.95,4.55,4.55,0,0,0,2.37-.53,1.72,1.72,0,0,0,.88-1.57A1.92,1.92,0,0,0,43.65,78a17.19,17.19,0,0,0-3.86-1.52,9.29,9.29,0,0,1-4-2.15,4.37,4.37,0,0,1-1.18-3.11,4.79,4.79,0,0,1,1.65-3.65,6.36,6.36,0,0,1,4.48-1.52,7.76,7.76,0,0,1,4.43,1.25A5.49,5.49,0,0,1,47.48,71l-3.41.86a3.65,3.65,0,0,0-5.37-2.05A1.66,1.66,0,0,0,38,71.2a1.35,1.35,0,0,0,.75,1.23,30.55,30.55,0,0,0,3.87,1.5,10.33,10.33,0,0,1,4.13,2.25,4.62,4.62,0,0,1,1.12,3.26,5.08,5.08,0,0,1-1.82,4A7.14,7.14,0,0,1,41.24,85a7.46,7.46,0,0,1-5-1.62A7.21,7.21,0,0,1,33.94,78.56Z" transform="translate(-7.08 -7.67)"/><path d="M49.36,80.1l3-.78q.36,2.89,3.09,2.89a4.17,4.17,0,0,0,2-.4,1.24,1.24,0,0,0,.74-1.13,1,1,0,0,0-.57-.9A15.46,15.46,0,0,0,55.26,79l-.75-.21A9.79,9.79,0,0,1,51,77.14a3,3,0,0,1-1.12-2.46,3.86,3.86,0,0,1,1.39-3,5.5,5.5,0,0,1,3.81-1.25q4.63,0,5.8,4.06l-2.81.86a3.7,3.7,0,0,0-1-1.56,3.52,3.52,0,0,0-3.51-.2,1.07,1.07,0,0,0-.58.9,1,1,0,0,0,.69.9,30.21,30.21,0,0,0,3.44,1.1,6.67,6.67,0,0,1,3.29,1.65,3.76,3.76,0,0,1,.87,2.56,3.94,3.94,0,0,1-1.44,3A6,6,0,0,1,55.62,85a6.22,6.22,0,0,1-4.41-1.44A5.86,5.86,0,0,1,49.36,80.1Z" transform="translate(-7.08 -7.67)"/><path d="M66.31,84.65v-15H61V66.45H75.15V69.7H69.82v15Z" transform="translate(-7.08 -7.67)"/><path d="M77.93,79.73v-6H75.8V70.87H78V67.49h3.2v3.38h3.48v2.86H81.26v5.69A2.46,2.46,0,0,0,81.62,81a1.89,1.89,0,0,0,1.48.44h1.12v3.25H82.79Q80,84.65,79,83.48A5.55,5.55,0,0,1,77.93,79.73Z" transform="translate(-7.08 -7.67)"/><path d="M87.16,78.72V66.45h3.51V78.56a3.23,3.23,0,0,0,.84,2.35,3.3,3.3,0,0,0,2.48.87,3.38,3.38,0,0,0,2.5-.86,3.13,3.13,0,0,0,.86-2.31V66.45h3.51V78.72A5.88,5.88,0,0,1,99,83.41a8.46,8.46,0,0,1-10,0A5.9,5.9,0,0,1,87.16,78.72Z" transform="translate(-7.08 -7.67)"/><path d="M104.24,79.76V70.87h3.38v8.53a2.74,2.74,0,0,0,.49,1.85,2,2,0,0,0,1.59.55,3,3,0,0,0,2-.64,2.5,2.5,0,0,0,.75-2V70.87h3.38V84.65h-3.22V83.32h-.05A4.21,4.21,0,0,1,108.95,85a4.29,4.29,0,0,1-3.55-1.43A5.94,5.94,0,0,1,104.24,79.76Z" transform="translate(-7.08 -7.67)"/><path d="M124.34,84.65l-6.58-18.2h3.69L126,79.37H126l4.37-12.92H134l-6.5,18.2Z" transform="translate(-7.08 -7.67)"/><path d="M139.94,84.65l-5.51-13.78h3.51l3.43,8.87h.05l3.43-8.87h3.46L142.8,84.65Z" transform="translate(-7.08 -7.67)"/><path d="M152.89,84.65l-3.54-18.2h3.56l2.34,12.38h.08l4.19-12.38h1.77l4.19,12.38h.08l2.34-12.38h3.48l-3.54,18.2H164.2l-3.74-11.31h-.16l-3.77,11.31Z" transform="translate(-7.08 -7.67)"/><path d="M176,84.65l-3-13.78h3.3l1.82,9.2h.08l3.07-9.2h3.07L187.1,80h.05l2.08-9.18h3.25l-3.3,13.78h-3.33l-3.15-9.91h-.05l-3.41,9.91Z" transform="translate(-7.08 -7.67)"/><path d="M193.52,84.65l5.69-9.8-4.91-8.4h4l3.28,6.27h.05L205,66.45h3.87l-5.28,9.07,5.33,9.13h-4l-3.67-7h-.05l-3.77,7Z" transform="translate(-7.08 -7.67)"/><path d="M209.41,84.65l4.78-7.12-4.5-6.66h3.51l3.09,4.63h.05l3.09-4.63H223l-4.5,6.66,4.78,7.12h-3.61l-3.28-4.94h-.05L213,84.65Z" transform="translate(-7.08 -7.67)"/><path d="M228.68,84.65V77l-6-10.53h3.77l3.9,7.46h.05l3.9-7.46h3.77l-6,10.53v7.67Z" transform="translate(-7.08 -7.67)"/><path d="M240.09,90.5,242.85,84l-5.51-13.1h3.43l3.56,9.33h.05l3.56-9.33h3.43L243.44,90.5Z" transform="translate(-7.08 -7.67)"/><path d="M252.54,84.65v-3.3l8.79-11.47v-.05h-8.42V66.45H265.7v3.3l-8.84,11.47v.05h8.84v3.38Z" transform="translate(-7.08 -7.67)"/><path d="M267.78,84.65V81.81L275.11,74V74h-7V70.87h11.36v2.78l-7.18,7.7v.05h7.44v3.25Z" transform="translate(-7.08 -7.67)"/><path d="M293.36,84.65l-1-3h-6.94l-1,3h-3.48l6.53-18a2.63,2.63,0,0,1-1.2-2.37,2.78,2.78,0,0,1,.78-2,2.55,2.55,0,0,1,1.92-.82,2.59,2.59,0,0,1,2,.81,2.79,2.79,0,0,1,.77,2,2.68,2.68,0,0,1-1.14,2.34L297,84.65Zm-4.52-13-2.47,7.1h5l-2.44-7.1Zm-.68-6.46a1,1,0,0,0,.73.35,1,1,0,0,0,.75-.35,1.35,1.35,0,0,0,.34-1,1.28,1.28,0,0,0-.33-.95,1,1,0,0,0-.77-.33,1,1,0,0,0-.73.33,1.32,1.32,0,0,0-.31.95A1.42,1.42,0,0,0,288.16,65.18Z" transform="translate(-7.08 -7.67)"/><path d="M306.78,84.65V83.32h-.05l-.13.2a2.93,2.93,0,0,1-.39.4,3.8,3.8,0,0,1-1.77.94A5.59,5.59,0,0,1,303,85a5.21,5.21,0,0,1-3.73-1.18A3.86,3.86,0,0,1,298,81a3.44,3.44,0,0,1,1.07-2.73,8.76,8.76,0,0,1,3.61-1.56,15,15,0,0,0,3-.91,1.06,1.06,0,0,0,.6-1,1.24,1.24,0,0,0-.58-1,3,3,0,0,0-1.76-.42,2.68,2.68,0,0,0-2,.61A4.15,4.15,0,0,0,301,75.6l-2.81-1.17a5.24,5.24,0,0,1,1.47-2.48,5.35,5.35,0,0,1,2.82-1.34,2.66,2.66,0,0,1-1.12-2.34,2.78,2.78,0,0,1,.78-2,2.55,2.55,0,0,1,1.92-.82,2.59,2.59,0,0,1,2,.81,2.79,2.79,0,0,1,.77,2,2.68,2.68,0,0,1-1.22,2.39,5.07,5.07,0,0,1,2.94,1.69,5.37,5.37,0,0,1,1.09,3.56v8.74ZM303.37,79a3.6,3.6,0,0,0-1.7.74,1.38,1.38,0,0,0-.4,1q0,1.4,2,1.4a3.77,3.77,0,0,0,2.3-.58,1.76,1.76,0,0,0,.77-1.44V77.7h-.05a1.26,1.26,0,0,1-.22.32,3.31,3.31,0,0,1-.79.39A15.4,15.4,0,0,1,303.37,79Zm0-9.79a1,1,0,0,0,.73.35,1,1,0,0,0,.75-.35,1.35,1.35,0,0,0,.34-1,1.29,1.29,0,0,0-.32-.95,1.05,1.05,0,0,0-.77-.33,1,1,0,0,0-.73.33,1.32,1.32,0,0,0-.31.95A1.42,1.42,0,0,0,303.35,69.21Z" transform="translate(-7.08 -7.67)"/><path d="M323.81,84.65l-1-3h-6.94l-1,3H311.3l6.58-18.2h3l6.55,18.2ZM315.2,64.76v-3h3.17v3Zm4.08,6.89-2.47,7.1h5l-2.44-7.1Zm1.09-6.89v-3h3.17v3Z" transform="translate(-7.08 -7.67)"/><path d="M337.23,84.65V83.32h-.05l-.13.2a2.93,2.93,0,0,1-.39.4,3.8,3.8,0,0,1-1.77.94,5.59,5.59,0,0,1-1.46.18,5.21,5.21,0,0,1-3.73-1.18,3.86,3.86,0,0,1-1.23-2.9,3.44,3.44,0,0,1,1.07-2.73,8.76,8.76,0,0,1,3.61-1.56,15,15,0,0,0,3-.91,1.06,1.06,0,0,0,.6-1,1.24,1.24,0,0,0-.58-1,3,3,0,0,0-1.76-.42,2.68,2.68,0,0,0-2,.61,4.15,4.15,0,0,0-.94,1.65l-2.81-1.17a5.36,5.36,0,0,1,1.92-2.85,6,6,0,0,1,3.74-1.1,6.29,6.29,0,0,1,4.13,1.33,5,5,0,0,1,1.61,4.11v8.74Zm-6.86-15.47v-3h3.17v3ZM333.82,79a3.6,3.6,0,0,0-1.7.74,1.38,1.38,0,0,0-.4,1q0,1.4,2,1.4a3.77,3.77,0,0,0,2.3-.58,1.76,1.76,0,0,0,.77-1.44V77.7h-.05a1.26,1.26,0,0,1-.22.32,3.31,3.31,0,0,1-.79.39A15.4,15.4,0,0,1,333.82,79Zm1.72-9.83v-3h3.17v3Z" transform="translate(-7.08 -7.67)"/><path d="M353.5,84.49a8.18,8.18,0,0,1-5.88,0,7.27,7.27,0,0,1-4.3-4.67,13.5,13.5,0,0,1-.66-4.43,11.85,11.85,0,0,1,.66-4.08,7.94,7.94,0,0,1,1.79-3,7.86,7.86,0,0,1,2.52-1.72,7.61,7.61,0,0,1,5.85,0A7.86,7.86,0,0,1,356,68.36a7.94,7.94,0,0,1,1.79,3,11.85,11.85,0,0,1,.66,4.08,13.5,13.5,0,0,1-.66,4.43,7.27,7.27,0,0,1-4.3,4.67Zm-6-4.23a3.83,3.83,0,0,0,6.14,0q1.2-1.52,1.2-4.9a7.16,7.16,0,0,0-1.24-4.52,3.73,3.73,0,0,0-6.07,0,7.21,7.21,0,0,0-1.22,4.52A8,8,0,0,0,347.5,80.26ZM346.4,64.76v-3h3.17v3Zm5.17,0v-3h3.17v3Z" transform="translate(-7.08 -7.67)"/><path d="M371.49,83.11a6.53,6.53,0,0,1-9.26,0,7.48,7.48,0,0,1-1.82-5.36,7.38,7.38,0,0,1,1.87-5.33,6.34,6.34,0,0,1,9.15,0,7.38,7.38,0,0,1,1.87,5.33A7.48,7.48,0,0,1,371.49,83.11ZM363,69.18v-3h3.17v3Zm1.61,11.73a2.93,2.93,0,0,0,4.58,0,5.13,5.13,0,0,0,.83-3.13,5.06,5.06,0,0,0-.84-3.13,2.91,2.91,0,0,0-4.55,0,5.06,5.06,0,0,0-.84,3.15A5.11,5.11,0,0,0,364.58,80.9Zm3.56-11.73v-3h3.17v3Z" transform="translate(-7.08 -7.67)"/><path d="M393.72,82.64a6.62,6.62,0,0,1-10.19,0q-1.9-2.39-1.9-7.38,0-4.52,1.91-6.86a6.69,6.69,0,0,1,10.17,0q1.91,2.34,1.91,6.86Q395.62,80.25,393.72,82.64ZM386,80.33a3.12,3.12,0,0,0,5.28,0,10.86,10.86,0,0,0,.84-5.07,9,9,0,0,0-.87-4.55,3.13,3.13,0,0,0-5.23,0,9,9,0,0,0-.87,4.55A10.86,10.86,0,0,0,386,80.33Z" transform="translate(-7.08 -7.67)"/><path d="M401.37,84.65V70.35l-3.93,2.47V69l4.19-2.6h3.09v18.2Z" transform="translate(-7.08 -7.67)"/><path d="M409.17,84.65V82a5.83,5.83,0,0,1,1.2-3.9,13.74,13.74,0,0,1,4.11-2.73l.52-.26q1-.49,1.49-.77a10.62,10.62,0,0,0,1-.71,2.37,2.37,0,0,0,.78-.95,3.1,3.1,0,0,0,.21-1.18,2.08,2.08,0,0,0-.81-1.68,3.29,3.29,0,0,0-2.16-.66q-2.83,0-3.2,3.54L409,72.27a6.5,6.5,0,0,1,1.94-4.6,6.78,6.78,0,0,1,4.77-1.61,6.39,6.39,0,0,1,4.38,1.52,5.27,5.27,0,0,1,1.73,4.17,5.18,5.18,0,0,1-.39,2,4.91,4.91,0,0,1-1.13,1.64,10,10,0,0,1-1.48,1.2,18.47,18.47,0,0,1-1.78,1q-2,1-2.67,1.4a3.08,3.08,0,0,0-1,.83,2.38,2.38,0,0,0-.36,1.35H422v3.43Z" transform="translate(-7.08 -7.67)"/><path d="M423.39,78.69l3.41-.73q.52,4,3.67,4a3.68,3.68,0,0,0,2.39-.7,2.41,2.41,0,0,0,.86-2q0-2.68-3.41-2.68h-1.2V73.8h1.07a3.13,3.13,0,0,0,2-.57,2,2,0,0,0,.74-1.66,2.27,2.27,0,0,0-.69-1.75,2.71,2.71,0,0,0-1.91-.64q-2.37,0-2.78,2.76l-3.2-.6a5.56,5.56,0,0,1,1.88-3.86,6.26,6.26,0,0,1,4.22-1.42,6.15,6.15,0,0,1,4.09,1.36,4.53,4.53,0,0,1,1.63,3.65,3.78,3.78,0,0,1-.75,2.52,3.52,3.52,0,0,1-1.59,1.14v.08a4.18,4.18,0,0,1,2.15,1.39A4.67,4.67,0,0,1,437,79.47a5.19,5.19,0,0,1-1.72,4A6.79,6.79,0,0,1,430.49,85a7.23,7.23,0,0,1-4.85-1.6A7,7,0,0,1,423.39,78.69Z" transform="translate(-7.08 -7.67)"/><path d="M438.55,81.16V77.89l6.92-11.44h5.33V77.91h2.13v3.25h-2.13v3.48h-3.3V81.16Zm3.54-3.25h5.41V69h-.05Z" transform="translate(-7.08 -7.67)"/><path d="M454.48,80.12l3.3-1.4A4.73,4.73,0,0,0,459.15,81a3.34,3.34,0,0,0,2.3.84,3.58,3.58,0,0,0,2.46-.86,3.7,3.7,0,0,0,0-5,3.46,3.46,0,0,0-2.39-.86,4.13,4.13,0,0,0-3.64,2l-2.73-1.38,1.59-9.26h9.72V69.7H459.4l-.7,4.11,0,0a2,2,0,0,1,.49-.48,4.75,4.75,0,0,1,1.25-.57,6.07,6.07,0,0,1,2-.3,5.58,5.58,0,0,1,4.13,1.72,6.64,6.64,0,0,1-.26,9.13,7.82,7.82,0,0,1-9.28.36A7.59,7.59,0,0,1,454.48,80.12Z" transform="translate(-7.08 -7.67)"/><path d="M473.75,74.64l0,0a4.61,4.61,0,0,1,1.61-1.43,5.49,5.49,0,0,1,2.83-.68,6.06,6.06,0,0,1,4.19,1.61,5.7,5.7,0,0,1,1.79,4.47,6.06,6.06,0,0,1-1.86,4.67A6.45,6.45,0,0,1,477.78,85a7,7,0,0,1-5.47-2.38q-2.12-2.38-2.12-6.93a11.36,11.36,0,0,1,2-6.86,6.45,6.45,0,0,1,5.5-2.81,5.66,5.66,0,0,1,4,1.34,6.13,6.13,0,0,1,1.87,3.37l-3.17.83a2.84,2.84,0,0,0-2.91-2.42,3.08,3.08,0,0,0-2.65,1.5A7.38,7.38,0,0,0,473.75,74.64Zm.57,3.85a3.26,3.26,0,0,0,.92,2.47,3.51,3.51,0,0,0,2.54.88,3,3,0,0,0,2.34-.94,3.47,3.47,0,0,0,.83-2.39,3.25,3.25,0,0,0-.87-2.34,3.21,3.21,0,0,0-2.43-.91,3.16,3.16,0,0,0-2.43,1A3.21,3.21,0,0,0,474.32,78.48Z" transform="translate(-7.08 -7.67)"/><path d="M485.58,84.65l8.66-14.9V69.7h-8.87V66.45h12.35v3.64l-8,14.56Z" transform="translate(-7.08 -7.67)"/><path d="M498.92,79.39a5,5,0,0,1,.86-2.82,4.66,4.66,0,0,1,2.42-1.83v-.05a3.73,3.73,0,0,1-1.78-1.47,4.19,4.19,0,0,1-.64-2.3,4.37,4.37,0,0,1,1.64-3.47,7.39,7.39,0,0,1,8.63,0,4.37,4.37,0,0,1,1.64,3.47,4.19,4.19,0,0,1-.64,2.3,3.73,3.73,0,0,1-1.78,1.47v.05a4.75,4.75,0,0,1,2.43,1.85,5.07,5.07,0,0,1,.84,2.86,5,5,0,0,1-1.86,4.12,9.05,9.05,0,0,1-9.91,0A5,5,0,0,1,498.92,79.39Zm3.43-.31a2.53,2.53,0,0,0,.87,2,3.68,3.68,0,0,0,2.51.77,3.63,3.63,0,0,0,2.5-.77,2.54,2.54,0,0,0,.86-2,2.8,2.8,0,0,0-.88-2.13,3.46,3.46,0,0,0-2.47-.83,3.51,3.51,0,0,0-2.48.83A2.78,2.78,0,0,0,502.35,79.08Zm.73-7.88a2,2,0,0,0,.73,1.56,2.78,2.78,0,0,0,1.92.65,2.74,2.74,0,0,0,1.91-.65,2,2,0,0,0,.71-1.56,2.1,2.1,0,0,0-.69-1.59,2.71,2.71,0,0,0-1.94-.65,2.75,2.75,0,0,0-2,.65A2.1,2.1,0,0,0,503.08,71.2Z" transform="translate(-7.08 -7.67)"/><path d="M514.78,80.54l3.09-1.14a3.12,3.12,0,0,0,3.33,2.52,2.91,2.91,0,0,0,2.51-1.31,6.58,6.58,0,0,0,.82-4h-.05a2.83,2.83,0,0,1-1.29,1.3,5.56,5.56,0,0,1-3,.7A6.08,6.08,0,0,1,516,76.9a5.78,5.78,0,0,1-1.86-4.5A6,6,0,0,1,516,67.78a6.53,6.53,0,0,1,4.6-1.73,6.75,6.75,0,0,1,2.68.53,7,7,0,0,1,2.3,1.64,7.58,7.58,0,0,1,1.65,3,14.78,14.78,0,0,1,.6,4.41q0,4.68-1.77,7a5.88,5.88,0,0,1-5,2.35,8.12,8.12,0,0,1-2.65-.4,4.93,4.93,0,0,1-1.88-1.1,6.62,6.62,0,0,1-1.13-1.43A6.12,6.12,0,0,1,514.78,80.54Zm6-5a3.47,3.47,0,0,0,2.35-.75,2.73,2.73,0,0,0,.87-2.18,3.54,3.54,0,0,0-.88-2.5,3.15,3.15,0,0,0-2.44-1,3,3,0,0,0-2.29.91,3.18,3.18,0,0,0-.88,2.31,3.09,3.09,0,0,0,.88,2.29A3.23,3.23,0,0,0,520.73,75.57Z" transform="translate(-7.08 -7.67)"/><path d="M9.42,113.65V95.45h3l5.69,14h.05l5.69-14h3v18.2H24.84V98.46h-.05l-6.27,15.18h-.68L11.58,98.46h-.05v15.18Z" transform="translate(-7.08 -7.67)"/><path d="M39.63,113.65v-1.51h-.05a3.78,3.78,0,0,1-1.48,1.29,5.53,5.53,0,0,1-2.73.61,4.87,4.87,0,0,1-3.47-1.12,3.7,3.7,0,0,1-1.18-2.81,3.49,3.49,0,0,1,1.05-2.69,8.46,8.46,0,0,1,3.58-1.62l1.39-.36q.45-.13,1.05-.35a3.21,3.21,0,0,0,.86-.43,2.06,2.06,0,0,0,.46-.52,1.3,1.3,0,0,0,.19-.7,1.82,1.82,0,0,0-.71-1.47,3.38,3.38,0,0,0-2.17-.58,3.12,3.12,0,0,0-3.35,2.73l-1.92-.55a4.88,4.88,0,0,1,1.69-3,5.29,5.29,0,0,1,3.51-1.13,5.65,5.65,0,0,1,3.78,1.18,4.6,4.6,0,0,1,1.39,3.71v9.28Zm-3.8-6.21a6.37,6.37,0,0,0-2.4,1.07,1.9,1.9,0,0,0-.64,1.48q0,2.16,2.73,2.16a4.39,4.39,0,0,0,2.89-.85,2.59,2.59,0,0,0,1-2.07v-3.43h-.05Q39,106.55,35.84,107.43Z" transform="translate(-7.08 -7.67)"/><path d="M45.66,97.08V94.67h2.44v2.42Zm.16,16.56V99.87H48v13.78Z" transform="translate(-7.08 -7.67)"/><path d="M51.49,109l2-.39q.39,3.61,3.82,3.61a4.15,4.15,0,0,0,2.46-.6,1.87,1.87,0,0,0,.82-1.59,1.76,1.76,0,0,0-.77-1.56,12.7,12.7,0,0,0-3.21-1.2A9.72,9.72,0,0,1,53,105.66a3,3,0,0,1-1-2.39,3.46,3.46,0,0,1,1.27-2.67,5.1,5.1,0,0,1,3.51-1.13,5.52,5.52,0,0,1,3.59,1.08,5.18,5.18,0,0,1,1.77,2.87l-1.85.49a3.37,3.37,0,0,0-3.51-2.63,3.3,3.3,0,0,0-2.08.57,1.68,1.68,0,0,0-.73,1.35,1.38,1.38,0,0,0,.7,1.27,17.33,17.33,0,0,0,3.22,1.14,8.89,8.89,0,0,1,3.68,1.73,3.6,3.6,0,0,1,1,2.64,3.71,3.71,0,0,1-1.31,2.83,5.68,5.68,0,0,1-3.94,1.2,5.71,5.71,0,0,1-4.17-1.42A5.78,5.78,0,0,1,51.49,109Z" transform="translate(-7.08 -7.67)"/><path d="M71.33,114a5.84,5.84,0,0,1-4.5-1.92,7.62,7.62,0,0,1-1.77-5.36,7.5,7.5,0,0,1,1.82-5.33,5.85,5.85,0,0,1,4.45-1.95,5.7,5.7,0,0,1,4.38,1.95,7.61,7.61,0,0,1,1.78,5.33,7.69,7.69,0,0,1-1.74,5.36A5.7,5.7,0,0,1,71.33,114Zm0-1.92a3.59,3.59,0,0,0,2.9-1.42,7.32,7.32,0,0,0,0-7.88,3.58,3.58,0,0,0-2.91-1.42,3.73,3.73,0,0,0-3,1.39,7.3,7.3,0,0,0,0,7.93A3.73,3.73,0,0,0,71.33,112.11Z" transform="translate(-7.08 -7.67)"/><path d="M81,113.65V99.87h2.08v1.33h.05A4.14,4.14,0,0,1,84.77,100,5.38,5.38,0,0,1,87,99.48a4.84,4.84,0,0,1,3.6,1.38A5.09,5.09,0,0,1,92,104.6v9H89.86v-8.37q0-3.85-3.17-3.85a3.64,3.64,0,0,0-2.59.91,3.28,3.28,0,0,0-1,2.52v8.79Z" transform="translate(-7.08 -7.67)"/><path d="M103,113.65V95.45h7a5.49,5.49,0,0,1,3.86,1.33,4.39,4.39,0,0,1,1.44,3.38,3.63,3.63,0,0,1-2.26,3.64v.08a4.16,4.16,0,0,1,2.08,1.53,4.63,4.63,0,0,1,.86,2.86,5.06,5.06,0,0,1-1.57,4,7.08,7.08,0,0,1-4.85,1.42Zm2.16-10.5h4.45q3.56,0,3.56-2.86a2.53,2.53,0,0,0-.95-2.12,4.19,4.19,0,0,0-2.64-.74h-4.42Zm0,8.53h4.11a6,6,0,0,0,3.43-.81,3,3,0,0,0,1.14-2.6,2.75,2.75,0,0,0-1.09-2.47,6.33,6.33,0,0,0-3.43-.73h-4.16Z" transform="translate(-7.08 -7.67)"/><path d="M125,114a5.84,5.84,0,0,1-4.5-1.92,7.62,7.62,0,0,1-1.77-5.36,7.5,7.5,0,0,1,1.82-5.33A5.85,5.85,0,0,1,125,99.48a5.7,5.7,0,0,1,4.38,1.95,7.61,7.61,0,0,1,1.78,5.33,7.69,7.69,0,0,1-1.74,5.36A5.7,5.7,0,0,1,125,114Zm0-1.92a3.59,3.59,0,0,0,2.9-1.42,7.32,7.32,0,0,0,0-7.88A3.58,3.58,0,0,0,125,101.4a3.73,3.73,0,0,0-3,1.39,7.3,7.3,0,0,0,0,7.93A3.73,3.73,0,0,0,125,112.11Z" transform="translate(-7.08 -7.67)"/><path d="M140,114a5.84,5.84,0,0,1-4.5-1.92,7.62,7.62,0,0,1-1.77-5.36,7.5,7.5,0,0,1,1.82-5.33A5.85,5.85,0,0,1,140,99.48a5.7,5.7,0,0,1,4.38,1.95,7.61,7.61,0,0,1,1.78,5.33,7.69,7.69,0,0,1-1.74,5.36A5.7,5.7,0,0,1,140,114Zm0-1.92a3.59,3.59,0,0,0,2.9-1.42,7.32,7.32,0,0,0,0-7.88A3.58,3.58,0,0,0,140,101.4a3.73,3.73,0,0,0-3,1.39,7.3,7.3,0,0,0,0,7.93A3.73,3.73,0,0,0,140,112.11Z" transform="translate(-7.08 -7.67)"/><path d="M149.69,113.65v-19h2.13v11.52h.05l5.8-6.32h2.83l-5,5.46,5.67,8.32h-2.47l-4.73-7h-.05l-2.05,2.21v4.78Z" transform="translate(-7.08 -7.67)"/><path d="M7.47,142.65,14,124.45h2.11l6.55,18.2H20.5l-1.35-3.56H11l-1.33,3.56Zm4.16-5.43h6.89l-3.43-9.88H15Z" transform="translate(-7.08 -7.67)"/><path d="M33.42,142.65v-1.51h-.05a3.78,3.78,0,0,1-1.48,1.29,5.53,5.53,0,0,1-2.73.61,4.87,4.87,0,0,1-3.47-1.12,3.7,3.7,0,0,1-1.18-2.81,3.49,3.49,0,0,1,1.05-2.69,8.46,8.46,0,0,1,3.58-1.62l1.39-.36q.45-.13,1.05-.35a3.21,3.21,0,0,0,.86-.43,2.06,2.06,0,0,0,.46-.52,1.3,1.3,0,0,0,.19-.7,1.82,1.82,0,0,0-.71-1.47,3.38,3.38,0,0,0-2.17-.58,3.12,3.12,0,0,0-3.35,2.73l-1.92-.55a4.88,4.88,0,0,1,1.69-3,5.29,5.29,0,0,1,3.51-1.13,5.65,5.65,0,0,1,3.78,1.18,4.6,4.6,0,0,1,1.39,3.71v9.28Zm-3.8-6.21a6.37,6.37,0,0,0-2.4,1.07,1.9,1.9,0,0,0-.64,1.48q0,2.16,2.73,2.16a4.39,4.39,0,0,0,2.89-.85,2.59,2.59,0,0,0,1-2.07v-3.43h-.05Q32.79,135.55,29.62,136.43Z" transform="translate(-7.08 -7.67)"/><path d="M39.71,142.65v-18.2h7a5.49,5.49,0,0,1,3.86,1.33A4.39,4.39,0,0,1,52,129.15a3.63,3.63,0,0,1-2.26,3.64v.08a4.16,4.16,0,0,1,2.08,1.53,4.63,4.63,0,0,1,.86,2.86,5.06,5.06,0,0,1-1.57,4,7.08,7.08,0,0,1-4.85,1.42Zm2.16-10.5h4.45q3.56,0,3.56-2.86a2.53,2.53,0,0,0-.95-2.12,4.19,4.19,0,0,0-2.64-.74H41.87Zm0,8.53H46a6,6,0,0,0,3.43-.81,3,3,0,0,0,1.14-2.6,2.75,2.75,0,0,0-1.09-2.47,6.33,6.33,0,0,0-3.43-.73H41.87Z" transform="translate(-7.08 -7.67)"/><path d="M56.32,142.65v-19h2.13v6.53h.05a4.77,4.77,0,0,1,3.82-1.72,5.37,5.37,0,0,1,4.29,2,7.91,7.91,0,0,1,1.69,5.28,8.09,8.09,0,0,1-1.62,5.3,5.79,5.79,0,0,1-6.79,1.44,5,5,0,0,1-1.6-1.18h-.05v1.33Zm2.13-8.84v4.26a2.78,2.78,0,0,0,1,2.13,3.63,3.63,0,0,0,2.52.91,3.68,3.68,0,0,0,3.12-1.4,7.86,7.86,0,0,0,0-7.9A3.68,3.68,0,0,0,62,130.4a3.31,3.31,0,0,0-2.57,1.05A3.4,3.4,0,0,0,58.46,133.81Z" transform="translate(-7.08 -7.67)"/><path d="M78.76,126.11A4.86,4.86,0,0,0,74.88,128a8.27,8.27,0,0,0-1.55,5.43,9.12,9.12,0,0,0,1.51,5.68A4.75,4.75,0,0,0,78.76,141q4.11,0,4.63-5.12l2.26.29a7.84,7.84,0,0,1-2.05,5A6.46,6.46,0,0,1,78.76,143a7.53,7.53,0,0,1-2.87-.55,7.38,7.38,0,0,1-2.44-1.65,7.68,7.68,0,0,1-1.75-3,13.76,13.76,0,0,1-.65-4.43,9.77,9.77,0,0,1,2.26-6.89,7.17,7.17,0,0,1,5.46-2.44,6.4,6.4,0,0,1,4.65,1.74,7.64,7.64,0,0,1,2.18,4.6l-2.18.39Q82.64,126.11,78.76,126.11Z" transform="translate(-7.08 -7.67)"/><path d="M98.21,137.37l2.05.42a6.16,6.16,0,0,1-1.9,3.82A5.48,5.48,0,0,1,94.52,143,5.8,5.8,0,0,1,90,141.1a7.7,7.7,0,0,1-1.74-5.34A7.58,7.58,0,0,1,90,130.44a5.81,5.81,0,0,1,4.47-2,5.39,5.39,0,0,1,3.76,1.4,6,6,0,0,1,1.88,3.64l-2,.42A5.36,5.36,0,0,0,97,131.4a3.09,3.09,0,0,0-2.44-1,3.69,3.69,0,0,0-3,1.42,6.11,6.11,0,0,0-1.14,3.94,6.22,6.22,0,0,0,1.12,3.93,3.68,3.68,0,0,0,3.07,1.43A3.15,3.15,0,0,0,97,140,4.93,4.93,0,0,0,98.21,137.37Z" transform="translate(-7.08 -7.67)"/><path d="M103.9,142.65v-18.2h5.69a7.9,7.9,0,0,1,2.94.55,7.72,7.72,0,0,1,2.5,1.61,7.45,7.45,0,0,1,1.78,2.85,11.62,11.62,0,0,1,.66,4.07,12.63,12.63,0,0,1-.68,4.34,6.67,6.67,0,0,1-1.85,2.85,7.74,7.74,0,0,1-2.54,1.47,9.14,9.14,0,0,1-3,.47Zm2.16-2h3.2q5.93,0,5.93-7.15a8,8,0,0,0-1.55-5.27,5.24,5.24,0,0,0-4.23-1.83h-3.35Z" transform="translate(-7.08 -7.67)"/><path d="M130.14,142.65v-1.33h-.05a5,5,0,0,1-1.6,1.18,5.79,5.79,0,0,1-6.79-1.44,8.09,8.09,0,0,1-1.62-5.3,7.86,7.86,0,0,1,1.7-5.29,5.4,5.4,0,0,1,4.28-2,4.77,4.77,0,0,1,3.82,1.72h.05v-6.53h2.13v19Zm-.21-4.58v-4.26a3.41,3.41,0,0,0-1-2.35,3.32,3.32,0,0,0-2.57-1.05,3.67,3.67,0,0,0-3.12,1.4,7.86,7.86,0,0,0,0,7.9,3.67,3.67,0,0,0,3.12,1.4,3.63,3.63,0,0,0,2.52-.91A2.78,2.78,0,0,0,129.93,138.07Z" transform="translate(-7.08 -7.67)"/><path d="M136.74,142.65v-18.2h10.95v2H138.9v5.9H147v1.92H138.9v6.42h8.79v2Z" transform="translate(-7.08 -7.67)"/><path d="M161.26,138.41l1.72,1.12a6.85,6.85,0,0,1-2.22,2.51,6.08,6.08,0,0,1-3.55,1,5.92,5.92,0,0,1-4.6-2,7.6,7.6,0,0,1-1.79-5.29,7.71,7.71,0,0,1,1.76-5.29,5.77,5.77,0,0,1,4.54-2,5.68,5.68,0,0,1,4.47,1.95,7.79,7.79,0,0,1,1.72,5.33v.62H152.94a5.39,5.39,0,0,0,1.1,3.35,3.71,3.71,0,0,0,3.11,1.38,4.66,4.66,0,0,0,1.46-.22,5.19,5.19,0,0,0,1-.44,3.1,3.1,0,0,0,.77-.73,8.21,8.21,0,0,0,.49-.66ZM153,134.69h8.19a5,5,0,0,0-1-3,4.17,4.17,0,0,0-6.08.09A4.87,4.87,0,0,0,153,134.69Z" transform="translate(-7.08 -7.67)"/><path d="M167.06,142.65v-18.2h11v2h-8.81V133h8.09v1.9h-8.09v7.75Z" transform="translate(-7.08 -7.67)"/><path d="M182,142.65V130.76h-1.92v-1.9h2v-2.11a3.09,3.09,0,0,1,.78-2.42,3.32,3.32,0,0,1,2.24-.68h2.21v1.9h-1.82a1.42,1.42,0,0,0-1.08.31,2.12,2.12,0,0,0-.27,1.3v1.69h3.41v1.9h-3.38v11.88Z" transform="translate(-7.08 -7.67)"/><path d="M197,143a7.6,7.6,0,0,1-2.9-.55,7.3,7.3,0,0,1-2.44-1.66,7.56,7.56,0,0,1-1.73-3,14.29,14.29,0,0,1-.62-4.43,9.76,9.76,0,0,1,2.25-6.86,7.13,7.13,0,0,1,5.45-2.44,6.51,6.51,0,0,1,4.52,1.66,7.24,7.24,0,0,1,2.29,4.34l-2.16.39q-.91-4.34-4.65-4.34a4.86,4.86,0,0,0-3.89,1.85,8.23,8.23,0,0,0-1.55,5.41,9.13,9.13,0,0,0,1.52,5.68,4.73,4.73,0,0,0,3.91,2,4.59,4.59,0,0,0,3.56-1.42,5.35,5.35,0,0,0,1.25-3.89h-4.58v-2H204v1.77a7.66,7.66,0,0,1-1.92,5.54A6.68,6.68,0,0,1,197,143Z" transform="translate(-7.08 -7.67)"/><path d="M207.77,145.14l1.79-.91a5,5,0,0,0,1.29,2,3.95,3.95,0,0,0,4.9-.23,3.83,3.83,0,0,0,.91-2.72v-1.85h-.05a4.75,4.75,0,0,1-3.82,1.59,5.46,5.46,0,0,1-4.39-2,8,8,0,0,1-1.66-5.3,7.78,7.78,0,0,1,1.73-5.29,5.47,5.47,0,0,1,4.3-2,4.69,4.69,0,0,1,3.87,1.72h.05v-1.33h2.08v14a6.27,6.27,0,0,1-1.47,4.48,5.34,5.34,0,0,1-4.07,1.55,5.73,5.73,0,0,1-3.5-1A5.48,5.48,0,0,1,207.77,145.14Zm8.89-7v-4.37a3.31,3.31,0,0,0-1-2.31,3.38,3.38,0,0,0-2.59-1,3.74,3.74,0,0,0-3.13,1.42,7.63,7.63,0,0,0,0,7.89,3.75,3.75,0,0,0,3.15,1.4,3.7,3.7,0,0,0,2.55-.9A2.72,2.72,0,0,0,216.66,138.12Z" transform="translate(-7.08 -7.67)"/><path d="M223.32,142.65v-18.2h2.16v7.83h8.14v-7.83h2.13v18.2h-2.13V134.2h-8.14v8.45Z" transform="translate(-7.08 -7.67)"/><path d="M240.43,142.65v-19h2.13v6.58h.05a4.08,4.08,0,0,1,1.68-1.27,5.7,5.7,0,0,1,2.35-.49,4.89,4.89,0,0,1,3.58,1.34,5.13,5.13,0,0,1,1.36,3.83v9h-2.13v-8.42q0-3.8-3.2-3.8a3.67,3.67,0,0,0-2.69,1,3.46,3.46,0,0,0-1,2.57v8.66Z" transform="translate(-7.08 -7.67)"/><path d="M256.26,142.65v-18.2h2.16v18.2Z" transform="translate(-7.08 -7.67)"/><path d="M263.23,126.08v-2.42h2.44v2.42Zm.16,16.56V128.87h2.13v13.78Z" transform="translate(-7.08 -7.67)"/><path d="M268.53,138.75l2.08-.57a5.21,5.21,0,0,0,.78,2.08A1.81,1.81,0,0,0,273,141a1.91,1.91,0,0,0,1.68-.71,4.62,4.62,0,0,0,.46-2.4V124.45h2.13V138a5.67,5.67,0,0,1-1.05,3.78A4.21,4.21,0,0,1,273,143a3.9,3.9,0,0,1-3-1.16A5.75,5.75,0,0,1,268.53,138.75Z" transform="translate(-7.08 -7.67)"/><path d="M280.29,147.72v-2h.44a1.18,1.18,0,0,0,.88-.3,1.71,1.71,0,0,0,.29-1.16V128.87H284v15.42a3.85,3.85,0,0,1-.73,2.65,2.81,2.81,0,0,1-2.16.78Zm1.43-21.63v-2.42h2.42v2.42Z" transform="translate(-7.08 -7.67)"/><path d="M288.55,142.65v-18.2h2.16v8.89h.05l7.38-8.89h2.7l-6.66,8,7.38,10.24H299L292.76,134h-.05l-2,2.34v6.29Z" transform="translate(-7.08 -7.67)"/><path d="M303.92,142.65v-19H306v11.52h.05l5.8-6.32h2.83l-5,5.46,5.67,8.32h-2.47l-4.73-7h-.05L306,137.86v4.78Z" transform="translate(-7.08 -7.67)"/><path d="M318.22,142.65v-18.2h2.16v16.22h7.9v2Z" transform="translate(-7.08 -7.67)"/><path d="M331.27,142.65v-19h2.16v19Z" transform="translate(-7.08 -7.67)"/><path d="M338.11,142.65v-18.2h3l5.69,14h.05l5.69-14h3v18.2h-2.11V127.46h-.05l-6.27,15.18h-.68l-6.27-15.18h-.05v15.18Z" transform="translate(-7.08 -7.67)"/><path d="M360.31,142.65V128.87h1.92v1.33h.05a3.63,3.63,0,0,1,1.46-1.24,4.54,4.54,0,0,1,2.05-.48,4.06,4.06,0,0,1,2.22.58,4.17,4.17,0,0,1,1.42,1.44h.05a4.13,4.13,0,0,1,1.52-1.43,4.59,4.59,0,0,1,2.35-.6,4.44,4.44,0,0,1,4.76,4.78v9.39h-2.05v-8.74q0-3.48-2.81-3.48a2.86,2.86,0,0,0-2.22.87,3.48,3.48,0,0,0-.79,2.43v8.92h-2.05v-8.74q0-3.48-2.81-3.48a2.67,2.67,0,0,0-2.24.92,3.73,3.73,0,0,0-.73,2.38v8.92Z" transform="translate(-7.08 -7.67)"/><path d="M382.67,142.65v-18.2H385l8.29,14.64h.05V124.45h2.13v18.2h-2.26L384.88,128h-.05v14.64Z" transform="translate(-7.08 -7.67)"/><path d="M400.17,142.65V128.87h2.08v1.33h.05a4.14,4.14,0,0,1,1.64-1.24,5.38,5.38,0,0,1,2.24-.48,4.84,4.84,0,0,1,3.6,1.38,5.09,5.09,0,0,1,1.36,3.74v9H409v-8.37q0-3.85-3.17-3.85a3.64,3.64,0,0,0-2.59.91,3.28,3.28,0,0,0-1,2.52v8.79Z" transform="translate(-7.08 -7.67)"/><path d="M422.37,143a7.53,7.53,0,0,1-2.87-.55,7.38,7.38,0,0,1-2.44-1.65,7.67,7.67,0,0,1-1.75-3,13.76,13.76,0,0,1-.65-4.43,9.76,9.76,0,0,1,2.26-6.89,7.17,7.17,0,0,1,5.46-2.44,7,7,0,0,1,5.37,2.5,10,10,0,0,1,2.25,6.94,13.89,13.89,0,0,1-.64,4.42,7.44,7.44,0,0,1-1.73,3,7.3,7.3,0,0,1-2.42,1.61A7.53,7.53,0,0,1,422.37,143Zm0-2a4.66,4.66,0,0,0,3.85-1.9,9,9,0,0,0,1.48-5.62,8.6,8.6,0,0,0-1.52-5.49,4.69,4.69,0,0,0-3.81-1.9,4.86,4.86,0,0,0-3.89,1.85,8.28,8.28,0,0,0-1.55,5.43,9.12,9.12,0,0,0,1.51,5.68A4.75,4.75,0,0,0,422.37,141Z" transform="translate(-7.08 -7.67)"/><path d="M439,143a5.84,5.84,0,0,1-4.5-1.92,7.62,7.62,0,0,1-1.77-5.36,7.5,7.5,0,0,1,1.82-5.33,5.85,5.85,0,0,1,4.45-1.95,5.7,5.7,0,0,1,4.38,1.95,7.61,7.61,0,0,1,1.78,5.33,7.69,7.69,0,0,1-1.74,5.36A5.7,5.7,0,0,1,439,143Zm0-1.92a3.59,3.59,0,0,0,2.9-1.42,7.32,7.32,0,0,0,0-7.88A3.58,3.58,0,0,0,439,130.4a3.73,3.73,0,0,0-3,1.39,7.31,7.31,0,0,0,0,7.93A3.73,3.73,0,0,0,439,141.11Z" transform="translate(-7.08 -7.67)"/><path d="M448.92,142.65v-18.2h7a6.44,6.44,0,0,1,4.42,1.47,6,6,0,0,1,0,8.25,6.37,6.37,0,0,1-4.39,1.46h-4.89v7Zm2.16-9h4.76a4.39,4.39,0,0,0,2.85-.91,3.23,3.23,0,0,0,1.13-2.68,3.27,3.27,0,0,0-1.14-2.74,4.54,4.54,0,0,0-2.89-.9h-4.71Z" transform="translate(-7.08 -7.67)"/><path d="M464.73,148.5V128.87h2v1.33h.05a4.72,4.72,0,0,1,1.56-1.18,5.18,5.18,0,0,1,2.39-.53,5.44,5.44,0,0,1,4.29,2,7.82,7.82,0,0,1,1.72,5.29,8,8,0,0,1-1.66,5.3,5.41,5.41,0,0,1-4.34,2,5.05,5.05,0,0,1-2.34-.55,4.11,4.11,0,0,1-1.51-1.17h-.05v7.18Zm2.13-14.74v4.37a2.72,2.72,0,0,0,1,2.09,3.66,3.66,0,0,0,2.52.9,3.78,3.78,0,0,0,3.16-1.4,7.56,7.56,0,0,0,0-7.89,3.78,3.78,0,0,0-3.15-1.42,3.34,3.34,0,0,0-2.56,1A3.31,3.31,0,0,0,466.86,133.75Z" transform="translate(-7.08 -7.67)"/><path d="M493.43,143.06l-1.66-1.64a6.86,6.86,0,0,1-4.55,1.61,7.53,7.53,0,0,1-2.87-.55,7.38,7.38,0,0,1-2.44-1.65,7.67,7.67,0,0,1-1.75-3,13.76,13.76,0,0,1-.65-4.43,9.76,9.76,0,0,1,2.26-6.89,7.17,7.17,0,0,1,5.46-2.44,7,7,0,0,1,5.37,2.5,10,10,0,0,1,2.25,6.94,11.09,11.09,0,0,1-1.87,6.68l1.72,1.69Zm-7.62-7.59,1.25-1.2,4.39,4.39a10.12,10.12,0,0,0,1.09-5.17A8.6,8.6,0,0,0,491,128a4.69,4.69,0,0,0-3.81-1.9,4.86,4.86,0,0,0-3.89,1.85,8.28,8.28,0,0,0-1.55,5.43,9.12,9.12,0,0,0,1.51,5.68,5.09,5.09,0,0,0,7,.92Z" transform="translate(-7.08 -7.67)"/><path d="M507.5,148.5v-7.18h-.05a4.6,4.6,0,0,1-3.87,1.72,5.41,5.41,0,0,1-4.34-2,8,8,0,0,1-1.66-5.3,7.78,7.78,0,0,1,1.73-5.29,5.47,5.47,0,0,1,4.3-2A5.22,5.22,0,0,1,506,129a4.72,4.72,0,0,1,1.59,1.2h.05v-1.33h2V148.5Zm0-10.37v-4.37a3.31,3.31,0,0,0-1-2.31,3.38,3.38,0,0,0-2.59-1,3.74,3.74,0,0,0-3.13,1.42,7.63,7.63,0,0,0,0,7.89,3.75,3.75,0,0,0,3.15,1.4,3.7,3.7,0,0,0,2.55-.9A2.72,2.72,0,0,0,507.5,138.12Z" transform="translate(-7.08 -7.67)"/><path d="M9.42,171.65v-18.2h7a6.72,6.72,0,0,1,4.46,1.37,5.78,5.78,0,0,1,.42,7.55A5.58,5.58,0,0,1,18,164.05l4.06,7.59H19.66l-4-7.44H11.58v7.44Zm2.16-9.36h4.71a4.85,4.85,0,0,0,2.94-.82,3,3,0,0,0,1.12-2.61q0-3.43-4.11-3.43H11.58Z" transform="translate(-7.08 -7.67)"/><path d="M25.88,171.65V157.87h2v1.48H28a2.89,2.89,0,0,1,1.22-1.27,3.37,3.37,0,0,1,1.64-.44,2.9,2.9,0,0,1,.61.07l.45.12.13.08L31.62,160a2.35,2.35,0,0,0-1.09-.21,2.17,2.17,0,0,0-1.92.87,5.05,5.05,0,0,0-.6,2.79v8.19Z" transform="translate(-7.08 -7.67)"/><path d="M34.09,165.38l2.26-.44a7.24,7.24,0,0,0,1.5,3.86A4.71,4.71,0,0,0,41.48,170a4.54,4.54,0,0,0,3.07-.91,2.86,2.86,0,0,0,1-2.24,2.5,2.5,0,0,0-.94-2.05A15,15,0,0,0,40.57,163a12.41,12.41,0,0,1-4.33-2.12,3.87,3.87,0,0,1-1.31-3.06,4.41,4.41,0,0,1,1.55-3.38,6,6,0,0,1,4.17-1.4,7,7,0,0,1,4.29,1.27A5.33,5.33,0,0,1,47,158.07l-2.18.47A4.51,4.51,0,0,0,43.55,156a4.13,4.13,0,0,0-2.9-.88,3.92,3.92,0,0,0-2.63.78,2.46,2.46,0,0,0-.91,1.95,2,2,0,0,0,.83,1.69,14.17,14.17,0,0,0,3.69,1.59,13.44,13.44,0,0,1,4.86,2.37,4.32,4.32,0,0,1,1.25,3.28,4.86,4.86,0,0,1-1.69,3.76A6.71,6.71,0,0,1,41.4,172Q34.93,172,34.09,165.38Z" transform="translate(-7.08 -7.67)"/><path d="M50,167l2-.39q.39,3.61,3.82,3.61a4.15,4.15,0,0,0,2.46-.6,1.87,1.87,0,0,0,.82-1.59,1.76,1.76,0,0,0-.77-1.56,12.7,12.7,0,0,0-3.21-1.2,9.72,9.72,0,0,1-3.59-1.59,3,3,0,0,1-1-2.39,3.46,3.46,0,0,1,1.27-2.67,5.1,5.1,0,0,1,3.51-1.13,5.52,5.52,0,0,1,3.59,1.08,5.18,5.18,0,0,1,1.77,2.87l-1.85.49a3.37,3.37,0,0,0-3.51-2.63,3.3,3.3,0,0,0-2.08.57,1.68,1.68,0,0,0-.73,1.35,1.38,1.38,0,0,0,.7,1.27,17.33,17.33,0,0,0,3.22,1.14A8.89,8.89,0,0,1,60,165.37a3.6,3.6,0,0,1,1,2.64,3.71,3.71,0,0,1-1.31,2.83A5.68,5.68,0,0,1,55.8,172a5.71,5.71,0,0,1-4.17-1.42A5.78,5.78,0,0,1,50,167Z" transform="translate(-7.08 -7.67)"/><path d="M67.22,171.65V155.42H61.58v-2H75v2H69.35v16.22Z" transform="translate(-7.08 -7.67)"/><path d="M78.32,167.64v-7.88H76.4v-1.9h2v-3.38h2v3.38h3.41v1.9H80.43v7.62a3.19,3.19,0,0,0,.34,1.72,1.54,1.54,0,0,0,1.35.49h1v2.05H82a3.56,3.56,0,0,1-2.82-1A4.46,4.46,0,0,1,78.32,167.64Z" transform="translate(-7.08 -7.67)"/><path d="M87.06,165.72V153.45h2.16v12.12q0,4.45,4.29,4.45a4.33,4.33,0,0,0,3.24-1.13,4.48,4.48,0,0,0,1.1-3.26V153.45H100v12.27a6.17,6.17,0,0,1-1.7,4.72,7.9,7.9,0,0,1-9.53,0A6.19,6.19,0,0,1,87.06,165.72Z" transform="translate(-7.08 -7.67)"/><path d="M104.14,166.84v-9h2.13v8.66a4,4,0,0,0,.74,2.73,3.21,3.21,0,0,0,2.46.81,3,3,0,0,0,2.39-1,4,4,0,0,0,.83-2.68v-8.55h2.11v13.78h-2.08v-1.33h-.05a5.53,5.53,0,0,1-.39.47,4.75,4.75,0,0,1-1.21.77A4.51,4.51,0,0,1,109,172a4.8,4.8,0,0,1-3.57-1.3A5.33,5.33,0,0,1,104.14,166.84Z" transform="translate(-7.08 -7.67)"/><path d="M123.95,171.65l-6.42-18.2h2.31L125.2,169h.05l5.25-15.57h2.29l-6.29,18.2Z" transform="translate(-7.08 -7.67)"/><path d="M139.52,171.65,134,157.87h2.18l4.21,10.79h.05l4.21-10.79h2.18l-5.56,13.78Z" transform="translate(-7.08 -7.67)"/><path d="M152,171.65l-3.35-18.2h2.21l2.73,15h.05l4.52-15h2.26l4.55,15H165l2.68-15h2.21l-3.35,18.2h-2.65l-4.6-15.08h-.05l-4.58,15.08Z" transform="translate(-7.08 -7.67)"/><path d="M175.27,171.65l-3-13.78h2.11l2.21,10.37h.05l3.64-10.37h1.92l3.59,10.37h.05l2.47-10.37h2.08l-3.3,13.78h-2l-3.9-11.26h-.05l-3.9,11.26Z" transform="translate(-7.08 -7.67)"/><path d="M192.17,171.65l5.62-9.49-5.15-8.71h2.42l4.06,7.18h.05l3.9-7.18h2.37l-5,8.89,5.54,9.31h-2.39l-4.47-7.77H199l-4.45,7.77Z" transform="translate(-7.08 -7.67)"/><path d="M207.23,171.65l4.65-7.07-4.37-6.71h2.34l3.35,5.3h.05l3.35-5.3h2.31l-4.34,6.71,4.65,7.07h-2.37L213.23,166h-.05l-3.59,5.67Z" transform="translate(-7.08 -7.67)"/><path d="M225.5,171.65V164l-6-10.53h2.39l4.63,8.45h.05l4.63-8.45h2.39l-6,10.53v7.67Z" transform="translate(-7.08 -7.67)"/><path d="M236,177.5l2.76-7.31-5.17-12.32h2.24l3.9,9.52h.05l3.51-9.52h2.18l-7.41,19.63Z" transform="translate(-7.08 -7.67)"/><path d="M247.42,171.65v-1.77l10.19-14.4v-.05h-9.72v-2h12.43v1.77L250.1,169.59v.05h10v2Z" transform="translate(-7.08 -7.67)"/><path d="M263.18,171.65V170l8.66-10.11v-.05h-8.16v-2h10.92v1.61L266,169.62v.05h8.61v2Z" transform="translate(-7.08 -7.67)"/><path d="M276.57,171.65l6.47-18a2.45,2.45,0,0,1-1.4-2.42,2.65,2.65,0,0,1,.73-1.87,2.54,2.54,0,0,1,3.65,0,2.66,2.66,0,0,1,.71,1.88,2.46,2.46,0,0,1-1.46,2.44l6.5,18h-2.18l-1.35-3.56h-8.16l-1.33,3.56Zm4.16-5.43h6.89l-3.43-9.88h-.05Zm3.46-13.52a1.16,1.16,0,0,0,.88-.39,1.58,1.58,0,0,0,.36-1.12,1.53,1.53,0,0,0-.36-1.11,1.19,1.19,0,0,0-.88-.38,1.14,1.14,0,0,0-.87.38,1.91,1.91,0,0,0,0,2.22A1.13,1.13,0,0,0,284.19,152.69Z" transform="translate(-7.08 -7.67)"/><path d="M302.52,171.65v-1.51h-.05a3.78,3.78,0,0,1-1.48,1.29,5.53,5.53,0,0,1-2.73.61,4.87,4.87,0,0,1-3.47-1.12,3.7,3.7,0,0,1-1.18-2.81,3.49,3.49,0,0,1,1.05-2.69,8.46,8.46,0,0,1,3.58-1.62l1.39-.36q.45-.13,1.05-.35a3.22,3.22,0,0,0,.86-.43,2.05,2.05,0,0,0,.45-.52,1.29,1.29,0,0,0,.2-.7,1.82,1.82,0,0,0-.71-1.47,3.38,3.38,0,0,0-2.17-.58,3.12,3.12,0,0,0-3.35,2.73l-1.92-.55a4.84,4.84,0,0,1,1.27-2.57,4.74,4.74,0,0,1,2.6-1.38,2.49,2.49,0,0,1-1.07-2.21,2.65,2.65,0,0,1,.73-1.87,2.54,2.54,0,0,1,3.65,0,2.66,2.66,0,0,1,.71,1.88,2.46,2.46,0,0,1-1.09,2.24q3.56.73,3.56,4.73v9.28Zm-3.8-6.21a6.37,6.37,0,0,0-2.41,1.07,1.9,1.9,0,0,0-.64,1.48q0,2.16,2.73,2.16a4.39,4.39,0,0,0,2.89-.85,2.59,2.59,0,0,0,1-2.07v-3.43h-.05Q301.89,164.55,298.72,165.43Zm.65-8.53a1.15,1.15,0,0,0,.88-.4,1.63,1.63,0,0,0,.36-1.13,1.5,1.5,0,0,0-.36-1.08,1.18,1.18,0,0,0-.88-.38,1.16,1.16,0,0,0-.87.36,1.52,1.52,0,0,0-.35,1.09,1.62,1.62,0,0,0,.36,1.13A1.12,1.12,0,0,0,299.37,156.9Z" transform="translate(-7.08 -7.67)"/><path d="M306.86,171.65l6.55-18.2h2.11l6.55,18.2h-2.18l-1.35-3.56h-8.16L309,171.65Zm4-19.89v-2.37h2.37v2.37Zm.18,14.46h6.89l-3.43-9.88h-.05Zm4.81-14.46v-2.37h2.37v2.37Z" transform="translate(-7.08 -7.67)"/><path d="M332.81,171.65v-1.51h-.05a3.78,3.78,0,0,1-1.48,1.29,5.53,5.53,0,0,1-2.73.61,4.87,4.87,0,0,1-3.47-1.12,3.7,3.7,0,0,1-1.18-2.81,3.49,3.49,0,0,1,1.05-2.69,8.46,8.46,0,0,1,3.58-1.62l1.39-.36q.45-.13,1.05-.35a3.22,3.22,0,0,0,.86-.43,2.05,2.05,0,0,0,.45-.52,1.29,1.29,0,0,0,.2-.7,1.82,1.82,0,0,0-.71-1.47,3.38,3.38,0,0,0-2.17-.58,3.12,3.12,0,0,0-3.35,2.73l-1.92-.55a4.88,4.88,0,0,1,1.69-3,5.29,5.29,0,0,1,3.51-1.13,5.65,5.65,0,0,1,3.78,1.18,4.6,4.6,0,0,1,1.39,3.71v9.28Zm-3.8-6.21a6.37,6.37,0,0,0-2.41,1.07A1.9,1.9,0,0,0,326,168q0,2.16,2.73,2.16a4.39,4.39,0,0,0,2.89-.85,2.59,2.59,0,0,0,1-2.07v-3.43h-.05Q332.18,164.55,329,165.43Zm-2.91-9.67v-2.37h2.37v2.37Zm5,0v-2.37h2.37v2.37Z" transform="translate(-7.08 -7.67)"/><path d="M345.78,172a7.53,7.53,0,0,1-2.87-.55,7.38,7.38,0,0,1-2.44-1.65,7.67,7.67,0,0,1-1.75-3,13.76,13.76,0,0,1-.65-4.43,9.76,9.76,0,0,1,2.26-6.89,7.17,7.17,0,0,1,5.46-2.44,7,7,0,0,1,5.37,2.5,10,10,0,0,1,2.25,6.94,13.89,13.89,0,0,1-.64,4.42,7.44,7.44,0,0,1-1.73,3,7.3,7.3,0,0,1-2.42,1.61A7.53,7.53,0,0,1,345.78,172Zm0-2a4.66,4.66,0,0,0,3.85-1.9,9,9,0,0,0,1.48-5.62,8.6,8.6,0,0,0-1.52-5.49,4.69,4.69,0,0,0-3.81-1.9,4.86,4.86,0,0,0-3.89,1.85,8.28,8.28,0,0,0-1.55,5.43,9.12,9.12,0,0,0,1.51,5.68A4.75,4.75,0,0,0,345.78,170Zm-3.56-18.25v-2.37h2.37v2.37Zm5,0v-2.37h2.37v2.37Z" transform="translate(-7.08 -7.67)"/><path d="M362.39,172a5.84,5.84,0,0,1-4.5-1.92,7.62,7.62,0,0,1-1.77-5.36,7.5,7.5,0,0,1,1.82-5.33,5.85,5.85,0,0,1,4.45-1.95,5.7,5.7,0,0,1,4.38,1.95,7.61,7.61,0,0,1,1.78,5.33,7.69,7.69,0,0,1-1.74,5.36A5.7,5.7,0,0,1,362.39,172Zm0-1.92a3.59,3.59,0,0,0,2.9-1.42,7.32,7.32,0,0,0,0-7.88,3.58,3.58,0,0,0-2.91-1.42,3.73,3.73,0,0,0-3,1.39,7.31,7.31,0,0,0,0,7.93A3.73,3.73,0,0,0,362.39,170.11Zm-3.48-14.35v-2.37h2.37v2.37Zm5,0v-2.37h2.37v2.37Z" transform="translate(-7.08 -7.67)"/><path d="M384.44,172a5.78,5.78,0,0,1-5-2.52q-1.79-2.52-1.79-7.2,0-4.47,1.87-6.86a6.23,6.23,0,0,1,9.82,0q1.86,2.39,1.86,6.86,0,4.68-1.79,7.2A5.76,5.76,0,0,1,384.44,172ZM381,168a3.86,3.86,0,0,0,6.81,0,11.62,11.62,0,0,0,1.17-5.73,10,10,0,0,0-1.2-5.37,4,4,0,0,0-6.76,0,10,10,0,0,0-1.2,5.38A11.63,11.63,0,0,0,381,168Z" transform="translate(-7.08 -7.67)"/><path d="M397.73,171.65V155.92l-3.93,2.47V156l4.19-2.6h1.74v18.2Z" transform="translate(-7.08 -7.67)"/><path d="M404.9,171.65V170a6.9,6.9,0,0,1,.94-3.9,11,11,0,0,1,4.06-3l1.47-.81q.38-.21,1.12-.68a5.76,5.76,0,0,0,1-.73q.25-.26.6-.7a2.26,2.26,0,0,0,.46-.9,4.62,4.62,0,0,0,.1-1,3.15,3.15,0,0,0-.92-2.28,3.7,3.7,0,0,0-2.77-.95,3.83,3.83,0,0,0-2.87,1.11,4.62,4.62,0,0,0-1.18,3.11L404.8,159a6,6,0,0,1,1.81-4.38,6.2,6.2,0,0,1,4.38-1.57,5.67,5.67,0,0,1,4.21,1.52,5.13,5.13,0,0,1,1.51,3.76,5.91,5.91,0,0,1-.34,2.09,4.17,4.17,0,0,1-1.22,1.66,12.08,12.08,0,0,1-1.37,1.07q-.48.3-1.78,1l-.36.21-.85.46-.77.42-.61.35a6,6,0,0,0-.57.36l-.43.34a3.18,3.18,0,0,0-.42.39,3.28,3.28,0,0,0-.29.39,4.52,4.52,0,0,0-.52,2.42h9.57v2.16Z" transform="translate(-7.08 -7.67)"/><path d="M419,165.67l2.11-.42a6.72,6.72,0,0,0,1.35,3.67,3.92,3.92,0,0,0,3.09,1.17,4.07,4.07,0,0,0,3-1,3.45,3.45,0,0,0,1-2.54q0-3.69-4-3.69h-1.3V161h.55a7.28,7.28,0,0,0,1.09-.08,8.72,8.72,0,0,0,1.3-.32,2.39,2.39,0,0,0,1.25-.9,2.69,2.69,0,0,0,.47-1.61,2.83,2.83,0,0,0-.91-2.24,3.59,3.59,0,0,0-2.47-.81,3.38,3.38,0,0,0-2.48.91,4.2,4.2,0,0,0-1.13,2.55l-2-.36a5.45,5.45,0,0,1,1.78-3.67,5.63,5.63,0,0,1,3.89-1.38,5.86,5.86,0,0,1,3.9,1.29,4.42,4.42,0,0,1,1.53,3.58,3.62,3.62,0,0,1-.87,2.51,4,4,0,0,1-2,1.26v.05a4.36,4.36,0,0,1,2.46,1.59,5.54,5.54,0,0,1-.69,7.16,6.25,6.25,0,0,1-4.39,1.55,6.45,6.45,0,0,1-4.47-1.56A7.28,7.28,0,0,1,419,165.67Z" transform="translate(-7.08 -7.67)"/><path d="M434,167.43v-2l7.31-12h3.28v12h2.26v2h-2.26v4.21h-2.08v-4.21Zm2.16-2h6.34V155.08h-.05Z" transform="translate(-7.08 -7.67)"/><path d="M449.15,167l2.05-.73q1,3.8,4.45,3.8a4.06,4.06,0,0,0,3.09-1.21,4.63,4.63,0,0,0,1.14-3.32,4.28,4.28,0,0,0-1.13-3.15,4,4,0,0,0-3-1.14,4.54,4.54,0,0,0-4.06,2.18l-1.92-.83,1.64-9.15h9v2h-7.33l-1,5.75,0,0a4.11,4.11,0,0,1,1.63-1.22,6,6,0,0,1,2.53-.49,5.61,5.61,0,0,1,4.11,1.68,5.93,5.93,0,0,1,1.69,4.41,6.31,6.31,0,0,1-1.79,4.71,6.22,6.22,0,0,1-4.55,1.77,6.36,6.36,0,0,1-4.2-1.39A7,7,0,0,1,449.15,167Z" transform="translate(-7.08 -7.67)"/><path d="M477.39,157.68l-2,.52q-.83-3.2-3.67-3.2a4.08,4.08,0,0,0-3.35,1.94,9.59,9.59,0,0,0-1.43,5.6l0,0a3.88,3.88,0,0,1,.49-.81,6.91,6.91,0,0,1,.95-1,4.93,4.93,0,0,1,1.6-.88,6.31,6.31,0,0,1,2.13-.35,6.11,6.11,0,0,1,4.33,1.66,5.8,5.8,0,0,1,1.78,4.45,6.17,6.17,0,0,1-1.77,4.67A6.25,6.25,0,0,1,472,172a6.93,6.93,0,0,1-2.67-.52,6.81,6.81,0,0,1-4-4.43,13.45,13.45,0,0,1-.61-4.25,11.62,11.62,0,0,1,2-7,6.06,6.06,0,0,1,5.07-2.73,5.3,5.3,0,0,1,3.8,1.33A6,6,0,0,1,477.39,157.68ZM472,170.06a4,4,0,0,0,3.11-1.18,4.48,4.48,0,0,0,1.11-3.18,4.29,4.29,0,0,0-1.16-3.13,4.18,4.18,0,0,0-3.13-1.18,4.25,4.25,0,0,0-3.09,1.22,3.85,3.85,0,0,0-1.25,2.83,4.62,4.62,0,0,0,1.25,3.31A4.19,4.19,0,0,0,472,170.06Z" transform="translate(-7.08 -7.67)"/><path d="M480.61,171.65l8.92-16.15v-.05h-9.31v-2h11.47v2.24l-8.61,16Z" transform="translate(-7.08 -7.67)"/><path d="M504.75,170.58a7,7,0,0,1-4.64,1.46,7.14,7.14,0,0,1-4.67-1.46,5,5,0,0,1-1.78-4.08,4.66,4.66,0,0,1,1-3,5,5,0,0,1,2.39-1.72v-.05a3.9,3.9,0,0,1-1.73-1.47,4.44,4.44,0,0,1-.69-2.54,4.36,4.36,0,0,1,1.5-3.28,6.3,6.3,0,0,1,7.93,0,4.56,4.56,0,0,1,.79,5.81,4,4,0,0,1-1.72,1.47v.05a5.15,5.15,0,0,1,2.38,1.74,4.67,4.67,0,0,1,1,3A5,5,0,0,1,504.75,170.58Zm-4.64-.57a4.48,4.48,0,0,0,3.08-1,3.29,3.29,0,0,0,1.13-2.59,3.34,3.34,0,0,0-1.17-2.65,4.47,4.47,0,0,0-3-1,4.52,4.52,0,0,0-3.05,1A3.54,3.54,0,0,0,497,169,4.52,4.52,0,0,0,500.11,170Zm2.51-14.2a4.09,4.09,0,0,0-5,0,2.91,2.91,0,0,0-.86,2.12,2.84,2.84,0,0,0,.94,2.17,3.44,3.44,0,0,0,2.44.87,3.4,3.4,0,0,0,2.43-.87,2.86,2.86,0,0,0,.92-2.17A2.92,2.92,0,0,0,502.62,155.81Z" transform="translate(-7.08 -7.67)"/><path d="M509.6,167.46l2-.62q.81,3.25,3.8,3.25,4.32,0,4.34-7.46h-.05a2.82,2.82,0,0,1-.39.71,5.7,5.7,0,0,1-.83.9,4.45,4.45,0,0,1-1.47.83,6,6,0,0,1-8.12-5.85,5.93,5.93,0,0,1,6-6.16,6.05,6.05,0,0,1,5,2.38q1.86,2.38,1.86,7.14,0,4.94-1.77,7.2a5.62,5.62,0,0,1-4.65,2.26,5.71,5.71,0,0,1-3.77-1.25A6,6,0,0,1,509.6,167.46Zm5.46-4a3.92,3.92,0,0,0,3-1.17,4.13,4.13,0,0,0,1.13-3,4.28,4.28,0,0,0-1.18-3.08,4,4,0,0,0-3.05-1.24,3.8,3.8,0,0,0-2.83,1.14,4.2,4.2,0,0,0-1.12,3.07,4.28,4.28,0,0,0,1.12,3.11A4,4,0,0,0,515.06,163.48Z" transform="translate(-7.08 -7.67)"/></svg>