<svg id="Layer_1" data-name="Layer 1" xmlns="http://www.w3.org/2000/svg" viewBox="0 0 600 600"><defs><style>.cls-1{fill:#fff;}.cls-2,.cls-7,.cls-8{fill:none;}.cls-3{fill:#cfb571;}.cls-4{fill:#ffec0d;}.cls-5{fill:#0568af;}.cls-6{fill:#e21f26;}.cls-7,.cls-8{stroke:#b4b4b4;stroke-miterlimit:10;}.cls-8{stroke-dasharray:12 12;}</style></defs><title>dif_primary_corner-01</title><rect class="cls-1" width="600" height="600"/><rect class="cls-2" width="184.8" height="209.72"/><path class="cls-3" d="M147.79,45.58l-.52-2.24-2.25.48c-27.8,5.94-51.21-8-51.45-8.13L92.35,35l-1.21.74c-.23.14-23.61,14.13-51.42,8.26l-2.25-.48-.52,2.24c-.1.43-2.43,10.76-1.9,27.84C36.71,127.11,71.2,161.92,91.32,174l1.21.73,1.21-.73c20.09-12.17,54.5-47.07,56-100.62C150.25,56.33,147.89,46,147.79,45.58Z"/><path class="cls-4" d="M114.06,48.23a82.5,82.5,0,0,1-21.7-7.83c-5.2,2.86-26,13-51.26,8.6a128.57,128.57,0,0,0-1.37,24.42A119.08,119.08,0,0,0,47,111.14Z"/><path class="cls-5" d="M92.53,169.28c19.18-12.17,50.32-44.72,52.46-94.16l-76.91,72.2A109.07,109.07,0,0,0,92.53,169.28Z"/><path class="cls-6" d="M75.33,112.49c2.73,2.9,1.89,6.07,0,7.86l-.32.3-7.83-8.32.36-.34A5.32,5.32,0,0,1,75.33,112.49Zm69.79-41.94L66,144.8A122.9,122.9,0,0,1,48.3,114.4L118,49a76,76,0,0,0,25.63-.1A126.36,126.36,0,0,1,145.12,70.55ZM80,108.05a11.13,11.13,0,0,0-16-.67l-5.57,5.24L74.17,129.3l5.57-5.24A11.15,11.15,0,0,0,80,108.05Zm13.56-1a3.49,3.49,0,1,0-.16,4.93A3.49,3.49,0,0,0,93.61,107.07Zm11.86-7.21L89.81,83.17,85,87.67l15.66,16.69Zm8.27-11.68a3.49,3.49,0,1,0-.16,4.93A3.49,3.49,0,0,0,113.75,88.17Zm6.78-12.64,5.1-4.79-4-4.27-5.1,4.79-2.57-2.73,5.18-4.87-4-4.28-9.94,9.35,15.69,16.68,4.77-4.48ZM135.24,68a3.49,3.49,0,1,0-.16,4.93A3.49,3.49,0,0,0,135.24,68Z"/><rect class="cls-2" x="415.2" y="390.28" width="184.8" height="209.72"/><path class="cls-3" d="M563,435.86l-.52-2.24-2.25.48c-27.8,5.94-51.21-8-51.45-8.13l-1.22-.74-1.21.74c-.23.14-23.61,14.13-51.42,8.26l-2.25-.48-.52,2.24c-.1.43-2.43,10.76-1.9,27.84,1.66,53.55,36.15,88.35,56.28,100.48l1.21.73,1.21-.73c20.09-12.17,54.5-47.07,56-100.62C565.45,446.61,563.09,436.29,563,435.86Z"/><path class="cls-4" d="M529.26,438.5a82.5,82.5,0,0,1-21.7-7.83c-5.2,2.86-26,13-51.26,8.6a128.57,128.57,0,0,0-1.37,24.42,119.08,119.08,0,0,0,7.31,37.72Z"/><path class="cls-5" d="M507.73,559.55c19.18-12.17,50.32-44.72,52.46-94.16l-76.91,72.2A109.07,109.07,0,0,0,507.73,559.55Z"/><path class="cls-6" d="M490.53,502.77c2.73,2.9,1.89,6.07,0,7.86l-.32.3-7.83-8.32.36-.34A5.32,5.32,0,0,1,490.53,502.77Zm69.79-41.94-79.09,74.25a122.9,122.9,0,0,1-17.72-30.39l69.72-65.44a76,76,0,0,0,25.63-.1A126.36,126.36,0,0,1,560.32,460.83Zm-65.07,37.5a11.13,11.13,0,0,0-16-.67l-5.57,5.24,15.69,16.68,5.57-5.24A11.15,11.15,0,0,0,495.25,498.33Zm13.56-1a3.49,3.49,0,1,0-.16,4.93A3.49,3.49,0,0,0,508.81,497.34Zm11.86-7.21L505,473.44l-4.8,4.51,15.66,16.69Zm8.27-11.68a3.49,3.49,0,1,0-.16,4.93A3.49,3.49,0,0,0,528.95,478.45Zm6.78-12.64,5.1-4.79-4-4.27-5.1,4.79-2.57-2.73,5.18-4.87-4-4.28L520.34,459,536,475.69l4.77-4.48Zm14.71-7.53a3.49,3.49,0,1,0-.16,4.93A3.49,3.49,0,0,0,550.44,458.28Z"/><line class="cls-7" x1="300" y1="600" x2="300" y2="594"/><line class="cls-8" x1="300" y1="582" x2="300" y2="12"/><line class="cls-7" x1="300" y1="6" x2="300"/></svg>