<?xml version="1.0" encoding="utf-8"?>
<!-- Generator: Adobe Illustrator 21.0.2, SVG Export Plug-In . SVG Version: 6.00 Build 0)  -->
<svg version="1.1" id="Lager_1" xmlns="http://www.w3.org/2000/svg" xmlns:xlink="http://www.w3.org/1999/xlink" x="0px" y="0px"
	 viewBox="0 0 360 360" style="enable-background:new 0 0 360 360;" xml:space="preserve">
<style type="text/css">
	.st0{fill:#EEEEEE;}
	.st1{fill:none;stroke:#000000;stroke-miterlimit:10;}
	.st2{stroke:#000000;stroke-miterlimit:10;}
</style>
<title>img-tags</title>
<g id="Lager_2">
	<g id="Lager_1-2">
		<rect class="st0" width="360" height="360"/>
		<path d="M82.3,34.4v0.5c0,6.9-3.8,10.3-9.2,10.3h-6v-21h6C78.6,24.2,82.3,27.5,82.3,34.4z M80.1,34.5c0-5.7-2.7-8.2-7-8.2h-3.8
			v16.8h3.8c4.3,0,7-2.5,7-8.2V34.5z"/>
		<path d="M85.2,24.2h2.1v3.3h-2.1V24.2z M85.2,30.2h2.1v15h-2.1V30.2z"/>
		<path d="M103.5,47.2c0,2.4-2,4.4-4.4,4.4c0,0-0.1,0-0.1,0h-4.7c-2.5,0-4.5-1.9-4.5-4.4c0-1.5,0.7-2.9,1.9-3.7
			c-0.6-0.6-0.9-1.4-0.9-2.2c0-1.2,0.7-2.3,1.8-2.8c-1.1-0.9-1.7-2.3-1.7-3.7c0-2.8,2.2-5,5-5c0.1,0,0.2,0,0.3,0
			c0.7,0,1.4,0.1,2,0.4h4.6V32h-2.2c0.6,0.8,0.9,1.8,0.9,2.8c0,2.8-2.3,5-5.1,5c-0.1,0-0.1,0-0.2,0h-2c-0.8,0-1.5,0.7-1.5,1.5
			s0.7,1.5,1.5,1.5H99C101.4,42.8,103.5,44.8,103.5,47.2C103.5,47.2,103.5,47.2,103.5,47.2z M101.6,47.2c0-1.5-1.2-2.8-2.7-2.8
			c0,0-0.1,0-0.1,0h-4.1c-1.5,0-2.8,1.2-2.8,2.8c0,1.5,1.2,2.8,2.8,2.8l0,0h4.1c1.5,0.1,2.8-1.1,2.8-2.6
			C101.5,47.3,101.6,47.3,101.6,47.2z M92.8,34.8c0,1.9,1.5,3.4,3.4,3.4c1.9,0,3.4-1.5,3.4-3.4s-1.5-3.4-3.4-3.4
			C94.4,31.4,92.8,32.9,92.8,34.8L92.8,34.8z"/>
		<path d="M105.5,24.2h2.1v3.3h-2.1V24.2z M105.5,30.2h2.1v15h-2.1V30.2z"/>
		<path d="M112.3,41.5V32h-2.5v-1.8h2.6v-4.5h1.9v4.5h4.3V32h-4.2v9.2c0,1.6,0.8,2.2,2,2.2h2.2v1.8h-2.7
			C113.8,45.2,112.3,44.1,112.3,41.5z"/>
		<path d="M120.3,41.3v-0.2c0-2.5,1.8-4.5,5.6-4.5h4.3v-1.2c0-2.4-1.3-3.8-3.6-3.8c-1.7-0.1-3.3,1-3.9,2.7l-1.9-0.4
			c0.9-2.5,3.3-4.1,5.9-4c3.5,0,5.5,2.1,5.5,5.4v9.9h-1.9v-2.4c-1.1,1.7-3,2.8-5.1,2.7C122.3,45.5,120.3,43.8,120.3,41.3z
			 M130.2,39.3V38h-4.1c-2.4,0-3.7,1.3-3.7,3s1.3,2.8,3.2,2.8c2.4,0.1,4.4-1.8,4.5-4.2C130.2,39.5,130.2,39.4,130.2,39.3z"/>
		<path d="M135.7,41.9V24.2h2.1v17.4c0,1.3,0.5,1.8,1.5,1.8h0.8v1.8h-1.3C136.9,45.2,135.7,44.2,135.7,41.9z"/>
		<path d="M161.7,39.2v0.2c0,3.7-3,5.8-6.6,5.8h-7v-21h6.6c3.5,0,6.3,2,6.3,5.5v0.2c0,1.9-1.1,3.7-2.9,4.4
			C160.3,34.9,161.8,36.9,161.7,39.2z M150.3,26.1v7.4h4.3c2.4,0,4.2-1.3,4.2-3.7s-1.9-3.7-4.2-3.7L150.3,26.1z M159.4,39.2
			c0-2.6-1.9-4-4.5-4h-4.7v8h4.7C157.5,43.2,159.4,41.8,159.4,39.2z"/>
		<path d="M163.8,41.3v-0.2c0-2.5,1.8-4.5,5.6-4.5h4.3v-1.2c0-2.4-1.3-3.8-3.6-3.8c-1.7-0.1-3.3,1-3.9,2.7l-1.9-0.4
			c0.9-2.5,3.3-4.1,5.9-4c3.5,0,5.5,2.1,5.5,5.4v9.9h-1.9v-2.4c-1.1,1.7-3,2.8-5.1,2.7C165.8,45.5,163.8,43.8,163.8,41.3z
			 M173.6,39.3V38h-4.1c-2.4,0-3.7,1.3-3.7,3s1.4,2.8,3.2,2.8c2.4,0.1,4.4-1.8,4.5-4.2C173.6,39.5,173.6,39.4,173.6,39.3L173.6,39.3
			z"/>
		<path d="M179.1,30.2h1.9v2.4c0.9-1.7,2.6-2.8,4.6-2.7c3.1,0,5.1,2.2,5.1,5.5v9.8h-2.1v-9.3c0-2.6-1.4-4.2-3.5-4.2
			c-2.3,0-3.9,1.9-3.9,4.5v9h-2.1V30.2z"/>
		<path d="M194.1,24.2h2.1v9.4c0,1.3-0.1,2.6-0.2,3.8l6.9-7.2h2.6l-6,6.2l6.4,8.8h-2.5l-5.4-7.4l-1.9,1.9v5.5h-2L194.1,24.2z"/>
		<path d="M208.1,24.2h2.1v3.3h-2.1V24.2z M208.1,30.2h2.1v15h-2.1V30.2z"/>
		<path d="M213.8,30.2h1.9v2.4c0.9-1.7,2.6-2.8,4.6-2.7c3.1,0,5.1,2.2,5.1,5.5v9.8h-2.1v-9.3c0-2.6-1.4-4.2-3.5-4.2
			c-2.3,0-3.9,1.9-3.9,4.5v9h-2.1V30.2z"/>
		<path d="M241.2,47.2c0,2.4-2,4.4-4.4,4.4c0,0-0.1,0-0.1,0H232c-2.5,0-4.5-1.9-4.5-4.4c0-1.5,0.7-2.9,1.9-3.7
			c-0.6-0.6-0.9-1.4-0.9-2.2c0-1.2,0.7-2.3,1.9-2.8c-1.1-0.9-1.7-2.2-1.7-3.7c0-2.8,2.2-5,5-5c0.1,0,0.2,0,0.3,0
			c0.7,0,1.4,0.1,2,0.4h4.6V32h-2.2c0.6,0.8,0.9,1.8,0.9,2.8c0,2.8-2.3,5-5.1,5c-0.1,0-0.1,0-0.2,0h-2c-0.8,0-1.5,0.7-1.5,1.5
			s0.7,1.5,1.5,1.5h4.8C239.2,42.8,241.2,44.8,241.2,47.2z M239.3,47.2c0-1.5-1.2-2.8-2.7-2.8c0,0-0.1,0-0.1,0h-4.1
			c-1.5,0-2.8,1.2-2.8,2.8c0,1.5,1.2,2.8,2.8,2.8h4.1c1.5,0.1,2.8-1.1,2.9-2.6C239.3,47.3,239.3,47.3,239.3,47.2L239.3,47.2z
			 M230.5,34.8c0,1.9,1.5,3.4,3.4,3.4s3.4-1.5,3.4-3.4s-1.5-3.4-3.4-3.4S230.5,32.9,230.5,34.8z"/>
		<path d="M80.8,71.2v0.2c0,3.7-3,5.8-6.7,5.8h-7v-21h6.7c3.5,0,6.3,2,6.3,5.5v0.2c0,1.9-1.1,3.7-2.8,4.4
			C79.4,66.9,80.8,68.9,80.8,71.2z M69.3,58.1v7.4h4.3c2.4,0,4.2-1.3,4.2-3.7s-1.8-3.7-4.2-3.7H69.3z M78.5,71.2c0-2.6-1.9-4-4.5-4
			h-4.7v7.9H74C76.6,75.2,78.5,73.8,78.5,71.2z"/>
		<path d="M94.9,77.2h-1.9v-2.4c-0.9,1.7-2.6,2.8-4.6,2.7c-3.1,0-5.1-2.2-5.1-5.5v-9.8h2.1v9.3c0,2.6,1.4,4.2,3.5,4.2
			c2.3,0,3.9-1.9,3.9-4.4v-9h2.1V77.2z"/>
		<path d="M97.2,73.6l1.8-0.8c0.7,1.8,2.4,3,4.3,2.9c2,0,3.5-1,3.5-2.7s-1.3-2.3-3.1-2.6l-1.9-0.3c-2.4-0.4-4.2-1.6-4.2-3.9
			s1.9-4.4,5.3-4.4c2.4-0.1,4.7,1.2,5.8,3.3L107,66c-0.7-1.5-2.3-2.4-4-2.4c-2,0-3.3,1-3.3,2.6s1.2,2.1,2.7,2.3l1.9,0.3
			c2.8,0.5,4.7,1.7,4.7,4.1c0,2.6-2.1,4.5-5.6,4.5C100.8,77.6,98.3,76.1,97.2,73.6z"/>
		<path d="M111.4,56.2h2.1v3.3h-2.1V56.2z M111.4,62.2h2.1v15h-2.1V62.2z"/>
		<path d="M117,62.2h2v2.4c0.9-1.7,2.6-2.8,4.6-2.7c3.1,0,5.1,2.1,5.1,5.5v9.8h-2.1v-9.3c0-2.6-1.4-4.2-3.5-4.2
			c-2.3,0-3.9,1.9-3.9,4.5v9H117V62.2z"/>
		<path d="M137.9,77.6c-3.8,0-6.8-2.8-6.8-7.8v-0.3c0-5,2.9-7.8,6.6-7.8s6.6,2.8,6.6,7.8v0.6h-11.2c0.1,3.6,2,5.8,4.8,5.8
			c1.7,0,3.3-1,4-2.6l2,0.4C143,76.1,140.6,77.7,137.9,77.6z M142.3,68.7c-0.2-3.4-2.2-5.3-4.5-5.3s-4.3,1.8-4.5,5.3H142.3z"/>
		<path d="M145.9,73.6l1.8-0.8c0.7,1.8,2.4,3,4.4,2.9c2,0,3.5-1,3.5-2.7s-1.4-2.3-3.1-2.6l-1.9-0.3c-2.4-0.4-4.2-1.6-4.2-3.9
			s1.9-4.4,5.4-4.4c2.4-0.1,4.7,1.2,5.8,3.3l-1.8,0.8c-0.7-1.5-2.3-2.4-4-2.4c-2,0-3.4,1-3.4,2.6s1.2,2.1,2.7,2.3l1.9,0.3
			c2.9,0.5,4.7,1.7,4.7,4.1c0,2.6-2.1,4.5-5.6,4.5C149.4,77.6,146.9,76.1,145.9,73.6z"/>
		<path d="M159.1,73.6l1.8-0.8c0.7,1.8,2.4,3,4.4,2.9c2,0,3.5-1,3.5-2.7s-1.4-2.3-3.1-2.6l-1.9-0.3c-2.4-0.4-4.2-1.6-4.2-3.9
			s1.9-4.4,5.4-4.4c2.4-0.1,4.7,1.2,5.8,3.3l-1.8,0.8c-0.7-1.5-2.3-2.4-4-2.4c-2,0-3.4,1-3.4,2.6s1.2,2.1,2.7,2.3l1.9,0.3
			c2.9,0.5,4.7,1.7,4.7,4.1c0,2.6-2.1,4.5-5.6,4.5C162.7,77.6,160.2,76.1,159.1,73.6z"/>
		<path d="M72,99.9l-6.7-11.7h3.8l3.1,5.7c0.6,1.1,1.1,2.1,1.6,3.3c0.5-1.1,1-2.2,1.7-3.3l3.1-5.6h3.6l-6.7,11.7v9.3H72V99.9z"/>
		<path d="M81,101.8v-0.2c0-5,3.2-7.8,7-7.8s7,2.8,7,7.8v0.2c0,5-3.2,7.8-7,7.8S81,106.8,81,101.8z M91.8,101.8v-0.2
			c0-3.4-1.7-5.2-3.8-5.2s-3.8,1.8-3.8,5.2v0.2c0,3.4,1.7,5.2,3.8,5.2S91.8,105.1,91.8,101.8L91.8,101.8z"/>
		<path d="M109.6,109.2h-2.9v-1.9c-0.9,1.5-2.5,2.3-4.2,2.2c-3.2,0-5.2-2.2-5.2-5.5v-9.8h3.2v9c0,2.2,1.1,3.6,2.9,3.6
			c1.9,0,3.2-1.6,3.2-3.8v-8.8h3.2L109.6,109.2z"/>
		<path d="M112.8,94.2h2.9v1.9c0.9-1.5,2.5-2.3,4.2-2.2c3.2,0,5.2,2.2,5.2,5.5v9.8H122v-9c0-2.3-1.1-3.6-2.9-3.6
			c-1.9,0-3.2,1.6-3.2,3.8v8.8h-3.2V94.2z"/>
		<path d="M141.4,111c0,2.5-2.1,4.6-4.6,4.6c0,0-0.1,0-0.1,0h-4.9c-2.6,0-4.7-2-4.7-4.6c0-1.3,0.5-2.6,1.5-3.5
			c-0.5-0.7-0.8-1.5-0.8-2.3c0-1.3,0.7-2.5,1.8-3.1c-0.8-0.9-1.2-2-1.2-3.2c0-2.9,2.4-5.1,5.6-5.1c0.7,0,1.4,0.1,2.1,0.3h5v2.7h-1.9
			c0.3,0.6,0.4,1.3,0.4,2c0,2.9-2.4,5.1-5.6,5.1h-2.1c-0.9,0-1.3,0.5-1.3,1.2c0,0.6,0.5,1.2,1.1,1.2c0.1,0,0.1,0,0.2,0h4.9
			c2.5,0,4.6,2,4.7,4.5C141.4,110.9,141.4,111,141.4,111z M138.5,111c0-1.2-0.9-2.1-2.1-2.1c-0.1,0-0.1,0-0.2,0h-4
			c-1.2-0.1-2.2,0.8-2.3,2c-0.1,1.2,0.8,2.2,2,2.3c0.1,0,0.2,0,0.3,0h4c1.2,0.1,2.2-0.8,2.2-2C138.5,111.1,138.5,111.1,138.5,111z
			 M131.2,98.9c0,1.5,1.2,2.8,2.7,2.8c1.5,0,2.8-1.2,2.8-2.7c0-1.5-1.2-2.8-2.7-2.8c0,0,0,0,0,0C132.4,96.2,131.2,97.4,131.2,98.9
			C131.2,98.9,131.2,98.9,131.2,98.9L131.2,98.9z"/>
		<path d="M70.1,123.3v5.6h7.5v2.9h-7.5v6.2h9v3.1H66.8v-21h12.4v3.2L70.1,123.3z"/>
		<path d="M81.3,126.2h2.9v1.9c0.9-1.5,2.5-2.3,4.2-2.2c3.2,0,5.2,2.2,5.2,5.5v9.8h-3.1v-9c0-2.3-1.1-3.6-2.9-3.6
			c-1.9,0-3.2,1.6-3.2,3.8v8.8h-3.2V126.2z"/>
		<path d="M97.6,137v-8.1h-2.2v-2.7h2.3v-4.5h2.9v4.5h4v2.7h-3.9v7.6c0,1.4,0.7,2,1.9,2h2v2.7h-2.8C99.2,141.2,97.6,139.8,97.6,137z
			"/>
		<path d="M106.7,126.2h2.9v2.9c1.1-2,3.2-3.1,5.5-3v3.1c-3.3,0-5.2,2.2-5.2,5.6v6.4h-3.2L106.7,126.2z"/>
		<path d="M123.3,141.6c-3.9,0-7.2-2.8-7.2-7.8v-0.2c0-5,3.2-7.8,7-7.8s7,2.8,7,7.8v0.8h-10.9c0,2.8,1.8,4.5,4.2,4.5
			c1.4,0.1,2.8-0.7,3.4-2l3,0.6C128.7,140.1,126.1,141.7,123.3,141.6z M127,132.3c-0.2-2.7-1.9-4.1-3.8-4.1s-3.6,1.4-3.8,4.1H127z"
			/>
		<path d="M132.5,126.2h2.9v2c1-1.5,2.7-2.4,4.5-2.3c3.3,0,6.4,2.4,6.4,7.4v0.9c0,4.9-3,7.4-6.3,7.4c-1.7,0-3.4-0.8-4.3-2.2v7.9
			h-3.1L132.5,126.2z M143.1,133.7v-0.1c0-3.3-1.7-5-3.8-5s-3.8,1.8-3.8,5v0.1c0,3.3,1.6,5,3.8,5S143.1,137,143.1,133.7z"/>
		<path d="M148.8,126.2h2.9v2.9c1.1-2,3.2-3.1,5.5-3v3.1c-3.3,0-5.2,2.2-5.2,5.6v6.4h-3.1L148.8,126.2z"/>
		<path d="M165.5,141.6c-3.9,0-7.1-2.8-7.1-7.8v-0.2c0-5,3.1-7.8,7-7.8s7,2.8,7,7.8v0.8h-10.9c0,2.8,1.8,4.5,4.1,4.5
			c1.4,0.1,2.8-0.7,3.4-2l3,0.6C170.9,140.1,168.3,141.7,165.5,141.6z M169.2,132.3c-0.2-2.7-1.9-4.1-3.9-4.1s-3.6,1.4-3.8,4.1
			H169.2z"/>
		<path d="M174.6,126.2h2.9v1.9c0.9-1.5,2.5-2.3,4.2-2.2c3.2,0,5.2,2.2,5.2,5.5v9.8h-3.1v-9c0-2.3-1.1-3.6-2.9-3.6
			c-1.9,0-3.2,1.6-3.2,3.8v8.8h-3.1L174.6,126.2z"/>
		<path d="M196.4,141.6c-3.9,0-7.1-2.8-7.1-7.8v-0.2c0-5,3.1-7.8,7-7.8s7,2.8,7,7.8v0.8h-10.9c0,2.8,1.8,4.5,4.1,4.5
			c1.4,0.1,2.8-0.7,3.4-2l3,0.6C201.8,140.1,199.2,141.7,196.4,141.6z M200.1,132.3c-0.2-2.7-1.9-4.1-3.9-4.1s-3.6,1.4-3.8,4.1
			H200.1z"/>
		<path d="M217.8,141.2h-2.9v-1.9c-0.9,1.5-2.5,2.3-4.2,2.2c-3.2,0-5.2-2.2-5.2-5.5v-9.8h3.1v9c0,2.2,1.1,3.6,2.9,3.6
			c1.9,0,3.2-1.6,3.2-3.8v-8.8h3.1L217.8,141.2z"/>
		<path d="M221.1,126.2h2.9v2.9c1.1-2,3.2-3.1,5.5-3v3.1c-3.3,0-5.2,2.2-5.2,5.6v6.4h-3.1V126.2z"/>
		<path d="M65.3,162.9v-0.4c0-6.8,3.8-10.6,8.8-10.6c3.1-0.1,5.9,1.7,7.1,4.5L79,157c-0.9-1.9-2.9-3.1-4.9-3c-3.7,0-6.5,2.9-6.5,8.6
			v0.3c0,5.6,2.8,8.6,6.4,8.6c3.3,0,5.5-2.3,5.5-5.9v-1.7h-6V162h8.1v11.1h-2V170c-1.1,2.2-3.4,3.5-5.9,3.4
			C69.2,173.5,65.3,169.8,65.3,162.9z"/>
		<path d="M85.2,158.2h1.9v3.6c0.9-2.3,3.2-3.8,5.7-3.8v2.1c-3.4,0-5.5,2.6-5.5,6.1v6.9h-2.1L85.2,158.2z"/>
		<path d="M94,165.8v-0.3c0-5,2.9-7.8,6.6-7.8s6.6,2.8,6.6,7.8v0.3c0,5-2.9,7.8-6.6,7.8S94,170.8,94,165.8z M105.2,165.8v-0.1
			c0-3.9-2-6.1-4.5-6.1s-4.5,2.1-4.5,6.1v0.1c0,3.9,2,6.1,4.5,6.1S105.1,169.7,105.2,165.8L105.2,165.8z"/>
		<path d="M108.2,158.2h2.3l2.8,9.1c0.3,0.9,0.5,1.7,0.8,3c0.4-1.3,0.6-2.1,0.9-3l2.9-9.1h1.9l2.9,9.1c0.3,0.9,0.6,1.8,0.9,3
			c0.3-1.3,0.6-2.1,0.9-3l2.8-9.1h2.2l-4.9,15h-1.9l-3.1-9.8c-0.2-0.8-0.5-1.6-0.8-2.7c-0.2,1-0.5,1.9-0.8,2.7l-3.1,9.8h-1.9
			L108.2,158.2z"/>
		<path d="M133.8,169.5V160h-2.5v-1.8h2.6v-4.5h1.9v4.5h4.3v1.8h-4.2v9.1c0,1.6,0.8,2.2,2,2.2h2.2v1.8h-2.7
			C135.3,173.2,133.8,172.1,133.8,169.5z"/>
		<path d="M153.8,163.4v9.8h-2.1v-9.3c0-2.6-1.4-4.2-3.5-4.2c-2.3,0-3.9,1.9-3.9,4.4v9h-2.1v-21h2.1v8.1c0.9-1.6,2.6-2.5,4.4-2.4
			C151.8,157.9,153.8,160,153.8,163.4z"/>
		<path d="M64.6,201l2-0.9c1,2.1,3.2,3.5,5.6,3.4c3,0,5.2-1.6,5.2-4.1c0-2.4-1.9-3.4-3.8-3.7l-2.9-0.5c-2.9-0.5-5.8-1.9-5.8-5.4
			v-0.2c0-3.4,3-5.7,6.9-5.7c3.1-0.1,5.9,1.6,7.3,4.3l-2,0.9c-1-2-3.1-3.3-5.4-3.2c-2.6,0-4.7,1.5-4.7,3.9s1.8,3.2,4,3.6l2.9,0.5
			c2.8,0.5,5.6,1.9,5.6,5.3v0.2c0,3.8-3.1,6.2-7.4,6.2C69,205.7,66,203.9,64.6,201z"/>
		<path d="M93.4,205.2h-1.9v-2.4c-0.9,1.7-2.6,2.8-4.6,2.7c-3.1,0-5.1-2.1-5.1-5.5v-9.8h2.1v9.3c0,2.6,1.4,4.2,3.5,4.2
			c2.3,0,3.9-1.9,3.9-4.4v-9h2.1V205.2z"/>
		<path d="M95.8,201.6l1.8-0.8c0.7,1.8,2.4,3,4.3,2.9c2,0,3.5-1,3.5-2.7s-1.3-2.3-3.1-2.6l-1.9-0.4c-2.4-0.4-4.2-1.6-4.2-3.9
			s1.9-4.4,5.3-4.4c2.4-0.1,4.7,1.2,5.8,3.3l-1.8,0.8c-0.7-1.5-2.3-2.4-4-2.4c-2,0-3.3,1-3.3,2.6s1.2,2.1,2.7,2.4l1.9,0.4
			c2.8,0.5,4.7,1.7,4.7,4.1c0,2.6-2.1,4.5-5.6,4.5C99.3,205.6,96.8,204.1,95.8,201.6z"/>
		<path d="M111.1,201.5V192h-2.5v-1.8h2.6v-4.5h1.9v4.5h4.3v1.8h-4.2v9.1c0,1.6,0.8,2.2,2,2.2h2.2v1.8h-2.7
			C112.6,205.2,111.1,204.1,111.1,201.5z"/>
		<path d="M119.2,201.3v-0.2c0-2.5,1.8-4.6,5.6-4.6h4.3v-1.2c0-2.4-1.3-3.8-3.6-3.8c-1.7-0.1-3.3,1-3.9,2.6l-1.9-0.4
			c0.9-2.5,3.3-4.1,5.9-3.9c3.5,0,5.5,2.1,5.5,5.4v9.9h-1.9v-2.4c-1.1,1.7-3,2.8-5.1,2.7C121.2,205.5,119.2,203.8,119.2,201.3z
			 M129,199.3V198h-4c-2.4,0-3.7,1.3-3.7,3s1.3,2.8,3.2,2.8c2.4,0,4.4-1.9,4.5-4.3C129,199.5,129,199.4,129,199.3L129,199.3z"/>
		<path d="M134.6,184.2h2.1v3.3h-2.1V184.2z M134.6,190.2h2.1v15h-2.1V190.2z"/>
		<path d="M140.2,190.2h1.9v2.4c0.9-1.7,2.6-2.8,4.6-2.7c3.1,0,5.1,2.1,5.1,5.5v9.8h-2.1v-9.3c0-2.6-1.4-4.2-3.5-4.2
			c-2.3,0-3.9,1.9-3.9,4.4v9h-2.1V190.2z"/>
		<path d="M154.4,201.3v-0.2c0-2.5,1.8-4.6,5.6-4.6h4.3v-1.2c0-2.4-1.3-3.8-3.6-3.8c-1.7-0.1-3.3,1-3.9,2.6l-1.9-0.4
			c0.9-2.5,3.3-4.1,5.9-3.9c3.5,0,5.5,2.1,5.5,5.4v9.9h-1.9v-2.4c-1.1,1.7-3,2.8-5.1,2.7C156.4,205.5,154.4,203.8,154.4,201.3z
			 M164.3,199.3V198h-4.1c-2.4,0-3.7,1.3-3.7,3s1.4,2.8,3.2,2.8c2.4,0.1,4.4-1.8,4.5-4.2C164.3,199.5,164.3,199.4,164.3,199.3z"/>
		<path d="M171.7,202.4v2.8h-1.9v-21h2.1v8.6c0.8-1.8,2.7-3,4.8-2.9c3.2,0,6.2,2.5,6.2,7.5v0.6c0,5-2.9,7.5-6.2,7.5
			C174.5,205.5,172.6,204.3,171.7,202.4z M180.7,197.8v-0.1c0-3.9-2-5.9-4.5-5.9s-4.4,2-4.4,5.9v0.1c0,3.9,1.9,5.9,4.4,5.9
			S180.7,201.6,180.7,197.8L180.7,197.8z"/>
		<path d="M185.6,201.9v-17.8h2.1v17.4c0,1.3,0.5,1.8,1.5,1.8h0.8v1.8h-1.3C186.8,205.2,185.6,204.2,185.6,201.9z"/>
		<path d="M197.7,205.6c-3.8,0-6.8-2.8-6.8-7.8v-0.3c0-5,2.9-7.8,6.6-7.8s6.6,2.8,6.6,7.8v0.6H193c0.1,3.6,2,5.8,4.8,5.8
			c1.7,0,3.3-1,4-2.6l2,0.4C202.8,204.1,200.4,205.7,197.7,205.6z M202.1,196.7c-0.2-3.4-2.2-5.3-4.5-5.3s-4.3,1.8-4.5,5.3H202.1z"
			/>
		<path d="M89,216.2l-4.7,21h-3.2l-3-11c-0.4-1.6-0.8-3.1-1.1-4.6c-0.3,1.5-0.6,3-1.1,4.6l-3,11h-3.2l-4.7-21h3.4l2.3,10.8
			c0.3,1.6,0.6,3,0.8,4.6c0.3-1.6,0.6-3,1-4.6l2.9-10.9h3l2.9,10.9c0.4,1.6,0.7,3,1,4.6c0.2-1.6,0.5-3,0.8-4.6l2.3-10.9L89,216.2z"
			/>
		<path d="M89.4,229.8v-0.2c0-5,3.2-7.8,7-7.8s7,2.8,7,7.8v0.2c0,5-3.2,7.8-7,7.8S89.4,234.8,89.4,229.8z M100.2,229.7v-0.1
			c0-3.4-1.7-5.2-3.8-5.2s-3.8,1.8-3.8,5.2v0.1c0,3.4,1.7,5.2,3.8,5.2S100.2,233.1,100.2,229.7L100.2,229.7z"/>
		<path d="M105.7,222.2h2.9v1.9c0.9-1.4,2.5-2.3,4.2-2.2c1.7-0.1,3.3,0.8,4,2.4c0.9-1.5,2.5-2.4,4.3-2.4c3.1,0,5.2,2.2,5.2,5.5v9.8
			h-3.2V228c0-2.2-1-3.5-2.7-3.5c-1.8,0-2.9,1.6-2.9,3.8v8.9h-3.2V228c0-2.2-0.9-3.5-2.6-3.5c-1.8,0-3,1.6-3,3.8v8.9h-3.2
			L105.7,222.2z"/>
		<path d="M128.7,233.2V233c0-2.5,1.8-4.7,5.7-4.7h4v-0.8c0.2-1.6-0.9-3-2.5-3.2c-0.2,0-0.4,0-0.5,0c-1.5-0.1-2.8,0.8-3.3,2.2
			l-2.9-0.6c1-2.6,3.5-4.3,6.4-4.1c3.8,0,5.9,2.1,5.9,5.6v9.8h-3v-1.9c-1.2,1.5-3,2.3-4.8,2.2C130.7,237.5,128.7,235.7,128.7,233.2z
			 M138.4,231.2v-0.8h-3.6c-2,0-2.9,1-2.9,2.3s1,2.3,2.7,2.3c2,0.1,3.8-1.5,3.9-3.5C138.4,231.4,138.4,231.3,138.4,231.2
			L138.4,231.2z"/>
		<path d="M144.6,222.2h2.9v1.9c0.9-1.5,2.5-2.3,4.2-2.2c3.2,0,5.2,2.2,5.2,5.5v9.8h-3.1v-9c0-2.3-1.1-3.6-2.9-3.6
			c-1.9,0-3.2,1.6-3.2,3.8v8.8h-3.1L144.6,222.2z"/>
		<path d="M85.1,269.2h-2.2v-17.5c-0.6,1-1.3,2.3-2.2,3.7L76,263l-4.7-7.6c-0.9-1.4-1.6-2.7-2.2-3.8v17.5h-2.1v-21h2.4l6.6,10.9
			l6.6-10.9h2.4V269.2z"/>
		<path d="M88.4,265.3v-0.2c0-2.5,1.8-4.5,5.6-4.5h4.3v-1.2c0-2.4-1.3-3.8-3.6-3.8c-1.7-0.1-3.3,1-3.9,2.7l-1.9-0.4
			c0.9-2.5,3.3-4.1,5.9-3.9c3.5,0,5.5,2.1,5.5,5.4v9.9h-1.9v-2.4c-1.1,1.7-3,2.8-5.1,2.7C90.4,269.5,88.4,267.8,88.4,265.3z
			 M98.3,263.3V262h-4.1c-2.4,0-3.7,1.3-3.7,3s1.3,2.8,3.2,2.8c2.4,0.1,4.4-1.8,4.5-4.2C98.3,263.5,98.3,263.4,98.3,263.3
			L98.3,263.3z"/>
		<path d="M103.8,254.2h1.9v2.4c0.9-1.7,2.6-2.8,4.6-2.7c3.1,0,5.1,2.2,5.1,5.5v9.8h-2.1v-9.3c0-2.6-1.4-4.2-3.5-4.2
			c-2.3,0-3.9,1.9-3.9,4.4v9h-2.1V254.2z"/>
		<path d="M65.3,290.9v-0.5c0-6.8,3.8-10.6,8.8-10.6c3.1-0.1,5.9,1.7,7.1,4.5L79,285c-0.9-1.9-2.9-3.1-4.9-3c-3.7,0-6.5,3-6.5,8.5
			v0.3c0,5.6,2.8,8.5,6.4,8.5c3.3,0,5.5-2.3,5.5-5.9v-1.7h-6V290h8.1v11.1h-2V298c-1.1,2.2-3.4,3.5-5.9,3.4
			C69.2,301.5,65.3,297.8,65.3,290.9z"/>
		<path d="M85.2,286.2h1.9v3.6c0.9-2.3,3.2-3.8,5.7-3.8v2.1c-3.4,0-5.5,2.5-5.5,6.1v6.9h-2.1L85.2,286.2z"/>
		<path d="M94,293.8v-0.3c0-5,2.9-7.8,6.6-7.8s6.6,2.8,6.6,7.8v0.3c0,5-2.9,7.8-6.6,7.8S94,298.8,94,293.8z M105.2,293.8v-0.1
			c0-4-2-6.1-4.5-6.1s-4.5,2.1-4.5,6.1v0.1c0,4,2,6.1,4.5,6.1S105.1,297.7,105.2,293.8L105.2,293.8z"/>
		<path d="M121.3,301.2h-1.9v-2.4c-0.9,1.7-2.6,2.8-4.6,2.7c-3.1,0-5.1-2.1-5.1-5.5v-9.8h2.1v9.3c0,2.6,1.4,4.2,3.5,4.2
			c2.3,0,3.9-1.9,3.9-4.4v-9h2.1V301.2z"/>
		<path d="M124.8,286.2h1.9v2.8c0.9-1.9,2.8-3.1,4.9-3c3.3,0,6.2,2.5,6.2,7.5v0.6c0,5-2.9,7.5-6.2,7.5c-2,0.1-3.9-1.1-4.8-3v8.6
			h-2.1L124.8,286.2z M135.7,293.7v-0.1c0-3.9-2-5.9-4.5-5.9s-4.4,2.1-4.4,5.9v0.1c0,3.9,1.9,5.9,4.4,5.9S135.7,297.6,135.7,293.7
			L135.7,293.7z"/>
		<path d="M65.2,322.9v-0.5c0-6.9,3.9-10.7,8.9-10.7s8.9,3.9,8.9,10.7v0.5c0,6.9-3.9,10.7-8.9,10.7S65.2,329.8,65.2,322.9z
			 M79.6,322.8v-0.3c0-5-2.4-7.6-5.5-7.6s-5.5,2.6-5.5,7.6v0.3c0,5,2.4,7.6,5.5,7.6S79.6,327.8,79.6,322.8z"/>
		<path d="M87,320.9h-2.6v-2.7h2.7v-1.7c0-3.1,2.1-4.3,4.3-4.3h2.2v2.7h-1.8c-0.9-0.1-1.8,0.6-1.9,1.5c0,0.1,0,0.3,0,0.4v1.4h3.7
			v2.7h-3.5v12.3H87V320.9z"/>
		<path d="M97.6,320.9H95v-2.7h2.7v-1.7c0-3.1,2.1-4.3,4.3-4.3h2.2v2.7h-1.8c-0.9-0.1-1.8,0.6-1.9,1.5c0,0.1,0,0.3,0,0.4v1.4h3.7
			v2.7h-3.5v12.3h-3.2V320.9z"/>
		<path d="M106.2,312.2h3.2v3.8h-3.2V312.2z M106.2,318.2h3.2v15h-3.2V318.2z"/>
		<path d="M111.7,325.8v-0.2c0-4.9,3.2-7.7,6.8-7.7c2.9,0,5.5,1.9,6.2,4.8l-2.9,0.5c-0.4-1.5-1.8-2.6-3.3-2.6c-2,0-3.7,1.8-3.7,5
			v0.1c0,3.3,1.7,5,3.7,5c1.6-0.1,2.9-1.1,3.3-2.6l2.9,0.5c-0.7,2.8-3.3,4.8-6.2,4.8C114.8,333.5,111.7,330.7,111.7,325.8z"/>
		<path d="M133.1,333.6c-3.9,0-7.2-2.8-7.2-7.8v-0.2c0-5,3.2-7.8,7-7.8s7,2.8,7,7.9v0.8h-11c0,2.8,1.8,4.5,4.1,4.5
			c1.4,0.1,2.8-0.7,3.4-2l3,0.5C138.5,332.1,135.9,333.7,133.1,333.6z M136.8,324.4c-0.2-2.7-1.9-4.1-3.9-4.1s-3.6,1.4-3.8,4.1
			H136.8z"/>
		<rect x="26.3" y="24.2" class="st1" width="20.8" height="20.7"/>
		<rect x="26.3" y="56.2" class="st1" width="20.8" height="20.8"/>
		<rect x="26.3" y="88.2" class="st2" width="20.8" height="20.8"/>
		<rect x="26.3" y="120.2" class="st2" width="20.8" height="20.8"/>
		<rect x="26.3" y="152.2" class="st1" width="20.8" height="20.8"/>
		<rect x="26.3" y="184.3" class="st1" width="20.8" height="20.8"/>
		<rect x="26.3" y="216.3" class="st2" width="20.8" height="20.8"/>
		<rect x="26.3" y="248.3" class="st1" width="20.8" height="20.8"/>
		<rect x="26.3" y="280.3" class="st1" width="20.8" height="20.8"/>
		<rect x="26.3" y="312.4" class="st2" width="20.8" height="20.8"/>
		<line class="st1" x1="47" y1="120.2" x2="26.3" y2="141"/>
		<line class="st1" x1="47" y1="141" x2="26.3" y2="120.2"/>
		<line class="st1" x1="47" y1="88.2" x2="26.3" y2="109"/>
		<line class="st1" x1="47" y1="109" x2="26.3" y2="88.2"/>
		<line class="st1" x1="47" y1="216.3" x2="26.3" y2="237.1"/>
		<line class="st1" x1="47" y1="237.1" x2="26.3" y2="216.3"/>
		<line class="st1" x1="47" y1="312.4" x2="26.3" y2="333.1"/>
		<line class="st1" x1="47" y1="333.1" x2="26.3" y2="312.4"/>
	</g>
</g>
</svg>
