<?xml version="1.0" encoding="utf-8"?>
<!-- Generator: Adobe Illustrator 21.0.2, SVG Export Plug-In . SVG Version: 6.00 Build 0)  -->
<svg version="1.1" id="Lager_1" xmlns="http://www.w3.org/2000/svg" xmlns:xlink="http://www.w3.org/1999/xlink" x="0px" y="0px"
	 viewBox="0 0 990.3 160.6" style="enable-background:new 0 0 990.3 160.6;" xml:space="preserve">
<title>five-icons</title>
<g id="Lager_1-2">
	<rect x="67.5" width="3" height="160.6"/>
	<path d="M114.2,57.1c-8.8,0-16-7.2-16-16s7.2-16,16-16s16,7.2,16,16S123.1,57.1,114.2,57.1z M114.2,28.1c-7.2,0-13,5.8-13,13
		s5.8,13,13,13s13-5.8,13-13l0,0C127.2,33.9,121.4,28.1,114.2,28.1z"/>
	<path d="M143.2,149.2h-58c-0.8,0-1.5-0.7-1.5-1.5c0-0.1,0-0.2,0-0.3l7.1-40.6v-22c0-8.6,7-15.6,15.7-15.6H122
		c8.6,0,15.6,7,15.6,15.6v22l7.1,40.6c0.1,0.8-0.4,1.6-1.2,1.7C143.4,149.1,143.3,149.1,143.2,149.2L143.2,149.2z M87,146.2h54.4
		l-6.8-38.9c0-0.1,0-0.2,0-0.3V84.8c0-7-5.7-12.6-12.6-12.6h-15.5c-7,0-12.6,5.7-12.7,12.6V107c0,0.1,0,0.2,0,0.3L87,146.2z"/>
	<path d="M23.5,57.3c-8.8,0-16-7.2-16-16s7.2-16,16-16s16,7.2,16,16S32.3,57.3,23.5,57.3z M23.5,28.3c-7.2,0-13,5.8-13,13
		s5.8,13,13,13s13-5.8,13-13S30.7,28.3,23.5,28.3z"/>
	<path d="M47,150.7h-3V85.2c0-7.1-5.7-12.8-12.7-12.9H15.7C8.7,72.4,3,78.1,3,85.2v65.5H0V85.2c0-8.7,7-15.8,15.7-15.9h15.5
		C40,69.4,47,76.5,47,85.2V150.7z"/>
	<path d="M466.4,144.6c-23.9,0.1-43.4-19.3-43.5-43.2V60.7c0-0.8,0.7-1.5,1.5-1.5h84.1c0.8,0,1.5,0.7,1.5,1.5v40.8
		C509.8,125.4,490.3,144.7,466.4,144.6z M425.8,62.2v39.3c0.4,22.4,18.8,40.3,41.2,39.9c21.9-0.3,39.6-18,39.9-39.9V62.2H425.8z"/>
	<path d="M446,32.2h-3c0-9.2,7.6-16.7,16.8-16.7c7.6,0,13.7-6.1,13.8-13.7h3c0,9.2-7.6,16.7-16.8,16.7C452.2,18.5,446,24.7,446,32.2
		z"/>
	<path d="M471.5,45.4h-3c0-9.2,7.6-16.7,16.8-16.7c7.6,0,13.8-6.1,13.8-13.7h3c0,9.2-7.6,16.7-16.8,16.7
		C477.8,31.7,471.6,37.8,471.5,45.4z"/>
	<path d="M516.4,109.2H509v-3h7.4c7.1,0,12.8-5.7,12.8-12.7V70.2h-19.6v-3h21.1c0.8,0,1.5,0.7,1.5,1.5v24.8
		C532.2,102.2,525.1,109.2,516.4,109.2z"/>
	<path d="M526.9,160.6H405.8c-9.9,0-17.9-8-17.9-17.9h3c0,8.2,6.7,14.9,14.9,14.9h121.2c8.2,0,14.9-6.7,14.9-14.9h3
		C544.8,152.6,536.8,160.6,526.9,160.6z"/>
	<path d="M943.7,85.3l-2.1-2.1l7.2-7.2c0.5-0.4,1.1-0.6,1.7-0.3c12.7,6.2,28.1,0.8,34.2-11.9c2.6-5.4,3.2-11.5,1.8-17.3L971,62
		c-0.6,0.6-1.5,0.6-2.1,0l-16.6-16.7c-0.6-0.6-0.6-1.5,0-2.1l15.5-15.5c-8.7-2.1-17.9,0.5-24.3,6.8c-7.5,7.4-9.6,18.7-5.4,28.3
		c0.2,0.6,0.1,1.2-0.3,1.7l-15.2,15.2l-2.1-2.1L935,63c-4.2-10.6-1.7-22.7,6.4-30.7c7.8-7.7,19.3-10.4,29.7-6.8
		c0.8,0.3,1.2,1.1,0.9,1.9c-0.1,0.2-0.2,0.4-0.4,0.6l-16.2,16.3L970,58.8l16.2-16.2c0.6-0.6,1.5-0.6,2.1,0c0.2,0.2,0.3,0.4,0.4,0.6
		c5.2,14.9-2.6,31.3-17.6,36.5c-6.8,2.4-14.3,2.1-21-0.8L943.7,85.3z"/>
	<path d="M863.8,160.6c-6,0-10.9-4.9-10.9-11c0-2.9,1.1-5.6,3.2-7.7l51.1-51.1l2.1,2.1l-51.1,51.1c-3,3.2-2.9,8.2,0.3,11.2
		c3.1,2.9,7.8,2.9,10.9,0l43.8-43.8l2.1,2.1l-43.8,43.8C869.5,159.5,866.7,160.6,863.8,160.6z"/>
	<path d="M979,160c-2.9,0-5.7-1.1-7.7-3.2l-48.5-48.5c-0.6-0.6-0.6-1.5,0-2.1l13.3-13.3c0.6-0.6,1.5-0.6,2.1,0l48.5,48.5
		c4.3,4.3,4.3,11.2,0,15.4C984.7,158.8,981.9,160,979,160z M925.9,107.2l47.5,47.4c3,3.2,8,3.3,11.2,0.3c3.2-3,3.3-8,0.3-11.2
		c-0.1-0.1-0.2-0.2-0.3-0.3L937.1,96L925.9,107.2z"/>
	<path d="M883.2,54.8H883l-14.4-1.1c-0.4,0-0.7-0.2-1-0.4l-13.8-13.9c-0.6-0.6-0.6-1.5,0-2.1l13.3-13.3c0.6-0.6,1.5-0.6,2.1,0
		l13.9,13.9c0.3,0.3,0.4,0.6,0.4,1l1.1,14.4c0.1,0.8-0.6,1.5-1.4,1.6C883.2,54.7,883.2,54.7,883.2,54.8L883.2,54.8z M869.4,50.8
		l12.1,0.9l-0.9-12.1l-12.4-12.4L857,38.3L869.4,50.8z"/>
	<rect x="905.3" y="43.5" transform="matrix(0.7071 -0.7071 0.7071 0.7071 211.212 663.735)" width="3" height="66.9"/>
	<rect x="259.2" y="143.3" width="16.1" height="3"/>
	<path d="M294.2,160.6h-53.9c-6.9,0-12.5-5.6-12.5-12.5v-113c0-6.9,5.6-12.5,12.5-12.5h53.9c6.9,0,12.5,5.6,12.5,12.5v113
		C306.7,155,301.1,160.6,294.2,160.6z M240.3,25.6c-5.2,0-9.5,4.3-9.5,9.5v113c0,5.2,4.3,9.5,9.5,9.5h53.9c5.2,0,9.5-4.3,9.5-9.5
		v-113c0-5.2-4.3-9.5-9.5-9.5H240.3z"/>
	<rect x="229.3" y="49.5" width="75.9" height="3"/>
	<rect x="229.3" y="130.4" width="75.9" height="3"/>
	<path d="M744.2,79.6c-8.8,0-15.9-7.1-15.9-15.8s7.1-15.9,15.8-15.9S760,55,760,63.7c0,0,0,0,0,0C760,72.5,752.9,79.6,744.2,79.6z
		 M744.2,50.9c-7.1,0-12.9,5.8-12.9,12.8s5.8,12.9,12.8,12.9S757,70.8,757,63.7c0,0,0,0,0,0C757,56.6,751.3,50.9,744.2,50.9
		L744.2,50.9z"/>
	<path d="M767.9,137h-3v-29.2c0-7.1-5.8-12.8-12.9-12.8h-15.6c-7.1,0-12.8,5.8-12.8,12.8V137h-3v-29.2c0-8.7,7.1-15.8,15.8-15.8H752
		c8.7,0,15.8,7.1,15.8,15.8L767.9,137z"/>
	<path d="M697.5,65.5c-0.4,0-0.8-0.2-1.1-0.4l-12.6-12.6l-3,0.1H647c-0.8,0-1.5-0.7-1.5-1.5V3.6c0-0.8,0.7-1.5,1.5-1.5h58.9
		c0.8,0,1.5,0.7,1.5,1.5V51c0,0.8-0.7,1.5-1.5,1.5H699V64C699,64.8,698.3,65.5,697.5,65.5L697.5,65.5z M684.5,49.4
		c0.4,0,0.8,0.2,1.1,0.4L696,60.4V51c0-0.8,0.7-1.5,1.5-1.5h6.9V5.1h-55.9v44.4h32.4L684.5,49.4L684.5,49.4z"/>
	<rect x="687.3" y="135.2" width="91.6" height="3"/>
	<rect x="618.9" y="135.2" width="24.1" height="3"/>
	<path d="M665.1,104.3c-8.8,0-15.8-7.1-15.8-15.9c0-8.8,7.1-15.8,15.9-15.8c8.7,0,15.8,7.1,15.8,15.8
		C681,97.2,673.9,104.3,665.1,104.3z M665.1,75.6c-7.1,0-12.8,5.8-12.8,12.9c0,7.1,5.8,12.8,12.9,12.8c7.1,0,12.8-5.8,12.8-12.8
		C678,81.4,672.2,75.6,665.1,75.6z"/>
	<path d="M688.8,160.6h-3v-28c0-7.1-5.8-12.8-12.8-12.8h-15.7c-7.1,0-12.8,5.8-12.8,12.8v28.1h-3v-28.1c0-8.7,7.1-15.8,15.8-15.8
		h15.6c8.7,0,15.8,7.1,15.8,15.8L688.8,160.6z"/>
</g>
</svg>
