<svg xmlns="http://www.w3.org/2000/svg" viewBox="0 0 569.25 394.55"><title>icon-weights</title><g id="Lager_2" data-name="Lager 2"><g id="Lager_1-2" data-name="Lager 1"><path d="M17.22,394.55a1.5,1.5,0,0,1-1.5-1.5V372.37H3a1.5,1.5,0,0,1-1.5-1.5V290.11a1.5,1.5,0,0,1,1.5-1.5H103.16a1.5,1.5,0,0,1,1.5,1.5v80.76a1.5,1.5,0,0,1-1.5,1.5H45.63l-6.18.52L18.28,394.11A1.5,1.5,0,0,1,17.22,394.55ZM4.52,369.37h12.7a1.5,1.5,0,0,1,1.5,1.5v18.55l19-19a1.5,1.5,0,0,1,.93-.44l6.79-.58h56.22V291.61H4.52Z"/><path d="M157,343.49H116.89v-3h38.63V262.73h-12.7a1.5,1.5,0,0,1-1.5-1.5V242.68l-19.57,19.61a1.5,1.5,0,0,1-1.06.44H58.39v15h-3V261.23a1.5,1.5,0,0,1,1.5-1.5h63.19L141.76,238a1.5,1.5,0,0,1,2.56,1.06v20.68H157a1.5,1.5,0,0,1,1.5,1.5V342A1.5,1.5,0,0,1,157,343.49Z"/><rect x="19.93" y="320.56" width="54.66" height="3"/><rect x="19.93" y="339.81" width="27.33" height="3"/><path d="M566.27,339.8h-57.1v-3h55.6V273H469.07v33.16h-3V271.52a1.5,1.5,0,0,1,1.5-1.5h98.69a1.5,1.5,0,0,1,1.5,1.5V338.3A1.5,1.5,0,0,1,566.27,339.8Z"/><rect x="467.57" y="285.24" width="98.69" height="3"/><rect x="542.94" y="322.84" width="13.83" height="3"/><path d="M413.32,312.15,411.19,310l14-14a1.5,1.5,0,0,1,1.06-.44h41.36v3H426.84Z"/><path d="M475.76,362.56H464.52a12.75,12.75,0,1,1,0-25.49h11.25a12.75,12.75,0,0,1,0,25.49Zm-11.25-22.49a9.75,9.75,0,1,0,0,19.49h11.25a9.75,9.75,0,0,0,0-19.49Z"/><path d="M467.45,385.05H456.2a12.75,12.75,0,1,1,0-25.49h11.25a12.75,12.75,0,0,1,0,25.49ZM456.2,362.56a9.75,9.75,0,1,0,0,19.49h11.25a9.75,9.75,0,0,0,0-19.49Z"/><path d="M420.11,364.83v-3a23.35,23.35,0,0,0,23.32-23.32,1.5,1.5,0,0,1,1.5-1.5h42.14a9.5,9.5,0,1,0,0-19H455.51v-3h31.56a12.5,12.5,0,1,1,0,25H446.39A26.36,26.36,0,0,1,420.11,364.83Z"/><rect x="408.76" y="382.05" width="47.44" height="3"/><rect x="281.99" y="367.76" width="16.06" height="3"/><path d="M317,385.05H263.08a12.51,12.51,0,0,1-12.5-12.5v-113a12.51,12.51,0,0,1,12.5-12.5H317a12.51,12.51,0,0,1,12.5,12.5v113A12.51,12.51,0,0,1,317,385.05Zm-53.89-135a9.51,9.51,0,0,0-9.5,9.5v113a9.51,9.51,0,0,0,9.5,9.5H317a9.51,9.51,0,0,0,9.5-9.5v-113a9.51,9.51,0,0,0-9.5-9.5Z"/><rect x="252.08" y="273.93" width="75.89" height="3"/><rect x="252.08" y="354.83" width="75.89" height="3"/><path d="M17.2,160a3,3,0,0,1-3-3V137.82H3a3,3,0,0,1-3-3V54.06a3,3,0,0,1,3-3H103.13a3,3,0,0,1,3,3v80.76a3,3,0,0,1-3,3H45.67l-5.57.47L19.32,159.12A3,3,0,0,1,17.2,160ZM6,131.82H17.2a3,3,0,0,1,3,3v14.93l16.43-16.47a3,3,0,0,1,1.87-.87l6.79-.58h54.84V57.06H6Z"/><path d="M157,108.94H116.87v-6H154V28.18H142.8a3,3,0,0,1-3-3V10.26l-17,17a3,3,0,0,1-2.12.88H59.87V41.72h-6V25.18a3,3,0,0,1,3-3h62.56L140.68.88A3,3,0,0,1,145.8,3V22.18H157a3,3,0,0,1,3,3v80.76A3,3,0,0,1,157,108.94Z"/><rect x="19.91" y="83.01" width="54.66" height="6"/><rect x="19.91" y="102.26" width="27.33" height="6"/><path d="M566.25,105.25h-57.1v-6h54.1V38.47H470.55V70.13h-6V35.47a3,3,0,0,1,3-3h98.69a3,3,0,0,1,3,3v66.78A3,3,0,0,1,566.25,105.25Z"/><rect x="467.55" y="47.69" width="98.69" height="6"/><rect x="542.91" y="85.29" width="13.83" height="6"/><path d="M414.35,77.16l-4.24-4.24,14-14a3,3,0,0,1,2.12-.88h41.36v6H427.44Z"/><path d="M475.74,128H464.49a14.25,14.25,0,1,1,0-28.49h11.25a14.25,14.25,0,0,1,0,28.49Zm-11.25-22.49a8.25,8.25,0,1,0,0,16.49h11.25a8.25,8.25,0,0,0,0-16.49Z"/><path d="M467.43,150.5H456.18a14.25,14.25,0,1,1,0-28.49h11.25a14.25,14.25,0,0,1,0,28.49ZM456.18,128a8.25,8.25,0,1,0,0,16.49h11.25a8.25,8.25,0,0,0,0-16.49Z"/><path d="M420.09,130.28v-6a21.85,21.85,0,0,0,21.82-21.82,3,3,0,0,1,3-3H487a8,8,0,1,0,0-16H455.49v-6H487a14,14,0,1,1,0,28h-39.3A27.86,27.86,0,0,1,420.09,130.28Z"/><rect x="408.74" y="144.5" width="47.44" height="6"/><rect x="281.97" y="130.21" width="16.06" height="6"/><path d="M316.95,150.5H263.05a14,14,0,0,1-14-14V23.5a14,14,0,0,1,14-14h53.89a14,14,0,0,1,14,14v113A14,14,0,0,1,316.95,150.5Zm-53.89-135a8,8,0,0,0-8,8v113a8,8,0,0,0,8,8h53.89a8,8,0,0,0,8-8V23.5a8,8,0,0,0-8-8Z"/><rect x="252.05" y="36.37" width="75.89" height="6"/><rect x="252.05" y="117.28" width="75.89" height="6"/></g></g></svg>