<svg xmlns="http://www.w3.org/2000/svg" viewBox="0 0 1780.8 1510.02"><defs><style>.cls-1{fill:none;stroke:#000;stroke-linejoin:round;stroke-width:6px;}</style></defs><title>icons-bold</title><g id="Lager_2" data-name="Lager 2"><g id="Lager_1-2" data-name="Lager 1"><path d="M1459.71,614.59a24.44,24.44,0,0,1-17.19-41.76L1465,550.39l4.24,4.24-22.44,22.44a18.57,18.57,0,0,0,.49,26.73c7.22,6.73,18.94,6.35,26.13-.84l22.08-22.08,4.24,4.24-22.08,22.08A25.33,25.33,0,0,1,1459.71,614.59Z"/><rect x="1356.14" y="664.98" width="51.99" height="6" transform="translate(-67.87 1171.96) rotate(-44.96)"/><rect x="1419.45" y="590.81" width="73.68" height="6" transform="translate(6.65 1203.67) rotate(-45)"/><path d="M1494.1,688.14l-50.84-50.84-3.82,4.05a18.64,18.64,0,0,1-26.73.38l-32.1-32.1c-8.89-8.89-15.37-19.19-18.24-29-3.06-10.44-1.72-19.21,3.76-24.7a3,3,0,0,1,4.24,0l128,128ZM1368.54,562.59c-2.22,4-2.39,9.63-.42,16.35,2.6,8.87,8.54,18.26,16.73,26.45l32.1,32.1a12.64,12.64,0,0,0,18.12-.26l3.94-4.18Z"/><path d="M1160.09,684a44.92,44.92,0,0,1-45-44.7V598.56a3,3,0,0,1,3-3h84.09a3,3,0,0,1,3,3v40.77A44.92,44.92,0,0,1,1160.09,684Zm-39-82.47v37.77a39,39,0,0,0,78.09,0V601.56Z"/><path d="M1141.19,570.12h-6a18.26,18.26,0,0,1,18.31-18.18,12.26,12.26,0,0,0,12.31-12.18h6a18.26,18.26,0,0,1-18.31,18.18A12.26,12.26,0,0,0,1141.19,570.12Z"/><path d="M1166.76,583.27h-6a18.26,18.26,0,0,1,18.31-18.18,12.26,12.26,0,0,0,12.31-12.18h6a18.26,18.26,0,0,1-18.31,18.18A12.26,12.26,0,0,0,1166.76,583.27Z"/><path d="M1210.11,648.6h-7.38v-6h7.38a11.28,11.28,0,0,0,11.32-11.21V609.64h-18.14v-6h21.14a3,3,0,0,1,3,3V631.4A17.28,17.28,0,0,1,1210.11,648.6Z"/><path d="M38.29,102.45a17,17,0,1,1,17-17A17,17,0,0,1,38.29,102.45Zm0-28a11,11,0,1,0,11,11A11,11,0,0,0,38.29,74.45Z"/><path d="M13.12,160V129.54a17.37,17.37,0,0,1,17.35-17.35H46.11a17.37,17.37,0,0,1,17.35,17.35V160h-6V129.54a11.36,11.36,0,0,0-11.35-11.35H30.47a11.36,11.36,0,0,0-11.35,11.35V160Z"/><path d="M80.1,98a3,3,0,0,1-3-3V78.18H67.38a3,3,0,0,1-3-3V3a3,3,0,0,1,3-3h89.72a3,3,0,0,1,3,3V75.18a3,3,0,0,1-3,3H101.17L82.22,97.13A3,3,0,0,1,80.1,98ZM70.38,72.18H80.1a3,3,0,0,1,3,3V87.76l14.7-14.7a3,3,0,0,1,2.12-.88h54.17V6H70.38Z"/><path d="M302.05,102.2a17.47,17.47,0,1,1,17.5-17.47A17.5,17.5,0,0,1,302.05,102.2Zm0-28.94a11.47,11.47,0,1,0,11.5,11.47A11.5,11.5,0,0,0,302.05,73.27Z"/><rect x="270.08" y="46.38" width="6" height="113.64"/><path d="M414.81,113.73h-6V97.82A23.21,23.21,0,0,0,385.6,74.67H334.84v39.07h-6V71.67a3,3,0,0,1,3-3H385.6a29.21,29.21,0,0,1,29.21,29.15Z"/><rect x="424.09" y="70.52" width="6" height="89.5"/><rect x="273.08" y="144.41" width="154" height="6"/><rect x="273.09" y="110.73" width="153.99" height="6"/><rect x="574.65" y="64.22" width="20.86" height="6"/><path d="M671.32,160A28.73,28.73,0,1,1,700,131.28,28.72,28.72,0,0,1,671.32,160Zm0-51.47A22.73,22.73,0,1,0,694,131.28,22.71,22.71,0,0,0,671.32,108.55Z"/><path d="M568.82,159.94a28.7,28.7,0,1,1,28.6-28.7A28.68,28.68,0,0,1,568.82,159.94Zm0-51.39a22.7,22.7,0,1,0,22.6,22.7A22.67,22.67,0,0,0,568.82,108.55Z"/><path d="M668.68,132.71l-36.18-67H613.94v-6h20.35a3,3,0,0,1,2.64,1.57l37,68.54Z"/><path d="M571.49,132.61l-5.34-2.73,24.29-47.43a3,3,0,0,1,2.67-1.63H647v6H594.94Z"/><path class="cls-1" d="M647,83.82"/><path d="M620,131.52a3,3,0,0,1-2.57-1.45L580.53,68.77l5.14-3.1,34.38,57,24.38-40.44,5.14,3.1-26.94,44.7A3,3,0,0,1,620,131.52Z"/><path d="M849.13,160a16.52,16.52,0,1,1,16.52-16.52A16.54,16.54,0,0,1,849.13,160Zm0-27a10.52,10.52,0,1,0,10.52,10.52A10.53,10.53,0,0,0,849.13,133Z"/><path d="M930.19,160a16.52,16.52,0,1,1,16.52-16.52A16.54,16.54,0,0,1,930.19,160Zm0-27a10.52,10.52,0,1,0,10.52,10.52A10.53,10.53,0,0,0,930.19,133Z"/><rect x="886.24" y="126.96" width="6" height="34.79" transform="translate(734.69 1031.87) rotate(-89.34)"/><path d="M967.09,148.12l-13.21,0,.07-6,2.37,0h7.77V123.8a11.53,11.53,0,0,0-9.54-11.29L926,107.33a3,3,0,0,1-1.41-.67L896.75,83H846l-29.89,28.93,1.47,28.61,7.65.09-.07,6-10.47-.12a3,3,0,0,1-3-2.85l-1.69-32.79a3,3,0,0,1,.91-2.31l31.75-30.72a3,3,0,0,1,2.09-.84h53a3,3,0,0,1,1.94.71l28.09,23.85,27.73,5a17.53,17.53,0,0,1,14.47,17.2v21.32A3,3,0,0,1,967.09,148.12Z"/><rect x="890.09" y="110.76" width="19.43" height="6"/><path d="M1114.43,67.82a17.5,17.5,0,1,1,17.5-17.5A17.52,17.52,0,0,1,1114.43,67.82Zm0-29a11.5,11.5,0,1,0,11.5,11.5A11.51,11.51,0,0,0,1114.43,38.82Z"/><path d="M1143.43,159.87h-58a3,3,0,0,1-3-3.52l7.09-40.45V94a17.16,17.16,0,0,1,17.15-17.14h15.42A17.16,17.16,0,0,1,1139.29,94v21.9l7.09,40.45a3,3,0,0,1-3,3.52Zm-54.43-6h50.86l-6.52-37.19a3,3,0,0,1,0-.52V94a11.16,11.16,0,0,0-11.15-11.14h-15.42A11.16,11.16,0,0,0,1095.57,94v22.16a3,3,0,0,1,0,.52Z"/><path d="M1384.76,67.7a17.5,17.5,0,1,1,17.5-17.5A17.52,17.52,0,0,1,1384.76,67.7Zm0-29a11.5,11.5,0,1,0,11.5,11.5A11.51,11.51,0,0,0,1384.76,38.7Z"/><path d="M1409.76,160h-6V94.16a11.34,11.34,0,0,0-11.24-11.42H1377a11.34,11.34,0,0,0-11.24,11.42V160h-6V94.16A17.35,17.35,0,0,1,1377,76.74h15.52a17.35,17.35,0,0,1,17.24,17.42Z"/><rect x="77.09" y="269.7" width="6" height="160.62"/><path d="M125.34,328.31a17.5,17.5,0,1,1,17.5-17.5A17.52,17.52,0,0,1,125.34,328.31Zm0-29a11.5,11.5,0,1,0,11.5,11.5A11.51,11.51,0,0,0,125.34,299.31Z"/><path d="M154.34,420.36h-58a3,3,0,0,1-3-3.52l7.09-40.45V354.5a17.16,17.16,0,0,1,17.15-17.14H133A17.16,17.16,0,0,1,150.2,354.5v21.9l7.09,40.45a3,3,0,0,1-3,3.52Zm-54.43-6h50.86l-6.52-37.19a3,3,0,0,1,0-.52V354.5A11.16,11.16,0,0,0,133,343.36H117.63a11.16,11.16,0,0,0-11.15,11.14v22.16a3,3,0,0,1,0,.52Z"/><path d="M574.57,337.82a17.5,17.5,0,1,1,17.5-17.5A17.52,17.52,0,0,1,574.57,337.82Zm0-29a11.5,11.5,0,1,0,11.5,11.5A11.51,11.51,0,0,0,574.57,308.82Z"/><path d="M603.65,430H545.49a3,3,0,0,1-3-3.52l7.11-40.6v-22a17.21,17.21,0,0,1,17.19-17.19H582.3a17.21,17.21,0,0,1,17.19,17.19v22l7.11,40.6a3,3,0,0,1-3,3.52Zm-54.59-6h51l-6.54-37.34a3,3,0,0,1,0-.52V363.92a11.2,11.2,0,0,0-11.19-11.19H566.84a11.2,11.2,0,0,0-11.19,11.19v22.24a3,3,0,0,1,0,.52Z"/><path d="M34.59,328.48A17.5,17.5,0,1,1,52.09,311,17.52,17.52,0,0,1,34.59,328.48Zm0-29A11.5,11.5,0,1,0,46.09,311,11.51,11.51,0,0,0,34.59,299.48Z"/><path d="M59.59,420.4h-6V354.9a11.33,11.33,0,0,0-11.24-11.39H26.83A11.33,11.33,0,0,0,15.59,354.9v65.5h-6V354.9a17.34,17.34,0,0,1,17.24-17.39H42.35A17.34,17.34,0,0,1,59.59,354.9Z"/><rect x="385.66" y="289.09" width="1.49" height="6" transform="translate(-93.31 359.17) rotate(-45.05)"/><path d="M389.05,293.69l-4.24-4.24,6-6a4.17,4.17,0,0,0,1.23-3.15c0-.09,0-.18,0-.27a4.21,4.21,0,0,0-8.42.15h-6a10.21,10.21,0,1,1,20.42,0s0,.07,0,.1a10.24,10.24,0,0,1-3,7.42Z"/><path d="M427.09,329H344.66a3,3,0,0,1-1.89-5.33L384,290.29a3,3,0,0,1,3.78,0L429,323.68a3,3,0,0,1-1.89,5.33Zm-74-6h65.5l-32.75-26.53Z"/><rect x="655.66" y="289.09" width="1.49" height="6" transform="translate(-14.08 550.24) rotate(-45.05)"/><path d="M659.05,293.69l-4.24-4.24,6-6a4.17,4.17,0,0,0,1.23-3.15c0-.09,0-.18,0-.27a4.21,4.21,0,0,0-8.42.15h-6a10.21,10.21,0,1,1,20.42,0s0,.07,0,.1a10.24,10.24,0,0,1-3,7.42Z"/><path d="M697.09,329H614.66a3,3,0,0,1-1.89-5.33L654,290.29a3,3,0,0,1,3.78,0L699,323.68a3,3,0,0,1-1.89,5.33Zm-74-6h65.5l-32.75-26.53Z"/><path d="M970.09,430.51h-6V315a39,39,0,1,0-78,0v10.93h-6V315a45,45,0,1,1,90,0Z"/><path d="M917.12,363H849a3,3,0,0,1-3-3,37.06,37.06,0,1,1,74.11,0A3,3,0,0,1,917.12,363Zm-65-6H914a31.06,31.06,0,0,0-61.83,0Z"/><rect x="852.71" y="380.02" width="6" height="16.5"/><rect x="907.42" y="380.02" width="6" height="16.5"/><rect x="880.06" y="380.02" width="6" height="16.5"/><rect x="866.38" y="414.01" width="6" height="16.5"/><rect x="921.1" y="414.01" width="6" height="16.5"/><rect x="893.74" y="414.01" width="6" height="16.5"/><rect x="839.03" y="414.01" width="6" height="16.5"/><rect x="1085.66" y="403.4" width="6" height="27.11"/><rect x="1079.59" y="400.4" width="102.23" height="6"/><rect x="1169.75" y="403.4" width="6" height="27.11"/><rect x="1106.68" y="403.4" width="6" height="27.11"/><path class="cls-1" d="M1130.7,268.53"/><rect x="1148.72" y="403.4" width="6" height="27.11"/><path d="M1227,430H1187.9v-6h36.5l9.7-65V340.74h-80.28V359l3.67,24.61-5.93.88-3.7-24.83a2.92,2.92,0,0,1,0-.44V337.74a3,3,0,0,1,3-3h86.28a3,3,0,0,1,3,3v21.46a2.92,2.92,0,0,1,0,.44l-10.11,67.81A3,3,0,0,1,1227,430Z"/><path d="M1230.66,337.74h-6V323.25a30.71,30.71,0,0,0-61.41,0v14.49h-6V323.25a36.71,36.71,0,0,1,73.41,0Z"/><rect x="1127.7" y="269.51" width="6" height="161"/><rect x="1406.73" y="349.16" width="6" height="81.35"/><path d="M1409.73,420.94h-15.67a3,3,0,0,1-3-3V361.72a3,3,0,0,1,3-3h15.67v6h-12.67v50.22h12.67Z"/><rect x="1409.73" y="386.83" width="67.41" height="6"/><rect x="1377.18" y="370.85" width="6" height="37.97"/><rect x="1474.54" y="349.16" width="6" height="81.35"/><path d="M1493.22,420.94h-15.67v-6h12.67V364.72h-12.67v-6h15.67a3,3,0,0,1,3,3v56.22A3,3,0,0,1,1493.22,420.94Z"/><rect x="1504.09" y="370.85" width="6" height="37.97"/><path d="M1368.22,393.82a48.37,48.37,0,1,1,73-14.63l-5.28-2.85A42.39,42.39,0,1,0,1372,389.15Z"/><path d="M1422.94,315.95h-6V301.3a5,5,0,0,0-5-5h-26a5,5,0,0,0-5,5v14.65h-6V301.3a11,11,0,0,1,11-11h26a11,11,0,0,1,11,11Z"/><path d="M1722.62,430h-4.76a31.8,31.8,0,0,1-31.77-31.77V360.17h6v38.08A25.8,25.8,0,0,0,1717.86,424h4.76a25.8,25.8,0,0,0,25.77-25.77h6A31.81,31.81,0,0,1,1722.62,430Z"/><path d="M1689.09,363.17a54.81,54.81,0,0,1-54.74-54.74V287.87a3,3,0,0,1,3-3h12.79v6h-9.79v17.56a48.74,48.74,0,0,0,97.49,0V290.87H1728v-6h12.79a3,3,0,0,1,3,3v20.56A54.81,54.81,0,0,1,1689.09,363.17Z"/><path d="M1751.39,404a19.2,19.2,0,1,1,19.2-19.2A19.22,19.22,0,0,1,1751.39,404Zm0-32.39a13.2,13.2,0,1,0,13.2,13.2A13.21,13.21,0,0,0,1751.39,371.57Z"/><path d="M1689.09,318.23a3,3,0,0,1-2.12-.88l-19.14-19.14A16.53,16.53,0,0,1,1689.09,273a16.56,16.56,0,0,1,21.26,1.79h0a16.53,16.53,0,0,1,0,23.38l-19.13,19.13A3,3,0,0,1,1689.09,318.23ZM1679.52,276a10.53,10.53,0,0,0-7.45,18l17,17,17-17a10.53,10.53,0,1,0-14.89-14.89,3,3,0,0,1-4.24,0A10.5,10.5,0,0,0,1679.52,276Z"/><path d="M157.09,700H37.76a3,3,0,0,1-3-3V624.88a3,3,0,0,1,3-3H157.09a3,3,0,0,1,3,3V697A3,3,0,0,1,157.09,700ZM40.76,694H154.09V627.88H40.76Z"/><path d="M23.57,646.58.88,623.89a3,3,0,0,1,0-4.24l78.8-78.8a3.09,3.09,0,0,1,4.24,0l50.71,50.71a3,3,0,0,1,0,4.24L116,614.38l-4.24-4.24,16.46-16.46L81.8,547.21,7.24,621.77l20.57,20.57Z"/><path d="M97.43,678.38a3,3,0,0,1-1.94-.71l-59.67-50.5,3.88-4.58,57.73,48.86,57.73-48.86,3.88,4.58-59.67,50.5A3,3,0,0,1,97.43,678.38Z"/><path d="M331.6,700a18.25,18.25,0,1,1,5.72-.93A18.27,18.27,0,0,1,331.6,700Zm0-30.49a12.24,12.24,0,1,0,11.63,8.39A12.2,12.2,0,0,0,331.57,669.53Z"/><path d="M360.42,677.75a3,3,0,0,1-2.85-2.06l-32.52-98.16a3,3,0,0,1,1.9-3.79L377.4,557a3,3,0,0,1,3.79,1.9l32.52,98.16a3,3,0,0,1-1.9,3.79l-50.44,16.71A3,3,0,0,1,360.42,677.75Zm-28.73-99.26L362.32,671l44.75-14.82-30.63-92.46Z"/><rect x="351.99" y="663.39" width="67.31" height="6" transform="translate(-190 155.08) rotate(-18.33)"/><path d="M331.58,668.24,291.09,546h-21.5v-6h23.67a3,3,0,0,1,2.85,2.06l41.18,124.3Z"/><rect x="346.72" y="583.32" width="24.79" height="6" transform="translate(-166.16 142.68) rotate(-18.33)"/><path d="M570.68,568l-4.24-4.24,22.83-22.83a3,3,0,0,1,2.12-.88h0a3,3,0,0,1,2.12.88l22.83,22.83L612.09,568l-20.71-20.71Z"/><path d="M648.79,568.83h0a3,3,0,0,1-2.12-.88l-22.83-22.83,4.24-4.24,20.71,20.71,20.71-20.71,4.24,4.24L650.91,568A3,3,0,0,1,648.79,568.83Z"/><path d="M687.59,700h-135a3,3,0,0,1-3-3V590a3,3,0,0,1,3-3h135a3,3,0,0,1,3,3V697A3,3,0,0,1,687.59,700Zm-132-6h129V593h-129Z"/><path d="M588.39,642.65a17.5,17.5,0,1,1,17.5-17.5A17.52,17.52,0,0,1,588.39,642.65Zm0-29a11.5,11.5,0,1,0,11.5,11.5A11.51,11.51,0,0,0,588.39,613.65Z"/><path d="M613.56,697h-6V669.24a11.36,11.36,0,0,0-11.35-11.35H580.57a11.36,11.36,0,0,0-11.35,11.35V697h-6V669.24a17.37,17.37,0,0,1,17.35-17.35h15.64a17.37,17.37,0,0,1,17.35,17.35Z"/><path d="M651.79,642.65a17.5,17.5,0,1,1,17.5-17.5A17.52,17.52,0,0,1,651.79,642.65Zm0-29a11.5,11.5,0,1,0,11.5,11.5A11.51,11.51,0,0,0,651.79,613.65Z"/><path d="M677,697h-6V669.24a11.36,11.36,0,0,0-11.35-11.35H644a11.36,11.36,0,0,0-11.35,11.35V697h-6V669.24A17.37,17.37,0,0,1,644,651.89h15.64A17.37,17.37,0,0,1,677,669.24Z"/><path d="M835.25,584.36a17.5,17.5,0,1,1,17.5-17.5A17.52,17.52,0,0,1,835.25,584.36Zm0-29a11.5,11.5,0,1,0,11.5,11.5A11.51,11.51,0,0,0,835.25,555.36Z"/><path d="M816.08,687.51h-6V610.95a17.37,17.37,0,0,1,17.35-17.35h15.64a17.37,17.37,0,0,1,17.35,17.35v42.81h-6V610.95a11.36,11.36,0,0,0-11.35-11.35H827.43a11.36,11.36,0,0,0-11.35,11.35Z"/><path d="M841.79,700H810.07v-6h28.71v-29.2a3,3,0,0,1,3-3H871v-29.2a3,3,0,0,1,3-3h29.2v-29.2a3,3,0,0,1,3-3h29.2v-29.2a3,3,0,0,1,3-3h32.2v6h-29.2v29.2a3,3,0,0,1-3,3h-29.2v29.2a3,3,0,0,1-3,3H877v29.2a3,3,0,0,1-3,3h-29.2V697A3,3,0,0,1,841.79,700Z"/><path d="M1657.32,683.3h0a3,3,0,0,1-2.12-.88l-22.83-22.83,4.24-4.24,20.71,20.71L1678,655.35l4.24,4.24-22.83,22.83A3,3,0,0,1,1657.32,683.3Z"/><rect x="1654.32" y="635.11" width="6" height="44.13"/><path d="M1760.67,622.59H1639.5a19.45,19.45,0,0,1-19.43-19.42h6a13.44,13.44,0,0,0,13.43,13.42h121.16a13.44,13.44,0,0,0,13.43-13.42h6A19.45,19.45,0,0,1,1760.67,622.59Z"/><path d="M1747.75,606.17H1718a3,3,0,0,1-3-2.66l-5.72-49.44a3,3,0,0,1,3-3.34h41.2a3,3,0,0,1,3,3.34l-5.72,49.44A3,3,0,0,1,1747.75,606.17Zm-27.09-6h24.41l5-43.44h-34.47Z"/><path d="M1706.36,606.17H1654a3,3,0,0,1-2.12-.88L1634.58,588a3,3,0,0,1,2.12-5.12H1703v6h-59l11.33,11.33h51.08Z"/><rect x="1619.37" y="694.01" width="161.43" height="6"/><path d="M698.6,21.18v.25c0,6.55-4.66,10.1-11,10.1H681V46.19h-5.62V11.12h12.23C693.94,11.12,698.6,14.67,698.6,21.18Zm-5.7.13c0-3.42-2.2-5.3-5.62-5.3H681V26.65h6.32C690.7,26.65,692.9,24.77,692.9,21.3Z"/><path d="M969.24,21.3v.25c0,6.54-4.67,10.08-11,10.08h-6.62V46.26h-5.63v-35h12.25C964.57,11.25,969.24,14.79,969.24,21.3Zm-5.71.13c0-3.42-2.21-5.29-5.62-5.29h-6.33V26.75h6.33C961.32,26.75,963.53,24.88,963.53,21.42Z"/><path d="M1209.72,11.25l-7.75,35h-5.37l-5-18.42c-.71-2.75-1.29-5.17-1.79-7.71-.5,2.54-1,5-1.79,7.71l-5,18.42h-5.38l-7.75-35h5.75l3.88,18.13c.58,2.71,1,5.08,1.38,7.67.5-2.58,1-5,1.75-7.67l4.83-18.13h4.88l4.83,18.13c.71,2.67,1.21,5.08,1.71,7.67.38-2.58.83-5,1.38-7.67l3.88-18.13Z"/><path d="M1213,29.13v-.75c0-11.29,6.38-17.63,14.21-17.63,5.54,0,10.46,3.21,12.63,9.58l-5.42,1.42c-1.37-3.92-4.21-5.75-7.21-5.75-5,0-8.58,4.33-8.58,12.5V29c0,8.17,3.63,12.5,8.58,12.5,3,0,5.83-1.83,7.21-5.79l5.42,1.46c-2.12,6.38-7.08,9.58-12.63,9.58C1219.42,46.76,1213,40.42,1213,29.13Z"/><path d="M1479.72,11.25l-7.75,35h-5.37l-5-18.42c-.71-2.75-1.29-5.17-1.79-7.71-.5,2.54-1,5-1.79,7.71l-5,18.42h-5.38l-7.75-35h5.75l3.88,18.13c.58,2.71,1,5.08,1.38,7.67.5-2.58,1-5,1.75-7.67l4.83-18.13h4.88l4.83,18.13c.71,2.67,1.21,5.08,1.71,7.67.38-2.58.83-5,1.38-7.67l3.88-18.13Z"/><path d="M1483,29.13v-.75c0-11.29,6.38-17.63,14.21-17.63,5.54,0,10.46,3.21,12.63,9.58l-5.42,1.42c-1.37-3.92-4.21-5.75-7.21-5.75-5,0-8.58,4.33-8.58,12.5V29c0,8.17,3.63,12.5,8.58,12.5,3,0,5.83-1.83,7.21-5.79l5.42,1.46c-2.12,6.38-7.08,9.58-12.63,9.58C1489.42,46.76,1483,40.42,1483,29.13Z"/><path d="M1749.72,11.25l-7.75,35h-5.37l-5-18.42c-.71-2.75-1.29-5.17-1.79-7.71-.5,2.54-1,5-1.79,7.71l-5,18.42h-5.37l-7.75-35h5.75l3.88,18.13c.58,2.71,1,5.08,1.38,7.67.5-2.58,1-5,1.75-7.67l4.83-18.13h4.88l4.83,18.13c.71,2.67,1.21,5.08,1.71,7.67.38-2.58.83-5,1.38-7.67l3.88-18.13Z"/><path d="M1753,29.13v-.75c0-11.29,6.38-17.63,14.21-17.63,5.54,0,10.46,3.21,12.63,9.58l-5.42,1.42c-1.37-3.92-4.21-5.75-7.21-5.75-5,0-8.58,4.33-8.58,12.5V29c0,8.17,3.63,12.5,8.58,12.5,3,0,5.83-1.83,7.21-5.79l5.42,1.46c-2.12,6.38-7.08,9.58-12.63,9.58C1759.42,46.76,1753,40.42,1753,29.13Z"/><path d="M155.59,884.54,80.09,817,4.59,884.54l-4-4.47,77.5-69.3a3,3,0,0,1,4,0l77.5,69.3Z"/><path d="M147.5,970H102a3,3,0,0,1-3-3V893H61.14v74a3,3,0,0,1-3,3H12.68a3,3,0,0,1-3-3V890h6v74H55.14V890a3,3,0,0,1,3-3H102a3,3,0,0,1,3,3v74H144.5V890h6v77A3,3,0,0,1,147.5,970Z"/><rect x="79.59" y="920.75" width="12.03" height="6"/><path d="M137.83,861.9h-6V825.51H116v17.4h-6v-20.4a3,3,0,0,1,3-3h21.86a3,3,0,0,1,3,3Z"/><path d="M333.83,937.5a63.75,63.75,0,1,1,63.75-63.75A63.82,63.82,0,0,1,333.83,937.5Zm0-121.5a57.75,57.75,0,1,0,57.75,57.75A57.81,57.81,0,0,0,333.83,816Z"/><rect x="403.93" y="918.34" width="6" height="57.02" transform="translate(-550.34 565.06) rotate(-45)"/><rect x="305.19" y="853.26" width="57.3" height="6"/><rect x="305.19" y="873.39" width="46.21" height="6"/><rect x="305.19" y="893.52" width="28.65" height="6"/><path d="M557.29,970a3,3,0,0,1-3-3V947.83h-11.2a3,3,0,0,1-3-3V864.07a3,3,0,0,1,3-3H643.22a3,3,0,0,1,3,3v80.76a3,3,0,0,1-3,3H585.76l-5.57.47-20.78,20.83A3,3,0,0,1,557.29,970Zm-11.2-28.18h11.2a3,3,0,0,1,3,3v14.93l16.43-16.47a3,3,0,0,1,1.87-.87l6.79-.58h54.84V867.07H546.09Z"/><path d="M697.09,918.95H657v-6h37.13V838.19h-11.2a3,3,0,0,1-3-3V820.26l-17,17a3,3,0,0,1-2.12.88H600v13.54h-6V835.19a3,3,0,0,1,3-3h62.56l21.25-21.3a3,3,0,0,1,5.12,2.12v19.18h11.2a3,3,0,0,1,3,3v80.76A3,3,0,0,1,697.09,918.95Z"/><rect x="560" y="893.01" width="54.66" height="6"/><rect x="560" y="912.27" width="27.33" height="6"/><path d="M967.09,1454.78H910v-6h54.1V1388H871.4v31.66h-6V1385a3,3,0,0,1,3-3h98.69a3,3,0,0,1,3,3v66.78A3,3,0,0,1,967.09,1454.78Z"/><rect x="868.4" y="1397.22" width="98.69" height="6"/><rect x="943.76" y="1434.81" width="13.83" height="6"/><path d="M815.2,1426.68l-4.24-4.24,14-14a3,3,0,0,1,2.12-.88H868.4v6H828.28Z"/><path d="M876.59,1477.53H865.34a14.25,14.25,0,1,1,0-28.49h11.25a14.25,14.25,0,0,1,0,28.49ZM865.34,1455a8.25,8.25,0,1,0,0,16.49h11.25a8.25,8.25,0,0,0,0-16.49Z"/><path d="M868.28,1500H857a14.25,14.25,0,1,1,0-28.49h11.25a14.25,14.25,0,0,1,0,28.49ZM857,1477.53a8.25,8.25,0,1,0,0,16.49h11.25a8.25,8.25,0,0,0,0-16.49Z"/><path d="M820.93,1479.81v-6A21.85,21.85,0,0,0,842.76,1452a3,3,0,0,1,3-3H887.9a8,8,0,0,0,0-16H856.34v-6H887.9a14,14,0,0,1,0,28H848.6A27.86,27.86,0,0,1,820.93,1479.81Z"/><rect x="809.59" y="1494.03" width="47.44" height="6"/><path d="M304.76,337.7a17.5,17.5,0,1,1,17.5-17.5A17.52,17.52,0,0,1,304.76,337.7Zm0-29a11.5,11.5,0,1,0,11.5,11.5A11.51,11.51,0,0,0,304.76,308.7Z"/><path d="M329.76,430h-6V364.16a11.34,11.34,0,0,0-11.24-11.42H297a11.34,11.34,0,0,0-11.24,11.42V430h-6V364.16A17.35,17.35,0,0,1,297,346.74h15.52a17.35,17.35,0,0,1,17.24,17.42Z"/><path d="M1220.67,700H1099.5a19.45,19.45,0,0,1-19.43-19.42h6A13.44,13.44,0,0,0,1099.5,694h121.16a13.44,13.44,0,0,0,13.43-13.42h6A19.45,19.45,0,0,1,1220.67,700Z"/><path d="M1674.6,62.08a14.69,14.69,0,1,1,14.69-14.69A14.7,14.7,0,0,1,1674.6,62.08Zm0-23.38a8.69,8.69,0,1,0,8.69,8.69A8.7,8.7,0,0,0,1674.6,38.7Z"/><path d="M1692.34,127.13h-23.78a14.7,14.7,0,0,1-14.69-14.69V82.83a14.57,14.57,0,0,1,14.48-14.62h12.51a14.57,14.57,0,0,1,14.48,14.62v41.31A3,3,0,0,1,1692.34,127.13Zm-24-52.93a8.56,8.56,0,0,0-8.48,8.62v29.62a8.7,8.7,0,0,0,8.69,8.69h20.78V82.83a8.56,8.56,0,0,0-8.48-8.62Z"/><path d="M1656.18,160h-.65a36.1,36.1,0,0,1-10.16-70.53l1.8,5.72a30.1,30.1,0,0,0,8.48,58.8h.54a30.22,30.22,0,0,0,28-19.13l5.59,2.19A36.25,36.25,0,0,1,1656.18,160Z"/><path d="M1719.84,160h-6V127.13h-22.24v-6h25.24a3,3,0,0,1,3,3Z"/><rect x="1697.09" y="124.13" width="6" height="35.89"/><path d="M1177.45,1217.93h-34.73a3,3,0,0,1-2.6-4.5l8.64-15a16.73,16.73,0,1,1,22.65,0l8.64,15a3,3,0,0,1-2.6,4.5Zm-29.53-6h24.33l-7.35-12.72a3,3,0,0,1,1-4,10.73,10.73,0,1,0-11.59,0,3,3,0,0,1,1,4Z"/><path d="M1210.17,1239.79H1110a3,3,0,0,1-3-3v-86.21a3,3,0,0,1,3-3h100.18a3,3,0,0,1,3,3v86.21A3,3,0,0,1,1210.17,1239.79Zm-97.18-6h94.18v-80.21H1113Z"/><path d="M1127.34,1150.58h-6v-32.24a38.12,38.12,0,1,1,76.23,0v17.24h-6v-17.24a32.12,32.12,0,1,0-64.23,0Z"/><rect x="882.05" y="940.22" width="16.06" height="6"/><path d="M1393.3,1175.83a3,3,0,0,1-.73-.09,43.51,43.51,0,0,1-8.44-3.07,3,3,0,0,1-1.69-2.74l.12-8.16a35.47,35.47,0,0,1-3.77-3.17l-8,1.53a3,3,0,0,1-3-1.19,43.87,43.87,0,0,1-4.5-7.78,3,3,0,0,1,.47-3.19l5.33-6.16a35.21,35.21,0,0,1-.85-4.87l-7.11-4a3,3,0,0,1-1.53-2.83,43.77,43.77,0,0,1,1.55-8.85,3,3,0,0,1,2.41-2.14l8-1.3a35.13,35.13,0,0,1,2.47-4.28l-2.89-7.6a3,3,0,0,1,.65-3.16,44.12,44.12,0,0,1,6.87-5.78,3,3,0,0,1,3.22-.09l7,4.18a35.13,35.13,0,0,1,4.64-1.69l2.68-7.7a3,3,0,0,1,2.53-2,44.58,44.58,0,0,1,9,0,3,3,0,0,1,2.53,2l2.67,7.7a35,35,0,0,1,4.64,1.69l7-4.18a3,3,0,0,1,3.22.09,44,44,0,0,1,6.87,5.78,3,3,0,0,1,.65,3.15l-2.89,7.6a35.25,35.25,0,0,1,2.47,4.28l8,1.3a3,3,0,0,1,2.41,2.14,43.64,43.64,0,0,1,1.55,8.86,3,3,0,0,1-1.53,2.83l-8.51,4.75-2.92-5.24,6.8-3.79a37.86,37.86,0,0,0-.69-3.93l-7.68-1.24a3,3,0,0,1-2.28-1.78,29.18,29.18,0,0,0-3.43-5.95,3,3,0,0,1-.4-2.86l2.77-7.27a38.09,38.09,0,0,0-3.05-2.57l-6.69,4a3,3,0,0,1-2.89.1,29,29,0,0,0-6.44-2.34,3,3,0,0,1-2.15-1.94l-2.56-7.36a38.77,38.77,0,0,0-4,0l-2.56,7.36a3,3,0,0,1-2.15,1.94,29.05,29.05,0,0,0-6.44,2.35,3,3,0,0,1-2.89-.1l-6.69-4a38.28,38.28,0,0,0-3.05,2.57l2.77,7.27a3,3,0,0,1-.4,2.86,29.23,29.23,0,0,0-3.44,5.95,3,3,0,0,1-2.28,1.78l-7.68,1.24a37.87,37.87,0,0,0-.69,3.93l6.79,3.79a3,3,0,0,1,1.53,2.45,29.21,29.21,0,0,0,1.19,6.76,3,3,0,0,1-.6,2.83l-5.09,5.89a37.83,37.83,0,0,0,2,3.45l7.65-1.47a3,3,0,0,1,2.75.89,29.37,29.37,0,0,0,5.25,4.41,3,3,0,0,1,1.35,2.55l-.11,7.8a37.56,37.56,0,0,0,3.74,1.36l4.93-6,4.65,3.79-6.16,7.57A3,3,0,0,1,1393.3,1175.83Z"/><path d="M1403.25,1146.56a13.28,13.28,0,1,1,13.28-13.28A13.29,13.29,0,0,1,1403.25,1146.56Zm0-20.56a7.28,7.28,0,1,0,7.28,7.28A7.29,7.29,0,0,0,1403.25,1126Z"/><path d="M1463.83,1230.51a3,3,0,0,1-2.33-1.11l-5.76-7.07a36.75,36.75,0,0,1-5.69,0l-5.76,7.07a3,3,0,0,1-3.06,1,47.6,47.6,0,0,1-9.22-3.35,3,3,0,0,1-1.69-2.74l.13-9.12a38.63,38.63,0,0,1-4.35-3.66l-8.95,1.71a3,3,0,0,1-3-1.19,47.8,47.8,0,0,1-4.91-8.5,3,3,0,0,1,.47-3.19l6-6.89a38.29,38.29,0,0,1-1-5.61l-7.95-4.43a3,3,0,0,1-1.53-2.83,47.83,47.83,0,0,1,1.69-9.67,3,3,0,0,1,2.41-2.14l9-1.45a38.46,38.46,0,0,1,2.85-4.94l-3.24-8.5a3,3,0,0,1,.65-3.16,48.09,48.09,0,0,1,7.51-6.32,3,3,0,0,1,3.22-.09l7.82,4.67a38.24,38.24,0,0,1,5.35-1.95l3-8.61a3,3,0,0,1,2.53-2,48.63,48.63,0,0,1,9.8,0,3,3,0,0,1,2.53,2l3,8.61a38.22,38.22,0,0,1,5.35,1.95l7.82-4.67a3,3,0,0,1,3.22.09,48.12,48.12,0,0,1,7.51,6.32,3,3,0,0,1,.65,3.15l-3.23,8.5a38.46,38.46,0,0,1,2.85,4.94l9,1.45a3,3,0,0,1,2.41,2.14,47.81,47.81,0,0,1,1.69,9.67,3,3,0,0,1-1.53,2.83l-7.95,4.43a38.42,38.42,0,0,1-1,5.61l6,6.89a3,3,0,0,1,.47,3.19,47.81,47.81,0,0,1-4.91,8.5,3,3,0,0,1-3,1.19l-8.95-1.71a38.69,38.69,0,0,1-4.35,3.66l.13,9.12a3,3,0,0,1-1.69,2.74,47.58,47.58,0,0,1-9.22,3.35A3,3,0,0,1,1463.83,1230.51Zm-27.47-8.05a41.74,41.74,0,0,0,4.52,1.64l5.54-6.8a3,3,0,0,1,2.67-1.08,31.32,31.32,0,0,0,7.61,0,3,3,0,0,1,2.67,1.08l5.54,6.8a41.59,41.59,0,0,0,4.52-1.64l-.13-8.77a3,3,0,0,1,1.35-2.55,32.55,32.55,0,0,0,5.82-4.89,3,3,0,0,1,2.75-.89l8.61,1.65a41.88,41.88,0,0,0,2.41-4.17l-5.72-6.62a3,3,0,0,1-.6-2.83,32.35,32.35,0,0,0,1.32-7.5,3,3,0,0,1,1.53-2.45l7.64-4.26a41.8,41.8,0,0,0-.83-4.75L1485,1173a3,3,0,0,1-2.28-1.78,32.41,32.41,0,0,0-3.81-6.6,3,3,0,0,1-.4-2.86l3.11-8.17a42.23,42.23,0,0,0-3.68-3.1l-7.52,4.49a3,3,0,0,1-2.89.1,32.19,32.19,0,0,0-7.15-2.6,3,3,0,0,1-2.15-1.94l-2.87-8.28a42.54,42.54,0,0,0-4.81,0l-2.87,8.28a3,3,0,0,1-2.15,1.94,32.21,32.21,0,0,0-7.15,2.6,3,3,0,0,1-2.89-.1l-7.52-4.49a42.29,42.29,0,0,0-3.68,3.1l3.11,8.17a3,3,0,0,1-.4,2.86,32.41,32.41,0,0,0-3.81,6.6,3,3,0,0,1-2.28,1.78l-8.64,1.39a41.7,41.7,0,0,0-.83,4.75l7.64,4.26a3,3,0,0,1,1.53,2.45,32.29,32.29,0,0,0,1.32,7.5,3,3,0,0,1-.6,2.83l-5.72,6.62A42,42,0,0,0,1418,1207l8.61-1.65a3,3,0,0,1,2.75.89,32.57,32.57,0,0,0,5.83,4.89,3,3,0,0,1,1.35,2.55Z"/><path d="M1452.9,1198.34a14.3,14.3,0,1,1,14.3-14.3A14.31,14.31,0,0,1,1452.9,1198.34Zm0-22.59a8.3,8.3,0,1,0,8.3,8.3A8.31,8.31,0,0,0,1452.9,1175.75Z"/><path d="M1452.9,1211a27,27,0,0,1-27-27h6a21,21,0,0,0,21,21Z"/><path d="M1722.93,1154.38l-4.24-4.24,7.23-7.23a3,3,0,0,1,3.43-.58,24.13,24.13,0,0,0,34.44-24.78L1750.3,1131a3.09,3.09,0,0,1-4.24,0l-16.64-16.64a3,3,0,0,1,0-4.24l13.49-13.49a24.28,24.28,0,0,0-20.12,6.87,24,24,0,0,0-5.07,26.69,3,3,0,0,1-.63,3.32l-15.19,15.19-4.24-4.24,13.79-13.79a30,30,0,0,1,7.09-31.4,30.31,30.31,0,0,1,31.27-7.14,3,3,0,0,1,1.13,5l-15.17,15.17,12.4,12.4,15.17-15.17a3,3,0,0,1,5,1.13,30.14,30.14,0,0,1-39.59,38Z"/><path d="M1642,1230.14a12.43,12.43,0,0,1-8.79-21.21l51.09-51.09,4.24,4.24-51.09,51.09a6.43,6.43,0,0,0,9.09,9.09l43.79-43.79,4.24,4.24-43.79,43.79A12.39,12.39,0,0,1,1642,1230.14Z"/><path d="M1757.18,1229.53a12.39,12.39,0,0,1-8.79-3.64l-48.51-48.51a3,3,0,0,1,0-4.24l13.34-13.34a3.09,3.09,0,0,1,4.24,0l48.51,48.51a12.42,12.42,0,0,1-8.79,21.21Zm-50.94-54.27,46.39,46.39a6.43,6.43,0,0,0,9.09-9.09l-46.39-46.39Z"/><path d="M1661.35,1124.27h-.23l-14.42-1.09a3,3,0,0,1-1.9-.87l-13.86-13.86a3,3,0,0,1,0-4.24l13.34-13.34a3,3,0,0,1,4.24,0l13.86,13.86a3,3,0,0,1,.87,1.9l1.09,14.42a3,3,0,0,1-3,3.23Zm-13.09-7,9.83.74-.74-9.83-11-11-9.09,9.09Z"/><rect x="1682.01" y="1111.47" width="6" height="66.92" transform="translate(-316.06 1526.83) rotate(-45)"/><path d="M917,960.51H863.14a14,14,0,0,1-14-14v-113a14,14,0,0,1,14-14H917a14,14,0,0,1,14,14v113A14,14,0,0,1,917,960.51Zm-53.89-135a8,8,0,0,0-8,8v113a8,8,0,0,0,8,8H917a8,8,0,0,0,8-8v-113a8,8,0,0,0-8-8Z"/><rect x="852.14" y="846.38" width="75.89" height="6"/><rect x="852.14" y="927.28" width="75.89" height="6"/><path d="M1205.67,969.49H1114.5a14,14,0,0,1-14-14V824a14,14,0,0,1,14-14h91.17a14,14,0,0,1,14,14V955.49A14,14,0,0,1,1205.67,969.49ZM1114.5,816a8,8,0,0,0-8,8V955.49a8,8,0,0,0,8,8h91.17a8,8,0,0,0,8-8V824a8,8,0,0,0-8-8Z"/><rect x="1103.5" y="837.14" width="113.17" height="6"/><rect x="1103.5" y="935.95" width="113.17" height="6"/><path d="M35.37,1411.26a17.75,17.75,0,1,1,17.75-17.75A17.77,17.77,0,0,1,35.37,1411.26Zm0-29.5a11.75,11.75,0,1,0,11.75,11.75A11.76,11.76,0,0,0,35.37,1381.76Z"/><path d="M61.15,1510h-6v-71.2a11.76,11.76,0,0,0-11.75-11.75H27.33a11.76,11.76,0,0,0-11.75,11.75V1510h-6v-71.2a17.77,17.77,0,0,1,17.75-17.75H43.41a17.77,17.77,0,0,1,17.75,17.75Z"/><path d="M124.8,1385.79A17.75,17.75,0,1,1,142.55,1368,17.77,17.77,0,0,1,124.8,1385.79Zm0-29.5A11.75,11.75,0,1,0,136.55,1368,11.76,11.76,0,0,0,124.8,1356.3Z"/><path d="M150.59,1443.32h-6v-30a11.76,11.76,0,0,0-11.75-11.75H116.76A11.76,11.76,0,0,0,105,1413.35v30H99v-30a17.77,17.77,0,0,1,17.75-17.75h16.07a17.77,17.77,0,0,1,17.75,17.75Z"/><rect x="58.15" y="1440.02" width="101.94" height="6"/><rect x="0.07" y="1440.02" width="12.51" height="6"/><path d="M1745.42,890.47a17.35,17.35,0,1,1,17.35-17.35A17.37,17.37,0,0,1,1745.42,890.47Zm0-28.7a11.35,11.35,0,1,0,11.35,11.35A11.36,11.36,0,0,0,1745.42,861.76Z"/><path d="M1770.59,946.36h-6V917.2a11.36,11.36,0,0,0-11.35-11.35h-15.64a11.36,11.36,0,0,0-11.35,11.35v29.16h-6V917.2a17.37,17.37,0,0,1,17.35-17.35h15.64a17.37,17.37,0,0,1,17.35,17.35Z"/><path d="M1698.76,876.43a3,3,0,0,1-2.12-.88l-12.19-12.19-2.32,0h-34a3,3,0,0,1-3-3V813a3,3,0,0,1,3-3h58.93a3,3,0,0,1,3,3v47.41a3,3,0,0,1-3,3h-5.36v10a3,3,0,0,1-3,3Zm-13.09-19.09a3,3,0,0,1,2.12.88l8,8v-5.78a3,3,0,0,1,3-3h5.36V816h-52.93v41.41H1682l3.56-.07Z"/><rect x="1688.51" y="943.06" width="91.59" height="6"/><rect x="1620.07" y="943.06" width="24.09" height="6"/><path d="M1666.34,915.23a17.35,17.35,0,1,1,17.35-17.35A17.37,17.37,0,0,1,1666.34,915.23Zm0-28.7a11.35,11.35,0,1,0,11.35,11.35A11.36,11.36,0,0,0,1666.34,886.53Z"/><path d="M1691.51,970h-6V942a11.36,11.36,0,0,0-11.35-11.35h-15.64A11.36,11.36,0,0,0,1647.17,942V970h-6V942a17.37,17.37,0,0,1,17.35-17.35h15.64A17.37,17.37,0,0,1,1691.51,942Z"/><path d="M146.6,1203.21h-133a3,3,0,0,1-3-3V1119.8a3,3,0,0,1,3-3h133a3,3,0,0,1,3,3v80.41A3,3,0,0,1,146.6,1203.21Zm-130-6h127V1122.8h-127Z"/><path d="M80.09,1179.1a3,3,0,0,1-1.94-.71l-66.52-56.3,3.88-4.58,64.58,54.66,64.58-54.66,3.88,4.58L82,1178.39A3,3,0,0,1,80.09,1179.1Z"/><path d="M314.68,1220.17a25.52,25.52,0,0,1-18-43.57l31.85-31.85a25.55,25.55,0,0,1,36.09,0l-4.24,4.24a19.55,19.55,0,0,0-27.61,0l-31.85,31.85a19.52,19.52,0,1,0,27.61,27.61L340.89,1196l4.24,4.24-12.41,12.41A25.35,25.35,0,0,1,314.68,1220.17Z"/><path d="M352.1,1182.74a25.44,25.44,0,0,1-18-7.46l4.24-4.24a19.55,19.55,0,0,0,27.61,0l31.85-31.85a19.52,19.52,0,0,0-27.61-27.61L357.74,1124l-4.24-4.24,12.41-12.41A25.52,25.52,0,0,1,402,1143.42l-31.85,31.85A25.44,25.44,0,0,1,352.1,1182.74Z"/><rect x="301.29" y="1109.37" width="6" height="22.39" transform="translate(-703.24 543.39) rotate(-45)"/><rect x="322.76" y="1100.48" width="6" height="22.39"/><rect x="284.2" y="1139.03" width="22.39" height="6"/><path d="M620.09,1230.51a19.34,19.34,0,0,1-19.32-19.32h6a13.32,13.32,0,1,0,26.64,0h6A19.34,19.34,0,0,1,620.09,1230.51Z"/><path d="M672.56,1201.78H567.61a3,3,0,0,1-2.7-4.31l22.42-46.37v-24.89a19.34,19.34,0,0,1,19.32-19.32h26.88a19.34,19.34,0,0,1,19.32,19.32v24.89l22.41,46.37a3,3,0,0,1-2.7,4.31Zm-100.16-6h95.38l-20.63-42.68a3,3,0,0,1-.3-1.31v-25.57a13.33,13.33,0,0,0-13.32-13.32H606.65a13.33,13.33,0,0,0-13.32,13.32v25.57a3,3,0,0,1-.3,1.31Z"/><rect x="617.09" y="1092.51" width="6" height="17.39"/><rect x="589.37" y="1148.99" width="39.31" height="6"/><rect x="869.72" y="1147.66" width="87.87" height="6"/><rect x="869.72" y="1166.36" width="54.12" height="6"/><path d="M836.94,1177.36A17.35,17.35,0,1,1,854.29,1160,17.37,17.37,0,0,1,836.94,1177.36Zm0-28.7A11.35,11.35,0,1,0,848.29,1160,11.36,11.36,0,0,0,836.94,1148.66Z"/><rect x="869.72" y="1098.95" width="87.87" height="6"/><rect x="869.72" y="1117.65" width="54.12" height="6"/><path d="M836.94,1128.65a17.35,17.35,0,1,1,17.35-17.35A17.37,17.37,0,0,1,836.94,1128.65Zm0-28.7a11.35,11.35,0,1,0,11.35,11.35A11.36,11.36,0,0,0,836.94,1099.95Z"/><rect x="869.72" y="1196.37" width="87.87" height="6"/><rect x="869.72" y="1215.07" width="54.12" height="6"/><path d="M836.94,1226.07a17.35,17.35,0,1,1,17.35-17.35A17.37,17.37,0,0,1,836.94,1226.07Zm0-28.7a11.35,11.35,0,1,0,11.35,11.35A11.36,11.36,0,0,0,836.94,1197.37Z"/><path d="M313.24,1454a17.35,17.35,0,1,1,17.35-17.35A17.37,17.37,0,0,1,313.24,1454Zm0-28.7a11.35,11.35,0,1,0,11.35,11.35A11.36,11.36,0,0,0,313.24,1425.26Z"/><path d="M338.41,1510h-6V1480.7a11.36,11.36,0,0,0-11.35-11.35H305.42a11.36,11.36,0,0,0-11.35,11.35V1510h-6V1480.7a17.37,17.37,0,0,1,17.35-17.35h15.64a17.37,17.37,0,0,1,17.35,17.35Z"/><path d="M386.94,1454a17.35,17.35,0,1,1,17.35-17.35A17.37,17.37,0,0,1,386.94,1454Zm0-28.7a11.35,11.35,0,1,0,11.35,11.35A11.36,11.36,0,0,0,386.94,1425.26Z"/><path d="M412.11,1510h-6V1480.7a11.36,11.36,0,0,0-11.35-11.35H379.12a11.36,11.36,0,0,0-11.35,11.35V1510h-6V1480.7a17.37,17.37,0,0,1,17.35-17.35h15.64a17.37,17.37,0,0,1,17.35,17.35Z"/><path d="M350.09,1384.7a17.35,17.35,0,1,1,17.35-17.35A17.37,17.37,0,0,1,350.09,1384.7Zm0-28.7a11.35,11.35,0,1,0,11.35,11.35A11.36,11.36,0,0,0,350.09,1356Z"/><path d="M375.26,1411.44h-6a11.36,11.36,0,0,0-11.35-11.35H342.27a11.36,11.36,0,0,0-11.35,11.35h-6a17.37,17.37,0,0,1,17.35-17.35h15.64A17.37,17.37,0,0,1,375.26,1411.44Z"/><path d="M679,1478.68H561.21a11.64,11.64,0,0,1-11.62-11.62V1393a11.64,11.64,0,0,1,11.62-11.62H679A11.64,11.64,0,0,1,690.59,1393v74.11A11.64,11.64,0,0,1,679,1478.68Zm-117.75-91.35a5.63,5.63,0,0,0-5.62,5.62v74.11a5.63,5.63,0,0,0,5.62,5.62H679a5.63,5.63,0,0,0,5.62-5.62V1393a5.63,5.63,0,0,0-5.62-5.62Z"/><rect x="552.59" y="1402.15" width="135" height="6"/><rect x="649.07" y="1449.47" width="18.91" height="6"/><rect x="570.38" y="1449.47" width="18.91" height="6"/><rect x="570.38" y="1432.29" width="38.03" height="6"/><rect x="1153.37" y="949.52" width="13.43" height="6"/><rect x="1370.94" y="1404.39" width="118.29" height="6"/><path d="M1494.26,1435.21h-5v-6h5c3,0,5.62-3.55,5.62-7.76v-39.72c0-4.21-2.58-7.76-5.62-7.76H1365.91c-3,0-5.62,3.55-5.62,7.76v39.72c0,4.21,2.58,7.76,5.62,7.76h5v6h-5c-6.41,0-11.62-6.17-11.62-13.76v-39.72c0-7.59,5.21-13.76,11.62-13.76h128.36c6.41,0,11.62,6.17,11.62,13.76v39.72C1505.89,1429,1500.67,1435.21,1494.26,1435.21Z"/><rect x="1469.78" y="1385.82" width="19.45" height="6"/><path d="M1468.44,1500.51h-76.71a11.64,11.64,0,0,1-11.62-11.62v-81.49h6v81.49a5.63,5.63,0,0,0,5.62,5.62h76.71a5.63,5.63,0,0,0,5.62-5.62v-81.49h6v81.49A11.64,11.64,0,0,1,1468.44,1500.51Z"/><rect x="1452.65" y="1407.39" width="6" height="90.12"/><rect x="1403.98" y="1458.96" width="6" height="19.45"/><path d="M1480.45,970.13h-6v-7.95h-88.39v7.95h-6V959.18a3,3,0,0,1,3-3h94.39a3,3,0,0,1,3,3Z"/><rect x="1427.26" y="810.13" width="6" height="126.18"/><rect x="1377.62" y="838.14" width="44.89" height="6"/><rect x="1356.3" y="887.13" width="42.63" height="6"/><rect x="1461.59" y="887.1" width="42.63" height="6"/><path d="M1377.62,914.44a24.34,24.34,0,0,1-24.31-24s0-.07,0-.11v-.2a3,3,0,0,1,.6-1.8l21-48.38a3,3,0,0,1,5.51,0l21,48.38a3,3,0,0,1,.6,1.8v.2s0,.07,0,.11A24.34,24.34,0,0,1,1377.62,914.44Zm-18.3-23.53a18.31,18.31,0,0,0,36.59,0l-18.3-42.23Z"/><path d="M1482.9,914.42a24.34,24.34,0,0,1-24.31-24s0-.07,0-.11v-.2a3,3,0,0,1,.6-1.8l21-48.38a3,3,0,0,1,5.51,0l21,48.38a3,3,0,0,1,.6,1.8v.2s0,.07,0,.11A24.34,24.34,0,0,1,1482.9,914.42Zm-18.3-23.53a18.31,18.31,0,0,0,36.59,0l-18.3-42.23Z"/><rect x="1397.63" y="944.49" width="65.25" height="6"/><rect x="1437.84" y="838.12" width="45.06" height="6"/><path d="M1197.17,1490.42H1123a3,3,0,0,1-3-3v-80h6v77h68.16v-77h6v80A3,3,0,0,1,1197.17,1490.42Z"/><path d="M1149.62,1487.42h-6v-10A14,14,0,0,1,1133,1466.8h-10v-6h12.67a3,3,0,0,1,3,3,8,8,0,0,0,7.94,7.94,3,3,0,0,1,3,3Z"/><path d="M1176.55,1489h-6v-12.67a3,3,0,0,1,3-3,8,8,0,0,0,7.94-7.94,3,3,0,0,1,3-3h12.67v6h-10a14,14,0,0,1-10.61,10.61Z"/><rect x="1100.94" y="1404.39" width="118.29" height="6"/><path d="M1224.26,1435.21H1211v-6h13.29c3,0,5.62-3.55,5.62-7.76v-39.72c0-4.21-2.58-7.76-5.62-7.76H1095.91c-3,0-5.62,3.55-5.62,7.76v39.72c0,4.21,2.58,7.76,5.62,7.76h16.32v6h-16.32c-6.41,0-11.62-6.17-11.62-13.76v-39.72c0-7.59,5.21-13.76,11.62-13.76h128.36c6.41,0,11.62,6.17,11.62,13.76v39.72C1235.89,1429,1230.67,1435.21,1224.26,1435.21Z"/><rect x="1199.78" y="1385.82" width="19.45" height="6"/></g></g></svg>