<svg xmlns="http://www.w3.org/2000/svg" viewBox="0 0 160.53 160.53"><defs><style>.cls-1{fill:#41b0ee;}.cls-2{fill:#ccc;}</style></defs><title>icon-grid</title><g id="Lager_2" data-name="Lager 2"><g id="Lager_1-2" data-name="Lager 1"><path d="M157.27,32.25H58.58a3,3,0,0,0-3,3v22.6H17.22a3,3,0,0,0-2.12.88l-14,14,4.24,4.24L18.46,63.86H55.58v6.06h6V52.56h92.69V99.78h-54.1v6h57.1a3,3,0,0,0,3-3V35.25A3,3,0,0,0,157.27,32.25ZM61.58,46.56V38.25h92.69v8.31Z"/><rect x="133.94" y="85.07" width="13.83" height="6"/><path d="M77.82,77.23H46.51v6H77.82a8.26,8.26,0,1,1,0,16.51H34.72a3,3,0,0,0-3,3A22.42,22.42,0,0,1,9.33,125.14v6a28.43,28.43,0,0,0,28.23-25.39h6.38a14.15,14.15,0,0,0,.23,16.86,14.22,14.22,0,0,0-8.56,22.16H.25v6h58.2A14.22,14.22,0,0,0,69.8,127.94a14.21,14.21,0,0,0,8.52-22.22,14.25,14.25,0,0,0-.5-28.49ZM58.45,144.76H47.21a8.25,8.25,0,0,1,0-16.49H58.45a8.25,8.25,0,1,1,0,16.49Zm8.31-22.49H55.52a8.25,8.25,0,0,1,0-16.49H66.76a8.25,8.25,0,1,1,0,16.49Z"/><polygon class="cls-1" points="157.52 103.03 100.17 103.03 100.17 102.53 157.02 102.53 157.02 35.5 58.83 35.5 58.83 69.92 58.33 69.92 58.33 35 157.52 35 157.52 103.03"/><rect class="cls-1" x="58.58" y="49.31" width="98.69" height="0.5"/><rect class="cls-1" x="133.94" y="87.82" width="13.83" height="0.5"/><polygon class="cls-1" points="3.43 75 3.08 74.64 17.11 60.61 58.58 60.61 58.58 61.11 17.32 61.11 3.43 75"/><path class="cls-1" d="M66.76,125.52H55.52a11.5,11.5,0,0,1,0-23H66.76a11.5,11.5,0,1,1,0,23ZM55.52,103a11,11,0,0,0,0,22H66.76a11,11,0,1,0,0-22Z"/><path class="cls-1" d="M58.45,148H47.21a11.5,11.5,0,0,1,0-23H58.45a11.5,11.5,0,1,1,0,23ZM47.21,125.52a11,11,0,0,0,0,22H58.45a11,11,0,1,0,0-22Z"/><path class="cls-1" d="M9.33,128.39v-.5a25.17,25.17,0,0,0,25.14-25.14v-.25H77.82a11,11,0,0,0,0-22H46.51V80H77.82a11.51,11.51,0,0,1,0,23H35A25.67,25.67,0,0,1,9.33,128.39Z"/><rect class="cls-1" x="0.25" y="147.51" width="46.96" height="0.5"/><path class="cls-2" d="M160.28,160.53H.25a.25.25,0,0,1-.25-.25V.25A.25.25,0,0,1,.25,0h160a.25.25,0,0,1,.25.25v160A.25.25,0,0,1,160.28,160.53ZM.5,160H160V.5H.5Z"/><path class="cls-2" d="M157.27,157.52H3.26a.25.25,0,0,1-.25-.25V3.26A.25.25,0,0,1,3.26,3h154a.25.25,0,0,1,.25.25v154A.25.25,0,0,1,157.27,157.52ZM3.51,157H157V3.51H3.51Z"/><path class="cls-2" d="M147.76,148h-135a.25.25,0,0,1-.25-.25v-135a.25.25,0,0,1,.25-.25h135a.25.25,0,0,1,.25.25v135A.25.25,0,0,1,147.76,148ZM13,147.51h134.5V13H13Z"/><rect class="cls-2" x="80.01" y="46.51" width="0.5" height="67.5"/><rect class="cls-2" x="80.01" y="56.57" width="0.5" height="47.38" transform="translate(-33.25 80.26) rotate(-45)"/><rect class="cls-2" x="56.57" y="80.01" width="47.38" height="0.5" transform="translate(-33.25 80.26) rotate(-45)"/><rect class="cls-2" x="72.51" y="113.76" width="15.5" height="0.5"/><rect class="cls-2" x="72.51" y="46.26" width="15.5" height="0.5"/><rect class="cls-2" x="46.51" y="80.01" width="67.5" height="0.5"/><rect class="cls-2" x="113.76" y="72.51" width="0.5" height="15.5"/><rect class="cls-2" x="46.26" y="72.51" width="0.5" height="15.5"/></g></g></svg>