<svg xmlns="http://www.w3.org/2000/svg" viewBox="0 0 1780.73 1508.52"><defs><style>.cls-1{fill:none;stroke:#000;stroke-linejoin:round;stroke-width:3px;}</style></defs><title>icons-light</title><g id="Lager_2" data-name="Lager 2"><g id="Lager_1-2" data-name="Lager 1"><path d="M1459.64,611.59a22.94,22.94,0,0,1-16.13-39.2L1466,549.95l2.12,2.12-22.44,22.44a20.07,20.07,0,0,0,.53,28.89c7.8,7.27,20.46,6.88,28.21-.87l22.08-22.08,2.12,2.12-22.08,22.08A23.83,23.83,0,0,1,1459.64,611.59Z"/><rect x="1356.07" y="664.98" width="51.99" height="3" transform="translate(-66.94 1171.14) rotate(-44.95)"/><rect x="1419.37" y="590.81" width="73.68" height="3" transform="translate(7.69 1203.18) rotate(-45)"/><path d="M1495.08,685.58l-51.94-51.94-4.88,5.17a17,17,0,0,1-12.21,5.37h-.25a17,17,0,0,1-12.11-5l-32.1-32.1c-8.71-8.71-15.06-18.79-17.86-28.37-2.9-9.89-1.69-18.14,3.38-23.22a1.5,1.5,0,0,1,2.12,0l128,128ZM1368.24,558.73c-3.4,4.35-4,11.07-1.63,19.13,2.67,9.11,8.74,18.73,17.1,27.09l32.1,32.1a14.14,14.14,0,0,0,20.28-.29l4.94-5.24Z"/><path d="M1160,681a43.42,43.42,0,0,1-43.54-43.2V597.06a1.5,1.5,0,0,1,1.5-1.5h84.09a1.5,1.5,0,0,1,1.5,1.5v40.77A43.42,43.42,0,0,1,1160,681Zm-40.54-82.47v39.27a40.55,40.55,0,0,0,81.09,0V598.56Z"/><path d="M1139.62,568.62h-3a16.76,16.76,0,0,1,16.81-16.68,13.76,13.76,0,0,0,13.81-13.68h3a16.76,16.76,0,0,1-16.81,16.68A13.76,13.76,0,0,0,1139.62,568.62Z"/><path d="M1165.18,581.77h-3A16.76,16.76,0,0,1,1179,565.09a13.76,13.76,0,0,0,13.81-13.68h3A16.76,16.76,0,0,1,1179,568.09,13.76,13.76,0,0,0,1165.18,581.77Z"/><path d="M1210,645.6h-7.38v-3H1210a12.78,12.78,0,0,0,12.82-12.71V606.64h-19.64v-3h21.14a1.5,1.5,0,0,1,1.5,1.5V629.9A15.78,15.78,0,0,1,1210,645.6Z"/><path d="M38.22,99.45A15.5,15.5,0,1,1,53.72,84,15.52,15.52,0,0,1,38.22,99.45Zm0-28A12.5,12.5,0,1,0,50.72,84,12.51,12.51,0,0,0,38.22,71.45Z"/><path d="M14.55,158.52V128A15.87,15.87,0,0,1,30.4,112.19H46A15.87,15.87,0,0,1,61.89,128v30.48h-3V128A12.87,12.87,0,0,0,46,115.19H30.4A12.87,12.87,0,0,0,17.55,128v30.48Z"/><path d="M80,95a1.5,1.5,0,0,1-1.5-1.5V75.18H67.3a1.5,1.5,0,0,1-1.5-1.5V1.5A1.5,1.5,0,0,1,67.3,0H157a1.5,1.5,0,0,1,1.5,1.5V73.68a1.5,1.5,0,0,1-1.5,1.5H100.47L81.09,94.57A1.5,1.5,0,0,1,80,95ZM68.8,72.18H80a1.5,1.5,0,0,1,1.5,1.5v16.2L98.79,72.62a1.5,1.5,0,0,1,1.06-.44h55.67V3H68.8Z"/><path d="M302,99.2a16,16,0,1,1,16-16A16,16,0,0,1,302,99.2Zm0-28.94a13,13,0,1,0,13,13A13,13,0,0,0,302,70.27Z"/><rect x="271.51" y="44.88" width="3" height="113.64"/><path d="M413.23,112.23h-3V96.32a24.71,24.71,0,0,0-24.71-24.65H333.27v40.57h-3V70.17a1.5,1.5,0,0,1,1.5-1.5h53.76a27.71,27.71,0,0,1,27.71,27.65Z"/><rect x="425.52" y="69.02" width="3" height="89.5"/><rect x="273.01" y="144.41" width="154" height="3"/><rect x="273.02" y="110.73" width="153.99" height="3"/><rect x="574.58" y="64.22" width="20.86" height="3"/><path d="M671.24,157a27.23,27.23,0,1,1,27.14-27.23A27.22,27.22,0,0,1,671.24,157Zm0-51.47a24.23,24.23,0,1,0,24.14,24.23A24.21,24.21,0,0,0,671.24,105.55Z"/><path d="M568.74,156.94a27.2,27.2,0,1,1,27.1-27.2A27.18,27.18,0,0,1,568.74,156.94Zm0-51.39a24.2,24.2,0,1,0,24.1,24.2A24.17,24.17,0,0,0,568.74,105.55Z"/><path d="M669.92,130.49,633.32,62.74H613.87v-3h20.35a1.5,1.5,0,0,1,1.32.79l37,68.54Z"/><path d="M570.08,130.43l-2.67-1.37L591.7,81.63a1.5,1.5,0,0,1,1.33-.82h52.52v3h-51.6Z"/><path class="cls-1" d="M646.92,82.32"/><path d="M620,128.52a1.5,1.5,0,0,1-1.28-.73L581.74,66.5l2.57-1.55L620,124.11l24.75-41.05,2.57,1.55-26,43.18A1.5,1.5,0,0,1,620,128.52Z"/><path d="M849.06,157a15,15,0,1,1,15-15A15,15,0,0,1,849.06,157Zm0-27a12,12,0,1,0,12,12A12,12,0,0,0,849.06,130Z"/><path d="M930.11,157a15,15,0,1,1,15-15A15,15,0,0,1,930.11,157Zm0-27a12,12,0,1,0,12,12A12,12,0,0,0,930.11,130Z"/><rect x="887.67" y="125.46" width="3" height="34.79" transform="translate(736.12 1030.32) rotate(-89.34)"/><path d="M967,145.12l-13.19,0,0-3,2.37,0h9.29V122.3a13,13,0,0,0-10.78-12.77l-28.52-5.17a1.51,1.51,0,0,1-.7-.33L897.23,80H845.37l-30.82,29.82,1.58,30.7,9.06.1,0,3-10.47-.12a1.5,1.5,0,0,1-1.48-1.42l-1.69-32.79a1.5,1.5,0,0,1,.46-1.16l31.75-30.72a1.5,1.5,0,0,1,1-.42h53a1.5,1.5,0,0,1,1,.36l28.4,24.11,28.12,5.1a16,16,0,0,1,13.24,15.72v21.32A1.5,1.5,0,0,1,967,145.12Z"/><rect x="890.01" y="110.76" width="19.43" height="3"/><path d="M1114.35,64.82a16,16,0,1,1,16-16A16,16,0,0,1,1114.35,64.82Zm0-29a13,13,0,1,0,13,13A13,13,0,0,0,1114.35,35.82Z"/><path d="M1143.35,156.87h-58a1.5,1.5,0,0,1-1.48-1.76l7.12-40.58v-22a15.66,15.66,0,0,1,15.65-15.64h15.42a15.66,15.66,0,0,1,15.65,15.64v22l7.12,40.58a1.5,1.5,0,0,1-1.48,1.76Zm-56.21-3h54.43l-6.83-38.95a1.54,1.54,0,0,1,0-.26V92.51a12.66,12.66,0,0,0-12.65-12.64h-15.42A12.66,12.66,0,0,0,1094,92.51v22.16a1.54,1.54,0,0,1,0,.26Z"/><path d="M1384.68,64.7a16,16,0,1,1,16-16A16,16,0,0,1,1384.68,64.7Zm0-29a13,13,0,1,0,13,13A13,13,0,0,0,1384.68,35.7Z"/><path d="M1408.18,158.52h-3V92.66a12.85,12.85,0,0,0-12.74-12.92h-15.52a12.85,12.85,0,0,0-12.74,12.92v65.86h-3V92.66a15.85,15.85,0,0,1,15.74-15.92h15.52a15.85,15.85,0,0,1,15.74,15.92Z"/><rect x="78.51" y="268.2" width="3" height="160.62"/><path d="M125.26,325.31a16,16,0,1,1,16-16A16,16,0,0,1,125.26,325.31Zm0-29a13,13,0,1,0,13,13A13,13,0,0,0,125.26,296.31Z"/><path d="M154.26,417.36h-58a1.5,1.5,0,0,1-1.48-1.76L101.9,375V353a15.66,15.66,0,0,1,15.65-15.64H133A15.66,15.66,0,0,1,148.62,353v22l7.12,40.58a1.5,1.5,0,0,1-1.48,1.76Zm-56.21-3h54.43l-6.83-38.95a1.54,1.54,0,0,1,0-.26V353A12.66,12.66,0,0,0,133,340.36H117.55A12.66,12.66,0,0,0,104.9,353v22.16a1.54,1.54,0,0,1,0,.26Z"/><path d="M574.5,334.82a16,16,0,1,1,16-16A16,16,0,0,1,574.5,334.82Zm0-29a13,13,0,1,0,13,13A13,13,0,0,0,574.5,305.82Z"/><path d="M603.58,427H545.41a1.5,1.5,0,0,1-1.48-1.76l7.14-40.73V362.42a15.71,15.71,0,0,1,15.69-15.69h15.47a15.71,15.71,0,0,1,15.69,15.69v22.11l7.14,40.73a1.5,1.5,0,0,1-1.48,1.76Zm-56.38-3h54.59l-6.85-39.1a1.53,1.53,0,0,1,0-.26V362.42a12.71,12.71,0,0,0-12.69-12.69H566.76a12.7,12.7,0,0,0-12.69,12.69v22.24a1.53,1.53,0,0,1,0,.26Z"/><path d="M34.51,325.48a16,16,0,1,1,16-16A16,16,0,0,1,34.51,325.48Zm0-29a13,13,0,1,0,13,13A13,13,0,0,0,34.51,296.48Z"/><path d="M58,418.9H55V353.4a12.83,12.83,0,0,0-12.74-12.89H26.75A12.83,12.83,0,0,0,14,353.4v65.5H11V353.4a15.83,15.83,0,0,1,15.74-15.89H42.27A15.83,15.83,0,0,1,58,353.4Z"/><rect x="385.58" y="289.09" width="1.49" height="3" transform="translate(-92.28 358.62) rotate(-45.04)"/><path d="M387.92,291.13,385.8,289l6-6a5.73,5.73,0,0,0,1.67-4.28,1.56,1.56,0,0,1,0-.18,5.71,5.71,0,0,0-11.42.12h-3a8.71,8.71,0,1,1,17.42,0s0,.06,0,.08a8.74,8.74,0,0,1-2.55,6.37Z"/><path d="M427,326H344.58a1.5,1.5,0,0,1-.94-2.67L384.86,290a1.5,1.5,0,0,1,1.89,0L428,323.35A1.5,1.5,0,0,1,427,326Zm-78.2-3h74l-37-30Z"/><rect x="655.58" y="289.09" width="1.49" height="3" transform="translate(-13.07 549.67) rotate(-45.04)"/><path d="M657.92,291.13,655.8,289l6-6a5.73,5.73,0,0,0,1.67-4.28,1.56,1.56,0,0,1,0-.18,5.71,5.71,0,0,0-11.42.12h-3a8.71,8.71,0,1,1,17.42,0s0,.06,0,.08a8.74,8.74,0,0,1-2.55,6.37Z"/><path d="M697,326H614.58a1.5,1.5,0,0,1-.94-2.67L654.86,290a1.5,1.5,0,0,1,1.89,0L698,323.35A1.5,1.5,0,0,1,697,326Zm-78.2-3h74l-37-30Z"/><path d="M968.52,429h-3V313.52a40.52,40.52,0,1,0-81,0v10.93h-3V313.52a43.52,43.52,0,1,1,87,0Z"/><path d="M917,360H848.93a1.5,1.5,0,0,1-1.5-1.5,35.56,35.56,0,1,1,71.11,0A1.5,1.5,0,0,1,917,360Zm-66.58-3h65a32.56,32.56,0,0,0-65,0Z"/><rect x="854.13" y="378.52" width="3" height="16.5"/><rect x="908.85" y="378.52" width="3" height="16.5"/><rect x="881.49" y="378.52" width="3" height="16.5"/><rect x="867.81" y="412.51" width="3" height="16.5"/><rect x="922.52" y="412.51" width="3" height="16.5"/><rect x="895.17" y="412.51" width="3" height="16.5"/><rect x="840.45" y="412.51" width="3" height="16.5"/><rect x="1087.09" y="401.9" width="3" height="27.11"/><rect x="1079.51" y="400.4" width="102.23" height="3"/><rect x="1171.17" y="401.9" width="3" height="27.11"/><rect x="1108.11" y="401.9" width="3" height="27.11"/><path class="cls-1" d="M1130.63,267"/><rect x="1150.15" y="401.9" width="3" height="27.11"/><path d="M1226.91,427h-39.08v-3h37.79l9.9-66.42V337.74h-83.28V357.6l3.69,24.72-3,.44-3.7-24.83a1.52,1.52,0,0,1,0-.22V336.24a1.5,1.5,0,0,1,1.5-1.5H1237a1.5,1.5,0,0,1,1.5,1.5v21.46a1.52,1.52,0,0,1,0,.22l-10.11,67.81A1.5,1.5,0,0,1,1226.91,427Z"/><path d="M1229.08,336.24h-3V321.75a32.21,32.21,0,0,0-64.41,0v14.49h-3V321.75a35.21,35.21,0,0,1,70.41,0Z"/><rect x="1129.13" y="268.01" width="3" height="161"/><rect x="1408.15" y="347.66" width="3" height="81.35"/><path d="M1409.65,417.94H1394a1.5,1.5,0,0,1-1.5-1.5V360.22a1.5,1.5,0,0,1,1.5-1.5h15.67v3h-14.17v53.22h14.17Z"/><rect x="1409.65" y="386.83" width="67.41" height="3"/><rect x="1378.61" y="369.35" width="3" height="37.97"/><rect x="1475.97" y="347.66" width="3" height="81.35"/><path d="M1493.14,417.94h-15.67v-3h14.17V361.72h-14.17v-3h15.67a1.5,1.5,0,0,1,1.5,1.5v56.22A1.5,1.5,0,0,1,1493.14,417.94Z"/><rect x="1505.52" y="369.35" width="3" height="37.97"/><path d="M1369.09,391.15A46.87,46.87,0,1,1,1439.82,377l-2.64-1.43a43.89,43.89,0,1,0-66.2,13.28Z"/><path d="M1421.37,314.45h-3V299.8a6.49,6.49,0,0,0-6.48-6.48h-26a6.49,6.49,0,0,0-6.48,6.48v14.65h-3V299.8a9.49,9.49,0,0,1,9.48-9.48h26a9.49,9.49,0,0,1,9.48,9.48Z"/><path d="M1722.55,427h-4.76a30.3,30.3,0,0,1-30.27-30.27V358.67h3v38.08A27.3,27.3,0,0,0,1717.79,424h4.76a27.3,27.3,0,0,0,27.27-27.27h3A30.3,30.3,0,0,1,1722.55,427Z"/><path d="M1689,360.17a53.3,53.3,0,0,1-53.24-53.24V286.37a1.5,1.5,0,0,1,1.5-1.5h12.79v3h-11.29v19.06a50.24,50.24,0,0,0,100.49,0V287.87H1728v-3h12.79a1.5,1.5,0,0,1,1.5,1.5v20.56A53.3,53.3,0,0,1,1689,360.17Z"/><path d="M1751.32,401a17.7,17.7,0,1,1,17.7-17.7A17.72,17.72,0,0,1,1751.32,401Zm0-32.39a14.7,14.7,0,1,0,14.7,14.7A14.71,14.71,0,0,0,1751.32,368.57Z"/><path d="M1689,315.23a1.5,1.5,0,0,1-1.06-.44l-19.14-19.14a15,15,0,0,1,20.2-22.22,15.05,15.05,0,0,1,20.2,1h0a15,15,0,0,1,0,21.26l-19.13,19.14A1.5,1.5,0,0,1,1689,315.23ZM1679.45,273a12,12,0,0,0-8.51,20.53L1689,311.61l18.07-18.07a12,12,0,0,0,0-17h0a12,12,0,0,0-17,0,1.5,1.5,0,0,1-2.12,0A12,12,0,0,0,1679.45,273Z"/><path d="M157,697H37.69a1.5,1.5,0,0,1-1.5-1.5V623.38a1.5,1.5,0,0,1,1.5-1.5H157a1.5,1.5,0,0,1,1.5,1.5v72.13A1.5,1.5,0,0,1,157,697ZM39.19,694H155.52V624.88H39.19Z"/><path d="M24.55,644,1.87,621.33a1.5,1.5,0,0,1,0-2.12l78.8-78.8a1.54,1.54,0,0,1,2.12,0l50.71,50.71a1.5,1.5,0,0,1,0,2.12l-18.58,18.58-2.12-2.12,17.52-17.52L81.72,543.59,5,620.27,26.68,641.9Z"/><path d="M97.35,675.38a1.49,1.49,0,0,1-1-.35l-59.67-50.5,1.94-2.29,58.7,49.68,58.7-49.68,1.94,2.29L98.32,675A1.49,1.49,0,0,1,97.35,675.38Z"/><path d="M331.52,697a16.75,16.75,0,1,1,5.25-.85A16.77,16.77,0,0,1,331.52,697Zm0-30.49a13.74,13.74,0,1,0,13.06,9.42A13.69,13.69,0,0,0,331.5,666.53Z"/><path d="M360.35,674.75a1.5,1.5,0,0,1-1.42-1L326.4,575.56a1.5,1.5,0,0,1,1-1.9L377.8,557a1.5,1.5,0,0,1,1.9,1l32.52,98.16a1.5,1.5,0,0,1-1,1.9l-50.44,16.71A1.5,1.5,0,0,1,360.35,674.75ZM329.72,576l31.58,95.31,47.59-15.77-31.58-95.31Z"/><rect x="351.91" y="663.39" width="67.31" height="3" transform="translate(-189.53 154.98) rotate(-18.33)"/><path d="M332.94,666.27,292.1,543H269.51v-3h23.67a1.5,1.5,0,0,1,1.42,1l41.18,124.3Z"/><rect x="346.65" y="583.32" width="24.79" height="3" transform="translate(-165.69 142.58) rotate(-18.33)"/><path d="M569.54,565.39l-2.12-2.12,22.83-22.83a1.54,1.54,0,0,1,2.12,0l22.83,22.83-2.12,2.12-21.77-21.77Z"/><path d="M648.71,565.83h0a1.5,1.5,0,0,1-1.06-.44l-22.83-22.83,2.12-2.12,21.77,21.77,21.77-21.77,2.12,2.12-22.83,22.83A1.5,1.5,0,0,1,648.71,565.83Z"/><path d="M687.51,697h-135a1.5,1.5,0,0,1-1.5-1.5v-107a1.5,1.5,0,0,1,1.5-1.5h135a1.5,1.5,0,0,1,1.5,1.5v107A1.5,1.5,0,0,1,687.51,697ZM554,694H686V590H554Z"/><path d="M588.31,639.65a16,16,0,1,1,16-16A16,16,0,0,1,588.31,639.65Zm0-29a13,13,0,1,0,13,13A13,13,0,0,0,588.31,610.65Z"/><path d="M612,695.51h-3V667.74a12.87,12.87,0,0,0-12.85-12.85H580.49a12.87,12.87,0,0,0-12.85,12.85v27.77h-3V667.74a15.87,15.87,0,0,1,15.85-15.85h15.64A15.87,15.87,0,0,1,612,667.74Z"/><path d="M651.71,639.65a16,16,0,1,1,16-16A16,16,0,0,1,651.71,639.65Zm0-29a13,13,0,1,0,13,13A13,13,0,0,0,651.71,610.65Z"/><path d="M675.38,695.51h-3V667.74a12.87,12.87,0,0,0-12.85-12.85H643.89A12.87,12.87,0,0,0,631,667.74v27.77h-3V667.74a15.87,15.87,0,0,1,15.85-15.85h15.64a15.87,15.87,0,0,1,15.85,15.85Z"/><path d="M835.18,581.36a16,16,0,1,1,16-16A16,16,0,0,1,835.18,581.36Zm0-29a13,13,0,1,0,13,13A13,13,0,0,0,835.18,552.36Z"/><path d="M814.51,686h-3V609.45a15.87,15.87,0,0,1,15.85-15.85H843a15.87,15.87,0,0,1,15.85,15.85v42.81h-3V609.45A12.87,12.87,0,0,0,843,596.59H827.36a12.87,12.87,0,0,0-12.85,12.85Z"/><path d="M841.71,697H810v-3h30.21v-30.7a1.5,1.5,0,0,1,1.5-1.5h30.7v-30.7a1.5,1.5,0,0,1,1.5-1.5h30.7v-30.7a1.5,1.5,0,0,1,1.5-1.5h30.7v-30.7a1.5,1.5,0,0,1,1.5-1.5h32.2v3h-30.7v30.7a1.5,1.5,0,0,1-1.5,1.5h-30.7v30.7a1.5,1.5,0,0,1-1.5,1.5h-30.7v30.7a1.5,1.5,0,0,1-1.5,1.5h-30.7v30.7A1.5,1.5,0,0,1,841.71,697Z"/><path d="M1657.25,680.3h0a1.5,1.5,0,0,1-1.06-.44L1633.36,657l2.12-2.12,21.77,21.77L1679,654.91l2.12,2.12-22.83,22.83A1.5,1.5,0,0,1,1657.25,680.3Z"/><rect x="1655.75" y="633.61" width="3" height="44.13"/><path d="M1760.59,619.59H1639.43a18,18,0,0,1-17.93-17.92h3a14.94,14.94,0,0,0,14.93,14.92h121.16a14.94,14.94,0,0,0,14.93-14.92h3A18,18,0,0,1,1760.59,619.59Z"/><path d="M1747.67,603.17h-29.76a1.5,1.5,0,0,1-1.49-1.33l-5.72-49.44a1.5,1.5,0,0,1,1.49-1.67h41.2a1.5,1.5,0,0,1,1.49,1.67l-5.72,49.44A1.5,1.5,0,0,1,1747.67,603.17Zm-28.42-3h27.09l5.38-46.44h-37.84Z"/><path d="M1706.29,603.17H1654a1.5,1.5,0,0,1-1.06-.44l-17.33-17.33a1.5,1.5,0,0,1,1.06-2.56h66.26v3h-62.64l14.33,14.33h51.71Z"/><rect x="1619.3" y="694.01" width="161.43" height="3"/><path d="M697.9,19.06v.33c0,6-4.21,9.38-10.46,9.38H679.9V44.69h-2.5v-35h10C693.69,9.68,697.9,13.06,697.9,19.06Zm-2.54.17c0-4.83-3.21-7.38-8-7.38H679.9V26.6h7.46C692.15,26.6,695.36,24.1,695.36,19.22Z"/><path d="M968.54,19.13v.33c0,6-4.21,9.38-10.46,9.38h-7.54V44.76H948v-35h10C964.33,9.75,968.54,13.13,968.54,19.13Zm-2.54.17c0-4.83-3.21-7.37-8-7.37h-7.46V26.67H958C962.79,26.67,966,24.17,966,19.29Z"/><path d="M1210.27,9.75l-8,35h-2.42l-6.29-23.29c-.79-2.92-1.42-5.33-2-7.79-.54,2.46-1.17,4.88-2,7.79l-6.25,23.29H1181l-8-35h2.63l5.25,23.17c.63,2.88,1.13,5.17,1.54,7.67.58-2.5,1.13-4.79,1.92-7.67l6.25-23.17h2.25l6.25,23.17c.75,2.79,1.33,5.21,1.88,7.67.42-2.46.92-4.88,1.54-7.67l5.25-23.17Z"/><path d="M1214.6,27.63v-.75c0-11.29,6-17.63,13.54-17.63,4.83,0,9,2.58,11.29,7.88l-2.33.75c-2-4.29-5.21-6.29-9-6.29-6.17,0-11,5.38-11,15.42v.5c0,10,4.88,15.42,11,15.42,3.75,0,7-2,9-6.29l2.33.75c-2.33,5.29-6.46,7.88-11.29,7.88C1220.64,45.26,1214.6,38.92,1214.6,27.63Z"/><path d="M1480.27,9.75l-8,35h-2.42l-6.29-23.29c-.79-2.92-1.42-5.33-2-7.79-.54,2.46-1.17,4.88-2,7.79l-6.25,23.29H1451l-8-35h2.63l5.25,23.17c.63,2.88,1.13,5.17,1.54,7.67.58-2.5,1.13-4.79,1.92-7.67l6.25-23.17h2.25l6.25,23.17c.75,2.79,1.33,5.21,1.88,7.67.42-2.46.92-4.88,1.54-7.67l5.25-23.17Z"/><path d="M1484.6,27.63v-.75c0-11.29,6-17.63,13.54-17.63,4.83,0,9,2.58,11.29,7.88l-2.33.75c-2-4.29-5.21-6.29-9-6.29-6.17,0-11,5.38-11,15.42v.5c0,10,4.88,15.42,11,15.42,3.75,0,7-2,9-6.29l2.33.75c-2.33,5.29-6.46,7.88-11.29,7.88C1490.64,45.26,1484.6,38.92,1484.6,27.63Z"/><path d="M1750.27,9.75l-8,35h-2.42l-6.29-23.29c-.79-2.92-1.42-5.33-2-7.79-.54,2.46-1.17,4.88-2,7.79l-6.25,23.29H1721l-8-35h2.63l5.25,23.17c.63,2.88,1.13,5.17,1.54,7.67.58-2.5,1.13-4.79,1.92-7.67l6.25-23.17h2.25l6.25,23.17c.75,2.79,1.33,5.21,1.88,7.67.42-2.46.92-4.88,1.54-7.67l5.25-23.17Z"/><path d="M1754.6,27.63v-.75c0-11.29,6-17.63,13.54-17.63,4.83,0,9,2.58,11.29,7.88l-2.33.75c-2-4.29-5.21-6.29-9-6.29-6.17,0-11,5.38-11,15.42v.5c0,10,4.88,15.42,11,15.42,3.75,0,7-2,9-6.29l2.33.75c-2.33,5.29-6.46,7.88-11.29,7.88C1760.64,45.26,1754.6,38.92,1754.6,27.63Z"/><path d="M156.51,881.92,80,813.52l-76.5,68.4-2-2.24L79,810.39a1.5,1.5,0,0,1,2,0l77.5,69.3Z"/><path d="M147.42,967H102a1.5,1.5,0,0,1-1.5-1.5V890H59.56v75.5a1.5,1.5,0,0,1-1.5,1.5H12.6a1.5,1.5,0,0,1-1.5-1.5v-77h3V964H56.56v-75.5a1.5,1.5,0,0,1,1.5-1.5H102a1.5,1.5,0,0,1,1.5,1.5V964h42.46v-75.5h3v77A1.5,1.5,0,0,1,147.42,967Z"/><rect x="79.51" y="920.75" width="12.03" height="3"/><path d="M136.26,860.4h-3V822.51H114.4v18.9h-3V821a1.5,1.5,0,0,1,1.5-1.5h21.86a1.5,1.5,0,0,1,1.5,1.5Z"/><path d="M333.76,934.5A62.25,62.25,0,1,1,396,872.25,62.32,62.32,0,0,1,333.76,934.5Zm0-121.5A59.25,59.25,0,1,0,393,872.25,59.31,59.31,0,0,0,333.76,813Z"/><rect x="405.35" y="916.84" width="3" height="57.02" transform="translate(-549.3 564.57) rotate(-45)"/><rect x="305.11" y="853.26" width="57.3" height="3"/><rect x="305.11" y="873.39" width="46.21" height="3"/><rect x="305.11" y="893.52" width="28.65" height="3"/><path d="M557.21,967a1.5,1.5,0,0,1-1.5-1.5V944.83H543a1.5,1.5,0,0,1-1.5-1.5V862.57a1.5,1.5,0,0,1,1.5-1.5H643.15a1.5,1.5,0,0,1,1.5,1.5v80.76a1.5,1.5,0,0,1-1.5,1.5H585.62l-6.18.52-21.16,21.22A1.5,1.5,0,0,1,557.21,967Zm-12.7-25.18h12.7a1.5,1.5,0,0,1,1.5,1.5v18.55l19-19a1.5,1.5,0,0,1,.93-.44l6.79-.58h56.22V864.07H544.51Z"/><path d="M697,915.95H656.88v-3h38.63V835.19h-12.7a1.5,1.5,0,0,1-1.5-1.5V815.13l-19.57,19.61a1.5,1.5,0,0,1-1.06.44H598.38v15h-3V833.69a1.5,1.5,0,0,1,1.5-1.5h63.19l21.69-21.74a1.5,1.5,0,0,1,2.56,1.06v20.68H697a1.5,1.5,0,0,1,1.5,1.5v80.76A1.5,1.5,0,0,1,697,915.95Z"/><rect x="559.92" y="893.01" width="54.66" height="3"/><rect x="559.92" y="912.27" width="27.33" height="3"/><path d="M967,1451.78h-57.1v-3h55.6V1385H869.83v33.16h-3V1383.5a1.5,1.5,0,0,1,1.5-1.5H967a1.5,1.5,0,0,1,1.5,1.5v66.78A1.5,1.5,0,0,1,967,1451.78Z"/><rect x="868.33" y="1397.22" width="98.69" height="3"/><rect x="943.69" y="1434.81" width="13.83" height="3"/><path d="M814.07,1424.12l-2.12-2.12,14-14a1.5,1.5,0,0,1,1.06-.44h41.36v3H827.59Z"/><path d="M876.51,1474.53H865.27a12.75,12.75,0,1,1,0-25.49h11.25a12.75,12.75,0,0,1,0,25.49ZM865.27,1452a9.75,9.75,0,1,0,0,19.49h11.25a9.75,9.75,0,0,0,0-19.49Z"/><path d="M868.2,1497H857a12.75,12.75,0,1,1,0-25.49H868.2a12.75,12.75,0,0,1,0,25.49ZM857,1474.53a9.75,9.75,0,1,0,0,19.49H868.2a9.75,9.75,0,0,0,0-19.49Z"/><path d="M820.86,1476.81v-3a23.35,23.35,0,0,0,23.32-23.32,1.5,1.5,0,0,1,1.5-1.5h42.14a9.5,9.5,0,0,0,0-19H856.26v-3h31.56a12.5,12.5,0,0,1,0,25H847.14A26.36,26.36,0,0,1,820.86,1476.81Z"/><rect x="809.51" y="1494.03" width="47.44" height="3"/><path d="M304.68,334.7a16,16,0,1,1,16-16A16,16,0,0,1,304.68,334.7Zm0-29a13,13,0,1,0,13,13A13,13,0,0,0,304.68,305.7Z"/><path d="M328.18,428.52h-3V362.66a12.85,12.85,0,0,0-12.74-12.92H296.92a12.85,12.85,0,0,0-12.74,12.92v65.86h-3V362.66a15.85,15.85,0,0,1,15.74-15.92h15.52a15.85,15.85,0,0,1,15.74,15.92Z"/><path d="M1220.59,697H1099.43a18,18,0,0,1-17.93-17.92h3A14.94,14.94,0,0,0,1099.43,694h121.16a14.94,14.94,0,0,0,14.93-14.92h3A18,18,0,0,1,1220.59,697Z"/><path d="M1674.53,59.08a13.19,13.19,0,1,1,13.19-13.19A13.2,13.2,0,0,1,1674.53,59.08Zm0-23.38a10.19,10.19,0,1,0,10.19,10.19A10.2,10.2,0,0,0,1674.53,35.7Z"/><path d="M1692.26,124.13h-23.78a13.2,13.2,0,0,1-13.19-13.19V81.33a13.07,13.07,0,0,1,13-13.12h12.51a13.07,13.07,0,0,1,13,13.12v41.31A1.5,1.5,0,0,1,1692.26,124.13Zm-24-52.93a10.06,10.06,0,0,0-10,10.12v29.62a10.2,10.2,0,0,0,10.19,10.19h22.28V81.33a10.06,10.06,0,0,0-10-10.12Z"/><path d="M1656.11,157h-.62a34.6,34.6,0,0,1-9.74-67.6l.9,2.86a31.6,31.6,0,0,0,8.9,61.73h.57a31.73,31.73,0,0,0,29.43-20.08l2.79,1.09A34.74,34.74,0,0,1,1656.11,157Z"/><path d="M1718.26,158.52h-3V124.13h-23.74v-3h25.24a1.5,1.5,0,0,1,1.5,1.5Z"/><rect x="1698.51" y="122.63" width="3" height="35.89"/><path d="M1177.38,1214.93h-34.73a1.5,1.5,0,0,1-1.3-2.25l9.26-16a15.23,15.23,0,1,1,18.8,0l9.26,16a1.5,1.5,0,0,1-1.3,2.25Zm-32.13-3h29.53l-8.65-15a1.5,1.5,0,0,1,.49-2,12.23,12.23,0,1,0-13.21,0,1.5,1.5,0,0,1,.49,2Z"/><path d="M1210.1,1236.79H1109.92a1.5,1.5,0,0,1-1.5-1.5v-86.21a1.5,1.5,0,0,1,1.5-1.5H1210.1a1.5,1.5,0,0,1,1.5,1.5v86.21A1.5,1.5,0,0,1,1210.1,1236.79Zm-98.68-3h97.18v-83.21h-97.18Z"/><path d="M1125.77,1149.08h-3v-32.24a36.62,36.62,0,1,1,73.23,0v17.24h-3v-17.24a33.62,33.62,0,1,0-67.23,0Z"/><rect x="881.98" y="940.22" width="16.06" height="3"/><path d="M1393.23,1172.83a1.5,1.5,0,0,1-.36,0,42.06,42.06,0,0,1-8.15-3,1.5,1.5,0,0,1-.84-1.37l.13-8.95a33.87,33.87,0,0,1-4.79-4l-8.78,1.68a1.49,1.49,0,0,1-1.5-.59,42.25,42.25,0,0,1-4.34-7.51,1.5,1.5,0,0,1,.23-1.59l5.84-6.76a33.73,33.73,0,0,1-1.08-6.17l-7.8-4.35a1.5,1.5,0,0,1-.77-1.42,42.37,42.37,0,0,1,1.5-8.55,1.5,1.5,0,0,1,1.21-1.07l8.82-1.42a33.75,33.75,0,0,1,3.14-5.43l-3.17-8.34a1.5,1.5,0,0,1,.32-1.58,42.64,42.64,0,0,1,6.64-5.59,1.5,1.5,0,0,1,1.61,0l7.68,4.58a33.54,33.54,0,0,1,5.89-2.14l2.94-8.45a1.5,1.5,0,0,1,1.26-1,43,43,0,0,1,8.67,0,1.5,1.5,0,0,1,1.26,1l2.93,8.45a33.48,33.48,0,0,1,5.89,2.14l7.68-4.58a1.5,1.5,0,0,1,1.61,0,42.56,42.56,0,0,1,6.64,5.59,1.5,1.5,0,0,1,.33,1.58l-3.17,8.34a33.82,33.82,0,0,1,3.14,5.43l8.82,1.42a1.5,1.5,0,0,1,1.2,1.07,42.17,42.17,0,0,1,1.5,8.55,1.5,1.5,0,0,1-.77,1.42l-8.51,4.75-1.46-2.62,7.66-4.28a39.32,39.32,0,0,0-1.06-6.08l-8.66-1.4a1.5,1.5,0,0,1-1.14-.89,30.72,30.72,0,0,0-3.61-6.25,1.5,1.5,0,0,1-.2-1.43l3.12-8.19a39.57,39.57,0,0,0-4.72-4l-7.54,4.5a1.5,1.5,0,0,1-1.45.05,30.46,30.46,0,0,0-6.78-2.47,1.5,1.5,0,0,1-1.07-1l-2.88-8.3a40.14,40.14,0,0,0-6.17,0l-2.88,8.3a1.5,1.5,0,0,1-1.07,1,30.55,30.55,0,0,0-6.78,2.47,1.5,1.5,0,0,1-1.44-.05l-7.54-4.5a39.67,39.67,0,0,0-4.72,4l3.12,8.19a1.5,1.5,0,0,1-.2,1.43,30.77,30.77,0,0,0-3.61,6.25,1.5,1.5,0,0,1-1.14.89l-8.66,1.4a39.55,39.55,0,0,0-1.06,6.08l7.66,4.28a1.5,1.5,0,0,1,.77,1.23,30.67,30.67,0,0,0,1.25,7.11,1.5,1.5,0,0,1-.3,1.41l-5.74,6.64a39.46,39.46,0,0,0,3.09,5.34l8.63-1.65a1.5,1.5,0,0,1,1.38.45,30.86,30.86,0,0,0,5.52,4.64,1.5,1.5,0,0,1,.68,1.28l-.13,8.79a39.08,39.08,0,0,0,5.79,2.11l5.55-6.82,2.33,1.89-6.16,7.57A1.5,1.5,0,0,1,1393.23,1172.83Z"/><path d="M1403.17,1143.56a11.78,11.78,0,1,1,11.78-11.78A11.79,11.79,0,0,1,1403.17,1143.56Zm0-20.56a8.78,8.78,0,1,0,8.78,8.78A8.79,8.79,0,0,0,1403.17,1123Z"/><path d="M1441.9,1227.51a1.49,1.49,0,0,1-.36,0,46.1,46.1,0,0,1-8.93-3.25,1.5,1.5,0,0,1-.84-1.37l.15-9.91a37.12,37.12,0,0,1-5.37-4.51l-9.73,1.86a1.5,1.5,0,0,1-1.5-.59,46.38,46.38,0,0,1-4.76-8.23,1.5,1.5,0,0,1,.23-1.59l6.47-7.49a37,37,0,0,1-1.21-6.91l-8.64-4.82a1.5,1.5,0,0,1-.77-1.42,46.37,46.37,0,0,1,1.64-9.37,1.5,1.5,0,0,1,1.2-1.07l9.77-1.58a36.88,36.88,0,0,1,3.51-6.08l-3.52-9.24a1.5,1.5,0,0,1,.33-1.58,46.65,46.65,0,0,1,7.27-6.12,1.5,1.5,0,0,1,1.61,0l8.51,5.08a36.69,36.69,0,0,1,6.59-2.4l3.25-9.36a1.5,1.5,0,0,1,1.27-1,47.18,47.18,0,0,1,9.5,0,1.5,1.5,0,0,1,1.27,1l3.25,9.36a36.72,36.72,0,0,1,6.59,2.4l8.51-5.08a1.5,1.5,0,0,1,1.61,0,46.64,46.64,0,0,1,7.27,6.12,1.5,1.5,0,0,1,.33,1.58l-3.52,9.24a36.88,36.88,0,0,1,3.51,6.08l9.77,1.58a1.5,1.5,0,0,1,1.2,1.07,46.28,46.28,0,0,1,1.64,9.37,1.5,1.5,0,0,1-.77,1.42l-8.64,4.82a36.81,36.81,0,0,1-1.21,6.91l6.47,7.49a1.5,1.5,0,0,1,.23,1.59,46.39,46.39,0,0,1-4.76,8.23,1.5,1.5,0,0,1-1.5.59l-9.73-1.86a37,37,0,0,1-5.37,4.51l.14,9.91a1.5,1.5,0,0,1-.84,1.37,46.1,46.1,0,0,1-8.93,3.25,1.5,1.5,0,0,1-1.53-.51l-6.26-7.69a35.56,35.56,0,0,1-7,0l-6.26,7.69A1.5,1.5,0,0,1,1441.9,1227.51Zm-7.12-5.59a43.14,43.14,0,0,0,6.57,2.39l6.16-7.57a1.49,1.49,0,0,1,1.34-.54,33,33,0,0,0,8,0,1.5,1.5,0,0,1,1.34.54l6.17,7.57a43.17,43.17,0,0,0,6.57-2.39l-.14-9.76a1.5,1.5,0,0,1,.68-1.28,34.1,34.1,0,0,0,6.09-5.12,1.5,1.5,0,0,1,1.37-.44l9.58,1.83a43.42,43.42,0,0,0,3.5-6.06l-6.37-7.37a1.5,1.5,0,0,1-.3-1.41,33.86,33.86,0,0,0,1.38-7.84,1.5,1.5,0,0,1,.77-1.23l8.51-4.75a43.37,43.37,0,0,0-1.21-6.9l-9.62-1.55a1.5,1.5,0,0,1-1.14-.89,33.9,33.9,0,0,0-4-6.9,1.5,1.5,0,0,1-.2-1.43l3.46-9.1a43.64,43.64,0,0,0-5.35-4.51l-8.37,5a1.5,1.5,0,0,1-1.44.05,33.71,33.71,0,0,0-7.48-2.72,1.5,1.5,0,0,1-1.07-1l-3.2-9.21a44.24,44.24,0,0,0-7,0l-3.2,9.21a1.5,1.5,0,0,1-1.07,1,33.73,33.73,0,0,0-7.48,2.72,1.5,1.5,0,0,1-1.44-.05l-8.37-5a43.75,43.75,0,0,0-5.35,4.51l3.46,9.1a1.5,1.5,0,0,1-.2,1.43,33.9,33.9,0,0,0-4,6.9,1.5,1.5,0,0,1-1.14.89l-9.62,1.55a43.36,43.36,0,0,0-1.21,6.9l8.5,4.75a1.5,1.5,0,0,1,.77,1.23,33.79,33.79,0,0,0,1.38,7.84,1.5,1.5,0,0,1-.3,1.41l-6.37,7.37a43.28,43.28,0,0,0,3.5,6.06l9.58-1.83a1.5,1.5,0,0,1,1.37.44,34.09,34.09,0,0,0,6.09,5.12,1.5,1.5,0,0,1,.68,1.28Z"/><path d="M1452.83,1195.34a12.8,12.8,0,1,1,12.8-12.8A12.81,12.81,0,0,1,1452.83,1195.34Zm0-22.59a9.8,9.8,0,1,0,9.8,9.8A9.81,9.81,0,0,0,1452.83,1172.75Z"/><path d="M1452.83,1208a25.51,25.51,0,0,1-25.48-25.48h3a22.51,22.51,0,0,0,22.48,22.48Z"/><path d="M1721.79,1151.82l-2.12-2.12,7.23-7.23a1.5,1.5,0,0,1,1.71-.29,25.64,25.64,0,0,0,36.06-29.21l-15.51,15.51a1.54,1.54,0,0,1-2.12,0l-16.64-16.64a1.5,1.5,0,0,1,0-2.12l15.51-15.51a25.8,25.8,0,0,0-24.26,6.77,25.5,25.5,0,0,0-5.38,28.35,1.5,1.5,0,0,1-.32,1.66l-15.19,15.19-2.12-2.12,14.48-14.48a28.47,28.47,0,0,1,6.4-30.71,28.81,28.81,0,0,1,29.72-6.78,1.5,1.5,0,0,1,.57,2.48l-16.23,16.23,14.52,14.52,16.23-16.23a1.5,1.5,0,0,1,2.48.57,28.64,28.64,0,0,1-38.52,35.7Z"/><path d="M1641.94,1227.14a10.93,10.93,0,0,1-7.73-18.65l51.09-51.09,2.12,2.12-51.09,51.09a7.93,7.93,0,0,0,11.21,11.21l43.79-43.79,2.12,2.12-43.79,43.79A10.9,10.9,0,0,1,1641.94,1227.14Z"/><path d="M1757.11,1226.53a10.9,10.9,0,0,1-7.73-3.2l-48.51-48.51a1.5,1.5,0,0,1,0-2.12l13.34-13.34a1.54,1.54,0,0,1,2.12,0l48.51,48.51a10.92,10.92,0,0,1-7.73,18.65Zm-53.06-52.77,47.45,47.45a7.93,7.93,0,1,0,11.21-11.21l-47.45-47.45Z"/><path d="M1661.28,1121.27h-.11l-14.42-1.09a1.5,1.5,0,0,1-.95-.44l-13.86-13.86a1.5,1.5,0,0,1,0-2.12l13.34-13.34a1.5,1.5,0,0,1,2.12,0l13.86,13.86a1.5,1.5,0,0,1,.44.95l1.09,14.42a1.5,1.5,0,0,1-1.5,1.61Zm-13.75-4,12.13.91-.91-12.13-12.41-12.41-11.21,11.21Z"/><rect x="1683.44" y="1109.97" width="3" height="66.92" transform="translate(-315.02 1526.34) rotate(-45)"/><path d="M917,957.51H863.07a12.51,12.51,0,0,1-12.5-12.5V832a12.51,12.51,0,0,1,12.5-12.5H917a12.51,12.51,0,0,1,12.5,12.5V945A12.51,12.51,0,0,1,917,957.51Zm-53.89-135a9.51,9.51,0,0,0-9.5,9.5V945a9.51,9.51,0,0,0,9.5,9.5H917a9.51,9.51,0,0,0,9.5-9.5V832a9.51,9.51,0,0,0-9.5-9.5Z"/><rect x="852.07" y="846.38" width="75.89" height="3"/><rect x="852.07" y="927.28" width="75.89" height="3"/><path d="M1205.6,966.49h-91.17a12.51,12.51,0,0,1-12.5-12.5V822.5a12.51,12.51,0,0,1,12.5-12.5h91.17a12.51,12.51,0,0,1,12.5,12.5V954A12.51,12.51,0,0,1,1205.6,966.49ZM1114.43,813a9.51,9.51,0,0,0-9.5,9.5V954a9.51,9.51,0,0,0,9.5,9.5h91.17a9.51,9.51,0,0,0,9.5-9.5V822.5a9.51,9.51,0,0,0-9.5-9.5Z"/><rect x="1103.43" y="837.14" width="113.17" height="3"/><rect x="1103.43" y="935.95" width="113.17" height="3"/><path d="M35.3,1408.26A16.25,16.25,0,1,1,51.54,1392,16.27,16.27,0,0,1,35.3,1408.26Zm0-29.5A13.25,13.25,0,1,0,48.54,1392,13.26,13.26,0,0,0,35.3,1378.76Z"/><path d="M59.58,1508.52h-3v-71.2a13.26,13.26,0,0,0-13.25-13.25H27.26A13.26,13.26,0,0,0,14,1437.31v71.2H11v-71.2a16.27,16.27,0,0,1,16.25-16.25H43.33a16.27,16.27,0,0,1,16.25,16.25Z"/><path d="M124.73,1382.79A16.25,16.25,0,1,1,141,1366.55,16.27,16.27,0,0,1,124.73,1382.79Zm0-29.5A13.25,13.25,0,1,0,138,1366.55,13.26,13.26,0,0,0,124.73,1353.3Z"/><path d="M149,1441.82h-3v-30a13.26,13.26,0,0,0-13.25-13.25H116.69a13.26,13.26,0,0,0-13.25,13.25v30h-3v-30a16.27,16.27,0,0,1,16.25-16.25h16.07A16.27,16.27,0,0,1,149,1411.85Z"/><rect x="58.08" y="1440.02" width="101.94" height="3"/><rect y="1440.02" width="12.51" height="3"/><path d="M1745.34,887.47a15.85,15.85,0,1,1,15.85-15.85A15.87,15.87,0,0,1,1745.34,887.47Zm0-28.7a12.85,12.85,0,1,0,12.85,12.85A12.87,12.87,0,0,0,1745.34,858.76Z"/><path d="M1769,944.86h-3V915.7a12.87,12.87,0,0,0-12.85-12.85h-15.64a12.87,12.87,0,0,0-12.85,12.85v29.16h-3V915.7a15.87,15.87,0,0,1,15.85-15.85h15.64A15.87,15.87,0,0,1,1769,915.7Z"/><path d="M1698.69,873.43a1.5,1.5,0,0,1-1.06-.44L1685,860.35l-3,.06h-33.92a1.5,1.5,0,0,1-1.5-1.5V811.5a1.5,1.5,0,0,1,1.5-1.5H1707a1.5,1.5,0,0,1,1.5,1.5v47.41a1.5,1.5,0,0,1-1.5,1.5h-6.86v11.52a1.5,1.5,0,0,1-1.5,1.5Zm-13.09-16.09a1.5,1.5,0,0,1,1.06.44l10.53,10.53v-9.4a1.5,1.5,0,0,1,1.5-1.5h6.86V813h-55.93v44.41H1682l3.58-.07Z"/><rect x="1688.43" y="943.06" width="91.59" height="3"/><rect x="1620" y="943.06" width="24.09" height="3"/><path d="M1666.26,912.23a15.85,15.85,0,1,1,15.85-15.85A15.87,15.87,0,0,1,1666.26,912.23Zm0-28.7a12.85,12.85,0,1,0,12.85,12.85A12.87,12.87,0,0,0,1666.26,883.53Z"/><path d="M1689.93,968.52h-3V940.47a12.87,12.87,0,0,0-12.85-12.85h-15.64a12.87,12.87,0,0,0-12.85,12.85v28.05h-3V940.47a15.87,15.87,0,0,1,15.85-15.85h15.64a15.87,15.87,0,0,1,15.85,15.85Z"/><path d="M146.53,1200.21H13.5a1.5,1.5,0,0,1-1.5-1.5V1118.3a1.5,1.5,0,0,1,1.5-1.5h133a1.5,1.5,0,0,1,1.5,1.5v80.41A1.5,1.5,0,0,1,146.53,1200.21Zm-131.53-3H145V1119.8H15Z"/><path d="M80,1176.1a1.49,1.49,0,0,1-1-.35l-66.52-56.3,1.94-2.29L80,1172.63l65.55-55.48,1.94,2.29L81,1175.74A1.49,1.49,0,0,1,80,1176.1Z"/><path d="M314.6,1217.17a24,24,0,0,1-17-41l31.85-31.85a24,24,0,0,1,34,0l-2.12,2.12a21,21,0,0,0-29.73,0l-31.85,31.85A21,21,0,1,0,329.47,1208l12.41-12.41,2.12,2.12-12.41,12.41A23.86,23.86,0,0,1,314.6,1217.17Z"/><path d="M352,1179.74a23.94,23.94,0,0,1-17-7l2.12-2.12a21,21,0,0,0,29.73,0l31.85-31.85A21,21,0,0,0,369,1109l-12.41,12.41-2.12-2.12,12.41-12.41a24,24,0,0,1,34,34L369,1172.71A23.94,23.94,0,0,1,352,1179.74Z"/><rect x="302.72" y="1107.87" width="3" height="22.39" transform="translate(-702.2 542.89) rotate(-45)"/><rect x="324.19" y="1098.98" width="3" height="22.39"/><rect x="284.13" y="1139.03" width="22.39" height="3"/><path d="M620,1227.51a17.84,17.84,0,0,1-17.82-17.82h3a14.82,14.82,0,1,0,29.64,0h3A17.84,17.84,0,0,1,620,1227.51Z"/><path d="M672.49,1198.78H567.54a1.5,1.5,0,0,1-1.35-2.15L588.75,1150v-25.23a17.84,17.84,0,0,1,17.82-17.82h26.88a17.84,17.84,0,0,1,17.82,17.82V1150l22.56,46.68a1.5,1.5,0,0,1-1.35,2.15Zm-102.55-3H670.09l-21.67-44.83a1.5,1.5,0,0,1-.15-.65v-25.57a14.84,14.84,0,0,0-14.82-14.82H606.57a14.84,14.84,0,0,0-14.82,14.82v25.57a1.5,1.5,0,0,1-.15.65Z"/><rect x="618.51" y="1091.01" width="3" height="17.39"/><rect x="589.3" y="1148.99" width="39.31" height="3"/><rect x="869.65" y="1147.66" width="87.87" height="3"/><rect x="869.65" y="1166.36" width="54.12" height="3"/><path d="M836.86,1174.36a15.85,15.85,0,1,1,15.85-15.85A15.87,15.87,0,0,1,836.86,1174.36Zm0-28.7a12.85,12.85,0,1,0,12.85,12.85A12.87,12.87,0,0,0,836.86,1145.66Z"/><rect x="869.65" y="1098.95" width="87.87" height="3"/><rect x="869.65" y="1117.65" width="54.12" height="3"/><path d="M836.86,1125.65a15.85,15.85,0,1,1,15.85-15.85A15.87,15.87,0,0,1,836.86,1125.65Zm0-28.7a12.85,12.85,0,1,0,12.85,12.85A12.87,12.87,0,0,0,836.86,1096.95Z"/><rect x="869.65" y="1196.37" width="87.87" height="3"/><rect x="869.65" y="1215.07" width="54.12" height="3"/><path d="M836.86,1223.07a15.85,15.85,0,1,1,15.85-15.85A15.87,15.87,0,0,1,836.86,1223.07Zm0-28.7a12.85,12.85,0,1,0,12.85,12.85A12.87,12.87,0,0,0,836.86,1194.37Z"/><path d="M313.16,1451A15.85,15.85,0,1,1,329,1435.11,15.87,15.87,0,0,1,313.16,1451Zm0-28.7A12.85,12.85,0,1,0,326,1435.11,12.87,12.87,0,0,0,313.16,1422.26Z"/><path d="M336.83,1508.48h-3V1479.2A12.87,12.87,0,0,0,321,1466.34H305.34a12.87,12.87,0,0,0-12.85,12.85v29.29h-3V1479.2a15.87,15.87,0,0,1,15.85-15.85H321a15.87,15.87,0,0,1,15.85,15.85Z"/><path d="M386.86,1451a15.85,15.85,0,1,1,15.85-15.85A15.87,15.87,0,0,1,386.86,1451Zm0-28.7a12.85,12.85,0,1,0,12.85,12.85A12.87,12.87,0,0,0,386.86,1422.26Z"/><path d="M410.54,1508.48h-3V1479.2a12.87,12.87,0,0,0-12.85-12.85H379a12.87,12.87,0,0,0-12.85,12.85v29.29h-3V1479.2A15.87,15.87,0,0,1,379,1463.34h15.64a15.87,15.87,0,0,1,15.85,15.85Z"/><path d="M350,1381.7a15.85,15.85,0,1,1,15.85-15.85A15.87,15.87,0,0,1,350,1381.7Zm0-28.7a12.85,12.85,0,1,0,12.85,12.85A12.87,12.87,0,0,0,350,1353Z"/><path d="M373.68,1409.94h-3a12.87,12.87,0,0,0-12.85-12.85H342.19a12.87,12.87,0,0,0-12.85,12.85h-3a15.87,15.87,0,0,1,15.85-15.85h15.64A15.87,15.87,0,0,1,373.68,1409.94Z"/><path d="M678.89,1475.68H561.14A10.13,10.13,0,0,1,551,1465.56v-74.11a10.13,10.13,0,0,1,10.12-10.12H678.89A10.13,10.13,0,0,1,689,1391.45v74.11A10.13,10.13,0,0,1,678.89,1475.68Zm-117.75-91.35a7.13,7.13,0,0,0-7.12,7.12v74.11a7.13,7.13,0,0,0,7.12,7.12H678.89a7.13,7.13,0,0,0,7.12-7.12v-74.11a7.13,7.13,0,0,0-7.12-7.12Z"/><rect x="552.51" y="1402.15" width="135" height="3"/><rect x="648.99" y="1449.47" width="18.91" height="3"/><rect x="570.31" y="1449.47" width="18.91" height="3"/><rect x="570.31" y="1432.29" width="38.03" height="3"/><rect x="1153.3" y="949.52" width="13.43" height="3"/><path d="M1478.88,968.63h-3v-9.45h-91.39v9.45h-3V957.68a1.5,1.5,0,0,1,1.5-1.5h94.39a1.5,1.5,0,0,1,1.5,1.5Z"/><rect x="1428.68" y="808.63" width="3" height="126.18"/><rect x="1377.54" y="838.14" width="44.89" height="3"/><rect x="1356.23" y="887.13" width="42.63" height="3"/><rect x="1461.51" y="887.1" width="42.63" height="3"/><path d="M1377.54,911.44a22.84,22.84,0,0,1-22.81-22.54s0,0,0-.07v-.2a1.5,1.5,0,0,1,.39-1l21-48.57a1.5,1.5,0,0,1,2.75,0l21,48.57a1.5,1.5,0,0,1,.39,1v.2s0,0,0,.07A22.84,22.84,0,0,1,1377.54,911.44Zm-19.81-22.31a19.81,19.81,0,0,0,39.62,0l-19.81-45.71Z"/><path d="M1482.83,911.42A22.84,22.84,0,0,1,1460,888.88s0,0,0-.07v-.2a1.5,1.5,0,0,1,.39-1l21-48.57a1.5,1.5,0,0,1,2.75,0l21,48.57a1.5,1.5,0,0,1,.39,1v.2s0,0,0,.07A22.84,22.84,0,0,1,1482.83,911.42ZM1463,889.1a19.81,19.81,0,0,0,39.62,0l-19.81-45.71Z"/><rect x="1397.56" y="944.49" width="65.25" height="3"/><rect x="1437.76" y="838.12" width="45.06" height="3"/><rect x="1370.87" y="1404.39" width="118.29" height="3"/><path d="M1494.19,1432.21h-5v-3h5c3.93,0,7.12-4.15,7.12-9.26v-39.72c0-5.11-3.2-9.26-7.12-9.26H1365.83c-3.93,0-7.12,4.15-7.12,9.26v39.72c0,5.11,3.2,9.26,7.12,9.26h5v3h-5c-5.58,0-10.12-5.5-10.12-12.26v-39.72c0-6.76,4.54-12.26,10.12-12.26h128.36c5.58,0,10.12,5.5,10.12,12.26v39.72C1504.31,1426.71,1499.77,1432.21,1494.19,1432.21Z"/><rect x="1469.71" y="1385.82" width="19.45" height="3"/><path d="M1468.37,1497.51h-76.71a10.13,10.13,0,0,1-10.12-10.12v-81.49h3v81.49a7.13,7.13,0,0,0,7.12,7.12h76.71a7.13,7.13,0,0,0,7.12-7.12v-81.49h3v81.49A10.13,10.13,0,0,1,1468.37,1497.51Z"/><rect x="1454.08" y="1405.89" width="3" height="90.12"/><rect x="1405.41" y="1457.46" width="3" height="19.45"/><path d="M1197.09,1487.42h-74.16a1.5,1.5,0,0,1-1.5-1.5v-80h3v78.53h71.16v-78.53h3v80A1.5,1.5,0,0,1,1197.09,1487.42Z"/><path d="M1148,1485.92h-3v-11.26a12.46,12.46,0,0,1-10.85-10.85h-11.26v-3h12.67a1.5,1.5,0,0,1,1.5,1.5,9.45,9.45,0,0,0,9.44,9.44,1.5,1.5,0,0,1,1.5,1.5Z"/><path d="M1175,1487.55h-3v-12.67a1.5,1.5,0,0,1,1.5-1.5,9.45,9.45,0,0,0,9.44-9.44,1.5,1.5,0,0,1,1.5-1.5h12.67v3h-11.26a12.46,12.46,0,0,1-10.85,10.85Z"/><rect x="1100.87" y="1404.39" width="118.29" height="3"/><path d="M1224.19,1432.21H1210.9v-3h13.29c3.93,0,7.12-4.15,7.12-9.26v-39.72c0-5.11-3.2-9.26-7.12-9.26H1095.83c-3.93,0-7.12,4.15-7.12,9.26v39.72c0,5.11,3.2,9.26,7.12,9.26h16.32v3h-16.32c-5.58,0-10.12-5.5-10.12-12.26v-39.72c0-6.76,4.54-12.26,10.12-12.26h128.36c5.58,0,10.12,5.5,10.12,12.26v39.72C1234.31,1426.71,1229.77,1432.21,1224.19,1432.21Z"/><rect x="1199.71" y="1385.82" width="19.45" height="3"/></g></g></svg>