<?xml version="1.0" encoding="utf-8"?>
<!-- Generator: Adobe Illustrator 21.0.2, SVG Export Plug-In . SVG Version: 6.00 Build 0)  -->
<svg version="1.1" id="Lager_1" xmlns="http://www.w3.org/2000/svg" xmlns:xlink="http://www.w3.org/1999/xlink" x="0px" y="0px"
	 viewBox="0 0 2047.9 742.9" style="enable-background:new 0 0 2047.9 742.9;" xml:space="preserve">
<style type="text/css">
	.st0{fill:#60CD18;}
</style>
<title>illustration</title>
<g id="Lager_2">
	<g id="Lager_1-2">
		<path class="st0" d="M726.8,472.3c-9.9,0-17.9-8-17.9-17.8s8-17.9,17.8-17.9c9.9,0,17.9,8,17.9,17.8c0,0,0,0,0,0
			C744.7,464.3,736.7,472.3,726.8,472.3z M726.8,443.6c-6,0-10.9,4.9-10.9,10.8s4.9,10.9,10.8,10.9c6,0,10.9-4.9,10.9-10.8
			c0,0,0,0,0,0C737.7,448.5,732.8,443.6,726.8,443.6L726.8,443.6z"/>
		<path class="st0" d="M708.2,603.6h-7v-105c0-9.8,8-17.8,17.8-17.9h15.6c9.9,0,17.8,8,17.8,17.9h-7c0-6-4.9-10.8-10.8-10.9H719
			c-6,0-10.8,4.9-10.8,10.9L708.2,603.6z"/>
		<path class="st0" d="M771.2,472.3c-9.9,0-17.9-8-17.9-17.8s8-17.9,17.8-17.9c9.9,0,17.9,8,17.9,17.8c0,0,0,0,0,0
			C789,464.3,781,472.3,771.2,472.3z M771.2,443.6c-6,0-10.9,4.8-10.9,10.8c0,6,4.8,10.9,10.8,10.9c6,0,10.9-4.8,10.9-10.8
			c0,0,0,0,0,0C782,448.5,777.1,443.6,771.2,443.6L771.2,443.6z"/>
		<path class="st0" d="M777.7,568.7h-35.9c-1.9,0-3.5-1.6-3.5-3.5c0-0.2,0-0.5,0.1-0.7l7.2-36.3v-29.1c0-10.1,8-18.4,17.8-18.4H779
			c9.8,0,17.8,8.2,17.8,18.4l-0.2,33.1h-7l0.2-33c0.2-6.1-4.7-11.3-10.8-11.4c0,0,0,0,0,0h-15.7c-6.1,0.2-11,5.2-10.8,11.4v29.5
			c0,0.2,0,0.5-0.1,0.7l-6.4,32.5h31.7L777.7,568.7z"/>
		<path class="st0" d="M798.6,610.1c-8.3,0-15-6.7-15-15s6.7-15,15-15s15,6.7,15,15l0,0C813.6,603.4,806.9,610.1,798.6,610.1z
			 M798.6,587.1c-4.4,0-8,3.6-8,8s3.6,8,8,8s8-3.6,8-8S803.1,587.1,798.6,587.1z"/>
		<path class="st0" d="M841.6,610.1c-8.3,0-15-6.7-15-15s6.7-15,15-15s15,6.7,15,15l0,0C856.6,603.4,849.9,610.1,841.6,610.1z
			 M841.6,587.1c-4.4,0-8,3.6-8,8s3.6,8,8,8s8-3.6,8-8S846.1,587.1,841.6,587.1z"/>
		<path class="st0" d="M823.6,532.1h-7v-39.8c0-1.9,1.6-3.5,3.5-3.5c23.5,0,42.5,19,42.5,42.5h-7c0-18.2-13.8-33.5-32-35.3V532.1z"
			/>
		<path class="st0" d="M784.6,531.6h-7c0-8.3-6.7-15-15-15l0,0v-7C774.8,509.6,784.6,519.5,784.6,531.6z"/>
		<path class="st0" d="M820.1,574.1c-23.5,0-42.5-19-42.5-42.5c0-1.9,1.6-3.5,3.5-3.5h78c1.9,0,3.5,1.6,3.5,3.5
			C862.6,555.1,843.6,574.1,820.1,574.1z M784.8,535.1c1.9,19.5,19.3,33.8,38.8,31.9c16.9-1.7,30.2-15,31.9-31.9H784.8z"/>
		<path class="st0" d="M1657.7,472.3c-9.9,0-17.8-8-17.8-17.8c0-9.9,8-17.9,17.8-17.9c9.9,0,17.8,8,17.8,17.8c0,0,0,0,0,0
			C1675.6,464.3,1667.6,472.3,1657.7,472.3z M1657.7,443.6c-6,0-10.8,4.9-10.8,10.8c0,6,4.9,10.9,10.8,10.9c6,0,10.8-4.9,10.8-10.8
			c0,0,0,0,0,0C1668.6,448.5,1663.7,443.6,1657.7,443.6L1657.7,443.6z"/>
		<path class="st0" d="M1639.1,567.8h-7v-69.3c0-9.9,8-17.8,17.8-17.9h15.6c9.9,0,17.8,8,17.8,17.9v41h-7v-41
			c0-6-4.9-10.8-10.8-10.9h-15.6c-6,0-10.8,4.9-10.8,10.9V567.8z"/>
		<rect x="1700.9" y="509.9" class="st0" width="20.8" height="7"/>
		<path class="st0" d="M1800.1,610.1c-16.8,0-30.4-13.6-30.4-30.4c0-16.8,13.6-30.4,30.4-30.4c16.8,0,30.4,13.6,30.4,30.4
			C1830.5,596.5,1816.9,610.1,1800.1,610.1z M1800.1,556.3c-12.9,0-23.4,10.5-23.4,23.4c0,12.9,10.5,23.4,23.4,23.4
			c12.9,0,23.4-10.5,23.4-23.4C1823.5,566.8,1813,556.3,1800.1,556.3z"/>
		<path class="st0" d="M1692.5,610.1c-16.8,0-30.4-13.6-30.4-30.4c0-16.8,13.6-30.4,30.4-30.4c16.8,0,30.4,13.6,30.4,30.4
			C1722.9,596.5,1709.2,610.1,1692.5,610.1z M1692.5,556.3c-12.9,0-23.4,10.5-23.4,23.4c0,12.9,10.5,23.4,23.4,23.4
			c12.9,0,23.4-10.5,23.4-23.4C1715.9,566.8,1705.4,556.3,1692.5,556.3z"/>
		<path class="st0" d="M1797,581.4l-38.6-69.3h-18.3v-7h20.3c1.3,0,2.4,0.7,3.1,1.8l39.6,71.1L1797,581.4z"/>
		<path class="st0" d="M1695.5,581.4l-6.1-3.4l26.9-48.3c0.6-1.1,1.8-1.8,3.1-1.8h53.8v7h-51.8L1695.5,581.4z"/>
		<path class="st0" d="M1773.2,531.4"/>
		<path class="st0" d="M1746.3,583.2c-1.3,0-2.4-0.7-3.1-1.8l-35.7-64.2l6.1-3.4l32.7,58.7l23.8-42.8l6.1,3.4l-26.9,48.3
			C1748.7,582.5,1747.5,583.2,1746.3,583.2z"/>
		<path class="st0" d="M467,701.3c-13.7,0-24.8-11.1-24.8-24.8s11.1-24.8,24.8-24.8s24.8,11.1,24.8,24.8l0,0
			C491.8,690.2,480.7,701.3,467,701.3z M467,658.7c-9.8,0-17.8,8-17.8,17.8s8,17.8,17.8,17.8s17.8-8,17.8-17.8l0,0
			C484.8,666.6,476.8,658.7,467,658.7z"/>
		<path class="st0" d="M594.8,701.3c-13.7,0-24.8-11.1-24.8-24.8s11.1-24.8,24.8-24.8s24.8,11.1,24.8,24.8l0,0
			C619.6,690.2,608.5,701.3,594.8,701.3z M594.8,658.7c-9.8,0-17.8,8-17.8,17.8s8,17.8,17.8,17.8s17.8-8,17.8-17.8l0,0
			C612.6,666.6,604.6,658.7,594.8,658.7z"/>
		
			<rect x="526.7" y="650.4" transform="matrix(1.151898e-02 -0.9999 0.9999 1.151898e-02 -153.663 1200.2224)" class="st0" width="7" height="54.8"/>
		<path class="st0" d="M652.9,682.5h-20.8l0.1-7h3.7h13.5V645c0-9.5-6.8-17.6-16.1-19.3l-45-8.2c-0.6-0.1-1.2-0.4-1.7-0.8l-44.3-38
			h-80.8l-47.9,46.9l2.4,47.4l13.2,0.2l-0.1,7l-16.5-0.2c-1.8,0-3.4-1.5-3.5-3.3l-2.7-52.3c-0.1-1,0.3-2,1-2.7l50-49
			c0.7-0.6,1.5-1,2.5-1h83.7c0.8,0,1.6,0.3,2.3,0.8l44.5,38.2l44,8.1c12.6,2.3,21.8,13.3,21.8,26.1v34
			C656.4,680.9,654.9,682.5,652.9,682.5C653,682.5,652.9,682.5,652.9,682.5z"/>
		<rect x="543.9" y="631.3" class="st0" width="18.3" height="7"/>
		<rect x="674.7" y="639.3" class="st0" width="1257.2" height="7"/>
		<rect x="111.9" y="639.3" class="st0" width="285.4" height="7"/>
		<path class="st0" d="M376,605.9h-7v-406c0-1.9,1.6-3.5,3.5-3.5h204.9c1.9,0,3.5,1.6,3.5,3.5v94.7h-7v-91.2H376V605.9z"/>
		<rect x="573.9" y="314.3" class="st0" width="7" height="256.3"/>
		<path class="st0" d="M545.2,556.8h-7V332.4c0-22.8,18.5-41.3,41.3-41.3c22.8,0,41.3,18.5,41.3,41.3v9.8h-7v-9.8
			c0-19-15.4-34.3-34.3-34.3c-19,0-34.3,15.4-34.3,34.3V556.8z"/>
		<path class="st0" d="M637.6,365.8h-40.4c-1.9,0-3.5-1.6-3.5-3.5c0-13.1,10.6-23.7,23.7-23.7c13.1,0,23.7,10.6,23.7,23.7
			C641.1,364.2,639.5,365.8,637.6,365.8z M601,358.8h32.7c-1.9-9-10.8-14.8-19.9-12.8C607.4,347.3,602.4,352.3,601,358.8z"/>
		<path class="st0" d="M1096.2,606.6h-7V332.4c0-22.8,18.5-41.3,41.3-41.3c22.8,0,41.3,18.5,41.3,41.3v9.8h-7v-9.8
			c0-19-15.4-34.3-34.3-34.3c-19,0-34.3,15.4-34.3,34.3V606.6z"/>
		<path class="st0" d="M1188.6,365.8h-40.4c-1.9,0-3.5-1.6-3.5-3.5c0-13.1,10.7-23.7,23.8-23.7c13.1,0,23.7,10.6,23.7,23.7
			C1192.1,364.2,1190.5,365.8,1188.6,365.8z M1152,358.8h32.7c-1.9-9-10.8-14.8-19.9-12.8C1158.4,347.3,1153.4,352.3,1152,358.8z"/>
		<path class="st0" d="M564.9,199.9h-7v-29.6h-166v29.6h-7v-33.1c0-1.9,1.6-3.5,3.5-3.5h173c1.9,0,3.5,1.6,3.5,3.5V199.9z"/>
		<path class="st0" d="M1053.9,610.1h-41.4c-1.9,0-3.5-1.6-3.5-3.5V433.7h-73.1v172.9c0,1.9-1.6,3.5-3.5,3.5h-53.7v-7h50.2V430.2
			c0-1.9,1.6-3.5,3.5-3.5h80.1c1.9,0,3.5,1.6,3.5,3.5v172.9h34.4V361.5H752.5v61.3h-7V358c0-1.9,1.6-3.5,3.5-3.5h304.9
			c1.9,0,3.5,1.6,3.5,3.5v248.6C1057.4,608.6,1055.8,610.1,1053.9,610.1z"/>
		<rect x="980.8" y="509.6" class="st0" width="16.6" height="7"/>
		<path class="st0" d="M1405.7,564.7h-71.8c-1.9,0-3.5-1.6-3.5-3.5v-49.3c0-1.9,1.6-3.5,3.5-3.5h71.8c1.9,0,3.5,1.6,3.5,3.5v49.3
			C1409.2,563.1,1407.6,564.7,1405.7,564.7z M1337.4,557.7h64.8v-42.3h-64.8V557.7z"/>
		<path class="st0" d="M1447,610.1h-201.6c-1.9,0-3.5-1.6-3.5-3.5v-91.2h-48.4v91.2c0,1.9-1.6,3.5-3.5,3.5h-44.6
			c-1.9,0-3.5-1.6-3.5-3.5V471.4c0-0.9,0.4-1.8,1-2.5l71.8-71.8c1.4-1.4,3.6-1.4,4.9,0c0,0,0,0,0,0l72.5,72.5c0.6,0.7,1,1.5,1,2.5
			v131h150.4v-52h7v55.5C1450.5,608.5,1449,610.1,1447,610.1C1447,610.1,1447,610.1,1447,610.1z M1248.8,603.1h37.3V473.5l-69-69
			l-68.3,68.3v130.3h37.6v-91.2c0-1.9,1.6-3.5,3.5-3.5h55.4c1.9,0,3.5,1.6,3.5,3.5L1248.8,603.1z"/>
		<rect x="1217.2" y="396.1" class="st0" width="205.3" height="7"/>
		<rect x="1289.7" y="468.6" class="st0" width="116" height="7"/>
		<path class="st0" d="M798.6,248.1H616.1v-7h179.1v-28.5c0-1.9,1.6-3.5,3.5-3.5l0,0h50.8v-65.9c0-1.9,1.6-3.5,3.5-3.5h41
			c1.9,0,3.5,1.6,3.5,3.5v65.9h37.8v-16.2c0-1.9,1.6-3.5,3.5-3.5h92v-66.2c0-1.9,1.6-3.5,3.5-3.5h28V87.1c0-1.9,1.6-3.5,3.5-3.5
			h57.5c1.9,0,3.5,1.6,3.5,3.5v112.7h7.3v-46c0-1.9,1.6-3.5,3.5-3.5h38.4c1.9,0,3.5,1.6,3.5,3.5v27h11.1v-77.5
			c0-1.9,1.6-3.5,3.5-3.5l0,0h44.8c1.9,0,3.5,1.6,3.5,3.5l0,0v50.1h71c1.9,0,3.5,1.6,3.5,3.5c0,0,0,0,0,0l-0.3,30h127v-81.6
			c0-1.9,1.6-3.5,3.5-3.5h22.4V50.9c0-1.9,1.6-3.5,3.5-3.5h27.1c1.9,0,3.5,1.6,3.5,3.5v133.6h29.7v-34.7c0-1.9,1.6-3.5,3.5-3.5h39.2
			V57.8c0-1.9,1.6-3.5,3.5-3.5h51.1c1.9,0,3.5,1.6,3.5,3.5v87.9h12.2V3.5c0-1.9,1.6-3.5,3.5-3.5h68.5c1.9,0,3.5,1.6,3.5,3.5l0,0
			v129.4h31.9c1.9,0,3.5,1.6,3.5,3.5v40h48.4v7h-51.9c-1.9,0-3.5-1.6-3.5-3.5v-40h-31.9c-1.9,0-3.5-1.6-3.5-3.5V7h-61.5v142.2
			c0,1.9-1.6,3.5-3.5,3.5h-19.2c-1.9,0-3.5-1.6-3.5-3.5V61.3h-44.1v88.5c0,1.9-1.6,3.5-3.5,3.5h-39.2V188c0,1.9-1.6,3.5-3.5,3.5
			H1500c-1.9,0-3.5-1.6-3.5-3.5V54.4h-20.1v50.8c0,1.9-1.6,3.5-3.5,3.5l0,0h-22.4v81.6c0,1.9-1.6,3.5-3.5,3.5l0,0h-134
			c-1.9,0-3.5-1.6-3.5-3.5c0,0,0,0,0,0l0.3-30h-70.9c-1.9,0-3.5-1.6-3.5-3.5v-50.1h-37.8v77.5c0,1.9-1.6,3.5-3.5,3.5H1176
			c-1.9,0-3.5-1.6-3.5-3.5v-27H1141v46c0,1.9-1.6,3.5-3.5,3.5h-14.3c-1.9,0-3.5-1.6-3.5-3.5V90.6h-50.5v32.7c0,1.9-1.6,3.5-3.5,3.5
			h-28v66.2c0,1.9-1.6,3.5-3.5,3.5h-92v16.2c0,1.9-1.6,3.5-3.5,3.5h-44.8c-1.9,0-3.5-1.6-3.5-3.5v-65.9h-34v65.9
			c0,1.9-1.6,3.5-3.5,3.5h-50.8v28.5C802.1,246.5,800.6,248.1,798.6,248.1z"/>
		<rect x="201.4" y="241.1" class="st0" width="139.7" height="7"/>
		<path class="st0" d="M1477.9,540c-34,0-61.6-27.6-61.6-61.6c0-20.8,10.5-40.2,27.9-51.6c-9.1-18.7-1.3-41.2,17.3-50.2
			s41.2-1.3,50.2,17.3c5.1,10.4,5.1,22.5,0,32.9c28.5,18.6,36.4,56.8,17.8,85.3C1518.1,529.5,1498.7,540,1477.9,540z M1477.9,379.7
			c-16.9,0-30.6,13.7-30.6,30.6c0,5.6,1.5,11.1,4.5,15.9c1,1.6,0.5,3.8-1.2,4.8c0,0,0,0-0.1,0c-26.1,15.1-35,48.5-19.9,74.7
			c15.1,26.1,48.5,35,74.7,19.9c26.1-15.1,35-48.5,19.9-74.7c-4.8-8.3-11.7-15.1-19.9-19.9c-1.7-1-2.2-3.1-1.3-4.8c0,0,0,0,0-0.1
			c8.8-14.4,4.2-33.3-10.2-42C1489,381.3,1483.5,379.7,1477.9,379.7z"/>
		<rect x="1474.4" y="407.9" class="st0" width="7" height="198"/>
		
			<rect x="1471.7" y="486.1" transform="matrix(0.7071 -0.7071 0.7071 0.7071 92.1895 1201.7224)" class="st0" width="50.1" height="7"/>
		<path class="st0" d="M280.8,540c-34,0-61.6-27.6-61.6-61.6c0-20.8,10.5-40.2,27.9-51.6c-9.1-18.7-1.3-41.2,17.3-50.2
			s41.2-1.3,50.2,17.3c5.1,10.4,5.1,22.5,0,32.9c28.5,18.6,36.4,56.8,17.8,85.3C321,529.5,301.6,540,280.8,540z M280.8,379.7
			c-16.9,0-30.6,13.7-30.6,30.6c0,5.6,1.5,11.1,4.5,15.9c1,1.6,0.5,3.8-1.2,4.8c0,0,0,0-0.1,0c-26.1,15.1-35,48.5-19.9,74.7
			c15.1,26.1,48.5,35,74.7,19.9s35-48.5,19.9-74.7c-4.8-8.3-11.7-15.1-19.9-19.9c-1.7-1-2.2-3.1-1.3-4.8c0,0,0,0,0-0.1
			c8.8-14.4,4.2-33.3-10.2-42C291.9,381.3,286.4,379.7,280.8,379.7z"/>
		<rect x="277.3" y="407.9" class="st0" width="7" height="198"/>
		<rect x="1634.4" y="331.1" class="st0" width="200.8" height="7"/>
		<path class="st0" d="M1570.4,592.1h-7V402.2c0-0.9,0.4-1.8,1-2.5l67.6-67.6c1.4-1.4,3.6-1.4,4.9,0c0,0,0,0,0,0l66.5,66.5h162.5v7
			H1702c-0.9,0-1.8-0.4-2.5-1l-65.1-65.1l-64,64L1570.4,592.1z"/>
		<rect x="1698.5" y="402.2" class="st0" width="7" height="91.9"/>
		<rect x="409" y="236.3" class="st0" width="7" height="32.9"/>
		<rect x="440.2" y="236.3" class="st0" width="7" height="32.9"/>
		<rect x="471.6" y="236.3" class="st0" width="7" height="32.9"/>
		<rect x="502.8" y="236.3" class="st0" width="7" height="32.9"/>
		<rect x="409" y="315.4" class="st0" width="7" height="32.9"/>
		<rect x="440.2" y="315.4" class="st0" width="7" height="32.9"/>
		<rect x="471.6" y="315.4" class="st0" width="7" height="32.9"/>
		<rect x="502.8" y="315.4" class="st0" width="7" height="32.9"/>
		<rect x="409" y="394.6" class="st0" width="7" height="32.9"/>
		<rect x="440.2" y="394.6" class="st0" width="7" height="32.9"/>
		<rect x="471.6" y="394.6" class="st0" width="7" height="32.9"/>
		<rect x="502.8" y="394.6" class="st0" width="7" height="32.9"/>
		<rect x="409" y="473.7" class="st0" width="7" height="32.9"/>
		<rect x="440.2" y="473.7" class="st0" width="7" height="32.9"/>
		<rect x="471.6" y="473.7" class="st0" width="7" height="32.9"/>
		<rect x="502.8" y="473.7" class="st0" width="7" height="32.9"/>
		<rect x="534.2" y="236.3" class="st0" width="7" height="32.9"/>
		
			<rect x="265.3" y="449.4" transform="matrix(0.7071 -0.7071 0.7071 0.7071 -251.0348 326.698)" class="st0" width="7" height="33.9"/>
		<rect y="735.9" class="st0" width="81.9" height="7"/>
		<rect x="1966" y="735.9" class="st0" width="81.9" height="7"/>
		<rect x="1802.2" y="735.9" class="st0" width="81.9" height="7"/>
		<rect x="1638.3" y="735.9" class="st0" width="81.9" height="7"/>
		<rect x="1474.5" y="735.9" class="st0" width="81.9" height="7"/>
		<rect x="1310.7" y="735.9" class="st0" width="81.9" height="7"/>
		<rect x="1146.8" y="735.9" class="st0" width="81.9" height="7"/>
		<rect x="983" y="735.9" class="st0" width="81.9" height="7"/>
		<rect x="819.2" y="735.9" class="st0" width="81.9" height="7"/>
		<rect x="655.3" y="735.9" class="st0" width="81.9" height="7"/>
		<rect x="491.5" y="735.9" class="st0" width="81.9" height="7"/>
		<rect x="327.7" y="735.9" class="st0" width="81.9" height="7"/>
		<rect x="163.8" y="735.9" class="st0" width="81.9" height="7"/>
	</g>
</g>
</svg>
