<?xml version="1.0" encoding="utf-8"?>
<!-- Generator: Adobe Illustrator 21.0.2, SVG Export Plug-In . SVG Version: 6.00 Build 0)  -->
<svg version="1.1" id="Lager_1" xmlns="http://www.w3.org/2000/svg" xmlns:xlink="http://www.w3.org/1999/xlink" x="0px" y="0px"
	 viewBox="0 0 160 158.5" style="enable-background:new 0 0 160 158.5;" xml:space="preserve">
<style type="text/css">
	.st0{fill:#673AB6;}
</style>
<title>one-icon</title>
<g id="Lager_2">
	<g id="Lager_1-2">
		<path class="st0" d="M125.3,77.5c-8.8,0-15.8-7.1-15.8-15.9c0-8.8,7.1-15.8,15.9-15.8s15.8,7.1,15.8,15.9
			C141.2,70.4,134.1,77.5,125.3,77.5z M125.3,48.8c-7.1,0-12.8,5.8-12.8,12.9c0,7.1,5.8,12.8,12.9,12.8s12.8-5.8,12.8-12.8
			C138.2,54.5,132.4,48.8,125.3,48.8z"/>
		<path class="st0" d="M149,134.9h-3v-29.2c0-7.1-5.8-12.8-12.9-12.8h-15.6c-7.1,0-12.8,5.8-12.8,12.8v29.2h-3v-29.2
			c0-8.7,7.1-15.8,15.8-15.8h15.6c8.7,0,15.8,7.1,15.8,15.8V134.9z"/>
		<path class="st0" d="M78.7,63.4c-0.4,0-0.8-0.2-1.1-0.4L65,50.4l-3,0.1H28.1c-0.8,0-1.5-0.7-1.5-1.5V1.5c0-0.8,0.7-1.5,1.5-1.5H87
			c0.8,0,1.5,0.7,1.5,1.5v47.4c0,0.8-0.7,1.5-1.5,1.5h-6.8v11.5C80.2,62.8,79.5,63.4,78.7,63.4z M65.6,47.3c0.4,0,0.8,0.2,1.1,0.4
			l10.5,10.5v-9.4c0-0.8,0.7-1.5,1.5-1.5h6.9V3H29.6v44.4H62L65.6,47.3L65.6,47.3z"/>
		<rect x="68.4" y="133.1" class="st0" width="91.6" height="3"/>
		<rect y="133.1" class="st0" width="24.1" height="3"/>
		<path class="st0" d="M46.3,102.2c-8.8,0-15.9-7.1-15.8-15.9c0-8.8,7.1-15.8,15.9-15.8c8.8,0,15.8,7.1,15.8,15.8
			C62.1,95.1,55,102.2,46.3,102.2z M46.3,73.5c-7.1,0-12.8,5.8-12.8,12.8c0,7.1,5.8,12.9,12.8,12.9s12.9-5.8,12.9-12.9l0,0
			C59.1,79.3,53.4,73.5,46.3,73.5z"/>
		<path class="st0" d="M69.9,158.5h-3v-28.1c0-7.1-5.8-12.8-12.8-12.8H38.4c-7.1,0-12.8,5.8-12.9,12.8v28.1h-3v-28.1
			c0-8.7,7.1-15.8,15.9-15.8h15.6c8.7,0,15.8,7.1,15.8,15.8V158.5z"/>
	</g>
</g>
</svg>
