<svg xmlns="http://www.w3.org/2000/svg" viewBox="0 0 360 360"><defs><style>.cls-1{fill:#ededed;}</style></defs><title>p-do-2</title><g id="Lager_2" data-name="Lager 2"><g id="Lager_1-2" data-name="Lager 1"><rect class="cls-1" width="360" height="360"/><path d="M175.24,213.13a27,27,0,0,0,26.45-21.27h3.58a10.38,10.38,0,0,0,10.4-10.33V166.67a1.8,1.8,0,0,0-1.8-1.8H202.28v-3a1.8,1.8,0,0,0-1.8-1.8H150a1.8,1.8,0,0,0-1.8,1.8V186.3A27,27,0,0,0,175.24,213.13Zm36.83-44.66v13.06a6.77,6.77,0,0,1-6.8,6.73H202.2c0-.65.08-1.3.08-2V168.47Zm-60.27-4.85h46.88V186.3a23.44,23.44,0,0,1-46.88,0Z"/><path d="M171.28,137.44a11,11,0,0,0,11-10.92h-3.6a7.36,7.36,0,0,1-7.39,7.31,11,11,0,0,0-11,10.92h3.6A7.36,7.36,0,0,1,171.28,137.44Z"/><path d="M175.64,152.65h3.6a7.36,7.36,0,0,1,7.39-7.31,11,11,0,0,0,11-10.92H194a7.36,7.36,0,0,1-7.39,7.31A11,11,0,0,0,175.64,152.65Z"/><path d="M219.67,211.07a8.07,8.07,0,0,1-8.06,8.06H138.86a8.07,8.07,0,0,1-8.06-8.06h-3.6a11.68,11.68,0,0,0,11.66,11.66h72.74a11.68,11.68,0,0,0,11.66-11.66Z"/><path d="M270.35,209.4H291.2a1.8,1.8,0,0,0,1.56-2.7l-5.19-9a10,10,0,1,0-13.6,0l-5.19,9a1.8,1.8,0,0,0,1.56,2.7Zm7.53-11.24a1.8,1.8,0,0,0-.58-2.41,6.44,6.44,0,1,1,7,0,1.8,1.8,0,0,0-.58,2.41l4.41,7.64H273.47Z"/><path d="M310.84,167.16H261.11V149.61a19.28,19.28,0,1,1,38.56,0V160h3.6V149.61a22.88,22.88,0,1,0-45.77,0v17.55H250.7a1.8,1.8,0,0,0-1.8,1.8v51.76a1.8,1.8,0,0,0,1.8,1.8h60.14a1.8,1.8,0,0,0,1.8-1.8V169A1.8,1.8,0,0,0,310.84,167.16ZM309,218.93H252.5V170.77H309Z"/><rect x="76.34" y="210.43" width="9.64" height="3.6"/><path d="M97.34,138H65a8.42,8.42,0,0,0-8.41,8.41v67.84A8.42,8.42,0,0,0,65,222.61H97.34a8.41,8.41,0,0,0,8.41-8.41V146.37A8.41,8.41,0,0,0,97.34,138ZM65,141.56H97.34a4.81,4.81,0,0,1,4.8,4.8v7.73h-42v-7.73A4.81,4.81,0,0,1,65,141.56Zm37.16,16.13v45h-42v-45ZM97.34,219H65a4.81,4.81,0,0,1-4.8-4.8v-7.94h42v7.94A4.81,4.81,0,0,1,97.34,219Z"/></g></g></svg>