<svg xmlns="http://www.w3.org/2000/svg" viewBox="0 0 360 360"><defs><style>.cls-1{fill:#ededed;}</style></defs><title>p-do-1</title><g id="Lager_2" data-name="Lager 2"><g id="Lager_1-2" data-name="Lager 1"><rect class="cls-1" width="360" height="360"/><path d="M127.17,199.84a4.42,4.42,0,0,1-1.07-.13,64,64,0,0,1-12.41-4.52,4.41,4.41,0,0,1-2.48-4l.18-12a52.15,52.15,0,0,1-5.55-4.66l-11.77,2.25a4.4,4.4,0,0,1-4.4-1.74A64.51,64.51,0,0,1,83,163.58a4.41,4.41,0,0,1,.69-4.69l7.83-9.06a51.77,51.77,0,0,1-1.26-7.15l-10.45-5.83a4.41,4.41,0,0,1-2.25-4.16,64.35,64.35,0,0,1,2.28-13,4.41,4.41,0,0,1,3.54-3.15l11.82-1.91a51.66,51.66,0,0,1,3.64-6.3L94.63,97.13a4.41,4.41,0,0,1,1-4.64A64.87,64.87,0,0,1,105.69,84a4.4,4.4,0,0,1,4.74-.14L120.72,90a51.65,51.65,0,0,1,6.82-2.48l3.93-11.32a4.41,4.41,0,0,1,3.72-2.94,65.55,65.55,0,0,1,13.19,0,4.41,4.41,0,0,1,3.72,2.94L156,87.51A51.51,51.51,0,0,1,162.87,90l10.29-6.14a4.41,4.41,0,0,1,4.74.14A64.72,64.72,0,0,1,188,92.49a4.41,4.41,0,0,1,1,4.64l-4.25,11.18a51.83,51.83,0,0,1,3.64,6.3l11.82,1.91a4.41,4.41,0,0,1,3.54,3.15,64.17,64.17,0,0,1,2.28,13,4.41,4.41,0,0,1-2.25,4.16l-12.51,7-4.3-7.7,10-5.58a55.66,55.66,0,0,0-1-5.78l-11.29-1.82a4.41,4.41,0,0,1-3.35-2.61,42.91,42.91,0,0,0-5.05-8.74,4.41,4.41,0,0,1-.59-4.21l4.07-10.69a56,56,0,0,0-4.49-3.78l-9.83,5.87a4.41,4.41,0,0,1-4.25.15,42.59,42.59,0,0,0-9.47-3.45,4.41,4.41,0,0,1-3.16-2.85l-3.76-10.82a57,57,0,0,0-5.86,0L135.1,92.63a4.41,4.41,0,0,1-3.16,2.85,42.72,42.72,0,0,0-9.48,3.45,4.41,4.41,0,0,1-4.25-.15l-9.83-5.87a56.29,56.29,0,0,0-4.49,3.78L108,107.37a4.41,4.41,0,0,1-.59,4.21,43,43,0,0,0-5.05,8.75A4.42,4.42,0,0,1,99,122.94l-11.29,1.82a55.69,55.69,0,0,0-1,5.78l10,5.58a4.41,4.41,0,0,1,2.25,3.6,43,43,0,0,0,1.75,9.94,4.41,4.41,0,0,1-.89,4.15l-7.48,8.66a55.62,55.62,0,0,0,2.94,5.08l11.25-2.15a4.41,4.41,0,0,1,4,1.31,43.19,43.19,0,0,0,7.72,6.49,4.41,4.41,0,0,1,2,3.75l-.17,11.47a55.23,55.23,0,0,0,5.5,2l7.24-8.89,6.84,5.57-9.06,11.13A4.41,4.41,0,0,1,127.17,199.84Z"/><path d="M141.79,156.8a19.52,19.52,0,1,1,19.52-19.52A19.55,19.55,0,0,1,141.79,156.8Zm0-30.23a10.7,10.7,0,1,0,10.7,10.7A10.71,10.71,0,0,0,141.79,126.58Z"/><path d="M230.87,280.24a4.41,4.41,0,0,1-3.42-1.63L219,268.21a54,54,0,0,1-8.36,0l-8.47,10.4a4.4,4.4,0,0,1-4.49,1.49,70,70,0,0,1-13.56-4.93,4.41,4.41,0,0,1-2.48-4l.2-13.41a56.81,56.81,0,0,1-6.4-5.38l-13.16,2.52a4.4,4.4,0,0,1-4.4-1.74,70.29,70.29,0,0,1-7.22-12.49,4.41,4.41,0,0,1,.69-4.69l8.75-10.13a56.31,56.31,0,0,1-1.45-8.25l-11.68-6.52a4.41,4.41,0,0,1-2.25-4.16,70.33,70.33,0,0,1,2.49-14.22,4.41,4.41,0,0,1,3.54-3.15l13.21-2.13a56.55,56.55,0,0,1,4.19-7.26l-4.76-12.5a4.41,4.41,0,0,1,1-4.64,70.72,70.72,0,0,1,11-9.29,4.4,4.4,0,0,1,4.74-.14l11.5,6.87a56.23,56.23,0,0,1,7.87-2.86l4.4-12.66a4.41,4.41,0,0,1,3.72-2.94A71.5,71.5,0,0,1,222,142a4.41,4.41,0,0,1,3.72,2.94l4.4,12.66a56.2,56.2,0,0,1,7.87,2.86l11.5-6.87a4.41,4.41,0,0,1,4.74.14,70.76,70.76,0,0,1,11,9.29,4.41,4.41,0,0,1,1,4.64l-4.76,12.5a56.55,56.55,0,0,1,4.19,7.26l13.21,2.13a4.41,4.41,0,0,1,3.54,3.15,70.31,70.31,0,0,1,2.49,14.22,4.41,4.41,0,0,1-2.25,4.16L271,217.57a56.49,56.49,0,0,1-1.45,8.25l8.75,10.13a4.41,4.41,0,0,1,.69,4.69,70.29,70.29,0,0,1-7.22,12.49,4.41,4.41,0,0,1-4.4,1.74l-13.16-2.52a56.9,56.9,0,0,1-6.4,5.38l.2,13.41a4.41,4.41,0,0,1-2.48,4,70,70,0,0,1-13.56,4.93A4.42,4.42,0,0,1,230.87,280.24Zm-40.39-11.84a61.37,61.37,0,0,0,6.64,2.42l8.14-10a4.4,4.4,0,0,1,3.93-1.6,46.05,46.05,0,0,0,11.19,0,4.41,4.41,0,0,1,3.93,1.6l8.14,10a61.15,61.15,0,0,0,6.64-2.42l-.19-12.9a4.41,4.41,0,0,1,2-3.75,47.86,47.86,0,0,0,8.56-7.2,4.4,4.4,0,0,1,4-1.31l12.65,2.42a61.58,61.58,0,0,0,3.54-6.13l-8.41-9.73a4.41,4.41,0,0,1-.89-4.15,47.57,47.57,0,0,0,1.94-11,4.41,4.41,0,0,1,2.25-3.61l11.24-6.27a61.46,61.46,0,0,0-1.22-7l-12.7-2a4.41,4.41,0,0,1-3.35-2.61,47.66,47.66,0,0,0-5.6-9.7,4.41,4.41,0,0,1-.59-4.21l4.57-12a62.09,62.09,0,0,0-5.41-4.56l-11.06,6.6a4.41,4.41,0,0,1-4.25.15,47.34,47.34,0,0,0-10.51-3.82,4.41,4.41,0,0,1-3.16-2.85l-4.23-12.17a62.54,62.54,0,0,0-7.08,0L207,162.7a4.41,4.41,0,0,1-3.16,2.85,47.36,47.36,0,0,0-10.51,3.82,4.41,4.41,0,0,1-4.25-.15l-11.06-6.6a62.18,62.18,0,0,0-5.41,4.56l4.57,12a4.41,4.41,0,0,1-.59,4.21,47.66,47.66,0,0,0-5.6,9.7,4.41,4.41,0,0,1-3.35,2.61l-12.7,2a61.31,61.31,0,0,0-1.22,7L165,211a4.41,4.41,0,0,1,2.25,3.61,47.48,47.48,0,0,0,1.94,11,4.41,4.41,0,0,1-.89,4.15l-8.41,9.73a61.77,61.77,0,0,0,3.54,6.13l12.65-2.42a4.4,4.4,0,0,1,4,1.31,47.89,47.89,0,0,0,8.57,7.2,4.41,4.41,0,0,1,2,3.75Z"/><path d="M214.8,232.94a21,21,0,1,1,21-21A21,21,0,0,1,214.8,232.94Zm0-33.22a12.2,12.2,0,1,0,12.2,12.2A12.21,12.21,0,0,0,214.8,199.72Z"/><path d="M214.8,251.59a39.72,39.72,0,0,1-39.67-39.67h8.82a30.89,30.89,0,0,0,30.85,30.85Z"/></g></g></svg>