<svg xmlns="http://www.w3.org/2000/svg" viewBox="0 0 360 360"><defs><style>.cls-1{fill:#ededed;}.cls-2{fill:#ef3529;}</style></defs><title>p-dont-2</title><g id="Lager_2" data-name="Lager 2"><g id="Lager_1-2" data-name="Lager 1"><rect class="cls-1" width="360" height="360"/><path d="M148.21,203.66a16.61,16.61,0,0,0,16.25-13.07h2.2a6.38,6.38,0,0,0,6.39-6.35v-9.13a1.11,1.11,0,0,0-1.11-1.11h-7.12v-1.87a1.11,1.11,0,0,0-1.11-1.11h-31a1.11,1.11,0,0,0-1.11,1.11v15A16.57,16.57,0,0,0,148.21,203.66Zm22.63-27.44v8a4.16,4.16,0,0,1-4.18,4.13h-1.89c0-.4,0-.8,0-1.21v-11Zm-37-3h28.8v13.93a14.4,14.4,0,0,1-28.8,0Z"/><path d="M145.78,157.15a6.74,6.74,0,0,0,6.75-6.71h-2.21a4.52,4.52,0,0,1-4.54,4.49,6.74,6.74,0,0,0-6.75,6.71h2.21A4.52,4.52,0,0,1,145.78,157.15Z"/><path d="M148.46,166.49h2.21a4.52,4.52,0,0,1,4.54-4.49A6.74,6.74,0,0,0,162,155.3h-2.21a4.52,4.52,0,0,1-4.54,4.49A6.74,6.74,0,0,0,148.46,166.49Z"/><path d="M175.51,202.39a5,5,0,0,1-5,5H125.87a5,5,0,0,1-5-5H118.7a7.17,7.17,0,0,0,7.17,7.17h44.69a7.17,7.17,0,0,0,7.17-7.17Z"/><path d="M245.25,229.8h38a3.28,3.28,0,0,0,2.84-4.92l-9.44-16.35a18.28,18.28,0,1,0-24.75,0l-9.44,16.35a3.28,3.28,0,0,0,2.84,4.92ZM259,209.34a3.28,3.28,0,0,0-1.06-4.4,11.73,11.73,0,1,1,12.66,0,3.28,3.28,0,0,0-1.06,4.4l8,13.91H250.93Z"/><path d="M319,152.91H228.44V121a35.1,35.1,0,1,1,70.2,0V139.8h6.56V121a41.66,41.66,0,1,0-83.32,0v32h-12.4a3.28,3.28,0,0,0-3.28,3.28v94.22a3.28,3.28,0,0,0,3.28,3.28H319a3.28,3.28,0,0,0,3.28-3.28V156.19A3.28,3.28,0,0,0,319,152.91Zm-3.28,94.23H212.77V159.47H315.69Z"/><rect x="65.08" y="210.15" width="9.64" height="3.6"/><path d="M86.08,137.67H53.72a8.42,8.42,0,0,0-8.41,8.41v67.84a8.42,8.42,0,0,0,8.41,8.41H86.08a8.41,8.41,0,0,0,8.41-8.41V146.08A8.41,8.41,0,0,0,86.08,137.67Zm-32.36,3.6H86.08a4.81,4.81,0,0,1,4.8,4.8v7.73h-42v-7.73A4.81,4.81,0,0,1,53.72,141.28Zm37.16,16.13v45h-42v-45Zm-4.8,61.31H53.72a4.81,4.81,0,0,1-4.8-4.8V206h42v7.94A4.81,4.81,0,0,1,86.08,218.72Z"/><rect class="cls-2" x="-73.14" y="179.5" width="506.29" height="1" transform="translate(-74.56 180) rotate(-45)"/><rect class="cls-2" x="179.5" y="-73.14" width="1" height="506.29" transform="translate(-74.56 180) rotate(-45)"/></g></g></svg>