<svg xmlns="http://www.w3.org/2000/svg" viewBox="0 0 298 298"><defs><style>.cls-1{fill:#41b0ee;}.cls-2{fill:#fff;}</style></defs><title>pictogram-meaning</title><g id="Lager_2" data-name="Lager 2"><g id="Lager_1-2" data-name="Lager 1"><rect class="cls-1" width="298" height="298"/><path class="cls-2" d="M101.07,233.71l-1.49-.27c-1-.18-1.72-.59-1.72-1.52s.78-1.62,1.94-1.62a2.63,2.63,0,0,1,2.4,1.5l1.6-.65a4.29,4.29,0,0,0-4-2.37c-2.17,0-3.71,1.28-3.71,3.05V232c0,2,1.63,2.68,3.1,2.95l1.49.27c.76.13,1.58.54,1.58,1.55s-1,1.74-2.22,1.74a2.67,2.67,0,0,1-2.55-1.64l-1.6.63A4.31,4.31,0,0,0,100,240c2.28,0,4-1.35,4-3.35v-.1C104,234.67,102.49,234,101.07,233.71Z"/><path class="cls-2" d="M108.48,231.83c-2,0-3.62,1.46-3.62,4V236c0,2.59,1.68,4,3.7,4a3.52,3.52,0,0,0,3.36-2.17l-1.54-.28a1.88,1.88,0,0,1-1.77,1.06,2.15,2.15,0,0,1-2.15-2.34h5.64v-.43C112.1,233.3,110.47,231.83,108.48,231.83Zm-2,3.43a2,2,0,0,1,2-2.13,2.05,2.05,0,0,1,2,2.13Z"/><path class="cls-2" d="M116.55,233.31a1.84,1.84,0,0,1,1.72,1.36l1.51-.28a3.29,3.29,0,0,0-3.23-2.47c-1.91,0-3.54,1.42-3.54,4V236c0,2.56,1.63,4,3.54,4a3.29,3.29,0,0,0,3.23-2.47l-1.51-.28a1.84,1.84,0,0,1-1.72,1.36c-1,0-1.91-.88-1.91-2.6v-.08C114.64,234.21,115.53,233.31,116.55,233.31Z"/><path class="cls-2" d="M125.52,236.61a1.74,1.74,0,0,1-1.65,2c-.92,0-1.5-.67-1.5-1.84v-4.67h-1.63v5.06a2.61,2.61,0,0,0,2.7,2.86,2.49,2.49,0,0,0,2.2-1.16v1h1.51v-7.76h-1.63Z"/><path class="cls-2" d="M130.47,233.57v-1.5H129v7.76h1.63v-3.33a2.59,2.59,0,0,1,2.71-2.87V232A3.05,3.05,0,0,0,130.47,233.57Z"/><path class="cls-2" d="M137.57,231.83c-2,0-3.62,1.46-3.62,4V236c0,2.59,1.68,4,3.7,4a3.52,3.52,0,0,0,3.36-2.17l-1.54-.28a1.88,1.88,0,0,1-1.77,1.06,2.15,2.15,0,0,1-2.15-2.34h5.64v-.43C141.19,233.3,139.56,231.83,137.57,231.83Zm-2,3.43a2,2,0,0,1,2-2.13,2.05,2.05,0,0,1,2,2.13Z"/><path class="cls-2" d="M149.38,231.91a2.62,2.62,0,0,0-2.33,1.19v-1h-1.51v10.86h1.63v-4.11a2.58,2.58,0,0,0,2.24,1.16c1.69,0,3.27-1.25,3.27-3.8v-.47C152.68,233.17,151.1,231.91,149.38,231.91ZM151,236c0,1.71-.87,2.6-2,2.6s-2-.89-2-2.6v-.08c0-1.69.85-2.6,2-2.6s2,.9,2,2.6Z"/><path class="cls-2" d="M157.15,231.91a3.26,3.26,0,0,0-3.28,2.15l1.5.29a1.71,1.71,0,0,1,1.69-1.14,1.46,1.46,0,0,1,1.58,1.64v.39h-2.06c-2,0-2.95,1.15-2.95,2.43v.1a2.28,2.28,0,0,0,2.56,2.21,3.08,3.08,0,0,0,2.5-1.16v1h1.51v-5A2.72,2.72,0,0,0,157.15,231.91Zm1.49,4.8a1.9,1.9,0,0,1-2,2c-.84,0-1.38-.45-1.38-1.19s.49-1.2,1.51-1.2h1.86Z"/><path class="cls-2" d="M165.39,236.28c-.14.46-.28,1-.44,1.68a16.6,16.6,0,0,0-.58-1.64l-1.62-4.25h-1.81l3.19,7.67-.29.76c-.27.79-.62,1-1.23,1H162v1.4h.84a2.44,2.44,0,0,0,2.48-1.85l3.12-9h-1.68Z"/><path class="cls-2" d="M177.5,231.91a2.52,2.52,0,0,0-2.22,1.23,2.18,2.18,0,0,0-2.07-1.23,2.55,2.55,0,0,0-2.2,1.16v-1H169.5v7.76h1.63v-4.58c0-1.12.58-1.94,1.54-1.94s1.36.67,1.36,1.8v4.72h1.63v-4.58c0-1.12.57-1.94,1.53-1.94s1.37.67,1.37,1.8v4.72h1.63v-5.06A2.6,2.6,0,0,0,177.5,231.91Z"/><path class="cls-2" d="M185,231.83c-2,0-3.62,1.46-3.62,4V236c0,2.59,1.68,4,3.7,4a3.52,3.52,0,0,0,3.36-2.17l-1.54-.28a1.88,1.88,0,0,1-1.77,1.06,2.15,2.15,0,0,1-2.15-2.34h5.64v-.43C188.65,233.3,187,231.83,185,231.83Zm-2,3.43a2,2,0,0,1,2-2.13,2.05,2.05,0,0,1,2,2.13Z"/><path class="cls-2" d="M193.66,231.91a2.48,2.48,0,0,0-2.2,1.16v-1h-1.51v7.76h1.63v-4.54a1.75,1.75,0,0,1,1.65-2c.92,0,1.5.67,1.5,1.85v4.67h1.63v-5.06A2.61,2.61,0,0,0,193.66,231.91Z"/><path class="cls-2" d="M200,229.74h-1.51v2.33h-1.22v1.4h1.16v4.21a2,2,0,0,0,2.17,2.15h1.47v-1.4h-1c-.61,0-1-.3-1-1v-3.92h2v-1.4H200Z"/><path class="cls-2" d="M131.64,192.78h34.73a3,3,0,0,0,2.6-4.5l-8.64-15a16.73,16.73,0,1,0-22.65,0l-8.64,15a3,3,0,0,0,2.6,4.5Zm12.54-18.72a3,3,0,0,0-1-4,10.73,10.73,0,1,1,11.59,0,3,3,0,0,0-1,4l7.35,12.72H136.83Z"/><path class="cls-2" d="M199.09,122.43h-12.6V93.19a38.12,38.12,0,1,0-76.23,0v29.24H98.91a3,3,0,0,0-3,3v86.21a3,3,0,0,0,3,3H199.09a3,3,0,0,0,3-3V125.43A3,3,0,0,0,199.09,122.43ZM116.26,93.19a32.12,32.12,0,1,1,64.23,0v29.24H116.26Zm79.83,115.45H101.91V128.43h94.18Z"/></g></g></svg>