<svg xmlns="http://www.w3.org/2000/svg" viewBox="0 0 618 358"><defs><style>.cls-1{fill:#41b0ee;}.cls-2{fill:#fff;}</style></defs><title>picto-bg</title><g id="Lager_2" data-name="Lager 2"><g id="Lager_2-2" data-name="Lager 2"><rect class="cls-1" width="618" height="358" transform="translate(618 358) rotate(-180)"/><path class="cls-2" d="M33.65,233.76a11.38,11.38,0,1,0-11.37-11.38A11.39,11.39,0,0,0,33.65,233.76Zm0-18.9a7.53,7.53,0,1,1-7.53,7.53A7.54,7.54,0,0,1,33.65,214.85Z"/><path class="cls-2" d="M91,217.44A11.38,11.38,0,1,0,79.6,206.06,11.39,11.39,0,0,0,91,217.44Zm0-18.9a7.53,7.53,0,1,1-7.53,7.53A7.54,7.54,0,0,1,91,198.53Z"/><path class="cls-2" d="M113.6,252.19h-6.1V235.1a11.39,11.39,0,0,0-11.38-11.38H85.82A11.39,11.39,0,0,0,74.45,235.1v17.09H50.18v-.77A11.39,11.39,0,0,0,38.81,240H28.5a11.39,11.39,0,0,0-11.38,11.38v.77H0V256H17.13v41H21V251.42a7.54,7.54,0,0,1,7.53-7.53h10.3a7.54,7.54,0,0,1,7.53,7.53v45.64h3.85V256H113.6ZM78.29,235.1a7.54,7.54,0,0,1,7.53-7.53h10.3a7.54,7.54,0,0,1,7.53,7.53v17.09H78.29Z"/></g></g></svg>