<?xml version="1.0" encoding="utf-8"?>
<!-- Generator: Adobe Illustrator 21.0.2, SVG Export Plug-In . SVG Version: 6.00 Build 0)  -->
<svg version="1.1" id="Lager_1" xmlns="http://www.w3.org/2000/svg" xmlns:xlink="http://www.w3.org/1999/xlink" x="0px" y="0px"
	 viewBox="0 0 602.4 158.8" style="enable-background:new 0 0 602.4 158.8;" xml:space="preserve">
<style type="text/css">
	.st0{fill:#673AB6;}
</style>
<title>three-icons</title>
<g id="Lager_2">
	<g id="Lager_1-2">
		<path class="st0" d="M78.5,142.8c-23.9,0-43.4-19.3-43.5-43.2V58.8c0-0.8,0.7-1.5,1.5-1.5h84.1c0.8,0,1.5,0.7,1.5,1.5v40.8
			C122,123.5,102.5,142.8,78.5,142.8z M38,60.3v39.3c0.4,22.4,18.8,40.3,41.2,39.9c21.9-0.3,39.6-18,39.9-39.9V60.3H38z"/>
		<path class="st0" d="M58.1,30.4h-3c0-9.2,7.6-16.7,16.8-16.7c7.6,0,13.8-6.1,13.8-13.7h3c0,9.2-7.6,16.7-16.8,16.7
			C64.3,16.7,58.2,22.8,58.1,30.4z"/>
		<path class="st0" d="M83.7,43.5h-3c0-9.2,7.6-16.7,16.8-16.7c7.6,0,13.8-6.1,13.8-13.7h3c0,9.2-7.6,16.7-16.8,16.7
			C89.9,29.8,83.7,35.9,83.7,43.5z"/>
		<path class="st0" d="M128.5,107.3h-7.4v-3h7.4c7,0,12.8-5.7,12.8-12.7V68.4h-19.6v-3h21.1c0.8,0,1.5,0.7,1.5,1.5v24.8
			C144.3,100.3,137.2,107.4,128.5,107.3z"/>
		<path class="st0" d="M139.1,158.8H17.9c-9.9,0-17.9-8-17.9-17.9h3c0,8.2,6.7,14.9,14.9,14.9h121.2c8.2,0,14.9-6.7,14.9-14.9h3
			C157,150.7,149,158.7,139.1,158.8z"/>
		<path class="st0" d="M555.8,83.4l-2.1-2.1l7.2-7.2c0.5-0.4,1.1-0.6,1.7-0.3c12.7,6.2,28.1,0.8,34.2-11.9
			c2.6-5.4,3.2-11.5,1.8-17.3l-15.5,15.5c-0.6,0.6-1.5,0.6-2.1,0l-16.6-16.6c-0.6-0.6-0.6-1.5,0-2.1l15.5-15.5
			c-8.7-2.1-17.9,0.5-24.3,6.8c-7.5,7.4-9.6,18.7-5.4,28.3c0.2,0.6,0.1,1.2-0.3,1.7l-15.2,15.2l-2.1-2.1l14.5-14.5
			c-4.2-10.6-1.7-22.7,6.4-30.7c7.8-7.7,19.3-10.4,29.7-6.8c0.8,0.3,1.2,1.1,0.9,1.9c-0.1,0.2-0.2,0.4-0.4,0.6l-16.2,16.2l14.5,14.5
			l16.2-16.2c0.6-0.6,1.5-0.6,2.1,0c0.2,0.2,0.3,0.4,0.4,0.6c5.2,14.9-2.6,31.3-17.6,36.5c-6.8,2.4-14.3,2.1-21-0.8L555.8,83.4z"/>
		<path class="st0" d="M476,158.8c-6,0-10.9-4.9-10.9-10.9c0-2.9,1.1-5.7,3.2-7.7L519.3,89l2.1,2.1l-51.1,51.1
			c-3,3.2-2.9,8.2,0.3,11.2c3.1,2.9,7.8,2.9,10.9,0l43.8-43.8l2.1,2.1l-43.8,43.8C481.6,157.6,478.9,158.7,476,158.8z"/>
		<path class="st0" d="M591.1,158.1c-2.9,0-5.7-1.1-7.7-3.2l-48.5-48.5c-0.6-0.6-0.6-1.5,0-2.1L548.2,91c0.6-0.6,1.5-0.6,2.1,0
			l48.5,48.5c4.3,4.3,4.3,11.2,0,15.4C596.8,157,594,158.2,591.1,158.1L591.1,158.1z M538.1,105.4l47.5,47.4c3.2,3,8.2,2.9,11.2-0.3
			c2.9-3.1,2.9-7.8,0-10.9l-47.5-47.4L538.1,105.4z"/>
		<path class="st0" d="M495.3,52.9h-0.1l-14.4-1.1c-0.4,0-0.7-0.2-1-0.4L466,37.5c-0.6-0.6-0.6-1.5,0-2.1L479.3,22
			c0.6-0.6,1.5-0.6,2.1,0l13.9,13.9c0.3,0.3,0.4,0.6,0.4,1l1.1,14.4c0.1,0.8-0.6,1.5-1.4,1.6C495.4,52.9,495.3,52.9,495.3,52.9
			L495.3,52.9z M481.5,48.9l12.1,0.9l-0.9-12.1l-12.4-12.4l-11.2,11.2L481.5,48.9z"/>
		
			<rect x="517.5" y="41.6" transform="matrix(0.7071 -0.7071 0.7071 0.7071 98.9252 388.9373)" class="st0" width="3" height="66.9"/>
		<path class="st0" d="M356.4,77.7c-8.8,0-15.9-7.1-15.9-15.9S347.6,46,356.4,46c8.8,0,15.9,7.1,15.9,15.9
			C372.2,70.6,365.1,77.7,356.4,77.7z M356.4,49c-7.1,0-12.9,5.8-12.9,12.9s5.8,12.8,12.9,12.8s12.9-5.8,12.9-12.8
			C369.2,54.8,363.4,49,356.4,49z"/>
		<path class="st0" d="M380,135.1h-3v-29.1c0-7.1-5.8-12.8-12.9-12.8h-15.6c-7.1,0-12.8,5.8-12.9,12.8v29.2h-3v-29.2
			c0-8.7,7.1-15.8,15.9-15.8h15.6c8.7,0,15.8,7.1,15.8,15.8V135.1z"/>
		<path class="st0" d="M309.7,63.7c-0.4,0-0.8-0.2-1.1-0.4L296,50.6l-3,0.1h-33.9c-0.8,0-1.5-0.7-1.5-1.5V1.7c0-0.8,0.7-1.5,1.5-1.5
			H318c0.8,0,1.5,0.7,1.5,1.5v47.4c0,0.8-0.7,1.5-1.5,1.5h-6.9v11.5C311.2,63,310.5,63.7,309.7,63.7L309.7,63.7z M296.6,47.6
			c0.4,0,0.8,0.2,1.1,0.4l10.5,10.5v-9.4c0-0.8,0.7-1.5,1.5-1.5h6.9V3.2h-55.9v44.4H293L296.6,47.6L296.6,47.6z"/>
		<rect x="299.4" y="133.3" class="st0" width="91.6" height="3"/>
		<rect x="231" y="133.3" class="st0" width="24.1" height="3"/>
		<path class="st0" d="M277.3,102.5c-8.8,0-15.9-7.1-15.9-15.9s7.1-15.8,15.9-15.8c8.8,0,15.9,7.1,15.9,15.9
			C293.1,95.4,286,102.4,277.3,102.5z M277.3,73.8c-7.1,0-12.9,5.8-12.9,12.9s5.8,12.8,12.9,12.8c7.1,0,12.9-5.8,12.9-12.9
			C290.1,79.5,284.4,73.8,277.3,73.8z"/>
		<path class="st0" d="M300.9,158.8h-3v-28.1c0-7.1-5.8-12.8-12.9-12.8h-15.6c-7.1,0-12.8,5.8-12.9,12.8v28.1h-3v-28.1
			c0-8.7,7.1-15.8,15.9-15.8h15.6c8.7,0,15.8,7.1,15.9,15.8L300.9,158.8z"/>
	</g>
</g>
</svg>
