<svg id="Layer_1" data-name="Layer 1" xmlns="http://www.w3.org/2000/svg" viewBox="0 0 207.3 102.7"><title>dif_dsiaply_maison_relationship</title><path d="M10.33,13.51H26.78A4.62,4.62,0,0,1,30,14.81L33.13,18a4.77,4.77,0,0,1,1.35,3.2V33.41a4.77,4.77,0,0,1-1.35,3.2L30,39.76a4.62,4.62,0,0,1-3.25,1.3h-11V52.41h-5.5Zm18.65,8-2.6-2.65H15.83v17H26.38L29,33.11Z" transform="translate(-10.33 -5.26)"/><path d="M41.58,13.51H58a4.62,4.62,0,0,1,3.25,1.3L64.38,18a4.77,4.77,0,0,1,1.35,3.2V33.41a4.77,4.77,0,0,1-1.35,3.2l-3.1,3.15a4.48,4.48,0,0,1-2,1.15l6.45,8.15v3.35h-4.3L52.58,41.06h-5.5V52.41h-5.5Zm18.65,8-2.6-2.65H47.08v17H57.63l2.6-2.65Z" transform="translate(-10.33 -5.26)"/><path d="M73.48,13.51H95.73v5.3H79V30.16H91.83v5.3H79V47.11H95.73v5.3H73.48Z" transform="translate(-10.33 -5.26)"/><path d="M103.93,13.51h5.7L118,35h.8l8.4-21.5h5.7v38.9h-5.5V30.76l.2-4.6-4.8,12.05a2.56,2.56,0,0,1-2.6,2.1h-3.6a2.56,2.56,0,0,1-2.6-2.1l-4.8-12.05.2,4.6V52.41h-5.5Z" transform="translate(-10.33 -5.26)"/><path d="M140.93,13.51h13.7v5.1h-4.1v28.7h4.1v5.1h-13.7v-5.1H145V18.61h-4.1Z" transform="translate(-10.33 -5.26)"/><path d="M167.33,41.31l-2.7,11.1h-4.7v-3.9l8-32.9a2.49,2.49,0,0,1,2.6-2.1h6.35a2.49,2.49,0,0,1,2.6,2.1l8,32.9v3.9h-4.7l-2.7-11.1ZM166,5.26h5.45v5.45H166Zm6.7,13.55-4,17.2h10.05l-4-17.2ZM176,5.26h5.45v5.45H176Z" transform="translate(-10.33 -5.26)"/><path d="M193.48,13.51h16.45a4.62,4.62,0,0,1,3.25,1.3l3.1,3.15a4.77,4.77,0,0,1,1.35,3.2V33.41a4.77,4.77,0,0,1-1.35,3.2l-3.1,3.15a4.48,4.48,0,0,1-2,1.15l6.45,8.15v3.35h-4.3l-8.85-11.35H199V52.41h-5.5Zm18.65,8-2.6-2.65H199v17h10.55l2.6-2.65Z" transform="translate(-10.33 -5.26)"/><path d="M10.33,79.21v-7h2.34a3,3,0,0,1,1.13.21,3,3,0,0,1,1,.62,2.86,2.86,0,0,1,.69,1.09,4.47,4.47,0,0,1,.25,1.57,4.86,4.86,0,0,1-.26,1.67,2.57,2.57,0,0,1-.71,1.09,3,3,0,0,1-1,.56,3.51,3.51,0,0,1-1.15.18ZM11.68,78h.93a2.11,2.11,0,0,0,.63-.08,1.31,1.31,0,0,0,.51-.32,1.5,1.5,0,0,0,.37-.7,4.39,4.39,0,0,0,.13-1.16A2.69,2.69,0,0,0,13.81,74a1.4,1.4,0,0,0-1.15-.54h-1Z" transform="translate(-10.33 -5.26)"/><path d="M16.1,81.16V79.81h.24q.38,0,.38-.44V73.91H18v5.82q0,1.43-1.37,1.43Zm.62-8V71.91H18v1.23Z" transform="translate(-10.33 -5.26)"/><path d="M19.32,77.33V73.91h1.3v3.28a1,1,0,0,0,.19.71.78.78,0,0,0,.61.21,1.13,1.13,0,0,0,.76-.25,1,1,0,0,0,.29-.77V73.91h1.3v5.3H22.53V78.7h0a1.62,1.62,0,0,1-1.38.66,1.65,1.65,0,0,1-1.36-.55A2.28,2.28,0,0,1,19.32,77.33Z" transform="translate(-10.33 -5.26)"/><path d="M25.12,79.21v-5.3h1.23v.56h0a1.16,1.16,0,0,1,.44-.48,1.22,1.22,0,0,1,.65-.18,1.18,1.18,0,0,1,.48.1l-.2,1.26a1.19,1.19,0,0,0-.41-.08q-.91,0-.91,1.21v2.91Z" transform="translate(-10.33 -5.26)"/><path d="M28.57,80.29l1-.67a1.76,1.76,0,0,0,.52.65,1.27,1.27,0,0,0,.75.21,1.2,1.2,0,0,0,.81-.26,1.06,1.06,0,0,0,.3-.84V78.7h0a1.22,1.22,0,0,1-.52.46,1.69,1.69,0,0,1-.8.19,2.24,2.24,0,0,1-1.71-.75,2.9,2.9,0,0,1-.69-2.05,2.86,2.86,0,0,1,.71-2,2.22,2.22,0,0,1,1.67-.75,1.64,1.64,0,0,1,1.4.66h0v-.51h1.24v5.3A2.29,2.29,0,0,1,32.55,81a2.47,2.47,0,0,1-1.74.62,2.6,2.6,0,0,1-1.41-.36A2.1,2.1,0,0,1,28.57,80.29Zm3.36-3.19V76a1.05,1.05,0,0,0-.31-.76,1.11,1.11,0,0,0-.83-.32,1.18,1.18,0,0,0-.94.42,1.81,1.81,0,0,0-.36,1.21,1.79,1.79,0,0,0,.37,1.21,1.18,1.18,0,0,0,.94.42,1.11,1.11,0,0,0,.83-.31A1.06,1.06,0,0,0,31.93,77.1Z" transform="translate(-10.33 -5.26)"/><path d="M37.55,79.21V78.7h0l-.05.07-.15.16a1.71,1.71,0,0,1-.27.2,1.67,1.67,0,0,1-.41.16,2.18,2.18,0,0,1-.56.07,2,2,0,0,1-1.43-.46,1.48,1.48,0,0,1-.48-1.11,1.32,1.32,0,0,1,.41-1.05,3.38,3.38,0,0,1,1.39-.6,5.83,5.83,0,0,0,1.14-.35.41.41,0,0,0,.23-.37.48.48,0,0,0-.23-.4,1.17,1.17,0,0,0-.67-.16,1,1,0,0,0-.76.24,1.59,1.59,0,0,0-.36.63l-1.08-.45a2,2,0,0,1,.56-1,2.06,2.06,0,0,1,1.08-.52,1,1,0,0,1-.43-.9,1.07,1.07,0,0,1,.3-.77,1,1,0,0,1,.74-.31,1,1,0,0,1,.75.31,1.08,1.08,0,0,1,.29.77,1,1,0,0,1-.47.92,2,2,0,0,1,1.13.65,2.07,2.07,0,0,1,.42,1.37v3.36ZM36.24,77a1.39,1.39,0,0,0-.66.29.53.53,0,0,0-.15.38q0,.54.78.54a1.45,1.45,0,0,0,.89-.22.68.68,0,0,0,.29-.55v-.92h0a.51.51,0,0,1-.08.13,1.29,1.29,0,0,1-.31.15A5.86,5.86,0,0,1,36.24,77Zm0-3.77a.37.37,0,0,0,.28.14.4.4,0,0,0,.29-.14.52.52,0,0,0,.13-.37.49.49,0,0,0-.12-.36.4.4,0,0,0-.29-.12.37.37,0,0,0-.28.13.5.5,0,0,0-.12.36A.54.54,0,0,0,36.23,73.28Z" transform="translate(-10.33 -5.26)"/><path d="M39.89,79.21v-5.3h1.23v.56h0a1.16,1.16,0,0,1,.44-.48,1.22,1.22,0,0,1,.65-.18,1.18,1.18,0,0,1,.48.1l-.2,1.26a1.19,1.19,0,0,0-.41-.08q-.91,0-.91,1.21v2.91Z" transform="translate(-10.33 -5.26)"/><path d="M46.88,79.21V78.7h0l-.15.18a1.69,1.69,0,0,1-.46.29,1.74,1.74,0,0,1-.79.18,2.06,2.06,0,0,1-1.67-.76,3.11,3.11,0,0,1-.62-2,2.94,2.94,0,0,1,.68-2,2.09,2.09,0,0,1,1.6-.75,1.68,1.68,0,0,1,.75.17,1.28,1.28,0,0,1,.46.33l.13.17h0V71.91h1.3v7.3ZM46.8,77v-1a1.15,1.15,0,0,0-.31-.81,1.08,1.08,0,0,0-.83-.33,1.05,1.05,0,0,0-.89.41,2.51,2.51,0,0,0,0,2.43,1,1,0,0,0,.89.42,1.07,1.07,0,0,0,.83-.33A1.17,1.17,0,0,0,46.8,77Z" transform="translate(-10.33 -5.26)"/><path d="M52.89,77.38l.91.8a2.53,2.53,0,0,1-2.19,1.18,2.34,2.34,0,0,1-1.81-.76,3.32,3.32,0,0,1,0-4.07,2.27,2.27,0,0,1,1.75-.76,2.24,2.24,0,0,1,1.75.76,2.94,2.94,0,0,1,.69,2V77H50.42a1.42,1.42,0,0,0,.33.93,1.09,1.09,0,0,0,.83.33,1.19,1.19,0,0,0,.75-.23A2.58,2.58,0,0,0,52.89,77.38ZM50.42,76h2.3a1.22,1.22,0,0,0-.35-.79,1.15,1.15,0,0,0-.82-.29,1.05,1.05,0,0,0-.78.31A1.21,1.21,0,0,0,50.42,76Z" transform="translate(-10.33 -5.26)"/><path d="M55,79.21v-5.3h1.25v.51h0a1.72,1.72,0,0,1,.6-.47,1.76,1.76,0,0,1,.8-.19,1.81,1.81,0,0,1,1.38.53,2,2,0,0,1,.5,1.45v3.47h-1.3V76.06a1.35,1.35,0,0,0-.21-.83A.85.85,0,0,0,57.3,75a.94.94,0,0,0-1,1v3.24Z" transform="translate(-10.33 -5.26)"/><path d="M65.16,79.21l-2.53-7H64l1.73,5h0l1.68-5h1.4l-2.5,7Z" transform="translate(-10.33 -5.26)"/><path d="M68.89,77.46l1.17-.3a1.1,1.1,0,0,0,1.19,1.11,1.6,1.6,0,0,0,.76-.16.48.48,0,0,0,.29-.43.37.37,0,0,0-.22-.34,5.92,5.92,0,0,0-.92-.32l-.29-.08a3.76,3.76,0,0,1-1.35-.61,1.16,1.16,0,0,1-.43-.95,1.48,1.48,0,0,1,.54-1.14,2.12,2.12,0,0,1,1.46-.48,2.07,2.07,0,0,1,2.23,1.56l-1.08.33a1.42,1.42,0,0,0-.4-.6A1.36,1.36,0,0,0,70.49,75a.41.41,0,0,0-.22.34.38.38,0,0,0,.26.35,11.8,11.8,0,0,0,1.33.42,2.57,2.57,0,0,1,1.27.63,1.45,1.45,0,0,1,.33,1,1.51,1.51,0,0,1-.56,1.14,2.3,2.3,0,0,1-1.6.5,2.39,2.39,0,0,1-1.69-.55A2.26,2.26,0,0,1,68.89,77.46Z" transform="translate(-10.33 -5.26)"/><path d="M76.51,76.87l1.42-.31a2.55,2.55,0,0,0,.42,1.19,1.17,1.17,0,0,0,1,.36,1.75,1.75,0,0,0,.91-.21.66.66,0,0,0,.34-.6.74.74,0,0,0-.33-.65,6.66,6.66,0,0,0-1.48-.58,3.57,3.57,0,0,1-1.54-.82,1.68,1.68,0,0,1-.46-1.2,1.84,1.84,0,0,1,.63-1.41,2.45,2.45,0,0,1,1.73-.58,3,3,0,0,1,1.71.48,2.11,2.11,0,0,1,.9,1.43l-1.31.33a1.26,1.26,0,0,0-1.29-1,1.24,1.24,0,0,0-.77.2.64.64,0,0,0-.25.53.52.52,0,0,0,.29.47,11.7,11.7,0,0,0,1.49.58,4,4,0,0,1,1.59.87,1.78,1.78,0,0,1,.43,1.25,2,2,0,0,1-.7,1.54,2.75,2.75,0,0,1-1.87.61,2.87,2.87,0,0,1-1.93-.62A2.77,2.77,0,0,1,76.51,76.87Z" transform="translate(-10.33 -5.26)"/><path d="M82.79,73.14V71.91h1.3v1.23Zm0,6.07v-5.3h1.3v5.3Z" transform="translate(-10.33 -5.26)"/><path d="M85.44,79.21v-5.3h1.23v.56h0a1.16,1.16,0,0,1,.44-.48,1.22,1.22,0,0,1,.65-.18,1.18,1.18,0,0,1,.48.1l-.2,1.26a1.19,1.19,0,0,0-.41-.08q-.91,0-.91,1.21v2.91Z" transform="translate(-10.33 -5.26)"/><path d="M89.06,73.14V71.91h1.3v1.23Zm0,6.07v-5.3h1.3v5.3Z" transform="translate(-10.33 -5.26)"/><path d="M91.66,77.33V73.91H93v3.28a1,1,0,0,0,.19.71.78.78,0,0,0,.61.21,1.13,1.13,0,0,0,.76-.25,1,1,0,0,0,.29-.77V73.91h1.3v5.3H94.87V78.7h0a1.62,1.62,0,0,1-1.38.66,1.65,1.65,0,0,1-1.36-.55A2.28,2.28,0,0,1,91.66,77.33Z" transform="translate(-10.33 -5.26)"/><path d="M97.06,77.46l1.17-.3a1.1,1.1,0,0,0,1.19,1.11,1.6,1.6,0,0,0,.76-.16.48.48,0,0,0,.29-.43.37.37,0,0,0-.22-.34,5.92,5.92,0,0,0-.92-.32L99,76.94a3.76,3.76,0,0,1-1.35-.61,1.16,1.16,0,0,1-.43-.95,1.48,1.48,0,0,1,.54-1.14,2.12,2.12,0,0,1,1.46-.48,2.07,2.07,0,0,1,2.23,1.56l-1.08.33a1.42,1.42,0,0,0-.4-.6A1.36,1.36,0,0,0,98.66,75a.41.41,0,0,0-.22.34.38.38,0,0,0,.26.35,11.8,11.8,0,0,0,1.33.42,2.57,2.57,0,0,1,1.27.63,1.45,1.45,0,0,1,.33,1,1.51,1.51,0,0,1-.56,1.14,2.3,2.3,0,0,1-1.6.5,2.39,2.39,0,0,1-1.69-.55A2.26,2.26,0,0,1,97.06,77.46Z" transform="translate(-10.33 -5.26)"/><path d="M10.48,92.61v-7h1.17L13.84,91h0L16,85.61h1.17v7h-.81V86.77h0L14,92.61h-.26l-2.41-5.84h0v5.84Z" transform="translate(-10.33 -5.26)"/><path d="M22,92.61V92h0a1.45,1.45,0,0,1-.57.5,2.12,2.12,0,0,1-1,.24,1.88,1.88,0,0,1-1.33-.43,1.42,1.42,0,0,1-.46-1.08,1.34,1.34,0,0,1,.4-1,3.24,3.24,0,0,1,1.38-.62l.54-.14.41-.13a1.23,1.23,0,0,0,.33-.17.78.78,0,0,0,.18-.2.5.5,0,0,0,.07-.27.7.7,0,0,0-.27-.57,1.3,1.3,0,0,0-.83-.22,1.2,1.2,0,0,0-1.29,1l-.74-.21a1.86,1.86,0,0,1,.49-1,1.83,1.83,0,0,1,1-.53,1,1,0,0,1-.41-.85,1,1,0,0,1,.28-.72,1,1,0,0,1,1.4,0,1,1,0,0,1,.28.72,1,1,0,0,1-.42.86A1.63,1.63,0,0,1,22.77,89v3.57Zm-1.46-2.39a2.46,2.46,0,0,0-.93.41.73.73,0,0,0-.25.57q0,.83,1.05.83a1.69,1.69,0,0,0,1.11-.32,1,1,0,0,0,.39-.8V89.59h0Q21.81,89.88,20.59,90.22Zm.25-3.28a.44.44,0,0,0,.34-.16.62.62,0,0,0,.14-.43.57.57,0,0,0-.14-.42.45.45,0,0,0-.34-.14.45.45,0,0,0-.34.14.58.58,0,0,0-.13.42.62.62,0,0,0,.14.43A.43.43,0,0,0,20.84,86.94Z" transform="translate(-10.33 -5.26)"/><path d="M24.32,92.61v-5.3h.8v.51h0a1.58,1.58,0,0,1,.63-.47,2.07,2.07,0,0,1,.86-.19,1.86,1.86,0,0,1,1.38.53,2,2,0,0,1,.52,1.44v3.48h-.81V89.39q0-1.48-1.22-1.48a1.4,1.4,0,0,0-1,.35,1.26,1.26,0,0,0-.37,1v3.38Z" transform="translate(-10.33 -5.26)"/><path d="M33.66,92.61V92.1h0a1.93,1.93,0,0,1-.62.46A2.23,2.23,0,0,1,30.41,92a3.11,3.11,0,0,1-.62-2,3,3,0,0,1,.65-2,2.08,2.08,0,0,1,1.65-.77,1.84,1.84,0,0,1,1.47.66h0V85.31h.82v7.3Zm-.08-1.76V89.21a1.31,1.31,0,0,0-.37-.91,1.27,1.27,0,0,0-1-.41,1.42,1.42,0,0,0-1.2.54,3,3,0,0,0,0,3,1.41,1.41,0,0,0,1.2.54,1.4,1.4,0,0,0,1-.35A1.07,1.07,0,0,0,33.58,90.85Z" transform="translate(-10.33 -5.26)"/><path d="M39.13,92.61V92h0a1.45,1.45,0,0,1-.57.5,2.12,2.12,0,0,1-1,.24,1.88,1.88,0,0,1-1.33-.43,1.42,1.42,0,0,1-.46-1.08,1.34,1.34,0,0,1,.4-1,3.24,3.24,0,0,1,1.38-.62l.54-.14.41-.13a1.23,1.23,0,0,0,.33-.17.78.78,0,0,0,.18-.2.5.5,0,0,0,.07-.27.7.7,0,0,0-.27-.57,1.3,1.3,0,0,0-.83-.22,1.2,1.2,0,0,0-1.29,1l-.74-.21a1.88,1.88,0,0,1,.65-1.13,2,2,0,0,1,1.35-.44,2.18,2.18,0,0,1,1.46.46A1.77,1.77,0,0,1,39.85,89v3.57Zm-1.46-2.39a2.46,2.46,0,0,0-.93.41.73.73,0,0,0-.25.57q0,.83,1.05.83a1.69,1.69,0,0,0,1.11-.32,1,1,0,0,0,.39-.8V89.59h0Q38.89,89.88,37.67,90.22Z" transform="translate(-10.33 -5.26)"/><path d="M41.45,93.57l.69-.35a1.91,1.91,0,0,0,.5.77,1.52,1.52,0,0,0,1.89-.09,1.47,1.47,0,0,0,.35-1v-.71h0a1.82,1.82,0,0,1-1.47.61A2.1,2.1,0,0,1,41.69,92,3.06,3.06,0,0,1,41,90a3,3,0,0,1,.67-2,2.11,2.11,0,0,1,1.65-.77,1.8,1.8,0,0,1,1.49.66h0v-.51h.8v5.38a2.41,2.41,0,0,1-.56,1.73,2.06,2.06,0,0,1-1.56.59,2.2,2.2,0,0,1-1.35-.4A2.1,2.1,0,0,1,41.45,93.57Zm3.42-2.7V89.19a1.27,1.27,0,0,0-.37-.89,1.3,1.3,0,0,0-1-.4,1.44,1.44,0,0,0-1.21.54,2.93,2.93,0,0,0,0,3,1.6,1.6,0,0,0,2.19.2A1,1,0,0,0,44.87,90.87Z" transform="translate(-10.33 -5.26)"/><path d="M49.33,90.31l.81-.16a2.59,2.59,0,0,0,.52,1.41,1.51,1.51,0,0,0,1.19.45,1.56,1.56,0,0,0,1.15-.4,1.32,1.32,0,0,0,.4-1q0-1.42-1.53-1.42h-.5V88.5h.21a2.9,2.9,0,0,0,.42,0,3.44,3.44,0,0,0,.5-.12A.92.92,0,0,0,53,88a1,1,0,0,0,.18-.62,1.09,1.09,0,0,0-.35-.86,1.39,1.39,0,0,0-1-.31,1.3,1.3,0,0,0-1,.35,1.61,1.61,0,0,0-.44,1l-.78-.14A2.1,2.1,0,0,1,50.37,86a2.17,2.17,0,0,1,1.5-.53,2.25,2.25,0,0,1,1.5.5A1.7,1.7,0,0,1,54,87.33a1.4,1.4,0,0,1-.33,1,1.53,1.53,0,0,1-.75.48v0a1.68,1.68,0,0,1,.94.61,2.13,2.13,0,0,1-.27,2.76,2.41,2.41,0,0,1-1.69.59,2.48,2.48,0,0,1-1.72-.6A2.8,2.8,0,0,1,49.33,90.31Z" transform="translate(-10.33 -5.26)"/><path d="M55.65,88.49V87.31h1.18v1.18Zm0,4.12V91.43h1.18v1.18Z" transform="translate(-10.33 -5.26)"/><path d="M62.25,91l.66.43a2.64,2.64,0,0,1-.85,1,2.34,2.34,0,0,1-1.37.38A2.27,2.27,0,0,1,58.92,92a2.92,2.92,0,0,1-.69-2,3,3,0,0,1,.67-2,2.22,2.22,0,0,1,1.75-.77,2.18,2.18,0,0,1,1.72.75A3,3,0,0,1,63,90v.24H59a2.07,2.07,0,0,0,.43,1.29,1.43,1.43,0,0,0,1.19.53,1.79,1.79,0,0,0,.56-.08,2,2,0,0,0,.4-.17,1.19,1.19,0,0,0,.29-.28l.19-.25Zm-3.18-1.43h3.15a1.94,1.94,0,0,0-.4-1.16,1.6,1.6,0,0,0-2.34,0A1.88,1.88,0,0,0,59.07,89.55Z" transform="translate(-10.33 -5.26)"/><path d="M69.86,92.61V92h0a1.45,1.45,0,0,1-.57.5,2.12,2.12,0,0,1-1,.24,1.88,1.88,0,0,1-1.33-.43,1.42,1.42,0,0,1-.46-1.08,1.34,1.34,0,0,1,.4-1,3.24,3.24,0,0,1,1.38-.62l.54-.14.41-.13a1.23,1.23,0,0,0,.33-.17.78.78,0,0,0,.18-.2.5.5,0,0,0,.07-.27.7.7,0,0,0-.27-.57,1.3,1.3,0,0,0-.83-.22,1.2,1.2,0,0,0-1.29,1l-.74-.21a1.88,1.88,0,0,1,.65-1.13,2,2,0,0,1,1.35-.44,2.18,2.18,0,0,1,1.46.46A1.77,1.77,0,0,1,70.58,89v3.57ZM68.4,90.22a2.46,2.46,0,0,0-.93.41.73.73,0,0,0-.25.57q0,.83,1.05.83a1.69,1.69,0,0,0,1.11-.32,1,1,0,0,0,.39-.8V89.59h0Q69.62,89.88,68.4,90.22Z" transform="translate(-10.33 -5.26)"/><path d="M72.13,94.86V87.31h.78v.51h0a1.83,1.83,0,0,1,.6-.46,2,2,0,0,1,.92-.21,2.09,2.09,0,0,1,1.65.77,3,3,0,0,1,.66,2,3.06,3.06,0,0,1-.64,2,2.08,2.08,0,0,1-1.67.76,2,2,0,0,1-.9-.21A1.58,1.58,0,0,1,73,92.1h0v2.76Zm.82-5.67v1.68a1,1,0,0,0,.39.81,1.41,1.41,0,0,0,1,.34,1.46,1.46,0,0,0,1.22-.54,2.91,2.91,0,0,0,0-3,1.45,1.45,0,0,0-1.21-.54,1.29,1.29,0,0,0-1,.4A1.27,1.27,0,0,0,72.95,89.19Z" transform="translate(-10.33 -5.26)"/><path d="M78.06,92.61v-5.3h.78v.57h0a1.11,1.11,0,0,1,.47-.49,1.3,1.3,0,0,1,.63-.17l.23,0,.18,0,0,0-.15.81a.9.9,0,0,0-.42-.08.83.83,0,0,0-.74.33,2,2,0,0,0-.23,1.08v3.15Z" transform="translate(-10.33 -5.26)"/><path d="M81.52,86.24v-.93h.94v.93Zm.06,6.37v-5.3h.82v5.3Z" transform="translate(-10.33 -5.26)"/><path d="M84.11,92.61v-7.3h.83v7.3Z" transform="translate(-10.33 -5.26)"/><path d="M90.4,92.61v-6l-1.51,1v-.9l1.61-1h.67v7Z" transform="translate(-10.33 -5.26)"/><path d="M93.45,91l.77-.24A1.42,1.42,0,0,0,95.68,92q1.66,0,1.67-2.87h0a1.09,1.09,0,0,1-.15.28,2.26,2.26,0,0,1-.32.34,1.72,1.72,0,0,1-.56.32,2.32,2.32,0,0,1-.79.13,2.28,2.28,0,0,1-1.67-.66,2.31,2.31,0,0,1-.67-1.72,2.28,2.28,0,0,1,2.32-2.37,2.32,2.32,0,0,1,1.94.92,4.41,4.41,0,0,1,.72,2.74,4.51,4.51,0,0,1-.68,2.77,2.16,2.16,0,0,1-1.79.87,2.2,2.2,0,0,1-1.45-.48A2.29,2.29,0,0,1,93.45,91Zm2.1-1.53A1.51,1.51,0,0,0,96.68,89a1.59,1.59,0,0,0,.44-1.15,1.65,1.65,0,0,0-.46-1.18,1.56,1.56,0,0,0-1.18-.47,1.46,1.46,0,0,0-1.09.44A1.62,1.62,0,0,0,94,87.83,1.64,1.64,0,0,0,94.4,89,1.52,1.52,0,0,0,95.55,89.47Z" transform="translate(-10.33 -5.26)"/><path d="M99.69,88.49V87.31h1.18v1.18Zm0,4.12V91.43h1.18v1.18Z" transform="translate(-10.33 -5.26)"/><path d="M104.88,92.76a2.22,2.22,0,0,1-1.92-1,4.74,4.74,0,0,1-.69-2.77,4.2,4.2,0,0,1,.72-2.64,2.4,2.4,0,0,1,3.77,0,4.23,4.23,0,0,1,.71,2.64,4.74,4.74,0,0,1-.69,2.77A2.21,2.21,0,0,1,104.88,92.76Zm-1.31-1.54a1.49,1.49,0,0,0,2.62,0,4.47,4.47,0,0,0,.45-2.21,3.86,3.86,0,0,0-.46-2.07,1.53,1.53,0,0,0-2.6,0,3.86,3.86,0,0,0-.46,2.07A4.47,4.47,0,0,0,103.57,91.22Z" transform="translate(-10.33 -5.26)"/><path d="M111,92.76a2.22,2.22,0,0,1-1.92-1,4.74,4.74,0,0,1-.69-2.77,4.2,4.2,0,0,1,.72-2.64,2.4,2.4,0,0,1,3.77,0,4.23,4.23,0,0,1,.71,2.64,4.74,4.74,0,0,1-.69,2.77A2.21,2.21,0,0,1,111,92.76Zm-1.31-1.54a1.49,1.49,0,0,0,2.62,0A4.47,4.47,0,0,0,112.8,89a3.86,3.86,0,0,0-.46-2.07,1.53,1.53,0,0,0-2.6,0,3.86,3.86,0,0,0-.46,2.07A4.47,4.47,0,0,0,109.73,91.22Z" transform="translate(-10.33 -5.26)"/><path d="M10.48,106V99h2.19a3,3,0,0,1,1.13.21,3,3,0,0,1,1,.62,2.86,2.86,0,0,1,.69,1.09,4.47,4.47,0,0,1,.25,1.57,4.86,4.86,0,0,1-.26,1.67,2.57,2.57,0,0,1-.71,1.09,3,3,0,0,1-1,.56,3.51,3.51,0,0,1-1.15.18Zm.83-.76h1.23q2.28,0,2.28-2.75a3.06,3.06,0,0,0-.6-2,2,2,0,0,0-1.62-.71H11.31Z" transform="translate(-10.33 -5.26)"/><path d="M17.15,106V99H18v7Z" transform="translate(-10.33 -5.26)"/><path d="M19.88,106V99H24.1v.76H20.71v2.53h3.11V103H20.71v3Z" transform="translate(-10.33 -5.26)"/><path d="M24.35,106v-1.18h1.18V106Z" transform="translate(-10.33 -5.26)"/><path d="M26.88,104.21l.77-.15a1.35,1.35,0,0,0,1.47,1.39,1.6,1.6,0,0,0,.94-.23.72.72,0,0,0,.32-.61.68.68,0,0,0-.3-.6,4.83,4.83,0,0,0-1.23-.46,3.76,3.76,0,0,1-1.38-.61,1.14,1.14,0,0,1-.4-.92,1.33,1.33,0,0,1,.49-1,2,2,0,0,1,1.35-.43,2.12,2.12,0,0,1,1.38.42,2,2,0,0,1,.68,1.1l-.71.19a1.3,1.3,0,0,0-1.35-1,1.27,1.27,0,0,0-.8.22.65.65,0,0,0-.28.52.53.53,0,0,0,.27.49,6.59,6.59,0,0,0,1.24.44,3.42,3.42,0,0,1,1.42.67,1.38,1.38,0,0,1,.4,1,1.43,1.43,0,0,1-.51,1.09,2.18,2.18,0,0,1-1.51.46,2.2,2.2,0,0,1-1.6-.54A2.22,2.22,0,0,1,26.88,104.21Z" transform="translate(-10.33 -5.26)"/><path d="M36.07,104.38l.66.43a2.64,2.64,0,0,1-.85,1,2.34,2.34,0,0,1-1.37.38,2.28,2.28,0,0,1-1.77-.76,2.92,2.92,0,0,1-.69-2,3,3,0,0,1,.67-2,2.22,2.22,0,0,1,1.75-.76,2.18,2.18,0,0,1,1.72.75,3,3,0,0,1,.66,2v.24h-4a2.08,2.08,0,0,0,.43,1.29,1.43,1.43,0,0,0,1.19.53,1.79,1.79,0,0,0,.56-.08,1.92,1.92,0,0,0,.4-.17,1.16,1.16,0,0,0,.29-.28l.19-.25ZM32.89,103H36a1.94,1.94,0,0,0-.4-1.16,1.6,1.6,0,0,0-2.34,0A1.88,1.88,0,0,0,32.89,103Z" transform="translate(-10.33 -5.26)"/><path d="M37.5,106.16l3.6-7.6.57.26-3.6,7.58Z" transform="translate(-10.33 -5.26)"/><path d="M42.67,106v-7.3h.82v2.51h0a1.83,1.83,0,0,1,1.47-.66,2.07,2.07,0,0,1,1.65.77,3,3,0,0,1,.65,2,3.11,3.11,0,0,1-.62,2A2.23,2.23,0,0,1,44,106a1.93,1.93,0,0,1-.62-.45h0V106Zm.82-3.4v1.64a1.07,1.07,0,0,0,.39.82,1.4,1.4,0,0,0,1,.35,1.42,1.42,0,0,0,1.2-.54,3,3,0,0,0,0-3,1.41,1.41,0,0,0-1.2-.54,1.28,1.28,0,0,0-1,.4A1.31,1.31,0,0,0,43.49,102.61Z" transform="translate(-10.33 -5.26)"/><path d="M48.58,99.64v-.93h.94v.93Zm.06,6.37v-5.3h.82V106Z" transform="translate(-10.33 -5.26)"/><path d="M51.17,106v-7.3H52V106Z" transform="translate(-10.33 -5.26)"/><path d="M53,108v-.78h.17a.45.45,0,0,0,.34-.12.65.65,0,0,0,.11-.45v-5.91h.82v5.93a1.48,1.48,0,0,1-.28,1,1.08,1.08,0,0,1-.83.3Zm.55-8.32v-.93h.93v.93Z" transform="translate(-10.33 -5.26)"/><path d="M59.85,104.38l.66.43a2.64,2.64,0,0,1-.85,1,2.34,2.34,0,0,1-1.37.38,2.28,2.28,0,0,1-1.77-.76,2.92,2.92,0,0,1-.69-2,3,3,0,0,1,.67-2,2.22,2.22,0,0,1,1.75-.76,2.18,2.18,0,0,1,1.72.75,3,3,0,0,1,.66,2v.24h-4a2.08,2.08,0,0,0,.43,1.29,1.43,1.43,0,0,0,1.19.53,1.79,1.79,0,0,0,.56-.08,1.92,1.92,0,0,0,.4-.17,1.16,1.16,0,0,0,.29-.28l.19-.25ZM56.67,103h3.15a1.94,1.94,0,0,0-.4-1.16,1.6,1.6,0,0,0-2.34,0A1.88,1.88,0,0,0,56.67,103Z" transform="translate(-10.33 -5.26)"/><path d="M62.12,104.47v-3h-.74v-.73h.76v-1.3h.78v1.3h1.31v.73h-1.3v2.93a1.22,1.22,0,0,0,.13.66.59.59,0,0,0,.52.19H64V106h-.44a1.37,1.37,0,0,1-1.08-.38A1.72,1.72,0,0,1,62.12,104.47Z" transform="translate(-10.33 -5.26)"/><path d="M65.57,104.47v-3h-.74v-.73h.76v-1.3h.78v1.3h1.31v.73h-1.3v2.93a1.22,1.22,0,0,0,.13.66.59.59,0,0,0,.52.19h.4V106H67a1.37,1.37,0,0,1-1.08-.38A1.72,1.72,0,0,1,65.57,104.47Z" transform="translate(-10.33 -5.26)"/><path d="M72.4,104.38l.66.43a2.64,2.64,0,0,1-.85,1,2.34,2.34,0,0,1-1.37.38,2.28,2.28,0,0,1-1.77-.76,2.92,2.92,0,0,1-.69-2,3,3,0,0,1,.67-2,2.22,2.22,0,0,1,1.75-.76,2.18,2.18,0,0,1,1.72.75,3,3,0,0,1,.66,2v.24h-4a2.08,2.08,0,0,0,.43,1.29,1.43,1.43,0,0,0,1.19.53,1.79,1.79,0,0,0,.56-.08,1.92,1.92,0,0,0,.4-.17,1.16,1.16,0,0,0,.29-.28l.19-.25ZM69.22,103h3.15a1.94,1.94,0,0,0-.4-1.16,1.6,1.6,0,0,0-2.34,0A1.88,1.88,0,0,0,69.22,103Z" transform="translate(-10.33 -5.26)"/><path d="M74.48,106v-5.3h.78v.57h0a1.12,1.12,0,0,1,.47-.49,1.3,1.3,0,0,1,.63-.17l.23,0,.18,0,0,0-.15.81a.91.91,0,0,0-.42-.08.83.83,0,0,0-.74.33,2,2,0,0,0-.23,1.08V106Z" transform="translate(-10.33 -5.26)"/></svg>