<svg id="Layer_1" data-name="Layer 1" xmlns="http://www.w3.org/2000/svg" viewBox="0 0 649.35 93.12"><defs><style>.cls-1{fill:none;stroke:#32baf2;stroke-miterlimit:10;}.cls-2{fill:#32baf2;}</style></defs><title>dif_display_wide</title><path d="M41.73,57.94,9.65,37.46C7.8,36.29,7,33.46,7,31.21V21.27A9.3,9.3,0,0,1,9.65,15l6-6.14A9,9,0,0,1,22,6.35H37.54a9,9,0,0,1,6.34,2.54l7.61,7.8-8.09,6.83-6.63-6.83H22.82l-5.07,5.17v7.8L49.83,50.13c1.85,1.17,2.63,4,2.63,6.24V67.3a9.3,9.3,0,0,1-2.63,6.24l-6,6.14a9,9,0,0,1-6.34,2.54H19a9,9,0,0,1-6.34-2.54L3.8,70.61l8.09-6.83,7.9,8.09H36.66l5.07-5.17Z" transform="translate(-3.8 -6.35)"/><path d="M89.9,6.35h48.76V16.68h-19V82.22H108.92V16.68h-19Z" transform="translate(-3.8 -6.35)"/><path d="M211.51,6.35a9,9,0,0,1,6.34,2.54l6,6.14a9.3,9.3,0,0,1,2.63,6.24v46a9.3,9.3,0,0,1-2.63,6.24l-6,6.14a9,9,0,0,1-6.34,2.54h-19a9,9,0,0,1-6.34-2.54l-6-6.14a9.3,9.3,0,0,1-2.63-6.24v-46A9.3,9.3,0,0,1,180.11,15l6-6.14a9,9,0,0,1,6.34-2.54ZM193.27,71.88h17.46l5.07-5.17V21.85l-5.07-5.17H193.27l-5.07,5.17V66.71Z" transform="translate(-3.8 -6.35)"/><path d="M269.82,6.35h10.73V71.88h29.65V82.22H269.82Z" transform="translate(-3.8 -6.35)"/><path d="M340,6.35h48.76V16.68h-19V82.22H359V16.68H340Z" transform="translate(-3.8 -6.35)"/><path d="M469.14,48.77H442.22V82.22H431.5V6.35h10.73V38.43h26.92V6.35h10.73V82.22H469.14Z" transform="translate(-3.8 -6.35)"/><path d="M523.16,6.35h43.4V16.68H533.89V38.82H559V49.16H533.89V71.88h32.67V82.22h-43.4Z" transform="translate(-3.8 -6.35)"/><path d="M604.39,6.35h48.76V16.68h-19V82.22H623.41V16.68h-19Z" transform="translate(-3.8 -6.35)"/><line class="cls-1" x1="1.08" y1="89.03" x2="648.27" y2="89.03"/><polygon class="cls-2" points="4.4 93.12 5.08 92.39 1.47 89.03 5.08 85.68 4.4 84.94 0 89.03 4.4 93.12"/><polygon class="cls-2" points="644.96 93.12 644.27 92.39 647.89 89.03 644.27 85.68 644.96 84.94 649.35 89.03 644.96 93.12"/></svg>