<?xml version="1.0" encoding="utf-8"?>
<!-- Generator: Adobe Illustrator 20.1.0, SVG Export Plug-In . SVG Version: 6.00 Build 0)  -->
<svg version="1.1" id="Layer_1" xmlns="http://www.w3.org/2000/svg" xmlns:xlink="http://www.w3.org/1999/xlink" x="0px" y="0px"
	 viewBox="0 0 571.8 167.7" style="enable-background:new 0 0 571.8 167.7;" xml:space="preserve">
<style type="text/css">
	.st0{enable-background:new    ;}
	.st1{fill:none;stroke:#32BAF2;stroke-miterlimit:10;}
	.st2{fill:#32BAF2;}
	.st3{fill:none;stroke:#E21F26;stroke-miterlimit:10;}
	.st4{fill:#E21F26;}
</style>
<title>dif_display_kerning-02</title>
<g class="st0">
	<path d="M47,128.4c-1.8,1.9-4.7,2.9-7.3,2.9H18.3c-2.6,0-5.5-1-7.3-2.9L0.7,117.9l9.4-7.9l9.2,9.4h19.6l5.9-6v-10.2L7.5,79.5
		c-2.1-1.4-3.1-4.6-3.1-7.2V60.7c0-2.6,1.2-5.4,3.1-7.2l7-7.1c1.8-1.9,4.7-2.9,7.3-2.9h18c2.6,0,5.5,1,7.3,2.9l8.8,9l-9.4,7.9
		l-7.7-7.9H22.7l-5.9,6v9L54,94.1c2.1,1.4,3.1,4.6,3.1,7.2V114c0,2.6-1.2,5.4-3.1,7.2L47,128.4z"/>
	<path d="M90.3,131.4v-76h-22v-12h56.5v12h-22v75.9L90.3,131.4L90.3,131.4z"/>
	<path d="M185.9,128.4c-1.8,1.9-4.7,2.9-7.3,2.9h-22c-2.6,0-5.5-1-7.3-2.9l-7-7.1c-1.8-1.8-3.1-4.6-3.1-7.2V60.7
		c0-2.6,1.2-5.4,3.1-7.2l7-7.1c1.8-1.9,4.7-2.9,7.3-2.9h22c2.6,0,5.5,1,7.3,2.9l7,7.1c1.8,1.8,3.1,4.6,3.1,7.2V114
		c0,2.6-1.2,5.4-3.1,7.2L185.9,128.4z M183.5,113.4v-52l-5.9-6h-20.2l-5.9,6v52l5.9,6h20.2L183.5,113.4z"/>
</g>
<g class="st0">
	<path d="M215.9,131.4v-88h12.4v75.9h34.4v12L215.9,131.4L215.9,131.4z"/>
</g>
<g class="st0">
	<path d="M291,131.4v-76h-22v-12h56.5v12h-22v75.9L291,131.4L291,131.4z"/>
</g>
<g class="st0">
	<path d="M388.1,131.4V92.6h-31.2v38.8h-12.4v-88h12.4v37.2h31.2V43.4h12.4v87.9L388.1,131.4L388.1,131.4z"/>
	<path d="M420,131.4v-88h50.3v12h-37.9v25.7h29v12h-29v26.3h37.9v12L420,131.4L420,131.4z"/>
	<path d="M503.3,131.4v-76h-22v-12h56.5v12h-22v75.9L503.3,131.4L503.3,131.4z"/>
</g>
<line class="st1" x1="5.4" y1="143.4" x2="537.3" y2="143.4"/>
<polygon class="st2" points="8.7,147.5 9.4,146.7 5.7,143.4 9.4,140 8.7,139.3 4.3,143.4 "/>
<polygon class="st2" points="533.9,147.5 533.2,146.7 536.8,143.4 533.2,140 533.9,139.3 538.3,143.4 "/>
<line class="st3" x1="273.3" y1="24.5" x2="294.2" y2="24.5"/>
<polygon class="st4" points="276.6,28.6 277.3,27.8 273.7,24.5 277.3,21.1 276.6,20.4 272.2,24.5 "/>
<line class="st3" x1="366" y1="24.5" x2="345.1" y2="24.5"/>
<polygon class="st4" points="362.7,20.4 362,21.1 365.6,24.5 362,27.8 362.7,28.6 367.1,24.5 "/>
<line class="st3" x1="268.9" y1="138.7" x2="268.9" y2="13.1"/>
<line class="st3" x1="340.2" y1="138.7" x2="340.2" y2="13.1"/>
<path class="st4" d="M274.4,14.9v-0.7h3.3v0.7H274.4z"/>
<path class="st4" d="M278.6,16.3v-0.8l2.8-4.6h1.3v4.6h0.9v0.8h-0.9V18h-0.8v-1.7H278.6z M279.4,15.6h2.4v-4l0,0L279.4,15.6z"/>
<path class="st4" d="M287,18.1c-0.8,0-1.5-0.4-1.9-1c-0.5-0.8-0.8-1.8-0.7-2.8c-0.1-0.9,0.2-1.9,0.7-2.6c0.8-1,2.3-1.2,3.4-0.4
	c0.2,0.1,0.3,0.3,0.4,0.4c0.5,0.8,0.8,1.7,0.7,2.6c0.1,1-0.2,1.9-0.7,2.8C288.5,17.8,287.8,18.1,287,18.1z M285.7,16.6
	c0.4,0.7,1.3,1,2,0.6c0.3-0.1,0.5-0.3,0.6-0.6c0.3-0.7,0.5-1.4,0.5-2.2c0-0.7-0.1-1.4-0.5-2.1s-1.4-0.9-2.1-0.5
	c-0.2,0.1-0.4,0.3-0.5,0.5c-0.3,0.6-0.5,1.4-0.5,2.1C285.2,15.1,285.3,15.9,285.7,16.6L285.7,16.6z"/>
<path class="st4" d="M347.4,16.8v-2.3h-2v-0.7h2v-2h0.7v2h2v0.7h-2v2.3H347.4z"/>
<path class="st4" d="M351,16.3v-0.8l2.8-4.6h1.2v4.6h0.9v0.8H355V18h-0.8v-1.7H351z M351.8,15.6h2.4v-4l0,0L351.8,15.6z"/>
<path class="st4" d="M359.4,18.1c-0.8,0-1.5-0.4-1.9-1c-0.5-0.8-0.8-1.8-0.7-2.8c-0.1-0.9,0.2-1.9,0.7-2.6c0.8-1,2.3-1.2,3.4-0.4
	c0.2,0.1,0.3,0.3,0.4,0.4c0.5,0.8,0.8,1.7,0.7,2.6c0.1,1-0.2,1.9-0.7,2.8C360.9,17.8,360.1,18.1,359.4,18.1z M358,16.6
	c0.4,0.7,1.3,1,2,0.6c0.3-0.1,0.5-0.3,0.6-0.6c0.3-0.7,0.5-1.4,0.5-2.2c0-0.7-0.1-1.4-0.5-2.1s-1.4-0.9-2.1-0.5
	c-0.2,0.1-0.4,0.3-0.5,0.5c-0.3,0.6-0.5,1.4-0.5,2.1C357.6,15.1,357.7,15.9,358,16.6z"/>
<g>
	<path class="st4" d="M264.9,162.7v-2.3h-2v-0.7h2v-2h0.7v2h2v0.7h-2v2.3H264.9z"/>
	<path class="st4" d="M268.6,161.6l0.8-0.2c0.1,0.6,0.3,1.1,0.5,1.4c0.3,0.3,0.7,0.4,1.2,0.4c0.5,0,0.9-0.1,1.2-0.4s0.4-0.6,0.4-1
		c0-0.9-0.5-1.4-1.5-1.4h-0.5v-0.7h0.2c0.1,0,0.3,0,0.4,0c0.1,0,0.3-0.1,0.5-0.1c0.2-0.1,0.4-0.2,0.5-0.3c0.1-0.2,0.2-0.4,0.2-0.6
		c0-0.4-0.1-0.7-0.4-0.9c-0.2-0.2-0.5-0.3-0.9-0.3c-0.4,0-0.7,0.1-1,0.4c-0.2,0.2-0.4,0.6-0.4,1l-0.8-0.1c0.1-0.6,0.3-1.1,0.7-1.4
		s0.9-0.5,1.5-0.5c0.6,0,1.1,0.2,1.5,0.5c0.4,0.3,0.6,0.8,0.6,1.4c0,0.4-0.1,0.7-0.3,1s-0.5,0.4-0.8,0.5v0c0.4,0.1,0.7,0.3,0.9,0.6
		c0.3,0.3,0.4,0.7,0.4,1.2c0,0.6-0.2,1.1-0.7,1.5s-1,0.6-1.7,0.6c-0.7,0-1.3-0.2-1.7-0.6C269,163,268.7,162.4,268.6,161.6z"/>
	<path class="st4" d="M277.1,164c-0.8,0-1.5-0.3-1.9-1s-0.7-1.6-0.7-2.8c0-1.1,0.2-2,0.7-2.6c0.5-0.6,1.1-0.9,1.9-0.9
		c0.8,0,1.4,0.3,1.9,0.9s0.7,1.5,0.7,2.6c0,1.2-0.2,2.1-0.7,2.8C278.6,163.7,278,164,277.1,164z M275.8,162.5
		c0.3,0.5,0.7,0.8,1.3,0.8c0.6,0,1-0.3,1.3-0.8s0.5-1.3,0.5-2.2c0-0.9-0.2-1.6-0.5-2.1s-0.7-0.7-1.3-0.7c-0.6,0-1,0.2-1.3,0.7
		c-0.3,0.5-0.5,1.2-0.5,2.1C275.4,161.2,275.5,161.9,275.8,162.5z"/>
</g>
</svg>
