<?xml version="1.0" encoding="utf-8"?>
<!-- Generator: Adobe Illustrator 20.1.0, SVG Export Plug-In . SVG Version: 6.00 Build 0)  -->
<svg version="1.1" id="Layer_1" xmlns="http://www.w3.org/2000/svg" xmlns:xlink="http://www.w3.org/1999/xlink" x="0px" y="0px"
	 viewBox="0 0 661.2 195.5" style="enable-background:new 0 0 661.2 195.5;" xml:space="preserve">
<style type="text/css">
	.st0{fill:#FFFFFF;}
	.st1{fill:#969696;}
	.st2{opacity:0.35;enable-background:new    ;}
	.st3{fill:#BEBEBE;}
	.st4{fill:none;stroke:#00FFFF;stroke-miterlimit:10;}
	.st5{opacity:0.3;fill:none;stroke:#000000;stroke-miterlimit:10;enable-background:new    ;}
	.st6{fill:none;stroke:#00FFFF;stroke-width:0.25;stroke-miterlimit:10;}
</style>
<g>
	<rect x="523.1" y="-0.2" class="st0" width="137.4" height="194.4"/>
	<rect x="174.9" y="65.9" class="st1" width="137.4" height="128.4"/>
	<rect x="174.9" y="0.3" class="st2" width="137.4" height="32.8"/>
	<rect x="174.9" y="33.7" class="st3" width="137.4" height="32.2"/>
	<rect x="174.9" y="0.7" class="st4" width="137.4" height="194.4"/>
	<line class="st4" x1="312.3" y1="16.9" x2="174.9" y2="16.9"/>
	<line class="st4" x1="312.3" y1="33.1" x2="174.9" y2="33.1"/>
	<line class="st4" x1="312.3" y1="49.3" x2="174.9" y2="49.3"/>
	<line class="st4" x1="312.3" y1="65.5" x2="174.9" y2="65.5"/>
	<line class="st4" x1="312.3" y1="81.7" x2="174.9" y2="81.7"/>
	<line class="st4" x1="312.3" y1="97.9" x2="174.9" y2="97.9"/>
	<line class="st4" x1="312.3" y1="114" x2="174.9" y2="114"/>
	<line class="st4" x1="312.3" y1="130.2" x2="174.9" y2="130.2"/>
	<line class="st4" x1="312.3" y1="146.4" x2="174.9" y2="146.4"/>
	<line class="st4" x1="312.3" y1="162.6" x2="174.9" y2="162.6"/>
	<line class="st4" x1="312.3" y1="178.8" x2="174.9" y2="178.8"/>
	<rect x="349.3" y="0.7" class="st1" width="137.4" height="193.7"/>
	<rect x="349.3" y="0.7" class="st4" width="137.4" height="194.4"/>
	<line class="st4" x1="486.8" y1="16.9" x2="349.3" y2="16.9"/>
	<line class="st4" x1="486.8" y1="33.1" x2="349.3" y2="33.1"/>
	<line class="st4" x1="486.8" y1="49.3" x2="349.3" y2="49.3"/>
	<line class="st4" x1="486.8" y1="65.5" x2="349.3" y2="65.5"/>
	<line class="st4" x1="486.8" y1="81.7" x2="349.3" y2="81.7"/>
	<line class="st4" x1="486.8" y1="97.9" x2="349.3" y2="97.9"/>
	<line class="st4" x1="486.8" y1="114" x2="349.3" y2="114"/>
	<line class="st4" x1="486.8" y1="130.2" x2="349.3" y2="130.2"/>
	<line class="st4" x1="486.8" y1="146.4" x2="349.3" y2="146.4"/>
	<line class="st4" x1="486.8" y1="162.6" x2="349.3" y2="162.6"/>
	<line class="st4" x1="486.8" y1="178.8" x2="349.3" y2="178.8"/>
	<line class="st5" x1="660.6" y1="1.9" x2="523.8" y2="195.4"/>
	<line class="st5" x1="523.8" y1="1.9" x2="660.6" y2="195.4"/>
	<rect x="523.8" y="81.3" class="st1" width="136.8" height="32.2"/>
	<rect x="523.8" y="114" class="st3" width="136.8" height="31.7"/>
	<rect x="523.8" y="145.8" class="st2" width="136.8" height="16.1"/>
	<rect x="523.8" y="0.7" class="st6" width="136.8" height="193.5"/>
	<line class="st6" x1="535.2" y1="194.2" x2="535.2" y2="0.7"/>
	<line class="st6" x1="546.6" y1="194.2" x2="546.6" y2="0.7"/>
	<line class="st6" x1="558" y1="194.2" x2="558" y2="0.7"/>
	<line class="st6" x1="569.4" y1="194.2" x2="569.4" y2="0.7"/>
	<line class="st6" x1="580.8" y1="194.2" x2="580.8" y2="0.7"/>
	<line class="st6" x1="592.2" y1="194.2" x2="592.2" y2="0.7"/>
	<line class="st6" x1="603.6" y1="194.2" x2="603.6" y2="0.7"/>
	<line class="st6" x1="615" y1="194.2" x2="615" y2="0.7"/>
	<line class="st6" x1="626.4" y1="194.2" x2="626.4" y2="0.7"/>
	<line class="st6" x1="637.8" y1="194.2" x2="637.8" y2="0.7"/>
	<line class="st6" x1="649.2" y1="194.2" x2="649.2" y2="0.7"/>
	<rect x="523.8" y="0.7" class="st4" width="136.8" height="193.5"/>
	<line class="st4" x1="660.6" y1="16.8" x2="523.8" y2="16.8"/>
	<line class="st4" x1="660.6" y1="32.9" x2="523.8" y2="32.9"/>
	<line class="st4" x1="660.6" y1="49" x2="523.8" y2="49"/>
	<line class="st4" x1="660.6" y1="65.2" x2="523.8" y2="65.2"/>
	<line class="st4" x1="660.6" y1="81.3" x2="523.8" y2="81.3"/>
	<line class="st4" x1="660.6" y1="97.4" x2="523.8" y2="97.4"/>
	<line class="st4" x1="660.6" y1="113.5" x2="523.8" y2="113.5"/>
	<line class="st4" x1="660.6" y1="129.7" x2="523.8" y2="129.7"/>
	<line class="st4" x1="660.6" y1="145.8" x2="523.8" y2="145.8"/>
	<line class="st4" x1="660.6" y1="161.9" x2="523.8" y2="161.9"/>
	<line class="st4" x1="660.6" y1="178" x2="523.8" y2="178"/>
	
		<rect x="592.2" y="128" transform="matrix(0.7292 -0.6843 0.6843 0.7292 72.0349 440.4455)" class="st0" width="0.7" height="2.5"/>
	
		<ellipse transform="matrix(0.7292 -0.6843 0.6843 0.7292 72.7587 441.5287)" class="st0" cx="594.2" cy="128.8" rx="0.4" ry="0.4"/>
	<ellipse transform="matrix(0.7292 -0.6843 0.6843 0.7292 70.7722 440.5689)" class="st0" cx="592" cy="130.9" rx="0.4" ry="0.4"/>
	<path class="st0" d="M598.1,124l-0.1-0.2l-0.2,0.1c-1.9,0.4-3.9,0.1-5.6-0.9l-0.1-0.1L592,123c-1.7,0.9-3.6,1.2-5.5,0.9l-0.2-0.1
		l-0.1,0.2c-0.2,1-0.3,2-0.2,3c0.1,4.4,2.4,8.4,6.1,10.8l0.1,0.1l0.1-0.1c3.7-2.4,5.9-6.5,6-10.8C598.4,126,598.3,125,598.1,124z
		 M586.5,127c0-0.9,0-1.8,0.1-2.6c1.9,0.3,3.8,0,5.5-0.9c0.7,0.4,1.5,0.7,2.3,0.8l-7.2,6.8C586.8,129.7,586.5,128.4,586.5,127z
		 M592.2,137.3c-1-0.7-1.9-1.5-2.6-2.4l8.3-7.8C597.7,131.2,595.6,135,592.2,137.3z M597.8,126.7l-8.5,8c-0.8-1-1.4-2.1-1.9-3.3
		l7.5-7c0.9,0.2,1.8,0.2,2.8,0C597.8,125.1,597.9,125.9,597.8,126.7L597.8,126.7z"/>
	<polygon class="st0" points="595.3,126.2 594.8,126.8 594.5,126.5 595,125.9 594.6,125.5 593.5,126.5 595.2,128.3 595.7,127.8 
		595.2,127.2 595.7,126.7 	"/>
	<path class="st0" d="M589.1,130.6l-0.6,0.6l1.7,1.8l0.6-0.6c0.5-0.5,0.5-1.2,0.1-1.7S589.6,130.2,589.1,130.6L589.1,130.6z
		 M590.3,132L590.3,132l-0.8-0.9l0,0c0.2-0.2,0.6-0.2,0.9,0C590.6,131.4,590.6,131.8,590.3,132z"/>
	
		<ellipse transform="matrix(0.7292 -0.6843 0.6843 0.7292 74.8737 442.5016)" class="st0" cx="596.5" cy="126.6" rx="0.4" ry="0.4"/>
	<rect x="174.9" y="0.7" class="st6" width="137.4" height="194.4"/>
	<line class="st6" x1="186.3" y1="195" x2="186.3" y2="0.7"/>
	<line class="st6" x1="197.8" y1="195" x2="197.8" y2="0.7"/>
	<line class="st6" x1="209.3" y1="195" x2="209.3" y2="0.7"/>
	<line class="st6" x1="220.7" y1="195" x2="220.7" y2="0.7"/>
	<line class="st6" x1="232.2" y1="195" x2="232.2" y2="0.7"/>
	<line class="st6" x1="243.6" y1="195" x2="243.6" y2="0.7"/>
	<line class="st6" x1="255.1" y1="195" x2="255.1" y2="0.7"/>
	<line class="st6" x1="266.5" y1="195" x2="266.5" y2="0.7"/>
	<line class="st6" x1="278" y1="195" x2="278" y2="0.7"/>
	<line class="st6" x1="289.4" y1="195" x2="289.4" y2="0.7"/>
	<line class="st6" x1="300.9" y1="195" x2="300.9" y2="0.7"/>
	<path class="st0" d="M194.6,56.9l-3.5-4.5h-2.2v4.5h-2.2V41.6h6.5c0.5,0,0.9,0.2,1.3,0.5l1.2,1.2c0.3,0.3,0.5,0.8,0.5,1.3v4.8
		c0,0.5-0.2,0.9-0.5,1.3l-1.2,1.2c-0.2,0.2-0.5,0.4-0.8,0.4l2.5,3.2v1.3L194.6,56.9z M194.2,49.3v-4.5l-1-1H189v6.7h4.2L194.2,49.3z
		"/>
	<path class="st0" d="M207.5,56.4c-0.3,0.3-0.8,0.5-1.3,0.5h-3.8c-0.5,0-0.9-0.2-1.3-0.5l-1.2-1.3c-0.3-0.3-0.5-0.8-0.5-1.3V41.6
		h2.2v12.2l1,1h3.5l1-1V41.6h2.2v12.3c0,0.5-0.2,0.9-0.5,1.3L207.5,56.4z"/>
	<path class="st0" d="M220.4,56.4c-0.3,0.3-0.8,0.5-1.3,0.5h-6.4V41.6h6.1c0.5,0,0.9,0.2,1.3,0.5l1.2,1.2c0.3,0.3,0.5,0.8,0.5,1.3
		v2.3c0,0.5-0.2,0.9-0.5,1.3l-0.5,0.5l0.9,0.9c0.3,0.3,0.5,0.8,0.5,1.3v3c0,0.5-0.2,0.9-0.5,1.3L220.4,56.4z M219.6,46.8v-2.1l-1-1
		h-3.7v4.2h3.7L219.6,46.8z M220,53.8V51l-1-1h-4.2v4.9h4.2L220,53.8z"/>
	<path class="st0" d="M233.1,56.9l-3.5-4.5h-2.2v4.5h-2.2V41.6h6.5c0.5,0,0.9,0.2,1.3,0.5l1.2,1.2c0.3,0.3,0.5,0.8,0.5,1.3v4.8
		c0,0.5-0.2,0.9-0.5,1.3l-1.2,1.2c-0.2,0.2-0.5,0.4-0.8,0.4l2.5,3.2v1.3L233.1,56.9z M232.6,49.3v-4.5l-1-1h-4.2v6.7h4.2L232.6,49.3
		z"/>
	<path class="st0" d="M237.5,56.9v-2h1.6V43.7h-1.6v-2h5.4v2h-1.6V55h1.6v2L237.5,56.9z"/>
	<path class="st0" d="M254.7,56.9l-5.3-7.4l-1.2,1.2V57H246V41.7h2.2v6.1l6.1-6.1h1.7V43l-5,5l5.4,7.6v1.3H254.7z"/>
	<rect x="0.9" y="1.7" class="st1" width="91.3" height="194"/>
	<rect x="92.2" y="1.7" class="st3" width="22.8" height="194"/>
	<rect x="115" y="1.7" class="st1" width="22.8" height="194"/>
	<rect x="0.5" y="1.3" class="st4" width="137.4" height="194.4"/>
	<line class="st4" x1="11.9" y1="195.7" x2="11.9" y2="1.3"/>
	<line class="st4" x1="23.4" y1="195.7" x2="23.4" y2="1.3"/>
	<line class="st4" x1="34.8" y1="195.7" x2="34.8" y2="1.3"/>
	<line class="st4" x1="46.3" y1="195.7" x2="46.3" y2="1.3"/>
	<line class="st4" x1="57.7" y1="195.7" x2="57.7" y2="1.3"/>
	<line class="st4" x1="69.2" y1="195.7" x2="69.2" y2="1.3"/>
	<line class="st4" x1="80.6" y1="195.7" x2="80.6" y2="1.3"/>
	<line class="st4" x1="92.1" y1="195.7" x2="92.1" y2="1.3"/>
	<line class="st4" x1="103.5" y1="195.7" x2="103.5" y2="1.3"/>
	<line class="st4" x1="115" y1="195.7" x2="115" y2="1.3"/>
	<line class="st4" x1="126.4" y1="195.7" x2="126.4" y2="1.3"/>
	<rect x="0.5" y="1.3" class="st6" width="137.4" height="194.4"/>
	<line class="st6" x1="137.9" y1="17.5" x2="0.5" y2="17.5"/>
	<line class="st6" x1="137.9" y1="33.7" x2="0.5" y2="33.7"/>
	<line class="st6" x1="137.9" y1="49.9" x2="0.5" y2="49.9"/>
	<line class="st6" x1="137.9" y1="66.1" x2="0.5" y2="66.1"/>
	<line class="st6" x1="137.9" y1="82.3" x2="0.5" y2="82.3"/>
	<line class="st6" x1="137.9" y1="98.5" x2="0.5" y2="98.5"/>
	<line class="st6" x1="137.9" y1="114.7" x2="0.5" y2="114.7"/>
	<line class="st6" x1="137.9" y1="130.9" x2="0.5" y2="130.9"/>
	<line class="st6" x1="137.9" y1="147.1" x2="0.5" y2="147.1"/>
	<line class="st6" x1="137.9" y1="163.3" x2="0.5" y2="163.3"/>
	<line class="st6" x1="137.9" y1="179.5" x2="0.5" y2="179.5"/>
	<rect x="349.3" y="0.7" class="st6" width="137.4" height="194.4"/>
	<line class="st6" x1="360.8" y1="195" x2="360.8" y2="0.7"/>
	<line class="st6" x1="372.2" y1="195" x2="372.2" y2="0.7"/>
	<line class="st6" x1="383.7" y1="195" x2="383.7" y2="0.7"/>
	<line class="st6" x1="395.1" y1="195" x2="395.1" y2="0.7"/>
	<line class="st6" x1="406.6" y1="195" x2="406.6" y2="0.7"/>
	<line class="st6" x1="418" y1="195" x2="418" y2="0.7"/>
	<line class="st6" x1="429.5" y1="195" x2="429.5" y2="0.7"/>
	<line class="st6" x1="440.9" y1="195" x2="440.9" y2="0.7"/>
	<line class="st6" x1="452.4" y1="195" x2="452.4" y2="0.7"/>
	<line class="st6" x1="463.9" y1="195" x2="463.9" y2="0.7"/>
	<line class="st6" x1="475.3" y1="195" x2="475.3" y2="0.7"/>
	<path class="st0" d="M361.6,67.2V49.3h2.5v15.5h7v2.4H361.6z"/>
	<path class="st0" d="M383.6,67.2l-1.2-5.1h-5.9l-1.2,5.1h-2.1v-1.8l3.7-15.2c0.1-0.6,0.6-1,1.2-1h2.9c0.6,0,1.1,0.4,1.2,1l3.7,15.2
		v1.8H383.6z M375.9,48v-2.5h2.5V48H375.9z M379.9,51.7H379l-1.8,7.9h4.6L379.9,51.7z M380.5,48v-2.5h2.5V48H380.5z"/>
	<path class="st0" d="M397.2,67.2v-3.8l-6.1-9.6v13.4h-2.5V49.3h2.6l6,9.5v-9.5h2.5v17.9H397.2z"/>
	<path class="st0" d="M413.4,66.6c-0.4,0.4-0.9,0.6-1.5,0.6h-4.6c-0.6,0-1.1-0.2-1.5-0.6l-1.4-1.5c-0.4-0.4-0.6-0.9-0.6-1.5V52.8
		c0-0.6,0.2-1.1,0.6-1.5l1.4-1.5c0.4-0.4,0.9-0.6,1.5-0.6h4.6c0.6,0,1.1,0.2,1.5,0.6l1.8,1.8l-1.9,1.6l-1.6-1.6h-4.2l-1.2,1.2v10.5
		l1.2,1.2h4.2l1.2-1.2v-4.2h-3.2v-2.4h5.7v6.7c0,0.6-0.2,1.1-0.6,1.5L413.4,66.6z"/>
	<path class="st0" d="M428.2,67.2l-4.1-5.2h-2.5v5.2H419V49.3h7.6c0.6,0,1.1,0.2,1.5,0.6l1.4,1.5c0.4,0.4,0.6,0.9,0.6,1.5v5.6
		c0,0.6-0.2,1.1-0.6,1.5l-1.4,1.5c-0.3,0.3-0.6,0.4-0.9,0.5l3,3.8v1.5L428.2,67.2z M427.7,58.3v-5.4l-1.2-1.2h-4.9v7.8h4.9
		L427.7,58.3z"/>
	<path class="st0" d="M433.8,67.2V49.3h10.3v2.4h-7.7v5.2h5.9v2.4h-5.9v5.4h7.7v2.4L433.8,67.2z"/>
	<path class="st0" d="M370.7,95l-4.1-5.2h-2.5V95h-2.5V77.1h7.6c0.6,0,1.1,0.2,1.5,0.6l1.4,1.5c0.4,0.4,0.6,0.9,0.6,1.5v5.6
		c0,0.6-0.2,1.1-0.6,1.5l-1.4,1.5c-0.3,0.3-0.6,0.4-0.9,0.5l3,3.7V95L370.7,95z M370.1,86.1v-5.3l-1.2-1.2h-4.8v7.8h4.8L370.1,86.1z
		"/>
	<path class="st0" d="M385.7,94.4c-0.4,0.4-0.9,0.6-1.5,0.6h-4.5c-0.6,0-1.1-0.2-1.5-0.6l-1.4-1.5c-0.4-0.4-0.6-0.9-0.6-1.5V77.1
		h2.5v14.2l1.2,1.2h4.1l1.2-1.2V77.1h2.5v14.3c0,0.6-0.2,1.1-0.6,1.5L385.7,94.4z"/>
	<path class="st0" d="M400.8,94.4c-0.4,0.4-0.9,0.6-1.5,0.6h-7.6V77.1h7.1c0.6,0,1.1,0.2,1.5,0.6l1.4,1.5c0.4,0.4,0.6,0.9,0.6,1.5
		v2.7c0,0.6-0.2,1.1-0.6,1.5l-0.6,0.6l1,1c0.4,0.4,0.6,0.9,0.6,1.5v3.6c0,0.6-0.2,1.1-0.6,1.5L400.8,94.4z M399.8,83.2v-2.4
		l-1.2-1.2h-4.4v4.8h4.4L399.8,83.2z M400.3,91.4v-3.3l-1.2-1.2h-4.8v5.7h4.8L400.3,91.4z"/>
	<path class="st0" d="M415.6,95l-4.1-5.2H409V95h-2.5V77.1h7.6c0.6,0,1.1,0.2,1.5,0.6l1.5,1.4c0.4,0.4,0.6,0.9,0.6,1.5v5.6
		c0,0.6-0.2,1.1-0.6,1.5l-1.4,1.5c-0.3,0.3-0.6,0.4-0.9,0.5l3,3.7v1.5L415.6,95z M415,86.1v-5.3l-1.2-1.2H409v7.8h4.8L415,86.1z"/>
	<path class="st0" d="M420.8,95v-2.3h1.9V79.5h-1.9v-2.3h6.3v2.3h-1.9v13.2h1.9V95H420.8z"/>
	<path class="st0" d="M440.9,95l-6.1-8.7l-1.4,1.4V95h-2.6V77.1h2.5v7.1l7.1-7.1h2v1.5l-5.9,5.9l6.4,8.9v1.5h-2V95z"/>
	<path class="st0" d="M565.9,105.6l-3.5-4.4h-2.1v4.4h-2.1V90.4h6.4c0.5,0,0.9,0.2,1.3,0.5l1.2,1.2c0.3,0.3,0.5,0.8,0.5,1.3v4.8
		c0,0.5-0.2,0.9-0.5,1.3l-1.2,1.2c-0.2,0.2-0.5,0.4-0.8,0.4l2.5,3.2v1.3L565.9,105.6L565.9,105.6z M565.4,98v-4.6l-1-1h-4.2V99h4.2
		L565.4,98z"/>
	<path class="st0" d="M578.7,105.1c-0.3,0.3-0.8,0.5-1.3,0.5h-3.8c-0.5,0-0.9-0.2-1.3-0.5l-1.2-1.2c-0.3-0.3-0.5-0.8-0.5-1.3V90.4
		h2.1v12.1l1,1h3.5l1-1V90.4h2.1v12.2c0,0.5-0.2,0.9-0.5,1.3L578.7,105.1z"/>
	<path class="st0" d="M591.5,105.1c-0.3,0.3-0.8,0.5-1.3,0.5h-6.4V90.4h6c0.5,0,0.9,0.2,1.3,0.5l1.2,1.2c0.3,0.3,0.5,0.8,0.5,1.3
		v2.3c0,0.5-0.2,0.9-0.5,1.3l-0.5,0.5l0.9,0.9c0.3,0.3,0.5,0.8,0.5,1.3v3c0,0.5-0.2,0.9-0.5,1.3L591.5,105.1z M590.7,95.5v-2.1l-1-1
		H586v4.2h3.7L590.7,95.5z M591.1,102.5v-2.8l-1-1h-4.2v4.9h4.2L591.1,102.5z"/>
	<path class="st0" d="M604.1,105.6l-3.5-4.4h-2.1v4.4h-2.1V90.4h6.4c0.5,0,0.9,0.2,1.3,0.5l1.2,1.2c0.3,0.3,0.5,0.8,0.5,1.3v4.8
		c0,0.5-0.2,0.9-0.5,1.3l-1.2,1.2c-0.2,0.2-0.5,0.4-0.8,0.4l2.5,3.2v1.3L604.1,105.6L604.1,105.6z M603.6,98v-4.6l-1-1h-4.2V99h4.2
		L603.6,98z"/>
	<path class="st0" d="M608.5,105.6v-2h1.6V92.4h-1.6v-2h5.4v2h-1.6v11.2h1.6v2H608.5z"/>
	<path class="st0" d="M625.6,105.6l-5.2-7.4l-1.2,1.2v6.2h-2.1V90.4h2.1v6l6-6h1.7v1.3l-5,5l5.4,7.6v1.3H625.6z"/>
	<path class="st0" d="M564.9,155.8v-3h0.4v2.6h1.2v0.4H564.9z"/>
	<path class="st0" d="M568.6,155.7c-0.1,0.1-0.2,0.1-0.3,0.1h-0.8c-0.1,0-0.2,0-0.3-0.1l-0.2-0.3c-0.1-0.1-0.1-0.2-0.1-0.3v-1.8
		c0-0.1,0-0.2,0.1-0.3l0.2-0.3c0.1-0.1,0.2-0.1,0.3-0.1h0.8c0.1,0,0.2,0,0.3,0.1l0.2,0.3c0.1,0.1,0.1,0.2,0.1,0.3v1.8
		c0,0.1,0,0.2-0.1,0.3L568.6,155.7z M568.5,155.2v-1.8l-0.2-0.2h-0.7l-0.2,0.2v1.8l0.2,0.2h0.7L568.5,155.2z"/>
	<path class="st0" d="M571,155.8l-0.7-0.9h-0.4v0.9h-0.4v-3h1.3c0.1,0,0.2,0,0.3,0.1l0.2,0.3c0.1,0.1,0.1,0.2,0.1,0.3v1
		c0,0.1,0,0.2-0.1,0.3l-0.2,0.3c0,0-0.1,0.1-0.2,0.1l0.5,0.6v0.3L571,155.8z M570.9,154.3v-0.9l-0.2-0.2h-0.8v1.3h0.8L570.9,154.3z"
		/>
	<path class="st0" d="M571.9,155.8v-3h1.7v0.4h-1.3v0.9h1v0.4h-1v0.9h1.3v0.4L571.9,155.8z"/>
	<path class="st0" d="M575.9,155.8v-1.7v-0.3l-0.4,0.9c0,0.1-0.1,0.2-0.2,0.2H575c-0.1,0-0.2-0.1-0.2-0.2l-0.4-0.9v0.4v1.7H574v-3.1
		h0.5l0.7,1.7h0.1l0.7-1.7h0.4v3H575.9z"/>
	<path class="st0" d="M577.9,155.8v-0.4h0.3v-2.2h-0.3v-0.4h1v0.4h-0.3v2.2h0.3v0.4H577.9z"/>
	<path class="st0" d="M581,154.8c-0.1,0.1-0.2,0.1-0.3,0.1h-0.9v0.9h-0.4v-3h1.3c0.1,0,0.2,0,0.3,0.1l0.2,0.3
		c0.1,0.1,0.1,0.2,0.1,0.3v1c0,0.1,0,0.2-0.1,0.3L581,154.8z M580.9,154.3v-0.9l-0.2-0.2h-0.8v1.3h0.8L580.9,154.3z"/>
	<path class="st0" d="M583.2,155.7c-0.1,0.1-0.2,0.1-0.3,0.1h-0.7c-0.1,0-0.2,0-0.3-0.1l-0.4-0.4l0.3-0.3l0.3,0.3h0.7l0.2-0.2v-0.4
		l-1.3-0.8c-0.1-0.1-0.1-0.2-0.1-0.3v-0.4c0-0.1,0-0.2,0.1-0.3l0.2-0.3c0.1-0.1,0.2-0.1,0.3-0.1h0.6c0.1,0,0.2,0,0.3,0.1l0.3,0.3
		l-0.3,0.3l-0.3-0.3h-0.6l-0.2,0.2v0.3l1.3,0.8c0.1,0.1,0.1,0.2,0.1,0.3v0.4c0,0.1,0,0.2-0.1,0.3L583.2,155.7z"/>
	<path class="st0" d="M585.6,155.7c-0.1,0.1-0.2,0.1-0.3,0.1h-0.8c-0.1,0-0.2,0-0.3-0.1l-0.2-0.3c-0.1-0.1-0.1-0.2-0.1-0.3v-2.3h0.4
		v2.4l0.2,0.2h0.7l0.2-0.2v-2.4h0.4v2.5c0,0.1,0,0.2-0.1,0.3L585.6,155.7z"/>
	<path class="st0" d="M588.4,155.8v-1.7v-0.3l-0.4,0.9c0,0.1-0.1,0.2-0.2,0.2h-0.3c-0.1,0-0.2-0.1-0.2-0.2l-0.4-0.9v0.4v1.7h-0.4
		v-3.1h0.4l0.7,1.7h0.1l0.7-1.7h0.4v3H588.4z"/>
	<path class="st0" d="M592.1,155.7c-0.1,0.1-0.2,0.1-0.3,0.1h-1.4v-3h1.4c0.1,0,0.2,0,0.3,0.1l0.2,0.3c0.1,0.1,0.1,0.2,0.1,0.3v1.8
		c0,0.1,0,0.2-0.1,0.3L592.1,155.7z M592,155.2v-1.8l-0.2-0.2h-0.9v2.2h0.9L592,155.2z"/>
	<path class="st0" d="M594.6,155.7c-0.1,0.1-0.2,0.1-0.3,0.1h-0.8c-0.1,0-0.2,0-0.3-0.1l-0.2-0.3c-0.1-0.1-0.1-0.2-0.1-0.3v-1.8
		c0-0.1,0-0.2,0.1-0.3l0.2-0.3c0.1-0.1,0.2-0.1,0.3-0.1h0.8c0.1,0,0.2,0,0.3,0.1l0.2,0.3c0.1,0.1,0.1,0.2,0.1,0.3v1.8
		c0,0.1,0,0.2-0.1,0.3L594.6,155.7z M594.5,155.2v-1.8l-0.2-0.2h-0.7l-0.2,0.2v1.8l0.2,0.2h0.8L594.5,155.2z"/>
	<path class="st0" d="M595.5,155.8v-3h0.4v2.6h1.2v0.4H595.5z"/>
	<path class="st0" d="M599.2,155.7c-0.1,0.1-0.2,0.1-0.3,0.1h-0.8c-0.1,0-0.2,0-0.3-0.1l-0.2-0.3c-0.1-0.1-0.1-0.2-0.1-0.3v-1.8
		c0-0.1,0-0.2,0.1-0.3l0.2-0.3c0.1-0.1,0.2-0.1,0.3-0.1h0.8c0.1,0,0.2,0,0.3,0.1l0.2,0.3c0.1,0.1,0.1,0.2,0.1,0.3v1.8
		c0,0.1,0,0.2-0.1,0.3L599.2,155.7z M599.1,155.2v-1.8l-0.2-0.2h-0.7l-0.2,0.2v1.8l0.2,0.2h0.7L599.1,155.2z"/>
	<path class="st0" d="M601.7,155.8l-0.7-0.9h-0.4v0.9h-0.4v-3h1.3c0.1,0,0.2,0,0.3,0.1l0.2,0.3c0.1,0.1,0.1,0.2,0.1,0.3v1
		c0,0.1,0,0.2-0.1,0.3l-0.2,0.3c0,0-0.1,0.1-0.2,0.1l0.5,0.6v0.3L601.7,155.8z M601.6,154.3v-0.9l-0.2-0.2h-0.8v1.3h0.8L601.6,154.3
		z"/>
	<path class="st0" d="M604.9,155.7c-0.1,0.1-0.2,0.1-0.3,0.1h-0.7c-0.1,0-0.2,0-0.3-0.1l-0.4-0.4l0.3-0.3l0.3,0.3h0.7l0.2-0.2v-0.4
		l-1.3-0.8c-0.1-0.1-0.1-0.2-0.1-0.3v-0.4c0-0.1,0-0.2,0.1-0.3l0.2-0.3c0.1-0.1,0.2-0.1,0.3-0.1h0.6c0.1,0,0.2,0,0.3,0.1l0.3,0.3
		l-0.3,0.3l-0.3-0.3h-0.6l-0.2,0.2v0.3l1.3,0.8c0.1,0.1,0.1,0.2,0.1,0.3v0.4c0,0.1,0,0.2-0.1,0.3L604.9,155.7z"/>
	<path class="st0" d="M605.7,155.8v-0.4h0.3v-2.2h-0.3v-0.4h1v0.4h-0.3v2.2h0.3v0.4H605.7z"/>
	<path class="st0" d="M607.9,155.8v-2.6h-0.8v-0.4h2v0.4h-0.8v2.6H607.9z"/>
	<path class="st0" d="M612.1,155.8l-0.2-0.9h-1l-0.2,0.9h-0.4v-0.3l0.6-2.6c0-0.1,0.1-0.2,0.2-0.2h0.5c0.1,0,0.2,0.1,0.2,0.2
		l0.6,2.6v0.3H612.1z M611.5,153.2h-0.2l-0.3,1.3h0.8L611.5,153.2z"/>
	<path class="st0" d="M614.7,155.8v-1.7v-0.3l-0.4,0.9c0,0.1-0.1,0.2-0.2,0.2h-0.3c-0.1,0-0.2-0.1-0.2-0.2l-0.4-0.9v0.4v1.7h-0.4
		v-3.1h0.4l0.7,1.7h0.1l0.7-1.7h0.4v3H614.7z"/>
	<path class="st0" d="M615.7,155.8v-3h1.7v0.4h-1.3v0.9h1v0.4h-1v0.9h1.3v0.4L615.7,155.8z"/>
	<path class="st0" d="M618.4,155.8v-2.6h-0.7v-0.4h2v0.4h-0.8v2.6H618.4z"/>
	<path class="st0" d="M20.3,81.6l-3.5-4.5h-2.2v4.5h-2.2V66.3h6.5c0.5,0,0.9,0.2,1.3,0.5l1.2,1.2c0.3,0.3,0.5,0.8,0.5,1.3v4.8
		c0,0.5-0.2,0.9-0.5,1.3l-1.2,1.2C20,76.8,19.7,77,19.4,77l2.5,3.2v1.3L20.3,81.6z M19.8,74v-4.6l-1-1h-4.2v6.7h4.2L19.8,74z"/>
	<path class="st0" d="M33.1,81.1c-0.3,0.3-0.8,0.5-1.3,0.5H28c-0.5,0-0.9-0.2-1.3-0.5l-1.2-1.2c-0.3-0.3-0.5-0.8-0.5-1.3V66.3h2.2
		v12.2l1,1h3.5l1-1V66.3h2.2v12.3c0,0.5-0.2,0.9-0.5,1.3L33.1,81.1z"/>
	<path class="st0" d="M46,81.1c-0.3,0.3-0.8,0.5-1.3,0.5h-6.5V66.3h6.1c0.5,0,0.9,0.2,1.3,0.5l1.2,1.2c0.3,0.3,0.5,0.8,0.5,1.3v2.3
		c0,0.5-0.2,0.9-0.5,1.3l-0.5,0.5l0.9,0.9c0.3,0.3,0.5,0.8,0.5,1.3v3c0,0.5-0.2,0.9-0.5,1.3L46,81.1z M45.2,71.5v-2.1l-1-1h-3.7v4.2
		h3.7L45.2,71.5z M45.6,78.5v-2.8l-1-1h-4.2v4.9h4.2L45.6,78.5z"/>
	<path class="st0" d="M58.7,81.6l-3.5-4.5H53v4.5h-2.2V66.3h6.5c0.5,0,0.9,0.2,1.3,0.5l1.2,1.2c0.3,0.3,0.5,0.8,0.5,1.3v4.8
		c0,0.5-0.2,0.9-0.5,1.3l-1.2,1.2c-0.2,0.2-0.5,0.4-0.8,0.4l2.5,3.2v1.3L58.7,81.6z M58.2,74v-4.6l-1-1H53v6.7h4.2L58.2,74z"/>
	<path class="st0" d="M63.1,81.6v-2h1.6V68.3h-1.6v-2h5.4v2h-1.6v11.3h1.6v2H63.1z"/>
	<path class="st0" d="M80.3,81.6L75,74.2l-1.2,1.2v6.3h-2.2V66.4h2.2v6.1l6.1-6.1h1.7v1.3l-5,5l5.4,7.6v1.3H80.3z"/>
	<path class="st0" d="M12.6,20.5v-3H13v2.6h1.2v0.4H12.6z"/>
	<path class="st0" d="M16.2,20.4c-0.1,0.1-0.2,0.1-0.3,0.1h-0.8c-0.1,0-0.2,0-0.3-0.1l-0.2-0.3c-0.1-0.1-0.1-0.2-0.1-0.3V18
		c0-0.1,0-0.2,0.1-0.3l0.2-0.3c0.1-0.1,0.2-0.1,0.3-0.1h0.8c0.1,0,0.2,0,0.3,0.1l0.2,0.3c0.1,0.1,0.1,0.2,0.1,0.3v1.8
		c0,0.1,0,0.2-0.1,0.3L16.2,20.4z M16.1,19.9v-1.8l-0.2-0.2h-0.7L15,18.1v1.8l0.2,0.2h0.7L16.1,19.9z"/>
	<path class="st0" d="M18.7,20.5L18,19.6h-0.4v0.9h-0.4v-3h1.3c0.1,0,0.2,0,0.3,0.1l0.2,0.3c0.1,0.1,0.1,0.2,0.1,0.3v1
		c0,0.1,0,0.2-0.1,0.3l-0.2,0.3c0,0-0.1,0.1-0.2,0.1l0.5,0.6v0.3L18.7,20.5z M18.6,19v-0.9l-0.2-0.2h-0.8v1.3h0.9L18.6,19z"/>
	<path class="st0" d="M19.5,20.5v-3h1.7v0.4h-1.3v0.9h1v0.4h-1v0.9h1.3v0.4L19.5,20.5z"/>
	<path class="st0" d="M23.5,20.5v-1.7v-0.4l-0.4,0.9c0,0.1-0.1,0.2-0.2,0.2h-0.2c-0.1,0-0.2-0.1-0.2-0.2l-0.4-0.9v0.4v1.7h-0.4v-3
		h0.4l0.7,1.7h0.1l0.7-1.7H24v3H23.5z"/>
	<path class="st0" d="M25.5,20.5v-0.4h0.3v-2.3h-0.3v-0.4h1v0.4h-0.3V20h0.3v0.4L25.5,20.5z"/>
	<path class="st0" d="M28.7,19.5c-0.1,0.1-0.2,0.1-0.3,0.1h-0.9v0.9h-0.4v-3h1.3c0.1,0,0.2,0,0.3,0.1l0.2,0.3C29,18,29,18.1,29,18.2
		v1c0,0.1,0,0.2-0.1,0.3L28.7,19.5z M28.6,19v-0.9l-0.2-0.2h-0.8v1.3h0.8L28.6,19z"/>
	<path class="st0" d="M30.9,20.4c-0.1,0.1-0.2,0.1-0.3,0.1h-0.7c-0.1,0-0.2,0-0.3-0.1L29.2,20l0.3-0.3l0.3,0.3h0.7l0.2-0.2v-0.4
		l-1.3-0.8c-0.1-0.1-0.1-0.2-0.1-0.3v-0.4c0-0.1,0-0.2,0.1-0.3l0.2-0.3c0.1-0.1,0.2-0.1,0.3-0.1h0.6c0.1,0,0.2,0,0.3,0.1l0.3,0.3
		l-0.3,0.3l-0.3-0.3h-0.6l-0.2,0.2v0.3l1.3,0.8c0.1,0.1,0.1,0.2,0.1,0.3v0.4c0,0.1,0,0.2-0.1,0.3L30.9,20.4z"/>
	<path class="st0" d="M33.3,20.4c-0.1,0.1-0.2,0.1-0.3,0.1h-0.8c-0.1,0-0.2,0-0.3-0.1l-0.2-0.3c-0.1-0.1-0.1-0.2-0.1-0.3v-2.5H32
		v2.4l0.2,0.2h0.7l0.2-0.2v-2.4h0.4v2.5c0,0.1,0,0.2-0.1,0.3L33.3,20.4z"/>
	<path class="st0" d="M36,20.5v-1.7v-0.4l-0.4,0.9c0,0.1-0.1,0.2-0.2,0.2h-0.3c-0.1,0-0.2-0.1-0.2-0.2l-0.4-0.9v0.4v1.7h-0.4v-3h0.4
		l0.7,1.7h0.1l0.7-1.7h0.4v3H36z"/>
	<path class="st0" d="M14.2,25c-0.1,0.1-0.2,0.1-0.3,0.1h-1.4v-3h1.4c0.1,0,0.2,0,0.3,0.1l0.2,0.3c0.1,0.1,0.1,0.2,0.1,0.3v1.8
		c0,0.1,0,0.2-0.1,0.3L14.2,25z M14.1,24.5v-1.8l-0.2-0.2H13v2.2h0.9L14.1,24.5z"/>
	<path class="st0" d="M16.7,25c-0.1,0.1-0.2,0.1-0.3,0.1h-0.7c-0.1,0-0.2,0-0.3-0.1l-0.2-0.3c-0.1-0.1-0.1-0.2-0.1-0.3v-1.8
		c0-0.1,0-0.2,0.1-0.3l0.2-0.3c0.1-0.1,0.2-0.1,0.3-0.1h0.8c0.1,0,0.2,0,0.3,0.1l0.2,0.3c0.1,0.1,0.1,0.2,0.1,0.3v1.8
		c0,0.1,0,0.2-0.1,0.3L16.7,25z M16.6,24.5v-1.8l-0.2-0.2h-0.7l-0.2,0.2v1.8l0.2,0.2h0.7L16.6,24.5z"/>
	<path class="st0" d="M17.6,25.1v-3H18v2.6h1.2v0.4H17.6z"/>
	<path class="st0" d="M21.3,25c-0.1,0.1-0.2,0.1-0.3,0.1h-0.8c-0.1,0-0.2,0-0.3-0.1l-0.2-0.3c-0.1-0.1-0.1-0.2-0.1-0.3v-1.8
		c0-0.1,0-0.2,0.1-0.3l0.2-0.3c0.1-0.1,0.2-0.1,0.3-0.1H21c0.1,0,0.2,0,0.3,0.1l0.2,0.3c0.1,0.1,0.1,0.2,0.1,0.3v1.8
		c0,0.1,0,0.2-0.1,0.3L21.3,25z M21.2,24.5v-1.8L21,22.5h-0.7l-0.2,0.2v1.8l0.2,0.2H21L21.2,24.5z"/>
	<path class="st0" d="M23.7,25.1L23,24.2h-0.5v0.9h-0.4v-3h1.3c0.1,0,0.2,0,0.3,0.1l0.2,0.3c0.1,0.1,0.1,0.2,0.1,0.3v1
		c0,0.1,0,0.2-0.1,0.3l-0.2,0.3c0,0-0.1,0.1-0.2,0.1l0.5,0.6v0.3L23.7,25.1z M23.7,23.6v-0.9l-0.2-0.2h-0.8v1.4h0.8L23.7,23.6z"/>
	<path class="st0" d="M27.1,25c-0.1,0.1-0.2,0.1-0.3,0.1h-0.7c-0.1,0-0.2,0-0.3-0.1l-0.4-0.4l0.3-0.3l0.3,0.3h0.7l0.2-0.2V24
		l-1.3-0.8c-0.1-0.1-0.1-0.2-0.1-0.3v-0.4c0-0.1,0-0.2,0.1-0.3l0.2-0.3c0.1-0.1,0.2-0.1,0.3-0.1h0.6c0.1,0,0.2,0,0.3,0.1l0.3,0.3
		L27,22.5l-0.3-0.3h-0.6l-0.2,0.2v0.3l1.3,0.8c0.1,0.1,0.1,0.2,0.1,0.3v0.4c0,0.1,0,0.2-0.1,0.3L27.1,25z"/>
	<path class="st0" d="M27.8,25.1v-0.4h0.3v-2.2h-0.3v-0.4h1v0.4h-0.3v2.2h0.3v0.4H27.8z"/>
	<path class="st0" d="M30,25.1v-2.6h-0.8v-0.4h2v0.4h-0.8v2.6H30z"/>
	<path class="st0" d="M34.2,25.1L34,24.2h-1l-0.2,0.9h-0.4v-0.3l0.6-2.6c0-0.1,0.1-0.2,0.2-0.2h0.5c0.1,0,0.2,0.1,0.2,0.2l0.6,2.6
		v0.3H34.2z M33.6,22.5h-0.2l-0.3,1.3h0.8L33.6,22.5z"/>
	<path class="st0" d="M36.8,25.1v-1.7V23l-0.4,0.9c0,0.1-0.1,0.2-0.2,0.2h-0.3c-0.1,0-0.2-0.1-0.2-0.2L35.3,23v0.4v1.7h-0.4v-3h0.4
		l0.7,1.7h0.1l0.7-1.7h0.4v3H36.8z"/>
	<path class="st0" d="M37.8,25.1v-3h1.7v0.4h-1.3v0.9h1v0.4h-1v0.9h1.3v0.4L37.8,25.1z"/>
	<path class="st0" d="M40.5,25.1v-2.6h-0.8v-0.4h2v0.4h-0.8v2.6H40.5z"/>
	<path class="st0" d="M186.2,20.5v-3h0.4v2.6h1.2v0.4H186.2z"/>
	<path class="st0" d="M189.9,20.4c-0.1,0.1-0.2,0.1-0.3,0.1h-0.8c-0.1,0-0.2,0-0.3-0.1l-0.2-0.3c-0.1-0.1-0.1-0.2-0.1-0.3V18
		c0-0.1,0-0.2,0.1-0.3l0.2-0.3c0.1-0.1,0.2-0.1,0.3-0.1h0.8c0.1,0,0.2,0,0.3,0.1l0.2,0.3c0.1,0.1,0.1,0.2,0.1,0.3v1.8
		c0,0.1,0,0.2-0.1,0.3L189.9,20.4z M189.8,19.9v-1.8l-0.2-0.2h-0.7l-0.2,0.2v1.8l0.2,0.2h0.7L189.8,19.9z"/>
	<path class="st0" d="M192.4,20.5l-0.7-0.9h-0.4v0.9h-0.4v-3h1.3c0.1,0,0.2,0,0.3,0.1l0.2,0.3c0.1,0.1,0.1,0.2,0.1,0.3v1
		c0,0.1,0,0.2-0.1,0.3l-0.2,0.3c0,0-0.1,0.1-0.2,0.1l0.5,0.6v0.3L192.4,20.5z M192.3,19v-0.9l-0.2-0.2h-0.8v1.3h0.8L192.3,19z"/>
	<path class="st0" d="M193.2,20.5v-3h1.7v0.4h-1.3v0.9h1v0.4h-1v0.9h1.3v0.4L193.2,20.5z"/>
	<path class="st0" d="M197.2,20.5v-1.7v-0.4l-0.4,0.9c0,0.1-0.1,0.2-0.2,0.2h-0.3c-0.1,0-0.2-0.1-0.2-0.2l-0.4-0.9v0.4v1.7h-0.4v-3
		h0.4l0.7,1.7h0.1l0.7-1.7h0.4v3H197.2z"/>
	<path class="st0" d="M199.2,20.5v-0.4h0.3v-2.3h-0.3v-0.4h1v0.4h-0.3V20h0.3v0.4L199.2,20.5z"/>
	<path class="st0" d="M202.3,19.5c-0.1,0.1-0.2,0.1-0.3,0.1h-0.9v0.9h-0.4v-3h1.2c0.1,0,0.2,0,0.3,0.1l0.2,0.3
		c0.1,0.1,0.1,0.2,0.1,0.3v1C202.5,19.3,202.5,19.4,202.3,19.5L202.3,19.5z M202.3,19v-0.9l-0.2-0.2h-0.8v1.3h0.8L202.3,19z"/>
	<path class="st0" d="M204.5,20.4c-0.1,0.1-0.2,0.1-0.3,0.1h-0.7c-0.1,0-0.2,0-0.3-0.1l-0.4-0.4l0.3-0.3l0.3,0.3h0.7l0.2-0.2v-0.4
		l-1.3-0.8c-0.1-0.1-0.1-0.2-0.1-0.3v-0.4c0-0.1,0-0.2,0.1-0.3l0.2-0.3c0.1-0.1,0.2-0.1,0.3-0.1h0.6c0.1,0,0.2,0,0.3,0.1l0.3,0.3
		l-0.3,0.3l-0.3-0.3h-0.4l-0.2,0.2v0.3l1.3,0.8c0.1,0.1,0.1,0.2,0.1,0.3v0.4c0,0.1,0,0.2-0.1,0.3L204.5,20.4z"/>
	<path class="st0" d="M207,20.4c-0.1,0.1-0.2,0.1-0.3,0.1h-0.8c-0.1,0-0.2,0-0.3-0.1l-0.2-0.3c-0.1-0.1-0.1-0.2-0.1-0.3v-2.5h0.4
		v2.4l0.2,0.2h0.7l0.2-0.2v-2.4h0.4v2.5c0,0.1,0,0.2-0.1,0.3L207,20.4z"/>
	<path class="st0" d="M209.7,20.5v-1.7v-0.4l-0.4,0.9c0,0.1-0.1,0.2-0.2,0.2h-0.3c-0.1,0-0.2-0.1-0.2-0.2l-0.4-0.9v0.4v1.7h-0.4v-3
		h0.5l0.7,1.7h0.1l0.7-1.7h0.4v3H209.7z"/>
	<path class="st0" d="M187.9,25c-0.1,0.1-0.2,0.1-0.3,0.1h-1.4v-3h1.4c0.1,0,0.2,0,0.3,0.1l0.2,0.3c0.1,0.1,0.1,0.2,0.1,0.3v1.8
		c0,0.1,0,0.2-0.1,0.3L187.9,25z M187.8,24.5v-1.8l-0.2-0.2h-0.9v2.2h0.9L187.8,24.5z"/>
	<path class="st0" d="M190.4,25c-0.1,0.1-0.2,0.1-0.3,0.1h-0.8c-0.1,0-0.2,0-0.3-0.1l-0.2-0.3c-0.1-0.1-0.1-0.2-0.1-0.3v-1.8
		c0-0.1,0-0.2,0.1-0.3L189,22c0.1-0.1,0.2-0.1,0.3-0.1h0.8c0.1,0,0.2,0,0.3,0.1l0.2,0.3c0.1,0.1,0.1,0.2,0.1,0.3v1.8
		c0,0.1,0,0.2-0.1,0.3L190.4,25z M190.3,24.5v-1.8l-0.2-0.2h-0.7l-0.2,0.2v1.8l0.2,0.2h0.7L190.3,24.5z"/>
	<path class="st0" d="M191.3,25.1v-3h0.4v2.6h1.2v0.4H191.3z"/>
	<path class="st0" d="M195,25c-0.1,0.1-0.2,0.1-0.3,0.1h-0.8c-0.1,0-0.2,0-0.3-0.1l-0.2-0.3c-0.1-0.1-0.1-0.2-0.1-0.3v-1.8
		c0-0.1,0-0.2,0.1-0.3l0.2-0.3c0.1-0.1,0.2-0.1,0.3-0.1h0.8c0.1,0,0.2,0,0.3,0.1l0.2,0.3c0.1,0.1,0.1,0.2,0.1,0.3v1.8
		c0,0.1,0,0.2-0.1,0.3L195,25z M194.9,24.5v-1.8l-0.2-0.2H194l-0.2,0.2v1.8l0.2,0.2h0.7L194.9,24.5z"/>
	<path class="st0" d="M197.4,25.1l-0.7-0.9h-0.4v0.9h-0.4v-3h1.3c0.1,0,0.2,0,0.3,0.1l0.2,0.3c0.1,0.1,0.1,0.2,0.1,0.3v1
		c0,0.1,0,0.2-0.1,0.3l-0.2,0.3c0,0-0.1,0.1-0.2,0.1l0.5,0.6v0.3L197.4,25.1z M197.3,23.6v-0.9l-0.2-0.2h-0.8v1.4h0.8L197.3,23.6z"
		/>
	<path class="st0" d="M200.7,25c-0.1,0.1-0.2,0.1-0.3,0.1h-0.7c-0.1,0-0.2,0-0.3-0.1l-0.4-0.4l0.3-0.3l0.3,0.3h0.7l0.2-0.2V24
		l-1.3-0.8c-0.1-0.1-0.1-0.2-0.1-0.3v-0.4c0-0.1,0-0.2,0.1-0.3l0.2-0.3c0.1-0.1,0.2-0.1,0.3-0.1h0.6c0.1,0,0.2,0,0.3,0.1l0.3,0.3
		l-0.3,0.3l-0.3-0.3h-0.6l-0.2,0.2v0.3l1.3,0.9c0.1,0.1,0.1,0.2,0.1,0.3v0.4c0,0.1,0,0.2-0.1,0.3L200.7,25z"/>
	<path class="st0" d="M201.5,25.1v-0.4h0.3v-2.2h-0.3v-0.4h1v0.4h-0.3v2.2h0.3v0.4H201.5z"/>
	<path class="st0" d="M203.7,25.1v-2.6h-0.8v-0.4h2v0.4h-0.8v2.6H203.7z"/>
	<path class="st0" d="M207.9,25.1l-0.2-0.9h-1l-0.2,0.9h-0.4v-0.3l0.6-2.6c0-0.1,0.1-0.2,0.2-0.2h0.5c0.1,0,0.2,0.1,0.2,0.2l0.6,2.6
		v0.3H207.9z M207.3,22.5h-0.2l-0.3,1.3h0.8L207.3,22.5z"/>
	<path class="st0" d="M210.5,25.1v-1.7V23l-0.4,0.9c0,0.1-0.1,0.2-0.2,0.2h-0.3c-0.1,0-0.2-0.1-0.2-0.2L209,23v0.4v1.7h-0.4v-3h0.4
		l0.7,1.7h0.1l0.7-1.7h0.4v3H210.5z"/>
	<path class="st0" d="M211.4,25.1v-3h1.7v0.4h-1.3v0.9h1v0.4h-1v0.9h1.3v0.4L211.4,25.1z"/>
	<path class="st0" d="M214.2,25.1v-2.6h-0.8v-0.4h2v0.4h-0.7v2.6H214.2z"/>
</g>
</svg>
