<?xml version="1.0" encoding="utf-8"?>
<!-- Generator: Adobe Illustrator 20.1.0, SVG Export Plug-In . SVG Version: 6.00 Build 0)  -->
<svg version="1.1" id="Layer_1" xmlns="http://www.w3.org/2000/svg" xmlns:xlink="http://www.w3.org/1999/xlink" x="0px" y="0px"
	 viewBox="0 0 731.7 342.8" style="enable-background:new 0 0 731.7 342.8;" xml:space="preserve">
<style type="text/css">
	.st0{fill:#FFFFFF;}
	.st1{opacity:0.3;fill:none;stroke:#000000;stroke-miterlimit:10;enable-background:new    ;}
	.st2{fill:#BEBEBE;}
	.st3{fill:#969696;}
	.st4{fill:none;stroke:#00FFFF;stroke-miterlimit:10;}
	.st5{opacity:0.15;fill:#FFFFFF;enable-background:new    ;}
	.st6{fill:none;stroke:#00FFFF;stroke-width:0.5;stroke-miterlimit:10;}
	.st7{fill:none;stroke:#00FFFF;stroke-width:0.25;stroke-miterlimit:10;}
</style>
<rect x="0.7" y="0.6" class="st0" width="311.9" height="175.2"/>
<rect x="349.6" y="0.6" class="st0" width="103.1" height="103.4"/>
<line class="st1" x1="312.5" y1="0.6" x2="0.7" y2="175.8"/>
<line class="st1" x1="0.7" y1="0.6" x2="312.5" y2="175.8"/>
<rect x="0.7" y="102.6" class="st2" width="78" height="14.6"/>
<rect x="0.7" y="73.4" class="st3" width="104" height="29.2"/>
<rect x="0.7" y="0.6" class="st4" width="311.9" height="174.9"/>
<line class="st4" x1="0.7" y1="15.1" x2="312.5" y2="15.1"/>
<line class="st4" x1="0.7" y1="29.7" x2="312.5" y2="29.7"/>
<line class="st4" x1="0.7" y1="44.3" x2="312.5" y2="44.3"/>
<line class="st4" x1="0.7" y1="58.9" x2="312.5" y2="58.9"/>
<line class="st4" x1="0.7" y1="73.4" x2="312.5" y2="73.4"/>
<line class="st4" x1="0.7" y1="88" x2="312.5" y2="88"/>
<line class="st4" x1="0.7" y1="102.6" x2="312.5" y2="102.6"/>
<line class="st4" x1="0.7" y1="117.2" x2="312.5" y2="117.2"/>
<line class="st4" x1="0.7" y1="131.7" x2="312.5" y2="131.7"/>
<line class="st4" x1="0.7" y1="146.3" x2="312.5" y2="146.3"/>
<line class="st4" x1="0.7" y1="160.9" x2="312.5" y2="160.9"/>
<line class="st4" x1="286.6" y1="175.5" x2="286.6" y2="0.6"/>
<line class="st4" x1="260.6" y1="175.5" x2="260.6" y2="0.6"/>
<line class="st4" x1="234.6" y1="175.5" x2="234.6" y2="0.6"/>
<line class="st4" x1="208.6" y1="175.5" x2="208.6" y2="0.6"/>
<line class="st4" x1="182.6" y1="175.5" x2="182.6" y2="0.6"/>
<line class="st4" x1="156.6" y1="175.5" x2="156.6" y2="0.6"/>
<line class="st4" x1="130.6" y1="175.5" x2="130.6" y2="0.6"/>
<line class="st4" x1="104.6" y1="175.5" x2="104.6" y2="0.6"/>
<line class="st4" x1="78.6" y1="175.5" x2="78.6" y2="0.6"/>
<line class="st4" x1="52.6" y1="175.5" x2="52.6" y2="0.6"/>
<line class="st4" x1="26.7" y1="175.5" x2="26.7" y2="0.6"/>
<path class="st0" d="M21.8,94.8l-3.1-4h-2v4h-2V81h5.8c0.4,0,0.8,0.2,1.1,0.5l1.1,1.1c0.3,0.3,0.5,0.7,0.5,1.1V88
	c0,0.4-0.2,0.8-0.5,1.1l-1.1,1.1c-0.2,0.2-0.4,0.3-0.7,0.4l2.3,2.9v1.2L21.8,94.8z M21.3,88v-4.2l-0.9-0.9h-3.7v6h3.7L21.3,88z"/>
<path class="st0" d="M33.4,94.3c-0.3,0.3-0.7,0.5-1.1,0.5h-3.5c-0.4,0-0.8-0.2-1.1-0.5l-1.1-1c-0.3-0.3-0.5-0.7-0.5-1.1V81.1h2v11
	L29,93h3.1l0.9-0.9v-11h2v11.1c0,0.4-0.2,0.8-0.5,1.1L33.4,94.3z"/>
<path class="st0" d="M45,94.3c-0.3,0.3-0.7,0.5-1.1,0.5h-5.8V81h5.5c0.4,0,0.8,0.2,1.1,0.5l1.1,1.1c0.3,0.3,0.5,0.7,0.5,1.1v2.1
	c0,0.4-0.2,0.8-0.5,1.1l-0.5,0.5l0.8,0.8c0.3,0.3,0.5,0.7,0.5,1.1V92c0,0.4-0.2,0.8-0.5,1.1L45,94.3z M44.3,85.7v-1.8L43.4,83H40
	v3.7h3.4L44.3,85.7z M44.6,91.9v-2.5l-0.9-0.9H40v4.4h3.7L44.6,91.9z"/>
<path class="st0" d="M56.5,94.8l-3.1-4h-1.9v4h-2V81h5.8c0.4,0,0.8,0.2,1.1,0.5l1.1,1.1c0.3,0.3,0.5,0.7,0.5,1.1V88
	c0,0.4-0.2,0.8-0.5,1.1l-1.1,1.1c-0.2,0.2-0.4,0.3-0.7,0.4l2.3,2.9v1.2L56.5,94.8z M56,88v-4.2l-0.9-0.9h-3.7v6h3.7L56,88z"/>
<path class="st0" d="M60.5,94.8V93H62V82.8h-1.5V81h4.9v1.8H64V93h1.5v1.8H60.5z"/>
<path class="st0" d="M76,94.8l-4.8-6.7l-1,1v5.6h-2V80.9h2v5.5l5.5-5.5h1.5V82l-4.5,4.6l4.9,6.9v1.2L76,94.8z"/>
<path class="st0" d="M15,111.2c-0.1,0.1-0.1,0.1-0.2,0.1h-0.7c-0.1,0-0.2,0-0.2-0.1l-0.3-0.3l0.3-0.3l0.3,0.3h0.6l0.2-0.2v-0.3
	l-1.2-0.7c-0.1-0.1-0.1-0.1-0.1-0.2v-0.4c0-0.1,0-0.2,0.1-0.2l0.2-0.2c0.1-0.1,0.1-0.1,0.2-0.1h0.6c0.1,0,0.2,0,0.2,0.1l0.3,0.3
	l-0.3,0.3l-0.2-0.3h-0.5l-0.2,0.2v0.3l1.2,0.7c0.1,0.1,0.1,0.1,0.1,0.2v0.4c0,0.1,0,0.2-0.1,0.2L15,111.2z"/>
<path class="st0" d="M17.2,111.2c-0.1,0.1-0.1,0.1-0.2,0.1h-0.7c-0.1,0-0.2,0-0.2-0.1l-0.2-0.2c-0.1-0.1-0.1-0.1-0.1-0.2v-2.2h0.4
	v2.2l0.2,0.2H17l0.2-0.2v-2.2h0.4v2.2c0,0.1,0,0.2-0.1,0.2L17.2,111.2z"/>
<path class="st0" d="M19.4,111.2c-0.1,0.1-0.1,0.1-0.2,0.1H18v-2.8h1c0.1,0,0.2,0,0.2,0.1l0.2,0.2c0.1,0.1,0.1,0.1,0.1,0.2v0.4
	c0,0.1,0,0.2-0.1,0.2l-0.1,0.1l0.2,0.2c0.1,0.1,0.1,0.1,0.1,0.2v0.6c0,0.1,0,0.2-0.1,0.2L19.4,111.2z M19.3,109.5v-0.4l-0.2-0.2
	h-0.7v0.8h0.7L19.3,109.5z M19.3,110.7v-0.5l-0.2-0.2h-0.8v0.9h0.8L19.3,110.7z"/>
<path class="st0" d="M22.5,111.3v-1.2h-1v1.2h-0.4v-2.8h0.4v1.2h1v-1.2h0.4v2.8H22.5z"/>
<path class="st0" d="M23.4,111.3v-2.8H25v0.4h-1.2v0.8h0.9v0.4h-0.9v0.8H25v0.4L23.4,111.3z"/>
<path class="st0" d="M26.8,111.3l-0.2-0.8h-0.8l-0.2,0.8h-0.3V111l0.5-2.3c0-0.1,0.1-0.2,0.2-0.1h0.4c0.1,0,0.2,0.1,0.2,0.1l0.6,2.3
	v0.3H26.8z M26.3,108.9h-0.1l-0.3,1.2h0.7L26.3,108.9z"/>
<path class="st0" d="M29,111.2c-0.1,0.1-0.1,0.1-0.2,0.1h-1.2v-2.8h1.2c0.1,0,0.2,0,0.2,0.1l0.2,0.2c0.1,0.1,0.1,0.1,0.1,0.2v1.7
	c0,0.1,0,0.2-0.1,0.2L29,111.2z M28.9,110.7v-1.6l-0.2-0.2h-0.8v2h0.8L28.9,110.7z"/>
<path class="st0" d="M29.6,111.8l1.7-3.3h0.3l-1.7,3.3H29.6z"/>
<path class="st0" d="M33.1,111.2c-0.1,0.1-0.1,0.1-0.2,0.1h-0.7c-0.1,0-0.2,0-0.2-0.1l-0.3-0.3l0.3-0.3l0.3,0.3h0.6l0.2-0.2v-0.3
	l-1.2-0.7c-0.1-0.1-0.1-0.1-0.1-0.2v-0.4c0-0.1,0-0.2,0.1-0.2l0.2-0.2c0.1-0.1,0.1-0.1,0.2-0.1h0.6c0.1,0,0.2,0,0.2,0.1l0.3,0.3
	l-0.3,0.3l-0.2-0.3h-0.5l-0.2,0.2v0.3l1.2,0.7c0.1,0.1,0.1,0.1,0.1,0.2v0.4c0,0.1,0,0.2-0.1,0.2L33.1,111.2z"/>
<path class="st0" d="M33.8,111.3v-2.8h1.6v0.4h-1.2v0.8h0.9v0.4h-0.9v0.8h1.2v0.4L33.8,111.3z"/>
<path class="st0" d="M37.3,111.2c-0.1,0.1-0.1,0.1-0.2,0.1h-0.7c-0.1,0-0.2,0-0.2-0.1L36,111c-0.1-0.1-0.1-0.1-0.1-0.2v-1.7
	c0-0.1,0-0.2,0.1-0.2l0.2-0.2c0.1-0.1,0.1-0.1,0.2-0.1h0.7c0.1,0,0.2,0,0.2,0.1l0.3,0.3l-0.3,0.3l-0.2-0.3h-0.6l-0.2,0.2v1.6
	l0.2,0.2h0.6l0.2-0.3l0.3,0.3L37.3,111.2z"/>
<path class="st0" d="M39.5,111.2c-0.1,0.1-0.1,0.1-0.2,0.1h-0.7c-0.1,0-0.2,0-0.2-0.1l-0.2-0.2c-0.1-0.1-0.1-0.1-0.1-0.2v-1.7
	c0-0.1,0-0.2,0.1-0.2l0.2-0.2c0.1-0.1,0.1-0.1,0.2-0.1h0.7c0.1,0,0.2,0,0.2,0.1l0.2,0.2c0.1,0.1,0.1,0.1,0.1,0.2v1.7
	c0,0.1,0,0.2-0.1,0.2L39.5,111.2z M39.4,110.7v-1.6l-0.2-0.2h-0.6l-0.2,0.2v1.6l0.2,0.2h0.6L39.4,110.7z"/>
<path class="st0" d="M41.6,111.3v-0.6l-0.9-1.5v2.1h-0.4v-2.8h0.4l0.9,1.5v-1.5H42v2.8H41.6z"/>
<path class="st0" d="M44,111.2c-0.1,0.1-0.1,0.1-0.2,0.1h-1.2v-2.8h1.2c0.1,0,0.2,0,0.2,0.1l0.2,0.2c0.1,0.1,0.1,0.1,0.1,0.2v1.7
	c0,0.1,0,0.2-0.1,0.2L44,111.2z M43.9,110.7v-1.6l-0.2-0.2h-0.8v2h0.8L43.9,110.7z"/>
<path class="st0" d="M46.3,111.3l-0.2-0.8h-0.9l-0.2,0.8h-0.3V111l0.6-2.3c0-0.1,0.1-0.2,0.2-0.1h0.3c0.1,0,0.2,0.1,0.2,0.1l0.6,2.3
	v0.3H46.3z M45.7,108.9L45.7,108.9l-0.4,1.2H46L45.7,108.9z"/>
<path class="st0" d="M48.3,111.3l-0.6-0.8h-0.4v0.8h-0.4v-2.8h1.2c0.1,0,0.2,0,0.2,0.1l0.2,0.2c0.1,0.1,0.1,0.1,0.1,0.2v0.9
	c0,0.1,0,0.2-0.1,0.2l-0.2,0.2l-0.1,0.1l0.5,0.6v0.2L48.3,111.3L48.3,111.3z M48.3,110v-0.8l-0.2-0.2h-0.8v1.2h0.8L48.3,110z"/>
<path class="st0" d="M49.7,111.3v-1l-0.6-0.6c-0.1-0.1-0.1-0.1-0.1-0.2v-0.9h0.4v0.9l0.5,0.5l0.5-0.5v-0.9h0.4v0.9
	c0,0.1,0,0.2-0.1,0.2l-0.6,0.6v1H49.7z"/>
<path class="st0" d="M52.2,111.3v-0.4h0.3v-2.1h-0.3v-0.4h1v0.4h-0.4v2.1h0.3v0.4H52.2z"/>
<path class="st0" d="M54.9,111.3v-0.6l-0.9-1.5v2.1h-0.4v-2.8H54l0.9,1.5v-1.5h0.4v2.8H54.9z"/>
<path class="st0" d="M55.8,111.3v-2.8h1.5v0.4h-1.1v0.8H57v0.4h-0.8v1.2L55.8,111.3z"/>
<path class="st0" d="M59.1,111.2c-0.1,0.1-0.1,0.1-0.2,0.1h-0.7c-0.1,0-0.2,0-0.2-0.1l-0.2-0.2c-0.1-0.1-0.1-0.1-0.1-0.2v-1.7
	c0-0.1,0-0.2,0.1-0.2l0.2-0.2c0.1-0.1,0.1-0.1,0.2-0.1h0.7c0.1,0,0.2,0,0.2,0.1l0.2,0.2c0.1,0.1,0.1,0.1,0.1,0.2v1.7
	c0,0.1,0,0.2-0.1,0.2L59.1,111.2z M59.1,110.7v-1.6l-0.2-0.2h-0.6l-0.2,0.2v1.6l0.2,0.2h0.6L59.1,110.7z"/>
<path class="st0" d="M61.4,111.3l-0.6-0.8h-0.4v0.8H60v-2.8h1.2c0.1,0,0.2,0,0.2,0.1l0.2,0.2c0.1,0.1,0.1,0.1,0.1,0.2v0.9
	c0,0.1,0,0.2-0.1,0.2l-0.2,0.2l-0.1,0.1l0.5,0.6v0.2L61.4,111.3L61.4,111.3z M61.3,110v-0.8l-0.2-0.2h-0.7v1.2h0.8L61.3,110z"/>
<path class="st0" d="M63.8,111.3v-1.9l-0.3,0.9c0,0.1-0.1,0.1-0.2,0.1H63c-0.1,0-0.2-0.1-0.2-0.1l-0.3-0.9v1.9h-0.4v-2.8h0.4
	l0.6,1.5h0.1l0.6-1.5h0.4v2.8H63.8z"/>
<path class="st0" d="M66.1,111.3l-0.2-0.8H65l-0.2,0.8h-0.3V111l0.6-2.3c0-0.1,0.1-0.2,0.2-0.1h0.4c0.1,0,0.2,0.1,0.2,0.1l0.6,2.3
	v0.3H66.1z M65.6,108.9L65.6,108.9l-0.4,1.2h0.7L65.6,108.9z"/>
<path class="st0" d="M67.4,111.3v-2.4h-0.7v-0.4h1.8v0.4h-0.7v2.4H67.4z"/>
<path class="st0" d="M68.7,111.3v-0.4H69v-2.1h-0.3v-0.4h1v0.4h-0.3v2.1h0.3v0.4H68.7z"/>
<path class="st0" d="M71.6,111.2c-0.1,0.1-0.1,0.1-0.2,0.1h-0.7c-0.1,0-0.2,0-0.2-0.1l-0.2-0.2c-0.1-0.1-0.1-0.1-0.1-0.2v-1.7
	c0-0.1,0-0.2,0.1-0.2l0.2-0.2c0.1-0.1,0.1-0.1,0.2-0.1h0.7c0.1,0,0.2,0,0.2,0.1l0.2,0.2c0.1,0.1,0.1,0.1,0.1,0.2v1.7
	c0,0.1,0,0.2-0.1,0.2L71.6,111.2z M71.6,110.7v-1.6l-0.2-0.2h-0.6l-0.2,0.2v1.6l0.2,0.2h0.6L71.6,110.7z"/>
<path class="st0" d="M73.8,111.3v-0.6l-0.9-1.5v2.1h-0.4v-2.8h0.4l0.9,1.5v-1.5h0.4v2.8H73.8z"/>
<rect x="349.6" y="0.6" class="st5" width="103.1" height="68.5"/>
<line class="st1" x1="452.7" y1="0.6" x2="349.6" y2="69.1"/>
<line class="st1" x1="349.6" y1="0.6" x2="452.7" y2="69.1"/>
<rect x="349.6" y="86.5" class="st2" width="103.1" height="17.4"/>
<rect x="349.6" y="69.1" class="st3" width="103.1" height="17.4"/>
<rect x="349.6" y="0.6" class="st6" width="103.1" height="103.1"/>
<line class="st6" x1="349.6" y1="9.2" x2="452.7" y2="9.2"/>
<line class="st6" x1="349.6" y1="17.8" x2="452.7" y2="17.8"/>
<line class="st6" x1="349.6" y1="26.4" x2="452.7" y2="26.4"/>
<line class="st6" x1="349.6" y1="34.9" x2="452.7" y2="34.9"/>
<line class="st6" x1="349.6" y1="43.5" x2="452.7" y2="43.5"/>
<line class="st6" x1="349.6" y1="52.1" x2="452.7" y2="52.1"/>
<line class="st6" x1="349.6" y1="60.7" x2="452.7" y2="60.7"/>
<line class="st6" x1="349.6" y1="69.3" x2="452.7" y2="69.3"/>
<line class="st6" x1="349.6" y1="77.9" x2="452.7" y2="77.9"/>
<line class="st6" x1="349.6" y1="86.5" x2="452.7" y2="86.5"/>
<line class="st6" x1="349.6" y1="95.1" x2="452.7" y2="95.1"/>
<line class="st6" x1="444.1" y1="103.7" x2="444.1" y2="0.6"/>
<line class="st6" x1="435.5" y1="103.7" x2="435.5" y2="0.6"/>
<line class="st6" x1="426.9" y1="103.7" x2="426.9" y2="0.6"/>
<line class="st6" x1="418.3" y1="103.7" x2="418.3" y2="0.6"/>
<line class="st6" x1="409.7" y1="103.7" x2="409.7" y2="0.6"/>
<line class="st6" x1="401.1" y1="103.7" x2="401.1" y2="0.6"/>
<line class="st6" x1="392.5" y1="103.7" x2="392.5" y2="0.6"/>
<line class="st6" x1="383.9" y1="103.7" x2="383.9" y2="0.6"/>
<line class="st6" x1="375.3" y1="103.7" x2="375.3" y2="0.6"/>
<line class="st6" x1="366.7" y1="103.7" x2="366.7" y2="0.6"/>
<line class="st6" x1="358.1" y1="103.7" x2="358.1" y2="0.6"/>
<rect x="489.8" y="0.6" class="st3" width="241.9" height="342.2"/>
<rect x="489.8" y="0.6" class="st4" width="241.9" height="342.2"/>
<line class="st4" x1="510" y1="342.7" x2="510" y2="0.6"/>
<line class="st7" x1="530.1" y1="342.7" x2="530.1" y2="0.6"/>
<line class="st4" x1="550.3" y1="342.7" x2="550.3" y2="0.6"/>
<line class="st7" x1="570.5" y1="342.7" x2="570.5" y2="0.6"/>
<line class="st4" x1="590.6" y1="342.7" x2="590.6" y2="0.6"/>
<line class="st7" x1="610.8" y1="342.7" x2="610.8" y2="0.6"/>
<line class="st4" x1="630.9" y1="342.7" x2="630.9" y2="0.6"/>
<line class="st7" x1="651.1" y1="342.7" x2="651.1" y2="0.6"/>
<line class="st4" x1="671.3" y1="342.7" x2="671.3" y2="0.6"/>
<line class="st7" x1="691.4" y1="342.7" x2="691.4" y2="0.6"/>
<line class="st4" x1="711.6" y1="342.7" x2="711.6" y2="0.6"/>
<path class="st0" d="M539.9,82.9c-1.4,1.4-3.3,2.1-5.2,2.1h-15.3c-1.9,0-3.8-0.7-5.2-2.1l-7.3-7.5l6.7-5.6l6.5,6.7H534l4.2-4.3v-7.3
	L511.7,48c-1.5-1-2.2-3.3-2.2-5.2v-8.2c0.1-1.9,0.8-3.8,2.2-5.2l5-5.1c1.4-1.4,3.3-2.1,5.2-2.1h12.8c1.9,0,3.8,0.7,5.2,2.1l6.3,6.4
	l-6.7,5.6l-5.5-5.6h-11.5l-4.2,4.3v6.4l26.5,16.9c1.5,1,2.2,3.3,2.2,5.2v9c-0.1,1.9-0.8,3.8-2.2,5.2L539.9,82.9z"/>
<path class="st0" d="M603.9,85V30.8h-15.7v-8.5h40.3v8.5h-15.7V85H603.9z"/>
<path class="st0" d="M703.7,82.9c-1.4,1.4-3.3,2.1-5.2,2.1h-15.8c-1.9,0-3.8-0.7-5.2-2.1l-5-5.1c-1.4-1.4-2.1-3.2-2.2-5.2V34.5
	c0.1-1.9,0.8-3.8,2.2-5.2l5-5.1c1.4-1.3,3.3-2.1,5.2-2.1h15.7c1.9,0,3.8,0.7,5.2,2.1l5,5.1c1.4,1.4,2.1,3.2,2.2,5.2v38.2
	c-0.1,1.9-0.8,3.8-2.2,5.2L703.7,82.9z M702,72.2V35.1l-4.2-4.3h-14.5l-4.2,4.3v37.1l4.2,4.3h14.4L702,72.2z"/>
<path class="st0" d="M540.4,290.1v-27.7h-22.3v27.7h-8.9v-62.7h8.9V254h22.2v-26.6h8.9v62.7H540.4z"/>
<path class="st0" d="M593.1,290.1v-62.7H629v8.5h-27v18.3h20.7v8.5H602v18.8h27v8.5L593.1,290.1z"/>
<path class="st0" d="M687.3,290.1v-54.2h-15.7v-8.5h40.3v8.5h-15.7v54.2H687.3z"/>
<path class="st0" d="M513.7,187v-62.7h8.9v54.2h24.5v8.5H513.7z"/>
<path class="st0" d="M687,187v-54.2h-15.7v-8.5h40.3v8.5h-15.7V187H687z"/>
<rect x="611.3" y="146.8" transform="matrix(0.7292 -0.6843 0.6843 0.7292 61.9232 460.5062)" class="st0" width="3" height="10.5"/>
<ellipse transform="matrix(0.7292 -0.6843 0.6843 0.7292 64.93 465.0454)" class="st0" cx="620" cy="150.5" rx="1.6" ry="1.6"/>
<ellipse transform="matrix(0.7292 -0.6843 0.6843 0.7292 56.5424 461.069)" class="st0" cx="610.8" cy="159.1" rx="1.6" ry="1.6"/>
<path class="st0" d="M636.8,130l-0.2-1l-1,0.2c-12.7,2.7-23.4-3.6-23.5-3.7l-0.6-0.3l-0.6,0.3c-0.1,0.1-10.8,6.4-23.5,3.8l-1-0.2
	l-0.2,1c-0.8,4.2-1.1,8.5-0.9,12.7c0.8,24.5,16.5,40.3,25.7,45.9l0.6,0.3l0.6-0.3c9.2-5.6,24.9-21.5,25.6-45.9
	C637.8,138.4,637.6,134.2,636.8,130z M587.4,142.7c-0.1-3.7,0.1-7.5,0.6-11.1c8,1.3,16.2-0.1,23.4-3.9c3.1,1.6,6.5,2.9,9.9,3.6
	L590.7,160C588.7,154.4,587.6,148.6,587.4,142.7L587.4,142.7z M611.5,186.5c-4.2-2.8-8-6.1-11.2-10l35.1-33
	C634.5,166,620.3,180.9,611.5,186.5L611.5,186.5z M635.5,141.4l-36.1,33.9c-3.3-4.2-6.1-8.9-8.1-13.9l31.8-29.9
	c3.9,0.7,7.8,0.7,11.7,0C635.4,134.8,635.6,138.1,635.5,141.4L635.5,141.4z"/>
<polygon class="st0" points="624.8,139.5 622.5,141.7 621.3,140.5 623.7,138.2 621.8,136.3 617.3,140.5 624.5,148.2 626.6,146.1 
	624.3,143.6 626.6,141.5 "/>
<path class="st0" d="M598.5,158.2l-2.5,2.4l7.2,7.6l2.5-2.4c2.1-2,2.2-5.3,0.2-7.4C604,156.3,600.6,156.2,598.5,158.2z M603.7,164.1
	L603.7,164.1l-3.7-3.7l0.2-0.2c1.1-0.9,2.8-0.8,3.7,0.4C604.6,161.7,604.6,163.2,603.7,164.1L603.7,164.1z"/>
<ellipse transform="matrix(0.7292 -0.6843 0.6843 0.7292 73.8891 469.2637)" class="st0" cx="629.9" cy="141.3" rx="1.6" ry="1.6"/>
<path class="st0" d="M384.2,83.2l-2.2-2.8h-1.3v2.8h-1.4v-9.7h4.1c0.3,0,0.6,0.1,0.8,0.3l0.8,0.8c0.2,0.2,0.3,0.5,0.3,0.8v3.1
	c0,0.3-0.1,0.6-0.3,0.8l-0.8,0.8c-0.1,0.1-0.3,0.2-0.5,0.3l1.6,2.1v0.8L384.2,83.2z M383.9,78.4v-2.9l-0.6-0.7h-2.6V79h2.6
	L383.9,78.4z"/>
<path class="st0" d="M392.5,82.8c-0.2,0.2-0.5,0.3-0.8,0.3h-2.4c-0.3,0-0.6-0.1-0.8-0.3l-0.8-0.8c-0.2-0.2-0.3-0.5-0.3-0.8v-7.8h1.4
	v7.7l0.6,0.7h2.2l0.6-0.7v-7.7h1.4v7.8c0,0.3-0.1,0.6-0.3,0.8L392.5,82.8z"/>
<path class="st0" d="M400.7,82.8c-0.2,0.2-0.5,0.3-0.8,0.3h-4.1v-9.7h3.9c0.3,0,0.6,0.1,0.8,0.3l0.8,0.8c0.2,0.2,0.3,0.5,0.3,0.8
	v1.5c0,0.3-0.1,0.6-0.3,0.8l-0.3,0.3l0.6,0.6c0.2,0.2,0.3,0.5,0.3,0.8v1.9c0,0.3-0.1,0.6-0.3,0.8L400.7,82.8z M400.2,76.7v-1.3
	l-0.6-0.7h-2.4v2.6h2.4L400.2,76.7z M400.4,81.2v-1.8l-0.6-0.7h-2.6v3.1h2.6L400.4,81.2z"/>
<path class="st0" d="M408.8,83.2l-2.2-2.8h-1.4v2.8h-1.4v-9.7h4.1c0.3,0,0.6,0.1,0.8,0.3l0.8,0.8c0.2,0.2,0.3,0.5,0.3,0.8v3.1
	c0,0.3-0.1,0.6-0.3,0.8l-0.8,0.8c-0.1,0.1-0.3,0.2-0.5,0.3l1.6,2.1v0.8L408.8,83.2z M408.5,78.4v-2.9l-0.6-0.7h-2.6V79h2.6
	L408.5,78.4z"/>
<path class="st0" d="M411.6,83.2v-1.3h1v-7.2h-1v-1.3h3.4v1.3h-1v7.2h1v1.3H411.6z"/>
<path class="st0" d="M422.6,83.2l-3.4-4.7l-0.8,0.8v4H417v-9.7h1.4v3.9l3.9-3.9h1v0.8l-3.2,3.2l3.5,4.9v0.8L422.6,83.2z"/>
<path class="st0" d="M373.8,94.9v-3h0.4v2.6h1.2v0.4H373.8z"/>
<path class="st0" d="M377.5,94.8c-0.1,0.1-0.2,0.1-0.3,0.1h-0.8c-0.1,0-0.2,0-0.3-0.1l-0.2-0.3c-0.1-0.1-0.1-0.2-0.1-0.3v-1.8
	c0-0.1,0-0.2,0.1-0.3l0.2-0.3c0.1-0.1,0.2-0.1,0.3-0.1h0.8c0.1,0,0.2,0,0.3,0.1l0.2,0.3c0.1,0.1,0.1,0.2,0.1,0.3v1.8
	c0,0.1,0,0.2-0.1,0.3L377.5,94.8z M377.4,94.3v-1.8l-0.2-0.2h-0.7l-0.2,0.2v1.8l0.2,0.2h0.7L377.4,94.3z"/>
<path class="st0" d="M380,94.9l-0.7-0.9h-0.5v0.9h-0.4v-3h1.3c0.1,0,0.2,0,0.3,0.1l0.2,0.3c0.1,0.1,0.1,0.2,0.1,0.3v1
	c0,0.1,0,0.2-0.1,0.3l-0.2,0.3c0,0-0.1,0.1-0.2,0.1l0.5,0.6v0.3L380,94.9z M379.9,93.4v-0.9l-0.2-0.2h-0.9v1.3h0.8L379.9,93.4z"/>
<path class="st0" d="M380.8,94.9v-3h1.7v0.4h-1.3v0.9h1v0.4h-1v0.9h1.3v0.4L380.8,94.9z"/>
<path class="st0" d="M384.8,94.9v-1.7v-0.4l-0.4,0.9c0,0.1-0.1,0.2-0.2,0.2h-0.3c-0.1,0-0.2-0.1-0.2-0.2l-0.4-0.9v0.4v1.7h-0.4v-3
	h0.4l0.7,1.7h0.1l0.7-1.7h0.5v3H384.8z"/>
<path class="st0" d="M386.8,94.9v-0.4h0.3v-2.2h-0.3v-0.4h1v0.4h-0.3v2.2h0.3v0.4H386.8z"/>
<path class="st0" d="M389.9,93.9c-0.1,0.1-0.2,0.1-0.3,0.1h-0.8v0.9h-0.4v-3h1.3c0.1,0,0.2,0,0.3,0.1l0.2,0.3
	c0.1,0.1,0.1,0.2,0.1,0.3v1c0,0.1,0,0.2-0.1,0.3L389.9,93.9z M389.9,93.4v-0.9l-0.2-0.2h-0.9v1.3h0.8L389.9,93.4z"/>
<path class="st0" d="M392.1,94.8c-0.1,0.1-0.2,0.1-0.3,0.1h-0.7c-0.1,0-0.2,0-0.3-0.1l-0.4-0.4l0.3-0.3l0.3,0.3h0.7l0.2-0.2v-0.4
	l-1.3-0.8c-0.1-0.1-0.1-0.2-0.1-0.3v-0.4c0-0.1,0-0.2,0.1-0.3l0.2-0.3c0.1-0.1,0.2-0.1,0.3-0.1h0.6c0.1,0,0.2,0,0.3,0.1l0.3,0.3
	l-0.3,0.3l-0.3-0.3h-0.6l-0.2,0.2v0.3l1.3,0.8c0.1,0.1,0.1,0.2,0.1,0.3V94c0,0.1,0,0.2-0.1,0.3L392.1,94.8z"/>
<path class="st0" d="M394.6,94.8c-0.1,0.1-0.2,0.1-0.3,0.1h-0.8c-0.1,0-0.2,0-0.3-0.1l-0.2-0.3c-0.1-0.1-0.1-0.2-0.1-0.3v-2.5h0.4
	v2.4l0.2,0.2h0.7l0.2-0.2v-2.4h0.4v2.4c0,0.1,0,0.2-0.1,0.3L394.6,94.8z"/>
<path class="st0" d="M397.3,94.9v-1.7v-0.4l-0.4,0.9c0,0.1-0.1,0.2-0.2,0.2h-0.3c-0.1,0-0.2-0.1-0.2-0.2l-0.4-0.9v0.4v1.7h-0.4v-3
	h0.4l0.7,1.7h0.1l0.7-1.7h0.5v3H397.3z"/>
<path class="st0" d="M401,94.8c-0.1,0.1-0.2,0.1-0.3,0.1h-1.4v-3h1.4c0.1,0,0.2,0,0.3,0.1l0.2,0.3c0.1,0.1,0.1,0.2,0.1,0.3v1.8
	c0,0.1,0,0.2-0.1,0.3L401,94.8z M400.9,94.3v-1.8l-0.2-0.2h-0.9v2.2h0.9L400.9,94.3z"/>
<path class="st0" d="M403.5,94.8c-0.1,0.1-0.2,0.1-0.3,0.1h-0.8c-0.1,0-0.2,0-0.3-0.1l-0.2-0.3c-0.1-0.1-0.1-0.2-0.1-0.3v-1.8
	c0-0.1,0-0.2,0.1-0.3l0.2-0.3c0.1-0.1,0.2-0.1,0.3-0.1h0.8c0.1,0,0.2,0,0.3,0.1l0.2,0.3c0.1,0.1,0.1,0.2,0.1,0.3v1.8
	c0,0.1,0,0.2-0.1,0.3L403.5,94.8z M403.4,94.3v-1.8l-0.2-0.2h-0.7l-0.2,0.2v1.8l0.2,0.2h0.7L403.4,94.3z"/>
<path class="st0" d="M404.4,94.9v-3h0.4v2.6h1.2v0.4H404.4z"/>
<path class="st0" d="M408.1,94.8c-0.1,0.1-0.2,0.1-0.3,0.1H407c-0.1,0-0.2,0-0.3-0.1l-0.2-0.3c-0.1-0.1-0.1-0.2-0.1-0.3v-1.8
	c0-0.1,0-0.2,0.1-0.3l0.2-0.3c0.1-0.1,0.2-0.1,0.3-0.1h0.8c0.1,0,0.2,0,0.3,0.1l0.2,0.3c0.1,0.1,0.1,0.2,0.1,0.3v1.8
	c0,0.1,0,0.2-0.1,0.3L408.1,94.8z M408,94.3v-1.8l-0.2-0.2h-0.7l-0.2,0.2v1.8l0.2,0.2h0.7L408,94.3z"/>
<path class="st0" d="M410.6,94.9l-0.7-0.9h-0.4v0.9h-0.4v-3h1.3c0.1,0,0.2,0,0.3,0.1l0.2,0.3c0.1,0.1,0.1,0.2,0.1,0.3v1
	c0,0.1,0,0.2-0.1,0.3l-0.2,0.3c0,0-0.1,0.1-0.2,0.1l0.5,0.6v0.3L410.6,94.9z M410.5,93.4v-0.9l-0.2-0.2h-0.8v1.3h0.9L410.5,93.4z"/>
<path class="st0" d="M413.9,94.8c-0.1,0.1-0.2,0.1-0.3,0.1h-0.7c-0.1,0-0.2,0-0.3-0.1l-0.4-0.4l0.3-0.3l0.3,0.3h0.7l0.2-0.2v-0.4
	l-1.3-0.8c-0.1-0.1-0.1-0.2-0.1-0.3v-0.4c0-0.1,0-0.2,0.1-0.3l0.2-0.3c0.1-0.1,0.2-0.1,0.3-0.1h0.6c0.1,0,0.2,0,0.3,0.1l0.3,0.3
	l-0.3,0.3l-0.3-0.3h-0.6l-0.2,0.2v0.3l1.3,0.8c0.1,0.1,0.1,0.2,0.1,0.3V94c0,0.1,0,0.2-0.1,0.3L413.9,94.8z"/>
<path class="st0" d="M414.6,94.9v-0.4h0.3v-2.2h-0.3v-0.4h1v0.4h-0.3v2.2h0.3v0.4H414.6z"/>
<path class="st0" d="M416.8,94.9v-2.6H416v-0.4h2v0.4h-0.8v2.6H416.8z"/>
<path class="st0" d="M421,94.9l-0.2-0.9h-1l-0.2,0.9h-0.4v-0.3l0.6-2.6c0-0.1,0.1-0.2,0.2-0.2h0.5c0.1,0,0.2,0.1,0.2,0.2l0.6,2.6
	v0.3H421z M420.4,92.3h-0.2l-0.3,1.3h0.8L420.4,92.3z"/>
<path class="st0" d="M423.6,94.9v-1.7v-0.4l-0.4,0.9c0,0.1-0.1,0.2-0.2,0.2h-0.3c-0.1,0-0.2-0.1-0.2-0.2l-0.4-0.9v0.4v1.7h-0.3v-3
	h0.4l0.7,1.7h0.1l0.7-1.7h0.4v3H423.6z"/>
<path class="st0" d="M424.6,94.9v-3h1.7v0.4H425v0.9h1v0.4h-1v0.9h1.3v0.4L424.6,94.9z"/>
<path class="st0" d="M427.4,94.9v-2.6h-0.8v-0.4h2v0.4h-0.8v2.6H427.4z"/>
</svg>
