<svg id="Layer_1" data-name="Layer 1" xmlns="http://www.w3.org/2000/svg" viewBox="0 0 1538.78 668.43"><defs><style>.cls-1,.cls-3,.cls-6{fill:none;stroke-miterlimit:10;}.cls-1{stroke:#002554;}.cls-2{fill:#002554;}.cls-3{stroke:#000;}.cls-4{opacity:0.25;}.cls-5{opacity:0.5;}.cls-6{stroke:aqua;}.cls-7{fill:#fff;}</style></defs><title>grid_rules</title><path d="M1059.27,96.33l18.45,11.07-.72,1.15-18.43-11Zm4.08,8.31.32,1.47a3,3,0,0,0-1.71.65,1.88,1.88,0,0,0-.55,1.46,2,2,0,0,0,.44,1.42,1.67,1.67,0,0,0,2.39,0,2.25,2.25,0,0,0,.43-1.47v-.59h1.2V108a2.34,2.34,0,0,0,.31,1.19,1,1,0,0,0,1,.53,1.37,1.37,0,0,0,1-.41,1.62,1.62,0,0,0,.38-1.15q0-1.4-1.61-1.63l.27-1.4a2.83,2.83,0,0,1,2,1,3.5,3.5,0,0,1,0,4.23,2.33,2.33,0,0,1-1.88.84,1.89,1.89,0,0,1-1.28-.42,2.05,2.05,0,0,1-.65-.89h0a2.61,2.61,0,0,1-.82,1.19,2.43,2.43,0,0,1-1.65.53,2.67,2.67,0,0,1-2.06-.89,3.47,3.47,0,0,1-.82-2.43,3.56,3.56,0,0,1,.83-2.42A3.75,3.75,0,0,1,1063.35,104.64Zm3-8.4h7.92L1073,94.16h1.65l1.38,2.22v1.34h-9.67Z" transform="translate(0.5 0.5)"/><path d="M1059.27,404.61l18.45,11.07-.72,1.16-18.43-11Zm4.12,8.15.32,1.47a3,3,0,0,0-1.71.65,1.88,1.88,0,0,0-.55,1.46,2,2,0,0,0,.44,1.42,1.67,1.67,0,0,0,2.39,0,2.26,2.26,0,0,0,.43-1.47v-.59h1.2v.45a2.34,2.34,0,0,0,.31,1.19,1.05,1.05,0,0,0,1,.53,1.36,1.36,0,0,0,1-.41,1.61,1.61,0,0,0,.38-1.15q0-1.4-1.61-1.63l.27-1.4a2.83,2.83,0,0,1,2,1,3.13,3.13,0,0,1,.72,2.13,3.17,3.17,0,0,1-.7,2.11,2.33,2.33,0,0,1-1.88.84,1.89,1.89,0,0,1-1.28-.42,2.06,2.06,0,0,1-.65-.89h0a2.6,2.6,0,0,1-.82,1.19,2.43,2.43,0,0,1-1.65.53,2.67,2.67,0,0,1-2.06-.89,3.48,3.48,0,0,1-.82-2.43,3.56,3.56,0,0,1,.83-2.42A3.75,3.75,0,0,1,1063.39,412.76Zm2.94-12.77h1.18a3.46,3.46,0,0,1,2,.59,7,7,0,0,1,1.45,2.13l.23.4c.11.19.17.32.2.38a3.56,3.56,0,0,0,.18.33,2.59,2.59,0,0,0,.2.31l.19.26a.87.87,0,0,0,.21.24l.22.16a.68.68,0,0,0,.25.14l.28.07a1.46,1.46,0,0,0,1.36-.41,1.67,1.67,0,0,0,.45-1.26q0-1.79-2.08-2l.18-1.45a3.17,3.17,0,0,1,3.24,3.42,3.18,3.18,0,0,1-.8,2.26,2.76,2.76,0,0,1-2.12.86,2.41,2.41,0,0,1-1.8-.68,7.49,7.49,0,0,1-1.28-1.9,7,7,0,0,0-1.31-2,1.63,1.63,0,0,0-1-.23v4.87h-1.5Z" transform="translate(0.5 0.5)"/><line class="cls-1" x1="1088" y1="1" x2="1088" y2="616.41"/><rect class="cls-2" x="1084.75" y="0.5" width="6.5" height="1"/><rect class="cls-2" x="1084.75" y="615.91" width="6.5" height="1"/><line class="cls-1" x1="1091.27" y1="205.97" x2="1084.73" y2="205.97"/><line class="cls-3" x1="1" y1="631.28" x2="435.85" y2="631.28"/><rect x="0.5" y="628.03" width="1" height="6.5"/><rect x="435.35" y="628.03" width="1" height="6.5"/><line class="cls-3" x1="218.42" y1="628.03" x2="218.42" y2="634.56"/><path d="M95.58,660.16v-7.92l-2.08,1.29v-1.65l2.22-1.38h1.34v9.67Zm.09,7.06,11.07-18.45,1.15.72-11,18.43Zm9-.91v-1.18a3.45,3.45,0,0,1,.59-2,7,7,0,0,1,2.13-1.45l.4-.23.39-.2.33-.18a2.55,2.55,0,0,0,.31-.2l.26-.19a.86.86,0,0,0,.24-.21l.16-.21a.68.68,0,0,0,.14-.25c0-.08,0-.18.07-.28a1.49,1.49,0,0,0,0-.32,1.45,1.45,0,0,0-.44-1,1.67,1.67,0,0,0-1.26-.45q-1.79,0-2,2.08l-1.45-.18a3.17,3.17,0,0,1,3.42-3.24,3.19,3.19,0,0,1,2.26.8,2.76,2.76,0,0,1,.86,2.12,2.41,2.41,0,0,1-.68,1.8,7.47,7.47,0,0,1-1.9,1.28,7,7,0,0,0-2,1.31,1.62,1.62,0,0,0-.23,1h4.87v1.49Z" transform="translate(0.5 0.5)"/><path d="M293.7,660.16v-7.92l-2.08,1.29v-1.65l2.22-1.38h1.34v9.67Zm.09,7.06,11.07-18.45,1.15.72-11,18.43Zm9-.91v-1.18a3.45,3.45,0,0,1,.59-2,7,7,0,0,1,2.13-1.45l.4-.23.39-.2.33-.18a2.55,2.55,0,0,0,.31-.2l.26-.19a.86.86,0,0,0,.24-.21l.16-.21a.68.68,0,0,0,.14-.25c0-.08,0-.18.07-.28a1.49,1.49,0,0,0,0-.32,1.45,1.45,0,0,0-.44-1,1.67,1.67,0,0,0-1.26-.45q-1.79,0-2,2.08l-1.45-.18a3.17,3.17,0,0,1,3.42-3.24,3.19,3.19,0,0,1,2.26.8,2.76,2.76,0,0,1,.86,2.12,2.41,2.41,0,0,1-.68,1.8,7.47,7.47,0,0,1-1.9,1.28,7,7,0,0,0-2,1.31,1.62,1.62,0,0,0-.23,1h4.87v1.49Z" transform="translate(0.5 0.5)"/><line class="cls-3" x1="987.02" y1="631.28" x2="552.18" y2="631.28"/><rect x="986.52" y="628.03" width="1" height="6.5"/><rect x="551.68" y="628.03" width="1" height="6.5"/><line class="cls-3" x1="878.47" y1="628.02" x2="878.47" y2="634.56"/><path d="M925.44,660.14v-7.92l-2.08,1.29v-1.65l2.22-1.38h1.34v9.67Zm.09,7.06,11.07-18.45,1.15.72-11,18.43Zm7.79-3.12v-1.38l3.67-6h2.15v6h1.18v1.38h-1.18v2.24h-1.47v-2.24Zm1.38-1.38h3v-4.78h0Z" transform="translate(0.5 0.5)"/><path d="M704.93,656.94l1.47-.32a3,3,0,0,0,.65,1.71,1.88,1.88,0,0,0,1.46.55,2,2,0,0,0,1.42-.44,1.67,1.67,0,0,0,0-2.39,2.26,2.26,0,0,0-1.47-.43h-.59v-1.2h.45a2.34,2.34,0,0,0,1.19-.31,1.05,1.05,0,0,0,.53-1,1.36,1.36,0,0,0-.41-1,1.61,1.61,0,0,0-1.15-.38q-1.4,0-1.63,1.61l-1.4-.27a2.83,2.83,0,0,1,1-2,3.13,3.13,0,0,1,2.13-.72,3.17,3.17,0,0,1,2.11.7,2.33,2.33,0,0,1,.84,1.88,1.89,1.89,0,0,1-.42,1.28,2.06,2.06,0,0,1-.89.65v0a2.6,2.6,0,0,1,1.19.82,2.43,2.43,0,0,1,.53,1.65,2.67,2.67,0,0,1-.89,2.06,3.48,3.48,0,0,1-2.43.81,3.56,3.56,0,0,1-2.42-.83A3.75,3.75,0,0,1,704.93,656.94Zm3.92,10.26,11.07-18.45,1.15.72L710,667.9Zm7.49-3.12v-1.38l3.67-6h2.15v6h1.18v1.38h-1.18v2.24h-1.47v-2.24Zm1.38-1.38h3v-4.78h0Z" transform="translate(0.5 0.5)"/><rect class="cls-4" x="878.35" y="0.5" width="108.96" height="616.41"/><rect class="cls-5" x="551.46" y="0.5" width="326.88" height="616.41"/><rect class="cls-6" x="551.46" y="0.5" width="435.85" height="616.41"/><line class="cls-6" x1="587.79" y1="616.91" x2="587.79" y2="0.5"/><line class="cls-6" x1="624.11" y1="616.91" x2="624.11" y2="0.5"/><line class="cls-6" x1="660.43" y1="616.91" x2="660.43" y2="0.5"/><line class="cls-6" x1="696.75" y1="616.91" x2="696.75" y2="0.5"/><line class="cls-6" x1="733.07" y1="616.91" x2="733.07" y2="0.5"/><line class="cls-6" x1="769.39" y1="616.91" x2="769.39" y2="0.5"/><line class="cls-6" x1="805.71" y1="616.91" x2="805.71" y2="0.5"/><line class="cls-6" x1="842.03" y1="616.91" x2="842.03" y2="0.5"/><line class="cls-6" x1="878.35" y1="616.91" x2="878.35" y2="0.5"/><line class="cls-6" x1="914.67" y1="616.91" x2="914.67" y2="0.5"/><line class="cls-6" x1="950.99" y1="616.91" x2="950.99" y2="0.5"/><g class="cls-5"><rect x="932.21" y="546.39" width="2.34" height="8.16" transform="translate(-123.42 788.28) rotate(-43.18)"/><circle cx="939.08" cy="549.32" r="1.25" transform="translate(-121.1 791.87) rotate(-43.18)"/><circle cx="931.9" cy="556.05" r="1.25" transform="translate(-127.65 788.78) rotate(-43.18)"/><path d="M952.11,533.29l-.18-.8-.8.17c-9.9,2.12-18.25-2.84-18.34-2.9l-.44-.27-.43.27a27.7,27.7,0,0,1-18.33,2.95l-.8-.17-.18.8a42.28,42.28,0,0,0-.68,9.92c.59,19.08,12.88,31.48,20.06,35.8l.43.26.43-.27c7.16-4.34,19.42-16.77,20-35.85A42.4,42.4,0,0,0,952.11,533.29Zm-38.5,9.92a45.71,45.71,0,0,1,.49-8.7,29.06,29.06,0,0,0,18.26-3.07,29.57,29.57,0,0,0,7.74,2.79L916.2,556.65A42.44,42.44,0,0,1,913.6,543.2Zm18.82,34.17a38.73,38.73,0,0,1-8.71-7.83l27.4-25.72A43,43,0,0,1,932.42,577.37Zm18.74-35.18L923,568.64a43.7,43.7,0,0,1-6.31-10.84l24.84-23.32a27,27,0,0,0,9.13,0A45.82,45.82,0,0,1,951.16,542.19Z" transform="translate(0.5 0.5)"/><polygon points="943.28 541.24 941.47 542.95 940.54 541.98 942.39 540.24 940.96 538.71 937.41 542.05 943 547.98 944.7 546.38 942.9 544.46 944.71 542.76 943.28 541.24"/><path d="M922.27,555.31l-2,1.87,5.59,5.94,2-1.86a4.08,4.08,0,0,0-5.59-6Zm4,4.63-.11.11-2.79-3,.12-.12a2,2,0,0,1,2.78,3Z" transform="translate(0.5 0.5)"/><circle cx="946.73" cy="542.13" r="1.25" transform="translate(-114.11 795.15) rotate(-43.18)"/></g><rect class="cls-5" x="1102.43" y="205.97" width="435.85" height="410.94"/><rect class="cls-4" x="1102.43" y="0.5" width="435.85" height="205.47"/><rect class="cls-6" x="1102.43" y="0.5" width="435.85" height="616.41"/><line class="cls-6" x1="1538.28" y1="51.87" x2="1102.43" y2="51.87"/><line class="cls-6" x1="1538.28" y1="103.24" x2="1102.43" y2="103.24"/><line class="cls-6" x1="1538.28" y1="154.6" x2="1102.43" y2="154.6"/><line class="cls-6" x1="1538.28" y1="205.97" x2="1102.43" y2="205.97"/><line class="cls-6" x1="1538.28" y1="257.34" x2="1102.43" y2="257.34"/><line class="cls-6" x1="1538.28" y1="308.71" x2="1102.43" y2="308.71"/><line class="cls-6" x1="1538.28" y1="360.07" x2="1102.43" y2="360.07"/><line class="cls-6" x1="1538.28" y1="411.44" x2="1102.43" y2="411.44"/><line class="cls-6" x1="1538.28" y1="462.81" x2="1102.43" y2="462.81"/><line class="cls-6" x1="1538.28" y1="514.18" x2="1102.43" y2="514.18"/><line class="cls-6" x1="1538.28" y1="565.54" x2="1102.43" y2="565.54"/><path class="cls-7" d="M1183.13,167.32l-14.69-18.85h-9.13v18.85h-9.13V102.73h27.31a7.66,7.66,0,0,1,5.4,2.16l5.15,5.23a7.92,7.92,0,0,1,2.24,5.31v20.34a7.92,7.92,0,0,1-2.24,5.31l-5.15,5.23a7.43,7.43,0,0,1-3.32,1.91l10.71,13.53v5.56Zm-2-32V115.93l-4.32-4.4H1159.3v28.15h17.52Z" transform="translate(0.5 0.5)"/><path class="cls-7" d="M1235,165.16a7.66,7.66,0,0,1-5.4,2.16h-16.19a7.66,7.66,0,0,1-5.4-2.16l-5.15-5.23a7.91,7.91,0,0,1-2.24-5.31V102.73h9.13v51.39l4.32,4.4H1229l4.32-4.4V102.73h9.13v51.89a7.92,7.92,0,0,1-2.24,5.31Z" transform="translate(0.5 0.5)"/><path class="cls-7" d="M1287.07,165.16a7.66,7.66,0,0,1-5.4,2.16h-27.31V102.73H1280a7.66,7.66,0,0,1,5.4,2.16l5.15,5.23a7.92,7.92,0,0,1,2.24,5.31v9.71a7.92,7.92,0,0,1-2.24,5.31l-2.16,2.16,3.82,3.82a7.92,7.92,0,0,1,2.24,5.31v12.87a7.92,7.92,0,0,1-2.24,5.31Zm-3.4-40.52v-8.72l-4.32-4.4h-15.86v17.52h15.86Zm1.66,29.47V142.25l-4.32-4.4h-17.52v20.67H1281Z" transform="translate(0.5 0.5)"/><path class="cls-7" d="M1338.12,167.32l-14.69-18.85h-9.13v18.85h-9.13V102.73h27.31a7.66,7.66,0,0,1,5.4,2.16l5.15,5.23a7.92,7.92,0,0,1,2.24,5.31v20.34a7.92,7.92,0,0,1-2.24,5.31l-5.15,5.23a7.43,7.43,0,0,1-3.32,1.91l10.71,13.53v5.56Zm-2-32V115.93l-4.32-4.4H1314.3v28.15h17.52Z" transform="translate(0.5 0.5)"/><path class="cls-7" d="M1354.47,167.32v-8.47h6.81V111.2h-6.81v-8.47h22.75v8.47h-6.81v47.66h6.81v8.47Z" transform="translate(0.5 0.5)"/><path class="cls-7" d="M1424.54,167.32l-22.33-31.38-5.06,5.06v26.32H1388V102.73h9.13v25.65l25.65-25.65h7.14v5.4l-21.25,21.34,23,32.3v5.56Z" transform="translate(0.5 0.5)"/><path class="cls-7" d="M617.4,189.22,603.95,172h-8.36v17.25h-8.36V130.08h25a7,7,0,0,1,4.94,2l4.71,4.79a7.25,7.25,0,0,1,2.05,4.86v18.62a7.25,7.25,0,0,1-2.05,4.86L617.17,170a6.81,6.81,0,0,1-3,1.75l9.8,12.39v5.09Zm-1.82-29.34V142.17l-4-4h-16v25.77h16Z" transform="translate(0.5 0.5)"/><path class="cls-7" d="M664.9,187.24a7,7,0,0,1-4.94,2H645.14a7,7,0,0,1-4.94-2l-4.71-4.79a7.25,7.25,0,0,1-2.05-4.86v-47.5h8.36v47l4,4h13.6l4-4v-47h8.36v47.5a7.25,7.25,0,0,1-2.05,4.86Z" transform="translate(0.5 0.5)"/><path class="cls-7" d="M712.55,187.24a7,7,0,0,1-4.94,2h-25V130.08h23.49a7,7,0,0,1,4.94,2l4.71,4.79a7.25,7.25,0,0,1,2.05,4.86v8.89a7.25,7.25,0,0,1-2.05,4.86l-2,2,3.5,3.5a7.25,7.25,0,0,1,2.05,4.86v11.78a7.25,7.25,0,0,1-2.05,4.86Zm-3.12-37.09v-8l-4-4H691v16h14.52Zm1.52,27V166.26l-4-4H691v18.92h16Z" transform="translate(0.5 0.5)"/><path class="cls-7" d="M759.29,189.22,745.84,172h-8.36v17.25h-8.36V130.08h25a7,7,0,0,1,4.94,2l4.71,4.79a7.25,7.25,0,0,1,2.05,4.86v18.62a7.25,7.25,0,0,1-2.05,4.86L759.06,170a6.81,6.81,0,0,1-3,1.75l9.8,12.39v5.09Zm-1.82-29.34V142.17l-4-4h-16v25.77h16Z" transform="translate(0.5 0.5)"/><path class="cls-7" d="M774.26,189.22v-7.75h6.23V137.84h-6.23v-7.75h20.83v7.75h-6.23v43.63h6.23v7.75Z" transform="translate(0.5 0.5)"/><path class="cls-7" d="M838.41,189.22,818,160.49l-4.64,4.64v24.09H805V130.08h8.36v23.49l23.49-23.49h6.54V135l-19.46,19.53,21.05,29.57v5.09Z" transform="translate(0.5 0.5)"/><rect class="cls-7" x="1480.21" y="546.39" width="2.34" height="8.16" transform="translate(24.97 1163.27) rotate(-43.18)"/><circle class="cls-7" cx="1487.07" cy="549.32" r="1.25" transform="translate(27.3 1166.86) rotate(-43.18)"/><circle class="cls-7" cx="1479.9" cy="556.05" r="1.25" transform="translate(20.75 1163.77) rotate(-43.18)"/><path class="cls-7" d="M1500.1,533.29l-.18-.8-.8.17c-9.9,2.12-18.25-2.84-18.34-2.9l-.44-.27-.43.27a27.7,27.7,0,0,1-18.33,2.95l-.8-.17-.18.8a42.28,42.28,0,0,0-.68,9.92c.59,19.08,12.88,31.48,20.06,35.8l.43.26.43-.27c7.16-4.34,19.42-16.77,20-35.85A42.4,42.4,0,0,0,1500.1,533.29Zm-38.5,9.92a45.71,45.71,0,0,1,.49-8.7,29.06,29.06,0,0,0,18.26-3.07,29.57,29.57,0,0,0,7.74,2.79l-23.89,22.42A42.44,42.44,0,0,1,1461.6,543.2Zm18.82,34.17a38.73,38.73,0,0,1-8.71-7.83l27.4-25.72A43,43,0,0,1,1480.42,577.37Zm18.74-35.18L1471,568.64a43.7,43.7,0,0,1-6.31-10.84l24.84-23.32a27,27,0,0,0,9.13,0A45.82,45.82,0,0,1,1499.15,542.19Z" transform="translate(0.5 0.5)"/><polygon class="cls-7" points="1491.27 541.24 1489.46 542.95 1488.54 541.98 1490.38 540.24 1488.95 538.71 1485.41 542.05 1491 547.98 1492.69 546.38 1490.89 544.46 1492.7 542.76 1491.27 541.24"/><path class="cls-7" d="M1470.27,555.31l-2,1.87,5.59,5.94,2-1.86a4.08,4.08,0,0,0-5.59-6Zm4,4.63-.11.11-2.79-3,.12-.12a2,2,0,0,1,2.78,3Z" transform="translate(0.5 0.5)"/><circle class="cls-7" cx="1494.72" cy="542.13" r="1.25" transform="translate(34.29 1170.15) rotate(-43.18)"/><path class="cls-7" d="M1150,48V37.87h1.21v9.07h4.42V48Z" transform="translate(0.5 0.5)"/><path class="cls-7" d="M1160.25,48.26a3.27,3.27,0,0,1-2.51-1.07,4.26,4.26,0,0,1-1-3,4.19,4.19,0,0,1,1-3,3.27,3.27,0,0,1,2.48-1.09,3.19,3.19,0,0,1,2.45,1.09,4.25,4.25,0,0,1,1,3,4.3,4.3,0,0,1-1,3A3.18,3.18,0,0,1,1160.25,48.26Zm0-1.07a2,2,0,0,0,1.62-.79,4.09,4.09,0,0,0,0-4.4,2,2,0,0,0-1.63-.79,2.09,2.09,0,0,0-1.67.78,4.08,4.08,0,0,0,0,4.43A2.09,2.09,0,0,0,1160.25,47.19Z" transform="translate(0.5 0.5)"/><path class="cls-7" d="M1165.66,48v-7.7h1.13v.83h0a1.61,1.61,0,0,1,.68-.71,1.88,1.88,0,0,1,.92-.25,1.62,1.62,0,0,1,.34,0l.25.07.07,0-.22,1.18a1.32,1.32,0,0,0-.61-.12,1.21,1.21,0,0,0-1.07.49,2.82,2.82,0,0,0-.33,1.56V48Z" transform="translate(0.5 0.5)"/><path class="cls-7" d="M1176.09,45.68l1,.63a3.82,3.82,0,0,1-1.24,1.4,3.39,3.39,0,0,1-2,.56,3.31,3.31,0,0,1-2.57-1.11,4.25,4.25,0,0,1-1-3,4.31,4.31,0,0,1,1-3,3.22,3.22,0,0,1,2.54-1.11,3.17,3.17,0,0,1,2.5,1.09,4.35,4.35,0,0,1,1,3v.35h-5.78a3,3,0,0,0,.62,1.87,2.07,2.07,0,0,0,1.74.77,2.61,2.61,0,0,0,.81-.12,2.88,2.88,0,0,0,.58-.25,1.72,1.72,0,0,0,.43-.41c.15-.19.24-.31.28-.37Zm-4.62-2.08H1176a2.82,2.82,0,0,0-.58-1.69,2.33,2.33,0,0,0-3.4.05A2.73,2.73,0,0,0,1171.47,43.6Z" transform="translate(0.5 0.5)"/><path class="cls-7" d="M1179.18,48v-7.7h1.07v.74h0a2,2,0,0,1,.81-.69,2.53,2.53,0,0,1,1.15-.27,2.27,2.27,0,0,1,1.24.33,2.33,2.33,0,0,1,.79.81h0a2.3,2.3,0,0,1,.85-.8,2.56,2.56,0,0,1,1.32-.33,2.48,2.48,0,0,1,2.66,2.67V48H1188V43.16q0-1.95-1.57-1.95a1.6,1.6,0,0,0-1.24.49,2,2,0,0,0-.44,1.36v5h-1.15V43.16q0-1.95-1.57-1.95a1.49,1.49,0,0,0-1.25.52,2.08,2.08,0,0,0-.41,1.33v5Z" transform="translate(0.5 0.5)"/><path class="cls-7" d="M1195.16,38.79V37.44h1.37v1.35Zm.09,9.25v-7.7h1.19V48Z" transform="translate(0.5 0.5)"/><path class="cls-7" d="M1199,51.31v-11h1.13v.74h0a2.63,2.63,0,0,1,.87-.66,2.9,2.9,0,0,1,1.34-.3,3,3,0,0,1,2.4,1.11,4.37,4.37,0,0,1,1,3,4.45,4.45,0,0,1-.93,3,3,3,0,0,1-2.43,1.1,2.82,2.82,0,0,1-1.31-.31,2.29,2.29,0,0,1-.84-.65h0v4Zm1.19-8.24v2.44a1.52,1.52,0,0,0,.57,1.17,2,2,0,0,0,1.41.5,2.11,2.11,0,0,0,1.76-.78,4.23,4.23,0,0,0,0-4.41,2.11,2.11,0,0,0-1.76-.79,1.87,1.87,0,0,0-1.43.58A1.85,1.85,0,0,0,1200.19,43.08Z" transform="translate(0.5 0.5)"/><path class="cls-7" d="M1207.1,45.43l1.12-.22a2,2,0,0,0,2.14,2,2.32,2.32,0,0,0,1.37-.33,1,1,0,0,0,.46-.89,1,1,0,0,0-.43-.87,7.1,7.1,0,0,0-1.79-.67,5.45,5.45,0,0,1-2-.89,1.66,1.66,0,0,1-.58-1.34,1.93,1.93,0,0,1,.71-1.49,2.85,2.85,0,0,1,2-.63,3.08,3.08,0,0,1,2,.6,2.9,2.9,0,0,1,1,1.61l-1,.28a1.88,1.88,0,0,0-2-1.47,1.84,1.84,0,0,0-1.16.32.94.94,0,0,0-.41.76.77.77,0,0,0,.39.71,9.7,9.7,0,0,0,1.8.64,5,5,0,0,1,2.06,1,2,2,0,0,1,.57,1.47,2.08,2.08,0,0,1-.73,1.58,3.89,3.89,0,0,1-4.53-.12A3.24,3.24,0,0,1,1207.1,45.43Z" transform="translate(0.5 0.5)"/><path class="cls-7" d="M1215.12,45.36v-5h1.19v4.84a2.24,2.24,0,0,0,.41,1.53,1.79,1.79,0,0,0,1.37.45,1.67,1.67,0,0,0,1.34-.54,2.21,2.21,0,0,0,.46-1.5V40.34h1.18V48h-1.16V47.3h0l-.22.26a2.66,2.66,0,0,1-.68.43,2.52,2.52,0,0,1-1.16.27,2.68,2.68,0,0,1-2-.73A3,3,0,0,1,1215.12,45.36Z" transform="translate(0.5 0.5)"/><path class="cls-7" d="M1223.55,48v-7.7h1.07v.74h0a2,2,0,0,1,.81-.69,2.53,2.53,0,0,1,1.15-.27,2.27,2.27,0,0,1,1.24.33,2.33,2.33,0,0,1,.79.81h0a2.3,2.3,0,0,1,.85-.8,2.56,2.56,0,0,1,1.32-.33,2.48,2.48,0,0,1,2.66,2.67V48h-1.15V43.16q0-1.95-1.57-1.95a1.6,1.6,0,0,0-1.24.49,2,2,0,0,0-.44,1.36v5h-1.15V43.16q0-1.95-1.57-1.95a1.49,1.49,0,0,0-1.25.52,2.08,2.08,0,0,0-.41,1.33v5Z" transform="translate(0.5 0.5)"/><path class="cls-7" d="M1244.64,48V47.3h0a2.8,2.8,0,0,1-.89.66,3.24,3.24,0,0,1-3.79-.81,4.52,4.52,0,0,1-.91-3,4.39,4.39,0,0,1,1-3,3,3,0,0,1,2.39-1.11,2.66,2.66,0,0,1,2.13,1h0V37.44h1.19V48Zm-.12-2.56V43.1a1.9,1.9,0,0,0-.54-1.31,1.85,1.85,0,0,0-1.44-.59,2.05,2.05,0,0,0-1.74.78,4.39,4.39,0,0,0,0,4.42,2.05,2.05,0,0,0,1.74.78,2,2,0,0,0,1.41-.51A1.55,1.55,0,0,0,1244.53,45.49Z" transform="translate(0.5 0.5)"/><path class="cls-7" d="M1251.18,48.26a3.27,3.27,0,0,1-2.51-1.07,4.26,4.26,0,0,1-1-3,4.19,4.19,0,0,1,1-3,3.27,3.27,0,0,1,2.48-1.09,3.19,3.19,0,0,1,2.45,1.09,4.25,4.25,0,0,1,1,3,4.3,4.3,0,0,1-1,3A3.18,3.18,0,0,1,1251.18,48.26Zm0-1.07a2,2,0,0,0,1.62-.79,4.09,4.09,0,0,0,0-4.4,2,2,0,0,0-1.63-.79,2.09,2.09,0,0,0-1.67.78,4.08,4.08,0,0,0,0,4.43A2.09,2.09,0,0,0,1251.18,47.19Z" transform="translate(0.5 0.5)"/><path class="cls-7" d="M1256.59,48V37.44h1.21V48Z" transform="translate(0.5 0.5)"/><path class="cls-7" d="M1263.25,48.26a3.27,3.27,0,0,1-2.51-1.07,4.26,4.26,0,0,1-1-3,4.19,4.19,0,0,1,1-3,3.27,3.27,0,0,1,2.48-1.09,3.19,3.19,0,0,1,2.45,1.09,4.25,4.25,0,0,1,1,3,4.3,4.3,0,0,1-1,3A3.18,3.18,0,0,1,1263.25,48.26Zm0-1.07a2,2,0,0,0,1.62-.79,4.09,4.09,0,0,0,0-4.4,2,2,0,0,0-1.63-.79,2.09,2.09,0,0,0-1.67.78,4.08,4.08,0,0,0,0,4.43A2.09,2.09,0,0,0,1263.25,47.19Z" transform="translate(0.5 0.5)"/><path class="cls-7" d="M1268.66,48v-7.7h1.13v.83h0a1.61,1.61,0,0,1,.68-.71,1.88,1.88,0,0,1,.92-.25,1.62,1.62,0,0,1,.34,0l.25.07.07,0-.22,1.18a1.32,1.32,0,0,0-.61-.12,1.21,1.21,0,0,0-1.07.49,2.82,2.82,0,0,0-.33,1.56V48Z" transform="translate(0.5 0.5)"/><path class="cls-7" d="M1276.81,45.43l1.12-.22a2,2,0,0,0,2.14,2,2.32,2.32,0,0,0,1.37-.33,1,1,0,0,0,.46-.89,1,1,0,0,0-.43-.87,7.1,7.1,0,0,0-1.79-.67,5.45,5.45,0,0,1-2-.89,1.66,1.66,0,0,1-.58-1.34,1.93,1.93,0,0,1,.71-1.49,2.85,2.85,0,0,1,2-.63,3.08,3.08,0,0,1,2,.6,2.9,2.9,0,0,1,1,1.61l-1,.28a1.88,1.88,0,0,0-2-1.47,1.84,1.84,0,0,0-1.16.32.94.94,0,0,0-.41.76.77.77,0,0,0,.39.71,9.7,9.7,0,0,0,1.8.64,5,5,0,0,1,2.06,1A2,2,0,0,1,1283,46a2.08,2.08,0,0,1-.73,1.58,3.89,3.89,0,0,1-4.53-.12A3.24,3.24,0,0,1,1276.81,45.43Z" transform="translate(0.5 0.5)"/><path class="cls-7" d="M1284.9,38.79V37.44h1.37v1.35ZM1285,48v-7.7h1.19V48Z" transform="translate(0.5 0.5)"/><path class="cls-7" d="M1289,45.81v-4.4h-1.08V40.34h1.1V38.46h1.13v1.89h1.9v1.06h-1.89v4.26a1.78,1.78,0,0,0,.19,1,.86.86,0,0,0,.75.28h.58V48h-.64a2,2,0,0,1-1.58-.56A2.49,2.49,0,0,1,1289,45.81Z" transform="translate(0.5 0.5)"/><path class="cls-7" d="M1154.29,66.72v-.84h0a2.12,2.12,0,0,1-.83.72,3.09,3.09,0,0,1-1.53.34,2.72,2.72,0,0,1-1.94-.62,2.07,2.07,0,0,1-.66-1.57,2,2,0,0,1,.59-1.5,4.73,4.73,0,0,1,2-.91l.78-.2.59-.2a1.79,1.79,0,0,0,.48-.24,1.16,1.16,0,0,0,.25-.29.73.73,0,0,0,.11-.39,1,1,0,0,0-.4-.82,1.89,1.89,0,0,0-1.21-.33,1.74,1.74,0,0,0-1.87,1.53l-1.08-.3a2.73,2.73,0,0,1,.94-1.65,3,3,0,0,1,2-.63,3.16,3.16,0,0,1,2.11.66,2.57,2.57,0,0,1,.78,2.07v5.19Zm-2.12-3.47a3.56,3.56,0,0,0-1.34.6,1.06,1.06,0,0,0-.36.83q0,1.21,1.53,1.21a2.45,2.45,0,0,0,1.61-.47,1.45,1.45,0,0,0,.57-1.15V62.34h0Q1153.95,62.76,1152.17,63.25Z" transform="translate(0.5 0.5)"/><path class="cls-7" d="M1157.66,66.72V59h1.07v.74h0a2,2,0,0,1,.81-.69,2.53,2.53,0,0,1,1.15-.27,2.27,2.27,0,0,1,1.24.33,2.33,2.33,0,0,1,.79.81h0a2.3,2.3,0,0,1,.85-.8,2.56,2.56,0,0,1,1.32-.33,2.48,2.48,0,0,1,2.66,2.67v5.24h-1.15V61.84q0-1.95-1.57-1.95a1.6,1.6,0,0,0-1.24.49,2,2,0,0,0-.44,1.36v5h-1.15V61.84q0-1.95-1.57-1.95a1.49,1.49,0,0,0-1.25.52,2.08,2.08,0,0,0-.41,1.33v5Z" transform="translate(0.5 0.5)"/><path class="cls-7" d="M1175.34,64.36l1,.63a3.82,3.82,0,0,1-1.24,1.4,3.39,3.39,0,0,1-2,.56,3.31,3.31,0,0,1-2.57-1.11,4.25,4.25,0,0,1-1-3,4.31,4.31,0,0,1,1-3,3.22,3.22,0,0,1,2.54-1.11,3.17,3.17,0,0,1,2.5,1.09,4.35,4.35,0,0,1,1,3v.35h-5.78a3,3,0,0,0,.62,1.87,2.07,2.07,0,0,0,1.74.77,2.61,2.61,0,0,0,.81-.12,2.88,2.88,0,0,0,.58-.25,1.72,1.72,0,0,0,.43-.41c.15-.19.24-.31.28-.37Zm-4.62-2.08h4.58a2.82,2.82,0,0,0-.58-1.69,2.33,2.33,0,0,0-3.4.05A2.73,2.73,0,0,0,1170.72,62.28Z" transform="translate(0.5 0.5)"/><path class="cls-7" d="M1178.71,64.49v-4.4h-1.08V59h1.1V57.14h1.13V59h1.9v1.06h-1.89v4.26a1.78,1.78,0,0,0,.19,1,.86.86,0,0,0,.75.28h.58v1.15h-.64a2,2,0,0,1-1.58-.56A2.49,2.49,0,0,1,1178.71,64.49Z" transform="translate(0.5 0.5)"/><path class="cls-7" d="M1183.81,68.26v-.65a.8.8,0,0,0,.7-.89h-.7V65h1.71v1.5A1.6,1.6,0,0,1,1183.81,68.26Z" transform="translate(0.5 0.5)"/><path class="cls-7" d="M1195.52,63.77l1.15.23a3.44,3.44,0,0,1-1.06,2.14,3.06,3.06,0,0,1-2.15.8,3.24,3.24,0,0,1-2.53-1.08,4.3,4.3,0,0,1-1-3,4.24,4.24,0,0,1,1-3,3.25,3.25,0,0,1,2.5-1.1,3,3,0,0,1,2.1.78,3.32,3.32,0,0,1,1.05,2l-1.12.23a3,3,0,0,0-.67-1.42,1.73,1.73,0,0,0-1.37-.56,2.06,2.06,0,0,0-1.69.79,3.42,3.42,0,0,0-.64,2.2,3.47,3.47,0,0,0,.63,2.19,2.06,2.06,0,0,0,1.71.8,1.76,1.76,0,0,0,1.39-.62A2.76,2.76,0,0,0,1195.52,63.77Z" transform="translate(0.5 0.5)"/><path class="cls-7" d="M1201.55,66.94a3.27,3.27,0,0,1-2.51-1.07,4.26,4.26,0,0,1-1-3,4.19,4.19,0,0,1,1-3,3.27,3.27,0,0,1,2.48-1.09A3.19,3.19,0,0,1,1204,59.9a4.25,4.25,0,0,1,1,3,4.3,4.3,0,0,1-1,3A3.18,3.18,0,0,1,1201.55,66.94Zm0-1.07a2,2,0,0,0,1.62-.79,4.09,4.09,0,0,0,0-4.4,2,2,0,0,0-1.63-.79,2.09,2.09,0,0,0-1.67.78,4.08,4.08,0,0,0,0,4.43A2.09,2.09,0,0,0,1201.55,65.87Z" transform="translate(0.5 0.5)"/><path class="cls-7" d="M1207,66.72V59h1.16v.74h0a2.31,2.31,0,0,1,.92-.69,3,3,0,0,1,1.25-.27,2.71,2.71,0,0,1,2,.77,2.85,2.85,0,0,1,.76,2.09v5.06h-1.18V62q0-2.15-1.77-2.15a2,2,0,0,0-1.45.51,1.83,1.83,0,0,0-.54,1.41v4.91Z" transform="translate(0.5 0.5)"/><path class="cls-7" d="M1214.9,64.11l1.12-.22a2,2,0,0,0,2.14,2,2.32,2.32,0,0,0,1.37-.33,1,1,0,0,0,.46-.89,1,1,0,0,0-.43-.87,7.1,7.1,0,0,0-1.79-.67,5.45,5.45,0,0,1-2-.89,1.66,1.66,0,0,1-.58-1.34,1.93,1.93,0,0,1,.71-1.49,2.85,2.85,0,0,1,2-.63,3.08,3.08,0,0,1,2,.6,2.9,2.9,0,0,1,1,1.61l-1,.28a1.88,1.88,0,0,0-2-1.47,1.84,1.84,0,0,0-1.16.32.94.94,0,0,0-.41.76.77.77,0,0,0,.39.71,9.7,9.7,0,0,0,1.8.64,5,5,0,0,1,2.06,1,2,2,0,0,1,.57,1.47,2.08,2.08,0,0,1-.73,1.58,3.89,3.89,0,0,1-4.53-.12A3.24,3.24,0,0,1,1214.9,64.11Z" transform="translate(0.5 0.5)"/><path class="cls-7" d="M1228.33,64.36l1,.63a3.82,3.82,0,0,1-1.24,1.4,3.39,3.39,0,0,1-2,.56,3.31,3.31,0,0,1-2.57-1.11,4.25,4.25,0,0,1-1-3,4.31,4.31,0,0,1,1-3,3.22,3.22,0,0,1,2.54-1.11,3.17,3.17,0,0,1,2.5,1.09,4.35,4.35,0,0,1,1,3v.35h-5.78a3,3,0,0,0,.62,1.87,2.07,2.07,0,0,0,1.74.77,2.61,2.61,0,0,0,.81-.12,2.88,2.88,0,0,0,.58-.25,1.72,1.72,0,0,0,.43-.41c.15-.19.24-.31.28-.37Zm-4.62-2.08h4.58a2.82,2.82,0,0,0-.58-1.69,2.33,2.33,0,0,0-3.4.05A2.73,2.73,0,0,0,1223.71,62.28Z" transform="translate(0.5 0.5)"/><path class="cls-7" d="M1236.48,63.77l1.15.23a3.44,3.44,0,0,1-1.06,2.14,3.06,3.06,0,0,1-2.15.8,3.24,3.24,0,0,1-2.53-1.08,4.3,4.3,0,0,1-1-3,4.24,4.24,0,0,1,1-3,3.25,3.25,0,0,1,2.5-1.1,3,3,0,0,1,2.1.78,3.32,3.32,0,0,1,1.05,2l-1.12.23a3,3,0,0,0-.67-1.42,1.73,1.73,0,0,0-1.37-.56,2.06,2.06,0,0,0-1.69.79,3.42,3.42,0,0,0-.64,2.2,3.47,3.47,0,0,0,.63,2.19,2.06,2.06,0,0,0,1.71.8,1.76,1.76,0,0,0,1.39-.62A2.76,2.76,0,0,0,1236.48,63.77Z" transform="translate(0.5 0.5)"/><path class="cls-7" d="M1239.79,64.49v-4.4h-1.08V59h1.1V57.14H1241V59h1.9v1.06H1241v4.26a1.78,1.78,0,0,0,.19,1,.86.86,0,0,0,.75.28h.58v1.15h-.64a2,2,0,0,1-1.58-.56A2.49,2.49,0,0,1,1239.79,64.49Z" transform="translate(0.5 0.5)"/><path class="cls-7" d="M1249.78,64.36l1,.63a3.82,3.82,0,0,1-1.24,1.4,3.39,3.39,0,0,1-2,.56,3.31,3.31,0,0,1-2.57-1.11,4.25,4.25,0,0,1-1-3,4.31,4.31,0,0,1,1-3,3.22,3.22,0,0,1,2.54-1.11,3.17,3.17,0,0,1,2.5,1.09,4.35,4.35,0,0,1,1,3v.35h-5.78a3,3,0,0,0,.62,1.87,2.07,2.07,0,0,0,1.74.77,2.61,2.61,0,0,0,.81-.12,2.88,2.88,0,0,0,.58-.25,1.72,1.72,0,0,0,.43-.41c.15-.19.24-.31.28-.37Zm-4.62-2.08h4.58a2.82,2.82,0,0,0-.58-1.69,2.33,2.33,0,0,0-3.4.05A2.73,2.73,0,0,0,1245.16,62.28Z" transform="translate(0.5 0.5)"/><path class="cls-7" d="M1253.15,64.49v-4.4h-1.08V59h1.1V57.14h1.13V59h1.9v1.06h-1.89v4.26a1.78,1.78,0,0,0,.19,1,.86.86,0,0,0,.75.28h.58v1.15h-.64a2,2,0,0,1-1.58-.56A2.49,2.49,0,0,1,1253.15,64.49Z" transform="translate(0.5 0.5)"/><path class="cls-7" d="M1258,64V59h1.19v4.84a2.24,2.24,0,0,0,.41,1.53,1.79,1.79,0,0,0,1.37.45,1.67,1.67,0,0,0,1.34-.54,2.21,2.21,0,0,0,.46-1.5V59H1264v7.7h-1.16V66h0l-.22.26a2.66,2.66,0,0,1-.68.43,2.52,2.52,0,0,1-1.16.27,2.68,2.68,0,0,1-2-.73A3,3,0,0,1,1258,64Z" transform="translate(0.5 0.5)"/><path class="cls-7" d="M1271.79,64.36l1,.63a3.82,3.82,0,0,1-1.24,1.4,3.39,3.39,0,0,1-2,.56,3.31,3.31,0,0,1-2.57-1.11,4.25,4.25,0,0,1-1-3,4.31,4.31,0,0,1,1-3,3.22,3.22,0,0,1,2.54-1.11,3.17,3.17,0,0,1,2.5,1.09,4.35,4.35,0,0,1,1,3v.35h-5.78a3,3,0,0,0,.62,1.87,2.07,2.07,0,0,0,1.74.77,2.61,2.61,0,0,0,.81-.12,2.88,2.88,0,0,0,.58-.25,1.72,1.72,0,0,0,.43-.41c.15-.19.24-.31.28-.37Zm-4.62-2.08h4.58a2.82,2.82,0,0,0-.58-1.69,2.33,2.33,0,0,0-3.4.05A2.73,2.73,0,0,0,1267.17,62.28Z" transform="translate(0.5 0.5)"/><path class="cls-7" d="M1274.89,66.72V59H1276v.83h0a1.61,1.61,0,0,1,.68-.71,1.88,1.88,0,0,1,.92-.25,1.62,1.62,0,0,1,.34,0l.25.07.07,0-.22,1.18a1.32,1.32,0,0,0-.61-.12,1.21,1.21,0,0,0-1.07.49,2.82,2.82,0,0,0-.33,1.56v4.58Z" transform="translate(0.5 0.5)"/><path class="cls-7" d="M587.49,48V37.87h1.21v9.07h4.42V48Z" transform="translate(0.5 0.5)"/><path class="cls-7" d="M597.78,48.26a3.27,3.27,0,0,1-2.51-1.07,4.26,4.26,0,0,1-1-3,4.19,4.19,0,0,1,1-3,3.27,3.27,0,0,1,2.48-1.09,3.19,3.19,0,0,1,2.45,1.09,4.25,4.25,0,0,1,1,3,4.3,4.3,0,0,1-1,3A3.18,3.18,0,0,1,597.78,48.26Zm0-1.07a2,2,0,0,0,1.62-.79,4.09,4.09,0,0,0,0-4.4,2,2,0,0,0-1.63-.79,2.09,2.09,0,0,0-1.67.78,4.08,4.08,0,0,0,0,4.43A2.09,2.09,0,0,0,597.78,47.19Z" transform="translate(0.5 0.5)"/><path class="cls-7" d="M603.18,48v-7.7h1.13v.83h0a1.61,1.61,0,0,1,.68-.71,1.88,1.88,0,0,1,.92-.25,1.62,1.62,0,0,1,.34,0l.25.07.07,0-.22,1.18a1.32,1.32,0,0,0-.61-.12,1.21,1.21,0,0,0-1.07.49,2.82,2.82,0,0,0-.33,1.56V48Z" transform="translate(0.5 0.5)"/><path class="cls-7" d="M613.61,45.68l1,.63a3.82,3.82,0,0,1-1.24,1.4,3.39,3.39,0,0,1-2,.56,3.31,3.31,0,0,1-2.57-1.11,4.25,4.25,0,0,1-1-3,4.31,4.31,0,0,1,1-3,3.22,3.22,0,0,1,2.54-1.11,3.17,3.17,0,0,1,2.5,1.09,4.35,4.35,0,0,1,1,3v.35H609a3,3,0,0,0,.62,1.87,2.07,2.07,0,0,0,1.74.77,2.61,2.61,0,0,0,.81-.12,2.88,2.88,0,0,0,.58-.25,1.72,1.72,0,0,0,.43-.41c.15-.19.24-.31.28-.37ZM609,43.6h4.58a2.82,2.82,0,0,0-.58-1.69,2.33,2.33,0,0,0-3.4.05A2.73,2.73,0,0,0,609,43.6Z" transform="translate(0.5 0.5)"/><path class="cls-7" d="M616.71,48v-7.7h1.07v.74h0a2,2,0,0,1,.81-.69,2.53,2.53,0,0,1,1.15-.27,2.27,2.27,0,0,1,1.24.33,2.33,2.33,0,0,1,.79.81h0a2.3,2.3,0,0,1,.85-.8,2.56,2.56,0,0,1,1.32-.33,2.48,2.48,0,0,1,2.66,2.67V48h-1.15V43.16q0-1.95-1.57-1.95a1.6,1.6,0,0,0-1.24.49,2,2,0,0,0-.44,1.36v5h-1.15V43.16q0-1.95-1.57-1.95a1.49,1.49,0,0,0-1.25.52,2.08,2.08,0,0,0-.41,1.33v5Z" transform="translate(0.5 0.5)"/><path class="cls-7" d="M632.69,38.79V37.44h1.37v1.35Zm.09,9.25v-7.7H634V48Z" transform="translate(0.5 0.5)"/><path class="cls-7" d="M636.53,51.31v-11h1.13v.74h0a2.63,2.63,0,0,1,.87-.66,2.9,2.9,0,0,1,1.34-.3,3,3,0,0,1,2.4,1.11,4.37,4.37,0,0,1,1,3,4.45,4.45,0,0,1-.93,3,3,3,0,0,1-2.43,1.1,2.82,2.82,0,0,1-1.31-.31,2.29,2.29,0,0,1-.84-.65h0v4Zm1.19-8.24v2.44a1.52,1.52,0,0,0,.57,1.17,2,2,0,0,0,1.41.5,2.11,2.11,0,0,0,1.76-.78,4.23,4.23,0,0,0,0-4.41,2.11,2.11,0,0,0-1.76-.79,1.87,1.87,0,0,0-1.43.58A1.85,1.85,0,0,0,637.72,43.08Z" transform="translate(0.5 0.5)"/><path class="cls-7" d="M644.63,45.43l1.12-.22a2,2,0,0,0,2.14,2,2.32,2.32,0,0,0,1.37-.33,1,1,0,0,0,.46-.89,1,1,0,0,0-.43-.87,7.1,7.1,0,0,0-1.79-.67,5.45,5.45,0,0,1-2-.89,1.66,1.66,0,0,1-.58-1.34,1.93,1.93,0,0,1,.71-1.49,2.85,2.85,0,0,1,2-.63,3.08,3.08,0,0,1,2,.6,2.9,2.9,0,0,1,1,1.61l-1,.28a1.88,1.88,0,0,0-2-1.47,1.84,1.84,0,0,0-1.16.32.94.94,0,0,0-.41.76.77.77,0,0,0,.39.71,9.7,9.7,0,0,0,1.8.64,5,5,0,0,1,2.06,1,2,2,0,0,1,.57,1.47,2.08,2.08,0,0,1-.73,1.58,3.89,3.89,0,0,1-4.53-.12A3.24,3.24,0,0,1,644.63,45.43Z" transform="translate(0.5 0.5)"/><path class="cls-7" d="M652.65,45.36v-5h1.19v4.84a2.24,2.24,0,0,0,.41,1.53,1.79,1.79,0,0,0,1.37.45,1.67,1.67,0,0,0,1.34-.54,2.21,2.21,0,0,0,.46-1.5V40.34h1.18V48h-1.16V47.3h0l-.22.26a2.66,2.66,0,0,1-.68.43,2.52,2.52,0,0,1-1.16.27,2.68,2.68,0,0,1-2-.73A3,3,0,0,1,652.65,45.36Z" transform="translate(0.5 0.5)"/><path class="cls-7" d="M661.08,48v-7.7h1.07v.74h0a2,2,0,0,1,.81-.69,2.53,2.53,0,0,1,1.15-.27,2.27,2.27,0,0,1,1.24.33,2.33,2.33,0,0,1,.79.81h0a2.3,2.3,0,0,1,.85-.8,2.56,2.56,0,0,1,1.32-.33A2.48,2.48,0,0,1,671,42.8V48h-1.15V43.16q0-1.95-1.57-1.95a1.6,1.6,0,0,0-1.24.49,2,2,0,0,0-.44,1.36v5h-1.15V43.16q0-1.95-1.57-1.95a1.49,1.49,0,0,0-1.25.52,2.08,2.08,0,0,0-.41,1.33v5Z" transform="translate(0.5 0.5)"/><path class="cls-7" d="M682.17,48V47.3h0a2.8,2.8,0,0,1-.89.66,3.24,3.24,0,0,1-3.79-.81,4.52,4.52,0,0,1-.91-3,4.39,4.39,0,0,1,1-3,3,3,0,0,1,2.39-1.11,2.66,2.66,0,0,1,2.13,1h0V37.44h1.19V48Zm-.12-2.56V43.11a1.9,1.9,0,0,0-.54-1.31,1.85,1.85,0,0,0-1.44-.59,2.05,2.05,0,0,0-1.74.78,4.39,4.39,0,0,0,0,4.42,2.05,2.05,0,0,0,1.74.78,2,2,0,0,0,1.41-.51A1.55,1.55,0,0,0,682.05,45.49Z" transform="translate(0.5 0.5)"/><path class="cls-7" d="M688.71,48.26a3.27,3.27,0,0,1-2.51-1.07,4.26,4.26,0,0,1-1-3,4.19,4.19,0,0,1,1-3,3.27,3.27,0,0,1,2.48-1.09,3.19,3.19,0,0,1,2.45,1.09,4.25,4.25,0,0,1,1,3,4.3,4.3,0,0,1-1,3A3.18,3.18,0,0,1,688.71,48.26Zm0-1.07a2,2,0,0,0,1.62-.79,4.09,4.09,0,0,0,0-4.4,2,2,0,0,0-1.63-.79A2.09,2.09,0,0,0,687,42a4.08,4.08,0,0,0,0,4.43A2.09,2.09,0,0,0,688.71,47.19Z" transform="translate(0.5 0.5)"/><path class="cls-7" d="M694.11,48V37.44h1.21V48Z" transform="translate(0.5 0.5)"/><path class="cls-7" d="M700.78,48.26a3.27,3.27,0,0,1-2.51-1.07,4.26,4.26,0,0,1-1-3,4.19,4.19,0,0,1,1-3,3.27,3.27,0,0,1,2.48-1.09,3.19,3.19,0,0,1,2.45,1.09,4.25,4.25,0,0,1,1,3,4.3,4.3,0,0,1-1,3A3.18,3.18,0,0,1,700.78,48.26Zm0-1.07a2,2,0,0,0,1.62-.79,4.09,4.09,0,0,0,0-4.4,2,2,0,0,0-1.63-.79,2.09,2.09,0,0,0-1.67.78,4.08,4.08,0,0,0,0,4.43A2.09,2.09,0,0,0,700.78,47.19Z" transform="translate(0.5 0.5)"/><path class="cls-7" d="M706.19,48v-7.7h1.13v.83h0a1.61,1.61,0,0,1,.68-.71,1.88,1.88,0,0,1,.92-.25,1.62,1.62,0,0,1,.34,0l.25.07.07,0-.22,1.18a1.32,1.32,0,0,0-.61-.12,1.21,1.21,0,0,0-1.07.49,2.82,2.82,0,0,0-.33,1.56V48Z" transform="translate(0.5 0.5)"/><path class="cls-7" d="M714.34,45.43l1.12-.22a2,2,0,0,0,2.14,2A2.32,2.32,0,0,0,719,46.9a1,1,0,0,0,.46-.89,1,1,0,0,0-.43-.87,7.1,7.1,0,0,0-1.79-.67,5.45,5.45,0,0,1-2-.89,1.66,1.66,0,0,1-.58-1.34,1.93,1.93,0,0,1,.71-1.49,2.85,2.85,0,0,1,2-.63,3.08,3.08,0,0,1,2,.6,2.9,2.9,0,0,1,1,1.61l-1,.28a1.88,1.88,0,0,0-2-1.47,1.84,1.84,0,0,0-1.16.32.94.94,0,0,0-.41.76.77.77,0,0,0,.39.71,9.7,9.7,0,0,0,1.8.64,5,5,0,0,1,2.06,1,2,2,0,0,1,.57,1.47,2.08,2.08,0,0,1-.73,1.58,3.89,3.89,0,0,1-4.53-.12A3.24,3.24,0,0,1,714.34,45.43Z" transform="translate(0.5 0.5)"/><path class="cls-7" d="M722.43,38.79V37.44h1.37v1.35Zm.09,9.25v-7.7h1.19V48Z" transform="translate(0.5 0.5)"/><path class="cls-7" d="M726.54,45.81v-4.4h-1.08V40.34h1.1V38.46h1.13v1.89h1.9v1.06h-1.89v4.26a1.78,1.78,0,0,0,.19,1,.86.86,0,0,0,.75.28h.58V48h-.64a2,2,0,0,1-1.58-.56A2.49,2.49,0,0,1,726.54,45.81Z" transform="translate(0.5 0.5)"/><path class="cls-7" d="M591.82,66.72v-.84h0a2.12,2.12,0,0,1-.83.72,3.09,3.09,0,0,1-1.53.34,2.72,2.72,0,0,1-1.94-.62,2.07,2.07,0,0,1-.66-1.57,2,2,0,0,1,.59-1.5,4.73,4.73,0,0,1,2-.91l.78-.2.59-.2a1.79,1.79,0,0,0,.48-.24,1.16,1.16,0,0,0,.25-.29.73.73,0,0,0,.11-.39,1,1,0,0,0-.4-.82,1.89,1.89,0,0,0-1.21-.33,1.74,1.74,0,0,0-1.87,1.53l-1.08-.3a2.73,2.73,0,0,1,.94-1.65,3,3,0,0,1,2-.63,3.16,3.16,0,0,1,2.11.66,2.57,2.57,0,0,1,.78,2.07v5.19Zm-2.12-3.47a3.56,3.56,0,0,0-1.34.6,1.06,1.06,0,0,0-.36.83q0,1.21,1.53,1.21a2.45,2.45,0,0,0,1.61-.47,1.45,1.45,0,0,0,.57-1.15V62.34h0Q591.47,62.76,589.7,63.25Z" transform="translate(0.5 0.5)"/><path class="cls-7" d="M595.19,66.72V59h1.07v.74h0a2,2,0,0,1,.81-.69,2.53,2.53,0,0,1,1.15-.27,2.27,2.27,0,0,1,1.24.33,2.33,2.33,0,0,1,.79.81h0a2.3,2.3,0,0,1,.85-.8,2.56,2.56,0,0,1,1.32-.33,2.48,2.48,0,0,1,2.66,2.67v5.24H604V61.84q0-1.95-1.57-1.95a1.6,1.6,0,0,0-1.24.49,2,2,0,0,0-.44,1.36v5h-1.15V61.84q0-1.95-1.57-1.95a1.49,1.49,0,0,0-1.25.52,2.08,2.08,0,0,0-.41,1.33v5Z" transform="translate(0.5 0.5)"/><path class="cls-7" d="M612.87,64.36l1,.63a3.82,3.82,0,0,1-1.24,1.4,3.39,3.39,0,0,1-2,.56A3.31,3.31,0,0,1,608,65.83a4.25,4.25,0,0,1-1-3,4.31,4.31,0,0,1,1-3,3.22,3.22,0,0,1,2.54-1.11A3.17,3.17,0,0,1,613,59.9a4.35,4.35,0,0,1,1,3v.35h-5.78a3,3,0,0,0,.62,1.87,2.07,2.07,0,0,0,1.74.77,2.61,2.61,0,0,0,.81-.12,2.88,2.88,0,0,0,.58-.25,1.72,1.72,0,0,0,.43-.41c.15-.19.24-.31.28-.37Zm-4.62-2.08h4.58a2.82,2.82,0,0,0-.58-1.69,2.33,2.33,0,0,0-3.4.05A2.73,2.73,0,0,0,608.25,62.28Z" transform="translate(0.5 0.5)"/><path class="cls-7" d="M616.24,64.49v-4.4h-1.08V59h1.1V57.14h1.13V59h1.9v1.06h-1.89v4.26a1.78,1.78,0,0,0,.19,1,.86.86,0,0,0,.75.28h.58v1.15h-.64a2,2,0,0,1-1.58-.56A2.49,2.49,0,0,1,616.24,64.49Z" transform="translate(0.5 0.5)"/><path class="cls-7" d="M621.34,68.26v-.65a.8.8,0,0,0,.7-.89h-.7V65h1.71v1.5A1.6,1.6,0,0,1,621.34,68.26Z" transform="translate(0.5 0.5)"/><path class="cls-7" d="M633.05,63.77l1.15.23a3.44,3.44,0,0,1-1.06,2.14,3.06,3.06,0,0,1-2.15.8,3.24,3.24,0,0,1-2.53-1.08,4.3,4.3,0,0,1-1-3,4.24,4.24,0,0,1,1-3,3.25,3.25,0,0,1,2.5-1.1,3,3,0,0,1,2.1.78,3.32,3.32,0,0,1,1.05,2l-1.12.23a3,3,0,0,0-.67-1.42,1.73,1.73,0,0,0-1.37-.56,2.06,2.06,0,0,0-1.69.79,3.42,3.42,0,0,0-.64,2.2,3.47,3.47,0,0,0,.63,2.19,2.06,2.06,0,0,0,1.71.8,1.76,1.76,0,0,0,1.39-.62A2.76,2.76,0,0,0,633.05,63.77Z" transform="translate(0.5 0.5)"/><path class="cls-7" d="M639.08,66.94a3.27,3.27,0,0,1-2.51-1.07,4.26,4.26,0,0,1-1-3,4.19,4.19,0,0,1,1-3,3.27,3.27,0,0,1,2.48-1.09,3.19,3.19,0,0,1,2.45,1.09,4.25,4.25,0,0,1,1,3,4.3,4.3,0,0,1-1,3A3.18,3.18,0,0,1,639.08,66.94Zm0-1.07a2,2,0,0,0,1.62-.79,4.09,4.09,0,0,0,0-4.4,2,2,0,0,0-1.63-.79,2.09,2.09,0,0,0-1.67.78,4.08,4.08,0,0,0,0,4.43A2.09,2.09,0,0,0,639.08,65.87Z" transform="translate(0.5 0.5)"/><path class="cls-7" d="M644.49,66.72V59h1.16v.74h0a2.31,2.31,0,0,1,.92-.69,3,3,0,0,1,1.25-.27,2.71,2.71,0,0,1,2,.77,2.85,2.85,0,0,1,.76,2.09v5.06h-1.18V62q0-2.15-1.77-2.15a2,2,0,0,0-1.45.51,1.83,1.83,0,0,0-.54,1.41v4.91Z" transform="translate(0.5 0.5)"/><path class="cls-7" d="M652.43,64.11l1.12-.22a2,2,0,0,0,2.14,2,2.32,2.32,0,0,0,1.37-.33,1,1,0,0,0,.46-.89,1,1,0,0,0-.43-.87,7.1,7.1,0,0,0-1.79-.67,5.45,5.45,0,0,1-2-.89,1.66,1.66,0,0,1-.58-1.34,1.93,1.93,0,0,1,.71-1.49,2.85,2.85,0,0,1,2-.63,3.08,3.08,0,0,1,2,.6,2.9,2.9,0,0,1,1,1.61l-1,.28a1.88,1.88,0,0,0-2-1.47,1.84,1.84,0,0,0-1.16.32.94.94,0,0,0-.41.76.77.77,0,0,0,.39.71,9.7,9.7,0,0,0,1.8.64,5,5,0,0,1,2.06,1,2,2,0,0,1,.57,1.47,2.08,2.08,0,0,1-.73,1.58,3.89,3.89,0,0,1-4.53-.12A3.24,3.24,0,0,1,652.43,64.11Z" transform="translate(0.5 0.5)"/><path class="cls-7" d="M665.86,64.36l1,.63a3.82,3.82,0,0,1-1.24,1.4,3.39,3.39,0,0,1-2,.56A3.31,3.31,0,0,1,661,65.83a4.25,4.25,0,0,1-1-3,4.31,4.31,0,0,1,1-3,3.22,3.22,0,0,1,2.54-1.11A3.17,3.17,0,0,1,666,59.9a4.35,4.35,0,0,1,1,3v.35h-5.78a3,3,0,0,0,.62,1.87,2.07,2.07,0,0,0,1.74.77,2.61,2.61,0,0,0,.81-.12,2.88,2.88,0,0,0,.58-.25,1.72,1.72,0,0,0,.43-.41c.15-.19.24-.31.28-.37Zm-4.62-2.08h4.58a2.82,2.82,0,0,0-.58-1.69,2.33,2.33,0,0,0-3.4.05A2.73,2.73,0,0,0,661.24,62.28Z" transform="translate(0.5 0.5)"/><path class="cls-7" d="M674,63.77l1.15.23a3.44,3.44,0,0,1-1.06,2.14,3.06,3.06,0,0,1-2.15.8,3.24,3.24,0,0,1-2.53-1.08,4.3,4.3,0,0,1-1-3,4.24,4.24,0,0,1,1-3,3.25,3.25,0,0,1,2.5-1.1,3,3,0,0,1,2.1.78,3.32,3.32,0,0,1,1.05,2l-1.12.23a3,3,0,0,0-.67-1.42,1.73,1.73,0,0,0-1.37-.56,2.06,2.06,0,0,0-1.69.79,3.42,3.42,0,0,0-.64,2.2,3.47,3.47,0,0,0,.63,2.19,2.06,2.06,0,0,0,1.71.8,1.76,1.76,0,0,0,1.39-.62A2.76,2.76,0,0,0,674,63.77Z" transform="translate(0.5 0.5)"/><path class="cls-7" d="M677.32,64.49v-4.4h-1.08V59h1.1V57.14h1.13V59h1.9v1.06h-1.89v4.26a1.78,1.78,0,0,0,.19,1,.86.86,0,0,0,.75.28H680v1.15h-.64a2,2,0,0,1-1.58-.56A2.49,2.49,0,0,1,677.32,64.49Z" transform="translate(0.5 0.5)"/><path class="cls-7" d="M687.31,64.36l1,.63a3.82,3.82,0,0,1-1.24,1.4,3.39,3.39,0,0,1-2,.56,3.31,3.31,0,0,1-2.57-1.11,4.25,4.25,0,0,1-1-3,4.31,4.31,0,0,1,1-3A3.22,3.22,0,0,1,685,58.81a3.17,3.17,0,0,1,2.5,1.09,4.35,4.35,0,0,1,1,3v.35h-5.78a3,3,0,0,0,.62,1.87,2.07,2.07,0,0,0,1.74.77,2.61,2.61,0,0,0,.81-.12,2.88,2.88,0,0,0,.58-.25,1.72,1.72,0,0,0,.43-.41c.15-.19.24-.31.28-.37Zm-4.62-2.08h4.58a2.82,2.82,0,0,0-.58-1.69,2.33,2.33,0,0,0-3.4.05A2.73,2.73,0,0,0,682.69,62.28Z" transform="translate(0.5 0.5)"/><path class="cls-7" d="M690.68,64.49v-4.4h-1.08V59h1.1V57.14h1.13V59h1.9v1.06h-1.89v4.26a1.78,1.78,0,0,0,.19,1,.86.86,0,0,0,.75.28h.58v1.15h-.64a2,2,0,0,1-1.58-.56A2.49,2.49,0,0,1,690.68,64.49Z" transform="translate(0.5 0.5)"/><path class="cls-7" d="M695.56,64V59h1.19v4.84a2.24,2.24,0,0,0,.41,1.53,1.79,1.79,0,0,0,1.37.45,1.67,1.67,0,0,0,1.34-.54,2.21,2.21,0,0,0,.46-1.5V59h1.18v7.7h-1.16V66h0l-.22.26a2.66,2.66,0,0,1-.68.43,2.52,2.52,0,0,1-1.16.27,2.68,2.68,0,0,1-2-.73A3,3,0,0,1,695.56,64Z" transform="translate(0.5 0.5)"/><path class="cls-7" d="M709.32,64.36l1,.63a3.82,3.82,0,0,1-1.24,1.4,3.39,3.39,0,0,1-2,.56,3.31,3.31,0,0,1-2.57-1.11,4.25,4.25,0,0,1-1-3,4.31,4.31,0,0,1,1-3A3.22,3.22,0,0,1,707,58.81a3.17,3.17,0,0,1,2.5,1.09,4.35,4.35,0,0,1,1,3v.35h-5.78a3,3,0,0,0,.62,1.87,2.07,2.07,0,0,0,1.74.77,2.61,2.61,0,0,0,.81-.12,2.88,2.88,0,0,0,.58-.25,1.72,1.72,0,0,0,.43-.41c.15-.19.24-.31.28-.37Zm-4.62-2.08h4.58a2.82,2.82,0,0,0-.58-1.69,2.33,2.33,0,0,0-3.4.05A2.73,2.73,0,0,0,704.7,62.28Z" transform="translate(0.5 0.5)"/><path class="cls-7" d="M712.42,66.72V59h1.13v.83h0a1.61,1.61,0,0,1,.68-.71,1.88,1.88,0,0,1,.92-.25,1.62,1.62,0,0,1,.34,0l.25.07.07,0-.22,1.18a1.32,1.32,0,0,0-.61-.12,1.21,1.21,0,0,0-1.07.49,2.82,2.82,0,0,0-.33,1.56v4.58Z" transform="translate(0.5 0.5)"/><rect class="cls-5" x="0.5" y="0.5" width="217.92" height="616.41"/><rect class="cls-4" x="218.42" y="0.5" width="217.92" height="616.41"/><rect class="cls-6" x="0.5" y="0.5" width="435.85" height="616.41"/><line class="cls-6" x1="36.82" y1="616.91" x2="36.82" y2="0.5"/><line class="cls-6" x1="73.14" y1="616.91" x2="73.14" y2="0.5"/><line class="cls-6" x1="109.46" y1="616.91" x2="109.46" y2="0.5"/><line class="cls-6" x1="145.78" y1="616.91" x2="145.78" y2="0.5"/><line class="cls-6" x1="182.1" y1="616.91" x2="182.1" y2="0.5"/><line class="cls-6" x1="218.42" y1="616.91" x2="218.42" y2="0.5"/><line class="cls-6" x1="254.74" y1="616.91" x2="254.74" y2="0.5"/><line class="cls-6" x1="291.06" y1="616.91" x2="291.06" y2="0.5"/><line class="cls-6" x1="327.38" y1="616.91" x2="327.38" y2="0.5"/><line class="cls-6" x1="363.7" y1="616.91" x2="363.7" y2="0.5"/><line class="cls-6" x1="400.03" y1="616.91" x2="400.03" y2="0.5"/><path class="cls-7" d="M36.72,545.59V535.42h1.21v9.07h4.42v1.1Z" transform="translate(0.5 0.5)"/><path class="cls-7" d="M47,545.8a3.26,3.26,0,0,1-2.51-1.08,4.26,4.26,0,0,1-1-3,4.19,4.19,0,0,1,1-3A3.27,3.27,0,0,1,47,537.67a3.19,3.19,0,0,1,2.45,1.09,4.25,4.25,0,0,1,1,3,4.3,4.3,0,0,1-1,3A3.19,3.19,0,0,1,47,545.8Zm0-1.08a2,2,0,0,0,1.62-.79,4.09,4.09,0,0,0,0-4.4,2,2,0,0,0-1.63-.79,2.08,2.08,0,0,0-1.67.78,4.08,4.08,0,0,0,0,4.43A2.08,2.08,0,0,0,47,544.73Z" transform="translate(0.5 0.5)"/><path class="cls-7" d="M52.41,545.59v-7.7h1.13v.83h0a1.62,1.62,0,0,1,.68-.71,1.89,1.89,0,0,1,.92-.25,1.59,1.59,0,0,1,.34,0l.25.07.07,0-.22,1.18A1.32,1.32,0,0,0,55,539a1.21,1.21,0,0,0-1.08.49A2.82,2.82,0,0,0,53.6,541v4.58Z" transform="translate(0.5 0.5)"/><path class="cls-7" d="M62.84,543.22l1,.63a3.82,3.82,0,0,1-1.24,1.4,3.39,3.39,0,0,1-2,.56A3.31,3.31,0,0,1,58,544.69a4.25,4.25,0,0,1-1-3,4.31,4.31,0,0,1,1-3,3.22,3.22,0,0,1,2.54-1.11,3.17,3.17,0,0,1,2.5,1.09,4.35,4.35,0,0,1,1,3v.35H58.19a3,3,0,0,0,.62,1.87,2.07,2.07,0,0,0,1.74.77,2.61,2.61,0,0,0,.81-.12,2.9,2.9,0,0,0,.58-.25,1.72,1.72,0,0,0,.43-.41,4.32,4.32,0,0,0,.28-.37Zm-4.62-2.08H62.8a2.81,2.81,0,0,0-.58-1.69,2.33,2.33,0,0,0-3.4.05A2.73,2.73,0,0,0,58.22,541.14Z" transform="translate(0.5 0.5)"/><path class="cls-7" d="M65.94,545.59v-7.7H67v.74h0a2,2,0,0,1,.81-.69,2.54,2.54,0,0,1,1.15-.27,2.27,2.27,0,0,1,1.24.33,2.33,2.33,0,0,1,.79.81h0a2.31,2.31,0,0,1,.85-.8,2.56,2.56,0,0,1,1.31-.33,2.48,2.48,0,0,1,2.66,2.67v5.25H74.74V540.7q0-1.95-1.57-1.95a1.6,1.6,0,0,0-1.24.49,2,2,0,0,0-.44,1.36v5H70.34V540.7q0-1.95-1.57-1.95a1.49,1.49,0,0,0-1.25.52,2.08,2.08,0,0,0-.41,1.33v5Z" transform="translate(0.5 0.5)"/><path class="cls-7" d="M81.92,536.33V535h1.37v1.35Zm.09,9.25v-7.7h1.19v7.7Z" transform="translate(0.5 0.5)"/><path class="cls-7" d="M85.75,548.85v-11h1.13v.74h0a2.63,2.63,0,0,1,.87-.66,2.89,2.89,0,0,1,1.34-.3,3,3,0,0,1,2.4,1.11,4.37,4.37,0,0,1,1,3,4.45,4.45,0,0,1-.93,3,3,3,0,0,1-2.43,1.1,2.83,2.83,0,0,1-1.31-.3,2.3,2.3,0,0,1-.84-.65h0v4Zm1.19-8.24v2.44a1.52,1.52,0,0,0,.57,1.17,2.05,2.05,0,0,0,1.41.5,2.12,2.12,0,0,0,1.77-.78,4.22,4.22,0,0,0,0-4.41,2.11,2.11,0,0,0-1.76-.79,1.87,1.87,0,0,0-1.43.58A1.85,1.85,0,0,0,86.94,540.62Z" transform="translate(0.5 0.5)"/><path class="cls-7" d="M93.86,543l1.12-.22a2,2,0,0,0,2.14,2,2.32,2.32,0,0,0,1.37-.33,1,1,0,0,0,.46-.89,1,1,0,0,0-.43-.87,7.06,7.06,0,0,0-1.79-.67,5.44,5.44,0,0,1-2-.89,1.66,1.66,0,0,1-.58-1.34,1.93,1.93,0,0,1,.71-1.49,2.85,2.85,0,0,1,2-.63,3.08,3.08,0,0,1,2,.6,2.89,2.89,0,0,1,1,1.6l-1,.28a1.88,1.88,0,0,0-2-1.47,1.84,1.84,0,0,0-1.16.32.94.94,0,0,0-.41.75.77.77,0,0,0,.39.71,9.66,9.66,0,0,0,1.8.64,5,5,0,0,1,2.06,1,2,2,0,0,1,.57,1.47,2.07,2.07,0,0,1-.73,1.58,3.89,3.89,0,0,1-4.53-.12A3.23,3.23,0,0,1,93.86,543Z" transform="translate(0.5 0.5)"/><path class="cls-7" d="M101.88,542.9v-5h1.19v4.84a2.24,2.24,0,0,0,.41,1.53,1.79,1.79,0,0,0,1.37.45,1.67,1.67,0,0,0,1.34-.54,2.21,2.21,0,0,0,.46-1.5v-4.78h1.18v7.7h-1.16v-.74h0l-.22.26a2.64,2.64,0,0,1-.68.43,2.53,2.53,0,0,1-1.16.27,2.68,2.68,0,0,1-2-.73A3,3,0,0,1,101.88,542.9Z" transform="translate(0.5 0.5)"/><path class="cls-7" d="M110.3,545.59v-7.7h1.08v.74h0a2,2,0,0,1,.81-.69,2.54,2.54,0,0,1,1.15-.27,2.27,2.27,0,0,1,1.24.33,2.33,2.33,0,0,1,.79.81h0a2.31,2.31,0,0,1,.85-.8,2.56,2.56,0,0,1,1.31-.33,2.48,2.48,0,0,1,2.66,2.67v5.25h-1.15V540.7q0-1.95-1.57-1.95a1.6,1.6,0,0,0-1.24.49,2,2,0,0,0-.44,1.36v5h-1.15V540.7q0-1.95-1.57-1.95a1.49,1.49,0,0,0-1.25.52,2.08,2.08,0,0,0-.41,1.33v5Z" transform="translate(0.5 0.5)"/><path class="cls-7" d="M131.4,545.59v-.74h0a2.8,2.8,0,0,1-.89.66,3.24,3.24,0,0,1-3.79-.81,4.52,4.52,0,0,1-.91-3,4.39,4.39,0,0,1,1-3,3,3,0,0,1,2.39-1.11,2.66,2.66,0,0,1,2.14,1h0V535h1.19v10.61Zm-.12-2.56v-2.38a1.9,1.9,0,0,0-.54-1.31,1.85,1.85,0,0,0-1.44-.59,2.06,2.06,0,0,0-1.74.78,4.39,4.39,0,0,0,0,4.42,2.06,2.06,0,0,0,1.74.78,2,2,0,0,0,1.41-.51A1.55,1.55,0,0,0,131.28,543Z" transform="translate(0.5 0.5)"/><path class="cls-7" d="M137.94,545.8a3.26,3.26,0,0,1-2.51-1.08,4.26,4.26,0,0,1-1-3,4.19,4.19,0,0,1,1-3,3.27,3.27,0,0,1,2.48-1.09,3.19,3.19,0,0,1,2.45,1.09,4.25,4.25,0,0,1,1,3,4.3,4.3,0,0,1-1,3A3.19,3.19,0,0,1,137.94,545.8Zm0-1.08a2,2,0,0,0,1.62-.79,4.09,4.09,0,0,0,0-4.4,2,2,0,0,0-1.63-.79,2.08,2.08,0,0,0-1.67.78,4.08,4.08,0,0,0,0,4.43A2.08,2.08,0,0,0,137.94,544.73Z" transform="translate(0.5 0.5)"/><path class="cls-7" d="M143.34,545.59V535h1.21v10.61Z" transform="translate(0.5 0.5)"/><path class="cls-7" d="M150,545.8a3.26,3.26,0,0,1-2.51-1.08,4.26,4.26,0,0,1-1-3,4.19,4.19,0,0,1,1-3,3.27,3.27,0,0,1,2.48-1.09,3.19,3.19,0,0,1,2.45,1.09,4.25,4.25,0,0,1,1,3,4.3,4.3,0,0,1-1,3A3.19,3.19,0,0,1,150,545.8Zm0-1.08a2,2,0,0,0,1.62-.79,4.09,4.09,0,0,0,0-4.4,2,2,0,0,0-1.63-.79,2.08,2.08,0,0,0-1.67.78,4.08,4.08,0,0,0,0,4.43A2.08,2.08,0,0,0,150,544.73Z" transform="translate(0.5 0.5)"/><path class="cls-7" d="M155.41,545.59v-7.7h1.13v.83h0a1.62,1.62,0,0,1,.68-.71,1.89,1.89,0,0,1,.92-.25,1.59,1.59,0,0,1,.34,0l.25.07.07,0-.22,1.18A1.32,1.32,0,0,0,158,539a1.21,1.21,0,0,0-1.08.49,2.82,2.82,0,0,0-.33,1.56v4.58Z" transform="translate(0.5 0.5)"/><path class="cls-7" d="M163.56,543l1.12-.22a2,2,0,0,0,2.14,2,2.32,2.32,0,0,0,1.37-.33,1,1,0,0,0,.46-.89,1,1,0,0,0-.43-.87,7.06,7.06,0,0,0-1.79-.67,5.44,5.44,0,0,1-2-.89,1.66,1.66,0,0,1-.58-1.34,1.93,1.93,0,0,1,.71-1.49,2.85,2.85,0,0,1,2-.63,3.08,3.08,0,0,1,2,.6,2.89,2.89,0,0,1,1,1.6l-1,.28a1.88,1.88,0,0,0-2-1.47,1.84,1.84,0,0,0-1.16.32.94.94,0,0,0-.41.75.77.77,0,0,0,.39.71,9.66,9.66,0,0,0,1.8.64,5,5,0,0,1,2.06,1,2,2,0,0,1,.57,1.47,2.07,2.07,0,0,1-.73,1.58,3.89,3.89,0,0,1-4.53-.12A3.23,3.23,0,0,1,163.56,543Z" transform="translate(0.5 0.5)"/><path class="cls-7" d="M171.65,536.33V535H173v1.35Zm.09,9.25v-7.7h1.19v7.7Z" transform="translate(0.5 0.5)"/><path class="cls-7" d="M175.77,543.35v-4.4h-1.07v-1.06h1.1V536h1.13v1.89h1.9v1.06h-1.89v4.26a1.78,1.78,0,0,0,.19,1,.86.86,0,0,0,.76.28h.58v1.15h-.64a2,2,0,0,1-1.58-.56A2.49,2.49,0,0,1,175.77,543.35Z" transform="translate(0.5 0.5)"/><path class="cls-7" d="M41,564.26v-.84h0a2.12,2.12,0,0,1-.83.72,3.1,3.1,0,0,1-1.53.34,2.72,2.72,0,0,1-1.94-.62,2.07,2.07,0,0,1-.66-1.57,2,2,0,0,1,.59-1.5,4.72,4.72,0,0,1,2-.91l.78-.2.59-.2a1.82,1.82,0,0,0,.48-.24,1.16,1.16,0,0,0,.25-.29.72.72,0,0,0,.11-.39,1,1,0,0,0-.4-.82,1.89,1.89,0,0,0-1.21-.33,1.74,1.74,0,0,0-1.87,1.53l-1.08-.3a2.73,2.73,0,0,1,.94-1.65,3,3,0,0,1,2-.63,3.16,3.16,0,0,1,2.11.66,2.57,2.57,0,0,1,.78,2.07v5.19Zm-2.12-3.47a3.57,3.57,0,0,0-1.34.6,1.06,1.06,0,0,0-.36.83q0,1.21,1.53,1.21a2.46,2.46,0,0,0,1.61-.47,1.45,1.45,0,0,0,.57-1.16v-1.92h0Q40.7,560.3,38.93,560.79Z" transform="translate(0.5 0.5)"/><path class="cls-7" d="M44.42,564.26v-7.7h1.08v.74h0a2,2,0,0,1,.81-.69,2.54,2.54,0,0,1,1.15-.27,2.27,2.27,0,0,1,1.24.33,2.33,2.33,0,0,1,.79.81h0a2.31,2.31,0,0,1,.85-.8,2.56,2.56,0,0,1,1.31-.33A2.48,2.48,0,0,1,54.37,559v5.25H53.22v-4.88q0-1.95-1.57-1.95a1.6,1.6,0,0,0-1.24.49,2,2,0,0,0-.44,1.36v5H48.82v-4.88q0-1.95-1.57-1.95A1.49,1.49,0,0,0,46,558a2.08,2.08,0,0,0-.41,1.33v5Z" transform="translate(0.5 0.5)"/><path class="cls-7" d="M62.1,561.9l1,.63a3.82,3.82,0,0,1-1.24,1.4,3.39,3.39,0,0,1-2,.56,3.31,3.31,0,0,1-2.57-1.11,4.25,4.25,0,0,1-1-3,4.31,4.31,0,0,1,1-3,3.22,3.22,0,0,1,2.54-1.11,3.17,3.17,0,0,1,2.5,1.09,4.35,4.35,0,0,1,1,3v.35H57.45a3,3,0,0,0,.62,1.87,2.07,2.07,0,0,0,1.74.77,2.61,2.61,0,0,0,.81-.12,2.9,2.9,0,0,0,.58-.25,1.72,1.72,0,0,0,.43-.41,4.32,4.32,0,0,0,.28-.37Zm-4.62-2.08h4.58a2.81,2.81,0,0,0-.58-1.69,2.33,2.33,0,0,0-3.4.05A2.73,2.73,0,0,0,57.48,559.82Z" transform="translate(0.5 0.5)"/><path class="cls-7" d="M65.47,562v-4.4H64.4v-1.06h1.1v-1.89h1.13v1.89h1.9v1.06H66.65v4.26a1.78,1.78,0,0,0,.19,1,.86.86,0,0,0,.76.28h.58v1.15h-.64a2,2,0,0,1-1.58-.56A2.49,2.49,0,0,1,65.47,562Z" transform="translate(0.5 0.5)"/><path class="cls-7" d="M70.57,565.8v-.65a.8.8,0,0,0,.7-.89h-.7v-1.71h1.71V564A1.6,1.6,0,0,1,70.57,565.8Z" transform="translate(0.5 0.5)"/><path class="cls-7" d="M82.28,561.32l1.15.23a3.44,3.44,0,0,1-1.06,2.14,3.07,3.07,0,0,1-2.15.8,3.24,3.24,0,0,1-2.53-1.08,4.3,4.3,0,0,1-1-3,4.24,4.24,0,0,1,1-3,3.25,3.25,0,0,1,2.5-1.1,3,3,0,0,1,2.1.78,3.33,3.33,0,0,1,1.05,2l-1.12.23a3,3,0,0,0-.67-1.42,1.73,1.73,0,0,0-1.37-.56,2.06,2.06,0,0,0-1.69.79,3.41,3.41,0,0,0-.64,2.2,3.47,3.47,0,0,0,.62,2.19,2.06,2.06,0,0,0,1.71.8,1.76,1.76,0,0,0,1.39-.62A2.76,2.76,0,0,0,82.28,561.32Z" transform="translate(0.5 0.5)"/><path class="cls-7" d="M88.31,564.48a3.26,3.26,0,0,1-2.51-1.08,4.26,4.26,0,0,1-1-3,4.19,4.19,0,0,1,1-3,3.27,3.27,0,0,1,2.48-1.09,3.19,3.19,0,0,1,2.45,1.09,4.25,4.25,0,0,1,1,3,4.3,4.3,0,0,1-1,3A3.19,3.19,0,0,1,88.31,564.48Zm0-1.08a2,2,0,0,0,1.62-.79,4.09,4.09,0,0,0,0-4.4,2,2,0,0,0-1.63-.79,2.08,2.08,0,0,0-1.67.78,4.08,4.08,0,0,0,0,4.43A2.08,2.08,0,0,0,88.31,563.41Z" transform="translate(0.5 0.5)"/><path class="cls-7" d="M93.71,564.26v-7.7h1.16v.74h0a2.31,2.31,0,0,1,.92-.69,3,3,0,0,1,1.25-.27,2.7,2.7,0,0,1,2,.77,2.84,2.84,0,0,1,.76,2.09v5.06H98.67v-4.68q0-2.15-1.77-2.15a2,2,0,0,0-1.45.51,1.83,1.83,0,0,0-.54,1.41v4.91Z" transform="translate(0.5 0.5)"/><path class="cls-7" d="M101.66,561.65l1.12-.22a2,2,0,0,0,2.14,2,2.32,2.32,0,0,0,1.37-.33,1,1,0,0,0,.46-.89,1,1,0,0,0-.43-.87,7.06,7.06,0,0,0-1.79-.67,5.44,5.44,0,0,1-2-.89,1.66,1.66,0,0,1-.58-1.34,1.93,1.93,0,0,1,.71-1.49,2.85,2.85,0,0,1,2-.63,3.08,3.08,0,0,1,2,.6,2.89,2.89,0,0,1,1,1.6l-1,.28a1.88,1.88,0,0,0-2-1.47,1.84,1.84,0,0,0-1.16.32.94.94,0,0,0-.41.75.77.77,0,0,0,.39.71,9.66,9.66,0,0,0,1.8.64,5,5,0,0,1,2.06,1,2,2,0,0,1,.57,1.47,2.07,2.07,0,0,1-.73,1.58,3.89,3.89,0,0,1-4.53-.12A3.23,3.23,0,0,1,101.66,561.65Z" transform="translate(0.5 0.5)"/><path class="cls-7" d="M115.08,561.9l1,.63a3.82,3.82,0,0,1-1.24,1.4,3.39,3.39,0,0,1-2,.56,3.31,3.31,0,0,1-2.57-1.11,4.25,4.25,0,0,1-1-3,4.31,4.31,0,0,1,1-3,3.22,3.22,0,0,1,2.54-1.11,3.17,3.17,0,0,1,2.5,1.09,4.35,4.35,0,0,1,1,3v.35h-5.78a3,3,0,0,0,.62,1.87,2.07,2.07,0,0,0,1.74.77,2.61,2.61,0,0,0,.81-.12,2.9,2.9,0,0,0,.58-.25,1.72,1.72,0,0,0,.43-.41,4.32,4.32,0,0,0,.28-.37Zm-4.62-2.08H115a2.81,2.81,0,0,0-.58-1.69,2.33,2.33,0,0,0-3.4.05A2.73,2.73,0,0,0,110.46,559.82Z" transform="translate(0.5 0.5)"/><path class="cls-7" d="M123.23,561.32l1.15.23a3.44,3.44,0,0,1-1.06,2.14,3.07,3.07,0,0,1-2.15.8,3.24,3.24,0,0,1-2.53-1.08,4.3,4.3,0,0,1-1-3,4.24,4.24,0,0,1,1-3,3.25,3.25,0,0,1,2.5-1.1,3,3,0,0,1,2.1.78,3.33,3.33,0,0,1,1.05,2l-1.12.23a3,3,0,0,0-.67-1.42,1.73,1.73,0,0,0-1.37-.56,2.06,2.06,0,0,0-1.69.79,3.41,3.41,0,0,0-.64,2.2,3.47,3.47,0,0,0,.62,2.19,2.06,2.06,0,0,0,1.71.8,1.76,1.76,0,0,0,1.39-.62A2.76,2.76,0,0,0,123.23,561.32Z" transform="translate(0.5 0.5)"/><path class="cls-7" d="M126.55,562v-4.4h-1.07v-1.06h1.1v-1.89h1.13v1.89h1.9v1.06h-1.89v4.26a1.78,1.78,0,0,0,.19,1,.86.86,0,0,0,.76.28h.58v1.15h-.64a2,2,0,0,1-1.58-.56A2.49,2.49,0,0,1,126.55,562Z" transform="translate(0.5 0.5)"/><path class="cls-7" d="M136.54,561.9l1,.63a3.82,3.82,0,0,1-1.24,1.4,3.39,3.39,0,0,1-2,.56,3.31,3.31,0,0,1-2.57-1.11,4.25,4.25,0,0,1-1-3,4.31,4.31,0,0,1,1-3,3.22,3.22,0,0,1,2.54-1.11,3.17,3.17,0,0,1,2.5,1.09,4.35,4.35,0,0,1,1,3v.35h-5.78a3,3,0,0,0,.62,1.87,2.07,2.07,0,0,0,1.74.77,2.61,2.61,0,0,0,.81-.12,2.9,2.9,0,0,0,.58-.25,1.72,1.72,0,0,0,.43-.41,4.32,4.32,0,0,0,.28-.37Zm-4.62-2.08h4.58a2.81,2.81,0,0,0-.58-1.69,2.33,2.33,0,0,0-3.4.05A2.73,2.73,0,0,0,131.92,559.82Z" transform="translate(0.5 0.5)"/><path class="cls-7" d="M139.91,562v-4.4h-1.07v-1.06h1.1v-1.89h1.13v1.89H143v1.06h-1.89v4.26a1.78,1.78,0,0,0,.19,1,.86.86,0,0,0,.76.28h.58v1.15H142a2,2,0,0,1-1.58-.56A2.49,2.49,0,0,1,139.91,562Z" transform="translate(0.5 0.5)"/><path class="cls-7" d="M144.79,561.58v-5H146v4.84a2.24,2.24,0,0,0,.41,1.53,1.79,1.79,0,0,0,1.37.45,1.67,1.67,0,0,0,1.34-.54,2.21,2.21,0,0,0,.46-1.5v-4.78h1.18v7.7h-1.16v-.74h0l-.22.26a2.64,2.64,0,0,1-.68.43,2.53,2.53,0,0,1-1.16.27,2.68,2.68,0,0,1-2-.73A3,3,0,0,1,144.79,561.58Z" transform="translate(0.5 0.5)"/><path class="cls-7" d="M158.55,561.9l1,.63a3.82,3.82,0,0,1-1.24,1.4,3.39,3.39,0,0,1-2,.56,3.31,3.31,0,0,1-2.57-1.11,4.25,4.25,0,0,1-1-3,4.31,4.31,0,0,1,1-3,3.22,3.22,0,0,1,2.54-1.11,3.17,3.17,0,0,1,2.5,1.09,4.35,4.35,0,0,1,1,3v.35H153.9a3,3,0,0,0,.62,1.87,2.07,2.07,0,0,0,1.74.77,2.61,2.61,0,0,0,.81-.12,2.9,2.9,0,0,0,.58-.25,1.72,1.72,0,0,0,.43-.41,4.32,4.32,0,0,0,.28-.37Zm-4.62-2.08h4.58a2.81,2.81,0,0,0-.58-1.69,2.33,2.33,0,0,0-3.4.05A2.73,2.73,0,0,0,153.93,559.82Z" transform="translate(0.5 0.5)"/><path class="cls-7" d="M161.65,564.26v-7.7h1.13v.83h0a1.62,1.62,0,0,1,.68-.71,1.89,1.89,0,0,1,.92-.25,1.59,1.59,0,0,1,.34,0l.25.07.07,0-.22,1.18a1.32,1.32,0,0,0-.61-.12,1.21,1.21,0,0,0-1.08.49,2.82,2.82,0,0,0-.33,1.56v4.58Z" transform="translate(0.5 0.5)"/><path class="cls-7" d="M79.49,290.21l-19.1-24.5H48.52v24.5H36.64v-84H72.15a10,10,0,0,1,7,2.81l6.69,6.8a10.29,10.29,0,0,1,2.91,6.91V249.2a10.29,10.29,0,0,1-2.91,6.91l-6.69,6.8a9.67,9.67,0,0,1-4.32,2.48L88.77,283v7.23ZM76.9,248.55V223.4l-5.61-5.72H48.52v36.59H71.29Z" transform="translate(0.5 0.5)"/><path class="cls-7" d="M146.94,287.4a10,10,0,0,1-7,2.81h-21a10,10,0,0,1-7-2.81l-6.69-6.8a10.29,10.29,0,0,1-2.91-6.91V206.24h11.87V273l5.61,5.72h19.32l5.61-5.72V206.24h11.87v67.45a10.29,10.29,0,0,1-2.91,6.91Z" transform="translate(0.5 0.5)"/><path class="cls-7" d="M214.61,287.4a10,10,0,0,1-7,2.81H172.08v-84h33.35a10,10,0,0,1,7,2.81l6.69,6.8a10.3,10.3,0,0,1,2.91,6.91v12.63a10.29,10.29,0,0,1-2.91,6.91l-2.81,2.81,5,5a10.29,10.29,0,0,1,2.91,6.91v16.73a10.29,10.29,0,0,1-2.91,6.91Zm-4.43-52.67V223.4l-5.61-5.72H184v22.77h20.61ZM212.34,273V257.61l-5.61-5.72H184v26.87h22.77Z" transform="translate(0.5 0.5)"/><path class="cls-7" d="M281,290.21l-19.1-24.5H250v24.5H238.13v-84h35.51a10,10,0,0,1,7,2.81l6.69,6.8a10.3,10.3,0,0,1,2.91,6.91V249.2a10.29,10.29,0,0,1-2.91,6.91l-6.69,6.8a9.67,9.67,0,0,1-4.32,2.48L290.26,283v7.23Zm-2.59-41.66V223.4l-5.61-5.72H250v36.59h22.77Z" transform="translate(0.5 0.5)"/><path class="cls-7" d="M302.24,290.21v-11h8.85V217.25h-8.85v-11h29.57v11H323V279.2h8.85v11Z" transform="translate(0.5 0.5)"/><path class="cls-7" d="M393.33,290.21l-29-40.8L357.71,256v34.21H345.84v-84h11.87v33.35l33.35-33.35h9.28v7L372.71,241l29.9,42v7.23Z" transform="translate(0.5 0.5)"/><rect class="cls-7" x="56.4" y="62.81" width="2.34" height="8.16" transform="translate(-29.68 58.01) rotate(-43.18)"/><circle class="cls-7" cx="63.26" cy="65.74" r="1.25" transform="translate(-27.35 61.59) rotate(-43.18)"/><circle class="cls-7" cx="56.09" cy="72.47" r="1.25" transform="translate(-33.9 58.51) rotate(-43.18)"/><path class="cls-7" d="M76.3,49.71l-.18-.8-.8.17c-9.9,2.12-18.25-2.84-18.34-2.9l-.44-.27-.43.27a27.7,27.7,0,0,1-18.33,2.95L37,49l-.18.8a42.28,42.28,0,0,0-.68,9.92C36.72,78.76,49,91.16,56.18,95.48l.43.26.43-.27C64.2,91.13,76.46,78.7,77,59.61A42.4,42.4,0,0,0,76.3,49.71Zm-38.5,9.92a45.71,45.71,0,0,1,.49-8.7,29.06,29.06,0,0,0,18.26-3.07,29.57,29.57,0,0,0,7.74,2.79L40.39,73.07A42.44,42.44,0,0,1,37.79,59.62ZM56.61,93.79A38.73,38.73,0,0,1,47.9,86l27.4-25.72A43,43,0,0,1,56.61,93.79ZM75.35,58.61,47.17,85.06a43.7,43.7,0,0,1-6.31-10.84L65.7,50.91a27,27,0,0,0,9.13,0A45.82,45.82,0,0,1,75.35,58.61Z" transform="translate(0.5 0.5)"/><polygon class="cls-7" points="67.47 57.66 65.66 59.37 64.73 58.39 66.58 56.65 65.14 55.13 61.6 58.47 67.19 64.4 68.89 62.8 67.09 60.88 68.9 59.18 67.47 57.66"/><path class="cls-7" d="M46.46,71.73l-2,1.87,5.59,5.94,2-1.86a4.08,4.08,0,0,0-5.59-6Zm4,4.63-.11.11-2.79-3,.12-.12a2,2,0,0,1,2.78,3Z" transform="translate(0.5 0.5)"/><circle class="cls-7" cx="70.91" cy="58.55" r="1.25" transform="translate(-20.36 64.88) rotate(-43.18)"/></svg>