<?xml version="1.0" encoding="utf-8"?>
<!-- Generator: Adobe Illustrator 21.0.2, SVG Export Plug-In . SVG Version: 6.00 Build 0)  -->
<svg version="1.1" id="Guides" xmlns="http://www.w3.org/2000/svg" xmlns:xlink="http://www.w3.org/1999/xlink" x="0px" y="0px"
	 viewBox="0 0 1009 814.2" style="enable-background:new 0 0 1009 814.2;" xml:space="preserve">
<style type="text/css">
	.st0{fill:#FFFFFF;}
	.st1{opacity:0.3;fill:none;stroke:#000000;stroke-miterlimit:10;enable-background:new    ;}
	.st2{fill:#969696;}
	.st3{fill:#BEBEBE;}
	.st4{fill:none;stroke:#00FFFF;stroke-miterlimit:10;}
	.st5{fill:none;stroke:#00FFFF;stroke-width:0.25;stroke-miterlimit:10;}
	.st6{opacity:0.5;enable-background:new    ;}
	.st7{opacity:0.35;enable-background:new    ;}
	.st8{opacity:0.15;fill:#FFFFFF;enable-background:new    ;}
	.st9{fill:none;stroke:#00FFFF;stroke-width:0.5;stroke-miterlimit:10;}
</style>
<title>grid_flexibility</title>
<g>
	<rect x="-0.1" class="st0" width="137.4" height="194.4"/>
	<rect x="174.3" class="st0" width="137.4" height="194.4"/>
	<rect x="871.4" y="227" class="st0" width="137.4" height="194.4"/>
	<rect x="-0.1" y="459.9" class="st0" width="311.9" height="175.2"/>
	<rect x="348.8" y="459.9" class="st0" width="103.1" height="103.4"/>
	<rect x="523.2" y="227" class="st0" width="137.4" height="194.4"/>
	<line class="st1" x1="137.3" y1="0.4" x2="-0.1" y2="194.4"/>
	<line class="st1" x1="-0.1" y1="0.4" x2="137.3" y2="194.4"/>
	<rect x="523.6" y="0.4" class="st2" width="34.2" height="194"/>
	<rect x="557.8" y="0.4" class="st3" width="102.7" height="194"/>
	<rect x="523.2" class="st4" width="137.4" height="194.4"/>
	<line class="st4" x1="534.6" y1="194.4" x2="534.6" y2="0"/>
	<line class="st4" x1="546.1" y1="194.4" x2="546.1" y2="0"/>
	<line class="st4" x1="557.6" y1="194.4" x2="557.6" y2="0"/>
	<line class="st4" x1="569" y1="194.4" x2="569" y2="0"/>
	<line class="st4" x1="580.5" y1="194.4" x2="580.5" y2="0"/>
	<line class="st4" x1="591.9" y1="194.4" x2="591.9" y2="0"/>
	<line class="st4" x1="603.4" y1="194.4" x2="603.4" y2="0"/>
	<line class="st4" x1="614.8" y1="194.4" x2="614.8" y2="0"/>
	<line class="st4" x1="626.3" y1="194.4" x2="626.3" y2="0"/>
	<line class="st4" x1="637.7" y1="194.4" x2="637.7" y2="0"/>
	<line class="st4" x1="649.2" y1="194.4" x2="649.2" y2="0"/>
	<rect x="523.2" class="st5" width="137.4" height="194.4"/>
	<line class="st5" x1="660.6" y1="16.2" x2="523.2" y2="16.2"/>
	<line class="st5" x1="660.6" y1="32.4" x2="523.2" y2="32.4"/>
	<line class="st5" x1="660.6" y1="48.6" x2="523.2" y2="48.6"/>
	<line class="st5" x1="660.6" y1="64.8" x2="523.2" y2="64.8"/>
	<line class="st5" x1="660.6" y1="81" x2="523.2" y2="81"/>
	<line class="st5" x1="660.6" y1="97.2" x2="523.2" y2="97.2"/>
	<line class="st5" x1="660.6" y1="113.4" x2="523.2" y2="113.4"/>
	<line class="st5" x1="660.6" y1="129.6" x2="523.2" y2="129.6"/>
	<line class="st5" x1="660.6" y1="145.8" x2="523.2" y2="145.8"/>
	<line class="st5" x1="660.6" y1="162" x2="523.2" y2="162"/>
	<line class="st5" x1="660.6" y1="178.2" x2="523.2" y2="178.2"/>
	<line class="st1" x1="311.7" y1="459.9" x2="-0.1" y2="635.1"/>
	<line class="st1" x1="-0.1" y1="459.9" x2="311.7" y2="635.1"/>
	<rect x="-0.1" y="561.9" class="st3" width="78" height="14.6"/>
	<rect x="-0.1" y="532.7" class="st2" width="104" height="29.2"/>
	<rect x="-0.1" y="459.9" class="st4" width="311.9" height="174.9"/>
	<line class="st4" x1="-0.1" y1="474.4" x2="311.7" y2="474.4"/>
	<line class="st4" x1="-0.1" y1="489" x2="311.7" y2="489"/>
	<line class="st4" x1="-0.1" y1="503.6" x2="311.7" y2="503.6"/>
	<line class="st4" x1="-0.1" y1="518.2" x2="311.7" y2="518.2"/>
	<line class="st4" x1="-0.1" y1="532.7" x2="311.7" y2="532.7"/>
	<line class="st4" x1="-0.1" y1="547.3" x2="311.7" y2="547.3"/>
	<line class="st4" x1="-0.1" y1="561.9" x2="311.7" y2="561.9"/>
	<line class="st4" x1="-0.1" y1="576.5" x2="311.7" y2="576.5"/>
	<line class="st4" x1="-0.1" y1="591" x2="311.7" y2="591"/>
	<line class="st4" x1="-0.1" y1="605.6" x2="311.7" y2="605.6"/>
	<line class="st4" x1="-0.1" y1="620.2" x2="311.7" y2="620.2"/>
	<line class="st4" x1="285.8" y1="634.8" x2="285.8" y2="459.9"/>
	<line class="st4" x1="259.8" y1="634.8" x2="259.8" y2="459.9"/>
	<line class="st4" x1="233.8" y1="634.8" x2="233.8" y2="459.9"/>
	<line class="st4" x1="207.8" y1="634.8" x2="207.8" y2="459.9"/>
	<line class="st4" x1="181.8" y1="634.8" x2="181.8" y2="459.9"/>
	<line class="st4" x1="155.8" y1="634.8" x2="155.8" y2="459.9"/>
	<line class="st4" x1="129.8" y1="634.8" x2="129.8" y2="459.9"/>
	<line class="st4" x1="103.8" y1="634.8" x2="103.8" y2="459.9"/>
	<line class="st4" x1="77.8" y1="634.8" x2="77.8" y2="459.9"/>
	<line class="st4" x1="51.8" y1="634.8" x2="51.8" y2="459.9"/>
	<line class="st4" x1="25.9" y1="634.8" x2="25.9" y2="459.9"/>
	<path class="st0" d="M21,554.1l-3.1-4h-2v4h-2v-13.8h5.8c0.4,0,0.8,0.2,1.1,0.5l1.1,1.1c0.3,0.3,0.5,0.7,0.5,1.1v4.3
		c0,0.4-0.2,0.8-0.5,1.1l-1.1,1.1c-0.2,0.2-0.4,0.3-0.7,0.4l2.3,2.9v1.2L21,554.1z M20.5,547.3v-4.2l-0.9-0.9h-3.7v6h3.7L20.5,547.3
		z"/>
	<path class="st0" d="M32.6,553.6c-0.3,0.3-0.7,0.5-1.1,0.5H28c-0.4,0-0.8-0.2-1.1-0.5l-1.1-1c-0.3-0.3-0.5-0.7-0.5-1.1v-11.1h2v11
		l0.9,0.9h3.1l0.9-0.9v-11h2v11.1c0,0.4-0.2,0.8-0.5,1.1L32.6,553.6z"/>
	<path class="st0" d="M44.2,553.6c-0.3,0.3-0.7,0.5-1.1,0.5h-5.8v-13.8h5.5c0.4,0,0.8,0.2,1.1,0.5l1.1,1.1c0.3,0.3,0.5,0.7,0.5,1.1
		v2.1c0,0.4-0.2,0.8-0.5,1.1l-0.5,0.5l0.8,0.8c0.3,0.3,0.5,0.7,0.5,1.1v2.7c0,0.4-0.2,0.8-0.5,1.1L44.2,553.6z M43.5,545v-1.8
		l-0.9-0.9h-3.4v3.7h3.4L43.5,545z M43.8,551.2v-2.5l-0.9-0.9h-3.7v4.4h3.7L43.8,551.2z"/>
	<path class="st0" d="M55.7,554.1l-3.1-4h-1.9v4h-2v-13.8h5.8c0.4,0,0.8,0.2,1.1,0.5l1.1,1.1c0.3,0.3,0.5,0.7,0.5,1.1v4.3
		c0,0.4-0.2,0.8-0.5,1.1l-1.1,1.1c-0.2,0.2-0.4,0.3-0.7,0.4l2.3,2.9v1.2L55.7,554.1z M55.2,547.3v-4.2l-0.9-0.9h-3.7v6h3.7
		L55.2,547.3z"/>
	<path class="st0" d="M59.7,554.1v-1.8h1.5v-10.2h-1.5v-1.8h4.9v1.8h-1.4v10.2h1.5v1.8L59.7,554.1z"/>
	<path class="st0" d="M75.2,554.1l-4.8-6.7l-1,1v5.6h-2v-13.8h2v5.5l5.5-5.5h1.5v1.1l-4.5,4.6l4.9,6.9v1.2L75.2,554.1z"/>
	<path class="st0" d="M14.2,570.5c-0.1,0.1-0.1,0.1-0.2,0.1h-0.7c-0.1,0-0.2,0-0.2-0.1l-0.3-0.3l0.3-0.3l0.3,0.3h0.6l0.2-0.2v-0.3
		l-1.2-0.7c-0.1-0.1-0.1-0.1-0.1-0.2v-0.4c0-0.1,0-0.2,0.1-0.2l0.2-0.2c0.1-0.1,0.1-0.1,0.2-0.1H14c0.1,0,0.2,0,0.2,0.1l0.3,0.3
		l-0.3,0.3l-0.2-0.3h-0.5l-0.2,0.2v0.3l1.2,0.7c0.1,0.1,0.1,0.1,0.1,0.2v0.4c0,0.1,0,0.2-0.1,0.2L14.2,570.5z"/>
	<path class="st0" d="M16.4,570.5c-0.1,0.1-0.1,0.1-0.2,0.1h-0.7c-0.1,0-0.2,0-0.2-0.1l-0.2-0.2c-0.1-0.1-0.1-0.1-0.1-0.2v-2.2h0.4
		v2.2l0.2,0.2h0.6l0.2-0.2v-2.2h0.4v2.2c0,0.1,0,0.2-0.1,0.2L16.4,570.5z"/>
	<path class="st0" d="M18.6,570.5c-0.1,0.1-0.1,0.1-0.2,0.1h-1.2v-2.8h1c0.1,0,0.2,0,0.2,0.1l0.2,0.2c0.1,0.1,0.1,0.1,0.1,0.2v0.4
		c0,0.1,0,0.2-0.1,0.2l-0.1,0.1l0.2,0.2c0.1,0.1,0.1,0.1,0.1,0.2v0.6c0,0.1,0,0.2-0.1,0.2L18.6,570.5z M18.5,568.8v-0.4l-0.2-0.2
		h-0.7v0.8h0.7L18.5,568.8z M18.5,570v-0.5l-0.2-0.2h-0.8v0.9h0.8L18.5,570z"/>
	<path class="st0" d="M21.7,570.6v-1.2h-1v1.2h-0.4v-2.8h0.4v1.2h1v-1.2h0.4v2.8H21.7z"/>
	<path class="st0" d="M22.6,570.6v-2.8h1.6v0.4H23v0.8h0.9v0.4H23v0.8h1.2v0.4L22.6,570.6z"/>
	<path class="st0" d="M26,570.6l-0.2-0.8H25l-0.2,0.8h-0.3v-0.3L25,568c0-0.1,0.1-0.2,0.2-0.1h0.4c0.1,0,0.2,0.1,0.2,0.1l0.6,2.3
		v0.3L26,570.6z M25.5,568.2h-0.1l-0.3,1.2h0.7L25.5,568.2z"/>
	<path class="st0" d="M28.2,570.5c-0.1,0.1-0.1,0.1-0.2,0.1h-1.2v-2.8H28c0.1,0,0.2,0,0.2,0.1l0.2,0.2c0.1,0.1,0.1,0.1,0.1,0.2v1.7
		c0,0.1,0,0.2-0.1,0.2L28.2,570.5z M28.1,570v-1.6l-0.2-0.2h-0.8v2h0.8L28.1,570z"/>
	<path class="st0" d="M28.8,571.1l1.7-3.3h0.3l-1.7,3.3H28.8z"/>
	<path class="st0" d="M32.3,570.5c-0.1,0.1-0.1,0.1-0.2,0.1h-0.7c-0.1,0-0.2,0-0.2-0.1l-0.3-0.3l0.3-0.3l0.3,0.3h0.6l0.2-0.2v-0.3
		l-1.2-0.7c-0.1-0.1-0.1-0.1-0.1-0.2v-0.4c0-0.1,0-0.2,0.1-0.2l0.2-0.2c0.1-0.1,0.1-0.1,0.2-0.1h0.6c0.1,0,0.2,0,0.2,0.1l0.3,0.3
		l-0.3,0.3l-0.2-0.3h-0.5l-0.2,0.2v0.3l1.2,0.7c0.1,0.1,0.1,0.1,0.1,0.2v0.4c0,0.1,0,0.2-0.1,0.2L32.3,570.5z"/>
	<path class="st0" d="M33,570.6v-2.8h1.6v0.4h-1.2v0.8h0.9v0.4h-0.9v0.8h1.2v0.4L33,570.6z"/>
	<path class="st0" d="M36.5,570.5c-0.1,0.1-0.1,0.1-0.2,0.1h-0.7c-0.1,0-0.2,0-0.2-0.1l-0.2-0.2c-0.1-0.1-0.1-0.1-0.1-0.2v-1.7
		c0-0.1,0-0.2,0.1-0.2l0.2-0.2c0.1-0.1,0.1-0.1,0.2-0.1h0.7c0.1,0,0.2,0,0.2,0.1l0.3,0.3l-0.3,0.3l-0.2-0.3h-0.6l-0.2,0.2v1.6
		l0.2,0.2h0.6l0.2-0.3l0.3,0.3L36.5,570.5z"/>
	<path class="st0" d="M38.7,570.5c-0.1,0.1-0.1,0.1-0.2,0.1h-0.7c-0.1,0-0.2,0-0.2-0.1l-0.2-0.2c-0.1-0.1-0.1-0.1-0.1-0.2v-1.7
		c0-0.1,0-0.2,0.1-0.2l0.2-0.2c0.1-0.1,0.1-0.1,0.2-0.1h0.7c0.1,0,0.2,0,0.2,0.1l0.2,0.2c0.1,0.1,0.1,0.1,0.1,0.2v1.7
		c0,0.1,0,0.2-0.1,0.2L38.7,570.5z M38.6,570v-1.6l-0.2-0.2h-0.6l-0.2,0.2v1.6l0.2,0.2h0.6L38.6,570z"/>
	<path class="st0" d="M40.8,570.6V570l-0.9-1.5v2.1h-0.4v-2.8h0.4l0.9,1.5v-1.5h0.4v2.8L40.8,570.6z"/>
	<path class="st0" d="M43.2,570.5c-0.1,0.1-0.1,0.1-0.2,0.1h-1.2v-2.8h1.2c0.1,0,0.2,0,0.2,0.1l0.2,0.2c0.1,0.1,0.1,0.1,0.1,0.2v1.7
		c0,0.1,0,0.2-0.1,0.2L43.2,570.5z M43.1,570v-1.6l-0.2-0.2h-0.8v2h0.8L43.1,570z"/>
	<path class="st0" d="M45.5,570.6l-0.2-0.8h-0.9l-0.2,0.8h-0.3v-0.3l0.6-2.3c0-0.1,0.1-0.2,0.2-0.1H45c0.1,0,0.2,0.1,0.2,0.1
		l0.6,2.3v0.3L45.5,570.6z M44.9,568.2h-0.1l-0.3,1.2h0.7L44.9,568.2z"/>
	<path class="st0" d="M47.5,570.6l-0.6-0.8h-0.4v0.8h-0.4v-2.8h1.2c0.1,0,0.2,0,0.2,0.1l0.2,0.2c0.1,0.1,0.1,0.1,0.1,0.2v0.9
		c0,0.1,0,0.2-0.1,0.2l-0.2,0.2c0,0-0.1,0.1-0.1,0.1l0.5,0.6v0.2H47.5z M47.5,569.3v-0.8l-0.2-0.2h-0.8v1.2h0.8L47.5,569.3z"/>
	<path class="st0" d="M48.9,570.6v-1l-0.6-0.6c-0.1-0.1-0.1-0.1-0.1-0.2v-0.9h0.4v0.9l0.5,0.5l0.5-0.5v-0.9H50v0.9
		c0,0.1,0,0.2-0.1,0.2l-0.6,0.6v1H48.9z"/>
	<path class="st0" d="M51.4,570.6v-0.4h0.3v-2.1h-0.3v-0.4h1v0.4H52v2.1h0.3v0.4L51.4,570.6z"/>
	<path class="st0" d="M54.1,570.6V570l-0.9-1.5v2.1h-0.4v-2.8h0.4l0.9,1.5v-1.5h0.4v2.8L54.1,570.6z"/>
	<path class="st0" d="M55,570.6v-2.8h1.5v0.4h-1.1v0.8h0.8v0.4h-0.8v1.2L55,570.6z"/>
	<path class="st0" d="M58.3,570.5c-0.1,0.1-0.1,0.1-0.2,0.1h-0.7c-0.1,0-0.2,0-0.2-0.1l-0.2-0.2c-0.1-0.1-0.1-0.1-0.1-0.2v-1.7
		c0-0.1,0-0.2,0.1-0.2l0.2-0.2c0.1-0.1,0.1-0.1,0.2-0.1h0.7c0.1,0,0.2,0,0.2,0.1l0.2,0.2c0.1,0.1,0.1,0.1,0.1,0.2v1.7
		c0,0.1,0,0.2-0.1,0.2L58.3,570.5z M58.3,570v-1.6l-0.2-0.2h-0.6l-0.2,0.2v1.6l0.2,0.2h0.6L58.3,570z"/>
	<path class="st0" d="M60.6,570.6l-0.6-0.8h-0.4v0.8h-0.4v-2.8h1.2c0.1,0,0.2,0,0.2,0.1l0.2,0.2c0.1,0.1,0.1,0.1,0.1,0.2v0.9
		c0,0.1,0,0.2-0.1,0.2l-0.2,0.2c0,0-0.1,0.1-0.1,0.1l0.5,0.6v0.2H60.6z M60.5,569.3v-0.8l-0.2-0.2h-0.7v1.2h0.8L60.5,569.3z"/>
	<path class="st0" d="M63,570.6v-1.9l-0.3,0.9c0,0.1-0.1,0.1-0.2,0.1h-0.3c-0.1,0-0.2-0.1-0.2-0.1l-0.3-0.9v1.9h-0.4v-2.8h0.4
		l0.6,1.5h0.1l0.6-1.5h0.4v2.8H63z"/>
	<path class="st0" d="M65.3,570.6l-0.2-0.8h-0.9l-0.2,0.8h-0.3v-0.3l0.6-2.3c0-0.1,0.1-0.2,0.2-0.1h0.4c0.1,0,0.2,0.1,0.2,0.1
		l0.6,2.3v0.3L65.3,570.6z M64.8,568.2h-0.1l-0.3,1.2h0.7L64.8,568.2z"/>
	<path class="st0" d="M66.6,570.6v-2.4h-0.7v-0.4h1.8v0.4H67v2.4H66.6z"/>
	<path class="st0" d="M67.9,570.6v-0.4h0.3v-2.1h-0.3v-0.4h1v0.4h-0.3v2.1h0.3v0.4L67.9,570.6z"/>
	<path class="st0" d="M70.8,570.5c-0.1,0.1-0.1,0.1-0.2,0.1h-0.7c-0.1,0-0.2,0-0.2-0.1l-0.2-0.2c-0.1-0.1-0.1-0.1-0.1-0.2v-1.7
		c0-0.1,0-0.2,0.1-0.2l0.2-0.2c0.1-0.1,0.1-0.1,0.2-0.1h0.7c0.1,0,0.2,0,0.2,0.1l0.2,0.2c0.1,0.1,0.1,0.1,0.1,0.2v1.7
		c0,0.1,0,0.2-0.1,0.2L70.8,570.5z M70.8,570v-1.6l-0.2-0.2h-0.6l-0.2,0.2v1.6l0.2,0.2h0.6L70.8,570z"/>
	<path class="st0" d="M73,570.6V570l-0.9-1.5v2.1h-0.4v-2.8h0.4l0.9,1.5v-1.5h0.4v2.8L73,570.6z"/>
	<rect x="-0.1" class="st4" width="137.4" height="194.4"/>
	<line class="st4" x1="11.3" y1="194.4" x2="11.3" y2="0"/>
	<line class="st4" x1="22.8" y1="194.4" x2="22.8" y2="0"/>
	<line class="st4" x1="34.2" y1="194.4" x2="34.2" y2="0"/>
	<line class="st4" x1="45.7" y1="194.4" x2="45.7" y2="0"/>
	<line class="st4" x1="57.1" y1="194.4" x2="57.1" y2="0"/>
	<line class="st4" x1="68.6" y1="194.4" x2="68.6" y2="0"/>
	<line class="st4" x1="80" y1="194.4" x2="80" y2="0"/>
	<line class="st4" x1="91.5" y1="194.4" x2="91.5" y2="0"/>
	<line class="st4" x1="102.9" y1="194.4" x2="102.9" y2="0"/>
	<line class="st4" x1="114.4" y1="194.4" x2="114.4" y2="0"/>
	<line class="st4" x1="125.9" y1="194.4" x2="125.9" y2="0"/>
	<rect x="-0.1" class="st5" width="137.4" height="194.4"/>
	<line class="st5" x1="137.3" y1="16.2" x2="-0.1" y2="16.2"/>
	<line class="st5" x1="137.3" y1="32.4" x2="-0.1" y2="32.4"/>
	<line class="st5" x1="137.3" y1="48.6" x2="-0.1" y2="48.6"/>
	<line class="st5" x1="137.3" y1="64.8" x2="-0.1" y2="64.8"/>
	<line class="st5" x1="137.3" y1="81" x2="-0.1" y2="81"/>
	<line class="st5" x1="137.3" y1="97.2" x2="-0.1" y2="97.2"/>
	<line class="st5" x1="137.3" y1="113.4" x2="-0.1" y2="113.4"/>
	<line class="st5" x1="137.3" y1="129.6" x2="-0.1" y2="129.6"/>
	<line class="st5" x1="137.3" y1="145.8" x2="-0.1" y2="145.8"/>
	<line class="st5" x1="137.3" y1="162" x2="-0.1" y2="162"/>
	<line class="st5" x1="137.3" y1="178.2" x2="-0.1" y2="178.2"/>
	<path class="st6" d="M12.8,131.4v-17.9h2.5V129h7v2.4L12.8,131.4z"/>
	<path class="st6" d="M34.9,131.4l-1.2-5.1h-5.9l-1.2,5.1h-2.2v-1.8l3.7-15.2c0.1-0.6,0.6-1,1.2-1h2.9c0.6,0,1.1,0.4,1.2,1l3.7,15.2
		v1.8H34.9z M27.1,112.2v-2.5h2.5v2.5H27.1z M31.2,115.9h-0.9l-1.8,7.9H33L31.2,115.9z M31.8,112.2v-2.5h2.5v2.5H31.8z"/>
	<path class="st6" d="M48.4,131.4v-3.8l-6.1-9.6v13.4h-2.5v-17.9h2.6l6,9.5v-9.5h2.5v17.9L48.4,131.4z"/>
	<path class="st6" d="M64.6,130.8c-0.4,0.4-0.9,0.6-1.5,0.6h-4.6c-0.6,0-1.1-0.2-1.5-0.6l-1.4-1.5c-0.4-0.4-0.6-0.9-0.6-1.5V117
		c0-0.6,0.2-1.1,0.6-1.5l1.4-1.5c0.4-0.4,0.9-0.6,1.5-0.6h4.6c0.6,0,1.1,0.2,1.5,0.6l1.8,1.8l-2,1.6l-1.6-1.6h-4.2l-1.2,1.2v10.6
		l1.2,1.3h4.2l1.2-1.2v-4.2h-3.2v-2.4h5.7v6.8c0,0.6-0.2,1.1-0.6,1.5L64.6,130.8z"/>
	<path class="st6" d="M79.5,131.4l-4.1-5.2h-2.5v5.2h-2.5v-17.9h7.6c0.6,0,1.1,0.2,1.5,0.6l1.4,1.5c0.4,0.4,0.6,0.9,0.6,1.5v5.6
		c0,0.6-0.2,1.1-0.6,1.5l-1.4,1.5c-0.3,0.3-0.6,0.4-0.9,0.5l3,3.8v1.5L79.5,131.4z M78.9,122.5v-5.4l-1.2-1.2h-4.9v7.8h4.9
		L78.9,122.5z"/>
	<path class="st6" d="M85,131.4v-17.9h10.3v2.4h-7.7v5.2h5.9v2.4h-5.9v5.4h7.7v2.4L85,131.4z"/>
	<path class="st6" d="M21.9,159.2l-4.1-5.2h-2.5v5.2h-2.5v-17.9h7.6c0.6,0,1.1,0.2,1.5,0.6l1.4,1.5c0.4,0.4,0.6,0.9,0.6,1.5v5.6
		c0,0.6-0.2,1.1-0.6,1.5l-1.4,1.5c-0.3,0.3-0.6,0.4-0.9,0.5l3,3.8v1.6H21.9z M21.4,150.3V145l-1.2-1.2h-4.9v7.8h4.9L21.4,150.3z"/>
	<path class="st6" d="M37,158.6c-0.4,0.4-0.9,0.6-1.5,0.6H31c-0.6,0-1.1-0.2-1.5-0.6l-1.4-1.5c-0.4-0.4-0.6-0.9-0.6-1.5v-14.4H30
		v14.3l1.2,1.2h4.2l1.2-1.2v-14.2h2.5v14.4c0,0.6-0.2,1.1-0.6,1.5L37,158.6z"/>
	<path class="st6" d="M52.2,158.6c-0.4,0.4-0.9,0.6-1.5,0.6h-7.6v-17.9h7.1c0.6,0,1.1,0.2,1.5,0.6l1.4,1.5c0.4,0.4,0.6,0.9,0.6,1.5
		v2.7c0,0.6-0.2,1.1-0.6,1.5l-0.6,0.6l1,1c0.4,0.4,0.6,0.9,0.6,1.5v3.6c0,0.6-0.2,1.1-0.6,1.5L52.2,158.6z M51.2,147.4V145l-1.2-1.2
		h-4.4v4.9H50L51.2,147.4z M51.7,155.6v-3.3l-1.2-1.2h-4.9v5.7h4.9L51.7,155.6z"/>
	<path class="st6" d="M67,159.2l-4.1-5.2h-2.5v5.2h-2.5v-17.9h7.6c0.6,0,1.1,0.2,1.5,0.6l1.4,1.5c0.4,0.4,0.6,0.9,0.6,1.5v5.6
		c0,0.5-0.2,1.1-0.6,1.5l-1.4,1.5c-0.3,0.3-0.6,0.4-0.9,0.5l3,3.8v1.6H67z M66.5,150.3V145l-1.2-1.2h-4.9v7.8h4.9L66.5,150.3z"/>
	<path class="st6" d="M72.2,159.2v-2.3h1.9v-13.2h-1.9v-2.3h6.3v2.3h-1.8v13.2h1.9v2.4H72.2z"/>
	<path class="st6" d="M92.3,159.2l-6.2-8.7l-1.4,1.4v7.3h-2.5v-17.9h2.5v7.1l7.1-7.1h2v1.5l-5.9,5.9l6.4,9v1.6H92.3z"/>
	<rect x="349.2" y="0.4" class="st2" width="68.5" height="194"/>
	<rect x="417.6" y="0.4" class="st3" width="68.5" height="194"/>
	<rect x="348.8" class="st4" width="137.4" height="194.4"/>
	<line class="st4" x1="360.2" y1="194.4" x2="360.2" y2="0"/>
	<line class="st4" x1="371.7" y1="194.4" x2="371.7" y2="0"/>
	<line class="st4" x1="383.1" y1="194.4" x2="383.1" y2="0"/>
	<line class="st4" x1="394.6" y1="194.4" x2="394.6" y2="0"/>
	<line class="st4" x1="406" y1="194.4" x2="406" y2="0"/>
	<line class="st4" x1="417.5" y1="194.4" x2="417.5" y2="0"/>
	<line class="st4" x1="428.9" y1="194.4" x2="428.9" y2="0"/>
	<line class="st4" x1="440.4" y1="194.4" x2="440.4" y2="0"/>
	<line class="st4" x1="451.8" y1="194.4" x2="451.8" y2="0"/>
	<line class="st4" x1="463.3" y1="194.4" x2="463.3" y2="0"/>
	<line class="st4" x1="474.7" y1="194.4" x2="474.7" y2="0"/>
	<rect x="348.8" class="st5" width="137.4" height="194.4"/>
	<line class="st5" x1="486.2" y1="16.2" x2="348.8" y2="16.2"/>
	<line class="st5" x1="486.2" y1="32.4" x2="348.8" y2="32.4"/>
	<line class="st5" x1="486.2" y1="48.6" x2="348.8" y2="48.6"/>
	<line class="st5" x1="486.2" y1="64.8" x2="348.8" y2="64.8"/>
	<line class="st5" x1="486.2" y1="81" x2="348.8" y2="81"/>
	<line class="st5" x1="486.2" y1="97.2" x2="348.8" y2="97.2"/>
	<line class="st5" x1="486.2" y1="113.4" x2="348.8" y2="113.4"/>
	<line class="st5" x1="486.2" y1="129.6" x2="348.8" y2="129.6"/>
	<line class="st5" x1="486.2" y1="145.8" x2="348.8" y2="145.8"/>
	<line class="st5" x1="486.2" y1="162" x2="348.8" y2="162"/>
	<line class="st5" x1="486.2" y1="178.2" x2="348.8" y2="178.2"/>
	<path class="st0" d="M375.3,89.3l-5.5-7.1h-3.4v7.1h-3.4V65h10.3c0.8,0,1.5,0.3,2.1,0.8l1.9,2c0.5,0.5,0.8,1.3,0.8,2v7.7
		c0,0.8-0.3,1.5-0.8,2l-1.9,2c-0.3,0.3-0.8,0.6-1.3,0.7l4,5.1v2.1L375.3,89.3z M374.6,77.2v-7.3l-1.6-1.6h-6.6v10.6h6.6L374.6,77.2z
		"/>
	<path class="st0" d="M395.8,88.5c-0.5,0.5-1.3,0.8-2,0.8h-6.1c-0.8,0-1.5-0.3-2-0.8l-1.9-2c-0.5-0.5-0.8-1.3-0.8-2V65h3.4v19.4
		l1.6,1.7h5.6l1.6-1.7V65h3.4v19.6c0,0.8-0.3,1.5-0.8,2L395.8,88.5z"/>
	<path class="st0" d="M416.4,88.5c-0.6,0.5-1.3,0.8-2.1,0.8H404V65h9.7c0.8,0,1.5,0.3,2.1,0.8l1.9,2c0.5,0.5,0.8,1.3,0.8,2v3.7
		c0,0.8-0.3,1.5-0.8,2l-0.8,0.8l1.4,1.4c0.5,0.5,0.8,1.3,0.8,2v4.9c0,0.8-0.3,1.5-0.8,2L416.4,88.5z M415.1,73.3V70l-1.6-1.7h-6v6.6
		h6L415.1,73.3z M415.7,84.4v-4.5l-1.6-1.7h-6.6v7.8h6.6L415.7,84.4z"/>
	<path class="st0" d="M436.6,89.3l-5.5-7.1h-3.4v7.1h-3.5V65h10.3c0.8,0,1.5,0.3,2.1,0.8l1.9,2c0.5,0.5,0.8,1.3,0.8,2v7.7
		c0,0.8-0.3,1.5-0.8,2l-1.9,2c-0.3,0.3-0.8,0.6-1.3,0.7l4,5.1v2.1L436.6,89.3z M435.8,77.2v-7.3l-1.6-1.7h-6.6v10.6h6.6L435.8,77.2z
		"/>
	<path class="st0" d="M443.7,89.3v-3.1h2.6v-18h-2.6V65h8.6v3.2h-2.6v18h2.6v3.1H443.7z"/>
	<path class="st0" d="M471.1,89.3l-8.4-11.8l-1.9,1.9v9.9h-3.4V65h3.4v9.7l9.7-9.7h2.7v2.1l-8,8l8.7,12.1v2.1H471.1z"/>
	<rect x="523.2" y="293.1" class="st2" width="137.4" height="128.4"/>
	<rect x="523.2" y="227.5" class="st7" width="137.4" height="32.8"/>
	<rect x="523.2" y="260.9" class="st3" width="137.4" height="32.2"/>
	<rect x="523.2" y="227.9" class="st4" width="137.4" height="194.4"/>
	<line class="st4" x1="660.6" y1="244.1" x2="523.2" y2="244.1"/>
	<line class="st4" x1="660.6" y1="260.3" x2="523.2" y2="260.3"/>
	<line class="st4" x1="660.6" y1="276.5" x2="523.2" y2="276.5"/>
	<line class="st4" x1="660.6" y1="292.7" x2="523.2" y2="292.7"/>
	<line class="st4" x1="660.6" y1="308.9" x2="523.2" y2="308.9"/>
	<line class="st4" x1="660.6" y1="325.1" x2="523.2" y2="325.1"/>
	<line class="st4" x1="660.6" y1="341.2" x2="523.2" y2="341.2"/>
	<line class="st4" x1="660.6" y1="357.4" x2="523.2" y2="357.4"/>
	<line class="st4" x1="660.6" y1="373.6" x2="523.2" y2="373.6"/>
	<line class="st4" x1="660.6" y1="389.8" x2="523.2" y2="389.8"/>
	<line class="st4" x1="660.6" y1="406" x2="523.2" y2="406"/>
	<rect x="697.6" y="227.9" class="st2" width="137.4" height="193.7"/>
	<rect x="697.6" y="227.9" class="st4" width="137.4" height="194.4"/>
	<line class="st4" x1="835.1" y1="244.1" x2="697.6" y2="244.1"/>
	<line class="st4" x1="835.1" y1="260.3" x2="697.6" y2="260.3"/>
	<line class="st4" x1="835.1" y1="276.5" x2="697.6" y2="276.5"/>
	<line class="st4" x1="835.1" y1="292.7" x2="697.6" y2="292.7"/>
	<line class="st4" x1="835.1" y1="308.9" x2="697.6" y2="308.9"/>
	<line class="st4" x1="835.1" y1="325.1" x2="697.6" y2="325.1"/>
	<line class="st4" x1="835.1" y1="341.2" x2="697.6" y2="341.2"/>
	<line class="st4" x1="835.1" y1="357.4" x2="697.6" y2="357.4"/>
	<line class="st4" x1="835.1" y1="373.6" x2="697.6" y2="373.6"/>
	<line class="st4" x1="835.1" y1="389.8" x2="697.6" y2="389.8"/>
	<line class="st4" x1="835.1" y1="406" x2="697.6" y2="406"/>
	<line class="st1" x1="1008.9" y1="229.1" x2="872.1" y2="422.6"/>
	<line class="st1" x1="872.1" y1="229.1" x2="1008.9" y2="422.6"/>
	<rect x="872.1" y="308.5" class="st2" width="136.8" height="32.2"/>
	<rect x="872.1" y="341.2" class="st3" width="136.8" height="31.7"/>
	<rect x="872.1" y="373" class="st7" width="136.8" height="16.1"/>
	<rect x="872.1" y="227.9" class="st5" width="136.8" height="193.5"/>
	<line class="st5" x1="883.5" y1="421.4" x2="883.5" y2="227.9"/>
	<line class="st5" x1="894.9" y1="421.4" x2="894.9" y2="227.9"/>
	<line class="st5" x1="906.3" y1="421.4" x2="906.3" y2="227.9"/>
	<line class="st5" x1="917.7" y1="421.4" x2="917.7" y2="227.9"/>
	<line class="st5" x1="929.1" y1="421.4" x2="929.1" y2="227.9"/>
	<line class="st5" x1="940.5" y1="421.4" x2="940.5" y2="227.9"/>
	<line class="st5" x1="951.9" y1="421.4" x2="951.9" y2="227.9"/>
	<line class="st5" x1="963.3" y1="421.4" x2="963.3" y2="227.9"/>
	<line class="st5" x1="974.7" y1="421.4" x2="974.7" y2="227.9"/>
	<line class="st5" x1="986.1" y1="421.4" x2="986.1" y2="227.9"/>
	<line class="st5" x1="997.5" y1="421.4" x2="997.5" y2="227.9"/>
	<rect x="872.1" y="227.9" class="st4" width="136.8" height="193.5"/>
	<line class="st4" x1="1008.9" y1="244" x2="872.1" y2="244"/>
	<line class="st4" x1="1008.9" y1="260.1" x2="872.1" y2="260.1"/>
	<line class="st4" x1="1008.9" y1="276.2" x2="872.1" y2="276.2"/>
	<line class="st4" x1="1008.9" y1="292.4" x2="872.1" y2="292.4"/>
	<line class="st4" x1="1008.9" y1="308.5" x2="872.1" y2="308.5"/>
	<line class="st4" x1="1008.9" y1="324.6" x2="872.1" y2="324.6"/>
	<line class="st4" x1="1008.9" y1="340.7" x2="872.1" y2="340.7"/>
	<line class="st4" x1="1008.9" y1="356.9" x2="872.1" y2="356.9"/>
	<line class="st4" x1="1008.9" y1="373" x2="872.1" y2="373"/>
	<line class="st4" x1="1008.9" y1="389.1" x2="872.1" y2="389.1"/>
	<line class="st4" x1="1008.9" y1="405.2" x2="872.1" y2="405.2"/>
	<rect x="348.8" y="459.9" class="st8" width="103.1" height="68.5"/>
	<line class="st1" x1="451.9" y1="459.9" x2="348.8" y2="528.4"/>
	<line class="st1" x1="348.8" y1="459.9" x2="451.9" y2="528.4"/>
	<rect x="348.8" y="545.8" class="st3" width="103.1" height="17.4"/>
	<rect x="348.8" y="528.4" class="st2" width="103.1" height="17.4"/>
	<rect x="348.8" y="459.9" class="st9" width="103.1" height="103.1"/>
	<line class="st9" x1="348.8" y1="468.5" x2="451.9" y2="468.5"/>
	<line class="st9" x1="348.8" y1="477.1" x2="451.9" y2="477.1"/>
	<line class="st9" x1="348.8" y1="485.7" x2="451.9" y2="485.7"/>
	<line class="st9" x1="348.8" y1="494.2" x2="451.9" y2="494.2"/>
	<line class="st9" x1="348.8" y1="502.8" x2="451.9" y2="502.8"/>
	<line class="st9" x1="348.8" y1="511.4" x2="451.9" y2="511.4"/>
	<line class="st9" x1="348.8" y1="520" x2="451.9" y2="520"/>
	<line class="st9" x1="348.8" y1="528.6" x2="451.9" y2="528.6"/>
	<line class="st9" x1="348.8" y1="537.2" x2="451.9" y2="537.2"/>
	<line class="st9" x1="348.8" y1="545.8" x2="451.9" y2="545.8"/>
	<line class="st9" x1="348.8" y1="554.4" x2="451.9" y2="554.4"/>
	<line class="st9" x1="443.3" y1="563" x2="443.3" y2="459.9"/>
	<line class="st9" x1="434.7" y1="563" x2="434.7" y2="459.9"/>
	<line class="st9" x1="426.1" y1="563" x2="426.1" y2="459.9"/>
	<line class="st9" x1="417.5" y1="563" x2="417.5" y2="459.9"/>
	<line class="st9" x1="408.9" y1="563" x2="408.9" y2="459.9"/>
	<line class="st9" x1="400.3" y1="563" x2="400.3" y2="459.9"/>
	<line class="st9" x1="391.7" y1="563" x2="391.7" y2="459.9"/>
	<line class="st9" x1="383.1" y1="563" x2="383.1" y2="459.9"/>
	<line class="st9" x1="374.5" y1="563" x2="374.5" y2="459.9"/>
	<line class="st9" x1="365.9" y1="563" x2="365.9" y2="459.9"/>
	<line class="st9" x1="357.3" y1="563" x2="357.3" y2="459.9"/>
	<rect x="700.5" y="459.9" class="st2" width="241.9" height="342.2"/>
	<rect x="700.5" y="459.9" class="st4" width="241.9" height="342.2"/>
	<line class="st4" x1="720.7" y1="802" x2="720.7" y2="459.9"/>
	<line class="st5" x1="740.8" y1="802" x2="740.8" y2="459.9"/>
	<line class="st4" x1="761" y1="802" x2="761" y2="459.9"/>
	<line class="st5" x1="781.2" y1="802" x2="781.2" y2="459.9"/>
	<line class="st4" x1="801.3" y1="802" x2="801.3" y2="459.9"/>
	<line class="st5" x1="821.5" y1="802" x2="821.5" y2="459.9"/>
	<line class="st4" x1="841.6" y1="802" x2="841.6" y2="459.9"/>
	<line class="st5" x1="861.8" y1="802" x2="861.8" y2="459.9"/>
	<line class="st4" x1="882" y1="802" x2="882" y2="459.9"/>
	<line class="st5" x1="902.1" y1="802" x2="902.1" y2="459.9"/>
	<line class="st4" x1="922.3" y1="802" x2="922.3" y2="459.9"/>
	<path class="st0" d="M750.6,542.2c-1.4,1.4-3.3,2.1-5.2,2.1h-15.3c-1.9,0-3.8-0.7-5.2-2.1l-7.3-7.5l6.7-5.6l6.5,6.7h13.9l4.2-4.3
		v-7.3l-26.5-16.9c-1.5-1-2.2-3.3-2.2-5.2v-8.2c0.1-1.9,0.8-3.8,2.2-5.2l5-5.1c1.4-1.4,3.3-2.1,5.2-2.1h12.8c1.9,0,3.8,0.7,5.2,2.1
		l6.3,6.4l-6.7,5.6l-5.5-5.6h-11.5l-4.2,4.3v6.4l26.5,16.9c1.5,1,2.2,3.3,2.2,5.2v9c-0.1,1.9-0.8,3.8-2.2,5.2L750.6,542.2z"/>
	<path class="st0" d="M814.6,544.3v-54.2h-15.7v-8.5h40.3v8.5h-15.7v54.2L814.6,544.3z"/>
	<path class="st0" d="M914.4,542.2c-1.4,1.4-3.3,2.1-5.2,2.1h-15.8c-1.9,0-3.8-0.7-5.2-2.1l-5-5.1c-1.4-1.4-2.1-3.2-2.2-5.2v-38.1
		c0.1-1.9,0.8-3.8,2.2-5.2l5-5.1c1.4-1.3,3.3-2.1,5.2-2.1h15.7c1.9,0,3.8,0.7,5.2,2.1l5,5.1c1.4,1.4,2.1,3.2,2.2,5.2V532
		c-0.1,1.9-0.8,3.8-2.2,5.2L914.4,542.2z M912.7,531.5v-37.1l-4.2-4.3h-14.5l-4.2,4.3v37.1l4.2,4.3h14.4L912.7,531.5z"/>
	<path class="st0" d="M751.1,749.4v-27.7h-22.3v27.7h-8.9v-62.7h8.9v26.6H751v-26.6h8.9v62.7H751.1z"/>
	<path class="st0" d="M803.8,749.4v-62.7h35.9v8.5h-27v18.3h20.7v8.5h-20.7v18.8h27v8.5L803.8,749.4z"/>
	<path class="st0" d="M898,749.4v-54.2h-15.7v-8.5h40.3v8.5h-15.7v54.2L898,749.4z"/>
	<path class="st0" d="M724.4,646.3v-62.7h8.9v54.2h24.5v8.5H724.4z"/>
	<path class="st0" d="M897.7,646.3v-54.2H882v-8.5h40.3v8.5h-15.7v54.2H897.7z"/>
	
		<rect x="822" y="606.1" transform="matrix(0.7292 -0.6843 0.6843 0.7292 -195.3045 729.034)" class="st0" width="3" height="10.5"/>
	
		<ellipse transform="matrix(0.7292 -0.6843 0.6843 0.7292 -192.3284 733.6302)" class="st0" cx="830.8" cy="609.8" rx="1.6" ry="1.6"/>
	
		<ellipse transform="matrix(0.7292 -0.6843 0.6843 0.7292 -200.7227 729.6729)" class="st0" cx="821.6" cy="618.4" rx="1.6" ry="1.6"/>
	<path class="st0" d="M847.5,589.3l-0.2-1l-1,0.2c-12.7,2.7-23.4-3.6-23.5-3.7l-0.6-0.3l-0.6,0.3c-0.1,0.1-10.8,6.4-23.5,3.8l-1-0.2
		l-0.2,1c-0.8,4.2-1.1,8.5-0.9,12.7c0.8,24.5,16.5,40.3,25.7,45.9l0.6,0.3l0.6-0.3c9.2-5.6,24.9-21.5,25.6-45.9
		C848.5,597.7,848.3,593.5,847.5,589.3z M798.1,602c-0.1-3.7,0.1-7.5,0.6-11.1c8,1.3,16.2-0.1,23.4-3.9c3.1,1.6,6.5,2.9,9.9,3.6
		l-30.6,28.7C799.4,613.7,798.3,607.9,798.1,602L798.1,602z M822.2,645.8c-4.2-2.8-8-6.1-11.2-10l35.1-33
		C845.2,625.3,831,640.2,822.2,645.8L822.2,645.8z M846.2,600.7l-36.1,33.9c-3.3-4.2-6.1-8.9-8.1-13.9l31.8-29.9
		c3.9,0.7,7.8,0.7,11.7,0C846.1,594.1,846.3,597.4,846.2,600.7L846.2,600.7z"/>
	<polygon class="st0" points="835.5,598.8 833.2,601 832,599.8 834.4,597.5 832.5,595.6 828,599.8 835.2,607.5 837.3,605.4 
		835,602.9 837.3,600.8 	"/>
	<path class="st0" d="M809.2,617.5l-2.5,2.4l7.2,7.6l2.5-2.4c2.1-2,2.2-5.3,0.2-7.4C814.7,615.6,811.3,615.5,809.2,617.5z
		 M814.4,623.4l-0.1,0.1l-3.6-3.8l0.2-0.2c1.1-0.9,2.8-0.8,3.7,0.4C815.3,621,815.3,622.5,814.4,623.4L814.4,623.4z"/>
	
		<ellipse transform="matrix(0.7292 -0.6843 0.6843 0.7292 -183.3697 737.8345)" class="st0" cx="840.6" cy="600.6" rx="1.6" ry="1.6"/>
	
		<rect x="940.4" y="355.2" transform="matrix(0.7292 -0.6843 0.6843 0.7292 10.8844 740.2831)" class="st0" width="0.7" height="2.5"/>
	
		<ellipse transform="matrix(0.7292 -0.6843 0.6843 0.7292 11.5783 741.3629)" class="st0" cx="942.5" cy="356.1" rx="0.4" ry="0.4"/>
	<ellipse transform="matrix(0.7292 -0.6843 0.6843 0.7292 9.6081 740.429)" class="st0" cx="940.3" cy="358.1" rx="0.4" ry="0.4"/>
	<path class="st0" d="M946.4,351.2l-0.1-0.2l-0.2,0.1c-1.9,0.4-3.9,0.1-5.6-0.9l-0.1-0.1l-0.1,0.1c-1.7,0.9-3.6,1.2-5.5,0.9
		l-0.2-0.1l-0.1,0.2c-0.2,1-0.3,2-0.2,3c0.1,4.4,2.4,8.4,6.1,10.8l0.1,0.1l0.1-0.1c3.7-2.4,5.9-6.5,6-10.8
		C946.7,353.2,946.6,352.2,946.4,351.2z M934.8,354.2c0-0.9,0-1.8,0.1-2.6c1.9,0.3,3.8,0,5.5-0.9c0.7,0.4,1.5,0.7,2.3,0.8l-7.2,6.8
		C935.1,356.9,934.8,355.6,934.8,354.2z M940.5,364.5c-1-0.7-1.9-1.5-2.6-2.4l8.3-7.8C946,358.4,943.9,362.2,940.5,364.5z
		 M946.1,353.9l-8.5,8c-0.8-1-1.4-2.1-1.9-3.3l7.5-7c0.9,0.2,1.8,0.2,2.8,0C946.1,352.3,946.2,353.1,946.1,353.9L946.1,353.9z"/>
	<polygon class="st0" points="943.6,353.4 943.1,354 942.8,353.7 943.3,353.1 942.9,352.7 941.8,353.7 943.5,355.5 944,355 
		943.5,354.4 944,353.9 	"/>
	<path class="st0" d="M937.4,357.8l-0.6,0.6l1.7,1.8l0.6-0.6c0.5-0.5,0.5-1.2,0.1-1.7S937.9,357.4,937.4,357.8L937.4,357.8z
		 M938.6,359.2L938.6,359.2l-0.8-0.9l0,0c0.2-0.2,0.6-0.2,0.9,0C938.9,358.6,938.9,359,938.6,359.2z"/>
	
		<ellipse transform="matrix(0.7292 -0.6843 0.6843 0.7292 13.6934 742.3553)" class="st0" cx="944.8" cy="353.9" rx="0.4" ry="0.4"/>
	<line class="st1" x1="311.7" y1="64.8" x2="174.3" y2="194.4"/>
	<line class="st1" x1="174.3" y1="64.8" x2="311.7" y2="194.4"/>
	<rect x="174.3" class="st2" width="137.4" height="64.8"/>
	<rect x="174.3" class="st4" width="137.4" height="194.4"/>
	<line class="st4" x1="311.7" y1="16.2" x2="174.3" y2="16.2"/>
	<line class="st4" x1="311.7" y1="32.4" x2="174.3" y2="32.4"/>
	<line class="st4" x1="311.7" y1="48.6" x2="174.3" y2="48.6"/>
	<line class="st4" x1="311.7" y1="64.8" x2="174.3" y2="64.8"/>
	<line class="st4" x1="311.7" y1="81" x2="174.3" y2="81"/>
	<line class="st4" x1="311.7" y1="97.2" x2="174.3" y2="97.2"/>
	<line class="st4" x1="311.7" y1="113.4" x2="174.3" y2="113.4"/>
	<line class="st4" x1="311.7" y1="129.6" x2="174.3" y2="129.6"/>
	<line class="st4" x1="311.7" y1="145.8" x2="174.3" y2="145.8"/>
	<line class="st4" x1="311.7" y1="162" x2="174.3" y2="162"/>
	<line class="st4" x1="311.7" y1="178.2" x2="174.3" y2="178.2"/>
	<rect x="174.3" class="st5" width="137.4" height="194.4"/>
	<line class="st5" x1="185.8" y1="194.4" x2="185.8" y2="0"/>
	<line class="st5" x1="197.2" y1="194.4" x2="197.2" y2="0"/>
	<line class="st5" x1="208.7" y1="194.4" x2="208.7" y2="0"/>
	<line class="st5" x1="220.1" y1="194.4" x2="220.1" y2="0"/>
	<line class="st5" x1="231.6" y1="194.4" x2="231.6" y2="0"/>
	<line class="st5" x1="243" y1="194.4" x2="243" y2="0"/>
	<line class="st5" x1="254.5" y1="194.4" x2="254.5" y2="0"/>
	<line class="st5" x1="265.9" y1="194.4" x2="265.9" y2="0"/>
	<line class="st5" x1="277.4" y1="194.4" x2="277.4" y2="0"/>
	<line class="st5" x1="288.8" y1="194.4" x2="288.8" y2="0"/>
	<line class="st5" x1="300.3" y1="194.4" x2="300.3" y2="0"/>
	<path class="st0" d="M193.2,48.3l-3.5-4.5h-2.2v4.5h-2.2V33h6.5c0.5,0,0.9,0.2,1.3,0.5l1.2,1.2c0.3,0.3,0.5,0.8,0.5,1.3v4.8
		c0,0.5-0.2,0.9-0.5,1.3l-1.2,1.2c-0.2,0.2-0.5,0.4-0.8,0.4l2.5,3.2v1.3L193.2,48.3z M192.8,40.7v-4.6l-1-1h-4.2v6.7h4.2L192.8,40.7
		z"/>
	<path class="st0" d="M206.1,47.7c-0.3,0.3-0.8,0.5-1.3,0.5H201c-0.5,0-0.9-0.2-1.3-0.5l-1.2-1.2c-0.3-0.3-0.5-0.8-0.5-1.3V33h2.2
		v12.2l1,1h3.5l1-1V33h2.2v12.3c0,0.5-0.2,0.9-0.5,1.3L206.1,47.7z"/>
	<path class="st0" d="M219,47.7c-0.3,0.3-0.8,0.5-1.3,0.5h-6.4V33h6.1c0.5,0,0.9,0.2,1.3,0.5l1.2,1.2c0.3,0.3,0.5,0.8,0.5,1.3v2.3
		c0,0.5-0.2,0.9-0.5,1.3l-0.5,0.5l0.9,0.9c0.3,0.3,0.5,0.8,0.5,1.3v3c0,0.5-0.2,0.9-0.5,1.3L219,47.7z M218.2,38.2v-2.1l-1-1h-3.8
		v4.2h3.7L218.2,38.2z M218.6,45.2v-2.8l-1-1h-4.2v4.9h4.2L218.6,45.2z"/>
	<path class="st0" d="M231.6,48.3l-3.5-4.5H226v4.5h-2.2V33h6.5c0.5,0,0.9,0.2,1.3,0.5l1.2,1.2c0.3,0.3,0.5,0.8,0.5,1.3v4.8
		c0,0.5-0.2,0.9-0.5,1.3l-1.2,1.2c-0.2,0.2-0.5,0.4-0.8,0.4l2.5,3.2v1.3L231.6,48.3z M231.2,40.7v-4.6l-1-1H226v6.7h4.2L231.2,40.7z
		"/>
	<path class="st0" d="M236.1,48.3v-2h1.6V35h-1.6v-2h5.4v2h-1.6v11.3h1.6v2H236.1z"/>
	<path class="st0" d="M253.3,48.3l-5.3-7.4l-1.2,1.2v6.3h-2.1V33h2.1V39l6.1-6.1h1.7v1.3l-5,5l5.4,7.6v1.3L253.3,48.3z"/>
	<rect x="523.2" y="227.9" class="st5" width="137.4" height="194.4"/>
	<line class="st5" x1="534.6" y1="422.2" x2="534.6" y2="227.9"/>
	<line class="st5" x1="546.1" y1="422.2" x2="546.1" y2="227.9"/>
	<line class="st5" x1="557.6" y1="422.2" x2="557.6" y2="227.9"/>
	<line class="st5" x1="569" y1="422.2" x2="569" y2="227.9"/>
	<line class="st5" x1="580.5" y1="422.2" x2="580.5" y2="227.9"/>
	<line class="st5" x1="591.9" y1="422.2" x2="591.9" y2="227.9"/>
	<line class="st5" x1="603.4" y1="422.2" x2="603.4" y2="227.9"/>
	<line class="st5" x1="614.8" y1="422.2" x2="614.8" y2="227.9"/>
	<line class="st5" x1="626.3" y1="422.2" x2="626.3" y2="227.9"/>
	<line class="st5" x1="637.7" y1="422.2" x2="637.7" y2="227.9"/>
	<line class="st5" x1="649.2" y1="422.2" x2="649.2" y2="227.9"/>
	<path class="st0" d="M542.9,284.1l-3.5-4.5h-2.2v4.5h-2.2v-15.3h6.5c0.5,0,0.9,0.2,1.3,0.5l1.2,1.2c0.3,0.3,0.5,0.8,0.5,1.3v4.8
		c0,0.5-0.2,0.9-0.5,1.3l-1.2,1.2c-0.2,0.2-0.5,0.4-0.8,0.4l2.5,3.2v1.3L542.9,284.1z M542.5,276.5V272l-1-1h-4.2v6.7h4.2
		L542.5,276.5z"/>
	<path class="st0" d="M555.8,283.6c-0.3,0.3-0.8,0.5-1.3,0.5h-3.8c-0.5,0-0.9-0.2-1.3-0.5l-1.2-1.3c-0.3-0.3-0.5-0.8-0.5-1.3v-12.2
		h2.2V281l1,1h3.5l1-1v-12.2h2.2v12.3c0,0.5-0.2,0.9-0.5,1.3L555.8,283.6z"/>
	<path class="st0" d="M568.7,283.6c-0.3,0.3-0.8,0.5-1.3,0.5H561v-15.3h6.1c0.5,0,0.9,0.2,1.3,0.5l1.2,1.2c0.3,0.3,0.5,0.8,0.5,1.3
		v2.3c0,0.5-0.2,0.9-0.5,1.3l-0.5,0.5l0.9,0.9c0.3,0.3,0.5,0.8,0.5,1.3v3c0,0.5-0.2,0.9-0.5,1.3L568.7,283.6z M567.9,274v-2.1l-1-1
		h-3.7v4.2h3.7L567.9,274z M568.3,281v-2.8l-1-1h-4.2v4.9h4.2L568.3,281z"/>
	<path class="st0" d="M581.4,284.1l-3.5-4.5h-2.2v4.5h-2.2v-15.3h6.5c0.5,0,0.9,0.2,1.3,0.5l1.2,1.2c0.3,0.3,0.5,0.8,0.5,1.3v4.8
		c0,0.5-0.2,0.9-0.5,1.3l-1.2,1.2c-0.2,0.2-0.5,0.4-0.8,0.4l2.5,3.2v1.3L581.4,284.1z M580.9,276.5V272l-1-1h-4.2v6.7h4.2
		L580.9,276.5z"/>
	<path class="st0" d="M585.8,284.1v-2h1.6v-11.2h-1.6v-2h5.4v2h-1.6v11.3h1.6v2L585.8,284.1z"/>
	<path class="st0" d="M603,284.1l-5.3-7.4l-1.2,1.2v6.3h-2.2v-15.3h2.2v6.1l6.1-6.1h1.7v1.3l-5,5l5.4,7.6v1.3H603z"/>
	<path class="st0" d="M578.2,80.3l-3.5-4.5h-2.2v4.5h-2.2V65h6.5c0.5,0,0.9,0.2,1.3,0.5l1.2,1.2c0.3,0.3,0.5,0.8,0.5,1.3v4.8
		c0,0.5-0.2,0.9-0.5,1.3l-1.2,1.2c-0.2,0.2-0.5,0.4-0.8,0.4l2.5,3.2v1.3H578.2z M577.7,72.7v-4.6l-1-1h-4.2v6.7h4.2L577.7,72.7z"/>
	<path class="st0" d="M591,79.8c-0.3,0.3-0.8,0.5-1.3,0.5h-3.8c-0.5,0-0.9-0.2-1.3-0.5l-1.2-1.2c-0.3-0.3-0.5-0.8-0.5-1.3V65h2.2
		v12.1l1,1h3.5l1-1V65h2.2v12.3c0,0.5-0.2,0.9-0.5,1.3L591,79.8z"/>
	<path class="st0" d="M604,79.8c-0.3,0.3-0.8,0.5-1.3,0.5h-6.4V65h6.1c0.5,0,0.9,0.2,1.3,0.5l1.2,1.2c0.3,0.3,0.5,0.8,0.5,1.3v2.3
		c0,0.5-0.2,0.9-0.5,1.3l-0.5,0.5l0.9,0.9c0.3,0.3,0.5,0.8,0.5,1.3v3c0,0.5-0.2,0.9-0.5,1.3L604,79.8z M603.2,70.2v-2.1l-1-1h-3.8
		v4.2h3.7L603.2,70.2z M603.6,77.2v-2.8l-1-1h-4.2v4.9h4.2L603.6,77.2z"/>
	<path class="st0" d="M616.6,80.3l-3.5-4.5H611v4.5h-2.2V65h6.5c0.5,0,0.9,0.2,1.3,0.5l1.2,1.2c0.3,0.3,0.5,0.8,0.5,1.3v4.8
		c0,0.5-0.2,0.9-0.5,1.3l-1.2,1.2c-0.2,0.2-0.5,0.4-0.8,0.4l2.5,3.2v1.3H616.6z M616.2,72.7v-4.6l-1-1h-4.2v6.7h4.2L616.2,72.7z"/>
	<path class="st0" d="M621.1,80.3v-2h1.6V67h-1.6v-2h5.4v2h-1.6v11.3h1.6v2H621.1z"/>
	<path class="st0" d="M638.2,80.3l-5.3-7.4l-1.2,1.2v6.3h-2.1V65h2.1v6.1l6.1-6.1h1.7v1.3l-5,5l5.4,7.6v1.3L638.2,80.3z"/>
	<path class="st0" d="M383.4,542.5l-2.2-2.8h-1.3v2.8h-1.4v-9.7h4.1c0.3,0,0.6,0.1,0.8,0.3l0.8,0.8c0.2,0.2,0.3,0.5,0.3,0.8v3.1
		c0,0.3-0.1,0.6-0.3,0.8l-0.8,0.8c-0.1,0.1-0.3,0.2-0.5,0.3l1.6,2.1v0.8L383.4,542.5z M383.1,537.7v-2.9l-0.6-0.7h-2.6v4.2h2.6
		L383.1,537.7z"/>
	<path class="st0" d="M391.7,542.1c-0.2,0.2-0.5,0.3-0.8,0.3h-2.4c-0.3,0-0.6-0.1-0.8-0.3l-0.8-0.8c-0.2-0.2-0.3-0.5-0.3-0.8v-7.8
		h1.4v7.7l0.6,0.7h2.2l0.6-0.7v-7.7h1.4v7.8c0,0.3-0.1,0.6-0.3,0.8L391.7,542.1z"/>
	<path class="st0" d="M399.9,542.1c-0.2,0.2-0.5,0.3-0.8,0.3H395v-9.7h3.9c0.3,0,0.6,0.1,0.8,0.3l0.8,0.8c0.2,0.2,0.3,0.5,0.3,0.8
		v1.5c0,0.3-0.1,0.6-0.3,0.8l-0.3,0.3l0.6,0.6c0.2,0.2,0.3,0.5,0.3,0.8v1.9c0,0.3-0.1,0.6-0.3,0.8L399.9,542.1z M399.4,536v-1.3
		l-0.6-0.7h-2.4v2.6h2.4L399.4,536z M399.6,540.5v-1.8L399,538h-2.6v3.1h2.6L399.6,540.5z"/>
	<path class="st0" d="M408,542.5l-2.2-2.8h-1.4v2.8H403v-9.7h4.1c0.3,0,0.6,0.1,0.8,0.3l0.8,0.8c0.2,0.2,0.3,0.5,0.3,0.8v3.1
		c0,0.3-0.1,0.6-0.3,0.8l-0.8,0.8c-0.1,0.1-0.3,0.2-0.5,0.3l1.6,2.1v0.8L408,542.5z M407.7,537.7v-2.9l-0.6-0.7h-2.6v4.2h2.6
		L407.7,537.7z"/>
	<path class="st0" d="M410.8,542.5v-1.3h1V534h-1v-1.3h3.4v1.3h-1v7.2h1v1.3L410.8,542.5z"/>
	<path class="st0" d="M421.8,542.5l-3.4-4.7l-0.8,0.8v4h-1.4v-9.7h1.4v3.9l3.9-3.9h1v0.8l-3.2,3.2l3.5,4.9v0.8L421.8,542.5z"/>
	<rect x="349.2" y="228.9" class="st2" width="91.3" height="194"/>
	<rect x="440.5" y="228.9" class="st3" width="22.8" height="194"/>
	<rect x="463.3" y="228.9" class="st2" width="22.8" height="194"/>
	<rect x="348.8" y="228.5" class="st4" width="137.4" height="194.4"/>
	<line class="st4" x1="360.2" y1="422.9" x2="360.2" y2="228.5"/>
	<line class="st4" x1="371.7" y1="422.9" x2="371.7" y2="228.5"/>
	<line class="st4" x1="383.1" y1="422.9" x2="383.1" y2="228.5"/>
	<line class="st4" x1="394.6" y1="422.9" x2="394.6" y2="228.5"/>
	<line class="st4" x1="406" y1="422.9" x2="406" y2="228.5"/>
	<line class="st4" x1="417.5" y1="422.9" x2="417.5" y2="228.5"/>
	<line class="st4" x1="428.9" y1="422.9" x2="428.9" y2="228.5"/>
	<line class="st4" x1="440.4" y1="422.9" x2="440.4" y2="228.5"/>
	<line class="st4" x1="451.8" y1="422.9" x2="451.8" y2="228.5"/>
	<line class="st4" x1="463.3" y1="422.9" x2="463.3" y2="228.5"/>
	<line class="st4" x1="474.7" y1="422.9" x2="474.7" y2="228.5"/>
	<rect x="348.8" y="228.5" class="st5" width="137.4" height="194.4"/>
	<line class="st5" x1="486.2" y1="244.7" x2="348.8" y2="244.7"/>
	<line class="st5" x1="486.2" y1="260.9" x2="348.8" y2="260.9"/>
	<line class="st5" x1="486.2" y1="277.1" x2="348.8" y2="277.1"/>
	<line class="st5" x1="486.2" y1="293.3" x2="348.8" y2="293.3"/>
	<line class="st5" x1="486.2" y1="309.5" x2="348.8" y2="309.5"/>
	<line class="st5" x1="486.2" y1="325.7" x2="348.8" y2="325.7"/>
	<line class="st5" x1="486.2" y1="341.9" x2="348.8" y2="341.9"/>
	<line class="st5" x1="486.2" y1="358.1" x2="348.8" y2="358.1"/>
	<line class="st5" x1="486.2" y1="374.3" x2="348.8" y2="374.3"/>
	<line class="st5" x1="486.2" y1="390.5" x2="348.8" y2="390.5"/>
	<line class="st5" x1="486.2" y1="406.7" x2="348.8" y2="406.7"/>
	<rect x="697.6" y="227.9" class="st5" width="137.4" height="194.4"/>
	<line class="st5" x1="709.1" y1="422.2" x2="709.1" y2="227.9"/>
	<line class="st5" x1="720.5" y1="422.2" x2="720.5" y2="227.9"/>
	<line class="st5" x1="732" y1="422.2" x2="732" y2="227.9"/>
	<line class="st5" x1="743.4" y1="422.2" x2="743.4" y2="227.9"/>
	<line class="st5" x1="754.9" y1="422.2" x2="754.9" y2="227.9"/>
	<line class="st5" x1="766.3" y1="422.2" x2="766.3" y2="227.9"/>
	<line class="st5" x1="777.8" y1="422.2" x2="777.8" y2="227.9"/>
	<line class="st5" x1="789.2" y1="422.2" x2="789.2" y2="227.9"/>
	<line class="st5" x1="800.7" y1="422.2" x2="800.7" y2="227.9"/>
	<line class="st5" x1="812.2" y1="422.2" x2="812.2" y2="227.9"/>
	<line class="st5" x1="823.6" y1="422.2" x2="823.6" y2="227.9"/>
	<path class="st0" d="M709.9,294.4v-17.9h2.5v15.5h7v2.4H709.9z"/>
	<path class="st0" d="M731.9,294.4l-1.2-5.1h-5.9l-1.2,5.1h-2.1v-1.8l3.7-15.2c0.1-0.6,0.6-1,1.2-1h2.9c0.6,0,1.1,0.4,1.2,1
		l3.7,15.2v1.8H731.9z M724.2,275.2v-2.5h2.5v2.5H724.2z M728.2,278.9h-0.9l-1.8,7.9h4.6L728.2,278.9z M728.8,275.2v-2.5h2.5v2.5
		H728.8z"/>
	<path class="st0" d="M745.5,294.4v-3.8l-6.1-9.6v13.4h-2.5v-17.9h2.6l6,9.5v-9.5h2.5v17.9H745.5z"/>
	<path class="st0" d="M761.7,293.8c-0.4,0.4-0.9,0.6-1.5,0.6h-4.6c-0.6,0-1.1-0.2-1.5-0.6l-1.4-1.5c-0.4-0.4-0.6-0.9-0.6-1.5V280
		c0-0.6,0.2-1.1,0.6-1.5l1.4-1.5c0.4-0.4,0.9-0.6,1.5-0.6h4.6c0.6,0,1.1,0.2,1.5,0.6l1.8,1.8l-1.9,1.6l-1.6-1.6h-4.2l-1.2,1.2v10.5
		l1.2,1.2h4.2l1.2-1.2v-4.2H758v-2.4h5.7v6.7c0,0.6-0.2,1.1-0.6,1.5L761.7,293.8z"/>
	<path class="st0" d="M776.5,294.4l-4.1-5.2h-2.5v5.2h-2.6v-17.9h7.6c0.6,0,1.1,0.2,1.5,0.6l1.4,1.5c0.4,0.4,0.6,0.9,0.6,1.5v5.6
		c0,0.6-0.2,1.1-0.6,1.5l-1.4,1.5c-0.3,0.3-0.6,0.4-0.9,0.5l3,3.8v1.5L776.5,294.4z M776,285.5v-5.4l-1.2-1.2h-4.9v7.8h4.9
		L776,285.5z"/>
	<path class="st0" d="M782.1,294.4v-17.9h10.3v2.4h-7.7v5.2h5.9v2.4h-5.9v5.4h7.7v2.4L782.1,294.4z"/>
	<path class="st0" d="M719,322.2l-4.1-5.2h-2.5v5.2h-2.5v-17.9h7.6c0.6,0,1.1,0.2,1.5,0.6l1.4,1.5c0.4,0.4,0.6,0.9,0.6,1.5v5.6
		c0,0.6-0.2,1.1-0.6,1.5l-1.4,1.5c-0.3,0.3-0.6,0.4-0.9,0.5l3,3.7v1.5L719,322.2z M718.4,313.3V308l-1.2-1.2h-4.8v7.8h4.8
		L718.4,313.3z"/>
	<path class="st0" d="M734,321.6c-0.4,0.4-0.9,0.6-1.5,0.6H728c-0.6,0-1.1-0.2-1.5-0.6l-1.4-1.5c-0.4-0.4-0.6-0.9-0.6-1.5v-14.3h2.5
		v14.2l1.2,1.2h4.1l1.2-1.2v-14.2h2.5v14.3c0,0.6-0.2,1.1-0.6,1.5L734,321.6z"/>
	<path class="st0" d="M749.1,321.6c-0.4,0.4-0.9,0.6-1.5,0.6H740v-17.9h7.1c0.6,0,1.1,0.2,1.5,0.6l1.4,1.5c0.4,0.4,0.6,0.9,0.6,1.5
		v2.7c0,0.6-0.2,1.1-0.6,1.5l-0.6,0.6l1,1c0.4,0.4,0.6,0.9,0.6,1.5v3.6c0,0.6-0.2,1.1-0.6,1.5L749.1,321.6z M748.1,310.4V308
		l-1.2-1.2h-4.4v4.8h4.4L748.1,310.4z M748.6,318.6v-3.3l-1.2-1.2h-4.8v5.7h4.8L748.6,318.6z"/>
	<path class="st0" d="M763.9,322.2l-4.1-5.2h-2.5v5.2h-2.5v-17.9h7.6c0.6,0,1.1,0.2,1.5,0.6l1.5,1.4c0.4,0.4,0.6,0.9,0.6,1.5v5.6
		c0,0.6-0.2,1.1-0.6,1.5l-1.4,1.5c-0.3,0.3-0.6,0.4-0.9,0.5l3,3.7v1.5L763.9,322.2z M763.3,313.3V308l-1.2-1.2h-4.8v7.8h4.8
		L763.3,313.3z"/>
	<path class="st0" d="M769.1,322.2v-2.3h1.9v-13.2h-1.9v-2.3h6.3v2.3h-1.9v13.2h1.9v2.3L769.1,322.2z"/>
	<path class="st0" d="M789.2,322.2l-6.1-8.7l-1.4,1.4v7.3h-2.6v-17.9h2.5v7.1l7.1-7.1h2v1.5l-5.9,5.9l6.4,8.9v1.5H789.2z"/>
	<path class="st0" d="M914.2,332.8l-3.5-4.4h-2.1v4.4h-2.1v-15.2h6.4c0.5,0,0.9,0.2,1.3,0.5l1.2,1.2c0.3,0.3,0.5,0.8,0.5,1.3v4.8
		c0,0.5-0.2,0.9-0.5,1.3l-1.2,1.2c-0.2,0.2-0.5,0.4-0.8,0.4l2.5,3.2v1.3H914.2z M913.7,325.2v-4.6l-1-1h-4.2v6.6h4.2L913.7,325.2z"
		/>
	<path class="st0" d="M927,332.3c-0.3,0.3-0.8,0.5-1.3,0.5h-3.8c-0.5,0-0.9-0.2-1.3-0.5l-1.2-1.2c-0.3-0.3-0.5-0.8-0.5-1.3v-12.2
		h2.1v12.1l1,1h3.5l1-1v-12.1h2.1v12.2c0,0.5-0.2,0.9-0.5,1.3L927,332.3z"/>
	<path class="st0" d="M939.8,332.3c-0.3,0.3-0.8,0.5-1.3,0.5h-6.4v-15.2h6c0.5,0,0.9,0.2,1.3,0.5l1.2,1.2c0.3,0.3,0.5,0.8,0.5,1.3
		v2.3c0,0.5-0.2,0.9-0.5,1.3l-0.5,0.5l0.9,0.9c0.3,0.3,0.5,0.8,0.5,1.3v3c0,0.5-0.2,0.9-0.5,1.3L939.8,332.3z M939,322.7v-2.1l-1-1
		h-3.7v4.2h3.7L939,322.7z M939.4,329.7v-2.8l-1-1h-4.2v4.9h4.2L939.4,329.7z"/>
	<path class="st0" d="M952.4,332.8l-3.5-4.4h-2.1v4.4h-2.1v-15.2h6.4c0.5,0,0.9,0.2,1.3,0.5l1.2,1.2c0.3,0.3,0.5,0.8,0.5,1.3v4.8
		c0,0.5-0.2,0.9-0.5,1.3l-1.2,1.2c-0.2,0.2-0.5,0.4-0.8,0.4l2.5,3.2v1.3H952.4z M951.9,325.2v-4.6l-1-1h-4.2v6.6h4.2L951.9,325.2z"
		/>
	<path class="st0" d="M956.8,332.8v-2h1.6v-11.2h-1.6v-2h5.4v2h-1.6v11.2h1.6v2L956.8,332.8z"/>
	<path class="st0" d="M973.9,332.8l-5.2-7.4l-1.2,1.2v6.2h-2.1v-15.2h2.1v6l6-6h1.7v1.3l-5,5l5.4,7.6v1.3L973.9,332.8z"/>
	<path class="st0" d="M373,554.2v-3h0.4v2.6h1.2v0.4L373,554.2z"/>
	<path class="st0" d="M376.7,554.1c-0.1,0.1-0.2,0.1-0.3,0.1h-0.8c-0.1,0-0.2,0-0.3-0.1l-0.2-0.3c-0.1-0.1-0.1-0.2-0.1-0.3v-1.8
		c0-0.1,0-0.2,0.1-0.3l0.2-0.3c0.1-0.1,0.2-0.1,0.3-0.1h0.8c0.1,0,0.2,0,0.3,0.1l0.2,0.3c0.1,0.1,0.1,0.2,0.1,0.3v1.8
		c0,0.1,0,0.2-0.1,0.3L376.7,554.1z M376.6,553.6v-1.8l-0.2-0.2h-0.7l-0.2,0.2v1.8l0.2,0.2h0.7L376.6,553.6z"/>
	<path class="st0" d="M379.2,554.2l-0.7-0.9H378v0.9h-0.4v-3h1.3c0.1,0,0.2,0,0.3,0.1l0.2,0.3c0.1,0.1,0.1,0.2,0.1,0.3v1
		c0,0.1,0,0.2-0.1,0.3l-0.2,0.3c0,0-0.1,0.1-0.2,0.1l0.5,0.6v0.3L379.2,554.2z M379.1,552.7v-0.9l-0.2-0.2H378v1.3h0.8L379.1,552.7z
		"/>
	<path class="st0" d="M380,554.2v-3h1.7v0.4h-1.3v0.9h1v0.4h-1v0.9h1.3v0.4L380,554.2z"/>
	<path class="st0" d="M384,554.2v-1.7v-0.4l-0.4,0.9c0,0.1-0.1,0.2-0.2,0.2h-0.3c-0.1,0-0.2-0.1-0.2-0.2l-0.4-0.9v0.4v1.7h-0.4v-3
		h0.4l0.7,1.7h0.1l0.7-1.7h0.5v3L384,554.2z"/>
	<path class="st0" d="M386,554.2v-0.4h0.3v-2.2H386v-0.4h1v0.4h-0.3v2.2h0.3v0.4H386z"/>
	<path class="st0" d="M389.1,553.2c-0.1,0.1-0.2,0.1-0.3,0.1H388v0.9h-0.4v-3h1.3c0.1,0,0.2,0,0.3,0.1l0.2,0.3
		c0.1,0.1,0.1,0.2,0.1,0.3v1c0,0.1,0,0.2-0.1,0.3L389.1,553.2z M389.1,552.7v-0.9l-0.2-0.2H388v1.3h0.8L389.1,552.7z"/>
	<path class="st0" d="M391.3,554.1c-0.1,0.1-0.2,0.1-0.3,0.1h-0.7c-0.1,0-0.2,0-0.3-0.1l-0.4-0.4l0.3-0.3l0.3,0.3h0.7l0.2-0.2v-0.4
		l-1.3-0.8c-0.1-0.1-0.1-0.2-0.1-0.3v-0.4c0-0.1,0-0.2,0.1-0.3l0.2-0.3c0.1-0.1,0.2-0.1,0.3-0.1h0.6c0.1,0,0.2,0,0.3,0.1l0.3,0.3
		l-0.3,0.3l-0.3-0.3h-0.6l-0.2,0.2v0.3l1.3,0.8c0.1,0.1,0.1,0.2,0.1,0.3v0.4c0,0.1,0,0.2-0.1,0.3L391.3,554.1z"/>
	<path class="st0" d="M393.8,554.1c-0.1,0.1-0.2,0.1-0.3,0.1h-0.8c-0.1,0-0.2,0-0.3-0.1l-0.2-0.3c-0.1-0.1-0.1-0.2-0.1-0.3v-2.5h0.4
		v2.4l0.2,0.2h0.7l0.2-0.2v-2.4h0.4v2.4c0,0.1,0,0.2-0.1,0.3L393.8,554.1z"/>
	<path class="st0" d="M396.5,554.2v-1.7v-0.4l-0.4,0.9c0,0.1-0.1,0.2-0.2,0.2h-0.3c-0.1,0-0.2-0.1-0.2-0.2l-0.4-0.9v0.4v1.7h-0.4v-3
		h0.4l0.7,1.7h0.1l0.7-1.7h0.5v3L396.5,554.2z"/>
	<path class="st0" d="M400.2,554.1c-0.1,0.1-0.2,0.1-0.3,0.1h-1.4v-3h1.4c0.1,0,0.2,0,0.3,0.1l0.2,0.3c0.1,0.1,0.1,0.2,0.1,0.3v1.8
		c0,0.1,0,0.2-0.1,0.3L400.2,554.1z M400.1,553.6v-1.8l-0.2-0.2H399v2.2h0.9L400.1,553.6z"/>
	<path class="st0" d="M402.7,554.1c-0.1,0.1-0.2,0.1-0.3,0.1h-0.8c-0.1,0-0.2,0-0.3-0.1l-0.2-0.3c-0.1-0.1-0.1-0.2-0.1-0.3v-1.8
		c0-0.1,0-0.2,0.1-0.3l0.2-0.3c0.1-0.1,0.2-0.1,0.3-0.1h0.8c0.1,0,0.2,0,0.3,0.1l0.2,0.3c0.1,0.1,0.1,0.2,0.1,0.3v1.8
		c0,0.1,0,0.2-0.1,0.3L402.7,554.1z M402.6,553.6v-1.8l-0.2-0.2h-0.7l-0.2,0.2v1.8l0.2,0.2h0.7L402.6,553.6z"/>
	<path class="st0" d="M403.6,554.2v-3h0.4v2.6h1.2v0.4L403.6,554.2z"/>
	<path class="st0" d="M407.3,554.1c-0.1,0.1-0.2,0.1-0.3,0.1h-0.8c-0.1,0-0.2,0-0.3-0.1l-0.2-0.3c-0.1-0.1-0.1-0.2-0.1-0.3v-1.8
		c0-0.1,0-0.2,0.1-0.3l0.2-0.3c0.1-0.1,0.2-0.1,0.3-0.1h0.8c0.1,0,0.2,0,0.3,0.1l0.2,0.3c0.1,0.1,0.1,0.2,0.1,0.3v1.8
		c0,0.1,0,0.2-0.1,0.3L407.3,554.1z M407.2,553.6v-1.8l-0.2-0.2h-0.7l-0.2,0.2v1.8l0.2,0.2h0.7L407.2,553.6z"/>
	<path class="st0" d="M409.8,554.2l-0.7-0.9h-0.4v0.9h-0.4v-3h1.3c0.1,0,0.2,0,0.3,0.1l0.2,0.3c0.1,0.1,0.1,0.2,0.1,0.3v1
		c0,0.1,0,0.2-0.1,0.3l-0.2,0.3c0,0-0.1,0.1-0.2,0.1l0.5,0.6v0.3L409.8,554.2z M409.7,552.7v-0.9l-0.2-0.2h-0.8v1.3h0.9L409.7,552.7
		z"/>
	<path class="st0" d="M413.1,554.1c-0.1,0.1-0.2,0.1-0.3,0.1h-0.7c-0.1,0-0.2,0-0.3-0.1l-0.4-0.4l0.3-0.3l0.3,0.3h0.7l0.2-0.2v-0.4
		l-1.3-0.8c-0.1-0.1-0.1-0.2-0.1-0.3v-0.4c0-0.1,0-0.2,0.1-0.3l0.2-0.3c0.1-0.1,0.2-0.1,0.3-0.1h0.6c0.1,0,0.2,0,0.3,0.1l0.3,0.3
		l-0.3,0.3l-0.3-0.3h-0.6l-0.2,0.2v0.3l1.3,0.8c0.1,0.1,0.1,0.2,0.1,0.3v0.4c0,0.1,0,0.2-0.1,0.3L413.1,554.1z"/>
	<path class="st0" d="M413.8,554.2v-0.4h0.3v-2.2h-0.3v-0.4h1v0.4h-0.3v2.2h0.3v0.4H413.8z"/>
	<path class="st0" d="M416,554.2v-2.6h-0.8v-0.4h2v0.4h-0.8v2.6H416z"/>
	<path class="st0" d="M420.2,554.2l-0.2-0.9h-1l-0.2,0.9h-0.4v-0.3l0.6-2.6c0-0.1,0.1-0.2,0.2-0.2h0.5c0.1,0,0.2,0.1,0.2,0.2
		l0.6,2.6v0.3H420.2z M419.6,551.6h-0.2l-0.3,1.3h0.8L419.6,551.6z"/>
	<path class="st0" d="M422.8,554.2v-1.7v-0.4l-0.4,0.9c0,0.1-0.1,0.2-0.2,0.2h-0.3c-0.1,0-0.2-0.1-0.2-0.2l-0.4-0.9v0.4v1.7H421v-3
		h0.4l0.7,1.7h0.1l0.7-1.7h0.4v3L422.8,554.2z"/>
	<path class="st0" d="M423.8,554.2v-3h1.7v0.4h-1.3v0.9h1v0.4h-1v0.9h1.3v0.4L423.8,554.2z"/>
	<path class="st0" d="M426.6,554.2v-2.6h-0.8v-0.4h2v0.4H427v2.6H426.6z"/>
	<path class="st0" d="M913.2,383v-3h0.4v2.6h1.2v0.4H913.2z"/>
	<path class="st0" d="M916.9,382.9c-0.1,0.1-0.2,0.1-0.3,0.1h-0.8c-0.1,0-0.2,0-0.3-0.1l-0.2-0.3c-0.1-0.1-0.1-0.2-0.1-0.3v-1.8
		c0-0.1,0-0.2,0.1-0.3l0.2-0.3c0.1-0.1,0.2-0.1,0.3-0.1h0.8c0.1,0,0.2,0,0.3,0.1l0.2,0.3c0.1,0.1,0.1,0.2,0.1,0.3v1.8
		c0,0.1,0,0.2-0.1,0.3L916.9,382.9z M916.8,382.4v-1.8l-0.2-0.2h-0.7l-0.2,0.2v1.8l0.2,0.2h0.7L916.8,382.4z"/>
	<path class="st0" d="M919.3,383l-0.7-0.9h-0.4v0.9h-0.4v-3h1.3c0.1,0,0.2,0,0.3,0.1l0.2,0.3c0.1,0.1,0.1,0.2,0.1,0.3v1
		c0,0.1,0,0.2-0.1,0.3l-0.2,0.3c0,0-0.1,0.1-0.2,0.1l0.5,0.6v0.3L919.3,383z M919.2,381.5v-0.9l-0.2-0.2h-0.8v1.3h0.8L919.2,381.5z"
		/>
	<path class="st0" d="M920.2,383v-3h1.7v0.4h-1.3v0.9h1v0.4h-1v0.9h1.3v0.4L920.2,383z"/>
	<path class="st0" d="M924.2,383v-1.7V381l-0.4,0.9c0,0.1-0.1,0.2-0.2,0.2h-0.3c-0.1,0-0.2-0.1-0.2-0.2l-0.4-0.9v0.4v1.7h-0.4V380
		h0.5l0.7,1.7h0.1l0.7-1.7h0.4v3L924.2,383z"/>
	<path class="st0" d="M926.2,383v-0.4h0.3v-2.2h-0.3V380h1v0.4h-0.3v2.2h0.3v0.4L926.2,383z"/>
	<path class="st0" d="M929.3,382c-0.1,0.1-0.2,0.1-0.3,0.1h-0.9v0.9h-0.4v-3h1.3c0.1,0,0.2,0,0.3,0.1l0.2,0.3
		c0.1,0.1,0.1,0.2,0.1,0.3v1c0,0.1,0,0.2-0.1,0.3L929.3,382z M929.2,381.5v-0.9l-0.2-0.2h-0.8v1.3h0.8L929.2,381.5z"/>
	<path class="st0" d="M931.5,382.9c-0.1,0.1-0.2,0.1-0.3,0.1h-0.7c-0.1,0-0.2,0-0.3-0.1l-0.4-0.4l0.3-0.3l0.3,0.3h0.7l0.2-0.2v-0.4
		l-1.3-0.8c-0.1-0.1-0.1-0.2-0.1-0.3v-0.4c0-0.1,0-0.2,0.1-0.3l0.2-0.3c0.1-0.1,0.2-0.1,0.3-0.1h0.6c0.1,0,0.2,0,0.3,0.1l0.3,0.3
		l-0.3,0.3l-0.3-0.3h-0.6l-0.2,0.2v0.3l1.3,0.8c0.1,0.1,0.1,0.2,0.1,0.3v0.4c0,0.1,0,0.2-0.1,0.3L931.5,382.9z"/>
	<path class="st0" d="M933.9,382.9c-0.1,0.1-0.2,0.1-0.3,0.1h-0.8c-0.1,0-0.2,0-0.3-0.1l-0.2-0.3c-0.1-0.1-0.1-0.2-0.1-0.3V380h0.4
		v2.4l0.2,0.2h0.7l0.2-0.2V380h0.4v2.5c0,0.1,0,0.2-0.1,0.3L933.9,382.9z"/>
	<path class="st0" d="M936.7,383v-1.7V381l-0.4,0.9c0,0.1-0.1,0.2-0.2,0.2h-0.3c-0.1,0-0.2-0.1-0.2-0.2l-0.4-0.9v0.4v1.7h-0.4V380
		h0.4l0.7,1.7h0.1l0.7-1.7h0.4v3L936.7,383z"/>
	<path class="st0" d="M940.4,382.9c-0.1,0.1-0.2,0.1-0.3,0.1h-1.4V380h1.4c0.1,0,0.2,0,0.3,0.1l0.2,0.3c0.1,0.1,0.1,0.2,0.1,0.3v1.8
		c0,0.1,0,0.2-0.1,0.3L940.4,382.9z M940.3,382.4v-1.8l-0.2-0.2h-0.9v2.2h0.9L940.3,382.4z"/>
	<path class="st0" d="M942.9,382.9c-0.1,0.1-0.2,0.1-0.3,0.1h-0.8c-0.1,0-0.2,0-0.3-0.1l-0.2-0.3c-0.1-0.1-0.1-0.2-0.1-0.3v-1.8
		c0-0.1,0-0.2,0.1-0.3l0.2-0.3c0.1-0.1,0.2-0.1,0.3-0.1h0.8c0.1,0,0.2,0,0.3,0.1l0.2,0.3c0.1,0.1,0.1,0.2,0.1,0.3v1.8
		c0,0.1,0,0.2-0.1,0.3L942.9,382.9z M942.8,382.4v-1.8l-0.2-0.2h-0.7l-0.2,0.2v1.8l0.2,0.2h0.8L942.8,382.4z"/>
	<path class="st0" d="M943.8,383v-3h0.4v2.6h1.2v0.4H943.8z"/>
	<path class="st0" d="M947.5,382.9c-0.1,0.1-0.2,0.1-0.3,0.1h-0.8c-0.1,0-0.2,0-0.3-0.1l-0.2-0.3c-0.1-0.1-0.1-0.2-0.1-0.3v-1.8
		c0-0.1,0-0.2,0.1-0.3l0.2-0.3c0.1-0.1,0.2-0.1,0.3-0.1h0.8c0.1,0,0.2,0,0.3,0.1l0.2,0.3c0.1,0.1,0.1,0.2,0.1,0.3v1.8
		c0,0.1,0,0.2-0.1,0.3L947.5,382.9z M947.4,382.4v-1.8l-0.2-0.2h-0.7l-0.2,0.2v1.8l0.2,0.2h0.7L947.4,382.4z"/>
	<path class="st0" d="M950,383l-0.7-0.9h-0.4v0.9h-0.4v-3h1.3c0.1,0,0.2,0,0.3,0.1l0.2,0.3c0.1,0.1,0.1,0.2,0.1,0.3v1
		c0,0.1,0,0.2-0.1,0.3l-0.2,0.3c0,0-0.1,0.1-0.2,0.1l0.5,0.6v0.3L950,383z M949.9,381.5v-0.9l-0.2-0.2h-0.8v1.3h0.8L949.9,381.5z"/>
	<path class="st0" d="M953.2,382.9c-0.1,0.1-0.2,0.1-0.3,0.1h-0.7c-0.1,0-0.2,0-0.3-0.1l-0.4-0.4l0.3-0.3l0.3,0.3h0.7l0.2-0.2v-0.4
		l-1.3-0.8c-0.1-0.1-0.1-0.2-0.1-0.3v-0.4c0-0.1,0-0.2,0.1-0.3l0.2-0.3c0.1-0.1,0.2-0.1,0.3-0.1h0.6c0.1,0,0.2,0,0.3,0.1l0.3,0.3
		l-0.3,0.3l-0.3-0.3h-0.6l-0.2,0.2v0.3l1.3,0.8c0.1,0.1,0.1,0.2,0.1,0.3v0.4c0,0.1,0,0.2-0.1,0.3L953.2,382.9z"/>
	<path class="st0" d="M954,383v-0.4h0.3v-2.2H954V380h1v0.4h-0.3v2.2h0.3v0.4L954,383z"/>
	<path class="st0" d="M956.2,383v-2.6h-0.8V380h2v0.4h-0.8v2.6H956.2z"/>
	<path class="st0" d="M960.4,383l-0.2-0.9h-1l-0.2,0.9h-0.4v-0.3l0.6-2.6c0-0.1,0.1-0.2,0.2-0.2h0.5c0.1,0,0.2,0.1,0.2,0.2l0.6,2.6
		v0.3H960.4z M959.8,380.4h-0.2l-0.3,1.3h0.8L959.8,380.4z"/>
	<path class="st0" d="M963,383v-1.7V381l-0.4,0.9c0,0.1-0.1,0.2-0.2,0.2h-0.3c-0.1,0-0.2-0.1-0.2-0.2l-0.4-0.9v0.4v1.7h-0.4V380h0.4
		l0.7,1.7h0.1l0.7-1.7h0.4v3L963,383z"/>
	<path class="st0" d="M964,383v-3h1.7v0.4h-1.3v0.9h1v0.4h-1v0.9h1.3v0.4L964,383z"/>
	<path class="st0" d="M966.7,383v-2.6H966V380h2v0.4h-0.8v2.6H966.7z"/>
	<path class="st0" d="M368.6,308.8l-3.5-4.5h-2.2v4.5h-2.2v-15.3h6.5c0.5,0,0.9,0.2,1.3,0.5l1.2,1.2c0.3,0.3,0.5,0.8,0.5,1.3v4.8
		c0,0.5-0.2,0.9-0.5,1.3l-1.2,1.2c-0.2,0.2-0.5,0.4-0.8,0.4l2.5,3.2v1.3L368.6,308.8z M368.1,301.2v-4.6l-1-1h-4.2v6.7h4.2
		L368.1,301.2z"/>
	<path class="st0" d="M381.4,308.3c-0.3,0.3-0.8,0.5-1.3,0.5h-3.8c-0.5,0-0.9-0.2-1.3-0.5l-1.2-1.2c-0.3-0.3-0.5-0.8-0.5-1.3v-12.3
		h2.2v12.2l1,1h3.5l1-1v-12.2h2.2v12.3c0,0.5-0.2,0.9-0.5,1.3L381.4,308.3z"/>
	<path class="st0" d="M394.3,308.3c-0.3,0.3-0.8,0.5-1.3,0.5h-6.5v-15.3h6.1c0.5,0,0.9,0.2,1.3,0.5l1.2,1.2c0.3,0.3,0.5,0.8,0.5,1.3
		v2.3c0,0.5-0.2,0.9-0.5,1.3l-0.5,0.5l0.9,0.9c0.3,0.3,0.5,0.8,0.5,1.3v3c0,0.5-0.2,0.9-0.5,1.3L394.3,308.3z M393.5,298.7v-2.1
		l-1-1h-3.7v4.2h3.7L393.5,298.7z M393.9,305.7v-2.8l-1-1h-4.2v4.9h4.2L393.9,305.7z"/>
	<path class="st0" d="M407,308.8l-3.5-4.5h-2.2v4.5h-2.2v-15.3h6.5c0.5,0,0.9,0.2,1.3,0.5l1.2,1.2c0.3,0.3,0.5,0.8,0.5,1.3v4.8
		c0,0.5-0.2,0.9-0.5,1.3l-1.2,1.2c-0.2,0.2-0.5,0.4-0.8,0.4l2.5,3.2v1.3L407,308.8z M406.5,301.2v-4.6l-1-1h-4.2v6.7h4.2
		L406.5,301.2z"/>
	<path class="st0" d="M411.4,308.8v-2h1.6v-11.3h-1.6v-2h5.4v2h-1.6v11.3h1.6v2H411.4z"/>
	<path class="st0" d="M428.6,308.8l-5.3-7.4l-1.2,1.2v6.3h-2.2v-15.3h2.2v6.1l6.1-6.1h1.7v1.3l-5,5l5.4,7.6v1.3H428.6z"/>
	<path class="st0" d="M360.9,247.7v-3h0.4v2.6h1.2v0.4H360.9z"/>
	<path class="st0" d="M364.5,247.6c-0.1,0.1-0.2,0.1-0.3,0.1h-0.8c-0.1,0-0.2,0-0.3-0.1l-0.2-0.3c-0.1-0.1-0.1-0.2-0.1-0.3v-1.8
		c0-0.1,0-0.2,0.1-0.3l0.2-0.3c0.1-0.1,0.2-0.1,0.3-0.1h0.8c0.1,0,0.2,0,0.3,0.1l0.2,0.3c0.1,0.1,0.1,0.2,0.1,0.3v1.8
		c0,0.1,0,0.2-0.1,0.3L364.5,247.6z M364.4,247.1v-1.8l-0.2-0.2h-0.7l-0.2,0.2v1.8l0.2,0.2h0.7L364.4,247.1z"/>
	<path class="st0" d="M367,247.7l-0.7-0.9h-0.4v0.9h-0.4v-3h1.3c0.1,0,0.2,0,0.3,0.1l0.2,0.3c0.1,0.1,0.1,0.2,0.1,0.3v1
		c0,0.1,0,0.2-0.1,0.3l-0.2,0.3c0,0-0.1,0.1-0.2,0.1l0.5,0.6v0.3L367,247.7z M366.9,246.2v-0.9l-0.2-0.2h-0.8v1.3h0.9L366.9,246.2z"
		/>
	<path class="st0" d="M367.8,247.7v-3h1.7v0.4h-1.3v0.9h1v0.4h-1v0.9h1.3v0.4L367.8,247.7z"/>
	<path class="st0" d="M371.8,247.7V246v-0.4l-0.4,0.9c0,0.1-0.1,0.2-0.2,0.2H371c-0.1,0-0.2-0.1-0.2-0.2l-0.4-0.9v0.4v1.7H370v-3
		h0.4l0.7,1.7h0.1l0.7-1.7h0.4v3L371.8,247.7z"/>
	<path class="st0" d="M373.8,247.7v-0.4h0.3v-2.3h-0.3v-0.4h1v0.4h-0.3v2.2h0.3v0.4L373.8,247.7z"/>
	<path class="st0" d="M377,246.7c-0.1,0.1-0.2,0.1-0.3,0.1h-0.9v0.9h-0.4v-3h1.3c0.1,0,0.2,0,0.3,0.1l0.2,0.3
		c0.1,0.1,0.1,0.2,0.1,0.3v1c0,0.1,0,0.2-0.1,0.3L377,246.7z M376.9,246.2v-0.9l-0.2-0.2h-0.8v1.3h0.8L376.9,246.2z"/>
	<path class="st0" d="M379.2,247.6c-0.1,0.1-0.2,0.1-0.3,0.1h-0.7c-0.1,0-0.2,0-0.3-0.1l-0.4-0.4l0.3-0.3l0.3,0.3h0.7l0.2-0.2v-0.4
		l-1.3-0.8c-0.1-0.1-0.1-0.2-0.1-0.3v-0.4c0-0.1,0-0.2,0.1-0.3l0.2-0.3c0.1-0.1,0.2-0.1,0.3-0.1h0.6c0.1,0,0.2,0,0.3,0.1l0.3,0.3
		l-0.3,0.3l-0.3-0.3h-0.6l-0.2,0.2v0.3l1.3,0.8c0.1,0.1,0.1,0.2,0.1,0.3v0.4c0,0.1,0,0.2-0.1,0.3L379.2,247.6z"/>
	<path class="st0" d="M381.6,247.6c-0.1,0.1-0.2,0.1-0.3,0.1h-0.8c-0.1,0-0.2,0-0.3-0.1l-0.2-0.3c-0.1-0.1-0.1-0.2-0.1-0.3v-2.5h0.4
		v2.4l0.2,0.2h0.7l0.2-0.2v-2.4h0.4v2.5c0,0.1,0,0.2-0.1,0.3L381.6,247.6z"/>
	<path class="st0" d="M384.3,247.7V246v-0.4l-0.4,0.9c0,0.1-0.1,0.2-0.2,0.2h-0.3c-0.1,0-0.2-0.1-0.2-0.2l-0.4-0.9v0.4v1.7h-0.4v-3
		h0.4l0.7,1.7h0.1l0.7-1.7h0.4v3L384.3,247.7z"/>
	<path class="st0" d="M362.5,252.2c-0.1,0.1-0.2,0.1-0.3,0.1h-1.4v-3h1.4c0.1,0,0.2,0,0.3,0.1l0.2,0.3c0.1,0.1,0.1,0.2,0.1,0.3v1.8
		c0,0.1,0,0.2-0.1,0.3L362.5,252.2z M362.4,251.7v-1.8l-0.2-0.2h-0.9v2.2h0.9L362.4,251.7z"/>
	<path class="st0" d="M365,252.2c-0.1,0.1-0.2,0.1-0.3,0.1H364c-0.1,0-0.2,0-0.3-0.1l-0.2-0.3c-0.1-0.1-0.1-0.2-0.1-0.3v-1.8
		c0-0.1,0-0.2,0.1-0.3l0.2-0.3c0.1-0.1,0.2-0.1,0.3-0.1h0.8c0.1,0,0.2,0,0.3,0.1l0.2,0.3c0.1,0.1,0.1,0.2,0.1,0.3v1.8
		c0,0.1,0,0.2-0.1,0.3L365,252.2z M364.9,251.7v-1.8l-0.2-0.2H364l-0.2,0.2v1.8l0.2,0.2h0.7L364.9,251.7z"/>
	<path class="st0" d="M365.9,252.3v-3h0.4v2.6h1.2v0.4L365.9,252.3z"/>
	<path class="st0" d="M369.6,252.2c-0.1,0.1-0.2,0.1-0.3,0.1h-0.8c-0.1,0-0.2,0-0.3-0.1l-0.2-0.3c-0.1-0.1-0.1-0.2-0.1-0.3v-1.8
		c0-0.1,0-0.2,0.1-0.3l0.2-0.3c0.1-0.1,0.2-0.1,0.3-0.1h0.8c0.1,0,0.2,0,0.3,0.1l0.2,0.3c0.1,0.1,0.1,0.2,0.1,0.3v1.8
		c0,0.1,0,0.2-0.1,0.3L369.6,252.2z M369.5,251.7v-1.8l-0.2-0.2h-0.7l-0.2,0.2v1.8l0.2,0.2h0.7L369.5,251.7z"/>
	<path class="st0" d="M372,252.3l-0.7-0.9h-0.5v0.9h-0.4v-3h1.3c0.1,0,0.2,0,0.3,0.1l0.2,0.3c0.1,0.1,0.1,0.2,0.1,0.3v1
		c0,0.1,0,0.2-0.1,0.3l-0.2,0.3c0,0-0.1,0.1-0.2,0.1l0.5,0.6v0.3L372,252.3z M372,250.8v-0.9l-0.2-0.2h-0.8v1.4h0.8L372,250.8z"/>
	<path class="st0" d="M375.4,252.2c-0.1,0.1-0.2,0.1-0.3,0.1h-0.7c-0.1,0-0.2,0-0.3-0.1l-0.4-0.4l0.3-0.3l0.3,0.3h0.7l0.2-0.2v-0.4
		l-1.3-0.8c-0.1-0.1-0.1-0.2-0.1-0.3v-0.4c0-0.1,0-0.2,0.1-0.3l0.2-0.3c0.1-0.1,0.2-0.1,0.3-0.1h0.6c0.1,0,0.2,0,0.3,0.1l0.3,0.3
		l-0.3,0.3l-0.3-0.3h-0.6l-0.2,0.2v0.3l1.3,0.8c0.1,0.1,0.1,0.2,0.1,0.3v0.4c0,0.1,0,0.2-0.1,0.3L375.4,252.2z"/>
	<path class="st0" d="M376.1,252.3v-0.4h0.3v-2.2h-0.3v-0.4h1v0.4h-0.3v2.2h0.3v0.4H376.1z"/>
	<path class="st0" d="M378.3,252.3v-2.6h-0.8v-0.4h2v0.4h-0.8v2.6H378.3z"/>
	<path class="st0" d="M382.5,252.3l-0.2-0.9h-1l-0.2,0.9h-0.4V252l0.6-2.6c0-0.1,0.1-0.2,0.2-0.2h0.5c0.1,0,0.2,0.1,0.2,0.2l0.6,2.6
		v0.3H382.5z M381.9,249.7h-0.2l-0.3,1.3h0.8L381.9,249.7z"/>
	<path class="st0" d="M385.1,252.3v-1.7v-0.4l-0.4,0.9c0,0.1-0.1,0.2-0.2,0.2h-0.3c-0.1,0-0.2-0.1-0.2-0.2l-0.4-0.9v0.4v1.7h-0.4v-3
		h0.4l0.7,1.7h0.1l0.7-1.7h0.4v3L385.1,252.3z"/>
	<path class="st0" d="M386.1,252.3v-3h1.7v0.4h-1.3v0.9h1v0.4h-1v0.9h1.3v0.4L386.1,252.3z"/>
	<path class="st0" d="M388.8,252.3v-2.6h-0.8v-0.4h2v0.4h-0.8v2.6H388.8z"/>
	<path class="st0" d="M534.5,247.7v-3h0.4v2.6h1.2v0.4H534.5z"/>
	<path class="st0" d="M538.2,247.6c-0.1,0.1-0.2,0.1-0.3,0.1h-0.8c-0.1,0-0.2,0-0.3-0.1l-0.2-0.3c-0.1-0.1-0.1-0.2-0.1-0.3v-1.8
		c0-0.1,0-0.2,0.1-0.3l0.2-0.3c0.1-0.1,0.2-0.1,0.3-0.1h0.8c0.1,0,0.2,0,0.3,0.1l0.2,0.3c0.1,0.1,0.1,0.2,0.1,0.3v1.8
		c0,0.1,0,0.2-0.1,0.3L538.2,247.6z M538.1,247.1v-1.8l-0.2-0.2h-0.7l-0.2,0.2v1.8l0.2,0.2h0.7L538.1,247.1z"/>
	<path class="st0" d="M540.7,247.7l-0.7-0.9h-0.4v0.9h-0.4v-3h1.3c0.1,0,0.2,0,0.3,0.1l0.2,0.3c0.1,0.1,0.1,0.2,0.1,0.3v1
		c0,0.1,0,0.2-0.1,0.3l-0.2,0.3c0,0-0.1,0.1-0.2,0.1l0.5,0.6v0.3L540.7,247.7z M540.6,246.2v-0.9l-0.2-0.2h-0.8v1.3h0.8L540.6,246.2
		z"/>
	<path class="st0" d="M541.5,247.7v-3h1.7v0.4h-1.3v0.9h1v0.4h-1v0.9h1.3v0.4L541.5,247.7z"/>
	<path class="st0" d="M545.5,247.7V246v-0.4l-0.4,0.9c0,0.1-0.1,0.2-0.2,0.2h-0.3c-0.1,0-0.2-0.1-0.2-0.2l-0.4-0.9v0.4v1.7h-0.4v-3
		h0.4l0.7,1.7h0.1l0.7-1.7h0.4v3L545.5,247.7z"/>
	<path class="st0" d="M547.5,247.7v-0.4h0.3v-2.3h-0.3v-0.4h1v0.4h-0.3v2.2h0.3v0.4L547.5,247.7z"/>
	<path class="st0" d="M550.6,246.7c-0.1,0.1-0.2,0.1-0.3,0.1h-0.9v0.9h-0.4v-3h1.2c0.1,0,0.2,0,0.3,0.1l0.2,0.3
		c0.1,0.1,0.1,0.2,0.1,0.3v1c0,0.1,0,0.2-0.1,0.3L550.6,246.7z M550.6,246.2v-0.9l-0.2-0.2h-0.8v1.3h0.8L550.6,246.2z"/>
	<path class="st0" d="M552.8,247.6c-0.1,0.1-0.2,0.1-0.3,0.1h-0.7c-0.1,0-0.2,0-0.3-0.1l-0.4-0.4l0.3-0.3l0.3,0.3h0.7l0.2-0.2v-0.4
		l-1.3-0.8c-0.1-0.1-0.1-0.2-0.1-0.3v-0.4c0-0.1,0-0.2,0.1-0.3l0.2-0.3c0.1-0.1,0.2-0.1,0.3-0.1h0.6c0.1,0,0.2,0,0.3,0.1l0.3,0.3
		l-0.3,0.3l-0.3-0.3H552l-0.2,0.2v0.3l1.3,0.8c0.1,0.1,0.1,0.2,0.1,0.3v0.4c0,0.1,0,0.2-0.1,0.3L552.8,247.6z"/>
	<path class="st0" d="M555.3,247.6c-0.1,0.1-0.2,0.1-0.3,0.1h-0.8c-0.1,0-0.2,0-0.3-0.1l-0.2-0.3c-0.1-0.1-0.1-0.2-0.1-0.3v-2.5h0.4
		v2.4l0.2,0.2h0.7l0.2-0.2v-2.4h0.4v2.5c0,0.1,0,0.2-0.1,0.3L555.3,247.6z"/>
	<path class="st0" d="M558,247.7V246v-0.4l-0.4,0.9c0,0.1-0.1,0.2-0.2,0.2h-0.3c-0.1,0-0.2-0.1-0.2-0.2l-0.4-0.9v0.4v1.7h-0.4v-3
		h0.5l0.7,1.7h0.1l0.7-1.7h0.4v3L558,247.7z"/>
	<path class="st0" d="M536.2,252.2c-0.1,0.1-0.2,0.1-0.3,0.1h-1.4v-3h1.4c0.1,0,0.2,0,0.3,0.1l0.2,0.3c0.1,0.1,0.1,0.2,0.1,0.3v1.8
		c0,0.1,0,0.2-0.1,0.3L536.2,252.2z M536.1,251.7v-1.8l-0.2-0.2H535v2.2h0.9L536.1,251.7z"/>
	<path class="st0" d="M538.7,252.2c-0.1,0.1-0.2,0.1-0.3,0.1h-0.8c-0.1,0-0.2,0-0.3-0.1l-0.2-0.3c-0.1-0.1-0.1-0.2-0.1-0.3v-1.8
		c0-0.1,0-0.2,0.1-0.3l0.2-0.3c0.1-0.1,0.2-0.1,0.3-0.1h0.8c0.1,0,0.2,0,0.3,0.1l0.2,0.3c0.1,0.1,0.1,0.2,0.1,0.3v1.8
		c0,0.1,0,0.2-0.1,0.3L538.7,252.2z M538.6,251.7v-1.8l-0.2-0.2h-0.7l-0.2,0.2v1.8l0.2,0.2h0.7L538.6,251.7z"/>
	<path class="st0" d="M539.6,252.3v-3h0.4v2.6h1.2v0.4L539.6,252.3z"/>
	<path class="st0" d="M543.3,252.2c-0.1,0.1-0.2,0.1-0.3,0.1h-0.8c-0.1,0-0.2,0-0.3-0.1l-0.2-0.3c-0.1-0.1-0.1-0.2-0.1-0.3v-1.8
		c0-0.1,0-0.2,0.1-0.3l0.2-0.3c0.1-0.1,0.2-0.1,0.3-0.1h0.8c0.1,0,0.2,0,0.3,0.1l0.2,0.3c0.1,0.1,0.1,0.2,0.1,0.3v1.8
		c0,0.1,0,0.2-0.1,0.3L543.3,252.2z M543.2,251.7v-1.8l-0.2-0.2h-0.7l-0.2,0.2v1.8l0.2,0.2h0.7L543.2,251.7z"/>
	<path class="st0" d="M545.7,252.3l-0.7-0.9h-0.4v0.9h-0.4v-3h1.3c0.1,0,0.2,0,0.3,0.1l0.2,0.3c0.1,0.1,0.1,0.2,0.1,0.3v1
		c0,0.1,0,0.2-0.1,0.3l-0.2,0.3c0,0-0.1,0.1-0.2,0.1l0.5,0.6v0.3L545.7,252.3z M545.6,250.8v-0.9l-0.2-0.2h-0.8v1.4h0.8L545.6,250.8
		z"/>
	<path class="st0" d="M549,252.2c-0.1,0.1-0.2,0.1-0.3,0.1H548c-0.1,0-0.2,0-0.3-0.1l-0.4-0.4l0.3-0.3l0.3,0.3h0.7l0.2-0.2v-0.4
		l-1.3-0.8c-0.1-0.1-0.1-0.2-0.1-0.3v-0.4c0-0.1,0-0.2,0.1-0.3l0.2-0.3c0.1-0.1,0.2-0.1,0.3-0.1h0.6c0.1,0,0.2,0,0.3,0.1l0.3,0.3
		l-0.3,0.3l-0.3-0.3h-0.6l-0.2,0.2v0.3l1.3,0.9c0.1,0.1,0.1,0.2,0.1,0.3v0.4c0,0.1,0,0.2-0.1,0.3L549,252.2z"/>
	<path class="st0" d="M549.8,252.3v-0.4h0.3v-2.2h-0.3v-0.4h1v0.4h-0.3v2.2h0.3v0.4H549.8z"/>
	<path class="st0" d="M552,252.3v-2.6h-0.8v-0.4h2v0.4h-0.8v2.6H552z"/>
	<path class="st0" d="M556.2,252.3l-0.2-0.9h-1l-0.2,0.9h-0.4V252l0.6-2.6c0-0.1,0.1-0.2,0.2-0.2h0.5c0.1,0,0.2,0.1,0.2,0.2l0.6,2.6
		v0.3H556.2z M555.6,249.7h-0.2l-0.3,1.3h0.8L555.6,249.7z"/>
	<path class="st0" d="M558.8,252.3v-1.7v-0.4l-0.4,0.9c0,0.1-0.1,0.2-0.2,0.2h-0.3c-0.1,0-0.2-0.1-0.2-0.2l-0.4-0.9v0.4v1.7h-0.4v-3
		h0.4l0.7,1.7h0.1l0.7-1.7h0.4v3L558.8,252.3z"/>
	<path class="st0" d="M559.7,252.3v-3h1.7v0.4h-1.3v0.9h1v0.4h-1v0.9h1.3v0.4L559.7,252.3z"/>
	<path class="st0" d="M562.5,252.3v-2.6h-0.8v-0.4h2v0.4H563v2.6H562.5z"/>
</g>
</svg>
