<?xml version="1.0" encoding="utf-8"?>
<!-- Generator: Adobe Illustrator 20.1.0, SVG Export Plug-In . SVG Version: 6.00 Build 0)  -->
<svg version="1.1" id="Layer_1" xmlns="http://www.w3.org/2000/svg" xmlns:xlink="http://www.w3.org/1999/xlink" x="0px" y="0px"
	 viewBox="0 0 660.7 194.4" style="enable-background:new 0 0 660.7 194.4;" xml:space="preserve">
<style type="text/css">
	.st0{fill:#FFFFFF;}
	.st1{opacity:0.3;fill:none;stroke:#000000;stroke-miterlimit:10;enable-background:new    ;}
	.st2{fill:#969696;}
	.st3{fill:#BEBEBE;}
	.st4{fill:none;stroke:#00FFFF;stroke-miterlimit:10;}
	.st5{fill:none;stroke:#00FFFF;stroke-width:0.25;stroke-miterlimit:10;}
	.st6{opacity:0.5;enable-background:new    ;}
</style>
<rect class="st0" width="137.4" height="194.4"/>
<rect x="174.4" class="st0" width="137.4" height="194.4"/>
<line class="st1" x1="137.4" y1="0.4" x2="0" y2="194.4"/>
<line class="st1" x1="0" y1="0.4" x2="137.4" y2="194.4"/>
<rect x="523.7" y="0.4" class="st2" width="34.2" height="194"/>
<rect x="557.9" y="0.4" class="st3" width="102.7" height="194"/>
<rect x="523.3" class="st4" width="137.4" height="194.4"/>
<line class="st4" x1="534.7" y1="194.4" x2="534.7" y2="0"/>
<line class="st4" x1="546.2" y1="194.4" x2="546.2" y2="0"/>
<line class="st4" x1="557.7" y1="194.4" x2="557.7" y2="0"/>
<line class="st4" x1="569.1" y1="194.4" x2="569.1" y2="0"/>
<line class="st4" x1="580.6" y1="194.4" x2="580.6" y2="0"/>
<line class="st4" x1="592" y1="194.4" x2="592" y2="0"/>
<line class="st4" x1="603.5" y1="194.4" x2="603.5" y2="0"/>
<line class="st4" x1="614.9" y1="194.4" x2="614.9" y2="0"/>
<line class="st4" x1="626.4" y1="194.4" x2="626.4" y2="0"/>
<line class="st4" x1="637.8" y1="194.4" x2="637.8" y2="0"/>
<line class="st4" x1="649.3" y1="194.4" x2="649.3" y2="0"/>
<rect x="523.3" class="st5" width="137.4" height="194.4"/>
<line class="st5" x1="660.7" y1="16.2" x2="523.3" y2="16.2"/>
<line class="st5" x1="660.7" y1="32.4" x2="523.3" y2="32.4"/>
<line class="st5" x1="660.7" y1="48.6" x2="523.3" y2="48.6"/>
<line class="st5" x1="660.7" y1="64.8" x2="523.3" y2="64.8"/>
<line class="st5" x1="660.7" y1="81" x2="523.3" y2="81"/>
<line class="st5" x1="660.7" y1="97.2" x2="523.3" y2="97.2"/>
<line class="st5" x1="660.7" y1="113.4" x2="523.3" y2="113.4"/>
<line class="st5" x1="660.7" y1="129.6" x2="523.3" y2="129.6"/>
<line class="st5" x1="660.7" y1="145.8" x2="523.3" y2="145.8"/>
<line class="st5" x1="660.7" y1="162" x2="523.3" y2="162"/>
<line class="st5" x1="660.7" y1="178.2" x2="523.3" y2="178.2"/>
<rect class="st4" width="137.4" height="194.4"/>
<line class="st4" x1="11.4" y1="194.4" x2="11.4" y2="0"/>
<line class="st4" x1="22.9" y1="194.4" x2="22.9" y2="0"/>
<line class="st4" x1="34.3" y1="194.4" x2="34.3" y2="0"/>
<line class="st4" x1="45.8" y1="194.4" x2="45.8" y2="0"/>
<line class="st4" x1="57.2" y1="194.4" x2="57.2" y2="0"/>
<line class="st4" x1="68.7" y1="194.4" x2="68.7" y2="0"/>
<line class="st4" x1="80.1" y1="194.4" x2="80.1" y2="0"/>
<line class="st4" x1="91.6" y1="194.4" x2="91.6" y2="0"/>
<line class="st4" x1="103" y1="194.4" x2="103" y2="0"/>
<line class="st4" x1="114.5" y1="194.4" x2="114.5" y2="0"/>
<line class="st4" x1="126" y1="194.4" x2="126" y2="0"/>
<rect class="st5" width="137.4" height="194.4"/>
<line class="st5" x1="137.4" y1="16.2" x2="0" y2="16.2"/>
<line class="st5" x1="137.4" y1="32.4" x2="0" y2="32.4"/>
<line class="st5" x1="137.4" y1="48.6" x2="0" y2="48.6"/>
<line class="st5" x1="137.4" y1="64.8" x2="0" y2="64.8"/>
<line class="st5" x1="137.4" y1="81" x2="0" y2="81"/>
<line class="st5" x1="137.4" y1="97.2" x2="0" y2="97.2"/>
<line class="st5" x1="137.4" y1="113.4" x2="0" y2="113.4"/>
<line class="st5" x1="137.4" y1="129.6" x2="0" y2="129.6"/>
<line class="st5" x1="137.4" y1="145.8" x2="0" y2="145.8"/>
<line class="st5" x1="137.4" y1="162" x2="0" y2="162"/>
<line class="st5" x1="137.4" y1="178.2" x2="0" y2="178.2"/>
<path class="st6" d="M12.9,131.4v-17.9h2.5V129h7v2.4H12.9z"/>
<path class="st6" d="M35,131.4l-1.2-5.1h-5.9l-1.2,5.1h-2.2v-1.8l3.7-15.2c0.1-0.6,0.6-1,1.2-1h2.9c0.6,0,1.1,0.4,1.2,1l3.7,15.2
	v1.8H35z M27.2,112.2v-2.5h2.5v2.5H27.2z M31.3,115.9h-0.9l-1.8,7.9h4.5L31.3,115.9z M31.9,112.2v-2.5h2.5v2.5H31.9z"/>
<path class="st6" d="M48.5,131.4v-3.8l-6.1-9.6v13.4h-2.5v-17.9h2.6l6,9.5v-9.5H51v17.9H48.5z"/>
<path class="st6" d="M64.7,130.8c-0.4,0.4-0.9,0.6-1.5,0.6h-4.6c-0.6,0-1.1-0.2-1.5-0.6l-1.4-1.5c-0.4-0.4-0.6-0.9-0.6-1.5V117
	c0-0.6,0.2-1.1,0.6-1.5l1.4-1.5c0.4-0.4,0.9-0.6,1.5-0.6h4.6c0.6,0,1.1,0.2,1.5,0.6l1.8,1.8l-2,1.6l-1.6-1.6h-4.2l-1.2,1.2v10.6
	l1.2,1.3h4.2l1.2-1.2v-4.2h-3.2v-2.4h5.7v6.8c0,0.6-0.2,1.1-0.6,1.5L64.7,130.8z"/>
<path class="st6" d="M79.6,131.4l-4.1-5.2H73v5.2h-2.5v-17.9h7.6c0.6,0,1.1,0.2,1.5,0.6l1.4,1.5c0.4,0.4,0.6,0.9,0.6,1.5v5.6
	c0,0.6-0.2,1.1-0.6,1.5l-1.4,1.5c-0.3,0.3-0.6,0.4-0.9,0.5l3,3.8v1.5L79.6,131.4z M79,122.5v-5.4l-1.2-1.2h-4.9v7.8h4.9L79,122.5z"
	/>
<path class="st6" d="M85.1,131.4v-17.9h10.3v2.4h-7.7v5.2h5.9v2.4h-5.9v5.4h7.7v2.4L85.1,131.4z"/>
<path class="st6" d="M22,159.2l-4.1-5.2h-2.5v5.2h-2.5v-17.9h7.6c0.6,0,1.1,0.2,1.5,0.6l1.4,1.5c0.4,0.4,0.6,0.9,0.6,1.5v5.6
	c0,0.6-0.2,1.1-0.6,1.5l-1.4,1.5c-0.3,0.3-0.6,0.4-0.9,0.5l3,3.8v1.6H22V159.2z M21.5,150.3V145l-1.2-1.2h-4.9v7.8h4.9L21.5,150.3z"
	/>
<path class="st6" d="M37.1,158.6c-0.4,0.4-0.9,0.6-1.5,0.6h-4.5c-0.6,0-1.1-0.2-1.5-0.6l-1.4-1.5c-0.4-0.4-0.6-0.9-0.6-1.5v-14.4
	h2.5v14.3l1.2,1.2h4.2l1.2-1.2v-14.2h2.5v14.4c0,0.6-0.2,1.1-0.6,1.5L37.1,158.6z"/>
<path class="st6" d="M52.3,158.6c-0.4,0.4-0.9,0.6-1.5,0.6h-7.6v-17.9h7.1c0.6,0,1.1,0.2,1.5,0.6l1.4,1.5c0.4,0.4,0.6,0.9,0.6,1.5
	v2.7c0,0.6-0.2,1.1-0.6,1.5l-0.6,0.6l1,1c0.4,0.4,0.6,0.9,0.6,1.5v3.6c0,0.6-0.2,1.1-0.6,1.5L52.3,158.6z M51.3,147.4V145l-1.2-1.2
	h-4.4v4.9h4.4L51.3,147.4z M51.8,155.6v-3.3l-1.2-1.2h-4.9v5.7h4.9L51.8,155.6z"/>
<path class="st6" d="M67.1,159.2L63,154h-2.5v5.2H58v-17.9h7.6c0.6,0,1.1,0.2,1.5,0.6l1.4,1.5c0.4,0.4,0.6,0.9,0.6,1.5v5.6
	c0,0.5-0.2,1.1-0.6,1.5l-1.4,1.5c-0.3,0.3-0.6,0.4-0.9,0.5l3,3.8v1.6h-2.1V159.2z M66.6,150.3V145l-1.2-1.2h-4.9v7.8h4.9L66.6,150.3
	z"/>
<path class="st6" d="M72.3,159.2v-2.3h1.9v-13.2h-1.9v-2.3h6.3v2.3h-1.8v13.2h1.9v2.4L72.3,159.2L72.3,159.2z"/>
<path class="st6" d="M92.4,159.2l-6.2-8.7l-1.4,1.4v7.3h-2.5v-17.9h2.5v7.1l7.1-7.1h2v1.5l-5.9,5.9l6.4,9v1.6h-2V159.2z"/>
<rect x="349.3" y="0.4" class="st2" width="68.5" height="194"/>
<rect x="417.7" y="0.4" class="st3" width="68.5" height="194"/>
<rect x="348.9" class="st4" width="137.4" height="194.4"/>
<line class="st4" x1="360.3" y1="194.4" x2="360.3" y2="0"/>
<line class="st4" x1="371.8" y1="194.4" x2="371.8" y2="0"/>
<line class="st4" x1="383.2" y1="194.4" x2="383.2" y2="0"/>
<line class="st4" x1="394.7" y1="194.4" x2="394.7" y2="0"/>
<line class="st4" x1="406.1" y1="194.4" x2="406.1" y2="0"/>
<line class="st4" x1="417.6" y1="194.4" x2="417.6" y2="0"/>
<line class="st4" x1="429" y1="194.4" x2="429" y2="0"/>
<line class="st4" x1="440.5" y1="194.4" x2="440.5" y2="0"/>
<line class="st4" x1="451.9" y1="194.4" x2="451.9" y2="0"/>
<line class="st4" x1="463.4" y1="194.4" x2="463.4" y2="0"/>
<line class="st4" x1="474.8" y1="194.4" x2="474.8" y2="0"/>
<rect x="348.9" class="st5" width="137.4" height="194.4"/>
<line class="st5" x1="486.3" y1="16.2" x2="348.9" y2="16.2"/>
<line class="st5" x1="486.3" y1="32.4" x2="348.9" y2="32.4"/>
<line class="st5" x1="486.3" y1="48.6" x2="348.9" y2="48.6"/>
<line class="st5" x1="486.3" y1="64.8" x2="348.9" y2="64.8"/>
<line class="st5" x1="486.3" y1="81" x2="348.9" y2="81"/>
<line class="st5" x1="486.3" y1="97.2" x2="348.9" y2="97.2"/>
<line class="st5" x1="486.3" y1="113.4" x2="348.9" y2="113.4"/>
<line class="st5" x1="486.3" y1="129.6" x2="348.9" y2="129.6"/>
<line class="st5" x1="486.3" y1="145.8" x2="348.9" y2="145.8"/>
<line class="st5" x1="486.3" y1="162" x2="348.9" y2="162"/>
<line class="st5" x1="486.3" y1="178.2" x2="348.9" y2="178.2"/>
<path class="st0" d="M375.4,89.3l-5.5-7.1h-3.4v7.1h-3.4V65h10.3c0.8,0,1.5,0.3,2.1,0.8l1.9,2c0.5,0.5,0.8,1.3,0.8,2v7.7
	c0,0.8-0.3,1.5-0.8,2l-1.9,2c-0.3,0.3-0.8,0.6-1.3,0.7l4,5.1v2.1L375.4,89.3z M374.7,77.2v-7.3l-1.6-1.6h-6.6v10.6h6.6L374.7,77.2z"
	/>
<path class="st0" d="M395.9,88.5c-0.5,0.5-1.3,0.8-2,0.8h-6.1c-0.8,0-1.5-0.3-2-0.8l-1.9-2c-0.5-0.5-0.8-1.3-0.8-2V65h3.4v19.4
	l1.6,1.7h5.6l1.6-1.7V65h3.4v19.6c0,0.8-0.3,1.5-0.8,2L395.9,88.5z"/>
<path class="st0" d="M416.5,88.5c-0.6,0.5-1.3,0.8-2.1,0.8h-10.3V65h9.7c0.8,0,1.5,0.3,2.1,0.8l1.9,2c0.5,0.5,0.8,1.3,0.8,2v3.7
	c0,0.8-0.3,1.5-0.8,2l-0.8,0.8l1.4,1.4c0.5,0.5,0.8,1.3,0.8,2v4.9c0,0.8-0.3,1.5-0.8,2L416.5,88.5z M415.2,73.3V70l-1.6-1.7h-6v6.6
	h6L415.2,73.3z M415.8,84.4v-4.5l-1.6-1.7h-6.6V86h6.6L415.8,84.4z"/>
<path class="st0" d="M436.7,89.3l-5.5-7.1h-3.4v7.1h-3.5V65h10.3c0.8,0,1.5,0.3,2.1,0.8l1.9,2c0.5,0.5,0.8,1.3,0.8,2v7.7
	c0,0.8-0.3,1.5-0.8,2l-1.9,2c-0.3,0.3-0.8,0.6-1.3,0.7l4,5.1v2.1L436.7,89.3z M435.9,77.2v-7.3l-1.6-1.7h-6.6v10.6h6.6L435.9,77.2z"
	/>
<path class="st0" d="M443.8,89.3v-3.1h2.6v-18h-2.6V65h8.6v3.2h-2.6v18h2.6v3.1C452.4,89.3,443.8,89.3,443.8,89.3z"/>
<path class="st0" d="M471.2,89.3l-8.4-11.8l-1.9,1.9v9.9h-3.4V65h3.4v9.7l9.7-9.7h2.7v2.1l-8,8l8.7,12.1v2.1
	C474,89.3,471.2,89.3,471.2,89.3z"/>
<line class="st1" x1="311.8" y1="64.8" x2="174.4" y2="194.4"/>
<line class="st1" x1="174.4" y1="64.8" x2="311.8" y2="194.4"/>
<rect x="174.4" class="st2" width="137.4" height="64.8"/>
<rect x="174.4" class="st4" width="137.4" height="194.4"/>
<line class="st4" x1="311.8" y1="16.2" x2="174.4" y2="16.2"/>
<line class="st4" x1="311.8" y1="32.4" x2="174.4" y2="32.4"/>
<line class="st4" x1="311.8" y1="48.6" x2="174.4" y2="48.6"/>
<line class="st4" x1="311.8" y1="64.8" x2="174.4" y2="64.8"/>
<line class="st4" x1="311.8" y1="81" x2="174.4" y2="81"/>
<line class="st4" x1="311.8" y1="97.2" x2="174.4" y2="97.2"/>
<line class="st4" x1="311.8" y1="113.4" x2="174.4" y2="113.4"/>
<line class="st4" x1="311.8" y1="129.6" x2="174.4" y2="129.6"/>
<line class="st4" x1="311.8" y1="145.8" x2="174.4" y2="145.8"/>
<line class="st4" x1="311.8" y1="162" x2="174.4" y2="162"/>
<line class="st4" x1="311.8" y1="178.2" x2="174.4" y2="178.2"/>
<rect x="174.4" class="st5" width="137.4" height="194.4"/>
<line class="st5" x1="185.9" y1="194.4" x2="185.9" y2="0"/>
<line class="st5" x1="197.3" y1="194.4" x2="197.3" y2="0"/>
<line class="st5" x1="208.8" y1="194.4" x2="208.8" y2="0"/>
<line class="st5" x1="220.2" y1="194.4" x2="220.2" y2="0"/>
<line class="st5" x1="231.7" y1="194.4" x2="231.7" y2="0"/>
<line class="st5" x1="243.1" y1="194.4" x2="243.1" y2="0"/>
<line class="st5" x1="254.6" y1="194.4" x2="254.6" y2="0"/>
<line class="st5" x1="266" y1="194.4" x2="266" y2="0"/>
<line class="st5" x1="277.5" y1="194.4" x2="277.5" y2="0"/>
<line class="st5" x1="288.9" y1="194.4" x2="288.9" y2="0"/>
<line class="st5" x1="300.4" y1="194.4" x2="300.4" y2="0"/>
<path class="st0" d="M193.3,48.3l-3.5-4.5h-2.2v4.5h-2.2V33h6.5c0.5,0,0.9,0.2,1.3,0.5l1.2,1.2c0.3,0.3,0.5,0.8,0.5,1.3v4.8
	c0,0.5-0.2,0.9-0.5,1.3l-1.2,1.2c-0.2,0.2-0.5,0.4-0.8,0.4l2.5,3.2v1.3L193.3,48.3z M192.9,40.7v-4.6l-1-1h-4.2v6.7h4.2L192.9,40.7z
	"/>
<path class="st0" d="M206.2,47.7c-0.3,0.3-0.8,0.5-1.3,0.5h-3.8c-0.5,0-0.9-0.2-1.3-0.5l-1.2-1.2c-0.3-0.3-0.5-0.8-0.5-1.3V33h2.2
	v12.2l1,1h3.5l1-1V33h2.2v12.3c0,0.5-0.2,0.9-0.5,1.3L206.2,47.7z"/>
<path class="st0" d="M219.1,47.7c-0.3,0.3-0.8,0.5-1.3,0.5h-6.4V33h6.1c0.5,0,0.9,0.2,1.3,0.5l1.2,1.2c0.3,0.3,0.5,0.8,0.5,1.3v2.3
	c0,0.5-0.2,0.9-0.5,1.3l-0.5,0.5l0.9,0.9c0.3,0.3,0.5,0.8,0.5,1.3v3c0,0.5-0.2,0.9-0.5,1.3L219.1,47.7z M218.3,38.2v-2.1l-1-1h-3.8
	v4.2h3.7L218.3,38.2z M218.7,45.2v-2.8l-1-1h-4.2v4.9h4.2L218.7,45.2z"/>
<path class="st0" d="M231.7,48.3l-3.5-4.5h-2.1v4.5h-2.2V33h6.5c0.5,0,0.9,0.2,1.3,0.5l1.2,1.2c0.3,0.3,0.5,0.8,0.5,1.3v4.8
	c0,0.5-0.2,0.9-0.5,1.3l-1.2,1.2c-0.2,0.2-0.5,0.4-0.8,0.4l2.5,3.2v1.3L231.7,48.3z M231.3,40.7v-4.6l-1-1h-4.2v6.7h4.2L231.3,40.7z
	"/>
<path class="st0" d="M236.2,48.3v-2h1.6V35h-1.6v-2h5.4v2H240v11.3h1.6v2H236.2z"/>
<path class="st0" d="M253.4,48.3l-5.3-7.4l-1.2,1.2v6.3h-2.1V33h2.1v6l6.1-6.1h1.7v1.3l-5,5l5.4,7.6v1.3L253.4,48.3z"/>
<path class="st0" d="M578.3,80.3l-3.5-4.5h-2.2v4.5h-2.2V65h6.5c0.5,0,0.9,0.2,1.3,0.5l1.2,1.2c0.3,0.3,0.5,0.8,0.5,1.3v4.8
	c0,0.5-0.2,0.9-0.5,1.3l-1.2,1.2c-0.2,0.2-0.5,0.4-0.8,0.4l2.5,3.2v1.3L578.3,80.3L578.3,80.3z M577.8,72.7v-4.6l-1-1h-4.2v6.7h4.2
	L577.8,72.7z"/>
<path class="st0" d="M591.1,79.8c-0.3,0.3-0.8,0.5-1.3,0.5H586c-0.5,0-0.9-0.2-1.3-0.5l-1.2-1.2c-0.3-0.3-0.5-0.8-0.5-1.3V65h2.2
	v12.1l1,1h3.5l1-1V65h2.2v12.3c0,0.5-0.2,0.9-0.5,1.3L591.1,79.8z"/>
<path class="st0" d="M604.1,79.8c-0.3,0.3-0.8,0.5-1.3,0.5h-6.4V65h6.1c0.5,0,0.9,0.2,1.3,0.5l1.2,1.2c0.3,0.3,0.5,0.8,0.5,1.3v2.3
	c0,0.5-0.2,0.9-0.5,1.3l-0.5,0.5l0.9,0.9c0.3,0.3,0.5,0.8,0.5,1.3v3c0,0.5-0.2,0.9-0.5,1.3L604.1,79.8z M603.3,70.2v-2.1l-1-1h-3.8
	v4.2h3.7L603.3,70.2z M603.7,77.2v-2.8l-1-1h-4.2v4.9h4.2L603.7,77.2z"/>
<path class="st0" d="M616.7,80.3l-3.5-4.5h-2.1v4.5h-2.2V65h6.5c0.5,0,0.9,0.2,1.3,0.5l1.2,1.2c0.3,0.3,0.5,0.8,0.5,1.3v4.8
	c0,0.5-0.2,0.9-0.5,1.3l-1.2,1.2c-0.2,0.2-0.5,0.4-0.8,0.4l2.5,3.2v1.3L616.7,80.3L616.7,80.3z M616.3,72.7v-4.6l-1-1h-4.2v6.7h4.2
	L616.3,72.7z"/>
<path class="st0" d="M621.2,80.3v-2h1.6V67h-1.6v-2h5.4v2H625v11.3h1.6v2H621.2z"/>
<path class="st0" d="M638.3,80.3l-5.3-7.4l-1.2,1.2v6.3h-2.1V65h2.1v6.1l6.1-6.1h1.7v1.3l-5,5l5.4,7.6v1.3L638.3,80.3z"/>
</svg>
