<svg id="Layer_1" data-name="Layer 1" xmlns="http://www.w3.org/2000/svg" viewBox="0 0 319 200"><defs><style>.cls-1{fill:#002554;}.cls-2{fill:#fff;}</style></defs><title>maison_color</title><rect class="cls-1" y="100" width="319" height="100"/><rect class="cls-2" width="319" height="100"/><path d="M29.87,57.74,36,56.53q1.06,7.24,4.08,10.54t9.9,3.3q5.54,0,8.38-2.48a7.81,7.81,0,0,0,2.84-6.11,6.82,6.82,0,0,0-2.56-5.61q-2.56-2.06-11.15-4.9-8.24-2.63-11.82-5.79a10.57,10.57,0,0,1-3.59-8.34,12,12,0,0,1,4.22-9.23q4.22-3.83,11.4-3.83a19.12,19.12,0,0,1,11.72,3.48Q64.16,31,65.08,37.79l-6,1.28a12.29,12.29,0,0,0-3.44-7q-2.59-2.41-7.92-2.41-4.69,0-7.17,2.13a6.72,6.72,0,0,0-2.48,5.32,5.58,5.58,0,0,0,2.27,4.62q2.27,1.78,10.08,4.33,9.87,3.19,13.28,6.46t3.41,8.95a13.26,13.26,0,0,1-4.62,10.26q-4.62,4.15-12.71,4.15Q32.14,75.92,29.87,57.74Z"/><path d="M85.53,74.85,70.34,37.22h6L87.8,66.69h.14l11.5-29.46h6L90.22,74.85Z"/><path d="M132.25,74.85V70.73h-.14a10.34,10.34,0,0,1-4,3.51,15.11,15.11,0,0,1-7.46,1.67q-6.25,0-9.48-3.05a10.1,10.1,0,0,1-3.23-7.67,9.52,9.52,0,0,1,2.88-7.35q2.88-2.66,9.76-4.44,2.56-.64,3.8-1t2.88-1a8.78,8.78,0,0,0,2.34-1.17,5.6,5.6,0,0,0,1.24-1.42,3.54,3.54,0,0,0,.53-1.92,5,5,0,0,0-2-4q-2-1.6-5.93-1.6-7.53,0-9.16,7.46L109,47.3a13.33,13.33,0,0,1,4.61-8.06,14.43,14.43,0,0,1,9.59-3.09q6.53,0,10.33,3.23t3.8,10.12V74.85Zm-10.37-17q-4.83,1.35-6.57,2.91a5.19,5.19,0,0,0-1.74,4q0,5.89,7.46,5.89,5.11,0,7.88-2.31a7.09,7.09,0,0,0,2.77-5.64V53.41h-.14Q130.54,55.47,121.88,57.88Z"/><path d="M145.88,74.85V37.22h5.54v4h.14a7.91,7.91,0,0,1,3.34-3.48,9.21,9.21,0,0,1,4.47-1.21,7.87,7.87,0,0,1,1.67.18q.82.18,1.24.32l.36.21L161.57,43a6.43,6.43,0,0,0-3-.57q-3.62,0-5.25,2.38t-1.63,7.63V74.85Z"/><path d="M172.86,63.92V42.4h-5.25V37.22H173V28h5.54v9.23h9.3V42.4h-9.23v20.8q0,3.34.92,4.69t3.69,1.35h2.84v5.61h-3.12q-5.32,0-7.7-2.73T172.86,63.92Z"/><path class="cls-2" d="M47.16,175.55l-17.29-49H36.1l14.42,41.93h.14L64.8,126.55H71L54,175.55Z"/><path class="cls-2" d="M76.91,131v-6.51h6.58V131Zm.42,44.59v-37.1h5.74v37.1Z"/><path class="cls-2" d="M96.72,164.77V143.56H91.54v-5.11h5.32v-9.1h5.46v9.1h9.17v5.11h-9.1v20.51q0,3.29.91,4.62t3.64,1.33h2.8v5.53h-3.08q-5.25,0-7.6-2.7T96.72,164.77Z"/></svg>