<?xml version="1.0" encoding="utf-8"?>
<!-- Generator: Adobe Illustrator 21.0.2, SVG Export Plug-In . SVG Version: 6.00 Build 0)  -->
<svg version="1.1" id="Lager_1" xmlns="http://www.w3.org/2000/svg" xmlns:xlink="http://www.w3.org/1999/xlink" x="0px" y="0px"
	 viewBox="0 0 1233.2 707.4" style="enable-background:new 0 0 1233.2 707.4;" xml:space="preserve">
<style type="text/css">
	.st0{fill:#60CD18;}
	.st1{fill:none;stroke:#000000;stroke-width:0.5;stroke-miterlimit:10;}
	.st2{fill:#007AC7;}
	.st3{fill:#41B0EE;}
	.st4{fill:#0092E1;}
	.st5{fill:#FFC500;}
	.st6{fill:#673AB6;}
	.st7{fill:#4914A8;}
	.st8{fill:#3A008D;}
</style>
<title>box-graphic</title>
<g id="Lager_2">
	<g id="Lager_1-2">
		<rect x="508.9" class="st0" width="215.4" height="215.4"/>
		<polyline class="st1" points="769.2,324.9 769.2,370.4 723.7,370.4 		"/>
		<line class="st1" x1="769.2" y1="370.4" x2="679.4" y2="280.6"/>
		<polyline class="st1" points="509.5,370.4 464,370.4 464,324.9 		"/>
		<line class="st1" x1="464" y1="370.4" x2="553.8" y2="280.6"/>
		<polygon class="st2" points="995,486.5 878,554.1 760.9,486.5 878,418.9 		"/>
		<polygon class="st3" points="878,554.1 878,689.2 995,621.6 995,486.5 		"/>
		<polygon class="st4" points="878,554.1 760.9,486.5 760.9,621.6 878,689.2 		"/>
		
			<rect x="270.3" y="414.2" transform="matrix(0.7071 -0.7071 0.7071 0.7071 -245.7997 389.9229)" class="st5" width="155" height="155"/>
		
			<rect x="368.3" y="551.6" transform="matrix(0.7071 -0.7071 0.7071 0.7071 -302.7186 471.6701)" class="st6" width="99.3" height="99.3"/>
		
			<rect x="310.2" y="616.8" transform="matrix(0.7071 -0.7071 0.7071 0.7071 -360.824 437.5657)" class="st7" width="75.1" height="75.1"/>
		
			<rect x="287.8" y="576.4" transform="matrix(0.7071 -0.7071 0.7071 0.7071 -333.5671 397.1902)" class="st8" width="49.7" height="49.7"/>
	</g>
</g>
</svg>
