<svg xmlns="http://www.w3.org/2000/svg" viewBox="0 0 646.2 215.4"><defs><style>.cls-1{fill:#60cd18;}.cls-2{fill:#fff;}.cls-3{fill:none;stroke:#000;stroke-miterlimit:10;stroke-width:0.5px;}</style></defs><title>thebox</title><g id="Lager_2" data-name="Lager 2"><g id="Lager_1-2" data-name="Lager 1"><rect class="cls-1" width="215.4" height="215.4"/><path class="cls-2" d="M78,93.54l-7,5.2a15.52,15.52,0,0,0-9.87-3.39c-2.37,0-4.83.68-5.22,2.37s1.16,2.93,3.79,3.64c3,.81,5.73,1.52,9.94,2.73,6.26,1.79,10.54,4.49,10.54,10.77,0,8.65-7.68,13.14-18,13.14s-17.3-5.36-19.4-7.86l7.36-5.51c5.17,4.51,8.77,5.15,11.78,5.15,3.45,0,6.68-.74,7.09-2.68.34-1.57-1-2.81-3.9-3.5-3.32-.77-6.13-1.39-9.26-2.21C47.4,109.17,45,104.24,45,99.81c0-6.1,5.68-12.37,16.07-12.37A25.47,25.47,0,0,1,78,93.54M122.06,88H91.55v39.49h32.31v-9H102.32v-7.18h14.36v-9H102.32V96.93h19.75Zm-37.7,48.46h1.8V79h-1.8Zm43.08,0h1.8V79h-1.8Zm7.18-9H160c6.79,0,12.29-4.09,12.29-10.64,0-5.11-3.34-8.5-8-10a2.63,2.63,0,0,0-.45-.06,2.84,2.84,0,0,0,.45-.08A9.08,9.08,0,0,0,169.92,98c0-6.11-5.41-10-12.08-10H134.63ZM145.4,95.14h9.18a3.6,3.6,0,1,1,0,7.18H145.4Zm10.81,23.33H145.4v-7.18h10.81a3.59,3.59,0,0,1,0,7.18Z"/><rect class="cls-1" x="430.8" width="215.4" height="215.4"/><polyline class="cls-3" points="354.63 75.52 386.81 107.7 354.63 139.88"/><line class="cls-3" x1="386.81" y1="107.7" x2="259.39" y2="107.7"/></g></g></svg>