<?xml version="1.0" encoding="utf-8"?>
<!-- Generator: Adobe Illustrator 21.0.2, SVG Export Plug-In . SVG Version: 6.00 Build 0)  -->
<svg version="1.1" id="Layer_1" xmlns="http://www.w3.org/2000/svg" xmlns:xlink="http://www.w3.org/1999/xlink" x="0px" y="0px"
	 viewBox="0 0 1009.1 653" style="enable-background:new 0 0 1009.1 653;" xml:space="preserve">
<style type="text/css">
	.st0{fill:#32BAF2;}
	.st1{fill:#002554;}
	.st2{fill:#FFFFFF;}
	.st3{fill:#E21F26;}
	.st4{fill:#CFB571;}
</style>
<rect class="st0" width="461.3" height="652.5"/>
<rect class="st1" width="230.6" height="652.5"/>
<path class="st2" d="M67.2,185.3h32.3c2.4,0,4.7,0.9,6.4,2.5l6.1,6.2c1.7,1.7,2.6,4,2.6,6.3v24c-0.1,2.3-1,4.6-2.6,6.3l-6.1,6.2
	c-1,1-2.4,1.9-4,2.3l12.6,16v6.6h-8.5l-17.3-22.2H78v22.2H67.2V185.3z M103.8,200.9l-5.1-5.2H78v33.2h20.7l5.1-5.2L103.8,200.9z"/>
<path class="st2" d="M141.9,261.5c-2.4,0-4.7-0.9-6.4-2.5l-6.1-6.2c-1.7-1.7-2.6-4-2.6-6.3v-61.3h10.6V246l5.1,5.2h17.5l5.1-5.2
	v-60.7H176v61.3c-0.1,2.3-1,4.6-2.6,6.3l-6.1,6.2c-1.7,1.7-4,2.6-6.4,2.5H141.9z"/>
<path class="st2" d="M235.5,211.7c-0.1,2.3-1,4.6-2.6,6.3l-2.5,2.5l4.5,4.5c1.7,1.7,2.6,4,2.6,6.3v15.1c-0.1,2.3-1,4.6-2.6,6.3
	l-6.1,6.2c-1.7,1.7-4,2.6-6.4,2.5h-32.3v-76.2h30.3c2.4,0,4.7,0.9,6.4,2.5l6.1,6.2c1.7,1.7,2.6,4,2.6,6.3L235.5,211.7z M224.8,211.2
	v-10.3l-5.1-5.2H201v20.7h18.7L224.8,211.2z M201,226.7v24.4h20.7l5.1-5.2v-14l-5.1-5.2H201z"/>
<path class="st2" d="M250.1,185.3h32.3c2.4,0,4.7,0.9,6.4,2.5l6.1,6.2c1.7,1.7,2.6,4,2.6,6.3v24c-0.1,2.3-1,4.6-2.6,6.3l-6.1,6.2
	c-1,1-2.4,1.9-4,2.3l12.6,16v6.6H289l-17.3-22.2h-10.8v22.2h-10.8L250.1,185.3L250.1,185.3z M286.7,200.9l-5.1-5.2h-20.7v33.2h20.7
	l5.1-5.2V200.9z"/>
<path class="st2" d="M308.3,185.3h26.8v10h-8v56.3h8v10h-26.8v-10h8v-56.3h-8V185.3z"/>
<path class="st2" d="M372.3,216.8l27.1,38.1v6.6H391l-26.3-37.1l-6,6v31.1H348v-76.2h10.8v30.3l30.3-30.3h8.5v6.4L372.3,216.8z"/>
<path class="st2" d="M33.4,48.5v-9.2h1v8.2h4v1L33.4,48.5z"/>
<path class="st2" d="M42.8,48.8c-0.8,0-1.7-0.4-2.3-1c-0.6-0.7-0.9-1.8-0.9-2.7c-0.1-0.9,0.3-2,0.9-2.7c0.5-0.6,1.4-1,2.3-1
	c0.8,0,1.7,0.3,2.2,1c0.6,0.7,0.9,1.7,0.9,2.7c0.1,0.9-0.2,2-0.8,2.7C44.5,48.3,43.6,48.8,42.8,48.8z M42.8,47.8
	c0.6,0,1.1-0.2,1.5-0.7c0.4-0.6,0.6-1.3,0.6-2c0-0.7-0.2-1.5-0.6-2c-0.3-0.4-0.9-0.7-1.5-0.7c-0.6,0-1.1,0.2-1.6,0.7
	c-0.8,1.3-0.8,2.8,0,4C41.7,47.5,42.2,47.7,42.8,47.8L42.8,47.8z"/>
<path class="st2" d="M47.7,48.5v-7h1v0.7l0,0c0.1-0.3,0.3-0.5,0.6-0.6c0.2-0.1,0.5-0.2,0.8-0.2c0.1,0,0.2,0,0.3,0l0.2,0.1h0.1
	l-0.2,1c-0.2-0.1-0.3-0.1-0.5-0.1c-0.4,0-0.7,0.1-0.9,0.4c-0.3,0.4-0.4,0.9-0.3,1.5v4.2H47.7z"/>
<path class="st2" d="M57.1,46.4l0.8,0.5c-0.3,0.5-0.6,0.9-1.1,1.3c-0.5,0.4-1.1,0.6-1.8,0.6c-0.9,0-1.8-0.3-2.3-1
	c-0.6-0.7-0.8-1.7-0.8-2.6c0-0.9,0.3-1.9,0.8-2.7c0.5-0.7,1.5-1,2.3-1c0.8,0,1.7,0.3,2.3,1s0.8,1.8,0.8,2.7v0.3h-5.2
	c0,0.6,0.2,1.3,0.5,1.7c0.4,0.4,0.9,0.7,1.6,0.6c0.2,0,0.5,0,0.7-0.1c0.2-0.1,0.3-0.1,0.5-0.2c0.1-0.1,0.3-0.2,0.4-0.3
	c0.1-0.1,0.2-0.2,0.2-0.3L57.1,46.4z M52.9,44.5h4.2c0-0.5-0.2-1-0.5-1.6c-0.7-0.8-2.1-0.9-2.9-0.2c-0.1,0.1-0.1,0.1-0.2,0.2
	C53.1,43.4,52.9,44,52.9,44.5z"/>
<path class="st2" d="M59.9,48.5v-7h0.9v0.6l0,0c0.2-0.3,0.4-0.5,0.7-0.6c0.3-0.2,0.7-0.2,1-0.2c0.4,0,0.8,0.1,1.1,0.3
	c0.3,0.2,0.5,0.4,0.7,0.7l0,0c0.2-0.3,0.4-0.5,0.7-0.7c0.3-0.2,0.7-0.3,1.1-0.3c1.3-0.1,2.3,0.8,2.4,2.1c0,0.1,0,0.2,0,0.3v4.8h-1
	v-4.4c0-1.1-0.5-1.8-1.5-1.8c-0.4,0-0.8,0.1-1.1,0.4c-0.3,0.3-0.4,0.8-0.4,1.3v4.5h-1v-4.4c0-1.1-0.5-1.8-1.5-1.8
	c-0.4,0-0.8,0.1-1.1,0.5c-0.2,0.3-0.4,0.7-0.3,1.3v4.5L59.9,48.5z"/>
<path class="st2" d="M74.4,40.1v-1.3h1.3v1.3H74.4z M74.5,48.4v-7h1v7H74.5z"/>
<path class="st2" d="M78,51.5v-9.9h1v0.6l0,0c0.2-0.2,0.5-0.4,0.8-0.6c0.4-0.2,0.8-0.3,1.3-0.3c0.8,0,1.7,0.4,2.2,1
	c0.6,0.7,0.9,1.7,0.8,2.7c0,0.9-0.3,1.9-0.8,2.6c-0.5,0.6-1.4,1-2.2,1c-0.4,0-0.8-0.1-1.1-0.3c-0.3-0.1-0.5-0.3-0.7-0.6l0,0v3.7
	L78,51.5z M79,44.1v2.2c0,0.4,0.2,0.8,0.5,1c0.3,0.3,0.8,0.5,1.3,0.4c0.6,0,1.3-0.2,1.6-0.7c0.7-1.3,0.7-2.8,0-4
	c-0.4-0.5-0.9-0.7-1.6-0.7c-0.5,0-0.9,0.2-1.3,0.5C79.2,43.1,79,43.5,79,44.1z"/>
<path class="st2" d="M85.3,46.1l1-0.2c0,0.9,0.7,1.8,1.8,1.9c0.1,0,0.1,0,0.2,0c0.4,0,0.8-0.1,1.3-0.3c0.3-0.2,0.4-0.5,0.4-0.8
	c0-0.3-0.1-0.6-0.4-0.8c-0.5-0.3-1-0.5-1.7-0.6c-0.6-0.1-1.3-0.4-1.8-0.8c-0.3-0.3-0.5-0.7-0.5-1.3c0-0.5,0.2-1,0.6-1.4
	c0.5-0.4,1.1-0.6,1.8-0.5c0.6,0,1.3,0.1,1.8,0.5c0.4,0.4,0.7,0.9,0.9,1.5l-0.9,0.2c-0.2-0.8-0.9-1.4-1.8-1.4c-0.4,0-0.7,0.1-1,0.3
	c-0.2,0.2-0.3,0.4-0.3,0.7c0,0.3,0.1,0.5,0.3,0.6c0.5,0.2,1,0.4,1.7,0.6c0.7,0.1,1.4,0.4,1.9,0.8c0.3,0.3,0.5,0.8,0.5,1.4
	c0,0.5-0.2,1-0.6,1.5c-1.3,0.8-2.9,0.8-4.1-0.1C85.7,47.5,85.4,46.9,85.3,46.1z"/>
<path class="st2" d="M92.6,46v-4.6h1v4.4c0,0.5,0.1,0.9,0.4,1.4c0.3,0.3,0.8,0.4,1.3,0.4c0.4,0,0.9-0.1,1.3-0.5
	c0.3-0.4,0.4-0.8,0.4-1.4v-4.4h1v7h-1v-0.6l0,0l-0.2,0.2c-0.2,0.2-0.4,0.3-0.6,0.4c-0.3,0.2-0.7,0.2-1,0.2c-0.6,0-1.4-0.2-1.8-0.6
	C92.8,47.5,92.5,46.8,92.6,46z"/>
<path class="st2" d="M100.2,48.5v-7h0.9v0.6l0,0c0.2-0.3,0.4-0.5,0.7-0.6c0.3-0.2,0.7-0.2,1-0.2c0.4,0,0.8,0.1,1.1,0.3
	c0.3,0.2,0.5,0.4,0.7,0.7l0,0c0.2-0.3,0.4-0.5,0.7-0.7c0.3-0.2,0.7-0.3,1.1-0.3c1.3-0.1,2.4,0.7,2.5,2c0,0.1,0,0.3,0,0.4v4.8h-1
	v-4.4c0-1.1-0.5-1.8-1.5-1.8c-0.4,0-0.8,0.1-1.1,0.4c-0.3,0.3-0.4,0.8-0.4,1.3v4.5h-1v-4.4c0-1.1-0.5-1.8-1.5-1.8
	c-0.4,0-0.8,0.1-1.1,0.5c-0.2,0.3-0.4,0.7-0.3,1.3v4.5L100.2,48.5z"/>
<path class="st2" d="M37.9,63.9v-0.6l0,0c-0.2,0.2-0.5,0.4-0.8,0.6c-1.1,0.5-2.6,0.2-3.4-0.7c-0.6-0.7-0.8-1.8-0.8-2.7
	c0-0.9,0.2-1.9,0.8-2.7c0.5-0.6,1.4-1,2.2-1c0.7,0,1.5,0.3,2,0.8l0,0v-3.2h1v9.6C38.8,63.9,37.9,63.9,37.9,63.9z M37.8,61.6v-2.2
	c0-0.4-0.2-0.8-0.5-1.1c-0.3-0.3-0.8-0.5-1.3-0.5c-0.6,0-1.3,0.2-1.6,0.7c-0.7,1.3-0.7,2.8,0,4c0.7,0.8,2,0.9,2.8,0.2
	C37.7,62.4,37.8,62,37.8,61.6z"/>
<path class="st2" d="M43.8,64.1c-0.8,0-1.7-0.3-2.3-0.9c-0.6-0.7-0.9-1.8-0.9-2.7c-0.1-0.9,0.3-2,0.9-2.7c0.5-0.6,1.4-1,2.3-0.9
	c0.8,0,1.7,0.3,2.2,0.9c0.6,0.7,0.9,1.7,0.9,2.7c0.1,0.9-0.2,2-0.8,2.7C45.5,63.8,44.7,64.1,43.8,64.1z M43.8,63.2
	c0.6,0,1.1-0.2,1.5-0.7c0.4-0.6,0.6-1.3,0.6-2c0-0.7-0.2-1.5-0.6-2c-0.3-0.4-0.9-0.7-1.5-0.7c-0.6,0-1.1,0.2-1.6,0.7
	c-0.8,1.3-0.8,2.8,0,4C42.7,63,43.3,63.2,43.8,63.2z"/>
<path class="st2" d="M48.8,63.9v-9.6h1v9.6H48.8z"/>
<path class="st2" d="M54.8,64.1c-0.8,0-1.7-0.3-2.3-0.9c-0.6-0.7-0.9-1.8-0.9-2.7c-0.1-0.9,0.3-2,0.9-2.7c0.5-0.6,1.4-1,2.3-0.9
	c0.8,0,1.7,0.3,2.3,0.9c0.6,0.7,0.9,1.7,0.9,2.7c0.1,0.9-0.2,2-0.8,2.7C56.6,63.8,55.7,64.2,54.8,64.1z M54.8,63.2
	c0.6,0,1.1-0.2,1.5-0.7c0.4-0.6,0.6-1.3,0.6-2c0-0.7-0.2-1.5-0.6-2c-0.3-0.4-0.9-0.7-1.5-0.7c-0.6,0-1.1,0.2-1.5,0.7
	c-0.8,1.3-0.8,2.8,0,4C53.7,63,54.3,63.2,54.8,63.2z"/>
<path class="st2" d="M59.7,63.9v-7h1v0.7l0,0c0.1-0.3,0.3-0.5,0.6-0.6c0.2-0.1,0.5-0.2,0.8-0.2c0.1,0,0.2,0,0.3,0l0.2,0.1h0.1
	l-0.2,1c-0.2-0.1-0.3-0.1-0.5-0.1c-0.4,0-0.7,0.1-0.9,0.4c-0.2,0.4-0.3,0.9-0.3,1.5v4.2L59.7,63.9z"/>
<path class="st2" d="M67.1,61.6l1-0.2c0,0.9,0.7,1.8,1.8,1.9c0.1,0,0.1,0,0.2,0c0.4,0,0.8-0.1,1.3-0.3c0.3-0.2,0.4-0.5,0.4-0.8
	c0-0.3-0.1-0.6-0.4-0.8c-0.5-0.3-1-0.5-1.7-0.6c-0.6-0.1-1.3-0.4-1.8-0.8c-0.3-0.3-0.5-0.7-0.5-1.3c0-0.5,0.2-1,0.6-1.4
	c0.5-0.4,1.1-0.6,1.8-0.6c0.6,0,1.3,0.1,1.8,0.5c0.4,0.4,0.7,0.9,0.9,1.5l-0.9,0.2c-0.2-0.8-0.9-1.4-1.8-1.4c-0.4,0-0.7,0.1-1,0.3
	c-0.2,0.2-0.3,0.4-0.3,0.7c0,0.3,0.1,0.5,0.3,0.6c0.5,0.2,1,0.4,1.7,0.6c0.7,0.1,1.4,0.4,1.9,0.8c0.3,0.3,0.5,0.8,0.5,1.4
	c0,0.5-0.2,1-0.6,1.5c-1.3,0.8-2.9,0.8-4.2-0.1C67.5,62.8,67.2,62.2,67.1,61.6z"/>
<path class="st2" d="M74.5,55.5v-1.3h1.3v1.3H74.5z M74.5,63.9v-7h1v7H74.5z"/>
<path class="st2" d="M78.2,61.9v-4h-0.9V57h1v-1.8h1v1.7H81v0.9h-1.8v3.9c0,0.3,0,0.6,0.2,0.8c0.2,0.2,0.4,0.3,0.7,0.2h0.5v1h-0.6
	c-0.5,0-1-0.2-1.4-0.5C78.4,63,78.2,62.4,78.2,61.9z"/>
<path class="st2" d="M90.1,63.9v-0.7l0,0c-0.2,0.3-0.4,0.5-0.7,0.6c-0.4,0.2-0.9,0.3-1.4,0.3c-0.6,0-1.3-0.1-1.8-0.5
	c-0.4-0.4-0.6-0.9-0.6-1.5c0-0.5,0.2-1,0.5-1.4c0.5-0.4,1.1-0.7,1.8-0.8l0.7-0.2l0.5-0.2c0.1,0,0.3-0.1,0.4-0.2
	c0.1-0.1,0.2-0.2,0.2-0.2c0.1-0.1,0.1-0.2,0.1-0.3c0-0.3-0.1-0.5-0.3-0.7c-0.3-0.2-0.7-0.3-1.1-0.3c-0.8-0.1-1.6,0.5-1.7,1.4
	l-0.9-0.3c0.1-0.6,0.4-1.1,0.8-1.5c0.5-0.4,1.1-0.6,1.8-0.6c0.7,0,1.4,0.2,1.9,0.6c0.5,0.5,0.7,1.1,0.7,1.9v4.7L90.1,63.9z
	 M88.1,60.8c-0.4,0.1-0.8,0.3-1.3,0.5c-0.2,0.2-0.3,0.4-0.3,0.7c0,0.7,0.4,1,1.4,1c0.5,0,1-0.1,1.5-0.4c0.3-0.2,0.5-0.6,0.5-1v-1.7
	l0,0C89.9,60.2,89.3,60.4,88.1,60.8L88.1,60.8z"/>
<path class="st2" d="M93.1,63.9v-7h0.9v0.6l0,0c0.2-0.3,0.4-0.5,0.7-0.6c0.3-0.2,0.7-0.2,1-0.2c0.4,0,0.8,0.1,1.1,0.3
	c0.3,0.2,0.5,0.4,0.7,0.7l0,0c0.2-0.3,0.4-0.5,0.7-0.7c0.3-0.2,0.7-0.3,1.1-0.3c1.3-0.1,2.3,0.8,2.5,2c0,0.1,0,0.3,0,0.4v4.8h-1
	v-4.5c0-1.1-0.5-1.8-1.5-1.8c-0.4,0-0.8,0.1-1.1,0.4c-0.3,0.3-0.4,0.8-0.4,1.3v4.5h-1v-4.4c0-1.1-0.5-1.8-1.5-1.8
	c-0.4,0-0.8,0.1-1.1,0.4c-0.2,0.3-0.4,0.7-0.3,1.3v4.5L93.1,63.9z"/>
<path class="st2" d="M109.2,61.8l0.8,0.5c-0.3,0.5-0.6,0.9-1.1,1.3c-0.5,0.3-1.1,0.5-1.8,0.5c-0.9,0-1.8-0.3-2.3-1
	c-0.6-0.7-0.9-1.7-0.9-2.7c0-0.9,0.3-1.9,0.8-2.7c0.5-0.7,1.5-1,2.3-1c0.8,0,1.7,0.3,2.3,0.9c0.6,0.7,0.9,1.8,0.8,2.7v0.3h-5.2
	c0,0.6,0.2,1.3,0.5,1.7c0.4,0.5,0.9,0.7,1.6,0.7c0.2,0,0.5,0,0.7-0.1c0.2-0.1,0.3-0.1,0.5-0.2c0.1-0.1,0.3-0.2,0.4-0.3
	c0.1-0.1,0.2-0.2,0.2-0.3L109.2,61.8z M105,59.9h4.2c0-0.5-0.2-1-0.5-1.6c-0.7-0.8-2.1-0.9-2.9-0.2c-0.1,0.1-0.1,0.1-0.2,0.2
	C105.2,58.8,105,59.3,105,59.9L105,59.9z"/>
<path class="st2" d="M112.2,61.9v-4h-0.9V57h1v-1.8h1v1.7h1.8v0.9h-1.7v3.9c0,0.3,0,0.6,0.2,0.8c0.2,0.2,0.4,0.3,0.7,0.2h0.5v1h-0.6
	c-0.5,0-1-0.1-1.5-0.5C112.4,63,112.2,62.4,112.2,61.9z"/>
<path class="st2" d="M116.9,65.4v-0.6c0.4,0,0.7-0.4,0.6-0.8l0,0h-0.6v-1.6h1.6v1.4c0.1,0.8-0.4,1.6-1.3,1.7
	C117.1,65.4,117,65.4,116.9,65.4z"/>
<path class="st2" d="M37.9,76.6l1,0.2c-0.1,0.7-0.4,1.5-0.9,2c-0.5,0.5-1.3,0.7-2,0.7c-0.8,0-1.7-0.3-2.3-0.9
	c-0.6-0.7-0.9-1.8-0.8-2.7c-0.1-0.9,0.3-2,0.9-2.7c0.5-0.6,1.4-1,2.3-1c0.7,0,1.4,0.2,1.9,0.7c0.5,0.5,0.8,1.1,0.9,1.9l-1,0.2
	c-0.1-0.4-0.3-0.8-0.5-1.3c-0.3-0.3-0.7-0.5-1.3-0.5c-0.6,0-1.1,0.2-1.6,0.7c-0.4,0.6-0.6,1.3-0.6,2c0,0.7,0.1,1.5,0.5,2
	c0.4,0.5,0.9,0.7,1.6,0.7c0.5,0,0.9-0.2,1.3-0.5C37.6,77.6,37.8,77.1,37.9,76.6z"/>
<path class="st2" d="M43.3,79.6c-0.8,0-1.7-0.3-2.3-0.9c-0.6-0.7-0.9-1.8-0.9-2.7c-0.1-0.9,0.3-2,0.9-2.7c0.5-0.6,1.4-1,2.3-0.9
	c0.8,0,1.7,0.3,2.2,0.9c0.6,0.7,0.9,1.7,0.9,2.7c0.1,0.9-0.2,2-0.8,2.7C45,79.1,44.2,79.6,43.3,79.6z M43.3,78.5
	c0.6,0,1.1-0.2,1.5-0.7c0.4-0.6,0.6-1.3,0.6-2c0-0.7-0.1-1.5-0.6-2c-0.3-0.4-0.9-0.7-1.5-0.7c-0.6,0-1.1,0.2-1.6,0.7
	c-0.8,1.3-0.8,2.8,0,4C42.2,78.3,42.8,78.5,43.3,78.5L43.3,78.5z"/>
<path class="st2" d="M48.2,79.3v-7h1V73l0,0c0.2-0.3,0.5-0.5,0.8-0.6c0.3-0.2,0.7-0.2,1.1-0.2c0.7,0,1.4,0.2,1.9,0.7
	c0.5,0.5,0.7,1.1,0.7,1.9v4.6h-1v-4.3c0-1.3-0.5-2-1.6-2c-0.5,0-0.9,0.1-1.4,0.4c-0.3,0.3-0.5,0.8-0.5,1.3v4.5L48.2,79.3z"/>
<path class="st2" d="M55.4,76.9l1-0.2c0,0.9,0.7,1.8,1.8,1.9c0.1,0,0.1,0,0.2,0c0.4,0,0.8-0.1,1.3-0.3c0.3-0.2,0.4-0.5,0.4-0.8
	c0-0.3-0.1-0.6-0.4-0.8c-0.5-0.3-1-0.5-1.7-0.6s-1.3-0.4-1.8-0.8c-0.3-0.3-0.5-0.7-0.5-1.3c0-0.5,0.2-1,0.6-1.4
	c0.5-0.4,1.1-0.6,1.8-0.5c0.6,0,1.3,0.1,1.8,0.5c0.4,0.4,0.7,0.9,0.9,1.5l-0.9,0.2c-0.2-0.8-0.9-1.4-1.8-1.4c-0.4,0-0.7,0.1-1,0.3
	c-0.2,0.2-0.3,0.4-0.3,0.7c0,0.3,0.1,0.5,0.3,0.6c0.5,0.2,1,0.4,1.7,0.6c0.7,0.1,1.4,0.4,1.9,0.8c0.3,0.3,0.5,0.8,0.5,1.4
	s-0.2,1-0.6,1.5c-1.3,0.8-2.9,0.8-4.1-0.1C55.9,78.3,55.5,77.7,55.4,76.9z"/>
<path class="st2" d="M67.6,77.1l0.8,0.5c-0.2,0.5-0.6,0.9-1.1,1.3c-0.5,0.3-1.1,0.5-1.8,0.5c-0.9,0-1.8-0.3-2.3-1
	c-0.6-0.7-0.9-1.7-0.9-2.7c0-0.9,0.3-1.9,0.8-2.7c0.5-0.7,1.5-1,2.3-1c0.8,0,1.7,0.3,2.3,0.9c0.6,0.7,0.9,1.8,0.8,2.7v0.3h-5.2
	c0,0.6,0.2,1.3,0.5,1.7c0.4,0.5,0.9,0.7,1.6,0.7c0.2,0,0.5,0,0.7-0.1c0.2-0.1,0.3-0.1,0.5-0.2c0.1-0.1,0.3-0.2,0.4-0.3
	c0.1-0.1,0.2-0.2,0.2-0.3L67.6,77.1z M63.5,75.3h4.2c0-0.5-0.2-1-0.5-1.6c-0.7-0.8-2.1-0.9-2.9-0.2c-0.1,0.1-0.1,0.1-0.2,0.2
	C63.7,74.2,63.5,74.7,63.5,75.3L63.5,75.3z"/>
<path class="st2" d="M75.1,76.6l1,0.2c-0.1,0.7-0.4,1.5-0.9,2s-1.3,0.7-2,0.7c-0.8,0-1.7-0.3-2.3-0.9c-0.6-0.7-0.9-1.8-0.8-2.7
	c-0.1-0.9,0.3-2,0.9-2.7c0.5-0.6,1.4-1,2.3-1c0.7,0,1.4,0.2,1.9,0.7s0.8,1.1,0.9,1.9l-1,0.2c-0.1-0.5-0.3-0.9-0.6-1.3
	c-0.3-0.3-0.7-0.5-1.3-0.5s-1.1,0.3-1.5,0.7c-0.4,0.6-0.6,1.3-0.6,2c0,0.7,0.1,1.5,0.5,2c0.4,0.5,0.9,0.7,1.6,0.7
	c0.4,0,0.9-0.2,1.3-0.5C74.9,77.6,75.1,77.1,75.1,76.6z"/>
<path class="st2" d="M78.1,77.3v-4h-0.9v-0.9h1v-1.7h1v1.7H81v0.9h-1.8v3.9c0,0.3,0,0.6,0.2,0.8c0.2,0.2,0.4,0.3,0.7,0.2h0.5v1h-0.6
	c-0.5,0-1-0.1-1.5-0.5C78.2,78.4,78.1,77.8,78.1,77.3z"/>
<path class="st2" d="M87.2,77.1l0.8,0.5c-0.3,0.5-0.6,0.9-1.1,1.3c-0.5,0.3-1.1,0.5-1.8,0.5c-0.9,0-1.8-0.3-2.3-1
	c-0.6-0.7-0.9-1.7-0.9-2.7c0-0.9,0.3-1.9,0.8-2.7c0.5-0.7,1.5-1,2.3-1c0.8,0,1.7,0.3,2.3,0.9c0.6,0.7,0.9,1.8,0.8,2.7v0.3h-5.2
	c0,0.6,0.2,1.3,0.5,1.7c0.4,0.5,0.9,0.7,1.6,0.7c0.2,0,0.5,0,0.7-0.1c0.2-0.1,0.3-0.1,0.5-0.2c0.1-0.1,0.3-0.2,0.4-0.3
	c0.1-0.1,0.2-0.2,0.2-0.3L87.2,77.1z M83,75.3h4.2c0-0.5-0.2-1-0.5-1.6c-0.7-0.8-2.1-0.9-2.9-0.2c-0.1,0.1-0.1,0.1-0.2,0.2
	C83.2,74.2,83,74.7,83,75.3L83,75.3z"/>
<path class="st2" d="M90.2,77.3v-4h-0.9v-0.9h1v-1.7h1v1.7h1.8v0.9h-1.7v3.9c0,0.3,0,0.6,0.2,0.8c0.2,0.2,0.4,0.3,0.7,0.2h0.5v1
	h-0.6c-0.5,0-1-0.1-1.5-0.5C90.4,78.4,90.2,77.9,90.2,77.3z"/>
<path class="st2" d="M94.7,76.8v-4.6h1v4.4c0,0.5,0.1,0.9,0.4,1.4c0.3,0.3,0.8,0.4,1.3,0.4c0.4,0,0.9-0.1,1.3-0.5
	c0.3-0.4,0.4-0.8,0.4-1.4v-4.4h1v7h-1v-0.6l0,0l-0.2,0.2c-0.2,0.2-0.4,0.3-0.6,0.4c-0.3,0.2-0.7,0.2-1,0.2c-0.6,0-1.4-0.2-1.8-0.6
	C94.9,78.3,94.6,77.6,94.7,76.8z"/>
<path class="st2" d="M107.1,77.1l0.8,0.5c-0.3,0.5-0.6,0.9-1.1,1.3c-0.5,0.3-1.1,0.5-1.8,0.5c-0.9,0-1.8-0.3-2.3-1
	c-0.6-0.7-0.9-1.7-0.9-2.7c0-0.9,0.3-1.9,0.8-2.7c0.5-0.7,1.5-1,2.3-1c0.8,0,1.7,0.3,2.3,0.9c0.6,0.7,0.9,1.8,0.8,2.7v0.3h-5.2
	c0,0.6,0.2,1.3,0.5,1.7c0.4,0.5,0.9,0.7,1.6,0.7c0.2,0,0.5,0,0.7-0.1c0.2-0.1,0.3-0.1,0.5-0.2c0.1-0.1,0.3-0.2,0.4-0.3
	c0.1-0.1,0.2-0.2,0.2-0.3L107.1,77.1z M102.9,75.3h4.2c0-0.5-0.2-1-0.5-1.6c-0.7-0.8-2.1-0.9-2.9-0.2c-0.1,0.1-0.1,0.1-0.2,0.2
	C103.1,74.2,102.9,74.7,102.9,75.3L102.9,75.3z"/>
<path class="st2" d="M109.9,79.3v-7h1v0.7l0,0c0.1-0.3,0.3-0.5,0.6-0.6c0.2-0.1,0.5-0.2,0.8-0.2c0.1,0,0.2,0,0.3,0l0.2,0.1h0.1
	l-0.2,1c-0.2-0.1-0.3-0.1-0.5-0.1c-0.4,0-0.7,0.1-0.9,0.4c-0.2,0.4-0.3,0.9-0.3,1.5v4.2L109.9,79.3z"/>
<path class="st2" d="M113.7,79.3v-1.6h1.6v1.6H113.7z"/>
<rect x="545.9" class="st1" width="461.7" height="653"/>
<rect x="545.9" class="st3" width="461.7" height="217.7"/>
<rect x="545.9" y="108.9" class="st4" width="461.7" height="108.9"/>
<path class="st2" d="M598.7,137.4h21.7c1.6,0,3.1,0.6,4.3,1.7l4.1,4.2c1.1,1.1,1.8,2.6,1.8,4.2v16.2c0,1.6-0.7,3-1.8,4.2l-4.1,4.2
	c-0.7,0.7-1.7,1.3-2.6,1.5l8.6,10.8v4.4H625l-11.7-14.9H606v15h-7.3L598.7,137.4z M623.4,147.8l-3.4-3.5H606v22.4h13.9l3.4-3.5
	V147.8z"/>
<path class="st2" d="M651,188.6c-1.6,0-3.1-0.6-4.3-1.7l-4.1-4.2c-1.1-1.1-1.8-2.6-1.8-4.2v-41.2h7.3v40.8l3.4,3.5h11.8l3.4-3.5
	v-40.8h7.3v41.2c0,1.6-0.7,3-1.8,4.2l-4.1,4.2c-1.1,1.1-2.7,1.8-4.4,1.7H651z"/>
<path class="st2" d="M716.1,155.1c0,1.6-0.7,3-1.8,4.2l-1.7,1.7l3,3c1.1,1.1,1.8,2.6,1.8,4.2v10.2c0,1.6-0.7,3-1.8,4.2l-4.1,4.2
	c-1.1,1.1-2.7,1.8-4.3,1.7h-21.7v-51.2h20.4c1.6,0,3.1,0.6,4.3,1.7l4.1,4.2c1.1,1.1,1.8,2.6,1.8,4.2L716.1,155.1z M708.7,154.7v-6.9
	l-3.4-3.5h-12.5v13.9h12.6L708.7,154.7z M692.7,165.2v16.4h13.9l3.4-3.5v-9.4l-3.4-3.5L692.7,165.2z"/>
<path class="st2" d="M727.9,137.4h21.7c1.6,0,3.1,0.6,4.3,1.7l4.1,4.2c1.1,1.1,1.8,2.6,1.8,4.2v16.2c0,1.6-0.7,3-1.8,4.2l-4.1,4.2
	c-0.7,0.7-1.7,1.3-2.6,1.5l8.5,10.9v4.4h-5.6l-11.7-14.9h-7.3v14.9h-7.3L727.9,137.4z M752.5,147.8l-3.4-3.5h-13.9v22.4H749l3.4-3.5
	V147.8z"/>
<path class="st2" d="M769,137.4H787v6.7h-5.4V182h5.4v6.7H769V182h5.4v-37.8H769V137.4z"/>
<path class="st2" d="M814.1,158.6l18.3,25.7v4.4h-5.6l-17.7-25l-4.1,4.1v20.9h-7.3v-51.3h7.3v20.4l20.4-20.4h5.6v4.3L814.1,158.6z"
	/>
<path class="st2" d="M598.9,49.9v-9.3h1v8.2h4v1H598.9z"/>
<path class="st2" d="M608.3,50.1c-0.8,0-1.7-0.3-2.3-0.9c-0.6-0.7-0.9-1.8-0.9-2.7c-0.1-0.9,0.3-2,0.9-2.7c0.5-0.6,1.4-1,2.3-1
	c0.8,0,1.7,0.3,2.2,1c0.6,0.7,0.9,1.7,0.9,2.7c0.1,0.9-0.2,2-0.8,2.7C610,49.8,609.2,50.1,608.3,50.1z M608.3,49.2
	c0.6,0,1.1-0.2,1.5-0.7c0.4-0.6,0.6-1.3,0.6-2c0-0.7-0.2-1.5-0.6-2c-0.3-0.4-0.9-0.7-1.5-0.7c-0.6,0-1.1,0.2-1.6,0.7
	c-0.8,1.3-0.8,2.8,0,4.1C607.2,48.9,607.7,49.2,608.3,49.2z"/>
<path class="st2" d="M613.2,49.9v-7h1v0.7l0,0c0.1-0.3,0.3-0.5,0.6-0.6c0.2-0.1,0.5-0.2,0.8-0.2c0.1,0,0.2,0,0.3,0l0.2,0.1h0.1
	l-0.2,1c-0.2-0.1-0.3-0.1-0.5-0.1c-0.4,0-0.7,0.1-0.9,0.4c-0.2,0.4-0.3,0.9-0.3,1.5v4.2H613.2z"/>
<path class="st2" d="M622.7,47.8l0.8,0.5c-0.3,0.5-0.6,0.9-1.1,1.3c-0.5,0.3-1.1,0.5-1.8,0.5c-0.9,0-1.8-0.3-2.3-1
	c-0.6-0.7-0.9-1.7-0.9-2.7c0-0.9,0.3-1.9,0.8-2.7c0.5-0.7,1.5-1,2.3-1s1.7,0.3,2.3,1c0.6,0.7,0.9,1.8,0.8,2.7v0.3h-5.2
	c0,0.6,0.2,1.3,0.5,1.7c0.4,0.5,0.9,0.7,1.6,0.7c0.2,0,0.5,0,0.7-0.1c0.2-0.1,0.3-0.1,0.5-0.2c0.1-0.1,0.3-0.2,0.4-0.3
	c0.1-0.1,0.2-0.2,0.2-0.3L622.7,47.8z M618.5,45.8h4.2c0-0.5-0.2-1-0.5-1.6c-0.7-0.8-2.1-0.9-2.9-0.2c-0.1,0.1-0.1,0.1-0.2,0.2
	C618.7,44.8,618.4,45.3,618.5,45.8L618.5,45.8z"/>
<path class="st2" d="M625.5,49.9v-7h0.9v0.6l0,0c0.2-0.3,0.4-0.5,0.7-0.6c0.3-0.2,0.7-0.2,1-0.2c0.4,0,0.8,0.1,1.1,0.3
	s0.5,0.4,0.7,0.7l0,0c0.2-0.3,0.4-0.5,0.7-0.7s0.7-0.3,1.1-0.3c1.3-0.1,2.3,0.8,2.4,2.1c0,0.1,0,0.2,0,0.3v4.8h-1v-4.4
	c0-1.1-0.5-1.8-1.5-1.8c-0.4,0-0.8,0.1-1.1,0.4c-0.3,0.3-0.4,0.8-0.4,1.3v4.5h-1v-4.4c0-1.1-0.5-1.8-1.5-1.8c-0.4,0-0.8,0.1-1.1,0.5
	c-0.2,0.3-0.4,0.7-0.3,1.3V50h-0.8V49.9z"/>
<path class="st2" d="M640,41.5v-1.3h1.3v1.3H640z M640.1,49.9v-7h1v7H640.1z"/>
<path class="st2" d="M643.5,52.9v-10h1v0.6l0,0c0.2-0.2,0.5-0.4,0.8-0.6c0.4-0.2,0.8-0.3,1.3-0.3c0.8,0,1.7,0.4,2.2,1
	c0.6,0.7,0.9,1.7,0.8,2.7c0,0.9-0.2,1.9-0.8,2.7c-0.5,0.6-1.4,1-2.2,1c-0.4,0-0.8-0.1-1.1-0.3c-0.3-0.1-0.5-0.3-0.7-0.6l0,0v3.8
	H643.5z M644.5,45.4v2.3c0,0.4,0.2,0.8,0.5,1c0.3,0.3,0.8,0.5,1.3,0.4c0.6,0,1.3-0.2,1.6-0.7c0.7-1.3,0.7-2.8,0-4
	c-0.4-0.5-0.9-0.7-1.6-0.7c-0.5,0-0.9,0.2-1.3,0.5C644.8,44.6,644.5,45,644.5,45.4L644.5,45.4z"/>
<path class="st2" d="M650.8,47.5l1-0.2c0,0.9,0.7,1.8,1.8,1.9c0.1,0,0.1,0,0.2,0c0.4,0,0.8-0.1,1.3-0.3c0.3-0.2,0.4-0.5,0.4-0.8
	c0-0.3-0.1-0.6-0.4-0.8c-0.5-0.3-1-0.5-1.7-0.6c-0.6-0.1-1.3-0.4-1.8-0.8c-0.3-0.3-0.5-0.7-0.5-1.3c0-0.5,0.2-1,0.6-1.4
	c0.5-0.4,1.1-0.6,1.8-0.5c0.6,0,1.3,0.1,1.8,0.5c0.4,0.4,0.7,0.9,0.9,1.5l-0.9,0.2c-0.2-0.8-0.9-1.4-1.8-1.4c-0.4,0-0.7,0.1-1,0.3
	c-0.2,0.2-0.3,0.4-0.3,0.7c0,0.3,0.1,0.5,0.3,0.6c0.5,0.2,1,0.4,1.7,0.6c0.7,0.1,1.4,0.4,1.9,0.8c0.3,0.3,0.5,0.8,0.5,1.4
	c0,0.5-0.2,1-0.6,1.5c-1.3,0.8-2.9,0.8-4.1-0.1C651.2,49,650.9,48.2,650.8,47.5z"/>
<path class="st2" d="M658.1,47.5v-4.6h1v4.4c0,0.5,0.1,0.9,0.4,1.4c0.3,0.3,0.8,0.4,1.3,0.4c0.4,0,0.9-0.1,1.3-0.5s0.4-0.8,0.4-1.4
	v-4.4h1v7h-1v-0.6l0,0l-0.2,0.2c-0.2,0.2-0.4,0.3-0.6,0.4c-0.3,0.2-0.7,0.2-1,0.2c-0.6,0-1.4-0.2-1.8-0.6
	C658.3,49,658.1,48.2,658.1,47.5z"/>
<path class="st2" d="M665.7,49.9v-7h1v0.6l0,0c0.2-0.3,0.4-0.5,0.7-0.6c0.3-0.2,0.7-0.2,1-0.2c0.4,0,0.8,0.1,1.1,0.3
	s0.5,0.4,0.7,0.7l0,0c0.2-0.3,0.4-0.5,0.7-0.7c0.3-0.2,0.7-0.3,1.1-0.3c1.3-0.1,2.3,0.8,2.4,2.1c0,0.1,0,0.2,0,0.3v4.8h-1v-4.4
	c0-1.1-0.5-1.8-1.5-1.8c-0.4,0-0.8,0.1-1.1,0.4c-0.3,0.3-0.4,0.8-0.4,1.3v4.5h-1v-4.4c0-1.1-0.5-1.8-1.5-1.8c-0.4,0-0.8,0.1-1.1,0.5
	c-0.2,0.3-0.4,0.7-0.3,1.3V50h-0.9V49.9z"/>
<path class="st2" d="M603.5,65.4v-0.6l0,0c-0.2,0.2-0.5,0.4-0.8,0.6c-1.1,0.5-2.6,0.2-3.4-0.7c-0.6-0.7-0.8-1.8-0.8-2.7
	c0-0.9,0.2-1.9,0.8-2.7c0.5-0.6,1.4-1,2.2-1c0.7,0,1.5,0.3,2,0.8l0,0v-3.2h1v9.6C604.5,65.4,603.5,65.4,603.5,65.4z M603.4,63v-2.2
	c0-0.4-0.2-0.8-0.5-1.1c-0.3-0.3-0.8-0.5-1.3-0.5c-0.6,0-1.3,0.2-1.6,0.7c-0.7,1.3-0.7,2.8,0,4c0.7,0.8,2,0.9,2.8,0.2
	C603.2,63.8,603.4,63.4,603.4,63z"/>
<path class="st2" d="M609.4,65.6c-0.8,0-1.7-0.3-2.3-0.9c-0.6-0.7-0.9-1.8-0.9-2.7c-0.1-0.9,0.3-2,0.9-2.7c0.5-0.6,1.4-1,2.3-0.9
	c0.8,0,1.7,0.3,2.2,0.9c0.6,0.7,0.9,1.7,0.9,2.7c0.1,0.9-0.2,2-0.8,2.7C611,65.1,610.3,65.6,609.4,65.6z M609.4,64.5
	c0.6,0,1.1-0.2,1.5-0.7c0.4-0.6,0.6-1.3,0.6-2c0-0.7-0.2-1.5-0.6-2c-0.3-0.4-0.9-0.7-1.5-0.7c-0.6,0-1.1,0.2-1.6,0.7
	c-0.8,1.3-0.8,2.8,0,4C608.2,64.3,608.8,64.5,609.4,64.5z"/>
<path class="st2" d="M614.4,65.4v-9.6h1v9.6H614.4z"/>
<path class="st2" d="M620.3,65.6c-0.8,0-1.7-0.3-2.3-0.9c-0.6-0.7-0.9-1.8-0.9-2.7c-0.1-0.9,0.3-2,0.9-2.7c0.5-0.6,1.4-1,2.3-0.9
	c0.8,0,1.7,0.3,2.2,0.9c0.6,0.7,0.9,1.7,0.9,2.7c0.1,0.9-0.2,2-0.8,2.7C622,65.1,621.3,65.6,620.3,65.6z M620.3,64.5
	c0.6,0,1.1-0.2,1.5-0.7c0.4-0.6,0.6-1.3,0.6-2c0.1-0.7-0.1-1.5-0.5-2c-0.3-0.4-0.9-0.7-1.5-0.7c-0.6,0-1.1,0.2-1.6,0.7
	c-0.8,1.3-0.8,2.8,0,4C619.3,64.3,619.8,64.5,620.3,64.5z"/>
<path class="st2" d="M625.2,65.4v-7h1v0.7l0,0c0.1-0.3,0.3-0.5,0.6-0.6c0.2-0.1,0.5-0.2,0.8-0.2c0.1,0,0.2,0,0.3,0l0.2,0.1h0.1
	l-0.2,1c-0.2-0.1-0.3-0.1-0.5-0.1c-0.4,0-0.7,0.1-0.9,0.4c-0.2,0.4-0.3,0.9-0.3,1.5v4.2L625.2,65.4z"/>
<path class="st2" d="M632.6,63l1-0.2c0,0.9,0.7,1.8,1.8,1.9c0.1,0,0.1,0,0.2,0c0.4,0,0.8-0.1,1.3-0.3c0.3-0.2,0.4-0.5,0.4-0.8
	c0-0.3-0.1-0.6-0.4-0.8c-0.5-0.3-1-0.5-1.7-0.6c-0.6-0.1-1.3-0.4-1.8-0.8c-0.3-0.3-0.5-0.7-0.5-1.3c0-0.5,0.2-1,0.6-1.4
	c0.5-0.4,1.1-0.6,1.8-0.6c0.6,0,1.3,0.1,1.8,0.5c0.4,0.4,0.7,0.9,0.9,1.5l-0.9,0.2c-0.2-0.8-0.9-1.4-1.8-1.4c-0.4,0-0.7,0.1-1,0.3
	c-0.2,0.2-0.3,0.4-0.3,0.7c0,0.3,0.1,0.5,0.3,0.6c0.5,0.2,1,0.4,1.7,0.6c0.7,0.1,1.4,0.4,1.9,0.8c0.3,0.3,0.5,0.8,0.5,1.4
	c0,0.5-0.2,1-0.6,1.5c-1.3,0.8-2.9,0.8-4.1-0.1C633.1,64.3,632.7,63.7,632.6,63z"/>
<path class="st2" d="M640.1,56.9v-1.3h1.3v1.3H640.1z M640.2,65.2v-7h1v7H640.2z"/>
<path class="st2" d="M643.8,63.3v-4h-1v-0.9h1v-1.8h1v1.7h1.8v0.9h-1.8v3.9c0,0.3,0,0.6,0.2,0.8c0.2,0.2,0.4,0.3,0.7,0.2h0.5v1h-0.6
	c-0.5,0-1-0.1-1.5-0.5C643.9,64.3,643.8,63.8,643.8,63.3z"/>
<path class="st2" d="M655.6,65.4v-0.7l0,0c-0.2,0.3-0.4,0.5-0.7,0.6c-0.4,0.2-0.9,0.3-1.4,0.3c-0.6,0-1.3-0.1-1.8-0.5
	c-0.4-0.4-0.6-0.9-0.6-1.5s0.2-1,0.5-1.4c0.5-0.4,1.1-0.7,1.8-0.8l0.7-0.2l0.5-0.2c0.1,0,0.3-0.1,0.4-0.2c0.1-0.1,0.2-0.2,0.2-0.2
	c0.1-0.1,0.1-0.2,0.1-0.3c0-0.3-0.1-0.5-0.3-0.7c-0.3-0.2-0.7-0.3-1-0.3c-0.8-0.1-1.6,0.5-1.7,1.4l-0.9-0.3c0.1-0.6,0.4-1.1,0.8-1.5
	c0.5-0.4,1.1-0.6,1.8-0.6c0.7,0,1.4,0.2,1.9,0.6c0.5,0.5,0.7,1.1,0.7,1.9v4.7L655.6,65.4z M653.7,62.2c-0.4,0.1-0.8,0.3-1.3,0.5
	c-0.2,0.2-0.3,0.4-0.3,0.7c0,0.7,0.4,1,1.4,1c0.5,0,1-0.1,1.5-0.4c0.3-0.2,0.5-0.6,0.5-1v-1.8l0,0C655.4,61.6,654.8,61.9,653.7,62.2
	L653.7,62.2z"/>
<path class="st2" d="M658.6,65.4v-7h0.9V59l0,0c0.2-0.3,0.4-0.5,0.7-0.6c0.3-0.2,0.7-0.2,1-0.2c0.4,0,0.8,0.1,1.1,0.3
	c0.3,0.2,0.5,0.4,0.7,0.7l0,0c0.2-0.3,0.4-0.5,0.7-0.7s0.7-0.3,1.1-0.3c1.3-0.1,2.3,0.8,2.4,2.1c0,0.1,0,0.2,0,0.3v4.8h-1V61
	c0-1.1-0.5-1.8-1.5-1.8c-0.4,0-0.8,0.1-1.1,0.4c-0.3,0.3-0.4,0.8-0.4,1.3v4.5h-1V61c0-1.1-0.5-1.8-1.5-1.8c-0.4,0-0.8,0.1-1.1,0.4
	c-0.2,0.3-0.4,0.7-0.3,1.3v4.5L658.6,65.4z"/>
<path class="st2" d="M674.7,63.2l0.8,0.5c-0.3,0.5-0.6,0.9-1.1,1.3c-0.5,0.3-1.1,0.5-1.8,0.5c-0.9,0-1.8-0.3-2.3-1
	c-0.6-0.7-0.9-1.7-0.9-2.7c0-0.9,0.3-1.9,0.8-2.7c0.5-0.7,1.5-1,2.3-1s1.7,0.3,2.3,0.9c0.6,0.7,0.9,1.8,0.8,2.7v0.3h-5.2
	c0,0.6,0.2,1.3,0.5,1.7c0.4,0.5,0.9,0.7,1.6,0.7c0.2,0,0.5,0,0.7-0.1s0.3-0.1,0.5-0.2c0.1-0.1,0.3-0.2,0.4-0.3
	c0.1-0.1,0.2-0.2,0.2-0.3L674.7,63.2z M670.5,61.3h4.2c0-0.5-0.2-1-0.5-1.6c-0.7-0.8-2.1-0.9-2.9-0.2c-0.1,0.1-0.1,0.1-0.2,0.2
	C670.7,60.1,670.5,60.8,670.5,61.3L670.5,61.3z"/>
<path class="st2" d="M677.8,63.3v-4h-0.9v-0.9h1v-1.8h1v1.7h1.8v0.9h-1.7v3.9c0,0.3,0,0.6,0.2,0.8c0.2,0.2,0.4,0.3,0.7,0.2h0.5v1
	h-0.6c-0.5,0-1-0.1-1.5-0.5C678,64.4,677.7,63.8,677.8,63.3z"/>
<path class="st2" d="M682.4,66.7v-0.6c0.4,0,0.7-0.4,0.6-0.8l0,0h-0.6v-1.6h1.6V65c0.1,0.8-0.5,1.5-1.3,1.6
	C682.6,66.7,682.5,66.7,682.4,66.7z"/>
<path class="st2" d="M693.1,62.6l1,0.2c-0.1,0.7-0.4,1.5-0.9,2c-0.5,0.5-1.3,0.7-2,0.7c-0.8,0-1.7-0.3-2.3-0.9
	c-0.6-0.7-0.9-1.8-0.8-2.7c-0.1-0.9,0.3-2,0.9-2.7c0.5-0.6,1.4-1,2.3-1c0.7,0,1.4,0.2,1.9,0.7c0.5,0.5,0.8,1.1,0.9,1.9l-1,0.2
	c-0.1-0.5-0.3-0.9-0.6-1.3c-0.3-0.3-0.7-0.5-1.3-0.5c-0.6,0-1.1,0.2-1.6,0.7c-0.4,0.6-0.6,1.3-0.6,2c0,0.7,0.1,1.5,0.5,2
	s0.9,0.7,1.6,0.7c0.5,0,0.9-0.2,1.3-0.5C692.8,63.6,693,63.2,693.1,62.6z"/>
<path class="st2" d="M698.5,65.6c-0.8,0-1.7-0.3-2.3-0.9c-0.6-0.7-0.9-1.8-0.9-2.7c-0.1-0.9,0.3-2,0.9-2.7c0.5-0.6,1.4-1,2.3-0.9
	c0.8,0,1.7,0.3,2.2,0.9c0.6,0.7,0.9,1.7,0.9,2.7c0.1,0.9-0.2,2-0.8,2.7C700.2,65.1,699.4,65.6,698.5,65.6z M698.5,64.5
	c0.6,0,1.1-0.2,1.5-0.7c0.4-0.6,0.6-1.3,0.6-2c0-0.7-0.2-1.5-0.6-2c-0.3-0.4-0.9-0.7-1.5-0.7c-0.6,0-1.1,0.2-1.6,0.7
	c-0.8,1.3-0.8,2.8,0,4C697.4,64.3,698,64.5,698.5,64.5z"/>
<path class="st2" d="M703.4,65.4v-7h1V59l0,0c0.2-0.3,0.5-0.5,0.8-0.6c0.3-0.1,0.7-0.2,1.1-0.2c0.7,0,1.4,0.2,1.9,0.7
	c0.5,0.5,0.7,1.1,0.7,1.9v4.6h-1v-4.3c0-1.3-0.5-2-1.6-2c-0.5,0-0.9,0.1-1.4,0.4c-0.3,0.3-0.5,0.8-0.5,1.3v4.5h-1.1V65.4z"/>
<path class="st2" d="M710.6,63l1-0.2c0,0.9,0.7,1.8,1.8,1.9c0.1,0,0.1,0,0.2,0c0.4,0,0.8-0.1,1.3-0.3c0.3-0.2,0.4-0.5,0.4-0.8
	c0-0.3-0.1-0.6-0.4-0.8c-0.5-0.3-1-0.5-1.7-0.6c-0.6-0.1-1.3-0.4-1.8-0.8c-0.3-0.3-0.5-0.7-0.5-1.3c0-0.5,0.2-1,0.6-1.4
	c0.5-0.4,1.1-0.6,1.8-0.5c0.6,0,1.3,0.1,1.8,0.5c0.4,0.4,0.7,0.9,0.9,1.5l-0.9,0.2c-0.2-0.8-0.9-1.4-1.8-1.4c-0.4,0-0.7,0.1-1,0.3
	c-0.2,0.2-0.3,0.4-0.3,0.7c0,0.3,0.1,0.5,0.3,0.6c0.5,0.2,1,0.4,1.7,0.6c0.7,0.1,1.4,0.4,1.9,0.8c0.3,0.3,0.5,0.8,0.5,1.4
	c0,0.5-0.2,1-0.6,1.5c-1.3,0.8-2.9,0.8-4.1-0.1C711,64.3,710.7,63.7,710.6,63z"/>
<path class="st2" d="M722.8,63.2l0.8,0.5c-0.3,0.5-0.6,0.9-1.1,1.3c-0.5,0.3-1.1,0.5-1.8,0.5c-0.9,0-1.8-0.3-2.3-1
	c-0.6-0.7-0.9-1.7-0.9-2.7c0-0.9,0.3-1.9,0.8-2.7c0.5-0.7,1.5-1,2.3-1c0.8,0,1.7,0.3,2.3,0.9c0.6,0.7,0.9,1.8,0.8,2.7v0.3h-5.2
	c0,0.6,0.2,1.3,0.5,1.7c0.4,0.5,0.9,0.7,1.6,0.7c0.2,0,0.5,0,0.7-0.1s0.3-0.1,0.5-0.2c0.1-0.1,0.3-0.2,0.4-0.3
	c0.1-0.1,0.2-0.2,0.2-0.3L722.8,63.2z M718.7,61.3h4.2c0-0.5-0.2-1-0.5-1.6c-0.7-0.8-2.1-0.9-2.9-0.2c-0.1,0.1-0.1,0.1-0.2,0.2
	C718.9,60.1,718.7,60.8,718.7,61.3L718.7,61.3z"/>
<path class="st2" d="M730.3,62.6l1,0.2c-0.1,0.7-0.4,1.5-0.9,2c-0.5,0.5-1.3,0.7-2,0.7c-0.8,0-1.7-0.3-2.3-0.9
	c-0.6-0.7-0.9-1.8-0.8-2.7c-0.1-0.9,0.3-2,0.9-2.7c0.6-0.6,1.4-1,2.3-0.9c0.7,0,1.4,0.2,1.9,0.7c0.5,0.5,0.8,1.1,0.9,1.9l-1,0.2
	c-0.1-0.5-0.3-0.9-0.6-1.3c-0.3-0.3-0.7-0.5-1.3-0.5c-0.6,0-1.1,0.2-1.6,0.7c-0.4,0.6-0.6,1.3-0.6,2c0,0.7,0.1,1.5,0.5,2
	c0.4,0.5,0.9,0.7,1.6,0.7c0.5,0,0.9-0.2,1.3-0.5C729.9,63.6,730.1,63.2,730.3,62.6z"/>
<path class="st2" d="M733.3,63.3v-4h-0.9v-0.9h1v-1.8h1v1.7h1.8v0.9h-1.7v3.9c0,0.3,0,0.6,0.2,0.8c0.2,0.2,0.4,0.3,0.7,0.2h0.4v1
	h-0.6c-0.5,0-1-0.1-1.5-0.5C733.4,64.3,733.2,63.8,733.3,63.3z"/>
<path class="st2" d="M742.4,63.2l0.8,0.5c-0.3,0.5-0.6,0.9-1.1,1.3c-0.5,0.3-1.1,0.5-1.8,0.5c-0.9,0-1.8-0.3-2.3-1
	c-0.6-0.7-0.9-1.7-0.9-2.7c0-0.9,0.3-1.9,0.8-2.7c0.5-0.7,1.5-1,2.3-1c0.8,0,1.7,0.3,2.3,0.9c0.6,0.7,0.9,1.8,0.8,2.7v0.3h-5.2
	c0,0.6,0.2,1.3,0.5,1.7c0.4,0.5,0.9,0.7,1.6,0.7c0.2,0,0.5,0,0.7-0.1s0.3-0.1,0.5-0.2c0.1-0.1,0.3-0.2,0.4-0.3
	c0.1-0.1,0.2-0.2,0.2-0.3L742.4,63.2z M738.2,61.3h4.2c0-0.5-0.2-1-0.5-1.6c-0.7-0.8-2.1-0.9-2.9-0.2c-0.1,0.1-0.1,0.1-0.2,0.2
	C738.3,60.1,738.2,60.8,738.2,61.3L738.2,61.3z"/>
<path class="st2" d="M745.4,63.3v-4h-0.9v-0.9h1v-1.8h1v1.7h1.7v0.9h-1.7v3.9c0,0.3,0,0.6,0.2,0.8c0.2,0.2,0.4,0.3,0.7,0.2h0.5v1
	h-0.6c-0.5,0-1-0.1-1.5-0.5C745.5,64.3,745.4,63.8,745.4,63.3z"/>
<path class="st2" d="M749.8,62.8v-4.6h1v4.4c0,0.5,0.1,1,0.5,1.4c0.3,0.3,0.8,0.4,1.3,0.4c0.4,0,0.9-0.1,1.3-0.5s0.4-0.8,0.4-1.4
	v-4.3h1v7h-1v-0.6l0,0l-0.2,0.2c-0.2,0.2-0.4,0.3-0.6,0.4c-0.3,0.2-0.7,0.2-1,0.2c-0.6,0-1.4-0.2-1.8-0.6
	C750.1,64.3,749.8,63.6,749.8,62.8z"/>
<path class="st2" d="M762.3,63.2l0.8,0.5c-0.3,0.5-0.6,0.9-1.1,1.3c-0.5,0.3-1.1,0.5-1.8,0.5c-0.9,0-1.8-0.3-2.3-1
	c-0.6-0.7-0.9-1.7-0.9-2.7c0-0.9,0.3-1.9,0.8-2.7c0.5-0.7,1.5-1,2.3-1s1.7,0.3,2.3,0.9c0.6,0.7,0.9,1.8,0.8,2.7v0.3H758
	c0,0.6,0.2,1.3,0.5,1.7c0.4,0.5,0.9,0.7,1.6,0.7c0.2,0,0.5,0,0.7-0.1s0.3-0.1,0.5-0.2c0.1-0.1,0.3-0.2,0.4-0.3
	c0.1-0.1,0.2-0.2,0.2-0.3L762.3,63.2z M758.1,61.3h4.2c0-0.5-0.2-1-0.5-1.6c-0.7-0.8-2.1-0.9-2.9-0.2c-0.1,0.1-0.1,0.1-0.2,0.2
	C758.3,60.1,758.1,60.8,758.1,61.3L758.1,61.3z"/>
<path class="st2" d="M765.1,65.4v-7h1v0.7l0,0c0.1-0.3,0.3-0.5,0.6-0.6c0.2-0.1,0.5-0.2,0.8-0.2c0.1,0,0.2,0,0.3,0l0.2,0.1h0.1
	l-0.2,1c-0.2-0.1-0.3-0.1-0.5-0.1c-0.4,0-0.7,0.1-0.9,0.4c-0.2,0.4-0.3,0.9-0.3,1.5v4.2L765.1,65.4z"/>
<path class="st2" d="M768.9,65.4v-1.6h1.6v1.6H768.9z"/>
</svg>
