<?xml version="1.0" encoding="utf-8"?>
<!-- Generator: Adobe Illustrator 20.1.0, SVG Export Plug-In . SVG Version: 6.00 Build 0)  -->
<svg version="1.1" id="Layer_1" xmlns="http://www.w3.org/2000/svg" xmlns:xlink="http://www.w3.org/1999/xlink" x="0px" y="0px"
	 viewBox="0 0 1009.1 546" style="enable-background:new 0 0 1009.1 546;" xml:space="preserve">
<style type="text/css">
	.st0{fill:#CFB571;}
	.st1{fill:#002554;}
	.st2{fill:#E21F26;}
	.st3{fill:#FFFFFF;}
	.st4{fill:none;stroke:#32BAF2;stroke-miterlimit:10;}
</style>
<title>dif_info_carrier</title>
<g id="Guides">
	<rect x="19.8" y="166.9" class="st0" width="646.8" height="159.9"/>
	<path class="st1" d="M81.5,276v-47.2h15.8c2.6,0,5.2,0.5,7.6,1.4c2.4,1,4.6,2.4,6.5,4.2c2.1,2.1,3.7,4.6,4.6,7.4
		c1.2,3.4,1.8,7,1.7,10.5c0.1,3.8-0.5,7.6-1.8,11.2c-0.9,2.8-2.6,5.4-4.8,7.4c-1.9,1.7-4.2,3-6.6,3.8c-2.5,0.8-5.1,1.2-7.7,1.2H81.5
		z M90.6,267.6h6.3c1.4,0,2.9-0.2,4.2-0.6c1.3-0.4,2.5-1.2,3.4-2.1c1.2-1.3,2.1-2.9,2.5-4.7c0.6-2.6,0.9-5.2,0.9-7.9
		c0-5.3-1-9.1-2.9-11.5c-1.9-2.4-4.7-3.7-7.7-3.6h-6.7L90.6,267.6z"/>
	<path class="st1" d="M125.8,276v-47.2h9.1V276H125.8z"/>
	<path class="st1" d="M146.1,276v-47.2H176v8.4h-20.8v12.5h18.9v8h-18.9V276H146.1z"/>
	<path class="st1" d="M200.6,276v-47.2h9.1v19h16.2v-19h9.1V276h-9.1v-20.4h-16.2V276H200.6z"/>
	<path class="st1" d="M268.3,263.7l6.1,5.4c-3.6,5.3-8.6,8-14.8,8c-4.6,0.2-9.1-1.7-12.2-5.2c-3.1-3.4-4.7-8-4.7-13.7
		s1.6-10.3,4.7-13.7c3-3.4,7.3-5.3,11.8-5.2c4.5-0.1,8.8,1.8,11.8,5.1c3.1,3.4,4.6,8,4.6,13.7v2.6h-24c0,2.3,0.8,4.5,2.3,6.3
		c1.5,1.5,3.5,2.3,5.6,2.2c1.8,0.1,3.6-0.5,5-1.5C266,266.6,267.2,265.2,268.3,263.7z M251.6,254.2h15.5c-0.1-2-0.9-3.9-2.4-5.4
		c-1.5-1.3-3.5-2-5.5-1.9c-2-0.1-3.9,0.7-5.2,2C252.6,250.4,251.8,252.3,251.6,254.2z"/>
	<path class="st1" d="M282.7,276v-35.7h8.3v3.8h0.1c0.7-1.3,1.7-2.5,3-3.2c1.3-0.8,2.8-1.2,4.4-1.2c1.1,0,2.2,0.2,3.2,0.7l-1.4,8.5
		c-0.9-0.3-1.8-0.5-2.8-0.5c-4.1,0-6.1,2.7-6.1,8.2V276H282.7z"/>
	<path class="st1" d="M306.8,276v-35.7h8.3v3.8h0.1c0.7-1.3,1.7-2.5,3-3.2c1.3-0.8,2.8-1.2,4.4-1.2c1.1,0,2.2,0.2,3.2,0.7l-1.4,8.5
		c-0.9-0.3-1.8-0.5-2.8-0.5c-4.1,0-6.1,2.7-6.1,8.2V276H306.8z"/>
	<path class="st1" d="M346.3,257.9v-7.4H380v7.4H346.3z"/>
	<path class="st1" d="M430.3,275.6c-4.9,1.9-10.3,1.9-15.2,0c-2.4-1-4.6-2.4-6.5-4.3c-2.1-2.2-3.7-4.9-4.6-7.8
		c-1.2-3.7-1.8-7.6-1.7-11.5c-0.1-3.6,0.5-7.2,1.7-10.6c1-2.9,2.6-5.5,4.6-7.6c1.9-1.9,4.1-3.4,6.5-4.5c4.9-2,10.3-2,15.2,0
		c2.4,1,4.7,2.6,6.5,4.5c2.1,2.2,3.7,4.8,4.6,7.6c1.2,3.4,1.8,7,1.7,10.6c0.1,3.9-0.5,7.8-1.7,11.5c-0.9,2.9-2.5,5.6-4.6,7.8
		C435,273.2,432.8,274.6,430.3,275.6z M414.8,264.6c3.3,4.4,9.5,5.3,13.9,2.1c0.8-0.6,1.4-1.2,2-2c2.1-2.6,3.1-6.9,3.1-12.7
		c0-5.1-1.1-9-3.2-11.7c-3.1-4.3-9.2-5.3-13.5-2.2c-0.9,0.6-1.6,1.4-2.2,2.2c-2.1,2.7-3.2,6.6-3.2,11.7
		C411.7,257.7,412.7,262,414.8,264.6L414.8,264.6z M411.9,224.4v-7.8h8.2v7.8H411.9z M425.4,224.4v-7.8h8.2v7.8H425.4z"/>
	<path class="st1" d="M450.6,276v-35.7h8.3v3.8h0.1c0.7-1.3,1.7-2.5,3-3.2c1.3-0.8,2.8-1.2,4.4-1.2c1.1,0,2.2,0.2,3.2,0.7l-1.4,8.5
		c-0.9-0.3-1.8-0.5-2.8-0.5c-4.1,0-6.1,2.7-6.1,8.2V276H450.6z"/>
	<path class="st1" d="M498.6,263.7l6.1,5.4c-3.6,5.3-8.6,8-14.8,8c-4.6,0.2-9.1-1.7-12.2-5.2c-3.2-3.5-4.7-8.1-4.7-13.8
		s1.6-10.3,4.7-13.7c3-3.4,7.3-5.3,11.8-5.2c4.5-0.1,8.8,1.8,11.8,5.2c3.1,3.4,4.6,8,4.6,13.7v2.6h-24c0,2.3,0.8,4.5,2.3,6.3
		c1.5,1.5,3.5,2.3,5.6,2.2c1.8,0.1,3.6-0.5,5-1.5C496.3,266.6,497.5,265.2,498.6,263.7z M481.9,254.2h15.5c-0.1-2-0.9-3.9-2.4-5.4
		c-1.5-1.3-3.5-2-5.5-1.9c-2-0.1-3.9,0.7-5.3,2.1C482.9,250.4,482,252.3,481.9,254.2z"/>
	<path class="st1" d="M513,276v-49.2h8.8v16.9h0.1l0.3-0.5c0.3-0.4,0.6-0.7,1-1c0.6-0.5,1.2-1,1.8-1.4c0.8-0.5,1.7-0.8,2.6-1.1
		c1.1-0.3,2.2-0.5,3.3-0.5c4.3-0.1,8.4,1.9,11,5.2c2.9,3.5,4.3,8,4.3,13.6c0,5.8-1.4,10.3-4.2,13.8c-2.8,3.4-7,5.3-11.3,5.1
		c-1.8,0-3.6-0.4-5.3-1.1c-1.2-0.5-2.3-1.2-3.2-2.2l-0.9-1.1h-0.1v3.4H513z M521.8,254.8v6.5c0,2,0.7,4,2.1,5.5
		c1.5,1.5,3.5,2.4,5.6,2.3c2.3,0.1,4.6-0.9,6-2.8c1.4-1.9,2.1-4.6,2.1-8.2s-0.7-6.3-2.1-8.2c-1.4-1.9-3.7-2.9-6-2.8
		c-2.1-0.1-4.2,0.7-5.6,2.2C522.4,250.9,521.7,252.8,521.8,254.8L521.8,254.8z"/>
	<path class="st1" d="M553.4,276v-35.7h8.3v3.8h0.1c0.7-1.3,1.7-2.5,3-3.2c1.3-0.8,2.8-1.2,4.3-1.2c1.1,0,2.2,0.2,3.2,0.7l-1.4,8.5
		c-0.9-0.3-1.8-0.5-2.8-0.5c-4.1,0-6.1,2.7-6.1,8.2V276H553.4z"/>
	<path class="st1" d="M603.1,272c-6.6,6.6-17.3,6.7-23.9,0.1c0,0,0,0-0.1-0.1c-3.1-3.3-4.7-8-4.7-13.9s1.6-10.5,4.8-13.8
		c6.3-6.6,16.7-6.8,23.3-0.5c0.2,0.2,0.3,0.3,0.5,0.5c3.2,3.4,4.8,8,4.8,13.8S606.3,268.6,603.1,272z M585.2,266.3
		c2.6,3.3,7.4,3.8,10.7,1.2c0.4-0.4,0.8-0.7,1.2-1.2c1.4-1.9,2.2-4.6,2.2-8.1s-0.7-6.2-2.2-8.1c-2.6-3.3-7.3-3.8-10.6-1.2
		c-0.5,0.4-0.9,0.8-1.2,1.2c-1.5,1.9-2.2,4.6-2.2,8.2S583.7,264.4,585.2,266.3L585.2,266.3z"/>
	<rect x="423.6" y="326.8" class="st2" width="568" height="161.5"/>
	<path class="st3" d="M523.3,423.7c-4.9,1.9-10.3,1.9-15.2,0c-2.4-1-4.6-2.4-6.5-4.3c-2.1-2.2-3.7-4.9-4.6-7.8
		c-1.2-3.7-1.8-7.6-1.7-11.5c-0.1-3.6,0.5-7.2,1.7-10.6c1-2.9,2.6-5.5,4.6-7.6c1.9-1.9,4.1-3.4,6.5-4.5c4.9-2,10.3-2,15.2,0
		c2.4,1,4.7,2.6,6.5,4.5c2.1,2.2,3.7,4.8,4.7,7.6c1.2,3.4,1.8,7,1.7,10.6c0.1,3.9-0.5,7.8-1.7,11.5c-0.9,2.9-2.5,5.6-4.7,7.8
		C528,421.3,525.7,422.7,523.3,423.7z M507.7,412.7c3.3,4.4,9.5,5.3,13.9,2.1c0.8-0.6,1.4-1.2,2-2c2.1-2.6,3.1-6.9,3.1-12.7
		c0-5.1-1.1-9-3.2-11.7c-3.1-4.3-9.2-5.3-13.5-2.2c-0.9,0.6-1.6,1.4-2.2,2.2c-2.1,2.7-3.2,6.6-3.2,11.7
		C504.6,405.8,505.7,410.1,507.7,412.7L507.7,412.7z"/>
	<path class="st3" d="M543.6,424.1v-35.7h8.4v3.4h0.1c1.1-1.3,2.4-2.4,4-3.2c1.7-0.8,3.5-1.3,5.4-1.3c4,0,7.1,1.2,9.3,3.5
		c2.2,2.4,3.4,5.6,3.4,9.8v23.4h-8.8v-21.2c0.1-2-0.4-3.9-1.4-5.6c-0.9-1.2-2.6-1.9-4.8-1.9c-3.5-0.3-6.6,2.3-6.9,5.8
		c0,0.4,0,0.7,0,1.1v21.8L543.6,424.1z"/>
	<path class="st3" d="M580.7,412.3l7.9-2c0.6,5,3.3,7.5,8,7.5c1.8,0.1,3.5-0.2,5.2-1c1.2-0.5,1.9-1.7,1.9-2.9c0-1-0.6-1.9-1.5-2.3
		c-2-0.9-4.1-1.6-6.2-2.1c-0.9-0.2-1.5-0.4-2-0.5c-4.1-1.2-7.2-2.6-9.1-4.1c-1.9-1.6-3-3.9-2.9-6.4c0-3,1.3-5.8,3.6-7.7
		c2.4-2.2,5.7-3.2,9.9-3.2c8,0,13,3.5,15,10.5l-7.3,2.2c-0.5-1.5-1.4-2.9-2.7-4c-2.7-1.8-6.2-2-9.1-0.5c-0.9,0.4-1.5,1.3-1.5,2.3
		c0.1,1.1,0.8,2,1.8,2.3c2.9,1.1,5.9,2.1,8.9,2.9c4.2,1.1,7,2.6,8.5,4.3c1.6,1.9,2.4,4.2,2.3,6.6c-0.1,3-1.4,5.8-3.7,7.7
		c-2.5,2.3-6.1,3.4-10.8,3.4c-4.9,0-8.8-1.2-11.4-3.7C582.8,419.1,581.1,415.8,580.7,412.3z"/>
	<path class="st3" d="M641,424.1v-3.4h-0.1c-0.2,0.3-0.6,0.7-1,1.2c-0.9,0.8-2,1.5-3.1,2c-1.7,0.8-3.5,1.3-5.4,1.2
		c-4.4,0.2-8.5-1.7-11.3-5.1c-2.8-3.4-4.2-8-4.2-13.8c0-5.8,1.5-10.4,4.6-13.8c2.7-3.2,6.6-5.1,10.8-5.1c1.8,0,3.5,0.4,5.1,1.1
		c1.2,0.5,2.2,1.2,3.1,2.2l0.9,1.1h0.1v-16.9h8.8v49.2H641z M640.4,409.5v-6.5c0.1-2-0.7-4-2.1-5.5c-1.5-1.5-3.5-2.3-5.6-2.2
		c-2.3-0.1-4.6,0.9-6,2.8c-1.4,1.8-2.1,4.6-2.1,8.2c0,3.6,0.7,6.4,2.1,8.2c1.4,1.9,3.7,2.9,6,2.8c2.1,0.1,4.2-0.7,5.6-2.3
		C639.7,413.5,640.5,411.5,640.4,409.5L640.4,409.5z"/>
	<path class="st3" d="M679,424.1v-3.4h-0.1l-0.3,0.5c-0.3,0.4-0.6,0.7-1,1c-0.6,0.5-1.2,1-1.8,1.3c-0.9,0.5-1.8,0.8-2.8,1.1
		c-1.2,0.3-2.5,0.5-3.8,0.5c-4.3,0-7.5-1-9.7-3.1c-2.1-1.9-3.3-4.7-3.2-7.5c0-3.1,0.9-5.5,2.8-7.1c1.8-1.6,5-3,9.4-4
		c2.6-0.5,5.2-1.3,7.7-2.4c1-0.5,1.6-1.4,1.5-2.5c0-1.1-0.6-2.1-1.5-2.7c-1.4-0.8-3-1.2-4.5-1.1c-2.4,0-4.1,0.5-5.1,1.6
		c-1.1,1.2-2,2.7-2.4,4.3l-7.3-3c0.8-2.9,2.6-5.5,5-7.4c2.5-1.9,5.7-2.9,9.7-2.9c3.9-0.2,7.7,1.1,10.7,3.4c2.8,2.3,4.2,5.8,4.2,10.6
		v22.7L679,424.1z M670.2,409.5c-2.2,0.5-3.7,1.2-4.4,1.9c-0.7,0.7-1,1.6-1,2.5c0,2.4,1.8,3.6,5.3,3.6c2.7,0,4.7-0.5,6-1.5
		c1.2-0.8,2-2.2,2-3.7v-6.2h-0.1c-0.1,0.3-0.3,0.6-0.6,0.8c-0.6,0.4-1.3,0.8-2.1,1C673.6,408.6,671.9,409.1,670.2,409.5L670.2,409.5
		z"/>
	<path class="st3" d="M695.3,431.4l6.5-4.5c0.8,1.7,2,3.2,3.5,4.4c1.5,1,3.3,1.5,5.1,1.4c2,0.1,3.9-0.5,5.5-1.8
		c1.4-1.2,2.1-3.1,2.1-5.7v-4.5h-0.1c-0.8,1.4-2.1,2.5-3.5,3.1c-1.7,0.9-3.5,1.3-5.4,1.3c-4.4,0.1-8.6-1.7-11.5-5
		c-3.1-3.3-4.7-8-4.7-13.9s1.6-10.5,4.8-13.8c2.8-3.2,6.9-5.1,11.3-5.1c3.7-0.2,7.2,1.5,9.4,4.5h0.1v-3.4h8.4v35.7
		c0,5.2-1.5,9.2-4.5,12s-7,4.2-11.8,4.2c-3.3,0.1-6.6-0.7-9.5-2.4C698.4,436.3,696.4,434.1,695.3,431.4z M717.9,409.9v-7.4
		c0-1.9-0.7-3.8-2.1-5.2c-1.5-1.5-3.5-2.2-5.6-2.1c-2.4-0.1-4.8,1-6.3,2.8c-1.6,1.9-2.4,4.6-2.4,8.2s0.8,6.3,2.5,8.2
		c1.6,1.8,3.9,2.9,6.3,2.8c2.1,0.1,4.1-0.7,5.6-2.1C717.2,413.7,718,411.8,717.9,409.9L717.9,409.9z"/>
	<path class="st3" d="M761.8,424.1V387l-10.2,6.4v-9.8l10.8-6.7h8v47.2L761.8,424.1z"/>
	<path class="st3" d="M781.3,415.1v-8.5l17.9-29.7H813v29.7h5.5v8.4H813v9h-8.6v-9L781.3,415.1z M790.5,406.6h14v-23.1h-0.1
		L790.5,406.6z"/>
	<path class="st3" d="M825.3,397.9v-9.6h10v9.6H825.3z M825.3,424.1v-9.6h10v9.6H825.3z"/>
	<path class="st3" d="M874.5,418.9c-6.1,7.3-16.9,8.3-24.2,2.2c-0.8-0.7-1.6-1.4-2.2-2.2c-3.3-4.1-4.9-10.5-4.9-19.1
		c0-7.8,1.7-13.8,5-17.8c6.2-7.3,17.2-8.1,24.5-1.9c0.7,0.6,1.3,1.2,1.9,1.9c3.3,4,5,10,5,17.8C879.4,408.4,877.7,414.8,874.5,418.9
		z M854.4,412.9c2.4,3.8,7.4,4.9,11.2,2.5c1-0.6,1.9-1.5,2.5-2.5c1.5-2.5,2.2-6.9,2.2-13.1c0-5.4-0.8-9.4-2.3-11.8
		c-2.5-3.7-7.5-4.8-11.3-2.3c-0.9,0.6-1.7,1.4-2.3,2.3c-1.5,2.4-2.3,6.4-2.3,11.8C852.2,406,852.9,410.4,854.4,412.9L854.4,412.9z"
		/>
	<path class="st3" d="M915.5,418.9c-6.1,7.3-16.9,8.3-24.2,2.2c-0.8-0.7-1.6-1.4-2.2-2.2c-3.3-4.1-4.9-10.5-4.9-19.1
		c0-7.8,1.7-13.8,5-17.8c6.2-7.3,17.2-8.1,24.5-1.9c0.7,0.6,1.3,1.2,1.9,1.9c3.3,4,5,10,5,17.8C920.4,408.4,918.7,414.8,915.5,418.9
		z M895.4,412.9c2.4,3.8,7.4,4.9,11.2,2.5c1-0.6,1.9-1.5,2.5-2.5c1.5-2.5,2.2-6.9,2.2-13.1c0-5.4-0.8-9.4-2.3-11.8
		c-2.5-3.7-7.5-4.8-11.3-2.3c-0.9,0.6-1.7,1.4-2.3,2.3c-1.5,2.4-2.3,6.4-2.3,11.8C893.2,406,893.9,410.4,895.4,412.9z"/>
	<line class="st4" x1="19.8" y1="11.6" x2="19.8" y2="533"/>
</g>
</svg>
