<svg xmlns="http://www.w3.org/2000/svg" viewBox="0 0 1009.13 1009.13"><defs><style>.cls-1,.cls-2{fill:#fff;}.cls-2{stroke:#000;opacity:0.3;}.cls-2,.cls-4{stroke-miterlimit:10;}.cls-3{fill:#32baf2;}.cls-4{fill:none;stroke:aqua;}.cls-5{fill:#002554;}</style></defs><title>dif_info_carrier</title><g id="Guides"><rect class="cls-1" width="1009.13" height="1009.13"/><line class="cls-2" x1="1009.13" y2="1009.13"/><line class="cls-2" x2="1009.13" y2="1009.13"/><rect class="cls-3" y="84.52" width="168.19" height="83.67"/><rect class="cls-4" width="1009.13" height="1009.13"/><line class="cls-4" y1="84.09" x2="1009.13" y2="84.09"/><line class="cls-4" y1="168.19" x2="1009.13" y2="168.19"/><line class="cls-4" y1="252.28" x2="1009.13" y2="252.28"/><line class="cls-4" y1="336.38" x2="1009.13" y2="336.38"/><line class="cls-4" y1="420.47" x2="1009.13" y2="420.47"/><line class="cls-4" y1="504.57" x2="1009.13" y2="504.57"/><line class="cls-4" y1="588.66" x2="1009.13" y2="588.66"/><line class="cls-4" y1="672.76" x2="1009.13" y2="672.76"/><line class="cls-4" y1="756.85" x2="1009.13" y2="756.85"/><line class="cls-4" y1="840.94" x2="1009.13" y2="840.94"/><line class="cls-4" y1="925.04" x2="1009.13" y2="925.04"/><line class="cls-4" x1="925.04" y1="1009.13" x2="925.04"/><line class="cls-4" x1="840.94" y1="1009.13" x2="840.94"/><line class="cls-4" x1="756.85" y1="1009.13" x2="756.85"/><line class="cls-4" x1="672.76" y1="1009.13" x2="672.76"/><line class="cls-4" x1="588.66" y1="1009.13" x2="588.66"/><line class="cls-4" x1="504.57" y1="1009.13" x2="504.57"/><line class="cls-4" x1="420.47" y1="1009.13" x2="420.47"/><line class="cls-4" x1="336.38" y1="1009.13" x2="336.38"/><line class="cls-4" x1="252.28" y1="1009.13" x2="252.28"/><line class="cls-4" x1="168.19" y1="1009.13" x2="168.19"/><line class="cls-4" x1="84.09" y1="1009.13" x2="84.09"/><path class="cls-5" d="M58.47,144V106.79h23.6v6.64H65.65v9.83H80.59v6.33H65.65V144Z"/><path class="cls-5" d="M97,144V113.43H86.06v-6.64h29v6.64h-10.9V144Z"/></g></svg>