<?xml version="1.0" encoding="utf-8"?>
<!-- Generator: Adobe Illustrator 21.0.2, SVG Export Plug-In . SVG Version: 6.00 Build 0)  -->
<svg version="1.1" id="Layer_1" xmlns="http://www.w3.org/2000/svg" xmlns:xlink="http://www.w3.org/1999/xlink" x="0px" y="0px"
	 viewBox="0 0 1009.1 1009.1" style="enable-background:new 0 0 1009.1 1009.1;" xml:space="preserve">
<style type="text/css">
	.st0{fill:#002554;}
	.st1{fill:#CFB571;}
	.st2{fill:#E21F26;}
	.st3{fill:#FFFFFF;}
</style>
<title>dif_info_carrier</title>
<rect y="0" class="st0" width="1009.1" height="1009.1"/>
<rect y="362.9" class="st1" width="704.4" height="141.7"/>
<g>
	<path class="st0" d="M80.5,457.9v-49h16.4c2.7,0,5.4,0.5,7.9,1.5s4.8,2.5,6.7,4.3c2.2,2.2,3.8,4.8,4.8,7.7c1.3,3.5,1.9,7.3,1.8,11
		c0.1,4-0.5,7.9-1.8,11.7c-1,2.9-2.7,5.6-5,7.7c-2,1.8-4.3,3.1-6.8,4c-2.6,0.9-5.3,1.3-8,1.3L80.5,457.9z M90,449.2h6.5
		c1.5,0,3-0.2,4.4-0.6c1.3-0.4,2.6-1.2,3.6-2.2c1.3-1.4,2.2-3,2.6-4.9c0.7-2.7,1-5.4,0.9-8.2c0-5.5-1-9.4-3-11.9
		c-1.9-2.4-4.9-3.8-8-3.8h-7V449.2z"/>
	<path class="st0" d="M126.5,457.9v-49h9.5v49H126.5z"/>
	<path class="st0" d="M147.5,457.9v-49h31.1v8.8H157v13h19.7v8.3H157v19L147.5,457.9z"/>
	<path class="st0" d="M204.2,457.9v-49h9.4v19.7h16.8v-19.7h9.4v49h-9.4v-21.2h-16.8v21.2H204.2z"/>
	<path class="st0" d="M274.4,445.1l6.4,5.6c-3.8,5.5-8.9,8.3-15.3,8.3c-4.8,0.2-9.4-1.8-12.7-5.4s-4.9-8.3-4.9-14.2
		s1.6-10.7,4.9-14.3c3.1-3.5,7.6-5.5,12.3-5.4c4.7-0.1,9.1,1.8,12.2,5.4c3.2,3.6,4.8,8.3,4.8,14.2v2.8h-24.9c0,2.4,0.8,4.7,2.3,6.5
		c1.5,1.6,3.7,2.4,5.8,2.3c1.9,0.1,3.7-0.5,5.2-1.6C272.1,448.1,273.4,446.7,274.4,445.1z M257.1,435.3h16.1c-0.1-2.1-1-4.1-2.5-5.6
		c-1.6-1.4-3.6-2.1-5.7-2c-2.1-0.1-4,0.7-5.5,2.2C258.1,431.4,257.3,433.3,257.1,435.3L257.1,435.3z"/>
	<path class="st0" d="M289.4,457.9v-37.1h8.6v3.9h0.1c0.7-1.4,1.8-2.6,3.1-3.4c1.4-0.9,2.9-1.3,4.5-1.3c1.2,0,2.3,0.2,3.4,0.7
		l-1.4,8.8c-0.9-0.4-1.9-0.5-2.9-0.6c-4.2,0-6.4,2.8-6.4,8.5v20.4L289.4,457.9z"/>
	<path class="st0" d="M314.4,457.9v-37.1h8.6v3.9h0.1c0.7-1.4,1.8-2.6,3.1-3.4c1.4-0.8,2.9-1.3,4.5-1.3c1.2,0,2.3,0.2,3.4,0.7
		l-1.4,8.8c-0.9-0.4-1.9-0.5-2.9-0.6c-4.2,0-6.4,2.8-6.4,8.5v20.4L314.4,457.9z"/>
	<path class="st0" d="M355.5,439.2v-7.7h34.9v7.7H355.5z"/>
	<path class="st0" d="M442.7,457.5c-5.1,2-10.7,2-15.8,0c-2.5-1-4.8-2.5-6.8-4.5c-2.2-2.3-3.9-5.1-4.8-8.1
		c-1.3-3.8-1.9-7.9-1.8-11.9c-0.1-3.7,0.6-7.5,1.8-11c1-3,2.7-5.7,4.8-8c1.9-2,4.2-3.5,6.8-4.6c5-2.1,10.7-2.1,15.8,0
		c2.5,1.1,4.8,2.7,6.8,4.6c2.2,2.3,3.8,5,4.8,8c1.2,3.5,1.8,7.3,1.8,11c0.1,4-0.5,8.1-1.8,11.9C452.6,450.7,448.3,455.3,442.7,457.5
		L442.7,457.5z M426.5,446.1c3.4,4.6,9.9,5.5,14.4,2.1c0.8-0.6,1.5-1.3,2.1-2.1c2.1-2.7,3.2-7.1,3.2-13.2c0-5.3-1.1-9.4-3.3-12.2
		c-3.2-4.5-9.5-5.6-14-2.3c-0.9,0.6-1.7,1.4-2.3,2.3c-2.2,2.8-3.3,6.9-3.3,12.2C423.3,439,424.4,443.3,426.5,446.1z M423.6,404.3v-8
		h8.5v8H423.6z M437.5,404.3v-8h8.5v8H437.5z"/>
	<path class="st0" d="M463.8,457.9v-37.1h8.6v3.9h0.1c0.7-1.4,1.8-2.6,3.1-3.4c1.4-0.8,2.9-1.3,4.5-1.3c1.2,0,2.3,0.2,3.4,0.7
		l-1.4,8.8c-0.9-0.4-1.9-0.5-2.9-0.6c-4.2,0-6.4,2.8-6.4,8.5v20.4L463.8,457.9z"/>
	<path class="st0" d="M513.5,445.1l6.4,5.6c-3.8,5.5-8.9,8.3-15.3,8.3c-4.8,0.2-9.4-1.8-12.7-5.4c-3.3-3.6-4.9-8.3-4.9-14.2
		s1.6-10.7,4.9-14.3c3.1-3.5,7.6-5.5,12.3-5.4c4.7-0.1,9.1,1.8,12.2,5.4c3.2,3.6,4.8,8.3,4.8,14.2v2.8h-24.9c0,2.4,0.8,4.7,2.3,6.5
		c1.5,1.6,3.7,2.4,5.8,2.3c1.9,0.1,3.7-0.5,5.2-1.6C511.2,448.1,512.5,446.7,513.5,445.1z M496.3,435.3h16.1c-0.1-2.1-1-4.1-2.5-5.6
		c-1.6-1.4-3.6-2.1-5.7-2c-2.1-0.1-4,0.7-5.5,2.2C497.2,431.4,496.4,433.3,496.3,435.3L496.3,435.3z"/>
	<path class="st0" d="M528.5,457.9v-51.1h9.1v17.6h0.1l0.3-0.5c0.3-0.4,0.7-0.8,1.1-1.1c0.6-0.5,1.2-1,1.9-1.4
		c0.8-0.5,1.7-0.9,2.7-1.1c1.1-0.3,2.3-0.5,3.5-0.5c4.4-0.1,8.6,1.9,11.4,5.4c3,3.6,4.5,8.3,4.5,14.2c0,6-1.5,10.8-4.4,14.3
		s-7.2,5.5-11.7,5.3c-1.9,0-3.7-0.4-5.5-1.2c-1.3-0.5-2.4-1.3-3.4-2.3l-1-1.2H537v3.6L528.5,457.9z M537.6,435.9v6.8
		c-0.1,2.1,0.7,4.2,2.1,5.7c1.5,1.6,3.6,2.5,5.8,2.4c2.4,0.1,4.7-1,6.2-2.9s2.2-4.8,2.2-8.5s-0.7-6.6-2.2-8.5s-3.8-3-6.2-2.9
		c-2.2-0.1-4.3,0.7-5.8,2.3C538.3,431.8,537.6,433.9,537.6,435.9L537.6,435.9z"/>
	<path class="st0" d="M570.5,457.9v-37.1h8.6v3.9h0.1c0.7-1.4,1.8-2.6,3.1-3.4c1.4-0.8,2.9-1.3,4.5-1.3c1.2,0,2.3,0.2,3.4,0.7
		l-1.4,8.8c-0.9-0.4-1.9-0.5-2.9-0.6c-4.2,0-6.4,2.8-6.4,8.5v20.4L570.5,457.9z"/>
	<path class="st0" d="M622.1,453.8c-6.8,6.9-18,6.9-24.9,0.1c0,0,0,0-0.1-0.1c-3.3-3.5-4.9-8.3-4.9-14.4c0-6.2,1.7-10.9,5-14.4
		c6.5-6.8,17.3-7,24.1-0.5c0.2,0.2,0.3,0.3,0.5,0.5c3.3,3.5,5,8.3,5,14.4C626.9,445.4,625.3,450.3,622.1,453.8z M603.5,447.8
		c2.7,3.4,7.7,4,11.1,1.2c0.5-0.4,0.9-0.8,1.2-1.2c1.5-2,2.2-4.8,2.2-8.4s-0.8-6.4-2.3-8.4c-2.7-3.4-7.6-3.9-11-1.3
		c-0.5,0.4-0.9,0.8-1.3,1.3c-1.5,2-2.3,4.8-2.3,8.5C601.3,443.1,602,445.9,603.5,447.8L603.5,447.8z"/>
</g>
<g>
	<rect x="399.7" y="504.6" class="st2" width="609.5" height="141.7"/>
	<path class="st3" d="M513,599.3c-5.1,2-10.7,2-15.8,0c-2.5-1-4.8-2.5-6.8-4.5c-2.2-2.3-3.9-5.1-4.8-8.1c-1.3-3.8-1.9-7.9-1.8-11.9
		c-0.1-3.7,0.6-7.5,1.8-11c1-3,2.7-5.7,4.8-8c1.9-2,4.2-3.5,6.8-4.6c5-2.1,10.7-2.1,15.7,0c2.5,1.1,4.8,2.7,6.8,4.6
		c2.2,2.3,3.8,5,4.8,8c1.2,3.5,1.8,7.3,1.8,11c0.1,4-0.5,8.1-1.8,11.9C522.9,592.4,518.6,597.1,513,599.3z M496.9,587.9
		c3.4,4.6,9.9,5.5,14.4,2.1c0.8-0.6,1.5-1.3,2.1-2.1c2.1-2.7,3.2-7.1,3.2-13.2c0-5.3-1.1-9.4-3.3-12.2c-3.2-4.5-9.5-5.6-14-2.3
		c-0.9,0.6-1.7,1.4-2.3,2.3c-2.2,2.8-3.3,6.9-3.3,12.2C493.6,580.7,494.7,585.1,496.9,587.9z"/>
	<path class="st3" d="M534.1,599.7v-37.1h8.8v3.6h0.2c1.1-1.4,2.6-2.5,4.2-3.3c1.7-0.9,3.7-1.3,5.6-1.3c4.1,0,7.3,1.2,9.7,3.7
		c2.3,2.5,3.5,5.8,3.5,10.2v24.3H557v-22c0-2.6-0.5-4.5-1.5-5.8s-2.6-1.9-5-1.9c-3.6-0.4-6.9,2.3-7.2,5.9c0,0.4,0,0.7,0,1.1v22.7
		L534.1,599.7z"/>
	<path class="st3" d="M572.6,587.4l8.2-2.1c0.7,5.2,3.4,7.8,8.3,7.8c1.8,0.1,3.7-0.3,5.3-1.1c1.2-0.5,2-1.7,2-3c0-1-0.6-2-1.5-2.4
		c-2.1-0.9-4.2-1.7-6.4-2.2c-0.9-0.2-1.6-0.4-2-0.6c-4.3-1.2-7.5-2.7-9.5-4.3s-3.1-4.1-3-6.6c0-3.1,1.4-6,3.8-8
		c2.5-2.2,5.9-3.4,10.2-3.4c8.3,0,13.5,3.6,15.6,10.9l-7.6,2.3c-0.5-1.6-1.5-3.1-2.8-4.2c-2.8-1.8-6.4-2-9.5-0.5
		c-0.9,0.5-1.5,1.4-1.6,2.4c0.1,1.1,0.8,2.1,1.9,2.4c3,1.2,6.1,2.2,9.3,3c4.3,1.2,7.3,2.7,8.9,4.5c1.6,1.9,2.4,4.4,2.3,6.9
		c-0.1,3.1-1.5,6-3.9,8c-2.6,2.4-6.3,3.5-11.2,3.5c-5.1,0-9.1-1.3-11.9-3.9C574.9,594.4,573.1,591.1,572.6,587.4z"/>
	<path class="st3" d="M635.2,599.7v-3.6H635c-0.2,0.3-0.6,0.7-1,1.3c-1,0.9-2,1.5-3.2,2.1c-1.7,0.9-3.6,1.3-5.6,1.3
		c-4.5,0.2-8.9-1.8-11.7-5.3c-2.9-3.5-4.4-8.3-4.4-14.3s1.6-10.7,4.8-14.3c2.8-3.3,6.9-5.3,11.2-5.3c1.8,0,3.6,0.4,5.3,1.2
		c1.2,0.5,2.3,1.3,3.2,2.3l0.9,1.2h0.1v-17.6h9.1v51.1h-8.5L635.2,599.7L635.2,599.7z M634.6,584.5v-6.8c0.1-2.1-0.7-4.1-2.1-5.7
		c-1.5-1.6-3.7-2.4-5.8-2.3c-2.4-0.1-4.7,1-6.2,2.9s-2.2,4.8-2.2,8.5c0,3.8,0.7,6.6,2.2,8.5s3.8,3,6.2,2.9c2.2,0.1,4.3-0.7,5.8-2.3
		C633.9,588.6,634.7,586.6,634.6,584.5z"/>
	<path class="st3" d="M674.7,599.7v-3.6h-0.1l-0.3,0.5c-0.3,0.4-0.6,0.8-1,1.1c-0.6,0.5-1.2,1-1.9,1.4c-0.9,0.5-1.9,0.9-2.9,1.1
		c-1.3,0.3-2.6,0.5-3.9,0.5c-4.5,0-7.8-1.1-10-3.2c-2.2-2-3.4-4.9-3.3-7.8c0-3.2,1-5.7,2.9-7.3c1.9-1.7,5.2-3.1,9.7-4.2
		c4.2-1,6.9-1.8,8-2.5c1-0.5,1.6-1.5,1.6-2.6s-0.6-2.2-1.6-2.8c-1.4-0.8-3.1-1.2-4.7-1.1c-2.5,0-4.2,0.5-5.3,1.7
		c-1.2,1.3-2,2.8-2.5,4.4l-7.6-3.2c0.8-3.1,2.7-5.8,5.2-7.7c2.6-2,5.9-3,10.1-3c4-0.1,7.9,1.1,11.1,3.6c2.9,2.4,4.3,6.1,4.3,11.1
		v23.5L674.7,599.7L674.7,599.7z M665.5,584.5c-2.3,0.6-3.9,1.2-4.6,2c-0.7,0.7-1.1,1.6-1.1,2.6c0,2.5,1.8,3.8,5.5,3.8
		c2.8,0,4.8-0.5,6.2-1.6c1.3-0.9,2.1-2.3,2.1-3.9V581h-0.1c-0.2,0.3-0.4,0.6-0.6,0.9c-0.7,0.4-1.4,0.8-2.1,1
		C669,583.6,667.3,584.1,665.5,584.5z"/>
	<path class="st3" d="M691.6,607.2l6.8-4.7c0.8,1.8,2.1,3.4,3.6,4.6c1.6,1,3.4,1.5,5.2,1.4c2.1,0.1,4.1-0.6,5.7-1.8
		c1.4-1.2,2.1-3.2,2.1-5.9v-4.7l0,0c-0.9,1.4-2.1,2.5-3.6,3.2c-1.7,0.9-3.6,1.4-5.6,1.4c-4.6,0.1-9-1.8-12-5.2
		c-3.2-3.5-4.8-8.3-4.8-14.4s1.7-10.9,5-14.3c3-3.4,7.2-5.3,11.7-5.3c4.2,0,7.5,1.5,9.8,4.6h0.1v-3.6h8.7v37.1
		c0,5.4-1.6,9.6-4.7,12.5s-7.2,4.3-12.2,4.3c-3.4,0.1-6.9-0.8-9.8-2.5C694.9,612.4,692.8,610,691.6,607.2z M715.1,584.9v-7.6
		c0-2-0.7-3.9-2.2-5.3c-1.5-1.5-3.7-2.3-5.8-2.2c-2.5-0.1-5,1-6.6,2.9c-1.7,2-2.5,4.8-2.5,8.5s0.9,6.5,2.6,8.5c1.6,1.9,4,3,6.5,2.9
		c2.2,0.1,4.3-0.7,5.8-2.2C714.4,588.9,715.2,586.9,715.1,584.9z"/>
	<path class="st3" d="M760.7,599.7v-38.5l-10.6,6.7v-10.2l11.3-7h8.3v49H760.7z"/>
	<path class="st3" d="M780.9,590.3v-8.8l18.6-30.8h14.3v30.9h5.7v8.8h-5.7v9.4H805v-9.4h-24.1V590.3z M790.4,581.6H805v-23.9h-0.1
		L790.4,581.6z"/>
	<path class="st3" d="M826.6,572.5v-9.9H837v9.9H826.6z M826.6,599.7v-9.9H837v9.9H826.6z"/>
	<path class="st3" d="M877.7,594.3c-6.3,7.6-17.5,8.6-25.1,2.3c-0.8-0.7-1.6-1.5-2.3-2.3c-3.4-4.3-5.1-10.9-5.1-19.9
		c0-8.1,1.7-14.3,5.1-18.5c6.5-7.6,17.8-8.4,25.4-2c0.7,0.6,1.4,1.3,2,2c3.4,4.2,5.1,10.4,5.2,18.5
		C882.8,583.4,881.1,590,877.7,594.3z M856.8,588.1c2.5,3.9,7.7,5.1,11.6,2.6c1.1-0.7,2-1.6,2.6-2.6c1.5-2.6,2.3-7.2,2.3-13.7
		c0-5.6-0.8-9.7-2.3-12.2c-2.6-3.9-7.8-4.9-11.7-2.4c-0.9,0.6-1.7,1.4-2.4,2.4c-1.6,2.5-2.3,6.6-2.3,12.2
		C854.6,580.9,855.3,585.5,856.8,588.1L856.8,588.1z"/>
	<path class="st3" d="M920.2,594.3c-6.3,7.6-17.5,8.6-25.1,2.3c-0.8-0.7-1.6-1.5-2.3-2.3c-3.4-4.3-5.1-10.9-5.1-19.9
		c0-8.1,1.7-14.3,5.1-18.5c6.5-7.6,17.8-8.4,25.4-2c0.7,0.6,1.4,1.3,2,2c3.4,4.2,5.1,10.4,5.2,18.5
		C925.3,583.4,923.6,590,920.2,594.3z M899.4,588.1c2.5,3.9,7.7,5.1,11.6,2.6c1.1-0.7,2-1.6,2.6-2.6c1.5-2.6,2.3-7.2,2.3-13.7
		c0-5.6-0.8-9.7-2.3-12.2c-2.6-3.9-7.8-4.9-11.7-2.4c-0.9,0.6-1.7,1.4-2.4,2.4c-1.6,2.5-2.3,6.6-2.3,12.2
		C897.1,580.9,897.9,585.5,899.4,588.1L899.4,588.1z"/>
</g>
</svg>
