<?xml version="1.0" encoding="utf-8"?>
<!-- Generator: Adobe Illustrator 20.1.0, SVG Export Plug-In . SVG Version: 6.00 Build 0)  -->
<svg version="1.1" id="Layer_1" xmlns="http://www.w3.org/2000/svg" xmlns:xlink="http://www.w3.org/1999/xlink" x="0px" y="0px"
	 viewBox="0 0 1009.1 571" style="enable-background:new 0 0 1009.1 571;" xml:space="preserve">
<style type="text/css">
	.st0{fill:#FFFFFF;stroke:#00FFFF;stroke-miterlimit:10;}
	.st1{opacity:0.15;fill:#FFFFFF;enable-background:new    ;}
	.st2{opacity:0.3;fill:none;stroke:#000000;stroke-miterlimit:10;enable-background:new    ;}
	.st3{fill:#32BAF2;}
	.st4{fill:#002554;}
	.st5{fill:none;stroke:#00FFFF;stroke-miterlimit:10;}
	.st6{fill:#FFFFFF;}
</style>
<title>dif_info_carrier-11</title>
<g id="Guides">
	<rect class="st0" width="1009.1" height="565.9"/>
	<rect class="st1" width="1009.1" height="567"/>
	<line class="st2" x1="1009.1" y1="0" x2="0" y2="567"/>
	<line class="st2" x1="0" y1="0" x2="1009.1" y2="567"/>
	<rect y="330.1" class="st3" width="252.3" height="47.2"/>
	<rect y="235.8" class="st4" width="336.4" height="94.3"/>
	<rect class="st5" width="1009.1" height="565.9"/>
	<line class="st5" x1="0" y1="47.2" x2="1009.1" y2="47.2"/>
	<line class="st5" x1="0" y1="94.3" x2="1009.1" y2="94.3"/>
	<line class="st5" x1="0" y1="141.5" x2="1009.1" y2="141.5"/>
	<line class="st5" x1="0" y1="188.6" x2="1009.1" y2="188.6"/>
	<line class="st5" x1="0" y1="235.8" x2="1009.1" y2="235.8"/>
	<line class="st5" x1="0" y1="282.9" x2="1009.1" y2="282.9"/>
	<line class="st5" x1="0" y1="330.1" x2="1009.1" y2="330.1"/>
	<line class="st5" x1="0" y1="377.3" x2="1009.1" y2="377.3"/>
	<line class="st5" x1="0" y1="424.4" x2="1009.1" y2="424.4"/>
	<line class="st5" x1="0" y1="471.6" x2="1009.1" y2="471.6"/>
	<line class="st5" x1="0" y1="518.7" x2="1009.1" y2="518.7"/>
	<line class="st5" x1="925" y1="565.9" x2="925" y2="0"/>
	<line class="st5" x1="840.9" y1="565.9" x2="840.9" y2="0"/>
	<line class="st5" x1="756.8" y1="565.9" x2="756.8" y2="0"/>
	<line class="st5" x1="672.8" y1="565.9" x2="672.8" y2="0"/>
	<line class="st5" x1="588.7" y1="565.9" x2="588.7" y2="0"/>
	<line class="st5" x1="504.6" y1="565.9" x2="504.6" y2="0"/>
	<line class="st5" x1="420.5" y1="565.9" x2="420.5" y2="0"/>
	<line class="st5" x1="336.4" y1="565.9" x2="336.4" y2="0"/>
	<line class="st5" x1="252.3" y1="565.9" x2="252.3" y2="0"/>
	<line class="st5" x1="168.2" y1="565.9" x2="168.2" y2="0"/>
	<line class="st5" x1="84.1" y1="565.9" x2="84.1" y2="0"/>
	<path class="st6" d="M45.4,260.3h18.9c1.4,0,2.7,0.5,3.7,1.5l3.6,3.6c1,1,1.5,2.3,1.6,3.7v14.1c0,1.4-0.6,2.7-1.6,3.7l-3.6,3.6
		c-0.6,0.6-1.4,1.1-2.3,1.3l7.4,9.4v3.8h-4.9l-10.2-13h-6.3v13h-6.3V260.3z M66.8,269.4l-3-3H51.7v19.5h12.1l3-3L66.8,269.4z"/>
	<path class="st6" d="M90.9,304.9c-1.4,0-2.7-0.5-3.7-1.5l-3.6-3.6c-1-1-1.5-2.3-1.6-3.7v-35.9h6.3v35.5l3,3h10.3l3-3v-35.5h6.3
		v35.9c0,1.4-0.6,2.7-1.6,3.7l-3.6,3.6c-1,1-2.3,1.5-3.7,1.5H90.9z"/>
	<path class="st6" d="M147.4,275.8c0,1.4-0.6,2.7-1.6,3.7l-1.5,1.5l2.6,2.6c1,1,1.5,2.3,1.6,3.7v8.9c0,1.4-0.6,2.7-1.6,3.7l-3.6,3.6
		c-1,1-2.3,1.5-3.7,1.5h-18.9v-44.6h17.7c1.4,0,2.7,0.5,3.7,1.5l3.6,3.6c1,1,1.5,2.3,1.6,3.7L147.4,275.8z M141.1,275.4v-6l-3-3h-11
		v12.1h11L141.1,275.4z M127.2,284.5v14.3h12.1l3-3v-8.2l-3-3L127.2,284.5z"/>
	<path class="st6" d="M157.7,260.3h18.9c1.4,0,2.7,0.5,3.7,1.5l3.6,3.6c1,1,1.5,2.3,1.6,3.7v14.1c0,1.4-0.6,2.7-1.6,3.7l-3.6,3.6
		c-0.6,0.6-1.4,1.1-2.3,1.3l7.4,9.4v3.8h-4.9l-10.2-13H164v13h-6.3V260.3z M179.1,269.4l-3-3H164v19.5h12.1l3-3L179.1,269.4z"/>
	<path class="st6" d="M193.5,260.3h15.7v5.9h-4.7v32.9h4.7v5.9h-15.7v-5.9h4.7v-32.9h-4.7V260.3z"/>
	<path class="st6" d="M232.7,278.8l15.9,22.3v3.8h-4.9l-15.4-21.7l-3.5,3.5v18.2h-6.3v-44.6h6.3V278l17.7-17.7h4.9v3.7L232.7,278.8z
		"/>
	<path class="st6" d="M41.9,355l1-0.2c0,0.6,0.3,1.2,0.7,1.7c0.4,0.4,1,0.6,1.6,0.5c0.5,0,1-0.1,1.3-0.4c0.3-0.2,0.5-0.6,0.5-1
		c0-0.4-0.1-0.7-0.4-0.9c-0.6-0.4-1.2-0.6-1.8-0.8c-0.7-0.2-1.3-0.5-1.9-0.9c-0.4-0.3-0.6-0.8-0.6-1.4c0-0.6,0.2-1.1,0.7-1.5
		c0.5-0.4,1.2-0.7,1.8-0.6c0.7,0,1.3,0.2,1.9,0.6c0.5,0.4,0.9,1,0.9,1.6l-1,0.2c-0.1-0.4-0.3-0.8-0.6-1.1c-0.4-0.3-0.8-0.4-1.3-0.4
		c-0.4,0-0.8,0.1-1.2,0.3c-0.3,0.2-0.4,0.5-0.4,0.9c0,0.3,0.1,0.6,0.4,0.8c0.5,0.3,1.1,0.5,1.6,0.7c0.8,0.2,1.5,0.5,2.2,1
		c0.4,0.4,0.6,0.9,0.5,1.5c0,0.6-0.3,1.2-0.8,1.7c-1.5,1.1-3.5,0.8-4.6-0.7C42.2,356.1,41.9,355.6,41.9,355z"/>
	<path class="st6" d="M49.3,355.6v-4h0.9v3.8c0,0.4,0.1,0.9,0.3,1.2c0.3,0.3,0.7,0.4,1.1,0.4c0.4,0,0.8-0.1,1.1-0.4
		c0.3-0.3,0.4-0.8,0.4-1.2v-3.8H54v6.1h-0.9v-0.6l0,0l-0.2,0.2c-0.2,0.1-0.3,0.3-0.5,0.3c-0.3,0.1-0.6,0.2-0.9,0.2
		c-0.6,0-1.2-0.2-1.6-0.6C49.5,356.9,49.2,356.2,49.3,355.6z"/>
	<path class="st6" d="M55.9,357.8v-8.4h0.9v2.9l0,0c0.4-0.5,1-0.8,1.7-0.8c0.7,0,1.4,0.3,1.9,0.9c0.5,0.7,0.8,1.5,0.8,2.3
		c0,0.8-0.2,1.7-0.7,2.3c-0.7,0.9-2,1.1-3,0.6c-0.3-0.1-0.5-0.3-0.7-0.5l0,0v0.6L55.9,357.8z M56.9,353.9v1.9c0,0.4,0.2,0.7,0.5,0.9
		c0.3,0.3,0.7,0.4,1.1,0.4c0.5,0,1.1-0.2,1.4-0.6c0.6-1.1,0.6-2.4,0-3.5c-0.3-0.4-0.8-0.7-1.4-0.6c-0.4,0-0.8,0.1-1.1,0.5
		C57,353.1,56.9,353.5,56.9,353.9z"/>
	<path class="st6" d="M65.6,357.8v-8.4h0.9v2.9l0,0c0.2-0.2,0.4-0.4,0.7-0.6c0.3-0.1,0.7-0.2,1-0.2c0.6,0,1.2,0.2,1.6,0.6
		c0.4,0.5,0.6,1.1,0.6,1.7v4h-0.9V354c0-1.1-0.5-1.7-1.4-1.7c-0.4,0-0.9,0.1-1.2,0.4c-0.3,0.3-0.5,0.7-0.4,1.1v3.8L65.6,357.8z"/>
	<path class="st6" d="M76.7,355.9l0.8,0.5c-0.2,0.4-0.6,0.8-1,1.1c-0.5,0.3-1,0.5-1.6,0.4c-0.8,0-1.5-0.3-2-0.9
		c-0.5-0.6-0.8-1.5-0.8-2.3c0-0.8,0.2-1.7,0.8-2.3c0.5-0.6,1.2-0.9,2-0.9c0.8,0,1.5,0.3,2,0.9c0.5,0.7,0.8,1.5,0.8,2.4v0.3H73
		c0,0.5,0.2,1.1,0.5,1.5c0.3,0.4,0.8,0.6,1.4,0.6c0.2,0,0.4,0,0.6-0.1c0.2,0,0.3-0.1,0.5-0.2c0.1-0.1,0.2-0.2,0.3-0.3
		c0.1-0.1,0.2-0.2,0.2-0.3L76.7,355.9z M73,354.2h3.6c0-0.5-0.2-0.9-0.5-1.3c-0.7-0.7-1.9-0.8-2.6-0.1c0,0-0.1,0.1-0.1,0.1
		C73.2,353.3,73,353.7,73,354.2z"/>
	<path class="st6" d="M82.6,357.8v-0.7l0,0c-0.2,0.2-0.4,0.4-0.7,0.6c-0.4,0.2-0.8,0.3-1.2,0.3c-0.6,0-1.1-0.1-1.5-0.5
		c-0.3-0.3-0.5-0.8-0.5-1.2c0-0.4,0.1-0.9,0.5-1.2c0.5-0.4,1-0.6,1.6-0.7l0.6-0.2l0.5-0.2c0.1,0,0.3-0.1,0.4-0.2
		c0.1-0.1,0.1-0.1,0.2-0.2c0.1-0.1,0.1-0.2,0.1-0.3c0-0.3-0.1-0.5-0.3-0.6c-0.3-0.2-0.6-0.3-1-0.3c-0.7-0.1-1.4,0.5-1.5,1.2
		l-0.8-0.2c0.1-0.5,0.4-1,0.8-1.3c0.4-0.3,1-0.5,1.6-0.5c0.6,0,1.2,0.2,1.7,0.5c0.4,0.4,0.7,1,0.6,1.6v4.1L82.6,357.8z M81,355
		c-0.4,0.1-0.7,0.2-1.1,0.5c-0.2,0.2-0.3,0.4-0.3,0.6c0,0.7,0.4,1,1.2,1c0.5,0,0.9-0.1,1.3-0.4c0.3-0.2,0.4-0.6,0.4-0.9v-1.5l0,0
		C82.4,354.5,81.9,354.7,81,355z"/>
	<path class="st6" d="M89.3,357.8v-0.6l0,0c-0.2,0.2-0.4,0.4-0.7,0.5c-1,0.5-2.3,0.2-3-0.6c-0.5-0.7-0.8-1.5-0.7-2.3
		c0-0.8,0.2-1.7,0.8-2.3c0.5-0.6,1.2-0.9,1.9-0.9c0.7,0,1.3,0.3,1.7,0.8l0,0v-2.9h0.9v8.4L89.3,357.8z M89.2,355.8v-1.9
		c0-0.4-0.2-0.7-0.4-1c-0.3-0.3-0.7-0.5-1.1-0.5c-0.5,0-1.1,0.2-1.4,0.6c-0.6,1.1-0.6,2.4,0,3.5c0.3,0.4,0.8,0.7,1.4,0.6
		c0.4,0,0.8-0.1,1.1-0.4C89.1,356.5,89.3,356.1,89.2,355.8L89.2,355.8z"/>
	<path class="st6" d="M91.4,357.9l4.1-8.7l0.7,0.3l-4.2,8.7L91.4,357.9z"/>
	<path class="st6" d="M97,355l1-0.2c0,0.6,0.3,1.2,0.7,1.7c0.4,0.4,1,0.6,1.6,0.5c0.5,0,1-0.1,1.3-0.4c0.3-0.2,0.5-0.6,0.5-1
		c0-0.4-0.1-0.7-0.4-0.9c-0.6-0.4-1.2-0.6-1.8-0.8c-0.7-0.2-1.3-0.5-1.9-0.9c-0.4-0.3-0.6-0.8-0.6-1.4c0-0.6,0.2-1.1,0.7-1.5
		c0.5-0.4,1.2-0.7,1.8-0.6c0.7,0,1.3,0.2,1.9,0.6c0.5,0.4,0.9,1,0.9,1.6l-1,0.2c-0.1-0.4-0.3-0.8-0.6-1.1c-0.4-0.3-0.8-0.4-1.3-0.4
		c-0.4,0-0.8,0.1-1.2,0.3c-0.3,0.2-0.4,0.5-0.4,0.9c0,0.3,0.1,0.6,0.4,0.8c0.5,0.3,1.1,0.5,1.6,0.7c0.8,0.2,1.5,0.5,2.2,1
		c0.4,0.4,0.6,0.9,0.6,1.5c0,0.6-0.3,1.2-0.8,1.7c-1.5,1.1-3.5,0.8-4.6-0.7C97.3,356.1,97.1,355.6,97,355z"/>
	<path class="st6" d="M108.7,355.9l0.8,0.5c-0.2,0.4-0.6,0.8-1,1.1c-0.5,0.3-1,0.5-1.6,0.4c-0.8,0-1.5-0.3-2-0.9
		c-0.5-0.6-0.8-1.5-0.8-2.3c0-0.8,0.2-1.7,0.8-2.3c0.5-0.6,1.2-0.9,2-0.9c0.8,0,1.5,0.3,2,0.9c0.5,0.7,0.8,1.5,0.8,2.4v0.3H105
		c0,0.5,0.2,1.1,0.5,1.5c0.3,0.4,0.8,0.6,1.4,0.6c0.2,0,0.4,0,0.6-0.1c0.2,0,0.3-0.1,0.5-0.2c0.1-0.1,0.2-0.2,0.3-0.3
		c0.1-0.1,0.2-0.2,0.2-0.3L108.7,355.9z M105,354.2h3.6c0-0.5-0.2-0.9-0.5-1.3c-0.7-0.7-1.9-0.8-2.6-0.1c0,0-0.1,0.1-0.1,0.1
		C105.2,353.3,105,353.7,105,354.2z"/>
	<path class="st6" d="M115.1,355.4l0.9,0.2c-0.1,0.6-0.4,1.2-0.8,1.7c-0.5,0.4-1.1,0.6-1.7,0.6c-0.8,0-1.5-0.3-2-0.9
		c-0.5-0.7-0.8-1.5-0.8-2.4c0-0.9,0.2-1.7,0.8-2.4c0.5-0.6,1.2-0.9,2-0.9c0.6,0,1.2,0.2,1.7,0.6c0.5,0.4,0.8,1,0.8,1.6l-0.9,0.2
		c-0.1-0.4-0.3-0.8-0.5-1.1c-0.3-0.3-0.7-0.5-1.1-0.4c-0.5,0-1,0.2-1.3,0.6c-0.4,0.5-0.5,1.1-0.5,1.7c0,0.6,0.1,1.2,0.5,1.7
		c0.3,0.4,0.8,0.7,1.3,0.6c0.4,0,0.8-0.2,1.1-0.5C114.9,356.3,115,355.8,115.1,355.4z"/>
	<path class="st6" d="M119.8,357.9c-0.8,0-1.5-0.3-2-0.9c-0.6-0.7-0.8-1.5-0.8-2.4c0-0.9,0.2-1.7,0.8-2.4c0.5-0.6,1.2-0.9,2-0.9
		c0.7,0,1.4,0.3,1.9,0.9c0.6,0.7,0.8,1.5,0.8,2.4c0,0.9-0.2,1.7-0.8,2.4C121.3,357.6,120.6,357.9,119.8,357.9z M119.8,357.1
		c0.5,0,1-0.2,1.3-0.6c0.7-1.1,0.7-2.4,0-3.5c-0.3-0.4-0.8-0.6-1.3-0.6c-0.5,0-1,0.2-1.3,0.6c-0.7,1.1-0.7,2.4,0,3.5
		C118.8,356.9,119.3,357.1,119.8,357.1z"/>
	<path class="st6" d="M124.1,357.8v-6.1h0.9v0.6l0,0c0.2-0.2,0.4-0.4,0.7-0.5c0.3-0.1,0.7-0.2,1-0.2c0.6,0,1.2,0.2,1.6,0.6
		c0.4,0.4,0.6,1,0.6,1.6v4H128v-3.7c0-1.1-0.5-1.7-1.4-1.7c-0.4,0-0.8,0.1-1.1,0.4c-0.3,0.3-0.5,0.7-0.4,1.1v3.9L124.1,357.8z"/>
	<path class="st6" d="M134.9,357.8v-0.6l0,0c-0.2,0.2-0.4,0.4-0.7,0.5c-1,0.5-2.3,0.2-3-0.6c-0.5-0.7-0.8-1.5-0.7-2.3
		c0-0.8,0.2-1.7,0.8-2.3c0.5-0.6,1.2-0.9,1.9-0.9c0.7,0,1.3,0.3,1.7,0.8l0,0v-2.9h0.9v8.4L134.9,357.8z M134.8,355.8v-1.9
		c0-0.4-0.2-0.7-0.4-1c-0.3-0.3-0.7-0.5-1.1-0.5c-0.5,0-1.1,0.2-1.4,0.6c-0.6,1.1-0.6,2.4,0,3.5c0.3,0.4,0.8,0.7,1.4,0.6
		c0.4,0,0.8-0.1,1.1-0.4C134.7,356.5,134.8,356.1,134.8,355.8L134.8,355.8z"/>
	<path class="st6" d="M141.2,357.8v-0.7l0,0c-0.2,0.2-0.4,0.4-0.6,0.6c-0.4,0.2-0.8,0.3-1.2,0.3c-0.6,0-1.1-0.1-1.5-0.5
		c-0.3-0.3-0.5-0.8-0.5-1.2c0-0.4,0.1-0.9,0.5-1.2c0.5-0.4,1-0.6,1.6-0.7l0.6-0.2l0.5-0.2c0.1,0,0.3-0.1,0.4-0.2
		c0.1-0.1,0.1-0.1,0.2-0.2c0.1-0.1,0.1-0.2,0.1-0.3c0-0.3-0.1-0.5-0.3-0.6c-0.3-0.2-0.6-0.3-1-0.3c-0.7-0.1-1.4,0.5-1.5,1.2
		l-0.9-0.2c0.1-0.5,0.4-1,0.8-1.3c0.4-0.3,1-0.5,1.6-0.5c0.6,0,1.2,0.2,1.7,0.5c0.4,0.4,0.7,1,0.6,1.6v4.1L141.2,357.8z M139.6,355
		c-0.4,0.1-0.7,0.2-1.1,0.5c-0.2,0.2-0.3,0.4-0.3,0.6c0,0.7,0.4,1,1.2,1c0.5,0,0.9-0.1,1.3-0.4c0.3-0.2,0.4-0.6,0.4-0.9v-1.5l0,0
		C141,354.5,140.5,354.7,139.6,355z"/>
	<path class="st6" d="M143.9,357.8v-6.1h0.9v0.6l0,0c0.1-0.2,0.3-0.4,0.5-0.6c0.2-0.1,0.5-0.2,0.7-0.2h0.3l0.2,0h0.1l-0.2,0.9
		c-0.2-0.1-0.3-0.1-0.5-0.1c-0.3,0-0.6,0.1-0.9,0.4c-0.2,0.4-0.3,0.8-0.3,1.2v3.6L143.9,357.8z"/>
	<path class="st6" d="M148.2,360.3l1.2-3.2l-2.3-5.4h1l1.7,4.2l0,0l1.6-4.2h1l-3.3,8.7H148.2z"/>
	<path class="st6" d="M156.5,350.4v-1.1h1.1v1.1H156.5z M156.6,357.8v-6.1h0.9v6.1H156.6z"/>
	<path class="st6" d="M159.5,357.8v-6.1h0.9v0.6l0,0c0.2-0.2,0.4-0.4,0.7-0.5c0.3-0.1,0.7-0.2,1-0.2c0.6,0,1.2,0.2,1.6,0.6
		c0.4,0.4,0.6,1,0.6,1.6v4h-0.9v-3.7c0-1.1-0.5-1.7-1.4-1.7c-0.4,0-0.8,0.1-1.1,0.4c-0.3,0.3-0.5,0.7-0.4,1.1v3.9L159.5,357.8z"/>
	<path class="st6" d="M166.5,357.8v-5.2h-0.9v-0.8h0.9v-0.9c0-0.4,0.1-0.8,0.3-1.1c0.3-0.2,0.6-0.3,1-0.3h1v0.8H168
		c-0.2,0-0.3,0-0.5,0.1c-0.1,0.2-0.1,0.4-0.1,0.6v0.8h1.5v0.8h-1.5v5.2L166.5,357.8z"/>
	<path class="st6" d="M172.4,357.9c-0.8,0-1.5-0.3-2-0.9c-0.6-0.7-0.8-1.5-0.8-2.4c0-0.9,0.2-1.7,0.8-2.4c0.5-0.6,1.2-0.9,2-0.9
		c0.7,0,1.4,0.3,1.9,0.9c0.6,0.7,0.8,1.5,0.8,2.4c0,0.9-0.2,1.7-0.8,2.4C173.9,357.6,173.2,357.9,172.4,357.9z M172.4,357.1
		c0.5,0,1-0.2,1.3-0.6c0.7-1.1,0.7-2.4,0-3.5c-0.3-0.4-0.8-0.6-1.3-0.6c-0.5,0-1,0.2-1.3,0.6c-0.7,1.1-0.7,2.4,0,3.5
		C171.4,356.9,171.9,357.1,172.4,357.1z"/>
	<path class="st6" d="M176.7,357.8v-6.1h0.9v0.6l0,0c0.1-0.2,0.3-0.4,0.5-0.6c0.2-0.1,0.5-0.2,0.7-0.2h0.3l0.2,0h0.1l-0.2,0.9
		c-0.2-0.1-0.3-0.1-0.5-0.1c-0.3,0-0.6,0.1-0.9,0.4c-0.2,0.4-0.3,0.8-0.3,1.2v3.6L176.7,357.8z"/>
	<path class="st6" d="M180.7,357.8v-6.1h0.9v0.6l0,0c0.2-0.2,0.4-0.4,0.6-0.5c0.3-0.1,0.6-0.2,0.9-0.2c0.4,0,0.7,0.1,1,0.3
		c0.3,0.2,0.5,0.4,0.6,0.6l0,0c0.2-0.3,0.4-0.5,0.7-0.6c0.3-0.2,0.6-0.3,1-0.3c1.1-0.1,2,0.8,2.1,1.9c0,0.1,0,0.1,0,0.2v4.1h-0.9
		v-3.9c0-1-0.4-1.5-1.2-1.5c-0.4,0-0.7,0.1-1,0.4c-0.2,0.3-0.4,0.7-0.4,1.1v3.9h-0.9v-3.9c0-1-0.4-1.5-1.2-1.5c-0.4,0-0.8,0.1-1,0.4
		c-0.2,0.3-0.3,0.7-0.3,1v3.9L180.7,357.8z"/>
	<path class="st6" d="M194,357.8v-0.7l0,0c-0.2,0.2-0.4,0.4-0.6,0.6c-0.4,0.2-0.8,0.3-1.2,0.3c-0.6,0-1.1-0.1-1.5-0.5
		c-0.3-0.3-0.5-0.8-0.5-1.2c0-0.4,0.1-0.9,0.5-1.2c0.5-0.4,1-0.6,1.6-0.7l0.6-0.2l0.5-0.2c0.1,0,0.3-0.1,0.4-0.2
		c0.1-0.1,0.1-0.1,0.2-0.2c0.1-0.1,0.1-0.2,0.1-0.3c0-0.3-0.1-0.5-0.3-0.6c-0.3-0.2-0.6-0.3-1-0.3c-0.7-0.1-1.4,0.5-1.5,1.2
		l-0.9-0.2c0.1-0.5,0.4-1,0.8-1.3c0.4-0.3,1-0.5,1.6-0.5c0.6,0,1.2,0.2,1.7,0.5c0.4,0.4,0.7,1,0.6,1.6v4.1H194z M192.3,355
		c-0.4,0.1-0.7,0.2-1.1,0.5c-0.2,0.2-0.3,0.4-0.3,0.6c0,0.7,0.4,1,1.2,1c0.5,0,0.9-0.1,1.3-0.4c0.3-0.2,0.4-0.6,0.4-0.9v-1.5l0,0
		C193.8,354.5,193.2,354.7,192.3,355z"/>
	<path class="st6" d="M196.9,356v-3.5H196v-0.8h0.9v-1.5h0.9v1.5h1.5v0.8h-1.5v3.4c0,0.3,0,0.5,0.1,0.8c0.2,0.2,0.4,0.3,0.6,0.2h0.4
		v0.9h-0.5c-0.5,0-0.9-0.1-1.2-0.4C197,356.9,196.8,356.5,196.9,356z"/>
	<path class="st6" d="M200.8,350.4v-1.1h1.1v1.1H200.8z M200.9,357.8v-6.1h0.9v6.1H200.9z"/>
	<path class="st6" d="M206.2,357.9c-0.8,0-1.5-0.3-2-0.9c-0.6-0.7-0.8-1.5-0.8-2.4c0-0.9,0.2-1.7,0.8-2.4c0.5-0.6,1.2-0.9,2-0.9
		c0.7,0,1.4,0.3,1.9,0.9c0.6,0.7,0.8,1.5,0.8,2.4c0,0.9-0.2,1.7-0.8,2.4C207.6,357.6,206.9,357.9,206.2,357.9z M206.2,357.1
		c0.5,0,1-0.2,1.3-0.6c0.7-1.1,0.7-2.4,0-3.5c-0.3-0.4-0.8-0.6-1.3-0.6c-0.5,0-1,0.2-1.3,0.6c-0.7,1.1-0.7,2.4,0,3.5
		C205.2,356.9,205.7,357.1,206.2,357.1z"/>
	<path class="st6" d="M210.4,357.8v-6.1h0.9v0.6l0,0c0.2-0.2,0.4-0.4,0.7-0.5c0.3-0.1,0.7-0.2,1-0.2c0.6,0,1.2,0.2,1.6,0.6
		c0.4,0.4,0.6,1,0.6,1.6v4h-0.9v-3.7c0-1.1-0.5-1.7-1.4-1.7c-0.4,0-0.8,0.1-1.1,0.4c-0.3,0.3-0.5,0.7-0.4,1.1v3.9L210.4,357.8z"/>
</g>
</svg>
