<svg xmlns="http://www.w3.org/2000/svg" viewBox="0 0 1009.13 1009.13"><defs><style>.cls-1,.cls-2{fill:#fff;}.cls-2{stroke:#000;opacity:0.3;}.cls-2,.cls-6{stroke-miterlimit:10;}.cls-3{fill:#002554;}.cls-4{fill:#cfb571;}.cls-5{fill:#32baf2;}.cls-6{fill:none;stroke:aqua;}</style></defs><title>dif_info_carrier</title><g id="Guides"><rect class="cls-1" width="1009.13" height="1009.13"/><line class="cls-2" x1="1009.13" y2="1009.13"/><line class="cls-2" x2="1009.13" y2="1009.13"/><rect class="cls-3" x="85.88" y="252.28" width="670.97" height="82.3"/><path class="cls-3" d="M782.18,304.54v-4l14.94-24.61h6.7V300.5h4.63v4h-4.62v8.61h-4.25v-8.61Zm4.41-4h13V279.29h-.11Z"/><path class="cls-3" d="M835.15,311q-3.59,3-9.49,3a14.6,14.6,0,0,1-9.54-3,10.17,10.17,0,0,1-3.64-8.35,9.52,9.52,0,0,1,2.07-6.11,10.2,10.2,0,0,1,4.89-3.51v-.11a8,8,0,0,1-3.53-3,9.09,9.09,0,0,1-1.41-5.18,8.92,8.92,0,0,1,3.06-6.7,12.88,12.88,0,0,1,16.21,0,9.33,9.33,0,0,1,1.62,11.88,8.21,8.21,0,0,1-3.51,3V293a10.54,10.54,0,0,1,4.86,3.56,9.55,9.55,0,0,1,2,6.06A10.24,10.24,0,0,1,835.15,311Zm-9.49-1.17a9.17,9.17,0,0,0,6.3-2,6.73,6.73,0,0,0,2.31-5.29,6.83,6.83,0,0,0-2.39-5.42,9.16,9.16,0,0,0-6.22-2.07,9.26,9.26,0,0,0-6.25,2.07,7.25,7.25,0,0,0-.11,10.71A9.25,9.25,0,0,0,825.66,309.8Zm5.13-29a8.36,8.36,0,0,0-10.29,0,5.94,5.94,0,0,0-1.75,4.33,5.81,5.81,0,0,0,1.91,4.44,7,7,0,0,0,5,1.78,6.94,6.94,0,0,0,5-1.78,5.85,5.85,0,0,0,1.89-4.44A6,6,0,0,0,830.79,280.77Z"/><path class="cls-3" d="M84.09,226.37V189.16h7.39l10.79,24.13h.11l10.79-24.13h7.44v37.21h-7V203.51h-.11l-10.58,22.86h-1.17L91.16,203.51h-.11v22.86Z"/><path class="cls-3" d="M144.64,226.37v-2.71h-.11l-.27.4a6,6,0,0,1-.8.82,7.77,7.77,0,0,1-3.61,1.91,11.42,11.42,0,0,1-3,.37q-5.1,0-7.63-2.42a7.89,7.89,0,0,1-2.53-5.93,7,7,0,0,1,2.18-5.58q2.18-1.91,7.39-3.19a30.67,30.67,0,0,0,6.06-1.86,2.16,2.16,0,0,0,1.22-2,2.53,2.53,0,0,0-1.2-2.13,6.21,6.21,0,0,0-3.59-.85,5.49,5.49,0,0,0-4,1.25,8.48,8.48,0,0,0-1.91,3.38l-5.74-2.39a11,11,0,0,1,3.93-5.82,12.17,12.17,0,0,1,7.65-2.26,12.87,12.87,0,0,1,8.45,2.71q3.3,2.71,3.3,8.4v17.86Zm-7-11.54a7.39,7.39,0,0,0-3.48,1.51,2.83,2.83,0,0,0-.82,2q0,2.87,4.15,2.87a7.7,7.7,0,0,0,4.7-1.2,3.59,3.59,0,0,0,1.57-3v-4.89h-.11a2.52,2.52,0,0,1-.45.67,6.75,6.75,0,0,1-1.62.8A31.38,31.38,0,0,1,137.68,214.83Z"/><path class="cls-3" d="M158.78,216.32V204h-4.36V198.2h4.52v-6.91h6.54v6.91h7.12V204h-7v11.64a5,5,0,0,0,.74,3.14q.74.9,3,.9h2.29v6.64h-2.92q-5.69,0-7.81-2.39T158.78,216.32Z"/><path class="cls-3" d="M194.82,215l6.54,1.7a12.94,12.94,0,0,1-4.15,7.76,12,12,0,0,1-8,2.71,12.37,12.37,0,0,1-9.44-3.93q-3.69-3.93-3.69-11t3.8-10.92a12.49,12.49,0,0,1,9.38-4,11.67,11.67,0,0,1,7.92,2.76,11.93,11.93,0,0,1,3.93,7.39l-6.43,1.22q-1-5.16-5.42-5.16a5.6,5.6,0,0,0-4.65,2.21q-1.73,2.21-1.73,6.46t1.7,6.46a5.58,5.58,0,0,0,4.68,2.21Q193.91,220.95,194.82,215Z"/><path class="cls-3" d="M206.67,226.37v-38.8h6.91v13.34h.11a7.23,7.23,0,0,1,2.82-2.45,8.4,8.4,0,0,1,4-1.06,9.49,9.49,0,0,1,7.18,2.76,10.29,10.29,0,0,1,2.66,7.44v18.76h-6.91V209.15a5.86,5.86,0,0,0-1.25-3.85,4.58,4.58,0,0,0-3.75-1.51,4.71,4.71,0,0,0-3.64,1.36,5,5,0,0,0-1.25,3.54v17.7Z"/><path class="cls-3" d="M255.84,216.64l4.84,4.25A13.43,13.43,0,0,1,249,227.17a12.45,12.45,0,0,1-9.62-4.07q-3.72-4.07-3.72-10.82t3.69-10.82a12.06,12.06,0,0,1,9.33-4.07,11.9,11.9,0,0,1,9.28,4.07q3.64,4.07,3.64,10.82v2.07H242.71a7.56,7.56,0,0,0,1.78,5,5.79,5.79,0,0,0,4.44,1.73,6.35,6.35,0,0,0,4-1.2A13.78,13.78,0,0,0,255.84,216.64Zm-13.13-7.44h12.23a6.47,6.47,0,0,0-1.86-4.23,6.07,6.07,0,0,0-4.36-1.51,5.6,5.6,0,0,0-4.17,1.65A6.44,6.44,0,0,0,242.71,209.2Z"/><path class="cls-3" d="M267.22,226.37V198.2h6.54v3h.11a6.18,6.18,0,0,1,2.37-2.55,6.46,6.46,0,0,1,3.43-1,6.33,6.33,0,0,1,2.55.53l-1.06,6.7a6.42,6.42,0,0,0-2.18-.42q-4.84,0-4.84,6.43v15.47Z"/><rect class="cls-4" x="84.09" y="505.44" width="377.28" height="83.82"/><path class="cls-3" d="M84.09,483.23V446h7.39l10.79,24.13h.11L113.17,446h7.44v37.21h-7V460.38h-.11l-10.58,22.86h-1.17L91.16,460.38h-.11v22.86Z"/><path class="cls-3" d="M144.64,483.23v-2.71h-.11l-.27.4a6,6,0,0,1-.8.82,7.77,7.77,0,0,1-3.61,1.91,11.42,11.42,0,0,1-3,.37q-5.1,0-7.63-2.42a7.89,7.89,0,0,1-2.53-5.93,7,7,0,0,1,2.18-5.58q2.18-1.91,7.39-3.19a30.67,30.67,0,0,0,6.06-1.86,2.16,2.16,0,0,0,1.22-2,2.53,2.53,0,0,0-1.2-2.13,6.21,6.21,0,0,0-3.59-.85,5.49,5.49,0,0,0-4,1.25,8.48,8.48,0,0,0-1.91,3.38l-5.74-2.39a10.69,10.69,0,0,1,3-5.08,10.93,10.93,0,0,1,5.77-2.74,5.44,5.44,0,0,1-2.29-4.78,5.68,5.68,0,0,1,1.59-4.07,5.22,5.22,0,0,1,3.93-1.67,5.3,5.3,0,0,1,4,1.65,5.71,5.71,0,0,1,1.57,4.09,5.48,5.48,0,0,1-2.5,4.89,10.38,10.38,0,0,1,6,3.46,11,11,0,0,1,2.23,7.28v17.86Zm-7-11.54a7.39,7.39,0,0,0-3.48,1.51,2.83,2.83,0,0,0-.82,2q0,2.87,4.15,2.87a7.7,7.7,0,0,0,4.7-1.2,3.59,3.59,0,0,0,1.57-3V469h-.11a2.52,2.52,0,0,1-.45.67,6.75,6.75,0,0,1-1.62.8A31.38,31.38,0,0,1,137.68,471.7Zm-.05-20a1.94,1.94,0,0,0,1.49.72,2.1,2.1,0,0,0,1.54-.72,2.75,2.75,0,0,0,.69-2,2.63,2.63,0,0,0-.66-1.94,2.15,2.15,0,0,0-1.57-.66,2,2,0,0,0-1.49.66,2.69,2.69,0,0,0-.64,1.94A2.89,2.89,0,0,0,137.62,451.68Z"/><path class="cls-3" d="M157.34,483.23v-38.8h7.18v38.8Z"/><rect class="cls-5" x="84.09" y="756.85" width="191.23" height="83.25"/><path class="cls-3" d="M109.66,727.12,107.54,721H93.34l-2.13,6.11H84.09l13.45-37.21h6.11l13.4,37.21Zm-9.25-26.58-5,14.51h10.15l-5-14.51Z"/><path class="cls-3" d="M118.38,717.81l6.22-1.59q.74,5.9,6.33,5.9a8.53,8.53,0,0,0,4.07-.82,2.54,2.54,0,0,0,1.51-2.31,2,2,0,0,0-1.17-1.83,31.68,31.68,0,0,0-4.89-1.67l-1.54-.42a20,20,0,0,1-7.18-3.27,6.18,6.18,0,0,1-2.29-5,7.88,7.88,0,0,1,2.84-6.06,11.23,11.23,0,0,1,7.79-2.55q9.46,0,11.85,8.29l-5.74,1.75a7.57,7.57,0,0,0-2.1-3.19,7.21,7.21,0,0,0-7.18-.4,2.19,2.19,0,0,0-1.2,1.83,2,2,0,0,0,1.41,1.83,61.89,61.89,0,0,0,7,2.26q4.94,1.33,6.72,3.38a7.69,7.69,0,0,1,1.78,5.24,8.06,8.06,0,0,1-3,6.09q-3,2.68-8.53,2.68-5.85,0-9-3A12,12,0,0,1,118.38,717.81Z"/><path class="cls-3" d="M145.86,717.81l6.22-1.59q.74,5.9,6.33,5.9a8.53,8.53,0,0,0,4.07-.82A2.54,2.54,0,0,0,164,719a2,2,0,0,0-1.17-1.83,31.68,31.68,0,0,0-4.89-1.67l-1.54-.42a20,20,0,0,1-7.18-3.27,6.18,6.18,0,0,1-2.29-5,7.88,7.88,0,0,1,2.84-6.06,11.23,11.23,0,0,1,7.79-2.55q9.46,0,11.85,8.29l-5.74,1.75a7.57,7.57,0,0,0-2.1-3.19,7.21,7.21,0,0,0-7.18-.4,2.19,2.19,0,0,0-1.2,1.83,2,2,0,0,0,1.41,1.83,61.89,61.89,0,0,0,7,2.26q4.94,1.33,6.72,3.38a7.69,7.69,0,0,1,1.78,5.24,8.06,8.06,0,0,1-3,6.09q-3,2.68-8.53,2.68-5.85,0-9-3A12,12,0,0,1,145.86,717.81Z"/><path class="cls-3" d="M175.47,694.85v-6.54h6.91v6.54Zm0,32.27V698.94h6.91v28.17Z"/><path class="cls-3" d="M187.7,717.81l6.22-1.59q.74,5.9,6.33,5.9a8.53,8.53,0,0,0,4.07-.82,2.54,2.54,0,0,0,1.51-2.31,2,2,0,0,0-1.17-1.83,31.68,31.68,0,0,0-4.89-1.67l-1.54-.42a20,20,0,0,1-7.18-3.27,6.18,6.18,0,0,1-2.29-5,7.88,7.88,0,0,1,2.84-6.06,11.23,11.23,0,0,1,7.79-2.55q9.46,0,11.85,8.29l-5.74,1.75a7.57,7.57,0,0,0-2.1-3.19,7.21,7.21,0,0,0-7.18-.4,2.19,2.19,0,0,0-1.2,1.83,2,2,0,0,0,1.41,1.83,61.89,61.89,0,0,0,7,2.26q4.94,1.33,6.72,3.38a7.69,7.69,0,0,1,1.78,5.24,8.06,8.06,0,0,1-3,6.09q-3,2.68-8.53,2.68-5.85,0-9-3A12,12,0,0,1,187.7,717.81Z"/><path class="cls-3" d="M218.74,717.07V704.79h-4.36v-5.85h4.52V692h6.54v6.91h7.12v5.85h-7v11.64a5,5,0,0,0,.74,3.14q.74.9,3,.9h2.29v6.64h-2.92q-5.69,0-7.81-2.39T218.74,717.07Z"/><path class="cls-3" d="M499.19,566v-3.35q0-5.16,1.91-8,1.75-2.76,8.29-6.22l3-1.65q.77-.42,2.29-1.38a11.73,11.73,0,0,0,2-1.49q.51-.53,1.22-1.43a4.63,4.63,0,0,0,.93-1.83,9.53,9.53,0,0,0,.21-2.1,6.44,6.44,0,0,0-1.89-4.65q-1.89-1.94-5.66-1.94a7.84,7.84,0,0,0-5.87,2.26,9.44,9.44,0,0,0-2.42,6.35l-4.25-.42q.21-5.74,3.69-9a12.68,12.68,0,0,1,9-3.22q5.53,0,8.61,3.11a10.49,10.49,0,0,1,3.08,7.68,12.1,12.1,0,0,1-.69,4.28,8.54,8.54,0,0,1-2.5,3.4,24.6,24.6,0,0,1-2.79,2.18q-1,.61-3.64,2l-.74.43-1.73.93-1.57.85-1.25.72a12.12,12.12,0,0,0-1.17.74l-.88.69a6.46,6.46,0,0,0-.85.8,6.73,6.73,0,0,0-.58.8,9.23,9.23,0,0,0-1.06,4.94h19.56V566Z"/><path class="cls-3" d="M555.7,537.41l-4,1.06q-1.7-6.54-7.5-6.54-4,0-6.86,4t-2.92,11.46l.05.05a7.91,7.91,0,0,1,1-1.65,14.23,14.23,0,0,1,1.94-2,10,10,0,0,1,3.27-1.81,12.92,12.92,0,0,1,4.36-.72,12.49,12.49,0,0,1,8.85,3.4,11.85,11.85,0,0,1,3.64,9.09q0,6.06-3.61,9.54a12.78,12.78,0,0,1-9.25,3.48,14.17,14.17,0,0,1-5.45-1.06,13.92,13.92,0,0,1-8.13-9.06,27.49,27.49,0,0,1-1.25-8.69q0-8.82,4.09-14.41t10.37-5.58a10.84,10.84,0,0,1,7.76,2.71A12.33,12.33,0,0,1,555.7,537.41Zm-11.06,25.3a8.26,8.26,0,0,0,6.35-2.42,9.16,9.16,0,0,0,2.26-6.51,8.77,8.77,0,0,0-2.37-6.41,8.55,8.55,0,0,0-6.41-2.42,8.69,8.69,0,0,0-6.33,2.5,7.88,7.88,0,0,0-2.55,5.79,9.44,9.44,0,0,0,2.55,6.78A8.56,8.56,0,0,0,544.64,562.71Z"/><path class="cls-3" d="M316.17,817.48V785.32l-8,5v-4.78l8.56-5.32h3.56v37.21Z"/><path class="cls-3" d="M331.91,817.48v-3.35q0-5.16,1.91-8,1.75-2.76,8.29-6.22l3-1.65q.77-.42,2.29-1.38a11.73,11.73,0,0,0,2-1.49q.51-.53,1.22-1.43a4.63,4.63,0,0,0,.93-1.83,9.53,9.53,0,0,0,.21-2.1,6.44,6.44,0,0,0-1.89-4.65q-1.89-1.94-5.66-1.94a7.84,7.84,0,0,0-5.87,2.26,9.44,9.44,0,0,0-2.42,6.35l-4.25-.42q.21-5.74,3.69-9a12.68,12.68,0,0,1,9-3.22q5.53,0,8.61,3.11a10.49,10.49,0,0,1,3.08,7.68,12.1,12.1,0,0,1-.69,4.28,8.54,8.54,0,0,1-2.5,3.4,24.6,24.6,0,0,1-2.79,2.18q-1,.61-3.64,2l-.74.43-1.73.93-1.57.85-1.25.72a12.12,12.12,0,0,0-1.17.74l-.88.69a6.46,6.46,0,0,0-.85.8,6.73,6.73,0,0,0-.58.8,9.23,9.23,0,0,0-1.06,4.94h19.56v4.41Z"/><rect class="cls-6" width="1009.13" height="1009.13"/><line class="cls-6" y1="84.09" x2="1009.13" y2="84.09"/><line class="cls-6" y1="168.19" x2="1009.13" y2="168.19"/><line class="cls-6" y1="252.28" x2="1009.13" y2="252.28"/><line class="cls-6" y1="336.38" x2="1009.13" y2="336.38"/><line class="cls-6" y1="420.47" x2="1009.13" y2="420.47"/><line class="cls-6" y1="504.57" x2="1009.13" y2="504.57"/><line class="cls-6" y1="588.66" x2="1009.13" y2="588.66"/><line class="cls-6" y1="672.76" x2="1009.13" y2="672.76"/><line class="cls-6" y1="756.85" x2="1009.13" y2="756.85"/><line class="cls-6" y1="840.94" x2="1009.13" y2="840.94"/><line class="cls-6" y1="925.04" x2="1009.13" y2="925.04"/><line class="cls-6" x1="925.04" y1="1009.13" x2="925.04"/><line class="cls-6" x1="840.94" y1="1009.13" x2="840.94"/><line class="cls-6" x1="756.85" y1="1009.13" x2="756.85"/><line class="cls-6" x1="672.76" y1="1009.13" x2="672.76"/><line class="cls-6" x1="588.66" y1="1009.13" x2="588.66"/><line class="cls-6" x1="504.57" y1="1009.13" x2="504.57"/><line class="cls-6" x1="420.47" y1="1009.13" x2="420.47"/><line class="cls-6" x1="336.38" y1="1009.13" x2="336.38"/><line class="cls-6" x1="252.28" y1="1009.13" x2="252.28"/><line class="cls-6" x1="168.19" y1="1009.13" x2="168.19"/><line class="cls-6" x1="84.09" y1="1009.13" x2="84.09"/></g></svg>