<svg xmlns="http://www.w3.org/2000/svg" xmlns:xlink="http://www.w3.org/1999/xlink" viewBox="0 0 1009.13 1009.13"><defs><style>.cls-1{fill:none;}.cls-2{isolation:isolate;}.cls-3{opacity:0.8;}.cls-4,.cls-7{fill:#002554;}.cls-5{clip-path:url(#clip-path);}.cls-6{opacity:0.4;mix-blend-mode:multiply;}.cls-7{fill-rule:evenodd;}.cls-8{clip-path:url(#clip-path-2);}.cls-9{fill:#fff;}.cls-10{fill:#32baf2;}</style><clipPath id="clip-path"><rect class="cls-1" x="504.46" y="2.67" width="504.22" height="1006.46"/></clipPath><clipPath id="clip-path-2"><rect class="cls-1" width="505.74" height="1001.88"/></clipPath></defs><title>dif_info_carrier</title><g class="cls-2"><g id="Guides"><rect class="cls-4" width="1008.17" height="1009.13"/><g class="cls-5"><g class="cls-6"><polygon class="cls-7" points="792.21 238.37 999.33 238.37 999.33 264.26 792.21 264.26 792.21 238.37 792.21 238.37"/><polygon class="cls-7" points="790.19 225.13 1001.36 225.13 1001.36 234.34 790.19 234.34 790.19 225.13 790.19 225.13"/><polygon class="cls-7" points="868.62 141.7 923.58 141.7 920.73 221.1 871.58 221.1 868.62 141.7 868.62 141.7"/><polygon class="cls-7" points="866.89 107.75 875.85 107.75 875.85 117.53 891.28 117.51 891.29 107.75 900.24 107.75 900.24 117.53 916.93 117.55 916.93 107.75 925.9 107.75 925.9 137.09 866.89 137.09 866.89 107.75 866.89 107.75"/><polygon class="cls-7" points="780.02 150.58 834.66 144.63 840.3 221.1 790.47 221.1 780.02 150.58 780.02 150.58"/><polygon class="cls-7" points="774.58 117.02 783.5 116.05 784.53 125.43 784.57 125.77 799.9 124.08 799.79 123.1 798.85 114.38 807.74 113.41 808.81 123.13 825.41 121.34 824.33 111.61 833.25 110.64 836.45 139.81 777.79 146.19 774.58 117.02 774.58 117.02"/><polygon class="cls-7" points="1011.2 150.58 956.57 144.63 950.92 221.1 1000.75 221.1 1011.2 150.58 1011.2 150.58"/><polygon class="cls-7" points="1016.64 117.02 1007.73 116.05 1006.7 125.43 1006.66 125.77 991.33 124.08 991.43 123.1 992.38 114.38 983.48 113.41 982.41 123.13 965.82 121.34 966.89 111.61 957.98 110.64 954.77 139.81 1013.43 146.19 1016.64 117.02 1016.64 117.02"/><polygon class="cls-7" points="841.14 154.07 846.23 221.1 866.89 221.1 863.89 152.92 841.14 154.07 841.14 154.07"/><polygon class="cls-7" points="951.44 154.07 946.35 221.1 925.69 221.1 928.68 152.92 951.44 154.07 951.44 154.07"/><path class="cls-7" d="M813.31,280.08l164.6.56c-8.27,7.87-65.34,21.29-82.32,33.68-16.24-12.37-78.26-29.13-82.28-34.24Z"/><path class="cls-7" d="M794.61,378.06a36.1,36.1,0,1,1-36.3,36.1,36.2,36.2,0,0,1,36.3-36.1Z"/><path class="cls-7" d="M790.1,322.13h0c2.18,0,4,2.31,4,5.13l1.7,23.58c0,2.82-1.79,5.13-4,5.13h0c-2.18,0-4-2.31-4-5.13l-1.7-23.58c0-2.82,1.79-5.13,4-5.13Z"/><path class="cls-7" d="M816.83,326.55h0c2.08.67,2.63,3.14,2.17,4.83l-3.43,21.23c-.88,2.68-2.45,4.75-4.53,4.07h0c-2.08-.67-3.05-4-2.17-6.66l3.86-19.54c.88-2.68,2-4.61,4.1-3.93Z"/><path class="cls-7" d="M844.48,337h0c1.78,1.26,1.89,4.17.24,6.47l-11.05,19c-1.64,2.3-4.44,3.15-6.22,1.89h0c-1.78-1.26-1.89-4.17-.25-6.47l11.05-19c1.64-2.3,4.44-3.15,6.22-1.89Z"/><path class="cls-7" d="M867.4,349.1h0c1.37,1.69.68,4.52-1.53,6.29L847,375.3c-2.21,1.77-5.14,1.83-6.51.14h0c-1.37-1.69-.68-4.52,1.53-6.29l18.85-19.91c2.21-1.77,5.14-1.83,6.51-.14Z"/><path class="cls-7" d="M914.06,384.22h0c.41,2.13-1,3.75-3.74,4.29l-46.55,12.61c-2.79.54-5.4-.77-5.82-2.9h0c-.41-2.13,1.67-3.61,4.45-4.15l46.41-12.33c2.79-.54,4.84.35,5.25,2.48Z"/><path class="cls-7" d="M896.1,440.92h0c-.66,2.07-3.83,3.07-6.54,2.22l-32.18-8c-2.7-.85-4.52-3-3.86-5h0c.66-2.07,3.13-2.65,5.83-1.8L892.24,436c2.7.85,4.52,2.82,3.86,4.89Z"/><path class="cls-7" d="M870.71,464.49h0c-1.28,1.76-2.93,1.43-5.23-.22l-18.42-11.95c-2.3-1.65-3.14-3.74-1.87-5.5h0c1.28-1.76,3.07-1.71,5.37-.06l18.14,12.09c2.3,1.65,3.28,3.88,2,5.64Z"/><path class="cls-7" d="M853.67,479.34h0c-1.7,1.36-4.12.25-5.9-1.94l-11.52-13.1c-1.78-2.2-2.69-4.27-1-5.63h0c1.7-1.36,3.7.31,5.48,2.51l11.95,12.54c1.78,2.2,2.69,4.27,1,5.63Z"/><path class="cls-7" d="M838.38,495.43h0c-2,.91-4-.58-5.2-3.14l-9.22-17c-1.19-2.56-1.39-4.84.59-5.75h0c2-.91,3.3.72,4.49,3.28L838.69,490c1.19,2.56,1.67,4.56-.31,5.47Z"/><path class="cls-7" d="M820.57,510.63h0c-2.14.45-3.65-1.31-4.24-4.07l-6.64-26.21c-.58-2.76-.73-4.68,1.41-5.13h0c2.14-.45,3.23,1.45,3.81,4.21l7.21,25.65c.58,2.76.58,5.1-1.55,5.55Z"/><path class="cls-7" d="M800.42,522.53h0c-2.18,0-3.41-2.44-3.41-5.26l-2.31-32c0-2.82,1.07-4.85,3.25-4.86h0c2.18,0,3.69,2.16,3.7,5l2.17,31.89c0,2.82-1.21,5.27-3.39,5.28Z"/><path class="cls-7" d="M763.31,541.76h0c-2.09-.63-3.13-3.35-2.31-6.05l9.2-47.45c.82-2.7,3.2-4.4,5.29-3.77h0c2.09.63,3.13,3.35,2.31,6.05L768.6,538c-.82,2.7-3.2,4.4-5.29,3.77Z"/><path class="cls-7" d="M735.28,510.86h0c-1.81-1.21-1.57-3.7,0-6l15.12-25.49c1.58-2.34,4.36-3.26,6.17-2.05h0c1.81,1.21,2,4.12.41,6.46l-15.54,25.06c-1.58,2.34-4.36,3.26-6.17,2.05Z"/><path class="cls-7" d="M716.88,490.78h0c-1.47-1.61-1-5,1.14-6.93l28.47-27.28c2.1-1.9,5.44-2.28,6.91-.67h0c1.47,1.61,1,4.47-1.14,6.37l-28.89,28c-2.1,1.9-5,2.14-6.49.53Z"/><path class="cls-7" d="M708.4,464.41h0c-1-1.93.26-4.57,2.79-5.85l25.55-15.45c2.53-1.28,5.41-.75,6.4,1.18h0c1,1.93-.26,4.56-2.79,5.85l-25.55,15.45c-2.53,1.28-5.41.75-6.4-1.18Z"/><path class="cls-7" d="M695,435.35h0c-.3-2.15,1.75-3.66,4.56-4.05L728.29,422c2.81-.39,5.35,1.06,5.65,3.21h0c.3,2.15-1.75,4.23-4.56,4.61l-28.89,7.93c-2.81.39-5.21-.21-5.51-2.36Z"/><path class="cls-7" d="M676.56,402.07h0c.32-2.15,2.31-3,5.12-2.59l47.56,2.66c2.81.41,4.56,1.95,4.23,4.1h0c-.32,2.15-2.31,3.42-5.12,3l-47.84-3.36c-2.81-.41-4.27-1.67-4-3.81Z"/><path class="cls-7" d="M701.65,369.78h0c1-1.92,4-2.13,6.56-.81l23.14,11.2c2.51,1.32,3.73,4,2.71,5.89h0c-1,1.92-3.9,2.41-6.41,1.1L704.5,376.37c-2.51-1.32-3.87-4.67-2.85-6.59Z"/><path class="cls-7" d="M719,345.6c1.22-1.25,4-.22,5.32,1.09l21.86,20.2c2,2,2.83,4.45,1.29,6l.28-.28c-1.54,1.54-3.73.76-5.75-1.23l-21.86-20.2c-2-2-2.69-4-1.15-5.57Z"/><path class="cls-7" d="M745.21,312.52c2.14-1.12,4.83.68,6,3.31l17.55,35.35c1.11,2.6.95,5-1.06,5.84v.14a4.2,4.2,0,0,1-5.67-2.33l-18-36.48c-1.11-2.6-.73-4.84,1.2-5.84Z"/><polygon class="cls-4" points="807.32 630.4 782.54 618.62 794.15 643.25 807.32 630.4"/><path class="cls-4" d="M778.7,728.43,1120.35,390l-39.85-50.36,25.54-56.8-13.38-6.73L665.26,699.38l28.33,27.74.62-1.14c8.71-16.39,23.4-25.51,42-25.52C755.83,700.44,770.24,711.53,778.7,728.43ZM879.33,609.55a10,10,0,0,1-14.06-.13,9.85,9.85,0,0,1,.13-14,10,10,0,0,1,14.06.13A9.85,9.85,0,0,1,879.33,609.55Zm70.58-68.88a10,10,0,0,1-14.06-.13,9.85,9.85,0,0,1,.13-14,10,10,0,0,1,14.06.13A9.85,9.85,0,0,1,949.91,540.67Zm103.3-128.52a10,10,0,0,1,14.06.13,9.85,9.85,0,0,1-.13,14,10,10,0,0,1-14.06-.13A9.85,9.85,0,0,1,1053.21,412.14Zm-92.38,13.43,1.39,13.23h0l13.49,13.95,14.79-13.6-3-29.65-9.16-1.11,20-19.54-1.59,14.82,2.39,32.52,37.93,4.91,15.66-.84-19.46,19-43.58-5.74L983.09,460,1000,477.08h0l13.27,1.63L984,507.28l-1.35-13.2-37.82-38.33-13.25-1.59Zm-78.7,76.8,1.39,13.23h0l37.75,38.27h0l13.27,1.63-29.29,28.58-1.35-13.2-37.82-38.33L852.84,531ZM795.33,587l2.73,12.8,51.77,23.8,14.59.35-29.29,28.58-3.86-10.75-13.48-6.41L799,653.65,805.34,667l12,2.86L796.76,690l-.39-14.21-24-51.31-13.75-1.65Z"/><path class="cls-4" d="M1219.54,455.62l-42.13-88.86H1125l-18.41-27.08,20.69-49.63c4.83-11.58.18-21.57-7.37-25.39l-73.06-37c-8.07-4.08-23,.16-26.38,13.82-2.77,11.07,2.63,20.27,10.4,21.08,5.19.54,11.53-2.52,12.08-8.65.26-2.95-.9-6-3.12-6.93-.9-.37-1.35-1.24-1-1.78s.88-.61,2.17,0c2.81,1.38,5.13,5.31,5.8,10.33a18.74,18.74,0,0,1-4.94,15.31c-4.19,4.45-9,5.55-14.63,7.42l-68.63,22.8c-22.9,7.61-47.83,17-63,28-15.12-10.95-40-20.36-62.93-28l-70.05-23.27c-5.61-1.87-10.08-3.12-14-7.89a18.74,18.74,0,0,1-4.1-14.37c.67-5,3-8.95,5.8-10.33,1.29-.63,1.9-.44,2.17,0s-.11,1.41-1,1.78c-2.22.93-3.38,4-3.12,6.93.55,6.12,6.89,9.18,12.08,8.65,7.77-.8,13.17-10,10.4-21.08-3.42-13.67-18.3-17.91-26.38-13.82l-73.06,37c-7.55,3.82-12.2,13.81-7.37,25.39l20.69,49.63-18.41,27.08H613.82l-42.13,88.86c-4.74,10-.64,22.79,7.69,27.35a18.47,18.47,0,0,0,8,2c4.68.15,9.24-1.21,11.8-4.94,5.21-7.6-.3-18.45-8.07-18-1.44-.24-1.78-3.43.68-3,6.67.58,11.31,2.5,17.1,4.91,36.06,15.05,53.33,49.73,47.58,93.55S634.79,636.48,604.68,669c-2.55,2.75-5.4,5.32-8,8.22-3.63,4.08-2.29,8.34.26,10.78l88,84.13c14.24,13.62,35.33,12.79,56.48,3.07.17,15.14,0,37.31,17,49.92L881.07,915.9a24.27,24.27,0,0,0,11.14,4.21,1.74,1.74,0,0,0,.74.22q1.17.06,2.35,0l.83,0a4,4,0,0,0,.92-.1,25.27,25.27,0,0,0,13.11-4.41l122.66-90.81c17-12.61,16.83-34.79,17-49.92,21.16,9.72,42.24,10.55,56.48-3.07l88-84.13c2.55-2.44,3.89-6.7.26-10.78-2.58-2.9-5.42-5.47-8-8.22-30.1-32.49-46-67.68-51.78-111.57s11.52-78.5,47.58-93.55c5.79-2.42,10.42-4.33,17.1-4.91,2.46-.4,2.12,2.8.68,3-7.77-.4-13.28,10.44-8.07,18,2.56,3.74,7.12,5.09,11.8,4.94a18.47,18.47,0,0,0,8-2C1220.18,478.41,1224.28,465.61,1219.54,455.62ZM617.48,679.13a217,217,0,0,0,20.88-25.93,201.45,201.45,0,0,0,25.36-52c6.18-19.3,10.39-39.44,10.37-59.73,0-27.48-8-52.23-27.58-72-14.6-14.76-30.55-21.3-49.82-26.78l27.56-59.29,50.84-.58,28.24-41.26-24-57.56c-.39-1-1.48-3.85-.23-4.49l48.67-24.67.12,4.07c1.05,19.64,10.88,28,28.16,34,23.32,8.1,47.64,16,71.37,23.89,25.06,8.37,47.69,16.26,68.18,32.53,21.2-16.28,43.12-24.18,68.2-32.55l68.6-22.79c9.57-3.18,38.72-17.42,46-25.27l1.69,1.92-437,432.78Zm78.42,55.3c-.56,1.08-1.15,1.19-2.09.28L657.74,699.4l433.91-429.65,21.29,10.7-26.3,58.48,40.78,51.54L777.69,736.85c-1,1-1.28-.57-1.61-1.39-10-24.49-26.93-30.14-41.23-29.73C722.13,706.09,705.69,712,695.89,734.44Zm30.66-.92c-4.06-3.38-8.55-7.33-12.61-10.71,15.57-14.21,40.17-9.52,50,7.47,1.13,1.95-.32,3.22-2.69,1.27C749.56,721.9,733.26,720.64,726.56,733.51Zm29.75,26.07c-1.87.37-2.39-1.26-.42-2.68,18.85-13.56,44.79,1.29,38.25,25.78-.63,2.36-2.7,3.16-3.54-.28C786.1,764.05,771.22,756.65,756.3,759.58Zm388.41-290.19c-19.59,19.8-27.58,44.56-27.58,72,0,23,5.16,46,13.06,67.59a209.84,209.84,0,0,0,46.21,73.19L1106.74,747c-1.61,1.49-3,1.22-3.27-.87-2.07-20.28-18.09-33.23-36.41-32.78-9.49.24-30.28,4.81-33.22,34.85-15.94-4.43-36.31,2.6-39.65,19.36-2,10-1,24.39,16.11,33,1.69.85,1.7,1.85-.24,3.34L900.12,896.11a7.53,7.53,0,0,1-4.53,1.24,8.23,8.23,0,0,1-5.16-1.71l-106-89.05c-2.67-2.41-1.92-2.8-.24-3.88,13-7.51,19-20.29,16.88-32.77-1.66-10-11.56-21.27-22.4-23.78l366-362.85H1167l26.76,60.1C1174.4,448.27,1159.22,454.72,1144.72,469.38Z"/><path class="cls-7" d="M991.38,654.76a15.18,15.18,0,1,1-11.47-.14,11.65,11.65,0,1,1,11.47.14Zm-5.61-16.23a6.07,6.07,0,1,1-6.1,6.07,6.09,6.09,0,0,1,6.1-6.07Zm-.3,20.56a9.58,9.58,0,1,1-9.64,9.58,9.61,9.61,0,0,1,9.64-9.58Z"/><polygon class="cls-7" points="949.54 651.08 944 651.08 940.75 656.21 940.69 659.77 944 659.77 944 676.55 949.54 676.55 949.54 651.08 949.54 651.08"/></g></g><g class="cls-8"><g class="cls-6"><path class="cls-4" d="M430.17,152.23c-.38-1.13-.38-3.39-1.89-3.39C339.63,168,239.66,159,160.82,124.84c-20.37-8.26-39.24-18.76-58.47-29.27C28,142.1-56.85,165.74-150,162.73c-25.28,0-50.18-4.5-74.32-7.5-4.15,23.26-7.54,46.9-9.43,69.79-.76,8.25-1.89,17.26-1.51,25.51-1.51,12-1.13,24.76-1.51,37.52.38,27.77,1.51,57,5.28,85.17a555.71,555.71,0,0,0,17,92.67C-183.61,602.84-106.27,731.54,1.24,829.47c30.93,29.27,68.28,57.78,104.88,80.67l3,.75c49.42-30.76,94.31-70.16,135.43-112.19C404.9,626.11,474.69,390.1,430.17,152.23Zm-590,395.45c-46-111.43-60.36-237.87-42.63-359.81l1.13-.75C-94.58,202.51,13.32,180.37,101.22,129c6.41.37,10.94,5.25,17,7.5,36.59,19.14,76.58,32.64,117.7,41.27l.76.75c-15.09,13.88-30.94,28.14-44.9,41.65l-75.83,71.29C24.63,375.85-65.53,463.27-158,546.19-158.33,546.57-159.08,546.94-159.84,547.69Zm570-159.83c-6,43.9-17,87-29.8,128.32C370.19,545.06,360,571.7,346.8,599.84c-30.56,62.28-69.79,124.94-120,176.71-35.08,36.4-71.68,70.16-113.55,99.06-6.41,6-11.32-2.62-16.6-5.25C48.4,837.34,5.39,798-33.84,753.67L-6.3,727l77.71-73.16L111,616.73,264.94,473.4l37.35-34.89,100.34-94.18,10.94-10.13c1.51,1.87.38,6.38,1.13,9.38-1.89,14.26-3,29.27-4.91,43.52Zm-8.3-67.16-56.21,52.9C283.43,434,214.76,493.29,152.9,554.07c-7.54,6.75-15.47,13.88-22.26,21l-1.51.75C72.55,629.12,13.69,684.27-43.65,737.55c-1.51,0-1.51,2.24-3.39,1.5A720.66,720.66,0,0,1-151.92,568l.38-1.51,129.4-121.19L198.54,238.9c20-18,40-37.9,60.74-55.53,5.28-2.26,10.94.75,16.6.75,41.88,5.63,87.9,3.75,129.4-3,4.9,0,1.88,5.25,3,7.88,6,39.77,7.92,79.55,7.54,118.94Z"/><path class="cls-4" d="M301.91,304.19v-.76c-7.54-8.25-15.84-17.63-24.52-25.51-7.92,7.5-15.09,15.76-24.52,22.14l-9.81-10.51,25.65-24.39V264L246.83,240.4l-2.64-1.12c-11.7,12.38-24.52,22.13-36.6,34.89-5.66,5.63-12.45,10.51-17.35,16.14,30.56,34.52,63,65.28,93.93,99,9.81-8.63,19.24-16.51,27.54-26.26-11.32-12-22.26-24-33.58-36C286.07,319.57,293.23,311.69,301.91,304.19Z"/><path class="cls-4" d="M351.33,280.93c-6.41.74-13.58,4.5-16.22,10.5-4.15,6.75-2.64,15,.38,21a22,22,0,0,0,18.86,10.13c6-1.12,12.07-3.75,15.46-9.75,4.15-6.75,4.9-16.88-.38-23.64C364.91,283.55,358.88,279.8,351.33,280.93Z"/><path class="cls-4" d="M104.23,370.22c-9.81,9-19.24,16.88-28.29,25.89,28.67,31.89,60.36,64.53,90.54,96.8.75,1.12,1.13,3.37,2.64,3,9.43-8.63,19.24-17.26,27.92-25.89l-70.17-76.17Z"/><path class="cls-4" d="M232.5,403.24c-6.79-3.37-15.47-1.87-21.13,2.63a22.33,22.33,0,0,0-8.3,20.64c1.89,7.5,8.3,14.26,16.22,15.76,7.54,1.12,15.85-.37,20-7.13,4.9-5.63,6-13.13,3.77-20.64A25.34,25.34,0,0,0,232.5,403.24Z"/><path class="cls-4" d="M-9.69,495.92c-33.2,2.25-51.69,31.89-75.08,50.65l55.08,58.9,38.1,41.27,27.92-25.89c7.54-7.88,17-16.14,21.5-25.89,10.19-19.89,6.42-45.77-4.53-63.78C39,509.8,16.71,494.79-9.69,495.92Zm31.31,91.17c-2.64,2.62-4.15,7.13-8.68,6.75l-45.27-48.4c1.89-3.75,6.42-6,9.81-7.88,8.68-4.5,20.37-4.88,28.67.37,7.17,4.13,12.45,10.13,16.6,17.64C27.65,565.33,27.65,577.71,21.62,587.09Z"/><path class="cls-4" d="M115.93,507.54a22.94,22.94,0,0,0-22.64,7.88c-4.53,6.38-4.53,15.38-1.13,22.14,4.15,6.37,10.94,11.25,19.24,10.5a20.56,20.56,0,0,0,17-10.5c3.4-5.63,3.4-14.26,0-20.26A21.33,21.33,0,0,0,115.93,507.54Z"/></g></g><path class="cls-9" d="M183.43,752l-5.85-29.94h5.89l3.87,20.36h.13l6.92-20.36h2.92l6.92,20.36h.13l3.87-20.36H214L208.16,752h-6l-6.19-18.61h-.26L189.46,752Z"/><path class="cls-9" d="M229.78,752v-2.18h-.09l-.21.32a4.81,4.81,0,0,1-.64.66,7.24,7.24,0,0,1-1.16.86,7.11,7.11,0,0,1-1.76.68,9.3,9.3,0,0,1-2.41.3q-4.13,0-6.17-1.95a6.33,6.33,0,0,1-2-4.77,5.64,5.64,0,0,1,1.76-4.49,14.53,14.53,0,0,1,6-2.57,24.91,24.91,0,0,0,4.9-1.5,1.73,1.73,0,0,0,1-1.58,2,2,0,0,0-1-1.71,5,5,0,0,0-2.9-.68,4.46,4.46,0,0,0-3.27,1,6.83,6.83,0,0,0-1.55,2.72l-4.64-1.92a8.8,8.8,0,0,1,3.18-4.68,9.88,9.88,0,0,1,6.19-1.82,10.45,10.45,0,0,1,6.84,2.18q2.67,2.18,2.67,6.76V752Zm-5.63-9.28a6,6,0,0,0-2.82,1.22,2.27,2.27,0,0,0-.67,1.6q0,2.31,3.35,2.31a6.26,6.26,0,0,0,3.81-1,2.89,2.89,0,0,0,1.27-2.37v-3.94H229a2,2,0,0,1-.37.54,5.49,5.49,0,0,1-1.31.64A25.56,25.56,0,0,1,224.15,742.76Z"/><path class="cls-9" d="M239.39,752V720.81h5.8V752Z"/><path class="cls-9" d="M250.36,752V720.81h5.59v17.92H256l8.3-9.37h7l-8.21,9.2L272.07,752h-6.19l-7-10.35h-.09l-2.88,3.25V752Z"/><path class="cls-9" d="M288.3,744.21l3.91,3.42a10.88,10.88,0,0,1-9.42,5,10.09,10.09,0,0,1-7.78-3.27A14.13,14.13,0,0,1,275,732a9.78,9.78,0,0,1,7.55-3.27A9.65,9.65,0,0,1,290,732a12.52,12.52,0,0,1,2.95,8.7v1.67H277.68a6.07,6.07,0,0,0,1.44,4,4.7,4.7,0,0,0,3.59,1.39,5.15,5.15,0,0,0,3.2-1A11.13,11.13,0,0,0,288.3,744.21Zm-10.62-6h9.89a5.19,5.19,0,0,0-1.5-3.4,4.93,4.93,0,0,0-3.53-1.22,4.54,4.54,0,0,0-3.38,1.33A5.17,5.17,0,0,0,277.68,738.22Z"/><path class="cls-9" d="M296.84,752V729.37h5.29v2.39h.09a5,5,0,0,1,1.91-2.05,5.24,5.24,0,0,1,2.77-.77,5.15,5.15,0,0,1,2.06.43l-.86,5.39a5.22,5.22,0,0,0-1.76-.34q-3.91,0-3.91,5.17V752Z"/><path class="cls-9" d="M334.51,758.88l-1.94,1.58a16.82,16.82,0,0,1-1.89-2.29q-1.16-1.6-2.8-4.38a28.88,28.88,0,0,1-2.75-6.67,28.19,28.19,0,0,1-1.12-7.83A31.42,31.42,0,0,1,326.64,727a30.83,30.83,0,0,1,2.43-4.26,27.3,27.3,0,0,1,2.13-2.84q.73-.79,1.38-1.43l2,1.63a31,31,0,0,0-5.5,8.25,26.74,26.74,0,0,0-2,10.95A27.43,27.43,0,0,0,329.22,750,35.94,35.94,0,0,0,334.51,758.88Z"/><path class="cls-9" d="M336.79,752v-2.69a11.3,11.3,0,0,1,1.55-6.42q1.42-2.22,6.71-5l2.43-1.33q.62-.34,1.85-1.11a9.54,9.54,0,0,0,1.63-1.2q.41-.43,1-1.15a3.72,3.72,0,0,0,.75-1.48,7.6,7.6,0,0,0,.17-1.69,5.17,5.17,0,0,0-1.53-3.74,6.14,6.14,0,0,0-4.58-1.56,6.36,6.36,0,0,0-4.75,1.82,7.58,7.58,0,0,0-2,5.11l-3.44-.34a9.82,9.82,0,0,1,3-7.21,10.29,10.29,0,0,1,7.25-2.59,9.4,9.4,0,0,1,7,2.5,8.41,8.41,0,0,1,2.49,6.18,9.71,9.71,0,0,1-.56,3.44,6.88,6.88,0,0,1-2,2.74,19.94,19.94,0,0,1-2.26,1.75q-.8.49-2.95,1.65l-.6.34-1.4.75-1.27.68-1,.58a9.72,9.72,0,0,0-.95.6l-.71.56a5.13,5.13,0,0,0-.69.64,5.18,5.18,0,0,0-.47.64,7.4,7.4,0,0,0-.86,4H356.4V752Z"/><path class="cls-9" d="M361.79,745.15l3.31-1q1.33,5.35,6.28,5.35,7.14,0,7.18-12.28h-.09a4.68,4.68,0,0,1-.65,1.18,9.44,9.44,0,0,1-1.38,1.48,7.35,7.35,0,0,1-2.43,1.37,9.92,9.92,0,0,1-3.42.56,9.7,9.7,0,0,1-10-10.18,9.69,9.69,0,0,1,2.92-7.33,9.83,9.83,0,0,1,7.05-2.8,10,10,0,0,1,8.32,3.91q3.07,3.91,3.08,11.74,0,8.13-2.92,11.85a9.32,9.32,0,0,1-7.7,3.72,9.49,9.49,0,0,1-6.24-2.05A9.81,9.81,0,0,1,361.79,745.15Zm9-6.54a6.5,6.5,0,0,0,4.88-1.92,6.77,6.77,0,0,0,1.87-4.92,7,7,0,0,0-2-5.07,6.71,6.71,0,0,0-5.05-2,6.29,6.29,0,0,0-4.69,1.88,6.89,6.89,0,0,0-1.85,5,7,7,0,0,0,1.85,5.11A6.58,6.58,0,0,0,370.82,738.61Z"/><path class="cls-9" d="M385.74,760.46l-1.93-1.58a36,36,0,0,0,5.29-8.92,27.43,27.43,0,0,0,2.11-10.71,26.73,26.73,0,0,0-2-10.95,31,31,0,0,0-5.5-8.25l2-1.63q.64.64,1.38,1.43a27.3,27.3,0,0,1,2.13,2.84,30.73,30.73,0,0,1,2.43,4.26,31.37,31.37,0,0,1,2.62,12.34,28.22,28.22,0,0,1-1.12,7.83,28.93,28.93,0,0,1-2.75,6.67q-1.63,2.78-2.79,4.38A16.88,16.88,0,0,1,385.74,760.46Z"/><path class="cls-9" d="M202.74,800.15V770.21h12.77a8.9,8.9,0,0,1,6.43,2.33,7.61,7.61,0,0,1,2.43,5.71,6.21,6.21,0,0,1-3.27,5.69v0a7.14,7.14,0,0,1,3.16,2.59,7.3,7.3,0,0,1,1.23,4.26,9.14,9.14,0,0,1-2.62,6.84q-2.62,2.48-8.64,2.48Zm5.81-17.88h6.24a4.23,4.23,0,0,0,2.77-.83,3,3,0,0,0,1-2.46,3.21,3.21,0,0,0-1-2.57,4.14,4.14,0,0,0-2.79-.86h-6.24Zm0,12.53h7q4.13,0,4.13-4a3.66,3.66,0,0,0-1.1-2.84,4.25,4.25,0,0,0-3-1h-7.05Z"/><path class="cls-9" d="M242.76,800.15V798h-.09l-.21.32a4.81,4.81,0,0,1-.64.66,7.24,7.24,0,0,1-1.16.86,7.11,7.11,0,0,1-1.76.68,9.3,9.3,0,0,1-2.41.3q-4.13,0-6.17-1.95a6.33,6.33,0,0,1-2-4.77,5.64,5.64,0,0,1,1.76-4.49,14.53,14.53,0,0,1,6-2.57,24.91,24.91,0,0,0,4.9-1.5,1.73,1.73,0,0,0,1-1.58,2,2,0,0,0-1-1.71,5,5,0,0,0-2.9-.68,4.46,4.46,0,0,0-3.27,1,6.83,6.83,0,0,0-1.55,2.72l-4.64-1.92a8.8,8.8,0,0,1,3.18-4.68,9.88,9.88,0,0,1,6.19-1.82,10.45,10.45,0,0,1,6.84,2.18q2.67,2.18,2.67,6.76v14.37Zm-5.63-9.28a6,6,0,0,0-2.82,1.22,2.27,2.27,0,0,0-.67,1.6q0,2.31,3.35,2.31a6.26,6.26,0,0,0,3.81-1,2.89,2.89,0,0,0,1.27-2.37v-3.94H242a2,2,0,0,1-.37.54,5.49,5.49,0,0,1-1.31.64A25.56,25.56,0,0,1,237.12,790.87Z"/><path class="cls-9" d="M267.11,800.15V798H267c-.14.2-.35.46-.62.77a7.36,7.36,0,0,1-2,1.26,7.49,7.49,0,0,1-3.42.79,8.86,8.86,0,0,1-7.2-3.25q-2.69-3.25-2.69-8.72t2.92-8.75a9,9,0,0,1,6.88-3.23,7.28,7.28,0,0,1,3.25.71,5.5,5.5,0,0,1,2,1.39l.56.73h.09V768.93h5.59v31.22Zm-.34-9.28v-4.15a4.9,4.9,0,0,0-1.31-3.46,4.66,4.66,0,0,0-3.59-1.41,4.53,4.53,0,0,0-3.81,1.75,10.69,10.69,0,0,0,0,10.41,4.51,4.51,0,0,0,3.81,1.78,4.62,4.62,0,0,0,3.59-1.43A5,5,0,0,0,266.77,790.87Z"/><path class="cls-9" d="M275,808.49v-5.77h1q1.63,0,1.63-1.88V777.49h5.59v24.89q0,6.12-5.89,6.12Zm2.67-34.3v-5.26h5.59v5.26Z"/><path class="cls-9" d="M288.38,774.19v-5.26H294v5.26Zm0,26V777.49H294v22.67Z"/><path class="cls-9" d="M321.88,807l-1.94,1.58a16.82,16.82,0,0,1-1.89-2.29q-1.16-1.6-2.8-4.38a28.88,28.88,0,0,1-2.75-6.67,28.19,28.19,0,0,1-1.12-7.83A31.42,31.42,0,0,1,314,775.07a30.83,30.83,0,0,1,2.43-4.26,27.3,27.3,0,0,1,2.13-2.84q.73-.79,1.38-1.43l2,1.63a31,31,0,0,0-5.5,8.25,26.74,26.74,0,0,0-2,10.95,27.43,27.43,0,0,0,2.11,10.71A35.94,35.94,0,0,0,321.88,807Z"/><path class="cls-9" d="M322.24,793.22V790l12.08-19.8h5.42V790h3.74v3.25h-3.74v6.93H336.3v-6.93Zm3.57-3.25H336.3V772.91h-.09Z"/><path class="cls-9" d="M352.16,800.15V774.28l-6.49,4.06v-3.85l6.92-4.28h2.88v29.94Z"/><path class="cls-9" d="M362.73,808.58,360.79,807a36,36,0,0,0,5.29-8.92,27.43,27.43,0,0,0,2.11-10.71,26.73,26.73,0,0,0-2-10.95,31,31,0,0,0-5.5-8.25l2-1.63q.64.64,1.38,1.43a27.3,27.3,0,0,1,2.13,2.84,30.73,30.73,0,0,1,2.43,4.26,31.37,31.37,0,0,1,2.62,12.34,28.22,28.22,0,0,1-1.12,7.83,28.93,28.93,0,0,1-2.75,6.67q-1.63,2.78-2.79,4.38A16.88,16.88,0,0,1,362.73,808.58Z"/><rect class="cls-10" x="0.33" y="80.58" width="180.11" height="97.21"/><path class="cls-4" d="M64.53,146.47V109.05H88.4v6.68H71.79v9.89h15.1V132H71.79v14.49Z"/><path class="cls-4" d="M102.18,146.47V115.73h-11v-6.68h29.3v6.68h-11v30.74Z"/><path class="cls-9" d="M310.56,370.35H254.45L223.36,402l-33.51-28L225,338.35c6.46-6.8,17-10.4,26.24-10.4h62.57c9.29,0,19.78,3.6,26.24,10.4l25,25.2c6.46,6.4,10.9,16.4,10.9,25.6v42c0,9.2-4.44,19.2-10.9,25.6l-131.2,134.4v5.6H376.77v42.4H189.45v-44.4c0-14.4,4.44-24.8,11.71-32l130.4-134v-37.2Z"/><path class="cls-9" d="M450.24,502.35v-36.4H553.18v36.4Z"/><path class="cls-9" d="M759.48,328c9.29,0,19.78,3.6,26.24,10.4l25,25.2c6.46,6.4,10.9,16.4,10.9,25.6v188.8c0,9.2-4.44,19.2-10.9,25.6l-25,25.2c-6.46,6.8-17,10.4-26.24,10.4H688.83c-9.29,0-19.78-3.6-26.24-10.4l-25-25.2c-6.46-6.4-10.9-16.4-10.9-25.6V389.15c0-9.2,4.44-19.2,10.9-25.6l25-25.2c6.46-6.8,17-10.4,26.24-10.4Zm17.76,63.6-21-21.2H692.06l-21,21.2v100.8l106.17-67.2Zm-85.18,205.2h64.19l21-21.2V474.75l-106.17,67.2v33.6Z"/></g></g></svg>