<svg xmlns="http://www.w3.org/2000/svg" viewBox="0 0 1009.13 1009.13"><defs><style>.cls-1,.cls-2{fill:#fff;}.cls-2{stroke:#000;opacity:0.3;}.cls-2,.cls-5{stroke-miterlimit:10;}.cls-3{fill:#cfb571;}.cls-4{fill:#002554;}.cls-5{fill:none;stroke:aqua;}</style></defs><title>dif_info_carrier</title><g id="Guides"><rect class="cls-1" width="1009.13" height="1009.13"/><line class="cls-2" x1="1009.13" y2="1009.13"/><line class="cls-2" x2="1009.13" y2="1009.13"/><rect class="cls-3" y="504.57" width="336.38" height="167.77"/><rect class="cls-4" y="336.82" width="504.57" height="167.77"/><rect class="cls-5" width="1009.13" height="1009.13"/><line class="cls-5" y1="84.09" x2="1009.13" y2="84.09"/><line class="cls-5" y1="168.19" x2="1009.13" y2="168.19"/><line class="cls-5" y1="252.28" x2="1009.13" y2="252.28"/><line class="cls-5" y1="336.38" x2="1009.13" y2="336.38"/><line class="cls-5" y1="420.47" x2="1009.13" y2="420.47"/><line class="cls-5" y1="504.57" x2="1009.13" y2="504.57"/><line class="cls-5" y1="588.66" x2="1009.13" y2="588.66"/><line class="cls-5" y1="672.76" x2="1009.13" y2="672.76"/><line class="cls-5" y1="756.85" x2="1009.13" y2="756.85"/><line class="cls-5" y1="840.94" x2="1009.13" y2="840.94"/><line class="cls-5" y1="925.04" x2="1009.13" y2="925.04"/><line class="cls-5" x1="925.04" y1="1009.13" x2="925.04"/><line class="cls-5" x1="840.94" y1="1009.13" x2="840.94"/><line class="cls-5" x1="756.85" y1="1009.13" x2="756.85"/><line class="cls-5" x1="672.76" y1="1009.13" x2="672.76"/><line class="cls-5" x1="588.66" y1="1009.13" x2="588.66"/><line class="cls-5" x1="504.57" y1="1009.13" x2="504.57"/><line class="cls-5" x1="420.47" y1="1009.13" x2="420.47"/><line class="cls-5" x1="336.38" y1="1009.13" x2="336.38"/><line class="cls-5" x1="252.28" y1="1009.13" x2="252.28"/><line class="cls-5" x1="168.19" y1="1009.13" x2="168.19"/><line class="cls-5" x1="84.09" y1="1009.13" x2="84.09"/></g></svg>