<svg xmlns="http://www.w3.org/2000/svg" viewBox="0 0 1009.13 1009.13"><defs><style>.cls-1{fill:#002554;}.cls-2{fill:#32baf2;}.cls-3{fill:#fff;}.cls-4{fill:#cfb571;}</style></defs><title>dif_info_carrier</title><g id="Guides"><rect class="cls-1" width="1009.13" height="1009.13"/><rect class="cls-2" x="115.86" y="228.57" width="637.88" height="110.3"/><path class="cls-3" d="M782.18,294.14v-4l14.94-24.61h6.7V290.1h4.63v4h-4.62v8.61h-4.25v-8.61Zm4.41-4h13V268.89h-.11Z"/><path class="cls-3" d="M835.15,300.57q-3.59,3-9.49,3a14.6,14.6,0,0,1-9.54-3,10.17,10.17,0,0,1-3.64-8.35,9.52,9.52,0,0,1,2.07-6.11,10.2,10.2,0,0,1,4.89-3.51v-.11a8,8,0,0,1-3.53-3,9.09,9.09,0,0,1-1.41-5.18,8.92,8.92,0,0,1,3.06-6.7,12.88,12.88,0,0,1,16.21,0,9.33,9.33,0,0,1,1.62,11.88,8.21,8.21,0,0,1-3.51,3v.11a10.54,10.54,0,0,1,4.86,3.56,9.55,9.55,0,0,1,2,6.06A10.24,10.24,0,0,1,835.15,300.57Zm-9.49-1.17a9.17,9.17,0,0,0,6.3-2,6.73,6.73,0,0,0,2.31-5.29,6.83,6.83,0,0,0-2.39-5.42,9.16,9.16,0,0,0-6.22-2.07,9.26,9.26,0,0,0-6.25,2.07,7.25,7.25,0,0,0-.11,10.71A9.25,9.25,0,0,0,825.66,299.4Zm5.13-29a8.36,8.36,0,0,0-10.29,0,5.94,5.94,0,0,0-1.75,4.33,5.81,5.81,0,0,0,1.91,4.44,7,7,0,0,0,5,1.78,6.94,6.94,0,0,0,5-1.78,5.85,5.85,0,0,0,1.89-4.44A6,6,0,0,0,830.79,270.38Z"/><path class="cls-3" d="M116.12,203.08V165.87h7.39L134.3,190h.11l10.79-24.13h7.44v37.21h-7V180.22h-.11l-10.58,22.86h-1.17l-10.58-22.86h-.11v22.86Z"/><path class="cls-3" d="M176.67,203.08v-2.71h-.11l-.27.4a6,6,0,0,1-.8.82,7.77,7.77,0,0,1-3.61,1.91,11.42,11.42,0,0,1-3,.37q-5.1,0-7.63-2.42a7.89,7.89,0,0,1-2.53-5.93,7,7,0,0,1,2.18-5.58q2.18-1.91,7.39-3.19a30.67,30.67,0,0,0,6.06-1.86,2.16,2.16,0,0,0,1.22-2,2.53,2.53,0,0,0-1.2-2.13,6.21,6.21,0,0,0-3.59-.85,5.49,5.49,0,0,0-4,1.25,8.48,8.48,0,0,0-1.91,3.38l-5.74-2.39a11,11,0,0,1,3.93-5.82,12.17,12.17,0,0,1,7.65-2.26,12.87,12.87,0,0,1,8.45,2.71q3.3,2.71,3.3,8.4v17.86Zm-7-11.54a7.39,7.39,0,0,0-3.48,1.51,2.83,2.83,0,0,0-.82,2q0,2.87,4.15,2.87a7.7,7.7,0,0,0,4.7-1.2,3.59,3.59,0,0,0,1.57-3v-4.89h-.11a2.52,2.52,0,0,1-.45.67,6.75,6.75,0,0,1-1.62.8A31.38,31.38,0,0,1,169.71,191.55Z"/><path class="cls-3" d="M190.81,193V180.76h-4.36v-5.85H191V168h6.54v6.91h7.12v5.85h-7V192.4a5,5,0,0,0,.74,3.14q.74.9,3,.9h2.29v6.64h-2.92q-5.69,0-7.81-2.39T190.81,193Z"/><path class="cls-3" d="M226.85,191.71l6.54,1.7a12.94,12.94,0,0,1-4.15,7.76,12,12,0,0,1-8,2.71,12.37,12.37,0,0,1-9.44-3.93q-3.69-3.93-3.69-11t3.8-10.92a12.49,12.49,0,0,1,9.38-4,11.67,11.67,0,0,1,7.92,2.76,11.93,11.93,0,0,1,3.93,7.39l-6.43,1.22q-1-5.16-5.42-5.16a5.6,5.6,0,0,0-4.65,2.21q-1.73,2.21-1.73,6.46t1.7,6.46a5.58,5.58,0,0,0,4.68,2.21Q225.94,197.66,226.85,191.71Z"/><path class="cls-3" d="M238.7,203.08v-38.8h6.91v13.34h.11a7.23,7.23,0,0,1,2.82-2.45,8.4,8.4,0,0,1,4-1.06,9.49,9.49,0,0,1,7.18,2.76,10.29,10.29,0,0,1,2.66,7.44v18.76H255.5V185.86a5.86,5.86,0,0,0-1.25-3.85,4.58,4.58,0,0,0-3.75-1.51,4.71,4.71,0,0,0-3.64,1.36,5,5,0,0,0-1.25,3.54v17.7Z"/><path class="cls-3" d="M287.87,193.35l4.84,4.25a13.43,13.43,0,0,1-11.64,6.27,12.45,12.45,0,0,1-9.62-4.07q-3.72-4.07-3.72-10.82t3.69-10.82a12.06,12.06,0,0,1,9.33-4.07,11.9,11.9,0,0,1,9.28,4.07q3.64,4.07,3.64,10.82v2.07H274.74a7.56,7.56,0,0,0,1.78,5,5.79,5.79,0,0,0,4.44,1.73,6.35,6.35,0,0,0,4-1.2A13.78,13.78,0,0,0,287.87,193.35Zm-13.13-7.44H287a6.47,6.47,0,0,0-1.86-4.23,6.07,6.07,0,0,0-4.36-1.51,5.6,5.6,0,0,0-4.17,1.65A6.44,6.44,0,0,0,274.74,185.91Z"/><path class="cls-3" d="M299.25,203.08V174.91h6.54v3h.11a6.18,6.18,0,0,1,2.37-2.55,6.46,6.46,0,0,1,3.43-1,6.33,6.33,0,0,1,2.55.53l-1.06,6.7a6.42,6.42,0,0,0-2.18-.42q-4.84,0-4.84,6.43v15.47Z"/><rect class="cls-4" x="115.86" y="450.5" width="345.52" height="110.3"/><path class="cls-3" d="M116.12,425V387.8h7.39l10.79,24.13h.11L145.2,387.8h7.44V425h-7V402.15h-.11L134.94,425h-1.17l-10.58-22.86h-.11V425Z"/><path class="cls-3" d="M176.67,425V422.3h-.11l-.27.4a6,6,0,0,1-.8.82,7.77,7.77,0,0,1-3.61,1.91,11.42,11.42,0,0,1-3,.37q-5.1,0-7.63-2.42a7.89,7.89,0,0,1-2.53-5.93,7,7,0,0,1,2.18-5.58q2.18-1.91,7.39-3.19a30.67,30.67,0,0,0,6.06-1.86,2.16,2.16,0,0,0,1.22-2,2.53,2.53,0,0,0-1.2-2.13,6.21,6.21,0,0,0-3.59-.85,5.49,5.49,0,0,0-4,1.25,8.48,8.48,0,0,0-1.91,3.38l-5.74-2.39a10.69,10.69,0,0,1,3-5.08,10.93,10.93,0,0,1,5.77-2.74,5.44,5.44,0,0,1-2.29-4.78,5.68,5.68,0,0,1,1.59-4.07,5.22,5.22,0,0,1,3.93-1.67,5.3,5.3,0,0,1,4,1.65,5.71,5.71,0,0,1,1.57,4.09,5.48,5.48,0,0,1-2.5,4.89,10.38,10.38,0,0,1,6,3.46,11,11,0,0,1,2.23,7.28V425Zm-7-11.54a7.39,7.39,0,0,0-3.48,1.51,2.83,2.83,0,0,0-.82,2q0,2.87,4.15,2.87a7.7,7.7,0,0,0,4.7-1.2,3.59,3.59,0,0,0,1.57-3v-4.89h-.11a2.52,2.52,0,0,1-.45.67,6.75,6.75,0,0,1-1.62.8A31.38,31.38,0,0,1,169.71,413.47Zm-.05-20a1.94,1.94,0,0,0,1.49.72,2.1,2.1,0,0,0,1.54-.72,2.75,2.75,0,0,0,.69-2,2.63,2.63,0,0,0-.66-1.94,2.15,2.15,0,0,0-1.57-.66,2,2,0,0,0-1.49.66,2.69,2.69,0,0,0-.64,1.94A2.89,2.89,0,0,0,169.65,393.46Z"/><path class="cls-3" d="M189.37,425v-38.8h7.18V425Z"/><rect class="cls-3" x="115.86" y="671.1" width="159.47" height="110.3"/><path class="cls-3" d="M141.69,645.61l-2.13-6.11H125.37l-2.13,6.11h-7.12l13.45-37.21h6.11l13.4,37.21ZM132.44,619l-5,14.51h10.15l-5-14.51Z"/><path class="cls-3" d="M150.41,636.31l6.22-1.59q.74,5.9,6.33,5.9a8.53,8.53,0,0,0,4.07-.82,2.54,2.54,0,0,0,1.51-2.31,2,2,0,0,0-1.17-1.83,31.68,31.68,0,0,0-4.89-1.67l-1.54-.42a20,20,0,0,1-7.18-3.27,6.18,6.18,0,0,1-2.29-5,7.88,7.88,0,0,1,2.84-6.06,11.23,11.23,0,0,1,7.79-2.55q9.46,0,11.85,8.29l-5.74,1.75a7.57,7.57,0,0,0-2.1-3.19,7.21,7.21,0,0,0-7.18-.4,2.19,2.19,0,0,0-1.2,1.83,2,2,0,0,0,1.41,1.83,61.89,61.89,0,0,0,7,2.26q4.94,1.33,6.72,3.38a7.69,7.69,0,0,1,1.78,5.24,8.06,8.06,0,0,1-3,6.09q-3,2.68-8.53,2.68-5.85,0-9-3A12,12,0,0,1,150.41,636.31Z"/><path class="cls-3" d="M177.89,636.31l6.22-1.59q.74,5.9,6.33,5.9a8.53,8.53,0,0,0,4.07-.82,2.54,2.54,0,0,0,1.51-2.31,2,2,0,0,0-1.17-1.83A31.68,31.68,0,0,0,190,634l-1.54-.42a20,20,0,0,1-7.18-3.27,6.18,6.18,0,0,1-2.29-5,7.88,7.88,0,0,1,2.84-6.06,11.23,11.23,0,0,1,7.79-2.55q9.46,0,11.85,8.29l-5.74,1.75a7.57,7.57,0,0,0-2.1-3.19,7.21,7.21,0,0,0-7.18-.4,2.19,2.19,0,0,0-1.2,1.83,2,2,0,0,0,1.41,1.83,61.89,61.89,0,0,0,7,2.26q4.94,1.33,6.72,3.38a7.69,7.69,0,0,1,1.78,5.24,8.06,8.06,0,0,1-3,6.09q-3,2.68-8.53,2.68-5.85,0-9-3A12,12,0,0,1,177.89,636.31Z"/><path class="cls-3" d="M207.5,613.34v-6.54h6.91v6.54Zm0,32.27V617.44h6.91v28.17Z"/><path class="cls-3" d="M219.73,636.31l6.22-1.59q.74,5.9,6.33,5.9a8.53,8.53,0,0,0,4.07-.82,2.54,2.54,0,0,0,1.51-2.31,2,2,0,0,0-1.17-1.83,31.68,31.68,0,0,0-4.89-1.67l-1.54-.42a20,20,0,0,1-7.18-3.27,6.18,6.18,0,0,1-2.29-5,7.88,7.88,0,0,1,2.84-6.06,11.23,11.23,0,0,1,7.79-2.55q9.46,0,11.85,8.29l-5.74,1.75a7.57,7.57,0,0,0-2.1-3.19,7.21,7.21,0,0,0-7.18-.4,2.19,2.19,0,0,0-1.2,1.83,2,2,0,0,0,1.41,1.83,61.89,61.89,0,0,0,7,2.26q4.94,1.33,6.72,3.38a7.69,7.69,0,0,1,1.78,5.24,8.06,8.06,0,0,1-3,6.09q-3,2.68-8.53,2.68-5.85,0-9-3A12,12,0,0,1,219.73,636.31Z"/><path class="cls-3" d="M250.77,635.56V623.28h-4.36v-5.85h4.52v-6.91h6.54v6.91h7.12v5.85h-7v11.64a5,5,0,0,0,.74,3.14q.74.9,3,.9h2.29v6.64h-2.92q-5.69,0-7.81-2.39T250.77,635.56Z"/><path class="cls-3" d="M499.19,522v-3.35q0-5.16,1.91-8,1.75-2.76,8.29-6.22l3-1.65q.77-.42,2.29-1.38a11.73,11.73,0,0,0,2-1.49q.51-.53,1.22-1.43a4.63,4.63,0,0,0,.93-1.83,9.53,9.53,0,0,0,.21-2.1,6.44,6.44,0,0,0-1.89-4.65Q515.3,488,511.52,488a7.84,7.84,0,0,0-5.87,2.26,9.44,9.44,0,0,0-2.42,6.35l-4.25-.42q.21-5.74,3.69-9a12.68,12.68,0,0,1,9-3.22q5.53,0,8.61,3.11a10.49,10.49,0,0,1,3.08,7.68,12.1,12.1,0,0,1-.69,4.28,8.54,8.54,0,0,1-2.5,3.4,24.6,24.6,0,0,1-2.79,2.18q-1,.61-3.64,2l-.74.43-1.73.93-1.57.85-1.25.72a12.12,12.12,0,0,0-1.17.74l-.88.69a6.46,6.46,0,0,0-.85.8,6.73,6.73,0,0,0-.58.8,9.23,9.23,0,0,0-1.06,4.94h19.56V522Z"/><path class="cls-3" d="M555.7,493.48l-4,1.06Q550,488,544.16,488q-4,0-6.86,4t-2.92,11.46l.05.05a7.91,7.91,0,0,1,1-1.65,14.23,14.23,0,0,1,1.94-2,10,10,0,0,1,3.27-1.81,12.92,12.92,0,0,1,4.36-.72,12.49,12.49,0,0,1,8.85,3.4,11.85,11.85,0,0,1,3.64,9.09q0,6.06-3.61,9.54a12.78,12.78,0,0,1-9.25,3.48,14.17,14.17,0,0,1-5.45-1.06,13.92,13.92,0,0,1-8.13-9.06,27.49,27.49,0,0,1-1.25-8.69q0-8.82,4.09-14.41T544.27,484a10.84,10.84,0,0,1,7.76,2.71A12.33,12.33,0,0,1,555.7,493.48Zm-11.06,25.3a8.26,8.26,0,0,0,6.35-2.42,9.16,9.16,0,0,0,2.26-6.51,8.77,8.77,0,0,0-2.37-6.41,8.55,8.55,0,0,0-6.41-2.42,8.69,8.69,0,0,0-6.33,2.5,7.88,7.88,0,0,0-2.55,5.79,9.44,9.44,0,0,0,2.55,6.78A8.56,8.56,0,0,0,544.64,518.78Z"/><path class="cls-3" d="M316.17,740.48V708.32l-8,5v-4.78l8.56-5.32h3.56v37.21Z"/><path class="cls-3" d="M331.91,740.48v-3.35q0-5.16,1.91-8,1.75-2.76,8.29-6.22l3-1.65q.77-.42,2.29-1.38a11.73,11.73,0,0,0,2-1.49q.51-.53,1.22-1.43a4.63,4.63,0,0,0,.93-1.83,9.53,9.53,0,0,0,.21-2.1,6.44,6.44,0,0,0-1.89-4.65q-1.89-1.94-5.66-1.94a7.84,7.84,0,0,0-5.87,2.26,9.44,9.44,0,0,0-2.42,6.35l-4.25-.42q.21-5.74,3.69-9a12.68,12.68,0,0,1,9-3.22q5.53,0,8.61,3.11a10.49,10.49,0,0,1,3.08,7.68,12.1,12.1,0,0,1-.69,4.28,8.54,8.54,0,0,1-2.5,3.4,24.6,24.6,0,0,1-2.79,2.18q-1,.61-3.64,2l-.74.43-1.73.93-1.57.85-1.25.72a12.12,12.12,0,0,0-1.17.74l-.88.69a6.46,6.46,0,0,0-.85.8,6.73,6.73,0,0,0-.58.8,9.23,9.23,0,0,0-1.06,4.94h19.56v4.41Z"/><path class="cls-3" d="M556.42,918.5l.41-6.51H551v-2.71h6l.45-6.15h-5v-2.67h5.15l.5-6.6H561l-.45,6.6h6l.45-6.6h2.94l-.45,6.6h5.69v2.67H569.3l-.41,6.15h4.83V912h-5l-.41,6.51h-2.94l.41-6.51h-6l-.41,6.51Zm3.52-9.22h6l.41-6.15h-6Z"/><path class="cls-3" d="M589.36,925.51l-9.67-23.95h3.79l7.32,18.75h.09l7.32-18.75H602l-9.67,23.95Z"/><path class="cls-3" d="M620,925.51v-2.62h-.09a6.58,6.58,0,0,1-2.58,2.24,9.62,9.62,0,0,1-4.74,1.06q-4,0-6-1.94a6.43,6.43,0,0,1-2.06-4.88,6.06,6.06,0,0,1,1.83-4.68q1.83-1.69,6.21-2.82,1.63-.41,2.42-.63t1.83-.61a5.59,5.59,0,0,0,1.49-.75,3.57,3.57,0,0,0,.79-.9,2.26,2.26,0,0,0,.34-1.22,3.17,3.17,0,0,0-1.24-2.55,5.88,5.88,0,0,0-3.77-1q-4.79,0-5.83,4.74l-3.34-.95a8.48,8.48,0,0,1,2.94-5.13,9.19,9.19,0,0,1,6.1-2,9.82,9.82,0,0,1,6.57,2.06q2.42,2.06,2.42,6.44v16.13Zm-6.6-10.8a11.07,11.07,0,0,0-4.18,1.85,3.3,3.3,0,0,0-1.11,2.58q0,3.75,4.74,3.75a7.63,7.63,0,0,0,5-1.47,4.51,4.51,0,0,0,1.76-3.59v-6h-.09Q618.91,913.17,613.4,914.71Zm-5.06-16.81v-4.11h4.11v4.11Zm8.68,0v-4.11h4.11v4.11Z"/><path class="cls-3" d="M630.47,925.51v-33h3.75v33Z"/><path class="cls-3" d="M641.91,925.51v-33h3.71v20h.09l10.08-11h4.92L651.94,911l9.85,14.46h-4.29l-8.22-12.15h-.09l-3.57,3.84v8.31Z"/><path class="cls-3" d="M674.71,926.18a10.15,10.15,0,0,1-7.82-3.34q-3.07-3.34-3.07-9.31t3.16-9.26a10.17,10.17,0,0,1,7.73-3.39,9.91,9.91,0,0,1,7.61,3.39q3.09,3.39,3.09,9.26t-3,9.31A9.91,9.91,0,0,1,674.71,926.18Zm0-3.34a6.25,6.25,0,0,0,5-2.46,12.72,12.72,0,0,0,0-13.69,6.23,6.23,0,0,0-5.06-2.46,6.49,6.49,0,0,0-5.2,2.42q-2,2.42-2,6.89t2,6.89A6.49,6.49,0,0,0,674.71,922.84Z"/><path class="cls-3" d="M691.52,925.51V901.56h3.34v2.3h.09a6.3,6.3,0,0,1,2.53-2.15,7.88,7.88,0,0,1,3.57-.84,7.07,7.07,0,0,1,3.86,1,7.26,7.26,0,0,1,2.46,2.51h.09a7.17,7.17,0,0,1,2.64-2.49,8,8,0,0,1,4.09-1,7.72,7.72,0,0,1,8.27,8.31v16.31H718.9V910.33q0-6.05-4.88-6.05a5,5,0,0,0-3.86,1.51,6,6,0,0,0-1.38,4.22v15.5h-3.57V910.33q0-6.05-4.88-6.05a4.64,4.64,0,0,0-3.89,1.6,6.47,6.47,0,0,0-1.27,4.13v15.5Z"/><path class="cls-3" d="M729.92,925.51V901.56h3.34v2.3h.09a6.3,6.3,0,0,1,2.53-2.15,7.88,7.88,0,0,1,3.57-.84,7.07,7.07,0,0,1,3.86,1,7.26,7.26,0,0,1,2.46,2.51h.09a7.17,7.17,0,0,1,2.64-2.49,8,8,0,0,1,4.09-1,7.72,7.72,0,0,1,8.27,8.31v16.31H757.3V910.33q0-6.05-4.88-6.05a5,5,0,0,0-3.86,1.51,6,6,0,0,0-1.38,4.22v15.5h-3.57V910.33q0-6.05-4.88-6.05a4.64,4.64,0,0,0-3.89,1.6,6.47,6.47,0,0,0-1.27,4.13v15.5Z"/><path class="cls-3" d="M784.91,918.14l3,1.94a11.91,11.91,0,0,1-3.86,4.36,10.56,10.56,0,0,1-6.17,1.74,10.29,10.29,0,0,1-8-3.46,13.21,13.21,0,0,1-3.12-9.2,13.39,13.39,0,0,1,3-9.19,10,10,0,0,1,7.88-3.46,9.87,9.87,0,0,1,7.77,3.39q3,3.39,3,9.26v1.08h-18a9.37,9.37,0,0,0,1.92,5.83,6.45,6.45,0,0,0,5.4,2.39,8.11,8.11,0,0,0,2.53-.38,8.93,8.93,0,0,0,1.81-.77,5.34,5.34,0,0,0,1.33-1.26,13.63,13.63,0,0,0,.86-1.15Q784.46,919,784.91,918.14Zm-14.37-6.46h14.23a8.75,8.75,0,0,0-1.81-5.24,7.24,7.24,0,0,0-10.57.16A8.47,8.47,0,0,0,770.54,911.68Z"/><path class="cls-3" d="M794.53,925.51V901.56h3.61v2.3h.09a7.17,7.17,0,0,1,2.85-2.15,9.35,9.35,0,0,1,3.89-.84,8.42,8.42,0,0,1,6.26,2.39,8.84,8.84,0,0,1,2.37,6.51v15.72h-3.66V911q0-6.69-5.51-6.69a6.32,6.32,0,0,0-4.5,1.58,5.7,5.7,0,0,0-1.69,4.38v15.27Z"/><path class="cls-3" d="M821.05,925.51v-33h3.71v20h.09l10.08-11h4.92L831.08,911l9.85,14.46h-4.29l-8.22-12.15h-.09l-3.57,3.84v8.31Z"/><path class="cls-3" d="M845.45,896.72v-4.2h4.25v4.2Zm.27,28.78V901.56h3.71v23.95Z"/><path class="cls-3" d="M857.38,925.51V901.56h3.34v2.3h.09a6.3,6.3,0,0,1,2.53-2.15,7.88,7.88,0,0,1,3.57-.84,7.07,7.07,0,0,1,3.86,1,7.26,7.26,0,0,1,2.46,2.51h.09a7.17,7.17,0,0,1,2.64-2.49,8,8,0,0,1,4.09-1,7.72,7.72,0,0,1,8.27,8.31v16.31h-3.57V910.33q0-6.05-4.88-6.05a5,5,0,0,0-3.86,1.51,6,6,0,0,0-1.38,4.22v15.5h-3.57V910.33q0-6.05-4.88-6.05a4.64,4.64,0,0,0-3.89,1.6A6.47,6.47,0,0,0,861,910v15.5Z"/></g></svg>