<?xml version="1.0" encoding="utf-8"?>
<!-- Generator: Adobe Illustrator 20.1.0, SVG Export Plug-In . SVG Version: 6.00 Build 0)  -->
<svg version="1.1" id="Layer_1" xmlns="http://www.w3.org/2000/svg" xmlns:xlink="http://www.w3.org/1999/xlink" x="0px" y="0px"
	 viewBox="0 0 1000.7 420.4" style="enable-background:new 0 0 1000.7 420.4;" xml:space="preserve">
<style type="text/css">
	.st0{fill:#CFB571;}
	.st1{fill:#002554;}
	.st2{fill:#FFFFFF;}
</style>
<g id="Guides">
	<rect x="1.2" y="280.3" class="st0" width="749.6" height="140.1"/>
	<rect x="1.2" class="st1" width="999.5" height="280.2"/>
	<path class="st2" d="M130.2,72.8h56.1c4.1,0,8.1,1.6,11.1,4.4L208,87.9c2.8,2.9,4.5,6.8,4.6,10.9v41.8c-0.1,4.1-1.8,8-4.6,10.9
		l-10.6,10.7c-1.9,1.9-4.2,3.2-6.8,3.9l22,27.8v11.4h-14.7l-30.2-38.7H149v38.7h-18.7V72.8H130.2z M193.8,99.9l-8.9-9h-36v57.8h36
		l8.9-9V99.9z"/>
	<path class="st2" d="M265.2,205.5c-4.1,0-8.1-1.6-11.1-4.4l-10.6-10.7c-2.8-2.9-4.5-6.8-4.6-10.9V72.8h18.8v105.5l8.9,9h30.5l8.9-9
		V72.8h18.8v106.6c-0.1,4.1-1.8,8-4.6,10.9L309.6,201c-3,2.9-6.9,4.5-11.1,4.4h-33.3V205.5z"/>
	<path class="st2" d="M433.3,118.8c-0.1,4.1-1.8,8-4.6,10.9l-4.4,4.4l7.8,7.8c2.8,2.9,4.5,6.8,4.6,10.9v26.4
		c-0.1,4.1-1.8,8-4.6,10.9l-10.6,10.7c-3,2.9-6.9,4.5-11.1,4.4h-56.1V72.8H407c4.1,0,8.1,1.6,11.1,4.4l10.6,10.7
		c2.8,2.9,4.5,6.8,4.6,10.9V118.8z M414.6,117.8V99.9l-8.9-9h-32.6v36h32.6L414.6,117.8z M373.1,145v42.4h36l8.9-9V154l-8.9-9H373.1
		z"/>
	<path class="st2" d="M463.8,72.8h56.1c4.1,0,8.1,1.6,11.1,4.4l10.6,10.7c2.8,2.9,4.5,6.8,4.6,10.9v41.8c-0.1,4.1-1.8,8-4.6,10.9
		L531,162.3c-1.9,1.9-4.2,3.2-6.8,3.9l22,27.8v11.4h-14.7l-30.2-38.7h-18.8v38.7h-18.8L463.8,72.8L463.8,72.8z M527.4,99.9l-8.9-9
		h-36v57.8h36l8.9-9V99.9z"/>
	<path class="st2" d="M570.2,72.8h46.7v17.4h-14v97.9h14v17.4h-46.7v-17.4h14V90.2h-14V72.8z"/>
	<path class="st2" d="M686.7,127.7l47.2,66.3v11.4h-14.7L673.3,141L663,151.4v54h-18.7V72.8H663v52.7l52.7-52.7h14.7v11.1
		L686.7,127.7z"/>
	<path class="st1" d="M126.1,354.7v-16.1h4.6v15.9c-0.1,1.1,0.3,2.3,1.1,3.1c0.9,0.8,2.1,1.2,3.3,1.1c1.2,0.1,2.4-0.3,3.3-1.1
		c0.8-0.8,1.2-1.9,1.1-3v-16h4.6v16.1c0.1,2.3-0.8,4.6-2.5,6.1c-3.9,2.8-9.2,2.8-13.1,0C126.9,359.2,126,357,126.1,354.7z"/>
	<path class="st1" d="M148.7,362.4v-18.1h4.3v1.7h0.1c0.5-0.7,1.2-1.2,2-1.6s1.8-0.7,2.7-0.6c1.8-0.1,3.5,0.6,4.7,1.8
		c1.2,1.4,1.8,3.2,1.7,5v11.8h-4.4v-10.8c0.1-1-0.2-2-0.7-2.8c-0.6-0.7-1.5-1-2.5-0.9c-1.8-0.2-3.3,1.2-3.5,2.9c0,0.2,0,0.3,0,0.5
		v11L148.7,362.4z"/>
	<path class="st1" d="M180.3,362.4v-1.7h-0.1c-0.1,0.2-0.3,0.4-0.5,0.6c-0.5,0.4-1,0.8-1.6,1c-0.8,0.4-1.8,0.6-2.7,0.6
		c-2.2,0.1-4.3-0.9-5.7-2.6c-1.5-2-2.3-4.5-2.1-7c-0.1-2.5,0.7-5,2.3-7c1.3-1.6,3.3-2.6,5.5-2.6c0.9,0,1.8,0.2,2.6,0.6
		c0.6,0.3,1.1,0.6,1.6,1.1l0.4,0.6h0.1v-8.4h4.4v24.9L180.3,362.4z M180.1,355v-3.3c0-1-0.3-2-1-2.8s-1.8-1.2-2.9-1.1
		c-1.2,0-2.3,0.5-3,1.4c-1.4,2.6-1.4,5.7,0,8.3c0.7,0.9,1.8,1.5,3,1.4c1.1,0.1,2.1-0.4,2.9-1.1C179.7,357,180.1,356,180.1,355
		L180.1,355z"/>
	<path class="st1" d="M201,356.2l3.1,2.7c-1.6,2.5-4.5,4.1-7.5,4c-2.3,0.1-4.6-0.9-6.2-2.6c-3.2-4.1-3.2-9.8,0-13.9
		c1.5-1.7,3.7-2.7,6-2.6c2.3-0.1,4.5,0.9,6,2.6c1.6,1.9,2.5,4.4,2.3,6.9v1.3h-12.2c0,1.2,0.4,2.3,1.1,3.2c0.7,0.8,1.8,1.2,2.9,1.1
		c0.9,0,1.8-0.2,2.5-0.8C199.8,357.6,200.5,357,201,356.2z M192.6,351.4h7.8c-0.1-1-0.5-2-1.2-2.7c-0.8-0.7-1.8-1-2.8-1
		s-2,0.3-2.7,1.1C193,349.5,192.6,350.4,192.6,351.4z"/>
	<path class="st1" d="M208.2,362.4v-18.1h4.2v1.9h0.1c0.3-0.7,0.9-1.2,1.5-1.6c0.7-0.4,1.4-0.6,2.2-0.6c0.6,0,1.1,0.1,1.6,0.3
		l-0.7,4.3c-0.4-0.2-0.9-0.3-1.4-0.3c-2.1,0-3.1,1.4-3.1,4.1v9.9L208.2,362.4z"/>
	<path class="st1" d="M220.5,362.4v-18.1h4.2v1.9h0.1c0.3-0.7,0.9-1.2,1.5-1.6c0.7-0.4,1.4-0.6,2.2-0.6c0.6,0,1.1,0.1,1.6,0.3
		l-0.7,4.3c-0.4-0.2-0.9-0.3-1.4-0.3c-2.1,0-3.1,1.4-3.1,4.1v9.9L220.5,362.4z"/>
	<path class="st1" d="M232.8,356v-11.7h4.4v11.2c-0.1,0.9,0.1,1.7,0.6,2.4c0.6,0.5,1.3,0.8,2.1,0.7c0.9,0,1.9-0.2,2.6-0.8
		c0.7-0.7,1.1-1.7,1-2.6v-10.9h4.4v18.1h-4.2v-1.7h-0.1c-1.1,1.5-2.9,2.3-4.7,2.2c-1.8,0.1-3.5-0.6-4.6-1.9
		C233.2,359.6,232.7,357.8,232.8,356z"/>
	<path class="st1" d="M252.7,362.4v-24.9h4.4v8.6h0.1l0.2-0.3c0.2-0.2,0.3-0.4,0.5-0.5c0.3-0.3,0.6-0.5,0.9-0.7
		c0.4-0.2,0.8-0.4,1.3-0.5c0.5-0.2,1.1-0.2,1.7-0.2c2.2,0,4.2,0.9,5.5,2.6c1.5,2,2.3,4.4,2.2,6.9c0.1,2.5-0.6,5-2.1,7
		c-1.4,1.7-3.5,2.7-5.7,2.6c-0.9,0-1.8-0.2-2.7-0.6c-0.6-0.2-1.2-0.6-1.6-1.1l-0.5-0.6h-0.1v1.7H252.7z M257.2,351.7v3.3
		c0,1,0.3,2,1,2.8s1.8,1.2,2.9,1.1c1.2,0,2.3-0.5,3-1.4c1.4-2.6,1.4-5.7,0-8.3c-0.7-0.9-1.8-1.4-3-1.4c-1.1-0.1-2.1,0.4-2.9,1.1
		C257.5,349.7,257.1,350.7,257.2,351.7L257.2,351.7z"/>
	<path class="st1" d="M273.2,362.4v-18.1h4.2v1.9h0.1c0.3-0.7,0.9-1.2,1.5-1.6c0.7-0.4,1.4-0.6,2.2-0.6c0.6,0,1.1,0.1,1.6,0.3
		l-0.7,4.3c-0.4-0.2-0.9-0.3-1.4-0.3c-2.1,0-3.1,1.4-3.1,4.1v9.9L273.2,362.4z"/>
	<path class="st1" d="M285.7,341.7v-4.2h4.4v4.2H285.7z M285.7,362.4v-18.1h4.4v18.1H285.7z"/>
	<path class="st1" d="M294.9,362.4v-24.9h4.4v14.4h0.1l6.6-7.5h5.6l-6.5,7.3l7.1,10.7h-4.9l-5.5-8.2h-0.1l-2.3,2.6v5.7L294.9,362.4z
		"/>
</g>
</svg>
