<svg xmlns="http://www.w3.org/2000/svg" viewBox="0 0 1009.13 1009.13"><defs><style>.cls-1,.cls-2{fill:#fff;}.cls-2{stroke:#000;opacity:0.3;}.cls-2,.cls-6{stroke-miterlimit:10;}.cls-3{fill:#cfb571;}.cls-4{fill:#e21f26;}.cls-5{fill:#002554;}.cls-6{fill:none;stroke:aqua;}</style></defs><title>dif_info_carrier</title><g id="Guides"><rect class="cls-1" width="1009.13" height="1009.13"/><line class="cls-2" x1="1009.13" y2="1009.13"/><line class="cls-2" x2="1009.13" y2="1009.13"/><rect class="cls-3" y="336.38" width="671.58" height="167.34"/><rect class="cls-4" x="421.58" y="504.57" width="587.55" height="166.9"/><path class="cls-5" d="M64.12,439.23v-49H80.5a21.28,21.28,0,0,1,7.91,1.47A20.8,20.8,0,0,1,95.13,396a20.08,20.08,0,0,1,4.79,7.67,31.29,31.29,0,0,1,1.79,11,34,34,0,0,1-1.82,11.69,18,18,0,0,1-5,7.67,20.86,20.86,0,0,1-6.83,4,24.57,24.57,0,0,1-8,1.26Zm9.45-8.75h6.51a14.73,14.73,0,0,0,4.41-.59,9.13,9.13,0,0,0,3.57-2.21,10.54,10.54,0,0,0,2.59-4.87,30.85,30.85,0,0,0,.91-8.16q0-8.19-3-11.93a9.83,9.83,0,0,0-8-3.75H73.57Z"/><path class="cls-5" d="M110.11,439.23v-49h9.45v49Z"/><path class="cls-5" d="M131.11,439.23v-49h31.08V399H140.56v13h19.67v8.33H140.56v19Z"/><path class="cls-5" d="M187.74,439.23v-49h9.45V410H214V390.23h9.45v49H214V418h-16.8v21.21Z"/><path class="cls-5" d="M258,426.42l6.37,5.6q-5.67,8.26-15.33,8.26a16.39,16.39,0,0,1-12.67-5.35q-4.9-5.36-4.9-14.25t4.87-14.25a15.88,15.88,0,0,1,12.29-5.36,15.67,15.67,0,0,1,12.21,5.36q4.8,5.36,4.79,14.25v2.73H240.73a10,10,0,0,0,2.35,6.54,7.62,7.62,0,0,0,5.85,2.28,8.35,8.35,0,0,0,5.21-1.58A18.19,18.19,0,0,0,258,426.42Zm-17.29-9.8h16.1a8.51,8.51,0,0,0-2.45-5.56,8,8,0,0,0-5.74-2,7.37,7.37,0,0,0-5.49,2.17A8.48,8.48,0,0,0,240.73,416.62Z"/><path class="cls-5" d="M273,439.23v-37.1h8.61V406h.14a8.13,8.13,0,0,1,3.12-3.36,8.5,8.5,0,0,1,4.51-1.26,8.35,8.35,0,0,1,3.36.7l-1.4,8.82a8.45,8.45,0,0,0-2.87-.56q-6.37,0-6.37,8.47v20.37Z"/><path class="cls-5" d="M298,439.23v-37.1h8.61V406h.14a8.13,8.13,0,0,1,3.12-3.36,8.5,8.5,0,0,1,4.51-1.26,8.35,8.35,0,0,1,3.36.7l-1.4,8.82a8.45,8.45,0,0,0-2.87-.56q-6.37,0-6.37,8.47v20.37Z"/><path class="cls-5" d="M339.08,420.47v-7.7H374v7.7Z"/><path class="cls-5" d="M426.3,438.81a22,22,0,0,1-15.82,0,19.55,19.55,0,0,1-11.58-12.57,36.34,36.34,0,0,1-1.79-11.93,31.91,31.91,0,0,1,1.79-11,21.4,21.4,0,0,1,4.83-7.95,21.16,21.16,0,0,1,6.79-4.62,20.47,20.47,0,0,1,15.75,0,21.15,21.15,0,0,1,6.79,4.62,21.38,21.38,0,0,1,4.83,7.95,31.91,31.91,0,0,1,1.79,11,36.34,36.34,0,0,1-1.79,11.93,19.56,19.56,0,0,1-11.58,12.57Zm-16.17-11.37a10.32,10.32,0,0,0,16.52.07q3.22-4.1,3.22-13.2,0-8-3.33-12.18a10,10,0,0,0-16.34,0q-3.29,4.2-3.29,12.18Q406.91,423.27,410.13,427.43Zm-2.94-41.75v-8h8.54v8Zm13.93,0v-8h8.54v8Z"/><path class="cls-5" d="M447.37,439.23v-37.1H456V406h.14a8.13,8.13,0,0,1,3.12-3.36,8.5,8.5,0,0,1,4.51-1.26,8.35,8.35,0,0,1,3.36.7l-1.4,8.82a8.45,8.45,0,0,0-2.87-.56q-6.37,0-6.37,8.47v20.37Z"/><path class="cls-5" d="M497.14,426.42l6.37,5.6q-5.67,8.26-15.33,8.26a16.39,16.39,0,0,1-12.67-5.35q-4.9-5.36-4.9-14.25t4.87-14.25a15.88,15.88,0,0,1,12.29-5.36A15.67,15.67,0,0,1,500,406.43q4.8,5.36,4.79,14.25v2.73H479.85a10,10,0,0,0,2.35,6.54,7.62,7.62,0,0,0,5.85,2.28,8.35,8.35,0,0,0,5.21-1.58A18.19,18.19,0,0,0,497.14,426.42Zm-17.29-9.8h16.1a8.51,8.51,0,0,0-2.45-5.56,8,8,0,0,0-5.74-2,7.37,7.37,0,0,0-5.49,2.17A8.48,8.48,0,0,0,479.85,416.62Z"/><path class="cls-5" d="M512.12,439.23v-51.1h9.1V405.7h.14l.35-.52a7.41,7.41,0,0,1,1.08-1.08,14.09,14.09,0,0,1,1.89-1.4,11.1,11.1,0,0,1,2.66-1.12,12.08,12.08,0,0,1,3.46-.49,14.19,14.19,0,0,1,11.38,5.43q4.51,5.42,4.52,14.17,0,9-4.37,14.28a14.4,14.4,0,0,1-11.72,5.32,12.64,12.64,0,0,1-5.46-1.16,9.68,9.68,0,0,1-3.36-2.27l-1-1.19h-.14v3.57Zm9.1-22V424a8.17,8.17,0,0,0,2.13,5.71,7.51,7.51,0,0,0,5.85,2.35,7.33,7.33,0,0,0,6.2-2.91q2.2-2.9,2.21-8.5t-2.21-8.54a7.36,7.36,0,0,0-6.2-2.87,7.57,7.57,0,0,0-5.85,2.31A8,8,0,0,0,521.22,417.25Z"/><path class="cls-5" d="M554,439.23v-37.1h8.61V406h.14a8.13,8.13,0,0,1,3.12-3.36,8.5,8.5,0,0,1,4.51-1.26,8.35,8.35,0,0,1,3.36.7l-1.4,8.82a8.45,8.45,0,0,0-2.87-.56q-6.37,0-6.37,8.47v20.37Z"/><path class="cls-5" d="M605.7,435.1a17.58,17.58,0,0,1-24.92,0q-4.9-5.18-4.9-14.42t5-14.35a17.08,17.08,0,0,1,24.64,0q5,5.25,5,14.35T605.7,435.1Zm-18.62-6a7.89,7.89,0,0,0,12.32,0q2.24-3,2.24-8.43t-2.28-8.44a7.82,7.82,0,0,0-12.25,0q-2.28,2.94-2.28,8.47T587.09,429.15Z"/><path class="cls-1" d="M522.84,610.07a22,22,0,0,1-15.82,0,19.55,19.55,0,0,1-11.58-12.57,36.34,36.34,0,0,1-1.79-11.93,31.91,31.91,0,0,1,1.79-11,21.4,21.4,0,0,1,4.83-7.95,21.16,21.16,0,0,1,6.79-4.62,20.47,20.47,0,0,1,15.75,0,21.15,21.15,0,0,1,6.79,4.62,21.38,21.38,0,0,1,4.83,7.95,31.91,31.91,0,0,1,1.79,11,36.34,36.34,0,0,1-1.79,11.93,19.56,19.56,0,0,1-11.58,12.57ZM506.67,598.7a10.32,10.32,0,0,0,16.52.07q3.22-4.1,3.22-13.2,0-8-3.33-12.18a10,10,0,0,0-16.34,0q-3.29,4.2-3.29,12.18Q503.45,594.53,506.67,598.7Z"/><path class="cls-1" d="M543.91,610.49v-37.1h8.75V577h.14a12.15,12.15,0,0,1,4.2-3.29,12.37,12.37,0,0,1,5.6-1.33q6.16,0,9.66,3.68t3.5,10.18v24.29h-9.1v-22q0-3.85-1.47-5.78t-5-1.92a6.59,6.59,0,0,0-7.14,7.07v22.68Z"/><path class="cls-1" d="M582.4,598.24l8.19-2.1q1,7.77,8.33,7.77a11.24,11.24,0,0,0,5.36-1.08,3.35,3.35,0,0,0,2-3,2.59,2.59,0,0,0-1.54-2.42,41.71,41.71,0,0,0-6.44-2.21q-1.33-.35-2-.56-6.44-1.82-9.45-4.31a8.14,8.14,0,0,1-3-6.61,10.38,10.38,0,0,1,3.74-8q3.74-3.36,10.26-3.36,12.46,0,15.61,10.92l-7.56,2.31a10,10,0,0,0-2.77-4.2,9.48,9.48,0,0,0-9.45-.52,2.89,2.89,0,0,0-1.58,2.41,2.69,2.69,0,0,0,1.86,2.42,81.13,81.13,0,0,0,9.28,3q6.51,1.75,8.85,4.45a10.12,10.12,0,0,1,2.35,6.89,10.61,10.61,0,0,1-3.88,8q-3.88,3.54-11.23,3.54-7.7,0-11.87-3.88A15.79,15.79,0,0,1,582.4,598.24Z"/><path class="cls-1" d="M645,610.49v-3.57h-.14q-.35.49-1,1.26a12,12,0,0,1-3.22,2.06,12.14,12.14,0,0,1-5.56,1.29,14.4,14.4,0,0,1-11.73-5.32q-4.37-5.32-4.37-14.28t4.76-14.32a14.62,14.62,0,0,1,11.2-5.29,11.82,11.82,0,0,1,5.29,1.16,9,9,0,0,1,3.19,2.28l.91,1.19h.14V559.39h9.1v51.1Zm-.56-15.19v-6.79a8,8,0,0,0-2.13-5.67,7.57,7.57,0,0,0-5.85-2.31,7.36,7.36,0,0,0-6.19,2.87q-2.21,2.87-2.21,8.54t2.21,8.5a7.32,7.32,0,0,0,6.19,2.91,7.51,7.51,0,0,0,5.85-2.35A8.17,8.17,0,0,0,644.42,595.3Z"/><path class="cls-1" d="M684.46,610.49v-3.57h-.14l-.35.53a7.84,7.84,0,0,1-1.05,1.08,11.69,11.69,0,0,1-1.89,1.4,11.46,11.46,0,0,1-2.87,1.12,15.06,15.06,0,0,1-3.92.49q-6.72,0-10-3.18a10.39,10.39,0,0,1-3.33-7.81q0-4.83,2.87-7.35t9.73-4.2q6.37-1.54,8-2.45a2.84,2.84,0,0,0,1.61-2.59,3.33,3.33,0,0,0-1.58-2.8,8.16,8.16,0,0,0-4.72-1.12q-3.71,0-5.32,1.65a11.16,11.16,0,0,0-2.52,4.44L661.36,583a14.42,14.42,0,0,1,5.18-7.67q3.85-3,10.08-3a17,17,0,0,1,11.13,3.57q4.34,3.57,4.34,11.06v23.52Zm-9.17-15.19q-3.5.84-4.58,2a3.73,3.73,0,0,0-1.09,2.63q0,3.78,5.46,3.78,4.13,0,6.2-1.58a4.73,4.73,0,0,0,2.06-3.88V591.8h-.14a3.34,3.34,0,0,1-.59.88,8.9,8.9,0,0,1-2.13,1.05A41.59,41.59,0,0,1,675.29,595.3Z"/><path class="cls-1" d="M701.4,618.05l6.79-4.69a12.35,12.35,0,0,0,3.64,4.58,8.9,8.9,0,0,0,5.25,1.43,8.4,8.4,0,0,0,5.71-1.85q2.14-1.86,2.14-5.92v-4.69h-.14a8.53,8.53,0,0,1-3.64,3.25,11.83,11.83,0,0,1-5.6,1.37,15.66,15.66,0,0,1-12-5.21q-4.83-5.21-4.83-14.38t5-14.32a15.55,15.55,0,0,1,11.69-5.29q6.37,0,9.8,4.62h.14v-3.57H734v37.1q0,8.12-4.72,12.46t-12.22,4.34a18.18,18.18,0,0,1-9.83-2.52A14.68,14.68,0,0,1,701.4,618.05Zm23.52-22.33v-7.63a7.35,7.35,0,0,0-2.17-5.35,7.79,7.79,0,0,0-5.81-2.21,8.25,8.25,0,0,0-6.58,2.94q-2.52,2.94-2.52,8.47t2.55,8.47a8.28,8.28,0,0,0,6.54,2.94,7.79,7.79,0,0,0,5.81-2.21A7.44,7.44,0,0,0,724.92,595.72Z"/><path class="cls-1" d="M770.49,610.49V572l-10.57,6.65V568.49l11.27-7h8.33v49Z"/><path class="cls-1" d="M790.72,601.11v-8.82l18.62-30.8h14.35v30.87h5.74v8.75h-5.74v9.38H814.8v-9.38Zm9.52-8.75H814.8V568.42h-.14Z"/><path class="cls-1" d="M836.43,583.33v-9.94h10.43v9.94Zm0,27.16v-9.94h10.43v9.94Z"/><path class="cls-1" d="M887.46,605.1a17.84,17.84,0,0,1-27.44,0q-5.11-6.44-5.11-19.88,0-12.18,5.15-18.48a18,18,0,0,1,27.37,0q5.14,6.3,5.14,18.48Q892.57,598.66,887.46,605.1Zm-20.82-6.23a8.4,8.4,0,0,0,14.21,0q2.27-3.92,2.28-13.65,0-8.47-2.35-12.25a8.44,8.44,0,0,0-14.07,0q-2.34,3.78-2.34,12.25Q864.36,595,866.64,598.87Z"/><path class="cls-1" d="M930,605.1a17.84,17.84,0,0,1-27.44,0q-5.11-6.44-5.11-19.88,0-12.18,5.15-18.48a18,18,0,0,1,27.37,0q5.14,6.3,5.14,18.48Q935.13,598.66,930,605.1Zm-20.82-6.23a8.4,8.4,0,0,0,14.21,0q2.27-3.92,2.28-13.65,0-8.47-2.35-12.25a8.44,8.44,0,0,0-14.07,0q-2.34,3.78-2.34,12.25Q906.92,595,909.2,598.87Z"/><rect class="cls-6" width="1009.13" height="1009.13"/><line class="cls-6" y1="84.09" x2="1009.13" y2="84.09"/><line class="cls-6" y1="168.19" x2="1009.13" y2="168.19"/><line class="cls-6" y1="252.28" x2="1009.13" y2="252.28"/><line class="cls-6" y1="336.38" x2="1009.13" y2="336.38"/><line class="cls-6" y1="420.47" x2="1009.13" y2="420.47"/><line class="cls-6" y1="504.57" x2="1009.13" y2="504.57"/><line class="cls-6" y1="588.66" x2="1009.13" y2="588.66"/><line class="cls-6" y1="672.76" x2="1009.13" y2="672.76"/><line class="cls-6" y1="756.85" x2="1009.13" y2="756.85"/><line class="cls-6" y1="840.94" x2="1009.13" y2="840.94"/><line class="cls-6" y1="925.04" x2="1009.13" y2="925.04"/><line class="cls-6" x1="925.04" y1="1009.13" x2="925.04"/><line class="cls-6" x1="840.94" y1="1009.13" x2="840.94"/><line class="cls-6" x1="756.85" y1="1009.13" x2="756.85"/><line class="cls-6" x1="672.76" y1="1009.13" x2="672.76"/><line class="cls-6" x1="588.66" y1="1009.13" x2="588.66"/><line class="cls-6" x1="504.57" y1="1009.13" x2="504.57"/><line class="cls-6" x1="420.47" y1="1009.13" x2="420.47"/><line class="cls-6" x1="336.38" y1="1009.13" x2="336.38"/><line class="cls-6" x1="252.28" y1="1009.13" x2="252.28"/><line class="cls-6" x1="168.19" y1="1009.13" x2="168.19"/><line class="cls-6" x1="84.09" y1="1009.13" x2="84.09"/></g></svg>