<svg id="Layer_1" data-name="Layer 1" xmlns="http://www.w3.org/2000/svg" xmlns:xlink="http://www.w3.org/1999/xlink" viewBox="0 0 600 600"><defs><style>.cls-1{fill:none;}.cls-2{clip-path:url(#clip-path);}.cls-3{fill:#32baf2;}.cls-4{clip-path:url(#clip-path-2);}.cls-5{clip-path:url(#clip-path-3);}.cls-6{fill:#e21f26;}.cls-7{fill:#002554;}.cls-8{clip-path:url(#clip-path-4);}.cls-9{fill:#cfb571;}.cls-10{clip-path:url(#clip-path-5);}</style><clipPath id="clip-path"><rect class="cls-1" x="-393" y="-647.91" width="300" height="521.91" transform="translate(-486 -773.91) rotate(-180)"/></clipPath><clipPath id="clip-path-2"><rect class="cls-1" x="699" width="424.24" height="600"/></clipPath><clipPath id="clip-path-3"><rect class="cls-1" x="530.4" y="212.5" width="504.57" height="493.45" transform="translate(1565.37 918.45) rotate(-180)"/></clipPath><clipPath id="clip-path-4"><rect class="cls-1" x="1.1" y="95" width="321.11" height="434.67"/></clipPath><clipPath id="clip-path-5"><rect class="cls-1" x="92.88" y="64.93" width="332.46" height="452.07"/></clipPath></defs><title>expressive_use2</title><g class="cls-2"><rect class="cls-3" x="-178.94" y="-709.92" width="100" height="848.57" transform="translate(-422.09 -396.42) rotate(135)"/><rect class="cls-3" x="-319.06" y="-569.8" width="100" height="848.57" transform="translate(-562.21 -58.15) rotate(135)"/></g><g class="cls-4"><g class="cls-5"><rect class="cls-6" x="719.36" y="208.08" width="151.19" height="479.75" transform="translate(549.59 -430.92) rotate(45)"/></g></g><rect class="cls-7" x="1.1" width="424.24" height="600"/><rect class="cls-1" x="1.1" y="102.31" width="316.32" height="423.41"/><rect class="cls-1" x="87.91" y="64.93" width="330.01" height="415.33"/><g class="cls-8"><rect class="cls-9" x="42.67" y="121.06" width="151.7" height="388.97" transform="translate(425.46 454.86) rotate(135)"/></g><g class="cls-10"><rect class="cls-3" x="226.12" y="89.97" width="151.7" height="388.97" transform="translate(716.63 272.07) rotate(135)"/></g></svg>