<svg id="Layer_1" data-name="Layer 1" xmlns="http://www.w3.org/2000/svg" xmlns:xlink="http://www.w3.org/1999/xlink" viewBox="0 0 600 600"><defs><style>.cls-1,.cls-5,.cls-6,.cls-8{fill:none;}.cls-2{clip-path:url(#clip-path);}.cls-3{fill:#32baf2;}.cls-4{clip-path:url(#clip-path-2);}.cls-5,.cls-6,.cls-8{stroke:#32baf2;stroke-miterlimit:10;}.cls-6{stroke-dasharray:1 1;}.cls-7{fill:#002554;}.cls-8{stroke-dasharray:0.99 0.99;}</style><clipPath id="clip-path"><rect class="cls-1" x="3" y="-647.91" width="300" height="521.91"/></clipPath><clipPath id="clip-path-2"><rect class="cls-1" x="303" y="-647.91" width="300" height="521.91" transform="translate(906 -773.91) rotate(-180)"/></clipPath></defs><title>expressive_use2</title><g class="cls-2"><rect class="cls-3" x="-11.06" y="-709.92" width="100" height="848.57" transform="translate(-190.56 -111.19) rotate(45)"/><rect class="cls-3" x="129.06" y="-569.8" width="100" height="848.57" transform="translate(-50.45 -169.23) rotate(45)"/></g><g class="cls-4"><rect class="cls-3" x="517.06" y="-709.92" width="100" height="848.57" transform="translate(766.06 -888.57) rotate(135)"/><rect class="cls-3" x="376.94" y="-569.8" width="100" height="848.57" transform="translate(625.94 -550.3) rotate(135)"/></g><line class="cls-5" x1="0.4" y1="599.05" x2="268.24" y2="599.05"/><line class="cls-5" x1="257.6" y1="325.47" x2="525.45" y2="325.47"/><path class="cls-5" d="M295.24,287.82l.35.35"/><path class="cls-6" d="M296.29,288.89a53,53,0,0,1,14.55,35.58"/><path class="cls-5" d="M310.84,325q0,.25,0,.5"/><path d="M319.5,302.75v-1.7l6.36-10.48h2.85V301h2v1.72h-2v3.67H326.9v-3.67Zm1.88-1.72h5.52v-9h0Z"/><path d="M332.72,302.37l1.79-.63q.91,3.31,3.87,3.31a3.54,3.54,0,0,0,2.69-1.05,4,4,0,0,0,1-2.89,3.73,3.73,0,0,0-1-2.74,3.51,3.51,0,0,0-2.62-1,4,4,0,0,0-3.53,1.9l-1.68-.72,1.43-8h7.81v1.72h-6.38l-.91,5,0,0a3.59,3.59,0,0,1,1.42-1.06,5.27,5.27,0,0,1,2.21-.43,4.89,4.89,0,0,1,3.58,1.46,5.17,5.17,0,0,1,1.47,3.84,5.49,5.49,0,0,1-1.56,4.1,5.41,5.41,0,0,1-4,1.54,5.53,5.53,0,0,1-3.66-1.21A6.13,6.13,0,0,1,332.72,302.37Z"/><path d="M349,297.93a3,3,0,0,1-2.31-1,4,4,0,0,1-.91-2.76,3.86,3.86,0,0,1,.93-2.74,3,3,0,0,1,2.29-1,2.94,2.94,0,0,1,2.25,1,3.89,3.89,0,0,1,.92,2.74,4,4,0,0,1-.89,2.76A2.92,2.92,0,0,1,349,297.93Zm0-1.22a1.59,1.59,0,0,0,1.32-.67,3,3,0,0,0,.51-1.87,3,3,0,0,0-.51-1.86,1.6,1.6,0,0,0-1.32-.66,1.65,1.65,0,0,0-1.36.66,2.92,2.92,0,0,0-.52,1.86,3,3,0,0,0,.52,1.88A1.65,1.65,0,0,0,349,296.71Z"/><rect class="cls-7" x="235.32" y="11.95" width="152.14" height="304.29" transform="translate(207.24 -172.12) rotate(45)"/><path class="cls-5" d="M204.36,599.05q0-.25,0-.5"/><path class="cls-8" d="M204.38,597.56a53.05,53.05,0,0,1,14.86-35.42"/><path class="cls-5" d="M219.59,561.78l.35-.36"/><path d="M167,575.23v-1.7l6.36-10.48h2.85v10.46h2v1.72h-2v3.67h-1.81v-3.67Zm1.88-1.72h5.52v-9h0Z"/><path d="M180.2,574.85l1.79-.63q.91,3.31,3.87,3.31a3.54,3.54,0,0,0,2.69-1.05,4,4,0,0,0,1-2.89,3.73,3.73,0,0,0-1-2.74,3.51,3.51,0,0,0-2.62-1,4,4,0,0,0-3.53,1.9l-1.68-.72,1.43-8H190v1.72H183.6l-.91,5,0,0a3.59,3.59,0,0,1,1.42-1.06,5.27,5.27,0,0,1,2.21-.43,4.89,4.89,0,0,1,3.58,1.46,5.17,5.17,0,0,1,1.47,3.84,5.49,5.49,0,0,1-1.56,4.1,5.41,5.41,0,0,1-4,1.54A5.54,5.54,0,0,1,182.2,578,6.13,6.13,0,0,1,180.2,574.85Z"/><path d="M196.52,570.41a3,3,0,0,1-2.31-1,4,4,0,0,1-.91-2.76,3.86,3.86,0,0,1,.93-2.74,3,3,0,0,1,2.29-1,2.94,2.94,0,0,1,2.25,1,3.89,3.89,0,0,1,.92,2.74,4,4,0,0,1-.89,2.76A2.92,2.92,0,0,1,196.52,570.41Zm0-1.22a1.59,1.59,0,0,0,1.32-.67,3,3,0,0,0,.51-1.87,3,3,0,0,0-.51-1.86,1.6,1.6,0,0,0-1.32-.66,1.65,1.65,0,0,0-1.36.66,2.92,2.92,0,0,0-.52,1.86,3,3,0,0,0,.52,1.88A1.65,1.65,0,0,0,196.52,569.19Z"/><rect class="cls-7" x="127.72" y="285.54" width="152.14" height="304.29" transform="translate(657.39 603.07) rotate(135)"/><line class="cls-5" x1="257.59" y1="599.05" y2="341.47"/><polyline class="cls-5" points="295.23 287.82 257.6 325.47 515.19 67.88"/></svg>