<?xml version="1.0" encoding="utf-8"?>
<!-- Generator: Adobe Illustrator 21.0.2, SVG Export Plug-In . SVG Version: 6.00 Build 0)  -->
<svg version="1.1" id="Layer_1" xmlns="http://www.w3.org/2000/svg" xmlns:xlink="http://www.w3.org/1999/xlink" x="0px" y="0px"
	 viewBox="0 0 408 500" style="enable-background:new 0 0 408 500;" xml:space="preserve">
<style type="text/css">
	.st0{fill:#CFB571;}
	.st1{fill:#FFEC0D;}
	.st2{fill:#0568AF;}
	.st3{fill:#E21F26;}
</style>
<g>
	<g id="Guld_sköld_6_">
		<g>
			<path class="st0" d="M396.9,43.5l-1.8-7.8l-7.8,1.7C290.5,58,208.9,9.6,208.1,9.1l-4.3-2.6l-4.2,2.6
				c-0.8,0.5-82.2,49.2-179.1,28.8l-7.8-1.7L10.9,44c-0.3,1.5-8.5,37.5-6.6,96.9c5.8,186.5,125.9,307.7,196,349.9l4.2,2.5l4.2-2.6
				c70-42.4,189.8-163.9,195.1-350.4C405.5,81,397.2,45,396.9,43.5z"/>
		</g>
	</g>
	<g>
		<path class="st1" d="M279.4,52.7c-37.8-8-65.3-21.7-75.6-27.3c-18.1,10-90.6,45.4-178.5,30c-2.2,13.4-6.1,43.4-4.8,85
			c1.5,48.5,11,92.3,25.4,131.4L279.4,52.7z"/>
		<path class="st2" d="M204.5,474.3c66.8-42.4,175.2-155.7,182.7-327.9L119.3,397.8C148.6,432.8,179.4,458.5,204.5,474.3z"/>
		<g>
			<path class="st3" d="M117.3,274.8l-1.2,1.2l27.3,29l1.1-1.1c6.7-6.3,9.6-17.3,0.1-27.4C135.8,267.3,124.5,268.1,117.3,274.8z"/>
			<path class="st3" d="M382.5,54.9c-32.5,5.8-62.9,4.6-89.2,0.3L50.4,283.2C67,324.3,88.8,359.6,112.2,389l275.4-258.6
				C388,93.8,384.5,67.2,382.5,54.9z M159.9,316.8l-19.4,18.2L85.9,277l19.4-18.2c16.2-15.2,40.4-14,55.7,2.3
				C176.3,277.4,176,301.7,159.9,316.8z M207.7,274.8c-4.9,4.6-12.6,4.3-17.2-0.5c-4.6-4.9-4.3-12.6,0.5-17.2
				c4.9-4.6,12.6-4.3,17.2,0.5C212.8,262.5,212.6,270.2,207.7,274.8z M232.8,248.2l-54.5-58.1l16.7-15.7l54.5,58.1L232.8,248.2z
				 M277.8,209c-4.9,4.6-12.6,4.3-17.2-0.5c-4.6-4.9-4.3-12.6,0.5-17.2c4.9-4.6,12.6-4.3,17.2,0.5
				C282.9,196.7,282.7,204.4,277.8,209z M319.6,166.6L303,182.2l-54.6-58.1L283,91.6l14,14.9l-18,16.9l9,9.5l17.8-16.7l14,14.9
				L302,147.8L319.6,166.6z M352.6,138.8c-4.9,4.6-12.6,4.3-17.2-0.5c-4.6-4.9-4.3-12.6,0.5-17.2c4.9-4.6,12.6-4.3,17.2,0.5
				C357.8,126.5,357.5,134.2,352.6,138.8z"/>
		</g>
	</g>
</g>
</svg>
