<svg id="Layer_1" data-name="Layer 1" xmlns="http://www.w3.org/2000/svg" viewBox="0 0 657.3 266.7"><defs><style>.cls-1{fill:none;stroke:#32baf2;stroke-miterlimit:10;}</style></defs><title>maison_centre_alignment-02</title><line class="cls-1" x1="328.65" y1="266.45" x2="328.65" y2="-0.25"/><path d="M146.15,91.4V63.13H155a12.28,12.28,0,0,1,4.56.85,12,12,0,0,1,3.88,2.5,11.58,11.58,0,0,1,2.77,4.42,18,18,0,0,1,1,6.32,19.62,19.62,0,0,1-1,6.74,10.36,10.36,0,0,1-2.87,4.42,12,12,0,0,1-3.94,2.28,14.18,14.18,0,0,1-4.62.73Zm3.35-3.07h5q9.21,0,9.21-11.11,0-5.33-2.4-8.18a8.13,8.13,0,0,0-6.56-2.85H149.5Z"/><path d="M170.06,99.28V96.12h.69a1.83,1.83,0,0,0,1.37-.46,2.66,2.66,0,0,0,.44-1.8V70h3.31V93.94q0,2.91-1.13,4.12a4.37,4.37,0,0,1-3.35,1.21Zm2.22-33.6V61.92H176v3.76Z"/><path d="M182.5,83.93V70h3.31V83.45q0,3,1.15,4.24a5,5,0,0,0,3.82,1.25,4.64,4.64,0,0,0,3.72-1.49,6.15,6.15,0,0,0,1.29-4.16V70h3.27V91.4h-3.23V89.34h-.08a8.89,8.89,0,0,1-.61.73,7.33,7.33,0,0,1-1.88,1.19A7,7,0,0,1,190,92a7.46,7.46,0,0,1-5.55-2Q182.49,88,182.5,83.93Z"/><path d="M205.72,91.4V70h3.15v2.3h.08a4.49,4.49,0,0,1,1.9-2,5.23,5.23,0,0,1,2.54-.69,4.41,4.41,0,0,1,.95.1,7.19,7.19,0,0,1,.71.18l.2.12-.61,3.27a3.66,3.66,0,0,0-1.7-.32,3.37,3.37,0,0,0-3,1.35,7.85,7.85,0,0,0-.93,4.34V91.4Z"/><path d="M219.09,95.28l2.79-1.41a7.74,7.74,0,0,0,2,3.13,6.14,6.14,0,0,0,7.61-.36,6,6,0,0,0,1.41-4.22V89.54h-.08A7.37,7.37,0,0,1,226.88,92a8.48,8.48,0,0,1-6.83-3.07,12.37,12.37,0,0,1-2.58-8.24,12.08,12.08,0,0,1,2.69-8.22,8.5,8.5,0,0,1,6.68-3.09,7.28,7.28,0,0,1,6,2.67h.08V70h3.23V91.72q0,4.57-2.28,7a8.3,8.3,0,0,1-6.32,2.4,8.89,8.89,0,0,1-5.43-1.6A8.48,8.48,0,0,1,219.09,95.28Zm13.81-10.9V77.59A5.14,5.14,0,0,0,231.38,74a5.25,5.25,0,0,0-4-1.62,5.81,5.81,0,0,0-4.87,2.2,9.73,9.73,0,0,0-1.72,6.12,9.8,9.8,0,0,0,1.7,6.14A5.83,5.83,0,0,0,227.36,89a5.76,5.76,0,0,0,4-1.39A4.22,4.22,0,0,0,232.9,84.37Z"/><path d="M255.07,91.4V89.06H255a5.88,5.88,0,0,1-2.3,2,8.59,8.59,0,0,1-4.24.95,7.57,7.57,0,0,1-5.39-1.74,5.75,5.75,0,0,1-1.84-4.36,5.42,5.42,0,0,1,1.64-4.18,13.15,13.15,0,0,1,5.55-2.52q1.45-.36,2.16-.57t1.64-.55a5,5,0,0,0,1.33-.67,3.19,3.19,0,0,0,.71-.81,2,2,0,0,0,.3-1.09,2.83,2.83,0,0,0-1.11-2.28,5.25,5.25,0,0,0-3.37-.91,4.85,4.85,0,0,0-5.21,4.24l-3-.85a7.52,7.52,0,0,1,2-4,7.4,7.4,0,0,1,4-2.14,3.87,3.87,0,0,1-1.66-3.43,4.11,4.11,0,0,1,1.13-2.91,4,4,0,0,1,5.67,0,4.14,4.14,0,0,1,1.11,2.93,3.82,3.82,0,0,1-1.7,3.47Q258,70.76,258,77V91.4Zm-5.9-9.65a9.89,9.89,0,0,0-3.74,1.65,3,3,0,0,0-1,2.3q0,3.35,4.24,3.35a6.83,6.83,0,0,0,4.48-1.31,4,4,0,0,0,1.58-3.21V79.2h-.08Q254.1,80.38,249.17,81.75Zm1-13.25a1.78,1.78,0,0,0,1.37-.63,2.53,2.53,0,0,0,.57-1.76,2.32,2.32,0,0,0-.57-1.68,1.84,1.84,0,0,0-1.37-.59,1.8,1.8,0,0,0-1.35.57,2.36,2.36,0,0,0-.55,1.7,2.53,2.53,0,0,0,.57,1.76A1.74,1.74,0,0,0,250.18,68.5Z"/><path d="M264.23,91.4V70h3.15v2.3h.08a4.49,4.49,0,0,1,1.9-2,5.23,5.23,0,0,1,2.54-.69,4.41,4.41,0,0,1,.95.1,7.19,7.19,0,0,1,.71.18l.2.12-.61,3.27a3.66,3.66,0,0,0-1.7-.32,3.37,3.37,0,0,0-3,1.35,7.85,7.85,0,0,0-.93,4.34V91.4Z"/><path d="M292.42,91.4V89.34h-.08a7.77,7.77,0,0,1-2.48,1.84,9,9,0,0,1-10.54-2.24,12.57,12.57,0,0,1-2.52-8.24,12.21,12.21,0,0,1,2.65-8.22,8.38,8.38,0,0,1,6.64-3.09A7.41,7.41,0,0,1,292,72.06h.08V61.92h3.31V91.4Zm-.32-7.11V77.67A5.29,5.29,0,0,0,290.61,74a5.15,5.15,0,0,0-4-1.64,5.71,5.71,0,0,0-4.85,2.18,10,10,0,0,0-1.66,6.14,10,10,0,0,0,1.66,6.14A5.71,5.71,0,0,0,286.61,89a5.65,5.65,0,0,0,3.92-1.41A4.33,4.33,0,0,0,292.1,84.29Z"/><path d="M316.9,84.82l2.67,1.74a10.65,10.65,0,0,1-3.45,3.9A9.45,9.45,0,0,1,310.6,92a9.19,9.19,0,0,1-7.15-3.09,11.8,11.8,0,0,1-2.79-8.22,12,12,0,0,1,2.73-8.22,9,9,0,0,1,7-3.09,8.81,8.81,0,0,1,6.95,3q2.67,3,2.67,8.28v1H304a8.37,8.37,0,0,0,1.72,5.21A5.76,5.76,0,0,0,310.52,89a7.26,7.26,0,0,0,2.26-.34,8,8,0,0,0,1.62-.69,4.76,4.76,0,0,0,1.19-1.13,12,12,0,0,0,.77-1C316.45,85.66,316.63,85.33,316.9,84.82ZM304.05,79h12.72a7.83,7.83,0,0,0-1.62-4.69,6.47,6.47,0,0,0-9.45.14A7.57,7.57,0,0,0,304.05,79Z"/><path d="M325.3,91.4V70h3.23v2.06h.08a6.45,6.45,0,0,1,2.54-1.92,8.36,8.36,0,0,1,3.47-.75,7.53,7.53,0,0,1,5.59,2.14,7.9,7.9,0,0,1,2.12,5.82V91.4h-3.27v-13q0-6-4.93-6a5.65,5.65,0,0,0-4,1.41,5.09,5.09,0,0,0-1.52,3.92V91.4Z"/><path d="M366,91.4l-10-28.27h3.59L368,87.32h.08l8.16-24.19h3.55L370,91.4Z"/><path d="M381,84.13l3.11-.6q.61,5.61,5.94,5.61a6.47,6.47,0,0,0,3.82-.93,2.91,2.91,0,0,0,1.27-2.46,2.74,2.74,0,0,0-1.19-2.42,19.81,19.81,0,0,0-5-1.86A15.09,15.09,0,0,1,383.37,79a4.62,4.62,0,0,1-1.62-3.72,5.37,5.37,0,0,1,2-4.14,7.92,7.92,0,0,1,5.45-1.76,8.58,8.58,0,0,1,5.57,1.68,8,8,0,0,1,2.74,4.46l-2.87.77a5.24,5.24,0,0,0-5.45-4.08,5.13,5.13,0,0,0-3.23.89,2.61,2.61,0,0,0-1.13,2.1,2.15,2.15,0,0,0,1.09,2,27,27,0,0,0,5,1.78q4.16,1.17,5.72,2.68a5.59,5.59,0,0,1,1.59,4.1,5.76,5.76,0,0,1-2,4.4q-2,1.86-6.12,1.86-4.24,0-6.48-2.2A9,9,0,0,1,381,84.13Z"/><path d="M411.76,81.67l3.51-.69q.61,4.12,2.32,6t5.63,1.88A7,7,0,0,0,428,87.44,4.44,4.44,0,0,0,429.62,84a3.88,3.88,0,0,0-1.45-3.19q-1.45-1.17-6.34-2.79a19.26,19.26,0,0,1-6.72-3.29,6,6,0,0,1-2-4.75,6.85,6.85,0,0,1,2.4-5.25,9.28,9.28,0,0,1,6.48-2.18,10.88,10.88,0,0,1,6.67,2,8.28,8.28,0,0,1,3.19,5.82L428.4,71a7,7,0,0,0-2-4,6.42,6.42,0,0,0-4.5-1.37,6.09,6.09,0,0,0-4.08,1.21,3.83,3.83,0,0,0-1.41,3,3.17,3.17,0,0,0,1.29,2.62A22,22,0,0,0,423.48,75q5.61,1.82,7.55,3.67A6.72,6.72,0,0,1,433,83.81a7.54,7.54,0,0,1-2.62,5.83A10.41,10.41,0,0,1,423.11,92Q413.06,92,411.76,81.67Z"/><path d="M437.81,65.68V61.92h3.79v3.76Zm.24,25.73V70h3.31V91.4Z"/><path d="M448.27,91.4V70h3.15v2.3h.08a4.51,4.51,0,0,1,1.9-2,5.22,5.22,0,0,1,2.54-.69,4.41,4.41,0,0,1,.95.1c.31.07.55.13.71.18l.2.12-.61,3.27a3.66,3.66,0,0,0-1.7-.32,3.37,3.37,0,0,0-3,1.35,7.84,7.84,0,0,0-.93,4.34V91.4Z"/><path d="M462.24,65.68V61.92H466v3.76Zm.24,25.73V70h3.31V91.4Z"/><path d="M472.5,83.93V70h3.31V83.45q0,3,1.15,4.24a5,5,0,0,0,3.82,1.25,4.65,4.65,0,0,0,3.72-1.49,6.15,6.15,0,0,0,1.29-4.16V70h3.27V91.4h-3.23V89.34h-.08a8.62,8.62,0,0,1-.6.73,7.33,7.33,0,0,1-1.88,1.19,7,7,0,0,1-3.21.75,7.46,7.46,0,0,1-5.55-2Q472.5,88,472.5,83.93Z"/><path d="M494.11,84.13l3.11-.6q.6,5.61,5.94,5.61a6.47,6.47,0,0,0,3.82-.93,2.91,2.91,0,0,0,1.27-2.46,2.74,2.74,0,0,0-1.19-2.42,19.85,19.85,0,0,0-5-1.86A15.08,15.08,0,0,1,496.49,79a4.62,4.62,0,0,1-1.61-3.72,5.37,5.37,0,0,1,2-4.14,7.93,7.93,0,0,1,5.45-1.76,8.58,8.58,0,0,1,5.57,1.68,8.06,8.06,0,0,1,2.75,4.46l-2.87.77a5.23,5.23,0,0,0-5.45-4.08,5.12,5.12,0,0,0-3.23.89,2.61,2.61,0,0,0-1.13,2.1,2.15,2.15,0,0,0,1.09,2A27,27,0,0,0,504,79q4.16,1.17,5.71,2.68a5.59,5.59,0,0,1,1.6,4.1,5.77,5.77,0,0,1-2,4.4q-2,1.86-6.12,1.86-4.24,0-6.48-2.2A9,9,0,0,1,494.11,84.13Z"/><path d="M120.34,143.9V115.63h4.72l8.84,21.69H134l8.84-21.69h4.72V143.9h-3.27V120.32h-.08l-9.73,23.58h-1l-9.73-23.58h-.08V143.9Z"/><path d="M167.07,143.9v-2.34H167a5.89,5.89,0,0,1-2.3,2,8.61,8.61,0,0,1-4.24.95,7.57,7.57,0,0,1-5.39-1.74,5.75,5.75,0,0,1-1.84-4.36,5.41,5.41,0,0,1,1.64-4.18,13.12,13.12,0,0,1,5.55-2.52q1.45-.36,2.16-.57t1.64-.55a5,5,0,0,0,1.33-.67,3.16,3.16,0,0,0,.71-.81,2,2,0,0,0,.3-1.09,2.83,2.83,0,0,0-1.11-2.28,5.26,5.26,0,0,0-3.37-.91,4.85,4.85,0,0,0-5.21,4.24l-3-.85a7.51,7.51,0,0,1,2-4,7.37,7.37,0,0,1,4-2.14,3.87,3.87,0,0,1-1.66-3.43,4.11,4.11,0,0,1,1.13-2.91,3.95,3.95,0,0,1,5.67,0,4.13,4.13,0,0,1,1.11,2.93,3.82,3.82,0,0,1-1.7,3.47q5.53,1.13,5.53,7.35V143.9Zm-5.9-9.65a9.92,9.92,0,0,0-3.74,1.66,3,3,0,0,0-1,2.3q0,3.35,4.24,3.35a6.81,6.81,0,0,0,4.48-1.31,4,4,0,0,0,1.58-3.21v-5.33h-.08Q166.1,132.88,161.17,134.25Zm1-13.25a1.78,1.78,0,0,0,1.37-.62,2.53,2.53,0,0,0,.57-1.76,2.32,2.32,0,0,0-.57-1.68,1.84,1.84,0,0,0-1.37-.59,1.8,1.8,0,0,0-1.35.57,2.36,2.36,0,0,0-.55,1.7,2.53,2.53,0,0,0,.57,1.76A1.74,1.74,0,0,0,162.18,121Z"/><path d="M176.24,143.9V122.5h3.23v2.06h.08a6.42,6.42,0,0,1,2.54-1.92,8.36,8.36,0,0,1,3.47-.75,7.53,7.53,0,0,1,5.59,2.14,7.9,7.9,0,0,1,2.12,5.82V143.9H190v-13q0-6-4.93-6a5.65,5.65,0,0,0-4,1.41,5.1,5.1,0,0,0-1.52,3.92V143.9Z"/><path d="M214,143.9v-2.06h-.08a7.77,7.77,0,0,1-2.48,1.84,9,9,0,0,1-10.54-2.24,12.57,12.57,0,0,1-2.52-8.24A12.2,12.2,0,0,1,201,125a8.38,8.38,0,0,1,6.64-3.09,7.41,7.41,0,0,1,5.94,2.66h.08V114.42h3.31V143.9Zm-.32-7.11v-6.62a5.29,5.29,0,0,0-1.49-3.65,5.16,5.16,0,0,0-4-1.63,5.71,5.71,0,0,0-4.85,2.18,12.21,12.21,0,0,0,0,12.28,5.71,5.71,0,0,0,4.85,2.18,5.65,5.65,0,0,0,3.92-1.41A4.33,4.33,0,0,0,213.63,136.79Z"/><path d="M236,143.9v-2.34H236a5.89,5.89,0,0,1-2.3,2,8.61,8.61,0,0,1-4.24.95,7.57,7.57,0,0,1-5.39-1.74,5.75,5.75,0,0,1-1.84-4.36,5.41,5.41,0,0,1,1.64-4.18,13.12,13.12,0,0,1,5.55-2.52q1.45-.36,2.16-.57t1.64-.55a5,5,0,0,0,1.33-.67,3.16,3.16,0,0,0,.71-.81,2,2,0,0,0,.3-1.09,2.83,2.83,0,0,0-1.11-2.28,5.26,5.26,0,0,0-3.37-.91,4.85,4.85,0,0,0-5.21,4.24l-3-.85a7.58,7.58,0,0,1,2.62-4.58,8.21,8.21,0,0,1,5.45-1.76,8.78,8.78,0,0,1,5.88,1.84q2.16,1.84,2.16,5.76V143.9Zm-5.9-9.65a9.92,9.92,0,0,0-3.74,1.66,3,3,0,0,0-1,2.3q0,3.35,4.24,3.35a6.81,6.81,0,0,0,4.48-1.31,4,4,0,0,0,1.58-3.21v-5.33h-.08Q235.08,132.88,230.15,134.25Z"/><path d="M245.42,147.78l2.79-1.41a7.71,7.71,0,0,0,2,3.13,6.14,6.14,0,0,0,7.61-.36,6,6,0,0,0,1.41-4.22V142h-.08a7.38,7.38,0,0,1-5.94,2.46,8.48,8.48,0,0,1-6.83-3.07,12.37,12.37,0,0,1-2.58-8.24,12.08,12.08,0,0,1,2.69-8.22,8.5,8.5,0,0,1,6.68-3.09,7.28,7.28,0,0,1,6,2.66h.08V122.5h3.23v21.73q0,4.56-2.28,7a8.3,8.3,0,0,1-6.32,2.4,8.9,8.9,0,0,1-5.43-1.6A8.5,8.5,0,0,1,245.42,147.78Zm13.81-10.9v-6.78a5.14,5.14,0,0,0-1.51-3.6,5.25,5.25,0,0,0-4-1.61,5.81,5.81,0,0,0-4.87,2.2,11.86,11.86,0,0,0,0,12.26,5.82,5.82,0,0,0,4.89,2.18,5.76,5.76,0,0,0,4-1.39A4.23,4.23,0,0,0,259.23,136.87Z"/><path d="M277.24,134.61l3.27-.65a10.45,10.45,0,0,0,2.1,5.69,6.09,6.09,0,0,0,4.81,1.82,6.31,6.31,0,0,0,4.66-1.6,5.35,5.35,0,0,0,1.6-3.94q0-5.74-6.18-5.73h-2V127.3h.85a11.4,11.4,0,0,0,1.7-.12,13.39,13.39,0,0,0,2-.5,3.7,3.7,0,0,0,1.94-1.39,4.17,4.17,0,0,0,.73-2.5,4.4,4.4,0,0,0-1.41-3.47,5.58,5.58,0,0,0-3.84-1.25,5.25,5.25,0,0,0-3.86,1.41,6.52,6.52,0,0,0-1.76,4l-3.15-.57a8.48,8.48,0,0,1,2.77-5.69,8.74,8.74,0,0,1,6-2.14,9.1,9.1,0,0,1,6.06,2,6.85,6.85,0,0,1,2.38,5.55,5.63,5.63,0,0,1-1.35,3.9,6.17,6.17,0,0,1-3,2v.08a6.75,6.75,0,0,1,3.82,2.46,8.61,8.61,0,0,1-1.07,11.13,9.71,9.71,0,0,1-6.83,2.4,10,10,0,0,1-6.95-2.42Q277.8,139.66,277.24,134.61Z"/><path d="M302.76,127.26V122.5h4.77v4.77Zm0,16.64v-4.77h4.77v4.77Z"/><path d="M329.42,137.32l2.67,1.74a10.65,10.65,0,0,1-3.45,3.9,9.44,9.44,0,0,1-5.51,1.56,9.19,9.19,0,0,1-7.15-3.09,11.81,11.81,0,0,1-2.79-8.22,12,12,0,0,1,2.73-8.22,9,9,0,0,1,7-3.09,8.82,8.82,0,0,1,6.95,3q2.67,3,2.67,8.28v1H316.49a8.38,8.38,0,0,0,1.72,5.21,5.77,5.77,0,0,0,4.83,2.14,7.2,7.2,0,0,0,2.26-.34,8,8,0,0,0,1.62-.69,4.84,4.84,0,0,0,1.19-1.13,12.83,12.83,0,0,0,.77-1Q329,138.09,329.42,137.32Zm-12.84-5.78H329.3a7.82,7.82,0,0,0-1.62-4.68,6.47,6.47,0,0,0-9.45.14A7.58,7.58,0,0,0,316.57,131.54Z"/><path d="M360.15,143.9v-2.34h-.08a5.89,5.89,0,0,1-2.3,2,8.61,8.61,0,0,1-4.24.95,7.57,7.57,0,0,1-5.39-1.74,5.75,5.75,0,0,1-1.84-4.36,5.41,5.41,0,0,1,1.64-4.18,13.12,13.12,0,0,1,5.55-2.52q1.45-.36,2.16-.57t1.64-.55a5,5,0,0,0,1.33-.67,3.16,3.16,0,0,0,.71-.81,2,2,0,0,0,.3-1.09,2.83,2.83,0,0,0-1.11-2.28,5.26,5.26,0,0,0-3.37-.91,4.85,4.85,0,0,0-5.21,4.24l-3-.85a7.58,7.58,0,0,1,2.62-4.58,8.21,8.21,0,0,1,5.45-1.76,8.78,8.78,0,0,1,5.88,1.84q2.16,1.84,2.16,5.76V143.9Zm-5.9-9.65a9.92,9.92,0,0,0-3.74,1.66,3,3,0,0,0-1,2.3q0,3.35,4.24,3.35a6.81,6.81,0,0,0,4.48-1.31,4,4,0,0,0,1.58-3.21v-5.33h-.08Q359.18,132.88,354.25,134.25Z"/><path d="M369.32,153V122.5h3.15v2.06h.08a7.33,7.33,0,0,1,2.42-1.84,8,8,0,0,1,3.72-.83,8.44,8.44,0,0,1,6.66,3.09A12.14,12.14,0,0,1,388,133.2a12.37,12.37,0,0,1-2.58,8.24,8.4,8.4,0,0,1-6.74,3.07,7.86,7.86,0,0,1-3.63-.85,6.37,6.37,0,0,1-2.34-1.82h-.08V153Zm3.31-22.9v6.78a4.23,4.23,0,0,0,1.58,3.25,5.7,5.7,0,0,0,3.92,1.39,5.88,5.88,0,0,0,4.91-2.18,11.74,11.74,0,0,0,0-12.26,5.87,5.87,0,0,0-4.89-2.2,5.2,5.2,0,0,0-4,1.61A5.14,5.14,0,0,0,372.63,130.09Z"/><path d="M393.26,143.9V122.5h3.15v2.3h.08a4.48,4.48,0,0,1,1.9-2,5.22,5.22,0,0,1,2.54-.69,4.56,4.56,0,0,1,.95.1c.31.07.55.13.71.18l.2.12-.61,3.27a3.66,3.66,0,0,0-1.7-.32,3.36,3.36,0,0,0-3,1.35,7.85,7.85,0,0,0-.93,4.34V143.9Z"/><path d="M407.24,118.18v-3.76H411v3.76Zm.24,25.73V122.5h3.31v21.4Z"/><path d="M417.7,143.9V114.42h3.35V143.9Z"/><path d="M443.1,143.9V119.47L437,123.3v-3.63l6.5-4h2.71V143.9Z"/><path d="M455.42,137.4l3.11-1q1.25,5.05,5.9,5,6.7,0,6.74-11.59h-.08a4.37,4.37,0,0,1-.6,1.11,9,9,0,0,1-1.29,1.39,6.9,6.9,0,0,1-2.28,1.29,9.28,9.28,0,0,1-12.62-9.09,9.22,9.22,0,0,1,9.37-9.57,9.39,9.39,0,0,1,7.81,3.7q2.89,3.69,2.89,11.08,0,7.67-2.75,11.19a8.73,8.73,0,0,1-7.23,3.51,8.88,8.88,0,0,1-5.86-1.94A9.26,9.26,0,0,1,455.42,137.4Zm8.48-6.18a6.09,6.09,0,0,0,4.58-1.82,6.4,6.4,0,0,0,1.76-4.65A6.65,6.65,0,0,0,468.4,120a6.29,6.29,0,0,0-4.75-1.92,5.89,5.89,0,0,0-4.4,1.78,6.52,6.52,0,0,0-1.74,4.77,6.64,6.64,0,0,0,1.74,4.82A6.16,6.16,0,0,0,463.9,131.22Z"/><path d="M480.62,127.26V122.5h4.77v4.77Zm0,16.64v-4.77h4.77v4.77Z"/><path d="M501.58,144.51a9,9,0,0,1-7.75-3.92Q491,136.67,491,129.4q0-6.94,2.91-10.66a9.68,9.68,0,0,1,15.25,0q2.89,3.72,2.89,10.66,0,7.27-2.79,11.19A9,9,0,0,1,501.58,144.51Zm-5.29-6.24a6,6,0,0,0,10.58,0q1.82-3.17,1.82-8.9,0-5.41-1.86-8.34a6.18,6.18,0,0,0-10.5,0q-1.86,2.91-1.86,8.36Q494.47,135.1,496.29,138.27Z"/><path d="M526.45,144.51a9,9,0,0,1-7.75-3.92q-2.78-3.92-2.78-11.19,0-6.94,2.91-10.66a9.68,9.68,0,0,1,15.25,0Q537,122.46,537,129.4q0,7.27-2.79,11.19A9,9,0,0,1,526.45,144.51Zm-5.29-6.24a6,6,0,0,0,10.58,0q1.82-3.17,1.82-8.9,0-5.41-1.86-8.34a6.18,6.18,0,0,0-10.5,0q-1.86,2.91-1.86,8.36Q519.35,135.1,521.16,138.27Z"/><path d="M195.06,196.4V168.13h8.84a12.28,12.28,0,0,1,4.56.85,12,12,0,0,1,3.88,2.5,11.58,11.58,0,0,1,2.77,4.42,18,18,0,0,1,1,6.32,19.62,19.62,0,0,1-1,6.74,10.36,10.36,0,0,1-2.87,4.42,12,12,0,0,1-3.94,2.28,14.18,14.18,0,0,1-4.62.73Zm3.35-3.07h5q9.21,0,9.21-11.11,0-5.33-2.4-8.18a8.13,8.13,0,0,0-6.56-2.85h-5.21Z"/><path d="M222,196.4V168.13h3.35V196.4Z"/><path d="M233,196.4V168.13h17v3.07H236.37v10.22h12.56v2.95H236.37v12Z"/><path d="M251.07,196.4v-4.77h4.77v4.77Z"/><path d="M261.29,189.13l3.11-.6q.61,5.61,5.94,5.61a6.47,6.47,0,0,0,3.82-.93,2.91,2.91,0,0,0,1.27-2.46,2.74,2.74,0,0,0-1.19-2.42,19.81,19.81,0,0,0-5-1.86,15.09,15.09,0,0,1-5.57-2.46,4.62,4.62,0,0,1-1.62-3.72,5.37,5.37,0,0,1,2-4.14,7.92,7.92,0,0,1,5.45-1.76,8.58,8.58,0,0,1,5.57,1.68,8.06,8.06,0,0,1,2.75,4.46l-2.87.77a5.24,5.24,0,0,0-5.45-4.08,5.13,5.13,0,0,0-3.23.89,2.61,2.61,0,0,0-1.13,2.1,2.15,2.15,0,0,0,1.09,2,27,27,0,0,0,5,1.78q4.16,1.17,5.72,2.68a5.6,5.6,0,0,1,1.6,4.1,5.77,5.77,0,0,1-2,4.4q-2,1.86-6.12,1.86-4.24,0-6.48-2.2A9,9,0,0,1,261.29,189.13Z"/><path d="M298.4,189.82l2.67,1.74a10.65,10.65,0,0,1-3.45,3.9A9.45,9.45,0,0,1,292.1,197a9.19,9.19,0,0,1-7.15-3.09,11.8,11.8,0,0,1-2.79-8.22,12,12,0,0,1,2.73-8.22,9,9,0,0,1,7-3.09,8.81,8.81,0,0,1,6.95,3q2.67,3,2.67,8.28v1H285.48a8.37,8.37,0,0,0,1.72,5.21A5.76,5.76,0,0,0,292,194a7.26,7.26,0,0,0,2.26-.34,8,8,0,0,0,1.62-.69,4.76,4.76,0,0,0,1.19-1.13,12,12,0,0,0,.77-1C298,190.67,298.13,190.33,298.4,189.82ZM285.56,184h12.72a7.83,7.83,0,0,0-1.62-4.69,6.47,6.47,0,0,0-9.45.14A7.57,7.57,0,0,0,285.56,184Z"/><path d="M304.18,197l14.54-30.69,2.3,1L306.48,198Z"/><path d="M325.05,196.4V166.92h3.31v10.14h.08a7.41,7.41,0,0,1,5.94-2.67A8.34,8.34,0,0,1,341,177.5a12.28,12.28,0,0,1,2.62,8.2,12.57,12.57,0,0,1-2.52,8.24,9,9,0,0,1-10.54,2.24,7.77,7.77,0,0,1-2.48-1.84H328v2.06Zm3.31-13.73v6.62a4.33,4.33,0,0,0,1.58,3.31,5.65,5.65,0,0,0,3.92,1.41,5.71,5.71,0,0,0,4.85-2.18,12.2,12.2,0,0,0,0-12.28,5.71,5.71,0,0,0-4.85-2.18,5.15,5.15,0,0,0-4,1.64A5.29,5.29,0,0,0,328.37,182.67Z"/><path d="M348.92,170.68v-3.76h3.8v3.76Zm.24,25.73V175h3.31v21.4Z"/><path d="M359.38,196.4V166.92h3.35V196.4Z"/><path d="M367,204.28v-3.15h.69a1.83,1.83,0,0,0,1.37-.46,2.66,2.66,0,0,0,.44-1.8V175h3.31v23.95q0,2.91-1.13,4.12a4.37,4.37,0,0,1-3.35,1.21Zm2.22-33.6v-3.76H373v3.76Z"/><path d="M394.44,189.82l2.67,1.74a10.65,10.65,0,0,1-3.45,3.9,9.45,9.45,0,0,1-5.51,1.55,9.19,9.19,0,0,1-7.15-3.09,11.8,11.8,0,0,1-2.79-8.22,12,12,0,0,1,2.73-8.22,9,9,0,0,1,7-3.09,8.81,8.81,0,0,1,6.95,3q2.67,3,2.67,8.28v1H381.51a8.37,8.37,0,0,0,1.72,5.21,5.76,5.76,0,0,0,4.83,2.14,7.26,7.26,0,0,0,2.26-.34,8,8,0,0,0,1.62-.69,4.76,4.76,0,0,0,1.19-1.13,12,12,0,0,0,.77-1C394,190.67,394.17,190.33,394.44,189.82ZM381.59,184h12.72a7.83,7.83,0,0,0-1.62-4.69,6.47,6.47,0,0,0-9.45.14A7.57,7.57,0,0,0,381.59,184Z"/><path d="M403.6,190.18V177.95h-3V175h3.07v-5.25h3.15V175h5.29v2.95h-5.25v11.83a4.94,4.94,0,0,0,.53,2.66,2.39,2.39,0,0,0,2.1.77h1.61v3.19h-1.78a5.53,5.53,0,0,1-4.38-1.56A6.94,6.94,0,0,1,403.6,190.18Z"/><path d="M417.54,190.18V177.95h-3V175h3.07v-5.25h3.15V175h5.29v2.95h-5.25v11.83a4.94,4.94,0,0,0,.53,2.66,2.39,2.39,0,0,0,2.1.77H425v3.19h-1.78a5.53,5.53,0,0,1-4.38-1.56A6.94,6.94,0,0,1,417.54,190.18Z"/><path d="M445.12,189.82l2.67,1.74a10.65,10.65,0,0,1-3.45,3.9,9.45,9.45,0,0,1-5.51,1.55,9.2,9.2,0,0,1-7.15-3.09,11.81,11.81,0,0,1-2.78-8.22,12,12,0,0,1,2.73-8.22,9,9,0,0,1,7-3.09,8.81,8.81,0,0,1,6.95,3q2.67,3,2.67,8.28v1H432.2a8.37,8.37,0,0,0,1.72,5.21,5.76,5.76,0,0,0,4.83,2.14,7.25,7.25,0,0,0,2.26-.34,8,8,0,0,0,1.61-.69,4.74,4.74,0,0,0,1.19-1.13,11.46,11.46,0,0,0,.77-1C444.67,190.67,444.85,190.33,445.12,189.82ZM432.28,184H445a7.83,7.83,0,0,0-1.61-4.69,6.47,6.47,0,0,0-9.45.14A7.56,7.56,0,0,0,432.28,184Z"/><path d="M453.52,196.4V175h3.15v2.3h.08a4.51,4.51,0,0,1,1.9-2,5.22,5.22,0,0,1,2.54-.69,4.41,4.41,0,0,1,.95.1c.31.07.55.13.71.18l.2.12-.61,3.27a3.66,3.66,0,0,0-1.7-.32,3.37,3.37,0,0,0-3,1.35,7.84,7.84,0,0,0-.93,4.34V196.4Z"/></svg>