<svg id="Layer_1" data-name="Layer 1" xmlns="http://www.w3.org/2000/svg" viewBox="0 0 657.3 313.7"><defs><style>.cls-1{fill:none;stroke:#32baf2;stroke-miterlimit:10;}</style></defs><title>maison_left_alignment</title><path d="M2,61.7V33.32H5.39V58.62H17.71V61.7Z"/><path d="M30.52,62.31a9.1,9.1,0,0,1-7-3q-2.76-3-2.76-8.35t2.84-8.31a9.12,9.12,0,0,1,6.93-3,8.89,8.89,0,0,1,6.83,3q2.78,3,2.78,8.31t-2.72,8.35A8.89,8.89,0,0,1,30.52,62.31Zm0-3A5.6,5.6,0,0,0,35,57.1,9.45,9.45,0,0,0,36.84,51a9.53,9.53,0,0,0-1.78-6.14,5.59,5.59,0,0,0-4.54-2.21,5.82,5.82,0,0,0-4.66,2.17A9.35,9.35,0,0,0,24,51a9.35,9.35,0,0,0,1.82,6.18A5.82,5.82,0,0,0,30.52,59.31Z"/><path d="M45.4,61.7V40.22h3.16v2.31h.08a4.51,4.51,0,0,1,1.9-2,5.26,5.26,0,0,1,2.55-.69,4.5,4.5,0,0,1,1,.1c.31.07.55.13.71.18l.2.12-.61,3.28a3.67,3.67,0,0,0-1.7-.32,3.38,3.38,0,0,0-3,1.36,7.88,7.88,0,0,0-.93,4.36V61.7Z"/><path d="M74.3,55.09,77,56.83a10.69,10.69,0,0,1-3.47,3.91A9.48,9.48,0,0,1,68,62.31a9.23,9.23,0,0,1-7.17-3.1A11.85,11.85,0,0,1,58,51a12,12,0,0,1,2.74-8.25,9,9,0,0,1,7.07-3.1,8.85,8.85,0,0,1,7,3q2.68,3,2.68,8.31v1H61.33A8.4,8.4,0,0,0,63,57.16a5.78,5.78,0,0,0,4.84,2.15A7.26,7.26,0,0,0,70.16,59a8.05,8.05,0,0,0,1.62-.69A4.82,4.82,0,0,0,73,57.14a12.47,12.47,0,0,0,.77-1Q73.89,55.86,74.3,55.09ZM61.41,49.3H74.18a7.86,7.86,0,0,0-1.62-4.7,5.63,5.63,0,0,0-4.74-2,5.6,5.6,0,0,0-4.74,2.13A7.6,7.6,0,0,0,61.41,49.3Z"/><path d="M82.73,61.7V40.22h3v2.07h.08a5.66,5.66,0,0,1,2.27-1.93,7.08,7.08,0,0,1,3.2-.75,6.34,6.34,0,0,1,3.47.91A6.51,6.51,0,0,1,97,42.77H97a6.43,6.43,0,0,1,2.37-2.23,7.16,7.16,0,0,1,3.67-.93,6.92,6.92,0,0,1,7.42,7.46V61.7h-3.2V48.08q0-5.43-4.38-5.43A4.45,4.45,0,0,0,99.45,44a5.42,5.42,0,0,0-1.24,3.79V61.7H95V48.08q0-5.43-4.38-5.43a4.17,4.17,0,0,0-3.49,1.44A5.8,5.8,0,0,0,86,47.8V61.7Z"/><path d="M126.91,35.88V32.11h3.81v3.77Zm.24,25.82V40.22h3.32V61.7Z"/><path d="M137.41,70.82V40.22h3.16v2.07h.08a7.36,7.36,0,0,1,2.43-1.84,8.06,8.06,0,0,1,3.73-.83,8.47,8.47,0,0,1,6.69,3.1A12.19,12.19,0,0,1,156.17,51a12.42,12.42,0,0,1-2.59,8.27,8.43,8.43,0,0,1-6.77,3.08,7.89,7.89,0,0,1-3.65-.85,6.39,6.39,0,0,1-2.35-1.82h-.08V70.82Zm3.32-23v6.81a4.24,4.24,0,0,0,1.58,3.26,5.72,5.72,0,0,0,3.93,1.4,5.9,5.9,0,0,0,4.92-2.19A9.75,9.75,0,0,0,152.89,51a9.68,9.68,0,0,0-1.74-6.14,5.89,5.89,0,0,0-4.9-2.21,5.22,5.22,0,0,0-4,1.62A5.16,5.16,0,0,0,140.73,47.84Z"/><path d="M159.82,54.4l3.12-.61q.61,5.63,6,5.63a6.48,6.48,0,0,0,3.83-.93A2.92,2.92,0,0,0,174,56a2.75,2.75,0,0,0-1.2-2.43,19.83,19.83,0,0,0-5-1.86,15.16,15.16,0,0,1-5.59-2.47,4.64,4.64,0,0,1-1.62-3.73,5.39,5.39,0,0,1,2-4.15A8,8,0,0,1,168,39.61a8.61,8.61,0,0,1,5.59,1.68,8.09,8.09,0,0,1,2.76,4.48l-2.88.77A5.26,5.26,0,0,0,168,42.45a5.14,5.14,0,0,0-3.24.89,2.62,2.62,0,0,0-1.13,2.11,2.15,2.15,0,0,0,1.09,2,27,27,0,0,0,5,1.78q4.17,1.18,5.74,2.69a5.62,5.62,0,0,1,1.6,4.11,5.79,5.79,0,0,1-2,4.42q-2,1.87-6.14,1.86-4.26,0-6.5-2.21A9,9,0,0,1,159.82,54.4Z"/><path d="M182,54.2v-14h3.32v13.5q0,3,1.16,4.26a5,5,0,0,0,3.83,1.26,4.66,4.66,0,0,0,3.73-1.5,6.18,6.18,0,0,0,1.3-4.17V40.22h3.28V61.7h-3.24V59.63h-.08a8.91,8.91,0,0,1-.61.73,7.38,7.38,0,0,1-1.89,1.2,7,7,0,0,1-3.22.75,7.49,7.49,0,0,1-5.57-2Q182,58.25,182,54.2Z"/><path d="M205.3,61.7V40.22h3v2.07h.08a5.66,5.66,0,0,1,2.27-1.93,7.08,7.08,0,0,1,3.2-.75,6.34,6.34,0,0,1,3.47.91,6.51,6.51,0,0,1,2.21,2.25h.08A6.43,6.43,0,0,1,222,40.54a7.16,7.16,0,0,1,3.67-.93,6.92,6.92,0,0,1,7.42,7.46V61.7h-3.2V48.08q0-5.43-4.38-5.43A4.45,4.45,0,0,0,222,44a5.42,5.42,0,0,0-1.24,3.79V61.7h-3.2V48.08q0-5.43-4.38-5.43a4.17,4.17,0,0,0-3.49,1.44,5.8,5.8,0,0,0-1.14,3.71V61.7Z"/><path d="M263.75,61.7V59.63h-.08a7.8,7.8,0,0,1-2.49,1.84,9,9,0,0,1-10.58-2.25A12.62,12.62,0,0,1,248.06,51a12.25,12.25,0,0,1,2.66-8.25,8.41,8.41,0,0,1,6.67-3.1,7.44,7.44,0,0,1,6,2.68h.08V32.11h3.32V61.7Zm-.32-7.13V47.92a5.31,5.31,0,0,0-1.5-3.67,5.17,5.17,0,0,0-4-1.64A5.73,5.73,0,0,0,253,44.8,10,10,0,0,0,251.39,51,10,10,0,0,0,253,57.12a5.73,5.73,0,0,0,4.86,2.19,5.67,5.67,0,0,0,3.93-1.42A4.34,4.34,0,0,0,263.43,54.56Z"/><path d="M281.79,62.31a9.1,9.1,0,0,1-7-3Q272,56.31,272,51t2.84-8.31a9.12,9.12,0,0,1,6.93-3,8.89,8.89,0,0,1,6.83,3q2.78,3,2.78,8.31t-2.72,8.35A8.89,8.89,0,0,1,281.79,62.31Zm0-3a5.6,5.6,0,0,0,4.52-2.21,9.45,9.45,0,0,0,1.8-6.14,9.53,9.53,0,0,0-1.78-6.14,5.59,5.59,0,0,0-4.54-2.21,5.82,5.82,0,0,0-4.66,2.17A9.35,9.35,0,0,0,275.3,51a9.35,9.35,0,0,0,1.82,6.18A5.82,5.82,0,0,0,281.79,59.31Z"/><path d="M296.66,61.7V32.11H300V61.7Z"/><path d="M315.06,62.31a9.1,9.1,0,0,1-7-3q-2.76-3-2.76-8.35t2.84-8.31a9.12,9.12,0,0,1,6.93-3,8.89,8.89,0,0,1,6.83,3q2.78,3,2.78,8.31T322,59.31A8.89,8.89,0,0,1,315.06,62.31Zm0-3a5.6,5.6,0,0,0,4.52-2.21,9.45,9.45,0,0,0,1.8-6.14,9.53,9.53,0,0,0-1.78-6.14,5.59,5.59,0,0,0-4.54-2.21,5.82,5.82,0,0,0-4.66,2.17A9.35,9.35,0,0,0,308.58,51a9.35,9.35,0,0,0,1.82,6.18A5.82,5.82,0,0,0,315.06,59.31Z"/><path d="M329.94,61.7V40.22h3.16v2.31h.08a4.51,4.51,0,0,1,1.9-2,5.26,5.26,0,0,1,2.55-.69,4.5,4.5,0,0,1,1,.1c.31.07.55.13.71.18l.2.12-.61,3.28a3.67,3.67,0,0,0-1.7-.32,3.38,3.38,0,0,0-3,1.36,7.88,7.88,0,0,0-.93,4.36V61.7Z"/><path d="M352.27,54.4l3.12-.61q.61,5.63,6,5.63a6.48,6.48,0,0,0,3.83-.93A2.92,2.92,0,0,0,366.46,56a2.75,2.75,0,0,0-1.2-2.43,19.83,19.83,0,0,0-5-1.86,15.16,15.16,0,0,1-5.59-2.47A4.64,4.64,0,0,1,353,45.53a5.39,5.39,0,0,1,2-4.15,8,8,0,0,1,5.47-1.76,8.61,8.61,0,0,1,5.59,1.68,8.09,8.09,0,0,1,2.76,4.48l-2.88.77a5.26,5.26,0,0,0-5.47-4.09,5.14,5.14,0,0,0-3.24.89,2.62,2.62,0,0,0-1.13,2.11,2.15,2.15,0,0,0,1.09,2,27,27,0,0,0,5,1.78q4.17,1.18,5.74,2.69a5.62,5.62,0,0,1,1.6,4.11,5.79,5.79,0,0,1-2,4.42q-2,1.87-6.14,1.86-4.26,0-6.5-2.21A9,9,0,0,1,352.27,54.4Z"/><path d="M374.65,35.88V32.11h3.81v3.77Zm.24,25.82V40.22h3.32V61.7Z"/><path d="M385.92,55.46V43.17h-3v-3H386V34.95h3.16v5.27h5.31v3H389.2V55.05a5,5,0,0,0,.53,2.68,2.4,2.4,0,0,0,2.11.77h1.62v3.2h-1.78q-3,0-4.4-1.56A7,7,0,0,1,385.92,55.46Z"/><path d="M422,61.7V59.35h-.08a5.91,5.91,0,0,1-2.31,2,8.63,8.63,0,0,1-4.26,1,7.6,7.6,0,0,1-5.41-1.74A5.77,5.77,0,0,1,408,56.19,5.44,5.44,0,0,1,409.69,52a13.18,13.18,0,0,1,5.57-2.53q1.46-.36,2.17-.57t1.64-.55a5,5,0,0,0,1.34-.67,3.19,3.19,0,0,0,.71-.81,2,2,0,0,0,.3-1.1,2.84,2.84,0,0,0-1.11-2.29,5.28,5.28,0,0,0-3.39-.91,4.87,4.87,0,0,0-5.23,4.26l-3-.85a7.61,7.61,0,0,1,2.63-4.6,8.24,8.24,0,0,1,5.47-1.76,8.81,8.81,0,0,1,5.9,1.84q2.17,1.85,2.17,5.78V61.7ZM416,52a9.94,9.94,0,0,0-3.75,1.66,3,3,0,0,0-1,2.31q0,3.36,4.26,3.36A6.84,6.84,0,0,0,420,58a4,4,0,0,0,1.58-3.22V49.46h-.08Q421,50.63,416,52Z"/><path d="M431.15,61.7V40.22h3v2.07h.08a5.66,5.66,0,0,1,2.27-1.93,7.08,7.08,0,0,1,3.2-.75,6.34,6.34,0,0,1,3.47.91,6.51,6.51,0,0,1,2.21,2.25h.08a6.43,6.43,0,0,1,2.37-2.23,7.16,7.16,0,0,1,3.67-.93,6.92,6.92,0,0,1,7.42,7.46V61.7h-3.2V48.08q0-5.43-4.38-5.43A4.45,4.45,0,0,0,447.87,44a5.42,5.42,0,0,0-1.24,3.79V61.7h-3.2V48.08q0-5.43-4.38-5.43a4.17,4.17,0,0,0-3.49,1.44,5.8,5.8,0,0,0-1.14,3.71V61.7Z"/><path d="M480.28,55.09,483,56.83a10.69,10.69,0,0,1-3.47,3.91A9.48,9.48,0,0,1,474,62.31a9.23,9.23,0,0,1-7.17-3.1A11.85,11.85,0,0,1,464,51a12,12,0,0,1,2.74-8.25,9,9,0,0,1,7.07-3.1,8.85,8.85,0,0,1,7,3q2.68,3,2.68,8.31v1H467.31A8.4,8.4,0,0,0,469,57.16a5.78,5.78,0,0,0,4.84,2.15,7.26,7.26,0,0,0,2.27-.34,8.05,8.05,0,0,0,1.62-.69,4.82,4.82,0,0,0,1.2-1.13,12.47,12.47,0,0,0,.77-1Q479.87,55.86,480.28,55.09Zm-12.89-5.8h12.77a7.86,7.86,0,0,0-1.62-4.7,6.5,6.5,0,0,0-9.48.14A7.6,7.6,0,0,0,467.39,49.3Z"/><path d="M489.48,55.46V43.17h-3v-3h3.08V34.95h3.16v5.27H498v3h-5.27V55.05a5,5,0,0,0,.53,2.68,2.4,2.4,0,0,0,2.11.77H497v3.2h-1.78q-3,0-4.4-1.56A7,7,0,0,1,489.48,55.46Z"/><path d="M503.5,66V64.17a2.22,2.22,0,0,0,1.95-2.47H503.5V56.92h4.78v4.17Q508.29,65.67,503.5,66Z"/><path d="M521.66,61.7V40.22h3.24v2.07H525a6.46,6.46,0,0,1,2.55-1.93,8.39,8.39,0,0,1,3.49-.75,7.56,7.56,0,0,1,5.61,2.15,7.93,7.93,0,0,1,2.13,5.84V61.7h-3.28V48.65q0-6-4.94-6a5.67,5.67,0,0,0-4,1.42A5.11,5.11,0,0,0,525,48V61.7Z"/><path d="M545,54.2v-14h3.32v13.5q0,3,1.16,4.26a5,5,0,0,0,3.83,1.26,4.66,4.66,0,0,0,3.73-1.5,6.18,6.18,0,0,0,1.3-4.17V40.22h3.28V61.7h-3.24V59.63h-.08a8.63,8.63,0,0,1-.61.73,7.39,7.39,0,0,1-1.88,1.2,7,7,0,0,1-3.22.75,7.49,7.49,0,0,1-5.57-2Q545,58.25,545,54.2Z"/><path d="M568.36,61.7V32.11h3.36V61.7Z"/><path d="M578.41,61.7V32.11h3.36V61.7Z"/><path d="M600.94,61.7V59.35h-.08a5.9,5.9,0,0,1-2.31,2,8.63,8.63,0,0,1-4.26,1,7.6,7.6,0,0,1-5.41-1.74A5.77,5.77,0,0,1,587,56.19,5.43,5.43,0,0,1,588.68,52a13.18,13.18,0,0,1,5.57-2.53c1-.24,1.7-.43,2.17-.57s1-.32,1.64-.55a5,5,0,0,0,1.34-.67,3.17,3.17,0,0,0,.71-.81,2,2,0,0,0,.3-1.1,2.84,2.84,0,0,0-1.11-2.29,5.27,5.27,0,0,0-3.38-.91,4.87,4.87,0,0,0-5.23,4.26l-3-.85a7.6,7.6,0,0,1,2.63-4.6,8.24,8.24,0,0,1,5.47-1.76,8.81,8.81,0,0,1,5.9,1.84q2.17,1.85,2.17,5.78V61.7ZM595,52a9.93,9.93,0,0,0-3.75,1.66,3,3,0,0,0-1,2.31q0,3.36,4.26,3.36A6.84,6.84,0,0,0,599,58a4,4,0,0,0,1.58-3.22V49.46h-.08Q600,50.63,595,52Z"/><path d="M610.55,61.7V56.92h4.78V61.7Z"/><path d="M2,114.39V86H5.67L18.6,108.84h.08V86H22v28.37H18.48l-13-22.82H5.39v22.82Z"/><path d="M28.9,106.89v-14h3.32v13.5q0,3,1.16,4.26a5,5,0,0,0,3.83,1.26,4.66,4.66,0,0,0,3.73-1.5,6.18,6.18,0,0,0,1.3-4.17V92.91h3.28v21.48H42.28v-2.07H42.2a8.91,8.91,0,0,1-.61.73,7.38,7.38,0,0,1-1.89,1.2,7,7,0,0,1-3.22.75,7.49,7.49,0,0,1-5.57-2Q28.9,110.95,28.9,106.89Z"/><path d="M52.21,114.39V84.8h3.36v29.59Z"/><path d="M62.26,114.39V84.8h3.36v29.59Z"/><path d="M84.8,114.39V112h-.08a5.91,5.91,0,0,1-2.31,2,8.63,8.63,0,0,1-4.26,1,7.6,7.6,0,0,1-5.41-1.74,5.77,5.77,0,0,1-1.85-4.38,5.44,5.44,0,0,1,1.64-4.19,13.18,13.18,0,0,1,5.57-2.53q1.46-.36,2.17-.57t1.64-.55a5,5,0,0,0,1.34-.67,3.19,3.19,0,0,0,.71-.81,2,2,0,0,0,.3-1.1,2.84,2.84,0,0,0-1.11-2.29,5.28,5.28,0,0,0-3.39-.91,4.87,4.87,0,0,0-5.23,4.26l-3-.85a7.61,7.61,0,0,1,2.63-4.6,8.24,8.24,0,0,1,5.47-1.76,8.81,8.81,0,0,1,5.9,1.84q2.17,1.85,2.17,5.78v14.47Zm-5.92-9.69a9.94,9.94,0,0,0-3.75,1.66,3,3,0,0,0-1,2.31q0,3.36,4.26,3.36a6.84,6.84,0,0,0,4.5-1.32,4,4,0,0,0,1.58-3.22v-5.35h-.08Q83.82,103.33,78.88,104.7Z"/><path d="M103.93,123.51V92.91h3.16V95h.08a7.36,7.36,0,0,1,2.43-1.84,8.06,8.06,0,0,1,3.73-.83A8.47,8.47,0,0,1,120,95.4a12.19,12.19,0,0,1,2.68,8.25,12.42,12.42,0,0,1-2.59,8.27,8.43,8.43,0,0,1-6.77,3.08,7.89,7.89,0,0,1-3.65-.85,6.39,6.39,0,0,1-2.35-1.82h-.08v11.19Zm3.32-23v6.81a4.24,4.24,0,0,0,1.58,3.26,5.72,5.72,0,0,0,3.93,1.4,5.9,5.9,0,0,0,4.92-2.19,9.75,9.75,0,0,0,1.72-6.16,9.68,9.68,0,0,0-1.74-6.14,5.89,5.89,0,0,0-4.9-2.21,5.22,5.22,0,0,0-4,1.62A5.16,5.16,0,0,0,107.25,100.53Z"/><path d="M128,114.39V84.8h3.32V95.06h.08a6.36,6.36,0,0,1,2.61-2,8.88,8.88,0,0,1,3.67-.77,7.62,7.62,0,0,1,5.57,2.09,8,8,0,0,1,2.13,6v14H142V101.26q0-5.92-5-5.92a5.71,5.71,0,0,0-4.19,1.54,5.39,5.39,0,0,0-1.56,4v13.5Z"/><path d="M164.32,114.39V112h-.08a5.91,5.91,0,0,1-2.31,2,8.63,8.63,0,0,1-4.26,1,7.6,7.6,0,0,1-5.41-1.74,5.77,5.77,0,0,1-1.85-4.38,5.44,5.44,0,0,1,1.64-4.19,13.18,13.18,0,0,1,5.57-2.53q1.46-.36,2.17-.57t1.64-.55a5,5,0,0,0,1.34-.67,3.19,3.19,0,0,0,.71-.81,2,2,0,0,0,.3-1.1,2.84,2.84,0,0,0-1.11-2.29,5.28,5.28,0,0,0-3.39-.91,4.87,4.87,0,0,0-5.23,4.26l-3-.85a7.61,7.61,0,0,1,2.63-4.6,8.24,8.24,0,0,1,5.47-1.76,8.81,8.81,0,0,1,5.9,1.84q2.17,1.85,2.17,5.78v14.47Zm-5.92-9.69a9.94,9.94,0,0,0-3.75,1.66,3,3,0,0,0-1,2.31q0,3.36,4.26,3.36a6.84,6.84,0,0,0,4.5-1.32A4,4,0,0,0,164,107.5v-5.35h-.08Q163.35,103.33,158.4,104.7Z"/><path d="M173.52,114.39V92.91h3.16v2.31h.08a4.51,4.51,0,0,1,1.9-2,5.26,5.26,0,0,1,2.55-.69,4.5,4.5,0,0,1,1,.1c.31.07.55.13.71.18l.2.12-.61,3.28a3.67,3.67,0,0,0-1.7-.32,3.38,3.38,0,0,0-3,1.36,7.88,7.88,0,0,0-.93,4.36v12.77Z"/><path d="M202.42,107.78l2.68,1.74a10.69,10.69,0,0,1-3.47,3.91A9.48,9.48,0,0,1,196.1,115a9.23,9.23,0,0,1-7.17-3.1,11.85,11.85,0,0,1-2.8-8.25,12,12,0,0,1,2.74-8.25,9,9,0,0,1,7.07-3.1,8.85,8.85,0,0,1,7,3q2.68,3,2.68,8.31v1H189.45a8.4,8.4,0,0,0,1.72,5.23A5.78,5.78,0,0,0,196,112a7.26,7.26,0,0,0,2.27-.34,8.05,8.05,0,0,0,1.62-.69,4.82,4.82,0,0,0,1.2-1.13,12.47,12.47,0,0,0,.77-1Q202,108.55,202.42,107.78ZM189.53,102H202.3a7.86,7.86,0,0,0-1.62-4.7,6.5,6.5,0,0,0-9.48.14A7.6,7.6,0,0,0,189.53,102Z"/><path d="M211.62,108.15V95.87h-3v-3h3.08V87.64h3.16v5.27h5.31v3H214.9v11.88a5,5,0,0,0,.53,2.68,2.4,2.4,0,0,0,2.11.77h1.62v3.2h-1.78q-3,0-4.4-1.56A7,7,0,0,1,211.62,108.15Z"/><path d="M225.24,114.39V92.91h3.16v2.31h.08a4.51,4.51,0,0,1,1.9-2,5.26,5.26,0,0,1,2.55-.69,4.5,4.5,0,0,1,1,.1c.31.07.55.13.71.18l.2.12-.61,3.28a3.67,3.67,0,0,0-1.7-.32,3.38,3.38,0,0,0-3,1.36,7.88,7.88,0,0,0-.93,4.36v12.77Z"/><path d="M251.75,114.39V112h-.08a5.91,5.91,0,0,1-2.31,2,8.63,8.63,0,0,1-4.26,1,7.6,7.6,0,0,1-5.41-1.74,5.77,5.77,0,0,1-1.85-4.38,5.44,5.44,0,0,1,1.64-4.19,13.18,13.18,0,0,1,5.57-2.53q1.46-.36,2.17-.57t1.64-.55a5,5,0,0,0,1.34-.67,3.19,3.19,0,0,0,.71-.81,2,2,0,0,0,.3-1.1,2.84,2.84,0,0,0-1.11-2.29,5.28,5.28,0,0,0-3.39-.91,4.87,4.87,0,0,0-5.23,4.26l-3-.85a7.61,7.61,0,0,1,2.63-4.6,8.24,8.24,0,0,1,5.47-1.76,8.81,8.81,0,0,1,5.9,1.84q2.17,1.85,2.17,5.78v14.47Zm-5.92-9.69a9.94,9.94,0,0,0-3.75,1.66,3,3,0,0,0-1,2.31q0,3.36,4.26,3.36a6.84,6.84,0,0,0,4.5-1.32,4,4,0,0,0,1.58-3.22v-5.35h-.08Q250.78,103.33,245.83,104.7Z"/><path d="M283.37,114.39V112h-.08a5.91,5.91,0,0,1-2.31,2,8.63,8.63,0,0,1-4.26,1,7.6,7.6,0,0,1-5.41-1.74,5.77,5.77,0,0,1-1.85-4.38,5.44,5.44,0,0,1,1.64-4.19,13.18,13.18,0,0,1,5.57-2.53q1.46-.36,2.17-.57t1.64-.55a5,5,0,0,0,1.34-.67,3.19,3.19,0,0,0,.71-.81,2,2,0,0,0,.3-1.1,2.84,2.84,0,0,0-1.11-2.29,5.28,5.28,0,0,0-3.39-.91,4.87,4.87,0,0,0-5.23,4.26l-3-.85a7.61,7.61,0,0,1,2.63-4.6,8.24,8.24,0,0,1,5.47-1.76,8.81,8.81,0,0,1,5.9,1.84q2.17,1.85,2.17,5.78v14.47Zm-5.92-9.69a9.94,9.94,0,0,0-3.75,1.66,3,3,0,0,0-1,2.31q0,3.36,4.26,3.36a6.84,6.84,0,0,0,4.5-1.32A4,4,0,0,0,283,107.5v-5.35H283Q282.39,103.33,277.45,104.7Z"/><path d="M292.57,114.39V92.91h3.24V95h.08a6.46,6.46,0,0,1,2.55-1.93,8.39,8.39,0,0,1,3.49-.75,7.56,7.56,0,0,1,5.61,2.15,7.93,7.93,0,0,1,2.13,5.84v14.11h-3.28V101.34q0-6-4.94-6a5.67,5.67,0,0,0-4,1.42,5.11,5.11,0,0,0-1.52,3.93v13.7Z"/><path d="M316.93,108.15V95.87h-3v-3H317V87.64h3.16v5.27h5.31v3h-5.27v11.88a5,5,0,0,0,.53,2.68,2.4,2.4,0,0,0,2.11.77h1.62v3.2h-1.78q-3,0-4.4-1.56A7,7,0,0,1,316.93,108.15Z"/><path d="M344.61,107.78l2.68,1.74a10.69,10.69,0,0,1-3.47,3.91,9.48,9.48,0,0,1-5.53,1.56,9.23,9.23,0,0,1-7.17-3.1,11.85,11.85,0,0,1-2.8-8.25,12,12,0,0,1,2.74-8.25,9,9,0,0,1,7.07-3.1,8.85,8.85,0,0,1,7,3q2.68,3,2.68,8.31v1H331.64a8.4,8.4,0,0,0,1.72,5.23,5.78,5.78,0,0,0,4.84,2.15,7.26,7.26,0,0,0,2.27-.34,8.05,8.05,0,0,0,1.62-.69,4.82,4.82,0,0,0,1.2-1.13,12.47,12.47,0,0,0,.77-1Q344.2,108.55,344.61,107.78ZM331.72,102h12.77a7.86,7.86,0,0,0-1.62-4.7,6.5,6.5,0,0,0-9.48.14A7.6,7.6,0,0,0,331.72,102Z"/><path d="M361.35,107.1l3.12-.61q.61,5.63,6,5.63a6.48,6.48,0,0,0,3.83-.93,2.92,2.92,0,0,0,1.28-2.47,2.75,2.75,0,0,0-1.2-2.43,19.83,19.83,0,0,0-5-1.86,15.16,15.16,0,0,1-5.59-2.47,4.64,4.64,0,0,1-1.62-3.73,5.39,5.39,0,0,1,2-4.15,8,8,0,0,1,5.47-1.76A8.61,8.61,0,0,1,375.17,94a8.09,8.09,0,0,1,2.76,4.48l-2.88.77a5.26,5.26,0,0,0-5.47-4.09,5.14,5.14,0,0,0-3.24.89,2.62,2.62,0,0,0-1.13,2.11,2.15,2.15,0,0,0,1.09,2,27,27,0,0,0,5,1.78q4.17,1.18,5.74,2.69a5.62,5.62,0,0,1,1.6,4.11,5.79,5.79,0,0,1-2,4.42q-2,1.87-6.14,1.86-4.26,0-6.5-2.21A9,9,0,0,1,361.35,107.1Z"/><path d="M398.6,107.78l2.68,1.74a10.69,10.69,0,0,1-3.47,3.91,9.48,9.48,0,0,1-5.53,1.56,9.23,9.23,0,0,1-7.17-3.1,11.85,11.85,0,0,1-2.8-8.25A12,12,0,0,1,385,95.4a9,9,0,0,1,7.07-3.1,8.85,8.85,0,0,1,7,3q2.68,3,2.68,8.31v1H385.63a8.4,8.4,0,0,0,1.72,5.23A5.78,5.78,0,0,0,392.2,112a7.26,7.26,0,0,0,2.27-.34,8.05,8.05,0,0,0,1.62-.69,4.82,4.82,0,0,0,1.2-1.13,12.47,12.47,0,0,0,.77-1Q398.2,108.55,398.6,107.78ZM385.71,102h12.77a7.86,7.86,0,0,0-1.62-4.7,6.5,6.5,0,0,0-9.48.14A7.6,7.6,0,0,0,385.71,102Z"/><path d="M407,114.39V92.91h3V95h.08a5.66,5.66,0,0,1,2.27-1.93,7.08,7.08,0,0,1,3.2-.75,6.34,6.34,0,0,1,3.47.91,6.51,6.51,0,0,1,2.21,2.25h.08a6.43,6.43,0,0,1,2.37-2.23,7.16,7.16,0,0,1,3.67-.93,6.92,6.92,0,0,1,7.42,7.46v14.63h-3.2V100.77q0-5.43-4.38-5.43a4.45,4.45,0,0,0-3.47,1.36,5.42,5.42,0,0,0-1.24,3.79v13.9h-3.2V100.77q0-5.43-4.38-5.43a4.17,4.17,0,0,0-3.49,1.44,5.8,5.8,0,0,0-1.14,3.71v13.9Z"/><path d="M463.7,114.39V112h-.08a5.91,5.91,0,0,1-2.31,2,8.63,8.63,0,0,1-4.26,1,7.6,7.6,0,0,1-5.41-1.74,5.77,5.77,0,0,1-1.85-4.38,5.44,5.44,0,0,1,1.64-4.19,13.18,13.18,0,0,1,5.57-2.53q1.46-.36,2.17-.57t1.64-.55a5,5,0,0,0,1.34-.67,3.19,3.19,0,0,0,.71-.81,2,2,0,0,0,.3-1.1,2.84,2.84,0,0,0-1.11-2.29,5.28,5.28,0,0,0-3.39-.91,4.87,4.87,0,0,0-5.23,4.26l-3-.85a7.61,7.61,0,0,1,2.63-4.6,8.24,8.24,0,0,1,5.47-1.76,8.81,8.81,0,0,1,5.9,1.84q2.17,1.85,2.17,5.78v14.47Zm-5.92-9.69a9.94,9.94,0,0,0-3.75,1.66,3,3,0,0,0-1,2.31q0,3.36,4.26,3.36a6.84,6.84,0,0,0,4.5-1.32,4,4,0,0,0,1.58-3.22v-5.35h-.08Q462.72,103.33,457.78,104.7Z"/><path d="M472.9,114.39V84.8h3.36v29.59Z"/><path d="M482.95,88.57V84.8h3.81v3.77Zm.24,25.82V92.91h3.32v21.48Z"/><path d="M507.51,123.51V112.32h-.08a7.17,7.17,0,0,1-6,2.68,8.43,8.43,0,0,1-6.77-3.08,12.42,12.42,0,0,1-2.59-8.27,12.13,12.13,0,0,1,2.7-8.25,8.53,8.53,0,0,1,6.71-3.1,8.14,8.14,0,0,1,3.69.81A7.34,7.34,0,0,1,507.59,95h.08V92.91h3.12v30.6Zm0-16.17v-6.81A5.16,5.16,0,0,0,506,96.92a5.27,5.27,0,0,0-4-1.62,5.83,5.83,0,0,0-4.88,2.21,9.76,9.76,0,0,0-1.72,6.14,9.83,9.83,0,0,0,1.7,6.16A5.84,5.84,0,0,0,502,112a5.78,5.78,0,0,0,4-1.4A4.24,4.24,0,0,0,507.51,107.34Z"/><path d="M517.28,106.89v-14h3.32v13.5q0,3,1.16,4.26a5,5,0,0,0,3.83,1.26,4.66,4.66,0,0,0,3.73-1.5,6.18,6.18,0,0,0,1.3-4.17V92.91h3.28v21.48h-3.24v-2.07h-.08a8.91,8.91,0,0,1-.61.73,7.38,7.38,0,0,1-1.89,1.2,7,7,0,0,1-3.22.75,7.49,7.49,0,0,1-5.57-2Q517.28,110.95,517.28,106.89Z"/><path d="M553.07,114.39V112H553a5.89,5.89,0,0,1-2.31,2,8.63,8.63,0,0,1-4.26,1,7.6,7.6,0,0,1-5.41-1.74,5.77,5.77,0,0,1-1.85-4.38,5.44,5.44,0,0,1,1.64-4.19,13.18,13.18,0,0,1,5.57-2.53q1.46-.36,2.17-.57t1.64-.55a5,5,0,0,0,1.34-.67,3.19,3.19,0,0,0,.71-.81,2,2,0,0,0,.3-1.1,2.84,2.84,0,0,0-1.11-2.29,5.28,5.28,0,0,0-3.39-.91,4.87,4.87,0,0,0-5.23,4.26l-3-.85a7.61,7.61,0,0,1,2.63-4.6,8.24,8.24,0,0,1,5.47-1.76,8.81,8.81,0,0,1,5.9,1.84Q556,96,556,99.92v14.47Zm-5.92-9.69a9.94,9.94,0,0,0-3.75,1.66,3,3,0,0,0-1,2.31q0,3.36,4.26,3.36a6.84,6.84,0,0,0,4.5-1.32,4,4,0,0,0,1.58-3.22v-5.35h-.08Q552.1,103.33,547.15,104.7Z"/><path d="M562.27,114.39V92.91h3V95h.08a5.64,5.64,0,0,1,2.27-1.93,7.07,7.07,0,0,1,3.2-.75,6.35,6.35,0,0,1,3.47.91,6.49,6.49,0,0,1,2.21,2.25h.08A6.43,6.43,0,0,1,579,93.23a7.17,7.17,0,0,1,3.67-.93A6.92,6.92,0,0,1,590,99.76v14.63h-3.2V100.77q0-5.43-4.38-5.43A4.45,4.45,0,0,0,579,96.7a5.42,5.42,0,0,0-1.24,3.79v13.9h-3.2V100.77q0-5.43-4.38-5.43a4.17,4.17,0,0,0-3.49,1.44,5.81,5.81,0,0,0-1.13,3.71v13.9Z"/><path d="M596.93,118.69v-1.82a2.22,2.22,0,0,0,1.95-2.47h-1.95v-4.78h4.78v4.17Q601.71,118.36,596.93,118.69Z"/><path d="M1.42,159.59v-14H4.74v13.5q0,3,1.16,4.26a5,5,0,0,0,3.83,1.26,4.66,4.66,0,0,0,3.73-1.5,6.18,6.18,0,0,0,1.3-4.17V145.6H18v21.48H14.79V165h-.08a8.91,8.91,0,0,1-.61.73,7.38,7.38,0,0,1-1.89,1.2,7,7,0,0,1-3.22.75,7.49,7.49,0,0,1-5.57-2Q1.42,163.64,1.42,159.59Z"/><path d="M24.73,167.09V137.5h3.36v29.59Z"/><path d="M34.78,167.09V137.5h3.36v29.59Z"/><path d="M57.31,167.09v-2.35h-.08a5.91,5.91,0,0,1-2.31,2,8.63,8.63,0,0,1-4.26,1A7.6,7.6,0,0,1,45.26,166a5.77,5.77,0,0,1-1.85-4.38,5.44,5.44,0,0,1,1.64-4.19,13.18,13.18,0,0,1,5.57-2.53q1.46-.36,2.17-.57t1.64-.55a5,5,0,0,0,1.34-.67,3.19,3.19,0,0,0,.71-.81,2,2,0,0,0,.3-1.1,2.84,2.84,0,0,0-1.11-2.29,5.28,5.28,0,0,0-3.39-.91,4.87,4.87,0,0,0-5.23,4.26l-3-.85a7.61,7.61,0,0,1,2.63-4.6A8.24,8.24,0,0,1,52.17,145a8.81,8.81,0,0,1,5.9,1.84q2.17,1.85,2.17,5.78v14.47Zm-5.92-9.69a9.94,9.94,0,0,0-3.75,1.66,3,3,0,0,0-1,2.31q0,3.36,4.26,3.36a6.84,6.84,0,0,0,4.5-1.32A4,4,0,0,0,57,160.19v-5.35h-.08Q56.34,156,51.39,157.4Z"/><path d="M66.51,167.09V145.6h3v2.07h.08a5.66,5.66,0,0,1,2.27-1.93,7.08,7.08,0,0,1,3.2-.75,6.34,6.34,0,0,1,3.47.91,6.51,6.51,0,0,1,2.21,2.25h.08a6.43,6.43,0,0,1,2.37-2.23,7.16,7.16,0,0,1,3.67-.93,6.92,6.92,0,0,1,7.42,7.46v14.63h-3.2V153.47q0-5.43-4.38-5.43a4.45,4.45,0,0,0-3.47,1.36A5.42,5.42,0,0,0,82,153.18v13.9H78.8V153.47q0-5.43-4.38-5.43a4.17,4.17,0,0,0-3.49,1.44,5.8,5.8,0,0,0-1.14,3.71v13.9Z"/><path d="M114.87,158.86l3.2.65a9.6,9.6,0,0,1-3,6,8.55,8.55,0,0,1-6,2.23,9,9,0,0,1-7.05-3q-2.72-3-2.72-8.33a11.82,11.82,0,0,1,2.8-8.29,9.06,9.06,0,0,1,7-3.06,8.4,8.4,0,0,1,5.86,2.19,9.28,9.28,0,0,1,2.94,5.67l-3.12.65a8.37,8.37,0,0,0-1.86-4,4.83,4.83,0,0,0-3.81-1.56,5.75,5.75,0,0,0-4.7,2.21,9.52,9.52,0,0,0-1.78,6.14,9.7,9.7,0,0,0,1.74,6.12,5.74,5.74,0,0,0,4.78,2.23A4.92,4.92,0,0,0,113,163,7.69,7.69,0,0,0,114.87,158.86Z"/><path d="M131.49,167.69a9.1,9.1,0,0,1-7-3q-2.76-3-2.76-8.35t2.84-8.31a9.12,9.12,0,0,1,6.93-3,8.89,8.89,0,0,1,6.83,3q2.78,3,2.78,8.31t-2.72,8.35A8.89,8.89,0,0,1,131.49,167.69Zm0-3a5.6,5.6,0,0,0,4.52-2.21,11.41,11.41,0,0,0,0-12.28,5.59,5.59,0,0,0-4.54-2.21,5.82,5.82,0,0,0-4.66,2.17,11.39,11.39,0,0,0,0,12.36A5.82,5.82,0,0,0,131.49,164.69Z"/><path d="M146.36,167.09V145.6h3.16v2.31h.08a4.51,4.51,0,0,1,1.9-2,5.26,5.26,0,0,1,2.55-.69,4.5,4.5,0,0,1,1,.1c.31.07.55.13.71.18l.2.12-.61,3.28a3.67,3.67,0,0,0-1.7-.32,3.38,3.38,0,0,0-3,1.36,7.88,7.88,0,0,0-.93,4.36v12.77Z"/><path d="M160.39,176.2V145.6h3.16v2.07h.08a7.36,7.36,0,0,1,2.43-1.84,8.06,8.06,0,0,1,3.73-.83,8.47,8.47,0,0,1,6.69,3.1,12.19,12.19,0,0,1,2.68,8.25,12.42,12.42,0,0,1-2.59,8.27,8.43,8.43,0,0,1-6.77,3.08,7.89,7.89,0,0,1-3.65-.85,6.39,6.39,0,0,1-2.35-1.82h-.08V176.2Zm3.32-23V160a4.24,4.24,0,0,0,1.58,3.26,5.72,5.72,0,0,0,3.93,1.4,5.9,5.9,0,0,0,4.92-2.19,11.79,11.79,0,0,0,0-12.3,5.89,5.89,0,0,0-4.9-2.21,5.22,5.22,0,0,0-4,1.62A5.16,5.16,0,0,0,163.71,153.22Z"/><path d="M199.3,160.48l2.68,1.74a10.69,10.69,0,0,1-3.47,3.91,9.48,9.48,0,0,1-5.53,1.56,9.23,9.23,0,0,1-7.17-3.1,11.85,11.85,0,0,1-2.8-8.25,12,12,0,0,1,2.74-8.25,9,9,0,0,1,7.07-3.1,8.85,8.85,0,0,1,7,3q2.68,3,2.68,8.31v1H186.33a8.4,8.4,0,0,0,1.72,5.23,5.78,5.78,0,0,0,4.84,2.15,7.26,7.26,0,0,0,2.27-.34,8.05,8.05,0,0,0,1.62-.69,4.82,4.82,0,0,0,1.2-1.13,12.47,12.47,0,0,0,.77-1Q198.89,161.25,199.3,160.48Zm-12.89-5.8h12.77a7.86,7.86,0,0,0-1.62-4.7,6.5,6.5,0,0,0-9.48.14A7.6,7.6,0,0,0,186.41,154.68Z"/><path d="M207.73,167.09V145.6h3.16v2.31H211a4.51,4.51,0,0,1,1.9-2,5.26,5.26,0,0,1,2.55-.69,4.5,4.5,0,0,1,1,.1c.31.07.55.13.71.18l.2.12-.61,3.28a3.67,3.67,0,0,0-1.7-.32,3.38,3.38,0,0,0-3,1.36,7.88,7.88,0,0,0-.93,4.36v12.77Z"/><path d="M231.68,167.09V137.5H235v29.59Z"/><path d="M250.09,167.69a9.1,9.1,0,0,1-7-3q-2.76-3-2.76-8.35t2.84-8.31a9.12,9.12,0,0,1,6.93-3,8.89,8.89,0,0,1,6.83,3q2.78,3,2.78,8.31T257,164.69A8.89,8.89,0,0,1,250.09,167.69Zm0-3a5.6,5.6,0,0,0,4.52-2.21,11.41,11.41,0,0,0,0-12.28,5.59,5.59,0,0,0-4.54-2.21,5.82,5.82,0,0,0-4.66,2.17,11.39,11.39,0,0,0,0,12.36A5.82,5.82,0,0,0,250.09,164.69Z"/><path d="M265,167.09V145.6h3.16v2.31h.08a4.51,4.51,0,0,1,1.9-2,5.26,5.26,0,0,1,2.55-.69,4.5,4.5,0,0,1,1,.1c.31.07.55.13.71.18l.2.12-.61,3.28a3.67,3.67,0,0,0-1.7-.32,3.38,3.38,0,0,0-3,1.36,7.88,7.88,0,0,0-.93,4.36v12.77Z"/><path d="M293.86,160.48l2.68,1.74a10.69,10.69,0,0,1-3.47,3.91,9.48,9.48,0,0,1-5.53,1.56,9.23,9.23,0,0,1-7.17-3.1,11.85,11.85,0,0,1-2.8-8.25,12,12,0,0,1,2.74-8.25,9,9,0,0,1,7.07-3.1,8.85,8.85,0,0,1,7,3q2.68,3,2.68,8.31v1H280.89a8.4,8.4,0,0,0,1.72,5.23,5.78,5.78,0,0,0,4.84,2.15,7.26,7.26,0,0,0,2.27-.34,8.05,8.05,0,0,0,1.62-.69,4.82,4.82,0,0,0,1.2-1.13,12.47,12.47,0,0,0,.77-1Q293.46,161.25,293.86,160.48ZM281,154.68h12.77a7.86,7.86,0,0,0-1.62-4.7,6.5,6.5,0,0,0-9.48.14A7.6,7.6,0,0,0,281,154.68Z"/><path d="M302.29,167.09V145.6h3v2.07h.08a5.66,5.66,0,0,1,2.27-1.93,7.08,7.08,0,0,1,3.2-.75,6.34,6.34,0,0,1,3.47.91,6.51,6.51,0,0,1,2.21,2.25h.08a6.43,6.43,0,0,1,2.37-2.23,7.16,7.16,0,0,1,3.67-.93,6.92,6.92,0,0,1,7.42,7.46v14.63h-3.2V153.47q0-5.43-4.38-5.43a4.45,4.45,0,0,0-3.47,1.36,5.42,5.42,0,0,0-1.24,3.79v13.9h-3.2V153.47q0-5.43-4.38-5.43a4.17,4.17,0,0,0-3.49,1.44,5.8,5.8,0,0,0-1.14,3.71v13.9Z"/><path d="M361.35,160.48l2.68,1.74a10.69,10.69,0,0,1-3.47,3.91,9.48,9.48,0,0,1-5.53,1.56,9.23,9.23,0,0,1-7.17-3.1,11.85,11.85,0,0,1-2.8-8.25,12,12,0,0,1,2.74-8.25,9,9,0,0,1,7.07-3.1,8.85,8.85,0,0,1,7,3q2.68,3,2.68,8.31v1H348.38a8.4,8.4,0,0,0,1.72,5.23,5.78,5.78,0,0,0,4.84,2.15,7.26,7.26,0,0,0,2.27-.34,8.05,8.05,0,0,0,1.62-.69,4.82,4.82,0,0,0,1.2-1.13,12.47,12.47,0,0,0,.77-1Q360.95,161.25,361.35,160.48Zm-12.89-5.8h12.77a7.86,7.86,0,0,0-1.62-4.7,6.5,6.5,0,0,0-9.48.14A7.6,7.6,0,0,0,348.46,154.68Z"/><path d="M370,171l2.8-1.42a7.75,7.75,0,0,0,2,3.14,6.16,6.16,0,0,0,7.64-.37,6,6,0,0,0,1.42-4.24v-2.88h-.08a7.4,7.4,0,0,1-6,2.47,8.52,8.52,0,0,1-6.85-3.08,12.42,12.42,0,0,1-2.59-8.27,12.13,12.13,0,0,1,2.7-8.25,8.53,8.53,0,0,1,6.71-3.1,7.31,7.31,0,0,1,6,2.68h.08V145.6h3.24v21.81q0,4.58-2.29,7a8.33,8.33,0,0,1-6.34,2.41,8.93,8.93,0,0,1-5.45-1.6A8.52,8.52,0,0,1,370,171ZM383.85,160v-6.81a5.16,5.16,0,0,0-1.52-3.61,5.27,5.27,0,0,0-4-1.62,5.83,5.83,0,0,0-4.88,2.21,11.9,11.9,0,0,0,0,12.3,5.84,5.84,0,0,0,4.91,2.19,5.78,5.78,0,0,0,4-1.4A4.24,4.24,0,0,0,383.85,160Z"/><path d="M408.49,160.48l2.68,1.74a10.69,10.69,0,0,1-3.47,3.91,9.48,9.48,0,0,1-5.53,1.56,9.23,9.23,0,0,1-7.17-3.1,11.85,11.85,0,0,1-2.8-8.25,12,12,0,0,1,2.74-8.25A9,9,0,0,1,402,145a8.85,8.85,0,0,1,7,3q2.68,3,2.68,8.31v1H395.52a8.4,8.4,0,0,0,1.72,5.23,5.78,5.78,0,0,0,4.84,2.15,7.26,7.26,0,0,0,2.27-.34,8.05,8.05,0,0,0,1.62-.69,4.82,4.82,0,0,0,1.2-1.13,12.47,12.47,0,0,0,.77-1Q408.09,161.25,408.49,160.48Zm-12.89-5.8h12.77a7.86,7.86,0,0,0-1.62-4.7,6.5,6.5,0,0,0-9.48.14A7.6,7.6,0,0,0,395.6,154.68Z"/><path d="M415.3,159.79l3.12-.61q.61,5.63,6,5.63a6.48,6.48,0,0,0,3.83-.93,2.92,2.92,0,0,0,1.28-2.47,2.75,2.75,0,0,0-1.2-2.43,19.83,19.83,0,0,0-5-1.86,15.16,15.16,0,0,1-5.59-2.47,4.64,4.64,0,0,1-1.62-3.73,5.39,5.39,0,0,1,2-4.15,8,8,0,0,1,5.47-1.76,8.61,8.61,0,0,1,5.59,1.68,8.09,8.09,0,0,1,2.76,4.48l-2.88.77a5.26,5.26,0,0,0-5.47-4.09,5.14,5.14,0,0,0-3.24.89,2.62,2.62,0,0,0-1.13,2.11,2.15,2.15,0,0,0,1.09,2,27,27,0,0,0,5,1.78q4.17,1.18,5.74,2.69a5.62,5.62,0,0,1,1.6,4.11,5.79,5.79,0,0,1-2,4.42q-2,1.87-6.14,1.86-4.26,0-6.5-2.21A9,9,0,0,1,415.3,159.79Z"/><path d="M438.45,160.84V148.56h-3v-3h3.08v-5.27h3.16v5.27H447v3h-5.27v11.88a5,5,0,0,0,.53,2.68,2.4,2.4,0,0,0,2.11.77H446v3.2H444.2q-3,0-4.4-1.56A7,7,0,0,1,438.45,160.84Z"/><path d="M464.15,167.09v-2.35h-.08a5.91,5.91,0,0,1-2.31,2,8.63,8.63,0,0,1-4.26,1,7.6,7.6,0,0,1-5.41-1.74,5.77,5.77,0,0,1-1.85-4.38,5.44,5.44,0,0,1,1.64-4.19,13.18,13.18,0,0,1,5.57-2.53q1.46-.36,2.17-.57t1.64-.55a5,5,0,0,0,1.34-.67,3.19,3.19,0,0,0,.71-.81,2,2,0,0,0,.3-1.1,2.84,2.84,0,0,0-1.11-2.29,5.28,5.28,0,0,0-3.39-.91,4.87,4.87,0,0,0-5.23,4.26l-3-.85a7.61,7.61,0,0,1,2.63-4.6A8.24,8.24,0,0,1,459,145a8.81,8.81,0,0,1,5.9,1.84q2.17,1.85,2.17,5.78v14.47Zm-5.92-9.69a9.94,9.94,0,0,0-3.75,1.66,3,3,0,0,0-1,2.31q0,3.36,4.26,3.36a6.84,6.84,0,0,0,4.5-1.32,4,4,0,0,0,1.58-3.22v-5.35h-.08Q463.17,156,458.23,157.4Z"/><path d="M471.72,159.79l3.12-.61q.61,5.63,6,5.63a6.48,6.48,0,0,0,3.83-.93,2.92,2.92,0,0,0,1.28-2.47,2.75,2.75,0,0,0-1.2-2.43,19.83,19.83,0,0,0-5-1.86,15.16,15.16,0,0,1-5.59-2.47,4.64,4.64,0,0,1-1.62-3.73,5.39,5.39,0,0,1,2-4.15A8,8,0,0,1,480,145a8.61,8.61,0,0,1,5.59,1.68,8.09,8.09,0,0,1,2.76,4.48l-2.88.77a5.26,5.26,0,0,0-5.47-4.09,5.14,5.14,0,0,0-3.24.89,2.62,2.62,0,0,0-1.13,2.11,2.15,2.15,0,0,0,1.09,2,27,27,0,0,0,5,1.78q4.17,1.18,5.74,2.69a5.62,5.62,0,0,1,1.6,4.11,5.79,5.79,0,0,1-2,4.42q-2,1.87-6.14,1.86-4.26,0-6.5-2.21A9,9,0,0,1,471.72,159.79Z"/><path d="M494.1,167.09V162.3h4.78v4.78Z"/><path d="M532.77,167.73l-2.59-2.55a10.7,10.7,0,0,1-7.09,2.51,11.74,11.74,0,0,1-4.48-.85,11.52,11.52,0,0,1-3.81-2.57,12,12,0,0,1-2.74-4.7,21.48,21.48,0,0,1-1-6.91q0-6.93,3.53-10.74a11.18,11.18,0,0,1,8.51-3.81,10.9,10.9,0,0,1,8.37,3.89q3.5,3.89,3.51,10.82,0,6.4-2.92,10.42l2.68,2.63ZM520.89,155.9l1.95-1.86,6.85,6.85q1.7-2.84,1.7-8.07,0-5.59-2.37-8.55a7.32,7.32,0,0,0-5.94-3,7.58,7.58,0,0,0-6.06,2.88q-2.41,2.88-2.41,8.47,0,5.84,2.35,8.86a7.93,7.93,0,0,0,11,1.44Z"/><path d="M540.23,159.59v-14h3.32v13.5q0,3,1.16,4.26a5,5,0,0,0,3.83,1.26,4.67,4.67,0,0,0,3.73-1.5,6.19,6.19,0,0,0,1.3-4.17V145.6h3.28v21.48H553.6V165h-.08a8.23,8.23,0,0,1-.61.73,7.31,7.31,0,0,1-1.88,1.2,7,7,0,0,1-3.22.75,7.49,7.49,0,0,1-5.57-2Q540.23,163.64,540.23,159.59Z"/><path d="M576,167.09v-2.35h-.08a5.9,5.9,0,0,1-2.31,2,8.63,8.63,0,0,1-4.26,1A7.6,7.6,0,0,1,564,166a5.77,5.77,0,0,1-1.84-4.38,5.43,5.43,0,0,1,1.64-4.19,13.18,13.18,0,0,1,5.57-2.53c1-.24,1.7-.43,2.17-.57s1-.32,1.64-.55a5,5,0,0,0,1.34-.67,3.17,3.17,0,0,0,.71-.81,2,2,0,0,0,.3-1.1,2.84,2.84,0,0,0-1.11-2.29A5.27,5.27,0,0,0,571,148a4.87,4.87,0,0,0-5.23,4.26l-3-.85a7.6,7.6,0,0,1,2.63-4.6,8.24,8.24,0,0,1,5.47-1.76,8.81,8.81,0,0,1,5.9,1.84q2.17,1.85,2.17,5.78v14.47Zm-5.92-9.69a9.93,9.93,0,0,0-3.75,1.66,3,3,0,0,0-1,2.31q0,3.36,4.26,3.36a6.84,6.84,0,0,0,4.5-1.32,4,4,0,0,0,1.58-3.22v-5.35h-.08Q575,156,570.1,157.4Z"/><path d="M585.22,167.09V145.6h3v2.07h.08a5.64,5.64,0,0,1,2.27-1.93,7.07,7.07,0,0,1,3.2-.75,6.35,6.35,0,0,1,3.47.91,6.49,6.49,0,0,1,2.21,2.25h.08a6.43,6.43,0,0,1,2.37-2.23,7.17,7.17,0,0,1,3.67-.93,6.92,6.92,0,0,1,7.42,7.46v14.63h-3.2V153.47q0-5.43-4.38-5.43a4.45,4.45,0,0,0-3.47,1.36,5.42,5.42,0,0,0-1.24,3.79v13.9h-3.2V153.47q0-5.43-4.38-5.43a4.17,4.17,0,0,0-3.49,1.44,5.81,5.81,0,0,0-1.13,3.71v13.9Z"/><path d="M619.87,171.38v-1.82a2.22,2.22,0,0,0,1.95-2.47h-1.95V162.3h4.78v4.17Q624.66,171.06,619.87,171.38Z"/><path d="M1.62,228.9V198.3H4.78v2.07h.08a7.36,7.36,0,0,1,2.43-1.84,8.06,8.06,0,0,1,3.73-.83,8.47,8.47,0,0,1,6.69,3.1A12.19,12.19,0,0,1,20.39,209a12.42,12.42,0,0,1-2.59,8.27A8.43,8.43,0,0,1,11,220.39a7.89,7.89,0,0,1-3.65-.85A6.39,6.39,0,0,1,5,217.71H4.94V228.9Zm3.32-23v6.81A4.24,4.24,0,0,0,6.53,216a5.72,5.72,0,0,0,3.93,1.4,5.9,5.9,0,0,0,4.92-2.19,11.79,11.79,0,0,0,0-12.3,5.89,5.89,0,0,0-4.9-2.21,5.22,5.22,0,0,0-4,1.62A5.16,5.16,0,0,0,4.94,205.92Z"/><path d="M40.53,213.17l2.68,1.74a10.69,10.69,0,0,1-3.47,3.91,9.48,9.48,0,0,1-5.53,1.56,9.23,9.23,0,0,1-7.17-3.1,11.85,11.85,0,0,1-2.8-8.25A12,12,0,0,1,27,200.79a9,9,0,0,1,7.07-3.1,8.85,8.85,0,0,1,7,3q2.68,3,2.68,8.31v1H27.56a8.4,8.4,0,0,0,1.72,5.23,5.78,5.78,0,0,0,4.84,2.15A7.26,7.26,0,0,0,36.4,217a8.05,8.05,0,0,0,1.62-.69,4.82,4.82,0,0,0,1.2-1.13,12.47,12.47,0,0,0,.77-1Q40.13,213.94,40.53,213.17Zm-12.89-5.8H40.41a7.86,7.86,0,0,0-1.62-4.7,5.63,5.63,0,0,0-4.74-2,5.6,5.6,0,0,0-4.74,2.13A7.6,7.6,0,0,0,27.64,207.38Z"/><path d="M49,219.78V190.19h3.36v29.59Z"/><path d="M59,219.78V190.19h3.36v29.59Z"/><path d="M83.94,213.17l2.68,1.74a10.69,10.69,0,0,1-3.47,3.91,9.48,9.48,0,0,1-5.53,1.56,9.23,9.23,0,0,1-7.17-3.1,11.85,11.85,0,0,1-2.8-8.25,12,12,0,0,1,2.74-8.25,9,9,0,0,1,7.07-3.1,8.85,8.85,0,0,1,7,3q2.68,3,2.68,8.31v1H71a8.4,8.4,0,0,0,1.72,5.23,5.78,5.78,0,0,0,4.84,2.15,7.26,7.26,0,0,0,2.27-.34,8.05,8.05,0,0,0,1.62-.69,4.82,4.82,0,0,0,1.2-1.13,12.47,12.47,0,0,0,.77-1Q83.54,213.94,83.94,213.17Zm-12.89-5.8H83.82a7.86,7.86,0,0,0-1.62-4.7,5.63,5.63,0,0,0-4.74-2,5.6,5.6,0,0,0-4.74,2.13A7.6,7.6,0,0,0,71.05,207.38Z"/><path d="M92.37,219.78V198.3h3.24v2.07h.08a6.46,6.46,0,0,1,2.55-1.93,8.39,8.39,0,0,1,3.49-.75,7.56,7.56,0,0,1,5.61,2.15,7.93,7.93,0,0,1,2.13,5.84v14.11H106.2V206.73q0-6-4.94-6a5.67,5.67,0,0,0-4,1.42,5.11,5.11,0,0,0-1.52,3.93v13.7Z"/><path d="M116.73,213.54V201.25h-3v-3h3.08V193H120v5.27h5.31v3H120v11.88a5,5,0,0,0,.53,2.68,2.4,2.4,0,0,0,2.11.77h1.62v3.2h-1.78q-3,0-4.4-1.56A7,7,0,0,1,116.73,213.54Z"/><path d="M144.42,213.17l2.68,1.74a10.69,10.69,0,0,1-3.47,3.91,9.48,9.48,0,0,1-5.53,1.56,9.23,9.23,0,0,1-7.17-3.1,11.85,11.85,0,0,1-2.8-8.25,12,12,0,0,1,2.74-8.25,9,9,0,0,1,7.07-3.1,8.85,8.85,0,0,1,7,3q2.68,3,2.68,8.31v1H131.45a8.4,8.4,0,0,0,1.72,5.23,5.78,5.78,0,0,0,4.84,2.15,7.26,7.26,0,0,0,2.27-.34,8.05,8.05,0,0,0,1.62-.69,4.82,4.82,0,0,0,1.2-1.13,12.47,12.47,0,0,0,.77-1Q144,213.94,144.42,213.17Zm-12.89-5.8H144.3a7.86,7.86,0,0,0-1.62-4.7,6.5,6.5,0,0,0-9.48.14A7.6,7.6,0,0,0,131.53,207.38Z"/><path d="M151.23,212.48l3.12-.61q.61,5.63,6,5.63a6.48,6.48,0,0,0,3.83-.93,2.92,2.92,0,0,0,1.28-2.47,2.75,2.75,0,0,0-1.2-2.43,19.83,19.83,0,0,0-5-1.86,15.16,15.16,0,0,1-5.59-2.47,4.64,4.64,0,0,1-1.62-3.73,5.39,5.39,0,0,1,2-4.15,8,8,0,0,1,5.47-1.76,8.61,8.61,0,0,1,5.59,1.68,8.09,8.09,0,0,1,2.76,4.48l-2.88.77a5.26,5.26,0,0,0-5.47-4.09,5.14,5.14,0,0,0-3.24.89,2.62,2.62,0,0,0-1.13,2.11,2.15,2.15,0,0,0,1.09,2,27,27,0,0,0,5,1.78q4.17,1.18,5.74,2.69a5.62,5.62,0,0,1,1.6,4.11,5.79,5.79,0,0,1-2,4.42q-2,1.87-6.14,1.86-4.26,0-6.5-2.21A9,9,0,0,1,151.23,212.48Z"/><path d="M187.67,228.9V217.71h-.08a7.17,7.17,0,0,1-6,2.68,8.43,8.43,0,0,1-6.77-3.08,12.42,12.42,0,0,1-2.59-8.27,12.13,12.13,0,0,1,2.7-8.25,8.53,8.53,0,0,1,6.71-3.1,8.14,8.14,0,0,1,3.69.81,7.34,7.34,0,0,1,2.47,1.86h.08V198.3H191v30.6Zm0-16.17v-6.81a5.16,5.16,0,0,0-1.52-3.61,5.27,5.27,0,0,0-4-1.62,5.83,5.83,0,0,0-4.88,2.21,11.9,11.9,0,0,0,0,12.3,5.84,5.84,0,0,0,4.91,2.19,5.78,5.78,0,0,0,4-1.4A4.24,4.24,0,0,0,187.67,212.73Z"/><path d="M197.44,212.28v-14h3.32v13.5q0,3,1.16,4.26a5,5,0,0,0,3.83,1.26,4.66,4.66,0,0,0,3.73-1.5,6.18,6.18,0,0,0,1.3-4.17V198.3h3.28v21.48h-3.24v-2.07h-.08a8.91,8.91,0,0,1-.61.73,7.38,7.38,0,0,1-1.89,1.2,7,7,0,0,1-3.22.75,7.49,7.49,0,0,1-5.57-2Q197.43,216.33,197.44,212.28Z"/><path d="M235.62,213.17l2.68,1.74a10.69,10.69,0,0,1-3.47,3.91,9.48,9.48,0,0,1-5.53,1.56,9.23,9.23,0,0,1-7.17-3.1,11.85,11.85,0,0,1-2.8-8.25,12,12,0,0,1,2.74-8.25,9,9,0,0,1,7.07-3.1,8.85,8.85,0,0,1,7,3q2.68,3,2.68,8.31v1H222.65a8.4,8.4,0,0,0,1.72,5.23,5.78,5.78,0,0,0,4.84,2.15,7.26,7.26,0,0,0,2.27-.34,8.05,8.05,0,0,0,1.62-.69,4.82,4.82,0,0,0,1.2-1.13,12.47,12.47,0,0,0,.77-1Q235.21,213.94,235.62,213.17Zm-12.89-5.8H235.5a7.86,7.86,0,0,0-1.62-4.7,6.5,6.5,0,0,0-9.48.14A7.6,7.6,0,0,0,222.73,207.38Z"/><path d="M254,219.78V190.19h3.36v29.59Z"/><path d="M276.52,219.78v-2.35h-.08a5.91,5.91,0,0,1-2.31,2,8.63,8.63,0,0,1-4.26,1,7.6,7.6,0,0,1-5.41-1.74,5.77,5.77,0,0,1-1.85-4.38,5.44,5.44,0,0,1,1.64-4.19,13.18,13.18,0,0,1,5.57-2.53q1.46-.36,2.17-.57t1.64-.55a5,5,0,0,0,1.34-.67,3.19,3.19,0,0,0,.71-.81,2,2,0,0,0,.3-1.1,2.84,2.84,0,0,0-1.11-2.29,5.28,5.28,0,0,0-3.39-.91,4.87,4.87,0,0,0-5.23,4.26l-3-.85a7.61,7.61,0,0,1,2.63-4.6,8.24,8.24,0,0,1,5.47-1.76,8.81,8.81,0,0,1,5.9,1.84q2.17,1.85,2.17,5.78v14.47Zm-5.92-9.69a9.94,9.94,0,0,0-3.75,1.66,3,3,0,0,0-1,2.31q0,3.36,4.26,3.36a6.84,6.84,0,0,0,4.5-1.32,4,4,0,0,0,1.58-3.22v-5.35h-.08Q275.54,208.71,270.6,210.09Z"/><path d="M294.07,220.39a9.1,9.1,0,0,1-7-3q-2.76-3-2.76-8.35t2.84-8.31a9.12,9.12,0,0,1,6.93-3,8.89,8.89,0,0,1,6.83,3q2.78,3,2.78,8.31T301,217.39A8.89,8.89,0,0,1,294.07,220.39Zm0-3a5.6,5.6,0,0,0,4.52-2.21,11.41,11.41,0,0,0,0-12.28,5.59,5.59,0,0,0-4.54-2.21,5.82,5.82,0,0,0-4.66,2.17,11.39,11.39,0,0,0,0,12.36A5.82,5.82,0,0,0,294.07,217.39Z"/><path d="M308.94,219.78V198.3h3.16v2.31h.08a4.51,4.51,0,0,1,1.9-2,5.26,5.26,0,0,1,2.55-.69,4.5,4.5,0,0,1,1,.1c.31.07.55.13.71.18l.2.12-.61,3.28a3.67,3.67,0,0,0-1.7-.32,3.38,3.38,0,0,0-3,1.36,7.88,7.88,0,0,0-.93,4.36v12.77Z"/><path d="M337.84,213.17l2.68,1.74a10.69,10.69,0,0,1-3.47,3.91,9.48,9.48,0,0,1-5.53,1.56,9.23,9.23,0,0,1-7.17-3.1,11.85,11.85,0,0,1-2.8-8.25,12,12,0,0,1,2.74-8.25,9,9,0,0,1,7.07-3.1,8.85,8.85,0,0,1,7,3q2.68,3,2.68,8.31v1H324.87a8.4,8.4,0,0,0,1.72,5.23,5.78,5.78,0,0,0,4.84,2.15,7.26,7.26,0,0,0,2.27-.34,8.05,8.05,0,0,0,1.62-.69,4.82,4.82,0,0,0,1.2-1.13,12.47,12.47,0,0,0,.77-1Q337.44,213.94,337.84,213.17ZM325,207.38h12.77a7.86,7.86,0,0,0-1.62-4.7,6.5,6.5,0,0,0-9.48.14A7.6,7.6,0,0,0,325,207.38Z"/><path d="M361.15,213.17l2.68,1.74a10.69,10.69,0,0,1-3.47,3.91,9.48,9.48,0,0,1-5.53,1.56,9.23,9.23,0,0,1-7.17-3.1,11.85,11.85,0,0,1-2.8-8.25,12,12,0,0,1,2.74-8.25,9,9,0,0,1,7.07-3.1,8.85,8.85,0,0,1,7,3q2.68,3,2.68,8.31v1H348.18a8.4,8.4,0,0,0,1.72,5.23,5.78,5.78,0,0,0,4.84,2.15A7.26,7.26,0,0,0,357,217a8.05,8.05,0,0,0,1.62-.69,4.82,4.82,0,0,0,1.2-1.13,12.47,12.47,0,0,0,.77-1Q360.74,213.94,361.15,213.17Zm-12.89-5.8H361a7.86,7.86,0,0,0-1.62-4.7,6.5,6.5,0,0,0-9.48.14A7.6,7.6,0,0,0,348.26,207.38Z"/><path d="M370.35,213.54V201.25h-3v-3h3.08V193h3.16v5.27h5.31v3h-5.27v11.88a5,5,0,0,0,.53,2.68,2.4,2.4,0,0,0,2.11.77h1.62v3.2h-1.78q-3,0-4.4-1.56A7,7,0,0,1,370.35,213.54Z"/><path d="M392.28,212.48l3.12-.61q.61,5.63,6,5.63a6.48,6.48,0,0,0,3.83-.93,2.92,2.92,0,0,0,1.28-2.47,2.75,2.75,0,0,0-1.2-2.43,19.83,19.83,0,0,0-5-1.86,15.16,15.16,0,0,1-5.59-2.47,4.64,4.64,0,0,1-1.62-3.73,5.39,5.39,0,0,1,2-4.15,8,8,0,0,1,5.47-1.76,8.61,8.61,0,0,1,5.59,1.68,8.09,8.09,0,0,1,2.76,4.48l-2.88.77a5.26,5.26,0,0,0-5.47-4.09,5.14,5.14,0,0,0-3.24.89,2.62,2.62,0,0,0-1.13,2.11,2.15,2.15,0,0,0,1.09,2,27,27,0,0,0,5,1.78q4.17,1.18,5.74,2.69a5.62,5.62,0,0,1,1.6,4.11,5.79,5.79,0,0,1-2,4.42q-2,1.87-6.14,1.86-4.26,0-6.5-2.21A9,9,0,0,1,392.28,212.48Z"/><path d="M423,220.39a9.1,9.1,0,0,1-7-3q-2.76-3-2.76-8.35t2.84-8.31a9.12,9.12,0,0,1,6.93-3,8.89,8.89,0,0,1,6.83,3q2.78,3,2.78,8.31t-2.72,8.35A8.89,8.89,0,0,1,423,220.39Zm0-3a5.6,5.6,0,0,0,4.52-2.21,11.41,11.41,0,0,0,0-12.28,5.59,5.59,0,0,0-4.54-2.21,5.82,5.82,0,0,0-4.66,2.17,11.39,11.39,0,0,0,0,12.36A5.82,5.82,0,0,0,423,217.39Z"/><path d="M437.88,219.78V190.19h3.36v29.59Z"/><path d="M447.93,219.78V190.19h3.36v29.59Z"/><path d="M458,194v-3.77h3.81V194Zm.24,25.82V198.3h3.32v21.48Z"/><path d="M482.58,211.55l3.2.65a9.6,9.6,0,0,1-3,6,8.55,8.55,0,0,1-6,2.23,9,9,0,0,1-7.05-3q-2.72-3-2.72-8.33a11.82,11.82,0,0,1,2.8-8.29,9.06,9.06,0,0,1,7-3.06,8.4,8.4,0,0,1,5.86,2.19,9.28,9.28,0,0,1,2.94,5.67l-3.12.65a8.37,8.37,0,0,0-1.86-4,4.83,4.83,0,0,0-3.81-1.56,5.75,5.75,0,0,0-4.7,2.21,9.52,9.52,0,0,0-1.78,6.14,9.7,9.7,0,0,0,1.74,6.12,5.74,5.74,0,0,0,4.78,2.23,4.92,4.92,0,0,0,3.89-1.72A7.69,7.69,0,0,0,482.58,211.55Z"/><path d="M490.85,194v-3.77h3.81V194Zm.24,25.82V198.3h3.32v21.48Z"/><path d="M502.12,213.54V201.25h-3v-3h3.08V193h3.16v5.27h5.31v3H505.4v11.88a5,5,0,0,0,.53,2.68,2.4,2.4,0,0,0,2.11.77h1.62v3.2h-1.78q-3,0-4.4-1.56A7,7,0,0,1,502.12,213.54Z"/><path d="M515.54,212.28v-14h3.32v13.5q0,3,1.16,4.26a5,5,0,0,0,3.83,1.26,4.66,4.66,0,0,0,3.73-1.5,6.18,6.18,0,0,0,1.3-4.17V198.3h3.28v21.48h-3.24v-2.07h-.08a8.91,8.91,0,0,1-.61.73,7.38,7.38,0,0,1-1.89,1.2,7,7,0,0,1-3.22.75,7.49,7.49,0,0,1-5.57-2Q515.54,216.33,515.54,212.28Z"/><path d="M553.11,219.78v-2.07H553a7.8,7.8,0,0,1-2.49,1.84A9,9,0,0,1,540,217.31a12.62,12.62,0,0,1-2.53-8.27,12.25,12.25,0,0,1,2.66-8.25,8.41,8.41,0,0,1,6.67-3.1,7.43,7.43,0,0,1,6,2.68h.08V190.19h3.32v29.59Zm-.32-7.13V206a5.31,5.31,0,0,0-1.5-3.67,5.17,5.17,0,0,0-4-1.64,5.73,5.73,0,0,0-4.86,2.19,12.25,12.25,0,0,0,0,12.32,5.73,5.73,0,0,0,4.86,2.19,5.67,5.67,0,0,0,3.93-1.42A4.34,4.34,0,0,0,552.79,212.64Z"/><path d="M562.8,194v-3.77h3.81V194Zm.24,25.82V198.3h3.33v21.48Z"/><path d="M573.3,219.78V198.3h3.24v2.07h.08a6.45,6.45,0,0,1,2.55-1.93,8.4,8.4,0,0,1,3.49-.75,7.55,7.55,0,0,1,5.61,2.15,7.93,7.93,0,0,1,2.13,5.84v14.11h-3.28V206.73q0-6-4.95-6a5.67,5.67,0,0,0-4,1.42,5.12,5.12,0,0,0-1.52,3.93v13.7Z"/><path d="M597.29,224.08v-1.82a2.22,2.22,0,0,0,1.95-2.47h-1.95V215h4.78v4.17Q602.08,223.75,597.29,224.08Z"/><path d="M0,265.18l3.12-.61q.61,5.63,6,5.63a6.48,6.48,0,0,0,3.83-.93,2.92,2.92,0,0,0,1.28-2.47,2.75,2.75,0,0,0-1.2-2.43,19.83,19.83,0,0,0-5-1.86A15.16,15.16,0,0,1,2.39,260,4.64,4.64,0,0,1,.77,256.3a5.39,5.39,0,0,1,2-4.15,8,8,0,0,1,5.47-1.76,8.61,8.61,0,0,1,5.59,1.68,8.09,8.09,0,0,1,2.76,4.48l-2.88.77a5.26,5.26,0,0,0-5.47-4.09,5.14,5.14,0,0,0-3.24.89,2.62,2.62,0,0,0-1.13,2.11,2.15,2.15,0,0,0,1.09,2A27,27,0,0,0,10,260q4.17,1.18,5.74,2.69a5.62,5.62,0,0,1,1.6,4.11,5.79,5.79,0,0,1-2,4.42q-2,1.87-6.14,1.86-4.26,0-6.5-2.21A9,9,0,0,1,0,265.18Z"/><path d="M22.37,246.65v-3.77h3.81v3.77Zm.24,25.82V251h3.32v21.48Z"/><path d="M33.64,266.23V253.95h-3v-3h3.08v-5.27h3.16V251H42.2v3H36.93v11.88a5,5,0,0,0,.53,2.68,2.4,2.4,0,0,0,2.11.77h1.62v3.2H39.4q-3,0-4.4-1.56A7,7,0,0,1,33.64,266.23Z"/><path d="M69.68,272.47v-2.35H69.6a5.91,5.91,0,0,1-2.31,2,8.63,8.63,0,0,1-4.26,1,7.6,7.6,0,0,1-5.41-1.74A5.77,5.77,0,0,1,55.77,267a5.44,5.44,0,0,1,1.64-4.19A13.18,13.18,0,0,1,63,260.23q1.46-.36,2.17-.57t1.64-.55a5,5,0,0,0,1.34-.67,3.19,3.19,0,0,0,.71-.81,2,2,0,0,0,.3-1.1A2.84,2.84,0,0,0,68,254.25a5.28,5.28,0,0,0-3.39-.91,4.87,4.87,0,0,0-5.23,4.26l-3-.85a7.61,7.61,0,0,1,2.63-4.6,8.24,8.24,0,0,1,5.47-1.76,8.81,8.81,0,0,1,5.9,1.84q2.17,1.85,2.17,5.78v14.47Zm-5.92-9.69A9.94,9.94,0,0,0,60,264.45a3,3,0,0,0-1,2.31q0,3.36,4.26,3.36a6.84,6.84,0,0,0,4.5-1.32,4,4,0,0,0,1.58-3.22v-5.35h-.08Q68.7,261.41,63.76,262.79Z"/><path d="M78.88,272.47V251h3v2.07H82a5.66,5.66,0,0,1,2.27-1.93,7.08,7.08,0,0,1,3.2-.75,6.34,6.34,0,0,1,3.47.91,6.51,6.51,0,0,1,2.21,2.25h.08a6.43,6.43,0,0,1,2.37-2.23,7.16,7.16,0,0,1,3.67-.93,6.92,6.92,0,0,1,7.42,7.46v14.63h-3.2V258.85q0-5.43-4.38-5.43a4.45,4.45,0,0,0-3.47,1.36,5.42,5.42,0,0,0-1.24,3.79v13.9h-3.2V258.85q0-5.43-4.38-5.43a4.17,4.17,0,0,0-3.49,1.44,5.8,5.8,0,0,0-1.14,3.71v13.9Z"/><path d="M128,265.86l2.68,1.74a10.69,10.69,0,0,1-3.47,3.91,9.48,9.48,0,0,1-5.53,1.56,9.23,9.23,0,0,1-7.17-3.1,11.85,11.85,0,0,1-2.8-8.25,12,12,0,0,1,2.74-8.25,9,9,0,0,1,7.07-3.1,8.85,8.85,0,0,1,7,3q2.68,3,2.68,8.31v1H115a8.4,8.4,0,0,0,1.72,5.23,5.78,5.78,0,0,0,4.84,2.15,7.26,7.26,0,0,0,2.27-.34,8.05,8.05,0,0,0,1.62-.69,4.82,4.82,0,0,0,1.2-1.13,12.47,12.47,0,0,0,.77-1Q127.6,266.63,128,265.86Zm-12.89-5.8h12.77a7.86,7.86,0,0,0-1.62-4.7,6.5,6.5,0,0,0-9.48.14A7.6,7.6,0,0,0,115.11,260.07Z"/><path d="M137.2,266.23V253.95h-3v-3h3.08v-5.27h3.16V251h5.31v3h-5.27v11.88a5,5,0,0,0,.53,2.68,2.4,2.4,0,0,0,2.11.77h1.62v3.2H143q-3,0-4.4-1.56A7,7,0,0,1,137.2,266.23Z"/><path d="M161.52,266.23V253.95h-3v-3h3.08v-5.27h3.16V251h5.31v3h-5.27v11.88a5,5,0,0,0,.53,2.68,2.4,2.4,0,0,0,2.11.77h1.62v3.2h-1.78q-3,0-4.4-1.56A7,7,0,0,1,161.52,266.23Z"/><path d="M182.68,273.08a9.1,9.1,0,0,1-7-3q-2.76-3-2.76-8.35t2.84-8.31a9.12,9.12,0,0,1,6.93-3,8.89,8.89,0,0,1,6.83,3q2.78,3,2.78,8.31t-2.72,8.35A8.89,8.89,0,0,1,182.68,273.08Zm0-3a5.6,5.6,0,0,0,4.52-2.21,11.41,11.41,0,0,0,0-12.28,5.59,5.59,0,0,0-4.54-2.21,5.82,5.82,0,0,0-4.66,2.17,11.39,11.39,0,0,0,0,12.36A5.82,5.82,0,0,0,182.68,270.08Z"/><path d="M197.56,272.47V251h3.16v2.31h.08a4.51,4.51,0,0,1,1.9-2,5.26,5.26,0,0,1,2.55-.69,4.5,4.5,0,0,1,1,.1c.31.07.55.13.71.18l.2.12-.61,3.28a3.67,3.67,0,0,0-1.7-.32,3.38,3.38,0,0,0-3,1.36,7.88,7.88,0,0,0-.93,4.36v12.77Z"/><path d="M212.76,266.23V253.95h-3v-3h3.08v-5.27H216V251h5.31v3H216v11.88a5,5,0,0,0,.53,2.68,2.4,2.4,0,0,0,2.11.77h1.62v3.2h-1.78q-3,0-4.4-1.56A7,7,0,0,1,212.76,266.23Z"/><path d="M233.91,273.08a9.1,9.1,0,0,1-7-3q-2.76-3-2.76-8.35t2.84-8.31a9.12,9.12,0,0,1,6.93-3,8.89,8.89,0,0,1,6.83,3q2.78,3,2.78,8.31t-2.72,8.35A8.89,8.89,0,0,1,233.91,273.08Zm0-3a5.6,5.6,0,0,0,4.52-2.21,11.41,11.41,0,0,0,0-12.28,5.59,5.59,0,0,0-4.54-2.21,5.82,5.82,0,0,0-4.66,2.17,11.39,11.39,0,0,0,0,12.36A5.82,5.82,0,0,0,233.91,270.08Z"/><path d="M248.79,272.47V251H252v2.31H252a4.51,4.51,0,0,1,1.9-2,5.26,5.26,0,0,1,2.55-.69,4.5,4.5,0,0,1,1,.1c.31.07.55.13.71.18l.2.12-.61,3.28A3.67,3.67,0,0,0,256,254a3.38,3.38,0,0,0-3,1.36,7.88,7.88,0,0,0-.93,4.36v12.77Z"/><path d="M260,272.47v-4.78h4.78v4.78Z"/><path d="M278.54,272.47V244.1h8.88a12.32,12.32,0,0,1,4.58.85,12,12,0,0,1,3.89,2.51,11.62,11.62,0,0,1,2.78,4.44,18.09,18.09,0,0,1,1,6.34,19.7,19.7,0,0,1-1.05,6.77,10.4,10.4,0,0,1-2.88,4.44,12.07,12.07,0,0,1-4,2.29,14.2,14.2,0,0,1-4.64.73Zm3.36-3.08h5q9.24,0,9.24-11.15,0-5.35-2.41-8.21a8.17,8.17,0,0,0-6.59-2.86h-5.23Z"/><path d="M304.77,265V251h3.32v13.5q0,3,1.16,4.26a5,5,0,0,0,3.83,1.26,4.66,4.66,0,0,0,3.73-1.5,6.18,6.18,0,0,0,1.3-4.17V251h3.28v21.48h-3.24V270.4h-.08a8.91,8.91,0,0,1-.61.73,7.38,7.38,0,0,1-1.89,1.2,7,7,0,0,1-3.22.75,7.49,7.49,0,0,1-5.57-2Q304.77,269,304.77,265Z"/><path d="M328.07,246.65v-3.77h3.81v3.77Zm.24,25.82V251h3.32v21.48Z"/><path d="M337,265.18l3.12-.61q.61,5.63,6,5.63a6.48,6.48,0,0,0,3.83-.93,2.92,2.92,0,0,0,1.28-2.47,2.75,2.75,0,0,0-1.2-2.43,19.83,19.83,0,0,0-5-1.86,15.16,15.16,0,0,1-5.59-2.47,4.64,4.64,0,0,1-1.62-3.73,5.39,5.39,0,0,1,2-4.15,8,8,0,0,1,5.47-1.76,8.61,8.61,0,0,1,5.59,1.68,8.09,8.09,0,0,1,2.76,4.48l-2.88.77a5.26,5.26,0,0,0-5.47-4.09,5.14,5.14,0,0,0-3.24.89,2.62,2.62,0,0,0-1.13,2.11,2.15,2.15,0,0,0,1.09,2,27,27,0,0,0,5,1.78q4.17,1.18,5.74,2.69a5.62,5.62,0,0,1,1.6,4.11,5.79,5.79,0,0,1-2,4.42q-2,1.87-6.14,1.86-4.26,0-6.5-2.21A9,9,0,0,1,337,265.18Z"/><path d="M369.26,281.59V251h3.16v2.07h.08a7.36,7.36,0,0,1,2.43-1.84,8.06,8.06,0,0,1,3.73-.83,8.47,8.47,0,0,1,6.69,3.1,12.19,12.19,0,0,1,2.68,8.25,12.42,12.42,0,0,1-2.59,8.27,8.43,8.43,0,0,1-6.77,3.08,7.89,7.89,0,0,1-3.65-.85,6.39,6.39,0,0,1-2.35-1.82h-.08v11.19Zm3.32-23v6.81a4.24,4.24,0,0,0,1.58,3.26,5.72,5.72,0,0,0,3.93,1.4,5.9,5.9,0,0,0,4.92-2.19,11.79,11.79,0,0,0,0-12.3,5.89,5.89,0,0,0-4.9-2.21,5.22,5.22,0,0,0-4,1.62A5.16,5.16,0,0,0,372.58,258.61Z"/><path d="M401.64,273.08a9.1,9.1,0,0,1-7-3q-2.76-3-2.76-8.35t2.84-8.31a9.12,9.12,0,0,1,6.93-3,8.89,8.89,0,0,1,6.83,3q2.78,3,2.78,8.31t-2.72,8.35A8.89,8.89,0,0,1,401.64,273.08Zm0-3a5.6,5.6,0,0,0,4.52-2.21,11.41,11.41,0,0,0,0-12.28,5.59,5.59,0,0,0-4.54-2.21,5.82,5.82,0,0,0-4.66,2.17,11.39,11.39,0,0,0,0,12.36A5.82,5.82,0,0,0,401.64,270.08Z"/><path d="M416.52,272.47V251h3.16v2.31h.08a4.51,4.51,0,0,1,1.9-2,5.26,5.26,0,0,1,2.55-.69,4.5,4.5,0,0,1,1,.1c.31.07.55.13.71.18l.2.12-.61,3.28a3.67,3.67,0,0,0-1.7-.32,3.38,3.38,0,0,0-3,1.36,7.88,7.88,0,0,0-.93,4.36v12.77Z"/><path d="M431.72,266.23V253.95h-3v-3h3.08v-5.27H435V251h5.31v3H435v11.88a5,5,0,0,0,.53,2.68,2.4,2.4,0,0,0,2.11.77h1.62v3.2h-1.78q-3,0-4.4-1.56A7,7,0,0,1,431.72,266.23Z"/><path d="M457.41,272.47v-2.35h-.08a5.91,5.91,0,0,1-2.31,2,8.63,8.63,0,0,1-4.26,1,7.6,7.6,0,0,1-5.41-1.74,5.77,5.77,0,0,1-1.85-4.38,5.44,5.44,0,0,1,1.64-4.19,13.18,13.18,0,0,1,5.57-2.53q1.46-.36,2.17-.57t1.64-.55a5,5,0,0,0,1.34-.67,3.19,3.19,0,0,0,.71-.81,2,2,0,0,0,.3-1.1,2.84,2.84,0,0,0-1.11-2.29,5.28,5.28,0,0,0-3.39-.91,4.87,4.87,0,0,0-5.23,4.26l-3-.85a7.61,7.61,0,0,1,2.63-4.6,8.24,8.24,0,0,1,5.47-1.76,8.81,8.81,0,0,1,5.9,1.84q2.17,1.85,2.17,5.78v14.47Zm-5.92-9.69a9.94,9.94,0,0,0-3.75,1.66,3,3,0,0,0-1,2.31q0,3.36,4.26,3.36a6.84,6.84,0,0,0,4.5-1.32,4,4,0,0,0,1.58-3.22v-5.35H457Q456.44,261.41,451.5,262.79Z"/><path d="M477.32,272.47V253.95h-3v-3h3v-3.28q0-2.71,1.22-3.77a5.16,5.16,0,0,1,3.49-1.05h3.44v3h-2.84a2.21,2.21,0,0,0-1.68.49,3.3,3.3,0,0,0-.43,2V251h5.31v3H480.6v18.52Z"/><path d="M502.2,272.47v-2.35h-.08a5.91,5.91,0,0,1-2.31,2,8.63,8.63,0,0,1-4.26,1,7.6,7.6,0,0,1-5.41-1.74A5.77,5.77,0,0,1,488.3,267a5.44,5.44,0,0,1,1.64-4.19,13.18,13.18,0,0,1,5.57-2.53q1.46-.36,2.17-.57t1.64-.55a5,5,0,0,0,1.34-.67,3.19,3.19,0,0,0,.71-.81,2,2,0,0,0,.3-1.1,2.84,2.84,0,0,0-1.11-2.29,5.28,5.28,0,0,0-3.39-.91,4.87,4.87,0,0,0-5.23,4.26l-3-.85a7.61,7.61,0,0,1,2.63-4.6,8.24,8.24,0,0,1,5.47-1.76,8.81,8.81,0,0,1,5.9,1.84q2.17,1.85,2.17,5.78v14.47Zm-5.92-9.69a9.94,9.94,0,0,0-3.75,1.66,3,3,0,0,0-1,2.31q0,3.36,4.26,3.36a6.84,6.84,0,0,0,4.5-1.32,4,4,0,0,0,1.58-3.22v-5.35h-.08Q501.23,261.41,496.28,262.79Z"/><path d="M525.51,264.24l3.2.65a9.6,9.6,0,0,1-3,6,8.55,8.55,0,0,1-6,2.23,9,9,0,0,1-7.05-3q-2.72-3-2.72-8.33a11.82,11.82,0,0,1,2.8-8.29,9.06,9.06,0,0,1,7-3.06,8.4,8.4,0,0,1,5.86,2.19,9.28,9.28,0,0,1,2.94,5.67l-3.12.65a8.37,8.37,0,0,0-1.86-4,4.83,4.83,0,0,0-3.81-1.56,5.75,5.75,0,0,0-4.7,2.21,9.52,9.52,0,0,0-1.78,6.14,9.7,9.7,0,0,0,1.74,6.12,5.74,5.74,0,0,0,4.78,2.23,4.92,4.92,0,0,0,3.89-1.72A7.69,7.69,0,0,0,525.51,264.24Z"/><path d="M533.78,246.65v-3.77h3.81v3.77Zm.24,25.82V251h3.32v21.48Z"/><path d="M544.28,272.47V242.88h3.36v29.59Z"/><path d="M554.33,246.65v-3.77h3.81v3.77Zm.24,25.82V251h3.33v21.48Z"/><path d="M563.2,265.18l3.12-.61q.61,5.63,6,5.63a6.49,6.49,0,0,0,3.83-.93,2.92,2.92,0,0,0,1.28-2.47,2.75,2.75,0,0,0-1.2-2.43,19.87,19.87,0,0,0-5-1.86A15.15,15.15,0,0,1,565.6,260,4.64,4.64,0,0,1,564,256.3a5.39,5.39,0,0,1,2-4.15,8,8,0,0,1,5.47-1.76,8.61,8.61,0,0,1,5.59,1.68,8.09,8.09,0,0,1,2.76,4.48l-2.88.77a5.25,5.25,0,0,0-5.47-4.09,5.14,5.14,0,0,0-3.24.89,2.62,2.62,0,0,0-1.14,2.11,2.15,2.15,0,0,0,1.1,2,27.05,27.05,0,0,0,5,1.78q4.17,1.18,5.74,2.69a5.61,5.61,0,0,1,1.6,4.11,5.79,5.79,0,0,1-2,4.42q-2,1.87-6.14,1.86-4.26,0-6.51-2.21A9,9,0,0,1,563.2,265.18Z"/><path d="M585.58,246.65v-3.77h3.81v3.77Zm.24,25.82V251h3.33v21.48Z"/><path d="M594.45,265.18l3.12-.61q.61,5.63,6,5.63a6.49,6.49,0,0,0,3.83-.93,2.92,2.92,0,0,0,1.28-2.47,2.75,2.75,0,0,0-1.2-2.43,19.87,19.87,0,0,0-5-1.86,15.15,15.15,0,0,1-5.59-2.47,4.64,4.64,0,0,1-1.62-3.73,5.39,5.39,0,0,1,2-4.15,8,8,0,0,1,5.47-1.76,8.61,8.61,0,0,1,5.59,1.68,8.09,8.09,0,0,1,2.76,4.48l-2.88.77a5.25,5.25,0,0,0-5.47-4.09,5.14,5.14,0,0,0-3.24.89,2.62,2.62,0,0,0-1.14,2.11,2.15,2.15,0,0,0,1.1,2,27.05,27.05,0,0,0,5,1.78q4.17,1.18,5.74,2.69a5.61,5.61,0,0,1,1.6,4.11,5.79,5.79,0,0,1-2,4.42q-2,1.87-6.14,1.86-4.26,0-6.51-2.21A9,9,0,0,1,594.45,265.18Z"/><path d="M616.83,272.47v-4.78h4.78v4.78Z"/><line class="cls-1" y1="313.7"/></svg>