<?xml version="1.0" encoding="utf-8"?>
<!-- Generator: Adobe Illustrator 20.1.0, SVG Export Plug-In . SVG Version: 6.00 Build 0)  -->
<svg version="1.1" id="Layer_1" xmlns="http://www.w3.org/2000/svg" xmlns:xlink="http://www.w3.org/1999/xlink" x="0px" y="0px"
	 viewBox="0 0 400 400" style="enable-background:new 0 0 400 400;" xml:space="preserve">
<style type="text/css">
	.st0{fill:#002554;}
	.st1{fill:#CFB571;}
	.st2{fill:#FFEC0D;}
	.st3{fill:#0568AF;}
	.st4{fill:#E21F26;}
</style>
<rect class="st0" width="400" height="400"/>
<g>
	<g id="Guld_sköld_1_">
		<path class="st1" d="M301.1,90.8l-0.9-4.1l-4.1,0.9c-50.8,10.8-93.5-14.6-94-14.8l-2.3-1.4l-2.2,1.4c-0.4,0.3-43.1,25.8-93.9,15.1
			l-4.1-0.9L98.7,91c-0.2,0.8-4.5,19.7-3.5,50.8c3,97.8,66,161.3,102.8,183.5l2.2,1.3l2.2-1.4c36.7-22.2,99.5-85.9,102.3-183.7
			C305.6,110.4,301.3,91.6,301.1,90.8z"/>
	</g>
	<path class="st2" d="M239.5,95.6c-13.8-2.9-27.2-7.7-39.6-14.3c-9.5,5.2-47.5,23.8-93.6,15.7c-1.2,7-3.2,22.8-2.5,44.6
		c0.7,23.5,5.2,46.8,13.3,68.9L239.5,95.6z"/>
	<path class="st3" d="M200.3,316.7c35-22.2,91.9-81.6,95.8-171.9L155.6,276.6C170.9,294.9,187.1,308.4,200.3,316.7z"/>
	<path class="st4" d="M154.5,212.1l-0.6,0.6l14.3,15.2l0.6-0.6c3.5-3.3,5-9.1,0.1-14.4C164.2,208.1,158.3,208.5,154.5,212.1z"/>
	<path class="st4" d="M293.6,96.7c-15.5,2.7-31.3,2.8-46.8,0.2L119.4,216.5c8.1,20,19,38.6,32.4,55.5l144.4-135.6
		C296.5,117.1,294.6,103.2,293.6,96.7z M176.9,234.1l-10.2,9.5l-28.6-30.4l10.2-9.5c8.5-8,21.2-7.3,29.2,1.2
		C185.5,213.4,185.3,226.2,176.9,234.1z M201.9,212.1c-2.6,2.4-6.6,2.3-9-0.3s-2.3-6.6,0.3-9c2.6-2.4,6.6-2.3,9,0.3c0,0,0,0,0,0
		C204.6,205.6,204.5,209.6,201.9,212.1z M215.1,198.1l-28.6-30.5l8.8-8.2l28.6,30.5L215.1,198.1z M238.7,177.6
		c-2.6,2.4-6.6,2.3-9-0.3c-2.4-2.6-2.3-6.6,0.3-9c2.6-2.4,6.6-2.3,9,0.3c0,0,0,0,0,0C241.3,171.1,241.2,175.1,238.7,177.6
		L238.7,177.6z M260.6,155.3l-8.7,8.2L223.3,133l18.1-17l7.3,7.8l-9.4,8.9l4.7,5l9.3-8.8l7.3,7.8l-9.3,8.8L260.6,155.3z
		 M277.9,140.7c-2.6,2.4-6.6,2.3-9-0.3c-2.4-2.6-2.3-6.6,0.3-9c2.6-2.4,6.6-2.3,9,0.3c0,0,0,0,0,0
		C280.6,134.3,280.5,138.3,277.9,140.7C278,140.7,277.9,140.7,277.9,140.7L277.9,140.7z"/>
</g>
</svg>
