<?xml version="1.0" encoding="utf-8"?>
<!-- Generator: Adobe Illustrator 20.1.0, SVG Export Plug-In . SVG Version: 6.00 Build 0)  -->
<svg version="1.1" id="Layer_1" xmlns="http://www.w3.org/2000/svg" xmlns:xlink="http://www.w3.org/1999/xlink" x="0px" y="0px"
	 viewBox="0 0 600 600" style="enable-background:new 0 0 600 600;" xml:space="preserve">
<style type="text/css">
	.st0{fill:#002554;}
	.st1{fill:#FFFFFF;}
</style>
<rect class="st0" width="600" height="600"/>
<g>
	<path class="st1" d="M342.6,467.3h91.6L465,436v-78.6L434.2,326h-78v-62.7h72.1L459,232v-68l-30.7-31.3h-79.2L318.3,164v30.2h-65
		v-33.7c0-13.6,6.5-28.4,16-37.8L306,85.5c9.5-10.1,24.8-15.4,38.4-15.4H433c13.6,0,29,5.3,38.4,15.4l36.7,37.2
		c9.5,9.5,16,24.2,16,37.8v75.1c0,13.6-6.5,28.4-16,37.8l-17.7,17.7L514,316c9.5,9.5,16,24.2,16,37.8v85.7c0,13.6-6.5,28.4-16,37.8
		l-36.7,37.2c-9.5,10.1-24.8,15.4-38.4,15.4H335.5c-13-0.6-27.2-5.9-36.1-15.4l-36.7-37.2c-9.5-9.5-16-24.2-16-37.8v-33.7h65V436
		L342.6,467.3z"/>
</g>
</svg>
