<svg xmlns="http://www.w3.org/2000/svg" viewBox="0 0 360 360"><defs><style>.cls-1{fill:#eee;}</style></defs><title>soon</title><g id="Lager_2" data-name="Lager 2"><g id="Lager_1-2" data-name="Lager 1"><rect class="cls-1" width="360" height="360"/><path d="M69.43,171.2v-.6c0-9,5.1-14.1,11.37-14.1,4.43,0,8.37,2.57,10.1,7.67l-4.33,1.13c-1.1-3.13-3.37-4.6-5.77-4.6-4,0-6.87,3.47-6.87,10v.4c0,6.53,2.9,10,6.87,10,2.4,0,4.67-1.47,5.77-4.63l4.33,1.17c-1.7,5.1-5.67,7.67-10.1,7.67C74.53,185.3,69.43,180.23,69.43,171.2Z"/><path d="M92.86,175.07v-.33c0-6.67,4.2-10.44,9.34-10.44s9.34,3.77,9.34,10.44v.33c0,6.67-4.2,10.44-9.34,10.44S92.86,181.73,92.86,175.07Zm14.47-.07v-.2c0-4.5-2.3-6.9-5.13-6.9s-5.13,2.4-5.13,6.9v.2c0,4.5,2.3,6.9,5.13,6.9S107.33,179.5,107.33,175Z"/><path d="M115,164.9h3.9v2.6a6.58,6.58,0,0,1,5.67-3,5.61,5.61,0,0,1,5.33,3.17,6.5,6.5,0,0,1,5.73-3.17c4.17,0,6.9,2.9,6.9,7.37v13h-4.2V172.73c0-2.9-1.3-4.63-3.53-4.63-2.47,0-3.93,2.1-3.93,5v11.8h-4.2V172.73c0-2.9-1.27-4.63-3.5-4.63-2.47,0-4,2.1-4,5v11.8H115Z"/><path d="M146.87,156.9h4.2v5h-4.2Zm0,8h4.2v20h-4.2Z"/><path d="M155.54,164.9h3.9v2.6a6.41,6.41,0,0,1,5.67-3c4.23,0,7,2.9,7,7.37v13h-4.2v-12c0-3-1.5-4.77-3.87-4.77-2.6,0-4.27,2.17-4.27,5.1v11.7h-4.2Z"/><path d="M194.07,187.37a6.14,6.14,0,0,1-6.3,6.13h-6.53a6.23,6.23,0,0,1-4.37-10.77,4.94,4.94,0,0,1-1.07-3.13,4.51,4.51,0,0,1,2.43-4.13,6.21,6.21,0,0,1-1.63-4.23c0-3.9,3.23-6.8,7.43-6.8a8.36,8.36,0,0,1,2.8.47h6.6v3.6h-2.53a6.68,6.68,0,0,1,.57,2.73c0,3.87-3.2,6.8-7.43,6.8h-2.87c-1.17,0-1.77.63-1.77,1.6a1.56,1.56,0,0,0,1.77,1.6h6.6A6.12,6.12,0,0,1,194.07,187.37Zm-3.9,0a2.81,2.81,0,0,0-3-2.83h-5.33a2.84,2.84,0,1,0,0,5.67h5.33A2.81,2.81,0,0,0,190.17,187.37Zm-9.8-16.14A3.67,3.67,0,1,0,184,167.6,3.63,3.63,0,0,0,180.37,171.23Z"/><path d="M202,180.07l3.6-1.43a5.16,5.16,0,0,0,5.07,3.33c2.33,0,3.8-1.07,3.8-2.77s-1.37-2.3-3.2-2.63l-2.8-.53c-4-.7-6-2.5-6-5.33,0-3.3,2.57-6.2,7.6-6.2a9.06,9.06,0,0,1,8.27,4.53l-3.6,1.47a4.76,4.76,0,0,0-4.5-2.67c-2.23,0-3.57,1.1-3.57,2.63s1.13,2.07,2.87,2.4l2.77.5c4.2.8,6.37,2.53,6.37,5.6,0,3.5-2.77,6.33-7.83,6.33A9.25,9.25,0,0,1,202,180.07Z"/><path d="M220.73,175.07v-.33c0-6.67,4.2-10.44,9.34-10.44s9.34,3.77,9.34,10.44v.33c0,6.67-4.2,10.44-9.34,10.44S220.73,181.73,220.73,175.07ZM235.2,175v-.2c0-4.5-2.3-6.9-5.13-6.9s-5.13,2.4-5.13,6.9v.2c0,4.5,2.3,6.9,5.13,6.9S235.2,179.5,235.2,175Z"/><path d="M241.82,175.07v-.33c0-6.67,4.2-10.44,9.34-10.44s9.34,3.77,9.34,10.44v.33c0,6.67-4.2,10.44-9.34,10.44S241.82,181.73,241.82,175.07Zm14.47-.07v-.2c0-4.5-2.3-6.9-5.13-6.9s-5.13,2.4-5.13,6.9v.2c0,4.5,2.3,6.9,5.13,6.9S256.29,179.5,256.29,175Z"/><path d="M263.95,164.9h3.9v2.6a6.41,6.41,0,0,1,5.67-3c4.23,0,7,2.9,7,7.37v13h-4.2v-12c0-3-1.5-4.77-3.87-4.77-2.6,0-4.27,2.17-4.27,5.1v11.7h-4.2Z"/><path d="M286.37,162.9v-6h4.2v6l-.13,12.6h-3.9Zm0,16.6h4.2v5.4h-4.2Z"/></g></g></svg>