<svg id="Layer_1" data-name="Layer 1" xmlns="http://www.w3.org/2000/svg" viewBox="0 0 635.4 249.48"><defs><style>.cls-1{fill:none;stroke:#32baf2;stroke-miterlimit:10;}.cls-2{fill:#32baf2;}</style></defs><title>maison_spacing</title><path d="M13.87,43.44V15.07h3.36V40.36H29.55v3.08Z" transform="translate(-11.3 -13.85)"/><path d="M42.36,44a9.1,9.1,0,0,1-7-3q-2.76-3-2.76-8.35t2.84-8.31a9.12,9.12,0,0,1,6.93-3,8.89,8.89,0,0,1,6.83,3Q52,27.43,52,32.7T49.25,41A8.89,8.89,0,0,1,42.36,44Zm0-3a5.6,5.6,0,0,0,4.52-2.21,9.45,9.45,0,0,0,1.8-6.14,9.53,9.53,0,0,0-1.78-6.14,5.59,5.59,0,0,0-4.54-2.21,5.82,5.82,0,0,0-4.66,2.17,9.35,9.35,0,0,0-1.82,6.18,9.35,9.35,0,0,0,1.82,6.18A5.82,5.82,0,0,0,42.36,41Z" transform="translate(-11.3 -13.85)"/><path d="M57.24,43.44V22H60.4v2.31h.08a4.51,4.51,0,0,1,1.9-2,5.26,5.26,0,0,1,2.55-.69,4.5,4.5,0,0,1,1,.1c.31.07.55.13.71.18l.2.12-.61,3.28a3.67,3.67,0,0,0-1.7-.32,3.38,3.38,0,0,0-3,1.36,7.88,7.88,0,0,0-.93,4.36V43.44Z" transform="translate(-11.3 -13.85)"/><path d="M86.14,36.83l2.68,1.74a10.69,10.69,0,0,1-3.47,3.91A9.48,9.48,0,0,1,79.81,44a9.23,9.23,0,0,1-7.17-3.1,11.85,11.85,0,0,1-2.8-8.25,12,12,0,0,1,2.74-8.25,9,9,0,0,1,7.07-3.1,8.85,8.85,0,0,1,7,3q2.68,3,2.68,8.31v1H73.17a8.4,8.4,0,0,0,1.72,5.23A5.78,5.78,0,0,0,79.73,41,7.26,7.26,0,0,0,82,40.7,8.05,8.05,0,0,0,83.62,40a4.82,4.82,0,0,0,1.2-1.13,12.47,12.47,0,0,0,.77-1Q85.73,37.6,86.14,36.83ZM73.25,31H86a7.86,7.86,0,0,0-1.62-4.7,6.5,6.5,0,0,0-9.48.14A7.6,7.6,0,0,0,73.25,31Z" transform="translate(-11.3 -13.85)"/><path d="M94.57,43.44V22h3V24h.08a5.66,5.66,0,0,1,2.27-1.93,7.08,7.08,0,0,1,3.2-.75,6.34,6.34,0,0,1,3.47.91,6.51,6.51,0,0,1,2.21,2.25h.08a6.43,6.43,0,0,1,2.37-2.23,7.16,7.16,0,0,1,3.67-.93,6.92,6.92,0,0,1,7.42,7.46V43.44h-3.2V29.82q0-5.43-4.38-5.43a4.45,4.45,0,0,0-3.47,1.36,5.42,5.42,0,0,0-1.24,3.79v13.9h-3.2V29.82q0-5.43-4.38-5.43A4.17,4.17,0,0,0,99,25.83a5.8,5.8,0,0,0-1.14,3.71v13.9Z" transform="translate(-11.3 -13.85)"/><path d="M138.75,17.62V13.85h3.81v3.77ZM139,43.44V22h3.32V43.44Z" transform="translate(-11.3 -13.85)"/><path d="M149.25,52.56V22h3.16V24h.08a7.36,7.36,0,0,1,2.43-1.84,8.06,8.06,0,0,1,3.73-.83,8.47,8.47,0,0,1,6.69,3.1A12.19,12.19,0,0,1,168,32.7,12.42,12.42,0,0,1,165.42,41,8.43,8.43,0,0,1,158.65,44,7.89,7.89,0,0,1,155,43.2a6.39,6.39,0,0,1-2.35-1.82h-.08V52.56Zm3.32-23v6.81a4.24,4.24,0,0,0,1.58,3.26,5.72,5.72,0,0,0,3.93,1.4A5.9,5.9,0,0,0,163,38.86a9.75,9.75,0,0,0,1.72-6.16A9.68,9.68,0,0,0,163,26.56a5.89,5.89,0,0,0-4.9-2.21,5.22,5.22,0,0,0-4,1.62A5.16,5.16,0,0,0,152.57,29.58Z" transform="translate(-11.3 -13.85)"/><path d="M171.66,36.14l3.12-.61q.61,5.63,6,5.63a6.48,6.48,0,0,0,3.83-.93,2.92,2.92,0,0,0,1.28-2.47,2.75,2.75,0,0,0-1.2-2.43,19.83,19.83,0,0,0-5-1.86A15.16,15.16,0,0,1,174.05,31a4.64,4.64,0,0,1-1.62-3.73,5.39,5.39,0,0,1,2-4.15,8,8,0,0,1,5.47-1.76A8.61,8.61,0,0,1,185.48,23a8.09,8.09,0,0,1,2.76,4.48l-2.88.77a5.26,5.26,0,0,0-5.47-4.09,5.14,5.14,0,0,0-3.24.89,2.62,2.62,0,0,0-1.13,2.11,2.15,2.15,0,0,0,1.09,2,27,27,0,0,0,5,1.78q4.17,1.18,5.74,2.69a5.62,5.62,0,0,1,1.6,4.11,5.79,5.79,0,0,1-2,4.42q-2,1.87-6.14,1.86-4.26,0-6.5-2.21A9,9,0,0,1,171.66,36.14Z" transform="translate(-11.3 -13.85)"/><path d="M193.83,35.94V22h3.32v13.5q0,3,1.16,4.26A5,5,0,0,0,202.14,41a4.66,4.66,0,0,0,3.73-1.5,6.18,6.18,0,0,0,1.3-4.17V22h3.28V43.44h-3.24V41.37h-.08a8.91,8.91,0,0,1-.61.73,7.38,7.38,0,0,1-1.89,1.2,7,7,0,0,1-3.22.75,7.49,7.49,0,0,1-5.57-2Q193.83,40,193.83,35.94Z" transform="translate(-11.3 -13.85)"/><path d="M217.14,43.44V22h3V24h.08a5.66,5.66,0,0,1,2.27-1.93,7.08,7.08,0,0,1,3.2-.75,6.34,6.34,0,0,1,3.47.91,6.51,6.51,0,0,1,2.21,2.25h.08a6.43,6.43,0,0,1,2.37-2.23,7.16,7.16,0,0,1,3.67-.93,6.92,6.92,0,0,1,7.42,7.46V43.44h-3.2V29.82q0-5.43-4.38-5.43a4.45,4.45,0,0,0-3.47,1.36,5.42,5.42,0,0,0-1.24,3.79v13.9h-3.2V29.82q0-5.43-4.38-5.43a4.17,4.17,0,0,0-3.49,1.44,5.8,5.8,0,0,0-1.14,3.71v13.9Z" transform="translate(-11.3 -13.85)"/><path d="M275.59,43.44V41.37h-.08A7.8,7.8,0,0,1,273,43.22,9,9,0,0,1,262.44,41a12.62,12.62,0,0,1-2.53-8.27,12.25,12.25,0,0,1,2.66-8.25,8.41,8.41,0,0,1,6.67-3.1,7.44,7.44,0,0,1,6,2.68h.08V13.85h3.32V43.44Zm-.32-7.13V29.66a5.31,5.31,0,0,0-1.5-3.67,5.17,5.17,0,0,0-4-1.64,5.73,5.73,0,0,0-4.86,2.19,10,10,0,0,0-1.66,6.16,10,10,0,0,0,1.66,6.16A5.73,5.73,0,0,0,269.75,41a5.67,5.67,0,0,0,3.93-1.42A4.34,4.34,0,0,0,275.27,36.31Z" transform="translate(-11.3 -13.85)"/><path d="M293.63,44a9.1,9.1,0,0,1-7-3q-2.76-3-2.76-8.35t2.84-8.31a9.12,9.12,0,0,1,6.93-3,8.89,8.89,0,0,1,6.83,3q2.78,3,2.78,8.31T300.52,41A8.89,8.89,0,0,1,293.63,44Zm0-3a5.6,5.6,0,0,0,4.52-2.21A9.45,9.45,0,0,0,300,32.7a9.53,9.53,0,0,0-1.78-6.14,5.59,5.59,0,0,0-4.54-2.21A5.82,5.82,0,0,0,289,26.52a9.35,9.35,0,0,0-1.82,6.18A9.35,9.35,0,0,0,289,38.88,5.82,5.82,0,0,0,293.63,41Z" transform="translate(-11.3 -13.85)"/><path d="M308.5,43.44V13.85h3.36V43.44Z" transform="translate(-11.3 -13.85)"/><path d="M326.9,44a9.1,9.1,0,0,1-7-3q-2.76-3-2.76-8.35T320,24.39a9.12,9.12,0,0,1,6.93-3,8.89,8.89,0,0,1,6.83,3q2.78,3,2.78,8.31T333.79,41A8.89,8.89,0,0,1,326.9,44Zm0-3a5.6,5.6,0,0,0,4.52-2.21,9.45,9.45,0,0,0,1.8-6.14,9.53,9.53,0,0,0-1.78-6.14,5.59,5.59,0,0,0-4.54-2.21,5.82,5.82,0,0,0-4.66,2.17,9.35,9.35,0,0,0-1.82,6.18,9.35,9.35,0,0,0,1.82,6.18A5.82,5.82,0,0,0,326.9,41Z" transform="translate(-11.3 -13.85)"/><path d="M341.78,43.44V22h3.16v2.31H345a4.51,4.51,0,0,1,1.9-2,5.26,5.26,0,0,1,2.55-.69,4.5,4.5,0,0,1,1,.1c.31.07.55.13.71.18l.2.12-.61,3.28A3.67,3.67,0,0,0,349,25a3.38,3.38,0,0,0-3,1.36,7.88,7.88,0,0,0-.93,4.36V43.44Z" transform="translate(-11.3 -13.85)"/><path d="M364.11,36.14l3.12-.61q.61,5.63,6,5.63a6.48,6.48,0,0,0,3.83-.93,2.92,2.92,0,0,0,1.28-2.47,2.75,2.75,0,0,0-1.2-2.43,19.83,19.83,0,0,0-5-1.86A15.16,15.16,0,0,1,366.5,31a4.64,4.64,0,0,1-1.62-3.73,5.39,5.39,0,0,1,2-4.15,8,8,0,0,1,5.47-1.76A8.61,8.61,0,0,1,377.94,23a8.09,8.09,0,0,1,2.76,4.48l-2.88.77a5.26,5.26,0,0,0-5.47-4.09,5.14,5.14,0,0,0-3.24.89A2.62,2.62,0,0,0,368,27.19a2.15,2.15,0,0,0,1.09,2,27,27,0,0,0,5,1.78q4.17,1.18,5.74,2.69a5.62,5.62,0,0,1,1.6,4.11,5.79,5.79,0,0,1-2,4.42q-2,1.87-6.14,1.86-4.26,0-6.5-2.21A9,9,0,0,1,364.11,36.14Z" transform="translate(-11.3 -13.85)"/><path d="M386.49,17.62V13.85h3.81v3.77Zm.24,25.82V22h3.32V43.44Z" transform="translate(-11.3 -13.85)"/><path d="M397.76,37.2V24.92h-3V22h3.08V16.69H401V22h5.31v3H401V36.79a5,5,0,0,0,.53,2.68,2.4,2.4,0,0,0,2.11.77h1.62v3.2h-1.78q-3,0-4.4-1.56A7,7,0,0,1,397.76,37.2Z" transform="translate(-11.3 -13.85)"/><path d="M433.79,43.44V41.09h-.08a5.91,5.91,0,0,1-2.31,2,8.63,8.63,0,0,1-4.26,1,7.6,7.6,0,0,1-5.41-1.74,5.77,5.77,0,0,1-1.85-4.38,5.44,5.44,0,0,1,1.64-4.19,13.18,13.18,0,0,1,5.57-2.53q1.46-.36,2.17-.57t1.64-.55a5,5,0,0,0,1.34-.67,3.19,3.19,0,0,0,.71-.81,2,2,0,0,0,.3-1.1,2.84,2.84,0,0,0-1.11-2.29,5.28,5.28,0,0,0-3.39-.91,4.87,4.87,0,0,0-5.23,4.26l-3-.85a7.61,7.61,0,0,1,2.63-4.6,8.24,8.24,0,0,1,5.47-1.76,8.81,8.81,0,0,1,5.9,1.84Q436.71,25,436.71,29V43.44Zm-5.92-9.69a9.94,9.94,0,0,0-3.75,1.66,3,3,0,0,0-1,2.31q0,3.36,4.26,3.36a6.84,6.84,0,0,0,4.5-1.32,4,4,0,0,0,1.58-3.22V31.2h-.08Q432.82,32.37,427.87,33.75Z" transform="translate(-11.3 -13.85)"/><path d="M443,43.44V22h3V24h.08a5.66,5.66,0,0,1,2.27-1.93,7.08,7.08,0,0,1,3.2-.75,6.34,6.34,0,0,1,3.47.91,6.51,6.51,0,0,1,2.21,2.25h.08a6.43,6.43,0,0,1,2.37-2.23,7.16,7.16,0,0,1,3.67-.93,6.92,6.92,0,0,1,7.42,7.46V43.44h-3.2V29.82q0-5.43-4.38-5.43a4.45,4.45,0,0,0-3.47,1.36,5.42,5.42,0,0,0-1.24,3.79v13.9h-3.2V29.82q0-5.43-4.38-5.43a4.17,4.17,0,0,0-3.49,1.44,5.8,5.8,0,0,0-1.14,3.71v13.9Z" transform="translate(-11.3 -13.85)"/><path d="M492.12,36.83l2.68,1.74a10.69,10.69,0,0,1-3.47,3.91A9.48,9.48,0,0,1,485.79,44a9.23,9.23,0,0,1-7.17-3.1,11.85,11.85,0,0,1-2.8-8.25,12,12,0,0,1,2.74-8.25,9,9,0,0,1,7.07-3.1,8.85,8.85,0,0,1,7,3q2.68,3,2.68,8.31v1H479.15a8.4,8.4,0,0,0,1.72,5.23A5.78,5.78,0,0,0,485.71,41,7.26,7.26,0,0,0,488,40.7,8.05,8.05,0,0,0,489.6,40a4.82,4.82,0,0,0,1.2-1.13,12.47,12.47,0,0,0,.77-1Q491.71,37.6,492.12,36.83ZM479.23,31H492a7.86,7.86,0,0,0-1.62-4.7,6.5,6.5,0,0,0-9.48.14A7.6,7.6,0,0,0,479.23,31Z" transform="translate(-11.3 -13.85)"/><path d="M501.32,37.2V24.92h-3V22h3.08V16.69h3.16V22h5.31v3H504.6V36.79a5,5,0,0,0,.53,2.68,2.4,2.4,0,0,0,2.11.77h1.62v3.2h-1.78q-3,0-4.4-1.56A7,7,0,0,1,501.32,37.2Z" transform="translate(-11.3 -13.85)"/><path d="M515.34,47.74V45.91a2.22,2.22,0,0,0,1.95-2.47h-1.95V38.66h4.78v4.17Q520.13,47.41,515.34,47.74Z" transform="translate(-11.3 -13.85)"/><path d="M533.5,43.44V22h3.24V24h.08a6.46,6.46,0,0,1,2.55-1.93,8.39,8.39,0,0,1,3.49-.75,7.56,7.56,0,0,1,5.61,2.15,7.93,7.93,0,0,1,2.13,5.84V43.44h-3.28V30.39q0-6-4.94-6a5.67,5.67,0,0,0-4,1.42,5.11,5.11,0,0,0-1.52,3.93v13.7Z" transform="translate(-11.3 -13.85)"/><path d="M556.89,35.94V22h3.32v13.5q0,3,1.16,4.26A5,5,0,0,0,565.2,41a4.66,4.66,0,0,0,3.73-1.5,6.18,6.18,0,0,0,1.3-4.17V22h3.28V43.44h-3.24V41.37h-.08a8.63,8.63,0,0,1-.61.73,7.39,7.39,0,0,1-1.88,1.2,7,7,0,0,1-3.22.75,7.49,7.49,0,0,1-5.57-2Q556.89,40,556.89,35.94Z" transform="translate(-11.3 -13.85)"/><path d="M580.2,43.44V13.85h3.36V43.44Z" transform="translate(-11.3 -13.85)"/><path d="M590.25,43.44V13.85h3.36V43.44Z" transform="translate(-11.3 -13.85)"/><path d="M612.78,43.44V41.09h-.08a5.9,5.9,0,0,1-2.31,2,8.63,8.63,0,0,1-4.26,1,7.6,7.6,0,0,1-5.41-1.74,5.77,5.77,0,0,1-1.84-4.38,5.43,5.43,0,0,1,1.64-4.19,13.18,13.18,0,0,1,5.57-2.53c1-.24,1.7-.43,2.17-.57s1-.32,1.64-.55a5,5,0,0,0,1.34-.67,3.17,3.17,0,0,0,.71-.81,2,2,0,0,0,.3-1.1,2.84,2.84,0,0,0-1.11-2.29,5.27,5.27,0,0,0-3.38-.91,4.87,4.87,0,0,0-5.23,4.26l-3-.85a7.6,7.6,0,0,1,2.63-4.6,8.24,8.24,0,0,1,5.47-1.76,8.81,8.81,0,0,1,5.9,1.84Q615.7,25,615.7,29V43.44Zm-5.92-9.69a9.93,9.93,0,0,0-3.75,1.66,3,3,0,0,0-1,2.31q0,3.36,4.26,3.36a6.84,6.84,0,0,0,4.5-1.32,4,4,0,0,0,1.58-3.22V31.2h-.08Q611.81,32.37,606.87,33.75Z" transform="translate(-11.3 -13.85)"/><path d="M622.39,43.44V38.66h4.78v4.78Z" transform="translate(-11.3 -13.85)"/><path d="M13.87,96.13V67.76h3.65L30.44,90.58h.08V67.76h3.32V96.13H30.32l-13-22.82h-.08V96.13Z" transform="translate(-11.3 -13.85)"/><path d="M40.74,88.63v-14h3.32v13.5q0,3,1.16,4.26A5,5,0,0,0,49,93.66a4.66,4.66,0,0,0,3.73-1.5A6.18,6.18,0,0,0,54.08,88V74.65h3.28V96.13H54.12V94.07H54a8.91,8.91,0,0,1-.61.73A7.38,7.38,0,0,1,51.54,96a7,7,0,0,1-3.22.75,7.49,7.49,0,0,1-5.57-2Q40.74,92.69,40.74,88.63Z" transform="translate(-11.3 -13.85)"/><path d="M64,96.13V66.54h3.36V96.13Z" transform="translate(-11.3 -13.85)"/><path d="M74.1,96.13V66.54h3.36V96.13Z" transform="translate(-11.3 -13.85)"/><path d="M96.64,96.13V93.78h-.08a5.91,5.91,0,0,1-2.31,2,8.63,8.63,0,0,1-4.26,1A7.6,7.6,0,0,1,84.58,95a5.77,5.77,0,0,1-1.85-4.38,5.44,5.44,0,0,1,1.64-4.19,13.18,13.18,0,0,1,5.57-2.53q1.46-.36,2.17-.57t1.64-.55a5,5,0,0,0,1.34-.67,3.19,3.19,0,0,0,.71-.81,2,2,0,0,0,.3-1.1A2.84,2.84,0,0,0,95,77.91,5.28,5.28,0,0,0,91.61,77a4.87,4.87,0,0,0-5.23,4.26l-3-.85A7.61,7.61,0,0,1,86,75.81,8.24,8.24,0,0,1,91.49,74a8.81,8.81,0,0,1,5.9,1.84q2.17,1.85,2.17,5.78V96.13Zm-5.92-9.69A9.94,9.94,0,0,0,87,88.11a3,3,0,0,0-1,2.31q0,3.36,4.26,3.36a6.84,6.84,0,0,0,4.5-1.32,4,4,0,0,0,1.58-3.22V83.89h-.08Q95.66,85.07,90.72,86.45Z" transform="translate(-11.3 -13.85)"/><path d="M115.77,105.25V74.65h3.16v2.07H119a7.36,7.36,0,0,1,2.43-1.84,8.06,8.06,0,0,1,3.73-.83,8.47,8.47,0,0,1,6.69,3.1,12.19,12.19,0,0,1,2.68,8.25,12.42,12.42,0,0,1-2.59,8.27,8.43,8.43,0,0,1-6.77,3.08,7.89,7.89,0,0,1-3.65-.85,6.39,6.39,0,0,1-2.35-1.82h-.08v11.19Zm3.32-23v6.81a4.24,4.24,0,0,0,1.58,3.26,5.72,5.72,0,0,0,3.93,1.4,5.9,5.9,0,0,0,4.92-2.19,9.75,9.75,0,0,0,1.72-6.16,9.68,9.68,0,0,0-1.74-6.14A5.89,5.89,0,0,0,124.6,77a5.22,5.22,0,0,0-4,1.62A5.16,5.16,0,0,0,119.09,82.27Z" transform="translate(-11.3 -13.85)"/><path d="M139.8,96.13V66.54h3.32V76.8h.08a6.36,6.36,0,0,1,2.61-2,8.88,8.88,0,0,1,3.67-.77,7.62,7.62,0,0,1,5.57,2.09,8,8,0,0,1,2.13,6v14h-3.32V83q0-5.92-5-5.92a5.71,5.71,0,0,0-4.19,1.54,5.39,5.39,0,0,0-1.56,4v13.5Z" transform="translate(-11.3 -13.85)"/><path d="M176.16,96.13V93.78h-.08a5.91,5.91,0,0,1-2.31,2,8.63,8.63,0,0,1-4.26,1A7.6,7.6,0,0,1,164.1,95a5.77,5.77,0,0,1-1.85-4.38,5.44,5.44,0,0,1,1.64-4.19,13.18,13.18,0,0,1,5.57-2.53q1.46-.36,2.17-.57t1.64-.55a5,5,0,0,0,1.34-.67,3.19,3.19,0,0,0,.71-.81,2,2,0,0,0,.3-1.1,2.84,2.84,0,0,0-1.11-2.29,5.28,5.28,0,0,0-3.39-.91,4.87,4.87,0,0,0-5.23,4.26l-3-.85a7.61,7.61,0,0,1,2.63-4.6A8.24,8.24,0,0,1,171,74a8.81,8.81,0,0,1,5.9,1.84q2.17,1.85,2.17,5.78V96.13Zm-5.92-9.69a9.94,9.94,0,0,0-3.75,1.66,3,3,0,0,0-1,2.31q0,3.36,4.26,3.36a6.84,6.84,0,0,0,4.5-1.32,4,4,0,0,0,1.58-3.22V83.89h-.08Q175.19,85.07,170.24,86.45Z" transform="translate(-11.3 -13.85)"/><path d="M185.36,96.13V74.65h3.16V77h.08a4.51,4.51,0,0,1,1.9-2,5.26,5.26,0,0,1,2.55-.69,4.5,4.5,0,0,1,1,.1c.31.07.55.13.71.18l.2.12L194.32,78a3.67,3.67,0,0,0-1.7-.32,3.38,3.38,0,0,0-3,1.36,7.88,7.88,0,0,0-.93,4.36V96.13Z" transform="translate(-11.3 -13.85)"/><path d="M214.26,89.53l2.68,1.74a10.69,10.69,0,0,1-3.47,3.91,9.48,9.48,0,0,1-5.53,1.56,9.23,9.23,0,0,1-7.17-3.1,11.85,11.85,0,0,1-2.8-8.25,12,12,0,0,1,2.74-8.25,9,9,0,0,1,7.07-3.1,8.85,8.85,0,0,1,7,3q2.68,3,2.68,8.31v1H201.29A8.4,8.4,0,0,0,203,91.59a5.78,5.78,0,0,0,4.84,2.15,7.26,7.26,0,0,0,2.27-.34,8.05,8.05,0,0,0,1.62-.69,4.82,4.82,0,0,0,1.2-1.13,12.47,12.47,0,0,0,.77-1Q213.86,90.3,214.26,89.53Zm-12.89-5.8h12.77a7.86,7.86,0,0,0-1.62-4.7,6.5,6.5,0,0,0-9.48.14A7.6,7.6,0,0,0,201.37,83.73Z" transform="translate(-11.3 -13.85)"/><path d="M223.46,89.89V77.61h-3v-3h3.08V69.38h3.16v5.27H232v3h-5.27V89.49a5,5,0,0,0,.53,2.68,2.4,2.4,0,0,0,2.11.77H231v3.2h-1.78q-3,0-4.4-1.56A7,7,0,0,1,223.46,89.89Z" transform="translate(-11.3 -13.85)"/><path d="M237.08,96.13V74.65h3.16V77h.08a4.51,4.51,0,0,1,1.9-2,5.26,5.26,0,0,1,2.55-.69,4.5,4.5,0,0,1,1,.1c.31.07.55.13.71.18l.2.12L246,78a3.67,3.67,0,0,0-1.7-.32,3.38,3.38,0,0,0-3,1.36,7.88,7.88,0,0,0-.93,4.36V96.13Z" transform="translate(-11.3 -13.85)"/><path d="M263.59,96.13V93.78h-.08a5.91,5.91,0,0,1-2.31,2,8.63,8.63,0,0,1-4.26,1A7.6,7.6,0,0,1,251.53,95a5.77,5.77,0,0,1-1.85-4.38,5.44,5.44,0,0,1,1.64-4.19,13.18,13.18,0,0,1,5.57-2.53q1.46-.36,2.17-.57t1.64-.55a5,5,0,0,0,1.34-.67,3.19,3.19,0,0,0,.71-.81,2,2,0,0,0,.3-1.1,2.84,2.84,0,0,0-1.11-2.29,5.28,5.28,0,0,0-3.39-.91,4.87,4.87,0,0,0-5.23,4.26l-3-.85a7.61,7.61,0,0,1,2.63-4.6A8.24,8.24,0,0,1,258.44,74a8.81,8.81,0,0,1,5.9,1.84q2.17,1.85,2.17,5.78V96.13Zm-5.92-9.69a9.94,9.94,0,0,0-3.75,1.66,3,3,0,0,0-1,2.31q0,3.36,4.26,3.36a6.84,6.84,0,0,0,4.5-1.32,4,4,0,0,0,1.58-3.22V83.89h-.08Q262.62,85.07,257.67,86.45Z" transform="translate(-11.3 -13.85)"/><path d="M295.21,96.13V93.78h-.08a5.91,5.91,0,0,1-2.31,2,8.63,8.63,0,0,1-4.26,1A7.6,7.6,0,0,1,283.15,95a5.77,5.77,0,0,1-1.85-4.38,5.44,5.44,0,0,1,1.64-4.19,13.18,13.18,0,0,1,5.57-2.53q1.46-.36,2.17-.57t1.64-.55a5,5,0,0,0,1.34-.67,3.19,3.19,0,0,0,.71-.81,2,2,0,0,0,.3-1.1,2.84,2.84,0,0,0-1.11-2.29,5.28,5.28,0,0,0-3.39-.91A4.87,4.87,0,0,0,285,81.26l-3-.85a7.61,7.61,0,0,1,2.63-4.6A8.24,8.24,0,0,1,290.06,74a8.81,8.81,0,0,1,5.9,1.84q2.17,1.85,2.17,5.78V96.13Zm-5.92-9.69a9.94,9.94,0,0,0-3.75,1.66,3,3,0,0,0-1,2.31q0,3.36,4.26,3.36a6.84,6.84,0,0,0,4.5-1.32,4,4,0,0,0,1.58-3.22V83.89h-.08Q294.23,85.07,289.29,86.45Z" transform="translate(-11.3 -13.85)"/><path d="M304.41,96.13V74.65h3.24v2.07h.08a6.46,6.46,0,0,1,2.55-1.93,8.39,8.39,0,0,1,3.49-.75,7.56,7.56,0,0,1,5.61,2.15A7.93,7.93,0,0,1,321.51,82V96.13h-3.28V83.08q0-6-4.94-6a5.67,5.67,0,0,0-4,1.42,5.11,5.11,0,0,0-1.52,3.93v13.7Z" transform="translate(-11.3 -13.85)"/><path d="M328.77,89.89V77.61h-3v-3h3.08V69.38H332v5.27h5.31v3h-5.27V89.49a5,5,0,0,0,.53,2.68,2.4,2.4,0,0,0,2.11.77h1.62v3.2h-1.78q-3,0-4.4-1.56A7,7,0,0,1,328.77,89.89Z" transform="translate(-11.3 -13.85)"/><path d="M356.45,89.53l2.68,1.74a10.69,10.69,0,0,1-3.47,3.91,9.48,9.48,0,0,1-5.53,1.56,9.23,9.23,0,0,1-7.17-3.1,11.85,11.85,0,0,1-2.8-8.25,12,12,0,0,1,2.74-8.25A9,9,0,0,1,350,74a8.85,8.85,0,0,1,7,3q2.68,3,2.68,8.31v1H343.48a8.4,8.4,0,0,0,1.72,5.23A5.78,5.78,0,0,0,350,93.74a7.26,7.26,0,0,0,2.27-.34,8.05,8.05,0,0,0,1.62-.69,4.82,4.82,0,0,0,1.2-1.13,12.47,12.47,0,0,0,.77-1Q356,90.3,356.45,89.53Zm-12.89-5.8h12.77a7.86,7.86,0,0,0-1.62-4.7,6.5,6.5,0,0,0-9.48.14A7.6,7.6,0,0,0,343.56,83.73Z" transform="translate(-11.3 -13.85)"/><path d="M373.19,88.84l3.12-.61q.61,5.63,6,5.63a6.48,6.48,0,0,0,3.83-.93,2.92,2.92,0,0,0,1.28-2.47,2.75,2.75,0,0,0-1.2-2.43,19.83,19.83,0,0,0-5-1.86,15.16,15.16,0,0,1-5.59-2.47A4.64,4.64,0,0,1,374,80a5.39,5.39,0,0,1,2-4.15A8,8,0,0,1,381.42,74,8.61,8.61,0,0,1,387,75.72a8.09,8.09,0,0,1,2.76,4.48l-2.88.77a5.26,5.26,0,0,0-5.47-4.09,5.14,5.14,0,0,0-3.24.89A2.62,2.62,0,0,0,377,79.88a2.15,2.15,0,0,0,1.09,2,27,27,0,0,0,5,1.78q4.17,1.18,5.74,2.69a5.62,5.62,0,0,1,1.6,4.11,5.79,5.79,0,0,1-2,4.42q-2,1.87-6.14,1.86-4.26,0-6.5-2.21A9,9,0,0,1,373.19,88.84Z" transform="translate(-11.3 -13.85)"/><path d="M410.44,89.53l2.68,1.74a10.69,10.69,0,0,1-3.47,3.91,9.48,9.48,0,0,1-5.53,1.56,9.23,9.23,0,0,1-7.17-3.1,11.85,11.85,0,0,1-2.8-8.25,12,12,0,0,1,2.74-8.25A9,9,0,0,1,404,74a8.85,8.85,0,0,1,7,3q2.68,3,2.68,8.31v1H397.47a8.4,8.4,0,0,0,1.72,5.23A5.78,5.78,0,0,0,404,93.74a7.26,7.26,0,0,0,2.27-.34,8.05,8.05,0,0,0,1.62-.69,4.82,4.82,0,0,0,1.2-1.13,12.47,12.47,0,0,0,.77-1Q410,90.3,410.44,89.53Zm-12.89-5.8h12.77A7.86,7.86,0,0,0,408.7,79a6.5,6.5,0,0,0-9.48.14A7.6,7.6,0,0,0,397.55,83.73Z" transform="translate(-11.3 -13.85)"/><path d="M418.87,96.13V74.65h3v2.07H422a5.66,5.66,0,0,1,2.27-1.93,7.08,7.08,0,0,1,3.2-.75,6.34,6.34,0,0,1,3.47.91,6.51,6.51,0,0,1,2.21,2.25h.08A6.43,6.43,0,0,1,435.55,75a7.16,7.16,0,0,1,3.67-.93,6.92,6.92,0,0,1,7.42,7.46V96.13h-3.2V82.51q0-5.43-4.38-5.43a4.45,4.45,0,0,0-3.47,1.36,5.42,5.42,0,0,0-1.24,3.79v13.9h-3.2V82.51q0-5.43-4.38-5.43a4.17,4.17,0,0,0-3.49,1.44,5.8,5.8,0,0,0-1.14,3.71v13.9Z" transform="translate(-11.3 -13.85)"/><path d="M475.54,96.13V93.78h-.08a5.91,5.91,0,0,1-2.31,2,8.63,8.63,0,0,1-4.26,1A7.6,7.6,0,0,1,463.48,95a5.77,5.77,0,0,1-1.85-4.38,5.44,5.44,0,0,1,1.64-4.19,13.18,13.18,0,0,1,5.57-2.53q1.46-.36,2.17-.57t1.64-.55a5,5,0,0,0,1.34-.67,3.19,3.19,0,0,0,.71-.81,2,2,0,0,0,.3-1.1,2.84,2.84,0,0,0-1.11-2.29,5.28,5.28,0,0,0-3.39-.91,4.87,4.87,0,0,0-5.23,4.26l-3-.85a7.61,7.61,0,0,1,2.63-4.6A8.24,8.24,0,0,1,470.39,74a8.81,8.81,0,0,1,5.9,1.84q2.17,1.85,2.17,5.78V96.13Zm-5.92-9.69a9.94,9.94,0,0,0-3.75,1.66,3,3,0,0,0-1,2.31q0,3.36,4.26,3.36a6.84,6.84,0,0,0,4.5-1.32,4,4,0,0,0,1.58-3.22V83.89h-.08Q474.56,85.07,469.62,86.45Z" transform="translate(-11.3 -13.85)"/><path d="M484.74,96.13V66.54h3.36V96.13Z" transform="translate(-11.3 -13.85)"/><path d="M494.79,70.31V66.54h3.81v3.77ZM495,96.13V74.65h3.32V96.13Z" transform="translate(-11.3 -13.85)"/><path d="M519.35,105.25V94.07h-.08a7.17,7.17,0,0,1-6,2.68,8.43,8.43,0,0,1-6.77-3.08,12.42,12.42,0,0,1-2.59-8.27,12.13,12.13,0,0,1,2.7-8.25,8.53,8.53,0,0,1,6.71-3.1,8.14,8.14,0,0,1,3.69.81,7.34,7.34,0,0,1,2.47,1.86h.08V74.65h3.12v30.6Zm0-16.17V82.27a5.16,5.16,0,0,0-1.52-3.61,5.27,5.27,0,0,0-4-1.62,5.83,5.83,0,0,0-4.88,2.21,9.76,9.76,0,0,0-1.72,6.14,9.83,9.83,0,0,0,1.7,6.16,5.84,5.84,0,0,0,4.91,2.19,5.78,5.78,0,0,0,4-1.4A4.24,4.24,0,0,0,519.35,89.08Z" transform="translate(-11.3 -13.85)"/><path d="M529.12,88.63v-14h3.32v13.5q0,3,1.16,4.26a5,5,0,0,0,3.83,1.26,4.66,4.66,0,0,0,3.73-1.5,6.18,6.18,0,0,0,1.3-4.17V74.65h3.28V96.13H542.5V94.07h-.08a8.91,8.91,0,0,1-.61.73,7.38,7.38,0,0,1-1.89,1.2,7,7,0,0,1-3.22.75,7.49,7.49,0,0,1-5.57-2Q529.12,92.69,529.12,88.63Z" transform="translate(-11.3 -13.85)"/><path d="M564.91,96.13V93.78h-.08a5.89,5.89,0,0,1-2.31,2,8.63,8.63,0,0,1-4.26,1A7.6,7.6,0,0,1,552.85,95,5.77,5.77,0,0,1,551,90.62a5.44,5.44,0,0,1,1.64-4.19,13.18,13.18,0,0,1,5.57-2.53q1.46-.36,2.17-.57t1.64-.55a5,5,0,0,0,1.34-.67,3.19,3.19,0,0,0,.71-.81,2,2,0,0,0,.3-1.1,2.84,2.84,0,0,0-1.11-2.29,5.28,5.28,0,0,0-3.39-.91,4.87,4.87,0,0,0-5.23,4.26l-3-.85a7.61,7.61,0,0,1,2.63-4.6A8.24,8.24,0,0,1,559.76,74a8.81,8.81,0,0,1,5.9,1.84q2.17,1.85,2.17,5.78V96.13ZM559,86.45a9.94,9.94,0,0,0-3.75,1.66,3,3,0,0,0-1,2.31q0,3.36,4.26,3.36a6.84,6.84,0,0,0,4.5-1.32,4,4,0,0,0,1.58-3.22V83.89h-.08Q563.94,85.07,559,86.45Z" transform="translate(-11.3 -13.85)"/><path d="M574.11,96.13V74.65h3v2.07h.08a5.64,5.64,0,0,1,2.27-1.93,7.07,7.07,0,0,1,3.2-.75,6.35,6.35,0,0,1,3.47.91,6.49,6.49,0,0,1,2.21,2.25h.08A6.43,6.43,0,0,1,590.79,75a7.17,7.17,0,0,1,3.67-.93,6.92,6.92,0,0,1,7.42,7.46V96.13h-3.2V82.51q0-5.43-4.38-5.43a4.45,4.45,0,0,0-3.47,1.36,5.42,5.42,0,0,0-1.24,3.79v13.9h-3.2V82.51q0-5.43-4.38-5.43a4.17,4.17,0,0,0-3.49,1.44,5.81,5.81,0,0,0-1.13,3.71v13.9Z" transform="translate(-11.3 -13.85)"/><path d="M608.77,100.43V98.61a2.22,2.22,0,0,0,1.95-2.47h-1.95V91.35h4.78v4.17Q613.55,100.11,608.77,100.43Z" transform="translate(-11.3 -13.85)"/><path d="M13.26,141.33v-14h3.32v13.5q0,3,1.16,4.26a5,5,0,0,0,3.83,1.26,4.66,4.66,0,0,0,3.73-1.5,6.18,6.18,0,0,0,1.3-4.17V127.34h3.28v21.48H26.63v-2.07h-.08a8.91,8.91,0,0,1-.61.73,7.38,7.38,0,0,1-1.89,1.2,7,7,0,0,1-3.22.75,7.49,7.49,0,0,1-5.57-2Q13.26,145.38,13.26,141.33Z" transform="translate(-11.3 -13.85)"/><path d="M36.57,148.83V119.24h3.36v29.59Z" transform="translate(-11.3 -13.85)"/><path d="M46.62,148.83V119.24H50v29.59Z" transform="translate(-11.3 -13.85)"/><path d="M69.15,148.83v-2.35h-.08a5.91,5.91,0,0,1-2.31,2,8.63,8.63,0,0,1-4.26,1,7.6,7.6,0,0,1-5.41-1.74,5.77,5.77,0,0,1-1.85-4.38,5.44,5.44,0,0,1,1.64-4.19,13.18,13.18,0,0,1,5.57-2.53q1.46-.36,2.17-.57t1.64-.55a5,5,0,0,0,1.34-.67,3.19,3.19,0,0,0,.71-.81,2,2,0,0,0,.3-1.1,2.84,2.84,0,0,0-1.11-2.29,5.28,5.28,0,0,0-3.39-.91A4.87,4.87,0,0,0,58.9,134l-3-.85a7.61,7.61,0,0,1,2.63-4.6A8.24,8.24,0,0,1,64,126.74a8.81,8.81,0,0,1,5.9,1.84q2.17,1.85,2.17,5.78v14.47Zm-5.92-9.69a9.94,9.94,0,0,0-3.75,1.66,3,3,0,0,0-1,2.31q0,3.36,4.26,3.36a6.84,6.84,0,0,0,4.5-1.32,4,4,0,0,0,1.58-3.22v-5.35h-.08Q68.18,137.76,63.23,139.14Z" transform="translate(-11.3 -13.85)"/><path d="M78.35,148.83V127.34h3v2.07h.08a5.66,5.66,0,0,1,2.27-1.93,7.08,7.08,0,0,1,3.2-.75,6.34,6.34,0,0,1,3.47.91,6.51,6.51,0,0,1,2.21,2.25h.08A6.43,6.43,0,0,1,95,127.67a7.16,7.16,0,0,1,3.67-.93,6.92,6.92,0,0,1,7.42,7.46v14.63h-3.2V135.21q0-5.43-4.38-5.43a4.45,4.45,0,0,0-3.47,1.36,5.42,5.42,0,0,0-1.24,3.79v13.9h-3.2V135.21q0-5.43-4.38-5.43a4.17,4.17,0,0,0-3.49,1.44,5.8,5.8,0,0,0-1.14,3.71v13.9Z" transform="translate(-11.3 -13.85)"/><path d="M126.71,140.6l3.2.65a9.6,9.6,0,0,1-3,6,8.55,8.55,0,0,1-6,2.23,9,9,0,0,1-7.05-3q-2.72-3-2.72-8.33a11.82,11.82,0,0,1,2.8-8.29,9.06,9.06,0,0,1,7-3.06,8.4,8.4,0,0,1,5.86,2.19,9.28,9.28,0,0,1,2.94,5.67l-3.12.65a8.37,8.37,0,0,0-1.86-4,4.83,4.83,0,0,0-3.81-1.56,5.75,5.75,0,0,0-4.7,2.21,9.52,9.52,0,0,0-1.78,6.14,9.7,9.7,0,0,0,1.74,6.12,5.74,5.74,0,0,0,4.78,2.23,4.92,4.92,0,0,0,3.89-1.72A7.69,7.69,0,0,0,126.71,140.6Z" transform="translate(-11.3 -13.85)"/><path d="M143.33,149.43a9.1,9.1,0,0,1-7-3q-2.76-3-2.76-8.35t2.84-8.31a9.12,9.12,0,0,1,6.93-3,8.89,8.89,0,0,1,6.83,3q2.78,3,2.78,8.31t-2.72,8.35A8.89,8.89,0,0,1,143.33,149.43Zm0-3a5.6,5.6,0,0,0,4.52-2.21,11.41,11.41,0,0,0,0-12.28,5.59,5.59,0,0,0-4.54-2.21,5.82,5.82,0,0,0-4.66,2.17,11.39,11.39,0,0,0,0,12.36A5.82,5.82,0,0,0,143.33,146.44Z" transform="translate(-11.3 -13.85)"/><path d="M158.2,148.83V127.34h3.16v2.31h.08a4.51,4.51,0,0,1,1.9-2,5.26,5.26,0,0,1,2.55-.69,4.5,4.5,0,0,1,1,.1c.31.07.55.13.71.18l.2.12-.61,3.28a3.67,3.67,0,0,0-1.7-.32,3.38,3.38,0,0,0-3,1.36,7.88,7.88,0,0,0-.93,4.36v12.77Z" transform="translate(-11.3 -13.85)"/><path d="M172.23,157.95v-30.6h3.16v2.07h.08a7.36,7.36,0,0,1,2.43-1.84,8.06,8.06,0,0,1,3.73-.83,8.47,8.47,0,0,1,6.69,3.1,12.19,12.19,0,0,1,2.68,8.25,12.42,12.42,0,0,1-2.59,8.27,8.43,8.43,0,0,1-6.77,3.08,7.89,7.89,0,0,1-3.65-.85,6.39,6.39,0,0,1-2.35-1.82h-.08v11.19Zm3.32-23v6.81a4.24,4.24,0,0,0,1.58,3.26,5.72,5.72,0,0,0,3.93,1.4,5.9,5.9,0,0,0,4.92-2.19,11.79,11.79,0,0,0,0-12.3,5.89,5.89,0,0,0-4.9-2.21,5.22,5.22,0,0,0-4,1.62A5.16,5.16,0,0,0,175.55,135Z" transform="translate(-11.3 -13.85)"/><path d="M211.14,142.22l2.68,1.74a10.69,10.69,0,0,1-3.47,3.91,9.48,9.48,0,0,1-5.53,1.56,9.23,9.23,0,0,1-7.17-3.1,11.85,11.85,0,0,1-2.8-8.25,12,12,0,0,1,2.74-8.25,9,9,0,0,1,7.07-3.1,8.85,8.85,0,0,1,7,3q2.68,3,2.68,8.31v1H198.17a8.4,8.4,0,0,0,1.72,5.23,5.78,5.78,0,0,0,4.84,2.15,7.26,7.26,0,0,0,2.27-.34,8.05,8.05,0,0,0,1.62-.69,4.82,4.82,0,0,0,1.2-1.13,12.47,12.47,0,0,0,.77-1Q210.73,143,211.14,142.22Zm-12.89-5.8H211a7.86,7.86,0,0,0-1.62-4.7,6.5,6.5,0,0,0-9.48.14A7.6,7.6,0,0,0,198.25,136.42Z" transform="translate(-11.3 -13.85)"/><path d="M219.57,148.83V127.34h3.16v2.31h.08a4.51,4.51,0,0,1,1.9-2,5.26,5.26,0,0,1,2.55-.69,4.5,4.5,0,0,1,1,.1c.31.07.55.13.71.18l.2.12-.61,3.28a3.67,3.67,0,0,0-1.7-.32,3.38,3.38,0,0,0-3,1.36,7.88,7.88,0,0,0-.93,4.36v12.77Z" transform="translate(-11.3 -13.85)"/><path d="M243.52,148.83V119.24h3.36v29.59Z" transform="translate(-11.3 -13.85)"/><path d="M261.93,149.43a9.1,9.1,0,0,1-7-3q-2.76-3-2.76-8.35t2.84-8.31a9.12,9.12,0,0,1,6.93-3,8.89,8.89,0,0,1,6.83,3q2.78,3,2.78,8.31t-2.72,8.35A8.89,8.89,0,0,1,261.93,149.43Zm0-3a5.6,5.6,0,0,0,4.52-2.21,11.41,11.41,0,0,0,0-12.28,5.59,5.59,0,0,0-4.54-2.21,5.82,5.82,0,0,0-4.66,2.17,11.39,11.39,0,0,0,0,12.36A5.82,5.82,0,0,0,261.93,146.44Z" transform="translate(-11.3 -13.85)"/><path d="M276.8,148.83V127.34H280v2.31H280a4.51,4.51,0,0,1,1.9-2,5.26,5.26,0,0,1,2.55-.69,4.5,4.5,0,0,1,1,.1c.31.07.55.13.71.18l.2.12-.61,3.28a3.67,3.67,0,0,0-1.7-.32,3.38,3.38,0,0,0-3,1.36,7.88,7.88,0,0,0-.93,4.36v12.77Z" transform="translate(-11.3 -13.85)"/><path d="M305.7,142.22l2.68,1.74a10.69,10.69,0,0,1-3.47,3.91,9.48,9.48,0,0,1-5.53,1.56,9.23,9.23,0,0,1-7.17-3.1,11.85,11.85,0,0,1-2.8-8.25,12,12,0,0,1,2.74-8.25,9,9,0,0,1,7.07-3.1,8.85,8.85,0,0,1,7,3q2.68,3,2.68,8.31v1H292.73a8.4,8.4,0,0,0,1.72,5.23,5.78,5.78,0,0,0,4.84,2.15,7.26,7.26,0,0,0,2.27-.34,8.05,8.05,0,0,0,1.62-.69,4.82,4.82,0,0,0,1.2-1.13,12.47,12.47,0,0,0,.77-1Q305.3,143,305.7,142.22Zm-12.89-5.8h12.77a7.86,7.86,0,0,0-1.62-4.7,6.5,6.5,0,0,0-9.48.14A7.6,7.6,0,0,0,292.81,136.42Z" transform="translate(-11.3 -13.85)"/><path d="M314.13,148.83V127.34h3v2.07h.08a5.66,5.66,0,0,1,2.27-1.93,7.08,7.08,0,0,1,3.2-.75,6.34,6.34,0,0,1,3.47.91,6.51,6.51,0,0,1,2.21,2.25h.08a6.43,6.43,0,0,1,2.37-2.23,7.16,7.16,0,0,1,3.67-.93,6.92,6.92,0,0,1,7.42,7.46v14.63h-3.2V135.21q0-5.43-4.38-5.43a4.45,4.45,0,0,0-3.47,1.36,5.42,5.42,0,0,0-1.24,3.79v13.9h-3.2V135.21q0-5.43-4.38-5.43a4.17,4.17,0,0,0-3.49,1.44,5.8,5.8,0,0,0-1.14,3.71v13.9Z" transform="translate(-11.3 -13.85)"/><path d="M373.19,142.22l2.68,1.74a10.69,10.69,0,0,1-3.47,3.91,9.48,9.48,0,0,1-5.53,1.56,9.23,9.23,0,0,1-7.17-3.1,11.85,11.85,0,0,1-2.8-8.25,12,12,0,0,1,2.74-8.25,9,9,0,0,1,7.07-3.1,8.85,8.85,0,0,1,7,3q2.68,3,2.68,8.31v1H360.22a8.4,8.4,0,0,0,1.72,5.23,5.78,5.78,0,0,0,4.84,2.15,7.26,7.26,0,0,0,2.27-.34,8.05,8.05,0,0,0,1.62-.69,4.82,4.82,0,0,0,1.2-1.13,12.47,12.47,0,0,0,.77-1Q372.78,143,373.19,142.22Zm-12.89-5.8h12.77a7.86,7.86,0,0,0-1.62-4.7,6.5,6.5,0,0,0-9.48.14A7.6,7.6,0,0,0,360.3,136.42Z" transform="translate(-11.3 -13.85)"/><path d="M381.82,152.72l2.8-1.42a7.75,7.75,0,0,0,2,3.14,6.16,6.16,0,0,0,7.64-.37,6,6,0,0,0,1.42-4.24V147h-.08a7.4,7.4,0,0,1-6,2.47,8.52,8.52,0,0,1-6.85-3.08,12.42,12.42,0,0,1-2.59-8.27,12.13,12.13,0,0,1,2.7-8.25,8.53,8.53,0,0,1,6.71-3.1,7.31,7.31,0,0,1,6,2.68h.08v-2.07H399v21.81q0,4.58-2.29,7a8.33,8.33,0,0,1-6.34,2.41,8.93,8.93,0,0,1-5.45-1.6A8.52,8.52,0,0,1,381.82,152.72Zm13.86-10.94V135a5.16,5.16,0,0,0-1.52-3.61,5.27,5.27,0,0,0-4-1.62,5.83,5.83,0,0,0-4.88,2.21,11.9,11.9,0,0,0,0,12.3,5.84,5.84,0,0,0,4.91,2.19,5.78,5.78,0,0,0,4-1.4A4.24,4.24,0,0,0,395.69,141.77Z" transform="translate(-11.3 -13.85)"/><path d="M420.33,142.22,423,144a10.69,10.69,0,0,1-3.47,3.91,9.48,9.48,0,0,1-5.53,1.56,9.23,9.23,0,0,1-7.17-3.1,11.85,11.85,0,0,1-2.8-8.25,12,12,0,0,1,2.74-8.25,9,9,0,0,1,7.07-3.1,8.85,8.85,0,0,1,7,3q2.68,3,2.68,8.31v1H407.36a8.4,8.4,0,0,0,1.72,5.23,5.78,5.78,0,0,0,4.84,2.15,7.26,7.26,0,0,0,2.27-.34,8.05,8.05,0,0,0,1.62-.69,4.82,4.82,0,0,0,1.2-1.13,12.47,12.47,0,0,0,.77-1Q419.93,143,420.33,142.22Zm-12.89-5.8h12.77a7.86,7.86,0,0,0-1.62-4.7,6.5,6.5,0,0,0-9.48.14A7.6,7.6,0,0,0,407.44,136.42Z" transform="translate(-11.3 -13.85)"/><path d="M427.14,141.53l3.12-.61q.61,5.63,6,5.63a6.48,6.48,0,0,0,3.83-.93,2.92,2.92,0,0,0,1.28-2.47,2.75,2.75,0,0,0-1.2-2.43,19.83,19.83,0,0,0-5-1.86,15.16,15.16,0,0,1-5.59-2.47,4.64,4.64,0,0,1-1.62-3.73,5.39,5.39,0,0,1,2-4.15,8,8,0,0,1,5.47-1.76,8.61,8.61,0,0,1,5.59,1.68,8.09,8.09,0,0,1,2.76,4.48l-2.88.77a5.26,5.26,0,0,0-5.47-4.09,5.14,5.14,0,0,0-3.24.89,2.62,2.62,0,0,0-1.13,2.11,2.15,2.15,0,0,0,1.09,2,27,27,0,0,0,5,1.78q4.17,1.18,5.74,2.69a5.62,5.62,0,0,1,1.6,4.11,5.79,5.79,0,0,1-2,4.42q-2,1.87-6.14,1.86-4.26,0-6.5-2.21A9,9,0,0,1,427.14,141.53Z" transform="translate(-11.3 -13.85)"/><path d="M450.29,142.58V130.3h-3v-3h3.08v-5.27h3.16v5.27h5.31v3h-5.27v11.88a5,5,0,0,0,.53,2.68,2.4,2.4,0,0,0,2.11.77h1.62v3.2H456q-3,0-4.4-1.56A7,7,0,0,1,450.29,142.58Z" transform="translate(-11.3 -13.85)"/><path d="M476,148.83v-2.35h-.08a5.91,5.91,0,0,1-2.31,2,8.63,8.63,0,0,1-4.26,1,7.6,7.6,0,0,1-5.41-1.74,5.77,5.77,0,0,1-1.85-4.38,5.44,5.44,0,0,1,1.64-4.19,13.18,13.18,0,0,1,5.57-2.53q1.46-.36,2.17-.57t1.64-.55a5,5,0,0,0,1.34-.67,3.19,3.19,0,0,0,.71-.81,2,2,0,0,0,.3-1.1,2.84,2.84,0,0,0-1.11-2.29,5.28,5.28,0,0,0-3.39-.91,4.87,4.87,0,0,0-5.23,4.26l-3-.85a7.61,7.61,0,0,1,2.63-4.6,8.24,8.24,0,0,1,5.47-1.76,8.81,8.81,0,0,1,5.9,1.84q2.17,1.85,2.17,5.78v14.47Zm-5.92-9.69a9.94,9.94,0,0,0-3.75,1.66,3,3,0,0,0-1,2.31q0,3.36,4.26,3.36a6.84,6.84,0,0,0,4.5-1.32,4,4,0,0,0,1.58-3.22v-5.35h-.08Q475,137.76,470.07,139.14Z" transform="translate(-11.3 -13.85)"/><path d="M483.56,141.53l3.12-.61q.61,5.63,6,5.63a6.48,6.48,0,0,0,3.83-.93,2.92,2.92,0,0,0,1.28-2.47,2.75,2.75,0,0,0-1.2-2.43,19.83,19.83,0,0,0-5-1.86,15.16,15.16,0,0,1-5.59-2.47,4.64,4.64,0,0,1-1.62-3.73,5.39,5.39,0,0,1,2-4.15,8,8,0,0,1,5.47-1.76,8.61,8.61,0,0,1,5.59,1.68,8.09,8.09,0,0,1,2.76,4.48l-2.88.77a5.26,5.26,0,0,0-5.47-4.09,5.14,5.14,0,0,0-3.24.89,2.62,2.62,0,0,0-1.13,2.11,2.15,2.15,0,0,0,1.09,2,27,27,0,0,0,5,1.78q4.17,1.18,5.74,2.69a5.62,5.62,0,0,1,1.6,4.11,5.79,5.79,0,0,1-2,4.42q-2,1.87-6.14,1.86-4.26,0-6.5-2.21A9,9,0,0,1,483.56,141.53Z" transform="translate(-11.3 -13.85)"/><path d="M505.94,148.83V144h4.78v4.78Z" transform="translate(-11.3 -13.85)"/><path d="M544.61,149.48,542,146.92a10.7,10.7,0,0,1-7.09,2.51,11.74,11.74,0,0,1-4.48-.85,11.52,11.52,0,0,1-3.81-2.57,12,12,0,0,1-2.74-4.7,21.48,21.48,0,0,1-1-6.91q0-6.93,3.53-10.74a11.18,11.18,0,0,1,8.51-3.81,10.9,10.9,0,0,1,8.37,3.89q3.5,3.89,3.51,10.82,0,6.4-2.92,10.42l2.68,2.63Zm-11.88-11.84,1.95-1.86,6.85,6.85q1.7-2.84,1.7-8.07,0-5.59-2.37-8.55a7.32,7.32,0,0,0-5.94-3,7.58,7.58,0,0,0-6.06,2.88q-2.41,2.88-2.41,8.47,0,5.84,2.35,8.86a7.93,7.93,0,0,0,11,1.44Z" transform="translate(-11.3 -13.85)"/><path d="M552.07,141.33v-14h3.32v13.5q0,3,1.16,4.26a5,5,0,0,0,3.83,1.26,4.67,4.67,0,0,0,3.73-1.5,6.19,6.19,0,0,0,1.3-4.17V127.34h3.28v21.48h-3.24v-2.07h-.08a8.23,8.23,0,0,1-.61.73,7.31,7.31,0,0,1-1.88,1.2,7,7,0,0,1-3.22.75,7.49,7.49,0,0,1-5.57-2Q552.07,145.38,552.07,141.33Z" transform="translate(-11.3 -13.85)"/><path d="M587.86,148.83v-2.35h-.08a5.9,5.9,0,0,1-2.31,2,8.63,8.63,0,0,1-4.26,1,7.6,7.6,0,0,1-5.41-1.74,5.77,5.77,0,0,1-1.84-4.38,5.43,5.43,0,0,1,1.64-4.19,13.18,13.18,0,0,1,5.57-2.53c1-.24,1.7-.43,2.17-.57s1-.32,1.64-.55a5,5,0,0,0,1.34-.67A3.17,3.17,0,0,0,587,134a2,2,0,0,0,.3-1.1,2.84,2.84,0,0,0-1.11-2.29,5.27,5.27,0,0,0-3.38-.91A4.87,4.87,0,0,0,577.6,134l-3-.85a7.6,7.6,0,0,1,2.63-4.6,8.24,8.24,0,0,1,5.47-1.76,8.81,8.81,0,0,1,5.9,1.84q2.17,1.85,2.17,5.78v14.47Zm-5.92-9.69a9.93,9.93,0,0,0-3.75,1.66,3,3,0,0,0-1,2.31q0,3.36,4.26,3.36a6.84,6.84,0,0,0,4.5-1.32,4,4,0,0,0,1.58-3.22v-5.35h-.08Q586.88,137.76,581.94,139.14Z" transform="translate(-11.3 -13.85)"/><path d="M597.06,148.83V127.34h3v2.07h.08a5.64,5.64,0,0,1,2.27-1.93,7.07,7.07,0,0,1,3.2-.75,6.35,6.35,0,0,1,3.47.91,6.49,6.49,0,0,1,2.21,2.25h.08a6.43,6.43,0,0,1,2.37-2.23,7.17,7.17,0,0,1,3.67-.93,6.92,6.92,0,0,1,7.42,7.46v14.63h-3.2V135.21q0-5.43-4.38-5.43a4.45,4.45,0,0,0-3.47,1.36,5.42,5.42,0,0,0-1.24,3.79v13.9h-3.2V135.21q0-5.43-4.38-5.43a4.17,4.17,0,0,0-3.49,1.44,5.81,5.81,0,0,0-1.13,3.71v13.9Z" transform="translate(-11.3 -13.85)"/><path d="M631.71,153.12V151.3a2.22,2.22,0,0,0,1.95-2.47h-1.95V144h4.78v4.17Q636.5,152.8,631.71,153.12Z" transform="translate(-11.3 -13.85)"/><path d="M13.46,210.64V180h3.16v2.07h.08a7.36,7.36,0,0,1,2.43-1.84,8.06,8.06,0,0,1,3.73-.83,8.47,8.47,0,0,1,6.69,3.1,12.19,12.19,0,0,1,2.68,8.25A12.42,12.42,0,0,1,29.63,199a8.43,8.43,0,0,1-6.77,3.08,7.89,7.89,0,0,1-3.65-.85,6.39,6.39,0,0,1-2.35-1.82h-.08v11.19Zm3.32-23v6.81a4.24,4.24,0,0,0,1.58,3.26,5.72,5.72,0,0,0,3.93,1.4,5.9,5.9,0,0,0,4.92-2.19,11.79,11.79,0,0,0,0-12.3,5.89,5.89,0,0,0-4.9-2.21,5.22,5.22,0,0,0-4,1.62A5.16,5.16,0,0,0,16.78,187.66Z" transform="translate(-11.3 -13.85)"/><path d="M52.37,194.91,55,196.66a10.69,10.69,0,0,1-3.47,3.91A9.48,9.48,0,0,1,46,202.13a9.23,9.23,0,0,1-7.17-3.1,11.85,11.85,0,0,1-2.8-8.25,12,12,0,0,1,2.74-8.25,9,9,0,0,1,7.07-3.1,8.85,8.85,0,0,1,7,3q2.68,3,2.68,8.31v1H39.4A8.4,8.4,0,0,0,41.13,197,5.78,5.78,0,0,0,46,199.13a7.26,7.26,0,0,0,2.27-.34,8.05,8.05,0,0,0,1.62-.69,4.82,4.82,0,0,0,1.2-1.13,12.47,12.47,0,0,0,.77-1Q52,195.68,52.37,194.91Zm-12.89-5.8H52.25a7.86,7.86,0,0,0-1.62-4.7,5.63,5.63,0,0,0-4.74-2,5.6,5.6,0,0,0-4.74,2.13A7.6,7.6,0,0,0,39.48,189.12Z" transform="translate(-11.3 -13.85)"/><path d="M60.8,201.52V171.93h3.36v29.59Z" transform="translate(-11.3 -13.85)"/><path d="M70.85,201.52V171.93h3.36v29.59Z" transform="translate(-11.3 -13.85)"/><path d="M95.78,194.91l2.68,1.74A10.69,10.69,0,0,1,95,200.57a9.48,9.48,0,0,1-5.53,1.56,9.23,9.23,0,0,1-7.17-3.1,11.85,11.85,0,0,1-2.8-8.25,12,12,0,0,1,2.74-8.25,9,9,0,0,1,7.07-3.1,8.85,8.85,0,0,1,7,3q2.68,3,2.68,8.31v1H82.81A8.4,8.4,0,0,0,84.54,197a5.78,5.78,0,0,0,4.84,2.15,7.26,7.26,0,0,0,2.27-.34,8.05,8.05,0,0,0,1.62-.69,4.82,4.82,0,0,0,1.2-1.13,12.47,12.47,0,0,0,.77-1Q95.38,195.68,95.78,194.91Zm-12.89-5.8H95.66a7.86,7.86,0,0,0-1.62-4.7,6.5,6.5,0,0,0-9.48.14A7.6,7.6,0,0,0,82.89,189.12Z" transform="translate(-11.3 -13.85)"/><path d="M104.21,201.52V180h3.24v2.07h.08a6.46,6.46,0,0,1,2.55-1.93,8.39,8.39,0,0,1,3.49-.75,7.56,7.56,0,0,1,5.61,2.15,7.93,7.93,0,0,1,2.13,5.84v14.11H118V188.47q0-6-4.94-6a5.67,5.67,0,0,0-4,1.42,5.11,5.11,0,0,0-1.52,3.93v13.7Z" transform="translate(-11.3 -13.85)"/><path d="M128.57,195.28V183h-3v-3h3.08v-5.27h3.16V180h5.31v3h-5.27v11.88a5,5,0,0,0,.53,2.68,2.4,2.4,0,0,0,2.11.77h1.62v3.2h-1.78q-3,0-4.4-1.56A7,7,0,0,1,128.57,195.28Z" transform="translate(-11.3 -13.85)"/><path d="M156.26,194.91l2.68,1.74a10.69,10.69,0,0,1-3.47,3.91,9.48,9.48,0,0,1-5.53,1.56,9.23,9.23,0,0,1-7.17-3.1,11.85,11.85,0,0,1-2.8-8.25,12,12,0,0,1,2.74-8.25,9,9,0,0,1,7.07-3.1,8.85,8.85,0,0,1,7,3q2.68,3,2.68,8.31v1H143.29A8.4,8.4,0,0,0,145,197a5.78,5.78,0,0,0,4.84,2.15,7.26,7.26,0,0,0,2.27-.34,8.05,8.05,0,0,0,1.62-.69,4.82,4.82,0,0,0,1.2-1.13,12.47,12.47,0,0,0,.77-1Q155.85,195.68,156.26,194.91Zm-12.89-5.8h12.77a7.86,7.86,0,0,0-1.62-4.7,6.5,6.5,0,0,0-9.48.14A7.6,7.6,0,0,0,143.37,189.12Z" transform="translate(-11.3 -13.85)"/><path d="M163.07,194.22l3.12-.61q.61,5.63,6,5.63a6.48,6.48,0,0,0,3.83-.93,2.92,2.92,0,0,0,1.28-2.47,2.75,2.75,0,0,0-1.2-2.43,19.83,19.83,0,0,0-5-1.86,15.16,15.16,0,0,1-5.59-2.47,4.64,4.64,0,0,1-1.62-3.73,5.39,5.39,0,0,1,2-4.15,8,8,0,0,1,5.47-1.76,8.61,8.61,0,0,1,5.59,1.68,8.09,8.09,0,0,1,2.76,4.48l-2.88.77a5.26,5.26,0,0,0-5.47-4.09,5.14,5.14,0,0,0-3.24.89,2.62,2.62,0,0,0-1.13,2.11,2.15,2.15,0,0,0,1.09,2,27,27,0,0,0,5,1.78q4.17,1.18,5.74,2.69a5.62,5.62,0,0,1,1.6,4.11,5.79,5.79,0,0,1-2,4.42q-2,1.87-6.14,1.86-4.26,0-6.5-2.21A9,9,0,0,1,163.07,194.22Z" transform="translate(-11.3 -13.85)"/><path d="M199.51,210.64V199.45h-.08a7.17,7.17,0,0,1-6,2.68,8.43,8.43,0,0,1-6.77-3.08,12.42,12.42,0,0,1-2.59-8.27,12.13,12.13,0,0,1,2.7-8.25,8.53,8.53,0,0,1,6.71-3.1,8.14,8.14,0,0,1,3.69.81,7.34,7.34,0,0,1,2.47,1.86h.08V180h3.12v30.6Zm0-16.17v-6.81a5.16,5.16,0,0,0-1.52-3.61,5.27,5.27,0,0,0-4-1.62,5.83,5.83,0,0,0-4.88,2.21,11.9,11.9,0,0,0,0,12.3,5.84,5.84,0,0,0,4.91,2.19,5.78,5.78,0,0,0,4-1.4A4.24,4.24,0,0,0,199.51,194.47Z" transform="translate(-11.3 -13.85)"/><path d="M209.28,194V180h3.32v13.5q0,3,1.16,4.26a5,5,0,0,0,3.83,1.26,4.66,4.66,0,0,0,3.73-1.5,6.18,6.18,0,0,0,1.3-4.17V180h3.28v21.48h-3.24v-2.07h-.08a8.91,8.91,0,0,1-.61.73,7.38,7.38,0,0,1-1.89,1.2,7,7,0,0,1-3.22.75,7.49,7.49,0,0,1-5.57-2Q209.27,198.07,209.28,194Z" transform="translate(-11.3 -13.85)"/><path d="M247.46,194.91l2.68,1.74a10.69,10.69,0,0,1-3.47,3.91,9.48,9.48,0,0,1-5.53,1.56A9.23,9.23,0,0,1,234,199a11.85,11.85,0,0,1-2.8-8.25,12,12,0,0,1,2.74-8.25,9,9,0,0,1,7.07-3.1,8.85,8.85,0,0,1,7,3q2.68,3,2.68,8.31v1H234.49a8.4,8.4,0,0,0,1.72,5.23,5.78,5.78,0,0,0,4.84,2.15,7.26,7.26,0,0,0,2.27-.34,8.05,8.05,0,0,0,1.62-.69,4.82,4.82,0,0,0,1.2-1.13,12.47,12.47,0,0,0,.77-1Q247.05,195.68,247.46,194.91Zm-12.89-5.8h12.77a7.86,7.86,0,0,0-1.62-4.7,6.5,6.5,0,0,0-9.48.14A7.6,7.6,0,0,0,234.57,189.12Z" transform="translate(-11.3 -13.85)"/><path d="M265.82,201.52V171.93h3.36v29.59Z" transform="translate(-11.3 -13.85)"/><path d="M288.36,201.52v-2.35h-.08a5.91,5.91,0,0,1-2.31,2,8.63,8.63,0,0,1-4.26,1,7.6,7.6,0,0,1-5.41-1.74,5.77,5.77,0,0,1-1.85-4.38,5.44,5.44,0,0,1,1.64-4.19,13.18,13.18,0,0,1,5.57-2.53q1.46-.36,2.17-.57t1.64-.55a5,5,0,0,0,1.34-.67,3.19,3.19,0,0,0,.71-.81,2,2,0,0,0,.3-1.1,2.84,2.84,0,0,0-1.11-2.29,5.28,5.28,0,0,0-3.39-.91,4.87,4.87,0,0,0-5.23,4.26l-3-.85a7.61,7.61,0,0,1,2.63-4.6,8.24,8.24,0,0,1,5.47-1.76,8.81,8.81,0,0,1,5.9,1.84q2.17,1.85,2.17,5.78v14.47Zm-5.92-9.69a9.94,9.94,0,0,0-3.75,1.66,3,3,0,0,0-1,2.31q0,3.36,4.26,3.36a6.84,6.84,0,0,0,4.5-1.32,4,4,0,0,0,1.58-3.22v-5.35H288Q287.38,190.46,282.44,191.83Z" transform="translate(-11.3 -13.85)"/><path d="M305.91,202.13a9.1,9.1,0,0,1-7-3q-2.76-3-2.76-8.35t2.84-8.31a9.12,9.12,0,0,1,6.93-3,8.89,8.89,0,0,1,6.83,3q2.78,3,2.78,8.31t-2.72,8.35A8.89,8.89,0,0,1,305.91,202.13Zm0-3a5.6,5.6,0,0,0,4.52-2.21,11.41,11.41,0,0,0,0-12.28,5.59,5.59,0,0,0-4.54-2.21,5.82,5.82,0,0,0-4.66,2.17,11.39,11.39,0,0,0,0,12.36A5.82,5.82,0,0,0,305.91,199.13Z" transform="translate(-11.3 -13.85)"/><path d="M320.78,201.52V180h3.16v2.31H324a4.51,4.51,0,0,1,1.9-2,5.26,5.26,0,0,1,2.55-.69,4.5,4.5,0,0,1,1,.1c.31.07.55.13.71.18l.2.12-.61,3.28A3.67,3.67,0,0,0,328,183a3.38,3.38,0,0,0-3,1.36,7.88,7.88,0,0,0-.93,4.36v12.77Z" transform="translate(-11.3 -13.85)"/><path d="M349.68,194.91l2.68,1.74a10.69,10.69,0,0,1-3.47,3.91,9.48,9.48,0,0,1-5.53,1.56,9.23,9.23,0,0,1-7.17-3.1,11.85,11.85,0,0,1-2.8-8.25,12,12,0,0,1,2.74-8.25,9,9,0,0,1,7.07-3.1,8.85,8.85,0,0,1,7,3q2.68,3,2.68,8.31v1H336.71a8.4,8.4,0,0,0,1.72,5.23,5.78,5.78,0,0,0,4.84,2.15,7.26,7.26,0,0,0,2.27-.34,8.05,8.05,0,0,0,1.62-.69,4.82,4.82,0,0,0,1.2-1.13,12.47,12.47,0,0,0,.77-1Q349.28,195.68,349.68,194.91Zm-12.89-5.8h12.77a7.86,7.86,0,0,0-1.62-4.7,6.5,6.5,0,0,0-9.48.14A7.6,7.6,0,0,0,336.79,189.12Z" transform="translate(-11.3 -13.85)"/><path d="M373,194.91l2.68,1.74a10.69,10.69,0,0,1-3.47,3.91,9.48,9.48,0,0,1-5.53,1.56,9.23,9.23,0,0,1-7.17-3.1,11.85,11.85,0,0,1-2.8-8.25,12,12,0,0,1,2.74-8.25,9,9,0,0,1,7.07-3.1,8.85,8.85,0,0,1,7,3q2.68,3,2.68,8.31v1H360a8.4,8.4,0,0,0,1.72,5.23,5.78,5.78,0,0,0,4.84,2.15,7.26,7.26,0,0,0,2.27-.34,8.05,8.05,0,0,0,1.62-.69,4.82,4.82,0,0,0,1.2-1.13,12.47,12.47,0,0,0,.77-1Q372.58,195.68,373,194.91Zm-12.89-5.8h12.77a7.86,7.86,0,0,0-1.62-4.7,6.5,6.5,0,0,0-9.48.14A7.6,7.6,0,0,0,360.1,189.12Z" transform="translate(-11.3 -13.85)"/><path d="M382.19,195.28V183h-3v-3h3.08v-5.27h3.16V180h5.31v3h-5.27v11.88a5,5,0,0,0,.53,2.68,2.4,2.4,0,0,0,2.11.77h1.62v3.2h-1.78q-3,0-4.4-1.56A7,7,0,0,1,382.19,195.28Z" transform="translate(-11.3 -13.85)"/><path d="M404.12,194.22l3.12-.61q.61,5.63,6,5.63a6.48,6.48,0,0,0,3.83-.93,2.92,2.92,0,0,0,1.28-2.47,2.75,2.75,0,0,0-1.2-2.43,19.83,19.83,0,0,0-5-1.86,15.16,15.16,0,0,1-5.59-2.47,4.64,4.64,0,0,1-1.62-3.73,5.39,5.39,0,0,1,2-4.15,8,8,0,0,1,5.47-1.76,8.61,8.61,0,0,1,5.59,1.68,8.09,8.09,0,0,1,2.76,4.48l-2.88.77a5.26,5.26,0,0,0-5.47-4.09,5.14,5.14,0,0,0-3.24.89,2.62,2.62,0,0,0-1.13,2.11,2.15,2.15,0,0,0,1.09,2,27,27,0,0,0,5,1.78q4.17,1.18,5.74,2.69a5.62,5.62,0,0,1,1.6,4.11,5.79,5.79,0,0,1-2,4.42q-2,1.87-6.14,1.86-4.26,0-6.5-2.21A9,9,0,0,1,404.12,194.22Z" transform="translate(-11.3 -13.85)"/><path d="M434.84,202.13a9.1,9.1,0,0,1-7-3q-2.76-3-2.76-8.35t2.84-8.31a9.12,9.12,0,0,1,6.93-3,8.89,8.89,0,0,1,6.83,3q2.78,3,2.78,8.31t-2.72,8.35A8.89,8.89,0,0,1,434.84,202.13Zm0-3a5.6,5.6,0,0,0,4.52-2.21,11.41,11.41,0,0,0,0-12.28,5.59,5.59,0,0,0-4.54-2.21,5.82,5.82,0,0,0-4.66,2.17,11.39,11.39,0,0,0,0,12.36A5.82,5.82,0,0,0,434.84,199.13Z" transform="translate(-11.3 -13.85)"/><path d="M449.72,201.52V171.93h3.36v29.59Z" transform="translate(-11.3 -13.85)"/><path d="M459.77,201.52V171.93h3.36v29.59Z" transform="translate(-11.3 -13.85)"/><path d="M469.82,175.7v-3.77h3.81v3.77Zm.24,25.82V180h3.32v21.48Z" transform="translate(-11.3 -13.85)"/><path d="M494.42,193.29l3.2.65a9.6,9.6,0,0,1-3,6,8.55,8.55,0,0,1-6,2.23,9,9,0,0,1-7.05-3q-2.72-3-2.72-8.33a11.82,11.82,0,0,1,2.8-8.29,9.06,9.06,0,0,1,7-3.06,8.4,8.4,0,0,1,5.86,2.19,9.28,9.28,0,0,1,2.94,5.67l-3.12.65a8.37,8.37,0,0,0-1.86-4,4.83,4.83,0,0,0-3.81-1.56,5.75,5.75,0,0,0-4.7,2.21,9.52,9.52,0,0,0-1.78,6.14,9.7,9.7,0,0,0,1.74,6.12,5.74,5.74,0,0,0,4.78,2.23,4.92,4.92,0,0,0,3.89-1.72A7.69,7.69,0,0,0,494.42,193.29Z" transform="translate(-11.3 -13.85)"/><path d="M502.69,175.7v-3.77h3.81v3.77Zm.24,25.82V180h3.32v21.48Z" transform="translate(-11.3 -13.85)"/><path d="M514,195.28V183h-3v-3H514v-5.27h3.16V180h5.31v3h-5.27v11.88a5,5,0,0,0,.53,2.68,2.4,2.4,0,0,0,2.11.77h1.62v3.2h-1.78q-3,0-4.4-1.56A7,7,0,0,1,514,195.28Z" transform="translate(-11.3 -13.85)"/><path d="M527.38,194V180h3.32v13.5q0,3,1.16,4.26a5,5,0,0,0,3.83,1.26,4.66,4.66,0,0,0,3.73-1.5,6.18,6.18,0,0,0,1.3-4.17V180H544v21.48h-3.24v-2.07h-.08a8.91,8.91,0,0,1-.61.73,7.38,7.38,0,0,1-1.89,1.2,7,7,0,0,1-3.22.75,7.49,7.49,0,0,1-5.57-2Q527.38,198.07,527.38,194Z" transform="translate(-11.3 -13.85)"/><path d="M565,201.52v-2.07h-.08a7.8,7.8,0,0,1-2.49,1.84A9,9,0,0,1,551.8,199a12.62,12.62,0,0,1-2.53-8.27,12.25,12.25,0,0,1,2.66-8.25,8.41,8.41,0,0,1,6.67-3.1,7.43,7.43,0,0,1,6,2.68h.08V171.93H568v29.59Zm-.32-7.13v-6.65a5.31,5.31,0,0,0-1.5-3.67,5.17,5.17,0,0,0-4-1.64,5.73,5.73,0,0,0-4.86,2.19,12.25,12.25,0,0,0,0,12.32,5.73,5.73,0,0,0,4.86,2.19,5.67,5.67,0,0,0,3.93-1.42A4.34,4.34,0,0,0,564.63,194.39Z" transform="translate(-11.3 -13.85)"/><path d="M574.64,175.7v-3.77h3.81v3.77Zm.24,25.82V180h3.33v21.48Z" transform="translate(-11.3 -13.85)"/><path d="M585.14,201.52V180h3.24v2.07h.08a6.45,6.45,0,0,1,2.55-1.93,8.4,8.4,0,0,1,3.49-.75,7.55,7.55,0,0,1,5.61,2.15,7.93,7.93,0,0,1,2.13,5.84v14.11H599V188.47q0-6-4.95-6a5.67,5.67,0,0,0-4,1.42,5.12,5.12,0,0,0-1.52,3.93v13.7Z" transform="translate(-11.3 -13.85)"/><path d="M609.13,205.82V204a2.22,2.22,0,0,0,1.95-2.47h-1.95v-4.78h4.78v4.17Q613.92,205.49,609.13,205.82Z" transform="translate(-11.3 -13.85)"/><path d="M11.84,246.92l3.12-.61q.61,5.63,6,5.63a6.48,6.48,0,0,0,3.83-.93A2.92,2.92,0,0,0,26,248.54a2.75,2.75,0,0,0-1.2-2.43,19.83,19.83,0,0,0-5-1.86,15.16,15.16,0,0,1-5.59-2.47A4.64,4.64,0,0,1,12.61,238a5.39,5.39,0,0,1,2-4.15,8,8,0,0,1,5.47-1.76,8.61,8.61,0,0,1,5.59,1.68,8.09,8.09,0,0,1,2.76,4.48l-2.88.77A5.26,5.26,0,0,0,20.07,235a5.14,5.14,0,0,0-3.24.89A2.62,2.62,0,0,0,15.69,238a2.15,2.15,0,0,0,1.09,2,27,27,0,0,0,5,1.78q4.17,1.18,5.74,2.69a5.62,5.62,0,0,1,1.6,4.11,5.79,5.79,0,0,1-2,4.42q-2,1.87-6.14,1.86-4.26,0-6.5-2.21A9,9,0,0,1,11.84,246.92Z" transform="translate(-11.3 -13.85)"/><path d="M34.21,228.39v-3.77H38v3.77Zm.24,25.82V232.73h3.32v21.48Z" transform="translate(-11.3 -13.85)"/><path d="M45.48,248V235.69h-3v-3h3.08v-5.27h3.16v5.27H54v3H48.77v11.88a5,5,0,0,0,.53,2.68,2.4,2.4,0,0,0,2.11.77H53v3.2H51.24q-3,0-4.4-1.56A7,7,0,0,1,45.48,248Z" transform="translate(-11.3 -13.85)"/><path d="M81.52,254.21v-2.35h-.08a5.91,5.91,0,0,1-2.31,2,8.63,8.63,0,0,1-4.26,1,7.6,7.6,0,0,1-5.41-1.74,5.77,5.77,0,0,1-1.85-4.38,5.44,5.44,0,0,1,1.64-4.19A13.18,13.18,0,0,1,74.83,242q1.46-.36,2.17-.57t1.64-.55a5,5,0,0,0,1.34-.67,3.19,3.19,0,0,0,.71-.81,2,2,0,0,0,.3-1.1A2.84,2.84,0,0,0,79.88,236a5.28,5.28,0,0,0-3.39-.91,4.87,4.87,0,0,0-5.23,4.26l-3-.85a7.61,7.61,0,0,1,2.63-4.6,8.24,8.24,0,0,1,5.47-1.76,8.81,8.81,0,0,1,5.9,1.84q2.17,1.85,2.17,5.78v14.47Zm-5.92-9.69a9.94,9.94,0,0,0-3.75,1.66,3,3,0,0,0-1,2.31q0,3.36,4.26,3.36a6.84,6.84,0,0,0,4.5-1.32,4,4,0,0,0,1.58-3.22V242h-.08Q80.54,243.15,75.6,244.53Z" transform="translate(-11.3 -13.85)"/><path d="M90.72,254.21V232.73h3v2.07h.08a5.66,5.66,0,0,1,2.27-1.93,7.08,7.08,0,0,1,3.2-.75,6.34,6.34,0,0,1,3.47.91,6.51,6.51,0,0,1,2.21,2.25H105a6.43,6.43,0,0,1,2.37-2.23,7.16,7.16,0,0,1,3.67-.93,6.92,6.92,0,0,1,7.42,7.46v14.63h-3.2V240.59q0-5.43-4.38-5.43a4.45,4.45,0,0,0-3.47,1.36,5.42,5.42,0,0,0-1.24,3.79v13.9H103V240.59q0-5.43-4.38-5.43a4.17,4.17,0,0,0-3.49,1.44A5.8,5.8,0,0,0,94,240.31v13.9Z" transform="translate(-11.3 -13.85)"/><path d="M139.84,247.61l2.68,1.74a10.69,10.69,0,0,1-3.47,3.91,9.48,9.48,0,0,1-5.53,1.56,9.23,9.23,0,0,1-7.17-3.1,11.85,11.85,0,0,1-2.8-8.25,12,12,0,0,1,2.74-8.25,9,9,0,0,1,7.07-3.1,8.85,8.85,0,0,1,7,3q2.68,3,2.68,8.31v1H126.87a8.4,8.4,0,0,0,1.72,5.23,5.78,5.78,0,0,0,4.84,2.15,7.26,7.26,0,0,0,2.27-.34,8.05,8.05,0,0,0,1.62-.69,4.82,4.82,0,0,0,1.2-1.13,12.47,12.47,0,0,0,.77-1Q139.44,248.38,139.84,247.61ZM127,241.81h12.77a7.86,7.86,0,0,0-1.62-4.7,6.5,6.5,0,0,0-9.48.14A7.6,7.6,0,0,0,127,241.81Z" transform="translate(-11.3 -13.85)"/><path d="M149,248V235.69h-3v-3h3.08v-5.27h3.16v5.27h5.31v3h-5.27v11.88a5,5,0,0,0,.53,2.68A2.4,2.4,0,0,0,155,251h1.62v3.2H154.8q-3,0-4.4-1.56A7,7,0,0,1,149,248Z" transform="translate(-11.3 -13.85)"/><path d="M173.36,248V235.69h-3v-3h3.08v-5.27h3.16v5.27h5.31v3h-5.27v11.88a5,5,0,0,0,.53,2.68,2.4,2.4,0,0,0,2.11.77h1.62v3.2h-1.78q-3,0-4.4-1.56A7,7,0,0,1,173.36,248Z" transform="translate(-11.3 -13.85)"/><path d="M194.52,254.82a9.1,9.1,0,0,1-7-3q-2.76-3-2.76-8.35t2.84-8.31a9.12,9.12,0,0,1,6.93-3,8.89,8.89,0,0,1,6.83,3q2.78,3,2.78,8.31t-2.72,8.35A8.89,8.89,0,0,1,194.52,254.82Zm0-3a5.6,5.6,0,0,0,4.52-2.21,11.41,11.41,0,0,0,0-12.28,5.59,5.59,0,0,0-4.54-2.21,5.82,5.82,0,0,0-4.66,2.17,11.39,11.39,0,0,0,0,12.36A5.82,5.82,0,0,0,194.52,251.82Z" transform="translate(-11.3 -13.85)"/><path d="M209.4,254.21V232.73h3.16V235h.08a4.51,4.51,0,0,1,1.9-2,5.26,5.26,0,0,1,2.55-.69,4.5,4.5,0,0,1,1,.1c.31.07.55.13.71.18l.2.12-.61,3.28a3.67,3.67,0,0,0-1.7-.32,3.38,3.38,0,0,0-3,1.36,7.88,7.88,0,0,0-.93,4.36v12.77Z" transform="translate(-11.3 -13.85)"/><path d="M224.6,248V235.69h-3v-3h3.08v-5.27h3.16v5.27h5.31v3h-5.27v11.88a5,5,0,0,0,.53,2.68,2.4,2.4,0,0,0,2.11.77h1.62v3.2h-1.78q-3,0-4.4-1.56A7,7,0,0,1,224.6,248Z" transform="translate(-11.3 -13.85)"/><path d="M245.75,254.82a9.1,9.1,0,0,1-7-3q-2.76-3-2.76-8.35t2.84-8.31a9.12,9.12,0,0,1,6.93-3,8.89,8.89,0,0,1,6.83,3q2.78,3,2.78,8.31t-2.72,8.35A8.89,8.89,0,0,1,245.75,254.82Zm0-3a5.6,5.6,0,0,0,4.52-2.21,11.41,11.41,0,0,0,0-12.28,5.59,5.59,0,0,0-4.54-2.21,5.82,5.82,0,0,0-4.66,2.17,11.39,11.39,0,0,0,0,12.36A5.82,5.82,0,0,0,245.75,251.82Z" transform="translate(-11.3 -13.85)"/><path d="M260.63,254.21V232.73h3.16V235h.08a4.51,4.51,0,0,1,1.9-2,5.26,5.26,0,0,1,2.55-.69,4.5,4.5,0,0,1,1,.1c.31.07.55.13.71.18l.2.12-.61,3.28a3.67,3.67,0,0,0-1.7-.32,3.38,3.38,0,0,0-3,1.36,7.88,7.88,0,0,0-.93,4.36v12.77Z" transform="translate(-11.3 -13.85)"/><path d="M271.82,254.21v-4.78h4.78v4.78Z" transform="translate(-11.3 -13.85)"/><path d="M290.38,254.21V225.84h8.88a12.32,12.32,0,0,1,4.58.85,12,12,0,0,1,3.89,2.51,11.62,11.62,0,0,1,2.78,4.44,18.09,18.09,0,0,1,1,6.34,19.7,19.7,0,0,1-1.05,6.77,10.4,10.4,0,0,1-2.88,4.44,12.07,12.07,0,0,1-4,2.29,14.2,14.2,0,0,1-4.64.73Zm3.36-3.08h5q9.24,0,9.24-11.15,0-5.35-2.41-8.21a8.17,8.17,0,0,0-6.59-2.86h-5.23Z" transform="translate(-11.3 -13.85)"/><path d="M316.61,246.71v-14h3.32v13.5q0,3,1.16,4.26a5,5,0,0,0,3.83,1.26,4.66,4.66,0,0,0,3.73-1.5,6.18,6.18,0,0,0,1.3-4.17V232.73h3.28v21.48H330v-2.07h-.08a8.91,8.91,0,0,1-.61.73,7.38,7.38,0,0,1-1.89,1.2,7,7,0,0,1-3.22.75,7.49,7.49,0,0,1-5.57-2Q316.61,250.77,316.61,246.71Z" transform="translate(-11.3 -13.85)"/><path d="M339.91,228.39v-3.77h3.81v3.77Zm.24,25.82V232.73h3.32v21.48Z" transform="translate(-11.3 -13.85)"/><path d="M348.79,246.92l3.12-.61q.61,5.63,6,5.63a6.48,6.48,0,0,0,3.83-.93,2.92,2.92,0,0,0,1.28-2.47,2.75,2.75,0,0,0-1.2-2.43,19.83,19.83,0,0,0-5-1.86,15.16,15.16,0,0,1-5.59-2.47,4.64,4.64,0,0,1-1.62-3.73,5.39,5.39,0,0,1,2-4.15,8,8,0,0,1,5.47-1.76,8.61,8.61,0,0,1,5.59,1.68,8.09,8.09,0,0,1,2.76,4.48l-2.88.77A5.26,5.26,0,0,0,357,235a5.14,5.14,0,0,0-3.24.89,2.62,2.62,0,0,0-1.13,2.11,2.15,2.15,0,0,0,1.09,2,27,27,0,0,0,5,1.78q4.17,1.18,5.74,2.69a5.62,5.62,0,0,1,1.6,4.11,5.79,5.79,0,0,1-2,4.42q-2,1.87-6.14,1.86-4.26,0-6.5-2.21A9,9,0,0,1,348.79,246.92Z" transform="translate(-11.3 -13.85)"/><path d="M381.1,263.33v-30.6h3.16v2.07h.08a7.36,7.36,0,0,1,2.43-1.84,8.06,8.06,0,0,1,3.73-.83,8.47,8.47,0,0,1,6.69,3.1,12.19,12.19,0,0,1,2.68,8.25,12.42,12.42,0,0,1-2.59,8.27,8.43,8.43,0,0,1-6.77,3.08,7.89,7.89,0,0,1-3.65-.85,6.39,6.39,0,0,1-2.35-1.82h-.08v11.19Zm3.32-23v6.81a4.24,4.24,0,0,0,1.58,3.26,5.72,5.72,0,0,0,3.93,1.4,5.9,5.9,0,0,0,4.92-2.19,11.79,11.79,0,0,0,0-12.3,5.89,5.89,0,0,0-4.9-2.21,5.22,5.22,0,0,0-4,1.62A5.16,5.16,0,0,0,384.42,240.35Z" transform="translate(-11.3 -13.85)"/><path d="M413.48,254.82a9.1,9.1,0,0,1-7-3q-2.76-3-2.76-8.35t2.84-8.31a9.12,9.12,0,0,1,6.93-3,8.89,8.89,0,0,1,6.83,3q2.78,3,2.78,8.31t-2.72,8.35A8.89,8.89,0,0,1,413.48,254.82Zm0-3a5.6,5.6,0,0,0,4.52-2.21,11.41,11.41,0,0,0,0-12.28,5.59,5.59,0,0,0-4.54-2.21,5.82,5.82,0,0,0-4.66,2.17,11.39,11.39,0,0,0,0,12.36A5.82,5.82,0,0,0,413.48,251.82Z" transform="translate(-11.3 -13.85)"/><path d="M428.36,254.21V232.73h3.16V235h.08a4.51,4.51,0,0,1,1.9-2,5.26,5.26,0,0,1,2.55-.69,4.5,4.5,0,0,1,1,.1c.31.07.55.13.71.18l.2.12-.61,3.28a3.67,3.67,0,0,0-1.7-.32,3.38,3.38,0,0,0-3,1.36,7.88,7.88,0,0,0-.93,4.36v12.77Z" transform="translate(-11.3 -13.85)"/><path d="M443.56,248V235.69h-3v-3h3.08v-5.27h3.16v5.27h5.31v3h-5.27v11.88a5,5,0,0,0,.53,2.68,2.4,2.4,0,0,0,2.11.77h1.62v3.2h-1.78q-3,0-4.4-1.56A7,7,0,0,1,443.56,248Z" transform="translate(-11.3 -13.85)"/><path d="M469.25,254.21v-2.35h-.08a5.91,5.91,0,0,1-2.31,2,8.63,8.63,0,0,1-4.26,1,7.6,7.6,0,0,1-5.41-1.74,5.77,5.77,0,0,1-1.85-4.38,5.44,5.44,0,0,1,1.64-4.19,13.18,13.18,0,0,1,5.57-2.53q1.46-.36,2.17-.57t1.64-.55a5,5,0,0,0,1.34-.67,3.19,3.19,0,0,0,.71-.81,2,2,0,0,0,.3-1.1,2.84,2.84,0,0,0-1.11-2.29,5.28,5.28,0,0,0-3.39-.91,4.87,4.87,0,0,0-5.23,4.26l-3-.85a7.61,7.61,0,0,1,2.63-4.6,8.24,8.24,0,0,1,5.47-1.76A8.81,8.81,0,0,1,470,234q2.17,1.85,2.17,5.78v14.47Zm-5.92-9.69a9.94,9.94,0,0,0-3.75,1.66,3,3,0,0,0-1,2.31q0,3.36,4.26,3.36a6.84,6.84,0,0,0,4.5-1.32,4,4,0,0,0,1.58-3.22V242h-.08Q468.28,243.15,463.34,244.53Z" transform="translate(-11.3 -13.85)"/><path d="M489.16,254.21V235.69h-3v-3h3v-3.28q0-2.71,1.22-3.77a5.16,5.16,0,0,1,3.49-1.05h3.44v3h-2.84a2.21,2.21,0,0,0-1.68.49,3.3,3.3,0,0,0-.43,2v2.63h5.31v3h-5.27v18.52Z" transform="translate(-11.3 -13.85)"/><path d="M514,254.21v-2.35H514a5.91,5.91,0,0,1-2.31,2,8.63,8.63,0,0,1-4.26,1,7.6,7.6,0,0,1-5.41-1.74,5.77,5.77,0,0,1-1.85-4.38,5.44,5.44,0,0,1,1.64-4.19,13.18,13.18,0,0,1,5.57-2.53q1.46-.36,2.17-.57t1.64-.55a5,5,0,0,0,1.34-.67,3.19,3.19,0,0,0,.71-.81,2,2,0,0,0,.3-1.1A2.84,2.84,0,0,0,512.4,236a5.28,5.28,0,0,0-3.39-.91,4.87,4.87,0,0,0-5.23,4.26l-3-.85a7.61,7.61,0,0,1,2.63-4.6,8.24,8.24,0,0,1,5.47-1.76,8.81,8.81,0,0,1,5.9,1.84q2.17,1.85,2.17,5.78v14.47Zm-5.92-9.69a9.94,9.94,0,0,0-3.75,1.66,3,3,0,0,0-1,2.31q0,3.36,4.26,3.36a6.84,6.84,0,0,0,4.5-1.32,4,4,0,0,0,1.58-3.22V242h-.08Q513.07,243.15,508.12,244.53Z" transform="translate(-11.3 -13.85)"/><path d="M537.35,246l3.2.65a9.6,9.6,0,0,1-3,6,8.55,8.55,0,0,1-6,2.23,9,9,0,0,1-7.05-3q-2.72-3-2.72-8.33a11.82,11.82,0,0,1,2.8-8.29,9.06,9.06,0,0,1,7-3.06,8.4,8.4,0,0,1,5.86,2.19,9.28,9.28,0,0,1,2.94,5.67l-3.12.65a8.37,8.37,0,0,0-1.86-4,4.83,4.83,0,0,0-3.81-1.56,5.75,5.75,0,0,0-4.7,2.21,9.52,9.52,0,0,0-1.78,6.14,9.7,9.7,0,0,0,1.74,6.12,5.74,5.74,0,0,0,4.78,2.23,4.92,4.92,0,0,0,3.89-1.72A7.69,7.69,0,0,0,537.35,246Z" transform="translate(-11.3 -13.85)"/><path d="M545.62,228.39v-3.77h3.81v3.77Zm.24,25.82V232.73h3.32v21.48Z" transform="translate(-11.3 -13.85)"/><path d="M556.12,254.21V224.62h3.36v29.59Z" transform="translate(-11.3 -13.85)"/><path d="M566.17,228.39v-3.77H570v3.77Zm.24,25.82V232.73h3.33v21.48Z" transform="translate(-11.3 -13.85)"/><path d="M575,246.92l3.12-.61q.61,5.63,6,5.63A6.49,6.49,0,0,0,588,251a2.92,2.92,0,0,0,1.28-2.47,2.75,2.75,0,0,0-1.2-2.43,19.87,19.87,0,0,0-5-1.86,15.15,15.15,0,0,1-5.59-2.47,4.64,4.64,0,0,1-1.62-3.73,5.39,5.39,0,0,1,2-4.15,8,8,0,0,1,5.47-1.76,8.61,8.61,0,0,1,5.59,1.68,8.09,8.09,0,0,1,2.76,4.48l-2.88.77a5.25,5.25,0,0,0-5.47-4.09,5.14,5.14,0,0,0-3.24.89,2.62,2.62,0,0,0-1.14,2.11,2.15,2.15,0,0,0,1.1,2,27.05,27.05,0,0,0,5,1.78q4.17,1.18,5.74,2.69a5.61,5.61,0,0,1,1.6,4.11,5.79,5.79,0,0,1-2,4.42q-2,1.87-6.14,1.86-4.26,0-6.51-2.21A9,9,0,0,1,575,246.92Z" transform="translate(-11.3 -13.85)"/><path d="M597.42,228.39v-3.77h3.81v3.77Zm.24,25.82V232.73H601v21.48Z" transform="translate(-11.3 -13.85)"/><path d="M606.29,246.92l3.12-.61q.61,5.63,6,5.63a6.49,6.49,0,0,0,3.83-.93,2.92,2.92,0,0,0,1.28-2.47,2.75,2.75,0,0,0-1.2-2.43,19.87,19.87,0,0,0-5-1.86,15.15,15.15,0,0,1-5.59-2.47,4.64,4.64,0,0,1-1.62-3.73,5.39,5.39,0,0,1,2-4.15,8,8,0,0,1,5.47-1.76,8.61,8.61,0,0,1,5.59,1.68,8.09,8.09,0,0,1,2.76,4.48l-2.88.77a5.25,5.25,0,0,0-5.47-4.09,5.14,5.14,0,0,0-3.24.89,2.62,2.62,0,0,0-1.14,2.11,2.15,2.15,0,0,0,1.1,2,27.05,27.05,0,0,0,5,1.78q4.17,1.18,5.74,2.69a5.61,5.61,0,0,1,1.6,4.11,5.79,5.79,0,0,1-2,4.42q-2,1.87-6.14,1.86-4.26,0-6.51-2.21A9,9,0,0,1,606.29,246.92Z" transform="translate(-11.3 -13.85)"/><path d="M628.67,254.21v-4.78h4.78v4.78Z" transform="translate(-11.3 -13.85)"/><line class="cls-1" y1="29.59" x2="635.4" y2="29.59"/><line class="cls-1" y1="52.69" x2="635.4" y2="52.69"/><line class="cls-1" y1="82.28" x2="635.4" y2="82.28"/><line class="cls-1" y1="105.39" x2="635.4" y2="105.39"/><line class="cls-1" y1="134.98" x2="635.4" y2="134.98"/><line class="cls-1" y1="158.08" x2="635.4" y2="158.08"/><line class="cls-1" y1="187.67" x2="635.4" y2="187.67"/><line class="cls-1" y1="210.77" x2="635.4" y2="210.77"/><line class="cls-1" x1="626.06" y1="31.28" x2="626.06" y2="51.02"/><polygon class="cls-2" points="621.97 34.6 622.7 35.28 626.05 31.67 629.41 35.28 630.14 34.6 626.05 30.2 621.97 34.6"/><polygon class="cls-2" points="621.97 47.71 622.7 47.03 626.05 50.64 629.41 47.03 630.14 47.71 626.05 52.11 621.97 47.71"/></svg>