<svg id="Layer_1" data-name="Layer 1" xmlns="http://www.w3.org/2000/svg" viewBox="0 0 454.16 244.41"><defs><style>.cls-1{fill:none;stroke:#32baf2;stroke-miterlimit:10;}</style></defs><title>maison_typescale</title><line class="cls-1" y1="26.03" x2="454.16" y2="26.03"/><line class="cls-1" x1="115.33" y1="9.38" x2="454.16" y2="9.38"/><line class="cls-1" x1="115.33" y1="63.66" x2="454.16" y2="63.66"/><line class="cls-1" x1="115.33" y1="130.46" x2="454.16" y2="130.46"/><line class="cls-1" x1="115.33" y1="209.79" x2="454.16" y2="209.79"/><line class="cls-1" y1="84.48" x2="454.16" y2="84.48"/><line class="cls-1" y1="155.43" x2="454.16" y2="155.43"/><line class="cls-1" y1="239.01" x2="454.16" y2="239.01"/><path d="M175.85,23.23v-9h1.07v8h3.91v1Z" transform="translate(-11.84 -13.85)"/><path d="M184.88,23.42a2.89,2.89,0,0,1-2.22-1,3.76,3.76,0,0,1-.87-2.65,3.7,3.7,0,0,1,.9-2.63,2.89,2.89,0,0,1,2.2-1,2.81,2.81,0,0,1,2.16,1,3.76,3.76,0,0,1,.88,2.63,3.8,3.8,0,0,1-.86,2.65A2.82,2.82,0,0,1,184.88,23.42Zm0-1a1.78,1.78,0,0,0,1.43-.7,3,3,0,0,0,.57-1.95,3,3,0,0,0-.57-1.95,1.77,1.77,0,0,0-1.44-.7,1.84,1.84,0,0,0-1.48.69,3,3,0,0,0-.58,2,3,3,0,0,0,.58,2A1.84,1.84,0,0,0,184.88,22.47Z" transform="translate(-11.84 -13.85)"/><path d="M189.59,23.23V16.42h1v.73h0a1.43,1.43,0,0,1,.6-.63,1.67,1.67,0,0,1,.81-.22,1.44,1.44,0,0,1,.3,0l.22.06.06,0-.19,1a1.17,1.17,0,0,0-.54-.1,1.07,1.07,0,0,0-1,.43,2.5,2.5,0,0,0-.3,1.38v4Z" transform="translate(-11.84 -13.85)"/><path d="M198.75,21.13l.85.55a3.38,3.38,0,0,1-1.1,1.24,3,3,0,0,1-1.75.49,2.92,2.92,0,0,1-2.27-1,3.75,3.75,0,0,1-.89-2.61,3.81,3.81,0,0,1,.87-2.61,2.85,2.85,0,0,1,2.24-1,2.8,2.8,0,0,1,2.21,1,3.85,3.85,0,0,1,.85,2.63v.31h-5.11a2.66,2.66,0,0,0,.55,1.66,1.83,1.83,0,0,0,1.54.68,2.29,2.29,0,0,0,.72-.11,2.61,2.61,0,0,0,.51-.22,1.52,1.52,0,0,0,.38-.36,3.77,3.77,0,0,0,.24-.33Zm-4.09-1.84h4a2.49,2.49,0,0,0-.51-1.49,2.06,2.06,0,0,0-3,0A2.41,2.41,0,0,0,194.67,19.3Z" transform="translate(-11.84 -13.85)"/><path d="M201.43,23.23V16.42h1v.66h0a1.78,1.78,0,0,1,.72-.61,2.24,2.24,0,0,1,1-.24,2,2,0,0,1,1.1.29,2.06,2.06,0,0,1,.7.71h0a2,2,0,0,1,.75-.71,2.26,2.26,0,0,1,1.16-.3,2.19,2.19,0,0,1,2.35,2.36v4.64h-1V18.91q0-1.72-1.39-1.72a1.41,1.41,0,0,0-1.1.43,1.72,1.72,0,0,0-.39,1.2v4.41h-1V18.91q0-1.72-1.39-1.72a1.32,1.32,0,0,0-1.11.46,1.85,1.85,0,0,0-.36,1.18v4.41Z" transform="translate(-11.84 -13.85)"/><path d="M215.43,15V13.85h1.21V15Zm.08,8.18V16.42h1.05v6.81Z" transform="translate(-11.84 -13.85)"/><path d="M218.76,26.12v-9.7h1v.66h0a2.34,2.34,0,0,1,.77-.58,2.56,2.56,0,0,1,1.18-.26,2.69,2.69,0,0,1,2.12,1,3.86,3.86,0,0,1,.85,2.61,3.94,3.94,0,0,1-.82,2.62,2.67,2.67,0,0,1-2.15,1,2.5,2.5,0,0,1-1.16-.27,2,2,0,0,1-.74-.58h0v3.55Zm1.05-7.28V21a1.34,1.34,0,0,0,.5,1,1.81,1.81,0,0,0,1.25.44,1.87,1.87,0,0,0,1.56-.69,3.09,3.09,0,0,0,.55-2,3.07,3.07,0,0,0-.55-1.95,1.87,1.87,0,0,0-1.55-.7,1.65,1.65,0,0,0-1.26.51A1.64,1.64,0,0,0,219.81,18.83Z" transform="translate(-11.84 -13.85)"/><path d="M225.86,20.92l1-.19a1.74,1.74,0,0,0,1.89,1.79,2.06,2.06,0,0,0,1.21-.29.92.92,0,0,0,.4-.78.87.87,0,0,0-.38-.77,6.29,6.29,0,0,0-1.59-.59,4.8,4.8,0,0,1-1.77-.78,1.47,1.47,0,0,1-.51-1.18,1.71,1.71,0,0,1,.63-1.32,2.52,2.52,0,0,1,1.73-.56,2.73,2.73,0,0,1,1.77.53,2.56,2.56,0,0,1,.87,1.42l-.91.24a1.67,1.67,0,0,0-1.73-1.3,1.63,1.63,0,0,0-1,.28.83.83,0,0,0-.36.67.68.68,0,0,0,.35.63,8.55,8.55,0,0,0,1.59.57,4.4,4.4,0,0,1,1.82.85,1.78,1.78,0,0,1,.51,1.3,1.84,1.84,0,0,1-.65,1.4,3.44,3.44,0,0,1-4-.11A2.86,2.86,0,0,1,225.86,20.92Z" transform="translate(-11.84 -13.85)"/><path d="M232.89,20.85V16.42h1.05V20.7A2,2,0,0,0,234.3,22a1.59,1.59,0,0,0,1.21.4A1.48,1.48,0,0,0,236.7,22a2,2,0,0,0,.41-1.32V16.42h1v6.81h-1v-.66h0l-.19.23a2.32,2.32,0,0,1-.6.38,2.23,2.23,0,0,1-1,.24,2.37,2.37,0,0,1-1.77-.64A2.63,2.63,0,0,1,232.89,20.85Z" transform="translate(-11.84 -13.85)"/><path d="M240.27,23.23V16.42h1v.66h0a1.78,1.78,0,0,1,.72-.61,2.24,2.24,0,0,1,1-.24,2,2,0,0,1,1.1.29,2.06,2.06,0,0,1,.7.71h0a2,2,0,0,1,.75-.71,2.26,2.26,0,0,1,1.16-.3,2.19,2.19,0,0,1,2.35,2.36v4.64h-1V18.91q0-1.72-1.39-1.72a1.41,1.41,0,0,0-1.1.43,1.72,1.72,0,0,0-.39,1.2v4.41h-1V18.91q0-1.72-1.39-1.72a1.32,1.32,0,0,0-1.11.46,1.85,1.85,0,0,0-.36,1.18v4.41Z" transform="translate(-11.84 -13.85)"/><path d="M258.8,23.23v-.66h0a2.46,2.46,0,0,1-.79.58,2.86,2.86,0,0,1-3.35-.71,4,4,0,0,1-.8-2.62,3.88,3.88,0,0,1,.84-2.61,2.67,2.67,0,0,1,2.11-1,2.36,2.36,0,0,1,1.89.85h0V13.85h1.05v9.38Zm-.1-2.26V18.86a1.68,1.68,0,0,0-.48-1.16,1.64,1.64,0,0,0-1.27-.52,1.82,1.82,0,0,0-1.54.69,3.17,3.17,0,0,0-.53,2,3.17,3.17,0,0,0,.53,2,1.82,1.82,0,0,0,1.54.69,1.8,1.8,0,0,0,1.25-.45A1.38,1.38,0,0,0,258.69,21Z" transform="translate(-11.84 -13.85)"/><path d="M264.51,23.42a2.89,2.89,0,0,1-2.22-1,3.76,3.76,0,0,1-.87-2.65,3.7,3.7,0,0,1,.9-2.63,2.89,2.89,0,0,1,2.2-1,2.81,2.81,0,0,1,2.16,1,3.76,3.76,0,0,1,.88,2.63,3.8,3.8,0,0,1-.86,2.65A2.82,2.82,0,0,1,264.51,23.42Zm0-1a1.78,1.78,0,0,0,1.43-.7,3,3,0,0,0,.57-1.95,3,3,0,0,0-.57-1.95,1.77,1.77,0,0,0-1.44-.7,1.84,1.84,0,0,0-1.48.69,3,3,0,0,0-.58,2,3,3,0,0,0,.58,2A1.84,1.84,0,0,0,264.51,22.47Z" transform="translate(-11.84 -13.85)"/><path d="M269.23,23.23V13.85h1.07v9.38Z" transform="translate(-11.84 -13.85)"/><path d="M275.06,23.42a2.89,2.89,0,0,1-2.22-1,3.76,3.76,0,0,1-.87-2.65,3.7,3.7,0,0,1,.9-2.63,2.89,2.89,0,0,1,2.2-1,2.81,2.81,0,0,1,2.16,1,3.76,3.76,0,0,1,.88,2.63,3.8,3.8,0,0,1-.86,2.65A2.82,2.82,0,0,1,275.06,23.42Zm0-1a1.78,1.78,0,0,0,1.43-.7,3,3,0,0,0,.57-1.95,3,3,0,0,0-.57-1.95,1.77,1.77,0,0,0-1.44-.7,1.84,1.84,0,0,0-1.48.69,3,3,0,0,0-.58,2,3,3,0,0,0,.58,2A1.84,1.84,0,0,0,275.06,22.47Z" transform="translate(-11.84 -13.85)"/><path d="M279.78,23.23V16.42h1v.73h0a1.43,1.43,0,0,1,.6-.63,1.67,1.67,0,0,1,.81-.22,1.44,1.44,0,0,1,.3,0l.22.06.06,0-.19,1a1.17,1.17,0,0,0-.54-.1,1.07,1.07,0,0,0-1,.43,2.5,2.5,0,0,0-.3,1.38v4Z" transform="translate(-11.84 -13.85)"/><path d="M286.85,20.92l1-.19a1.74,1.74,0,0,0,1.89,1.79,2.06,2.06,0,0,0,1.21-.29.92.92,0,0,0,.4-.78.87.87,0,0,0-.38-.77,6.29,6.29,0,0,0-1.59-.59,4.8,4.8,0,0,1-1.77-.78,1.47,1.47,0,0,1-.51-1.18,1.71,1.71,0,0,1,.63-1.32,2.52,2.52,0,0,1,1.73-.56,2.73,2.73,0,0,1,1.77.53,2.56,2.56,0,0,1,.87,1.42l-.91.24a1.67,1.67,0,0,0-1.73-1.3,1.63,1.63,0,0,0-1,.28.83.83,0,0,0-.36.67.68.68,0,0,0,.35.63,8.55,8.55,0,0,0,1.59.57,4.4,4.4,0,0,1,1.82.85,1.78,1.78,0,0,1,.51,1.3,1.84,1.84,0,0,1-.65,1.4,3.44,3.44,0,0,1-4-.11A2.86,2.86,0,0,1,286.85,20.92Z" transform="translate(-11.84 -13.85)"/><path d="M293.95,15V13.85h1.21V15Zm.08,8.18V16.42h1.05v6.81Z" transform="translate(-11.84 -13.85)"/><path d="M297.52,21.25V17.36h-1v-.94h1V14.75h1v1.67h1.68v.94h-1.67v3.76a1.57,1.57,0,0,0,.17.85.76.76,0,0,0,.67.24h.51v1h-.57a1.76,1.76,0,0,1-1.39-.49A2.21,2.21,0,0,1,297.52,21.25Z" transform="translate(-11.84 -13.85)"/><path d="M308.94,23.23v-.74h0a1.87,1.87,0,0,1-.73.64,2.74,2.74,0,0,1-1.35.3,2.41,2.41,0,0,1-1.71-.55,1.83,1.83,0,0,1-.58-1.39,1.72,1.72,0,0,1,.52-1.33,4.17,4.17,0,0,1,1.77-.8l.69-.18L308,19a1.56,1.56,0,0,0,.42-.21,1,1,0,0,0,.23-.26.64.64,0,0,0,.1-.35.9.9,0,0,0-.35-.73,1.67,1.67,0,0,0-1.07-.29,1.54,1.54,0,0,0-1.66,1.35l-1-.27a2.42,2.42,0,0,1,.84-1.46,2.61,2.61,0,0,1,1.73-.56,2.79,2.79,0,0,1,1.87.58,2.28,2.28,0,0,1,.69,1.83v4.59Zm-1.88-3.07a3.16,3.16,0,0,0-1.19.53.94.94,0,0,0-.31.73q0,1.07,1.35,1.07a2.17,2.17,0,0,0,1.43-.42,1.28,1.28,0,0,0,.5-1v-1.7h0Q308.63,19.72,307.06,20.16Z" transform="translate(-11.84 -13.85)"/><path d="M311.85,23.23V16.42h1v.66h0a1.78,1.78,0,0,1,.72-.61,2.24,2.24,0,0,1,1-.24,2,2,0,0,1,1.1.29,2.06,2.06,0,0,1,.7.71h0a2,2,0,0,1,.75-.71,2.26,2.26,0,0,1,1.16-.3,2.19,2.19,0,0,1,2.35,2.36v4.64h-1V18.91q0-1.72-1.39-1.72a1.41,1.41,0,0,0-1.1.43,1.72,1.72,0,0,0-.39,1.2v4.41h-1V18.91q0-1.72-1.39-1.72a1.32,1.32,0,0,0-1.11.46,1.85,1.85,0,0,0-.36,1.18v4.41Z" transform="translate(-11.84 -13.85)"/><path d="M327.42,21.13l.85.55a3.38,3.38,0,0,1-1.1,1.24,3,3,0,0,1-1.75.49,2.92,2.92,0,0,1-2.27-1,3.75,3.75,0,0,1-.89-2.61,3.81,3.81,0,0,1,.87-2.61,2.85,2.85,0,0,1,2.24-1,2.8,2.8,0,0,1,2.21,1,3.85,3.85,0,0,1,.85,2.63v.31h-5.11a2.66,2.66,0,0,0,.55,1.66,1.83,1.83,0,0,0,1.54.68,2.29,2.29,0,0,0,.72-.11,2.61,2.61,0,0,0,.51-.22,1.52,1.52,0,0,0,.38-.36,3.77,3.77,0,0,0,.24-.33Zm-4.09-1.84h4a2.49,2.49,0,0,0-.51-1.49,2.06,2.06,0,0,0-3,0A2.41,2.41,0,0,0,323.34,19.3Z" transform="translate(-11.84 -13.85)"/><path d="M330.34,21.25V17.36h-1v-.94h1V14.75h1v1.67H333v.94h-1.67v3.76a1.57,1.57,0,0,0,.17.85.76.76,0,0,0,.67.24h.51v1h-.57a1.76,1.76,0,0,1-1.39-.49A2.21,2.21,0,0,1,330.34,21.25Z" transform="translate(-11.84 -13.85)"/><path d="M334.78,24.59V24a.7.7,0,0,0,.62-.78h-.62V21.71h1.52V23A1.42,1.42,0,0,1,334.78,24.59Z" transform="translate(-11.84 -13.85)"/><path d="M175.65,37.55V33.12h1.05V37.4a2,2,0,0,0,.37,1.35,1.59,1.59,0,0,0,1.21.4,1.48,1.48,0,0,0,1.18-.48,2,2,0,0,0,.41-1.32V33.12h1v6.81h-1v-.66h0l-.19.23a2.32,2.32,0,0,1-.6.38,2.23,2.23,0,0,1-1,.24,2.37,2.37,0,0,1-1.77-.64A2.63,2.63,0,0,1,175.65,37.55Z" transform="translate(-11.84 -13.85)"/><path d="M183,39.93V30.55h1.07v9.38Z" transform="translate(-11.84 -13.85)"/><path d="M186.23,39.93V30.55h1.07v9.38Z" transform="translate(-11.84 -13.85)"/><path d="M193.37,39.93v-.74h0a1.87,1.87,0,0,1-.73.64,2.74,2.74,0,0,1-1.35.3,2.41,2.41,0,0,1-1.71-.55,1.83,1.83,0,0,1-.58-1.39,1.72,1.72,0,0,1,.52-1.33,4.17,4.17,0,0,1,1.77-.8l.69-.18.52-.17a1.56,1.56,0,0,0,.42-.21,1,1,0,0,0,.23-.26.64.64,0,0,0,.1-.35.9.9,0,0,0-.35-.73,1.67,1.67,0,0,0-1.07-.29,1.54,1.54,0,0,0-1.66,1.35l-1-.27a2.42,2.42,0,0,1,.84-1.46,2.61,2.61,0,0,1,1.73-.56,2.79,2.79,0,0,1,1.87.58,2.28,2.28,0,0,1,.69,1.83v4.59Zm-1.88-3.07a3.16,3.16,0,0,0-1.19.53.94.94,0,0,0-.31.73q0,1.07,1.35,1.07a2.17,2.17,0,0,0,1.43-.42,1.28,1.28,0,0,0,.5-1V36h0Q193.06,36.42,191.49,36.86Z" transform="translate(-11.84 -13.85)"/><path d="M196.29,39.93V33.12h1v.66h0a1.78,1.78,0,0,1,.72-.61,2.24,2.24,0,0,1,1-.24,2,2,0,0,1,1.1.29,2.06,2.06,0,0,1,.7.71h0a2,2,0,0,1,.75-.71,2.26,2.26,0,0,1,1.16-.3,2.19,2.19,0,0,1,2.35,2.36v4.64h-1V35.61q0-1.72-1.39-1.72a1.41,1.41,0,0,0-1.1.43,1.72,1.72,0,0,0-.39,1.2v4.41h-1V35.61q0-1.72-1.39-1.72a1.32,1.32,0,0,0-1.11.46,1.85,1.85,0,0,0-.36,1.18v4.41Z" transform="translate(-11.84 -13.85)"/><path d="M211.61,37.32l1,.21a3,3,0,0,1-.94,1.89,2.71,2.71,0,0,1-1.9.71,2.87,2.87,0,0,1-2.24-1,3.8,3.8,0,0,1-.86-2.64,3.74,3.74,0,0,1,.89-2.63,2.87,2.87,0,0,1,2.21-1,2.67,2.67,0,0,1,1.86.69,2.94,2.94,0,0,1,.93,1.8l-1,.21a2.66,2.66,0,0,0-.59-1.25,1.53,1.53,0,0,0-1.21-.49,1.82,1.82,0,0,0-1.49.7,3,3,0,0,0-.57,1.95,3.07,3.07,0,0,0,.55,1.94,1.82,1.82,0,0,0,1.52.71,1.56,1.56,0,0,0,1.23-.55A2.43,2.43,0,0,0,211.61,37.32Z" transform="translate(-11.84 -13.85)"/><path d="M216.88,40.12a2.89,2.89,0,0,1-2.22-1,3.76,3.76,0,0,1-.87-2.65,3.7,3.7,0,0,1,.9-2.63,2.89,2.89,0,0,1,2.2-1,2.81,2.81,0,0,1,2.16,1,3.76,3.76,0,0,1,.88,2.63,3.8,3.8,0,0,1-.86,2.65A2.82,2.82,0,0,1,216.88,40.12Zm0-1a1.78,1.78,0,0,0,1.43-.7,3.62,3.62,0,0,0,0-3.89,1.77,1.77,0,0,0-1.44-.7,1.84,1.84,0,0,0-1.48.69,3,3,0,0,0-.58,2,3,3,0,0,0,.58,2A1.84,1.84,0,0,0,216.88,39.17Z" transform="translate(-11.84 -13.85)"/><path d="M221.59,39.93V33.12h1v.73h0a1.43,1.43,0,0,1,.6-.63A1.67,1.67,0,0,1,224,33a1.44,1.44,0,0,1,.3,0l.22.06.06,0-.19,1a1.17,1.17,0,0,0-.54-.1,1.07,1.07,0,0,0-1,.43,2.5,2.5,0,0,0-.3,1.38v4Z" transform="translate(-11.84 -13.85)"/><path d="M226,42.82v-9.7h1v.66h0a2.34,2.34,0,0,1,.77-.58,2.56,2.56,0,0,1,1.18-.26,2.69,2.69,0,0,1,2.12,1,3.86,3.86,0,0,1,.85,2.61,3.94,3.94,0,0,1-.82,2.62,2.67,2.67,0,0,1-2.15,1,2.5,2.5,0,0,1-1.16-.27,2,2,0,0,1-.74-.58h0v3.55Zm1.05-7.28v2.16a1.34,1.34,0,0,0,.5,1,1.81,1.81,0,0,0,1.25.44,1.87,1.87,0,0,0,1.56-.69,3.09,3.09,0,0,0,.55-2,3.07,3.07,0,0,0-.55-1.95,1.87,1.87,0,0,0-1.55-.7,1.65,1.65,0,0,0-1.26.51A1.64,1.64,0,0,0,227.09,35.54Z" transform="translate(-11.84 -13.85)"/><path d="M238.37,37.83l.85.55a3.38,3.38,0,0,1-1.1,1.24,3,3,0,0,1-1.75.49,2.92,2.92,0,0,1-2.27-1,3.75,3.75,0,0,1-.89-2.61,3.81,3.81,0,0,1,.87-2.61,2.85,2.85,0,0,1,2.24-1,2.8,2.8,0,0,1,2.21,1,3.85,3.85,0,0,1,.85,2.63v.31h-5.11a2.66,2.66,0,0,0,.55,1.66,1.83,1.83,0,0,0,1.54.68,2.29,2.29,0,0,0,.72-.11,2.61,2.61,0,0,0,.51-.22,1.52,1.52,0,0,0,.38-.36,3.77,3.77,0,0,0,.24-.33ZM234.29,36h4a2.49,2.49,0,0,0-.51-1.49,2.06,2.06,0,0,0-3,0A2.41,2.41,0,0,0,234.29,36Z" transform="translate(-11.84 -13.85)"/><path d="M241,39.93V33.12h1v.73h0a1.43,1.43,0,0,1,.6-.63,1.67,1.67,0,0,1,.81-.22,1.44,1.44,0,0,1,.3,0l.22.06.06,0-.19,1a1.17,1.17,0,0,0-.54-.1,1.07,1.07,0,0,0-1,.43,2.5,2.5,0,0,0-.3,1.38v4Z" transform="translate(-11.84 -13.85)"/><path d="M248.64,39.93V30.55h1.07v9.38Z" transform="translate(-11.84 -13.85)"/><path d="M254.47,40.12a2.89,2.89,0,0,1-2.22-1,3.76,3.76,0,0,1-.87-2.65,3.7,3.7,0,0,1,.9-2.63,2.89,2.89,0,0,1,2.2-1,2.81,2.81,0,0,1,2.16,1,3.76,3.76,0,0,1,.88,2.63,3.8,3.8,0,0,1-.86,2.65A2.82,2.82,0,0,1,254.47,40.12Zm0-1a1.78,1.78,0,0,0,1.43-.7,3.62,3.62,0,0,0,0-3.89,1.77,1.77,0,0,0-1.44-.7,1.84,1.84,0,0,0-1.48.69,3,3,0,0,0-.58,2,3,3,0,0,0,.58,2A1.84,1.84,0,0,0,254.47,39.17Z" transform="translate(-11.84 -13.85)"/><path d="M259.18,39.93V33.12h1v.73h0a1.43,1.43,0,0,1,.6-.63,1.67,1.67,0,0,1,.81-.22,1.44,1.44,0,0,1,.3,0l.22.06.06,0-.19,1a1.17,1.17,0,0,0-.54-.1,1.07,1.07,0,0,0-1,.43,2.5,2.5,0,0,0-.3,1.38v4Z" transform="translate(-11.84 -13.85)"/><path d="M268.34,37.83l.85.55a3.38,3.38,0,0,1-1.1,1.24,3,3,0,0,1-1.75.49,2.92,2.92,0,0,1-2.27-1,3.75,3.75,0,0,1-.89-2.61,3.81,3.81,0,0,1,.87-2.61,2.85,2.85,0,0,1,2.24-1,2.8,2.8,0,0,1,2.21,1,3.85,3.85,0,0,1,.85,2.63v.31h-5.11a2.66,2.66,0,0,0,.55,1.66,1.83,1.83,0,0,0,1.54.68,2.29,2.29,0,0,0,.72-.11,2.61,2.61,0,0,0,.51-.22,1.52,1.52,0,0,0,.38-.36,3.77,3.77,0,0,0,.24-.33ZM264.26,36h4a2.49,2.49,0,0,0-.51-1.49,2.06,2.06,0,0,0-3,0A2.41,2.41,0,0,0,264.26,36Z" transform="translate(-11.84 -13.85)"/><path d="M271,39.93V33.12h1v.66h0a1.78,1.78,0,0,1,.72-.61,2.24,2.24,0,0,1,1-.24,2,2,0,0,1,1.1.29,2.06,2.06,0,0,1,.7.71h0a2,2,0,0,1,.75-.71,2.26,2.26,0,0,1,1.16-.3,2.19,2.19,0,0,1,2.35,2.36v4.64h-1V35.61q0-1.72-1.39-1.72a1.41,1.41,0,0,0-1.1.43,1.72,1.72,0,0,0-.39,1.2v4.41h-1V35.61q0-1.72-1.39-1.72a1.32,1.32,0,0,0-1.11.46,1.85,1.85,0,0,0-.36,1.18v4.41Z" transform="translate(-11.84 -13.85)"/><path d="M289.73,37.83l.85.55a3.38,3.38,0,0,1-1.1,1.24,3,3,0,0,1-1.75.49,2.92,2.92,0,0,1-2.27-1,3.75,3.75,0,0,1-.89-2.61,3.81,3.81,0,0,1,.87-2.61,2.85,2.85,0,0,1,2.24-1,2.8,2.8,0,0,1,2.21,1,3.85,3.85,0,0,1,.85,2.63v.31h-5.11a2.66,2.66,0,0,0,.55,1.66,1.83,1.83,0,0,0,1.54.68,2.29,2.29,0,0,0,.72-.11,2.61,2.61,0,0,0,.51-.22,1.52,1.52,0,0,0,.38-.36,3.77,3.77,0,0,0,.24-.33ZM285.65,36h4a2.49,2.49,0,0,0-.51-1.49,2.06,2.06,0,0,0-3,0A2.41,2.41,0,0,0,285.65,36Z" transform="translate(-11.84 -13.85)"/><path d="M292.47,41.16l.89-.45a2.46,2.46,0,0,0,.64,1,2,2,0,0,0,2.42-.12,1.89,1.89,0,0,0,.45-1.34v-.91h0a2.34,2.34,0,0,1-1.89.78,2.7,2.7,0,0,1-2.17-1,3.94,3.94,0,0,1-.82-2.62,3.84,3.84,0,0,1,.85-2.61,2.7,2.7,0,0,1,2.13-1,2.32,2.32,0,0,1,1.91.85h0v-.66h1V40a3.1,3.1,0,0,1-.73,2.22,2.64,2.64,0,0,1-2,.76,2.83,2.83,0,0,1-1.73-.51A2.7,2.7,0,0,1,292.47,41.16Zm4.39-3.47V35.54a1.64,1.64,0,0,0-.48-1.14,1.67,1.67,0,0,0-1.28-.51,1.85,1.85,0,0,0-1.55.7,3.1,3.1,0,0,0-.55,1.95,3.12,3.12,0,0,0,.54,2,1.85,1.85,0,0,0,1.55.69,1.83,1.83,0,0,0,1.26-.44A1.34,1.34,0,0,0,296.86,37.69Z" transform="translate(-11.84 -13.85)"/><path d="M304.67,37.83l.85.55a3.38,3.38,0,0,1-1.1,1.24,3,3,0,0,1-1.75.49,2.92,2.92,0,0,1-2.27-1,3.75,3.75,0,0,1-.89-2.61,3.81,3.81,0,0,1,.87-2.61,2.85,2.85,0,0,1,2.24-1,2.8,2.8,0,0,1,2.21,1,3.85,3.85,0,0,1,.85,2.63v.31h-5.11a2.66,2.66,0,0,0,.55,1.66,1.83,1.83,0,0,0,1.54.68,2.29,2.29,0,0,0,.72-.11,2.61,2.61,0,0,0,.51-.22,1.52,1.52,0,0,0,.38-.36,3.77,3.77,0,0,0,.24-.33ZM300.59,36h4a2.49,2.49,0,0,0-.51-1.49,2.06,2.06,0,0,0-3,0A2.41,2.41,0,0,0,300.59,36Z" transform="translate(-11.84 -13.85)"/><path d="M306.83,37.62l1-.19a1.74,1.74,0,0,0,1.89,1.79,2.06,2.06,0,0,0,1.21-.29.92.92,0,0,0,.4-.78.87.87,0,0,0-.38-.77,6.29,6.29,0,0,0-1.59-.59,4.8,4.8,0,0,1-1.77-.78,1.47,1.47,0,0,1-.51-1.18,1.71,1.71,0,0,1,.63-1.32,2.52,2.52,0,0,1,1.73-.56,2.73,2.73,0,0,1,1.77.53,2.56,2.56,0,0,1,.87,1.42l-.91.24a1.67,1.67,0,0,0-1.73-1.3,1.63,1.63,0,0,0-1,.28.83.83,0,0,0-.36.67.68.68,0,0,0,.35.63A8.55,8.55,0,0,0,310,36a4.4,4.4,0,0,1,1.82.85,1.78,1.78,0,0,1,.51,1.3,1.84,1.84,0,0,1-.65,1.4,3.44,3.44,0,0,1-4-.11A2.86,2.86,0,0,1,306.83,37.62Z" transform="translate(-11.84 -13.85)"/><path d="M314.17,38V34.06h-1v-.94h1V31.45h1v1.67h1.68v.94h-1.67v3.76a1.57,1.57,0,0,0,.17.85.76.76,0,0,0,.67.24h.51v1H316a1.76,1.76,0,0,1-1.39-.49A2.21,2.21,0,0,1,314.17,38Z" transform="translate(-11.84 -13.85)"/><path d="M322.31,39.93v-.74h0a1.87,1.87,0,0,1-.73.64,2.74,2.74,0,0,1-1.35.3,2.41,2.41,0,0,1-1.71-.55,1.83,1.83,0,0,1-.58-1.39,1.72,1.72,0,0,1,.52-1.33,4.17,4.17,0,0,1,1.77-.8l.69-.18.52-.17a1.56,1.56,0,0,0,.42-.21,1,1,0,0,0,.23-.26.64.64,0,0,0,.1-.35.9.9,0,0,0-.35-.73,1.67,1.67,0,0,0-1.07-.29,1.54,1.54,0,0,0-1.66,1.35l-1-.27a2.42,2.42,0,0,1,.84-1.46,2.61,2.61,0,0,1,1.73-.56,2.79,2.79,0,0,1,1.87.58,2.28,2.28,0,0,1,.69,1.83v4.59Zm-1.88-3.07a3.16,3.16,0,0,0-1.19.53.94.94,0,0,0-.31.73q0,1.07,1.35,1.07a2.17,2.17,0,0,0,1.43-.42,1.28,1.28,0,0,0,.5-1V36h0Q322,36.42,320.43,36.86Z" transform="translate(-11.84 -13.85)"/><path d="M324.71,37.62l1-.19a1.74,1.74,0,0,0,1.89,1.79,2.06,2.06,0,0,0,1.21-.29.92.92,0,0,0,.4-.78.87.87,0,0,0-.38-.77,6.29,6.29,0,0,0-1.59-.59,4.8,4.8,0,0,1-1.77-.78A1.47,1.47,0,0,1,325,34.8a1.71,1.71,0,0,1,.63-1.32,2.52,2.52,0,0,1,1.73-.56,2.73,2.73,0,0,1,1.77.53,2.56,2.56,0,0,1,.87,1.42l-.91.24a1.67,1.67,0,0,0-1.73-1.3,1.63,1.63,0,0,0-1,.28.83.83,0,0,0-.36.67.68.68,0,0,0,.35.63,8.55,8.55,0,0,0,1.59.57,4.4,4.4,0,0,1,1.82.85,1.78,1.78,0,0,1,.51,1.3,1.84,1.84,0,0,1-.65,1.4,3.44,3.44,0,0,1-4-.11A2.86,2.86,0,0,1,324.71,37.62Z" transform="translate(-11.84 -13.85)"/><path d="M331.8,39.93V38.41h1.52v1.52Z" transform="translate(-11.84 -13.85)"/><path d="M176.15,77.51V66.27h1.33v10h4.88v1.22Z" transform="translate(-11.84 -13.85)"/><path d="M187.44,77.75a3.61,3.61,0,0,1-2.78-1.19,4.71,4.71,0,0,1-1.09-3.31A4.63,4.63,0,0,1,184.7,70a3.61,3.61,0,0,1,2.75-1.2,3.52,3.52,0,0,1,2.71,1.2,4.7,4.7,0,0,1,1.1,3.29,4.75,4.75,0,0,1-1.08,3.31A3.52,3.52,0,0,1,187.44,77.75Zm0-1.19a2.22,2.22,0,0,0,1.79-.88,4.52,4.52,0,0,0,0-4.87,2.21,2.21,0,0,0-1.8-.88,2.31,2.31,0,0,0-1.85.86,4.51,4.51,0,0,0,0,4.9A2.31,2.31,0,0,0,187.44,76.56Z" transform="translate(-11.84 -13.85)"/><path d="M193.33,77.51V69h1.25v.92h0a1.79,1.79,0,0,1,.76-.79,2.08,2.08,0,0,1,1-.27,1.83,1.83,0,0,1,.38,0L197,69l.08,0-.24,1.3a1.46,1.46,0,0,0-.67-.13,1.34,1.34,0,0,0-1.19.54,3.12,3.12,0,0,0-.37,1.73v5.06Z" transform="translate(-11.84 -13.85)"/><path d="M204.78,74.89l1.06.69a4.24,4.24,0,0,1-1.37,1.55,3.76,3.76,0,0,1-2.19.62,3.65,3.65,0,0,1-2.84-1.23,4.69,4.69,0,0,1-1.11-3.27A4.76,4.76,0,0,1,199.41,70a3.57,3.57,0,0,1,2.8-1.23A3.51,3.51,0,0,1,205,70,4.81,4.81,0,0,1,206,73.25v.38h-6.39a3.33,3.33,0,0,0,.68,2.07,2.29,2.29,0,0,0,1.92.85,2.88,2.88,0,0,0,.9-.14,3.14,3.14,0,0,0,.64-.27,1.88,1.88,0,0,0,.47-.45,4.73,4.73,0,0,0,.31-.41Zm-5.11-2.3h5.06a3.12,3.12,0,0,0-.64-1.86,2.57,2.57,0,0,0-3.76.06A3,3,0,0,0,199.68,72.59Z" transform="translate(-11.84 -13.85)"/><path d="M208.12,77.51V69h1.19v.82h0a2.24,2.24,0,0,1,.9-.76,2.81,2.81,0,0,1,1.27-.3,2.51,2.51,0,0,1,1.37.36,2.57,2.57,0,0,1,.88.89h0a2.55,2.55,0,0,1,.94-.88,2.84,2.84,0,0,1,1.45-.37,2.74,2.74,0,0,1,2.94,3v5.8h-1.27v-5.4q0-2.15-1.73-2.15a1.76,1.76,0,0,0-1.37.54,2.15,2.15,0,0,0-.49,1.5v5.51H213v-5.4Q213,70,211.25,70a1.65,1.65,0,0,0-1.38.57,2.3,2.3,0,0,0-.45,1.47v5.51Z" transform="translate(-11.84 -13.85)"/><path d="M225.63,67.28V65.78h1.51v1.49Zm.1,10.23V69H227v8.51Z" transform="translate(-11.84 -13.85)"/><path d="M229.79,81.12V69H231v.82h0a2.92,2.92,0,0,1,1-.73,3.2,3.2,0,0,1,1.48-.33A3.36,3.36,0,0,1,236.16,70a4.83,4.83,0,0,1,1.06,3.27,4.92,4.92,0,0,1-1,3.28,3.34,3.34,0,0,1-2.68,1.22,3.12,3.12,0,0,1-1.45-.34,2.54,2.54,0,0,1-.93-.72h0v4.43ZM231.1,72v2.7a1.68,1.68,0,0,0,.63,1.29,2.26,2.26,0,0,0,1.56.55,2.34,2.34,0,0,0,2-.87,4.67,4.67,0,0,0,0-4.87,2.34,2.34,0,0,0-1.94-.88,2.07,2.07,0,0,0-1.58.64A2,2,0,0,0,231.1,72Z" transform="translate(-11.84 -13.85)"/><path d="M238.67,74.62l1.24-.24a2.17,2.17,0,0,0,2.36,2.23,2.57,2.57,0,0,0,1.52-.37,1.15,1.15,0,0,0,.51-1,1.09,1.09,0,0,0-.47-1,7.83,7.83,0,0,0-2-.74,6,6,0,0,1-2.22-1A1.84,1.84,0,0,1,239,71.1a2.14,2.14,0,0,1,.79-1.65,3.15,3.15,0,0,1,2.17-.7,3.41,3.41,0,0,1,2.22.67,3.2,3.2,0,0,1,1.09,1.77l-1.14.31a2.08,2.08,0,0,0-2.17-1.62,2,2,0,0,0-1.28.35,1,1,0,0,0-.45.84.85.85,0,0,0,.43.79,10.66,10.66,0,0,0,2,.71,5.5,5.5,0,0,1,2.27,1.07,2.23,2.23,0,0,1,.63,1.63,2.29,2.29,0,0,1-.81,1.75,4.3,4.3,0,0,1-5-.14A3.57,3.57,0,0,1,238.67,74.62Z" transform="translate(-11.84 -13.85)"/><path d="M247.45,74.54V69h1.32v5.35a2.47,2.47,0,0,0,.46,1.69,2,2,0,0,0,1.52.5,1.85,1.85,0,0,0,1.48-.59,2.45,2.45,0,0,0,.51-1.65V69H254v8.51h-1.28v-.82h0a3.64,3.64,0,0,1-.24.29,2.91,2.91,0,0,1-.75.47,2.78,2.78,0,0,1-1.28.3,3,3,0,0,1-2.21-.8A3.29,3.29,0,0,1,247.45,74.54Z" transform="translate(-11.84 -13.85)"/><path d="M256.68,77.51V69h1.19v.82h0a2.24,2.24,0,0,1,.9-.76,2.81,2.81,0,0,1,1.27-.3,2.51,2.51,0,0,1,1.37.36,2.57,2.57,0,0,1,.88.89h0a2.55,2.55,0,0,1,.94-.88,2.84,2.84,0,0,1,1.45-.37,2.74,2.74,0,0,1,2.94,3v5.8h-1.27v-5.4q0-2.15-1.73-2.15a1.76,1.76,0,0,0-1.37.54,2.15,2.15,0,0,0-.49,1.5v5.51h-1.27v-5.4q0-2.15-1.73-2.15a1.65,1.65,0,0,0-1.38.57A2.3,2.3,0,0,0,258,72v5.51Z" transform="translate(-11.84 -13.85)"/><path d="M279.84,77.51v-.82h0a3.09,3.09,0,0,1-1,.73,3.58,3.58,0,0,1-4.19-.89,5,5,0,0,1-1-3.28A4.86,4.86,0,0,1,274.68,70a3.34,3.34,0,0,1,2.64-1.23,3,3,0,0,1,2.36,1.06h0v-4H281V77.51Zm-.13-2.83V72a2.1,2.1,0,0,0-.59-1.45,2,2,0,0,0-1.59-.65,2.27,2.27,0,0,0-1.93.87,4.85,4.85,0,0,0,0,4.88,2.27,2.27,0,0,0,1.93.87,2.25,2.25,0,0,0,1.56-.56A1.72,1.72,0,0,0,279.71,74.68Z" transform="translate(-11.84 -13.85)"/><path d="M287,77.75a3.61,3.61,0,0,1-2.78-1.19,4.71,4.71,0,0,1-1.09-3.31A4.63,4.63,0,0,1,284.24,70a3.61,3.61,0,0,1,2.75-1.2,3.52,3.52,0,0,1,2.71,1.2,4.7,4.7,0,0,1,1.1,3.29,4.75,4.75,0,0,1-1.08,3.31A3.52,3.52,0,0,1,287,77.75Zm0-1.19a2.22,2.22,0,0,0,1.79-.88,4.52,4.52,0,0,0,0-4.87,2.21,2.21,0,0,0-1.8-.88,2.31,2.31,0,0,0-1.85.86,4.51,4.51,0,0,0,0,4.9A2.31,2.31,0,0,0,287,76.56Z" transform="translate(-11.84 -13.85)"/><path d="M292.88,77.51V65.78h1.33V77.51Z" transform="translate(-11.84 -13.85)"/><path d="M300.17,77.75a3.61,3.61,0,0,1-2.78-1.19,4.71,4.71,0,0,1-1.09-3.31A4.63,4.63,0,0,1,297.42,70a3.61,3.61,0,0,1,2.75-1.2,3.52,3.52,0,0,1,2.71,1.2,4.7,4.7,0,0,1,1.1,3.29,4.75,4.75,0,0,1-1.08,3.31A3.52,3.52,0,0,1,300.17,77.75Zm0-1.19a2.22,2.22,0,0,0,1.79-.88,4.52,4.52,0,0,0,0-4.87,2.21,2.21,0,0,0-1.8-.88,2.31,2.31,0,0,0-1.85.86,4.51,4.51,0,0,0,0,4.9A2.31,2.31,0,0,0,300.17,76.56Z" transform="translate(-11.84 -13.85)"/><path d="M306.06,77.51V69h1.25v.92h0a1.79,1.79,0,0,1,.76-.79,2.08,2.08,0,0,1,1-.27,1.83,1.83,0,0,1,.38,0l.28.07.08,0-.24,1.3a1.46,1.46,0,0,0-.67-.13,1.34,1.34,0,0,0-1.19.54,3.12,3.12,0,0,0-.37,1.73v5.06Z" transform="translate(-11.84 -13.85)"/><path d="M314.91,74.62l1.24-.24a2.17,2.17,0,0,0,2.36,2.23,2.57,2.57,0,0,0,1.52-.37,1.15,1.15,0,0,0,.51-1,1.09,1.09,0,0,0-.47-1,7.83,7.83,0,0,0-2-.74,6,6,0,0,1-2.22-1,1.84,1.84,0,0,1-.64-1.48,2.14,2.14,0,0,1,.79-1.65,3.15,3.15,0,0,1,2.17-.7,3.41,3.41,0,0,1,2.22.67,3.2,3.2,0,0,1,1.09,1.77l-1.14.31a2.08,2.08,0,0,0-2.17-1.62,2,2,0,0,0-1.28.35,1,1,0,0,0-.45.84.85.85,0,0,0,.43.79,10.66,10.66,0,0,0,2,.71,5.5,5.5,0,0,1,2.27,1.07,2.23,2.23,0,0,1,.63,1.63A2.29,2.29,0,0,1,321,77a4.3,4.3,0,0,1-5-.14A3.57,3.57,0,0,1,314.91,74.62Z" transform="translate(-11.84 -13.85)"/><path d="M323.77,67.28V65.78h1.51v1.49Zm.1,10.23V69h1.32v8.51Z" transform="translate(-11.84 -13.85)"/><path d="M328.24,75V70.17h-1.19V69h1.22V66.91h1.25V69h2.1v1.17h-2.09v4.7a2,2,0,0,0,.21,1.06,1,1,0,0,0,.84.31h.64v1.27h-.71a2.2,2.2,0,0,1-1.74-.62A2.76,2.76,0,0,1,328.24,75Z" transform="translate(-11.84 -13.85)"/><path d="M342.51,77.51v-.93h0a2.34,2.34,0,0,1-.92.8,3.41,3.41,0,0,1-1.69.38,3,3,0,0,1-2.14-.69,2.28,2.28,0,0,1-.73-1.73,2.15,2.15,0,0,1,.65-1.66,5.22,5.22,0,0,1,2.21-1l.86-.23.65-.22a2,2,0,0,0,.53-.27,1.26,1.26,0,0,0,.28-.32.8.8,0,0,0,.12-.43,1.12,1.12,0,0,0-.44-.91,2.09,2.09,0,0,0-1.34-.36,1.93,1.93,0,0,0-2.07,1.69l-1.19-.34a3,3,0,0,1,1-1.82,3.26,3.26,0,0,1,2.17-.7,3.49,3.49,0,0,1,2.34.73,2.84,2.84,0,0,1,.86,2.29v5.73Zm-2.34-3.84a4,4,0,0,0-1.49.66,1.17,1.17,0,0,0-.39.92q0,1.33,1.69,1.33a2.71,2.71,0,0,0,1.78-.52,1.6,1.6,0,0,0,.63-1.28V72.66h0Q342.13,73.12,340.17,73.67Z" transform="translate(-11.84 -13.85)"/><path d="M346.16,77.51V69h1.19v.82h0a2.24,2.24,0,0,1,.9-.76,2.81,2.81,0,0,1,1.27-.3,2.51,2.51,0,0,1,1.37.36,2.57,2.57,0,0,1,.88.89h0a2.55,2.55,0,0,1,.94-.88,2.84,2.84,0,0,1,1.45-.37,2.74,2.74,0,0,1,2.94,3v5.8h-1.27v-5.4q0-2.15-1.73-2.15a1.76,1.76,0,0,0-1.37.54,2.15,2.15,0,0,0-.49,1.5v5.51H351v-5.4Q351,70,349.29,70a1.65,1.65,0,0,0-1.38.57,2.3,2.3,0,0,0-.45,1.47v5.51Z" transform="translate(-11.84 -13.85)"/><path d="M365.62,74.89l1.06.69a4.24,4.24,0,0,1-1.37,1.55,3.76,3.76,0,0,1-2.19.62,3.65,3.65,0,0,1-2.84-1.23,4.69,4.69,0,0,1-1.11-3.27A4.76,4.76,0,0,1,360.25,70a3.57,3.57,0,0,1,2.8-1.23,3.51,3.51,0,0,1,2.76,1.2,4.81,4.81,0,0,1,1.06,3.29v.38h-6.39a3.33,3.33,0,0,0,.68,2.07,2.29,2.29,0,0,0,1.92.85,2.88,2.88,0,0,0,.9-.14,3.14,3.14,0,0,0,.64-.27,1.88,1.88,0,0,0,.47-.45,4.73,4.73,0,0,0,.31-.41Zm-5.11-2.3h5.06a3.12,3.12,0,0,0-.64-1.86,2.57,2.57,0,0,0-3.76.06A3,3,0,0,0,360.51,72.59Z" transform="translate(-11.84 -13.85)"/><path d="M369.27,75V70.17h-1.19V69h1.22V66.91h1.25V69h2.1v1.17h-2.09v4.7a2,2,0,0,0,.21,1.06,1,1,0,0,0,.84.31h.64v1.27h-.71a2.2,2.2,0,0,1-1.74-.62A2.76,2.76,0,0,1,369.27,75Z" transform="translate(-11.84 -13.85)"/><path d="M374.82,79.21v-.72a.88.88,0,0,0,.77-1h-.77v-1.9h1.89v1.65A1.77,1.77,0,0,1,374.82,79.21Z" transform="translate(-11.84 -13.85)"/><path d="M175.91,95.41V89.87h1.32v5.35a2.47,2.47,0,0,0,.46,1.69,2,2,0,0,0,1.52.5,1.85,1.85,0,0,0,1.48-.59,2.45,2.45,0,0,0,.51-1.65V89.87h1.3v8.51h-1.28v-.82h0a3.64,3.64,0,0,1-.24.29,2.91,2.91,0,0,1-.75.47,2.78,2.78,0,0,1-1.28.3,3,3,0,0,1-2.21-.8A3.29,3.29,0,0,1,175.91,95.41Z" transform="translate(-11.84 -13.85)"/><path d="M185.14,98.38V86.66h1.33V98.38Z" transform="translate(-11.84 -13.85)"/><path d="M189.13,98.38V86.66h1.33V98.38Z" transform="translate(-11.84 -13.85)"/><path d="M198.06,98.38v-.93h0a2.34,2.34,0,0,1-.92.8,3.41,3.41,0,0,1-1.69.38,3,3,0,0,1-2.14-.69,2.28,2.28,0,0,1-.73-1.73,2.15,2.15,0,0,1,.65-1.66,5.22,5.22,0,0,1,2.21-1l.86-.23.65-.22a2,2,0,0,0,.53-.27,1.26,1.26,0,0,0,.28-.32.8.8,0,0,0,.12-.43,1.12,1.12,0,0,0-.44-.91,2.09,2.09,0,0,0-1.34-.36A1.93,1.93,0,0,0,194,92.49l-1.19-.34a3,3,0,0,1,1-1.82,3.26,3.26,0,0,1,2.17-.7,3.49,3.49,0,0,1,2.34.73,2.84,2.84,0,0,1,.86,2.29v5.73Zm-2.34-3.84a4,4,0,0,0-1.49.66,1.17,1.17,0,0,0-.39.92q0,1.33,1.69,1.33a2.71,2.71,0,0,0,1.78-.52,1.6,1.6,0,0,0,.63-1.28V93.53h0Q197.67,94,195.71,94.54Z" transform="translate(-11.84 -13.85)"/><path d="M201.7,98.38V89.87h1.19v.82h0a2.24,2.24,0,0,1,.9-.76,2.81,2.81,0,0,1,1.27-.3,2.51,2.51,0,0,1,1.37.36,2.57,2.57,0,0,1,.88.89h0a2.55,2.55,0,0,1,.94-.88,2.84,2.84,0,0,1,1.45-.37,2.74,2.74,0,0,1,2.94,3v5.8h-1.27V93q0-2.15-1.73-2.15a1.76,1.76,0,0,0-1.37.54,2.15,2.15,0,0,0-.49,1.5v5.51h-1.27V93q0-2.15-1.73-2.15a1.65,1.65,0,0,0-1.38.57,2.3,2.3,0,0,0-.45,1.47v5.51Z" transform="translate(-11.84 -13.85)"/><path d="M220.86,95.12l1.27.26A3.81,3.81,0,0,1,221,97.74a3.39,3.39,0,0,1-2.38.88,3.58,3.58,0,0,1-2.79-1.2,4.75,4.75,0,0,1-1.08-3.3,4.68,4.68,0,0,1,1.11-3.28,3.59,3.59,0,0,1,2.76-1.21,3.33,3.33,0,0,1,2.32.87,3.68,3.68,0,0,1,1.16,2.25l-1.24.26a3.32,3.32,0,0,0-.74-1.57,1.91,1.91,0,0,0-1.51-.62,2.28,2.28,0,0,0-1.86.88,3.77,3.77,0,0,0-.71,2.43,3.83,3.83,0,0,0,.69,2.42,2.27,2.27,0,0,0,1.89.88,2,2,0,0,0,1.54-.68A3.05,3.05,0,0,0,220.86,95.12Z" transform="translate(-11.84 -13.85)"/><path d="M227.44,98.62a3.61,3.61,0,0,1-2.78-1.19,4.71,4.71,0,0,1-1.09-3.31,4.63,4.63,0,0,1,1.12-3.29,3.61,3.61,0,0,1,2.75-1.2,3.52,3.52,0,0,1,2.71,1.2,4.7,4.7,0,0,1,1.1,3.29,4.75,4.75,0,0,1-1.08,3.31A3.52,3.52,0,0,1,227.44,98.62Zm0-1.19a2.22,2.22,0,0,0,1.79-.88,4.52,4.52,0,0,0,0-4.87,2.21,2.21,0,0,0-1.8-.88,2.31,2.31,0,0,0-1.85.86,4.51,4.51,0,0,0,0,4.9A2.31,2.31,0,0,0,227.44,97.43Z" transform="translate(-11.84 -13.85)"/><path d="M233.33,98.38V89.87h1.25v.92h0a1.79,1.79,0,0,1,.76-.79,2.08,2.08,0,0,1,1-.27,1.83,1.83,0,0,1,.38,0l.28.07.08,0-.24,1.3a1.46,1.46,0,0,0-.67-.13,1.34,1.34,0,0,0-1.19.54,3.12,3.12,0,0,0-.37,1.73v5.06Z" transform="translate(-11.84 -13.85)"/><path d="M238.89,102V89.87h1.25v.82h0a2.92,2.92,0,0,1,1-.73,3.2,3.2,0,0,1,1.48-.33,3.36,3.36,0,0,1,2.65,1.23,4.83,4.83,0,0,1,1.06,3.27,4.92,4.92,0,0,1-1,3.28,3.34,3.34,0,0,1-2.68,1.22,3.12,3.12,0,0,1-1.45-.34,2.54,2.54,0,0,1-.93-.72h0V102Zm1.32-9.11v2.7a1.68,1.68,0,0,0,.63,1.29,2.26,2.26,0,0,0,1.56.55,2.34,2.34,0,0,0,2-.87,4.67,4.67,0,0,0,0-4.87,2.34,2.34,0,0,0-1.94-.88,2.07,2.07,0,0,0-1.58.64A2,2,0,0,0,240.21,92.89Z" transform="translate(-11.84 -13.85)"/><path d="M254.31,95.76l1.06.69A4.24,4.24,0,0,1,254,98a3.76,3.76,0,0,1-2.19.62A3.65,3.65,0,0,1,249,97.39a4.69,4.69,0,0,1-1.11-3.27,4.76,4.76,0,0,1,1.08-3.27,3.57,3.57,0,0,1,2.8-1.23,3.51,3.51,0,0,1,2.76,1.2,4.81,4.81,0,0,1,1.06,3.29v.38h-6.39a3.33,3.33,0,0,0,.68,2.07,2.29,2.29,0,0,0,1.92.85,2.88,2.88,0,0,0,.9-.14,3.14,3.14,0,0,0,.64-.27,1.88,1.88,0,0,0,.47-.45,4.73,4.73,0,0,0,.31-.41Zm-5.11-2.3h5.06a3.12,3.12,0,0,0-.64-1.86,2.57,2.57,0,0,0-3.76.06A3,3,0,0,0,249.2,93.47Z" transform="translate(-11.84 -13.85)"/><path d="M257.65,98.38V89.87h1.25v.92h0a1.79,1.79,0,0,1,.76-.79,2.08,2.08,0,0,1,1-.27,1.83,1.83,0,0,1,.38,0l.28.07.08,0-.24,1.3a1.46,1.46,0,0,0-.67-.13,1.34,1.34,0,0,0-1.19.54,3.12,3.12,0,0,0-.37,1.73v5.06Z" transform="translate(-11.84 -13.85)"/><path d="M267.14,98.38V86.66h1.33V98.38Z" transform="translate(-11.84 -13.85)"/><path d="M274.43,98.62a3.61,3.61,0,0,1-2.78-1.19,4.71,4.71,0,0,1-1.09-3.31,4.63,4.63,0,0,1,1.12-3.29,3.61,3.61,0,0,1,2.75-1.2,3.52,3.52,0,0,1,2.71,1.2,4.7,4.7,0,0,1,1.1,3.29,4.75,4.75,0,0,1-1.08,3.31A3.52,3.52,0,0,1,274.43,98.62Zm0-1.19a2.22,2.22,0,0,0,1.79-.88,4.52,4.52,0,0,0,0-4.87,2.21,2.21,0,0,0-1.8-.88,2.31,2.31,0,0,0-1.85.86,4.51,4.51,0,0,0,0,4.9A2.31,2.31,0,0,0,274.43,97.43Z" transform="translate(-11.84 -13.85)"/><path d="M280.32,98.38V89.87h1.25v.92h0a1.79,1.79,0,0,1,.76-.79,2.08,2.08,0,0,1,1-.27,1.83,1.83,0,0,1,.38,0l.28.07.08,0-.24,1.3a1.46,1.46,0,0,0-.67-.13,1.34,1.34,0,0,0-1.19.54,3.12,3.12,0,0,0-.37,1.73v5.06Z" transform="translate(-11.84 -13.85)"/><path d="M291.77,95.76l1.06.69A4.24,4.24,0,0,1,291.46,98a3.76,3.76,0,0,1-2.19.62,3.65,3.65,0,0,1-2.84-1.23,4.69,4.69,0,0,1-1.11-3.27,4.76,4.76,0,0,1,1.08-3.27,3.57,3.57,0,0,1,2.8-1.23,3.51,3.51,0,0,1,2.76,1.2A4.81,4.81,0,0,1,293,94.13v.38h-6.39a3.33,3.33,0,0,0,.68,2.07,2.29,2.29,0,0,0,1.92.85,2.88,2.88,0,0,0,.9-.14,3.14,3.14,0,0,0,.64-.27,1.88,1.88,0,0,0,.47-.45,4.73,4.73,0,0,0,.31-.41Zm-5.11-2.3h5.06a3.12,3.12,0,0,0-.64-1.86,2.57,2.57,0,0,0-3.76.06A3,3,0,0,0,286.66,93.47Z" transform="translate(-11.84 -13.85)"/><path d="M295.11,98.38V89.87h1.19v.82h0a2.24,2.24,0,0,1,.9-.76,2.81,2.81,0,0,1,1.27-.3,2.51,2.51,0,0,1,1.37.36,2.57,2.57,0,0,1,.88.89h0a2.55,2.55,0,0,1,.94-.88,2.84,2.84,0,0,1,1.45-.37,2.74,2.74,0,0,1,2.94,3v5.8h-1.27V93q0-2.15-1.73-2.15a1.76,1.76,0,0,0-1.37.54,2.15,2.15,0,0,0-.49,1.5v5.51H300V93q0-2.15-1.73-2.15a1.65,1.65,0,0,0-1.38.57,2.3,2.3,0,0,0-.45,1.47v5.51Z" transform="translate(-11.84 -13.85)"/><path d="M318.51,95.76l1.06.69A4.24,4.24,0,0,1,318.19,98a3.76,3.76,0,0,1-2.19.62,3.65,3.65,0,0,1-2.84-1.23,4.69,4.69,0,0,1-1.11-3.27,4.76,4.76,0,0,1,1.08-3.27,3.57,3.57,0,0,1,2.8-1.23,3.51,3.51,0,0,1,2.76,1.2,4.81,4.81,0,0,1,1.06,3.29v.38h-6.39a3.33,3.33,0,0,0,.68,2.07,2.29,2.29,0,0,0,1.92.85,2.88,2.88,0,0,0,.9-.14,3.14,3.14,0,0,0,.64-.27,1.88,1.88,0,0,0,.47-.45,4.73,4.73,0,0,0,.31-.41Zm-5.11-2.3h5.06a3.12,3.12,0,0,0-.64-1.86,2.57,2.57,0,0,0-3.76.06A3,3,0,0,0,313.4,93.47Z" transform="translate(-11.84 -13.85)"/><path d="M321.93,99.92l1.11-.56a3.07,3.07,0,0,0,.8,1.24,2.44,2.44,0,0,0,3-.14,2.37,2.37,0,0,0,.56-1.68V97.64h0a2.93,2.93,0,0,1-2.36,1,3.37,3.37,0,0,1-2.71-1.22,4.92,4.92,0,0,1-1-3.28,4.81,4.81,0,0,1,1.07-3.27A3.38,3.38,0,0,1,325,89.63a2.9,2.9,0,0,1,2.39,1.06h0v-.82h1.28v8.64a3.88,3.88,0,0,1-.91,2.77,3.3,3.3,0,0,1-2.51,1,3.54,3.54,0,0,1-2.16-.63A3.38,3.38,0,0,1,321.93,99.92Zm5.49-4.34v-2.7a2,2,0,0,0-.6-1.43,2.09,2.09,0,0,0-1.6-.64,2.31,2.31,0,0,0-1.94.88,4.71,4.71,0,0,0,0,4.87,2.31,2.31,0,0,0,1.94.87,2.29,2.29,0,0,0,1.57-.55A1.68,1.68,0,0,0,327.42,95.59Z" transform="translate(-11.84 -13.85)"/><path d="M337.18,95.76l1.06.69A4.24,4.24,0,0,1,336.87,98a3.76,3.76,0,0,1-2.19.62,3.65,3.65,0,0,1-2.84-1.23,4.69,4.69,0,0,1-1.11-3.27,4.76,4.76,0,0,1,1.08-3.27,3.57,3.57,0,0,1,2.8-1.23,3.51,3.51,0,0,1,2.76,1.2,4.81,4.81,0,0,1,1.06,3.29v.38H332a3.33,3.33,0,0,0,.68,2.07,2.29,2.29,0,0,0,1.92.85,2.88,2.88,0,0,0,.9-.14,3.14,3.14,0,0,0,.64-.27,1.88,1.88,0,0,0,.47-.45,4.73,4.73,0,0,0,.31-.41Zm-5.11-2.3h5.06a3.12,3.12,0,0,0-.64-1.86,2.57,2.57,0,0,0-3.76.06A3,3,0,0,0,332.07,93.47Z" transform="translate(-11.84 -13.85)"/><path d="M339.88,95.49l1.24-.24a2.17,2.17,0,0,0,2.36,2.23,2.57,2.57,0,0,0,1.52-.37,1.15,1.15,0,0,0,.51-1,1.09,1.09,0,0,0-.47-1,7.83,7.83,0,0,0-2-.74,6,6,0,0,1-2.22-1,1.84,1.84,0,0,1-.64-1.48,2.14,2.14,0,0,1,.79-1.65,3.15,3.15,0,0,1,2.17-.7,3.41,3.41,0,0,1,2.22.67,3.2,3.2,0,0,1,1.09,1.77l-1.14.31a2.08,2.08,0,0,0-2.17-1.62,2,2,0,0,0-1.28.35,1,1,0,0,0-.45.84.85.85,0,0,0,.43.79,10.66,10.66,0,0,0,2,.71,5.5,5.5,0,0,1,2.27,1.07,2.23,2.23,0,0,1,.63,1.63,2.29,2.29,0,0,1-.81,1.75,4.3,4.3,0,0,1-5-.14A3.57,3.57,0,0,1,339.88,95.49Z" transform="translate(-11.84 -13.85)"/><path d="M349,95.91V91h-1.19V89.87h1.22V87.78h1.25v2.09h2.1V91h-2.09v4.7a2,2,0,0,0,.21,1.06,1,1,0,0,0,.84.31H352v1.27h-.71a2.2,2.2,0,0,1-1.74-.62A2.76,2.76,0,0,1,349,95.91Z" transform="translate(-11.84 -13.85)"/><path d="M359.23,98.38v-.93h0a2.34,2.34,0,0,1-.92.8,3.41,3.41,0,0,1-1.69.38,3,3,0,0,1-2.14-.69,2.28,2.28,0,0,1-.73-1.73,2.15,2.15,0,0,1,.65-1.66,5.22,5.22,0,0,1,2.21-1l.86-.23.65-.22a2,2,0,0,0,.53-.27,1.26,1.26,0,0,0,.28-.32.8.8,0,0,0,.12-.43,1.12,1.12,0,0,0-.44-.91,2.09,2.09,0,0,0-1.34-.36,1.93,1.93,0,0,0-2.07,1.69L354,92.15a3,3,0,0,1,1-1.82,3.26,3.26,0,0,1,2.17-.7,3.49,3.49,0,0,1,2.34.73,2.84,2.84,0,0,1,.86,2.29v5.73Zm-2.34-3.84a4,4,0,0,0-1.49.66,1.17,1.17,0,0,0-.39.92q0,1.33,1.69,1.33a2.71,2.71,0,0,0,1.78-.52,1.6,1.6,0,0,0,.63-1.28V93.53h0Q358.84,94,356.88,94.54Z" transform="translate(-11.84 -13.85)"/><path d="M362.23,95.49l1.24-.24a2.17,2.17,0,0,0,2.36,2.23,2.57,2.57,0,0,0,1.52-.37,1.15,1.15,0,0,0,.51-1,1.09,1.09,0,0,0-.47-1,7.83,7.83,0,0,0-2-.74,6,6,0,0,1-2.22-1,1.84,1.84,0,0,1-.64-1.48,2.14,2.14,0,0,1,.79-1.65,3.15,3.15,0,0,1,2.17-.7,3.41,3.41,0,0,1,2.22.67,3.2,3.2,0,0,1,1.09,1.77l-1.14.31a2.08,2.08,0,0,0-2.17-1.62,2,2,0,0,0-1.28.35,1,1,0,0,0-.45.84.85.85,0,0,0,.43.79,10.66,10.66,0,0,0,2,.71,5.5,5.5,0,0,1,2.27,1.07,2.23,2.23,0,0,1,.63,1.63,2.29,2.29,0,0,1-.81,1.75,4.3,4.3,0,0,1-5-.14A3.57,3.57,0,0,1,362.23,95.49Z" transform="translate(-11.84 -13.85)"/><path d="M371.1,98.38v-1.9H373v1.9Z" transform="translate(-11.84 -13.85)"/><path d="M176.46,144.31V130.82h1.6v12h5.86v1.46Z" transform="translate(-11.84 -13.85)"/><path d="M190,144.6a4.33,4.33,0,0,1-3.33-1.43,5.65,5.65,0,0,1-1.31-4,5.56,5.56,0,0,1,1.35-4,4.34,4.34,0,0,1,3.3-1.45,4.23,4.23,0,0,1,3.25,1.45,5.64,5.64,0,0,1,1.32,4,5.7,5.7,0,0,1-1.29,4A4.23,4.23,0,0,1,190,144.6Zm0-1.43a2.66,2.66,0,0,0,2.15-1,5.43,5.43,0,0,0,0-5.84,2.65,2.65,0,0,0-2.16-1,2.77,2.77,0,0,0-2.22,1,5.41,5.41,0,0,0,0,5.88A2.77,2.77,0,0,0,190,143.17Z" transform="translate(-11.84 -13.85)"/><path d="M197.08,144.31V134.1h1.5v1.1h0a2.14,2.14,0,0,1,.91-.94,2.5,2.5,0,0,1,1.21-.33,2.13,2.13,0,0,1,.45,0l.34.09.1.06-.29,1.56a1.74,1.74,0,0,0-.81-.15,1.61,1.61,0,0,0-1.43.65,3.74,3.74,0,0,0-.44,2.07v6.07Z" transform="translate(-11.84 -13.85)"/><path d="M210.81,141.17l1.27.83a5.07,5.07,0,0,1-1.65,1.86,4.5,4.5,0,0,1-2.63.74,4.39,4.39,0,0,1-3.41-1.47,5.63,5.63,0,0,1-1.33-3.92,5.71,5.71,0,0,1,1.3-3.92,4.28,4.28,0,0,1,3.36-1.47,4.2,4.2,0,0,1,3.31,1.45,5.77,5.77,0,0,1,1.27,4v.46h-7.67a4,4,0,0,0,.82,2.49,2.75,2.75,0,0,0,2.3,1,3.44,3.44,0,0,0,1.08-.16,3.81,3.81,0,0,0,.77-.33,2.29,2.29,0,0,0,.57-.54,6.08,6.08,0,0,0,.37-.49Zm-6.13-2.76h6.07a3.73,3.73,0,0,0-.77-2.24,3.09,3.09,0,0,0-4.51.07A3.61,3.61,0,0,0,204.69,138.41Z" transform="translate(-11.84 -13.85)"/><path d="M214.82,144.31V134.1h1.43v1h0a2.68,2.68,0,0,1,1.08-.92,3.36,3.36,0,0,1,1.52-.36,3,3,0,0,1,1.65.43,3.09,3.09,0,0,1,1,1.07h0a3.06,3.06,0,0,1,1.13-1.06,3.41,3.41,0,0,1,1.74-.44,3.29,3.29,0,0,1,3.53,3.55v7H226.5v-6.48q0-2.58-2.08-2.58a2.11,2.11,0,0,0-1.65.65,2.58,2.58,0,0,0-.59,1.8v6.61h-1.52v-6.48q0-2.58-2.08-2.58a2,2,0,0,0-1.66.68,2.76,2.76,0,0,0-.54,1.76v6.61Z" transform="translate(-11.84 -13.85)"/><path d="M235.83,132v-1.79h1.81V132Zm.12,12.28V134.1h1.58v10.21Z" transform="translate(-11.84 -13.85)"/><path d="M240.82,148.64V134.1h1.5v1h0a3.5,3.5,0,0,1,1.16-.88,3.83,3.83,0,0,1,1.77-.4,4,4,0,0,1,3.18,1.47,5.8,5.8,0,0,1,1.27,3.92,5.91,5.91,0,0,1-1.23,3.93,4,4,0,0,1-3.22,1.46,3.75,3.75,0,0,1-1.73-.4,3.05,3.05,0,0,1-1.12-.87h0v5.32Zm1.58-10.93V141a2,2,0,0,0,.75,1.55,2.72,2.72,0,0,0,1.87.66,2.81,2.81,0,0,0,2.34-1,5.6,5.6,0,0,0,0-5.85,2.8,2.8,0,0,0-2.33-1,2.48,2.48,0,0,0-1.9.77A2.45,2.45,0,0,0,242.4,137.72Z" transform="translate(-11.84 -13.85)"/><path d="M251.47,140.84l1.48-.29a2.61,2.61,0,0,0,2.83,2.68,3.07,3.07,0,0,0,1.82-.44,1.39,1.39,0,0,0,.61-1.18,1.3,1.3,0,0,0-.57-1.16,9.43,9.43,0,0,0-2.38-.89,7.22,7.22,0,0,1-2.66-1.18,2.2,2.2,0,0,1-.77-1.77,2.56,2.56,0,0,1,.94-2,3.78,3.78,0,0,1,2.6-.84,4.09,4.09,0,0,1,2.66.8,3.84,3.84,0,0,1,1.31,2.13l-1.37.37a2.5,2.5,0,0,0-2.6-1.95,2.45,2.45,0,0,0-1.54.42,1.25,1.25,0,0,0-.54,1,1,1,0,0,0,.52.94,12.8,12.8,0,0,0,2.39.85,6.58,6.58,0,0,1,2.73,1.28,2.67,2.67,0,0,1,.76,2,2.75,2.75,0,0,1-1,2.1,5.16,5.16,0,0,1-6-.16A4.28,4.28,0,0,1,251.47,140.84Z" transform="translate(-11.84 -13.85)"/><path d="M262,140.74V134.1h1.58v6.42a3,3,0,0,0,.55,2,2.38,2.38,0,0,0,1.82.6,2.22,2.22,0,0,0,1.77-.71,2.94,2.94,0,0,0,.62-2V134.1h1.56v10.21h-1.54v-1h0a4.12,4.12,0,0,1-.29.35,3.54,3.54,0,0,1-.9.57,3.35,3.35,0,0,1-1.53.36,3.56,3.56,0,0,1-2.65-1A4,4,0,0,1,262,140.74Z" transform="translate(-11.84 -13.85)"/><path d="M273.1,144.31V134.1h1.43v1h0a2.68,2.68,0,0,1,1.08-.92,3.36,3.36,0,0,1,1.52-.36,3,3,0,0,1,1.65.43,3.09,3.09,0,0,1,1,1.07h0a3.06,3.06,0,0,1,1.13-1.06,3.41,3.41,0,0,1,1.74-.44,3.29,3.29,0,0,1,3.53,3.55v7h-1.52v-6.48q0-2.58-2.08-2.58a2.11,2.11,0,0,0-1.65.65,2.58,2.58,0,0,0-.59,1.8v6.61h-1.52v-6.48q0-2.58-2.08-2.58a2,2,0,0,0-1.66.68,2.76,2.76,0,0,0-.54,1.76v6.61Z" transform="translate(-11.84 -13.85)"/><path d="M300.88,144.31v-1h0a3.73,3.73,0,0,1-1.19.88,4.29,4.29,0,0,1-5-1.07,6,6,0,0,1-1.2-3.93,5.82,5.82,0,0,1,1.26-3.92,4,4,0,0,1,3.17-1.47,3.54,3.54,0,0,1,2.83,1.27h0v-4.84h1.58v14.07Zm-.15-3.39v-3.16A2.52,2.52,0,0,0,300,136a2.46,2.46,0,0,0-1.91-.78,2.72,2.72,0,0,0-2.31,1,5.82,5.82,0,0,0,0,5.86,2.72,2.72,0,0,0,2.31,1,2.69,2.69,0,0,0,1.87-.67A2.06,2.06,0,0,0,300.73,140.92Z" transform="translate(-11.84 -13.85)"/><path d="M309.46,144.6a4.33,4.33,0,0,1-3.33-1.43,5.65,5.65,0,0,1-1.31-4,5.56,5.56,0,0,1,1.35-4,4.34,4.34,0,0,1,3.3-1.45,4.23,4.23,0,0,1,3.25,1.45,5.64,5.64,0,0,1,1.32,4,5.7,5.7,0,0,1-1.29,4A4.23,4.23,0,0,1,309.46,144.6Zm0-1.43a2.66,2.66,0,0,0,2.15-1,5.43,5.43,0,0,0,0-5.84,2.65,2.65,0,0,0-2.16-1,2.77,2.77,0,0,0-2.22,1,5.41,5.41,0,0,0,0,5.88A2.77,2.77,0,0,0,309.46,143.17Z" transform="translate(-11.84 -13.85)"/><path d="M316.53,144.31V130.24h1.6v14.07Z" transform="translate(-11.84 -13.85)"/><path d="M325.28,144.6a4.33,4.33,0,0,1-3.33-1.43,5.65,5.65,0,0,1-1.31-4,5.56,5.56,0,0,1,1.35-4,4.34,4.34,0,0,1,3.3-1.45,4.23,4.23,0,0,1,3.25,1.45,5.64,5.64,0,0,1,1.32,4,5.7,5.7,0,0,1-1.29,4A4.23,4.23,0,0,1,325.28,144.6Zm0-1.43a2.66,2.66,0,0,0,2.15-1,5.43,5.43,0,0,0,0-5.84,2.65,2.65,0,0,0-2.16-1,2.77,2.77,0,0,0-2.22,1,5.41,5.41,0,0,0,0,5.88A2.77,2.77,0,0,0,325.28,143.17Z" transform="translate(-11.84 -13.85)"/><path d="M332.35,144.31V134.1h1.5v1.1h0a2.14,2.14,0,0,1,.91-.94,2.5,2.5,0,0,1,1.21-.33,2.13,2.13,0,0,1,.45,0l.34.09.1.06-.29,1.56a1.74,1.74,0,0,0-.81-.15,1.61,1.61,0,0,0-1.43.65,3.74,3.74,0,0,0-.44,2.07v6.07Z" transform="translate(-11.84 -13.85)"/><path d="M343,140.84l1.48-.29a2.61,2.61,0,0,0,2.83,2.68,3.07,3.07,0,0,0,1.82-.44,1.39,1.39,0,0,0,.61-1.18,1.3,1.3,0,0,0-.57-1.16,9.43,9.43,0,0,0-2.38-.89,7.22,7.22,0,0,1-2.66-1.18,2.2,2.2,0,0,1-.77-1.77,2.56,2.56,0,0,1,.94-2,3.78,3.78,0,0,1,2.6-.84,4.09,4.09,0,0,1,2.66.8,3.84,3.84,0,0,1,1.31,2.13l-1.37.37a2.5,2.5,0,0,0-2.6-1.95,2.45,2.45,0,0,0-1.54.42,1.25,1.25,0,0,0-.54,1,1,1,0,0,0,.52.94,12.8,12.8,0,0,0,2.39.85,6.58,6.58,0,0,1,2.73,1.28,2.67,2.67,0,0,1,.76,2,2.75,2.75,0,0,1-1,2.1,5.16,5.16,0,0,1-6-.16A4.28,4.28,0,0,1,343,140.84Z" transform="translate(-11.84 -13.85)"/><path d="M353.61,132v-1.79h1.81V132Zm.12,12.28V134.1h1.58v10.21Z" transform="translate(-11.84 -13.85)"/><path d="M359,141.34V135.5h-1.43V134.1H359v-2.51h1.5v2.51H363v1.41h-2.5v5.65a2.36,2.36,0,0,0,.25,1.27,1.14,1.14,0,0,0,1,.37h.77v1.52h-.85a2.64,2.64,0,0,1-2.09-.74A3.31,3.31,0,0,1,359,141.34Z" transform="translate(-11.84 -13.85)"/><path d="M376.09,144.31v-1.12h0a2.8,2.8,0,0,1-1.1,1,4.1,4.1,0,0,1-2,.45,3.61,3.61,0,0,1-2.57-.83,2.74,2.74,0,0,1-.88-2.08,2.58,2.58,0,0,1,.78-2,6.27,6.27,0,0,1,2.65-1.2l1-.27q.34-.1.78-.26a2.38,2.38,0,0,0,.64-.32,1.51,1.51,0,0,0,.34-.39,1,1,0,0,0,.14-.52,1.35,1.35,0,0,0-.53-1.09,2.51,2.51,0,0,0-1.61-.43,2.31,2.31,0,0,0-2.49,2l-1.43-.4a3.62,3.62,0,0,1,1.25-2.19,3.92,3.92,0,0,1,2.6-.84,4.19,4.19,0,0,1,2.8.88,3.41,3.41,0,0,1,1,2.75v6.88Zm-2.81-4.61a4.73,4.73,0,0,0-1.78.79,1.41,1.41,0,0,0-.47,1.1q0,1.6,2,1.6a3.26,3.26,0,0,0,2.14-.63,1.92,1.92,0,0,0,.75-1.53v-2.54h0Q375.63,139,373.28,139.7Z" transform="translate(-11.84 -13.85)"/><path d="M380.47,144.31V134.1h1.43v1h0a2.68,2.68,0,0,1,1.08-.92,3.36,3.36,0,0,1,1.52-.36,3,3,0,0,1,1.65.43,3.09,3.09,0,0,1,1,1.07h0a3.06,3.06,0,0,1,1.13-1.06,3.41,3.41,0,0,1,1.74-.44,3.29,3.29,0,0,1,3.53,3.55v7h-1.52v-6.48q0-2.58-2.08-2.58a2.11,2.11,0,0,0-1.65.65,2.58,2.58,0,0,0-.59,1.8v6.61h-1.52v-6.48q0-2.58-2.08-2.58a2,2,0,0,0-1.66.68,2.76,2.76,0,0,0-.54,1.76v6.61Z" transform="translate(-11.84 -13.85)"/><path d="M403.82,141.17l1.27.83a5.07,5.07,0,0,1-1.65,1.86,4.5,4.5,0,0,1-2.63.74,4.39,4.39,0,0,1-3.41-1.47,5.64,5.64,0,0,1-1.33-3.92,5.71,5.71,0,0,1,1.3-3.92,4.28,4.28,0,0,1,3.36-1.47,4.2,4.2,0,0,1,3.31,1.45,5.77,5.77,0,0,1,1.27,4v.46h-7.67a4,4,0,0,0,.82,2.49,2.75,2.75,0,0,0,2.3,1,3.45,3.45,0,0,0,1.08-.16,3.82,3.82,0,0,0,.77-.33,2.29,2.29,0,0,0,.57-.54c.2-.25.32-.41.37-.49Zm-6.13-2.76h6.07a3.73,3.73,0,0,0-.77-2.24,3.09,3.09,0,0,0-4.51.07A3.61,3.61,0,0,0,397.69,138.41Z" transform="translate(-11.84 -13.85)"/><path d="M408.2,141.34V135.5h-1.43V134.1h1.46v-2.51h1.5v2.51h2.52v1.41h-2.5v5.65a2.37,2.37,0,0,0,.25,1.27,1.14,1.14,0,0,0,1,.37h.77v1.52h-.85a2.64,2.64,0,0,1-2.09-.74A3.31,3.31,0,0,1,408.2,141.34Z" transform="translate(-11.84 -13.85)"/><path d="M414.86,146.35v-.87a1.06,1.06,0,0,0,.92-1.18h-.92V142h2.27v2A2.12,2.12,0,0,1,414.86,146.35Z" transform="translate(-11.84 -13.85)"/><path d="M176.17,165.79v-6.65h1.58v6.42a3,3,0,0,0,.55,2,2.38,2.38,0,0,0,1.82.6,2.22,2.22,0,0,0,1.77-.71,2.94,2.94,0,0,0,.62-2v-6.34h1.56v10.21h-1.54v-1h0a4.12,4.12,0,0,1-.29.35,3.54,3.54,0,0,1-.9.57,3.35,3.35,0,0,1-1.53.36,3.56,3.56,0,0,1-2.65-1A4,4,0,0,1,176.17,165.79Z" transform="translate(-11.84 -13.85)"/><path d="M187.25,169.36V155.29h1.6v14.07Z" transform="translate(-11.84 -13.85)"/><path d="M192,169.36V155.29h1.6v14.07Z" transform="translate(-11.84 -13.85)"/><path d="M202.74,169.36v-1.12h0a2.8,2.8,0,0,1-1.1,1,4.1,4.1,0,0,1-2,.45,3.61,3.61,0,0,1-2.57-.83,2.74,2.74,0,0,1-.88-2.08,2.58,2.58,0,0,1,.78-2,6.27,6.27,0,0,1,2.65-1.2l1-.27q.34-.1.78-.26a2.38,2.38,0,0,0,.64-.32,1.51,1.51,0,0,0,.34-.39,1,1,0,0,0,.14-.52,1.35,1.35,0,0,0-.53-1.09,2.51,2.51,0,0,0-1.61-.43,2.31,2.31,0,0,0-2.49,2l-1.43-.4a3.62,3.62,0,0,1,1.25-2.19,3.92,3.92,0,0,1,2.6-.84,4.19,4.19,0,0,1,2.8.88,3.41,3.41,0,0,1,1,2.75v6.88Zm-2.81-4.61a4.73,4.73,0,0,0-1.78.79,1.41,1.41,0,0,0-.47,1.1q0,1.6,2,1.6a3.26,3.26,0,0,0,2.14-.63,1.92,1.92,0,0,0,.75-1.53v-2.54h0Q202.28,164.1,199.93,164.75Z" transform="translate(-11.84 -13.85)"/><path d="M207.12,169.36V159.15h1.43v1h0a2.68,2.68,0,0,1,1.08-.92,3.36,3.36,0,0,1,1.52-.36,3,3,0,0,1,1.65.43,3.09,3.09,0,0,1,1,1.07h0A3.06,3.06,0,0,1,215,159.3a3.41,3.41,0,0,1,1.74-.44,3.29,3.29,0,0,1,3.53,3.55v7h-1.52v-6.48q0-2.58-2.08-2.58a2.11,2.11,0,0,0-1.65.65,2.58,2.58,0,0,0-.59,1.8v6.61H213v-6.48q0-2.58-2.08-2.58a2,2,0,0,0-1.66.68,2.76,2.76,0,0,0-.54,1.76v6.61Z" transform="translate(-11.84 -13.85)"/><path d="M230.1,165.45l1.52.31a4.57,4.57,0,0,1-1.41,2.83,4.06,4.06,0,0,1-2.85,1.06,4.3,4.3,0,0,1-3.35-1.44,5.71,5.71,0,0,1-1.29-4,5.62,5.62,0,0,1,1.33-3.94,4.3,4.3,0,0,1,3.31-1.46,4,4,0,0,1,2.78,1,4.42,4.42,0,0,1,1.4,2.7l-1.48.31a4,4,0,0,0-.89-1.88,2.29,2.29,0,0,0-1.81-.74,2.73,2.73,0,0,0-2.24,1,4.53,4.53,0,0,0-.85,2.92,4.61,4.61,0,0,0,.83,2.91,2.73,2.73,0,0,0,2.27,1.06,2.34,2.34,0,0,0,1.85-.82A3.66,3.66,0,0,0,230.1,165.45Z" transform="translate(-11.84 -13.85)"/><path d="M238,169.65a4.33,4.33,0,0,1-3.33-1.43,5.65,5.65,0,0,1-1.31-4,5.56,5.56,0,0,1,1.35-4,4.34,4.34,0,0,1,3.3-1.45,4.23,4.23,0,0,1,3.25,1.45,5.64,5.64,0,0,1,1.32,4,5.7,5.7,0,0,1-1.29,4A4.23,4.23,0,0,1,238,169.65Zm0-1.43a2.66,2.66,0,0,0,2.15-1,5.43,5.43,0,0,0,0-5.84,2.65,2.65,0,0,0-2.16-1,2.77,2.77,0,0,0-2.22,1,5.41,5.41,0,0,0,0,5.88A2.77,2.77,0,0,0,238,168.22Z" transform="translate(-11.84 -13.85)"/><path d="M245.08,169.36V159.15h1.5v1.1h0a2.14,2.14,0,0,1,.91-.94,2.5,2.5,0,0,1,1.21-.33,2.13,2.13,0,0,1,.45,0l.34.09.1.06-.29,1.56a1.74,1.74,0,0,0-.81-.15,1.61,1.61,0,0,0-1.43.65,3.74,3.74,0,0,0-.44,2.07v6.07Z" transform="translate(-11.84 -13.85)"/><path d="M251.74,173.7V159.15h1.5v1h0a3.5,3.5,0,0,1,1.16-.88,3.83,3.83,0,0,1,1.77-.4,4,4,0,0,1,3.18,1.47,5.8,5.8,0,0,1,1.27,3.92,5.91,5.91,0,0,1-1.23,3.93,4,4,0,0,1-3.22,1.46,3.75,3.75,0,0,1-1.73-.4,3.05,3.05,0,0,1-1.12-.87h0v5.32Zm1.58-10.93V166a2,2,0,0,0,.75,1.55,2.72,2.72,0,0,0,1.87.66,2.81,2.81,0,0,0,2.34-1,5.6,5.6,0,0,0,0-5.85,2.8,2.8,0,0,0-2.33-1,2.48,2.48,0,0,0-1.9.77A2.45,2.45,0,0,0,253.32,162.77Z" transform="translate(-11.84 -13.85)"/><path d="M270.24,166.22l1.27.83a5.07,5.07,0,0,1-1.65,1.86,4.5,4.5,0,0,1-2.63.74,4.39,4.39,0,0,1-3.41-1.47,5.63,5.63,0,0,1-1.33-3.92,5.71,5.71,0,0,1,1.3-3.92,4.28,4.28,0,0,1,3.36-1.47,4.2,4.2,0,0,1,3.31,1.45,5.77,5.77,0,0,1,1.27,4v.46h-7.67a4,4,0,0,0,.82,2.49,2.75,2.75,0,0,0,2.3,1,3.44,3.44,0,0,0,1.08-.16,3.81,3.81,0,0,0,.77-.33,2.29,2.29,0,0,0,.57-.54,6.08,6.08,0,0,0,.37-.49Zm-6.13-2.76h6.07a3.73,3.73,0,0,0-.77-2.24,3.09,3.09,0,0,0-4.51.07A3.61,3.61,0,0,0,264.12,163.46Z" transform="translate(-11.84 -13.85)"/><path d="M274.25,169.36V159.15h1.5v1.1h0a2.14,2.14,0,0,1,.91-.94,2.5,2.5,0,0,1,1.21-.33,2.13,2.13,0,0,1,.45,0l.34.09.1.06-.29,1.56a1.74,1.74,0,0,0-.81-.15,1.61,1.61,0,0,0-1.43.65,3.74,3.74,0,0,0-.44,2.07v6.07Z" transform="translate(-11.84 -13.85)"/><path d="M285.64,169.36V155.29h1.6v14.07Z" transform="translate(-11.84 -13.85)"/><path d="M294.39,169.65a4.33,4.33,0,0,1-3.33-1.43,5.65,5.65,0,0,1-1.31-4,5.56,5.56,0,0,1,1.35-4,4.34,4.34,0,0,1,3.3-1.45,4.23,4.23,0,0,1,3.25,1.45,5.64,5.64,0,0,1,1.32,4,5.7,5.7,0,0,1-1.29,4A4.23,4.23,0,0,1,294.39,169.65Zm0-1.43a2.66,2.66,0,0,0,2.15-1,5.43,5.43,0,0,0,0-5.84,2.65,2.65,0,0,0-2.16-1,2.77,2.77,0,0,0-2.22,1,5.41,5.41,0,0,0,0,5.88A2.77,2.77,0,0,0,294.39,168.22Z" transform="translate(-11.84 -13.85)"/><path d="M301.46,169.36V159.15H303v1.1h0a2.14,2.14,0,0,1,.91-.94,2.5,2.5,0,0,1,1.21-.33,2.13,2.13,0,0,1,.45,0l.34.09.1.06-.29,1.56a1.74,1.74,0,0,0-.81-.15,1.61,1.61,0,0,0-1.43.65,3.74,3.74,0,0,0-.44,2.07v6.07Z" transform="translate(-11.84 -13.85)"/><path d="M315.2,166.22l1.27.83a5.07,5.07,0,0,1-1.65,1.86,4.5,4.5,0,0,1-2.63.74,4.39,4.39,0,0,1-3.41-1.47,5.63,5.63,0,0,1-1.33-3.92,5.71,5.71,0,0,1,1.3-3.92,4.28,4.28,0,0,1,3.36-1.47,4.2,4.2,0,0,1,3.31,1.45,5.77,5.77,0,0,1,1.27,4v.46H309a4,4,0,0,0,.82,2.49,2.75,2.75,0,0,0,2.3,1,3.44,3.44,0,0,0,1.08-.16,3.81,3.81,0,0,0,.77-.33,2.29,2.29,0,0,0,.57-.54,6.08,6.08,0,0,0,.37-.49Zm-6.13-2.76h6.07a3.73,3.73,0,0,0-.77-2.24,3.09,3.09,0,0,0-4.51.07A3.61,3.61,0,0,0,309.07,163.46Z" transform="translate(-11.84 -13.85)"/><path d="M319.21,169.36V159.15h1.43v1h0a2.68,2.68,0,0,1,1.08-.92,3.36,3.36,0,0,1,1.52-.36,3,3,0,0,1,1.65.43,3.09,3.09,0,0,1,1,1.07h0a3.06,3.06,0,0,1,1.13-1.06,3.41,3.41,0,0,1,1.74-.44,3.29,3.29,0,0,1,3.53,3.55v7h-1.52v-6.48q0-2.58-2.08-2.58a2.11,2.11,0,0,0-1.65.65,2.58,2.58,0,0,0-.59,1.8v6.61H325v-6.48q0-2.58-2.08-2.58a2,2,0,0,0-1.66.68,2.76,2.76,0,0,0-.54,1.76v6.61Z" transform="translate(-11.84 -13.85)"/><path d="M347.28,166.22l1.27.83a5.07,5.07,0,0,1-1.65,1.86,4.5,4.5,0,0,1-2.63.74,4.39,4.39,0,0,1-3.41-1.47,5.63,5.63,0,0,1-1.33-3.92,5.71,5.71,0,0,1,1.3-3.92,4.28,4.28,0,0,1,3.36-1.47,4.2,4.2,0,0,1,3.31,1.45,5.77,5.77,0,0,1,1.27,4v.46h-7.67a4,4,0,0,0,.82,2.49,2.75,2.75,0,0,0,2.3,1,3.44,3.44,0,0,0,1.08-.16,3.81,3.81,0,0,0,.77-.33,2.29,2.29,0,0,0,.57-.54,6.08,6.08,0,0,0,.37-.49Zm-6.13-2.76h6.07a3.73,3.73,0,0,0-.77-2.24,3.09,3.09,0,0,0-4.51.07A3.61,3.61,0,0,0,341.16,163.46Z" transform="translate(-11.84 -13.85)"/><path d="M351.39,171.21l1.33-.67a3.67,3.67,0,0,0,1,1.49,2.93,2.93,0,0,0,3.63-.17,2.84,2.84,0,0,0,.67-2v-1.37h0a3.52,3.52,0,0,1-2.83,1.18,4,4,0,0,1-3.26-1.46,5.9,5.9,0,0,1-1.23-3.93,5.77,5.77,0,0,1,1.28-3.92,4.06,4.06,0,0,1,3.19-1.47,3.47,3.47,0,0,1,2.87,1.27h0v-1h1.54v10.37a4.65,4.65,0,0,1-1.09,3.32,4,4,0,0,1-3,1.15,4.24,4.24,0,0,1-2.59-.76A4.05,4.05,0,0,1,351.39,171.21ZM358,166v-3.24a2.45,2.45,0,0,0-.72-1.71,2.5,2.5,0,0,0-1.92-.77,2.77,2.77,0,0,0-2.32,1,5.66,5.66,0,0,0,0,5.85,2.78,2.78,0,0,0,2.33,1,2.75,2.75,0,0,0,1.89-.66A2,2,0,0,0,358,166Z" transform="translate(-11.84 -13.85)"/><path d="M369.7,166.22,371,167a5.07,5.07,0,0,1-1.65,1.86,4.5,4.5,0,0,1-2.63.74,4.39,4.39,0,0,1-3.41-1.47,5.63,5.63,0,0,1-1.33-3.92,5.71,5.71,0,0,1,1.3-3.92,4.28,4.28,0,0,1,3.36-1.47,4.2,4.2,0,0,1,3.31,1.45,5.77,5.77,0,0,1,1.27,4v.46h-7.67a4,4,0,0,0,.82,2.49,2.75,2.75,0,0,0,2.3,1,3.44,3.44,0,0,0,1.08-.16,3.81,3.81,0,0,0,.77-.33,2.29,2.29,0,0,0,.57-.54,6.08,6.08,0,0,0,.37-.49Zm-6.13-2.76h6.07a3.73,3.73,0,0,0-.77-2.24,3.09,3.09,0,0,0-4.51.07A3.61,3.61,0,0,0,363.57,163.46Z" transform="translate(-11.84 -13.85)"/><path d="M372.93,165.89l1.48-.29a2.61,2.61,0,0,0,2.83,2.68,3.07,3.07,0,0,0,1.82-.44,1.39,1.39,0,0,0,.61-1.18,1.3,1.3,0,0,0-.57-1.16,9.43,9.43,0,0,0-2.38-.89,7.22,7.22,0,0,1-2.66-1.18,2.2,2.2,0,0,1-.77-1.77,2.56,2.56,0,0,1,.94-2,3.78,3.78,0,0,1,2.6-.84,4.09,4.09,0,0,1,2.66.8,3.84,3.84,0,0,1,1.31,2.13l-1.37.37a2.5,2.5,0,0,0-2.6-1.95,2.45,2.45,0,0,0-1.54.42,1.25,1.25,0,0,0-.54,1,1,1,0,0,0,.52.94,12.8,12.8,0,0,0,2.39.85,6.58,6.58,0,0,1,2.73,1.28,2.67,2.67,0,0,1,.76,2,2.75,2.75,0,0,1-1,2.1,5.16,5.16,0,0,1-6-.16A4.28,4.28,0,0,1,372.93,165.89Z" transform="translate(-11.84 -13.85)"/><path d="M383.94,166.39v-5.84h-1.43v-1.41H384v-2.51h1.5v2.51H388v1.41h-2.5v5.65a2.36,2.36,0,0,0,.25,1.27,1.14,1.14,0,0,0,1,.37h.77v1.52h-.85a2.64,2.64,0,0,1-2.09-.74A3.31,3.31,0,0,1,383.94,166.39Z" transform="translate(-11.84 -13.85)"/><path d="M396.15,169.36v-1.12h0a2.8,2.8,0,0,1-1.1,1,4.1,4.1,0,0,1-2,.45,3.61,3.61,0,0,1-2.57-.83,2.74,2.74,0,0,1-.88-2.08,2.58,2.58,0,0,1,.78-2,6.27,6.27,0,0,1,2.65-1.2l1-.27c.23-.06.48-.15.78-.26a2.37,2.37,0,0,0,.64-.32,1.53,1.53,0,0,0,.34-.39,1,1,0,0,0,.14-.52,1.35,1.35,0,0,0-.53-1.09,2.51,2.51,0,0,0-1.61-.43,2.31,2.31,0,0,0-2.49,2l-1.43-.4a3.62,3.62,0,0,1,1.25-2.19,3.92,3.92,0,0,1,2.6-.84,4.19,4.19,0,0,1,2.8.88,3.41,3.41,0,0,1,1,2.75v6.88Zm-2.81-4.61a4.73,4.73,0,0,0-1.78.79,1.41,1.41,0,0,0-.47,1.1q0,1.6,2,1.6a3.26,3.26,0,0,0,2.14-.63,1.93,1.93,0,0,0,.75-1.53v-2.54h0Q395.69,164.1,393.34,164.75Z" transform="translate(-11.84 -13.85)"/><path d="M399.76,165.89l1.48-.29a2.61,2.61,0,0,0,2.83,2.68,3.07,3.07,0,0,0,1.82-.44,1.38,1.38,0,0,0,.61-1.18,1.31,1.31,0,0,0-.57-1.16,9.43,9.43,0,0,0-2.38-.89,7.22,7.22,0,0,1-2.66-1.18,2.2,2.2,0,0,1-.77-1.77,2.56,2.56,0,0,1,.94-2,3.78,3.78,0,0,1,2.6-.84,4.09,4.09,0,0,1,2.66.8,3.84,3.84,0,0,1,1.31,2.13l-1.37.37a2.5,2.5,0,0,0-2.6-1.95,2.45,2.45,0,0,0-1.54.42,1.25,1.25,0,0,0-.54,1,1,1,0,0,0,.52.94,12.83,12.83,0,0,0,2.39.85,6.59,6.59,0,0,1,2.73,1.28,2.67,2.67,0,0,1,.76,2,2.75,2.75,0,0,1-1,2.1,5.16,5.16,0,0,1-6-.16A4.29,4.29,0,0,1,399.76,165.89Z" transform="translate(-11.84 -13.85)"/><path d="M410.39,169.36v-2.27h2.27v2.27Z" transform="translate(-11.84 -13.85)"/><path d="M176.76,223.64V207.9h1.87v14h6.83v1.71Z" transform="translate(-11.84 -13.85)"/><path d="M192.57,224a5,5,0,0,1-3.89-1.66,6.59,6.59,0,0,1-1.53-4.63,6.49,6.49,0,0,1,1.57-4.61,5.06,5.06,0,0,1,3.84-1.69,4.94,4.94,0,0,1,3.79,1.69,6.58,6.58,0,0,1,1.54,4.61,6.65,6.65,0,0,1-1.51,4.63A4.93,4.93,0,0,1,192.57,224Zm0-1.66a3.1,3.1,0,0,0,2.51-1.22,6.33,6.33,0,0,0,0-6.81,3.1,3.1,0,0,0-2.52-1.22,3.23,3.23,0,0,0-2.59,1.2,6.31,6.31,0,0,0,0,6.86A3.22,3.22,0,0,0,192.57,222.31Z" transform="translate(-11.84 -13.85)"/><path d="M200.82,223.64V211.72h1.75V213h0a2.5,2.5,0,0,1,1.06-1.1,2.91,2.91,0,0,1,1.42-.38,2.47,2.47,0,0,1,.53.06l.39.1.11.07-.34,1.82a2,2,0,0,0-.94-.18,1.87,1.87,0,0,0-1.66.75,4.37,4.37,0,0,0-.52,2.42v7.08Z" transform="translate(-11.84 -13.85)"/><path d="M216.85,220l1.48,1a5.91,5.91,0,0,1-1.92,2.17,5.25,5.25,0,0,1-3.07.87,5.12,5.12,0,0,1-4-1.72,6.58,6.58,0,0,1-1.55-4.58,6.66,6.66,0,0,1,1.52-4.57,5,5,0,0,1,3.92-1.72,4.91,4.91,0,0,1,3.87,1.69,6.74,6.74,0,0,1,1.48,4.61v.54h-8.95a4.67,4.67,0,0,0,1,2.9,3.21,3.21,0,0,0,2.69,1.19,4,4,0,0,0,1.26-.19,4.56,4.56,0,0,0,.9-.38,2.65,2.65,0,0,0,.66-.63,7,7,0,0,0,.43-.57Zm-7.15-3.21h7.08a4.36,4.36,0,0,0-.9-2.61,3.6,3.6,0,0,0-5.26.08A4.21,4.21,0,0,0,209.7,216.76Z" transform="translate(-11.84 -13.85)"/><path d="M221.52,223.64V211.72h1.66v1.15h0a3.13,3.13,0,0,1,1.26-1.07,3.93,3.93,0,0,1,1.78-.42,3.52,3.52,0,0,1,1.92.51,3.61,3.61,0,0,1,1.23,1.25h0a3.57,3.57,0,0,1,1.32-1.24,4,4,0,0,1,2-.52,3.84,3.84,0,0,1,4.11,4.14v8.12h-1.78v-7.55q0-3-2.43-3a2.46,2.46,0,0,0-1.92.75,3,3,0,0,0-.69,2.1v7.71h-1.78v-7.55q0-3-2.43-3a2.31,2.31,0,0,0-1.93.8,3.23,3.23,0,0,0-.63,2.06v7.71Z" transform="translate(-11.84 -13.85)"/><path d="M246,209.32v-2.09h2.11v2.09Zm.13,14.32V211.72H248v11.92Z" transform="translate(-11.84 -13.85)"/><path d="M251.85,228.7v-17h1.75v1.15h0a4.09,4.09,0,0,1,1.35-1,4.47,4.47,0,0,1,2.07-.46,4.7,4.7,0,0,1,3.71,1.72,6.76,6.76,0,0,1,1.48,4.57,6.89,6.89,0,0,1-1.44,4.59,4.67,4.67,0,0,1-3.75,1.71,4.36,4.36,0,0,1-2-.47,3.53,3.53,0,0,1-1.3-1h0v6.21Zm1.84-12.75v3.78a2.36,2.36,0,0,0,.88,1.81,3.17,3.17,0,0,0,2.18.77,3.27,3.27,0,0,0,2.73-1.21,6.53,6.53,0,0,0,0-6.82,3.27,3.27,0,0,0-2.72-1.22,2.9,2.9,0,0,0-2.22.9A2.87,2.87,0,0,0,253.69,215.95Z" transform="translate(-11.84 -13.85)"/><path d="M264.28,219.59l1.73-.34q.34,3.12,3.3,3.12a3.59,3.59,0,0,0,2.12-.52,1.62,1.62,0,0,0,.71-1.37,1.52,1.52,0,0,0-.66-1.35,11,11,0,0,0-2.78-1,8.41,8.41,0,0,1-3.1-1.37,2.57,2.57,0,0,1-.9-2.07,3,3,0,0,1,1.1-2.3,4.41,4.41,0,0,1,3-1,4.78,4.78,0,0,1,3.1.93,4.49,4.49,0,0,1,1.53,2.48l-1.6.43a2.91,2.91,0,0,0-3-2.27,2.86,2.86,0,0,0-1.8.49,1.46,1.46,0,0,0-.63,1.17,1.19,1.19,0,0,0,.61,1.1,15,15,0,0,0,2.79,1,7.7,7.7,0,0,1,3.18,1.49,3.12,3.12,0,0,1,.89,2.28,3.21,3.21,0,0,1-1.14,2.45,6,6,0,0,1-7-.19A5,5,0,0,1,264.28,219.59Z" transform="translate(-11.84 -13.85)"/><path d="M276.58,219.48v-7.76h1.84v7.49a3.46,3.46,0,0,0,.64,2.36,2.77,2.77,0,0,0,2.12.7,2.58,2.58,0,0,0,2.07-.83,3.42,3.42,0,0,0,.72-2.31v-7.4h1.82v11.92H284v-1.15h0a4.77,4.77,0,0,1-.34.4,4.13,4.13,0,0,1-1,.66,3.89,3.89,0,0,1-1.79.42,4.15,4.15,0,0,1-3.09-1.12A4.6,4.6,0,0,1,276.58,219.48Z" transform="translate(-11.84 -13.85)"/><path d="M289.51,223.64V211.72h1.66v1.15h0a3.13,3.13,0,0,1,1.26-1.07,3.93,3.93,0,0,1,1.78-.42,3.52,3.52,0,0,1,1.92.51,3.61,3.61,0,0,1,1.23,1.25h0a3.57,3.57,0,0,1,1.32-1.24,4,4,0,0,1,2-.52,3.84,3.84,0,0,1,4.11,4.14v8.12h-1.78v-7.55q0-3-2.43-3a2.46,2.46,0,0,0-1.92.75,3,3,0,0,0-.69,2.1v7.71h-1.78v-7.55q0-3-2.43-3a2.31,2.31,0,0,0-1.93.8,3.23,3.23,0,0,0-.63,2.06v7.71Z" transform="translate(-11.84 -13.85)"/><path d="M321.93,223.64v-1.15h0a4.31,4.31,0,0,1-1.38,1,5,5,0,0,1-5.87-1.25,7,7,0,0,1-1.41-4.59,6.79,6.79,0,0,1,1.47-4.57,4.67,4.67,0,0,1,3.7-1.72,4.13,4.13,0,0,1,3.3,1.48h0v-5.64h1.84v16.41Zm-.18-4V216a2.94,2.94,0,0,0-.83-2,2.87,2.87,0,0,0-2.23-.91,3.18,3.18,0,0,0-2.7,1.21,6.8,6.8,0,0,0,0,6.83,3.18,3.18,0,0,0,2.7,1.21,3.15,3.15,0,0,0,2.18-.79A2.41,2.41,0,0,0,321.74,219.68Z" transform="translate(-11.84 -13.85)"/><path d="M331.93,224a5,5,0,0,1-3.89-1.66,6.59,6.59,0,0,1-1.53-4.63,6.49,6.49,0,0,1,1.57-4.61,5.06,5.06,0,0,1,3.84-1.69,4.94,4.94,0,0,1,3.79,1.69,6.58,6.58,0,0,1,1.54,4.61,6.65,6.65,0,0,1-1.51,4.63A4.93,4.93,0,0,1,331.93,224Zm0-1.66a3.1,3.1,0,0,0,2.51-1.22,6.33,6.33,0,0,0,0-6.81,3.1,3.1,0,0,0-2.52-1.22,3.23,3.23,0,0,0-2.59,1.2,6.31,6.31,0,0,0,0,6.86A3.22,3.22,0,0,0,331.93,222.31Z" transform="translate(-11.84 -13.85)"/><path d="M340.18,223.64V207.23H342v16.41Z" transform="translate(-11.84 -13.85)"/><path d="M350.39,224a5,5,0,0,1-3.89-1.66,6.59,6.59,0,0,1-1.53-4.63,6.49,6.49,0,0,1,1.57-4.61,5.06,5.06,0,0,1,3.84-1.69,4.94,4.94,0,0,1,3.79,1.69,6.58,6.58,0,0,1,1.54,4.61,6.65,6.65,0,0,1-1.51,4.63A4.93,4.93,0,0,1,350.39,224Zm0-1.66a3.1,3.1,0,0,0,2.51-1.22,6.33,6.33,0,0,0,0-6.81,3.1,3.1,0,0,0-2.52-1.22,3.23,3.23,0,0,0-2.59,1.2,6.31,6.31,0,0,0,0,6.86A3.22,3.22,0,0,0,350.39,222.31Z" transform="translate(-11.84 -13.85)"/><path d="M358.64,223.64V211.72h1.75V213h0a2.5,2.5,0,0,1,1.06-1.1,2.91,2.91,0,0,1,1.42-.38,2.47,2.47,0,0,1,.53.06l.39.1.11.07-.34,1.82a2,2,0,0,0-.94-.18,1.87,1.87,0,0,0-1.66.75,4.37,4.37,0,0,0-.52,2.42v7.08Z" transform="translate(-11.84 -13.85)"/><path d="M371,219.59l1.73-.34q.34,3.12,3.3,3.12a3.59,3.59,0,0,0,2.12-.52,1.62,1.62,0,0,0,.71-1.37,1.52,1.52,0,0,0-.66-1.35,11,11,0,0,0-2.78-1,8.41,8.41,0,0,1-3.1-1.37,2.57,2.57,0,0,1-.9-2.07,3,3,0,0,1,1.1-2.3,4.41,4.41,0,0,1,3-1,4.78,4.78,0,0,1,3.1.93,4.49,4.49,0,0,1,1.53,2.48l-1.6.43a2.91,2.91,0,0,0-3-2.27,2.86,2.86,0,0,0-1.8.49,1.46,1.46,0,0,0-.63,1.17,1.19,1.19,0,0,0,.61,1.1,15,15,0,0,0,2.79,1,7.7,7.7,0,0,1,3.18,1.49,3.12,3.12,0,0,1,.89,2.28,3.21,3.21,0,0,1-1.14,2.45,6,6,0,0,1-7-.19A5,5,0,0,1,371,219.59Z" transform="translate(-11.84 -13.85)"/><path d="M383.43,209.32v-2.09h2.11v2.09Zm.13,14.32V211.72h1.84v11.92Z" transform="translate(-11.84 -13.85)"/><path d="M389.68,220.18v-6.81H388v-1.64h1.71V208.8h1.75v2.92h2.95v1.64H391.5V220a2.75,2.75,0,0,0,.29,1.48,1.33,1.33,0,0,0,1.17.43h.9v1.78h-1a3.08,3.08,0,0,1-2.44-.87A3.86,3.86,0,0,1,389.68,220.18Z" transform="translate(-11.84 -13.85)"/><path d="M409.67,223.64v-1.3h0a3.28,3.28,0,0,1-1.28,1.11A4.77,4.77,0,0,1,406,224a4.21,4.21,0,0,1-3-1,3.2,3.2,0,0,1-1-2.43,3,3,0,0,1,.91-2.33,7.29,7.29,0,0,1,3.09-1.41l1.2-.32q.39-.11.91-.3a2.82,2.82,0,0,0,.74-.37,1.74,1.74,0,0,0,.39-.45,1.11,1.11,0,0,0,.17-.61,1.58,1.58,0,0,0-.62-1.27,2.93,2.93,0,0,0-1.88-.5,2.7,2.7,0,0,0-2.9,2.36l-1.66-.47a4.22,4.22,0,0,1,1.46-2.55,4.57,4.57,0,0,1,3-1,4.9,4.9,0,0,1,3.27,1,4,4,0,0,1,1.2,3.2v8Zm-3.28-5.37a5.52,5.52,0,0,0-2.08.92,1.64,1.64,0,0,0-.55,1.28q0,1.87,2.36,1.87a3.8,3.8,0,0,0,2.5-.73,2.25,2.25,0,0,0,.88-1.79v-3h0Q409.13,217.5,406.39,218.27Z" transform="translate(-11.84 -13.85)"/><path d="M414.77,223.64V211.72h1.66v1.15h0a3.14,3.14,0,0,1,1.26-1.07,3.94,3.94,0,0,1,1.78-.42,3.52,3.52,0,0,1,1.92.51,3.61,3.61,0,0,1,1.23,1.25h0A3.58,3.58,0,0,1,424,211.9a4,4,0,0,1,2-.52,3.84,3.84,0,0,1,4.11,4.14v8.12H428.4v-7.55q0-3-2.43-3a2.47,2.47,0,0,0-1.92.75,3,3,0,0,0-.69,2.1v7.71h-1.78v-7.55q0-3-2.43-3a2.31,2.31,0,0,0-1.93.8,3.23,3.23,0,0,0-.63,2.06v7.71Z" transform="translate(-11.84 -13.85)"/><path d="M442,220l1.48,1a5.91,5.91,0,0,1-1.92,2.17,5.25,5.25,0,0,1-3.07.87,5.11,5.11,0,0,1-4-1.72,6.57,6.57,0,0,1-1.55-4.58,6.66,6.66,0,0,1,1.52-4.57,5,5,0,0,1,3.92-1.72,4.91,4.91,0,0,1,3.87,1.69,6.74,6.74,0,0,1,1.48,4.61v.54h-8.95a4.68,4.68,0,0,0,1,2.9,3.21,3.21,0,0,0,2.69,1.19,4,4,0,0,0,1.26-.19,4.55,4.55,0,0,0,.9-.38,2.67,2.67,0,0,0,.66-.63,7,7,0,0,0,.43-.57Zm-7.15-3.21H442a4.37,4.37,0,0,0-.9-2.61,3.6,3.6,0,0,0-5.26.08A4.2,4.2,0,0,0,434.87,216.76Z" transform="translate(-11.84 -13.85)"/><path d="M447.12,220.18v-6.81h-1.66v-1.64h1.71V208.8h1.75v2.92h2.95v1.64h-2.92V220a2.76,2.76,0,0,0,.29,1.48,1.33,1.33,0,0,0,1.17.43h.9v1.78h-1a3.08,3.08,0,0,1-2.44-.87A3.86,3.86,0,0,1,447.12,220.18Z" transform="translate(-11.84 -13.85)"/><path d="M454.9,226v-1a1.23,1.23,0,0,0,1.08-1.37H454.9V221h2.65v2.31A2.48,2.48,0,0,1,454.9,226Z" transform="translate(-11.84 -13.85)"/><path d="M176.42,248.71v-7.76h1.84v7.49a3.46,3.46,0,0,0,.64,2.36,2.78,2.78,0,0,0,2.12.7,2.58,2.58,0,0,0,2.07-.83,3.43,3.43,0,0,0,.72-2.32v-7.4h1.82v11.92h-1.8v-1.15h0a4.77,4.77,0,0,1-.34.4,4.13,4.13,0,0,1-1,.66,3.91,3.91,0,0,1-1.79.42,4.15,4.15,0,0,1-3.09-1.12A4.61,4.61,0,0,1,176.42,248.71Z" transform="translate(-11.84 -13.85)"/><path d="M189.35,252.86V236.45h1.87v16.41Z" transform="translate(-11.84 -13.85)"/><path d="M194.93,252.86V236.45h1.87v16.41Z" transform="translate(-11.84 -13.85)"/><path d="M207.43,252.86v-1.3h0a3.28,3.28,0,0,1-1.28,1.11,4.79,4.79,0,0,1-2.36.53,4.21,4.21,0,0,1-3-1,3.2,3.2,0,0,1-1-2.43,3,3,0,0,1,.91-2.33,7.31,7.31,0,0,1,3.09-1.41l1.2-.31q.39-.11.91-.3a2.77,2.77,0,0,0,.74-.37,1.78,1.78,0,0,0,.39-.45,1.12,1.12,0,0,0,.17-.61,1.58,1.58,0,0,0-.62-1.27,2.93,2.93,0,0,0-1.88-.51,2.7,2.7,0,0,0-2.9,2.36l-1.66-.47a4.23,4.23,0,0,1,1.46-2.55,4.58,4.58,0,0,1,3-1,4.89,4.89,0,0,1,3.27,1,4,4,0,0,1,1.2,3.2v8Zm-3.28-5.37a5.52,5.52,0,0,0-2.08.92,1.64,1.64,0,0,0-.55,1.28q0,1.87,2.36,1.87a3.8,3.8,0,0,0,2.5-.73,2.24,2.24,0,0,0,.88-1.79v-3h0Q206.89,246.73,204.14,247.49Z" transform="translate(-11.84 -13.85)"/><path d="M212.53,252.86V240.95h1.66v1.15h0A3.13,3.13,0,0,1,215.5,241a3.91,3.91,0,0,1,1.78-.42,3.52,3.52,0,0,1,1.92.5,3.6,3.6,0,0,1,1.23,1.25h0a3.56,3.56,0,0,1,1.32-1.24,4,4,0,0,1,2-.52,3.84,3.84,0,0,1,4.11,4.14v8.12h-1.78v-7.55q0-3-2.43-3a2.47,2.47,0,0,0-1.92.75,3,3,0,0,0-.69,2.1v7.71h-1.78v-7.55q0-3-2.43-3a2.31,2.31,0,0,0-1.93.8,3.22,3.22,0,0,0-.63,2.06v7.71Z" transform="translate(-11.84 -13.85)"/><path d="M239.35,248.3l1.78.36a5.33,5.33,0,0,1-1.64,3.3,4.74,4.74,0,0,1-3.33,1.24,5,5,0,0,1-3.91-1.67,6.66,6.66,0,0,1-1.51-4.62,6.56,6.56,0,0,1,1.55-4.6,5,5,0,0,1,3.87-1.7,4.66,4.66,0,0,1,3.25,1.21A5.14,5.14,0,0,1,241,245l-1.73.36a4.65,4.65,0,0,0-1-2.19,2.68,2.68,0,0,0-2.11-.87,3.19,3.19,0,0,0-2.61,1.23,5.28,5.28,0,0,0-1,3.41,5.37,5.37,0,0,0,1,3.39,3.18,3.18,0,0,0,2.65,1.24,2.73,2.73,0,0,0,2.16-1A4.27,4.27,0,0,0,239.35,248.3Z" transform="translate(-11.84 -13.85)"/><path d="M248.57,253.2a5.05,5.05,0,0,1-3.89-1.66,6.59,6.59,0,0,1-1.53-4.63,6.48,6.48,0,0,1,1.57-4.61,5.06,5.06,0,0,1,3.84-1.69,4.93,4.93,0,0,1,3.79,1.69,6.58,6.58,0,0,1,1.54,4.61,6.65,6.65,0,0,1-1.51,4.63A4.93,4.93,0,0,1,248.57,253.2Zm0-1.66a3.1,3.1,0,0,0,2.51-1.22,6.33,6.33,0,0,0,0-6.81,3.1,3.1,0,0,0-2.52-1.23,3.23,3.23,0,0,0-2.59,1.2,6.32,6.32,0,0,0,0,6.86A3.23,3.23,0,0,0,248.57,251.54Z" transform="translate(-11.84 -13.85)"/><path d="M256.82,252.86V240.95h1.75v1.28h0a2.51,2.51,0,0,1,1.06-1.1,2.92,2.92,0,0,1,1.42-.38,2.58,2.58,0,0,1,.53.05l.39.1.11.07-.34,1.82a2,2,0,0,0-.94-.18,1.87,1.87,0,0,0-1.66.75,4.37,4.37,0,0,0-.52,2.42v7.08Z" transform="translate(-11.84 -13.85)"/><path d="M264.6,257.92v-17h1.75v1.15h0a4.07,4.07,0,0,1,1.35-1,4.47,4.47,0,0,1,2.07-.46,4.7,4.7,0,0,1,3.71,1.72,6.76,6.76,0,0,1,1.48,4.58,6.89,6.89,0,0,1-1.44,4.59,4.67,4.67,0,0,1-3.75,1.71,4.38,4.38,0,0,1-2-.47,3.55,3.55,0,0,1-1.3-1h0v6.2Zm1.84-12.75V249a2.35,2.35,0,0,0,.88,1.81,3.17,3.17,0,0,0,2.18.78,3.27,3.27,0,0,0,2.73-1.21,6.53,6.53,0,0,0,0-6.82,3.27,3.27,0,0,0-2.72-1.23,2.9,2.9,0,0,0-2.22.9A2.86,2.86,0,0,0,266.44,245.18Z" transform="translate(-11.84 -13.85)"/><path d="M286.18,249.2l1.48,1a5.92,5.92,0,0,1-1.92,2.17,5.25,5.25,0,0,1-3.07.87,5.12,5.12,0,0,1-4-1.72,6.57,6.57,0,0,1-1.55-4.57,6.67,6.67,0,0,1,1.52-4.58,5,5,0,0,1,3.92-1.72,4.91,4.91,0,0,1,3.87,1.69,6.73,6.73,0,0,1,1.48,4.61v.54H279a4.66,4.66,0,0,0,1,2.9,3.21,3.21,0,0,0,2.69,1.19,4,4,0,0,0,1.26-.19,4.38,4.38,0,0,0,.9-.38,2.67,2.67,0,0,0,.66-.63,6.69,6.69,0,0,0,.43-.57ZM279,246h7.08a4.36,4.36,0,0,0-.9-2.61,3.6,3.6,0,0,0-5.26.08A4.22,4.22,0,0,0,279,246Z" transform="translate(-11.84 -13.85)"/><path d="M290.86,252.86V240.95h1.75v1.28h0a2.51,2.51,0,0,1,1.06-1.1,2.92,2.92,0,0,1,1.42-.38,2.58,2.58,0,0,1,.53.05l.39.1.11.07-.34,1.82a2,2,0,0,0-.94-.18,1.87,1.87,0,0,0-1.66.75,4.37,4.37,0,0,0-.52,2.42v7.08Z" transform="translate(-11.84 -13.85)"/><path d="M304.14,252.86V236.45H306v16.41Z" transform="translate(-11.84 -13.85)"/><path d="M314.35,253.2a5.05,5.05,0,0,1-3.89-1.66,6.59,6.59,0,0,1-1.53-4.63,6.48,6.48,0,0,1,1.57-4.61,5.06,5.06,0,0,1,3.84-1.69,4.93,4.93,0,0,1,3.79,1.69,6.58,6.58,0,0,1,1.54,4.61,6.65,6.65,0,0,1-1.51,4.63A4.93,4.93,0,0,1,314.35,253.2Zm0-1.66a3.1,3.1,0,0,0,2.51-1.22,6.33,6.33,0,0,0,0-6.81,3.1,3.1,0,0,0-2.52-1.23,3.23,3.23,0,0,0-2.59,1.2,6.32,6.32,0,0,0,0,6.86A3.23,3.23,0,0,0,314.35,251.54Z" transform="translate(-11.84 -13.85)"/><path d="M322.6,252.86V240.95h1.75v1.28h0a2.51,2.51,0,0,1,1.06-1.1,2.92,2.92,0,0,1,1.42-.38,2.58,2.58,0,0,1,.53.05l.39.1.11.07-.34,1.82a2,2,0,0,0-.94-.18,1.87,1.87,0,0,0-1.66.75,4.37,4.37,0,0,0-.52,2.42v7.08Z" transform="translate(-11.84 -13.85)"/><path d="M338.63,249.2l1.48,1a5.92,5.92,0,0,1-1.92,2.17,5.25,5.25,0,0,1-3.07.87,5.12,5.12,0,0,1-4-1.72,6.57,6.57,0,0,1-1.55-4.57,6.67,6.67,0,0,1,1.52-4.58,5,5,0,0,1,3.92-1.72,4.91,4.91,0,0,1,3.87,1.69,6.73,6.73,0,0,1,1.48,4.61v.54h-8.95a4.66,4.66,0,0,0,1,2.9,3.21,3.21,0,0,0,2.69,1.19,4,4,0,0,0,1.26-.19,4.38,4.38,0,0,0,.9-.38,2.67,2.67,0,0,0,.66-.63,6.69,6.69,0,0,0,.43-.57ZM331.48,246h7.08a4.36,4.36,0,0,0-.9-2.61,3.6,3.6,0,0,0-5.26.08A4.22,4.22,0,0,0,331.48,246Z" transform="translate(-11.84 -13.85)"/><path d="M343.3,252.86V240.95H345v1.15h0a3.13,3.13,0,0,1,1.26-1.07,3.91,3.91,0,0,1,1.78-.42,3.52,3.52,0,0,1,1.92.5,3.6,3.6,0,0,1,1.23,1.25h0a3.56,3.56,0,0,1,1.32-1.24,4,4,0,0,1,2-.52,3.84,3.84,0,0,1,4.11,4.14v8.12h-1.78v-7.55q0-3-2.43-3a2.47,2.47,0,0,0-1.92.75,3,3,0,0,0-.69,2.1v7.71h-1.78v-7.55q0-3-2.43-3a2.31,2.31,0,0,0-1.93.8,3.22,3.22,0,0,0-.63,2.06v7.71Z" transform="translate(-11.84 -13.85)"/><path d="M376.06,249.2l1.48,1a5.92,5.92,0,0,1-1.92,2.17,5.25,5.25,0,0,1-3.07.87,5.12,5.12,0,0,1-4-1.72,6.57,6.57,0,0,1-1.55-4.57,6.67,6.67,0,0,1,1.52-4.58,5,5,0,0,1,3.92-1.72,4.91,4.91,0,0,1,3.87,1.69,6.73,6.73,0,0,1,1.48,4.61v.54h-8.95a4.66,4.66,0,0,0,1,2.9,3.21,3.21,0,0,0,2.69,1.19,4,4,0,0,0,1.26-.19,4.38,4.38,0,0,0,.9-.38,2.67,2.67,0,0,0,.66-.63,6.69,6.69,0,0,0,.43-.57ZM368.91,246H376a4.36,4.36,0,0,0-.9-2.61,3.6,3.6,0,0,0-5.26.08A4.22,4.22,0,0,0,368.91,246Z" transform="translate(-11.84 -13.85)"/><path d="M380.85,255l1.55-.79a4.29,4.29,0,0,0,1.11,1.74,3.41,3.41,0,0,0,4.24-.2,3.31,3.31,0,0,0,.79-2.35v-1.6h0a4.11,4.11,0,0,1-3.3,1.37,4.72,4.72,0,0,1-3.8-1.71,6.88,6.88,0,0,1-1.44-4.59,6.73,6.73,0,0,1,1.49-4.58,4.73,4.73,0,0,1,3.72-1.72,4.05,4.05,0,0,1,3.35,1.48h0v-1.15h1.8V253a5.42,5.42,0,0,1-1.27,3.88,4.62,4.62,0,0,1-3.52,1.34,5,5,0,0,1-3-.89A4.74,4.74,0,0,1,380.85,255Zm7.69-6.07v-3.78a2.86,2.86,0,0,0-.84-2,2.92,2.92,0,0,0-2.24-.9,3.24,3.24,0,0,0-2.71,1.23,6.6,6.6,0,0,0,0,6.82,3.24,3.24,0,0,0,2.72,1.21,3.2,3.2,0,0,0,2.2-.78A2.35,2.35,0,0,0,388.54,249Z" transform="translate(-11.84 -13.85)"/><path d="M402.21,249.2l1.48,1a5.91,5.91,0,0,1-1.92,2.17,5.26,5.26,0,0,1-3.07.87,5.12,5.12,0,0,1-4-1.72,6.57,6.57,0,0,1-1.55-4.57,6.67,6.67,0,0,1,1.52-4.58,5,5,0,0,1,3.92-1.72,4.91,4.91,0,0,1,3.87,1.69,6.73,6.73,0,0,1,1.48,4.61v.54H395a4.65,4.65,0,0,0,1,2.9,3.21,3.21,0,0,0,2.69,1.19,4,4,0,0,0,1.26-.19,4.39,4.39,0,0,0,.9-.38,2.66,2.66,0,0,0,.66-.63,6.77,6.77,0,0,0,.43-.57ZM395.06,246h7.08a4.35,4.35,0,0,0-.9-2.61,3.6,3.6,0,0,0-5.26.08A4.23,4.23,0,0,0,395.06,246Z" transform="translate(-11.84 -13.85)"/><path d="M406,248.82l1.73-.34q.34,3.13,3.3,3.13a3.59,3.59,0,0,0,2.12-.52,1.62,1.62,0,0,0,.71-1.37,1.52,1.52,0,0,0-.66-1.35,11,11,0,0,0-2.78-1,8.41,8.41,0,0,1-3.1-1.37,2.57,2.57,0,0,1-.9-2.07,3,3,0,0,1,1.1-2.31,4.41,4.41,0,0,1,3-1,4.76,4.76,0,0,1,3.1.93,4.47,4.47,0,0,1,1.53,2.48l-1.6.43a2.91,2.91,0,0,0-3-2.27,2.85,2.85,0,0,0-1.8.5,1.45,1.45,0,0,0-.63,1.17,1.19,1.19,0,0,0,.61,1.1,14.86,14.86,0,0,0,2.79,1,7.69,7.69,0,0,1,3.18,1.5,3.1,3.1,0,0,1,.89,2.28,3.2,3.2,0,0,1-1.14,2.45,6,6,0,0,1-7-.19A5,5,0,0,1,406,248.82Z" transform="translate(-11.84 -13.85)"/><path d="M418.82,249.4v-6.81h-1.66v-1.64h1.71V238h1.75v2.92h2.95v1.64h-2.92v6.59a2.76,2.76,0,0,0,.29,1.48,1.34,1.34,0,0,0,1.17.43h.9v1.78h-1a3.08,3.08,0,0,1-2.44-.87A3.87,3.87,0,0,1,418.82,249.4Z" transform="translate(-11.84 -13.85)"/><path d="M433.07,252.86v-1.3h0a3.28,3.28,0,0,1-1.28,1.11,4.79,4.79,0,0,1-2.36.53,4.21,4.21,0,0,1-3-1,3.2,3.2,0,0,1-1-2.43,3,3,0,0,1,.91-2.33,7.31,7.31,0,0,1,3.09-1.41l1.2-.31q.39-.11.91-.3a2.77,2.77,0,0,0,.74-.37,1.76,1.76,0,0,0,.39-.45,1.12,1.12,0,0,0,.17-.61,1.58,1.58,0,0,0-.62-1.27,2.93,2.93,0,0,0-1.88-.51,2.7,2.7,0,0,0-2.9,2.36l-1.66-.47a4.23,4.23,0,0,1,1.46-2.55,4.58,4.58,0,0,1,3-1,4.89,4.89,0,0,1,3.27,1,4,4,0,0,1,1.2,3.2v8Zm-3.28-5.37a5.52,5.52,0,0,0-2.08.92,1.65,1.65,0,0,0-.55,1.28q0,1.87,2.36,1.87a3.8,3.8,0,0,0,2.5-.73,2.24,2.24,0,0,0,.88-1.79v-3h0Q432.53,246.73,429.79,247.49Z" transform="translate(-11.84 -13.85)"/><path d="M437.28,248.82l1.73-.34q.34,3.13,3.3,3.13a3.59,3.59,0,0,0,2.12-.52,1.62,1.62,0,0,0,.71-1.37,1.52,1.52,0,0,0-.66-1.35,11,11,0,0,0-2.78-1,8.41,8.41,0,0,1-3.1-1.37,2.57,2.57,0,0,1-.9-2.07,3,3,0,0,1,1.1-2.31,4.41,4.41,0,0,1,3-1,4.76,4.76,0,0,1,3.1.93,4.47,4.47,0,0,1,1.53,2.48l-1.6.43a2.91,2.91,0,0,0-3-2.27,2.85,2.85,0,0,0-1.8.5,1.45,1.45,0,0,0-.63,1.17,1.19,1.19,0,0,0,.61,1.1,14.86,14.86,0,0,0,2.79,1,7.69,7.69,0,0,1,3.18,1.5,3.1,3.1,0,0,1,.89,2.28,3.2,3.2,0,0,1-1.14,2.45,6,6,0,0,1-7-.19A5,5,0,0,1,437.28,248.82Z" transform="translate(-11.84 -13.85)"/><path d="M449.69,252.86v-2.65h2.65v2.65Z" transform="translate(-11.84 -13.85)"/><path d="M17.32,22.64a3.48,3.48,0,0,1-2.29.72,3.53,3.53,0,0,1-2.31-.72,2.46,2.46,0,0,1-.88-2,2.3,2.3,0,0,1,.5-1.48,2.47,2.47,0,0,1,1.18-.85v0a1.93,1.93,0,0,1-.85-.73,2.19,2.19,0,0,1-.34-1.25,2.16,2.16,0,0,1,.74-1.62A2.75,2.75,0,0,1,15,14a2.75,2.75,0,0,1,2,.69,2.25,2.25,0,0,1,.39,2.87,2,2,0,0,1-.85.73v0a2.55,2.55,0,0,1,1.18.86,2.31,2.31,0,0,1,.48,1.46A2.47,2.47,0,0,1,17.32,22.64ZM15,22.36a2.21,2.21,0,0,0,1.52-.49,1.63,1.63,0,0,0,.56-1.28,1.65,1.65,0,0,0-.58-1.31,2.21,2.21,0,0,0-1.5-.5,2.24,2.24,0,0,0-1.51.5,1.75,1.75,0,0,0,0,2.59A2.23,2.23,0,0,0,15,22.36Zm1.24-7A1.67,1.67,0,0,0,15,14.92a1.68,1.68,0,0,0-1.25.43,1.44,1.44,0,0,0-.42,1,1.41,1.41,0,0,0,.46,1.07A1.7,1.7,0,0,0,15,17.9a1.68,1.68,0,0,0,1.2-.43,1.42,1.42,0,0,0,.46-1.07A1.44,1.44,0,0,0,16.27,15.35Z" transform="translate(-11.84 -13.85)"/><path d="M19.74,26.06v-9.7h1V17h0a2.34,2.34,0,0,1,.77-.58,2.56,2.56,0,0,1,1.18-.26,2.69,2.69,0,0,1,2.12,1,3.86,3.86,0,0,1,.85,2.61,3.94,3.94,0,0,1-.82,2.62,2.67,2.67,0,0,1-2.15,1,2.5,2.5,0,0,1-1.16-.27,2,2,0,0,1-.74-.58h0v3.55Zm1.05-7.28v2.16a1.34,1.34,0,0,0,.5,1,1.81,1.81,0,0,0,1.25.44,1.87,1.87,0,0,0,1.56-.69,3.09,3.09,0,0,0,.55-2,3.07,3.07,0,0,0-.55-1.95,1.87,1.87,0,0,0-1.55-.7,1.65,1.65,0,0,0-1.26.51A1.64,1.64,0,0,0,20.79,18.78Z" transform="translate(-11.84 -13.85)"/><path d="M27.6,21.19V17.3h-1v-.94h1V14.69h1v1.67h1.68v.94H28.64v3.76a1.57,1.57,0,0,0,.17.85.76.76,0,0,0,.67.24H30v1h-.57A1.76,1.76,0,0,1,28,22.68,2.21,2.21,0,0,1,27.6,21.19Z" transform="translate(-11.84 -13.85)"/><path d="M35.31,21.19V17.3h-1v-.94h1V14.69h1v1.67H38v.94H36.35v3.76a1.57,1.57,0,0,0,.17.85.76.76,0,0,0,.67.24h.51v1h-.57a1.76,1.76,0,0,1-1.39-.49A2.21,2.21,0,0,1,35.31,21.19Z" transform="translate(-11.84 -13.85)"/><path d="M44.08,21.08l.85.55a3.38,3.38,0,0,1-1.1,1.24,3,3,0,0,1-1.75.49,2.92,2.92,0,0,1-2.27-1,3.75,3.75,0,0,1-.89-2.61,3.81,3.81,0,0,1,.87-2.61,2.85,2.85,0,0,1,2.24-1,2.8,2.8,0,0,1,2.21,1,3.85,3.85,0,0,1,.85,2.63v.31H40a2.66,2.66,0,0,0,.55,1.66,1.83,1.83,0,0,0,1.54.68,2.29,2.29,0,0,0,.72-.11,2.61,2.61,0,0,0,.51-.22,1.52,1.52,0,0,0,.38-.36,3.77,3.77,0,0,0,.24-.33ZM40,19.24h4a2.49,2.49,0,0,0-.51-1.49,2.06,2.06,0,0,0-3,0A2.41,2.41,0,0,0,40,19.24Z" transform="translate(-11.84 -13.85)"/><path d="M45.73,23.17,48,19.68l-2.16-3.32H47L48.68,19h0l1.66-2.62h1.14l-2.15,3.32,2.3,3.49H50.49l-1.8-2.8h0l-1.77,2.8Z" transform="translate(-11.84 -13.85)"/><path d="M53.26,21.19V17.3h-1v-.94h1V14.69h1v1.67H56v.94H54.3v3.76a1.57,1.57,0,0,0,.17.85.76.76,0,0,0,.67.24h.51v1h-.57a1.76,1.76,0,0,1-1.39-.49A2.21,2.21,0,0,1,53.26,21.19Z" transform="translate(-11.84 -13.85)"/><path d="M14.15,39.87V32.1l-1.94,1.22V32.16l2.07-1.29h.86v9Z" transform="translate(-11.84 -13.85)"/><path d="M21.06,40.06a2.86,2.86,0,0,1-2.47-1.25,6.08,6.08,0,0,1-.89-3.56,5.4,5.4,0,0,1,.93-3.39,3.08,3.08,0,0,1,4.85,0,5.43,5.43,0,0,1,.92,3.39,6.09,6.09,0,0,1-.89,3.56A2.85,2.85,0,0,1,21.06,40.06Zm-1.68-2a1.91,1.91,0,0,0,3.37,0,5.74,5.74,0,0,0,.58-2.83,5,5,0,0,0-.59-2.65,2,2,0,0,0-3.34,0,5,5,0,0,0-.59,2.66A5.74,5.74,0,0,0,19.38,38.08Z" transform="translate(-11.84 -13.85)"/><path d="M25.82,39.87V38.36h1.52v1.52Z" transform="translate(-11.84 -13.85)"/><path d="M28.94,37.79v-1l3.61-5.95h1.62v5.94h1.12v1H34.17v2.08h-1V37.79Zm1.07-1h3.13V31.69h0Z" transform="translate(-11.84 -13.85)"/><path d="M36.76,42.76v-9.7h1v.66h0a2.34,2.34,0,0,1,.77-.58,2.56,2.56,0,0,1,1.18-.26,2.69,2.69,0,0,1,2.12,1,3.86,3.86,0,0,1,.85,2.61,3.94,3.94,0,0,1-.82,2.62,2.67,2.67,0,0,1-2.15,1,2.5,2.5,0,0,1-1.16-.27,2,2,0,0,1-.74-.58h0v3.55Zm1.05-7.28v2.16a1.34,1.34,0,0,0,.5,1,1.81,1.81,0,0,0,1.25.44,1.87,1.87,0,0,0,1.56-.69,3.09,3.09,0,0,0,.55-2,3.07,3.07,0,0,0-.55-1.95,1.87,1.87,0,0,0-1.55-.7,1.65,1.65,0,0,0-1.26.51A1.64,1.64,0,0,0,37.81,35.48Z" transform="translate(-11.84 -13.85)"/><path d="M44.62,37.89V34h-1v-.94h1V31.39h1v1.67h1.68V34H45.66v3.76a1.57,1.57,0,0,0,.17.85.76.76,0,0,0,.67.24H47v1h-.57a1.76,1.76,0,0,1-1.39-.49A2.21,2.21,0,0,1,44.62,37.89Z" transform="translate(-11.84 -13.85)"/><path d="M52.09,39.87V30.49h1.07v9.38Z" transform="translate(-11.84 -13.85)"/><path d="M60,37.78l.85.55a3.38,3.38,0,0,1-1.1,1.24,3,3,0,0,1-1.75.49,2.92,2.92,0,0,1-2.27-1,3.75,3.75,0,0,1-.89-2.61,3.81,3.81,0,0,1,.87-2.61,2.85,2.85,0,0,1,2.24-1,2.8,2.8,0,0,1,2.21,1A3.85,3.85,0,0,1,61,36.47v.31H55.88a2.66,2.66,0,0,0,.55,1.66,1.83,1.83,0,0,0,1.54.68,2.29,2.29,0,0,0,.72-.11,2.61,2.61,0,0,0,.51-.22,1.52,1.52,0,0,0,.38-.36,3.77,3.77,0,0,0,.24-.33ZM55.9,35.94h4a2.49,2.49,0,0,0-.51-1.49,2.06,2.06,0,0,0-3,0A2.41,2.41,0,0,0,55.9,35.94Z" transform="translate(-11.84 -13.85)"/><path d="M66.62,39.87v-.74h0a1.87,1.87,0,0,1-.73.64,2.74,2.74,0,0,1-1.35.3,2.41,2.41,0,0,1-1.71-.55,1.83,1.83,0,0,1-.58-1.39,1.72,1.72,0,0,1,.52-1.33A4.17,4.17,0,0,1,64.5,36l.69-.18.52-.17a1.56,1.56,0,0,0,.42-.21,1,1,0,0,0,.23-.26.64.64,0,0,0,.1-.35.9.9,0,0,0-.35-.73A1.67,1.67,0,0,0,65,33.81a1.54,1.54,0,0,0-1.66,1.35l-1-.27a2.42,2.42,0,0,1,.84-1.46A2.61,2.61,0,0,1,65,32.87a2.79,2.79,0,0,1,1.87.58,2.28,2.28,0,0,1,.69,1.83v4.59ZM64.74,36.8a3.16,3.16,0,0,0-1.19.53.94.94,0,0,0-.31.73q0,1.07,1.35,1.07A2.17,2.17,0,0,0,66,38.71a1.28,1.28,0,0,0,.5-1V36h0Q66.31,36.36,64.74,36.8Z" transform="translate(-11.84 -13.85)"/><path d="M74.06,39.87v-.66h0a2.46,2.46,0,0,1-.79.58,2.86,2.86,0,0,1-3.35-.71,4,4,0,0,1-.8-2.62,3.88,3.88,0,0,1,.84-2.61,2.67,2.67,0,0,1,2.11-1,2.36,2.36,0,0,1,1.89.85h0V30.49H75v9.38ZM74,37.61V35.5a1.68,1.68,0,0,0-.48-1.16,1.64,1.64,0,0,0-1.27-.52,1.82,1.82,0,0,0-1.54.69,3.17,3.17,0,0,0-.53,2,3.17,3.17,0,0,0,.53,2,1.82,1.82,0,0,0,1.54.69,1.8,1.8,0,0,0,1.25-.45A1.38,1.38,0,0,0,74,37.61Z" transform="translate(-11.84 -13.85)"/><path d="M77.13,31.69V30.49h1.21v1.19Zm.08,8.18V33.06h1.05v6.81Z" transform="translate(-11.84 -13.85)"/><path d="M80.45,39.87V33.06h1v.66h0a2,2,0,0,1,.81-.61,2.66,2.66,0,0,1,1.1-.24,2.39,2.39,0,0,1,1.78.68,2.52,2.52,0,0,1,.67,1.85v4.47h-1V35.73q0-1.9-1.57-1.9a1.8,1.8,0,0,0-1.28.45,1.62,1.62,0,0,0-.48,1.25v4.34Z" transform="translate(-11.84 -13.85)"/><path d="M88,41.1l.89-.45a2.46,2.46,0,0,0,.64,1,2,2,0,0,0,2.42-.12,1.89,1.89,0,0,0,.45-1.34v-.91h0a2.34,2.34,0,0,1-1.89.78,2.7,2.7,0,0,1-2.17-1,3.94,3.94,0,0,1-.82-2.62,3.84,3.84,0,0,1,.85-2.61,2.7,2.7,0,0,1,2.13-1,2.32,2.32,0,0,1,1.91.85h0v-.66h1V40a3.1,3.1,0,0,1-.73,2.22,2.64,2.64,0,0,1-2,.76A2.83,2.83,0,0,1,89,42.45,2.7,2.7,0,0,1,88,41.1Zm4.39-3.47V35.48a1.64,1.64,0,0,0-.48-1.14,1.67,1.67,0,0,0-1.28-.51,1.85,1.85,0,0,0-1.55.7,3.1,3.1,0,0,0-.55,1.95,3.12,3.12,0,0,0,.54,2,1.85,1.85,0,0,0,1.55.69,1.83,1.83,0,0,0,1.26-.44A1.34,1.34,0,0,0,92.39,37.64Z" transform="translate(-11.84 -13.85)"/><path d="M13.78,81.62V73.84l-1.94,1.22V73.91l2.07-1.29h.86v9Z" transform="translate(-11.84 -13.85)"/><path d="M20.69,81.81a2.86,2.86,0,0,1-2.47-1.25A6.08,6.08,0,0,1,17.34,77a5.4,5.4,0,0,1,.93-3.39,3.08,3.08,0,0,1,4.85,0A5.43,5.43,0,0,1,24,77a6.09,6.09,0,0,1-.89,3.56A2.85,2.85,0,0,1,20.69,81.81Zm-1.68-2a1.91,1.91,0,0,0,3.37,0A5.74,5.74,0,0,0,23,77a5,5,0,0,0-.59-2.65,2,2,0,0,0-3.34,0A5,5,0,0,0,18.43,77,5.74,5.74,0,0,0,19,79.82Z" transform="translate(-11.84 -13.85)"/><path d="M25.7,84.51v-9.7h1v.66h0a2.34,2.34,0,0,1,.77-.58,2.56,2.56,0,0,1,1.18-.26,2.69,2.69,0,0,1,2.12,1,3.86,3.86,0,0,1,.85,2.61,3.94,3.94,0,0,1-.82,2.62,2.67,2.67,0,0,1-2.15,1,2.5,2.5,0,0,1-1.16-.27,2,2,0,0,1-.74-.58h0v3.55Zm1.05-7.28v2.16a1.34,1.34,0,0,0,.5,1,1.81,1.81,0,0,0,1.25.44,1.87,1.87,0,0,0,1.56-.69,3.74,3.74,0,0,0,0-3.9,1.87,1.87,0,0,0-1.55-.7,1.65,1.65,0,0,0-1.26.51A1.64,1.64,0,0,0,26.75,77.22Z" transform="translate(-11.84 -13.85)"/><path d="M33.56,79.64V75.75h-1v-.94h1V73.14h1v1.67h1.68v.94H34.6v3.76a1.57,1.57,0,0,0,.17.85.76.76,0,0,0,.67.24H36v1h-.57A1.76,1.76,0,0,1,34,81.12,2.21,2.21,0,0,1,33.56,79.64Z" transform="translate(-11.84 -13.85)"/><path d="M41.27,79.64V75.75h-1v-.94h1V73.14h1v1.67H44v.94H42.31v3.76a1.57,1.57,0,0,0,.17.85.76.76,0,0,0,.67.24h.51v1h-.57a1.76,1.76,0,0,1-1.39-.49A2.21,2.21,0,0,1,41.27,79.64Z" transform="translate(-11.84 -13.85)"/><path d="M50,79.52l.85.55a3.38,3.38,0,0,1-1.1,1.24,3,3,0,0,1-1.75.49,2.92,2.92,0,0,1-2.27-1,3.75,3.75,0,0,1-.89-2.61,3.81,3.81,0,0,1,.87-2.61,2.85,2.85,0,0,1,2.24-1,2.8,2.8,0,0,1,2.21,1A3.85,3.85,0,0,1,51,78.21v.31H45.93a2.66,2.66,0,0,0,.55,1.66,1.83,1.83,0,0,0,1.54.68,2.29,2.29,0,0,0,.72-.11,2.61,2.61,0,0,0,.51-.22,1.52,1.52,0,0,0,.38-.36,3.77,3.77,0,0,0,.24-.33ZM46,77.68h4a2.49,2.49,0,0,0-.51-1.49,2.06,2.06,0,0,0-3,0A2.41,2.41,0,0,0,46,77.68Z" transform="translate(-11.84 -13.85)"/><path d="M51.69,81.62,54,78.12l-2.16-3.32H53l1.66,2.62h0l1.66-2.62h1.14l-2.15,3.32,2.3,3.49H56.46l-1.8-2.8h0l-1.77,2.8Z" transform="translate(-11.84 -13.85)"/><path d="M59.22,79.64V75.75h-1v-.94h1V73.14h1v1.67h1.68v.94H60.26v3.76a1.57,1.57,0,0,0,.17.85.76.76,0,0,0,.67.24h.51v1H61a1.76,1.76,0,0,1-1.39-.49A2.21,2.21,0,0,1,59.22,79.64Z" transform="translate(-11.84 -13.85)"/><path d="M13.78,98.32V90.54l-1.94,1.22V90.61l2.07-1.29h.86v9Z" transform="translate(-11.84 -13.85)"/><path d="M17.27,95.36l1-.21A3.32,3.32,0,0,0,19,97a1.94,1.94,0,0,0,1.53.58A2,2,0,0,0,22,97a1.7,1.7,0,0,0,.51-1.25q0-1.82-2-1.82h-.64V93h.27a3.62,3.62,0,0,0,.54,0,4.37,4.37,0,0,0,.64-.16,1.17,1.17,0,0,0,.62-.44,1.33,1.33,0,0,0,.23-.8,1.4,1.4,0,0,0-.45-1.1,1.78,1.78,0,0,0-1.22-.4,1.67,1.67,0,0,0-1.23.45,2.07,2.07,0,0,0-.56,1.26l-1-.18a2.69,2.69,0,0,1,.88-1.81,2.78,2.78,0,0,1,1.92-.68,2.9,2.9,0,0,1,1.93.64,2.18,2.18,0,0,1,.76,1.77,1.79,1.79,0,0,1-.43,1.24,2,2,0,0,1-1,.62v0a2.15,2.15,0,0,1,1.21.78,2.74,2.74,0,0,1-.34,3.54,3.09,3.09,0,0,1-2.17.76,3.19,3.19,0,0,1-2.21-.77A3.6,3.6,0,0,1,17.27,95.36Z" transform="translate(-11.84 -13.85)"/><path d="M25.26,101.21v-9.7h1v.66h0a2.34,2.34,0,0,1,.77-.58,2.56,2.56,0,0,1,1.18-.26,2.69,2.69,0,0,1,2.12,1,3.86,3.86,0,0,1,.85,2.61,3.94,3.94,0,0,1-.82,2.62,2.67,2.67,0,0,1-2.15,1,2.5,2.5,0,0,1-1.16-.27,2,2,0,0,1-.74-.58h0v3.55Zm1.05-7.28v2.16a1.34,1.34,0,0,0,.5,1,1.81,1.81,0,0,0,1.25.44,1.87,1.87,0,0,0,1.56-.69,3.74,3.74,0,0,0,0-3.9,1.87,1.87,0,0,0-1.55-.7,1.65,1.65,0,0,0-1.26.51A1.64,1.64,0,0,0,26.32,93.92Z" transform="translate(-11.84 -13.85)"/><path d="M33.13,96.34V92.45h-1v-.94h1V89.84h1v1.67h1.68v.94H34.17v3.76a1.57,1.57,0,0,0,.17.85.76.76,0,0,0,.67.24h.51v1H35a1.76,1.76,0,0,1-1.39-.49A2.21,2.21,0,0,1,33.13,96.34Z" transform="translate(-11.84 -13.85)"/><path d="M40.59,98.32V88.94h1.07v9.38Z" transform="translate(-11.84 -13.85)"/><path d="M48.49,96.22l.85.55A3.38,3.38,0,0,1,48.24,98a3,3,0,0,1-1.75.49,2.92,2.92,0,0,1-2.27-1,3.75,3.75,0,0,1-.89-2.61,3.81,3.81,0,0,1,.87-2.61,2.85,2.85,0,0,1,2.24-1,2.8,2.8,0,0,1,2.21,1,3.85,3.85,0,0,1,.85,2.63v.31H44.38a2.66,2.66,0,0,0,.55,1.66,1.83,1.83,0,0,0,1.54.68,2.29,2.29,0,0,0,.72-.11,2.61,2.61,0,0,0,.51-.22,1.52,1.52,0,0,0,.38-.36,3.77,3.77,0,0,0,.24-.33Zm-4.09-1.84h4a2.49,2.49,0,0,0-.51-1.49,2.06,2.06,0,0,0-3,0A2.41,2.41,0,0,0,44.41,94.39Z" transform="translate(-11.84 -13.85)"/><path d="M55.12,98.32v-.74h0a1.87,1.87,0,0,1-.73.64,2.74,2.74,0,0,1-1.35.3A2.41,2.41,0,0,1,51.3,98a1.83,1.83,0,0,1-.58-1.39,1.72,1.72,0,0,1,.52-1.33,4.17,4.17,0,0,1,1.77-.8l.69-.18.52-.17a1.56,1.56,0,0,0,.42-.21,1,1,0,0,0,.23-.26.64.64,0,0,0,.1-.35.9.9,0,0,0-.35-.73,1.67,1.67,0,0,0-1.07-.29,1.54,1.54,0,0,0-1.66,1.35l-1-.27a2.42,2.42,0,0,1,.84-1.46,2.61,2.61,0,0,1,1.73-.56,2.79,2.79,0,0,1,1.87.58A2.28,2.28,0,0,1,56,93.73v4.59Zm-1.88-3.07a3.16,3.16,0,0,0-1.19.53.94.94,0,0,0-.31.73q0,1.07,1.35,1.07a2.17,2.17,0,0,0,1.43-.42,1.28,1.28,0,0,0,.5-1v-1.7h0Q54.81,94.81,53.25,95.25Z" transform="translate(-11.84 -13.85)"/><path d="M62.56,98.32v-.66h0a2.46,2.46,0,0,1-.79.58,2.86,2.86,0,0,1-3.35-.71,4,4,0,0,1-.8-2.62,3.88,3.88,0,0,1,.84-2.61,2.67,2.67,0,0,1,2.11-1,2.36,2.36,0,0,1,1.89.85h0V88.94h1.05v9.38Zm-.1-2.26V93.95A1.68,1.68,0,0,0,62,92.79a1.64,1.64,0,0,0-1.27-.52,1.82,1.82,0,0,0-1.54.69,3.89,3.89,0,0,0,0,3.91,1.82,1.82,0,0,0,1.54.69A1.8,1.8,0,0,0,62,97.11,1.38,1.38,0,0,0,62.46,96.06Z" transform="translate(-11.84 -13.85)"/><path d="M65.63,90.13V88.94h1.21v1.19Zm.08,8.18V91.51h1.05v6.81Z" transform="translate(-11.84 -13.85)"/><path d="M69,98.32V91.51h1v.66h0a2,2,0,0,1,.81-.61,2.66,2.66,0,0,1,1.1-.24A2.39,2.39,0,0,1,73.7,92a2.52,2.52,0,0,1,.67,1.85v4.47h-1V94.18q0-1.9-1.57-1.9a1.8,1.8,0,0,0-1.28.45A1.62,1.62,0,0,0,70,94v4.34Z" transform="translate(-11.84 -13.85)"/><path d="M76.5,99.55l.89-.45a2.46,2.46,0,0,0,.64,1,2,2,0,0,0,2.42-.12,1.89,1.89,0,0,0,.45-1.34v-.91h0a2.34,2.34,0,0,1-1.89.78,2.7,2.7,0,0,1-2.17-1A3.94,3.94,0,0,1,76,94.91a3.84,3.84,0,0,1,.85-2.61,2.7,2.7,0,0,1,2.13-1,2.32,2.32,0,0,1,1.91.85h0v-.66h1v6.91a3.1,3.1,0,0,1-.73,2.22,2.64,2.64,0,0,1-2,.76,2.83,2.83,0,0,1-1.73-.51A2.7,2.7,0,0,1,76.5,99.55Zm4.39-3.47V93.92a1.64,1.64,0,0,0-.48-1.14,1.67,1.67,0,0,0-1.28-.51,1.85,1.85,0,0,0-1.55.7,3.77,3.77,0,0,0,0,3.9,1.85,1.85,0,0,0,1.55.69,1.83,1.83,0,0,0,1.26-.44A1.34,1.34,0,0,0,80.89,96.08Z" transform="translate(-11.84 -13.85)"/><path d="M13.78,152.51v-7.77L11.84,146v-1.16l2.07-1.29h.86v9Z" transform="translate(-11.84 -13.85)"/><path d="M17.52,152.51v-.81a3.41,3.41,0,0,1,.46-1.93,5.45,5.45,0,0,1,2-1.5l.73-.4.55-.33a2.84,2.84,0,0,0,.49-.36c.08-.09.18-.2.3-.35a1.12,1.12,0,0,0,.23-.44,2.32,2.32,0,0,0,.05-.51,1.56,1.56,0,0,0-.46-1.12,1.83,1.83,0,0,0-1.37-.47,1.89,1.89,0,0,0-1.42.55,2.28,2.28,0,0,0-.58,1.53l-1-.1a3,3,0,0,1,.89-2.16,3.06,3.06,0,0,1,2.16-.78,2.8,2.8,0,0,1,2.08.75,2.53,2.53,0,0,1,.74,1.86,2.93,2.93,0,0,1-.17,1,2.06,2.06,0,0,1-.6.82,6.07,6.07,0,0,1-.67.53l-.88.49-.18.1-.42.23-.38.21-.3.17-.28.18-.21.17a1.52,1.52,0,0,0-.21.19l-.14.19a2.23,2.23,0,0,0-.26,1.19h4.73v1.07Z" transform="translate(-11.84 -13.85)"/><path d="M25.18,155.4v-9.7h1v.66h0a2.34,2.34,0,0,1,.77-.58,2.56,2.56,0,0,1,1.18-.26,2.69,2.69,0,0,1,2.12,1,3.86,3.86,0,0,1,.85,2.61,3.94,3.94,0,0,1-.82,2.62,2.67,2.67,0,0,1-2.15,1,2.5,2.5,0,0,1-1.16-.27,2,2,0,0,1-.74-.58h0v3.55Zm1.05-7.28v2.16a1.34,1.34,0,0,0,.5,1,1.81,1.81,0,0,0,1.25.44,1.87,1.87,0,0,0,1.56-.69,3.74,3.74,0,0,0,0-3.9,1.87,1.87,0,0,0-1.55-.7,1.65,1.65,0,0,0-1.26.51A1.64,1.64,0,0,0,26.23,148.12Z" transform="translate(-11.84 -13.85)"/><path d="M33,150.54v-3.89h-1v-.94h1V144h1v1.67h1.68v.94H34.08v3.76a1.57,1.57,0,0,0,.17.85.76.76,0,0,0,.67.24h.51v1h-.57a1.76,1.76,0,0,1-1.39-.49A2.21,2.21,0,0,1,33,150.54Z" transform="translate(-11.84 -13.85)"/><path d="M40.75,150.54v-3.89h-1v-.94h1V144h1v1.67h1.68v.94H41.79v3.76a1.57,1.57,0,0,0,.17.85.76.76,0,0,0,.67.24h.51v1h-.57a1.76,1.76,0,0,1-1.39-.49A2.21,2.21,0,0,1,40.75,150.54Z" transform="translate(-11.84 -13.85)"/><path d="M49.52,150.42l.85.55a3.38,3.38,0,0,1-1.1,1.24,3,3,0,0,1-1.75.49,2.92,2.92,0,0,1-2.27-1,3.75,3.75,0,0,1-.89-2.61,3.81,3.81,0,0,1,.87-2.61,2.85,2.85,0,0,1,2.24-1,2.8,2.8,0,0,1,2.21,1,3.85,3.85,0,0,1,.85,2.63v.31H45.41a2.66,2.66,0,0,0,.55,1.66,1.83,1.83,0,0,0,1.54.68,2.29,2.29,0,0,0,.72-.11,2.61,2.61,0,0,0,.51-.22,1.52,1.52,0,0,0,.38-.36,3.77,3.77,0,0,0,.24-.33Zm-4.09-1.84h4a2.49,2.49,0,0,0-.51-1.49,2.06,2.06,0,0,0-3,0A2.41,2.41,0,0,0,45.43,148.58Z" transform="translate(-11.84 -13.85)"/><path d="M51.16,152.51l2.3-3.49-2.16-3.32h1.16l1.66,2.62h0l1.66-2.62h1.14L54.8,149l2.3,3.49H55.93l-1.8-2.8h0l-1.77,2.8Z" transform="translate(-11.84 -13.85)"/><path d="M58.69,150.54v-3.89h-1v-.94h1V144h1v1.67H61.4v.94H59.73v3.76a1.57,1.57,0,0,0,.17.85.76.76,0,0,0,.67.24h.51v1h-.57a1.76,1.76,0,0,1-1.39-.49A2.21,2.21,0,0,1,58.69,150.54Z" transform="translate(-11.84 -13.85)"/><path d="M13.78,169.21v-7.77l-1.94,1.22v-1.16l2.07-1.29h.86v9Z" transform="translate(-11.84 -13.85)"/><path d="M17.4,166.91l1-.36a2.18,2.18,0,0,0,2.2,1.88,2,2,0,0,0,1.53-.6,2.29,2.29,0,0,0,.57-1.64,2.12,2.12,0,0,0-.56-1.55,2,2,0,0,0-1.48-.57,2.24,2.24,0,0,0-2,1.08l-1-.41.81-4.52H23v1H19.33L18.82,164h0a2,2,0,0,1,.8-.6,3,3,0,0,1,1.25-.24,2.78,2.78,0,0,1,2,.83,2.93,2.93,0,0,1,.84,2.18,3.12,3.12,0,0,1-.89,2.33,3.07,3.07,0,0,1-2.25.87,3.14,3.14,0,0,1-2.07-.69A3.48,3.48,0,0,1,17.4,166.91Z" transform="translate(-11.84 -13.85)"/><path d="M25.35,169.21V167.7h1.52v1.52Z" transform="translate(-11.84 -13.85)"/><path d="M35.05,162.32l-1,.26A1.8,1.8,0,0,0,32.27,161a2,2,0,0,0-1.66,1,4.74,4.74,0,0,0-.71,2.77h0a2,2,0,0,1,.24-.4,3.41,3.41,0,0,1,.47-.48,2.41,2.41,0,0,1,.79-.44,3.12,3.12,0,0,1,1.05-.17,3,3,0,0,1,2.14.82,2.86,2.86,0,0,1,.88,2.2,3.05,3.05,0,0,1-.87,2.31,3.09,3.09,0,0,1-2.24.84,3.42,3.42,0,0,1-1.32-.26,3.37,3.37,0,0,1-2-2.19,6.64,6.64,0,0,1-.3-2.1,5.74,5.74,0,0,1,1-3.48,3,3,0,0,1,2.5-1.35,2.62,2.62,0,0,1,1.88.66A3,3,0,0,1,35.05,162.32Zm-2.67,6.12a2,2,0,0,0,1.54-.58,2.21,2.21,0,0,0,.55-1.57,2.12,2.12,0,0,0-.57-1.55,2.07,2.07,0,0,0-1.55-.58,2.1,2.1,0,0,0-1.53.6,1.9,1.9,0,0,0-.62,1.4,2.28,2.28,0,0,0,.62,1.64A2.07,2.07,0,0,0,32.38,168.43Z" transform="translate(-11.84 -13.85)"/><path d="M37.22,172.1v-9.7h1v.66h0a2.34,2.34,0,0,1,.77-.58,2.56,2.56,0,0,1,1.18-.26,2.69,2.69,0,0,1,2.12,1,3.86,3.86,0,0,1,.85,2.61,3.94,3.94,0,0,1-.82,2.62,2.67,2.67,0,0,1-2.15,1,2.5,2.5,0,0,1-1.16-.27,2,2,0,0,1-.74-.58h0v3.55Zm1.05-7.28V167a1.34,1.34,0,0,0,.5,1,1.81,1.81,0,0,0,1.25.44,1.87,1.87,0,0,0,1.56-.69,3.74,3.74,0,0,0,0-3.9,1.87,1.87,0,0,0-1.55-.7,1.65,1.65,0,0,0-1.26.51A1.64,1.64,0,0,0,38.28,164.82Z" transform="translate(-11.84 -13.85)"/><path d="M45.09,167.24v-3.89h-1v-.94h1v-1.67h1v1.67H47.8v.94H46.13v3.76a1.57,1.57,0,0,0,.17.85.76.76,0,0,0,.67.24h.51v1h-.57a1.76,1.76,0,0,1-1.39-.49A2.21,2.21,0,0,1,45.09,167.24Z" transform="translate(-11.84 -13.85)"/><path d="M52.55,169.21v-9.38h1.07v9.38Z" transform="translate(-11.84 -13.85)"/><path d="M60.45,167.12l.85.55a3.38,3.38,0,0,1-1.1,1.24,3,3,0,0,1-1.75.49,2.92,2.92,0,0,1-2.27-1,3.75,3.75,0,0,1-.89-2.61,3.81,3.81,0,0,1,.87-2.61,2.85,2.85,0,0,1,2.24-1,2.8,2.8,0,0,1,2.21,1,3.85,3.85,0,0,1,.85,2.63v.31H56.34a2.66,2.66,0,0,0,.55,1.66,1.83,1.83,0,0,0,1.54.68,2.29,2.29,0,0,0,.72-.11,2.61,2.61,0,0,0,.51-.22,1.52,1.52,0,0,0,.38-.36,3.77,3.77,0,0,0,.24-.33Zm-4.09-1.84h4a2.49,2.49,0,0,0-.51-1.49,2.06,2.06,0,0,0-3,0A2.41,2.41,0,0,0,56.37,165.28Z" transform="translate(-11.84 -13.85)"/><path d="M67.08,169.21v-.74h0a1.87,1.87,0,0,1-.73.64,2.74,2.74,0,0,1-1.35.3,2.41,2.41,0,0,1-1.71-.55,1.83,1.83,0,0,1-.58-1.39,1.72,1.72,0,0,1,.52-1.33,4.17,4.17,0,0,1,1.77-.8l.69-.18.52-.17a1.56,1.56,0,0,0,.42-.21,1,1,0,0,0,.23-.26.64.64,0,0,0,.1-.35.9.9,0,0,0-.35-.73,1.67,1.67,0,0,0-1.07-.29,1.54,1.54,0,0,0-1.66,1.35l-1-.27a2.42,2.42,0,0,1,.84-1.46,2.61,2.61,0,0,1,1.73-.56,2.79,2.79,0,0,1,1.87.58,2.28,2.28,0,0,1,.69,1.83v4.59Zm-1.88-3.07a3.16,3.16,0,0,0-1.19.53.94.94,0,0,0-.31.73q0,1.07,1.35,1.07a2.17,2.17,0,0,0,1.43-.42,1.28,1.28,0,0,0,.5-1v-1.7h0Q66.77,165.71,65.2,166.14Z" transform="translate(-11.84 -13.85)"/><path d="M74.52,169.21v-.66h0a2.46,2.46,0,0,1-.79.58,2.86,2.86,0,0,1-3.35-.71,4,4,0,0,1-.8-2.62,3.88,3.88,0,0,1,.84-2.61,2.67,2.67,0,0,1,2.11-1,2.36,2.36,0,0,1,1.89.85h0v-3.22h1.05v9.38Zm-.1-2.26v-2.11a1.68,1.68,0,0,0-.48-1.16,1.64,1.64,0,0,0-1.27-.52,1.82,1.82,0,0,0-1.54.69,3.89,3.89,0,0,0,0,3.91,1.82,1.82,0,0,0,1.54.69,1.8,1.8,0,0,0,1.25-.45A1.38,1.38,0,0,0,74.42,167Z" transform="translate(-11.84 -13.85)"/><path d="M77.59,161v-1.19H78.8V161Zm.08,8.18V162.4h1.05v6.81Z" transform="translate(-11.84 -13.85)"/><path d="M80.92,169.21V162.4h1v.66h0a2,2,0,0,1,.81-.61,2.66,2.66,0,0,1,1.1-.24,2.39,2.39,0,0,1,1.78.68,2.52,2.52,0,0,1,.67,1.85v4.47h-1v-4.14q0-1.9-1.57-1.9a1.8,1.8,0,0,0-1.28.45,1.62,1.62,0,0,0-.48,1.25v4.34Z" transform="translate(-11.84 -13.85)"/><path d="M88.46,170.45l.89-.45a2.46,2.46,0,0,0,.64,1,2,2,0,0,0,2.42-.12,1.89,1.89,0,0,0,.45-1.34v-.91h0a2.34,2.34,0,0,1-1.89.78,2.7,2.7,0,0,1-2.17-1,3.94,3.94,0,0,1-.82-2.62,3.84,3.84,0,0,1,.85-2.61,2.7,2.7,0,0,1,2.13-1,2.32,2.32,0,0,1,1.91.85h0v-.66h1v6.91a3.1,3.1,0,0,1-.73,2.22,2.64,2.64,0,0,1-2,.76,2.83,2.83,0,0,1-1.73-.51A2.7,2.7,0,0,1,88.46,170.45ZM92.85,167v-2.16a1.64,1.64,0,0,0-.48-1.14,1.67,1.67,0,0,0-1.28-.51,1.85,1.85,0,0,0-1.55.7,3.77,3.77,0,0,0,0,3.9,1.85,1.85,0,0,0,1.55.69,1.83,1.83,0,0,0,1.26-.44A1.34,1.34,0,0,0,92.85,167Z" transform="translate(-11.84 -13.85)"/><path d="M13.78,236.07V228.3l-1.94,1.22v-1.16l2.07-1.28h.86v9Z" transform="translate(-11.84 -13.85)"/><path d="M17.15,234v-1l3.61-5.95h1.62V233h1.12v1H22.37v2.08h-1V234Zm1.07-1h3.13v-5.13h0Z" transform="translate(-11.84 -13.85)"/><path d="M25,239v-9.7h1v.66h0a2.35,2.35,0,0,1,.77-.58,2.56,2.56,0,0,1,1.18-.26,2.69,2.69,0,0,1,2.12,1,3.86,3.86,0,0,1,.85,2.61,3.94,3.94,0,0,1-.82,2.62,2.67,2.67,0,0,1-2.15,1,2.49,2.49,0,0,1-1.16-.27,2,2,0,0,1-.74-.58h0V239ZM26,231.67v2.16a1.34,1.34,0,0,0,.5,1,1.81,1.81,0,0,0,1.25.44,1.87,1.87,0,0,0,1.56-.69,3.74,3.74,0,0,0,0-3.9,1.87,1.87,0,0,0-1.55-.7,1.65,1.65,0,0,0-1.26.51A1.64,1.64,0,0,0,26,231.67Z" transform="translate(-11.84 -13.85)"/><path d="M32.83,234.09V230.2h-1v-.94h1v-1.67h1v1.67h1.68v.94H33.87V234a1.57,1.57,0,0,0,.17.85.76.76,0,0,0,.67.24h.51v1h-.57a1.76,1.76,0,0,1-1.39-.49A2.21,2.21,0,0,1,32.83,234.09Z" transform="translate(-11.84 -13.85)"/><path d="M40.54,234.09V230.2h-1v-.94h1v-1.67h1v1.67h1.68v.94H41.58V234a1.57,1.57,0,0,0,.17.85.76.76,0,0,0,.67.24h.51v1h-.57a1.76,1.76,0,0,1-1.39-.49A2.21,2.21,0,0,1,40.54,234.09Z" transform="translate(-11.84 -13.85)"/><path d="M49.31,234l.85.55a3.39,3.39,0,0,1-1.1,1.24,3,3,0,0,1-1.75.49,2.92,2.92,0,0,1-2.27-1,3.75,3.75,0,0,1-.89-2.61A3.81,3.81,0,0,1,45,230a2.85,2.85,0,0,1,2.24-1,2.8,2.8,0,0,1,2.21,1,3.85,3.85,0,0,1,.85,2.63V233H45.2a2.67,2.67,0,0,0,.55,1.66,1.84,1.84,0,0,0,1.54.68,2.27,2.27,0,0,0,.72-.11,2.56,2.56,0,0,0,.51-.22,1.52,1.52,0,0,0,.38-.36,3.9,3.9,0,0,0,.24-.33Zm-4.09-1.84h4a2.49,2.49,0,0,0-.51-1.49,2.06,2.06,0,0,0-3,0A2.41,2.41,0,0,0,45.23,232.14Z" transform="translate(-11.84 -13.85)"/><path d="M51,236.07l2.3-3.49-2.16-3.32h1.16l1.66,2.62h0l1.66-2.62h1.14l-2.15,3.32,2.3,3.49H55.72l-1.8-2.8h0l-1.77,2.8Z" transform="translate(-11.84 -13.85)"/><path d="M58.49,234.09V230.2h-1v-.94h1v-1.67h1v1.67H61.2v.94H59.53V234a1.57,1.57,0,0,0,.17.85.76.76,0,0,0,.67.24h.51v1h-.57a1.76,1.76,0,0,1-1.39-.49A2.21,2.21,0,0,1,58.49,234.09Z" transform="translate(-11.84 -13.85)"/><path d="M13.78,252.77V245l-1.94,1.22v-1.16l2.07-1.29h.86v9Z" transform="translate(-11.84 -13.85)"/><path d="M22.7,252.24a3.48,3.48,0,0,1-2.29.72,3.53,3.53,0,0,1-2.31-.72,2.46,2.46,0,0,1-.88-2,2.3,2.3,0,0,1,.5-1.48,2.46,2.46,0,0,1,1.18-.85v0a1.93,1.93,0,0,1-.85-.73,2.2,2.2,0,0,1-.34-1.25,2.16,2.16,0,0,1,.74-1.62,2.75,2.75,0,0,1,2-.69,2.75,2.75,0,0,1,2,.69,2.25,2.25,0,0,1,.39,2.87,2,2,0,0,1-.85.73v0a2.55,2.55,0,0,1,1.18.86,2.3,2.3,0,0,1,.48,1.46A2.48,2.48,0,0,1,22.7,252.24ZM20.41,252a2.21,2.21,0,0,0,1.52-.5,1.63,1.63,0,0,0,.56-1.28,1.65,1.65,0,0,0-.58-1.31,2.21,2.21,0,0,0-1.5-.5,2.24,2.24,0,0,0-1.51.5,1.75,1.75,0,0,0,0,2.59A2.23,2.23,0,0,0,20.41,252Zm1.24-7a1.67,1.67,0,0,0-1.24-.42,1.67,1.67,0,0,0-1.25.43,1.43,1.43,0,0,0-.42,1,1.41,1.41,0,0,0,.46,1.07,1.7,1.7,0,0,0,1.21.43,1.68,1.68,0,0,0,1.2-.43,1.42,1.42,0,0,0,.46-1.07A1.44,1.44,0,0,0,21.65,244.94Z" transform="translate(-11.84 -13.85)"/><path d="M25.12,252.77v-1.52h1.52v1.52Z" transform="translate(-11.84 -13.85)"/><path d="M28.62,252.77V252a3.41,3.41,0,0,1,.46-1.93,5.45,5.45,0,0,1,2-1.5l.73-.4.55-.33a2.79,2.79,0,0,0,.49-.36c.08-.08.18-.2.3-.35a1.12,1.12,0,0,0,.23-.44,2.31,2.31,0,0,0,.05-.51A1.56,1.56,0,0,0,33,245a1.83,1.83,0,0,0-1.37-.47,1.89,1.89,0,0,0-1.42.55,2.28,2.28,0,0,0-.58,1.54l-1-.1a3,3,0,0,1,.89-2.16,3.07,3.07,0,0,1,2.16-.78,2.8,2.8,0,0,1,2.08.75,2.53,2.53,0,0,1,.74,1.86,2.93,2.93,0,0,1-.17,1,2.07,2.07,0,0,1-.6.82,6.07,6.07,0,0,1-.67.53l-.88.49-.18.1-.42.22-.38.21-.3.17-.28.18-.21.17a1.62,1.62,0,0,0-.21.19,1.6,1.6,0,0,0-.14.19,2.23,2.23,0,0,0-.26,1.19h4.73v1.07Z" transform="translate(-11.84 -13.85)"/><path d="M36.27,255.66V246h1v.66h0a2.33,2.33,0,0,1,.77-.58,2.56,2.56,0,0,1,1.18-.26,2.68,2.68,0,0,1,2.12,1,3.86,3.86,0,0,1,.85,2.61A3.94,3.94,0,0,1,41.4,252a2.67,2.67,0,0,1-2.15,1,2.51,2.51,0,0,1-1.16-.27,2,2,0,0,1-.74-.58h0v3.55Zm1.05-7.28v2.16a1.35,1.35,0,0,0,.5,1,1.81,1.81,0,0,0,1.25.44,1.87,1.87,0,0,0,1.56-.69,3.74,3.74,0,0,0,0-3.9,1.87,1.87,0,0,0-1.55-.7,1.65,1.65,0,0,0-1.26.51A1.63,1.63,0,0,0,37.33,248.37Z" transform="translate(-11.84 -13.85)"/><path d="M44.14,250.79V246.9h-1V246h1v-1.67h1V246h1.68v.94H45.18v3.76a1.58,1.58,0,0,0,.17.85.76.76,0,0,0,.67.24h.51v1H46a1.75,1.75,0,0,1-1.39-.5A2.2,2.2,0,0,1,44.14,250.79Z" transform="translate(-11.84 -13.85)"/><path d="M51.6,252.77v-9.38h1.07v9.38Z" transform="translate(-11.84 -13.85)"/><path d="M59.5,250.67l.85.55a3.38,3.38,0,0,1-1.1,1.24,3,3,0,0,1-1.75.5,2.92,2.92,0,0,1-2.27-1,3.75,3.75,0,0,1-.89-2.61,3.81,3.81,0,0,1,.87-2.61,2.85,2.85,0,0,1,2.24-1,2.8,2.8,0,0,1,2.21,1,3.84,3.84,0,0,1,.85,2.63v.31H55.39a2.66,2.66,0,0,0,.55,1.66,1.83,1.83,0,0,0,1.54.68,2.32,2.32,0,0,0,.72-.11,2.66,2.66,0,0,0,.51-.22,1.53,1.53,0,0,0,.38-.36,3.64,3.64,0,0,0,.24-.33Zm-4.09-1.84h4a2.48,2.48,0,0,0-.51-1.49,2.06,2.06,0,0,0-3,0A2.41,2.41,0,0,0,55.41,248.84Z" transform="translate(-11.84 -13.85)"/><path d="M66.13,252.77V252h0a1.87,1.87,0,0,1-.73.64A2.74,2.74,0,0,1,64,253a2.41,2.41,0,0,1-1.71-.55,1.82,1.82,0,0,1-.58-1.39,1.72,1.72,0,0,1,.52-1.33,4.16,4.16,0,0,1,1.77-.8l.69-.18.52-.17a1.56,1.56,0,0,0,.42-.21,1,1,0,0,0,.23-.26.64.64,0,0,0,.1-.35.9.9,0,0,0-.35-.73,1.68,1.68,0,0,0-1.07-.29,1.54,1.54,0,0,0-1.66,1.35l-1-.27a2.42,2.42,0,0,1,.84-1.46,2.62,2.62,0,0,1,1.73-.56,2.79,2.79,0,0,1,1.87.58,2.27,2.27,0,0,1,.69,1.83v4.59Zm-1.88-3.07a3.16,3.16,0,0,0-1.19.53.94.94,0,0,0-.31.73q0,1.07,1.35,1.07a2.17,2.17,0,0,0,1.43-.42,1.28,1.28,0,0,0,.5-1v-1.7h0Q65.82,249.26,64.25,249.7Z" transform="translate(-11.84 -13.85)"/><path d="M73.57,252.77v-.66h0a2.46,2.46,0,0,1-.79.58A2.86,2.86,0,0,1,69.4,252a4,4,0,0,1-.8-2.62,3.88,3.88,0,0,1,.84-2.61,2.67,2.67,0,0,1,2.11-1,2.36,2.36,0,0,1,1.89.85h0v-3.22h1.05v9.38Zm-.1-2.26V248.4a1.68,1.68,0,0,0-.48-1.16,1.64,1.64,0,0,0-1.27-.52,1.82,1.82,0,0,0-1.54.69,3.89,3.89,0,0,0,0,3.9,1.82,1.82,0,0,0,1.54.69,1.8,1.8,0,0,0,1.25-.45A1.38,1.38,0,0,0,73.46,250.51Z" transform="translate(-11.84 -13.85)"/><path d="M76.64,244.58v-1.19h1.21v1.19Zm.08,8.18V246h1.05v6.81Z" transform="translate(-11.84 -13.85)"/><path d="M80,252.77V246h1v.66h0a2,2,0,0,1,.81-.61,2.66,2.66,0,0,1,1.1-.24,2.4,2.4,0,0,1,1.78.68,2.52,2.52,0,0,1,.67,1.85v4.47h-1v-4.14q0-1.9-1.57-1.9a1.8,1.8,0,0,0-1.28.45,1.62,1.62,0,0,0-.48,1.25v4.34Z" transform="translate(-11.84 -13.85)"/><path d="M87.51,254l.89-.45a2.45,2.45,0,0,0,.64,1,1.95,1.95,0,0,0,2.42-.11,1.89,1.89,0,0,0,.45-1.34v-.91h0A2.35,2.35,0,0,1,90,253a2.7,2.7,0,0,1-2.17-1,3.94,3.94,0,0,1-.82-2.62,3.84,3.84,0,0,1,.85-2.61,2.7,2.7,0,0,1,2.13-1,2.32,2.32,0,0,1,1.91.85h0V246h1v6.91a3.1,3.1,0,0,1-.73,2.22,2.64,2.64,0,0,1-2,.77,2.83,2.83,0,0,1-1.73-.51A2.7,2.7,0,0,1,87.51,254Zm4.39-3.47v-2.16a1.63,1.63,0,0,0-.48-1.14,1.67,1.67,0,0,0-1.28-.51,1.85,1.85,0,0,0-1.55.7,3.77,3.77,0,0,0,0,3.9,2.06,2.06,0,0,0,2.81.25A1.35,1.35,0,0,0,91.9,250.53Z" transform="translate(-11.84 -13.85)"/></svg>