<svg id="Layer_1" data-name="Layer 1" xmlns="http://www.w3.org/2000/svg" viewBox="0 0 492 193.7"><defs><style>.cls-1{fill:#fff;}.cls-2{fill:#002554;}.cls-3{fill:#cfb571;}.cls-4{fill:#32baf2;}.cls-5{fill:#e21f26;}</style></defs><title>dif_display_color</title><path class="cls-1" d="M10.67,17.28h7.67L29.65,46.22h1.08L42,17.28H49.7V69.64H42.3V40.5l.27-6.19L36.11,50.53c-.61,1.55-1.35,2.83-3.5,2.83H27.76c-2.15,0-2.89-1.28-3.5-2.83L17.8,34.31l.27,6.19V69.64h-7.4Z" transform="translate(-10.67 -17.28)"/><path class="cls-1" d="M68.74,54.7,65.1,69.64H58.78V64.39L69.55,20.11A3.35,3.35,0,0,1,73,17.28h8.55a3.35,3.35,0,0,1,3.5,2.83L95.86,64.39v5.25H89.53L85.9,54.7Zm7.2-30.29L70.56,47.57H84.08L78.7,24.41Z" transform="translate(-10.67 -17.28)"/><path class="cls-1" d="M99.84,17.28h33.65v7.13H120.37V69.64H113V24.41H99.84Z" transform="translate(-10.67 -17.28)"/><path class="cls-1" d="M175.49,62.51l-5.25,5.38a6.21,6.21,0,0,1-4.37,1.75H152.47a6.22,6.22,0,0,1-4.38-1.75l-4.17-4.24a6.42,6.42,0,0,1-1.82-4.31V27.58a6.42,6.42,0,0,1,1.82-4.31L148.1,19a6.22,6.22,0,0,1,4.38-1.75h13.39A6.21,6.21,0,0,1,170.24,19l5.25,5.38-5.59,4.71-4.58-4.71H153L149.51,28v31l3.5,3.57h12.32l4.58-4.71Z" transform="translate(-10.67 -17.28)"/><path class="cls-1" d="M212,46.56H193.39V69.64H186V17.28h7.4V39.42H212V17.28h7.4V69.64H212Z" transform="translate(-10.67 -17.28)"/><path class="cls-2" d="M10.67,87.95h7.67l11.31,28.94h1.08L42,87.95H49.7v52.36H42.3V111.17l.27-6.19-6.46,16.22c-.54,1.55-1.35,2.83-3.5,2.83H27.76c-2.15,0-3-1.28-3.5-2.83L17.8,105l.27,6.19v29.14h-7.4Z" transform="translate(-10.67 -17.28)"/><path class="cls-2" d="M68.74,125.37,65.1,140.31H58.78v-5.25L69.55,90.77A3.35,3.35,0,0,1,73,87.95h8.55a3.35,3.35,0,0,1,3.5,2.83l10.77,44.28v5.25H89.53L85.9,125.37Zm7.2-30.29-5.38,23.15H84.08L78.7,95.08Z" transform="translate(-10.67 -17.28)"/><path class="cls-2" d="M99.84,87.95h33.65v7.13H120.37v45.23H113V95.08H99.84Z" transform="translate(-10.67 -17.28)"/><path class="cls-2" d="M175.49,133.17l-5.25,5.38a6.21,6.21,0,0,1-4.37,1.75H152.47a6.22,6.22,0,0,1-4.38-1.75l-4.17-4.24a6.42,6.42,0,0,1-1.82-4.31V98.25a6.42,6.42,0,0,1,1.82-4.31l4.17-4.24a6.22,6.22,0,0,1,4.38-1.75h13.39a6.21,6.21,0,0,1,4.37,1.75l5.25,5.38-5.59,4.71-4.58-4.71H153l-3.5,3.57v31l3.5,3.57h12.32l4.58-4.71Z" transform="translate(-10.67 -17.28)"/><path class="cls-2" d="M212,117.22H193.39v23.08H186V87.95h7.4v22.14H212V87.95h7.4v52.36H212Z" transform="translate(-10.67 -17.28)"/><path class="cls-3" d="M10.67,158.62h7.67l11.31,28.94h1.08L42,158.62H49.7V211H42.3V181.84l.27-6.19-6.46,16.22c-.54,1.55-1.35,2.83-3.5,2.83H27.76c-2.15,0-3-1.28-3.5-2.83L17.8,175.64l.27,6.19V211h-7.4Z" transform="translate(-10.67 -17.28)"/><path class="cls-3" d="M68.74,196,65.1,211H58.78v-5.25l10.77-44.28a3.35,3.35,0,0,1,3.5-2.83h8.55a3.35,3.35,0,0,1,3.5,2.83l10.77,44.28V211H89.53L85.9,196Zm7.2-30.29L70.56,188.9H84.08L78.7,165.75Z" transform="translate(-10.67 -17.28)"/><path class="cls-3" d="M99.84,158.62h33.65v7.13H120.37V211H113V165.75H99.84Z" transform="translate(-10.67 -17.28)"/><path class="cls-3" d="M175.49,203.84l-5.25,5.38a6.21,6.21,0,0,1-4.37,1.75H152.47a6.22,6.22,0,0,1-4.38-1.75L143.93,205a6.42,6.42,0,0,1-1.82-4.31V168.91a6.42,6.42,0,0,1,1.82-4.31l4.17-4.24a6.22,6.22,0,0,1,4.38-1.75h13.39a6.21,6.21,0,0,1,4.37,1.75l5.25,5.38-5.59,4.71-4.58-4.71H153l-3.5,3.57v31l3.5,3.57h12.32l4.58-4.71Z" transform="translate(-10.67 -17.28)"/><path class="cls-3" d="M212,187.89H193.39V211H186V158.62h7.4v22.14H212V158.62h7.4V211H212Z" transform="translate(-10.67 -17.28)"/><rect class="cls-2" x="246.84" width="115.75" height="48.42"/><rect class="cls-4" x="246.84" y="96.85" width="115.75" height="48.42"/><rect class="cls-5" x="246.84" y="145.27" width="115.75" height="48.42"/><rect class="cls-3" x="246.84" y="48.42" width="115.75" height="48.42"/><path class="cls-1" d="M272.53,31.19h3.15l4.64,11.88h.44l4.64-11.88h3.15v21.5h-3v-12l.11-2.54L283,44.84A1.42,1.42,0,0,1,281.54,46h-2a1.42,1.42,0,0,1-1.44-1.16l-2.65-6.66.11,2.54v12h-3Z" transform="translate(-10.67 -17.28)"/><path class="cls-1" d="M297,46.55l-1.49,6.13h-2.6V50.53l4.42-18.18a1.37,1.37,0,0,1,1.44-1.16h3.51a1.38,1.38,0,0,1,1.44,1.16l4.42,18.18v2.16h-2.6L304,46.55Zm3-12.43-2.21,9.51h5.55l-2.21-9.51Z" transform="translate(-10.67 -17.28)"/><path class="cls-1" d="M309.15,31.19H323v2.93h-5.39V52.69h-3V34.12h-5.39Z" transform="translate(-10.67 -17.28)"/><path class="cls-1" d="M340.22,49.76,338.06,52a2.55,2.55,0,0,1-1.8.72h-5.5A2.55,2.55,0,0,1,329,52l-1.71-1.74a2.63,2.63,0,0,1-.75-1.77v-13a2.63,2.63,0,0,1,.75-1.77L329,31.91a2.55,2.55,0,0,1,1.8-.72h5.5a2.55,2.55,0,0,1,1.8.72l2.16,2.21-2.29,1.93L336,34.12H331l-1.44,1.46V48.3L331,49.76H336l1.88-1.93Z" transform="translate(-10.67 -17.28)"/><path class="cls-1" d="M355.2,43.21h-7.63v9.48h-3V31.19h3v9.09h7.63V31.19h3v21.5h-3Z" transform="translate(-10.67 -17.28)"/><path class="cls-1" d="M272.53,79.84h3.15l4.64,11.88h.44l4.64-11.88h3.15v21.5h-3v-12l.11-2.54L283,93.49a1.42,1.42,0,0,1-1.44,1.16h-2a1.42,1.42,0,0,1-1.44-1.16l-2.65-6.66.11,2.54v12h-3Z" transform="translate(-10.67 -17.28)"/><path class="cls-1" d="M297,95.2l-1.49,6.13h-2.6V99.18L297.3,81a1.37,1.37,0,0,1,1.44-1.16h3.51A1.38,1.38,0,0,1,303.68,81l4.42,18.18v2.16h-2.6L304,95.2Zm3-12.43-2.21,9.51h5.55l-2.21-9.51Z" transform="translate(-10.67 -17.28)"/><path class="cls-1" d="M309.15,79.84H323v2.93h-5.39v18.57h-3V82.77h-5.39Z" transform="translate(-10.67 -17.28)"/><path class="cls-1" d="M340.22,98.41l-2.16,2.21a2.55,2.55,0,0,1-1.8.72h-5.5a2.55,2.55,0,0,1-1.8-.72l-1.71-1.74a2.63,2.63,0,0,1-.75-1.77v-13a2.63,2.63,0,0,1,.75-1.77L329,80.56a2.55,2.55,0,0,1,1.8-.72h5.5a2.55,2.55,0,0,1,1.8.72l2.16,2.21-2.29,1.93L336,82.77H331l-1.44,1.46V96.94L331,98.41H336l1.88-1.93Z" transform="translate(-10.67 -17.28)"/><path class="cls-1" d="M355.2,91.86h-7.63v9.48h-3V79.84h3v9.09h7.63V79.84h3v21.5h-3Z" transform="translate(-10.67 -17.28)"/><path class="cls-1" d="M272.53,128.48h3.15l4.64,11.88h.44l4.64-11.88h3.15V150h-3V138l.11-2.54L283,142.13a1.42,1.42,0,0,1-1.44,1.16h-2a1.42,1.42,0,0,1-1.44-1.16l-2.65-6.66.11,2.54v12h-3Z" transform="translate(-10.67 -17.28)"/><path class="cls-1" d="M297,143.85,295.48,150h-2.6v-2.16l4.42-18.18a1.37,1.37,0,0,1,1.44-1.16h3.51a1.38,1.38,0,0,1,1.44,1.16l4.42,18.18V150h-2.6L304,143.85Zm3-12.43-2.21,9.51h5.55l-2.21-9.51Z" transform="translate(-10.67 -17.28)"/><path class="cls-1" d="M309.15,128.48H323v2.93h-5.39V150h-3V131.41h-5.39Z" transform="translate(-10.67 -17.28)"/><path class="cls-1" d="M340.22,147.05l-2.16,2.21a2.55,2.55,0,0,1-1.8.72h-5.5a2.55,2.55,0,0,1-1.8-.72l-1.71-1.74a2.63,2.63,0,0,1-.75-1.77v-13a2.63,2.63,0,0,1,.75-1.77L329,129.2a2.55,2.55,0,0,1,1.8-.72h5.5a2.55,2.55,0,0,1,1.8.72l2.16,2.21-2.29,1.93L336,131.41H331l-1.44,1.46v12.71l1.44,1.46H336l1.88-1.93Z" transform="translate(-10.67 -17.28)"/><path class="cls-1" d="M355.2,140.5h-7.63V150h-3v-21.5h3v9.09h7.63v-9.09h3V150h-3Z" transform="translate(-10.67 -17.28)"/><path class="cls-1" d="M272.53,177.13h3.15L280.32,189h.44l4.64-11.88h3.15v21.5h-3v-12l.11-2.54L283,190.78a1.42,1.42,0,0,1-1.44,1.16h-2a1.42,1.42,0,0,1-1.44-1.16l-2.65-6.66.11,2.54v12h-3Z" transform="translate(-10.67 -17.28)"/><path class="cls-1" d="M297,192.49l-1.49,6.13h-2.6v-2.16l4.42-18.18a1.37,1.37,0,0,1,1.44-1.16h3.51a1.38,1.38,0,0,1,1.44,1.16l4.42,18.18v2.16h-2.6L304,192.49Zm3-12.43-2.21,9.51h5.55l-2.21-9.51Z" transform="translate(-10.67 -17.28)"/><path class="cls-1" d="M309.15,177.13H323v2.93h-5.39v18.57h-3V180.06h-5.39Z" transform="translate(-10.67 -17.28)"/><path class="cls-1" d="M340.22,195.7l-2.16,2.21a2.55,2.55,0,0,1-1.8.72h-5.5a2.55,2.55,0,0,1-1.8-.72l-1.71-1.74a2.63,2.63,0,0,1-.75-1.77v-13a2.63,2.63,0,0,1,.75-1.77l1.71-1.74a2.55,2.55,0,0,1,1.8-.72h5.5a2.55,2.55,0,0,1,1.8.72l2.16,2.21L337.92,182,336,180.06H331l-1.44,1.46v12.71L331,195.7H336l1.88-1.93Z" transform="translate(-10.67 -17.28)"/><path class="cls-1" d="M355.2,189.15h-7.63v9.48h-3v-21.5h3v9.09h7.63v-9.09h3v21.5h-3Z" transform="translate(-10.67 -17.28)"/><rect class="cls-2" x="376.25" width="115.75" height="48.42"/><rect class="cls-2" x="376.25" y="96.85" width="115.75" height="48.42"/><rect class="cls-4" x="376.25" y="145.27" width="115.75" height="48.42"/><rect class="cls-3" x="376.25" y="48.42" width="115.75" height="48.42"/><path class="cls-3" d="M401.93,31.19h3.15l4.64,11.88h.44l4.64-11.88H418v21.5h-3v-12l.11-2.54-2.65,6.66A1.42,1.42,0,0,1,410.94,46h-2a1.42,1.42,0,0,1-1.44-1.16l-2.65-6.66.11,2.54v12h-3Z" transform="translate(-10.67 -17.28)"/><path class="cls-3" d="M426.37,46.55l-1.49,6.13h-2.6V50.53l4.42-18.18a1.38,1.38,0,0,1,1.44-1.16h3.51a1.38,1.38,0,0,1,1.44,1.16l4.42,18.18v2.16h-2.6l-1.49-6.13Zm3-12.43-2.21,9.51h5.55l-2.21-9.51Z" transform="translate(-10.67 -17.28)"/><path class="cls-3" d="M438.56,31.19h13.82v2.93H447V52.69h-3V34.12h-5.39Z" transform="translate(-10.67 -17.28)"/><path class="cls-3" d="M469.62,49.76,467.47,52a2.55,2.55,0,0,1-1.8.72h-5.5a2.55,2.55,0,0,1-1.79-.72l-1.71-1.74a2.63,2.63,0,0,1-.74-1.77v-13a2.63,2.63,0,0,1,.74-1.77l1.71-1.74a2.54,2.54,0,0,1,1.79-.72h5.5a2.55,2.55,0,0,1,1.8.72l2.16,2.21-2.29,1.93-1.88-1.93h-5.06L459,35.58V48.3l1.44,1.46h5.06l1.88-1.93Z" transform="translate(-10.67 -17.28)"/><path class="cls-3" d="M484.6,43.21H477v9.48h-3V31.19h3v9.09h7.63V31.19h3v21.5h-3Z" transform="translate(-10.67 -17.28)"/><path class="cls-1" d="M401.93,79.84h3.15l4.64,11.88h.44l4.64-11.88H418v21.5h-3v-12l.11-2.54-2.65,6.66a1.42,1.42,0,0,1-1.44,1.16h-2a1.42,1.42,0,0,1-1.44-1.16l-2.65-6.66.11,2.54v12h-3Z" transform="translate(-10.67 -17.28)"/><path class="cls-1" d="M426.37,95.2l-1.49,6.13h-2.6V99.18L426.7,81a1.38,1.38,0,0,1,1.44-1.16h3.51A1.38,1.38,0,0,1,433.09,81l4.42,18.18v2.16h-2.6l-1.49-6.13Zm3-12.43-2.21,9.51h5.55l-2.21-9.51Z" transform="translate(-10.67 -17.28)"/><path class="cls-1" d="M438.56,79.84h13.82v2.93H447v18.57h-3V82.77h-5.39Z" transform="translate(-10.67 -17.28)"/><path class="cls-1" d="M469.62,98.41l-2.16,2.21a2.55,2.55,0,0,1-1.8.72h-5.5a2.55,2.55,0,0,1-1.79-.72l-1.71-1.74a2.63,2.63,0,0,1-.74-1.77v-13a2.63,2.63,0,0,1,.74-1.77l1.71-1.74a2.54,2.54,0,0,1,1.79-.72h5.5a2.55,2.55,0,0,1,1.8.72l2.16,2.21-2.29,1.93-1.88-1.93h-5.06L459,84.23V96.94l1.44,1.46h5.06l1.88-1.93Z" transform="translate(-10.67 -17.28)"/><path class="cls-1" d="M484.6,91.86H477v9.48h-3V79.84h3v9.09h7.63V79.84h3v21.5h-3Z" transform="translate(-10.67 -17.28)"/><path class="cls-4" d="M401.93,128.48h3.15l4.64,11.88h.44l4.64-11.88H418V150h-3V138l.11-2.54-2.65,6.66a1.42,1.42,0,0,1-1.44,1.16h-2a1.42,1.42,0,0,1-1.44-1.16l-2.65-6.66L405,138v12h-3Z" transform="translate(-10.67 -17.28)"/><path class="cls-4" d="M426.37,143.85,424.88,150h-2.6v-2.16l4.42-18.18a1.38,1.38,0,0,1,1.44-1.16h3.51a1.38,1.38,0,0,1,1.44,1.16l4.42,18.18V150h-2.6l-1.49-6.13Zm3-12.43-2.21,9.51h5.55l-2.21-9.51Z" transform="translate(-10.67 -17.28)"/><path class="cls-4" d="M438.56,128.48h13.82v2.93H447V150h-3V131.41h-5.39Z" transform="translate(-10.67 -17.28)"/><path class="cls-4" d="M469.62,147.05l-2.16,2.21a2.55,2.55,0,0,1-1.8.72h-5.5a2.55,2.55,0,0,1-1.79-.72l-1.71-1.74a2.63,2.63,0,0,1-.74-1.77v-13a2.63,2.63,0,0,1,.74-1.77l1.71-1.74a2.54,2.54,0,0,1,1.79-.72h5.5a2.55,2.55,0,0,1,1.8.72l2.16,2.21-2.29,1.93-1.88-1.93h-5.06L459,132.88v12.71l1.44,1.46h5.06l1.88-1.93Z" transform="translate(-10.67 -17.28)"/><path class="cls-4" d="M484.6,140.5H477V150h-3v-21.5h3v9.09h7.63v-9.09h3V150h-3Z" transform="translate(-10.67 -17.28)"/><path class="cls-2" d="M401.93,177.13h3.15L409.73,189h.44l4.64-11.88H418v21.5h-3v-12l.11-2.54-2.65,6.66a1.42,1.42,0,0,1-1.44,1.16h-2a1.42,1.42,0,0,1-1.44-1.16l-2.65-6.66.11,2.54v12h-3Z" transform="translate(-10.67 -17.28)"/><path class="cls-2" d="M426.37,192.49l-1.49,6.13h-2.6v-2.16l4.42-18.18a1.38,1.38,0,0,1,1.44-1.16h3.51a1.38,1.38,0,0,1,1.44,1.16l4.42,18.18v2.16h-2.6l-1.49-6.13Zm3-12.43-2.21,9.51h5.55l-2.21-9.51Z" transform="translate(-10.67 -17.28)"/><path class="cls-2" d="M438.56,177.13h13.82v2.93H447v18.57h-3V180.06h-5.39Z" transform="translate(-10.67 -17.28)"/><path class="cls-2" d="M469.62,195.7l-2.16,2.21a2.55,2.55,0,0,1-1.8.72h-5.5a2.55,2.55,0,0,1-1.79-.72l-1.71-1.74a2.63,2.63,0,0,1-.74-1.77v-13a2.63,2.63,0,0,1,.74-1.77l1.71-1.74a2.54,2.54,0,0,1,1.79-.72h5.5a2.55,2.55,0,0,1,1.8.72l2.16,2.21L467.33,182l-1.88-1.93h-5.06L459,181.52v12.71l1.44,1.46h5.06l1.88-1.93Z" transform="translate(-10.67 -17.28)"/><path class="cls-2" d="M484.6,189.15H477v9.48h-3v-21.5h3v9.09h7.63v-9.09h3v21.5h-3Z" transform="translate(-10.67 -17.28)"/></svg>