<svg id="Sheild_type" data-name="Sheild + type" xmlns="http://www.w3.org/2000/svg" viewBox="0 0 1009.13 1009.13"><defs><style>.cls-1{fill:#cfb571;}.cls-2{fill:#ffec0d;}.cls-3{fill:#0568af;}.cls-4{fill:#e21f26;}.cls-5{fill:none;stroke:#b4b4b4;stroke-miterlimit:10;}</style></defs><title>DIF_primary_skold_clearspace</title><g id="Guld_sköld" data-name="Guld sköld"><path class="cls-1" d="M771.38,224.94l-2.46-10.51-10.55,2.26C628,244.54,518.09,179.2,517,178.55l-5.73-3.46-5.7,3.48c-1.09.65-110.79,66.28-241.27,38.77l-10.55-2.23-2.43,10.51c-.46,2-11.4,50.49-8.91,130.61,7.78,251.26,169.63,414.55,264,471.43l5.69,3.43,5.68-3.44c94.26-57.12,255.69-220.83,262.81-472.12C782.91,275.4,771.85,227,771.38,224.94Z"/></g><path class="cls-2" d="M613.13,237.36c-50.94-10.83-88-29.22-101.81-36.75C486.91,214,389.25,261.82,270.81,241c-3,18-8.17,58.47-6.43,114.57a558.71,558.71,0,0,0,34.28,177Z"/><path class="cls-3" d="M512.11,805.32c90-57.1,236.09-209.81,246.15-441.77L397.39,702.3C436.82,749.42,478.41,784.06,512.11,805.32Z"/><path class="cls-4" d="M394.73,536.58l-1.67,1.58,36.72,39.05,1.52-1.43c9-8.43,12.9-23.29.1-36.89C419.65,526.4,404.37,527.51,394.73,536.58Z"/><path class="cls-4" d="M751.93,240.35a356.7,356.7,0,0,1-120.24.46l-327.1,307a576.64,576.64,0,0,0,83.16,142.61L758.85,342.12C759.37,292.74,754.73,256.93,751.93,240.35ZM452.08,593.18,426,617.75l-73.59-78.26,26.12-24.57c21.79-20.49,54.37-18.86,75.06,3.14S473.77,572.78,452.08,593.18Zm64.37-56.6a16.37,16.37,0,1,1,.74-23.14A16.37,16.37,0,0,1,516.44,536.58Zm33.87-35.83-73.49-78.31,22.53-21.14,73.49,78.31Zm60.6-52.82a16.37,16.37,0,1,1,.74-23.14A16.37,16.37,0,0,1,610.91,447.93Zm56.33-57.1-22.36,21L571.29,333.6l46.65-43.86,18.89,20.08-24.28,22.83,12.08,12.8L648.53,323l18.84,20-23.91,22.46Zm44.5-37.52a16.37,16.37,0,1,1,.74-23.14A16.37,16.37,0,0,1,711.74,353.31Z"/><line class="cls-5" x1="78.04" y1="175.09" x2="945.1" y2="175.09"/><line class="cls-5" x1="242.04" y1="995.09" x2="242.04" y2="11.09"/><line class="cls-5" x1="242.04" y1="995.09" x2="242.04" y2="11.09"/><line class="cls-5" x1="780.95" y1="995.09" x2="780.95" y2="11.09"/><line class="cls-5" x1="78.04" y1="339.09" x2="945.1" y2="339.09"/><line class="cls-5" x1="78.04" y1="503.09" x2="945.1" y2="503.09"/><line class="cls-5" x1="78.04" y1="667.09" x2="945.1" y2="667.09"/><line class="cls-5" x1="78.04" y1="831.09" x2="945.1" y2="831.09"/><rect class="cls-5" x="78.04" y="11.09" width="867.06" height="984"/><line class="cls-5" x1="945.1" y1="11.09" x2="780.95" y2="175.09"/><line class="cls-5" x1="780.95" y1="11.09" x2="945.1" y2="175.09"/><line class="cls-5" x1="242.19" y1="11.09" x2="78.04" y2="175.09"/><line class="cls-5" x1="78.04" y1="11.09" x2="242.19" y2="175.09"/><line class="cls-5" x1="945.1" y1="831.09" x2="780.95" y2="995.09"/><line class="cls-5" x1="780.95" y1="831.09" x2="945.1" y2="995.09"/><line class="cls-5" x1="242.19" y1="831.09" x2="78.04" y2="995.09"/><line class="cls-5" x1="78.04" y1="831.09" x2="242.19" y2="995.09"/></svg>