<?xml version="1.0" encoding="utf-8"?>
<!-- Generator: Adobe Illustrator 21.0.2, SVG Export Plug-In . SVG Version: 6.00 Build 0)  -->
<svg version="1.1" id="Lager_1" xmlns="http://www.w3.org/2000/svg" xmlns:xlink="http://www.w3.org/1999/xlink" x="0px" y="0px"
	 viewBox="0 0 699 310" style="enable-background:new 0 0 699 310;" xml:space="preserve">
<g>
	<path d="M32.1,36.9H13.5L9.7,49H1.9L18.1,0h9.9l16.3,49H36L32.1,36.9z M30,30.1l-4.8-15.2c-0.8-2.5-1.5-5.1-2.3-8.5
		c-0.8,3.4-1.6,6.1-2.3,8.5l-4.8,15.2H30z"/>
	<path d="M47,39.7v-0.5c0-5.8,4.1-11,13.3-11h9.3v-1.8c0-4.8-2.6-7.4-7.1-7.4c-3.6,0-6.3,1.8-7.6,5.1L48.1,23
		c2.7-7.1,8.5-9.7,14.8-9.7c8.8,0,13.8,5,13.8,13V49h-6.8v-4.6c-2.2,2.7-5.8,5.3-11.3,5.3C51.6,49.7,47,45.6,47,39.7z M69.6,34.9
		v-1.9h-8.4c-4.6,0-6.8,2.3-6.8,5.4c0,3.3,2.5,5.4,6.2,5.4C65.7,43.9,69.6,40.4,69.6,34.9z"/>
	<path d="M118.9,34.6v0.5c0,8.9-7.4,13.9-16.3,13.9H84.8V0h17c8.8,0,15.4,4.8,15.4,13.2v0.5c0,4.6-2.2,7.8-5.5,9.7
		C116,25.4,118.9,29,118.9,34.6z M92.7,6.8v13.8h8.6c5,0,8.5-2.5,8.5-6.9c0-4.5-3.4-6.9-8.5-6.9H92.7z M111.1,34.5
		c0-4.9-3.6-7.6-8.9-7.6h-9.5v15.2h9.5C107.5,42.2,111.1,39.5,111.1,34.5z"/>
	<path d="M131.5,44.3V49h-6.8V0h7.4v18.5c1.9-3,5.4-5.2,10.1-5.2c7.6,0,14.8,5.7,14.8,17.2v2.1c0,11.5-7.1,17.2-14.9,17.2
		C136.9,49.7,133.3,47.4,131.5,44.3z M149.5,31.7v-0.4c0-7.7-3.9-11.7-8.9-11.7s-8.9,4-8.9,11.7v0.4c0,7.6,3.9,11.7,8.9,11.7
		S149.5,39.3,149.5,31.7z"/>
	<path d="M160.7,25v-1c0-15.8,8.9-24.7,19.9-24.7c7.8,0,14.6,4.5,17.7,13.4l-7.6,2c-1.9-5.5-5.9-8-10.1-8c-6.9,0-12,6.1-12,17.5v0.7
		c0,11.4,5.1,17.5,12,17.5c4.2,0,8.2-2.6,10.1-8.1l7.6,2c-3,8.9-9.9,13.4-17.7,13.4C169.7,49.7,160.7,40.8,160.7,25z"/>
	<path d="M201.2,31.8v-0.6c0-11.5,7.4-17.9,16-17.9c6.7,0,12.3,3.9,14.6,11.1l-6.8,1.3c-1.4-4.1-4.6-6.1-7.8-6.1
		c-4.6,0-8.6,4.1-8.6,11.7v0.4c0,7.8,4,11.7,8.6,11.7c3.2,0,6.4-2,7.8-6.1l6.8,1.3c-2.3,7.3-7.9,11.1-14.6,11.1
		C208.6,49.7,201.2,43.3,201.2,31.8z"/>
	<path d="M274.9,24v1c0,16-9.2,24-22.5,24h-15.3V0h15.3C265.8,0,274.9,7.9,274.9,24z M267,24.1c0-11.7-5.5-16.8-14.6-16.8H245v34.3
		h7.4c9,0,14.6-5.1,14.6-16.8V24.1z"/>
	<path d="M278.7,32.5v-2.1c0-11.5,7.1-17.2,14.8-17.2c4.7,0,8.2,2.3,10.1,5.2V0h7.4v49h-6.8v-4.7c-1.9,3-5.4,5.4-10.5,5.4
		C285.8,49.7,278.7,44,278.7,32.5z M303.8,31.7v-0.4c0-7.7-3.9-11.7-8.9-11.7s-8.9,4-8.9,11.7v0.4c0,7.6,3.9,11.7,8.9,11.7
		S303.8,39.3,303.8,31.7z"/>
	<path d="M327,7.3v13h17.6v6.8H327v14.5h21.1V49h-28.9V0h28.9v7.3H327z"/>
	<path d="M367.4,50c-9.1,0-16.7-6.6-16.7-18.3v-0.6c0-11.7,7.4-18.3,16.3-18.3s16.3,6.6,16.3,18.3v1.9H358
		c0.1,6.5,4.2,10.6,9.7,10.6c3.3,0,6.4-1.5,8-4.8l6.9,1.3C380,46.6,374,50,367.4,50z M376.1,28.4c-0.5-6.4-4.5-9.6-9-9.6
		s-8.4,3.3-8.9,9.6H376.1z"/>
	<path d="M397.5,7.3v13.5h17.6v7.4h-17.6V49h-7.9V0h28.9v7.3H397.5z"/>
	<path d="M426.2,20.3h-6.1V14h6.4v-3.9c0-7.4,4.8-10.1,10.2-10.1h5.2v6.3h-4.1c-2.5,0-4.4,1.2-4.4,4.5V14h8.5v6.3h-8.2V49h-7.3V20.3
		z"/>
	<path d="M445.1,25v-1c0-15.8,9.3-24.7,21.3-24.7c8.8,0,15,4.6,17.8,11.6l-7.7,2c-1.9-3.8-5.3-6.2-10.2-6.2
		c-7.6,0-13.3,6.1-13.3,17.5v0.7c0,11.4,5.3,17.5,13,17.5c6.8,0,11.4-4.6,11.4-11.9v-2.2h-12.5V22h19.8v27h-6.8v-5.7
		c-2.7,4.4-7.5,6.4-12.8,6.4C454.3,49.7,445.1,40.9,445.1,25z"/>
	<path d="M489.5,54c0-3.5,1.8-6.2,4.4-7.8c-1.8-1.4-3-3.5-3-6c0-3.4,2.1-6,5.1-7.2c-2.3-1.9-3.7-4.7-3.7-7.9
		c0-6.8,5.5-11.8,13.1-11.8c1.8,0,3.4,0.3,5,0.8h11.4v5.8h-5.1c1.1,1.3,1.8,3.2,1.8,5.2c0,6.8-5.5,12-13,12h-4.7
		c-2.3,0-3.4,1.1-3.4,2.7s1.1,2.9,3.6,2.9h10.6c6.7,0,11.2,4.5,11.2,10.4c0,6.1-4.9,11.1-12.6,11.1h-8.4C494,64,489.5,59.6,489.5,54
		z M509.3,58.3c4.1,0,6.5-2.2,6.5-5.1c0-2.8-2.1-4.8-5.4-4.8h-8.6c-3.2,0-5.4,2-5.4,4.8s2.3,5.1,6.3,5.1H509.3z M511.8,25.1
		c0-3.6-2.8-6.4-6.5-6.4c-3.6,0-6.5,2.7-6.5,6.4c0,3.6,2.9,6.4,6.5,6.4C509,31.4,511.8,28.6,511.8,25.1z"/>
	<path d="M561.5,0v49h-7.9V27.5h-18.4V49h-7.9V0h7.9v20.1h18.4V0H561.5z"/>
	<path d="M598.7,26.2V49h-7.4V27.9c0-5.3-2.6-8.3-6.8-8.3c-4.5,0-7.5,3.7-7.5,8.9V49h-7.4V0h7.4v17.8c2.2-2.9,5.5-4.5,9.4-4.5
		C593.9,13.3,598.7,18.4,598.7,26.2z"/>
	<path d="M606.5,0h7.9v49h-7.9V0z"/>
	<path d="M622.4,1h7.6v7.7h-7.6V1z M622.5,14h7.4v35h-7.4V14z"/>
	<path d="M633.8,38.3l7.4-1.9c1.4,4.4,4.4,5.9,7.2,5.9c3.3,0,6.8-1.7,6.8-8.3V0h7.9v34.5c0,11-7.1,15.2-14.4,15.2
		C641.5,49.7,636,45.8,633.8,38.3z"/>
	<path d="M667.7,63v-6.3h1.1c1.7,0,2.4-0.6,2.4-2.7V14h7.3v41.2c0,5.2-2.9,7.8-7.2,7.8H667.7z M671.1,1h7.6v7.7h-7.6V1z"/>
	<path d="M6.1,74h7.9v21.6c1.1-2,2.4-3.8,3.6-5.5L29.3,74h8.9l-15,20.4L42.8,123h-9.5l-15.6-22.8l-3.8,4.9V123H6.1V74z"/>
	<path d="M47.1,74h7.4v28.4L67.5,88h9L63,102.5L77.1,123h-8.7l-10.6-15.7l-3.6,3.9V123h-7.1V74z"/>
	<path d="M107.9,115.6v7.4H81.8V74h7.9v41.7H107.9z"/>
	<path d="M112.1,114.5V74h7.4v39.1c0,2.6,1,3.6,2.9,3.6h1.9v6.3h-3.7C115.4,123,112.1,120.3,112.1,114.5z"/>
	<path d="M174.2,123h-7.9V86.5c-1.4,2.7-3,5.5-5.1,8.8l-9.6,15.5l-9.6-15.5c-2.1-3.3-3.8-6.2-5.1-8.9V123h-7.4V74h8l14.2,23.2
		L166.2,74h8V123z"/>
	<path d="M182.5,88h6.8v4.5c1.8-2.8,5.1-5.2,9.9-5.2c4.2,0,7.6,1.9,9.3,5.5c2.3-3.8,6.1-5.5,10-5.5c7.3,0,12.1,5.1,12.1,12.9V123
		h-7.3v-21.3c0-5.1-2.3-8.1-6.2-8.1c-4.3,0-6.9,3.7-6.9,8.8V123h-7.4v-21.3c0-5.1-2.2-8.1-6.1-8.1c-4.3,0-6.9,3.7-6.9,8.8V123h-7.4
		V88z"/>
	<path d="M278,74v49h-8.1L246,86.7V123h-7.4V74h8l23.9,36.3V74H278z"/>
	<path d="M286.3,88h6.8v4.5c2.2-3.7,6.1-5.2,9.9-5.2c7.4,0,12.2,5.1,12.2,12.9V123h-7.4v-21.1c0-5.3-2.6-8.3-6.8-8.3
		c-4.5,0-7.5,3.8-7.5,8.9V123h-7.4V88z"/>
	<path d="M320.4,99v-1c0-16,9.2-25,20.7-25s20.7,9,20.7,25v1c0,16-9.2,25-20.7,25S320.4,115.1,320.4,99z M353.9,98.8v-0.7
		c0-11.7-5.5-17.9-12.8-17.9s-12.8,6.2-12.8,17.9v0.7c0,11.7,5.5,17.8,12.8,17.8S353.9,110.5,353.9,98.8z"/>
	<path d="M365.6,105.8v-0.6c0-11.7,7.4-18.3,16.3-18.3s16.3,6.6,16.3,18.3v0.6c0,11.7-7.4,18.3-16.3,18.3S365.6,117.5,365.6,105.8z
		 M390.9,105.7v-0.4c0-7.9-4-12.1-9-12.1s-9,4.2-9,12.1v0.4c0,7.9,4,12.1,9,12.1S390.9,113.5,390.9,105.7z"/>
	<path d="M437.2,88.1v0.3c0,9.2-6.5,14.1-15.5,14.1h-9.3V123h-7.9V74h17.2C430.7,74,437.2,79,437.2,88.1z M429.2,88.2
		c0-4.8-3.1-7.4-7.9-7.4h-8.9v14.9h8.9C426.1,95.7,429.2,93.1,429.2,88.2z"/>
	<path d="M441.8,88h6.8v4.7c1.9-3,5.4-5.4,10.5-5.4c7.8,0,14.9,5.7,14.9,17.2v2.1c0,11.5-7.1,17.2-14.8,17.2
		c-4.7,0-8.2-2.3-10.1-5.3V137h-7.3V88z M466.7,105.7v-0.4c0-7.6-3.9-11.7-8.9-11.7s-8.9,4.1-8.9,11.7v0.4c0,7.7,3.8,11.7,8.9,11.7
		S466.7,113.4,466.7,105.7z"/>
	<path d="M511.1,126.5l-3.2-4.7c-2.8,1.5-6,2.2-9.3,2.2c-11.6,0-20.7-9-20.7-25v-1c0-16,9.2-25,20.7-25c11.5,0,20.7,9,20.7,25v1
		c0,8-2.3,14.3-6,18.5l6.1,8.9H511.1z M503.7,115.6l-9.3-13.6h8.2l6.1,8.8c1.8-2.9,2.8-6.9,2.8-12v-0.7c0-11.7-5.5-17.9-12.8-17.9
		c-7.3,0-12.8,6.2-12.8,17.9v0.7c0,11.7,5.5,17.8,12.8,17.8C500.5,116.7,502.2,116.3,503.7,115.6z"/>
	<path d="M548.4,118.4c-1.9,3-5.4,5.3-10.1,5.3c-7.6,0-14.8-5.7-14.8-17.2v-2.1c0-11.5,7.1-17.2,14.8-17.2c5.2,0,8.6,2.6,10.6,5.8
		V88h6.8v49h-7.4V118.4z M548.6,105.7v-0.4c0-7.6-3.9-11.7-8.9-11.7s-8.9,4.1-8.9,11.7v0.4c0,7.7,3.9,11.7,8.9,11.7
		S548.6,113.4,548.6,105.7z"/>
	<path d="M574.9,101.4h-3.1V123h-7.9V74h17.8c8.6,0,15.2,4.8,15.2,13.6V88c0,7.9-5.5,12.5-13,13.2l16.5,21.8h-9.5L574.9,101.4z
		 M571.8,95.1h9.4c4.7,0,7.9-2.6,7.9-7.2c0-4.6-3.2-7-7.9-7h-9.4V95.1z"/>
	<path d="M605.2,88h6.8v6.8c2.3-4.5,7.1-7.1,12.8-7.1V95c-7.7,0-12.2,5.1-12.2,13V123h-7.4V88z"/>
	<path d="M627.1,112.3l7.2-2.9c2.2,4.7,6.1,7.4,11.5,7.4c5.7,0,10-2.9,10-7.9c0-4.5-3.7-6.4-7.1-7l-6.7-1.2c-6.7-1.2-14-4.4-14-13.3
		v-0.5c0-8,6.9-13.8,16.7-13.8c7.6,0,14.2,3.5,18,10.7l-7.2,2.9c-2.5-4.6-6.3-6.8-10.9-6.8c-5.2,0-8.8,3-8.8,7.3
		c0,4.2,3.3,6.1,7.8,6.9l6.7,1.2c6.4,1.2,13.3,4.3,13.3,12.7v0.5c0,9-7.6,15.1-17.9,15.1C637.7,123.7,630.6,120.1,627.1,112.3z"/>
	<path d="M666.3,114.5l6.3-2.5c1.8,3.8,4.5,5.8,8.9,5.8c4.1,0,6.7-1.9,6.7-4.8c0-2.9-2.4-4-5.6-4.6l-4.9-0.9
		c-6.9-1.2-10.5-4.4-10.5-9.3c0-5.8,4.5-10.9,13.3-10.9c6,0,11.2,2.4,14.5,7.9l-6.3,2.6c-1.7-3.2-4.4-4.7-7.9-4.7
		c-3.9,0-6.2,1.9-6.2,4.6c0,2.5,2,3.6,5,4.2l4.8,0.9c7.4,1.4,11.1,4.4,11.1,9.8c0,6.1-4.8,11.1-13.7,11.1
		C675.5,123.7,669.6,121.3,666.3,114.5z"/>
	<path d="M37,155.3H23.9V197H16v-41.7H2.8V148H37V155.3z"/>
	<path d="M43,187.3v-19h-5.2V162h5.5v-10.5h6.8V162h9.4v6.3h-9.1V186c0,3.4,1.6,4.7,4.4,4.7h4.7v6.3h-6.6
		C46.9,197,43,193.9,43,187.3z"/>
	<path d="M64.1,180.4V148h7.9v31.7c0,7.9,4.4,11,10,11c5.3,0,10.1-3,10.1-11V148h7.9v32.4c0,11.8-8.1,17.7-18,17.7
		C71.9,198,64.1,192.2,64.1,180.4z"/>
	<path d="M136.1,197h-6.8v-4.6c-2.2,3.7-6.1,5.3-9.9,5.3c-7.4,0-12.2-5.1-12.2-12.9V162h7.4v21.1c0,5.2,2.6,8.3,6.8,8.3
		c4.5,0,7.5-3.7,7.5-8.9V162h7.4V197z"/>
	<path d="M138.1,148h8.4l10.4,31.6c0.8,2.5,1.6,5.1,2.3,8.5c0.8-3.4,1.5-6.1,2.3-8.5l10.4-31.6h7.9l-16.9,49H155L138.1,148z"/>
	<path d="M180.6,162h8.2l6.9,20.1c0.6,1.9,1.3,4,2,7c0.7-3,1.3-5.1,2-7l6.9-20.1h7.6l-13.1,35h-7.4L180.6,162z"/>
	<path d="M272.4,148l-10.9,49H254l-6.9-25.8c-1-3.8-1.8-7.2-2.5-10.8c-0.7,3.6-1.5,6.9-2.5,10.8l-6.9,25.8h-7.5l-10.9-49h8.1
		l5.4,25.4c0.8,3.8,1.4,7.1,1.9,10.7c0.7-3.6,1.4-6.9,2.5-10.7l6.8-25.4h6.8l6.8,25.4c1,3.7,1.7,7.1,2.4,10.7
		c0.5-3.6,1.2-7,1.9-10.7l5.4-25.4H272.4z"/>
	<path d="M275,162h8.1l5,17.6c0.5,2,1,3.8,1.9,7.3c0.9-3.5,1.5-5.2,2.1-7.2l5.3-17.7h6.8l5.4,17.7c0.6,2,1.2,4,2.2,7.2
		c0.9-3.3,1.4-5.2,2-7.2L319,162h7.6l-11.5,35h-6.8l-6-20.1c-0.4-1.4-0.9-3.3-1.4-5.6c-0.6,2.3-1.1,4.2-1.5,5.6l-6,20.1h-6.8
		L275,162z"/>
	<path d="M340.6,171.2L326.1,148h9.1l6.2,10.2c1.8,2.9,3.2,5.4,4.1,7.2c1-1.8,2.4-4.3,4.2-7.2L356,148h8.6l-14.5,22.6l16.5,26.4
		h-9.1l-8.2-13.4c-1.8-2.9-3.1-5.4-4.1-7.2c-1,1.9-2.4,4.3-4.2,7.2l-8.3,13.4h-8.6L340.6,171.2z"/>
	<path d="M394.8,197l-3.8-5.6c-1.5-2.3-3-4.7-4.5-7.4c-1.6,2.7-3.2,5.1-4.7,7.4L378,197h-8.2l12.7-18.1L370.9,162h8.8l3.7,5.6
		c1.2,1.8,2.3,3.7,3.6,6c1.2-2.2,2.4-4.2,3.6-6l3.8-5.6h8.2l-11.6,16.6l12.7,18.4H394.8z"/>
	<path d="M417.9,175.4L402.1,148h8.9l7.2,13.2c1.6,3,2.9,5.4,3.7,7.6c0.9-2.2,2.2-4.7,3.8-7.7l7.3-13.1h8.4l-15.8,27.4V197h-7.9
		V175.4z"/>
	<path d="M445.3,204.7h3c2.7-0.1,4.3-1.1,5.5-4.7l1.3-3.4L440.7,162h8.2l7.3,19.2c0.9,2.1,1.7,4.3,2.6,7.4c0.7-3.2,1.3-5.5,2-7.6
		l6-19h7.6l-14.1,40.7c-1.9,5.5-5.6,8.3-11.2,8.3h-3.8V204.7z"/>
	<path d="M473.1,190.1l18.5-27.1c2-3,4.1-5.7,5.7-7.7h-23.6V148h32.8v6.9l-18.4,27.1c-2.1,3-4.1,5.7-5.8,7.7h24.8v7.4h-34V190.1z"/>
	<path d="M511.2,191.2l18.4-22.9h-18.4V162h27.5v5.8l-18.4,22.9h18.4v6.3h-27.5V191.2z"/>
	<path d="M1.8,245.4h80.5v2.1H1.8V245.4z"/>
	<path d="M87.6,247.4v-1.9c0-16.5,7.2-24.3,16-24.3c8.8,0,16,7.8,16,24.3v1.9c0,16.5-7.2,24.3-16,24.3
		C94.8,271.7,87.6,263.9,87.6,247.4z M116.9,247.3v-1.5c0-15.3-5.9-22.2-13.4-22.2c-7.4,0-13.4,6.8-13.4,22.2v1.5
		c0,15.3,6,22.2,13.4,22.2C111,269.4,116.9,262.5,116.9,247.3z"/>
	<path d="M136,233.2c0-3.4,0-6.8,0.1-9c-2.3,1.8-4.4,3.3-6.6,4.8l-4.7,3.2v-2.6l11.3-7.6h2.4v49H136V233.2z"/>
	<path d="M147.7,269l20.4-21.2c5-5.2,6.8-8.5,6.8-12.6v-0.2c0-7.7-5.7-11.7-11.8-11.7c-6.6,0-12,4.6-12.4,12.5l-2.5-0.5
		c0.4-8.7,7-14.3,14.8-14.3c7.5,0,14.4,5.1,14.4,13.8v0.5c0,4.6-2.1,8.3-7.6,14.1l-13.2,13.8c-1.9,2-3.7,3.7-5.8,5.7
		c2.5-0.1,4.6-0.1,6.8-0.1h20.5v2.3h-30.5V269z"/>
	<path d="M214.9,256.3v0.5c0,9.5-7.4,15.2-16,15.2c-6.1,0-13-2.9-15.9-10.7l2.4-0.6c2.4,6.5,8.1,9.2,13.4,9.2
		c7.3,0,13.5-4.9,13.5-13.2v-0.2c0-8.5-5.8-12.7-12.6-12.7c-3.5,0-6.2,1.2-8.1,2.6l-1.3-1.4l13.7-15.2c1.8-2,3.6-3.7,5.5-5.7
		c-2.5,0.1-4.6,0.1-6.8,0.1h-16.9V222H212v2.2l-14,15.3c-1,1-1.9,2.1-3.3,3.5c1.8-0.8,3.4-1.1,5.5-1.1
		C208.2,241.9,214.9,247,214.9,256.3z"/>
	<path d="M245.1,258h-23.6v-1.9l22.2-34.1h2.8l-22.2,34h20.8v-13h2.3v13h6v2.1h-6v13h-2.3V258z"/>
	<path d="M258.8,261.4l2.4-0.6c2.4,6.5,8.1,9.2,13.4,9.2c7.3,0,13.5-5.1,13.5-14.1v-0.2c0-9-5.8-13.5-12.7-13.5
		c-6,0-9.5,3.4-11.4,6.5l-1.8-0.5V222h24.9v2.3h-22.8v14.9c0,2.1,0,4.3-0.1,6.5c2.5-3.3,6.2-5.6,11.4-5.6c8.2,0,14.9,5.4,14.9,15.3
		v0.6c0,10-7.3,16.1-16.1,16.1C268.3,272,261.6,269,258.8,261.4z"/>
	<path d="M297.3,256.2v-0.5c0-7.6,5.1-13.5,7.7-16.9l12.6-16.9h2.9l-6.9,9.1c-3,4-6,8-9.5,12.5c3-2.7,6.5-3.6,9.7-3.6
		c8.3,0,15.5,5.7,15.5,15.6v0.5c0,9.9-7.6,15.9-16,15.9C304.9,272,297.3,266.2,297.3,256.2z M326.8,256v-0.2c0-9-6.5-13.7-13.5-13.7
		c-7,0-13.6,4.7-13.6,13.8v0.2c0,9,6.6,13.8,13.5,13.8C320.3,269.9,326.8,264.9,326.8,256z"/>
	<path d="M359,224.2c-2.5,0.1-4.7,0.1-6.8,0.1h-20.8V222h30.5v2L340,271h-2.8L359,224.2z"/>
	<path d="M366.3,258v-0.5c0-6.8,4.6-11.2,10.3-12.8c-4.7-1.4-8.2-5.2-8.2-10.9v-0.5c0-7.7,6.5-12,13.9-12c7.4,0,13.9,4.3,13.9,12
		v0.5c0,5.7-3.5,9.5-8.2,10.9c5.7,1.6,10.3,6.1,10.3,12.8v0.5c0,8.9-7.7,13.8-16,13.8S366.3,266.9,366.3,258z M395.7,257.8v-0.2
		c0-7.9-6.6-11.8-13.4-11.8s-13.4,3.9-13.4,11.8v0.2c0,8,6.6,11.9,13.4,11.9S395.7,265.8,395.7,257.8z M393.7,233.7v-0.2
		c0-6.8-5.5-10.2-11.5-10.2s-11.5,3.4-11.5,10.2v0.2c0,6.7,5.4,10.2,11.5,10.2S393.7,240.4,393.7,233.7z"/>
	<path d="M419.3,261.9c3-4,6-8,9.5-12.5c-3,2.7-6.5,3.6-9.7,3.6c-8.3,0-15.5-5.7-15.5-15.6v-0.5c0-9.9,7.6-15.9,16-15.9
		c8.3,0,15.9,5.8,15.9,15.8v0.5c0,7.6-5.1,13.5-7.7,17L415.3,271h-2.9L419.3,261.9z M433.2,237.1v-0.2c0-9-6.6-13.8-13.5-13.8
		c-7.1,0-13.6,5.1-13.6,13.9v0.2c0,9,6.5,13.6,13.5,13.6C426.6,250.9,433.2,246.1,433.2,237.1z"/>
	<path d="M444.9,253.4c0,13.1,4,23,11.2,31.6h-2.4c-5.8-6.2-11.3-16.9-11.3-31.4c0-14.5,5.5-25.4,11.3-31.6h2.4
		C448.9,230.6,444.9,240.4,444.9,253.4z"/>
	<path d="M475.5,253.6c0-13.1-4-23-11.2-31.6h2.4c5.8,6.2,11.3,16.9,11.3,31.4c0,14.5-5.5,25.4-11.3,31.6h-2.4
		C471.5,276.4,475.5,266.6,475.5,253.6z"/>
	<path d="M486.4,245.5h31.5v1.9h-31.5V245.5z M486.4,259.5h31.5v1.9h-31.5V259.5z"/>
	<path d="M557.8,254.4h-16.5V271h-2.1v-16.6h-16.5v-1.9h16.5V236h2.1v16.5h16.5V254.4z"/>
	<path d="M566.8,266.8h3v4.2h-3V266.8z M567.1,232.5V222h2.4v10.5l-0.1,24.2h-2.3L567.1,232.5z"/>
	<path d="M602.5,232.4v0.5c0,4.6-2.2,7.1-6.8,12c-2.5,2.6-4,4.3-4,8.5v3.3h-2.5V253c0-4.4,1.9-6.7,4.4-9.2c4.4-4.6,6.5-6.9,6.5-11
		v-0.2c0-6-4.3-9.3-9.3-9.3c-4.5,0-8.1,2.7-9.7,7.8l-2.3-0.6c1.9-6.1,6.4-9.5,12-9.5C597.5,221,602.5,225.6,602.5,232.4z
		 M588.9,266.8h3.1v4.2h-3.1V266.8z"/>
</g>
<title>a-z</title>
</svg>
