<?xml version="1.0" encoding="utf-8"?>
<!-- Generator: Adobe Illustrator 21.0.2, SVG Export Plug-In . SVG Version: 6.00 Build 0)  -->
<svg version="1.1" id="Lager_1" xmlns="http://www.w3.org/2000/svg" xmlns:xlink="http://www.w3.org/1999/xlink" x="0px" y="0px"
	 viewBox="0 0 360 360" style="enable-background:new 0 0 360 360;" xml:space="preserve">
<style type="text/css">
	.st0{fill:#41B0EE;}
	.st1{fill:#FFFFFF;}
	.st2{font-family:'SEBBasic-Medium';}
	.st3{font-size:30px;}
	.st4{letter-spacing:-1;}
	.st5{font-family:'SEBBasic-Regular';}
	.st6{letter-spacing:-2;}
	.st7{fill:none;stroke:#FFFFFF;stroke-miterlimit:10;}
</style>
<title>dl-type-digital</title>
<rect y="0" class="st0" width="360" height="360"/>
<text transform="matrix(1 0 0 1 27.05 48.46)" class="st1 st2 st3">S</text>
<text transform="matrix(1 0 0 1 43.79 48.46)" class="st1 st2 st3">E</text>
<text transform="matrix(1 0 0 1 59.84 48.46)" class="st1 st2 st3">B</text>
<text transform="matrix(1 0 0 1 78.44 48.46)" class="st1 st2 st3 st4"> </text>
<text transform="matrix(1 0 0 1 83.24 48.46)" class="st1 st2 st3">B</text>
<text transform="matrix(1 0 0 1 101.51 48.46)" class="st1 st2 st3">a</text>
<text transform="matrix(1 0 0 1 117.62 48.46)" class="st1 st2 st3">s</text>
<text transform="matrix(1 0 0 1 131.64 48.46)" class="st1 st2 st3">i</text>
<text transform="matrix(1 0 0 1 138.77 48.46)" class="st1 st2 st3">c</text>
<text transform="matrix(1 0 0 1 153.62 48.46)" class="st1 st2 st3 st4"> </text>
<text transform="matrix(1 0 0 1 158.42 48.46)" class="st1 st2 st3">f</text>
<text transform="matrix(1 0 0 1 169.08 48.46)" class="st1 st2 st3">o</text>
<text transform="matrix(1 0 0 1 185.04 48.46)" class="st1 st2 st3">r</text>
<text transform="matrix(1 0 0 1 196.89 48.46)" class="st1 st2 st3 st4"> </text>
<text transform="matrix(1 0 0 1 201.69 48.46)" class="st1 st2 st3">s</text>
<text transform="matrix(1 0 0 1 215.75 48.46)" class="st1 st2 st3">c</text>
<text transform="matrix(1 0 0 1 230.37 48.46)" class="st1 st2 st3">r</text>
<text transform="matrix(1 0 0 1 241.87 48.46)" class="st1 st2 st3">e</text>
<text transform="matrix(1 0 0 1 258.07 48.46)" class="st1 st2 st3">e</text>
<text transform="matrix(1 0 0 1 274.19 48.46)" class="st1 st2 st3">n </text>
<text transform="matrix(1 0 0 1 27.05 84.46)" class="st1 st5 st3 st4">.</text>
<text transform="matrix(1 0 0 1 32.29 84.46)" class="st1 st5 st3">tt</text>
<text transform="matrix(1 0 0 1 53.49 84.46)" class="st1 st5 st3">f</text>
<text transform="matrix(1 0 0 1 63.84 84.46)" class="st1 st5 st3 st4"> </text>
<text transform="matrix(1 0 0 1 68.64 84.46)" class="st1 st5 st3">+</text>
<text transform="matrix(1 0 0 1 86.64 84.46)" class="st1 st5 st3 st4"> </text>
<text transform="matrix(1 0 0 1 91.44 84.46)" class="st1 st5 st3 st6">.</text>
<text transform="matrix(1 0 0 1 96 84.46)" class="st1 st5 st3">w</text>
<text transform="matrix(1 0 0 1 118.63 84.46)" class="st1 st5 st3">o</text>
<text transform="matrix(1 0 0 1 133.52 84.46)" class="st1 st5 st3">f</text>
<text transform="matrix(1 0 0 1 144.12 84.46)" class="st1 st5 st3">f</text>
<polyline class="st7" points="164.3,248.6 95.7,317.2 27,248.6 "/>
<line class="st7" x1="95.7" y1="317.2" x2="95.7" y2="180"/>
<line class="st7" x1="27" y1="333.8" x2="164.3" y2="333.8"/>
</svg>
