<svg xmlns="http://www.w3.org/2000/svg" viewBox="0 0 240.34 78.64"><title>hello</title><g id="Lager_2" data-name="Lager 2"><g id="Lager_1-2" data-name="Lager 1"><path d="M56.37,0V77H41.25V44.45H15.12V77H0V0H15.12V30.34H41.25V0Z"/><path d="M88.91,78.64c-14.67,0-27-10.45-27-28.69V49c0-18.24,11.92-28.69,26.49-28.69S114.85,30.8,114.85,49.4V53H75.62c.37,8.34,6.23,13.57,13.75,13.57,4.4,0,8.89-1.83,11.09-6.23l13.29,2.38C109.72,73.05,99.64,78.64,88.91,78.64Zm11.82-34.83c-.82-8.16-6.32-12.37-12.37-12.37S76.91,35.66,76.17,43.81Z"/><path d="M119.9,62.6V0H134V60.13c0,3.3,1.38,4.77,3.85,4.77h3V77H134.2C125.4,77,119.9,72,119.9,62.6Z"/><path d="M145.2,62.6V0h14.12V60.13c0,3.3,1.38,4.77,3.85,4.77h3V77h-6.69C150.7,77,145.2,72,145.2,62.6Z"/><path d="M168,50V49c0-18.24,11.92-28.69,26.49-28.69S221,30.8,221,49V50c0,18.24-11.92,28.69-26.49,28.69S168,68.19,168,50Zm38.86-.18v-.55c0-10.91-5.5-16.77-12.37-16.77s-12.37,5.87-12.37,16.77v.55c0,10.91,5.5,16.77,12.37,16.77S206.88,60.68,206.88,49.77Z"/><path d="M226.23,16.5V0h14.12V16.5L239.88,50H226.77Zm0,44.55h14.12V77H226.23Z"/></g></g></svg>