<svg xmlns="http://www.w3.org/2000/svg" viewBox="0 0 469.38 74.74"><title>italic-visual</title><g id="Lager_2" data-name="Lager 2"><g id="Lager_1-2" data-name="Lager 1"><path d="M2.44,0H7.27V30.1H2.44Z"/><path d="M13.89,24.15V12.47H10.66V8.6H14V2.15h4.19V8.6H24v3.87H18.4V23.32c0,2.08,1,2.9,2.69,2.9H24V30.1H19.91C16.25,30.1,13.89,28.2,13.89,24.15Z"/><path d="M26.54,24.4v-.29c0-3.55,2.51-6.74,8.17-6.74h5.7V16.3c0-2.94-1.61-4.55-4.37-4.55a4.72,4.72,0,0,0-4.69,3.15l-4.16-.79c1.65-4.34,5.23-5.95,9.1-5.95,5.37,0,8.46,3,8.46,8v14H40.55V27.3a8.53,8.53,0,0,1-6.92,3.22C29.34,30.53,26.54,28,26.54,24.4Zm13.87-2.94V20.31H35.25c-2.83,0-4.19,1.4-4.19,3.33s1.5,3.3,3.83,3.3A5.28,5.28,0,0,0,40.41,21.46Z"/><path d="M49.38,24.86V0h4.51V24c0,1.58.64,2.19,1.79,2.19h1.15V30.1H54.54C51.38,30.1,49.38,28.41,49.38,24.86Z"/><path d="M59.75.65h4.66V5.37H59.75Zm.07,8h4.51V30.1H59.83Z"/><path d="M67.92,19.53v-.36c0-7.06,4.51-11,9.82-11a9.12,9.12,0,0,1,9,6.84l-4.19.79A5.1,5.1,0,0,0,77.73,12c-2.83,0-5.3,2.51-5.3,7.2v.22c0,4.76,2.47,7.2,5.3,7.2a5.1,5.1,0,0,0,4.76-3.76l4.19.79a9.12,9.12,0,0,1-9,6.84C72.43,30.53,67.92,26.62,67.92,19.53Z"/><path d="M98.62.65h4.66V5.37H98.62Zm.07,8h4.51V30.1H98.7Z"/><path d="M106.39,24.9l3.87-1.54a5.55,5.55,0,0,0,5.45,3.58c2.51,0,4.08-1.15,4.08-3s-1.47-2.47-3.44-2.83l-3-.57c-4.26-.75-6.45-2.69-6.45-5.73,0-3.55,2.76-6.66,8.17-6.66A9.73,9.73,0,0,1,123.95,13l-3.87,1.58a5.12,5.12,0,0,0-4.84-2.87c-2.4,0-3.83,1.18-3.83,2.83s1.22,2.22,3.08,2.58l3,.54c4.51.86,6.84,2.72,6.84,6,0,3.76-3,6.81-8.42,6.81C112.09,30.53,108.47,29.06,106.39,24.9Z"/><path d="M154,30.1h-4.19V27.3a6.89,6.89,0,0,1-6.09,3.22c-4.55,0-7.49-3.12-7.49-7.92V8.6h4.51V21.53c0,3.22,1.61,5.09,4.16,5.09,2.79,0,4.59-2.29,4.59-5.45V8.6H154Z"/><path d="M157.23,24.9l3.87-1.54a5.55,5.55,0,0,0,5.45,3.58c2.51,0,4.08-1.15,4.08-3s-1.47-2.47-3.44-2.83l-3-.57c-4.26-.75-6.45-2.69-6.45-5.73,0-3.55,2.76-6.66,8.17-6.66A9.73,9.73,0,0,1,174.78,13l-3.87,1.58a5.12,5.12,0,0,0-4.84-2.87c-2.4,0-3.83,1.18-3.83,2.83s1.22,2.22,3.08,2.58l3,.54c4.51.86,6.84,2.72,6.84,6,0,3.76-3,6.81-8.42,6.81C162.92,30.53,159.31,29.06,157.23,24.9Z"/><path d="M187.54,30.74c-5.59,0-10.25-4-10.25-11.21v-.36c0-7.17,4.51-11.21,10-11.21s10,4,10,11.25v1.18H181.74c.07,4,2.58,6.48,5.95,6.48a5.2,5.2,0,0,0,4.91-2.94l4.26.79A9.74,9.74,0,0,1,187.54,30.74Zm5.3-13.29c-.32-3.91-2.76-5.91-5.52-5.91s-5.16,2-5.45,5.91Z"/><path d="M199.92,20V18.7c0-7.06,4.37-10.53,9.06-10.53a7.11,7.11,0,0,1,6.2,3.22V0h4.51V30.1H215.5V27.23a7.27,7.27,0,0,1-6.45,3.3C204.29,30.53,199.92,27.05,199.92,20Zm15.44-.54v-.22c0-4.73-2.36-7.2-5.45-7.2s-5.48,2.47-5.48,7.2v.22c0,4.69,2.4,7.2,5.48,7.2S215.36,24.15,215.36,19.45Z"/><path d="M235.43,24.15V12.47H232.2V8.6h3.37V2.15h4.19V8.6h5.77v3.87h-5.59V23.32c0,2.08,1,2.9,2.69,2.9h2.9V30.1h-4.08C237.79,30.1,235.43,28.2,235.43,24.15Z"/><path d="M247.22,19.53v-.36c0-7.17,4.51-11.21,10-11.21s10,4,10,11.21v.36c0,7.17-4.51,11.21-10,11.21S247.22,26.69,247.22,19.53Zm15.55-.07v-.22c0-4.84-2.47-7.42-5.52-7.42s-5.52,2.58-5.52,7.42v.22c0,4.84,2.47,7.42,5.52,7.42S262.77,24.29,262.77,19.45Z"/><path d="M278.82,20V18.7c0-7.06,4.37-10.53,9.06-10.53a7.11,7.11,0,0,1,6.2,3.22V0h4.51V30.1h-4.19V27.23a7.27,7.27,0,0,1-6.45,3.3C283.2,30.53,278.82,27.05,278.82,20Zm15.44-.54v-.22c0-4.73-2.37-7.2-5.45-7.2s-5.48,2.47-5.48,7.2v.22c0,4.69,2.4,7.2,5.48,7.2S294.27,24.15,294.27,19.45Z"/><path d="M303.35.65H308V5.37h-4.66Zm.07,8h4.51V30.1h-4.51Z"/><path d="M311.12,24.9,315,23.36a5.55,5.55,0,0,0,5.45,3.58c2.51,0,4.08-1.15,4.08-3s-1.47-2.47-3.44-2.83l-3-.57c-4.26-.75-6.45-2.69-6.45-5.73,0-3.55,2.76-6.66,8.17-6.66A9.73,9.73,0,0,1,328.68,13l-3.87,1.58A5.12,5.12,0,0,0,320,11.75c-2.4,0-3.83,1.18-3.83,2.83s1.22,2.22,3.08,2.58l3,.54c4.51.86,6.84,2.72,6.84,6,0,3.76-3,6.81-8.42,6.81C316.82,30.53,313.2,29.06,311.12,24.9Z"/><path d="M334.16,24.15V12.47h-3.22V8.6h3.37V2.15h4.19V8.6h5.77v3.87h-5.59V23.32c0,2.08,1,2.9,2.69,2.9h2.9V30.1h-4.08C336.52,30.1,334.16,28.2,334.16,24.15Z"/><path d="M347.16.65h4.66V5.37h-4.66Zm.07,8h4.51V30.1h-4.51Z"/><path d="M356.52,8.6h4.19v2.79a6.88,6.88,0,0,1,6.09-3.22c4.55,0,7.49,3.12,7.49,7.92v14h-4.51V17.16c0-3.26-1.61-5.12-4.16-5.12-2.79,0-4.59,2.33-4.59,5.48V30.1h-4.51Z"/><path d="M377.32,33.14a5.49,5.49,0,0,1,2.69-4.8,4.6,4.6,0,0,1-1.83-3.69,4.74,4.74,0,0,1,3.12-4.44A6.18,6.18,0,0,1,379,15.37c0-4.16,3.4-7.27,8.06-7.27a9.21,9.21,0,0,1,3,.5h7v3.58H394a5,5,0,0,1,1.08,3.19c0,4.16-3.4,7.34-8,7.34h-2.9c-1.43,0-2.11.68-2.11,1.68s.68,1.76,2.19,1.76h6.52c4.08,0,6.88,2.79,6.88,6.38s-3,6.81-7.74,6.81h-5.16C380.07,39.34,377.32,36.58,377.32,33.14Zm12.18,2.65c2.54,0,4-1.33,4-3.12s-1.29-3-3.33-3h-5.3a3,3,0,0,0-3.33,3c0,1.76,1.4,3.12,3.87,3.12ZM391,15.41a4,4,0,0,0-8,0,4,4,0,0,0,8,0Z"/><path d="M417.9,30.1h-4.19V27.3a6.89,6.89,0,0,1-6.09,3.22c-4.55,0-7.49-3.12-7.49-7.92V8.6h4.51V21.53c0,3.22,1.61,5.09,4.16,5.09,2.79,0,4.59-2.29,4.59-5.45V8.6h4.51Z"/><path d="M422.65.65h4.66V5.37h-4.66Zm.07,8h4.51V30.1h-4.51Z"/><path d="M430.42,24.9l3.87-1.54a5.55,5.55,0,0,0,5.45,3.58c2.51,0,4.08-1.15,4.08-3s-1.47-2.47-3.44-2.83l-3-.57c-4.26-.75-6.45-2.69-6.45-5.73,0-3.55,2.76-6.66,8.17-6.66A9.73,9.73,0,0,1,448,13l-3.87,1.58a5.12,5.12,0,0,0-4.84-2.87c-2.4,0-3.83,1.18-3.83,2.83s1.22,2.22,3.08,2.58l3,.54c4.51.86,6.84,2.72,6.84,6,0,3.76-3,6.81-8.42,6.81C436.12,30.53,432.5,29.06,430.42,24.9Z"/><path d="M469.38,16.09v14h-4.51V17.16c0-3.26-1.61-5.09-4.16-5.09-2.79,0-4.59,2.29-4.59,5.45V30.1h-4.51V0h4.51V10.93a6.94,6.94,0,0,1,5.77-2.76C466.44,8.17,469.38,11.29,469.38,16.09Z"/><path d="M0,66.36a19.23,19.23,0,0,1,.64-4.76c1.5-5.45,5.09-9.39,10-9.39a6.17,6.17,0,0,1,6,3.55l.79-3.15H21.6L16.23,74.1H12.32L13,71.34a7.37,7.37,0,0,1-6.13,3.19C3.12,74.53,0,71.87,0,66.36Zm14.4-2.29a15.39,15.39,0,0,0,.47-3.37c0-3.26-1.68-4.8-3.83-4.8-3,0-5.19,2.94-6.2,6.74a15.79,15.79,0,0,0-.5,3.51c0,3,1.65,4.66,3.83,4.66C11.18,70.8,13.47,67.86,14.4,64.06Z"/><path d="M34.18,52.6h4.69l.21,10.68c0,1.22,0,2.47,0,4.62,1-2.15,1.68-3.37,2.33-4.59L47.15,52.6h4.26l.5,10.71c0,1.22.07,2.58.11,4.59.93-2,1.61-3.37,2.26-4.59L60,52.6h4.73l-12,21.5H48.44L48,61.73c0-.86-.07-2,0-3.44-.65,1.43-1.22,2.51-1.72,3.44L39.84,74.1H35.44Z"/><path d="M63.3,66.28A17.74,17.74,0,0,1,64,61.63C65.7,55.32,69.68,52,74.55,52s8.1,3.44,8.1,8.46A17.74,17.74,0,0,1,82,65.07c-1.72,6.31-5.7,9.67-10.57,9.67S63.3,71.3,63.3,66.28Zm14.51-2.22a14.89,14.89,0,0,0,.5-3.55c0-3.33-1.61-4.84-3.91-4.84s-5,1.76-6.27,7a15,15,0,0,0-.5,3.51c0,3.4,1.65,4.87,3.91,4.87S76.52,69.33,77.81,64.06Z"/><path d="M89,52.6h4.19L92.29,56c1.58-2,3.87-3.65,6.41-3.65a6.27,6.27,0,0,1,1.83.29l-1.07,4.48a6.78,6.78,0,0,0-1.83-.25c-3.66,0-6,3.19-7.06,7.31L88.1,74.13l-4.51,0Z"/><path d="M99.7,66.36a19.23,19.23,0,0,1,.64-4.76c1.5-5.45,5.2-9.39,10.28-9.39a5.87,5.87,0,0,1,5.52,3L118.94,44h4.51l-7.52,30.1H112l.68-2.76a7.35,7.35,0,0,1-6.09,3.19C102.78,74.53,99.7,71.87,99.7,66.36Zm14.4-2.29a15.39,15.39,0,0,0,.47-3.37c0-3.26-1.68-4.8-3.83-4.8-3,0-5.2,2.94-6.2,6.74a15.79,15.79,0,0,0-.5,3.51c0,3,1.65,4.66,3.83,4.66C110.81,70.8,113.1,68,114.1,64.06Z"/><path d="M132.74,44.65h4.66v4.73h-4.66Zm.07,8h4.51V74.1h-4.51Z"/><path d="M142.1,52.6h4.19v2.79a6.88,6.88,0,0,1,6.09-3.22c4.55,0,7.49,3.12,7.49,7.92v14h-4.51V61.16c0-3.26-1.61-5.12-4.16-5.12-2.79,0-4.59,2.33-4.59,5.48V74.1H142.1Z"/><path d="M172.84,68.4v-.29c0-3.55,2.51-6.74,8.17-6.74h5.7V60.3c0-2.94-1.61-4.55-4.37-4.55a4.72,4.72,0,0,0-4.69,3.15l-4.16-.79c1.65-4.34,5.23-5.95,9.1-5.95,5.37,0,8.46,3,8.46,8v14h-4.19V71.3a8.53,8.53,0,0,1-6.92,3.22C175.64,74.53,172.84,72,172.84,68.4Zm13.87-2.94V64.31h-5.16c-2.83,0-4.19,1.4-4.19,3.33s1.5,3.3,3.83,3.3A5.28,5.28,0,0,0,186.71,65.46Z"/><path d="M206.78,68.15V56.47h-3.22V52.6h3.37V46.15h4.19V52.6h5.77v3.87h-5.59V67.32c0,2.08,1,2.9,2.69,2.9h2.9V74.1H212.8C209.14,74.1,206.78,72.2,206.78,68.15Z"/><path d="M228.79,74.74c-5.59,0-10.25-4-10.25-11.21v-.36c0-7.17,4.51-11.21,10-11.21s10,4,10,11.25v1.18H223c.07,4,2.58,6.48,5.95,6.48a5.2,5.2,0,0,0,4.91-2.94l4.26.79A9.74,9.74,0,0,1,228.79,74.74Zm5.3-13.29c-.32-3.91-2.76-5.91-5.52-5.91s-5.16,2-5.45,5.91Z"/><path d="M254.62,74.1l-2.33-3.44c-.93-1.4-1.86-2.87-2.79-4.55-1,1.68-1.94,3.15-2.87,4.55L244.3,74.1h-5.05L247,63,239.89,52.6h5.37L247.56,56c.72,1.11,1.43,2.29,2.19,3.65A41.13,41.13,0,0,1,252,56l2.33-3.44h5l-7.13,10.18L260,74.1Z"/><path d="M265,68.15V56.47h-3.22V52.6h3.37V46.15h4.19V52.6h5.77v3.87h-5.59V67.32c0,2.08,1,2.9,2.69,2.9h2.9V74.1h-4.08C267.41,74.1,265,72.2,265,68.15Z"/><path d="M278.83,68.94h4.66V74.1h-4.66Z"/></g></g></svg>