<?xml version="1.0" encoding="utf-8"?>
<!-- Generator: Adobe Illustrator 21.0.2, SVG Export Plug-In . SVG Version: 6.00 Build 0)  -->
<svg version="1.1" id="Lager_1" xmlns="http://www.w3.org/2000/svg" xmlns:xlink="http://www.w3.org/1999/xlink" x="0px" y="0px"
	 viewBox="0 0 360 360" style="enable-background:new 0 0 360 360;" xml:space="preserve">
<style type="text/css">
	.st0{fill:#EEEEEE;}
</style>
<rect y="0" class="st0" width="360" height="360"/>
<title>medium-usage</title>
<g id="Lager_2">
	<g id="Lager_1-2">
		<path d="M20,31.2l2.1-0.8c0.5,1.3,1.9,2.2,3.3,2.1c1.6,0,2.9-0.8,2.9-2.2s-1-1.8-2-2l-1.9-0.4c-1.9-0.4-4-1.3-4-3.8V24
			c0-2.3,2-3.9,4.7-3.9c2.1-0.1,4.1,1.1,5.1,3l-2.1,0.8C27.5,22.7,26.3,22,25,22c-1.5,0-2.5,0.9-2.5,2.1s0.9,1.7,2.2,2l1.9,0.4
			c1.8,0.3,3.8,1.2,3.8,3.6v0.1c0,2.6-2.2,4.3-5.1,4.3C23,34.6,20.9,33.3,20,31.2z"/>
		<path d="M40.3,34.2h-2v-1.3c-0.6,1-1.7,1.5-2.8,1.5c-1.9,0.1-3.4-1.4-3.5-3.2c0-0.2,0-0.3,0-0.5v-6.5h2.1v6c0,1.5,0.8,2.4,1.9,2.4
			c1.2-0.1,2.2-1.1,2.1-2.3c0-0.1,0-0.1,0-0.2v-5.8h2.1v9.9H40.3z"/>
		<path d="M44.6,32.9v1.3h-1.9v-14h2.1v5.3c0.6-1,1.7-1.6,2.9-1.5c2.2,0,4.2,1.6,4.2,4.9v0.6c0,3.3-2,4.9-4.2,4.9
			C46.4,34.5,45.3,33.9,44.6,32.9z M49.8,29.3v-0.1c0-2.2-1.1-3.4-2.5-3.4s-2.5,1.2-2.5,3.4v0.1c0,2.2,1.1,3.4,2.5,3.4
			S49.8,31.5,49.8,29.3z"/>
		<path d="M53.5,28.3h4.7v1.8h-4.7V28.3z"/>
		<path d="M68.4,27.7v6.5h-2.1v-6c0-1.5-0.8-2.4-1.9-2.4c-1.2,0.1-2.2,1.1-2.1,2.3c0,0.1,0,0.1,0,0.2v5.9h-2.1v-14h2.1v5.1
			c0.6-0.9,1.6-1.4,2.7-1.3c1.9-0.1,3.4,1.4,3.5,3.2C68.5,27.4,68.5,27.6,68.4,27.7z"/>
		<path d="M74.9,34.5c-2.6,0-4.8-1.9-4.8-5.2v-0.2c0-3.3,2.1-5.2,4.7-5.2s4.7,1.9,4.7,5.2v0.6h-7.3c-0.1,1.5,1,2.9,2.6,3
			c0.1,0,0.1,0,0.2,0c1,0,1.9-0.5,2.3-1.4l2,0.4C78.6,33.5,76.8,34.6,74.9,34.5z M77.4,28.3c0.1-1.5-1.1-2.7-2.5-2.7l0,0
			c-1.3,0-2.4,0.9-2.5,2.8L77.4,28.3L77.4,28.3z"/>
		<path d="M80.8,31.6v-0.1c0-1.6,1.2-3.1,3.8-3.1h2.7v-0.5c0.1-1-0.6-2-1.6-2.1c-0.1,0-0.3,0-0.4,0c-1-0.1-1.9,0.5-2.3,1.5l-1.9-0.4
			c0.6-1.8,2.4-2.9,4.2-2.8c2.5,0,3.9,1.4,3.9,3.7v6.5h-1.9V33c-0.8,1-2,1.5-3.2,1.5C82.1,34.4,80.8,33.2,80.8,31.6z M87.3,30.2
			v-0.5h-2.4c-1.3,0-2,0.6-2,1.6c0,0.9,0.7,1.5,1.8,1.5c1.4,0.1,2.5-0.9,2.6-2.3C87.3,30.4,87.3,30.3,87.3,30.2L87.3,30.2z"/>
		<path d="M91.1,29.5v-0.6c0-3.3,2-4.9,4.2-4.9c1.2,0,2.2,0.5,2.9,1.5v-5.3h2.1v14h-1.9v-1.3c-0.7,1-1.8,1.6-3,1.5
			C93.2,34.4,91.1,32.8,91.1,29.5z M98.3,29.3v-0.1c0-2.2-1.1-3.4-2.5-3.4s-2.5,1.2-2.5,3.4v0.1c0,2.2,1.1,3.4,2.6,3.4
			S98.3,31.5,98.3,29.3z"/>
		<path d="M102.7,31.8V20.2h2.1v11.2c0,0.7,0.3,1,0.8,1h0.5v1.8H105c-1.2,0.1-2.3-0.7-2.4-1.9C102.7,32.1,102.7,32,102.7,31.8z"/>
		<path d="M107.7,20.2h2.1v2.5h-2.1V20.2z M107.7,24.2h2.1v10h-2.1V24.2z"/>
		<path d="M112.2,24.2h1.9v1.3c0.6-1,1.7-1.6,2.9-1.5c1.9-0.1,3.4,1.4,3.5,3.2c0,0.2,0,0.3,0,0.5v6.5h-2.1v-6c0-1.5-0.8-2.4-1.9-2.4
			s-2.1,1.1-2.1,2.5v5.9h-2.1L112.2,24.2z"/>
		<path d="M126.9,34.5c-2.6,0-4.8-1.9-4.8-5.2v-0.2c0-3.3,2.1-5.2,4.7-5.2s4.7,1.9,4.7,5.2v0.6h-7.3c-0.1,1.5,1,2.9,2.6,3
			c0.1,0,0.1,0,0.2,0c1,0,1.9-0.5,2.3-1.4l2,0.4C130.6,33.5,128.8,34.6,126.9,34.5z M129.4,28.3c0.1-1.5-1.1-2.7-2.5-2.7l0,0
			c-1.3,0-2.4,0.9-2.5,2.8L129.4,28.3L129.4,28.3z"/>
		<path d="M137.5,20.2h2.1v2.5h-2.1V20.2z M137.5,24.2h2.1v10h-2.1V24.2z"/>
		<path d="M141.9,24.2h1.9v1.3c0.6-1,1.7-1.6,2.8-1.5c1.9-0.1,3.4,1.4,3.5,3.2c0,0.2,0,0.3,0,0.5v6.5H148v-6c0-1.5-0.8-2.4-1.9-2.4
			c-1.2,0-2.2,1.1-2.2,2.6v5.8h-2.1L141.9,24.2z"/>
		<path d="M169.8,34.2h-2.2V23.8c-0.4,0.8-0.9,1.6-1.5,2.5l-2.7,4.4l-2.7-4.4c-0.6-0.9-1.1-1.8-1.5-2.5v10.4h-2.1v-14h2.3l4.1,6.6
			l4.1-6.6h2.3v14H169.8z"/>
		<path d="M176.7,34.5c-2.6,0-4.8-1.9-4.8-5.2v-0.2c0-3.3,2.1-5.2,4.7-5.2s4.7,1.9,4.7,5.2v0.6H174c-0.1,1.5,1,2.9,2.6,3
			c0.1,0,0.1,0,0.2,0c1,0,1.9-0.5,2.3-1.4l2,0.4C180.3,33.5,178.6,34.6,176.7,34.5z M179.2,28.3c0.1-1.5-1.1-2.7-2.5-2.7l0,0
			c-1.3,0-2.4,0.9-2.5,2.8L179.2,28.3L179.2,28.3z"/>
		<path d="M182.6,29.5v-0.6c0-3.3,2-4.9,4.2-4.9c1.2,0,2.2,0.5,2.9,1.5v-5.3h2.1v14h-1.9v-1.3c-0.7,1-1.8,1.6-3,1.5
			C184.6,34.4,182.6,32.8,182.6,29.5z M189.8,29.3v-0.1c0-2.2-1.1-3.4-2.5-3.4s-2.5,1.2-2.5,3.4v0.1c0,2.2,1.1,3.4,2.6,3.4
			S189.8,31.5,189.8,29.3L189.8,29.3z"/>
		<path d="M194.2,20.2h2.1v2.5h-2.1V20.2z M194.2,24.2h2.1v10h-2.1V24.2z"/>
		<path d="M206.8,34.2h-1.9v-1.3c-0.6,1-1.7,1.5-2.8,1.5c-1.9,0.1-3.4-1.4-3.5-3.2c0-0.2,0-0.3,0-0.5v-6.5h2.1v6
			c0,1.5,0.8,2.4,1.9,2.4c1.2-0.1,2.2-1.1,2.1-2.3c0-0.1,0-0.1,0-0.2v-5.8h2.1L206.8,34.2z"/>
		<path d="M209.2,24.2h1.9v1.3c0.6-1,1.7-1.5,2.8-1.5c1.1-0.1,2.2,0.6,2.7,1.6c0.6-1,1.7-1.6,2.9-1.6c1.9-0.1,3.4,1.4,3.5,3.3
			c0,0.1,0,0.3,0,0.4v6.5h-2.1v-6.1c0-1.4-0.6-2.3-1.8-2.3s-2,1-2,2.5v5.9H215v-6.1c0-1.4-0.6-2.3-1.8-2.3s-2,1-2,2.5v5.9h-2.1
			L209.2,24.2z"/>
		<path d="M28.7,54.8v1.4h-6.9v-14h1.5v12.6C23.3,54.8,28.7,54.8,28.7,54.8z"/>
		<path d="M29.6,51.3v-0.2c0-3.3,2-5.2,4.4-5.2s4.4,1.9,4.4,5.2v0.2c0,3.3-2,5.2-4.4,5.2S29.6,54.7,29.6,51.3z M37.1,51.3L37.1,51.3
			c0-2.7-1.3-4.1-3-4.1s-3,1.4-3,4v0.1c0,2.6,1.3,4,3,4S37.1,53.9,37.1,51.3z"/>
		<path d="M40.7,46.2H42v2.4c0.6-1.5,2.1-2.5,3.8-2.5v1.4c-2.3,0-3.7,1.7-3.7,4.1v4.6h-1.4L40.7,46.2z"/>
		<path d="M51.3,56.5c-2.5,0-4.5-1.9-4.5-5.2v-0.2c0-3.3,2-5.2,4.4-5.2s4.4,1.9,4.4,5.2v0.4h-7.5c0,2.4,1.3,3.8,3.2,3.8
			c1.2,0,2.2-0.7,2.7-1.7l1.3,0.3C54.7,55.5,53.1,56.6,51.3,56.5z M54.2,50.5c-0.1-2.3-1.5-3.5-3-3.5s-2.9,1.2-3,3.5H54.2z"/>
		<path d="M57.6,46.2h1.3v1.6c0.5-1.1,1.7-1.8,2.9-1.8c1.3,0,2.4,0.8,2.8,2c0.5-1.2,1.7-2,3-2c1.9,0,3.3,1.4,3.3,3.7v6.5h-1.4V50
			c0-1.7-0.8-2.8-2.1-2.8c-1.5,0-2.4,1.3-2.4,3v6h-1.4V50c0-1.7-0.8-2.8-2.1-2.8s-2.4,1.3-2.4,3v6h-1.4L57.6,46.2z"/>
		<path d="M77.6,42.2H79v2.2h-1.4V42.2z M77.6,46.2H79v10h-1.4V46.2z"/>
		<path d="M81.6,46.2h1.3V48c0.6-1.3,1.9-2,3.2-2c2.2,0,4.2,1.6,4.2,5v0.4c0,3.3-1.9,5-4.1,5c-1.4,0-2.6-0.8-3.2-2v5.8h-1.4V46.2z
			 M88.9,51.2L88.9,51.2c0-2.7-1.3-4-3-4s-2.9,1.4-2.9,4v0.1c0,2.6,1.3,3.9,2.9,3.9S88.9,53.9,88.9,51.2L88.9,51.2z"/>
		<path d="M91.5,53.9l1.2-0.5c0.4,1.2,1.6,2,2.9,1.9c1.4,0,2.4-0.6,2.4-1.8s-0.9-1.5-2.1-1.7l-1.3-0.2c-1.6-0.3-2.8-1-2.8-2.6
			s1.3-3,3.5-3c1.6-0.1,3.1,0.8,3.9,2.2L98,48.7c-0.5-1-1.5-1.6-2.7-1.6c-1.3,0-2.2,0.7-2.2,1.7s0.8,1.4,1.8,1.6l1.3,0.2
			c1.9,0.4,3.1,1.1,3.1,2.7s-1.4,3-3.7,3C93.9,56.5,92.2,55.5,91.5,53.9z"/>
		<path d="M108.7,56.2h-1.3v-1.6c-0.6,1.1-1.7,1.8-3,1.8c-2,0-3.4-1.4-3.4-3.7v-6.5h1.4v6.2c0,1.8,0.9,2.8,2.3,2.8
			c1.5,0,2.7-1.3,2.6-2.8c0-0.1,0-0.1,0-0.2v-6h1.4V56.2z"/>
		<path d="M111.3,46.2h1.3v1.6c0.5-1.1,1.7-1.8,2.9-1.8c1.3,0,2.4,0.8,2.8,2c0.5-1.2,1.7-2,3-2c1.9,0,3.3,1.4,3.3,3.7v6.5h-1.4V50
			c0-1.7-0.8-2.8-2.1-2.8c-1.4,0-2.4,1.3-2.4,3v6h-1.4V50c0-1.7-0.8-2.8-2.1-2.8s-2.4,1.3-2.4,3v6h-1.4L111.3,46.2z"/>
		<path d="M130.6,51.4V51c0-3.3,1.9-5,4.1-5c1.4,0,2.6,0.8,3.2,2v-5.8h1.4v14H138v-1.8c-0.6,1.3-1.9,2-3.2,2
			C132.5,56.4,130.6,54.8,130.6,51.4z M137.9,51.3L137.9,51.3c0-2.7-1.3-4.1-2.9-4.1s-3,1.4-3,4v0.1c0,2.6,1.3,3.9,3,3.9
			S137.9,53.8,137.9,51.3z"/>
		<path d="M141.3,51.3v-0.2c0-3.3,2-5.2,4.4-5.2s4.4,1.9,4.4,5.2v0.2c0,3.3-2,5.2-4.4,5.2S141.3,54.7,141.3,51.3z M148.8,51.3
			L148.8,51.3c0-2.7-1.3-4.1-3-4.1s-3,1.4-3,4v0.1c0,2.6,1.3,4,3,4S148.8,53.9,148.8,51.3L148.8,51.3z"/>
		<path d="M152.2,54.1V42.2h1.4v11.6c0,0.9,0.4,1.2,1,1.2h0.5v1.2h-0.9c-1,0.1-2-0.7-2.1-1.7C152.2,54.4,152.2,54.2,152.2,54.1z"/>
		<path d="M156.1,51.3v-0.2c0-3.3,2-5.2,4.4-5.2s4.4,1.9,4.4,5.2v0.2c0,3.3-2,5.2-4.4,5.2S156.1,54.7,156.1,51.3z M163.5,51.3
			L163.5,51.3c0-2.7-1.3-4.1-3-4.1s-3,1.4-3,4v0.1c0,2.6,1.3,4,3,4S163.5,53.9,163.5,51.3z"/>
		<path d="M167.1,46.2h1.3v2.4c0.6-1.5,2.1-2.5,3.8-2.5v1.4c-2.3,0-3.7,1.7-3.7,4.1v4.6h-1.4L167.1,46.2z"/>
		<path d="M177.4,53.9l1.2-0.5c0.4,1.2,1.6,2,2.9,1.9c1.4,0,2.4-0.7,2.4-1.8s-0.9-1.5-2.1-1.7l-1.3-0.2c-1.6-0.3-2.8-1-2.8-2.6
			s1.3-2.9,3.6-2.9c1.6-0.1,3.1,0.8,3.9,2.2l-1.2,0.5c-0.5-1-1.5-1.6-2.6-1.6c-1.3,0-2.2,0.7-2.2,1.7s0.8,1.4,1.8,1.6l1.3,0.2
			c1.9,0.3,3.1,1.1,3.1,2.7s-1.4,3-3.7,3C179.8,56.5,178.1,55.5,177.4,53.9z"/>
		<path d="M187.1,42.2h1.4v2.2h-1.4V42.2z M187.1,46.2h1.4v10h-1.4V46.2z"/>
		<path d="M191.9,53.8v-6.4h-1.7v-1.2h1.7v-3h1.3v3h2.9v1.2h-2.8v6.1c0,1.1,0.5,1.5,1.4,1.5h1.5v1.2h-1.8c-1.2,0.1-2.3-0.7-2.4-1.9
			C191.9,54.1,191.9,54,191.9,53.8z"/>
		<path d="M201.6,53.7L201.6,53.7c0-1.7,1.2-3.1,3.7-3.1h2.9v-0.8c0.2-1.2-0.7-2.4-2-2.5c-0.1,0-0.3,0-0.4,0c-1.2,0-2.2,0.7-2.6,1.8
			l-1.3-0.3c0.6-1.7,2.2-2.8,3.9-2.7c1.8-0.2,3.5,1.2,3.7,3c0,0.2,0,0.4,0,0.6v6.6h-1.3v-1.6c-0.7,1.2-2,1.8-3.4,1.8
			C203,56.4,201.6,55.3,201.6,53.7z M208.2,52.3v-0.9h-2.7c-1.6,0-2.5,0.9-2.5,2s0.9,1.9,1.9,1.9c0.1,0,0.2,0,0.2,0
			c1.6,0.1,3-1.2,3-2.8C208.2,52.4,208.2,52.4,208.2,52.3z"/>
		<path d="M212.2,46.2h1.3v1.6c0.5-1.1,1.7-1.8,2.9-1.8c1.3,0,2.4,0.8,2.8,2c0.5-1.2,1.7-2,3-2c1.9,0,3.3,1.4,3.3,3.7v6.5H224V50
			c0-1.7-0.9-2.8-2.1-2.8c-1.4,0-2.4,1.3-2.4,3v6h-1.4V50c0-1.7-0.8-2.8-2.1-2.8s-2.4,1.3-2.4,3v6h-1.4L212.2,46.2z"/>
		<path d="M231.9,56.5c-2.5,0-4.5-1.9-4.5-5.2v-0.2c0-3.3,2-5.2,4.4-5.2s4.4,1.9,4.4,5.2v0.4h-7.5c0,2.4,1.3,3.8,3.2,3.8
			c1.2,0,2.2-0.7,2.7-1.7l1.3,0.3C235.2,55.5,233.6,56.6,231.9,56.5z M234.8,50.5c-0.1-2.3-1.4-3.5-3-3.5s-2.9,1.2-3,3.5H234.8z"/>
		<path d="M238.7,53.8v-6.4H237v-1.2h1.7v-3h1.3v3h2.9v1.2h-2.8v6.1c0,1.1,0.5,1.5,1.4,1.5h1.5v1.2h-1.8c-1.2,0.1-2.3-0.8-2.4-2
			C238.7,54.1,238.7,54,238.7,53.8z"/>
		<path d="M246.1,53.8v3.4c0,1-0.6,1.5-1.7,1.5v-0.8c0.6,0,0.8-0.2,0.8-0.8V56h-0.5v-2.2H246.1z"/>
		<path d="M252.3,51.3v-0.2c0-3.3,2-5.1,4.3-5.1c1.8,0,3.4,1.2,3.9,3l-1.3,0.3c-0.3-1.2-1.4-2-2.6-2c-1.6,0-2.9,1.4-2.9,4v0.1
			c0,2.6,1.3,3.9,2.9,3.9c1.2,0,2.3-0.8,2.6-2l1.3,0.3c-0.5,1.8-2.1,3-3.9,3C254.3,56.4,252.3,54.6,252.3,51.3z"/>
		<path d="M261.8,51.3v-0.2c0-3.3,2-5.2,4.4-5.2s4.4,1.9,4.4,5.2v0.2c0,3.3-2,5.2-4.4,5.2S261.8,54.7,261.8,51.3z M269.2,51.3
			L269.2,51.3c0-2.7-1.3-4.1-3-4.1s-3,1.4-3,4v0.1c0,2.6,1.3,4,3,4C267.9,55.3,269.2,53.9,269.2,51.3z"/>
		<path d="M272.7,46.2h1.3v1.6c0.6-1.1,1.7-1.8,3-1.8c2,0,3.4,1.4,3.4,3.7v6.5H279V50c0-1.8-0.9-2.8-2.3-2.8c-1.5,0-2.7,1.3-2.6,2.8
			c0,0.1,0,0.1,0,0.2v6h-1.4V46.2z"/>
		<path d="M282.1,53.9l1.2-0.5c0.4,1.2,1.6,2,2.9,1.9c1.4,0,2.4-0.7,2.4-1.8s-0.9-1.5-2.1-1.7l-1.3-0.2c-1.6-0.3-2.8-1-2.8-2.6
			s1.3-2.9,3.6-2.9c1.6-0.1,3.1,0.8,3.9,2.2l-1.2,0.5c-0.5-1-1.5-1.6-2.6-1.6c-1.3,0-2.2,0.7-2.2,1.7s0.8,1.4,1.8,1.6l1.3,0.2
			c1.9,0.3,3.1,1.1,3.1,2.7s-1.4,3-3.7,3C284.4,56.5,282.8,55.5,282.1,53.9z"/>
		<path d="M295.7,56.5c-2.5,0-4.5-1.9-4.5-5.2v-0.2c0-3.3,2-5.2,4.4-5.2s4.4,1.9,4.4,5.2v0.4h-7.5c0,2.4,1.3,3.8,3.2,3.8
			c1.2,0,2.2-0.7,2.7-1.7l1.3,0.3C299.1,55.5,297.5,56.6,295.7,56.5z M298.7,50.5c-0.1-2.3-1.5-3.5-3-3.5s-2.9,1.2-3,3.5H298.7z"/>
		<path d="M20.5,73.3v-0.2c0-3.3,2-5.1,4.3-5.1c1.8,0,3.4,1.2,3.9,3l-1.3,0.3c-0.3-1.2-1.4-2-2.6-2c-1.6,0-2.9,1.3-2.9,3.9v0.1
			c0,2.6,1.3,4,2.9,4c1.2,0,2.3-0.8,2.6-2l1.3,0.3c-0.5,1.8-2.1,3-3.9,3C22.5,78.4,20.5,76.6,20.5,73.3z"/>
		<path d="M31.3,75.8v-6.4h-1.7v-1.2h1.7v-3h1.3v3h2.9v1.2h-2.8v6.1c0,1.1,0.5,1.5,1.4,1.5h1.5v1.2h-1.8c-1.2,0.1-2.3-0.7-2.4-1.9
			C31.3,76.1,31.3,76,31.3,75.8z"/>
		<path d="M41,78.5c-2.5,0-4.5-1.9-4.5-5.2v-0.2c0-3.3,2-5.2,4.4-5.2s4.4,1.9,4.4,5.2v0.4h-7.5c0,2.4,1.3,3.8,3.2,3.8
			c1.2,0,2.2-0.7,2.7-1.7l1.3,0.3C44.4,77.5,42.8,78.6,41,78.5z M43.9,72.5c-0.1-2.3-1.4-3.5-3-3.5c-1.5,0-2.9,1.2-3,3.5H43.9z"/>
		<path d="M47.8,75.8v-6.4h-1.7v-1.2h1.7v-3h1.3v3H52v1.2h-2.8v6.1c0,1.1,0.5,1.5,1.4,1.5H52v1.2h-1.8c-1.2,0.1-2.3-0.8-2.4-2
			C47.8,76.1,47.8,76,47.8,75.8z"/>
		<path d="M61.4,78.2h-1.3v-1.6c-0.6,1.1-1.7,1.8-3,1.8c-2,0-3.4-1.4-3.4-3.7v-6.5H55v6.2c0,1.8,0.9,2.8,2.3,2.8
			c1.5,0,2.7-1.2,2.7-2.7c0-0.1,0-0.2,0-0.3v-6h1.4V78.2z"/>
		<path d="M68,78.5c-2.5,0-4.5-1.9-4.5-5.2v-0.2c0-3.3,2-5.2,4.4-5.2s4.4,1.9,4.4,5.2v0.4h-7.5c0,2.4,1.3,3.8,3.2,3.8
			c1.2,0,2.2-0.7,2.7-1.7l1.3,0.3C71.4,77.5,69.8,78.6,68,78.5z M70.9,72.5c-0.1-2.3-1.4-3.5-3-3.5s-2.9,1.2-3,3.5H70.9z"/>
		<path d="M74.4,68.2h1.3v2.4c0.6-1.5,2.1-2.5,3.8-2.5v1.4c-2.3,0-3.7,1.7-3.7,4.1v4.6h-1.4C74.4,78.2,74.4,68.2,74.4,68.2z"/>
		<path d="M85.2,75.7L85.2,75.7c0-1.8,1.2-3.1,3.7-3.1h2.9v-0.8c0.2-1.2-0.7-2.4-2-2.5c-0.1,0-0.3,0-0.4,0c-1.2,0-2.2,0.7-2.6,1.8
			l-1.3-0.3c0.6-1.7,2.2-2.8,4-2.7c1.8-0.2,3.5,1.2,3.7,3c0,0.2,0,0.4,0,0.6v6.6h-1.3v-1.6c-0.7,1.2-2,1.8-3.4,1.8
			C86.5,78.4,85.2,77.3,85.2,75.7z M91.8,74.3v-0.9h-2.7c-1.6,0-2.5,0.9-2.5,2s0.9,1.9,1.9,1.9c0.1,0,0.2,0,0.2,0
			c1.6,0.1,3-1.2,3-2.8C91.8,74.4,91.8,74.4,91.8,74.3z"/>
		<path d="M95.2,73.4V73c0-3.3,1.9-5,4.1-5c1.4,0,2.6,0.8,3.2,2v-5.8h1.4v14h-1.3v-1.8c-0.6,1.3-1.9,2-3.2,2
			C97.1,78.4,95.2,76.8,95.2,73.4z M102.5,73.3L102.5,73.3c0-2.7-1.3-4-2.9-4s-3,1.4-3,3.9v0.1c0,2.6,1.3,4,3,4
			S102.5,75.8,102.5,73.3z"/>
		<path d="M106.5,64.2h1.4v2.2h-1.4V64.2z M106.5,68.2h1.4v10h-1.4V68.2z"/>
		<path d="M110.5,68.2h1.3V70c0.6-1.3,1.8-2.1,3.2-2.1c2.2,0,4.2,1.7,4.2,5v0.4c0,3.3-1.9,5-4.1,5c-1.4,0-2.6-0.8-3.2-2v5.8h-1.4
			V68.2z M117.8,73.2L117.8,73.2c0-2.7-1.3-4.1-3-4.1s-3,1.4-3,4v0.1c0,2.6,1.3,3.9,3,3.9S117.8,75.9,117.8,73.2L117.8,73.2z"/>
		<path d="M121.3,64.2h1.4v2.2h-1.4V64.2z M121.3,68.2h1.4v10h-1.4V68.2z"/>
		<path d="M124.5,75.9l1.2-0.5c0.4,1.2,1.6,2,2.9,1.9c1.4,0,2.3-0.7,2.3-1.8s-0.9-1.5-2.1-1.7l-1.3-0.2c-1.6-0.3-2.8-1-2.8-2.6
			s1.3-2.9,3.6-2.9c1.6-0.1,3.1,0.8,3.9,2.2l-1.2,0.5c-0.5-1-1.5-1.6-2.7-1.6c-1.3,0-2.2,0.7-2.2,1.7s0.8,1.4,1.8,1.6l1.3,0.2
			c1.9,0.3,3.1,1.1,3.1,2.7s-1.4,3-3.7,3C126.9,78.5,125.2,77.5,124.5,75.9z"/>
		<path d="M133.7,73.3v-0.2c0-3.3,2-5.1,4.3-5.1c1.8,0,3.4,1.2,3.9,3l-1.3,0.3c-0.3-1.2-1.4-2-2.6-2c-1.6,0-2.9,1.3-2.9,3.9v0.1
			c0,2.6,1.3,4,2.9,4c1.2,0,2.3-0.8,2.6-2l1.3,0.3c-0.5,1.7-2.1,2.9-3.9,2.9C135.7,78.4,133.7,76.6,133.7,73.3z"/>
		<path d="M143.7,64.2h1.4v2.2h-1.4V64.2z M143.7,68.2h1.4v10h-1.4V68.2z"/>
		<path d="M147.7,68.2h1.3v1.6c0.6-1.1,1.7-1.8,3-1.8c2,0,3.4,1.4,3.4,3.7v6.5H154V72c0-1.8-0.9-2.8-2.3-2.8c-1.5,0-2.7,1.3-2.6,2.8
			c0,0.1,0,0.1,0,0.2v6h-1.4V68.2z"/>
		<path d="M166.3,79.6c0,1.6-1.3,2.9-2.9,2.9c0,0,0,0-0.1,0h-3.1c-1.7,0-3-1.4-2.9-3.1c0-0.9,0.5-1.8,1.2-2.3
			c-0.4-0.4-0.6-0.9-0.6-1.5c0-0.8,0.5-1.6,1.2-1.9c-0.7-0.6-1.1-1.5-1.1-2.4c0-1.9,1.5-3.4,3.4-3.3c0.1,0,0.1,0,0.2,0
			c0.5,0,0.9,0.1,1.4,0.2h3v1.2h-1.5c0.4,0.6,0.6,1.2,0.6,1.9c0,1.9-1.6,3.3-3.4,3.3h-0.1H160c-0.6,0-1,0.4-1,1s0.4,1,1,1h3.2
			C164.9,76.6,166.3,77.9,166.3,79.6L166.3,79.6z M165,79.6c0-1-0.8-1.8-1.8-1.9c0,0,0,0-0.1,0h-2.7c-1,0-1.8,0.8-1.8,1.8
			s0.8,1.8,1.8,1.8h2.7C164.1,81.5,165,80.7,165,79.6C165,79.7,165,79.6,165,79.6L165,79.6z M159.2,71.3c0,1.3,1,2.3,2.3,2.3
			s2.3-1,2.3-2.3s-1-2.3-2.3-2.3S159.2,70.1,159.2,71.3L159.2,71.3z"/>
		<path d="M176,78.5c-2.5,0-4.5-1.9-4.5-5.2v-0.2c0-3.3,2-5.2,4.4-5.2s4.4,1.9,4.4,5.2v0.4h-7.5c0,2.4,1.3,3.8,3.2,3.8
			c1.2,0,2.2-0.7,2.7-1.7l1.3,0.3C179.4,77.5,177.8,78.6,176,78.5z M178.9,72.5c-0.1-2.3-1.4-3.5-3-3.5s-2.9,1.2-3,3.5H178.9z"/>
		<path d="M182.3,76.1V64.2h1.4v11.6c0,0.9,0.4,1.2,1,1.2h0.5v1.2h-0.9c-1,0.1-2-0.7-2.1-1.7C182.3,76.4,182.3,76.2,182.3,76.1z"/>
		<path d="M186.9,64.2h1.4v2.2h-1.4V64.2z M186.9,68.2h1.4v10h-1.4V68.2z"/>
		<path d="M191.7,75.8v-6.4H190v-1.2h1.7v-3h1.3v3h2.9v1.2h-2.8v6.1c0,1.1,0.5,1.5,1.4,1.5h1.5v1.2h-1.8c-1.2,0.1-2.3-0.7-2.4-1.9
			C191.7,76.1,191.7,76,191.7,75.8z"/>
		<path d="M199,75.8v3.4c0,1-0.6,1.5-1.7,1.5v-0.8c0.6,0,0.8-0.2,0.8-0.8V78h-0.5v-2.2H199z"/>
		<path d="M205.1,75.9l1.2-0.5c0.4,1.2,1.6,2,2.9,1.9c1.4,0,2.4-0.7,2.4-1.8s-0.9-1.5-2.1-1.7l-1.3-0.2c-1.6-0.3-2.8-1-2.8-2.6
			s1.3-2.9,3.6-2.9c1.6-0.1,3.1,0.8,3.9,2.2l-1.2,0.5c-0.5-1-1.5-1.6-2.6-1.6c-1.3,0-2.2,0.7-2.2,1.7s0.8,1.4,1.8,1.6l1.3,0.2
			c1.9,0.3,3.1,1.1,3.1,2.7s-1.4,3-3.7,3C207.4,78.5,205.8,77.5,205.1,75.9z"/>
		<path d="M218.7,78.5c-2.5,0-4.5-1.9-4.5-5.2v-0.2c0-3.3,2-5.2,4.4-5.2s4.4,1.9,4.4,5.2v0.4h-7.5c0,2.4,1.3,3.8,3.2,3.8
			c1.2,0,2.2-0.7,2.7-1.7l1.3,0.3C222.1,77.5,220.5,78.6,218.7,78.5z M221.6,72.5c-0.1-2.3-1.4-3.5-3-3.5s-2.9,1.2-3,3.5H221.6z"/>
		<path d="M224.6,73.4V73c0-3.3,1.9-5,4.1-5c1.4,0,2.6,0.8,3.2,2v-5.8h1.4v14H232v-1.8c-0.6,1.3-1.9,2-3.2,2
			C226.5,78.4,224.6,76.8,224.6,73.4z M231.9,73.3L231.9,73.3c0-2.7-1.3-4-2.9-4s-3,1.4-3,3.9v0.1c0,2.6,1.3,4,3,4
			S231.9,75.8,231.9,73.3L231.9,73.3z"/>
		<path d="M239.5,73.4V73c0-3.3,1.9-5,4.1-5c1.4,0,2.6,0.8,3.2,2v-5.8h1.4v14h-1.3v-1.8c-0.6,1.3-1.9,2-3.2,2
			C241.4,78.4,239.5,76.8,239.5,73.4z M246.8,73.3L246.8,73.3c0-2.7-1.3-4-2.9-4s-3,1.4-3,3.9v0.1c0,2.6,1.3,4,3,4
			S246.8,75.8,246.8,73.3z"/>
		<path d="M250.8,64.2h1.4v2.2h-1.4V64.2z M250.8,68.2h1.4v10h-1.4V68.2z"/>
		<path d="M254.4,75.7L254.4,75.7c0-1.8,1.2-3.1,3.7-3.1h2.9v-0.8c0.2-1.2-0.7-2.4-2-2.5c-0.1,0-0.3,0-0.4,0c-1.2,0-2.2,0.7-2.6,1.8
			l-1.3-0.3c0.6-1.7,2.2-2.8,3.9-2.7c1.8-0.2,3.5,1.2,3.7,3c0,0.2,0,0.4,0,0.6v6.6H261v-1.6c-0.7,1.2-2,1.8-3.4,1.8
			C255.7,78.4,254.4,77.3,254.4,75.7z M260.9,74.3v-0.9h-2.7c-1.6,0-2.5,0.9-2.5,2s0.9,1.9,1.9,1.9c0.1,0,0.2,0,0.2,0
			c1.6,0.1,3-1.2,3-2.8C260.9,74.4,260.9,74.4,260.9,74.3L260.9,74.3z"/>
		<path d="M264.9,68.2h1.3v1.6c0.5-1.1,1.7-1.8,2.9-1.8c1.3,0,2.4,0.8,2.8,2c0.5-1.2,1.7-2,3-2c1.9,0,3.3,1.4,3.3,3.7v6.5h-1.4V72
			c0-1.7-0.9-2.8-2.1-2.8c-1.5,0-2.4,1.3-2.4,3v6h-1.4V72c0-1.7-0.8-2.8-2.1-2.8s-2.4,1.3-2.4,3v6H265L264.9,68.2z"/>
		<path d="M280,73.3v-0.2c0-3.3,2-5.2,4.4-5.2s4.4,1.9,4.4,5.2v0.2c0,3.3-2,5.2-4.4,5.2S280,76.7,280,73.3z M287.4,73.3L287.4,73.3
			c0-2.7-1.3-4.1-3-4.1s-3,1.4-3,4v0.1c0,2.6,1.3,4,3,4S287.5,75.9,287.4,73.3L287.4,73.3z"/>
		<path d="M21.2,90.2h1.3v1.6c0.6-1.1,1.7-1.8,3-1.8c2,0,3.4,1.4,3.4,3.7v6.5h-1.4V94c0-1.8-0.9-2.8-2.3-2.8c-1.5,0-2.7,1.3-2.6,2.8
			c0,0.1,0,0.1,0,0.2v6h-1.4V90.2z"/>
		<path d="M39,100.2h-1.3v-1.6c-0.6,1.1-1.7,1.8-3,1.8c-2,0-3.4-1.4-3.4-3.7v-6.5h1.4v6.2c0,1.8,0.9,2.8,2.3,2.8
			c1.5,0,2.7-1.3,2.6-2.8c0-0.1,0-0.1,0-0.2v-6H39V100.2z"/>
		<path d="M41.6,90.2h1.3v1.6c0.5-1.1,1.7-1.8,2.9-1.8c1.3,0,2.4,0.8,2.8,2c0.5-1.2,1.7-2,3-2c1.9,0,3.3,1.4,3.3,3.7v6.5h-1.4V94
			c0-1.7-0.8-2.8-2.1-2.8c-1.5,0-2.4,1.3-2.4,3v6h-1.4V94c0-1.7-0.8-2.8-2.1-2.8s-2.5,1.3-2.5,3v6h-1.4V90.2z"/>
		<path d="M57.3,90.2h1.3v1.6c0.5-1.1,1.7-1.8,2.9-1.8c1.3,0,2.4,0.8,2.8,2c0.5-1.2,1.7-2,3-2c1.9,0,3.3,1.4,3.3,3.7v6.5h-1.4V94
			c0-1.7-0.8-2.8-2.1-2.8c-1.4,0-2.4,1.3-2.4,3v6h-1.4V94c0-1.7-0.8-2.8-2.1-2.8s-2.4,1.3-2.4,3v6h-1.4L57.3,90.2z"/>
		<path d="M72.8,103h0.8c0.9,0,1.4-0.4,1.8-1.6l0.6-1.6l-4.2-9.6h1.6l2.4,5.8c0.3,0.7,0.6,1.4,0.9,2.3c0.2-0.9,0.5-1.6,0.7-2.3
			l1.9-5.7h1.5L76.6,102c-0.3,1.3-1.5,2.3-2.9,2.3h-0.9L72.8,103z"/>
		<path d="M86.9,90.2h1.3v1.6c0.6-1.1,1.7-1.8,3-1.8c2,0,3.4,1.4,3.4,3.7v6.5h-1.4V94c0-1.8-0.9-2.8-2.3-2.8c-1.5,0-2.7,1.3-2.6,2.8
			c0,0.1,0,0.1,0,0.2v6h-1.4V90.2z"/>
		<path d="M97.2,86.2h1.4v2.2h-1.4V86.2z M97.2,90.2h1.4v10h-1.4V90.2z"/>
		<path d="M102.5,98.4v1.8h-1.3v-14h1.4V92c0.6-1.2,1.8-2,3.2-2c2.2,0,4.1,1.7,4.1,5v0.4c0,3.3-1.9,5-4.2,5
			C104.4,100.5,103.1,99.7,102.5,98.4z M108.5,95.3L108.5,95.3c0-2.7-1.3-4-3-4s-2.9,1.4-2.9,3.9v0.1c0,2.6,1.3,3.9,2.9,3.9
			S108.5,97.8,108.5,95.3z"/>
		<path d="M119.7,93.7v6.5h-1.4V94c0-1.8-0.9-2.8-2.3-2.8c-1.5,0-2.7,1.3-2.6,2.8c0,0.1,0,0.1,0,0.2v6H112v-14h1.4v5.4
			c0.6-1,1.7-1.6,2.9-1.6C118.3,90,119.7,91.5,119.7,93.7z"/>
		<path d="M130.2,100.5c-2.5,0-4.5-1.9-4.5-5.2v-0.2c0-3.3,2-5.2,4.4-5.2s4.4,1.9,4.4,5.2v0.4H127c0,2.4,1.3,3.8,3.2,3.8
			c1.2,0,2.3-0.6,2.7-1.7l1.3,0.3C133.7,99.5,132,100.6,130.2,100.5z M133.1,94.5c-0.1-2.3-1.4-3.5-3-3.5c-1.5,0-2.9,1.2-3,3.5
			H133.1z"/>
		<path d="M144.1,100.2h-1.3v-1.6c-0.6,1.1-1.7,1.8-3,1.8c-2,0-3.4-1.4-3.4-3.7v-6.5h1.4v6.2c0,1.8,0.9,2.8,2.3,2.8
			c1.5,0,2.7-1.3,2.6-2.8c0-0.1,0-0.1,0-0.2v-6h1.4V100.2z"/>
		<path d="M146.8,86.2h1.4v2.2h-1.4V86.2z M146.8,90.2h1.4v10h-1.4V90.2z"/>
		<path d="M150,97.9l1.2-0.5c0.4,1.2,1.6,2,2.9,1.9c1.4,0,2.4-0.7,2.4-1.8s-0.9-1.5-2.1-1.7l-1.3-0.2c-1.6-0.3-2.8-1-2.8-2.6
			s1.3-2.9,3.6-2.9c1.6-0.1,3.1,0.8,3.9,2.2l-1.2,0.5c-0.5-1-1.5-1.6-2.6-1.6c-1.3,0-2.2,0.7-2.2,1.7s0.8,1.4,1.8,1.6l1.3,0.2
			c1.9,0.3,3.1,1.1,3.1,2.7s-1.4,3-3.7,3C152.4,100.5,150.7,99.5,150,97.9z"/>
		<path d="M159.7,90.2h1.3v1.6c0.5-1.1,1.7-1.8,2.9-1.8c1.3,0,2.4,0.8,2.8,2c0.5-1.2,1.7-2,3-2c1.9,0,3.3,1.4,3.3,3.7v6.5h-1.4V94
			c0-1.7-0.9-2.8-2.1-2.8c-1.4,0-2.4,1.3-2.4,3v6h-1.4V94c0-1.7-0.8-2.8-2.1-2.8s-2.4,1.3-2.4,3v6h-1.4L159.7,90.2z"/>
		<path d="M174.9,95.3v-0.2c0-3.3,2-5.2,4.4-5.2s4.4,1.9,4.4,5.2v0.2c0,3.3-2,5.2-4.4,5.2S174.9,98.7,174.9,95.3z M182.3,95.3
			L182.3,95.3c0-2.7-1.3-4.1-3-4.1s-3,1.4-3,4v0.1c0,2.6,1.3,4,3,4S182.3,97.9,182.3,95.3z"/>
		<path d="M185.2,95.4V95c0-3.3,1.9-5,4.1-5c1.4,0,2.6,0.8,3.2,2v-5.8h1.4v14h-1.3v-1.8c-0.6,1.3-1.9,2-3.2,2
			C187.2,100.4,185.2,98.8,185.2,95.4z M192.6,95.3L192.6,95.3c0-2.7-1.3-4-2.9-4s-3,1.4-3,3.9v0.1c0,2.6,1.3,3.9,3,3.9
			S192.6,97.8,192.6,95.3z"/>
		<path d="M201.6,97.8v-6.4h-1.7v-1.2h1.7v-3h1.3v3h2.9v1.2H203v6.1c0,1.1,0.5,1.5,1.4,1.5h1.5v1.2H204c-1.2,0.2-2.3-0.7-2.4-1.9
			C201.5,98.2,201.5,98,201.6,97.8z"/>
		<path d="M207.5,86.2h1.4v2.2h-1.4V86.2z M207.5,90.2h1.4v10h-1.4V90.2z"/>
		<path d="M211.5,90.2h1.3v1.6c0.6-1.1,1.7-1.8,3-1.8c2,0,3.4,1.4,3.4,3.7v6.5h-1.4V94c0-1.8-0.9-2.8-2.3-2.8
			c-1.5,0-2.7,1.3-2.6,2.8c0,0.1,0,0.1,0,0.2v6h-1.4V90.2z"/>
		<path d="M221.1,95.3v-0.2c0-3.3,2-5.1,4.3-5.1c1.8,0,3.4,1.2,3.9,3l-1.3,0.3c-0.3-1.2-1.4-2-2.6-2c-1.6,0-2.9,1.3-2.9,3.9v0.1
			c0,2.6,1.3,3.9,2.9,3.9c1.2,0,2.3-0.8,2.6-2l1.3,0.3c-0.5,1.8-2.1,3-3.9,2.9C223.1,100.4,221.1,98.6,221.1,95.3z"/>
		<path d="M231.2,86.2h1.4v2.2h-1.4V86.2z M231.2,90.2h1.4v10h-1.4V90.2z"/>
		<path d="M234.7,95.4V95c0-3.3,1.9-5,4.1-5c1.4-0.1,2.6,0.7,3.2,2v-5.8h1.4v14h-1.3v-1.8c-0.6,1.3-1.9,2-3.2,2
			C236.6,100.4,234.7,98.8,234.7,95.4z M242,95.3L242,95.3c0-2.7-1.3-4-2.9-4s-3,1.4-3,3.9v0.1c0,2.6,1.3,3.9,3,3.9
			S242,97.8,242,95.3z"/>
		<path d="M253.6,100.2h-1.3v-1.6c-0.6,1.1-1.7,1.8-3,1.8c-2,0-3.4-1.4-3.4-3.7v-6.5h1.4v6.2c0,1.8,0.9,2.8,2.3,2.8
			c1.5,0,2.7-1.3,2.6-2.8c0-0.1,0-0.1,0-0.2v-6h1.4V100.2z"/>
		<path d="M256.2,90.2h1.3v1.6c0.6-1.1,1.7-1.8,3-1.8c2,0,3.4,1.4,3.4,3.7v6.5h-1.4V94c0-1.8-0.9-2.8-2.3-2.8
			c-1.5,0-2.7,1.3-2.6,2.8c0,0.1,0,0.1,0,0.2v6h-1.4V90.2z"/>
		<path d="M266.9,97.8v-6.4h-1.7v-1.2h1.8v-3h1.3v3h2.9v1.2h-2.8v6.1c0,1.1,0.5,1.5,1.4,1.5h1.5v1.2h-1.8c-1.2,0.2-2.3-0.7-2.4-1.9
			C266.9,98.2,266.9,98,266.9,97.8z"/>
		<path d="M284.6,100.2h-1.3v-1.6c-0.6,1.1-1.7,1.8-3,1.8c-2,0-3.4-1.4-3.4-3.7v-6.5h1.4v6.2c0,1.8,0.9,2.8,2.3,2.8
			c1.5,0,2.7-1.3,2.6-2.8c0-0.1,0-0.1,0-0.2v-6h1.4V100.2z"/>
		<path d="M288,97.8v-6.4h-1.7v-1.2h1.7v-3h1.3v3h2.9v1.2h-2.8v6.1c0,1.1,0.5,1.5,1.4,1.5h1.5v1.2h-1.8c-1.2,0.1-2.3-0.8-2.4-2
			C288,98.1,288,98,288,97.8z"/>
		<path d="M21.2,120.1v-11.8h1.4v11.6c0,0.9,0.3,1.2,1,1.2h0.5v1.2h-0.8c-1,0.1-2-0.6-2.1-1.7C21.2,120.4,21.2,120.2,21.2,120.1z"/>
		<path d="M25.6,119.7L25.6,119.7c0-1.8,1.2-3.1,3.7-3.1h2.9v-0.8c0.2-1.2-0.7-2.4-2-2.5c-0.1,0-0.3,0-0.4,0c-1.2,0-2.2,0.7-2.6,1.8
			l-1.3-0.3c0.6-1.7,2.2-2.8,4-2.7c1.8-0.2,3.5,1.2,3.7,3c0,0.2,0,0.4,0,0.6v6.6h-1.3v-1.6c-0.7,1.2-2,1.8-3.4,1.8
			C26.9,122.4,25.6,121.3,25.6,119.7z M32.1,118.3v-0.9h-2.7c-1.6,0-2.5,0.9-2.5,2s0.9,1.9,1.9,1.9c0.1,0,0.2,0,0.2,0
			c1.6,0.1,3-1.2,3-2.8C32.1,118.4,32.1,118.4,32.1,118.3z"/>
		<path d="M35.5,117.3v-0.2c0-3.3,2-5.2,4.4-5.2s4.4,1.9,4.4,5.2v0.2c0,3.3-2,5.2-4.4,5.2S35.5,120.7,35.5,117.3z M42.9,117.3
			L42.9,117.3c0-2.7-1.3-4.1-3-4.1s-3,1.4-3,4v0.1c0,2.6,1.3,4,3,4C41.6,121.3,42.9,119.9,42.9,117.3z"/>
		<path d="M46.5,112.2h1.3v2.4c0.6-1.5,2.1-2.5,3.8-2.5v1.4c-2.3,0-3.7,1.7-3.7,4.1v4.6h-1.4C46.5,122.2,46.5,112.2,46.5,112.2z"/>
		<path d="M57.2,122.5c-2.5,0-4.5-1.9-4.5-5.2v-0.2c0-3.3,2-5.2,4.4-5.2s4.4,1.9,4.4,5.2v0.4H54c0,2.4,1.3,3.8,3.2,3.8
			c1.2,0,2.2-0.7,2.7-1.7l1.3,0.3C60.5,121.5,58.9,122.6,57.2,122.5z M60.1,116.5c-0.1-2.3-1.5-3.5-3-3.5s-2.9,1.2-3,3.5H60.1z"/>
		<path d="M67.5,122.5c-2.5,0-4.5-1.9-4.5-5.2v-0.2c0-3.3,2-5.2,4.4-5.2s4.4,1.9,4.4,5.2v0.4h-7.5c0,2.4,1.3,3.8,3.2,3.8
			c1.2,0,2.2-0.7,2.7-1.7l1.3,0.3C70.9,121.5,69.3,122.6,67.5,122.5z M70.4,116.5c-0.1-2.3-1.4-3.5-3-3.5s-2.9,1.2-3,3.5H70.4z"/>
		<path d="M74.4,119.8v-6.4h-1.7v-1.2h1.7v-3h1.3v3h2.9v1.2h-2.8v6.1c0,1.1,0.5,1.5,1.3,1.5h1.5v1.2h-1.8c-1.2,0.1-2.3-0.7-2.4-1.9
			C74.4,120.1,74.4,120,74.4,119.8z"/>
		<path d="M83.9,117.4V117c0-3.3,1.9-5,4.1-5c1.4,0,2.6,0.8,3.2,2v-5.8h1.4v14h-1.3v-1.8c-0.6,1.3-1.9,2-3.2,2
			C85.8,122.4,83.9,120.8,83.9,117.4z M91.2,117.3L91.2,117.3c0-2.7-1.3-4-2.9-4s-3,1.4-3,3.9v0.1c0,2.6,1.3,3.9,3,3.9
			S91.2,119.8,91.2,117.3z"/>
		<path d="M94.6,117.3v-0.2c0-3.3,2-5.2,4.4-5.2s4.4,1.9,4.4,5.2v0.2c0,3.3-2,5.2-4.4,5.2S94.6,120.7,94.6,117.3z M102.1,117.3
			L102.1,117.3c0-2.7-1.3-4.1-3-4.1s-3,1.4-3,4v0.1c0,2.6,1.3,4,3,4S102.1,119.9,102.1,117.3z"/>
		<path d="M105.5,120.1v-11.8h1.4v11.6c0,0.9,0.3,1.2,1,1.2h0.5v1.2h-0.8c-1,0.1-2-0.7-2.1-1.7C105.5,120.4,105.5,120.2,105.5,120.1
			z"/>
		<path d="M109.4,117.3v-0.2c0-3.3,2-5.2,4.4-5.2s4.4,1.9,4.4,5.2v0.2c0,3.3-2,5.2-4.4,5.2S109.4,120.7,109.4,117.3z M116.8,117.3
			L116.8,117.3c0-2.7-1.3-4.1-3-4.1s-3,1.4-3,4v0.1c0,2.6,1.3,4,3,4S116.8,119.9,116.8,117.3L116.8,117.3z"/>
		<path d="M120.4,112.2h1.3v2.4c0.6-1.5,2.1-2.5,3.8-2.5v1.4c-2.3,0-3.7,1.7-3.7,4.1v4.6h-1.4C120.4,122.2,120.4,112.2,120.4,112.2z
			"/>
		<path d="M131,122.5c-2.5,0-4.5-1.9-4.5-5.2v-0.2c0-3.3,2-5.2,4.4-5.2s4.4,1.9,4.4,5.2v0.4h-7.5c0,2.4,1.3,3.8,3.2,3.8
			c1.2,0,2.2-0.7,2.7-1.7l1.3,0.3C134.4,121.5,132.8,122.6,131,122.5z M133.9,116.5c-0.1-2.3-1.4-3.5-3-3.5s-2.9,1.2-3,3.5H133.9z"
			/>
		<path d="M141.6,112.2h1.3v1.6c0.5-1.1,1.7-1.8,2.9-1.8c1.3,0,2.4,0.8,2.8,2c0.5-1.2,1.7-2,3-2c1.9,0,3.3,1.4,3.3,3.7v6.5h-1.4V116
			c0-1.7-0.9-2.8-2.1-2.8c-1.4,0-2.4,1.3-2.4,3v6h-1.4V116c0-1.7-0.8-2.8-2.1-2.8s-2.4,1.3-2.4,3v6h-1.4L141.6,112.2z"/>
		<path d="M156.8,119.7L156.8,119.7c0-1.8,1.2-3.1,3.7-3.1h2.9v-0.8c0.2-1.2-0.7-2.4-2-2.5c-0.1,0-0.3,0-0.4,0
			c-1.2,0-2.2,0.7-2.6,1.8l-1.3-0.3c0.6-1.7,2.2-2.8,3.9-2.7c1.8-0.2,3.5,1.2,3.7,3c0,0.2,0,0.4,0,0.6v6.6h-1.3v-1.6
			c-0.7,1.2-2,1.8-3.4,1.8C158.2,122.4,156.8,121.3,156.8,119.7z M163.4,118.3v-0.9h-2.7c-1.6,0-2.5,0.9-2.5,2s0.9,1.9,1.9,1.9
			c0.1,0,0.2,0,0.2,0c1.6,0.1,3-1.2,3-2.8C163.4,118.4,163.4,118.4,163.4,118.3L163.4,118.3z"/>
		<path d="M175.7,123.6c0,1.6-1.3,2.9-2.9,2.9c0,0,0,0-0.1,0h-3.1c-1.7,0-3-1.4-2.9-3.1c0-0.9,0.5-1.8,1.2-2.3
			c-0.4-0.4-0.6-0.9-0.6-1.5c0-0.8,0.5-1.6,1.2-1.9c-0.7-0.6-1.1-1.5-1.1-2.4c0-1.9,1.5-3.4,3.4-3.3c0.1,0,0.1,0,0.2,0
			c0.5,0,0.9,0.1,1.4,0.2h3v1.2H174c0.4,0.6,0.6,1.2,0.6,1.9c0,1.9-1.6,3.3-3.4,3.3h-0.1h-1.4c-0.6,0-1,0.4-1,1s0.4,1,1,1h3.2
			C174.3,120.6,175.7,122,175.7,123.6z M174.4,123.6c0-1-0.8-1.8-1.8-1.9c0,0,0,0-0.1,0h-2.7c-1,0-1.8,0.8-1.8,1.8s0.8,1.8,1.8,1.8
			h2.7C173.5,125.5,174.4,124.7,174.4,123.6L174.4,123.6z M168.6,115.3c0,1.3,1,2.3,2.3,2.3s2.3-1,2.3-2.3s-1-2.3-2.3-2.3
			S168.6,114.1,168.6,115.3L168.6,115.3z"/>
		<path d="M177.2,112.2h1.3v1.6c0.6-1.1,1.7-1.8,3-1.8c2,0,3.4,1.4,3.4,3.7v6.5h-1.4V116c0-1.8-0.9-2.8-2.3-2.8
			c-1.5,0-2.7,1.3-2.6,2.8c0,0.1,0,0.1,0,0.2v6h-1.4V112.2z"/>
		<path d="M187,119.7L187,119.7c0-1.8,1.2-3.1,3.7-3.1h2.9v-0.8c0.2-1.2-0.7-2.4-2-2.5c-0.1,0-0.3,0-0.4,0c-1.2,0-2.2,0.7-2.6,1.8
			l-1.3-0.3c0.6-1.7,2.2-2.8,3.9-2.7c1.8-0.2,3.5,1.2,3.7,3c0,0.2,0,0.4,0,0.6v6.6h-1.3v-1.6c-0.7,1.2-2,1.8-3.4,1.8
			C188.3,122.4,187,121.3,187,119.7z M193.6,118.3v-0.9h-2.7c-1.6,0-2.5,0.9-2.5,2s0.9,1.9,1.9,1.9c0.1,0,0.2,0,0.2,0
			c1.6,0,3-1.2,3-2.8C193.6,118.4,193.6,118.4,193.6,118.3L193.6,118.3z"/>
		<path d="M201.4,119.7L201.4,119.7c0-1.8,1.2-3.1,3.7-3.1h2.9v-0.8c0.2-1.2-0.7-2.4-2-2.5c-0.1,0-0.3,0-0.4,0
			c-1.2,0-2.2,0.7-2.6,1.8l-1.3-0.3c0.6-1.7,2.2-2.8,3.9-2.7c1.8-0.2,3.5,1.2,3.7,3c0,0.2,0,0.4,0,0.6v6.6H208v-1.6
			c-0.7,1.2-2,1.8-3.4,1.8C202.7,122.4,201.4,121.3,201.4,119.7z M208,118.3v-0.9h-2.7c-1.6,0-2.5,0.9-2.5,2s0.9,1.9,1.9,1.9
			c0.1,0,0.2,0,0.2,0c1.6,0.1,3-1.2,3-2.8C208,118.4,208,118.4,208,118.3z"/>
		<path d="M211.9,120.1v-11.8h1.4v11.6c0,0.9,0.4,1.2,1,1.2h0.5v1.2H214c-1,0.1-2-0.6-2.1-1.7C211.9,120.4,211.9,120.2,211.9,120.1z
			"/>
		<path d="M216.5,108.2h1.4v2.2h-1.4V108.2z M216.5,112.2h1.4v10h-1.4V112.2z"/>
		<path d="M227.3,120.5c-0.6,1.2-1.8,2-3.2,2c-2.2,0-4.1-1.7-4.1-5V117c0-3.3,1.9-5,4.1-5c1.4,0,2.7,0.8,3.3,2.1v-1.9h1.3v14h-1.4
			L227.3,120.5z M227.3,117.3L227.3,117.3c0-2.7-1.3-4-2.9-4s-3,1.4-3,3.9v0.1c0,2.6,1.3,3.9,3,3.9S227.4,119.9,227.3,117.3
			L227.3,117.3z"/>
		<path d="M238.9,122.2h-1.3v-1.6c-0.6,1.1-1.7,1.8-3,1.8c-2,0-3.4-1.4-3.4-3.7v-6.5h1.4v6.2c0,1.8,0.9,2.8,2.3,2.8
			c1.5,0,2.7-1.3,2.6-2.8c0-0.1,0-0.1,0-0.2v-6h1.4V122.2z"/>
		<path d="M241.1,119.7L241.1,119.7c0-1.8,1.2-3.1,3.7-3.1h2.9v-0.8c0.2-1.2-0.7-2.4-2-2.5c-0.1,0-0.3,0-0.4,0
			c-1.2,0-2.2,0.7-2.6,1.8l-1.3-0.3c0.6-1.7,2.2-2.8,3.9-2.7c1.8-0.2,3.5,1.2,3.7,3c0,0.2,0,0.4,0,0.6v6.6h-1.3v-1.6
			c-0.7,1.2-2,1.8-3.4,1.8C242.4,122.4,241.1,121.3,241.1,119.7z M247.7,118.3v-0.9H245c-1.6,0-2.5,0.9-2.5,2s0.9,1.9,1.9,1.9
			c0.1,0,0.2,0,0.2,0c1.6,0.1,3-1.2,3-2.8C247.7,118.4,247.7,118.4,247.7,118.3z"/>
		<path d="M251.6,112.2h1.3v1.6c0.5-1.1,1.7-1.8,2.9-1.8c1.3,0,2.4,0.8,2.8,2c0.5-1.2,1.7-2,3-2c1.9,0,3.3,1.4,3.3,3.7v6.5h-1.4V116
			c0-1.7-0.9-2.8-2.1-2.8c-1.5,0-2.4,1.3-2.4,3v6h-1.4V116c0-1.7-0.8-2.8-2.1-2.8c-1.3,0-2.4,1.3-2.4,3v6h-1.4L251.6,112.2z"/>
		<path d="M275.4,122.5c-2.5,0-4.5-1.9-4.5-5.2v-0.2c0-3.3,2-5.2,4.4-5.2s4.4,1.9,4.4,5.2v0.4h-7.5c0,2.4,1.3,3.8,3.2,3.8
			c1.2,0,2.2-0.7,2.7-1.7l1.3,0.3C278.7,121.5,277.1,122.6,275.4,122.5z M278.3,116.5c-0.1-2.3-1.5-3.5-3-3.5s-2.9,1.2-3,3.5H278.3z
			"/>
		<path d="M281.8,112.2h1.3v2.4c0.6-1.5,2.1-2.5,3.8-2.5v1.4c-2.3,0-3.7,1.7-3.7,4.1v4.6h-1.4L281.8,112.2L281.8,112.2z"/>
		<path d="M288.1,119.7L288.1,119.7c0-1.8,1.2-3.1,3.7-3.1h2.9v-0.8c0.2-1.2-0.7-2.4-2-2.5c-0.1,0-0.3,0-0.4,0
			c-1.2,0-2.2,0.7-2.6,1.8l-1.3-0.3c0.6-1.7,2.2-2.8,3.9-2.7c1.8-0.2,3.5,1.2,3.6,3c0,0.2,0,0.4,0,0.6v6.6h-1.3v-1.6
			c-0.7,1.2-2,1.8-3.4,1.8C289.5,122.4,288.1,121.3,288.1,119.7z M294.7,118.3v-0.9H292c-1.6,0-2.5,0.9-2.5,2s0.9,1.9,1.9,1.9
			c0.1,0,0.2,0,0.2,0c1.6,0,2.9-1.2,3-2.9C294.7,118.4,294.7,118.4,294.7,118.3z"/>
		<path d="M299.2,119.8v-6.4h-1.7v-1.2h1.7v-3h1.3v3h2.9v1.2h-2.8v6.1c0,1.1,0.5,1.5,1.4,1.5h1.5v1.2h-1.8c-1.2,0.1-2.3-0.7-2.4-1.9
			C299.2,120.1,299.2,120,299.2,119.8z"/>
		<path d="M305.2,119.8h1.4v2.4h-1.4V119.8z"/>
		<path d="M28.7,164.8v1.4h-6.9v-14h1.5v12.6H28.7z"/>
		<path d="M29.6,161.3v-0.2c0-3.3,2-5.2,4.4-5.2s4.4,1.9,4.4,5.2v0.2c0,3.3-2,5.2-4.4,5.2S29.6,164.7,29.6,161.3z M37.1,161.3v-0.1
			c0-2.6-1.3-4-3-4s-3,1.4-3,4v0.1c0,2.6,1.3,4,3,4S37.1,163.9,37.1,161.3z"/>
		<path d="M40.7,156.2H42v2.4c0.6-1.5,2.1-2.5,3.8-2.5v1.4c-2.3,0-3.7,1.7-3.7,4.1v4.6h-1.4L40.7,156.2z"/>
		<path d="M51.3,166.5c-2.5,0-4.5-1.9-4.5-5.2v-0.2c0-3.3,2-5.2,4.4-5.2s4.4,1.9,4.4,5.2v0.4h-7.5c0,2.4,1.3,3.8,3.2,3.8
			c1.2,0,2.2-0.7,2.7-1.7l1.3,0.3C54.7,165.5,53.1,166.6,51.3,166.5z M54.2,160.5c-0.1-2.3-1.5-3.5-3-3.5s-2.9,1.2-3,3.5H54.2z"/>
		<path d="M57.6,156.2h1.3v1.6c0.5-1.1,1.7-1.8,2.9-1.8c1.3,0,2.4,0.8,2.8,2c0.5-1.2,1.7-2,3-2c1.9,0,3.3,1.4,3.3,3.7v6.5h-1.4V160
			c0-1.7-0.8-2.8-2.1-2.8c-1.5,0-2.4,1.3-2.4,3v6h-1.4V160c0-1.7-0.8-2.8-2.1-2.8s-2.4,1.3-2.4,3v6h-1.4L57.6,156.2z"/>
		<path d="M77.6,152.2H79v2.2h-1.4V152.2z M77.6,156.2H79v10h-1.4V156.2z"/>
		<path d="M81.6,156.2h1.3v1.8c0.6-1.3,1.9-2,3.2-2c2.2,0,4.2,1.6,4.2,5v0.4c0,3.4-1.9,5-4.1,5c-1.4,0-2.6-0.8-3.2-2v5.8h-1.4V156.2
			z M88.9,161.2v-0.1c0-2.6-1.3-3.9-3-3.9s-2.9,1.4-2.9,4v0.1c0,2.6,1.3,3.9,2.9,3.9S88.9,163.9,88.9,161.2L88.9,161.2z"/>
		<path d="M91.5,163.9l1.2-0.5c0.4,1.2,1.6,2,2.9,1.9c1.4,0,2.3-0.6,2.3-1.8s-0.9-1.5-2.1-1.7l-1.3-0.2c-1.6-0.3-2.8-1-2.8-2.6
			s1.3-2.9,3.6-2.9c1.6-0.1,3.1,0.8,3.9,2.2l-1.2,0.5c-0.5-1-1.5-1.6-2.7-1.6c-1.3,0-2.2,0.7-2.2,1.7s0.8,1.4,1.8,1.6l1.3,0.2
			c1.9,0.4,3.1,1.1,3.1,2.7s-1.4,3-3.7,3C93.9,166.5,92.2,165.5,91.5,163.9z"/>
		<path d="M108.7,166.2h-1.3v-1.6c-0.6,1.1-1.7,1.8-3,1.8c-2,0-3.4-1.4-3.4-3.7v-6.5h1.4v6.2c0,1.8,0.9,2.8,2.3,2.8
			c1.5,0,2.7-1.3,2.6-2.8c0-0.1,0-0.1,0-0.2v-6h1.4V166.2z"/>
		<path d="M111.3,156.2h1.3v1.6c0.5-1.1,1.7-1.8,2.9-1.8c1.3,0,2.4,0.8,2.8,2c0.5-1.2,1.7-2,3-2c1.9,0,3.3,1.4,3.3,3.7v6.5h-1.4V160
			c0-1.7-0.8-2.8-2.1-2.8c-1.4,0-2.4,1.3-2.4,3v6h-1.4V160c0-1.7-0.8-2.8-2.1-2.8s-2.4,1.3-2.4,3v6h-1.4L111.3,156.2z"/>
		<path d="M130.6,161.4V161c0-3.4,1.9-5,4.1-5c1.4,0,2.6,0.8,3.2,2v-5.8h1.4v14H138v-1.8c-0.6,1.3-1.9,2-3.2,2
			C132.5,166.4,130.6,164.8,130.6,161.4z M137.9,161.3v-0.1c0-2.6-1.3-3.9-2.9-3.9s-3,1.4-3,3.9v0.1c0,2.6,1.3,3.9,3,3.9
			S137.9,163.8,137.9,161.3z"/>
		<path d="M141.3,161.3v-0.2c0-3.3,2-5.2,4.4-5.2s4.4,1.9,4.4,5.2v0.2c0,3.3-2,5.2-4.4,5.2S141.3,164.7,141.3,161.3z M148.8,161.3
			v-0.1c0-2.6-1.3-4-3-4s-3,1.4-3,4v0.1c0,2.6,1.3,4,3,4S148.8,163.9,148.8,161.3L148.8,161.3z"/>
		<path d="M152.2,164.1v-11.8h1.4v11.6c0,0.9,0.4,1.2,1,1.2h0.5v1.2h-0.9c-1,0.1-2-0.7-2.1-1.7C152.2,164.4,152.2,164.2,152.2,164.1
			z"/>
		<path d="M156.1,161.3v-0.2c0-3.3,2-5.2,4.4-5.2s4.4,1.9,4.4,5.2v0.2c0,3.3-2,5.2-4.4,5.2S156.1,164.7,156.1,161.3z M163.5,161.3
			v-0.1c0-2.6-1.3-4-3-4s-3,1.4-3,4v0.1c0,2.6,1.3,4,3,4S163.5,163.9,163.5,161.3z"/>
		<path d="M167.1,156.2h1.3v2.4c0.6-1.5,2.1-2.5,3.8-2.5v1.4c-2.3,0-3.7,1.7-3.7,4.1v4.6h-1.4L167.1,156.2z"/>
		<path d="M177.4,163.9l1.2-0.5c0.4,1.2,1.6,2,2.9,1.9c1.4,0,2.4-0.6,2.4-1.8s-0.9-1.5-2.1-1.7l-1.3-0.2c-1.6-0.3-2.8-1-2.8-2.6
			s1.3-2.9,3.6-2.9c1.6-0.1,3.1,0.8,3.9,2.2l-1.2,0.5c-0.5-1-1.5-1.6-2.6-1.6c-1.3,0-2.2,0.7-2.2,1.7s0.8,1.4,1.8,1.6l1.3,0.2
			c1.9,0.4,3.1,1.1,3.1,2.7s-1.4,3-3.7,3C179.8,166.5,178.1,165.5,177.4,163.9z"/>
		<path d="M187.1,152.2h1.4v2.2h-1.4V152.2z M187.1,156.2h1.4v10h-1.4V156.2z"/>
		<path d="M191.9,163.8v-6.4h-1.7v-1.2h1.7v-3h1.3v3h2.9v1.2h-2.8v6.1c0,1.1,0.5,1.5,1.4,1.5h1.5v1.2h-1.8c-1.2,0.1-2.3-0.7-2.4-1.9
			C191.9,164.1,191.9,164,191.9,163.8z"/>
		<path d="M201.6,163.7v-0.1c0-1.6,1.2-3,3.7-3h2.9v-0.8c0.2-1.2-0.7-2.4-2-2.5c-0.1,0-0.3,0-0.4,0c-1.2,0-2.2,0.7-2.6,1.8l-1.3-0.3
			c0.6-1.7,2.2-2.8,3.9-2.7c1.8-0.2,3.5,1.2,3.7,3c0,0.2,0,0.4,0,0.6v6.6h-1.3v-1.6c-0.7,1.2-2,1.8-3.4,1.8
			C203,166.4,201.6,165.3,201.6,163.7z M208.2,162.3v-0.9h-2.7c-1.6,0-2.5,0.9-2.5,2s0.9,1.9,1.9,1.9c0.1,0,0.2,0,0.2,0
			c1.6,0.1,3-1.2,3-2.8C208.2,162.4,208.2,162.4,208.2,162.3z"/>
		<path d="M212.2,156.2h1.3v1.6c0.5-1.1,1.7-1.8,2.9-1.8c1.3,0,2.4,0.8,2.8,2c0.5-1.2,1.7-2,3-2c1.9,0,3.3,1.4,3.3,3.7v6.5H224V160
			c0-1.7-0.9-2.8-2.1-2.8c-1.4,0-2.4,1.3-2.4,3v6h-1.4V160c0-1.7-0.8-2.8-2.1-2.8s-2.4,1.3-2.4,3v6h-1.4L212.2,156.2z"/>
		<path d="M231.9,166.5c-2.5,0-4.5-1.9-4.5-5.2v-0.2c0-3.3,2-5.2,4.4-5.2s4.4,1.9,4.4,5.2v0.4h-7.5c0,2.4,1.3,3.8,3.2,3.8
			c1.2,0,2.2-0.7,2.7-1.7l1.3,0.3C235.2,165.5,233.6,166.6,231.9,166.5z M234.8,160.5c-0.1-2.3-1.4-3.5-3-3.5s-2.9,1.2-3,3.5H234.8z
			"/>
		<path d="M238.7,163.8v-6.4H237v-1.2h1.7v-3h1.3v3h2.9v1.2h-2.8v6.1c0,1.1,0.5,1.5,1.4,1.5h1.5v1.2h-1.8c-1.2,0.1-2.3-0.8-2.4-2
			C238.7,164.1,238.7,164,238.7,163.8z"/>
		<path d="M246.1,163.8v3.4c0,1-0.6,1.5-1.7,1.5v-0.8c0.6,0,0.8-0.2,0.8-0.8V166h-0.5v-2.2H246.1z"/>
		<path d="M252.3,161.3v-0.2c0-3.3,2-5.1,4.3-5.1c1.8,0,3.4,1.2,3.9,2.9l-1.3,0.3c-0.3-1.2-1.4-2-2.6-2c-1.6,0-2.9,1.4-2.9,3.9v0.1
			c0,2.6,1.3,3.9,2.9,3.9c1.2,0,2.3-0.8,2.6-2l1.3,0.3c-0.5,1.8-2.1,3-3.9,2.9C254.3,166.4,252.3,164.6,252.3,161.3z"/>
		<path d="M261.8,161.3v-0.2c0-3.3,2-5.2,4.4-5.2s4.4,1.9,4.4,5.2v0.2c0,3.3-2,5.2-4.4,5.2S261.8,164.7,261.8,161.3z M269.2,161.3
			v-0.1c0-2.6-1.3-4-3-4s-3,1.4-3,4v0.1c0,2.6,1.3,4,3,4C267.9,165.3,269.2,163.9,269.2,161.3z"/>
		<path d="M272.7,156.2h1.3v1.6c0.6-1.1,1.7-1.8,3-1.8c2,0,3.4,1.4,3.4,3.7v6.5H279V160c0-1.8-0.9-2.8-2.3-2.8
			c-1.5,0-2.7,1.3-2.6,2.8c0,0.1,0,0.1,0,0.2v6h-1.4V156.2z"/>
		<path d="M282.1,163.9l1.2-0.5c0.4,1.2,1.6,2,2.9,1.9c1.4,0,2.4-0.6,2.4-1.8s-0.9-1.5-2.1-1.7l-1.3-0.2c-1.6-0.3-2.8-1-2.8-2.6
			s1.3-2.9,3.6-2.9c1.6-0.1,3.1,0.8,3.9,2.2l-1.2,0.5c-0.5-1-1.5-1.6-2.6-1.6c-1.3,0-2.2,0.7-2.2,1.7s0.8,1.4,1.8,1.6l1.3,0.2
			c1.9,0.4,3.1,1.1,3.1,2.7s-1.4,3-3.7,3C284.4,166.5,282.8,165.5,282.1,163.9z"/>
		<path d="M295.7,166.5c-2.5,0-4.5-1.9-4.5-5.2v-0.2c0-3.3,2-5.2,4.4-5.2s4.4,1.9,4.4,5.2v0.4h-7.5c0,2.4,1.3,3.8,3.2,3.8
			c1.2,0,2.2-0.7,2.7-1.7l1.3,0.3C299.1,165.5,297.5,166.6,295.7,166.5z M298.7,160.5c-0.1-2.3-1.5-3.5-3-3.5s-2.9,1.2-3,3.5H298.7z
			"/>
		<path d="M20.5,183.3v-0.2c0-3.3,2-5.1,4.3-5.1c1.8,0,3.4,1.2,3.9,3l-1.3,0.3c-0.3-1.2-1.4-2-2.6-2c-1.6,0-2.9,1.4-2.9,3.9v0.1
			c0,2.6,1.3,3.9,2.9,3.9c1.2,0,2.3-0.8,2.6-2l1.3,0.3c-0.5,1.8-2.1,3-3.9,2.9C22.5,188.4,20.5,186.6,20.5,183.3z"/>
		<path d="M31.3,185.8v-6.4h-1.7v-1.2h1.7v-3h1.3v3h2.9v1.2h-2.8v6.1c0,1.1,0.5,1.5,1.4,1.5h1.5v1.2h-1.8c-1.2,0.1-2.3-0.7-2.4-1.9
			C31.3,186.1,31.3,186,31.3,185.8z"/>
		<path d="M41,188.5c-2.5,0-4.5-1.9-4.5-5.2v-0.2c0-3.3,2-5.2,4.4-5.2s4.4,1.9,4.4,5.2v0.4h-7.5c0,2.4,1.3,3.8,3.2,3.8
			c1.2,0,2.2-0.7,2.7-1.7l1.3,0.3C44.4,187.5,42.8,188.6,41,188.5z M43.9,182.5c-0.1-2.3-1.4-3.5-3-3.5c-1.5,0-2.9,1.2-3,3.5H43.9z"
			/>
		<path d="M47.8,185.8v-6.4h-1.7v-1.2h1.7v-3h1.3v3H52v1.2h-2.8v6.1c0,1.1,0.5,1.5,1.4,1.5H52v1.2h-1.8c-1.2,0.1-2.3-0.8-2.4-2
			C47.8,186.1,47.8,186,47.8,185.8z"/>
		<path d="M61.4,188.2h-1.3v-1.6c-0.6,1.1-1.7,1.8-3,1.8c-2,0-3.4-1.4-3.4-3.7v-6.5H55v6.2c0,1.8,0.9,2.8,2.3,2.8
			c1.5,0,2.7-1.3,2.6-2.8c0-0.1,0-0.1,0-0.2v-6h1.4L61.4,188.2z"/>
		<path d="M68,188.5c-2.5,0-4.5-1.9-4.5-5.2v-0.2c0-3.3,2-5.2,4.4-5.2s4.4,1.9,4.4,5.2v0.4h-7.5c0,2.4,1.3,3.8,3.2,3.8
			c1.2,0,2.2-0.7,2.7-1.7l1.3,0.3C71.4,187.5,69.8,188.6,68,188.5z M70.9,182.5c-0.1-2.3-1.4-3.5-3-3.5s-2.9,1.2-3,3.5H70.9z"/>
		<path d="M74.4,178.2h1.3v2.4c0.6-1.5,2.1-2.5,3.8-2.5v1.4c-2.3,0-3.7,1.7-3.7,4.1v4.6h-1.4C74.4,188.2,74.4,178.2,74.4,178.2z"/>
		<path d="M85.2,185.7v-0.1c0-1.6,1.2-3,3.7-3h2.9v-0.8c0.2-1.2-0.7-2.4-2-2.5c-0.1,0-0.3,0-0.4,0c-1.2,0-2.2,0.7-2.6,1.8l-1.3-0.3
			c0.6-1.7,2.2-2.8,4-2.7c1.8-0.2,3.5,1.2,3.7,3c0,0.2,0,0.4,0,0.6v6.6h-1.3v-1.6c-0.7,1.2-2,1.8-3.4,1.8
			C86.5,188.4,85.2,187.3,85.2,185.7z M91.8,184.3v-0.9h-2.7c-1.6,0-2.5,0.9-2.5,2s0.9,1.9,1.9,1.9c0.1,0,0.2,0,0.2,0
			c1.6,0.1,3-1.2,3-2.8C91.8,184.4,91.8,184.4,91.8,184.3z"/>
		<path d="M95.2,183.4V183c0-3.4,1.9-5,4.1-5c1.4,0,2.6,0.8,3.2,2v-5.8h1.4v14h-1.3v-1.8c-0.6,1.3-1.9,2-3.2,2
			C97.1,188.4,95.2,186.8,95.2,183.4z M102.5,183.3v-0.1c0-2.6-1.3-3.9-2.9-3.9s-3,1.4-3,3.9v0.1c0,2.6,1.3,3.9,3,3.9
			S102.5,185.8,102.5,183.3z"/>
		<path d="M106.5,174.2h1.4v2.2h-1.4V174.2z M106.5,178.2h1.4v10h-1.4V178.2z"/>
		<path d="M110.5,178.2h1.3v1.8c0.6-1.3,1.8-2.1,3.2-2.1c2.2,0,4.2,1.6,4.2,5v0.4c0,3.4-1.9,5-4.1,5c-1.4,0-2.6-0.8-3.2-2v5.8h-1.4
			V178.2z M117.8,183.2v-0.1c0-2.6-1.3-3.9-3-3.9s-3,1.4-3,3.9v0.1c0,2.6,1.3,3.9,3,3.9S117.8,185.9,117.8,183.2L117.8,183.2z"/>
		<path d="M121.3,174.2h1.4v2.2h-1.4V174.2z M121.3,178.2h1.4v10h-1.4V178.2z"/>
		<path d="M124.5,185.9l1.2-0.5c0.4,1.2,1.6,2,2.9,1.9c1.4,0,2.3-0.6,2.3-1.8s-0.9-1.5-2.1-1.7l-1.3-0.2c-1.6-0.3-2.8-1-2.8-2.6
			s1.3-2.9,3.6-2.9c1.6-0.1,3.1,0.8,3.9,2.2l-1.2,0.5c-0.5-1-1.5-1.6-2.7-1.6c-1.3,0-2.2,0.7-2.2,1.7s0.8,1.4,1.8,1.6l1.3,0.2
			c1.9,0.4,3.1,1.1,3.1,2.7s-1.4,3-3.7,3C126.9,188.5,125.2,187.5,124.5,185.9z"/>
		<path d="M133.7,183.3v-0.2c0-3.3,2-5.1,4.3-5.1c1.8,0,3.4,1.2,3.9,2.9l-1.3,0.3c-0.3-1.2-1.4-2-2.6-2c-1.6,0-2.9,1.4-2.9,3.9v0.1
			c0,2.6,1.3,3.9,2.9,3.9c1.2,0,2.3-0.8,2.6-2l1.3,0.3c-0.5,1.8-2.1,3-3.9,2.9C135.7,188.4,133.7,186.6,133.7,183.3z"/>
		<path d="M143.7,174.2h1.4v2.2h-1.4V174.2z M143.7,178.2h1.4v10h-1.4V178.2z"/>
		<path d="M147.7,178.2h1.3v1.6c0.6-1.1,1.7-1.8,3-1.8c2,0,3.4,1.4,3.4,3.7v6.5H154V182c0-1.8-0.9-2.8-2.3-2.8
			c-1.5,0-2.7,1.3-2.6,2.8c0,0.1,0,0.1,0,0.2v6h-1.4V178.2z"/>
		<path d="M166.3,189.6c0,1.6-1.3,2.9-2.9,2.9c0,0,0,0-0.1,0h-3.1c-1.7,0-3-1.4-2.9-3.1c0-0.9,0.5-1.8,1.2-2.3
			c-0.4-0.4-0.6-0.9-0.6-1.5c0-0.8,0.5-1.6,1.2-1.9c-0.7-0.6-1.1-1.5-1.1-2.4c0-1.9,1.5-3.3,3.4-3.3h0.1c0.5,0,0.9,0.1,1.4,0.2h3
			v1.2h-1.5c0.4,0.6,0.6,1.2,0.6,1.9c0,1.9-1.6,3.3-3.4,3.3h-0.1H160c-0.6,0-1,0.4-1,1s0.4,1,1,1h3.2
			C164.9,186.6,166.3,187.9,166.3,189.6L166.3,189.6z M165,189.6c0-1-0.8-1.8-1.8-1.9c0,0,0,0-0.1,0h-2.7c-1,0-1.8,0.8-1.8,1.8
			s0.8,1.8,1.8,1.8l0,0h2.7C164.1,191.5,165,190.7,165,189.6C165,189.7,165,189.6,165,189.6L165,189.6z M159.2,181.3
			c0,1.3,1,2.3,2.3,2.3s2.3-1,2.3-2.3s-1-2.3-2.3-2.3S159.2,180.1,159.2,181.3L159.2,181.3z"/>
		<path d="M176,188.5c-2.5,0-4.5-1.9-4.5-5.2v-0.2c0-3.3,2-5.2,4.4-5.2s4.4,1.9,4.4,5.2v0.4h-7.5c0,2.4,1.3,3.8,3.2,3.8
			c1.2,0,2.2-0.7,2.7-1.7l1.3,0.3C179.4,187.5,177.8,188.6,176,188.5z M178.9,182.5c-0.1-2.3-1.4-3.5-3-3.5s-2.9,1.2-3,3.5H178.9z"
			/>
		<path d="M182.3,186.1v-11.8h1.4v11.6c0,0.9,0.4,1.2,1,1.2h0.5v1.2h-0.9c-1,0.1-2-0.7-2.1-1.7C182.3,186.4,182.3,186.2,182.3,186.1
			z"/>
		<path d="M186.9,174.2h1.4v2.2h-1.4V174.2z M186.9,178.2h1.4v10h-1.4V178.2z"/>
		<path d="M191.7,185.8v-6.4H190v-1.2h1.7v-3h1.3v3h2.9v1.2h-2.8v6.1c0,1.1,0.5,1.5,1.4,1.5h1.5v1.2h-1.8c-1.2,0.1-2.3-0.7-2.4-1.9
			C191.7,186.1,191.7,186,191.7,185.8z"/>
		<path d="M199,185.8v3.4c0,1-0.6,1.5-1.7,1.5v-0.8c0.6,0,0.8-0.2,0.8-0.8V188h-0.5v-2.2H199z"/>
		<path d="M205.1,185.9l1.2-0.5c0.4,1.2,1.6,2,2.9,1.9c1.4,0,2.4-0.6,2.4-1.8s-0.9-1.5-2.1-1.7l-1.3-0.2c-1.6-0.3-2.8-1-2.8-2.6
			s1.3-2.9,3.6-2.9c1.6-0.1,3.1,0.8,3.9,2.2l-1.2,0.5c-0.5-1-1.5-1.6-2.6-1.6c-1.3,0-2.2,0.7-2.2,1.7s0.8,1.4,1.8,1.6l1.3,0.2
			c1.9,0.4,3.1,1.1,3.1,2.7s-1.4,3-3.7,3C207.4,188.5,205.8,187.5,205.1,185.9z"/>
		<path d="M218.7,188.5c-2.5,0-4.5-1.9-4.5-5.2v-0.2c0-3.3,2-5.2,4.4-5.2s4.4,1.9,4.4,5.2v0.4h-7.5c0,2.4,1.3,3.8,3.2,3.8
			c1.2,0,2.2-0.7,2.7-1.7l1.3,0.3C222.1,187.5,220.5,188.6,218.7,188.5z M221.6,182.5c-0.1-2.3-1.4-3.5-3-3.5s-2.9,1.2-3,3.5H221.6z
			"/>
		<path d="M224.6,183.4V183c0-3.4,1.9-5,4.1-5c1.4,0,2.6,0.8,3.2,2v-5.8h1.4v14H232v-1.8c-0.6,1.3-1.9,2-3.2,2
			C226.5,188.4,224.6,186.8,224.6,183.4z M231.9,183.3v-0.1c0-2.6-1.3-3.9-2.9-3.9s-3,1.4-3,3.9v0.1c0,2.6,1.3,3.9,3,3.9
			S231.9,185.8,231.9,183.3L231.9,183.3z"/>
		<path d="M239.5,183.4V183c0-3.4,1.9-5,4.1-5c1.4,0,2.6,0.8,3.2,2v-5.8h1.4v14h-1.3v-1.8c-0.6,1.3-1.9,2-3.2,2
			C241.4,188.4,239.5,186.8,239.5,183.4z M246.8,183.3v-0.1c0-2.6-1.3-3.9-2.9-3.9s-3,1.4-3,3.9v0.1c0,2.6,1.3,3.9,3,3.9
			S246.8,185.8,246.8,183.3z"/>
		<path d="M250.8,174.2h1.4v2.2h-1.4V174.2z M250.8,178.2h1.4v10h-1.4V178.2z"/>
		<path d="M254.4,185.7v-0.1c0-1.6,1.2-3,3.7-3h2.9v-0.8c0.2-1.2-0.7-2.4-2-2.5c-0.1,0-0.3,0-0.4,0c-1.2,0-2.2,0.7-2.6,1.8l-1.3-0.3
			c0.6-1.7,2.2-2.8,3.9-2.7c1.8-0.2,3.5,1.2,3.7,3c0,0.2,0,0.4,0,0.6v6.6H261v-1.6c-0.7,1.2-2,1.8-3.4,1.8
			C255.7,188.4,254.4,187.3,254.4,185.7z M260.9,184.3v-0.9h-2.7c-1.6,0-2.5,0.9-2.5,2s0.9,1.9,1.9,1.9c0.1,0,0.2,0,0.2,0
			c1.6,0.1,3-1.2,3-2.8C260.9,184.4,260.9,184.4,260.9,184.3L260.9,184.3z"/>
		<path d="M264.9,178.2h1.3v1.6c0.5-1.1,1.7-1.8,2.9-1.8c1.3,0,2.4,0.8,2.8,2c0.5-1.2,1.7-2,3-2c1.9,0,3.3,1.4,3.3,3.7v6.5h-1.4V182
			c0-1.7-0.9-2.8-2.1-2.8c-1.5,0-2.4,1.3-2.4,3v6h-1.4V182c0-1.7-0.8-2.8-2.1-2.8s-2.4,1.3-2.4,3v6H265L264.9,178.2z"/>
		<path d="M284.4,185.7v-0.1c0-1.6,1.2-3,3.7-3h2.9v-0.8c0.2-1.2-0.7-2.4-2-2.5c-0.1,0-0.3,0-0.4,0c-1.2,0-2.2,0.7-2.6,1.8l-1.3-0.3
			c0.6-1.6,2.2-2.7,4-2.6c1.8-0.2,3.5,1.2,3.7,3c0,0.2,0,0.4,0,0.6v6.6H291v-1.6c-0.7,1.2-2,1.8-3.4,1.8
			C285.7,188.4,284.4,187.3,284.4,185.7z M290.9,184.3v-0.9h-2.7c-1.6,0-2.5,0.9-2.5,2s0.9,1.9,1.9,1.9c0.1,0,0.2,0,0.2,0
			c1.6,0.1,3-1.2,3-2.8C290.9,184.4,290.9,184.4,290.9,184.3L290.9,184.3z"/>
		<path d="M295,178.2h1.3v2.4c0.6-1.5,2.1-2.5,3.8-2.5v1.4c-2.3,0-3.7,1.7-3.7,4.1v4.6H295V178.2z"/>
		<path d="M21.2,200.2h1.3v1.6c0.6-1.1,1.7-1.8,3-1.8c2,0,3.4,1.4,3.4,3.7v6.5h-1.4V204c0-1.8-0.9-2.8-2.3-2.8
			c-1.5,0-2.7,1.3-2.6,2.8c0,0.1,0,0.1,0,0.2v6h-1.4V200.2z"/>
		<path d="M30.9,205.3v-0.2c0-3.3,2-5.2,4.4-5.2s4.4,1.9,4.4,5.2v0.2c0,3.3-2,5.2-4.4,5.2S30.9,208.7,30.9,205.3z M38.3,205.3v-0.1
			c0-2.6-1.3-4-3-4s-3,1.4-3,4v0.1c0,2.6,1.3,4,3,4S38.3,207.9,38.3,205.3L38.3,205.3z"/>
		<path d="M41.8,200.2h1.3v1.6c0.6-1.1,1.7-1.8,3-1.8c2,0,3.4,1.4,3.4,3.7v6.5h-1.4V204c0-1.8-0.9-2.8-2.3-2.8
			c-1.5,0-2.7,1.3-2.6,2.8c0,0.1,0,0.1,0,0.2v6h-1.4V200.2z"/>
		<path d="M59.6,210.2h-1.3v-1.6c-0.6,1.1-1.7,1.8-3,1.8c-2,0-3.4-1.4-3.4-3.7v-6.5h1.4v6.2c0,1.8,0.9,2.8,2.3,2.8
			c1.5,0,2.7-1.3,2.6-2.8c0-0.1,0-0.1,0-0.2v-6h1.4V210.2z"/>
		<path d="M62.2,200.2h1.3v1.6c0.5-1.1,1.7-1.8,2.9-1.8c1.3,0,2.4,0.8,2.8,2c0.5-1.2,1.7-2,3-2c1.9,0,3.3,1.4,3.3,3.7v6.5H74V204
			c0-1.7-0.8-2.8-2.1-2.8c-1.4,0-2.4,1.3-2.4,3v6h-1.4V204c0-1.7-0.8-2.8-2.1-2.8c-1.3,0-2.4,1.3-2.4,3v6h-1.4L62.2,200.2z"/>
		<path d="M77.9,200.2h1.3v1.6c0.5-1.1,1.7-1.8,2.9-1.8c1.3,0,2.4,0.8,2.8,2c0.5-1.2,1.7-2,3-2c1.9,0,3.3,1.4,3.3,3.7v6.5h-1.4V204
			c0-1.7-0.8-2.8-2.1-2.8c-1.4,0-2.4,1.3-2.4,3v6h-1.4V204c0-1.7-0.8-2.8-2.1-2.8s-2.4,1.3-2.4,3v6H78L77.9,200.2z"/>
		<path d="M93.4,213h0.8c0.9,0,1.4-0.4,1.8-1.6l0.6-1.6l-4.2-9.6H94l2.4,5.8c0.3,0.7,0.6,1.4,0.9,2.3c0.2-0.9,0.5-1.6,0.7-2.3
			l1.9-5.7h1.4L97.1,212c-0.3,1.3-1.5,2.3-2.9,2.3h-0.9L93.4,213z"/>
		<path d="M107.5,200.2h1.3v1.6c0.6-1.1,1.7-1.8,3-1.8c2,0,3.4,1.4,3.4,3.7v6.5h-1.4V204c0-1.8-0.9-2.8-2.3-2.8
			c-1.5,0-2.7,1.3-2.6,2.8c0,0.1,0,0.1,0,0.2v6h-1.4V200.2z"/>
		<path d="M117.8,196.2h1.4v2.2h-1.4V196.2z M117.8,200.2h1.4v10h-1.4V200.2z"/>
		<path d="M123,208.4v1.8h-1.3v-14h1.4v5.8c0.6-1.2,1.8-2,3.2-2c2.2,0,4.1,1.6,4.1,5v0.4c0,3.4-1.9,5-4.2,5
			C124.9,210.5,123.6,209.7,123,208.4z M129,205.3v-0.1c0-2.6-1.3-3.9-3-3.9s-2.9,1.4-2.9,3.9v0.1c0,2.6,1.3,3.9,2.9,3.9
			S129,207.8,129,205.3z"/>
		<path d="M140.3,203.7v6.5h-1.4V204c0-1.8-0.9-2.8-2.3-2.8c-1.5,0-2.7,1.3-2.6,2.8c0,0.1,0,0.1,0,0.2v6h-1.4v-14h1.4v5.4
			c0.6-1,1.7-1.7,2.9-1.6C138.9,200,140.3,201.5,140.3,203.7z"/>
		<path d="M150.8,210.5c-2.5,0-4.5-1.9-4.5-5.2v-0.2c0-3.3,2-5.2,4.4-5.2s4.4,1.9,4.4,5.2v0.4h-7.5c0,2.4,1.3,3.8,3.2,3.8
			c1.2,0,2.2-0.7,2.7-1.7l1.3,0.3C154.2,209.5,152.6,210.6,150.8,210.5z M153.7,204.5c-0.1-2.3-1.4-3.5-3-3.5s-2.9,1.2-3,3.5H153.7z
			"/>
		<path d="M164.7,210.2h-1.3v-1.6c-0.6,1.1-1.7,1.8-3,1.8c-2,0-3.4-1.4-3.4-3.7v-6.5h1.4v6.2c0,1.8,0.9,2.8,2.3,2.8
			c1.5,0,2.7-1.3,2.6-2.8c0-0.1,0-0.1,0-0.2v-6h1.4V210.2z"/>
		<path d="M167.3,196.2h1.4v2.2h-1.4V196.2z M167.3,200.2h1.4v10h-1.4V200.2z"/>
		<path d="M170.6,207.9l1.2-0.5c0.4,1.2,1.6,2,2.9,1.9c1.4,0,2.4-0.6,2.4-1.8s-0.9-1.5-2.1-1.7l-1.3-0.2c-1.6-0.3-2.8-1-2.8-2.6
			s1.3-2.9,3.6-2.9c1.6-0.1,3.1,0.8,3.9,2.2l-1.2,0.5c-0.5-1-1.5-1.6-2.6-1.6c-1.3,0-2.2,0.7-2.2,1.7s0.8,1.4,1.8,1.6l1.3,0.2
			c1.9,0.4,3.1,1.1,3.1,2.7s-1.4,3-3.7,3C172.9,210.5,171.3,209.5,170.6,207.9z"/>
		<path d="M180.2,200.2h1.3v1.6c0.5-1.1,1.7-1.8,2.9-1.8c1.3,0,2.4,0.8,2.8,2c0.5-1.2,1.7-2,3-2c1.9,0,3.3,1.4,3.3,3.7v6.5h-1.4V204
			c0-1.7-0.9-2.8-2.1-2.8c-1.4,0-2.4,1.3-2.4,3v6h-1.4V204c0-1.7-0.8-2.8-2.1-2.8s-2.4,1.3-2.4,3v6h-1.4L180.2,200.2z"/>
		<path d="M195.4,205.3v-0.2c0-3.3,2-5.2,4.4-5.2s4.4,1.9,4.4,5.2v0.2c0,3.3-2,5.2-4.4,5.2S195.4,208.7,195.4,205.3z M202.8,205.3
			v-0.1c0-2.6-1.3-4-3-4s-3,1.4-3,4v0.1c0,2.6,1.3,4,3,4S202.9,207.9,202.8,205.3L202.8,205.3z"/>
		<path d="M205.8,205.4V205c0-3.4,1.9-5,4.1-5c1.4,0,2.6,0.8,3.2,2v-5.8h1.4v14h-1.3v-1.8c-0.6,1.3-1.9,2-3.2,2
			C207.8,210.4,205.8,208.8,205.8,205.4z M213.1,205.3v-0.1c0-2.6-1.3-3.9-2.9-3.9s-3,1.4-3,3.9v0.1c0,2.6,1.3,3.9,3,3.9
			S213.1,207.8,213.1,205.3z"/>
		<path d="M222.1,207.8v-6.4h-1.7v-1.2h1.7v-3h1.3v3h2.9v1.2h-2.8v6.1c0,1.1,0.5,1.5,1.4,1.5h1.5v1.2h-1.8c-1.2,0.1-2.3-0.7-2.4-1.9
			C222.1,208.1,222.1,208,222.1,207.8z"/>
		<path d="M228,196.2h1.4v2.2H228V196.2z M228,200.2h1.4v10H228V200.2z"/>
		<path d="M232.1,200.2h1.3v1.6c0.6-1.1,1.7-1.8,3-1.8c2,0,3.4,1.4,3.4,3.7v6.5h-1.4V204c0-1.8-0.9-2.8-2.3-2.8
			c-1.5,0-2.7,1.3-2.6,2.8c0,0.1,0,0.1,0,0.2v6H232L232.1,200.2z"/>
		<path d="M241.7,205.3v-0.2c0-3.3,2-5.1,4.3-5.1c1.8,0,3.4,1.2,3.9,2.9l-1.3,0.3c-0.3-1.2-1.4-2-2.6-2c-1.6,0-2.9,1.4-2.9,3.9v0.1
			c0,2.6,1.3,3.9,2.9,3.9c1.2,0,2.3-0.8,2.6-2l1.3,0.3c-0.5,1.8-2.1,3-3.9,2.9C243.7,210.4,241.7,208.6,241.7,205.3z"/>
		<path d="M251.7,196.2h1.4v2.2h-1.4V196.2z M251.7,200.2h1.4v10h-1.4V200.2z"/>
		<path d="M255.2,205.4V205c0-3.4,1.9-5,4.1-5c1.4,0,2.6,0.8,3.2,2v-5.8h1.4v14h-1.3v-1.8c-0.6,1.3-1.9,2-3.2,2
			C257.2,210.4,255.2,208.8,255.2,205.4z M262.6,205.3v-0.1c0-2.6-1.3-3.9-3-3.9c-1.6,0-3,1.4-3,3.9v0.1c0,2.6,1.3,3.9,3,3.9
			S262.6,207.8,262.6,205.3z"/>
		<path d="M274.1,210.2h-1.3v-1.6c-0.6,1.1-1.7,1.8-3,1.8c-2,0-3.4-1.4-3.4-3.7v-6.5h1.4v6.2c0,1.8,0.9,2.8,2.3,2.8
			c1.5,0,2.7-1.3,2.6-2.8c0-0.1,0-0.1,0-0.2v-6h1.4V210.2z"/>
		<path d="M276.7,200.2h1.3v1.6c0.6-1.1,1.7-1.8,3-1.8c2,0,3.4,1.4,3.4,3.7v6.5H283V204c0-1.8-0.9-2.8-2.3-2.8
			c-1.5,0-2.7,1.3-2.6,2.8c0,0.1,0,0.1,0,0.2v6h-1.4V200.2z"/>
		<path d="M287.5,207.8v-6.4h-1.7v-1.2h1.7v-3h1.3v3h2.9v1.2h-2.8v6.1c0,1.1,0.5,1.5,1.4,1.5h1.5v1.2H290c-1.2,0.1-2.3-0.7-2.4-1.9
			C287.5,208.1,287.5,208,287.5,207.8z"/>
		<path d="M28.7,232.2h-1.3v-1.6c-0.6,1.1-1.7,1.8-3,1.8c-2,0-3.4-1.4-3.4-3.7v-6.5h1.4v6.2c0,1.8,0.9,2.8,2.3,2.8
			c1.5,0,2.7-1.3,2.6-2.8c0-0.1,0-0.1,0-0.2v-6h1.4V232.2z"/>
		<path d="M32.1,229.8v-6.4h-1.7v-1.2h1.7v-3h1.3v3h2.9v1.2h-2.8v6.1c0,1.1,0.5,1.5,1.3,1.5h1.5v1.2h-1.8c-1.2,0.1-2.3-0.7-2.4-1.9
			C32.1,230.1,32.1,230,32.1,229.8z"/>
		<path d="M42.3,230.1v-11.8h1.4v11.6c0,0.9,0.3,1.2,1,1.2h0.5v1.2h-0.8c-1,0.1-2-0.7-2.1-1.7C42.3,230.4,42.3,230.2,42.3,230.1z"/>
		<path d="M46.6,229.7v-0.1c0-1.6,1.2-3,3.7-3h2.9v-0.8c0.2-1.2-0.7-2.4-2-2.5c-0.1,0-0.3,0-0.4,0c-1.2,0-2.2,0.7-2.6,1.8l-1.3-0.3
			c0.6-1.7,2.2-2.8,3.9-2.7c1.8-0.2,3.5,1.2,3.7,3c0,0.2,0,0.4,0,0.6v6.6h-1.3v-1.6c-0.7,1.2-2,1.8-3.4,1.8
			C48,232.4,46.6,231.3,46.6,229.7z M53.2,228.3v-0.9h-2.7c-1.6,0-2.5,0.9-2.5,2s0.9,1.9,1.9,1.9c0.1,0,0.2,0,0.2,0
			c1.6,0.1,3-1.2,3-2.8C53.2,228.4,53.2,228.4,53.2,228.3z"/>
		<path d="M56.6,227.3v-0.2c0-3.3,2-5.2,4.4-5.2s4.4,1.9,4.4,5.2v0.2c0,3.3-2,5.2-4.4,5.2S56.6,230.7,56.6,227.3z M64,227.3v-0.1
			c0-2.6-1.3-4-3-4s-3,1.4-3,4v0.1c0,2.6,1.3,4,3,4S64,229.9,64,227.3L64,227.3z"/>
		<path d="M67.6,222.2h1.3v2.4c0.6-1.5,2.1-2.5,3.8-2.5v1.4c-2.3,0-3.7,1.7-3.7,4.1v4.6h-1.4L67.6,222.2z"/>
		<path d="M78.2,232.5c-2.5,0-4.5-1.9-4.5-5.2v-0.2c0-3.3,2-5.2,4.4-5.2s4.4,1.9,4.4,5.2v0.4H75c0,2.4,1.3,3.8,3.2,3.8
			c1.2,0,2.2-0.7,2.7-1.7l1.3,0.3C81.6,231.5,80,232.6,78.2,232.5z M81.1,226.5c-0.1-2.3-1.5-3.5-3-3.5s-2.9,1.2-3,3.5H81.1z"/>
		<path d="M88.6,232.5c-2.5,0-4.5-1.9-4.5-5.2v-0.2c0-3.3,2-5.2,4.4-5.2s4.4,1.9,4.4,5.2v0.4h-7.5c0,2.4,1.3,3.8,3.2,3.8
			c1.2,0,2.2-0.7,2.7-1.7l1.3,0.3C92,231.5,90.3,232.6,88.6,232.5z M91.5,226.5c-0.1-2.3-1.4-3.5-3-3.5s-2.9,1.2-3,3.5H91.5z"/>
		<path d="M95.4,229.8v-6.4h-1.7v-1.2h1.7v-3h1.3v3h2.9v1.2h-2.8v6.1c0,1.1,0.5,1.5,1.3,1.5h1.5v1.2h-1.8c-1.2,0.1-2.3-0.7-2.4-1.9
			C95.4,230.1,95.4,230,95.4,229.8z"/>
		<path d="M104.9,227.4V227c0-3.4,1.9-5,4.1-5c1.4,0,2.6,0.8,3.2,2v-5.8h1.4v14h-1.3v-1.8c-0.6,1.3-1.9,2-3.2,2
			C106.9,232.4,104.9,230.8,104.9,227.4z M112.3,227.3v-0.1c0-2.6-1.3-3.9-2.9-3.9s-3,1.4-3,3.9v0.1c0,2.6,1.3,3.9,3,3.9
			S112.3,229.8,112.3,227.3z"/>
		<path d="M115.7,227.3v-0.2c0-3.3,2-5.2,4.4-5.2s4.4,1.9,4.4,5.2v0.2c0,3.3-2,5.2-4.4,5.2S115.7,230.7,115.7,227.3z M123.1,227.3
			v-0.1c0-2.6-1.3-4-3-4s-3,1.4-3,4v0.1c0,2.6,1.3,4,3,4S123.1,229.9,123.1,227.3z"/>
		<path d="M126.6,230.1v-11.8h1.4v11.6c0,0.9,0.4,1.2,1,1.2h0.5v1.2h-0.8c-1,0.1-2-0.7-2.1-1.7C126.6,230.4,126.6,230.2,126.6,230.1
			z"/>
		<path d="M130.4,227.3v-0.2c0-3.3,2-5.2,4.4-5.2s4.4,1.9,4.4,5.2v0.2c0,3.3-2,5.2-4.4,5.2S130.4,230.7,130.4,227.3z M137.9,227.3
			v-0.1c0-2.6-1.3-4-3-4s-3,1.4-3,4v0.1c0,2.6,1.3,4,3,4C136.5,231.3,137.9,229.9,137.9,227.3z"/>
		<path d="M141.4,222.2h1.3v2.4c0.6-1.5,2.1-2.5,3.8-2.5v1.4c-2.3,0-3.7,1.7-3.7,4.1v4.6h-1.4L141.4,222.2L141.4,222.2z"/>
		<path d="M152.1,232.5c-2.5,0-4.5-1.9-4.5-5.2v-0.2c0-3.3,2-5.2,4.4-5.2s4.4,1.9,4.4,5.2v0.4h-7.5c0,2.4,1.3,3.8,3.2,3.8
			c1.2,0,2.2-0.7,2.7-1.7l1.3,0.3C155.5,231.5,153.9,232.6,152.1,232.5z M155,226.5c-0.1-2.3-1.4-3.5-3-3.5s-2.9,1.2-3,3.5H155z"/>
		<path d="M162.6,222.2h1.3v1.6c0.5-1.1,1.7-1.8,2.9-1.8c1.3,0,2.4,0.8,2.8,2c0.5-1.2,1.7-2,3-2c1.9,0,3.3,1.4,3.3,3.7v6.5h-1.4V226
			c0-1.7-0.9-2.8-2.1-2.8c-1.4,0-2.4,1.3-2.4,3v6h-1.4V226c0-1.7-0.8-2.8-2.1-2.8s-2.4,1.3-2.4,3v6h-1.4L162.6,222.2z"/>
		<path d="M177.9,229.7v-0.1c0-1.6,1.2-3,3.7-3h2.9v-0.8c0.2-1.2-0.7-2.4-2-2.5c-0.1,0-0.3,0-0.4,0c-1.2,0-2.2,0.7-2.6,1.8l-1.3-0.3
			c0.6-1.6,2.2-2.7,3.9-2.6c1.8-0.2,3.5,1.2,3.7,3c0,0.2,0,0.4,0,0.6v6.6h-1.3v-1.6c-0.7,1.2-2,1.8-3.4,1.8
			C179.2,232.4,177.9,231.3,177.9,229.7z M184.4,228.3v-0.9h-2.7c-1.6,0-2.5,0.9-2.5,2s0.9,1.9,1.9,1.9c0.1,0,0.2,0,0.2,0
			c1.6,0.1,3-1.2,3-2.8C184.5,228.4,184.5,228.4,184.4,228.3z"/>
		<path d="M196.8,233.6c0,1.6-1.3,2.9-2.9,2.9c0,0,0,0-0.1,0h-3.1c-1.7,0-3-1.4-2.9-3.1c0-0.9,0.5-1.8,1.2-2.3
			c-0.4-0.4-0.6-0.9-0.6-1.5c0-0.8,0.5-1.6,1.2-1.9c-0.7-0.6-1.1-1.5-1.1-2.4c0-1.9,1.5-3.3,3.4-3.3h0.1c0.5,0,0.9,0.1,1.4,0.2h3
			v1.2h-1.5c0.4,0.6,0.6,1.2,0.6,1.9c0,1.9-1.6,3.3-3.4,3.3H192h-1.4c-0.6,0-1,0.4-1,1s0.4,1,1,1h3.2
			C195.3,230.6,196.7,231.9,196.8,233.6C196.7,233.6,196.7,233.6,196.8,233.6z M195.4,233.6c0-1-0.8-1.8-1.8-1.9c0,0,0,0-0.1,0h-2.7
			c-1,0-1.8,0.8-1.8,1.8s0.8,1.8,1.8,1.8l0,0h2.7C194.6,235.5,195.4,234.7,195.4,233.6C195.4,233.6,195.5,233.6,195.4,233.6z
			 M189.6,225.3c0,1.3,1,2.3,2.3,2.3s2.3-1,2.3-2.3s-1-2.3-2.3-2.3S189.6,224.1,189.6,225.3L189.6,225.3z"/>
		<path d="M198.3,222.2h1.3v1.6c0.6-1.1,1.7-1.8,3-1.8c2,0,3.4,1.4,3.4,3.7v6.5h-1.4V226c0-1.8-0.9-2.8-2.3-2.8
			c-1.5,0-2.7,1.3-2.6,2.8c0,0.1,0,0.1,0,0.2v6h-1.4V222.2z"/>
		<path d="M208,229.7v-0.1c0-1.6,1.2-3,3.7-3h2.9v-0.8c0.2-1.2-0.7-2.4-2-2.5c-0.1,0-0.3,0-0.4,0c-1.2,0-2.2,0.7-2.6,1.8l-1.3-0.3
			c0.6-1.6,2.2-2.7,3.9-2.6c1.8-0.2,3.5,1.2,3.7,3c0,0.2,0,0.4,0,0.6v6.6h-1.3v-1.6c-0.7,1.2-2,1.8-3.4,1.8
			C209.4,232.4,208,231.3,208,229.7z M214.6,228.3v-0.9h-2.7c-1.6,0-2.5,0.9-2.5,2s0.9,1.9,1.9,1.9c0.1,0,0.2,0,0.2,0
			c1.6,0.1,3-1.2,3-2.8C214.6,228.4,214.6,228.4,214.6,228.3L214.6,228.3z"/>
		<path d="M222.4,229.7v-0.1c0-1.6,1.2-3,3.7-3h2.9v-0.8c0.2-1.2-0.7-2.4-2-2.5c-0.1,0-0.3,0-0.4,0c-1.2,0-2.2,0.7-2.6,1.8l-1.3-0.3
			c0.6-1.6,2.2-2.7,3.9-2.6c1.8-0.2,3.5,1.2,3.7,3c0,0.2,0,0.4,0,0.6v6.6H229v-1.6c-0.7,1.2-2,1.8-3.4,1.8
			C223.8,232.4,222.4,231.3,222.4,229.7z M229,228.3v-0.9h-2.7c-1.6,0-2.5,0.9-2.5,2s0.9,1.9,1.9,1.9c0.1,0,0.2,0,0.2,0
			c1.6,0,3-1.2,3-2.8C229,228.4,229,228.4,229,228.3L229,228.3z"/>
		<path d="M232.9,230.1v-11.8h1.4v11.6c0,0.9,0.4,1.2,1,1.2h0.5v1.2H235c-1,0.1-2-0.7-2.1-1.7C232.9,230.4,232.9,230.2,232.9,230.1z
			"/>
		<path d="M237.6,218.2h1.4v2.2h-1.4V218.2z M237.6,222.2h1.4v10h-1.4V222.2z"/>
		<path d="M248.4,230.5c-0.6,1.2-1.8,2-3.2,2c-2.2,0-4.1-1.6-4.1-5V227c0-3.4,1.9-5,4.1-5c1.4,0,2.7,0.8,3.3,2.1v-1.9h1.3v14h-1.4
			L248.4,230.5z M248.4,227.3v-0.1c0-2.6-1.3-3.9-2.9-3.9s-3,1.4-3,3.9v0.1c0,2.6,1.3,3.9,3,3.9S248.4,229.9,248.4,227.3
			L248.4,227.3z"/>
		<path d="M260,232.2h-1.3v-1.6c-0.6,1.1-1.7,1.8-3,1.8c-2,0-3.4-1.4-3.4-3.7v-6.5h1.4v6.2c0,1.8,0.9,2.8,2.3,2.8
			c1.5,0,2.7-1.3,2.6-2.8c0-0.1,0-0.1,0-0.2v-6h1.4V232.2z"/>
		<path d="M262.1,229.7v-0.1c0-1.6,1.2-3,3.7-3h2.9v-0.8c0.2-1.2-0.7-2.4-2-2.5c-0.1,0-0.3,0-0.4,0c-1.2,0-2.2,0.7-2.6,1.8l-1.3-0.3
			c0.6-1.6,2.2-2.7,4-2.6c1.8-0.2,3.5,1.2,3.7,3c0,0.2,0,0.4,0,0.6v6.6h-1.3v-1.6c-0.7,1.2-2,1.8-3.4,1.8
			C263.5,232.4,262.1,231.3,262.1,229.7z M268.7,228.3v-0.9H266c-1.6,0-2.5,0.9-2.5,2s0.9,1.9,1.9,1.9c0.1,0,0.2,0,0.2,0
			c1.6,0.1,3-1.2,3-2.8C268.7,228.4,268.7,228.4,268.7,228.3z"/>
		<path d="M272.6,222.2h1.3v1.6c0.5-1.1,1.7-1.8,2.9-1.8c1.3,0,2.4,0.8,2.8,2c0.5-1.2,1.7-2,3-2c1.9,0,3.3,1.4,3.3,3.7v6.5h-1.4V226
			c0-1.7-0.9-2.8-2.1-2.8c-1.5,0-2.4,1.3-2.4,3v6h-1.4V226c0-1.7-0.8-2.8-2.1-2.8s-2.4,1.3-2.4,3v6h-1.4L272.6,222.2z"/>
		<path d="M25.1,254.5c-2.5,0-4.5-1.9-4.5-5.2v-0.2c0-3.3,2-5.2,4.4-5.2s4.4,1.9,4.4,5.2v0.4h-7.5c0,2.4,1.3,3.8,3.2,3.8
			c1.2,0,2.2-0.7,2.7-1.7l1.3,0.3C28.5,253.5,26.8,254.6,25.1,254.5z M28,248.5c-0.1-2.3-1.4-3.5-3-3.5c-1.5,0-2.9,1.2-3,3.5H28z"/>
		<path d="M31.5,244.2h1.3v2.4c0.6-1.5,2.1-2.5,3.8-2.5v1.4c-2.3,0-3.7,1.7-3.7,4.1v4.6h-1.4C31.5,254.2,31.5,244.2,31.5,244.2z"/>
		<path d="M37.8,251.7v-0.1c0-1.6,1.2-3,3.7-3h2.9v-0.8c0.2-1.2-0.7-2.4-2-2.5c-0.1,0-0.3,0-0.4,0c-1.2,0-2.2,0.7-2.6,1.8l-1.3-0.3
			c0.6-1.7,2.2-2.8,3.9-2.7c1.8-0.2,3.5,1.2,3.7,3c0,0.2,0,0.4,0,0.6v6.6h-1.3v-1.6c-0.7,1.2-2,1.8-3.4,1.8
			C39.2,254.4,37.8,253.3,37.8,251.7z M44.4,250.3v-0.9h-2.7c-1.6,0-2.5,0.9-2.5,2s0.9,1.9,1.9,1.9c0.1,0,0.2,0,0.2,0
			c1.6,0.1,3-1.2,3-2.8C44.4,250.4,44.4,250.4,44.4,250.3z"/>
		<path d="M48.9,251.8v-6.4h-1.7v-1.2h1.7v-3h1.3v3h2.9v1.2h-2.8v6.1c0,1.1,0.5,1.5,1.4,1.5h1.5v1.2h-1.8c-1.2,0.1-2.3-0.7-2.4-1.9
			C48.9,252.1,48.9,252,48.9,251.8z"/>
		<path d="M58.3,244.2h1.5l2.3,6.5c0.3,0.7,0.5,1.3,0.7,2c0.2-0.7,0.4-1.3,0.7-2l2.3-6.5h1.4l-3.8,10H62L58.3,244.2z"/>
		<path d="M68.2,249.3v-0.2c0-3.3,2-5.2,4.4-5.2s4.4,1.9,4.4,5.2v0.2c0,3.3-2,5.2-4.4,5.2S68.2,252.7,68.2,249.3z M75.6,249.3v-0.1
			c0-2.6-1.3-4-3-4s-3,1.4-3,4v0.1c0,2.6,1.3,4,3,4S75.6,251.9,75.6,249.3z"/>
		<path d="M79.1,252.1v-11.8h1.4v11.6c0,0.9,0.3,1.2,1,1.2H82v1.2h-0.8c-1,0.1-2-0.6-2.1-1.7C79,252.4,79,252.2,79.1,252.1z"/>
		<path d="M91.1,254.2h-1.3v-1.6c-0.6,1.1-1.7,1.8-3,1.8c-2,0-3.4-1.4-3.4-3.7v-6.5h1.4v6.2c0,1.8,0.9,2.8,2.3,2.8
			c1.5,0,2.7-1.3,2.6-2.8c0-0.1,0-0.1,0-0.2v-6h1.4V254.2z"/>
		<path d="M94.5,251.8v-6.4h-1.7v-1.2h1.7v-3h1.3v3h2.9v1.2h-2.8v6.1c0,1.1,0.5,1.5,1.3,1.5h1.5v1.2h-1.8c-1.2,0.1-2.3-0.7-2.4-1.9
			C94.5,252.1,94.5,252,94.5,251.8z"/>
		<path d="M100.4,244.2h1.3v1.8c0.6-1.3,1.9-2,3.2-2c2.2,0,4.2,1.6,4.2,5v0.4c0,3.4-1.9,5-4.1,5c-1.4,0-2.6-0.8-3.2-2v5.8h-1.4
			V244.2z M107.7,249.2v-0.1c0-2.6-1.3-3.9-3-3.9s-3,1.4-3,3.9v0.1c0,2.6,1.3,3.9,3,3.9S107.7,251.9,107.7,249.2L107.7,249.2z"/>
		<path d="M110.6,251.7v-0.1c0-1.6,1.2-3,3.7-3h2.9v-0.8c0.2-1.2-0.7-2.4-2-2.5c-0.1,0-0.3,0-0.4,0c-1.2,0-2.2,0.7-2.6,1.8l-1.3-0.3
			c0.6-1.7,2.2-2.8,3.9-2.7c1.8-0.2,3.5,1.2,3.7,3c0,0.2,0,0.4,0,0.6v6.6h-1.3v-1.6c-0.7,1.2-2,1.8-3.4,1.8
			C112,254.4,110.6,253.3,110.6,251.7z M117.2,250.3v-0.9h-2.7c-1.6,0-2.5,0.9-2.5,2s0.9,1.9,1.9,1.9c0.1,0,0.2,0,0.2,0
			c1.6,0.1,3-1.2,3-2.8C117.2,250.4,117.2,250.4,117.2,250.3z"/>
		<path d="M121.7,251.8v-6.4H120v-1.2h1.7v-3h1.3v3h2.9v1.2h-2.8v6.1c0,1.1,0.5,1.5,1.3,1.5h1.5v1.2h-1.8c-1.2,0.1-2.3-0.8-2.4-2
			C121.7,252.1,121.7,252,121.7,251.8z"/>
		<path d="M127.8,251.8h1.4v2.4h-1.4C127.8,254.2,127.8,251.8,127.8,251.8z"/>
		<path d="M136.4,249.8v-9.6h1.5v9.4c0,2.5,1.4,3.5,3.2,3.5s3.2-1,3.2-3.5v-9.4h1.5v9.6c0.2,2.5-1.7,4.6-4.1,4.8c-0.2,0-0.4,0-0.6,0
			c-2.4,0.2-4.5-1.6-4.8-4C136.3,250.3,136.3,250,136.4,249.8z"/>
		<path d="M149.4,251.8v-6.4h-1.7v-1.2h1.7v-3h1.3v3h2.9v1.2h-2.8v6.1c0,1.1,0.5,1.5,1.4,1.5h1.5v1.2h-1.8c-1.2,0.1-2.3-0.7-2.4-1.9
			C149.3,252.1,149.3,252,149.4,251.8z"/>
		<path d="M158.8,244.2h1.5l1.9,6.1c0.2,0.6,0.4,1.1,0.6,2c0.2-0.9,0.4-1.4,0.6-2l1.9-6.1h1.3l2,6.1c0.2,0.6,0.4,1.2,0.6,2
			c0.2-0.9,0.4-1.4,0.6-2l1.9-6.1h1.4l-3.3,10h-1.3l-2.1-6.5c-0.2-0.5-0.3-1.1-0.5-1.8c-0.2,0.7-0.4,1.3-0.5,1.8l-2.1,6.5H162
			L158.8,244.2z"/>
		<path d="M174.9,240.2h1.4v2.2h-1.4V240.2z M174.9,244.2h1.4v10h-1.4V244.2z"/>
		<path d="M178.2,251.9l1.2-0.5c0.4,1.2,1.6,2,2.9,1.9c1.4,0,2.4-0.6,2.4-1.8s-0.9-1.5-2.1-1.7l-1.3-0.2c-1.6-0.3-2.8-1-2.8-2.6
			s1.3-3,3.6-3c1.6-0.1,3.1,0.8,3.9,2.2l-1.2,0.5c-0.5-1-1.5-1.6-2.6-1.6c-1.3,0-2.2,0.7-2.2,1.7s0.8,1.4,1.8,1.6l1.3,0.2
			c1.9,0.4,3.1,1.1,3.1,2.7s-1.4,3-3.7,3C180.5,254.5,178.9,253.5,178.2,251.9z"/>
		<path d="M187.9,240.2h1.4v2.2h-1.4V240.2z M187.9,244.2h1.4v10h-1.4V244.2z"/>
		<path d="M200.1,254.5c-2.5,0-4.5-1.9-4.5-5.2v-0.2c0-3.3,2-5.2,4.4-5.2s4.4,1.9,4.4,5.2v0.4h-7.5c0,2.4,1.3,3.8,3.2,3.8
			c1.2,0,2.2-0.7,2.7-1.7l1.3,0.3C203.5,253.5,201.9,254.6,200.1,254.5z M203,248.5c-0.1-2.3-1.4-3.5-3-3.5s-2.9,1.2-3,3.5H203z"/>
		<path d="M206.4,244.2h1.3v1.6c0.6-1.1,1.7-1.8,3-1.8c2,0,3.4,1.4,3.4,3.7v6.5h-1.4V248c0-1.8-0.9-2.8-2.3-2.8
			c-1.5,0-2.7,1.3-2.6,2.8c0,0.1,0,0.1,0,0.2v6h-1.4V244.2z"/>
		<path d="M216.7,240.2h1.4v2.2h-1.4V240.2z M216.7,244.2h1.4v10h-1.4V244.2z"/>
		<path d="M220.7,244.2h1.3v1.6c0.5-1.1,1.7-1.8,2.9-1.8c1.3,0,2.4,0.8,2.8,2c0.5-1.2,1.7-2,3-2c1.9,0,3.3,1.4,3.3,3.7v6.5h-1.4V248
			c0-1.7-0.9-2.8-2.1-2.8c-1.4,0-2.4,1.3-2.4,3v6h-1.4V248c0-1.7-0.8-2.8-2.1-2.8s-2.4,1.3-2.4,3v6h-1.4L220.7,244.2z"/>
		<path d="M240.2,251.7v-0.1c0-1.6,1.2-3,3.7-3h2.9v-0.8c0.2-1.2-0.7-2.4-2-2.5c-0.1,0-0.3,0-0.4,0c-1.2,0-2.2,0.7-2.6,1.8l-1.3-0.3
			c0.6-1.6,2.2-2.7,3.9-2.6c1.8-0.2,3.5,1.2,3.7,3c0,0.2,0,0.4,0,0.6v6.6h-1.3v-1.6c-0.7,1.2-2,1.8-3.4,1.8
			C241.5,254.4,240.2,253.3,240.2,251.7z M246.8,250.3v-0.9H244c-1.6,0-2.5,0.9-2.5,2s0.9,1.9,1.9,1.9c0.1,0,0.2,0,0.2,0
			c1.6,0.1,3-1.2,3-2.8C246.8,250.5,246.8,250.4,246.8,250.3z"/>
		<path d="M250.1,249.4V249c0-3.4,1.9-5,4.1-5c1.4,0,2.6,0.8,3.2,2v-5.8h1.4v14h-1.3v-1.8c-0.6,1.3-1.9,2-3.3,2
			C252.1,254.4,250.1,252.8,250.1,249.4z M257.5,249.3v-0.1c0-2.6-1.3-3.9-2.9-3.9s-3,1.4-3,3.9v0.1c0,2.6,1.3,3.9,3,3.9
			C256.3,253.2,257.5,251.8,257.5,249.3z"/>
		<path d="M265.7,244.2h1.3v1.6c0.5-1.1,1.7-1.8,2.9-1.8c1.3,0,2.4,0.8,2.8,2c0.5-1.2,1.7-2,3-2c1.9,0,3.3,1.4,3.3,3.7v6.5h-1.4V248
			c0-1.7-0.9-2.8-2.1-2.8c-1.4,0-2.4,1.3-2.4,3v6h-1.4V248c0-1.7-0.8-2.8-2.1-2.8s-2.4,1.3-2.4,3v6h-1.4L265.7,244.2z"/>
		<path d="M281.5,240.2h1.4v2.2h-1.4V240.2z M281.5,244.2h1.4v10h-1.4V244.2z"/>
		<path d="M285.5,244.2h1.3v1.6c0.6-1.1,1.7-1.8,3-1.8c2,0,3.4,1.4,3.4,3.7v6.5h-1.4V248c0-1.8-0.9-2.8-2.3-2.8
			c-1.5,0-2.7,1.3-2.6,2.8c0,0.1,0,0.1,0,0.2v6h-1.4V244.2z"/>
		<path d="M295.7,240.2h1.4v2.2h-1.4V240.2z M295.7,244.2h1.4v10h-1.4V244.2z"/>
		<path d="M299.8,244.2h1.2v1.6c0.5-1.1,1.7-1.8,2.9-1.8c1.3,0,2.4,0.8,2.8,2c0.5-1.2,1.7-2,3-2c1.9,0,3.3,1.4,3.3,3.7v6.5h-1.4V248
			c0-1.7-0.9-2.8-2.1-2.8c-1.5,0-2.4,1.3-2.4,3v6h-1.4V248c0-1.7-0.8-2.8-2.1-2.8s-2.4,1.3-2.4,3v6h-1.4V244.2z"/>
		<path d="M20.5,266.2H22l2.3,6.5c0.3,0.7,0.5,1.3,0.7,2c0.2-0.7,0.4-1.3,0.7-2l2.3-6.5h1.5l-3.8,10h-1.4L20.5,266.2z"/>
		<path d="M34.8,276.5c-2.5,0-4.5-1.9-4.5-5.2v-0.2c0-3.3,2-5.2,4.4-5.2s4.4,1.9,4.4,5.2v0.4h-7.5c0,2.4,1.3,3.8,3.2,3.8
			c1.2,0,2.2-0.7,2.7-1.7l1.3,0.3C38.2,275.5,36.6,276.6,34.8,276.5z M37.8,270.5c-0.1-2.3-1.5-3.5-3-3.5c-1.6,0-2.9,1.2-3,3.5H37.8
			z"/>
		<path d="M41.2,266.2h1.3v1.6c0.6-1.1,1.7-1.8,3-1.8c2,0,3.4,1.4,3.4,3.7v6.5h-1.4V270c0-1.8-0.9-2.8-2.3-2.8
			c-1.5,0-2.7,1.3-2.6,2.8c0,0.1,0,0.1,0,0.2v6h-1.4V266.2z"/>
		<path d="M51.4,262.2h1.4v2.2h-1.4V262.2z M51.4,266.2h1.4v10h-1.4V266.2z"/>
		<path d="M55,273.7v-0.1c0-1.6,1.2-3,3.7-3h2.9v-0.8c0.2-1.2-0.7-2.4-2-2.5c-0.1,0-0.3,0-0.4,0c-1.2,0-2.2,0.7-2.6,1.8l-1.3-0.3
			c0.6-1.7,2.2-2.8,3.9-2.7c1.8-0.2,3.5,1.2,3.7,3c0,0.2,0,0.4,0,0.6v6.6h-1.3v-1.6c-0.7,1.2-2,1.8-3.4,1.8
			C56.3,276.4,55,275.3,55,273.7z M61.6,272.3v-0.9h-2.7c-1.6,0-2.5,0.9-2.5,2s0.9,1.9,1.9,1.9c0.1,0,0.2,0,0.2,0
			c1.6,0.1,3-1.2,3-2.8C61.6,272.4,61.6,272.4,61.6,272.3z"/>
		<path d="M65.5,266.2h1.3v1.6c0.5-1.1,1.7-1.8,2.9-1.8c1.3,0,2.4,0.8,2.8,2c0.5-1.2,1.7-2,3-2c1.9,0,3.3,1.4,3.3,3.7v6.5h-1.4V270
			c0-1.7-0.9-2.8-2.1-2.8c-1.4,0-2.4,1.3-2.4,3v6h-1.4V270c0-1.7-0.8-2.8-2.1-2.8s-2.4,1.3-2.4,3v6h-1.4L65.5,266.2z"/>
		<path d="M82.7,273.8v3.4c0,1-0.6,1.5-1.7,1.5v-0.8c0.5,0,0.8-0.2,0.8-0.8V276h-0.5v-2.2H82.7z"/>
		<path d="M97.8,269.7v6.5h-2.1v-6c0-1.5-0.8-2.4-1.9-2.4c-1.2,0.1-2.2,1.1-2.1,2.3c0,0.1,0,0.1,0,0.2v5.9h-2.1v-14h2.1v5.1
			c0.6-0.9,1.6-1.3,2.7-1.3c1.9-0.1,3.4,1.4,3.5,3.2C97.8,269.4,97.8,269.5,97.8,269.7z"/>
		<path d="M100,262.2h2.1v2.5H100V262.2z M100,266.2h2.1v10H100V266.2z"/>
		<path d="M113.4,277.5c0,1.7-1.4,3.1-3.1,3.1h-0.1H107c-1.7,0-3.1-1.3-3.2-3.1c0-0.9,0.3-1.7,1-2.3c-0.4-0.4-0.5-1-0.5-1.6
			c0-0.9,0.4-1.7,1.2-2.1c-0.5-0.6-0.8-1.3-0.8-2.1c0-1.9,1.6-3.5,3.6-3.4h0.1c0.5,0,0.9,0.1,1.4,0.2h3.3v1.8h-1.3
			c0.2,0.4,0.3,0.9,0.3,1.4c0,1.9-1.6,3.5-3.6,3.4h-0.1H107c-0.6,0-0.9,0.3-0.9,0.8c0,0.4,0.3,0.8,0.8,0.8h0.1h3.3
			C112,274.3,113.4,275.7,113.4,277.5C113.4,277.4,113.4,277.4,113.4,277.5z M111.5,277.5c0-0.8-0.6-1.4-1.4-1.5H110h-2.7
			c-0.8-0.1-1.5,0.5-1.5,1.3c-0.1,0.8,0.5,1.5,1.3,1.5c0.1,0,0.2,0,0.2,0h2.7C110.8,278.9,111.4,278.2,111.5,277.5
			C111.4,277.5,111.4,277.5,111.5,277.5z M106.6,269.4c0,1,0.8,1.8,1.8,1.8s1.8-0.8,1.8-1.8s-0.8-1.8-1.8-1.8l0,0
			C107.4,267.6,106.6,268.4,106.6,269.4C106.5,269.4,106.5,269.4,106.6,269.4z"/>
		<path d="M123.1,269.7v6.5H121v-6c0-1.5-0.8-2.4-1.9-2.4c-1.2,0.1-2.2,1.1-2.1,2.3c0,0.1,0,0.1,0,0.2v5.9h-2.1v-14h2.1v5.1
			c0.6-0.9,1.6-1.3,2.7-1.3c1.9-0.1,3.4,1.4,3.5,3.2C123.1,269.4,123.1,269.5,123.1,269.7z"/>
		<path d="M125.3,273.8v-11.6h2.1v11.2c0,0.7,0.3,1,0.8,1h0.5v1.8h-1.1c-1.2,0.1-2.3-0.7-2.4-1.9C125.3,274.1,125.3,274,125.3,273.8
			z"/>
		<path d="M130.3,262.2h2.1v2.5h-2.1V262.2z M130.3,266.2h2.1v10h-2.1V266.2z"/>
		<path d="M143.7,277.5c0,1.7-1.4,3.1-3.1,3.1h-0.1h-3.3c-1.7,0-3.1-1.3-3.2-3.1c0-0.9,0.3-1.7,1-2.3c-0.4-0.4-0.5-1-0.5-1.6
			c0-0.9,0.4-1.7,1.2-2.1c-0.5-0.6-0.8-1.3-0.8-2.1c0-1.9,1.6-3.5,3.6-3.4h0.1c0.5,0,0.9,0.1,1.4,0.2h3.3v1.8H142
			c0.2,0.4,0.3,0.9,0.3,1.4c0,1.9-1.6,3.5-3.6,3.4h-0.1h-1.4c-0.6,0-0.9,0.3-0.9,0.8c0,0.4,0.3,0.8,0.8,0.8h0.1h3.3
			c1.7-0.1,3.1,1.3,3.2,3C143.7,277.4,143.7,277.4,143.7,277.5z M141.7,277.5c0-0.8-0.6-1.4-1.4-1.4h-0.1h-2.7
			c-0.8-0.1-1.5,0.5-1.5,1.3c-0.1,0.8,0.5,1.5,1.3,1.5c0.1,0,0.2,0,0.2,0h2.7C141,278.9,141.7,278.3,141.7,277.5L141.7,277.5z
			 M136.8,269.4c0,1,0.8,1.8,1.8,1.8s1.8-0.8,1.8-1.8s-0.8-1.8-1.8-1.8l0,0C137.7,267.6,136.9,268.4,136.8,269.4L136.8,269.4z"/>
		<path d="M153.4,269.7v6.5h-2.1v-6c0-1.5-0.8-2.4-1.9-2.4c-1.2,0.1-2.2,1.1-2.1,2.3c0,0.1,0,0.1,0,0.2v5.9h-2.1v-14h2.1v5.1
			c0.6-0.8,1.6-1.3,2.7-1.3c1.9-0.1,3.4,1.4,3.5,3.2C153.4,269.4,153.4,269.6,153.4,269.7z"/>
		<path d="M156.2,273.5V268h-1.5v-1.8h1.6v-3h1.9v3h2.7v1.8h-2.6v5c0,1,0.5,1.4,1.2,1.4h1.4v1.8H159c-1.4,0.2-2.6-0.8-2.8-2.2
			C156.2,273.8,156.2,273.6,156.2,273.5z"/>
		<path d="M166.6,276.5c-2.6,0-4.8-1.9-4.8-5.2v-0.2c0-3.3,2.1-5.2,4.7-5.2s4.7,1.9,4.7,5.2v0.5h-7.3c-0.1,1.5,1,2.9,2.6,3
			c0.1,0,0.1,0,0.2,0c1,0,1.9-0.5,2.3-1.4l2,0.4C170.2,275.5,168.5,276.6,166.6,276.5z M169,270.4c0.1-1.5-1.1-2.7-2.5-2.7l0,0
			c-1.3,0-2.4,0.9-2.5,2.8L169,270.4L169,270.4z"/>
		<path d="M172.4,271.5v-0.6c0-3.3,2-4.9,4.2-4.9c1.2,0,2.2,0.5,2.9,1.5v-5.3h2.1v14h-1.9v-1.3c-0.7,1-1.8,1.6-3,1.5
			C174.5,276.4,172.4,274.8,172.4,271.5z M179.6,271.3v-0.1c0-2.2-1.1-3.4-2.5-3.4s-2.6,1.1-2.6,3.4v0.1c0,2.2,1.1,3.4,2.6,3.4
			S179.6,273.5,179.6,271.3L179.6,271.3z"/>
		<path d="M201.4,276.2h-2.2v-10.4c-0.4,0.8-0.9,1.6-1.5,2.5l-2.7,4.4l-2.7-4.4c-0.6-0.9-1.1-1.8-1.5-2.5v10.4h-2.1v-14h2.3l4.1,6.6
			l4.1-6.6h2.3L201.4,276.2z"/>
		<path d="M208.3,276.5c-2.6,0-4.8-1.9-4.8-5.2v-0.2c0-3.3,2.1-5.2,4.7-5.2s4.7,1.9,4.7,5.2v0.5h-7.3c-0.1,1.5,1,2.9,2.6,3
			c0.1,0,0.1,0,0.2,0c1,0,1.9-0.5,2.3-1.4l2,0.4C212,275.5,210.2,276.6,208.3,276.5z M210.8,270.4c0.1-1.5-1.1-2.7-2.5-2.7l0,0
			c-1.3,0-2.4,0.9-2.5,2.8L210.8,270.4L210.8,270.4z"/>
		<path d="M214.2,271.5v-0.6c0-3.3,2-4.9,4.2-4.9c1.2,0,2.2,0.5,2.9,1.5v-5.3h2.1v14h-1.9v-1.3c-0.7,1-1.8,1.6-3,1.5
			C216.3,276.4,214.2,274.8,214.2,271.5z M221.4,271.3v-0.1c0-2.2-1.1-3.4-2.5-3.4s-2.6,1.1-2.6,3.4v0.1c0,2.2,1.1,3.4,2.6,3.4
			S221.4,273.5,221.4,271.3L221.4,271.3z"/>
		<path d="M225.8,262.2h2.1v2.5h-2.1V262.2z M225.8,266.2h2.1v10h-2.1V266.2z"/>
		<path d="M238.4,276.2h-1.9v-1.3c-0.6,1-1.7,1.5-2.8,1.5c-1.9,0.1-3.4-1.4-3.5-3.2c0-0.2,0-0.3,0-0.5v-6.5h2.1v6
			c0,1.5,0.8,2.4,1.9,2.4c1.2-0.1,2.2-1.1,2.1-2.3c0-0.1,0-0.1,0-0.2v-5.9h2.1L238.4,276.2z"/>
		<path d="M240.8,266.2h1.9v1.3c0.6-1,1.7-1.5,2.8-1.5c1.1-0.1,2.2,0.6,2.7,1.6c0.6-1,1.7-1.6,2.9-1.6c1.9-0.1,3.4,1.4,3.5,3.3
			c0,0.1,0,0.3,0,0.4v6.5h-2.1v-6.1c0-1.4-0.6-2.3-1.8-2.3s-2,1-2,2.5v5.9h-2.1v-6.1c0-1.4-0.6-2.3-1.8-2.3s-2,1-2,2.5v5.9h-2.1
			L240.8,266.2z"/>
		<path d="M261.9,273.8v-6.4h-1.7v-1.2h1.7v-3h1.3v3h2.9v1.2h-2.8v6.1c0,1.1,0.5,1.5,1.4,1.5h1.5v1.2h-1.8c-1.2,0.1-2.3-0.7-2.4-1.9
			C261.8,274.1,261.8,274,261.9,273.8z"/>
		<path d="M267.5,273.7v-0.1c0-1.6,1.2-3,3.7-3h2.9v-0.8c0.2-1.2-0.7-2.4-2-2.5c-0.1,0-0.3,0-0.4,0c-1.2,0-2.2,0.7-2.6,1.8l-1.3-0.3
			c0.6-1.6,2.2-2.7,3.9-2.6c1.8-0.2,3.5,1.2,3.7,3c0,0.2,0,0.4,0,0.6v6.6h-1.3v-1.6c-0.7,1.2-2,1.8-3.4,1.8
			C268.8,276.4,267.5,275.3,267.5,273.7z M274.1,272.3v-0.9h-2.7c-1.6,0-2.5,0.9-2.5,2s0.9,1.9,1.9,1.9c0.1,0,0.2,0,0.2,0
			c1.6,0.1,3-1.2,3-2.8C274.1,272.4,274.1,272.4,274.1,272.3z"/>
		<path d="M278.6,273.8v-6.4h-1.7v-1.2h1.7v-3h1.3v3h2.9v1.2H280v6.1c0,1.1,0.5,1.5,1.4,1.5h1.5v1.2H281c-1.2,0.1-2.3-0.7-2.4-1.9
			C278.6,274.1,278.6,274,278.6,273.8z"/>
		<path d="M284.5,262.2h1.4v2.2h-1.4V262.2z M284.5,266.2h1.4v10h-1.4V266.2z"/>
		<path d="M288,271.3v-0.2c0-3.3,2-5.2,4.4-5.2s4.4,1.9,4.4,5.2v0.2c0,3.3-2,5.2-4.4,5.2S288,274.7,288,271.3z M295.4,271.3v-0.1
			c0-2.6-1.3-4-3-4s-3,1.4-3,4v0.1c0,2.6,1.3,4,3,4S295.5,273.9,295.4,271.3L295.4,271.3z"/>
		<path d="M298.9,266.2h1.3v1.6c0.6-1.1,1.7-1.8,3-1.8c2,0,3.4,1.4,3.4,3.7v6.5h-1.4V270c0-1.8-0.9-2.8-2.3-2.8
			c-1.5,0-2.7,1.3-2.6,2.8c0,0.1,0,0.1,0,0.2v6h-1.4V266.2z"/>
		<path d="M28.7,298.2h-1.3v-1.6c-0.6,1.1-1.7,1.8-3,1.8c-2,0-3.4-1.4-3.4-3.7v-6.5h1.4v6.2c0,1.8,0.9,2.8,2.3,2.8
			c1.5,0,2.7-1.3,2.6-2.8c0-0.1,0-0.1,0-0.2v-6h1.4V298.2z"/>
		<path d="M31.3,296.1v-11.8h1.4v11.6c0,0.9,0.4,1.2,1,1.2h0.5v1.2h-0.9c-1,0.1-2-0.7-2.1-1.7C31.3,296.4,31.3,296.2,31.3,296.1z"/>
		<path d="M35.9,296.1v-11.8h1.4v11.6c0,0.9,0.4,1.2,1,1.2h0.5v1.2H38c-1,0.1-2-0.7-2.1-1.7C35.9,296.4,35.9,296.2,35.9,296.1z"/>
		<path d="M40.3,295.7v-0.1c0-1.6,1.2-3,3.7-3h2.9v-0.8c0.2-1.2-0.7-2.4-2-2.5c-0.1,0-0.3,0-0.4,0c-1.2,0-2.2,0.7-2.6,1.8l-1.3-0.3
			c0.6-1.7,2.2-2.8,3.9-2.7c1.8-0.2,3.5,1.2,3.7,3c0,0.2,0,0.4,0,0.6v6.6h-1.3v-1.6c-0.7,1.2-2,1.8-3.4,1.8
			C41.6,298.4,40.3,297.3,40.3,295.7z M46.8,294.3v-0.9h-2.7c-1.6,0-2.5,0.9-2.5,2s0.9,1.9,1.9,1.9c0.1,0,0.2,0,0.2,0
			c1.6,0.1,3-1.2,3-2.8C46.9,294.4,46.9,294.4,46.8,294.3L46.8,294.3z"/>
		<path d="M50.8,288.2h1.3v1.6c0.5-1.1,1.7-1.8,2.9-1.8c1.3,0,2.4,0.8,2.8,2c0.5-1.2,1.7-2,3-2c1.9,0,3.3,1.4,3.3,3.7v6.5h-1.4V292
			c0-1.7-0.8-2.8-2.1-2.8c-1.5,0-2.4,1.3-2.4,3v6h-1.4V292c0-1.7-0.8-2.8-2.1-2.8s-2.4,1.3-2.4,3v6h-1.4L50.8,288.2z"/>
		<path d="M65.9,293.3v-0.2c0-3.3,2-5.1,4.3-5.1c1.8,0,3.4,1.2,3.9,3l-1.3,0.3c-0.3-1.2-1.4-2-2.6-2c-1.6,0-2.9,1.4-2.9,4v0.1
			c0,2.6,1.3,4,2.9,4c1.2,0,2.3-0.8,2.6-2l1.3,0.3c-0.5,1.8-2.1,3-3.9,3C67.9,298.4,65.9,296.6,65.9,293.3z"/>
		<path d="M75.4,293.3v-0.2c0-3.3,2-5.2,4.4-5.2s4.4,1.9,4.4,5.2v0.2c0,3.3-2,5.2-4.4,5.2S75.4,296.7,75.4,293.3z M82.8,293.3v-0.1
			c0-2.6-1.3-4-3-4s-3,1.4-3,4v0.1c0,2.6,1.3,4,3,4S82.8,295.9,82.8,293.3z"/>
		<path d="M86.4,288.2h1.3v2.4c0.6-1.5,2.1-2.5,3.8-2.5v1.4c-2.3,0-3.7,1.7-3.7,4.1v4.6h-1.4C86.4,298.2,86.4,288.2,86.4,288.2z"/>
		<path d="M93.2,288.2h1.3v1.8c0.6-1.3,1.9-2,3.2-2c2.2,0,4.2,1.6,4.2,5v0.4c0,3.4-1.9,5-4.1,5c-1.4,0-2.6-0.8-3.2-2v5.8h-1.4V288.2
			z M100.5,293.2v-0.1c0-2.6-1.3-4-3-4s-3,1.4-3,4v0.1c0,2.6,1.3,4,3,4S100.5,295.9,100.5,293.2L100.5,293.2z"/>
		<path d="M108,298.5c-2.5,0-4.5-1.9-4.5-5.2v-0.2c0-3.3,2-5.2,4.4-5.2s4.4,1.9,4.4,5.2v0.4h-7.5c0,2.4,1.3,3.8,3.2,3.8
			c1.2,0,2.2-0.7,2.7-1.7l1.3,0.3C111.4,297.5,109.8,298.6,108,298.5z M110.9,292.5c-0.1-2.3-1.4-3.5-3-3.5s-2.9,1.2-3,3.5H110.9z"
			/>
		<path d="M114.4,288.2h1.3v2.4c0.6-1.5,2.1-2.5,3.8-2.5v1.4c-2.3,0-3.7,1.7-3.7,4.1v4.6h-1.4C114.4,298.2,114.4,288.2,114.4,288.2z
			"/>
		<path d="M124.7,295.9l1.2-0.5c0.4,1.2,1.6,2,2.9,1.9c1.4,0,2.4-0.6,2.4-1.8s-0.9-1.5-2.1-1.7l-1.3-0.2c-1.6-0.3-2.8-1-2.8-2.6
			s1.3-2.9,3.6-2.9c1.6-0.1,3.1,0.8,3.9,2.2l-1.2,0.5c-0.5-1-1.5-1.6-2.6-1.6c-1.3,0-2.2,0.7-2.2,1.7s0.8,1.4,1.8,1.6l1.3,0.2
			c1.9,0.4,3.1,1.1,3.1,2.7s-1.4,3-3.7,3C127.1,298.5,125.4,297.5,124.7,295.9z"/>
		<path d="M142,298.2h-1.3v-1.6c-0.6,1.1-1.7,1.8-3,1.8c-2,0-3.4-1.4-3.4-3.7v-6.5h1.4v6.2c0,1.8,0.9,2.8,2.3,2.8
			c1.5,0,2.7-1.3,2.6-2.8c0-0.1,0-0.1,0-0.2v-6h1.4V298.2z"/>
		<path d="M143.8,295.9l1.2-0.5c0.4,1.2,1.6,2,2.9,1.9c1.4,0,2.3-0.6,2.3-1.8s-0.9-1.5-2.1-1.7l-1.3-0.2c-1.6-0.3-2.8-1-2.8-2.6
			s1.3-2.9,3.6-2.9c1.6-0.1,3.1,0.8,3.9,2.2l-1.2,0.5c-0.5-1-1.5-1.6-2.6-1.6c-1.3,0-2.2,0.7-2.2,1.7s0.8,1.4,1.8,1.6l1.3,0.2
			c1.9,0.4,3.1,1.1,3.1,2.7s-1.4,3-3.7,3C146.1,298.5,144.5,297.5,143.8,295.9z"/>
		<path d="M152.9,293.3v-0.2c0-3.3,2-5.1,4.3-5.1c1.8,0,3.4,1.2,3.9,3l-1.3,0.3c-0.3-1.2-1.4-2-2.6-2c-1.6,0-2.9,1.4-2.9,4v0.1
			c0,2.6,1.3,4,2.9,4c1.2,0,2.3-0.8,2.6-2l1.3,0.3c-0.5,1.8-2.1,3-3.9,3C154.9,298.4,152.9,296.6,152.9,293.3z"/>
		<path d="M162.9,284.2h1.4v2.2h-1.4V284.2z M162.9,288.2h1.4v10h-1.4V288.2z"/>
		<path d="M167,288.2h1.3v1.8c0.6-1.3,1.9-2,3.2-2c2.2,0,4.1,1.6,4.1,5v0.4c0,3.4-1.9,5-4.1,5c-1.4,0-2.6-0.8-3.2-2v5.8H167V288.2z
			 M174.3,293.2v-0.1c0-2.6-1.3-4-3-4s-3,1.4-3,4v0.1c0,2.6,1.3,4,3,4S174.2,295.9,174.3,293.2L174.3,293.2z"/>
		<path d="M177.8,284.2h1.4v2.2h-1.4V284.2z M177.8,288.2h1.4v10h-1.4V288.2z"/>
		<path d="M182.6,295.8v-6.4h-1.7v-1.2h1.7v-3h1.3v3h2.9v1.2H184v6.1c0,1.1,0.5,1.5,1.4,1.5h1.5v1.2H185c-1.2,0.2-2.3-0.7-2.4-1.9
			C182.5,296.2,182.5,296,182.6,295.8z"/>
		<path d="M192.7,296.1v-11.8h1.4v11.6c0,0.9,0.4,1.2,1,1.2h0.5v1.2h-0.9c-1,0.1-2-0.7-2.1-1.7C192.7,296.4,192.7,296.2,192.7,296.1
			z"/>
		<path d="M196.6,293.3v-0.2c0-3.3,2-5.2,4.4-5.2s4.4,1.9,4.4,5.2v0.2c0,3.3-2,5.2-4.4,5.2S196.6,296.7,196.6,293.3z M204,293.3
			v-0.1c0-2.6-1.3-4-3-4s-3,1.4-3,4v0.1c0,2.6,1.3,4,3,4S204,295.9,204,293.3L204,293.3z"/>
		<path d="M208.8,296.4v1.8h-1.3v-14h1.4v5.8c0.6-1.2,1.8-2,3.2-2c2.2,0,4.1,1.6,4.1,5v0.4c0,3.4-1.9,5-4.1,5
			C210.6,298.5,209.4,297.7,208.8,296.4z M214.8,293.3v-0.1c0-2.6-1.3-4-3-4s-2.9,1.4-2.9,4v0.1c0,2.6,1.3,4,2.9,4
			S214.8,295.9,214.8,293.3L214.8,293.3z"/>
		<path d="M217.7,293.3v-0.2c0-3.3,2-5.2,4.4-5.2s4.4,1.9,4.4,5.2v0.2c0,3.3-2,5.2-4.4,5.2S217.7,296.7,217.7,293.3z M225.2,293.3
			v-0.1c0-2.6-1.3-4-3-4s-3,1.4-3,4v0.1c0,2.6,1.3,4,3,4S225.2,295.9,225.2,293.3L225.2,293.3z"/>
		<path d="M228.8,288.2h1.2v2.4c0.6-1.5,2.1-2.5,3.8-2.5v1.4c-2.3,0-3.7,1.7-3.7,4.1v4.6h-1.4L228.8,288.2z"/>
		<path d="M236.8,295.8v-6.4h-1.7v-1.2h1.7v-3h1.3v3h2.8v1.2h-2.8v6.1c0,1.1,0.5,1.5,1.4,1.5h1.5v1.2h-1.8c-1.2,0.1-2.3-0.8-2.4-2
			C236.8,296.1,236.8,296,236.8,295.8z"/>
		<path d="M242.8,284.2h1.4v2.2h-1.4V284.2z M242.8,288.2h1.4v10h-1.4V288.2z"/>
		<path d="M246,295.9l1.2-0.5c0.4,1.2,1.6,2,2.9,1.9c1.4,0,2.4-0.6,2.4-1.8s-0.9-1.5-2.1-1.7l-1.3-0.2c-1.6-0.3-2.8-1-2.8-2.6
			s1.3-2.9,3.6-2.9c1.6-0.1,3.1,0.8,3.9,2.2l-1.2,0.5c-0.5-1-1.5-1.6-2.6-1.6c-1.3,0-2.2,0.7-2.2,1.7s0.8,1.4,1.8,1.6l1.3,0.2
			c1.9,0.4,3.1,1.1,3.1,2.7s-1.4,3-3.7,3C248.4,298.5,246.7,297.5,246,295.9z"/>
		<path d="M259.8,288.2h1.3v1.6c0.6-1.1,1.7-1.8,3-1.8c2,0,3.4,1.4,3.4,3.7v6.5h-1.4V292c0-1.8-0.9-2.8-2.3-2.8
			c-1.5,0-2.7,1.3-2.6,2.8c0,0.1,0,0.1,0,0.2v6h-1.4V288.2z"/>
		<path d="M270,284.2h1.4v2.2H270V284.2z M270,288.2h1.4v10H270V288.2z"/>
		<path d="M273.3,295.9l1.2-0.5c0.4,1.2,1.6,2,2.9,1.9c1.4,0,2.4-0.6,2.4-1.8s-0.9-1.5-2.1-1.7l-1.3-0.2c-1.6-0.3-2.8-1-2.8-2.6
			s1.3-2.9,3.6-2.9c1.6-0.1,3.1,0.8,3.9,2.2l-1.2,0.5c-0.5-1-1.5-1.6-2.6-1.6c-1.3,0-2.2,0.7-2.2,1.7s0.8,1.4,1.8,1.6l1.3,0.2
			c1.9,0.4,3.1,1.1,3.1,2.7s-1.4,3-3.7,3C275.7,298.5,274,297.5,273.3,295.9z"/>
		<path d="M283,296.1v-11.8h1.4v11.6c0,0.9,0.4,1.2,1,1.2h0.5v1.2H285c-1,0.1-1.9-0.7-2-1.8C283,296.3,283,296.2,283,296.1z"/>
		<path d="M299.4,298.2h-1.3v-1.6c-0.6,1.1-1.7,1.8-3,1.8c-2,0-3.4-1.4-3.4-3.7v-6.5h1.3v6.2c0,1.8,0.9,2.8,2.3,2.8
			c1.5,0,2.7-1.3,2.6-2.8c0-0.1,0-0.1,0-0.2v-6h1.4L299.4,298.2z"/>
		<path d="M302.7,295.8v-6.4H301v-1.2h1.7v-3h1.3v3h2.9v1.2h-2.8v6.1c0,1.1,0.5,1.5,1.4,1.5h1.5v1.2h-1.8c-1.2,0.2-2.3-0.7-2.5-1.9
			C302.7,296.2,302.7,296,302.7,295.8z"/>
		<path d="M20.8,317.7v-0.1c0-1.6,1.2-3,3.7-3h2.9v-0.8c0.2-1.2-0.7-2.4-1.9-2.5c-0.1,0-0.3,0-0.4,0c-1.2,0-2.2,0.7-2.6,1.8
			l-1.3-0.3c0.6-1.6,2.1-2.7,3.9-2.7c1.8-0.2,3.5,1.2,3.7,3c0,0.2,0,0.4,0,0.6v6.6h-1.2v-1.6c-0.7,1.2-2,1.8-3.4,1.8
			C22.1,320.4,20.8,319.3,20.8,317.7z M27.4,316.3v-0.9h-2.7c-1.6,0-2.5,0.9-2.5,2s0.9,1.9,1.9,1.9c0.1,0,0.2,0,0.2,0
			c1.6,0.1,3-1.2,3-2.8C27.4,316.4,27.4,316.4,27.4,316.3L27.4,316.3z"/>
		<path d="M31.3,318.1v-11.8h1.4v11.6c0,0.9,0.4,1.2,1,1.2h0.5v1.2h-0.9c-1,0.1-2-0.7-2.1-1.7C31.3,318.4,31.3,318.2,31.3,318.1z"/>
		<path d="M36,306.2h1.4v2.2H36V306.2z M36,310.2h1.4v10H36V310.2z"/>
		<path d="M46.8,318.5c-0.6,1.2-1.8,2-3.2,2c-2.2,0-4.1-1.6-4.1-5V315c0-3.4,2-5,4.1-5c1.4,0,2.7,0.8,3.3,2.1v-1.9h1.3v14h-1.4
			L46.8,318.5z M46.8,315.3v-0.1c0-2.6-1.3-4-3-4s-3,1.4-3,4v0.1c0,2.6,1.3,4,3,4S46.8,317.9,46.8,315.3L46.8,315.3z"/>
		<path d="M58.4,320.2h-1.3v-1.6c-0.6,1.1-1.7,1.8-3,1.8c-2,0-3.4-1.4-3.4-3.7v-6.5H52v6.2c0,1.8,0.9,2.8,2.3,2.8
			c1.5,0,2.7-1.3,2.6-2.8c0-0.1,0-0.1,0-0.2v-6h1.4L58.4,320.2z"/>
		<path d="M61,306.2h1.4v2.2H61V306.2z M61,310.2h1.4v10H61V310.2z"/>
		<path d="M65,310.2h1.3v1.8c0.6-1.3,1.9-2,3.2-2c2.2,0,4.2,1.6,4.2,5v0.4c0,3.4-2,5-4.1,5c-1.4,0-2.6-0.8-3.2-2v5.8H65V310.2z
			 M72.3,315.2v-0.1c0-2.6-1.3-4-3-4s-3,1.4-3,4v0.1c0,2.6,1.3,4,3,4S72.3,317.9,72.3,315.2L72.3,315.2z"/>
		<path d="M83.8,320.5c-2.5,0-4.5-1.9-4.5-5.2v-0.2c0-3.3,2-5.2,4.4-5.2s4.4,1.9,4.4,5.2v0.4h-7.5c0,2.4,1.3,3.8,3.2,3.8
			c1.2,0,2.2-0.7,2.7-1.7l1.3,0.3C87.2,319.5,85.5,320.6,83.8,320.5z M86.7,314.5c-0.1-2.3-1.4-3.5-3-3.5s-2.9,1.2-3,3.5H86.7z"/>
		<path d="M96,320.2l-1.5-2.2c-0.4-0.7-0.9-1.3-1.3-2c-0.4,0.7-0.9,1.4-1.3,2l-1.5,2.2h-1.6l3.6-5.2l-3.3-4.8h1.7l1.5,2.2
			c0.3,0.5,0.7,1,1,1.6c0.3-0.6,0.7-1.1,1-1.6l1.5-2.2h1.6L94,315l3.6,5.2H96z"/>
		<path d="M107.7,320.5c-2.5,0-4.5-1.9-4.5-5.2v-0.2c0-3.3,2-5.2,4.4-5.2s4.4,1.9,4.4,5.2v0.4h-7.5c0,2.4,1.3,3.8,3.2,3.8
			c1.2,0,2.2-0.7,2.7-1.7l1.3,0.3C111.1,319.5,109.5,320.6,107.7,320.5z M110.7,314.5c-0.1-2.3-1.4-3.5-3-3.5s-2.9,1.2-3,3.5H110.7z
			"/>
		<path d="M113.6,317.7v-0.1c0-1.6,1.2-3,3.7-3h2.9v-0.8c0.2-1.2-0.7-2.4-2-2.5c-0.1,0-0.3,0-0.4,0c-1.2,0-2.2,0.7-2.6,1.8l-1.3-0.3
			c0.6-1.7,2.2-2.8,4-2.7c1.8-0.2,3.5,1.2,3.7,3c0,0.2,0,0.4,0,0.6v6.6h-1.3v-1.6c-0.7,1.2-2,1.8-3.4,1.8
			C114.9,320.4,113.6,319.3,113.6,317.7z M120.1,316.3v-0.9h-2.7c-1.6,0-2.5,0.9-2.5,2s0.9,1.9,1.9,1.9c0.1,0,0.2,0,0.2,0
			c1.6,0.1,3-1.2,3-2.8C120.1,316.4,120.1,316.4,120.1,316.3L120.1,316.3z"/>
		<path d="M127.7,315.3v-0.2c0-3.3,2-5.1,4.3-5.1c1.8,0,3.4,1.2,3.9,3l-1.3,0.3c-0.3-1.2-1.4-2-2.6-2c-1.6,0-2.9,1.4-2.9,4v0.1
			c0,2.6,1.3,4,2.9,4c1.2,0,2.3-0.8,2.6-2l1.3,0.3c-0.5,1.8-2.1,3-3.9,3C129.7,320.4,127.7,318.6,127.7,315.3z"/>
		<path d="M137.1,315.3v-0.2c0-3.3,2-5.2,4.4-5.2s4.4,1.9,4.4,5.2v0.2c0,3.3-2,5.2-4.4,5.2S137.1,318.7,137.1,315.3z M144.6,315.3
			v-0.1c0-2.6-1.3-4-3-4s-3,1.4-3,4v0.1c0,2.6,1.3,4,3,4C143.2,319.3,144.6,317.9,144.6,315.3z"/>
		<path d="M148.1,310.2h1.3v1.6c0.5-1.1,1.7-1.8,2.9-1.8c1.3,0,2.4,0.8,2.8,2c0.5-1.2,1.7-2,3-2c1.9,0,3.3,1.4,3.3,3.7v6.5H160V314
			c0-1.7-0.9-2.8-2.1-2.8c-1.4,0-2.4,1.3-2.4,3v6H154V314c0-1.7-0.8-2.8-2.1-2.8s-2.4,1.3-2.4,3v6h-1.4V310.2z"/>
		<path d="M163.8,310.2h1.3v1.6c0.5-1.1,1.7-1.8,2.9-1.8c1.3,0,2.4,0.8,2.8,2c0.5-1.2,1.7-2,3-2c1.9,0,3.3,1.4,3.3,3.7v6.5h-1.4V314
			c0-1.7-0.9-2.8-2.1-2.8c-1.4,0-2.4,1.3-2.4,3v6h-1.4V314c0-1.7-0.8-2.8-2.1-2.8s-2.4,1.3-2.4,3v6h-1.4L163.8,310.2z"/>
		<path d="M179,315.3v-0.2c0-3.3,2-5.2,4.4-5.2s4.4,1.9,4.4,5.2v0.2c0,3.3-2,5.2-4.4,5.2S179,318.7,179,315.3z M186.4,315.3v-0.1
			c0-2.6-1.3-4-3-4s-3,1.4-3,4v0.1c0,2.6,1.3,4,3,4S186.4,317.9,186.4,315.3L186.4,315.3z"/>
		<path d="M189.4,315.4V315c0-3.4,1.9-5,4.1-5c1.4,0,2.6,0.8,3.2,2v-5.8h1.4v14h-1.3v-1.8c-0.6,1.3-1.9,2-3.2,2
			C191.3,320.4,189.4,318.8,189.4,315.4z M196.7,315.3v-0.1c0-2.6-1.3-4-2.9-4s-3,1.4-3,4v0.1c0,2.6,1.3,4,3,4
			S196.7,317.9,196.7,315.3L196.7,315.3z"/>
		<path d="M200.1,315.3v-0.2c0-3.3,2-5.2,4.4-5.2s4.4,1.9,4.4,5.2v0.2c0,3.3-2,5.2-4.4,5.2S200.1,318.7,200.1,315.3z M207.5,315.3
			v-0.1c0-2.6-1.3-4-3-4s-3,1.4-3,4v0.1c0,2.6,1.3,4,3,4S207.5,317.9,207.5,315.3z"/>
		<path d="M214.5,315.3v-0.2c0-3.3,2-5.1,4.3-5.1c1.8,0,3.4,1.2,3.9,3l-1.3,0.3c-0.3-1.2-1.4-2-2.6-2c-1.6,0-2.9,1.4-2.9,4v0.1
			c0,2.6,1.3,4,2.9,4c1.2,0,2.3-0.8,2.6-2l1.3,0.3c-0.5,1.8-2.1,3-3.9,3C216.5,320.4,214.5,318.6,214.5,315.3z"/>
		<path d="M223.9,315.3v-0.2c0-3.3,2-5.2,4.4-5.2s4.4,1.9,4.4,5.2v0.2c0,3.3-2,5.2-4.4,5.2S223.9,318.7,223.9,315.3z M231.4,315.3
			v-0.1c0-2.6-1.3-4-3-4s-3,1.4-3,4v0.1c0,2.6,1.3,4,3,4S231.4,317.9,231.4,315.3z"/>
		<path d="M234.9,310.2h1.3v1.6c0.6-1.1,1.7-1.8,3-1.8c2,0,3.4,1.4,3.4,3.7v6.5h-1.4V314c0-1.8-0.9-2.8-2.3-2.8
			c-1.5,0-2.7,1.3-2.6,2.8c0,0.1,0,0.1,0,0.2v6h-1.4V310.2z"/>
		<path d="M244.2,317.9l1.2-0.5c0.4,1.2,1.6,2,2.9,1.9c1.4,0,2.4-0.6,2.4-1.8s-0.9-1.5-2.1-1.7l-1.3-0.2c-1.6-0.3-2.8-1-2.8-2.6
			s1.3-2.9,3.6-2.9c1.6-0.1,3.1,0.8,3.9,2.2l-1.2,0.5c-0.5-1-1.5-1.6-2.6-1.6c-1.3,0-2.2,0.7-2.2,1.7s0.8,1.4,1.8,1.6l1.3,0.2
			c1.9,0.4,3.1,1.1,3.1,2.7s-1.4,3-3.7,3C246.6,320.5,244.9,319.5,244.2,317.9z"/>
		<path d="M257.9,320.5c-2.5,0-4.5-1.9-4.5-5.2v-0.2c0-3.3,2-5.2,4.4-5.2s4.4,1.9,4.4,5.2v0.4h-7.5c0,2.4,1.3,3.8,3.2,3.8
			c1.2,0,2.2-0.7,2.7-1.7l1.3,0.3C261.3,319.5,259.7,320.6,257.9,320.5z M260.8,314.5c-0.1-2.3-1.5-3.5-3-3.5c-1.6,0-2.9,1.2-3,3.5
			H260.8z"/>
		<path d="M271,318.5c-0.6,1.2-1.8,2-3.2,2c-2.2,0-4.1-1.6-4.1-5V315c0-3.4,1.9-5,4.1-5c1.4,0,2.7,0.8,3.3,2.1v-1.9h1.3v14H271
			V318.5z M271,315.3v-0.1c0-2.6-1.3-4-3-4c-1.6,0-3,1.4-3,4v0.1c0,2.6,1.3,4,3,4S271.1,317.9,271,315.3L271,315.3z"/>
		<path d="M282.6,320.2h-1.3v-1.6c-0.6,1.1-1.7,1.8-3,1.8c-2,0-3.4-1.4-3.4-3.7v-6.5h1.4v6.2c0,1.8,0.9,2.8,2.3,2.8
			c1.5,0,2.7-1.3,2.6-2.8c0-0.1,0-0.1,0-0.2v-6h1.4V320.2z"/>
		<path d="M284.8,317.7v-0.1c0-1.6,1.2-3,3.7-3h2.9v-0.8c0.2-1.2-0.7-2.4-2-2.5c-0.1,0-0.3,0-0.4,0c-1.2,0-2.2,0.7-2.6,1.8l-1.3-0.3
			c0.6-1.7,2.2-2.8,3.9-2.7c1.8-0.2,3.5,1.2,3.7,3c0,0.2,0,0.4,0,0.6v6.6h-1.3v-1.6c-0.7,1.2-2,1.8-3.4,1.8
			C286.1,320.4,284.8,319.3,284.8,317.7z M291.3,316.3v-0.9h-2.7c-1.6,0-2.5,0.9-2.5,2s0.9,1.9,1.9,1.9c0.1,0,0.2,0,0.2,0
			c1.6,0.1,3-1.2,3-2.8C291.4,316.4,291.4,316.4,291.3,316.3L291.3,316.3z"/>
		<path d="M295.9,317.8v-6.4h-1.7v-1.2h1.7v-3h1.3v3h2.9v1.2h-2.8v6.1c0,1.1,0.5,1.5,1.4,1.5h1.5v1.2h-1.8c-1.2,0.1-2.3-0.7-2.4-1.9
			C295.8,318.1,295.8,318,295.9,317.8z"/>
		<path d="M301.9,317.8h1.4v2.4h-1.4V317.8z"/>
	</g>
</g>
</svg>
