<?xml version="1.0" encoding="utf-8"?>
<!-- Generator: Adobe Illustrator 21.0.2, SVG Export Plug-In . SVG Version: 6.00 Build 0)  -->
<svg version="1.1" id="Lager_1" xmlns="http://www.w3.org/2000/svg" xmlns:xlink="http://www.w3.org/1999/xlink" x="0px" y="0px"
	 viewBox="0 0 800.6 822.4" style="enable-background:new 0 0 800.6 822.4;" xml:space="preserve">
<style type="text/css">
	.st0{fill:#1D1D1B;}
</style>
<title>overview</title>
<g id="Lager_2">
	<g id="Lager_1-2">
		<path class="st0" d="M19.4,20.8h-8.5L8.9,27H6.7l7.2-21h2.8l7.2,21h-2.4L19.4,20.8z M18.7,18.9l-2.5-7.7c-0.3-1-0.7-2-1-3.4
			c-0.3,1.4-0.7,2.4-1,3.4l-2.6,7.7H18.7z"/>
		<path class="st0" d="M53.1,20.8h-8.5l-2,6.1h-2.3l7.2-21h2.8l7.2,21h-2.4L53.1,20.8z M52.5,18.9l-2.5-7.6c-0.3-1-0.7-2-1-3.4
			c-0.3,1.4-0.7,2.4-1,3.4l-2.6,7.7L52.5,18.9z M49.2,4.5h-1.8L49.9,0h2.2L49.2,4.5z"/>
		<path class="st0" d="M86.9,20.8h-8.5l-2,6.1h-2.3l7.2-21h2.8l7.2,21h-2.4L86.9,20.8z M78.1,0.9l1.6-0.5c0.3,1.4,1.6,2.4,3,2.4
			c1.4,0,2.7-1,3-2.4l1.6,0.5c-0.6,2.1-2.5,3.5-4.6,3.5C80.6,4.4,78.7,3,78.1,0.9z M86.2,18.9l-2.6-7.7c-0.3-1-0.7-2-1-3.4
			c-0.3,1.4-0.7,2.4-1,3.4l-2.5,7.6L86.2,18.9z"/>
		<path class="st0" d="M120.6,20.8h-8.4l-2,6.1h-2.3l7.2-21h2.8l7.1,21h-2.4L120.6,20.8z M113.6,4.5h-1.8l3.4-4.5h2.4l3.4,4.5h-1.8
			l-2.9-3.4L113.6,4.5z M120,18.9l-2.6-7.7c-0.3-1-0.7-2-1-3.4c-0.3,1.4-0.7,2.4-1,3.4l-2.6,7.7H120z"/>
		<path class="st0" d="M154.4,20.8h-8.4l-2,6.1h-2.2l7.2-21h2.8l7.2,21h-2.4L154.4,20.8z M153.7,18.9l-2.6-7.7c-0.3-1-0.7-2-1-3.4
			c-0.3,1.4-0.7,2.4-1,3.4l-2.5,7.7L153.7,18.9z M148.7,3.3h-2.1V0h2.1V3.3z M153.8,3.3h-2.1V0h2.1V3.3z"/>
		<path class="st0" d="M188.1,20.8h-8.4l-2,6.1h-2.3l7.2-21h2.8l7.2,21h-2.4L188.1,20.8z M187.4,18.9l-2.6-7.7c-0.3-1-0.7-2-1-3.4
			c-0.3,1.4-0.7,2.4-1,3.4l-2.6,7.7H187.4z M183.7,4.5L180.8,0h2.2l2.5,4.5H183.7z"/>
		<path class="st0" d="M226.9,31.5V33H225c-1.8,0-3.2-0.8-3.2-2.6c0-1.2,0.6-2.4,2.2-3.4h-0.1l-2-6.1h-8.4l-2,6.1h-2.2l7.2-21h2.8
			l7.2,21c-1.2,0.5-2.7,1.6-2.7,3c0,1.1,0.8,1.5,1.9,1.5L226.9,31.5z M221.2,18.9l-2.6-7.7c-0.3-1-0.7-2-1-3.4
			c-0.3,1.4-0.7,2.4-1,3.4l-2.6,7.7H221.2z"/>
		<path class="st0" d="M255.6,20.8h-8.4l-2,6.1h-2.3l7.2-21h2.8l7.1,21h-2.4L255.6,20.8z M248.1,3.7l-1.3-0.3
			c-0.1-1.4,1-2.6,2.4-2.7c0,0,0,0,0.1,0c1.7,0,2.6,1.6,3.9,1.6c0.8,0,1.2-0.5,1.4-1.4l1.4,0.3c0.1,1.4-1.1,2.6-2.5,2.7c0,0,0,0,0,0
			c-1.7,0-2.7-1.6-4-1.6C248.7,2.3,248.3,2.8,248.1,3.7z M254.9,18.9l-2.6-7.7c-0.3-1-0.7-2-1-3.4c-0.3,1.4-0.7,2.4-1,3.4l-2.6,7.7
			H254.9z"/>
		<path class="st0" d="M300.1,24.9V27h-9.4l-1.8-6.1h-8l-2,6.1h-2.2l7.2-21H296v2.1h-8.6l2.1,7.1h7.4v2h-6.8l2.3,7.7H300.1z
			 M288.3,18.9l-2.2-7.7c-0.3-1-0.6-2-1-3.4c-0.3,1.4-0.7,2.4-1,3.4l-2.5,7.7H288.3z"/>
		<path class="st0" d="M332.3,21v0.2c0,3.7-3,5.8-6.6,5.8h-7V6h6.6c3.5,0,6.3,2,6.3,5.5v0.2c0,1.9-1.1,3.7-2.9,4.4
			C330.9,16.7,332.4,18.7,332.3,21z M320.9,7.9v7.3h4.3c2.4,0,4.2-1.3,4.2-3.7S327.6,8,325.2,8L320.9,7.9z M330.1,21.1
			c0-2.6-1.9-4-4.5-4h-4.7V25h4.7C328.2,25,330.1,23.6,330.1,21.1L330.1,21.1z"/>
		<path class="st0" d="M349.2,16.7v-0.5c0-6.8,3.7-10.6,8.3-10.6c3.2,0,6.1,2.1,7.1,5.1l-2.1,0.6c-0.7-2.2-2.7-3.6-5-3.6
			c-3.4,0-6,3-6,8.6v0.3c0,5.6,2.6,8.6,6,8.6c2.3,0,4.3-1.5,5-3.6l2.1,0.6c-1,3.1-3.8,5.1-7.1,5.1C352.9,27.3,349.2,23.5,349.2,16.7
			z"/>
		<path class="st0" d="M380.7,16.7v-0.5c0-6.8,3.7-10.6,8.3-10.6c3.2,0,6.1,2.1,7.1,5.1l-2.1,0.6c-0.7-2.2-2.7-3.6-5-3.6
			c-3.4,0-6,3-6,8.6v0.3c0,5.6,2.6,8.5,6,8.5c2.3,0,4.3-1.5,5-3.6l2.1,0.6c-1,3.1-3.8,5.1-7.1,5.1C384.4,27.3,380.7,23.5,380.7,16.7
			z M392.1,0l-2.9,4.5h-1.8l2.5-4.5H392.1z"/>
		<path class="st0" d="M425.4,21.5l2.1,0.6c-1,3.1-3.8,5.1-7.1,5.1c-4.6,0-8.3-3.8-8.3-10.6v-0.5c0-6.8,3.7-10.6,8.3-10.6
			c3.2,0,6.1,2.1,7.1,5.1l-2.1,0.6c-0.7-2.2-2.7-3.6-5-3.6c-3.4,0-6,3-6,8.6v0.3c0,5.6,2.6,8.5,6,8.5
			C422.7,25.2,424.7,23.7,425.4,21.5z M419.2,4.5L415.8,0h1.8l2.9,3.4l2.9-3.4h1.8l-3.5,4.5L419.2,4.5z"/>
		<path class="st0" d="M456.9,21.5l2.1,0.6c-0.9,2.8-3.3,4.8-6.2,5.1l-1.5,1.3h0.8c1.5,0,2.7,0.7,2.7,2.1c0,1.5-1.3,2.3-3.7,2.3
			h-2.3v-1.1h2c1.4,0,2-0.4,2-1.2s-0.6-1.2-1.7-1.2h-1.4v-0.7l1.8-1.4c-4.4-0.2-7.9-4-7.9-10.6v-0.5c0-6.8,3.7-10.6,8.3-10.6
			c3.2,0,6.1,2,7.1,5.1l-2.1,0.6c-0.7-2.2-2.7-3.6-5-3.6c-3.4,0-6,3-6,8.6v0.3c0,5.6,2.6,8.5,6,8.5
			C454.2,25.2,456.2,23.7,456.9,21.5z"/>
		<path class="st0" d="M492.2,16.3v0.5c0,6.9-3.8,10.3-9.2,10.3h-6V6h6C488.4,6,492.2,9.4,492.2,16.3z M489.9,16.3
			c0-5.7-2.7-8.3-7-8.3h-3.8v16.8h3.8c4.3,0,7-2.5,7-8.2V16.3z"/>
		<path class="st0" d="M525.9,16.3v0.5c0,6.9-3.8,10.3-9.2,10.3h-6V16.9h-1.8v-1.7h1.8V6h6C522.2,6,525.9,9.4,525.9,16.3z
			 M523.7,16.3c0-5.7-2.7-8.3-7-8.3h-3.8v7.1h4.8v1.7h-4.8v8h3.8c4.3,0,7-2.5,7-8.2V16.3z"/>
		<path class="st0" d="M559.7,16.3v0.5c0,6.9-3.8,10.3-9.2,10.3h-6V6h6C555.9,6,559.7,9.4,559.7,16.3z M549.7,4.5L546.3,0h1.8
			l2.9,3.4l2.8-3.4h1.8l-3.5,4.5H549.7z M557.4,16.3c0-5.7-2.7-8.3-7-8.3h-3.8v16.8h3.8c4.3,0,7-2.5,7-8.2V16.3z"/>
		<path class="st0" d="M593.4,16.3v0.5c0,6.9-3.8,10.3-9.2,10.3h-6V16.9h-1.8v-1.7h1.8V6h6C589.7,6,593.4,9.4,593.4,16.3z
			 M591.2,16.3c0-5.7-2.7-8.3-7-8.3h-3.8v7.1h4.8v1.7h-4.8v8h3.8c4.3,0,7-2.5,7-8.2V16.3z"/>
		<path class="st0" d="M614.2,8.1v7.1h7.8v2h-7.9v7.7h9.4V27h-11.6V6h11.6v2.1H614.2z"/>
		<path class="st0" d="M644.2,8.1v7.1h7.8v2h-7.9v7.7h9.4V27h-11.6V6h11.6v2.1H644.2z M648.3,4.5h-1.8l2.5-4.5h2.2L648.3,4.5z"/>
		<path class="st0" d="M674.2,8.1v7.1h7.8v2h-7.9v7.7h9.4V27h-11.6V6h11.6v2.1H674.2z M676.8,4.5L673.3,0h1.8l2.9,3.4l2.9-3.4h1.8
			l-3.5,4.5L676.8,4.5z"/>
		<path class="st0" d="M704.2,8.1v7.1h7.8v2h-7.9v7.7h9.4V27h-11.6V6h11.6v2.1H704.2z M705.1,4.5h-1.8l3.5-4.5h2.4l3.5,4.5h-1.8
			L708,1.1L705.1,4.5z"/>
		<path class="st0" d="M734.2,8.1v7.1h7.8v2h-7.9v7.7h9.4V27h-11.6V6h11.6v2.1H734.2z M736.5,3.3h-2.1V0h2.1V3.3z M741.6,3.3h-2.1V0
			h2.1V3.3z"/>
		<path class="st0" d="M764.2,8.1v7.1h7.8v2h-7.9v7.7h9.4V27h-11.6V6h11.6v2.1H764.2z M769,3.3h-2.1V0h2.1V3.3z"/>
		<path class="st0" d="M10.7,44v7.1h7.9v2h-7.9v7.7h9.4v2.1H8.5v-21h11.6V44H10.7z M14.3,40.4l-2.9-4.5h2.2l2.5,4.5H14.3z"/>
		<path class="st0" d="M40.7,44v7.1h7.9v2h-7.9v7.7h9.4v2.1H38.5v-21h11.6V44H40.7z M48.6,38.9h-8.1v-1.5h8.1L48.6,38.9z"/>
		<path class="st0" d="M80.7,67.4v1.4h-1.9c-1.8,0-3.2-0.8-3.2-2.6c0-1.2,0.7-2.3,2.2-3.4h-9.3v-21h11.6V44h-9.4v7.1h7.9v2h-7.9v7.7
			h9.4v2.1c-1.2,0.5-2.7,1.6-2.7,3c0,1.2,0.8,1.5,1.9,1.5L80.7,67.4z"/>
		<path class="st0" d="M100.7,44v7.3h7.9v2.1h-7.9v9.5h-2.2v-21h11.6V44H100.7z"/>
		<path class="st0" d="M126.7,52.6v-0.5c0-6.8,3.8-10.6,8.8-10.6c3.1-0.1,5.9,1.7,7.1,4.5l-2.2,0.6c-0.9-1.9-2.9-3.1-4.9-3
			c-3.7,0-6.5,3-6.5,8.5v0.3c0,5.7,2.8,8.5,6.4,8.5c3.3,0,5.5-2.3,5.5-5.8v-1.7h-6v-1.8h8.1v11.1h-2v-3.1c-1.1,2.2-3.4,3.5-5.9,3.4
			C130.6,63.2,126.7,59.5,126.7,52.6z"/>
		<path class="st0" d="M176.7,51.7v11.1h-1.9v-3.1c-1.1,2.2-3.4,3.5-5.9,3.4c-4.6,0-8.4-3.7-8.4-10.6v-0.5c0-6.8,3.8-10.6,8.8-10.6
			c3.1-0.1,5.9,1.7,7.1,4.5l-2.2,0.6c-0.9-1.9-2.9-3.1-4.9-3c-3.7,0-6.5,3-6.5,8.5v0.3c0,5.7,2.8,8.5,6.4,8.5c3.3,0,5.5-2.3,5.5-5.8
			v-1.7h-6v-1.8H176.7z M167.9,65.1h2.1v3.2c0,1.5-0.9,2-2.6,2v-0.9c0.8,0,1.2-0.3,1.2-1v-0.6h-0.7L167.9,65.1z"/>
		<path class="st0" d="M209.5,41.9v21h-2.2v-9.8h-9v9.8H196v-21h2.2V51h9v-9.1H209.5z"/>
		<path class="st0" d="M229.7,41.9h2.3v21h-2.2L229.7,41.9z"/>
		<path class="st0" d="M256.5,35.9l-2.9,4.5h-1.8l2.5-4.5H256.5z M252.2,41.9h2.2v21h-2.2V41.9z"/>
		<path class="st0" d="M280.5,40.4h-1.8l-2.9-3.4l-2.8,3.4h-1.8l3.5-4.5h2.3L280.5,40.4z M274.7,41.9h2.3v21h-2.2L274.7,41.9z"/>
		<path class="st0" d="M294.7,35.9h2.1v3.3h-2.1V35.9z M297.2,41.9h2.2v21h-2.2V41.9z M299.8,35.9h2.1v3.3h-2.1V35.9z"/>
		<path class="st0" d="M317.6,35.9h2.2l2.5,4.5h-1.8L317.6,35.9z M319.7,41.9h2.3v21h-2.2L319.7,41.9z"/>
		<path class="st0" d="M347.4,38.9h-8.1v-1.5h8.1V38.9z M342.2,41.9h2.2v21h-2.2V41.9z"/>
		<path class="st0" d="M367.6,67.4v1.4h-2c-1.8,0-3.2-0.8-3.2-2.6c0-1.2,0.6-2.4,2.3-3.5v-21h2.3v21c-1.2,0.5-2.7,1.6-2.7,3
			c0,1.2,0.8,1.5,1.9,1.5L367.6,67.4z"/>
		<path class="st0" d="M384.9,58.7l2.1-0.6c0.7,2.1,2.1,3,3.7,3c1.8,0,3.6-1,3.6-4.6V41.9h2.2v14.8c0,4.8-2.8,6.5-5.8,6.5
			C388,63.2,385.5,61.4,384.9,58.7z"/>
		<path class="st0" d="M416.8,41.9h2.2V52c0.5-0.8,1.1-1.6,1.6-2.3l6.1-7.8h2.5l-6.9,8.8l9,12.2h-2.7l-7.8-10.5l-1.8,2.2v8.3h-2.2
			L416.8,41.9z"/>
		<path class="st0" d="M464.3,62.9h-2.7l-7.8-10.5l-1.8,2.2v8.3h-2.2v-21h2.2V52c0.5-0.8,1.1-1.6,1.6-2.3l6.1-7.8h2.5l-6.9,8.8
			L464.3,62.9z M455.8,65.1h2.1v3.2c0,1.5-0.9,2-2.6,2v-0.9c0.8,0,1.2-0.3,1.2-1v-0.6h-0.7V65.1z"/>
		<path class="st0" d="M493.2,60.8v2.1h-10.4v-21h2.2v18.9H493.2z"/>
		<path class="st0" d="M512.7,40.4h-1.8l2.5-4.5h2.2L512.7,40.4z M521.7,60.8v2.1h-10.4v-21h2.3v18.9H521.7z"/>
		<path class="st0" d="M550.2,60.8v2.1h-10.4v-21h2.2v18.9H550.2z M545.6,47.1h-1.5l1.5-5.2h2L545.6,47.1z"/>
		<path class="st0" d="M578.7,60.8v2.1h-10.4v-21h2.2v18.9H578.7z M572.4,65.1h2.1v3.2c0,1.5-0.9,2-2.6,2v-0.9c0.8,0,1.2-0.3,1.2-1
			v-0.6h-0.7L572.4,65.1z"/>
		<path class="st0" d="M607.2,60.8v2.1h-10.4V57l-1.8,1.3v-1.7l1.7-1.3V41.9h2.3v11.9l5.2-3.8v1.6l-5.2,3.8v5.4L607.2,60.8z"/>
		<path class="st0" d="M643.3,62.9H641V45.4c-0.5,1-1.3,2.3-2.2,3.7l-4.6,7.7l-4.7-7.7c-0.9-1.4-1.6-2.7-2.2-3.8v17.5h-2.1v-21h2.4
			l6.6,10.9l6.6-10.9h2.4L643.3,62.9z"/>
		<path class="st0" d="M679.3,41.9v21h-2.4l-11.2-17.4v17.4h-2.1v-21h2.4l11.2,17.4V41.9H679.3z"/>
		<path class="st0" d="M715.3,41.9v21h-2.4l-11.2-17.4v17.4h-2.1v-21h2.4l11.2,17.4V41.9H715.3z M707.8,40.4H706l2.5-4.5h2.2
			L707.8,40.4z"/>
		<path class="st0" d="M751.3,41.9v21h-2.4l-11.2-17.4v17.4h-2.1v-21h2.4l11.2,17.4V41.9H751.3z M742.3,40.4l-3.5-4.5h1.8l2.9,3.4
			l2.8-3.4h1.8l-3.5,4.5H742.3z"/>
		<path class="st0" d="M787.3,41.9v21h-2.4l-11.2-17.4v17.4h-2.1v-21h2.4l11.2,17.4V41.9H787.3z M778.2,65.1h2.1v3.2
			c0,1.5-0.9,2-2.6,2v-0.9c0.8,0,1.2-0.3,1.2-1v-0.6h-0.7L778.2,65.1z"/>
		<path class="st0" d="M24.2,77.8v22.6c0,2-1.1,2.9-2.7,2.9h-1.2v-1.8h0.6c0.8,0,1.2-0.3,1.2-1.4v-1.2L10.6,81.3v17.5H8.5v-21h2.4
			l11.2,17v-17L24.2,77.8z"/>
		<path class="st0" d="M60.2,77.8v21h-2.4L46.6,81.4v17.4h-2.1v-21h2.4l11.2,17.4V77.8H60.2z M49.2,75.4L48,75.1
			c-0.1-1.4,1-2.6,2.4-2.7c0,0,0,0,0.1,0c1.7,0,2.5,1.6,3.9,1.6c0.8,0,1.2-0.5,1.3-1.4l1.4,0.3c0.1,1.4-1.1,2.6-2.5,2.7c0,0,0,0,0,0
			c-1.7,0-2.7-1.6-4-1.6C49.8,74,49.3,74.6,49.2,75.4L49.2,75.4z"/>
		<path class="st0" d="M78.7,88.5V88c0-6.9,3.8-10.7,8.5-10.7s8.5,3.8,8.5,10.7v0.4c0,6.9-3.8,10.7-8.5,10.7S78.7,95.4,78.7,88.5z
			 M93.5,88.4v-0.3c0-5.7-2.7-8.7-6.2-8.7s-6.2,3-6.2,8.7v0.3c0,5.7,2.7,8.7,6.2,8.7S93.5,94.1,93.5,88.4z"/>
		<path class="st0" d="M112.5,88.5V88c0-6.9,3.8-10.7,8.5-10.7s8.5,3.8,8.5,10.7v0.4c0,6.9-3.8,10.7-8.5,10.7S112.5,95.4,112.5,88.5
			z M127.2,88.4v-0.3c0-5.7-2.7-8.7-6.2-8.7s-6.2,3-6.2,8.7v0.3c0,5.7,2.7,8.7,6.2,8.7S127.2,94.1,127.2,88.4z M124.2,71.8l-2.9,4.5
			h-1.8l2.5-4.5H124.2z"/>
		<path class="st0" d="M163.2,88v0.4c0,6.9-3.8,10.7-8.5,10.7s-8.5-3.8-8.5-10.7V88c0-6.9,3.8-10.7,8.5-10.7S163.2,81.1,163.2,88z
			 M161,88.1c0-5.7-2.7-8.7-6.2-8.7s-6.2,3-6.2,8.7v0.3c0,5.7,2.7,8.7,6.2,8.7s6.2-3,6.2-8.7V88.1z M151.9,76.2h-1.8l3.4-4.5h2.4
			l3.4,4.5h-1.8l-2.9-3.4L151.9,76.2z"/>
		<path class="st0" d="M180,88.5V88c0-6.9,3.8-10.7,8.5-10.7S197,81.1,197,88v0.4c0,6.9-3.8,10.7-8.5,10.7S180,95.4,180,88.5z
			 M194.8,88.4v-0.3c0-5.7-2.7-8.7-6.2-8.7s-6.2,3-6.2,8.7v0.3c0,5.7,2.7,8.7,6.2,8.7S194.7,94.1,194.8,88.4L194.8,88.4z
			 M184.9,71.8h2.1v3.3h-2.1V71.8z M190,71.8h2.1v3.3H190V71.8z"/>
		<path class="st0" d="M213.7,88.5V88c0-6.9,3.8-10.7,8.5-10.7s8.5,3.8,8.5,10.7v0.4c0,6.9-3.8,10.7-8.5,10.7S213.7,95.4,213.7,88.5
			z M228.5,88.4v-0.3c0-5.7-2.7-8.7-6.2-8.7s-6.2,3-6.2,8.7v0.3c0,5.7,2.7,8.7,6.2,8.7S228.5,94.1,228.5,88.4z M219,71.8h2.2
			l2.5,4.5h-1.8L219,71.8z"/>
		<path class="st0" d="M247.5,88.5V88c0-6.9,3.8-10.7,8.5-10.7s8.5,3.8,8.5,10.7v0.4c0,6.9-3.8,10.7-8.5,10.7S247.5,95.4,247.5,88.5
			z M262.2,88.4v-0.3c0-5.7-2.7-8.7-6.2-8.7s-6.2,3-6.2,8.7v0.3c0,5.7,2.7,8.7,6.2,8.7S262.2,94.1,262.2,88.4z M256.1,71.8l-2.5,4.5
			h-1.5l2-4.5H256.1z M261.2,71.8l-2.5,4.5h-1.5l2-4.5H261.2z"/>
		<path class="st0" d="M281.2,88.5V88c0-6.9,3.8-10.7,8.5-10.7s8.5,3.8,8.5,10.7v0.4c0,6.9-3.8,10.7-8.5,10.7S281.2,95.4,281.2,88.5
			z M296,88.4v-0.3c0-5.7-2.7-8.7-6.2-8.7s-6.2,3-6.2,8.7v0.3c0,5.7,2.7,8.7,6.2,8.7S296,94.1,296,88.4z M293.8,74.8h-8.1v-1.5h8.1
			V74.8z"/>
		<path class="st0" d="M332,88v0.4c0,6.9-3.8,10.7-8.5,10.7c-1.8,0-3.5-0.6-5-1.7l-0.8,1.2H316l1.5-2.3c-1.7-2.3-2.6-5-2.5-7.9V88
			c0-6.9,3.8-10.7,8.5-10.7c1.8,0,3.5,0.6,5,1.7l0.8-1.2h1.8l-1.5,2.3C331.3,82.3,332.1,85.2,332,88z M318.7,94.4l8.5-13.5
			c-1-1-2.4-1.5-3.8-1.5c-3.5,0-6.2,3-6.2,8.7v0.3C317.1,90.5,317.6,92.6,318.7,94.4L318.7,94.4z M329.7,88.1c0.1-2.1-0.4-4.2-1.5-6
			l-8.5,13.5c1,1,2.4,1.5,3.8,1.5c3.5,0,6.2-3,6.2-8.7V88.1z"/>
		<path class="st0" d="M348.7,88.5V88c0-6.9,3.8-10.7,8.5-10.7s8.5,3.8,8.5,10.7v0.4c0,6.9-3.8,10.7-8.5,10.7S348.7,95.4,348.7,88.5
			z M363.5,88.4v-0.3c0-5.7-2.7-8.7-6.2-8.7s-6.2,3-6.2,8.7v0.3c0,5.7,2.7,8.7,6.2,8.7S363.5,94.1,363.5,88.4z M355.2,74
			c-0.8,0-1.2,0.5-1.4,1.4l-1.3-0.3c-0.1-1.4,1-2.6,2.4-2.7c0,0,0,0,0.1,0c1.7,0,2.6,1.6,4,1.6c0.8,0,1.2-0.5,1.4-1.4l1.4,0.3
			c0.1,1.4-1.1,2.6-2.5,2.7c0,0,0,0,0,0C357.5,75.6,356.5,74,355.2,74z"/>
		<path class="st0" d="M397,79.9V87h7.1v1.9H397v7.7h8.6v2.1h-13.9c-5.5,0-9.2-3.4-9.2-10.3V88c0-6.9,3.8-10.3,9.2-10.3h13.9v2.1
			L397,79.9z M394.8,96.7V79.9h-3c-4.3,0-7,2.6-7,8.2v0.3c0,5.7,2.7,8.2,7,8.2L394.8,96.7z"/>
		<path class="st0" d="M436.9,83.5v0.2c0,3.7-2.6,5.8-6.4,5.8h-4.3v9.2H424v-21h6.5C434.3,77.8,436.9,79.8,436.9,83.5z M434.7,83.6
			c0-2.6-1.7-3.9-4.2-3.9h-4.2v7.9h4.2C433,87.6,434.7,86.2,434.7,83.6z"/>
		<path class="st0" d="M468.4,87.9V88c0,3.7-2.6,5.8-6.4,5.8h-4.3v4.9h-2.2v-21h2.2V82h4.3C465.8,82.1,468.4,84.1,468.4,87.9z
			 M466.2,88c0-2.6-1.7-3.9-4.2-3.9h-4.2v7.8h4.2C464.5,91.9,466.2,90.5,466.2,88L466.2,88z"/>
		<path class="st0" d="M502.2,88.5c0.2,2.9-0.8,5.8-2.6,8.1l2.5,3.7h-2.5l-1.6-2.3c-1.3,0.9-2.8,1.3-4.4,1.3
			c-4.8,0-8.5-3.8-8.5-10.7V88c0-6.9,3.8-10.7,8.5-10.7s8.5,3.8,8.5,10.7L502.2,88.5z M500,88.1c0-5.7-2.7-8.7-6.2-8.7
			s-6.2,3-6.2,8.7v0.3c0,5.7,2.7,8.7,6.2,8.7c1.1,0,2.2-0.3,3.1-1l-4.4-6.4h2.4l3.4,4.9c1.2-1.9,1.8-4.1,1.6-6.3L500,88.1z"/>
		<path class="st0" d="M525,88.9h-2v9.9h-2.2v-21h7.1c3.4,0,6,2,6,5.5v0.2c0,3.5-2.6,5.4-6,5.4h-0.1l7.6,9.9h-2.7L525,88.9z
			 M523,87.1h4.7c1.9,0.2,3.7-1.2,3.9-3.2c0-0.2,0-0.4,0-0.5c0-2.3-1.6-3.7-3.9-3.7H523V87.1z"/>
		<path class="st0" d="M558,88.9h-2v9.9h-2.2v-21h7.1c3.4,0,6,2,6,5.5v0.2c0,3.5-2.6,5.4-6,5.4h-0.1l7.6,9.9h-2.7L558,88.9z
			 M556,87.1h4.7c1.9,0.2,3.7-1.2,3.9-3.2c0-0.2,0-0.4,0-0.5c0-2.3-1.6-3.7-3.9-3.7H556V87.1z M560.3,76.3h-1.8l2.5-4.5h2.2
			L560.3,76.3z"/>
		<path class="st0" d="M591,88.9h-2v9.9h-2.2v-21h7.1c3.4,0,6,2,6,5.5v0.2c0,3.5-2.6,5.4-6,5.4h-0.1l7.6,9.9h-2.7L591,88.9z
			 M591.8,76.3l-3.5-4.5h1.8l2.9,3.4l2.8-3.4h1.8l-3.5,4.5H591.8z M589,87.1h4.7c1.9,0.2,3.7-1.2,3.9-3.2c0-0.2,0-0.4,0-0.5
			c0-2.3-1.6-3.7-3.9-3.7H589V87.1z"/>
		<path class="st0" d="M634.3,98.8h-2.7l-7.6-9.9h-2v9.9h-2.2v-21h7.1c3.4,0,6,2,6,5.5v0.2c0,3.5-2.6,5.4-6,5.4h-0.1L634.3,98.8z
			 M622,87.1h4.7c1.9,0.2,3.7-1.2,3.9-3.2c0-0.2,0-0.4,0-0.5c0-2.3-1.6-3.7-3.9-3.7H622V87.1z M625.7,101h2.1v3.2c0,1.5-0.9,2-2.6,2
			v-0.9c0.8,0,1.2-0.3,1.2-1v-0.6h-0.7L625.7,101z"/>
		<path class="st0" d="M650.2,94.6l2-0.8c1,2.1,3.2,3.5,5.6,3.4c3,0,5.2-1.6,5.2-4.2c0-2.4-2-3.4-3.8-3.7l-2.9-0.5
			c-2.9-0.5-5.8-1.8-5.8-5.4v-0.2c0-3.4,3-5.7,6.9-5.7c3.1-0.1,5.9,1.6,7.3,4.3l-2,0.8c-1-2-3.1-3.3-5.4-3.2c-2.6,0-4.7,1.5-4.7,3.9
			s1.8,3.2,4,3.6l2.9,0.5c2.8,0.5,5.5,1.9,5.5,5.3v0.2c0,3.8-3.1,6.2-7.4,6.2C654.6,99.2,651.6,97.5,650.2,94.6z"/>
		<path class="st0" d="M681,94.6l2-0.8c1,2.1,3.2,3.5,5.6,3.4c3,0,5.2-1.6,5.2-4.2c0-2.4-2-3.4-3.8-3.7l-2.9-0.5
			c-2.9-0.5-5.8-1.8-5.8-5.4v-0.2c0-3.4,3-5.7,6.9-5.7c3.1-0.1,5.9,1.6,7.3,4.3l-2,0.8c-1-2-3.1-3.3-5.4-3.2c-2.6,0-4.7,1.5-4.7,3.9
			s1.8,3.2,4,3.6l2.9,0.5c2.8,0.5,5.5,1.9,5.5,5.3v0.2c0,3.8-3.1,6.2-7.4,6.2C685.4,99.2,682.4,97.5,681,94.6z M691.5,71.8l-2.9,4.5
			h-1.8l2.5-4.5H691.5z"/>
		<path class="st0" d="M726.8,92.7v0.2c0,3.8-3.1,6.2-7.4,6.2c-3.2,0.2-6.2-1.6-7.7-4.5l2-0.8c1,2.1,3.2,3.5,5.6,3.4
			c3,0,5.2-1.6,5.2-4.2c0-2.4-2-3.4-3.8-3.7l-2.9-0.5c-2.9-0.5-5.8-1.8-5.8-5.4v-0.2c0-3.4,3-5.7,6.9-5.7c3.1-0.1,5.9,1.6,7.3,4.3
			l-2,0.8c-1-2-3.1-3.3-5.4-3.2c-2.6,0-4.7,1.5-4.7,3.9s1.8,3.2,4,3.6l2.9,0.5C724,87.9,726.8,89.2,726.8,92.7z M717.8,76.3
			l-3.5-4.5h1.8l2.9,3.4l2.8-3.4h1.8l-3.5,4.5H717.8z"/>
		<path class="st0" d="M757.5,92.7v0.2c0,3.2-2.2,5.4-5.5,6l-1.7,1.4h0.8c1.5,0,2.7,0.7,2.7,2.2s-1.3,2.3-3.7,2.3h-2.3v-1.2h2
			c1.4,0,2-0.4,2-1.2s-0.6-1.2-1.7-1.2h-1.4v-0.7l1.8-1.4h-0.5c-3.2,0.2-6.2-1.6-7.7-4.5l2-0.8c1,2.1,3.2,3.5,5.6,3.4
			c3,0,5.2-1.6,5.2-4.2c0-2.4-2-3.4-3.8-3.7l-2.9-0.5c-2.9-0.5-5.8-1.8-5.8-5.4V83c0-3.4,3-5.7,6.9-5.7c3.1-0.1,5.9,1.6,7.3,4.3
			l-2,0.8c-1-2-3.1-3.3-5.4-3.2c-2.6,0-4.7,1.5-4.7,3.9s1.8,3.2,4,3.6l2.9,0.5C754.8,87.9,757.5,89.2,757.5,92.7z"/>
		<path class="st0" d="M786.9,79.9H781v18.9h-2.2V79.9h-6v-2.1H787L786.9,79.9z"/>
		<path class="st0" d="M15.1,115.7v7.1h3.3v1.7h-3.3v10.1h-2.2v-10.1H9.5v-1.7h3.3v-7.1h-6v-2.1H21v2.1L15.1,115.7z"/>
		<path class="st0" d="M52.2,115.7h-6v18.9H44v-18.9h-5.9v-2.1h14.2V115.7z M44,112.1l-3.5-4.5h1.8l2.9,3.4l2.8-3.4h1.8l-3.5,4.5H44
			z"/>
		<path class="st0" d="M77.5,134.6l-1.8,1.6h0.8c1.5,0,2.7,0.7,2.7,2.1s-1.3,2.3-3.7,2.3h-2.3v-1.1h2c1.4,0,2-0.4,2-1.2
			s-0.6-1.2-1.7-1.2h-1.4v-0.7l2.2-1.7h-1.1v-18.9h-6v-2.1h14.2v2.1h-5.9V134.6z"/>
		<path class="st0" d="M101.7,128v-14.3h2.2v14.1c0,3.8,2.1,5.3,4.9,5.3c2.5,0,4.9-1.5,4.9-5.3v-14.1h2.2V128c0,4.8-3.3,7.1-7.1,7.1
			C104.8,135.1,101.7,132.8,101.7,128z"/>
		<path class="st0" d="M135.4,128v-14.3h2.2v14.1c0,3.8,2.1,5.3,4.9,5.3c2.5,0,4.9-1.5,4.9-5.3v-14.1h2.2V128c0,4.8-3.3,7.1-7.1,7.1
			C138.5,135.1,135.4,132.8,135.4,128z M145.8,107.7l-2.9,4.5H141l2.5-4.5H145.8z"/>
		<path class="st0" d="M183.4,113.6V128c0,4.8-3.3,7.1-7.1,7.1c-4,0-7.1-2.3-7.1-7.1v-14.3h2.2v14.1c0,3.8,2.1,5.3,4.9,5.3
			c2.5,0,4.9-1.5,4.9-5.3v-14.1H183.4z M173.4,112.1h-1.8l3.4-4.5h2.4l3.4,4.5h-1.8l-2.9-3.4L173.4,112.1z"/>
		<path class="st0" d="M202.9,128v-14.3h2.2v14.1c0,3.8,2.1,5.3,4.9,5.3c2.5,0,4.9-1.5,4.9-5.3v-14.1h2.2V128c0,4.8-3.3,7.1-7.1,7.1
			C206,135.1,202.9,132.8,202.9,128z M206.5,107.7h2.1v3.3h-2.1V107.7z M211.6,107.7h2.1v3.3h-2.1V107.7z"/>
		<path class="st0" d="M236.7,128v-14.3h2.2v14.1c0,3.8,2.1,5.3,4.9,5.3c2.5,0,4.9-1.5,4.9-5.3v-14.1h2.2V128c0,4.8-3.3,7.1-7.1,7.1
			C239.8,135.1,236.7,132.8,236.7,128z M240.6,107.7h2.2l2.5,4.5h-1.8L240.6,107.7z"/>
		<path class="st0" d="M270.4,128v-14.3h2.2v14.1c0,3.8,2.1,5.3,4.9,5.3c2.5,0,4.9-1.5,4.9-5.3v-14.1h2.2V128c0,4.8-3.3,7.1-7.1,7.1
			C273.5,135.1,270.4,132.8,270.4,128z M277.7,107.7l-2.5,4.5h-1.5l2-4.5H277.7z M282.8,107.7l-2.5,4.5h-1.5l2-4.5H282.8z"/>
		<path class="st0" d="M304.2,128v-14.3h2.2v14.1c0,3.8,2.1,5.3,4.9,5.3c2.5,0,4.9-1.5,4.9-5.3v-14.1h2.2V128c0,4.8-3.3,7.1-7.1,7.1
			C307.3,135.1,304.2,132.8,304.2,128z M315.4,110.7h-8.1v-1.5h8.1V110.7z"/>
		<path class="st0" d="M352.2,113.6V128c0,3.9-2.1,6.1-5,6.9c-1.1,0.6-2.3,1.6-2.3,2.8s0.8,1.5,1.9,1.5h1.5v1.4h-2
			c-1.8,0-3.2-0.9-3.2-2.6c0-1.2,0.7-2.3,1.6-3c-3.9-0.1-6.8-2.4-6.8-7.1v-14.3h2.2v14.1c0,3.8,2.1,5.3,4.9,5.3
			c2.5,0,4.9-1.5,4.9-5.3v-14.1H352.2z"/>
		<path class="st0" d="M371.7,128v-14.3h2.2v14.1c0,3.8,2.1,5.3,4.9,5.3c2.5,0,4.9-1.5,4.9-5.3v-14.1h2.2V128c0,4.8-3.3,7.1-7.1,7.1
			C374.8,135.1,371.7,132.8,371.7,128z M376.1,109.2c-0.1-1.5,1.1-2.8,2.6-2.9c1.5-0.1,2.8,1.1,2.9,2.6c0.1,1.5-1.1,2.8-2.6,2.9
			c0,0-0.1,0-0.1,0C377.3,111.8,376.1,110.6,376.1,109.2C376.1,109.2,376.1,109.2,376.1,109.2L376.1,109.2z M380.4,109.2
			c0-0.9-0.7-1.6-1.5-1.6c-0.9,0-1.6,0.7-1.6,1.5s0.7,1.6,1.5,1.6c0,0,0,0,0,0C379.7,110.7,380.4,110.1,380.4,109.2
			C380.4,109.2,380.4,109.2,380.4,109.2L380.4,109.2z"/>
		<path class="st0" d="M404.1,113.6h2.4l5.1,15c0.3,1,0.7,2.1,1,3.4c0.3-1.4,0.7-2.4,1-3.4l5.1-15h2.2l-7.4,21h-2.2L404.1,113.6z"/>
		<path class="st0" d="M460.8,113.6l-4.7,21h-2.1l-3.5-12.8c-0.5-1.7-0.8-3.2-1.1-4.7c-0.3,1.5-0.7,3-1.1,4.7l-3.5,12.8h-2.2
			l-4.7-21h2.3l2.8,12.7c0.4,1.7,0.6,3.1,0.9,4.6c0.3-1.5,0.6-2.9,1.1-4.6l3.4-12.7h2l3.4,12.7c0.5,1.7,0.8,3.1,1.1,4.6
			c0.2-1.5,0.5-2.9,0.9-4.6l2.8-12.7H460.8z"/>
		<path class="st0" d="M500.5,113.6l-4.7,21h-2.1l-3.5-12.8c-0.5-1.7-0.8-3.2-1.1-4.7c-0.3,1.5-0.7,3-1.1,4.7l-3.5,12.8h-2.2
			l-4.7-21h2.3l2.8,12.7c0.4,1.7,0.6,3.1,0.9,4.6c0.3-1.5,0.6-2.9,1.1-4.6l3.4-12.7h2l3.4,12.7c0.5,1.7,0.8,3.1,1.1,4.6
			c0.2-1.5,0.5-2.9,0.9-4.6l2.8-12.7H500.5z M492.3,107.6l-2.9,4.5h-1.8l2.5-4.5H492.3z"/>
		<path class="st0" d="M540.3,113.6l-4.7,21h-2.2l-3.5-12.8c-0.5-1.7-0.8-3.2-1.1-4.7c-0.3,1.5-0.7,3-1.1,4.7l-3.5,12.8h-2.2
			l-4.7-21h2.3l2.8,12.7c0.3,1.7,0.7,3.1,0.9,4.6c0.3-1.5,0.7-2.9,1.1-4.6l3.4-12.7h2l3.4,12.7c0.5,1.7,0.8,3.1,1.1,4.6
			c0.2-1.5,0.5-2.9,0.9-4.6l2.8-12.7H540.3z M526,112.1h-1.8l3.5-4.5h2.4l3.5,4.5h-1.8l-2.9-3.4L526,112.1z"/>
		<path class="st0" d="M580,113.6l-4.7,21h-2.2l-3.5-12.8c-0.5-1.7-0.8-3.2-1.1-4.7c-0.3,1.5-0.7,3-1.1,4.7l-3.4,12.8h-2.2l-4.7-21
			h2.3l2.8,12.7c0.3,1.7,0.7,3.1,0.9,4.6c0.3-1.5,0.7-2.9,1.1-4.6l3.4-12.7h2l3.4,12.7c0.5,1.7,0.8,3.1,1.1,4.6
			c0.2-1.5,0.5-2.9,0.9-4.6l2.8-12.7L580,113.6z M565,107.6h2.1v3.3H565V107.6z M570.1,107.6h2.1v3.3h-2.1V107.6z"/>
		<path class="st0" d="M619.8,113.6l-4.7,21h-2.2l-3.5-12.8c-0.5-1.7-0.8-3.2-1.1-4.7c-0.3,1.5-0.7,3-1.1,4.7l-3.5,12.8h-2.2
			l-4.7-21h2.3l2.8,12.7c0.3,1.7,0.7,3.1,0.9,4.6c0.3-1.5,0.7-2.9,1.1-4.6l3.4-12.7h2l3.4,12.7c0.5,1.7,0.8,3.1,1.1,4.6
			c0.2-1.5,0.5-2.9,0.9-4.6l2.8-12.7H619.8z M605.2,107.6h2.2l2.5,4.5h-1.8L605.2,107.6z"/>
		<path class="st0" d="M643.8,123.5l-6.3-9.9h2.5l3.3,5.2c0.8,1.2,1.4,2.3,1.8,3.1c0.5-0.8,1.1-1.8,1.9-3.1l3.3-5.2h2.4l-6.3,9.8
			l7.2,11.2H651l-4.2-6.6c-0.8-1.2-1.4-2.3-1.8-3.1c-0.5,0.8-1.1,1.8-1.9,3.1l-4.2,6.5h-2.4L643.8,123.5z"/>
		<path class="st0" d="M677.3,125.4l-6.8-11.8h2.5l3.8,6.8c0.7,1.2,1.2,2.2,1.6,3.2c0.4-0.9,1-1.9,1.6-3.2l3.8-6.8h2.4l-6.8,11.8
			v9.2h-2.2L677.3,125.4z"/>
		<path class="st0" d="M710.3,125.4l-6.8-11.8h2.5l3.8,6.8c0.7,1.2,1.2,2.2,1.6,3.2c0.4-0.9,1-1.9,1.6-3.2l3.8-6.8h2.4l-6.8,11.8
			v9.2h-2.2L710.3,125.4z M714.7,107.6l-2.9,4.5H710l2.5-4.5H714.7z"/>
		<path class="st0" d="M752.3,113.6l-6.8,11.8v9.2h-2.2v-9.2l-6.8-11.8h2.5l3.8,6.8c0.7,1.2,1.2,2.2,1.6,3.2c0.4-0.9,1-1.9,1.6-3.2
			l3.8-6.8H752.3z M741.6,112.1h-1.8l3.5-4.5h2.4l3.5,4.5h-1.8l-2.9-3.4L741.6,112.1z"/>
		<path class="st0" d="M776.3,125.4l-6.8-11.8h2.5l3.8,6.8c0.7,1.2,1.2,2.2,1.6,3.2c0.4-0.9,1-1.9,1.6-3.2l3.8-6.8h2.4l-6.8,11.8
			v9.2h-2.2L776.3,125.4z M773.9,107.6h2.1v3.3h-2.1L773.9,107.6z M779,107.6h2.1v3.3H779L779,107.6z"/>
		<path class="st0" d="M13.7,161.3L7,149.5h2.5l3.8,6.8c0.7,1.2,1.2,2.2,1.6,3.1c0.4-0.9,0.9-1.9,1.6-3.1l3.8-6.8h2.4L16,161.3v9.2
			h-2.3V161.3z M11.7,143.5H14l2.5,4.5h-1.8L11.7,143.5z"/>
		<path class="st0" d="M40,168.5l9-13.6c0.8-1.3,1.7-2.4,2.3-3.3h-11v-2.1h13.6v2L45,165.1c-0.8,1.3-1.7,2.4-2.3,3.3h11.5v2.1H40
			V168.5z"/>
		<path class="st0" d="M71.6,168.5l8.9-13.6c0.8-1.3,1.7-2.4,2.3-3.3h-11v-2.1h13.6v2l-8.9,13.6c-0.8,1.3-1.7,2.4-2.3,3.3h11.5v2.1
			H71.6V168.5z M81.8,143.5l-2.9,4.4h-1.8l2.5-4.5L81.8,143.5z"/>
		<path class="st0" d="M117.1,168.4v2.1H103v-2l9-13.6c0.8-1.3,1.7-2.4,2.3-3.3h-11v-2.1h13.6v2l-8.9,13.6c-0.8,1.3-1.7,2.4-2.3,3.3
			L117.1,168.4z M108.9,148l-3.4-4.5h1.8l2.9,3.4l2.8-3.4h1.8l-3.4,4.5H108.9z"/>
		<path class="st0" d="M134.6,168.5l8.9-13.6c0.9-1.3,1.6-2.4,2.3-3.3h-11v-2.1h13.6v2l-8.9,13.6c-0.9,1.3-1.6,2.4-2.3,3.3h11.5v2.1
			h-14.1V168.5z M140.6,143.5h2.1v3.3h-2.1V143.5z"/>
		<path class="st0" d="M7.1,238.4v-0.2c0-2.5,1.8-4.6,5.5-4.6H17v-1.2c0-2.4-1.3-3.8-3.6-3.8c-1.7-0.1-3.3,1-3.9,2.6l-1.9-0.4
			c0.9-2.5,3.3-4.1,5.9-3.9c3.5,0,5.5,2.1,5.5,5.4v9.9h-2v-2.4c-1.1,1.7-3,2.8-5.1,2.7C9.1,242.6,7.1,240.9,7.1,238.4z M17,236.4
			v-1.3h-4.1c-2.4,0-3.7,1.3-3.7,3s1.4,2.8,3.2,2.8c2.4,0.1,4.4-1.8,4.5-4.2C17,236.6,17,236.5,17,236.4L17,236.4z"/>
		<path class="st0" d="M37.1,238.4v-0.2c0-2.5,1.8-4.6,5.5-4.6H47v-1.2c0-2.4-1.3-3.8-3.6-3.8c-1.7-0.1-3.3,1-3.9,2.6l-1.9-0.4
			c0.9-2.5,3.3-4.1,5.9-3.9c3.5,0,5.5,2.1,5.5,5.4v9.9h-2v-2.4c-1.1,1.7-3,2.8-5.1,2.7C39.1,242.6,37.1,240.9,37.1,238.4z M47,236.4
			v-1.3h-4.1c-2.5,0-3.7,1.3-3.7,3s1.3,2.8,3.2,2.8c2.4,0.1,4.4-1.8,4.5-4.2C47,236.6,47,236.5,47,236.4L47,236.4z M46.6,221.3
			l-2.9,4.5h-1.8l2.5-4.5H46.6z"/>
		<path class="st0" d="M67.1,238.4v-0.2c0-2.5,1.8-4.6,5.6-4.6H77v-1.2c0-2.4-1.3-3.8-3.6-3.8c-1.7-0.1-3.3,1-3.9,2.6l-1.9-0.4
			c0.9-2.5,3.3-4.1,5.9-3.9c3.5,0,5.5,2.1,5.5,5.4v9.9h-2v-2.4c-1.1,1.7-3,2.8-5.1,2.7C69.1,242.6,67.1,240.9,67.1,238.4z
			 M68.8,222.2l1.6-0.5c0.4,1.7,2,2.7,3.7,2.3c1.2-0.3,2.1-1.2,2.3-2.3l1.6,0.5c-0.7,2.5-3.4,4-5.9,3.3
			C70.5,225,69.3,223.8,68.8,222.2z M77,236.4v-1.3h-4.1c-2.4,0-3.7,1.3-3.7,3s1.3,2.8,3.2,2.8c2.4,0.1,4.4-1.8,4.5-4.2
			C77,236.6,77,236.5,77,236.4z"/>
		<path class="st0" d="M109,232.4v9.9h-2v-2.4c-1.1,1.7-3,2.8-5.1,2.7c-2.8,0-4.8-1.6-4.8-4.1v-0.2c0-2.5,1.8-4.6,5.6-4.6h4.4v-1.2
			c0-2.4-1.3-3.8-3.6-3.8c-1.7-0.1-3.3,1-3.9,2.6l-1.9-0.4c0.9-2.5,3.3-4.1,5.9-3.9C107,227,109,229.1,109,232.4z M100.6,225.8h-1.8
			l3.4-4.5h2.4l3.4,4.5h-1.8l-2.9-3.4L100.6,225.8z M107,235.1h-4.1c-2.4,0-3.7,1.3-3.7,3s1.3,2.8,3.2,2.8c2.4,0.1,4.4-1.8,4.5-4.2
			c0-0.1,0-0.2,0-0.3V235.1z"/>
		<path class="st0" d="M127.1,238.4v-0.2c0-2.5,1.8-4.6,5.5-4.6h4.4v-1.2c0-2.4-1.3-3.8-3.6-3.8c-1.7-0.1-3.3,1-3.9,2.6l-1.9-0.4
			c0.9-2.5,3.3-4.1,5.9-3.9c3.5,0,5.5,2.1,5.5,5.4v9.9h-2v-2.4c-1.1,1.7-3,2.8-5.1,2.7C129.1,242.6,127.1,240.9,127.1,238.4z
			 M137,236.4v-1.3h-4.1c-2.4,0-3.7,1.3-3.7,3s1.4,2.8,3.2,2.8c2.4,0.1,4.4-1.8,4.5-4.2C137,236.6,137,236.5,137,236.4L137,236.4z
			 M129.8,221.3h2.1v3.3h-2.1V221.3z M134.9,221.3h2.1v3.3h-2.1L134.9,221.3z"/>
		<path class="st0" d="M157.1,238.4v-0.2c0-2.5,1.8-4.6,5.6-4.6h4.3v-1.2c0-2.4-1.3-3.8-3.6-3.8c-1.7-0.1-3.3,1-3.9,2.6l-1.9-0.4
			c0.9-2.5,3.3-4.1,5.9-3.9c3.5,0,5.5,2.1,5.5,5.4v9.9h-2v-2.4c-1.1,1.7-3,2.8-5.1,2.7C159.1,242.6,157.1,240.9,157.1,238.4z
			 M167,236.4v-1.3h-4.1c-2.4,0-3.7,1.3-3.7,3s1.4,2.8,3.2,2.8c2.4,0.1,4.4-1.8,4.5-4.2C167,236.6,167,236.5,167,236.4L167,236.4z
			 M160.2,221.3h2.2l2.5,4.5h-1.8L160.2,221.3z"/>
		<path class="st0" d="M187.1,238.4v-0.2c0-2.5,1.8-4.6,5.6-4.6h4.3v-1.2c0-2.4-1.3-3.8-3.6-3.8c-1.7-0.1-3.3,1-3.9,2.6l-1.9-0.4
			c0.9-2.5,3.3-4.1,5.9-3.9c3.5,0,5.5,2.1,5.5,5.4v9.9h-2v-2.4c-1.1,1.7-3,2.8-5.1,2.7C189.1,242.6,187.1,240.9,187.1,238.4z
			 M197,236.4v-1.3h-4.1c-2.4,0-3.7,1.3-3.7,3s1.4,2.8,3.2,2.8c2.4,0.1,4.4-1.8,4.5-4.2C197,236.6,197,236.5,197,236.4L197,236.4z
			 M197.5,224.3h-8.1v-1.5h8.1V224.3z"/>
		<path class="st0" d="M229.6,246.8v1.4h-1.9c-1.8,0-3.2-0.9-3.2-2.6c0-1.2,0.8-2.5,2.6-3.6v-2.2c-1.1,1.7-3,2.8-5.1,2.7
			c-2.8,0-4.9-1.6-4.9-4.1v-0.2c0-2.5,1.8-4.6,5.6-4.6h4.4v-1.2c0-2.4-1.3-3.8-3.6-3.8c-1.7-0.1-3.3,1-3.9,2.6l-1.9-0.4
			c0.9-2.5,3.3-4.1,5.9-3.9c3.5,0,5.5,2.1,5.5,5.4v9.9c-1.2,0.5-2.7,1.6-2.7,3c0,1.1,0.8,1.5,1.9,1.5L229.6,246.8z M227,235.1h-4.1
			c-2.4,0-3.7,1.3-3.7,3s1.4,2.8,3.2,2.8c2.4,0.1,4.4-1.8,4.5-4.2c0-0.1,0-0.2,0-0.3V235.1z"/>
		<path class="st0" d="M247.1,238.4v-0.2c0-2.5,1.8-4.6,5.6-4.6h4.3v-1.2c0-2.4-1.3-3.8-3.6-3.8c-1.7-0.1-3.3,1-3.9,2.6l-1.9-0.4
			c0.9-2.5,3.3-4.1,5.9-3.9c3.5,0,5.5,2.1,5.5,5.4v9.9h-2v-2.4c-1.1,1.7-3,2.8-5.1,2.7C249.1,242.6,247.1,240.9,247.1,238.4z
			 M257,236.4v-1.3h-4.1c-2.4,0-3.7,1.3-3.7,3s1.4,2.8,3.2,2.8c2.4,0.1,4.4-1.8,4.5-4.2C257,236.6,257,236.5,257,236.4L257,236.4z
			 M250.7,222.8c-0.1-1.5,1.1-2.8,2.6-2.9s2.8,1.1,2.9,2.6c0.1,1.5-1.1,2.8-2.6,2.9c0,0-0.1,0-0.1,0
			C252,225.4,250.7,224.3,250.7,222.8C250.7,222.8,250.7,222.8,250.7,222.8L250.7,222.8z M255,222.8c0-0.9-0.7-1.6-1.5-1.6
			c-0.9,0-1.6,0.7-1.6,1.5c0,0.9,0.7,1.6,1.5,1.6c0,0,0,0,0,0C254.3,224.4,255,223.7,255,222.8C255,222.8,255,222.8,255,222.8z"/>
		<path class="st0" d="M277.1,238.4v-0.2c0-2.5,1.8-4.6,5.5-4.6h4.4v-1.2c0-2.4-1.3-3.8-3.6-3.8c-1.7-0.1-3.3,1-3.9,2.6l-1.9-0.4
			c0.9-2.5,3.3-4.1,5.9-3.9c3.5,0,5.5,2.1,5.5,5.4v9.9h-2v-2.4c-1.1,1.7-3,2.8-5.1,2.7C279.1,242.6,277.1,240.9,277.1,238.4z
			 M281.5,223.6c-0.8,0-1.2,0.5-1.4,1.4l-1.3-0.3c-0.1-1.4,1-2.6,2.4-2.7c0,0,0,0,0.1,0c1.7,0,2.6,1.6,4,1.6c0.8,0,1.2-0.5,1.4-1.4
			l1.4,0.3c0.1,1.4-1.1,2.6-2.5,2.7c0,0,0,0,0,0C283.7,225.1,282.7,223.6,281.5,223.6L281.5,223.6z M287,236.4v-1.3h-4.1
			c-2.5,0-3.7,1.3-3.7,3s1.4,2.8,3.2,2.8c2.4,0.1,4.4-1.8,4.5-4.2C287,236.6,287,236.5,287,236.4z"/>
		<path class="st0" d="M329.4,235.1h-10.5c0,3.6,1.8,5.9,4.4,5.9c1.7,0,3.1-1,3.7-2.6l2,0.4c-0.9,2.4-3.2,4-5.8,3.9
			c-2.4,0.1-4.6-1.4-5.5-3.7c-1,2.3-3.3,3.7-5.8,3.6c-2.9,0-4.9-1.7-4.9-4.1v-0.2c0-2.5,1.8-4.6,5.5-4.6h4.2v-1.2
			c0-2.4-1.2-3.8-3.5-3.8c-1.7-0.1-3.3,1-3.9,2.6l-1.9-0.4c0.9-2.5,3.3-4.1,5.9-3.9c2-0.1,3.9,0.9,4.8,2.8c1-1.8,2.8-2.9,4.9-2.9
			c3.5,0,6.3,2.8,6.3,7.6L329.4,235.1z M316.8,235.1h-4c-2.5,0-3.7,1.3-3.7,3s1.3,2.8,3.3,2.8c2.4,0,4.3-1.9,4.4-4.2
			c0-0.1,0-0.2,0-0.2L316.8,235.1z M327.3,233.7c-0.2-3.4-2-5.2-4.2-5.2s-4,1.8-4.1,5.2H327.3z"/>
		<path class="st0" d="M349.1,239.5v2.8h-1.9v-21h2.1v8.6c0.8-1.8,2.7-3,4.8-2.9c3.2,0,6.2,2.5,6.2,7.5v0.6c0,5-2.9,7.5-6.2,7.5
			C351.9,242.7,349.9,241.5,349.1,239.5z M358.1,234.9v-0.1c0-3.9-2-5.9-4.5-5.9s-4.4,2-4.4,5.9v0.1c0,3.9,2,5.9,4.4,5.9
			S358.1,238.7,358.1,234.9L358.1,234.9z"/>
		<path class="st0" d="M376.9,234.9v-0.3c0-4.9,3-7.6,6.5-7.6c2.7,0,5.1,1.8,5.9,4.4l-2,0.4c-0.5-1.7-2.1-3-3.9-3
			c-2.4,0-4.4,2-4.4,5.9v0.1c0,3.9,2,5.9,4.4,5.9c1.8,0,3.4-1.3,3.9-3l2,0.4c-0.7,2.6-3.1,4.5-5.9,4.4
			C379.9,242.6,376.9,239.9,376.9,234.9z"/>
		<path class="st0" d="M405.4,234.9v-0.3c0-4.9,3-7.6,6.5-7.6c2.7,0,5.1,1.8,5.9,4.4l-2,0.4c-0.5-1.7-2.1-3-3.9-3
			c-2.4,0-4.4,2-4.4,5.9v0.1c0,3.9,2,5.9,4.4,5.9c1.8,0,3.4-1.3,3.9-3l2,0.4c-0.7,2.6-3.1,4.5-5.9,4.4
			C408.4,242.6,405.4,239.9,405.4,234.9z M415.1,221.3l-2.9,4.5h-1.8l2.5-4.5H415.1z"/>
		<path class="st0" d="M444.3,237.8l2,0.4c-0.7,2.6-3.1,4.5-5.9,4.4c-3.5,0-6.5-2.7-6.5-7.6v-0.3c0-4.9,3-7.6,6.5-7.6
			c2.7,0,5.1,1.8,5.9,4.4l-2,0.4c-0.5-1.7-2.1-3-3.9-3c-2.4,0-4.4,2-4.4,5.9v0.1c0,3.9,2,5.9,4.4,5.9
			C442.2,240.8,443.8,239.5,444.3,237.8z M439.2,225.8l-3.5-4.5h1.8l2.9,3.4l2.9-3.4h1.8l-3.5,4.5H439.2z"/>
		<path class="st0" d="M472.8,237.8l2,0.4c-0.5,1.8-1.8,3.3-3.5,4l0.1,0.1l-1.9,1.6h0.8c1.5,0,2.7,0.7,2.7,2.1s-1.3,2.3-3.7,2.3
			h-2.3v-1.1h2c1.4,0,2-0.4,2-1.2s-0.6-1.2-1.7-1.2H468V244l1.9-1.5c-0.3,0-0.7,0.1-1,0.1c-3.5,0-6.5-2.7-6.5-7.6v-0.3
			c0-4.9,3-7.6,6.5-7.6c2.7,0,5.1,1.8,5.9,4.4l-2,0.4c-0.5-1.7-2.1-3-3.9-3c-2.4,0-4.4,2-4.4,5.9v0.1c0,3.9,2,5.9,4.4,5.9
			C470.7,240.8,472.3,239.5,472.8,237.8z"/>
		<path class="st0" d="M491.8,235.1v-0.6c0-5,2.9-7.5,6.2-7.5c2-0.1,3.9,1.1,4.8,2.9v-8.6h2.1v21h-1.9v-2.8c-0.9,1.9-2.8,3.1-4.9,3
			C494.7,242.6,491.8,240.1,491.8,235.1z M502.8,234.9v-0.1c0-3.9-2-5.9-4.4-5.9s-4.5,2-4.5,5.9v0.1c0,3.9,2,5.9,4.5,5.9
			S502.8,238.7,502.8,234.9L502.8,234.9z"/>
		<path class="st0" d="M535.8,234.5v0.6c0,4.9-3,7.6-6.6,7.6s-6.6-2.7-6.6-7.6v-0.4c0-4.9,3-7.3,6.2-7.3c1.9,0,3.7,0.9,4.7,2.6
			c-0.7-2.1-1.8-4-3.1-5.7L526,226v-1.6l3.2-1.3c-0.6-0.7-1.3-1.3-2-1.9h2.6c0.3,0.4,0.7,0.8,1.1,1.2l3.3-1.3v1.6l-2.3,0.9
			C534.4,226.8,535.8,230.6,535.8,234.5z M533.7,235c-0.2-3.8-2.1-5.7-4.6-5.7s-4.5,1.9-4.5,5.7v0.1c0,3.9,2,5.8,4.5,5.8
			s4.5-2,4.5-5.8L533.7,235z"/>
		<path class="st0" d="M552.6,235.1v-0.6c0-5,2.9-7.5,6.2-7.5c2-0.1,3.9,1.1,4.8,2.9v-8.6h2.1v21h-1.9v-2.8c-0.9,1.9-2.8,3.1-4.9,3
			C555.5,242.6,552.6,240.1,552.6,235.1z M563.6,234.9v-0.1c0-3.9-2-5.9-4.4-5.9s-4.5,2-4.5,5.9v0.1c0,3.9,2,5.9,4.5,5.9
			S563.6,238.7,563.6,234.9L563.6,234.9z M569.2,221.3h2l-1.9,5.2h-1.5L569.2,221.3z"/>
		<path class="st0" d="M598.3,225h-2v17.2h-1.9v-2.8c-0.9,1.9-2.8,3.1-4.9,3c-3.3,0-6.2-2.5-6.2-7.5v-0.6c0-5,2.9-7.5,6.2-7.5
			c2-0.1,3.9,1.1,4.8,2.9V225H590v-1.5h4.2v-2.2h2.1v2.2h2L598.3,225z M594.3,234.7c0-3.9-2-5.9-4.4-5.9s-4.5,2-4.5,5.9v0.1
			c0,3.9,2,5.9,4.5,5.9s4.4-2.1,4.4-5.9V234.7z"/>
		<path class="st0" d="M620.8,242.7c-3.8,0-6.8-2.8-6.8-7.8v-0.3c0-5,3-7.8,6.6-7.8s6.6,2.8,6.6,7.8v0.6h-11.2c0,3.6,2,5.8,4.8,5.8
			c1.7,0,3.3-1,4-2.6l2,0.4C625.9,241.2,623.5,242.8,620.8,242.7z M625.2,233.8c-0.2-3.4-2.2-5.3-4.5-5.3s-4.3,1.8-4.5,5.3H625.2z"
			/>
		<path class="st0" d="M650.8,242.7c-3.8,0-6.8-2.8-6.8-7.8v-0.3c0-5,3-7.8,6.6-7.8s6.6,2.8,6.6,7.8v0.6h-11.2c0,3.6,2,5.8,4.8,5.8
			c1.7,0,3.3-1,4-2.6l2,0.4C655.9,241.2,653.5,242.8,650.8,242.7z M655.2,233.8c-0.2-3.4-2.2-5.3-4.5-5.3s-4.3,1.8-4.5,5.3H655.2z
			 M653.9,221.3l-2.9,4.5h-1.8l2.5-4.5H653.9z"/>
		<path class="st0" d="M687.3,235.2h-11.2c0,3.6,2,5.8,4.8,5.8c1.7,0,3.3-1,4-2.6l2,0.4c-1,2.5-3.4,4.1-6.1,4
			c-3.8,0-6.8-2.8-6.8-7.8v-0.3c0-5,3-7.8,6.6-7.8s6.6,2.8,6.6,7.8L687.3,235.2z M679.5,225.8l-3.5-4.5h1.8l2.9,3.4l2.8-3.4h1.8
			l-3.5,4.5H679.5z M685.2,233.8c-0.2-3.4-2.2-5.3-4.5-5.3s-4.3,1.8-4.5,5.3H685.2z"/>
		<path class="st0" d="M717.3,235.2h-11.2c0,3.6,2,5.8,4.8,5.8c1.7,0,3.3-1,4-2.6l2,0.4c-1,2.5-3.4,4.1-6.1,4
			c-3.8,0-6.8-2.8-6.8-7.8v-0.3c0-5,3-7.8,6.6-7.8s6.6,2.8,6.6,7.8L717.3,235.2z M707.8,225.8H706l3.5-4.5h2.4l3.5,4.5h-1.8
			l-2.9-3.4L707.8,225.8z M715.2,233.8c-0.2-3.4-2.2-5.3-4.5-5.3s-4.3,1.8-4.5,5.3H715.2z"/>
		<path class="st0" d="M740.8,242.7c-3.8,0-6.8-2.8-6.8-7.8v-0.3c0-5,3-7.8,6.6-7.8s6.6,2.8,6.6,7.8v0.6h-11.2c0,3.6,2,5.8,4.8,5.8
			c1.7,0,3.3-1,4-2.6l2,0.4C745.9,241.2,743.5,242.8,740.8,242.7z M745.2,233.8c-0.2-3.4-2.2-5.3-4.5-5.3s-4.3,1.8-4.5,5.3H745.2z
			 M737.1,221.3h2.1v3.3h-2.1V221.3z M742.2,221.3h2.1v3.3h-2.1V221.3z"/>
		<path class="st0" d="M770.8,242.7c-3.8,0-6.8-2.8-6.8-7.8v-0.3c0-5,3-7.8,6.6-7.8s6.6,2.8,6.6,7.8v0.6h-11.2c0,3.6,2,5.8,4.8,5.8
			c1.7,0,3.3-1,4-2.6l2,0.4C775.9,241.2,773.5,242.8,770.8,242.7z M775.2,233.8c-0.2-3.4-2.2-5.3-4.5-5.3s-4.3,1.8-4.5,5.3H775.2z
			 M769.6,221.3h2.1v3.3h-2.1V221.3z"/>
		<path class="st0" d="M13.5,278.6c-3.8,0-6.8-2.8-6.8-7.8v-0.3c0-5,3-7.8,6.6-7.8s6.6,2.8,6.6,7.8v0.6H8.8c0.1,3.5,2,5.8,4.8,5.8
			c1.7,0,3.3-1,4-2.6l2,0.4C18.6,277.1,16.1,278.7,13.5,278.6z M17.9,269.7c-0.2-3.5-2.2-5.3-4.5-5.3s-4.3,1.8-4.5,5.3H17.9z
			 M10.1,257.2h2.2l2.5,4.5h-1.8L10.1,257.2z"/>
		<path class="st0" d="M43.5,278.6c-3.8,0-6.8-2.8-6.8-7.8v-0.3c0-5,3-7.8,6.6-7.8s6.6,2.8,6.6,7.8v0.6H38.8c0,3.5,2,5.8,4.8,5.8
			c1.7,0,3.3-1,4-2.6l2,0.4C48.6,277.1,46.1,278.7,43.5,278.6z M47.9,269.7c-0.2-3.5-2.2-5.3-4.5-5.3s-4.3,1.8-4.5,5.3H47.9z
			 M47.4,260.2h-8.1v-1.5h8.1L47.4,260.2z"/>
		<path class="st0" d="M80,271.1H68.8c0.1,3.5,2,5.8,4.8,5.8c1.7,0,3.3-1,4-2.6l2,0.4c-0.7,1.8-2.2,3.2-4.1,3.7
			c-1.2,0.6-2.3,1.6-2.3,2.9s0.8,1.5,1.9,1.5h1.5v1.5h-1.9c-1.8,0-3.2-0.9-3.2-2.6c0-1.2,0.7-2.3,1.7-3c-3.6-0.2-6.3-3-6.3-7.8v-0.3
			c0-5,2.9-7.8,6.6-7.8s6.6,2.8,6.6,7.8L80,271.1z M77.9,269.7c-0.2-3.5-2.2-5.3-4.5-5.3s-4.3,1.8-4.5,5.3H77.9z"/>
		<path class="st0" d="M99.2,265h-2.9v-1.8h3v-2.1c-0.2-1.9,1.2-3.7,3.2-3.9c0.2,0,0.5,0,0.7,0h2v1.8h-1.7c-1.3,0-2.2,0.6-2.2,2.3
			v1.9h3.9v1.8h-3.8v13.2h-2.1V265z"/>
		<path class="st0" d="M135.3,280.2c0,2.4-2,4.4-4.4,4.4c0,0-0.1,0-0.1,0h-4.7c-2.5,0-4.5-1.9-4.5-4.4c0-1.5,0.7-2.9,1.9-3.7
			c-0.6-0.6-0.9-1.4-0.9-2.2c0-1.2,0.7-2.3,1.8-2.8c-1.1-0.9-1.7-2.2-1.7-3.6c0-2.8,2.2-5,5-5c0.1,0,0.2,0,0.3,0
			c0.7,0,1.4,0.1,2,0.4h4.6v1.8h-2.2c0.6,0.8,0.9,1.8,0.9,2.9c0,2.8-2.3,5-5.1,5c-0.1,0-0.1,0-0.2,0h-2c-0.8,0-1.5,0.7-1.5,1.5
			s0.7,1.5,1.5,1.5h4.8C133.3,275.8,135.3,277.8,135.3,280.2z M133.4,280.2c0-1.5-1.2-2.8-2.7-2.8c0,0-0.1,0-0.1,0h-4.1
			c-1.5,0-2.8,1.2-2.8,2.8c0,1.5,1.2,2.8,2.8,2.8c0,0,0,0,0,0h4.1c1.5,0.1,2.8-1.1,2.8-2.6C133.4,280.3,133.4,280.3,133.4,280.2z
			 M124.7,267.8c0,1.9,1.5,3.4,3.4,3.4c1.9,0,3.4-1.5,3.4-3.4s-1.5-3.4-3.4-3.4S124.7,265.9,124.7,267.8
			C124.7,267.8,124.7,267.8,124.7,267.8z"/>
		<path class="st0" d="M165.3,280.2c0,2.4-2,4.4-4.4,4.4c0,0-0.1,0-0.1,0h-4.7c-2.5,0-4.5-1.9-4.5-4.4c0-1.5,0.7-2.9,1.9-3.7
			c-0.6-0.6-0.9-1.4-0.9-2.2c0-1.2,0.7-2.3,1.9-2.8c-1.1-0.9-1.7-2.2-1.7-3.6c0-2.8,2.2-5,5-5c0.1,0,0.2,0,0.3,0
			c0.7,0,1.4,0.1,2,0.4h4.6v1.8h-2.2c0.6,0.8,0.9,1.8,0.9,2.9c0,2.8-2.3,5-5.1,5c-0.1,0-0.1,0-0.2,0h-2c-0.8,0-1.5,0.7-1.5,1.5
			s0.7,1.5,1.5,1.5h4.8C163.3,275.8,165.3,277.8,165.3,280.2z M163.4,280.2c0-1.5-1.2-2.8-2.7-2.8c0,0-0.1,0-0.1,0h-4.1
			c-1.5,0-2.8,1.2-2.8,2.8c0,1.5,1.2,2.8,2.8,2.8c0,0,0,0,0,0h4.1c1.5,0.1,2.8-1.1,2.8-2.6C163.4,280.3,163.4,280.3,163.4,280.2z
			 M154.7,267.8c0,1.9,1.5,3.4,3.4,3.4s3.4-1.5,3.4-3.4s-1.5-3.4-3.4-3.4S154.7,265.9,154.7,267.8z M159.1,260.9H157v-3.2
			c0-1.5,0.9-2,2.6-2v1c-0.8,0-1.2,0.3-1.2,1v0.6h0.7L159.1,260.9z"/>
		<path class="st0" d="M194,268.4v9.8h-2.1v-9.3c0-2.6-1.4-4.2-3.5-4.2c-2.3,0-3.9,1.9-3.9,4.4v9h-2.1v-21h2.1v8.1
			c0.9-1.6,2.6-2.5,4.4-2.5C192,262.9,194,265,194,268.4z"/>
		<path class="st0" d="M212.6,257.2h2.1v3.3h-2.1V257.2z M212.6,263.2h2.1v15h-2.1V263.2z"/>
		<path class="st0" d="M237.8,257.2l-2.9,4.5h-1.8l2.5-4.5H237.8z M233.5,263.2h2.1v15h-2.1V263.2z"/>
		<path class="st0" d="M260.2,261.7h-1.8l-2.9-3.4l-2.9,3.4h-1.8l3.4-4.5h2.4L260.2,261.7z M254.5,263.2h2.1v15h-2.1L254.5,263.2z"
			/>
		<path class="st0" d="M273,257.2h2.1v3.3H273V257.2z M275.5,263.2h2.1v15h-2.1V263.2z M278.1,257.2h2.1v3.3h-2.1V257.2z"/>
		<path class="st0" d="M294.4,257.2h2.2l2.5,4.5h-1.8L294.4,257.2z M296.5,263.2h2.1v15h-2.1V263.2z"/>
		<path class="st0" d="M322.6,260.2h-8.1v-1.5h8.1V260.2z M317.5,263.2h2.1v15h-2.1V263.2z"/>
		<path class="st0" d="M341.3,282.7v1.5h-2c-1.8,0-3.2-0.9-3.2-2.6c0-1.2,0.7-2.5,2.5-3.5v-14.9h2.1v15c-1.2,0.5-2.7,1.6-2.7,3
			c0,1.1,0.8,1.5,1.9,1.5L341.3,282.7z M340.6,260.5h-2.1v-3.3h2.1V260.5z"/>
		<path class="st0" d="M357.7,284.2v-1.8h0.6c0.9,0,1.2-0.3,1.2-1.5v-17.7h2.1v18.1c0,2-1.1,2.9-2.7,2.9H357.7z M359.5,257.2h2.1
			v3.3h-2.1V257.2z"/>
		<path class="st0" d="M380.4,257.2h2.1v9.4c0,1.3-0.1,2.6-0.2,3.9l7-7.2h2.6l-6,6.2l6.5,8.8h-2.5l-5.5-7.4l-1.9,1.9v5.5h-2
			L380.4,257.2z"/>
		<path class="st0" d="M421.5,278.2H419l-5.5-7.4l-1.9,1.9v5.5h-2v-21h2.1v9.4c0,1.3-0.1,2.6-0.2,3.9l7-7.2h2.6l-6,6.2L421.5,278.2z
			 M414.3,280.4h2.1v3.2c0,1.5-0.9,2-2.6,2v-1c0.8,0,1.2-0.3,1.2-1v-0.6h-0.7V280.4z"/>
		<path class="st0" d="M439,274.9v-17.8h2.1v17.4c0,1.3,0.5,1.8,1.5,1.8h0.8v1.8h-1.3C440.2,278.2,439,277.2,439,274.9z"/>
		<path class="st0" d="M465,251.2l-2.9,4.5h-1.8l2.5-4.5H465z M460.8,274.9v-17.8h2.1v17.4c0,1.3,0.5,1.8,1.5,1.8h0.8v1.8h-1.3
			C462,278.2,460.7,277.2,460.8,274.9L460.8,274.9z"/>
		<path class="st0" d="M482.5,274.9v-17.8h2.1v17.4c0,1.3,0.5,1.8,1.5,1.8h0.8v1.8h-1.3C483.7,278.2,482.5,277.2,482.5,274.9z
			 M488.2,257.2h2l-1.9,5.2h-1.5L488.2,257.2z"/>
		<path class="st0" d="M508.6,276.4v1.8h-1.3c-1.9,0-3.1-1-3.1-3.2v-17.8h2.1v17.4c0,1.3,0.5,1.8,1.5,1.8L508.6,276.4z M505.4,280.4
			h2.1v3.2c0,1.5-0.9,2-2.6,2v-1c0.8,0,1.2-0.3,1.2-1V283h-0.7V280.4z"/>
		<path class="st0" d="M530.4,276.4v1.8h-1.3c-1.9,0-3.1-1-3.1-3.2v-2.6l-1.8,1.3V272l1.8-1.3v-13.5h2.1V269l1.8-1.3v1.7l-1.8,1.3
			v3.8c0,1.3,0.5,1.8,1.5,1.8L530.4,276.4z"/>
		<path class="st0" d="M547.7,263.2h2v2.4c0.8-1.7,2.5-2.7,4.3-2.7c1.9-0.1,3.6,1.2,4.2,3c0.8-1.8,2.5-3,4.5-3
			c2.9,0,4.9,2.1,4.9,5.5v9.8h-2.1v-9.4c0-2.5-1.3-4.1-3.2-4.1c-2.2,0-3.6,1.9-3.6,4.5v9h-2.1v-9.4c0-2.5-1.2-4.1-3.2-4.1
			c-2.2,0-3.6,1.9-3.6,4.5v9h-2.1V263.2z"/>
		<path class="st0" d="M585.9,263.2h2v2.4c0.9-1.7,2.6-2.8,4.5-2.7c3.1,0,5.1,2.1,5.1,5.5v9.8h-2.1v-9.3c0-2.6-1.4-4.2-3.5-4.2
			c-2.3,0-3.9,1.9-3.9,4.5v9h-2.1V263.2z"/>
		<path class="st0" d="M615.9,263.2h2v2.4c0.9-1.7,2.6-2.8,4.5-2.7c3.1,0,5.1,2.1,5.1,5.5v9.8h-2.1v-9.3c0-2.6-1.4-4.2-3.5-4.2
			c-2.3,0-3.9,1.9-3.9,4.5v9h-2.1V263.2z M624.9,257.2l-2.9,4.5h-1.8l2.5-4.5H624.9z"/>
		<path class="st0" d="M657.5,268.4v9.8h-2.1v-9.3c0-2.6-1.4-4.2-3.5-4.2c-2.3,0-3.9,1.9-3.9,4.5v9h-2.1v-15h2v2.4
			c0.9-1.7,2.6-2.8,4.5-2.7C655.5,262.9,657.5,265,657.5,268.4z M650.5,261.7l-3.5-4.5h1.8l2.9,3.4l2.8-3.4h1.8l-3.5,4.5H650.5z"/>
		<path class="st0" d="M687.5,268.4v9.8h-2.1v-9.3c0-2.6-1.4-4.2-3.5-4.2c-2.3,0-3.9,1.9-3.9,4.5v9h-2.1v-15h2v2.4
			c0.9-1.7,2.6-2.8,4.5-2.7C685.5,262.9,687.5,265,687.5,268.4z M680.7,280.4h2.1v3.2c0,1.5-0.9,2-2.6,2v-1c0.8,0,1.2-0.3,1.2-1V283
			h-0.7L680.7,280.4z"/>
		<path class="st0" d="M717.5,268.4v12.9c0,2-1.1,2.9-2.7,2.9h-1.2v-1.8h0.5c0.8,0,1.2-0.3,1.2-1.5v-12c0-2.6-1.4-4.2-3.5-4.2
			c-2.3,0-3.9,1.9-3.9,4.5v9h-2.1v-15h2v2.4c0.9-1.7,2.6-2.8,4.5-2.7C715.5,262.9,717.5,265,717.5,268.4z"/>
		<path class="st0" d="M735.9,263.2h2v2.4c0.9-1.7,2.6-2.8,4.5-2.7c3.1,0,5.1,2.1,5.1,5.5v9.8h-2.1v-9.3c0-2.6-1.4-4.2-3.5-4.2
			c-2.3,0-3.9,1.9-3.9,4.5v9h-2.1V263.2z M739.8,259.5c-0.8,0-1.2,0.5-1.3,1.4l-1.3-0.3c-0.1-1.4,1-2.6,2.4-2.7c0,0,0,0,0.1,0
			c1.7,0,2.6,1.6,4,1.6c0.8,0,1.2-0.5,1.3-1.4l1.4,0.3c0.1,1.4-1.1,2.6-2.5,2.7c0,0,0,0,0,0C742.1,261,741.1,259.5,739.8,259.5z"/>
		<path class="st0" d="M765,270.8v-0.3c0-5,3-7.8,6.6-7.8s6.6,2.8,6.6,7.8v0.3c0,5-3,7.8-6.6,7.8S765,275.8,765,270.8z M776.2,270.7
			v-0.1c0-4-2-6.1-4.5-6.1s-4.5,2.1-4.5,6.1v0.1c0,4,2,6.1,4.5,6.1S776.1,274.7,776.2,270.7L776.2,270.7z"/>
		<path class="st0" d="M6.7,306.7v-0.3c0-5,3-7.8,6.6-7.8s6.6,2.8,6.6,7.8v0.3c0,5-3,7.8-6.6,7.8S6.7,311.7,6.7,306.7z M17.9,306.6
			v-0.1c0-4-2-6.1-4.5-6.1s-4.5,2.1-4.5,6.1v0.1c0,4,2,6.1,4.5,6.1S17.9,310.6,17.9,306.6z M16.5,293.1l-2.9,4.5h-1.8l2.5-4.5H16.5z
			"/>
		<path class="st0" d="M50,306.4v0.3c0,5-3,7.8-6.6,7.8s-6.6-2.8-6.6-7.8v-0.3c0-5,3-7.8,6.6-7.8S50,301.4,50,306.4z M40.5,297.6
			h-1.8l3.5-4.5h2.4l3.5,4.5h-1.8l-2.9-3.4L40.5,297.6z M47.9,306.5c0-4-2-6.1-4.5-6.1s-4.5,2.1-4.5,6.1v0.1c0,4,2,6.1,4.5,6.1
			s4.5-2.1,4.5-6.1V306.5z"/>
		<path class="st0" d="M66.7,306.7v-0.3c0-5,2.9-7.8,6.6-7.8s6.6,2.8,6.6,7.8v0.3c0,5-2.9,7.8-6.6,7.8S66.7,311.7,66.7,306.7z
			 M77.9,306.6v-0.1c0-4-2-6.1-4.5-6.1s-4.5,2.1-4.5,6.1v0.1c0,4,2,6.1,4.5,6.1S77.9,310.6,77.9,306.6z M69.8,293.1h2.1v3.3h-2.1
			V293.1z M74.8,293.1h2.1v3.3h-2.1V293.1z"/>
		<path class="st0" d="M96.7,306.7v-0.3c0-5,2.9-7.8,6.6-7.8s6.6,2.8,6.6,7.8v0.3c0,5-2.9,7.8-6.6,7.8S96.7,311.7,96.7,306.7z
			 M107.9,306.6v-0.1c0-4-2-6.1-4.5-6.1s-4.5,2.1-4.5,6.1v0.1c0,4,2,6.1,4.5,6.1S107.9,310.6,107.9,306.6z M100.2,293.1h2.2l2.5,4.5
			h-1.8L100.2,293.1z"/>
		<path class="st0" d="M126.7,306.7v-0.3c0-5,2.9-7.8,6.6-7.8s6.6,2.8,6.6,7.8v0.3c0,5-2.9,7.8-6.6,7.8S126.7,311.7,126.7,306.7z
			 M137.9,306.6v-0.1c0-4-2-6.1-4.5-6.1s-4.5,2.1-4.5,6.1v0.1c0,4,2,6.1,4.5,6.1S137.9,310.6,137.9,306.6z M133.5,293.1l-2.5,4.5
			h-1.5l2-4.5H133.5z M138.6,293.1l-2.5,4.5h-1.5l2-4.5H138.6z"/>
		<path class="st0" d="M156.7,306.7v-0.3c0-5,2.9-7.8,6.6-7.8s6.6,2.8,6.6,7.8v0.3c0,5-2.9,7.8-6.6,7.8S156.7,311.7,156.7,306.7z
			 M167.9,306.6v-0.1c0-4-2-6.1-4.5-6.1s-4.5,2.1-4.5,6.1v0.1c0,4,2,6.1,4.5,6.1S167.9,310.6,167.9,306.6z M167.4,296.1h-8.1v-1.5
			h8.1V296.1z"/>
		<path class="st0" d="M200,306.4v0.3c0,5-2.9,7.8-6.6,7.8c-1.4,0-2.8-0.4-3.9-1.3l-0.6,0.9H187l1.4-1.9c-1.2-1.6-1.8-3.5-1.7-5.5
			v-0.3c0-5,2.9-7.8,6.6-7.8c1.4,0,2.8,0.4,3.9,1.3l0.6-0.9h1.8l-1.4,1.9C199.4,302.5,200.1,304.5,200,306.4z M189.7,310.4l6.4-8.9
			c-0.7-0.7-1.7-1.1-2.8-1.1c-2.5,0-4.5,2.1-4.5,6.1v0.1C188.8,307.9,189.1,309.3,189.7,310.4L189.7,310.4z M197.9,306.5
			c0-1.3-0.2-2.6-0.9-3.8l-6.4,8.9c0.7,0.7,1.7,1.1,2.8,1.1c2.5,0,4.5-2.1,4.5-6.1L197.9,306.5z"/>
		<path class="st0" d="M216.7,306.7v-0.3c0-5,2.9-7.8,6.6-7.8s6.6,2.8,6.6,7.8v0.3c0,5-2.9,7.8-6.6,7.8S216.7,311.7,216.7,306.7z
			 M221.4,295.3c-0.8,0-1.2,0.5-1.4,1.4l-1.3-0.3c-0.1-1.4,1-2.6,2.4-2.7c0,0,0,0,0.1,0c1.7,0,2.6,1.6,3.9,1.6
			c0.8,0,1.2-0.5,1.4-1.4l1.4,0.3c0.1,1.4-1.1,2.6-2.5,2.7c0,0,0,0,0,0C223.7,296.9,222.7,295.3,221.4,295.3L221.4,295.3z
			 M227.9,306.6v-0.1c0-4-2-6.1-4.5-6.1s-4.5,2.1-4.5,6.1v0.1c0,4,2,6.1,4.5,6.1S227.9,310.6,227.9,306.6L227.9,306.6z"/>
		<path class="st0" d="M270.2,307h-10.6c0,3.5,1.9,5.8,4.5,5.8c1.7,0,3.1-1,3.7-2.6l2,0.4c-0.9,2.4-3.2,4-5.8,4
			c-2.3,0-4.5-1.3-5.4-3.4c-1,2.1-3.1,3.4-5.4,3.4c-3.6,0-6.4-2.8-6.4-7.8v-0.3c0-5,2.9-7.8,6.4-7.8c2.3,0,4.4,1.3,5.4,3.4
			c0.9-2.1,3-3.4,5.3-3.4c3.5,0,6.3,2.8,6.3,7.8L270.2,307z M257.6,306.5c0-4-1.9-6.1-4.4-6.1s-4.4,2.1-4.4,6.1v0.1
			c0,4,1.9,6.1,4.4,6.1s4.4-2.1,4.4-6.1V306.5z M268.1,305.6c-0.2-3.5-2-5.3-4.2-5.3s-4,1.8-4.2,5.3H268.1z"/>
		<path class="st0" d="M287.9,299.1h1.9v2.8c0.9-1.9,2.8-3.1,4.9-3c3.3,0,6.2,2.5,6.2,7.5v0.6c0,5-2.9,7.5-6.2,7.5
			c-2,0.1-3.9-1.1-4.8-3v8.6h-2.1L287.9,299.1z M298.8,306.6v-0.1c0-3.9-2-5.9-4.5-5.9s-4.4,2.1-4.4,5.9v0.1c0,3.9,2,5.9,4.4,5.9
			S298.8,310.5,298.8,306.6L298.8,306.6z"/>
		<path class="st0" d="M331.7,306.3v0.6c0,5-2.9,7.5-6.2,7.5c-2,0.1-3.9-1.1-4.8-3v8.6h-2.1v-27h2.1v8.6c0.8-1.8,2.7-3,4.8-3
			C328.7,298.8,331.7,301.2,331.7,306.3z M329.6,306.5c0-3.9-2-5.9-4.5-5.9s-4.4,2-4.4,5.9v0.1c0,3.9,2,5.9,4.4,5.9s4.5-2,4.5-5.9
			V306.5z"/>
		<path class="st0" d="M359.3,311.4c-0.8,1.8-2.7,3-4.8,3c-3.2,0-6.2-2.5-6.2-7.5v-0.6c0-5,2.9-7.5,6.2-7.5c2.1,0,4.1,1.2,4.9,3.1
			v-2.9h1.9v21h-2.1V311.4z M359.4,306.6v-0.1c0-3.9-2-5.9-4.4-5.9s-4.5,2.1-4.5,5.9v0.1c0,3.9,2,5.9,4.5,5.9
			S359.4,310.5,359.4,306.6L359.4,306.6z"/>
		<path class="st0" d="M380.4,299.1h2v3.6c0.9-2.3,3.2-3.8,5.7-3.8v2.1c-3.4,0-5.5,2.5-5.5,6.1v6.9h-2.1L380.4,299.1z"/>
		<path class="st0" d="M405.9,299.1h2v3.6c0.9-2.3,3.2-3.8,5.7-3.8v2.1c-3.4,0-5.5,2.5-5.5,6.1v6.9h-2.1L405.9,299.1z M412.9,293.1
			l-2.9,4.5h-1.8l2.5-4.5H412.9z"/>
		<path class="st0" d="M434.1,297.6l-3.5-4.5h1.8l2.9,3.4l2.9-3.4h1.8l-3.5,4.5H434.1z M439.1,298.9v2.1c-3.4,0-5.5,2.5-5.5,6.1v6.9
			h-2.1v-15h2v3.6C434.3,300.4,436.6,298.9,439.1,298.9z"/>
		<path class="st0" d="M456.9,316.3h2.1v3.2c0,1.5-0.9,2-2.6,2v-1c0.8,0,1.2-0.3,1.2-1V319h-0.7L456.9,316.3z M464.6,298.9v2.1
			c-3.4,0-5.5,2.5-5.5,6.1v6.9h-2.1v-15h2v3.6C459.8,300.4,462.1,298.9,464.6,298.9L464.6,298.9z"/>
		<path class="st0" d="M480.8,310.5l1.8-0.8c0.7,1.8,2.4,3,4.4,2.9c2,0,3.5-1,3.5-2.7s-1.4-2.3-3.1-2.6l-1.9-0.4
			c-2.4-0.5-4.2-1.5-4.2-3.9s2-4.4,5.4-4.4c2.4-0.1,4.7,1.2,5.8,3.3l-1.8,0.8c-0.7-1.5-2.3-2.4-4-2.4c-2,0-3.4,1-3.4,2.6
			s1.2,2.1,2.7,2.4l1.9,0.4c2.9,0.5,4.7,1.7,4.7,4.1c0,2.6-2.1,4.5-5.5,4.5C484.3,314.5,481.8,313,480.8,310.5z"/>
		<path class="st0" d="M508.5,310.5l1.8-0.8c0.7,1.8,2.4,3,4.4,2.9c2,0,3.5-1,3.5-2.7s-1.3-2.3-3.1-2.6l-1.9-0.4
			c-2.4-0.5-4.2-1.5-4.2-3.9s2-4.4,5.3-4.4c2.4-0.1,4.7,1.2,5.8,3.3l-1.8,0.8c-0.7-1.5-2.3-2.4-4-2.4c-2,0-3.4,1-3.4,2.6
			s1.2,2.1,2.7,2.4l1.9,0.4c2.8,0.5,4.7,1.7,4.7,4.1c0,2.6-2.1,4.5-5.5,4.5C512.1,314.5,509.6,313,508.5,310.5z M517.4,293.1
			l-2.9,4.5h-1.8l2.5-4.5H517.4z"/>
		<path class="st0" d="M548,309.9c0,2.6-2.1,4.5-5.5,4.5c-2.7,0.1-5.1-1.4-6.2-3.9l1.8-0.8c0.7,1.8,2.4,3,4.3,2.9c2,0,3.5-1,3.5-2.7
			s-1.3-2.3-3.1-2.6l-1.9-0.4c-2.4-0.5-4.2-1.5-4.2-3.9s2-4.4,5.3-4.4c2.4-0.1,4.7,1.2,5.8,3.3l-1.8,0.8c-0.7-1.5-2.3-2.4-4-2.4
			c-2,0-3.3,1-3.3,2.6s1.2,2.1,2.7,2.4l1.9,0.4C546.2,306.3,548,307.4,548,309.9z M540.8,297.6l-3.5-4.5h1.8l2.9,3.4l2.8-3.4h1.8
			l-3.5,4.5H540.8z"/>
		<path class="st0" d="M571,314.3l-1.5,1.3h0.8c1.5,0,2.7,0.7,2.7,2.1s-1.3,2.3-3.7,2.3h-2.3v-1.1h2c1.4,0,2-0.4,2-1.2
			s-0.6-1.2-1.7-1.2H568v-0.7l1.8-1.4c-2.5,0-4.8-1.5-5.8-3.9l1.8-0.8c0.7,1.8,2.4,3,4.3,2.9c2,0,3.5-1,3.5-2.7s-1.3-2.3-3.1-2.6
			l-1.9-0.4c-2.4-0.5-4.2-1.5-4.2-3.9s2-4.4,5.3-4.4c2.4-0.1,4.7,1.2,5.8,3.3l-1.8,0.8c-0.7-1.5-2.3-2.4-4-2.4c-2,0-3.3,1-3.3,2.6
			s1.2,2.1,2.7,2.4l1.9,0.4c2.8,0.5,4.7,1.7,4.7,4.1S574,314.1,571,314.3z"/>
		<path class="st0" d="M597.6,310.5l1.8-0.8c0.7,1.8,2.4,3,4.3,2.9c2,0,3.5-1,3.5-2.7s-1.4-2.2-3.4-2.6l-1.2-0.2
			c-1.8-0.4-3.5-1.2-3.5-3.2c0-1.4,0.8-2.5,2.8-3.5l2-1.1c1.2-0.6,1.9-1.2,1.9-2.2c0-1.5-1.7-2.6-4.6-2.6c-3.8,0-6.1,1.9-6.1,5.2
			v14.5h-2.1v-14.6c0-4.2,3.2-6.9,8.3-6.9c4.5,0,6.6,2,6.6,4.3c0,1.7-1.2,2.8-2.6,3.5l-2.2,1.1c-1.5,0.8-2,1.2-2,2.1
			s0.7,1.5,2.2,1.8l1.3,0.3c2.8,0.6,4.6,1.8,4.6,4c0,2.6-2.1,4.5-5.5,4.5C601.2,314.4,598.7,312.9,597.6,310.5z"/>
		<path class="st0" d="M627.9,310.4v-9.5h-2.5v-1.8h2.6v-4.5h2v4.5h4.3v1.8H630v9.1c0,1.6,0.8,2.2,2,2.2h2.2v1.8h-2.7
			C629.3,314.1,627.9,313,627.9,310.4z"/>
		<path class="st0" d="M654.7,300.9v5h3.8v1.5h-3.8v2.7c0,1.6,0.8,2.2,2,2.2h2.2v1.8h-2.7c-2.2,0-3.6-1.1-3.6-3.6v-3.1h-2.3v-1.5
			h2.3v-5h-2.5V299h2.6v-4.5h2v4.5h4.3v1.8L654.7,300.9z"/>
		<path class="st0" d="M677.4,310.4v-9.5h-2.5v-1.8h2.6v-4.5h2v4.5h4.3v1.8h-4.2v9.1c0,1.6,0.8,2.2,2,2.2h2.2v1.8H681
			C678.8,314.1,677.4,313,677.4,310.4z M683.1,293.1h1.9l-1.9,5.2h-1.5L683.1,293.1z"/>
		<path class="st0" d="M704.2,300.9v9.1c0,1.6,0.8,2.2,2,2.2h2.2v1.8h-2l-1.8,1.5h0.8c1.5,0,2.7,0.7,2.7,2.1s-1.3,2.3-3.7,2.3h-2.3
			v-1.1h2c1.4,0,2-0.4,2-1.2s-0.6-1.2-1.7-1.2h-1.4v-0.7l2.2-1.7c-1.9-0.1-3.2-1.3-3.2-3.6v-9.5h-2.5v-1.8h2.6v-4.5h2v4.5h4.3v1.8
			L704.2,300.9z"/>
		<path class="st0" d="M737,314.1h-2v-2.4c-0.9,1.7-2.6,2.8-4.5,2.7c-3.1,0-5.1-2.1-5.1-5.5v-9.8h2.1v9.3c0,2.6,1.4,4.2,3.5,4.2
			c2.3,0,3.9-1.9,3.9-4.4v-9h2.1V314.1z"/>
		<path class="st0" d="M767,314.1h-2v-2.4c-0.9,1.7-2.6,2.8-4.5,2.7c-3.1,0-5.1-2.1-5.1-5.5v-9.8h2.1v9.3c0,2.6,1.4,4.2,3.5,4.2
			c2.3,0,3.9-1.9,3.9-4.4v-9h2.1V314.1z M764.5,293.1l-2.9,4.5h-1.8l2.5-4.5H764.5z"/>
		<path class="st0" d="M797,299.1v15h-2v-2.4c-0.9,1.7-2.6,2.8-4.5,2.7c-3.1,0-5.1-2.1-5.1-5.5v-9.8h2.1v9.3c0,2.6,1.4,4.2,3.5,4.2
			c2.3,0,3.9-1.9,3.9-4.4v-9L797,299.1z M788.5,297.6h-1.8l3.5-4.5h2.4l3.5,4.5h-1.8l-2.9-3.4L788.5,297.6z"/>
		<path class="st0" d="M19,349.9h-2v-2.4c-0.9,1.7-2.6,2.8-4.6,2.7c-3.1,0-5.1-2.1-5.1-5.5V335h2.2v9.3c0,2.6,1.4,4.2,3.5,4.2
			c2.3,0,3.9-1.9,3.9-4.4v-9H19V349.9z M9.8,329h2.1v3.3H9.8V329z M14.9,329H17v3.3h-2.1V329z"/>
		<path class="st0" d="M49,349.9h-2v-2.4c-0.9,1.7-2.6,2.8-4.5,2.7c-3.1,0-5.1-2.1-5.1-5.5V335h2.1v9.3c0,2.6,1.4,4.2,3.5,4.2
			c2.3,0,3.9-1.9,3.9-4.4v-9H49V349.9z M40.2,328.9h2.2l2.5,4.5h-1.8L40.2,328.9z"/>
		<path class="st0" d="M79,349.9h-2v-2.4c-0.9,1.7-2.6,2.8-4.6,2.7c-3.1,0-5.1-2.1-5.1-5.5V335h2.1v9.3c0,2.6,1.4,4.2,3.5,4.2
			c2.3,0,3.9-1.9,3.9-4.4v-9H79V349.9z M73.5,328.9l-2.5,4.5h-1.5l2-4.5H73.5z M78.6,328.9l-2.5,4.5h-1.5l2-4.5H78.6z"/>
		<path class="st0" d="M109,349.9h-2v-2.4c-0.9,1.7-2.6,2.8-4.6,2.7c-3.1,0-5.1-2.1-5.1-5.5V335h2.1v9.3c0,2.6,1.4,4.2,3.5,4.2
			c2.3,0,3.9-1.9,3.9-4.4v-9h2.2V349.9z M107.4,331.9h-8.1v-1.5h8.1V331.9z"/>
		<path class="st0" d="M139,349.9h-2v-2.4c-0.9,1.7-2.6,2.8-4.6,2.7c-3.1,0-5.1-2.1-5.1-5.5V335h2.1v9.3c0,2.6,1.4,4.2,3.5,4.2
			c2.3,0,3.9-1.9,3.9-4.4v-9h2.2V349.9z M130.6,330.4c-0.1-1.5,1.1-2.8,2.6-2.9c1.5-0.1,2.8,1.1,2.9,2.6c0.1,1.5-1.1,2.8-2.6,2.9
			c0,0-0.1,0-0.1,0C131.9,333.1,130.7,331.9,130.6,330.4C130.6,330.5,130.6,330.5,130.6,330.4L130.6,330.4z M134.9,330.4
			c0-0.9-0.7-1.6-1.5-1.6c-0.9,0-1.6,0.7-1.6,1.5c0,0.9,0.7,1.6,1.5,1.6c0,0,0,0,0,0C134.2,332,134.9,331.3,134.9,330.4
			C134.9,330.5,134.9,330.5,134.9,330.4L134.9,330.4z"/>
		<path class="st0" d="M156.6,335h2.3l3.5,9.8c0.4,1,0.7,2,1,3c0.3-1,0.6-2,1-3l3.5-9.8h2.2l-5.7,15h-2.1L156.6,335z"/>
		<path class="st0" d="M186.6,335h2.3l2.8,9.1c0.3,0.9,0.5,1.7,0.9,3c0.4-1.3,0.6-2.1,0.9-3l2.9-9.1h1.9l2.9,9.1
			c0.3,0.9,0.6,1.8,0.9,3c0.3-1.3,0.6-2.1,0.9-3l2.9-9.1h2.1l-4.9,15h-1.9l-3.1-9.8c-0.2-0.8-0.5-1.6-0.8-2.7
			c-0.2,1-0.5,1.9-0.8,2.7l-3.1,9.8h-1.9L186.6,335z"/>
		<path class="st0" d="M224.6,335h2.3l2.8,9.1c0.3,0.9,0.5,1.7,0.9,3c0.4-1.3,0.6-2.1,0.9-3l2.9-9.1h1.9l2.9,9.1
			c0.3,0.9,0.6,1.8,0.9,3c0.3-1.3,0.6-2.1,0.9-3l2.9-9.1h2.2l-4.9,15h-1.9l-3.1-9.8c-0.2-0.8-0.5-1.6-0.8-2.7
			c-0.2,1-0.5,1.9-0.8,2.7l-3.1,9.8h-1.9L224.6,335z M238.5,329l-2.9,4.5h-1.8l2.5-4.5H238.5z"/>
		<path class="st0" d="M283.9,335l-4.9,15h-2l-3.1-9.8c-0.2-0.8-0.5-1.6-0.8-2.7c-0.2,1-0.5,1.9-0.8,2.7l-3.1,9.8h-2l-4.9-15h2.3
			l2.8,9.1c0.3,0.9,0.5,1.7,0.9,3c0.4-1.3,0.6-2.1,0.9-3l2.9-9.1h2l3,9.1c0.3,0.9,0.5,1.8,0.9,3c0.3-1.3,0.6-2.1,0.9-3l2.9-9.1
			L283.9,335z M270.3,333.5h-1.8l3.4-4.5h2.4l3.5,4.5h-1.8l-2.9-3.4L270.3,333.5z"/>
		<path class="st0" d="M300.5,335h2.3l2.8,9.1c0.3,0.9,0.5,1.7,0.9,3c0.4-1.3,0.6-2.1,0.9-3l2.9-9.1h2l3,9.1c0.3,0.9,0.5,1.8,0.9,3
			c0.3-1.3,0.6-2.1,0.9-3l2.9-9.1h2.1l-4.9,15h-2l-3.1-9.8c-0.2-0.8-0.5-1.6-0.8-2.7c-0.2,1-0.5,1.9-0.8,2.7l-3.1,9.8h-2L300.5,335z
			 M307.6,329h2.1v3.3h-2.1V329z M312.7,329h2.1v3.3h-2.1V329z"/>
		<path class="st0" d="M338.4,335h2.3l2.8,9.1c0.3,0.9,0.5,1.7,0.9,3c0.4-1.3,0.6-2.1,0.9-3l2.9-9.1h2l2.9,9.1
			c0.3,0.9,0.5,1.8,0.9,3c0.3-1.3,0.6-2.1,0.9-3l2.9-9.1h2.1l-4.9,15H353l-3.1-9.8c-0.2-0.8-0.5-1.6-0.8-2.7c-0.2,1-0.5,1.9-0.8,2.7
			l-3.1,9.8h-2L338.4,335z M345.9,329h2.2l2.5,4.5h-1.8L345.9,329z"/>
		<path class="st0" d="M387.2,349.9l-2.2-3.3c-0.6-1-1.3-2-1.9-3c-0.6,1.1-1.3,2.1-2,3l-2.2,3.3h-2.4l5.4-7.8l-5-7.2h2.5l2.2,3.3
			c0.5,0.8,1,1.6,1.5,2.5c0.5-0.9,1-1.7,1.5-2.5l2.2-3.3h2.4l-5,7.1l5.4,7.9H387.2z"/>
		<path class="st0" d="M407.8,354.1h1.2c1.4,0,2.1-0.6,2.7-2.4l0.9-2.5l-6.3-14.3h2.3l3.6,8.6c0.4,1,0.9,2.1,1.4,3.4
			c0.4-1.3,0.7-2.4,1.1-3.5l2.9-8.6h2.2l-6.4,17.6c-0.8,2.3-2.2,3.4-4.3,3.4h-1.3L407.8,354.1z"/>
		<path class="st0" d="M437.8,354.1h1.2c1.4,0,2.1-0.6,2.7-2.4l0.9-2.5l-6.3-14.3h2.3l3.6,8.6c0.4,1,0.9,2.1,1.4,3.4
			c0.4-1.3,0.7-2.4,1.1-3.5l2.9-8.6h2.2l-6.4,17.6c-0.8,2.3-2.2,3.4-4.3,3.4h-1.3L437.8,354.1z M446.4,329l-2.9,4.5h-1.8l2.5-4.5
			H446.4z"/>
		<path class="st0" d="M479.8,335l-6.4,17.6c-0.8,2.3-2.2,3.4-4.3,3.4h-1.3v-1.8h1.2c1.4,0,2.1-0.6,2.7-2.4l0.9-2.5l-6.3-14.4h2.3
			l3.6,8.6c0.4,1,0.9,2.1,1.4,3.4c0.4-1.3,0.7-2.4,1.1-3.5l2.9-8.6L479.8,335z M470.3,333.5h-1.8l3.5-4.5h2.4l3.5,4.5H476l-2.9-3.4
			L470.3,333.5z"/>
		<path class="st0" d="M497.8,354.1h1.2c1.4,0,2.1-0.6,2.7-2.4l0.9-2.5l-6.3-14.3h2.3l3.6,8.6c0.4,1,0.9,2.1,1.4,3.4
			c0.4-1.3,0.7-2.4,1.1-3.5l2.9-8.6h2.2l-6.4,17.6c-0.8,2.3-2.2,3.4-4.3,3.4h-1.3L497.8,354.1z M499.6,329h2.1v3.3h-2.1V329z
			 M504.7,329h2.1v3.3h-2.1V329z"/>
		<path class="st0" d="M527.8,354.1h1.2c1.4,0,2.1-0.6,2.7-2.4l0.9-2.5l-6.3-14.3h2.3l3.6,8.6c0.4,1,0.9,2.1,1.4,3.4
			c0.4-1.3,0.7-2.4,1.1-3.5l2.9-8.6h2.2l-6.3,17.6c-0.8,2.3-2.2,3.4-4.3,3.4h-1.3L527.8,354.1z M530,329h2.2l2.5,4.5h-1.8L530,329z"
			/>
		<path class="st0" d="M556.4,348.3l8.6-11.5h-8.6V335h11.2v1.6l-8.6,11.5h8.6v1.8h-11.2L556.4,348.3z"/>
		<path class="st0" d="M584.1,348.3l8.6-11.5h-8.6V335h11.2v1.6l-8.6,11.5h8.6v1.8h-11.2V348.3z M592.9,328.9l-2.9,4.5h-1.8l2.5-4.5
			H592.9z"/>
		<path class="st0" d="M623.1,336.6l-8.6,11.5h8.6v1.8h-11.2v-1.6l8.6-11.5h-8.6V335h11.2V336.6z M616.3,333.4l-3.5-4.5h1.8l2.9,3.4
			l2.8-3.4h1.8l-3.5,4.5H616.3z"/>
		<path class="st0" d="M639.6,348.3l8.6-11.5h-8.6V335h11.2v1.6l-8.6,11.5h8.6v1.8h-11.2V348.3z M644.2,329h2.1v3.3h-2.1V329z"/>
		<path class="st0" d="M19.4,415.6h-8.5l-2,6.1H6.7l7.2-21h2.8l7.2,21h-2.4L19.4,415.6z M18.7,413.6l-2.6-7.6c-0.3-1-0.7-2-1-3.4
			c-0.3,1.4-0.7,2.4-1,3.4l-2.6,7.6L18.7,413.6z"/>
		<path class="st0" d="M55.9,415.3v0.2c0,4-3,6.2-6.9,6.2h-6.8v-21h11.9v2.1h-9.7v6.2H49C52.9,409,55.9,411.2,55.9,415.3z
			 M53.7,415.4c0-2.9-2-4.4-4.8-4.4h-4.4v8.8h4.4C51.8,419.8,53.7,418.2,53.7,415.4z"/>
		<path class="st0" d="M88.1,415.7v0.2c0,3.7-3,5.8-6.7,5.8h-7v-21h6.7c3.5,0,6.3,2,6.3,5.5v0.2c0,1.9-1.1,3.7-2.8,4.4
			C86.7,411.4,88.2,413.5,88.1,415.7z M76.7,402.7v7.3H81c2.4,0,4.2-1.3,4.2-3.7s-1.9-3.7-4.2-3.7L76.7,402.7z M85.9,415.8
			c0-2.6-1.9-4-4.5-4h-4.7v8h4.7C84,419.8,85.9,418.4,85.9,415.8z"/>
		<path class="st0" d="M117.1,402.8H109v18.9h-2.2v-21h10.4L117.1,402.8z"/>
		<path class="st0" d="M133,419.8c1.5,0,2.4-0.5,2.8-4.3l1.7-14.7h10.8v19h1.8v4.3h-1.8v-2.2h-13.4v2.2H133V419.8z M138.5,419.8h7.6
			v-17.1h-6.6l-1.5,13.3c-0.2,2.2-0.7,3.4-1.6,4C137.1,419.8,137.8,419.8,138.5,419.8L138.5,419.8z"/>
		<path class="st0" d="M171.2,402.8v7.1h7.9v2h-7.9v7.7h9.4v2.1H169v-21h11.6v2.1L171.2,402.8z"/>
		<path class="st0" d="M224,421.7h-2.7l-7.8-10.5l-1.8,2.2v8.3h-2.2v-8.3l-1.8-2.2l-7.8,10.5h-2.7l8.9-12.2l-6.9-8.8h2.6l6.1,7.8
			c0.5,0.7,1.1,1.5,1.6,2.3v-10.1h2.2v10.1c0.5-0.8,1.1-1.6,1.6-2.3l6.1-7.8h2.6l-6.9,8.8L224,421.7z"/>
		<path class="st0" d="M255.3,415.6v0.2c0,3.8-3.1,6.2-7.5,6.2c-3.6,0-6.4-1.7-7.6-5.1l2.1-0.6c0.8,2.4,3,4,5.6,3.8
			c3.2,0,5.2-1.7,5.2-4.4s-1.9-3.9-4.4-3.9H246V410h2.4c2.4,0,4.3-1.1,4.3-3.5s-1.9-4.2-4.7-4.2c-2.5-0.1-4.7,1.6-5.4,4l-2.1-0.6
			c1-3.3,4.1-5.5,7.5-5.3c4.1,0,6.9,2.5,6.9,5.9v0.2c0,2.1-1.4,3.9-3.4,4.4C253.7,411.3,255.3,413.3,255.3,415.6z"/>
		<path class="st0" d="M289.7,421.7h-2.2v-17.6l-11.1,17.6H274v-21h2.2v17.6l11.1-17.6h2.4L289.7,421.7z"/>
		<path class="st0" d="M325.7,421.7h-2.2v-17.6l-11.1,17.6H310v-21h2.2v17.6l11.1-17.6h2.4L325.7,421.7z M313.2,397.1l1.6-0.5
			c0.4,1.7,2,2.7,3.7,2.3c1.2-0.3,2.1-1.2,2.3-2.3l1.6,0.5c-0.7,2.5-3.4,4-5.9,3.3C314.9,400,313.7,398.7,313.2,397.1z"/>
		<path class="st0" d="M346,400.7h2.2v10.1c0.5-0.8,1.1-1.6,1.6-2.3l6.1-7.8h2.5l-6.9,8.8l9,12.2h-2.7l-7.9-10.5l-1.8,2.2v8.3H346
			V400.7z"/>
		<path class="st0" d="M376.8,419.9h0.6c1.1,0,1.8-0.3,2-2.1l2-17h11.1v21h-2.2v-19h-6.9l-1.8,15.5c-0.3,2.6-1.8,3.5-3.6,3.5h-1.1
			L376.8,419.9z"/>
		<path class="st0" d="M430.7,421.7h-2.2v-17.5c-0.5,1-1.3,2.3-2.2,3.7l-4.6,7.6l-4.7-7.6c-0.9-1.4-1.6-2.7-2.2-3.8v17.5h-2.1v-21
			h2.4l6.6,10.9l6.6-10.9h2.4L430.7,421.7z"/>
		<path class="st0" d="M464.5,400.7v21h-2.2V412h-9v9.8H451v-21h2.2v9.1h9v-9.1L464.5,400.7z"/>
		<path class="st0" d="M483,411.4V411c0-6.9,3.8-10.7,8.5-10.7s8.5,3.8,8.5,10.7v0.5c0,6.9-3.8,10.7-8.5,10.7S483,418.3,483,411.4z
			 M497.8,411.4v-0.3c0-5.7-2.7-8.7-6.2-8.7s-6.2,3-6.2,8.7v0.3c0,5.7,2.7,8.7,6.2,8.7S497.7,417.1,497.8,411.4L497.8,411.4z"/>
		<path class="st0" d="M518.5,400.7H532v21h-2.2v-19h-9v19h-2.2L518.5,400.7z"/>
		<path class="st0" d="M565.2,406.5v0.2c0,3.7-2.6,5.8-6.4,5.8h-4.3v9.2h-2.2v-21h6.5C562.6,400.7,565.2,402.8,565.2,406.5z
			 M562.9,406.6c0-2.6-1.7-3.9-4.2-3.9h-4.2v7.9h4.2C561.2,410.5,562.9,409.2,562.9,406.6L562.9,406.6z"/>
		<path class="st0" d="M582,411.4V411c0-6.8,3.7-10.6,8.3-10.6c3.2,0,6.1,2.1,7.1,5.1l-2.1,0.6c-0.7-2.2-2.7-3.6-5-3.6
			c-3.4,0-6,3-6,8.5v0.3c0,5.6,2.6,8.5,6,8.5c2.3,0,4.3-1.5,5-3.6l2.1,0.6c-1,3.1-3.8,5.1-7.1,5.1C585.7,422,582,418.2,582,411.4z"
			/>
		<path class="st0" d="M627.8,402.8h-6v18.9h-2.2v-18.9h-6v-2.1h14.2V402.8z"/>
		<path class="st0" d="M648.1,419.6h1.5c1.4,0,2-0.6,2.6-2.1l0.5-1.2l-7.5-15.5h2.4l4.7,9.8c0.6,1.1,1.1,2.3,1.5,3.5
			c0.4-1.4,0.9-2.5,1.3-3.5l3.8-9.8h2.2l-7,17.6c-0.9,2.2-2.1,3.4-4.2,3.4h-1.8L648.1,419.6z"/>
		<path class="st0" d="M687.7,419.5h-0.6c-4.7,0-8.7-2.9-8.7-8V411c0-5.2,3.9-8,8.7-8h0.6v-2.2h2.2v2.2h0.6c4.7,0,8.7,2.9,8.7,8v0.5
			c0,5.2-3.9,8-8.7,8h-0.6v2.2h-2.2V419.5z M687.7,417.6v-12.8h-0.6c-3.5,0-6.4,2-6.4,6.2v0.4c0,4.2,2.9,6.2,6.4,6.2L687.7,417.6z
			 M690.5,417.6c3.5,0,6.4-2,6.4-6.2v-0.3c0-4.3-2.9-6.2-6.4-6.2h-0.6v12.8H690.5z"/>
		<path class="st0" d="M723.1,410.6l-6.3-9.9h2.5l3.3,5.2c0.8,1.2,1.4,2.3,1.8,3.1c0.5-0.8,1.1-1.8,1.9-3.1l3.3-5.2h2.4l-6.3,9.8
			l7.2,11.2h-2.5l-4.2-6.5c-0.8-1.2-1.4-2.3-1.8-3.1c-0.5,0.8-1.1,1.8-1.9,3.1l-4.2,6.5h-2.4L723.1,410.6z"/>
		<path class="st0" d="M751,407.2v-6.5h2.2v6.1c0,3.4,1.1,5.3,4.7,5.3h4.1v-11.4h2.2v21H762v-7.5h-4.6
			C752.9,414.2,751,411.6,751,407.2z"/>
		<path class="st0" d="M797.5,421.7h-13.1v-21h2.2v19h9v-19h2.2v19h1.4v4.3h-1.8L797.5,421.7z"/>
		<path class="st0" d="M8.5,436.6h2.2v19H19v-19h2.2v19h8.2v-19h2.2v21H8.5V436.6z"/>
		<path class="st0" d="M74.8,457.6H52v-21h2.2v19h8.2v-19h2.2v19H73v-19h2.2v19h1.4v4.2h-1.8L74.8,457.6z"/>
		<path class="st0" d="M109.9,451v0.2c0,4.1-3,6.4-7,6.4h-7.5v-21h2.2v8.1h5.2C106.9,444.7,109.9,446.9,109.9,451z M107.7,451.1
			c0-3-2-4.5-4.9-4.5h-5v9h5C105.7,455.6,107.7,454.1,107.7,451.1L107.7,451.1z"/>
		<path class="st0" d="M143.7,451v0.2c0,4.1-3,6.4-7,6.4h-7.4v-19h-2.5v-2h4.7v8.1h5.2C140.6,444.7,143.7,446.9,143.7,451z
			 M141.4,451.1c0-3-2-4.5-4.9-4.5h-5v9h5C139.5,455.6,141.4,454.1,141.4,451.1L141.4,451.1z"/>
		<path class="st0" d="M176.7,451v0.2c0,4.1-3,6.4-7,6.4h-7.4v-21h2.2v8.1h5.2C173.6,444.7,176.7,446.9,176.7,451z M174.4,451.1
			c0-3-2-4.5-4.9-4.5h-5v9h5C172.5,455.6,174.4,454.1,174.4,451.1L174.4,451.1z M183.1,436.6v21h-2.2v-21H183.1z"/>
		<path class="st0" d="M201,452.8l2.1-0.6c0.7,2.3,2.8,3.8,5.2,3.8c3.5,0,5.8-3.1,5.9-8.2h-8.1v-1.9h8.1c-0.3-4.9-2.8-7.6-5.9-7.6
			c-2.4,0-4.5,1.5-5.2,3.8l-2.1-0.6c1-3.1,4-5.3,7.3-5.3c4.5,0,8.1,3.9,8.1,10.7v0.5c0,6.8-3.6,10.7-8.1,10.7
			C205,458.1,202,455.9,201,452.8z"/>
		<path class="st0" d="M258.6,446.9v0.5c0,6.9-3.8,10.7-8.5,10.7s-8.3-3.6-8.5-10.2h-4.6v9.8h-2.2v-21h2.2v9.1h4.6
			c0.4-6.2,4-9.6,8.5-9.6C254.9,436.1,258.6,440,258.6,446.9z M256.4,446.9c0-5.7-2.7-8.7-6.2-8.7s-6.2,3-6.2,8.7v0.3
			c0,5.7,2.7,8.7,6.2,8.7s6.2-3,6.2-8.7V446.9z"/>
		<path class="st0" d="M289.9,457.6h-2.2v-9.9h-2.2l-7.6,9.9h-2.5l7.6-9.9h-0.1c-3.4,0-6-2-6-5.5v-0.1c0-3.5,2.6-5.5,6-5.5h7.1
			V457.6z M287.6,445.9v-7.4h-4.7c-2.3,0-3.9,1.4-3.9,3.7s1.6,3.7,3.9,3.7L287.6,445.9z"/>
		<path class="st0" d="M7.1,525.5v-0.2c0-2.5,1.8-4.5,5.5-4.5H17v-1.2c0-2.4-1.3-3.8-3.6-3.8c-1.7-0.1-3.3,1-3.9,2.7L7.6,518
			c0.9-2.5,3.3-4.1,5.9-4c3.5,0,5.5,2.1,5.5,5.4v9.9h-2V527c-1.1,1.7-3,2.8-5.1,2.7C9.1,529.7,7.1,528,7.1,525.5z M17,523.5v-1.3
			h-4.1c-2.4,0-3.7,1.3-3.7,3s1.4,2.8,3.2,2.8c2.4,0.1,4.4-1.8,4.5-4.2C17,523.7,17,523.6,17,523.5L17,523.5z"/>
		<path class="st0" d="M37.4,522.3v-4.5c0-5.4,2.5-8.2,7-9l4.9-1v1.9l-4.9,1c-3.3,0.7-5.1,2.9-5.1,7v0.5c0.7-2.2,2.8-3.6,5.1-3.5
			c3.4,0,6.3,2.5,6.3,7.2v0.5c0,4.8-2.8,7.5-6.7,7.5S37.4,527.2,37.4,522.3z M48.6,522.2v-0.2c0-3.7-1.9-5.7-4.5-5.7
			s-4.6,2.1-4.6,5.7v0.2c0,3.7,2,5.8,4.6,5.8S48.6,526,48.6,522.2L48.6,522.2z"/>
		<path class="st0" d="M80.8,525.1c0,2.2-1.5,4.3-5.2,4.3h-7.1v-15h6.6c3.4,0,4.8,1.9,4.8,3.9c0.1,1.3-0.7,2.5-1.8,3.1
			C79.7,521.8,80.8,523.3,80.8,525.1z M70.5,520.8h4.3c2.2,0,3.1-1.1,3.1-2.5s-0.9-2.4-3-2.4h-4.4V520.8z M78.7,525
			c0-1.6-1.1-2.8-3.5-2.8h-4.7v5.7h4.7C77.6,527.8,78.7,526.6,78.7,525z"/>
		<path class="st0" d="M106.2,516.2h-5.7v13.2h-2.1v-15h7.8V516.2z"/>
		<path class="st0" d="M136.9,527.5v4.1h-1.8v-2.2h-10.8v2.2h-1.8v-4h0.5c0.7,0,1.3-0.5,1.4-1.8l0.8-11.3h10.4v13.2L136.9,527.5z
			 M133.4,527.5V516h-6.3l-0.7,10.2c0,0.5-0.1,0.9-0.3,1.4L133.4,527.5z"/>
		<path class="st0" d="M160.5,529.8c-3.8,0-6.8-2.8-6.8-7.8v-0.3c0-5,2.9-7.8,6.6-7.8s6.6,2.8,6.6,7.8v0.6h-11.2
			c0.1,3.5,2,5.8,4.8,5.8c1.7,0,3.3-1,4-2.6l2,0.4C165.6,528.3,163.1,529.9,160.5,529.8z M164.9,520.9c-0.2-3.5-2.2-5.3-4.5-5.3
			s-4.3,1.8-4.5,5.3H164.9z"/>
		<path class="st0" d="M189.9,520.6l-6-6.2h2.6l6.9,7.2c-0.2-1.3-0.3-2.6-0.2-3.8v-3.4h2.2v3.4c0,1.3-0.1,2.6-0.2,3.8l6.9-7.2h2.6
			l-6,6.2l6.4,8.8h-2.5l-5.4-7.4l-1.9,1.9v5.5h-2v-5.5l-1.9-1.9l-5.4,7.4h-2.5L189.9,520.6z"/>
		<path class="st0" d="M233.8,525.2c0,2.6-2.5,4.6-6.1,4.6c-3.3,0-5.6-1.5-6.7-4.5l2-0.4c0.7,2,2.6,3.2,4.7,3c2.5,0,4-1.2,4-3
			c0-1.5-1-2.5-3.4-2.5h-2.7v-1.5h2.6c1.9,0,3.1-0.7,3.1-2.3s-1.2-3.2-3.9-3.2c-2-0.1-3.8,1.1-4.5,3l-1.9-0.4c1-2.8,3.6-4.6,6.6-4.5
			c3.7,0,5.8,2.1,5.8,4.7c0,1.4-0.9,2.6-2.2,3.2C232.8,522.1,233.8,523.6,233.8,525.2z"/>
		<path class="st0" d="M264.5,529.4h-2.1v-12.1l-8.5,12.1h-2.2v-15h2.1v12.1l8.5-12.1h2.2V529.4z"/>
		<path class="st0" d="M296,529.4h-2.1v-12.1l-8.5,12.1h-2.2v-15h2.1v12.1l8.5-12.1h2.2V529.4z M285,509.3l1.6-0.5
			c0.4,1.7,2,2.7,3.7,2.3c1.2-0.3,2.1-1.2,2.3-2.3l1.6,0.5c-0.7,2.5-3.4,4-5.9,3.3C286.7,512.1,285.5,510.9,285,509.3z"/>
		<path class="st0" d="M314.7,514.4h2.1v3.4c0,1.3-0.1,2.6-0.2,3.8l7-7.2h2.6l-6,6.2l6.5,8.8H324l-5.5-7.4l-1.9,1.9v5.5h-2
			L314.7,514.4z"/>
		<path class="st0" d="M342.5,527.6h0.4c0.8,0,1.3-0.4,1.4-1.8l0.8-11.3h10.1v15h-2.1V516h-6l-0.7,10.2c-0.1,2.4-1.5,3.2-2.9,3.2h-1
			V527.6z"/>
		<path class="st0" d="M373.9,514.4h2.1l5,7.2l5.1-7.2h2.1v15h-2.1v-11.8c-0.5,0.9-1,1.5-1.5,2.3l-3.6,5.1l-3.7-5.1
			c-0.5-0.7-1-1.5-1.5-2.2v11.8h-2L373.9,514.4z"/>
		<path class="st0" d="M418.2,514.4v15h-2.1v-7H409v7h-2.1v-15h2.1v6.3h7.1v-6.3H418.2z"/>
		<path class="st0" d="M436,522v-0.3c0-5,3-7.8,6.6-7.8s6.6,2.8,6.6,7.8v0.3c0,5-3,7.8-6.6,7.8S436,527,436,522z M447.1,521.9v-0.2
			c0-4-2-6.1-4.5-6.1s-4.5,2.1-4.5,6.1v0.2c0,4,2,6.1,4.5,6.1S447.1,525.9,447.1,521.9L447.1,521.9z"/>
		<path class="st0" d="M466.9,514.4h11.3v15h-2.1v-13.2H469v13.2h-2.1L466.9,514.4z"/>
		<path class="st0" d="M496.9,514.4h1.9v2.8c0.9-1.9,2.8-3.1,4.9-3c3.3,0,6.2,2.5,6.2,7.5v0.6c0,5-2.9,7.5-6.2,7.5
			c-2,0.1-3.9-1.1-4.8-3v8.7h-2.1L496.9,514.4z M507.9,521.9v-0.2c0-3.8-2-5.9-4.5-5.9s-4.4,2.1-4.4,5.9v0.2c0,3.9,2,5.9,4.4,5.9
			S507.9,525.8,507.9,521.9L507.9,521.9z"/>
		<path class="st0" d="M526.7,522v-0.3c0-4.9,3-7.7,6.5-7.7c2.7,0,5.1,1.8,5.9,4.4l-2,0.4c-0.5-1.7-2.1-3-3.9-3
			c-2.4,0-4.4,2-4.4,5.9v0.2c0,3.9,2,5.9,4.4,5.9c1.8,0,3.4-1.3,3.9-3l2,0.4c-0.7,2.6-3.1,4.5-5.9,4.4
			C529.7,529.7,526.7,527,526.7,522z"/>
		<path class="st0" d="M566.8,516.2h-4.7v13.2H560v-13.2h-4.7v-1.8h11.5L566.8,516.2z"/>
		<path class="st0" d="M585.1,533.5h1.1c1.4,0,2.1-0.7,2.7-2.3l0.9-2.5l-6.2-14.3h2.3l3.6,8.7c0.4,1,0.9,2.1,1.4,3.4
			c0.4-1.3,0.7-2.4,1.1-3.5l2.9-8.6h2.2l-6.3,17.6c-0.8,2.3-2.2,3.4-4.3,3.4h-1.3L585.1,533.5z"/>
		<path class="st0" d="M633.7,521.7v0.3c0,4.7-3.3,7.3-8,7.3h-1v6h-2.1v-6h-1c-4.7,0-8-2.7-8-7.3v-0.3c0-4.7,3.3-7.3,8-7.3h1v-6h2.1
			v6h1C630.4,514.4,633.7,517,633.7,521.7z M622.7,527.6v-11.4h-1c-3.5,0-5.9,2-5.9,5.6v0.2c0,3.7,2.4,5.6,5.9,5.6L622.7,527.6z
			 M631.7,521.8c0-3.7-2.4-5.6-5.9-5.6h-1v11.4h1c3.5,0,5.9-2,5.9-5.6V521.8z"/>
		<path class="st0" d="M661.2,529.4l-2.2-3.3c-0.7-1-1.3-2-1.9-3c-0.7,1.1-1.3,2.1-2,3l-2.2,3.3h-2.3l5.4-7.8l-5-7.2h2.5l2.2,3.3
			c0.5,0.8,1,1.6,1.5,2.5c0.5-0.9,1-1.7,1.5-2.5l2.2-3.3h2.3l-5,7.2l5.4,7.8H661.2z"/>
		<path class="st0" d="M690.6,524.3h-4.4c-3.6,0-5.1-2.1-5.1-4.7v-5.2h2.1v5.4c0,1.7,1,3,3.4,3h4v-8.4h2.1v15h-2.1L690.6,524.3z"/>
		<path class="st0" d="M722.4,529.4h-11v-15h2.1v13.3h7.1v-13.3h2.1v13.3h1.3v3.9h-1.7L722.4,529.4z"/>
		<path class="st0" d="M741.4,514.4h2.1v13.3h6.6v-13.3h2.1v13.3h6.6v-13.3h2.1v15h-19.6V514.4z"/>
		<path class="st0" d="M798.9,529.4h-19.2v-15h2.1v13.3h6.6v-13.3h2.1v13.3h6.6v-13.3h2.1v13.3h1.3v3.9h-1.7L798.9,529.4z"/>
		<path class="st0" d="M14.1,565.2H7.7v-15h2v5.4h4.4c3.9,0,5.5,2.1,5.5,4.8S18,565.2,14.1,565.2z M13.7,557.2h-4v6.5h4
			c2.6,0,3.8-1.2,3.8-3.3S16.3,557.2,13.7,557.2L13.7,557.2z"/>
		<path class="st0" d="M38.5,552h-2.2v-1.8h4.2v5.4h4.4c3.9,0,5.5,2.1,5.5,4.8s-1.6,4.8-5.5,4.8h-6.4L38.5,552z M44.5,563.7
			c2.5,0,3.8-1.2,3.8-3.3s-1.2-3.3-3.8-3.3h-4v6.5L44.5,563.7z"/>
		<path class="st0" d="M74.8,565.2h-6.4v-15h2v5.4h4.4c3.9,0,5.5,2.1,5.5,4.8S78.7,565.2,74.8,565.2z M74.5,557.2h-4v6.5h4
			c2.6,0,3.8-1.2,3.8-3.3S77,557.2,74.5,557.2L74.5,557.2z M84.1,550.3h2.1v15h-2.1V550.3z"/>
		<path class="st0" d="M103.6,561.2l1.9-0.4c0.6,1.8,2.4,3.1,4.3,3c2.7,0,4.6-2,4.7-5.4h-6.3V557h6.3c-0.1-3.4-2-5.4-4.7-5.4
			c-1.9-0.1-3.7,1.2-4.3,3l-1.9-0.4c0.9-2.7,3.4-4.5,6.2-4.5c3.7,0,6.7,2.8,6.7,7.8v0.3c0,5-3,7.8-6.7,7.8
			C107,565.7,104.5,563.9,103.6,561.2z"/>
		<path class="st0" d="M153.3,557.6v0.3c0,5-2.9,7.8-6.6,7.8s-6.5-2.7-6.6-7.4h-3.7v7h-2.1v-15h2.1v6.3h3.7c0.4-4.4,3.1-6.8,6.6-6.8
			C150.4,549.8,153.3,552.6,153.3,557.6z M151.2,557.7c0-4-2-6.1-4.5-6.1s-4.5,2.1-4.5,6.1v0.2c0,4,2,6.1,4.5,6.1s4.5-2.1,4.5-6.1
			V557.7z"/>
		<path class="st0" d="M182.3,550.2v15h-2v-6.4H177l-5.1,6.4h-2.2l5.2-6.5c-3.1-0.3-4.4-2.2-4.4-4.2c0-2.2,1.5-4.3,5.2-4.3H182.3z
			 M180.3,551.8h-4.2c-2.4,0-3.5,1.2-3.5,2.8s1.1,2.8,3.5,2.8h4.2V551.8z"/>
		<path class="st0" d="M21.7,626v1c0,7-3.3,10.3-7.2,10.3s-7.2-3.2-7.2-10.3v-1c0-7,3.3-10.3,7.2-10.3S21.7,619,21.7,626z
			 M9.5,626.9c0,0.7,0,1.3,0.1,2l9.7-6.5c-0.8-3.4-2.6-4.9-4.7-4.9c-2.8,0-5.1,2.5-5.1,8.6V626.9z M19.6,626.1c0-0.7,0-1.3-0.1-2
			l-9.7,6.5c0.8,3.4,2.6,4.9,4.7,4.9c2.8,0,5.1-2.5,5.1-8.6V626.1z"/>
		<path class="st0" d="M39.8,627v-1c0-7,3.3-10.3,7.2-10.3s7.2,3.3,7.2,10.3v1c0,7-3.3,10.3-7.2,10.3S39.8,634.1,39.8,627z
			 M51.9,626.9v-0.8c0-5.9-2.2-8.4-4.9-8.4s-5,2.5-5,8.4v0.8c0,5.9,2.2,8.4,4.9,8.4S51.9,632.8,51.9,626.9L51.9,626.9z"/>
		<path class="st0" d="M73,635.2h5.7v-13.5c0-1.3,0-2.6,0-3.7c-0.9,0.8-1.8,1.4-2.7,2l-2.6,1.8v-2.2l5.3-3.6h2v19.2h4.8v1.8H73
			V635.2z"/>
		<path class="st0" d="M108.9,621.7c0-1.3,0-2.6,0-3.7c-0.8,0.7-1.7,1.4-2.7,2l-1.9,1.2v-2.2l4.6-3.1h2v21h-2.1L108.9,621.7z"/>
		<path class="st0" d="M131.4,635.3l8.6-8.8c1.8-1.8,2.5-3.1,2.5-4.6v-0.1c0.1-2.2-1.7-4.1-3.9-4.2c-0.1,0-0.2,0-0.4,0
			c-2.4,0-4.4,1.7-4.6,4.7l-2.1-0.4c0.1-3.6,3.1-6.4,6.7-6.3c3.4,0,6.4,2.2,6.4,6v0.2c0,2-1,3.7-3.2,6l-4.7,4.8
			c-0.9,1-1.7,1.7-2.6,2.5c1.1-0.1,1.9-0.1,3-0.1h7.8v2h-13.5V635.3z"/>
		<path class="st0" d="M177.6,630.6v0.2c0,4.2-3.2,6.6-7.1,6.6c-3.2,0.1-6.1-1.9-7-5l2.1-0.4c0.6,2.2,2.7,3.7,4.9,3.6
			c2.6,0.1,4.8-1.9,4.9-4.5c0-0.1,0-0.3,0-0.4v-0.1c0.1-2.4-1.7-4.5-4.1-4.7c-0.2,0-0.3,0-0.5,0c-1,0-2.1,0.3-2.9,0.9l-1.2-1.2
			l4.9-5.3c0.9-1,1.6-1.7,2.4-2.5c-1,0.1-2,0.1-3,0.1h-6.4v-2h11.7v1.8l-5.3,5.7c-0.3,0.3-0.6,0.7-1,1c0.4-0.1,0.7-0.1,1.1-0.1
			C174.8,624.5,177.6,626.7,177.6,630.6z"/>
		<path class="st0" d="M205.7,631.9h-9.8v-1.7l9.2-14.2h2.4l-9.2,14.1h7.4V625h1.9v5.1h2.3v1.8h-2.3v5.1h-1.9L205.7,631.9z"/>
		<path class="st0" d="M228.3,632.5l2.1-0.4c0.6,2.2,2.7,3.7,4.9,3.6c2.7,0,4.9-1.9,4.9-5.2v-0.1c0-3.3-2.1-5-4.6-5
			c-1.7,0-3.4,0.9-4.2,2.4l-1.6-0.3V616H241v2h-9.2v5c0,0.8,0,1.6,0,2.5c1.1-1.3,2.6-2,4.3-1.9c3.5,0,6.5,2.3,6.5,6.7v0.3
			c0.1,3.7-2.8,6.9-6.6,7c-0.2,0-0.4,0-0.6,0C232.1,637.6,229.2,635.6,228.3,632.5z"/>
		<path class="st0" d="M260.6,630.6v-0.2c0-3.2,1.9-5.6,3.1-7.2l5.4-7.1h2.5l-2.9,3.8c-1.1,1.5-2.3,3.1-3.8,4.8
			c0.9-0.8,2-1.1,3.2-1.1c3.6-0.1,6.6,2.7,6.7,6.3c0,0.2,0,0.3,0,0.5v0.2c0,3.9-3.1,7.1-7.1,7.1
			C263.9,637.7,260.7,634.5,260.6,630.6L260.6,630.6z M272.8,630.5L272.8,630.5c0-2.9-2.2-5.1-5-5.1s-5,2.2-5,5v0.1c0,2.8,2.2,5,5,5
			S272.8,633.3,272.8,630.5z"/>
		<path class="st0" d="M304.5,617.9c-1,0-2,0-2.9,0h-8.2V616h13.5v1.7l-8.9,19.3h-2.4L304.5,617.9z"/>
		<path class="st0" d="M325.4,631.3V631c0-2.4,1.5-4.6,3.9-5.3c-1.8-0.7-3-2.5-3-4.5V621c0-3.4,3-5.4,6.3-5.4s6.3,2,6.3,5.4v0.2
			c0,2-1.2,3.7-3,4.5c2.3,0.8,3.9,2.9,3.9,5.3v0.2c0,4-3.4,6.1-7.1,6.1S325.4,635.2,325.4,631.3z M337.4,631.1V631
			c0-2.9-2.4-4.5-4.9-4.5s-4.9,1.5-4.9,4.5v0.1c0,3,2.4,4.4,4.9,4.4S337.5,634.1,337.4,631.1L337.4,631.1z M336.7,621.3L336.7,621.3
			c0-2.5-2-3.8-4.2-3.8s-4.2,1.3-4.2,3.7v0.1c0,2.5,2,3.8,4.2,3.8S336.8,623.8,336.7,621.3L336.7,621.3z"/>
		<path class="st0" d="M363.9,633.2c1.1-1.5,2.3-3.1,3.8-4.8c-0.9,0.7-2,1.1-3.2,1.1c-3.6,0.1-6.6-2.7-6.7-6.3c0-0.2,0-0.3,0-0.5
			v-0.2c-0.1-3.8,2.9-6.9,6.6-7c0.2,0,0.3,0,0.5,0c3.8,0,7.1,2.5,7.1,6.8v0.2c0,3.2-1.9,5.6-3.1,7.3l-5.3,7.1h-2.5L363.9,633.2z
			 M369.9,622.6L369.9,622.6c0.2-2.8-1.9-5.1-4.6-5.2c-0.1,0-0.3,0-0.4,0c-2.7,0-5,2.1-5,4.9c0,0.1,0,0.2,0,0.3v0.1c0,2.8,2.2,5,5,5
			S369.9,625.4,369.9,622.6L369.9,622.6z"/>
		<path class="st0" d="M13.6,687.8h2L2,708.8H0L13.6,687.8z"/>
		<path class="st0" d="M43,693.8l2.6,3.6l-1.3,1l-2.6-3.6l-2.6,3.6l-1.3-0.9l2.6-3.6l-4.2-1.3l0.5-1.5l4.2,1.4v-4.5h1.6v4.5l4.2-1.4
			l0.5,1.5L43,693.8z"/>
		<path class="st0" d="M71.6,714.8h-2l-5.8-27h1.9L71.6,714.8z"/>
		<path class="st0" d="M89.6,699.5h2.1v3.6h-2.1V699.5z"/>
		<path class="st0" d="M113.7,701.3c0-2.4,1.9-4.4,4.3-4.4s4.4,1.9,4.4,4.3c0,2.4-1.9,4.4-4.3,4.4c0,0,0,0,0,0
			C115.7,705.7,113.7,703.7,113.7,701.3C113.7,701.3,113.7,701.3,113.7,701.3z"/>
		<path class="st0" d="M144.9,694.5h2.1v3.6h-2.1V694.5z M144.9,704.4h2.1v3.6h-2.1V704.4z"/>
		<path class="st0" d="M169.2,705.2v5c0,1.5-0.9,2.3-2.6,2.3v-1.2c0.8,0,1.2-0.3,1.2-1.2v-1.7h-0.7v-3.3L169.2,705.2z"/>
		<path class="st0" d="M190.8,705.2h2.1v3.6h-2.1V705.2z M202.8,705.2h2.1v3.6h-2.1V705.2z M214.8,705.2h2.1v3.6h-2.1V705.2z"/>
		<path class="st0" d="M241.2,692.3v-4.5h2.1v4.5l-0.1,9.9h-1.9L241.2,692.3z M241.2,705.2h2.1v3.6h-2.1V705.2z"/>
		<path class="st0" d="M269.7,691.4h-2.1v-3.6h2.1V691.4z M269.7,704.3v4.5h-2.1v-4.5l0.1-9.9h2L269.7,704.3z"/>
		<path class="st0" d="M314,695.4l-1.2,5.8h3.3l-0.4,1.7h-3.3l-1.2,5.9h-1.9l1.2-5.9h-5.5l-1.2,5.9H302l1.2-5.9H300l0.4-1.7h3.3
			l1.2-5.8h-3.3l0.4-1.7h3.3l1.2-5.9h1.9l-1.2,5.9h5.5l1.2-5.9h1.9l-1.2,5.9h3.3l-0.4,1.7H314z M312.1,695.4h-5.5l-1.2,5.8h5.5
			L312.1,695.4z"/>
		<path class="st0" d="M335.1,705.2h2.1v3.6h-2.1V705.2z"/>
		<path class="st0" d="M360.6,697c1.1-1.1,2.5-2.5,2.5-4.2v-0.1c0-1.8-1.4-3.4-3.2-3.4c-0.1,0-0.2,0-0.4,0c-1.3,0-2.6,0.5-3.6,1.3
			l-0.4-2c1.2-0.9,2.7-1.3,4.2-1.3c3.5,0,5.5,2.2,5.5,5.2v0.2c0,2.2-1.6,3.8-2.8,5.1s-2,2.2-1.6,4.3h-2
			C358.3,699.5,359.3,698.3,360.6,697z M358.8,705.2h2.1v3.6h-2.1V705.2z"/>
		<path class="st0" d="M385.5,705.6c-1.1,1.1-2.5,2.5-2.5,4.2v0.1c0,1.8,1.4,3.4,3.2,3.4c0.1,0,0.2,0,0.4,0c1.3,0,2.6-0.5,3.6-1.3
			l0.4,2c-1.2,0.9-2.7,1.3-4.2,1.3c-3.5,0-5.5-2.2-5.5-5.2v-0.2c0-2.2,1.6-3.8,2.8-5.1s2-2.2,1.6-4.3h2
			C387.8,703.1,386.7,704.3,385.5,705.6z M387.3,697.4h-2.1v-3.6h2.1V697.4z"/>
		<path class="st0" d="M408.9,687.8h2.1l-0.5,7.3h-1.2L408.9,687.8z M414.3,687.8h2.1l-0.5,7.3h-1.2L414.3,687.8z"/>
		<path class="st0" d="M435.3,687.8h2.1l-0.5,7.3h-1.2L435.3,687.8z"/>
		<path class="st0" d="M457.5,704.4h2.1v5c0,1.5-0.9,2.3-2.6,2.3v-1.2c0.8,0,1.2-0.3,1.2-1.2v-1.7h-0.7V704.4z M459.6,694.5v3.6
			h-2.1v-3.6H459.6z"/>
		<path class="st0" d="M485.8,687.8l-5.9,27h-2l5.9-27H485.8z"/>
		<path class="st0" d="M507.7,704.3h4.2v4.5h-4.2V704.3z"/>
		<path class="st0" d="M533.1,711h18.3v1.7h-18.3V711z"/>
		<path class="st0" d="M565.5,711h18.3v1.7h-18.3V711z"/>
		<path class="st0" d="M608.1,689.3h-1.3c-1.6,0-2.5,0.8-2.5,3v5c0,2.3-0.8,3.5-2.5,4c1.7,0.5,2.5,1.7,2.5,4v5c0,2.2,1,3,2.5,3h1.3
			v1.5h-1.8c-2.3,0-4.1-1.2-4.1-4.2v-5.5c0-1.9-0.8-2.9-2.5-2.9h-0.9v-1.6h0.9c1.7,0,2.5-1,2.5-2.9V692c0-3.1,1.5-4.2,4.1-4.2h1.8
			L608.1,689.3z"/>
		<path class="st0" d="M626.4,713.2h1.3c1.6,0,2.5-0.8,2.5-3v-5c0-2.3,0.8-3.5,2.5-4c-1.7-0.5-2.5-1.7-2.5-4v-5c0-2.2-1-3-2.5-3
			h-1.3v-1.5h1.8c2.3,0,4.1,1.2,4.1,4.2v5.5c0,1.9,0.8,2.9,2.5,2.9h0.9v1.6h-0.9c-1.7,0-2.5,1-2.5,2.9v5.6c0,3.1-1.5,4.2-4.1,4.2
			h-1.8L626.4,713.2z"/>
		<path class="st0" d="M660.9,689.3h-4.6v23.9h4.6v1.5h-6.7v-27h6.6L660.9,689.3z"/>
		<path class="st0" d="M679.2,713.2h4.6v-23.9h-4.6v-1.5h6.7v27h-6.6L679.2,713.2z"/>
		<path class="st0" d="M708.3,701.3c-0.1,4.9,1.6,9.8,4.8,13.5h-2c-2.5-2.7-4.8-7.2-4.8-13.5s2.3-10.9,4.8-13.5h2
			C709.9,691.5,708.2,696.3,708.3,701.3z"/>
		<path class="st0" d="M737.3,701.3c0.1-4.9-1.6-9.8-4.8-13.5h2c2.5,2.7,4.8,7.2,4.8,13.5s-2.3,10.9-4.8,13.5h-2
			C735.8,711,737.5,706.2,737.3,701.3z"/>
		<path class="st0" d="M757.2,700.4h34.5v1.8h-34.5V700.4z"/>
		<path class="st0" d="M6.3,736.3h16.5v1.7H6.3V736.3z"/>
		<path class="st0" d="M39.2,736.3h6.6v1.8h-6.6V736.3z"/>
		<path class="st0" d="M64.8,737.2l4.9,6h-2.2l-4.9-6l4.9-6h2.2L64.8,737.2z M69.9,737.2l4.9,6h-2.2l-4.9-6l4.9-6h2.2L69.9,737.2z"
			/>
		<path class="st0" d="M96.6,737.2l-4.9-6h2.2l4.9,6l-4.9,6h-2.2L96.6,737.2z M101.7,737.2l-4.9-6H99l4.9,6l-4.9,6h-2.2L101.7,737.2
			z"/>
		<path class="st0" d="M123,737.2l4.9,6h-2.2l-4.9-6l4.9-6h2.2L123,737.2z"/>
		<path class="st0" d="M149.7,737.2l-4.9-6h2.2l4.9,6l-4.9,6h-2.2L149.7,737.2z"/>
		<path class="st0" d="M169.8,741.1h2.1v5c0,1.5-0.9,2.3-2.6,2.3v-1.2c0.8,0,1.2-0.3,1.2-1.2v-1.7h-0.7V741.1z M177.3,741.1v5
			c0,1.5-0.9,2.3-2.6,2.3v-1.2c0.8,0,1.2-0.3,1.2-1.2v-1.7h-0.7V741L177.3,741.1z"/>
		<path class="st0" d="M198.8,723.7v1.2c-0.8,0-1.2,0.3-1.2,1.2v1.7h0.7v3.3h-2.1v-5C196.2,724.5,197.1,723.7,198.8,723.7z M203,726
			v1.7h0.7v3.3h-2.1v-5c0-1.5,0.9-2.3,2.6-2.3v1.2C203.3,724.9,203,725.2,203,726z"/>
		<path class="st0" d="M222.6,723.7h2.1v5c0,1.5-0.9,2.3-2.6,2.3v-1.2c0.8,0,1.2-0.3,1.2-1.2V727h-0.7V723.7z M230.1,723.7v5
			c0,1.5-0.9,2.3-2.6,2.3v-1.2c0.8,0,1.2-0.3,1.2-1.2V727H228v-3.3L230.1,723.7z"/>
		<path class="st0" d="M250.4,726v1.7h0.7v3.3H249v-5c0-1.5,0.9-2.3,2.6-2.3v1.2C250.8,724.9,250.4,725.2,250.4,726z"/>
		<path class="st0" d="M272.1,723.7v5c0,1.5-0.9,2.3-2.6,2.3v-1.2c0.8,0,1.2-0.3,1.2-1.2V727H270v-3.3L272.1,723.7z"/>
		<path class="st0" d="M293.1,741.1v5c0,1.5-0.9,2.3-2.6,2.3v-1.2c0.8,0,1.2-0.3,1.2-1.2v-1.7H291V741L293.1,741.1z"/>
		<path class="st0" d="M323.3,737.2l2,0.4c-0.6,2.4-2.6,4.1-5.1,4.4v2.8h-1.6v-2.8c-3.1-0.4-5.7-3-5.7-7.6V734
			c0-4.5,2.5-7.2,5.7-7.6v-2.8h1.6v2.8c2.4,0.3,4.4,2,5.1,4.4l-2,0.4c-0.4-1.5-1.6-2.6-3.1-3v11.9
			C321.6,739.7,322.8,738.6,323.3,737.2z M318.5,740.1v-11.9c-2,0.4-3.6,2.4-3.6,5.8v0.2C315,737.7,316.5,739.7,318.5,740.1
			L318.5,740.1z"/>
		<path class="st0" d="M356.4,743.6l-2-2c-2,1.4-4.6,1.4-6.5,0l-2,2l-1.2-1.2l2-2c-0.7-1-1.1-2.1-1.1-3.3c0-1.2,0.4-2.3,1.1-3.2
			l-2-2l1.2-1.2l2,2c2-1.4,4.6-1.4,6.5,0l2-2l1.2,1.2l-2,2c0.7,0.9,1.1,2.1,1.1,3.3c0,1.2-0.4,2.3-1.1,3.2l2,2L356.4,743.6z
			 M355,737.2c0-2.1-1.8-3.8-3.9-3.8c-2.1,0-3.8,1.8-3.8,3.9c0,2.1,1.8,3.8,3.9,3.8C353.3,741.1,355,739.3,355,737.2z"/>
		<path class="st0" d="M390.8,738.6v0.2c0,3.5-2.7,5.8-6.5,6.2v2.7h-1.6v-2.7c-3-0.1-5.6-1.8-6.9-4.5l2-0.8c0.9,1.9,2.8,3.2,4.9,3.4
			v-8.2l-0.8-0.1c-2.9-0.5-5.8-1.8-5.8-5.5V729c0-3.3,2.8-5.5,6.5-5.7v-2.6h1.6v2.7c2.6,0.3,4.9,1.9,6.2,4.2l-2,0.8
			c-0.8-1.6-2.3-2.8-4.1-3.1v7.8l1,0.2C388.1,733.8,390.8,735.2,390.8,738.6z M382.7,732.8v-7.6c-2.4,0.1-4.3,1.6-4.3,3.9
			s1.8,3.2,4,3.6L382.7,732.8z M388.6,738.9c0-2.4-2-3.4-3.8-3.7l-0.5-0.1v7.9C386.9,742.7,388.6,741.2,388.6,738.9z"/>
		<path class="st0" d="M421.4,739.9l2,0.7c-1.2,2.9-3.4,4.3-6,4.3c-3.6,0-6.5-2.9-7.1-8.4h-2v-1.2h1.9c0-0.3,0-0.6,0-0.9v-0.5
			c0-0.5,0-0.9,0-1.3h-2v-1.2h2c0.7-5.2,3.5-8,7.1-8c2.6,0,4.8,1.5,6,4.3l-2,0.7c-0.9-2-2.3-3-4-3c-2.4,0-4.3,2-4.9,6h8.6l-0.4,1.2
			h-8.3c0,0.4,0,0.9,0,1.3v0.4c0,0.3,0,0.7,0,1h7.6l-0.4,1.2h-7.1c0.5,4.2,2.5,6.3,4.9,6.3C419,742.9,420.5,741.9,421.4,739.9z"/>
		<path class="st0" d="M445,742.7h9.8v2h-14.7v-2h2.7v-8h-2.4v-1.6h2.4v-3.5c0-4,2.4-6.3,6-6.3c2.9,0,4.8,1.6,6.1,4l-1.9,0.9
			c-1.1-2-2.4-3-4.3-3c-2.2,0-3.7,1.5-3.7,4.6v3.2h5.4v1.5H445V742.7z"/>
		<path class="st0" d="M484.1,731.4h3.3v1.2h-4l-1.5,2.7h5.4v1.2h-5.5v8.1h-2.2v-8.1h-5.5v-1.2h5.4l-1.5-2.7h-4v-1.2h3.3l-4.2-7.8
			h2.5l3.6,6.8c0.6,1,1,2.1,1.5,3.1c0.4-1,0.9-2,1.5-3.2l3.7-6.8h2.4L484.1,731.4z"/>
		<path class="st0" d="M520.6,738H514v6.7h-1.8V738h-6.6v-1.7h6.6v-6.7h1.8v6.7h6.6L520.6,738z"/>
		<path class="st0" d="M538.8,736.3h13.5v1.7h-13.5V736.3z"/>
		<path class="st0" d="M583.2,743.6l-5.2-5.2l-5.2,5.2l-1.2-1.2l5.2-5.2l-5.2-5.2l1.2-1.2l5.3,5.3l5.2-5.2l1.2,1.2l-5.2,5.2l5.2,5.2
			L583.2,743.6z"/>
		<path class="st0" d="M603.6,736.3h13.5v1.7h-13.5V736.3z M609.3,729.7h2.1v3.3h-2.1V729.7z M609.3,741.4h2.1v3.3h-2.1V741.4z"/>
		<path class="st0" d="M636,733.3h13.5v1.7H636V733.3z M636,739.3h13.5v1.7H636V739.3z"/>
		<path class="st0" d="M676.9,735l-1.8,4.4h6.8v1.6h-7.4l-1.5,3.7h-1.8l1.5-3.7h-4.4v-1.6h5l1.8-4.4h-6.8v-1.6h7.4l1.5-3.7h1.8
			l-1.5,3.7h4.4v1.6H676.9z"/>
		<path class="st0" d="M714.3,736.2v2l-13.5,5.6v-1.8l11.5-4.7l-11.5-4.7v-1.9L714.3,736.2z"/>
		<path class="st0" d="M746.7,732.4l-11.5,4.7l11.5,4.7v1.9l-13.5-5.6v-2l13.5-5.6V732.4z"/>
		<path class="st0" d="M779.1,736.2v2l-13.5,5.6v-1.8l11.5-4.7l-11.5-4.7v-1.9L779.1,736.2z M765.6,748.4h13.5v1.5h-13.5V748.4z"/>
		<path class="st0" d="M21.3,768.3L9.8,773l11.5,4.7v1.9L7.8,774v-2l13.5-5.6L21.3,768.3z M7.8,784.3h13.5v1.5H7.8L7.8,784.3z"/>
		<path class="st0" d="M54.4,772.2v1.7h-6.6v6.7H46v-6.7h-6.6v-1.7H46v-6.7h1.8v6.7H54.4z M39.4,784.3h15v1.5h-15V784.3z"/>
		<path class="st0" d="M72.2,771.6c0.5-2.7,1.8-4.5,3.9-4.5c2.7,0,4.2,3.1,6.2,3.1c1.2,0,2-1.1,2.4-3l1.7,0.5
			c-0.5,2.7-1.9,4.5-3.9,4.5c-2.7,0-4.2-3.1-6.2-3.1c-1.2,0-2,1.1-2.4,3L72.2,771.6z M72.2,778.4c0.5-2.7,1.8-4.5,3.9-4.5
			c2.7,0,4.2,3.1,6.2,3.1c1.2,0,2-1.1,2.4-3l1.7,0.5c-0.5,2.7-1.9,4.5-3.9,4.5c-2.7,0-4.2-3.1-6.2-3.1c-1.2,0-2,1.1-2.4,3
			L72.2,778.4z"/>
		<path class="st0" d="M104.6,775c0.5-2.7,1.8-4.5,3.9-4.5c2.7,0,4.2,3.1,6.2,3.1c1.2,0,2-1.1,2.4-3l1.7,0.5
			c-0.5,2.7-1.9,4.5-3.9,4.5c-2.7,0-4.2-3.1-6.2-3.1c-1.2,0-2,1.1-2.4,3L104.6,775z"/>
		<path class="st0" d="M150.3,772.2v8.3h-1.8v-6.7h-11.1v-1.7H150.3z"/>
		<path class="st0" d="M181.3,769.5c0.8,1,1.3,2.3,1.3,3.6c0,3.3-2.7,5.9-6,5.9c-1.3,0-2.6-0.4-3.6-1.2l-1.7,1.7l-1.2-1.2l1.6-1.7
			c-0.8-1-1.3-2.3-1.3-3.6c0-3.3,2.7-5.9,6-5.9c1.3,0,2.5,0.4,3.6,1.2l1.7-1.7l1.2,1.2L181.3,769.5z M172.9,775.5l6.1-6.1
			c-0.7-0.5-1.6-0.8-2.4-0.8c-2.4,0-4.4,2-4.4,4.4C172.2,773.9,172.4,774.7,172.9,775.5L172.9,775.5z M180.2,770.6l-6.1,6.1
			c0.7,0.5,1.6,0.8,2.4,0.8c2.4,0,4.4-2,4.4-4.4C180.9,772.1,180.7,771.3,180.2,770.6L180.2,770.6z"/>
		<path class="st0" d="M223.3,773.1c0.1,2.8-2,5.1-4.7,5.2c-0.1,0-0.3,0-0.4,0h-0.2c-2.7,0-4.5-1.8-5.9-3.9
			c-1.5,2.1-3.1,3.9-5.7,3.9h-0.2c-2.9,0-5.2-2.4-5.2-5.2s2.4-5.2,5.2-5.2h0.2c2.7,0,4.5,1.8,5.9,3.9c1.5-2.1,3.1-3.9,5.7-3.9h0.2
			c2.8-0.1,5.1,2.1,5.2,4.8C223.3,772.8,223.3,772.9,223.3,773.1z M211.1,773.1c-0.9-1.3-2.4-3.7-4.8-3.7h-0.1c-2,0-3.6,1.6-3.6,3.7
			c0,2,1.6,3.6,3.6,3.6h0.1C208.7,776.7,210.2,774.4,211.1,773.1L211.1,773.1z M221.5,773.1c0.1-1.9-1.3-3.5-3.2-3.6
			c-0.1,0-0.2,0-0.3,0h-0.1c-2.4,0-3.9,2.3-4.8,3.7c0.9,1.3,2.4,3.7,4.8,3.7h0.1c1.9,0,3.5-1.5,3.5-3.4
			C221.5,773.2,221.5,773.1,221.5,773.1L221.5,773.1z"/>
		<path class="st0" d="M249,759.6v1.8h-1.6c-1.3,0-2.2,0.6-2.2,2.3v19c0.2,1.9-1.2,3.7-3.1,3.9c-0.2,0-0.5,0-0.7,0h-1.9v-1.8h1.6
			c1.3,0,2.2-0.6,2.2-2.3v-19c-0.2-1.9,1.2-3.7,3.1-3.9c0.2,0,0.5,0,0.7,0H249z"/>
		<path class="st0" d="M280.6,780.5h-2.2v-18.9h-9v18.9h-2.2v-21h13.5V780.5z"/>
		<path class="st0" d="M299.4,778.6l7.3-8.6l-7.2-8.4v-2h13.8v2.1h-10.8l7,8.2l-7.2,8.5h11.3v2.1h-14.1L299.4,778.6z"/>
		<path class="st0" d="M345.1,761.4l-7,22.2h-2l-3.4-9.7h-2.6v-1.7h4l3,8.7l6-19.6L345.1,761.4z"/>
		<path class="st0" d="M361.5,773.2v-0.5c0-5,2.9-7.5,6.2-7.5c1.7-0.1,3.4,0.8,4.3,2.3c-1.2-3.1-3.2-5.9-5.8-8h2.6
			c2.5,2.5,5.9,6.8,5.9,13v0.6c0,5-3,7.8-6.6,7.8S361.5,778.2,361.5,773.2z M372.6,773.1V773c-0.1-3.8-2.1-5.9-4.6-5.9
			s-4.5,2.1-4.5,5.9v0.2c0,4,2,6.1,4.5,6.1S372.6,777.1,372.6,773.1z"/>
		<path class="st0" d="M391.4,765.8v-0.5c0-4,2.2-5.9,4.9-5.9s4.9,2,4.9,5.9v0.5c0,4-2.2,5.9-4.9,5.9S391.4,769.8,391.4,765.8z
			 M399.4,765.8v-0.5c0-3-1.3-4.4-3.1-4.4s-3.1,1.4-3.1,4.4v0.5c0,3,1.3,4.4,3.1,4.4S399.4,768.8,399.4,765.8L399.4,765.8z
			 M410.4,759.6h2l-13.6,21h-2L410.4,759.6z M408,774.8v-0.5c0-4,2.2-5.9,4.9-5.9s4.9,2,4.9,5.9v0.5c0,4-2.2,5.9-4.9,5.9
			S407.9,778.8,408,774.8L408,774.8z M415.9,774.8v-0.5c0-3-1.3-4.4-3.1-4.4s-3.1,1.4-3.1,4.4v0.5c0,3,1.3,4.4,3.1,4.4
			S415.9,777.8,415.9,774.8L415.9,774.8z"/>
		<path class="st0" d="M434.3,765.8v-0.5c0-4,2.2-5.9,4.9-5.9s4.9,2,4.9,5.9v0.5c0,4-2.2,5.9-4.9,5.9S434.3,769.8,434.3,765.8z
			 M442.3,765.8v-0.5c0-3-1.3-4.4-3.1-4.4s-3.1,1.4-3.1,4.4v0.5c0,3,1.3,4.4,3.1,4.4S442.3,768.8,442.3,765.8L442.3,765.8z
			 M453.3,759.6h2l-13.6,21h-2L453.3,759.6z M450.9,774.8v-0.5c0-4,2.2-5.9,4.9-5.9s4.9,2,4.9,5.9v0.5c0,4-2.2,5.9-4.9,5.9
			S450.8,778.8,450.9,774.8L450.9,774.8z M458.8,774.8v-0.5c0-3-1.3-4.4-3.1-4.4s-3.1,1.4-3.1,4.4v0.5c0,3,1.3,4.4,3.1,4.4
			S458.8,777.8,458.8,774.8L458.8,774.8z M462.8,774.8v-0.5c0-4,2.2-5.9,4.9-5.9s4.9,2,4.9,5.9v0.5c0,4-2.2,5.9-4.9,5.9
			S462.8,778.8,462.8,774.8L462.8,774.8z M470.8,774.8v-0.5c0-3-1.3-4.4-3.1-4.4s-3.1,1.4-3.1,4.4v0.5c0,3,1.3,4.4,3.1,4.4
			S470.8,777.8,470.8,774.8L470.8,774.8z"/>
		<path class="st0" d="M504.2,770l-6,10.5H496l-6-10.5l6-10.5h2.2L504.2,770z M501.8,770l-3.1-5.5c-0.6-1-1.1-2.1-1.6-3.1
			c-0.4,0.9-1,1.9-1.6,3.2l-3,5.5l3.1,5.5c0.6,1,1.1,2.1,1.6,3.1c0.4-0.9,1-1.9,1.6-3.2L501.8,770z"/>
		<path class="st0" d="M531.9,773.4c0-8.1,5.8-14.3,14-14.3c7.7,0,13.5,5.5,13.5,13.2c0,5.5-3,8.3-6.1,8.3c-1.7,0.1-3.2-1.2-3.4-2.8
			c-1.1,2-3.2,3.2-5.4,3.1c-3,0-5-1.7-5-4.4c0-2.5,1.8-4.5,5.5-4.5h4.3v-1.2c0-2.4-1.3-3.8-3.6-3.8c-1.7-0.1-3.3,1-3.9,2.6l-2-0.4
			c0.9-2.5,3.3-4.1,6-3.9c3.5,0,5.5,2,5.5,5.4v5.7c0,1.3,0.6,2.7,2.2,2.7c2.1,0,4.2-2.2,4.2-6.6c0-7-5.1-11.8-11.9-11.8
			c-7.4,0-12.2,5.6-12.2,12.7s4.7,12.1,11.8,12.1c2.3,0,4.5-0.5,6.6-1.5l0.8,1.3c-2.3,1.2-4.8,1.8-7.3,1.8
			C537.5,787,531.9,781.3,531.9,773.4z M549.3,774.7v-1.4h-4.1c-2.4,0-3.7,1.3-3.7,3s1.3,2.8,3.2,2.8c2.4,0.1,4.4-1.8,4.5-4.2
			C549.3,774.9,549.3,774.8,549.3,774.7L549.3,774.7z"/>
		<path class="st0" d="M590.6,780.6l-1.8-2c-1.6,1.5-3.7,2.4-5.8,2.5c-3.8,0-6.5-2.8-6.5-5.8V775c0-2.5,1.5-4.1,4.2-5.6
			c-1.7-1.9-2.8-3.2-2.8-5.1V764c0-2.8,2.3-4.9,5.4-4.9s5.3,2,5.3,4.9v0.2c0,3-2.3,4.4-4.8,5.6l5,5.7c0.7-1.1,1.1-2.4,1.2-3.8l2,0.4
			c-0.1,1.8-0.8,3.5-1.8,4.9l3.1,3.5L590.6,780.6z M583.1,779.1c1.6,0,3.2-0.7,4.3-1.9l-5.7-6.4c-1.6,0.9-3.2,2-3.2,4.2v0.1
			C578.8,777.4,580.8,779.2,583.1,779.1C583.1,779.1,583.1,779.1,583.1,779.1z M580,764.1c0,1.5,1.1,2.7,2.5,4.3c2.3-1,4-2,4-4.3v0
			c-0.1-1.8-1.7-3.1-3.5-3C581.4,761.2,580.1,762.4,580,764.1L580,764.1z"/>
		<path class="st0" d="M623.4,773v0.2c-0.1,1.9-1.4,3.6-3.2,4.2c1.7,0.6,2.9,2.2,2.9,4v0.2c0,3.2-2.7,5.4-6.5,5.4
			c-2.8,0.2-5.5-1.4-6.8-4l1.9-0.8c0.9,1.9,2.8,3,4.9,3c2.6,0,4.3-1.4,4.3-3.5s-1.7-2.8-3.2-3.2l-2.4-0.6c-2.6-0.7-5.4-1.9-5.4-4.8
			v-0.2c0.1-1.9,1.4-3.6,3.2-4.2c-1.7-0.6-2.9-2.2-2.9-4v-0.2c0-3.2,2.7-5.4,6.5-5.4c2.8-0.2,5.5,1.4,6.8,4l-1.9,0.8
			c-0.9-1.9-2.8-3-4.9-2.9c-2.6,0-4.3,1.4-4.3,3.4s1.6,2.8,3.2,3.2l2.4,0.6C620.7,768.9,623.4,770.1,623.4,773z M621.3,773.3
			c0-1.9-1.8-2.8-3.7-3.3l-1-0.2c-2.7-0.6-4.5,1.1-4.5,3s1.8,2.8,3.7,3.3l0.7,0.2C619.4,777,621.3,775.3,621.3,773.3L621.3,773.3z"
			/>
		<path class="st0" d="M640.7,770.1c0-6.3,4.3-11,10.5-11s10.5,4.6,10.5,11s-4.4,10.9-10.6,10.9S640.7,776.4,640.7,770.1z
			 M660.4,770.1c0-5.7-3.8-9.8-9.2-9.8s-9.2,4.1-9.2,9.8s3.8,9.8,9.2,9.8S660.4,775.7,660.4,770.1L660.4,770.1z M646.3,770.1v-0.2
			c0-3.8,2.3-6,5.2-6c2.2,0,4.1,1.4,4.7,3.6l-1.8,0.4c-0.4-1.3-1.6-2.2-2.9-2.2c-1.8,0-3.2,1.5-3.2,4.4v0.1c0,2.9,1.5,4.4,3.2,4.4
			c1.4,0,2.5-0.9,2.9-2.2l1.8,0.4c-0.6,2.1-2.5,3.6-4.7,3.6C648.6,776.1,646.3,774,646.3,770.1L646.3,770.1z"/>
		<path class="st0" d="M699.7,770.1c0,6.3-4.3,11-10.5,11s-10.5-4.6-10.5-11s4.3-11,10.5-11S699.7,763.7,699.7,770.1z M698.4,770.1
			c0-5.7-3.8-9.8-9.2-9.8s-9.2,4.1-9.2,9.8s3.8,9.8,9.2,9.8S698.4,775.7,698.4,770.1L698.4,770.1z M690.8,771.2l3.7,4.9h-2.1
			l-3.6-4.9h-1.7v4.9h-1.8v-12h5c2.2,0,3.9,1.3,3.9,3.5v0.1c0.1,1.9-1.4,3.4-3.3,3.5C690.8,771.2,690.8,771.2,690.8,771.2
			L690.8,771.2z M687.1,769.9h2.9c1.2,0.1,2.3-0.8,2.4-2.1c0.1-1.2-0.8-2.3-2.1-2.4c-0.1,0-0.2,0-0.3,0h-2.9L687.1,769.9z"/>
		<path class="st0" d="M724.4,761h-3.3v10.5h-1.7V761h-3.4v-1.5h8.3L724.4,761z M737,759.5v12h-1.7V762c-0.3,0.7-0.8,1.3-1.3,2.2
			l-2.5,4.1l-2.5-4c-0.5-0.8-0.9-1.5-1.2-2.2v9.5h-1.5v-12h1.8l3.7,6l3.7-6L737,759.5z"/>
		<path class="st0" d="M757.3,764.5c0-2.8,2.3-5.1,5.1-5.1c2.8,0,5.1,2.3,5.1,5.1c0,2.8-2.3,5.1-5.1,5.1c-2.8,0.1-5.1-2.1-5.1-4.9
			C757.3,764.7,757.3,764.6,757.3,764.5z M765.7,764.5c-0.1-1.8-1.7-3.2-3.5-3.1c-1.8,0.1-3.2,1.7-3.1,3.5c0.1,1.7,1.6,3.1,3.3,3.1
			c1.8,0,3.3-1.5,3.3-3.3C765.7,764.6,765.7,764.6,765.7,764.5L765.7,764.5z"/>
		<path class="st0" d="M791.2,759.6v27h-1.8v-27H791.2z"/>
		<path class="st0" d="M10.9,795.4v10.5H9.1v-10.5H10.9z M10.9,811.9v10.5H9.1v-10.5H10.9z"/>
		<path class="st0" d="M44.7,805.3h-5.8v13.6H37v-13.6h-5.8v-1.7H37v-8.2h1.8v8.2h5.8L44.7,805.3z"/>
		<path class="st0" d="M71.2,805.3v7.3h5.8v1.7h-5.8v8.2h-1.8v-8.2h-5.8v-1.7h5.8v-7.3h-5.8v-1.7h5.8v-8.2h1.8v8.2h5.8v1.7H71.2z"/>
	</g>
</g>
</svg>
