<svg xmlns="http://www.w3.org/2000/svg" viewBox="0 0 107.4 79.19"><defs><style>.cls-1{fill:none;}</style></defs><title>regular01</title><g id="Lager_2" data-name="Lager 2"><g id="Lager_1-2" data-name="Lager 1"><path d="M0,41.43V37.76C0,11.92,12,0,26.31,0S52.61,11.92,52.61,37.76v3.67c0,25.85-12,37.76-26.31,37.76S0,67.28,0,41.43Zm44.36-.27V38c0-21.63-7.88-30.89-18.06-30.89S8.25,16.41,8.25,38v3.12C8.25,62.79,16.13,72,26.31,72S44.36,62.79,44.36,41.16Z"/><path d="M76.66,22c0-4.77,0-9.62.18-13.66A93.67,93.67,0,0,1,67,15.86l-6.88,4.58v-8L76.84,1.1h7.52v77h-7.7Z"/><rect class="cls-1" width="107.4" height="79.19"/></g></g></svg>