<svg xmlns="http://www.w3.org/2000/svg" viewBox="0 0 360 360"><defs><style>.cls-1{fill:#ededed;}.cls-2{fill:#b2b2b2;}</style></defs><title>t-dont-2</title><g id="Lager_2" data-name="Lager 2"><g id="Lager_1-2" data-name="Lager 1"><rect class="cls-1" width="360" height="360"/><path d="M137.7,55.2V58H123.8V30h3V55.2Z"/><path d="M139.41,48.2v-.4c0-6.67,3.93-10.4,8.84-10.4s8.83,3.73,8.83,10.4v.4c0,6.67-3.93,10.4-8.83,10.4S139.41,54.87,139.41,48.2Zm14.87-.1v-.2c0-5.27-2.67-8.1-6-8.1s-6,2.83-6,8.1v.2c0,5.27,2.67,8.1,6,8.1S154.28,53.37,154.28,48.1Z"/><path d="M161.19,38h2.6v4.8a8,8,0,0,1,7.57-5v2.8c-4.53,0-7.37,3.4-7.37,8.2V58h-2.8Z"/><path d="M182.19,58.6c-5,0-9-3.73-9-10.4v-.4c0-6.67,3.93-10.4,8.83-10.4s8.83,3.73,8.83,10.37v.77H175.89c.07,4.73,2.63,7.67,6.37,7.67a5.71,5.71,0,0,0,5.4-3.47l2.67.53A8.5,8.5,0,0,1,182.19,58.6ZM188,46.66c-.27-4.6-2.9-7-6-7s-5.77,2.43-6,7Z"/><path d="M194.62,38h2.6v3.2a6.37,6.37,0,0,1,5.8-3.6,5.65,5.65,0,0,1,5.53,3.93,6.45,6.45,0,0,1,6-3.93c3.87,0,6.57,2.87,6.57,7.37V58h-2.8V45.5c0-3.4-1.7-5.5-4.27-5.5-2.9,0-4.77,2.57-4.77,5.93V58h-2.8V45.5c0-3.4-1.67-5.5-4.27-5.5-2.87,0-4.77,2.57-4.77,5.93V58h-2.8Z"/><path d="M234.42,31.19h3.07v3.2h-3.07Zm.13,6.8h2.8V58h-2.8Z"/><path d="M242.34,38h2.57v3.67a6.9,6.9,0,0,1,6.5-4.07c4.43,0,8.3,3.3,8.3,10v.8c0,6.7-3.9,10-8.24,10a6.76,6.76,0,0,1-6.33-3.93V66h-2.8Zm14.57,10.1v-.2c0-5.13-2.63-7.9-6-7.9s-5.9,2.77-5.9,7.9v.2c0,5.17,2.6,7.9,5.9,7.9S256.91,53.26,256.91,48.1Z"/><path d="M261.94,53.26l2.4-1a5.88,5.88,0,0,0,5.8,3.87c2.73,0,4.7-1.3,4.7-3.57s-1.8-3-4.17-3.47l-2.57-.47c-3.23-.6-5.67-2.07-5.67-5.17,0-3.27,2.6-5.87,7.13-5.87A8.41,8.41,0,0,1,277.34,42L275,43a5.65,5.65,0,0,0-5.3-3.17c-2.63,0-4.47,1.37-4.47,3.47,0,1.93,1.57,2.77,3.6,3.13l2.53.47c3.8.7,6.27,2.23,6.27,5.47,0,3.47-2.8,6-7.4,6A8.52,8.52,0,0,1,261.94,53.26Z"/><path d="M296.13,58h-2.6V54.8a6.54,6.54,0,0,1-6.07,3.6c-4.1,0-6.8-2.87-6.8-7.37V38h2.8V50.4c0,3.5,1.87,5.57,4.67,5.57,3.1,0,5.2-2.53,5.2-5.9V38h2.8Z"/><path d="M301.07,38h2.6v3.2a6.37,6.37,0,0,1,5.8-3.6A5.65,5.65,0,0,1,315,41.53a6.45,6.45,0,0,1,6-3.93c3.87,0,6.57,2.87,6.57,7.37V58h-2.8V45.5c0-3.4-1.7-5.5-4.27-5.5-2.9,0-4.77,2.57-4.77,5.93V58h-2.8V45.5c0-3.4-1.67-5.5-4.27-5.5-2.87,0-4.77,2.57-4.77,5.93V58h-2.8Z"/><path d="M98.48,88.4v-.8c0-6.7,3.9-10,8.24-10a6.76,6.76,0,0,1,6.33,3.93V70h2.8V98h-2.57V94.33a6.9,6.9,0,0,1-6.5,4.07C102.35,98.4,98.48,95.1,98.48,88.4Zm14.67-.3v-.2c0-5.17-2.6-7.9-5.9-7.9s-6,2.73-6,7.9v.2c0,5.13,2.63,7.9,6,7.9S113.15,93.23,113.15,88.1Z"/><path d="M119.77,88.2v-.4c0-6.67,3.93-10.4,8.84-10.4s8.83,3.73,8.83,10.4v.4c0,6.67-3.93,10.4-8.83,10.4S119.77,94.87,119.77,88.2Zm14.87-.1v-.2c0-5.27-2.67-8.1-6-8.1s-6,2.83-6,8.1v.2c0,5.27,2.67,8.1,6,8.1S134.64,93.37,134.64,88.1Z"/><path d="M141.35,93.67V70h2.8V93.16c0,1.77.7,2.43,2,2.43h1V98h-1.7C143,98,141.35,96.73,141.35,93.67Z"/><path d="M148.78,88.2v-.4c0-6.67,3.93-10.4,8.84-10.4s8.83,3.73,8.83,10.4v.4c0,6.67-3.93,10.4-8.83,10.4S148.78,94.87,148.78,88.2Zm14.87-.1v-.2c0-5.27-2.67-8.1-6-8.1s-6,2.83-6,8.1v.2c0,5.27,2.67,8.1,6,8.1S163.65,93.37,163.65,88.1Z"/><path d="M170.55,78h2.6v4.8a8,8,0,0,1,7.57-5v2.8c-4.53,0-7.37,3.4-7.37,8.2V98h-2.8Z"/><path d="M191.15,93.26l2.4-1a5.88,5.88,0,0,0,5.8,3.87c2.73,0,4.7-1.3,4.7-3.57s-1.8-3-4.17-3.47l-2.57-.47c-3.23-.6-5.67-2.07-5.67-5.17,0-3.27,2.6-5.87,7.13-5.87A8.41,8.41,0,0,1,206.56,82l-2.37,1a5.65,5.65,0,0,0-5.3-3.17c-2.63,0-4.47,1.37-4.47,3.47,0,1.93,1.57,2.77,3.6,3.13l2.53.47c3.8.7,6.27,2.23,6.27,5.47,0,3.47-2.8,6-7.4,6A8.52,8.52,0,0,1,191.15,93.26Z"/><path d="M210.15,71.19h3.07v3.2h-3.07Zm.13,6.8h2.8V98h-2.8Z"/><path d="M219.61,93.13V80.4h-3.37V78h3.47V72h2.6v6H228v2.4h-5.63V92.6c0,2.13,1,3,2.7,3H228V98h-3.6C221.58,98,219.61,96.53,219.61,93.13Z"/><path d="M239.11,92.86V92.6c0-3.3,2.43-6.07,7.4-6.07h5.77v-1.6c0-3.2-1.77-5.07-4.8-5.07a5.33,5.33,0,0,0-5.2,3.53l-2.57-.53a7.9,7.9,0,0,1,7.9-5.27c4.67,0,7.37,2.77,7.37,7.17V98h-2.6V94.8a7.85,7.85,0,0,1-6.8,3.6C241.81,98.4,239.11,96.2,239.11,92.86Zm13.17-2.67V88.4h-5.43c-3.27,0-4.93,1.73-4.93,4s1.8,3.77,4.33,3.77A5.84,5.84,0,0,0,252.28,90.2Z"/><path d="M259.88,78h2.6v3.2a6.37,6.37,0,0,1,5.8-3.6,5.65,5.65,0,0,1,5.54,3.93,6.45,6.45,0,0,1,6-3.93c3.87,0,6.57,2.87,6.57,7.37V98h-2.8V85.5c0-3.4-1.7-5.5-4.27-5.5-2.9,0-4.77,2.57-4.77,5.93V98h-2.8V85.5c0-3.4-1.67-5.5-4.27-5.5-2.87,0-4.77,2.57-4.77,5.93V98h-2.8Z"/><path d="M299,98.6c-5,0-9-3.73-9-10.4v-.4c0-6.67,3.93-10.4,8.83-10.4s8.83,3.73,8.83,10.37v.77H292.73c.07,4.73,2.63,7.67,6.37,7.67a5.71,5.71,0,0,0,5.4-3.47l2.67.53A8.5,8.5,0,0,1,299,98.6Zm5.83-11.94c-.27-4.6-2.9-7-6-7s-5.77,2.43-6,7Z"/><path d="M312.53,93.13V80.4h-3.37V78h3.47V72h2.6v6H321v2.4h-5.63V92.6c0,2.13,1,3,2.7,3H321V98h-3.6C314.5,98,312.53,96.53,312.53,93.13Z"/><path d="M327.14,94.4v5.53c0,2-1.2,3.07-3.47,3.07v-1.6c1.13,0,1.6-.43,1.6-1.57v-2h-1.2V94.4Z"/><path d="M115,128.2v-.4c0-6.57,3.93-10.2,8.63-10.2a8.08,8.08,0,0,1,7.83,5.9l-2.6.53a5.58,5.58,0,0,0-5.23-4c-3.17,0-5.83,2.7-5.83,7.9v.2c0,5.2,2.67,7.9,5.83,7.9a5.58,5.58,0,0,0,5.23-4l2.6.53a8,8,0,0,1-7.83,5.9C118.9,138.4,115,134.8,115,128.2Z"/><path d="M133.6,128.2v-.4c0-6.67,3.93-10.4,8.84-10.4s8.83,3.73,8.83,10.4v.4c0,6.67-3.93,10.4-8.83,10.4S133.6,134.87,133.6,128.2Zm14.87-.1v-.2c0-5.27-2.67-8.1-6-8.1s-6,2.83-6,8.1v.2c0,5.27,2.67,8.1,6,8.1S148.47,133.37,148.47,128.1Z"/><path d="M155.18,118h2.6v3.2a6.54,6.54,0,0,1,6.07-3.6c4.1,0,6.8,2.87,6.8,7.37v13h-2.8V125.6c0-3.5-1.87-5.6-4.67-5.6-3.1,0-5.2,2.57-5.2,5.93V138h-2.8Z"/><path d="M173.72,133.26l2.4-1a5.88,5.88,0,0,0,5.8,3.87c2.73,0,4.7-1.3,4.7-3.57s-1.8-3-4.17-3.47l-2.57-.47c-3.23-.6-5.67-2.07-5.67-5.17,0-3.27,2.6-5.87,7.13-5.87a8.41,8.41,0,0,1,7.77,4.43l-2.37,1a5.65,5.65,0,0,0-5.3-3.17c-2.63,0-4.47,1.37-4.47,3.47,0,1.93,1.57,2.77,3.6,3.13l2.53.47c3.8.7,6.27,2.23,6.27,5.47,0,3.47-2.8,6-7.4,6A8.52,8.52,0,0,1,173.72,133.26Z"/><path d="M200.83,138.6c-5,0-9-3.73-9-10.4v-.4c0-6.67,3.93-10.4,8.83-10.4s8.83,3.73,8.83,10.37v.77H194.52c.07,4.73,2.63,7.67,6.37,7.67a5.71,5.71,0,0,0,5.4-3.47l2.67.53A8.5,8.5,0,0,1,200.83,138.6Zm5.83-11.94c-.27-4.6-2.9-7-6-7s-5.77,2.43-6,7Z"/><path d="M212.25,128.2v-.4c0-6.57,3.93-10.2,8.63-10.2a8.08,8.08,0,0,1,7.83,5.9l-2.6.53a5.58,5.58,0,0,0-5.23-4c-3.17,0-5.83,2.7-5.83,7.9v.2c0,5.2,2.67,7.9,5.83,7.9a5.58,5.58,0,0,0,5.23-4l2.6.53a8,8,0,0,1-7.83,5.9C216.19,138.4,212.25,134.8,212.25,128.2Z"/><path d="M233.54,133.13V120.4h-3.37V118h3.47v-6h2.6v6H242v2.4h-5.63v12.2c0,2.13,1,3,2.7,3H242V138h-3.6C235.51,138,233.54,136.53,233.54,133.13Z"/><path d="M252.57,138.6c-5,0-9-3.73-9-10.4v-.4c0-6.67,3.93-10.4,8.84-10.4s8.83,3.73,8.83,10.37v.77H246.27c.07,4.73,2.63,7.67,6.37,7.67a5.71,5.71,0,0,0,5.4-3.47l2.67.53A8.5,8.5,0,0,1,252.57,138.6Zm5.83-11.94c-.27-4.6-2.9-7-6-7s-5.77,2.43-6,7Z"/><path d="M266.07,133.13V120.4h-3.37V118h3.47v-6h2.6v6h5.73v2.4h-5.63v12.2c0,2.13,1,3,2.7,3h2.93V138h-3.6C268,138,266.07,136.53,266.07,133.13Z"/><path d="M292.9,138h-2.6v-3.2a6.53,6.53,0,0,1-6.07,3.6c-4.1,0-6.8-2.87-6.8-7.37V118h2.8v12.4c0,3.5,1.87,5.57,4.67,5.57,3.1,0,5.2-2.53,5.2-5.9V118h2.8Z"/><path d="M305.85,138.6c-5,0-9-3.73-9-10.4v-.4c0-6.67,3.93-10.4,8.84-10.4s8.83,3.73,8.83,10.37v.77H299.55c.07,4.73,2.63,7.67,6.37,7.67a5.71,5.71,0,0,0,5.4-3.47l2.67.53A8.5,8.5,0,0,1,305.85,138.6Zm5.83-11.94c-.27-4.6-2.9-7-6-7s-5.77,2.43-6,7Z"/><path d="M318.47,118h2.6v4.8a8,8,0,0,1,7.57-5v2.8c-4.53,0-7.37,3.4-7.37,8.2V138h-2.8Z"/><path d="M102.59,172.86v-.27c0-3.3,2.43-6.07,7.4-6.07h5.77v-1.6c0-3.2-1.77-5.07-4.8-5.07a5.33,5.33,0,0,0-5.2,3.53l-2.57-.53a7.9,7.9,0,0,1,7.9-5.27c4.67,0,7.37,2.77,7.37,7.17V178h-2.6v-3.2a7.85,7.85,0,0,1-6.8,3.6C105.29,178.4,102.59,176.2,102.59,172.86Zm13.17-2.67v-1.8h-5.43c-3.27,0-4.93,1.73-4.93,4s1.8,3.77,4.33,3.77A5.84,5.84,0,0,0,115.76,170.2Z"/><path d="M122.32,168.4v-.8c0-6.7,3.9-10,8.24-10a6.76,6.76,0,0,1,6.33,3.93V150h2.8v28h-2.57v-3.67a6.9,6.9,0,0,1-6.5,4.07C126.19,178.4,122.32,175.1,122.32,168.4Zm14.67-.3v-.2c0-5.17-2.6-7.9-5.9-7.9s-6,2.73-6,7.9v.2c0,5.13,2.63,7.9,6,7.9S137,173.23,137,168.1Z"/><path d="M144.57,151.19h3.07v3.2h-3.07Zm.13,6.8h2.8v20h-2.8Z"/><path d="M152.49,158h2.57v3.67a6.9,6.9,0,0,1,6.5-4.07c4.43,0,8.3,3.3,8.3,10v.8c0,6.7-3.9,10-8.24,10a6.76,6.76,0,0,1-6.33-3.93V186h-2.8Zm14.57,10.1v-.2c0-5.13-2.63-7.9-6-7.9s-5.9,2.77-5.9,7.9v.2c0,5.17,2.6,7.9,5.9,7.9S167.06,173.26,167.06,168.1Z"/><path d="M173.65,151.19h3.07v3.2h-3.07Zm.13,6.8h2.8v20h-2.8Z"/><path d="M180,173.26l2.4-1a5.88,5.88,0,0,0,5.8,3.87c2.73,0,4.7-1.3,4.7-3.57s-1.8-3-4.17-3.47l-2.57-.47c-3.23-.6-5.67-2.07-5.67-5.17,0-3.27,2.6-5.87,7.13-5.87a8.41,8.41,0,0,1,7.77,4.43l-2.37,1a5.65,5.65,0,0,0-5.3-3.17c-2.63,0-4.47,1.37-4.47,3.47,0,1.93,1.57,2.77,3.6,3.13l2.53.47c3.8.7,6.27,2.23,6.27,5.47,0,3.47-2.8,6-7.4,6A8.52,8.52,0,0,1,180,173.26Z"/><path d="M198.09,168.2v-.4c0-6.57,3.93-10.2,8.63-10.2a8.08,8.08,0,0,1,7.83,5.9L212,164a5.58,5.58,0,0,0-5.23-4c-3.17,0-5.83,2.7-5.83,7.9v.2c0,5.2,2.67,7.9,5.83,7.9a5.58,5.58,0,0,0,5.23-4l2.6.53a8,8,0,0,1-7.83,5.9C202,178.4,198.09,174.8,198.09,168.2Z"/><path d="M217.67,151.19h3.07v3.2h-3.07Zm.13,6.8h2.8v20h-2.8Z"/><path d="M225.58,158h2.6v3.2a6.54,6.54,0,0,1,6.07-3.6c4.1,0,6.8,2.87,6.8,7.37v13h-2.8V165.6c0-3.5-1.87-5.6-4.67-5.6-3.1,0-5.2,2.57-5.2,5.93V178h-2.8Z"/><path d="M244.2,180.93a5.23,5.23,0,0,1,3.07-4.77,3.66,3.66,0,0,1-1.8-3.2,3.89,3.89,0,0,1,2.93-3.73,5.91,5.91,0,0,1-2.77-5.07c0-3.8,3.07-6.63,7.13-6.63a8,8,0,0,1,2.73.47h6.07v2.23h-3.33a5.3,5.3,0,0,1,1.67,3.93c0,3.8-3,6.67-7.1,6.67h-2.47c-1.63,0-2.43.83-2.43,2s.8,2,2.4,2h5.8c3.63,0,6.13,2.53,6.13,5.7,0,3.33-2.73,6.07-6.9,6.07h-4.47C246.7,186.6,244.2,184,244.2,180.93ZM255,184.4c2.87,0,4.6-1.63,4.6-3.77s-1.57-3.6-4-3.6h-4.83a3.73,3.73,0,0,0-4,3.63c0,2.07,1.63,3.73,4.5,3.73Zm2.37-20.2a4.64,4.64,0,1,0-4.63,4.53A4.52,4.52,0,0,0,257.4,164.2Z"/><path d="M281.76,178.6c-5,0-9-3.73-9-10.4v-.4c0-6.67,3.93-10.4,8.84-10.4s8.83,3.73,8.83,10.37v.77H275.46c.07,4.73,2.63,7.67,6.37,7.67a5.71,5.71,0,0,0,5.4-3.47l2.67.53A8.5,8.5,0,0,1,281.76,178.6Zm5.83-11.94c-.27-4.6-2.9-7-6-7s-5.77,2.43-6,7Z"/><path d="M294.17,173.67V150H297v23.17c0,1.77.7,2.43,2,2.43h1V178h-1.7C295.84,178,294.17,176.73,294.17,173.67Z"/><path d="M303.07,151.19h3.07v3.2h-3.07Zm.13,6.8H306v20h-2.8Z"/><path d="M312.53,173.13V160.4h-3.37V158h3.47v-6h2.6v6H321v2.4h-5.63v12.2c0,2.13,1,3,2.7,3H321V178h-3.6C314.5,178,312.53,176.53,312.53,173.13Z"/><path d="M327.14,174.4v5.53c0,2-1.2,3.07-3.47,3.07v-1.6c1.13,0,1.6-.43,1.6-1.57v-2h-1.2V174.4Z"/><path d="M93,213.26l2.4-1a5.88,5.88,0,0,0,5.8,3.87c2.73,0,4.7-1.3,4.7-3.57s-1.8-3-4.17-3.47l-2.57-.47c-3.23-.6-5.67-2.07-5.67-5.17,0-3.27,2.6-5.87,7.13-5.87a8.41,8.41,0,0,1,7.77,4.43L106,203a5.65,5.65,0,0,0-5.3-3.17c-2.63,0-4.47,1.37-4.47,3.47,0,1.93,1.57,2.77,3.6,3.13l2.53.47c3.8.7,6.27,2.23,6.27,5.47,0,3.47-2.8,6-7.4,6A8.52,8.52,0,0,1,93,213.26Z"/><path d="M120.09,218.6c-5,0-9-3.73-9-10.4v-.4c0-6.67,3.93-10.4,8.84-10.4s8.83,3.73,8.83,10.37v.77H113.79c.07,4.73,2.63,7.67,6.37,7.67a5.71,5.71,0,0,0,5.4-3.47l2.67.53A8.5,8.5,0,0,1,120.09,218.6Zm5.83-11.94c-.27-4.6-2.9-7-6-7s-5.77,2.43-6,7Z"/><path d="M131.52,208.4v-.8c0-6.7,3.9-10,8.24-10a6.76,6.76,0,0,1,6.33,3.93V190h2.8v28h-2.57v-3.67a6.9,6.9,0,0,1-6.5,4.07C135.38,218.4,131.52,215.1,131.52,208.4Zm14.67-.3v-.2c0-5.17-2.6-7.9-5.9-7.9s-6,2.73-6,7.9v.2c0,5.13,2.63,7.9,6,7.9S146.19,213.23,146.19,208.1Z"/><path d="M161.32,208.4v-.8c0-6.7,3.9-10,8.24-10a6.76,6.76,0,0,1,6.33,3.93V190h2.8v28h-2.57v-3.67a6.9,6.9,0,0,1-6.5,4.07C165.18,218.4,161.32,215.1,161.32,208.4Zm14.67-.3v-.2c0-5.17-2.6-7.9-5.9-7.9s-6,2.73-6,7.9v.2c0,5.13,2.63,7.9,6,7.9S176,213.23,176,208.1Z"/><path d="M183.57,191.19h3.07v3.2h-3.07Zm.13,6.8h2.8v20h-2.8Z"/><path d="M190.55,212.86v-.27c0-3.3,2.43-6.07,7.4-6.07h5.77v-1.6c0-3.2-1.77-5.07-4.8-5.07a5.33,5.33,0,0,0-5.2,3.53l-2.57-.53a7.9,7.9,0,0,1,7.9-5.27c4.67,0,7.37,2.77,7.37,7.17V218h-2.6v-3.2a7.85,7.85,0,0,1-6.8,3.6C193.25,218.4,190.55,216.2,190.55,212.86Zm13.17-2.67v-1.8h-5.43c-3.27,0-4.93,1.73-4.93,4s1.8,3.77,4.33,3.77A5.84,5.84,0,0,0,203.72,210.2Z"/><path d="M211.32,198h2.6v3.2a6.37,6.37,0,0,1,5.8-3.6,5.65,5.65,0,0,1,5.53,3.93,6.45,6.45,0,0,1,6-3.93c3.87,0,6.57,2.87,6.57,7.37v13H235V205.5c0-3.4-1.7-5.5-4.27-5.5-2.9,0-4.77,2.57-4.77,5.93V218h-2.8V205.5c0-3.4-1.67-5.5-4.27-5.5-2.87,0-4.77,2.57-4.77,5.93V218h-2.8Z"/><path d="M251.12,198h2.6v3.2a6.54,6.54,0,0,1,6.07-3.6c4.1,0,6.8,2.87,6.8,7.37v13h-2.8V205.6c0-3.5-1.87-5.6-4.67-5.6-3.1,0-5.2,2.57-5.2,5.93V218h-2.8Z"/><path d="M270.19,208.2v-.4c0-6.67,3.93-10.4,8.84-10.4s8.83,3.73,8.83,10.4v.4c0,6.67-3.93,10.4-8.83,10.4S270.19,214.87,270.19,208.2Zm14.87-.1v-.2c0-5.27-2.67-8.1-6-8.1s-6,2.83-6,8.1v.2c0,5.27,2.67,8.1,6,8.1S285.06,213.37,285.06,208.1Z"/><path d="M291.78,198h2.6v3.2a6.54,6.54,0,0,1,6.07-3.6c4.1,0,6.8,2.87,6.8,7.37v13h-2.8V205.6c0-3.5-1.87-5.6-4.67-5.6-3.1,0-5.2,2.57-5.2,5.93V218h-2.8Z"/><path d="M327.14,218h-2.6v-3.2a6.54,6.54,0,0,1-6.07,3.6c-4.1,0-6.8-2.87-6.8-7.37V198h2.8v12.4c0,3.5,1.87,5.57,4.67,5.57,3.1,0,5.2-2.53,5.2-5.9V198h2.8Z"/><path d="M98.44,238H101v3.2a6.37,6.37,0,0,1,5.8-3.6,5.65,5.65,0,0,1,5.54,3.93,6.45,6.45,0,0,1,6-3.93c3.87,0,6.57,2.87,6.57,7.37v13h-2.8V245.5c0-3.4-1.7-5.5-4.27-5.5-2.9,0-4.77,2.57-4.77,5.93V258h-2.8V245.5c0-3.4-1.67-5.5-4.27-5.5-2.87,0-4.77,2.57-4.77,5.93V258h-2.8Z"/><path d="M129.66,238h2.6v3.2a6.37,6.37,0,0,1,5.8-3.6,5.65,5.65,0,0,1,5.53,3.93,6.45,6.45,0,0,1,6-3.93c3.87,0,6.57,2.87,6.57,7.37v13h-2.8V245.5c0-3.4-1.7-5.5-4.27-5.5-2.9,0-4.77,2.57-4.77,5.93V258h-2.8V245.5c0-3.4-1.67-5.5-4.27-5.5-2.87,0-4.77,2.57-4.77,5.93V258h-2.8Z"/><path d="M160.36,263.57h1.5c1.87,0,2.77-.87,3.6-3.13l1.23-3.3L158.36,238h3.1l4.83,11.54c.57,1.4,1.2,2.8,1.83,4.53.5-1.77.93-3.23,1.43-4.63l3.9-11.44h2.9l-8.47,23.44c-1.1,3-2.9,4.57-5.77,4.57h-1.77Z"/><path d="M188.63,238h2.6v3.2a6.54,6.54,0,0,1,6.07-3.6c4.1,0,6.8,2.87,6.8,7.37v13h-2.8V245.6c0-3.5-1.87-5.6-4.67-5.6-3.1,0-5.2,2.57-5.2,5.93V258h-2.8Z"/><path d="M208.71,231.19h3.07v3.2h-3.07Zm.13,6.8h2.8v20h-2.8Z"/><path d="M219.19,254.33V258h-2.57V230h2.8v11.54a6.76,6.76,0,0,1,6.33-3.93c4.33,0,8.24,3.3,8.24,10v.8c0,6.7-3.87,10-8.3,10A6.9,6.9,0,0,1,219.19,254.33Zm12-6.23v-.2c0-5.17-2.63-7.9-6-7.9s-5.9,2.73-5.9,7.9v.2c0,5.13,2.6,7.9,5.9,7.9S231.2,253.23,231.2,248.1Z"/><path d="M253.38,245v13h-2.8V245.6c0-3.5-1.87-5.57-4.67-5.57-3.1,0-5.2,2.53-5.2,5.9V258h-2.8V230h2.8v10.87a6.52,6.52,0,0,1,5.87-3.27C250.68,237.59,253.38,240.46,253.38,245Z"/><path d="M274.45,258.6c-5,0-9-3.73-9-10.4v-.4c0-6.67,3.93-10.4,8.84-10.4s8.83,3.73,8.83,10.37v.77H268.15c.07,4.73,2.63,7.67,6.37,7.67a5.71,5.71,0,0,0,5.4-3.47l2.67.53A8.5,8.5,0,0,1,274.45,258.6Zm5.83-11.94c-.27-4.6-2.9-7-6-7s-5.77,2.43-6,7Z"/><path d="M302,258h-2.6v-3.2a6.53,6.53,0,0,1-6.07,3.6c-4.1,0-6.8-2.87-6.8-7.37V238h2.8v12.4c0,3.5,1.87,5.57,4.67,5.57,3.1,0,5.2-2.53,5.2-5.9V238H302Z"/><path d="M306.9,231.19H310v3.2H306.9ZM307,238h2.8v20H307Z"/><path d="M313.27,253.26l2.4-1a5.88,5.88,0,0,0,5.8,3.87c2.73,0,4.7-1.3,4.7-3.57s-1.8-3-4.17-3.47l-2.57-.47c-3.23-.6-5.67-2.07-5.67-5.17,0-3.27,2.6-5.87,7.13-5.87a8.41,8.41,0,0,1,7.77,4.43l-2.37,1a5.65,5.65,0,0,0-5.3-3.17c-2.63,0-4.47,1.37-4.47,3.47,0,1.93,1.57,2.77,3.6,3.13l2.53.47c3.8.7,6.27,2.23,6.27,5.47,0,3.47-2.8,6-7.4,6A8.52,8.52,0,0,1,313.27,253.26Z"/><path d="M100.4,278H103v3.2a6.37,6.37,0,0,1,5.8-3.6,5.65,5.65,0,0,1,5.53,3.93,6.45,6.45,0,0,1,6-3.93c3.87,0,6.57,2.87,6.57,7.37v13h-2.8V285.5c0-3.4-1.7-5.5-4.27-5.5-2.9,0-4.77,2.57-4.77,5.93V298h-2.8V285.5c0-3.4-1.67-5.5-4.27-5.5-2.87,0-4.77,2.57-4.77,5.93V298h-2.8Z"/><path d="M130.51,288.2v-.4c0-6.67,3.93-10.4,8.84-10.4s8.83,3.73,8.83,10.4v.4c0,6.67-3.93,10.4-8.83,10.4S130.51,294.87,130.51,288.2Zm14.87-.1v-.2c0-5.27-2.67-8.1-6-8.1s-6,2.83-6,8.1v.2c0,5.27,2.67,8.1,6,8.1S145.38,293.37,145.38,288.1Z"/><path d="M151.06,288.4v-.8c0-6.7,3.9-10,8.24-10a6.76,6.76,0,0,1,6.33,3.93V270h2.8v28h-2.57v-3.67a6.9,6.9,0,0,1-6.5,4.07C154.93,298.4,151.06,295.1,151.06,288.4Zm14.67-.3v-.2c0-5.17-2.6-7.9-5.9-7.9s-6,2.73-6,7.9v.2c0,5.13,2.63,7.9,6,7.9S165.73,293.23,165.73,288.1Z"/><path d="M183.66,293.13V280.4h-3.37V278h3.47v-6h2.6v6h5.73v2.4h-5.63v12.2c0,2.13,1,3,2.7,3h2.93V298h-3.6C185.63,298,183.66,296.53,183.66,293.13Z"/><path d="M195.14,271.19h3.07v3.2h-3.07Zm.13,6.8h2.8v20h-2.8Z"/><path d="M203.06,278h2.6v3.2a6.54,6.54,0,0,1,6.07-3.6c4.1,0,6.8,2.87,6.8,7.37v13h-2.8V285.6c0-3.5-1.87-5.6-4.67-5.6-3.1,0-5.2,2.57-5.2,5.93V298h-2.8Z"/><path d="M222.13,288.2v-.4c0-6.57,3.93-10.2,8.64-10.2a8.08,8.08,0,0,1,7.83,5.9L236,284a5.58,5.58,0,0,0-5.23-4c-3.17,0-5.83,2.7-5.83,7.9v.2c0,5.2,2.67,7.9,5.83,7.9a5.58,5.58,0,0,0,5.23-4l2.6.53a8,8,0,0,1-7.83,5.9C226.06,298.4,222.13,294.8,222.13,288.2Z"/><path d="M241.71,271.19h3.07v3.2h-3.07Zm.13,6.8h2.8v20h-2.8Z"/><path d="M248.52,288.4v-.8c0-6.7,3.9-10,8.24-10a6.76,6.76,0,0,1,6.33,3.93V270h2.8v28h-2.57v-3.67a6.9,6.9,0,0,1-6.5,4.07C252.39,298.4,248.52,295.1,248.52,288.4Zm14.67-.3v-.2c0-5.17-2.6-7.9-5.9-7.9s-6,2.73-6,7.9v.2c0,5.13,2.63,7.9,6,7.9S263.19,293.23,263.19,288.1Z"/><path d="M286.07,298h-2.6v-3.2a6.53,6.53,0,0,1-6.07,3.6c-4.1,0-6.8-2.87-6.8-7.37V278h2.8v12.4c0,3.5,1.87,5.57,4.67,5.57,3.1,0,5.2-2.53,5.2-5.9V278h2.8Z"/><path d="M291,278h2.6v3.2a6.54,6.54,0,0,1,6.07-3.6c4.1,0,6.8,2.87,6.8,7.37v13h-2.8V285.6c0-3.5-1.87-5.6-4.67-5.6-3.1,0-5.2,2.57-5.2,5.93V298H291Z"/><path d="M312.31,293.13V280.4h-3.37V278h3.47v-6H315v6h5.73v2.4h-5.63v12.2c0,2.13,1,3,2.7,3h2.93V298h-3.6C314.27,298,312.31,296.53,312.31,293.13Z"/><path d="M324.07,294.4h3.07V298h-3.07Z"/><rect class="cls-2" x="329.5" width="1" height="360"/></g></g></svg>