<svg xmlns="http://www.w3.org/2000/svg" viewBox="0 0 58.92 58.92"><defs><style>.cls-1{fill:#eee;}</style></defs><title>tab-0</title><g id="Lager_2" data-name="Lager 2"><g id="Lager_1-2" data-name="Lager 1"><rect class="cls-1" width="58.92" height="58.92"/><path d="M40.17,28.64v1.65c0,10.07-4.87,14.65-10.71,14.65S18.75,40.35,18.75,30.29V28.64C18.75,18.57,23.62,14,29.46,14S40.17,18.57,40.17,28.64ZM23.26,30.18c0,.47,0,.9,0,1.33l11.82-8c-1-4-3.15-5.7-5.66-5.7-3.37,0-6.2,3-6.2,10.89Zm12.4-1.43c0-.47,0-.9,0-1.36l-11.82,8c1,4,3.15,5.73,5.66,5.73,3.4,0,6.2-3,6.2-10.89Z"/></g></g></svg>