<svg xmlns="http://www.w3.org/2000/svg" viewBox="0 0 107.4 79.19"><defs><style>.cls-1{fill:none;}</style></defs><title>tab01</title><g id="Lager_2" data-name="Lager 2"><g id="Lager_1-2" data-name="Lager 1"><path d="M52.61,37.76v3.67c0,25.85-12,37.76-26.31,37.76S0,67.28,0,41.43V37.76C0,11.92,12,0,26.31,0S52.61,11.92,52.61,37.76ZM7.7,41.16a58.32,58.32,0,0,0,.37,7.15L43.54,24.47C40.79,12,34.1,6.6,26.31,6.6,16.13,6.6,7.7,15.95,7.7,38ZM44.91,38a58.11,58.11,0,0,0-.37-7.15L9.08,54.72c2.75,12.47,9.44,17.87,17.23,17.87,10.17,0,18.61-9.35,18.61-31.44Z"/><path d="M61.2,71.49H82V22c0-4.77,0-9.62.18-13.38-3.39,2.75-6.6,5-9.81,7.24l-9.62,6.51V14.3L82.19,1.1h7.52V71.49H107.4v6.6H61.2Z"/><rect class="cls-1" width="107.4" height="79.19"/></g></g></svg>