<?xml version="1.0" encoding="utf-8"?>
<!-- Generator: Adobe Illustrator 21.0.2, SVG Export Plug-In . SVG Version: 6.00 Build 0)  -->
<svg version="1.1" id="Lager_1" xmlns="http://www.w3.org/2000/svg" xmlns:xlink="http://www.w3.org/1999/xlink" x="0px" y="0px"
	 viewBox="0 0 202.2 243.8" style="enable-background:new 0 0 202.2 243.8;" xml:space="preserve">
<style type="text/css">
	.st0{fill:#F03529;}
</style>
<title>type-sizes</title>
<g id="Lager_2">
	<g id="Lager_1-2">
		<path class="st0" d="M2,29.3V29c0-5.9,2.9-10.4,5.9-14.4l10.4-14h9.1L22,7.7c-2,2.8-4.2,5.4-6.6,7.9c1-0.6,2.2-0.9,3.4-0.8
			c6.9,0,13.4,5.2,13.4,13.9v0.4c0,9-7,14.4-15.1,14.4S2,38.1,2,29.3z M24.5,29.2V29c0.2-4-2.9-7.4-6.9-7.6c-0.2,0-0.3,0-0.5,0
			c-4-0.1-7.3,3.1-7.4,7.1c0,0.2,0,0.3,0,0.5v0.2c-0.2,4,2.9,7.4,6.9,7.6c0.2,0,0.4,0,0.5,0c4,0,7.3-3.2,7.4-7.2
			C24.5,29.5,24.5,29.4,24.5,29.2L24.5,29.2z"/>
		<path class="st0" d="M35.9,22.9v-2.6c0-14,7-20.3,15.4-20.3s15.4,6.3,15.4,20.3v2.6c0,14-7,20.3-15.4,20.3S35.9,36.9,35.9,22.9z
			 M58.4,22.7v-2.3c0-9.7-3-13.3-7.2-13.3s-7.2,3.7-7.2,13.3v2.3c0,9.6,3,13.3,7.2,13.3S58.4,32.3,58.4,22.7z"/>
		<path class="st0" d="M72.1,12.6h7.2v3c2.1-2.4,5.3-3.7,8.5-3.6c6.8,0,13,4.8,13,14.5v2.2c0,9.7-6.2,14.5-12.8,14.5
			c-3.1,0.1-6.1-1.2-8.2-3.5v15h-7.7L72.1,12.6z M93,27.7v-0.3c0-5.8-2.9-8.9-6.8-8.9s-6.7,3.1-6.7,8.9v0.3c0,5.8,2.9,8.8,6.7,8.8
			S93,33.6,93,27.7z"/>
		<path class="st0" d="M107,33.6V19.2h-4.1v-6.6h4.3v-9h7.2v9h7.7v6.6h-7.4v13c0,2.7,1.3,3.8,3.6,3.8h3.8v6.6h-5.9
			C110.6,42.6,107,39.6,107,33.6z"/>
		<path class="st0" d="M141.2,0.6l-11.4,54h-7.2l11.5-54H141.2z"/>
		<path class="st0" d="M142.7,12.6h7.1v3c2.1-2.4,5.3-3.7,8.5-3.6c6.8,0,13,4.8,13,14.5v2.2c0,9.7-6.2,14.5-12.8,14.5
			c-3.1,0.1-6.1-1.2-8.1-3.5v15h-7.7L142.7,12.6z M163.6,27.7v-0.3c0-5.8-2.9-8.9-6.8-8.9s-6.7,3.1-6.7,8.9v0.3
			c0,5.8,2.9,8.8,6.7,8.8S163.6,33.6,163.6,27.7z"/>
		<path class="st0" d="M193.2,42.6l-2.4-3.6c-1.2-2-2.6-4-4-6.5c-1.4,2.5-2.8,4.6-4.1,6.5l-2.4,3.6h-8.6l10.8-15.4l-9.9-14.6h9.1
			l2.4,3.6c1,1.5,2,3.2,3.1,5.2c0.9-1.8,2-3.6,3.1-5.2l2.4-3.6h8.5l-9.9,14.2l10.8,15.9H193.2z"/>
		<path class="st0" d="M16.6,101.9h-15v-4.8l14-21.8h7l-14,21.4h8v-7h5.7v7h3v5.3h-3v7h-5.7V101.9z"/>
		<path class="st0" d="M28.8,99.2v-0.3c0-3.4,1.8-6.5,4.7-8.2c-2.2-1.4-3.5-3.9-3.4-6.5v-0.3c0-5.8,5.3-9.2,10.9-9.2
			s10.8,3.4,10.8,9.2v0.3c0,2.6-1.3,5.1-3.5,6.5c2.9,1.7,4.7,4.8,4.7,8.2v0.3c0,6.7-5.8,10.4-12.1,10.4S28.8,105.9,28.8,99.2z
			 M46.5,98.9v-0.2c0-3-2.4-5.4-5.4-5.4c-0.1,0-0.2,0-0.3,0c-3-0.2-5.5,2.1-5.7,5.1c0,0.1,0,0.2,0,0.3v0.2c0,3.4,2.7,5.4,5.7,5.4
			S46.5,102.3,46.5,98.9z M45.8,84.4v-0.2c0-2.8-2.4-4.4-4.9-4.4s-4.9,1.6-4.9,4.4v0.2c0,2.8,2.4,4.4,4.9,4.4S45.8,87.3,45.8,84.4z"
			/>
		<path class="st0" d="M57.3,84.9H63v2.4c1.7-1.9,4.2-3,6.8-2.9c5.4,0,10.4,3.8,10.4,11.6v1.8c0,7.8-5,11.6-10.2,11.6
			c-2.5,0.1-4.9-1-6.5-2.8v12h-6.2V84.9z M74,97v-0.2c0-4.6-2.3-7.1-5.4-7.1s-5.4,2.5-5.4,7.1V97c0,4.7,2.3,7.1,5.4,7.1
			S74,101.7,74,97z"/>
		<path class="st0" d="M85.3,101.7V90.2h-3.3v-5.3h3.5v-7.2h5.7v7.2h6.2v5.3h-5.9v10.4c0,2.1,1.1,3,2.8,3h3.1v5.3h-4.7
			C88.2,108.9,85.3,106.5,85.3,101.7z"/>
		<path class="st0" d="M112.8,75.3l-9.2,43.2H98l9.2-43.2H112.8z"/>
		<path class="st0" d="M114.2,84.9h5.7v2.4c1.7-1.9,4.2-3,6.8-2.9c5.4,0,10.4,3.8,10.4,11.6v1.8c0,7.8-5,11.6-10.2,11.6
			c-2.5,0.1-4.9-1-6.5-2.8v12h-6.2L114.2,84.9z M130.9,97v-0.2c0-4.6-2.3-7.1-5.4-7.1s-5.4,2.5-5.4,7.1V97c0,4.7,2.3,7.1,5.4,7.1
			S130.9,101.7,130.9,97z"/>
		<path class="st0" d="M154.7,108.9l-1.9-2.9c-1-1.6-2-3.2-3.2-5.2c-1.1,2-2.2,3.7-3.2,5.2l-1.9,2.9h-6.8l8.6-12.4l-7.9-11.6h7.3
			l1.9,2.9c0.8,1.2,1.6,2.6,2.5,4.2c0.7-1.4,1.6-2.8,2.5-4.2l2-2.9h6.8l-8,11.3l8.7,12.7H154.7z"/>
		<path class="st0" d="M18.9,155.8v0.2c0,5.2-4.1,8.2-9,8.2c-4,0-7.8-2.1-9-6.8l4.6-0.8c0.3,2.2,2.2,3.9,4.4,3.7
			c2.2,0.1,4.1-1.7,4.2-3.9c0-0.1,0-0.1,0-0.2V156c0.1-2.2-1.7-4-3.9-4.1c-0.1,0-0.2,0-0.3,0c-0.8,0-1.7,0.2-2.3,0.7l-2.6-2.9l3.8-4
			c1-1.1,2.1-2.1,3.2-3.1c-1.3,0.1-2.6,0.2-3.8,0.2H2.4v-4.3h14.9v3.8l-4.9,5.2c-0.3,0.3-0.6,0.6-0.9,0.9
			C15.9,148.6,18.9,151.4,18.9,155.8z"/>
		<path class="st0" d="M21.5,155.7v-0.2c0-3.5,1.7-6.2,3.5-8.6l6.3-8.4h5.4l-3.2,4.3c-1.2,1.7-2.6,3.3-4,4.7c0.6-0.3,1.3-0.5,2-0.5
			c4.4,0,8,3.6,8,8c0,0.1,0,0.2,0,0.3v0.2c0,5.4-4.2,8.6-9.1,8.6S21.5,161,21.5,155.7z M35,155.7v-0.1c0-2.5-2-4.4-4.4-4.4
			s-4.4,2-4.4,4.4l0,0v0.1c0,2.5,2,4.4,4.4,4.4S35,158.1,35,155.7z"/>
		<path class="st0" d="M43,145.7h4.3v1.8c1.3-1.5,3.2-2.2,5.1-2.2c4,0,7.8,2.9,7.8,8.7v1.3c0,5.8-3.8,8.7-7.7,8.7
			c-1.9,0-3.7-0.7-4.9-2.1v9H43V145.7z M55.5,154.8v-0.2c0-3.4-1.7-5.3-4-5.3s-4,1.9-4,5.3v0.2c0,3.5,1.7,5.3,4,5.3
			S55.5,158.3,55.5,154.8L55.5,154.8z"/>
		<path class="st0" d="M64.2,158.3v-8.7h-2.5v-4h2.6v-5.4h4.3v5.4h4.6v4h-4.4v7.8c0,1.6,0.8,2.2,2.1,2.2h2.3v4h-3.5
			C66.3,163.7,64.2,161.9,64.2,158.3z"/>
		<path class="st0" d="M84.9,138.5L78,170.9h-4.3l6.9-32.4L84.9,138.5z"/>
		<path class="st0" d="M86,145.7h4.3v1.8c1.3-1.5,3.2-2.2,5.1-2.2c4,0,7.8,2.9,7.8,8.7v1.3c0,5.8-3.8,8.7-7.7,8.7
			c-1.9,0-3.7-0.7-4.9-2.1v9H86V145.7z M98.5,154.8v-0.2c0-3.4-1.7-5.3-4-5.3s-4,1.9-4,5.3v0.2c0,3.5,1.7,5.3,4,5.3
			S98.6,158.3,98.5,154.8L98.5,154.8z"/>
		<path class="st0" d="M116.6,163.7l-1.4-2.2c-0.8-1.2-1.5-2.4-2.4-3.9c-0.8,1.5-1.7,2.8-2.4,3.9l-1.4,2.2h-5.1l6.5-9.3l-5.9-8.7
			h5.5l1.4,2.2c0.6,0.9,1.2,1.9,1.9,3.1c0.6-1.1,1.2-2.1,1.9-3.1l1.5-2.2h5.1l-5.9,8.5l6.5,9.5H116.6z"/>
		<path class="st0" d="M0.6,205.5l6.6-6.7c0.8-0.7,1.3-1.7,1.4-2.7V196c0-1.2-0.9-2.2-2.1-2.2c-0.1,0-0.1,0-0.2,0
			c-1.4,0-2.5,1-2.7,2.9l-3.1-0.5c0.2-3.1,2.8-5.4,5.8-5.3c3,0,5.4,1.8,5.4,5v0.1c0,1.6-1,3.2-2.4,4.7l-2.5,2.5
			c-0.9,0.9-1.5,1.5-2.2,2.1c0.9-0.1,1.7-0.1,2.6-0.1H12v2.9H0.6V205.5z"/>
		<path class="st0" d="M21.4,204.6h-7.5v-2.4l7-10.9h3.5l-7,10.7h4v-3.5h2.9v3.5h1.5v2.6h-1.5v3.4h-2.8V204.6z"/>
		<path class="st0" d="M28.1,196H31v1.2c0.9-1,2.1-1.5,3.4-1.4c2.7,0,5.2,1.9,5.2,5.8v0.9c0,3.9-2.5,5.8-5.1,5.8
			c-1.2,0-2.4-0.5-3.3-1.4v6h-3.1V196z M36.5,202.1L36.5,202.1c0-2.4-1.2-3.6-2.7-3.6s-2.7,1.2-2.7,3.5v0.1c0,2.3,1.2,3.5,2.7,3.5
			S36.5,204.4,36.5,202.1L36.5,202.1z"/>
		<path class="st0" d="M42.3,204.5v-5.8h-1.6V196h1.7v-3.6h2.9v3.6h3.1v2.6h-3v5.2c0,1.1,0.5,1.5,1.4,1.5h1.5v2.6H46
			C43.7,208,42.3,206.8,42.3,204.5z"/>
		<path class="st0" d="M56.2,191.2l-4.6,21.6h-2.9l4.6-21.6H56.2z"/>
		<path class="st0" d="M57,196h2.9v1.2c0.9-1,2.1-1.5,3.4-1.4c2.7,0,5.2,1.9,5.2,5.8v0.9c0,3.9-2.5,5.8-5.1,5.8
			c-1.2,0-2.4-0.5-3.3-1.4v6H57V196z M65.4,202.1L65.4,202.1c0-2.4-1.2-3.6-2.7-3.6S60,199.7,60,202v0.1c0,2.3,1.2,3.5,2.7,3.5
			C64.2,205.7,65.4,204.4,65.4,202.1L65.4,202.1z"/>
		<path class="st0" d="M77.5,208l-1-1.4c-0.5-0.8-1-1.6-1.6-2.6c-0.6,1-1.1,1.8-1.6,2.6l-1,1.4h-3.3l4.3-6.2l-4-5.8h3.6l0.9,1.4
			c0.4,0.6,0.8,1.3,1.2,2.1c0.4-0.7,0.8-1.4,1.2-2.1l1-1.4h3.4l-4,5.7l4.4,6.3H77.5z"/>
		<path class="st0" d="M0,240.1h2.1v-4.2c0-0.4,0-0.9,0-1.3c-0.3,0.3-0.6,0.5-1,0.8L0.2,236v-1.6l2-1.4h1.5v7.1h1.7v1.3H0V240.1z"/>
		<path class="st0" d="M6.6,240.1l3.3-3.4c0.4-0.3,0.6-0.8,0.7-1.4l0,0c0-0.6-0.5-1.1-1.1-1.1c0,0-0.1,0-0.1,0
			c-0.7,0-1.3,0.5-1.3,1.5l-1.5-0.3c0.1-1.5,1.4-2.7,2.9-2.6c1.4-0.1,2.6,0.9,2.7,2.2c0,0.1,0,0.2,0,0.3v0.1
			c-0.1,0.9-0.5,1.7-1.2,2.3L9.7,239c-0.4,0.4-0.8,0.8-1.1,1c0.4,0,0.9,0,1.3,0h2.4v1.4H6.6V240.1z"/>
		<path class="st0" d="M13.6,235.4H15v0.6c0.4-0.5,1.1-0.7,1.7-0.7c1.4,0,2.6,1.2,2.6,2.6c0,0.1,0,0.2,0,0.3v0.4
			c0.2,1.4-0.9,2.7-2.3,2.9c-0.1,0-0.2,0-0.3,0c-0.6,0-1.2-0.2-1.6-0.7v3h-1.6V235.4z M17.7,238.4L17.7,238.4c0-1.2-0.6-1.8-1.4-1.8
			s-1.3,0.6-1.3,1.8v0.1c0,1.2,0.6,1.8,1.3,1.8S17.7,239.6,17.7,238.4L17.7,238.4z"/>
		<path class="st0" d="M20.7,239.6v-2.9h-0.8v-1.3h0.9v-1.8h1.4v1.8h1.5v1.3h-1.5v2.6c0,0.5,0.3,0.8,0.7,0.8h0.8v1.3h-1.2
			c-0.9,0.1-1.7-0.5-1.8-1.4C20.7,239.9,20.7,239.7,20.7,239.6z"/>
		<path class="st0" d="M27.7,233l-2.3,10.8H24l2.3-10.8H27.7z"/>
		<path class="st0" d="M28.2,235.4h1.4v0.6c0.4-0.5,1.1-0.7,1.7-0.7c1.4,0,2.6,1.2,2.6,2.6c0,0.1,0,0.2,0,0.3v0.4
			c0.2,1.4-0.9,2.7-2.3,2.9c-0.1,0-0.2,0-0.3,0c-0.6,0-1.2-0.2-1.6-0.7v3h-1.5V235.4z M32.3,238.4L32.3,238.4c0-1.2-0.6-1.8-1.4-1.8
			s-1.3,0.6-1.3,1.8v0.1c0,1.2,0.6,1.8,1.3,1.8S32.3,239.6,32.3,238.4L32.3,238.4z"/>
		<path class="st0" d="M38.4,241.4l-0.5-0.7c-0.2-0.4-0.5-0.8-0.8-1.3c-0.3,0.5-0.5,0.9-0.8,1.3l-0.5,0.7h-1.7l2.2-3.1l-2-2.9h1.8
			l0.5,0.7c0.2,0.3,0.4,0.6,0.6,1c0.2-0.3,0.4-0.7,0.6-1l0.5-0.7H40l-2,2.8l2.2,3.2H38.4z"/>
	</g>
</g>
</svg>
