<svg xmlns="http://www.w3.org/2000/svg" viewBox="0 0 434.52 87.01"><defs><style>.cls-1{fill:#41b0ee;}</style></defs><title>type-sizes-2</title><g id="Lager_2" data-name="Lager 2"><g id="Lager_1-2" data-name="Lager 1"><path class="cls-1" d="M16,30.6c0-4.2,0-8.7.2-14a52,52,0,0,1-9.7,8.1L0,29.1v-16L16.5,1.8H31.4v84H16Z"/><path class="cls-1" d="M43.54,73.1l33-33.7c4.4-4.5,6.9-9.1,6.9-13.5v-.4c0-6.8-5-11.2-11.5-11.2-7.2,0-12.6,5.2-13.4,14.7l-15.4-2.7C45.54,8.4,57.84,0,72.34,0c14.8,0,27,8.8,27,24.9v.9c0,8.1-4.8,15.9-12.2,23.3L74.54,61.7c-4.3,4.4-7.6,7.5-11,10.4a103.72,103.72,0,0,1,12.8-.6h24.2v14.3h-57Z"/><path class="cls-1" d="M108.15,46.4V41.2c0-28,14.1-40.6,30.8-40.6s30.8,12.6,30.8,40.6v5.2c0,28-14.1,40.6-30.8,40.6S108.15,74.4,108.15,46.4Zm45.1-.3V41.5c0-19.3-5.9-26.6-14.3-26.6s-14.3,7.3-14.3,26.6v4.6c0,19.2,6,26.6,14.3,26.6S153.25,65.3,153.25,46.1Z"/><path class="cls-1" d="M192.25,72.55v-.4c0-5.9,2.9-10.4,5.9-14.4l10.45-14h9.1L212.3,51a72.4,72.4,0,0,1-6.6,7.9,6.46,6.46,0,0,1,3.4-.8c6.9,0,13.35,5.15,13.35,13.85v.4c0,9.05-7,14.4-15.1,14.4S192.25,81.35,192.25,72.55Zm22.5-.1v-.2a7.4,7.4,0,1,0-14.8,0v.2a7.4,7.4,0,1,0,14.8,0Z"/><path class="cls-1" d="M226.14,66.1V63.5c0-14,7.05-20.3,15.4-20.3s15.4,6.3,15.4,20.3v2.6c0,14-7.05,20.3-15.4,20.3S226.14,80.1,226.14,66.1ZM248.69,66v-2.3c0-9.65-2.95-13.3-7.15-13.3s-7.15,3.65-7.15,13.3V66c0,9.6,3,13.3,7.15,13.3S248.69,75.55,248.69,66Z"/><path class="cls-1" d="M289.09,78.85h-15V74l14-21.8h7l-14,21.36h8v-7h5.72v7h3v5.28h-3v7h-5.72Z"/><path class="cls-1" d="M301.22,76.09v-.32a9.45,9.45,0,0,1,4.68-8.2A7.65,7.65,0,0,1,302.42,61v-.32c0-5.8,5.28-9.2,10.88-9.2s10.88,3.4,10.88,9.2V61a7.65,7.65,0,0,1-3.48,6.52,9.45,9.45,0,0,1,4.68,8.2v.32c0,6.72-5.8,10.4-12.08,10.4S301.22,82.81,301.22,76.09Zm17.8-.28v-.16a5.73,5.73,0,0,0-11.44,0v.16c0,3.4,2.68,5.4,5.72,5.4S319,79.21,319,75.81Zm-.8-14.44v-.16c0-2.8-2.44-4.4-4.92-4.4s-4.92,1.6-4.92,4.4v.16c0,2.84,2.44,4.44,4.92,4.44S318.22,64.21,318.22,61.37Z"/><path class="cls-1" d="M357.16,77.89v.27c0,5.19-4.08,8.19-9,8.19-4,0-7.83-2.07-9-6.84l4.62-.84a4.24,4.24,0,0,0,4.38,3.72,4.07,4.07,0,0,0,4.2-4.14v-.12a4.16,4.16,0,0,0-6.45-3.42l-2.58-2.85,3.75-4a42.38,42.38,0,0,1,3.18-3.12,30.55,30.55,0,0,1-3.84.18h-5.82V60.61h14.94v3.81l-4.92,5.19c-.3.3-.57.6-.87.93C354.1,70.78,357.16,73.54,357.16,77.89Z"/><path class="cls-1" d="M359.76,77.86v-.24c0-3.54,1.74-6.24,3.54-8.64l6.27-8.37H375l-3.24,4.29a43.35,43.35,0,0,1-4,4.74,3.88,3.88,0,0,1,2-.48,8,8,0,0,1,8,8.31v.24c0,5.43-4.2,8.64-9.06,8.64S359.76,83.14,359.76,77.86Zm13.5-.06v-.12a4.44,4.44,0,1,0-8.88,0v.12a4.44,4.44,0,1,0,8.88,0Z"/><path class="cls-1" d="M389,83.26l6.6-6.74a4.06,4.06,0,0,0,1.38-2.7v-.08a2.18,2.18,0,0,0-2.3-2.24c-1.44,0-2.52,1-2.68,2.94L389,73.9a5.6,5.6,0,0,1,5.84-5.26c3,0,5.4,1.76,5.4,5v.18c0,1.62-1,3.18-2.44,4.66L395.24,81c-.86.88-1.52,1.5-2.2,2.08a20.75,20.75,0,0,1,2.56-.12h4.84v2.86H389Z"/><path class="cls-1" d="M409.9,82.32h-7.52V79.9l7-10.9h3.52l-7,10.68h4V76.2h2.86v3.48h1.5v2.64h-1.5v3.48H409.9Z"/><path class="cls-1" d="M425.83,80.29c0-.42,0-.87,0-1.4a5.18,5.18,0,0,1-1,.81l-.65.44v-1.6l1.65-1.13h1.49v8.4h-1.54Z"/><path class="cls-1" d="M428.82,84.54l3.3-3.37a2,2,0,0,0,.69-1.35v0a1.09,1.09,0,0,0-1.15-1.12c-.72,0-1.26.52-1.34,1.47l-1.54-.27a2.8,2.8,0,0,1,2.92-2.63,2.46,2.46,0,0,1,2.7,2.49v.09a3.46,3.46,0,0,1-1.22,2.33l-1.26,1.26c-.43.44-.76.75-1.1,1a10.37,10.37,0,0,1,1.28-.06h2.42v1.43h-5.7Z"/></g></g></svg>