<?xml version="1.0" encoding="utf-8"?>
<!-- Generator: Adobe Illustrator 21.0.2, SVG Export Plug-In . SVG Version: 6.00 Build 0)  -->
<svg version="1.1" id="Lager_1" xmlns="http://www.w3.org/2000/svg" xmlns:xlink="http://www.w3.org/1999/xlink" x="0px" y="0px"
	 viewBox="0 0 432.4 272" style="enable-background:new 0 0 432.4 272;" xml:space="preserve">
<style type="text/css">
	.st0{fill:#673AB6;}
</style>
<path class="st0" d="M90.5,88.1H73.2V27.8c-2.8,5.5-5.9,10.8-9.2,16L48.2,68.7L32.5,43.8c-3.4-5.1-6.5-10.5-9.2-16V88H7.1V0h17.4
	l24.2,38.8L73.1,0h17.4L90.5,88.1z"/>
<path class="st0" d="M100,71v-0.8c0-10.3,7.3-20,24.3-20H140v-1.9c0-7.6-4.1-11.6-11.1-11.6c-5.8,0-10.1,2.7-12.1,8.1L101.9,42
	c5-13.5,16.2-18,27.8-18c16.5,0,25.9,9.1,25.9,23.7v40.5h-15v-6.9c-5.1,5.4-12.2,8.3-19.6,8.2C108,89.4,100,81.5,100,71z M140,62.3
	v-1.8h-13.6c-7,0-10.2,3.3-10.2,8s3.7,8.2,9.5,8.2C133.8,76.7,140,71.3,140,62.3L140,62.3z"/>
<path class="st0" d="M166.3,0h16.1v33.5c0.2,5.7-0.4,11.4-1.6,16.9l22-25.3h19.6l-23.7,26l24,36.9h-19L187.5,62l-5.5,5.9v20.1h-15.6
	V0z"/>
<path class="st0" d="M254.1,90c-16.8,0-30.9-12-30.9-32.8v-1c0-20.9,13.6-32.8,30.3-32.8s30.3,12,30.3,33.2v4.2h-44.9
	c0.4,9.5,7.1,15.5,15.7,15.5c5,0,10.2-2.1,12.7-7.1l15.2,2.7C277.9,83.6,266.4,90,254.1,90z M267.6,50.1
	c-0.9-9.3-7.3-14.1-14.1-14.1c-6.9,0-13.1,4.8-13.9,14.1H267.6z"/>
<path class="st0" d="M320.3,0h16.2v17h-16.2V0z M320.3,25.2h16.2v62.9h-16.2V25.2z"/>
<path class="st0" d="M353.1,69.4V39h-8.6V25.2h9.1V6.3h15v18.9h16.1V39h-15.6v27.4c0,5.5,2.8,7.9,7.4,7.9h8.1v13.8h-12.4
	C360.5,88.1,353.1,81.8,353.1,69.4z"/>
<path class="st0" d="M0,140.9h17.9L28.7,174c1,3.4,2.1,7,3.4,12.6c0.8-4.3,1.9-8.5,3.3-12.6l10.9-33h16.7l-23.4,62.8H23.4L0,140.9z"
	/>
<path class="st0" d="M70.6,115.8h16.1v17H70.6V115.8z M70.6,140.9h16.1v62.9H70.6V140.9z"/>
<path class="st0" d="M95.3,188.4l13.8-5.4c2.9,6.2,7.3,9.4,14.3,9.4c6.5,0,10.1-2.8,10.1-7c0-4.2-3.5-5.8-8-6.6l-9.4-1.7
	c-13.9-2.6-19.5-8.9-19.5-17.3c0-10.4,8.1-20.1,24.9-20.1c11,0,20.8,4.2,26.9,14.5l-13.7,5.5c-2.3-4.7-7.2-7.6-12.4-7.4
	c-6.2,0-9.5,2.8-9.5,6.6c0,3.3,2.7,5,7.5,6l9.3,1.7c13.9,2.7,20,8.6,20,17.8c0,11-8.5,20.7-25.5,20.7
	C112.9,205.1,101.8,200.9,95.3,188.4z"/>
<path class="st0" d="M158.3,115.8h16.1v17h-16.1V115.8z M158.3,140.9h16.1v62.9h-16.1V140.9z"/>
<path class="st0" d="M202.5,197.5v6.3h-15v-88.1h16.2v31.3c4.3-4.9,10.6-7.6,17.1-7.4c13.6,0,26.7,10.1,26.7,30.4v4.6
	c0,20.3-13,30.4-27.2,30.4C211.8,205.1,205.8,201.6,202.5,197.5z M231.2,172.7v-0.6c0-12.3-6.1-18.6-14.1-18.6s-14,6.3-14,18.6v0.6
	c0,12.1,6.1,18.6,14,18.6S231.2,184.7,231.2,172.7z"/>
<path class="st0" d="M257.2,187.4v-71.6h16.2v68.8c0,3.8,1.6,5.4,4.4,5.4h3.5v13.8h-7.7C263.5,203.8,257.2,198.2,257.2,187.4z"/>
<path class="st0" d="M316.7,205.7c-16.8,0-30.9-12-30.9-32.8v-1c0-20.9,13.6-32.8,30.3-32.8c16.7,0,30.3,12,30.3,33.2v4.1h-44.8
	c0.4,9.5,7.1,15.5,15.7,15.5c5,0,10.2-2.1,12.7-7.1l15.2,2.7C340.5,199.3,329,205.7,316.7,205.7z M330.2,165.9
	c-0.9-9.3-7.3-14.1-14.1-14.1s-13.1,4.8-13.9,14.1H330.2z"/>
<path class="st0" d="M360.6,134.6v-18.9h16.1v18.9l-0.5,38.4h-15L360.6,134.6z M360.6,185.6h16.1v18.2h-16.1V185.6z"/>
</svg>
