<?xml version="1.0" encoding="utf-8"?>
<!-- Generator: Adobe Illustrator 21.0.2, SVG Export Plug-In . SVG Version: 6.00 Build 0)  -->
<svg version="1.1" id="Lager_1" xmlns="http://www.w3.org/2000/svg" xmlns:xlink="http://www.w3.org/1999/xlink" x="0px" y="0px"
	 viewBox="0 0 1442.3 760.6" style="enable-background:new 0 0 1442.3 760.6;" xml:space="preserve">
<style type="text/css">
	.st0{fill:#595959;}
</style>
<title>typo-case</title>
<g id="Lager_2">
	<g id="Lager_2-2">
		<path d="M46.7,54.5h-31L8.2,77H0L26.3,0h10.3l26.3,77h-8.7L46.7,54.5z M44.2,47.3l-9.3-28c-1.2-3.7-2.5-7.5-3.7-12.6
			c-1.2,5-2.5,8.9-3.7,12.6l-9.4,28H44.2z"/>
		<path d="M69.3,65.1V0H77v63.7c0,4.9,1.9,6.7,5.6,6.7h2.8V77h-4.7C73.9,77,69.3,73.5,69.3,65.1z"/>
		<path d="M85.9,22h8.4l10.2,33.5c1,3.2,1.9,6.3,3.1,11.2c1.4-4.9,2.3-7.9,3.4-11.2L121.6,22h7.2l10.8,33.5c1,3.3,2,6.5,3.4,11.2
			c1.2-4.7,2.2-7.9,3.2-11.2L156.6,22h7.9l-18.1,55h-7.1l-11.4-35.8c-0.9-2.8-1.8-6-2.8-9.8c-0.9,3.8-1.9,7.1-2.8,9.8L111.1,77h-7.2
			L85.9,22z"/>
		<path d="M168.2,62.9v-0.7c0-9.1,6.7-16.7,20.4-16.7h15.9v-4.4c0-8.8-4.9-13.9-13.2-13.9c-6.6,0-11.6,3.3-14.3,9.7l-7.1-1.5
			c3.9-10.2,12.1-14.5,21.7-14.5c12.8,0,20.3,7.6,20.3,19.7V77h-7.1v-8.8c-4.1,6.3-11.2,10.1-18.7,9.9
			C175.6,78.1,168.2,72,168.2,62.9z M204.4,55.6v-5h-14.9c-9,0-13.6,4.8-13.6,11c0,6.4,5,10.4,11.9,10.4
			C197.2,72,204.4,65.1,204.4,55.6L204.4,55.6z"/>
		<path d="M222.2,92.3h4.1c5.1,0,7.6-2.4,9.9-8.6l3.4-9.1L216.7,22h8.5l13.3,31.7c1.6,3.8,3.3,7.7,5,12.5c1.4-4.9,2.6-8.9,3.9-12.7
			L258.2,22h8l-23.3,64.4c-3,8.3-8,12.6-15.9,12.6h-4.9L222.2,92.3z"/>
		<path d="M268.7,64l6.6-2.8c3,7,8.2,10.6,16,10.6c7.5,0,12.9-3.6,12.9-9.8c0-6-5-8.3-11.5-9.5l-7.1-1.3
			c-8.9-1.7-15.6-5.7-15.6-14.3c0-9,7.1-16.1,19.6-16.1c9.1,0,16.9,3.9,21.4,12.2l-6.5,2.8c-3-5.9-8.2-8.7-14.6-8.7
			c-7.2,0-12.3,3.8-12.3,9.5c0,5.3,4.3,7.6,9.9,8.6l7,1.3c10.5,1.9,17.2,6.1,17.2,15c0,9.5-7.7,16.5-20.4,16.5
			C281.8,78.1,273.4,74.1,268.7,64z"/>
		<path d="M380.7,77h-7.1v-8.8c-3.4,6.7-9.7,9.9-16.7,9.9c-11.3,0-18.7-7.9-18.7-20.3V22h7.7v34.1c0,9.6,5.1,15.3,12.8,15.3
			c8.5,0,14.3-7,14.3-16.2V22h7.7V77z"/>
		<path d="M388.5,64l6.6-2.8c3,7,8.2,10.6,16,10.6c7.5,0,12.9-3.6,12.9-9.8c0-6-5-8.3-11.5-9.5l-7.1-1.3
			c-8.9-1.7-15.6-5.7-15.6-14.2c0-9,7.1-16.1,19.6-16.1c9.1,0,16.9,3.9,21.4,12.2l-6.5,2.8c-3-5.9-8.2-8.7-14.6-8.7
			c-7.2,0-12.3,3.8-12.3,9.5c0,5.3,4.3,7.6,9.9,8.6l7,1.3c10.5,1.9,17.2,6.1,17.2,15c0,9.5-7.7,16.5-20.4,16.5
			C401.6,78.1,393.2,74.1,388.5,64z"/>
		<path d="M461.5,78.6c-13.8,0-24.8-10.3-24.8-28.6v-1.1c0-18.3,10.8-28.6,24.3-28.6s24.3,10.3,24.3,28.5V51h-41.1
			c0.2,13,7.2,21,17.5,21c6.4,0.2,12.3-3.6,14.9-9.5l7.3,1.5C479.8,73.6,471.3,78.6,461.5,78.6z M477.5,45.8
			c-0.7-12.6-8-19.3-16.6-19.3s-15.9,6.7-16.5,19.3H477.5z"/>
		<path d="M509.1,64l6.6-2.8c3,7,8.2,10.6,16,10.6c7.5,0,12.9-3.6,12.9-9.8c0-6-5-8.3-11.5-9.5l-7.1-1.3
			c-8.9-1.7-15.6-5.7-15.6-14.2c0-9,7.1-16.1,19.6-16.1c9.1,0,16.9,3.9,21.4,12.2l-6.5,2.8c-3-5.9-8.2-8.7-14.6-8.7
			c-7.2,0-12.3,3.8-12.3,9.5c0,5.3,4.3,7.6,9.9,8.6l7,1.3c10.5,1.9,17.2,6.1,17.2,15c0,9.5-7.7,16.5-20.3,16.5
			C522.2,78.1,513.8,74.1,509.1,64z"/>
		<path d="M582.1,78.6c-13.8,0-24.8-10.3-24.8-28.6v-1.1c0-18.3,10.8-28.6,24.3-28.6s24.3,10.3,24.3,28.5V51h-41.1
			c0.2,13,7.2,21,17.5,21c6.4,0.2,12.3-3.6,14.8-9.5l7.3,1.5C600.4,73.6,591.9,78.6,582.1,78.6z M598.1,45.8
			c-0.7-12.6-8-19.3-16.6-19.3s-15.8,6.7-16.5,19.3L598.1,45.8z"/>
		<path d="M614.7,22h7.2v8.8c3.4-6.7,9.7-9.9,16.7-9.9c11.3,0,18.7,7.9,18.7,20.3V77h-7.7V42.9c0-9.6-5.1-15.4-12.8-15.4
			c-8.5,0-14.3,7.1-14.3,16.3V77h-7.7V22z"/>
		<path d="M671.6,63.6v-35h-9.3V22h9.5V5.5h7.1V22h15.8v6.6h-15.5v33.6c0,5.9,2.8,8.2,7.4,8.2h8.1V77h-9.9
			C677,77,671.6,73,671.6,63.6z"/>
		<path d="M722.3,78.6c-13.8,0-24.8-10.3-24.8-28.6v-1.1c0-18.3,10.8-28.6,24.3-28.6S746,30.6,746,48.8V51h-41
			c0.2,13,7.2,21,17.5,21c6.4,0.2,12.3-3.6,14.8-9.5l7.3,1.5C740.6,73.6,732.1,78.6,722.3,78.6z M738.3,45.8
			c-0.7-12.6-8-19.3-16.6-19.3s-15.9,6.7-16.5,19.3H738.3z"/>
		<path d="M754.9,22h7.1v8.8c3.4-6.7,9.7-9.9,16.7-9.9c11.3,0,18.7,7.9,18.7,20.3V77h-7.7V42.9c0-9.6-5.1-15.4-12.8-15.4
			c-8.5,0-14.3,7.1-14.3,16.3V77h-7.7L754.9,22z"/>
		<path d="M805.8,50v-1.1c0-18.1,10.8-28,23.7-28c9.6,0,18,5.6,21.5,16.2l-7.2,1.5c-2.7-7.4-8.4-11.1-14.4-11.1
			c-8.7,0-16,7.4-16,21.7v0.5c0,14.3,7.3,21.7,16,21.7c6,0,11.7-3.7,14.4-11.1l7.1,1.5c-3.6,10.7-11.9,16.2-21.5,16.2
			C816.6,78.1,805.8,68.2,805.8,50z"/>
		<path d="M880.3,78.6c-13.8,0-24.8-10.3-24.8-28.6v-1.1c0-18.3,10.8-28.6,24.3-28.6S904,30.6,904,48.9V51h-41
			c0.2,13,7.2,21,17.5,21c6.4,0.2,12.3-3.6,14.8-9.5l7.3,1.5C898.6,73.6,890.1,78.6,880.3,78.6z M896.3,45.8
			c-0.7-12.6-8-19.3-16.6-19.3s-15.9,6.7-16.5,19.3H896.3z"/>
		<path d="M929.3,50v-1.1c0-18.1,10.8-28,23.7-28c9.6,0,18,5.6,21.5,16.2l-7.2,1.5c-2.7-7.4-8.4-11.1-14.4-11.1
			c-8.7,0-16,7.4-16,21.7v0.5c0,14.3,7.3,21.7,16,21.7c6,0,11.7-3.7,14.4-11.1l7.2,1.5C971,72.6,962.6,78.1,953,78.1
			C940.1,78.1,929.3,68.2,929.3,50z"/>
		<path d="M980.3,62.9v-0.7c0-9.1,6.7-16.7,20.3-16.7h15.9v-4.4c0-8.8-4.9-13.9-13.2-13.9c-6.6,0-11.6,3.3-14.3,9.7l-7-1.5
			c3.9-10.2,12.1-14.5,21.7-14.5c12.8,0,20.3,7.6,20.3,19.7V77h-7.2v-8.8c-4.1,6.3-11.2,10.1-18.7,9.9
			C987.7,78.1,980.3,72,980.3,62.9z M1016.5,55.6v-5h-14.9c-9,0-13.6,4.8-13.6,11c0,6.4,5,10.4,11.9,10.4
			C1009.4,72,1016.5,65.1,1016.5,55.6L1016.5,55.6z"/>
		<path d="M1031.3,64l6.6-2.8c3,7,8.2,10.6,15.9,10.6c7.5,0,12.9-3.6,12.9-9.8c0-6-5-8.3-11.5-9.5l-7.1-1.3
			c-8.9-1.7-15.6-5.7-15.6-14.2c0-9,7.2-16.1,19.6-16.1c9.1,0,16.9,3.9,21.4,12.2l-6.5,2.8c-3-5.9-8.2-8.7-14.6-8.7
			c-7.2,0-12.3,3.8-12.3,9.5c0,5.3,4.3,7.6,9.9,8.6l7,1.3c10.4,1.9,17.2,6.1,17.2,15c0,9.5-7.7,16.5-20.3,16.5
			C1044.4,78.1,1036,74.1,1031.3,64z"/>
		<path d="M1104.3,78.6c-13.8,0-24.8-10.3-24.8-28.6v-1.1c0-18.3,10.8-28.6,24.3-28.6s24.3,10.3,24.3,28.5V51H1087
			c0.2,13,7.2,21.1,17.5,21.1c6.4,0.2,12.3-3.6,14.8-9.5l7.3,1.5C1122.7,73.6,1114.1,78.6,1104.3,78.6z M1120.3,45.8
			c-0.7-12.6-8-19.3-16.6-19.3s-15.9,6.7-16.5,19.3H1120.3z"/>
		<path d="M1134.2,50.6v-2.2c0-18.4,10.7-27.5,22.6-27.5c7.5-0.2,14.3,4,17.4,10.8V0h7.7v77h-7.1V66.9c-3.2,7-10.2,11.4-17.9,11.2
			C1144.8,78.1,1134.2,69,1134.2,50.6z M1174.5,49.8v-0.5c0-14.2-7.2-21.7-16.2-21.7s-16.4,7.5-16.4,21.7v0.5
			c0,14.1,7.2,21.7,16.4,21.7S1174.5,63.9,1174.5,49.8L1174.5,49.8z"/>
		<path d="M1218.5,63.6v-35h-9.3V22h9.5V5.5h7.2V22h15.8v6.6h-15.5v33.6c0,5.9,2.8,8.2,7.4,8.2h8.1V77h-9.9
			C1223.9,77,1218.5,73,1218.5,63.6z"/>
		<path d="M1269.2,78.6c-13.8,0-24.8-10.3-24.8-28.6v-1.1c0-18.3,10.8-28.6,24.3-28.6s24.3,10.3,24.3,28.5V51h-41.1
			c0.2,13,7.2,21,17.5,21c6.4,0.2,12.3-3.6,14.8-9.5l7.3,1.5C1287.5,73.6,1279,78.6,1269.2,78.6z M1285.2,45.8
			c-0.7-12.6-8-19.3-16.6-19.3s-15.9,6.7-16.5,19.3H1285.2z"/>
		<path d="M1333.8,77l-8.2-12.1c-2.4-3.7-4.8-7.2-7.1-11.2c-2.4,4-4.8,7.6-7.2,11.2l-8.2,12.1h-8.6l19.9-28.4L1296.1,22h9.2
			l8.2,12.1c1.9,2.9,3.7,5.8,5.6,9c1.8-3.2,3.6-6.1,5.5-9l8.2-12.1h8.6l-18.2,26.2L1343,77H1333.8z"/>
		<path d="M1356.8,63.6v-35h-9.3V22h9.5V5.5h7.2V22h15.8v6.6h-15.5v33.6c0,5.9,2.8,8.2,7.4,8.2h8.1V77h-9.9
			C1362.2,77,1356.8,73,1356.8,63.6z"/>
		<path d="M1387.6,67.1h8.4V77h-8.4V67.1z"/>
		<path d="M52.8,117.7H30.9V187h-8.2v-69.3H0.8V110h52L52.8,117.7z"/>
		<path d="M103.2,151.2V187h-7.7v-34.1c0-9.6-5.1-15.3-12.8-15.3c-8.5,0-14.3,7-14.3,16.2V187h-7.7v-77h7.7v29.9
			c3.3-5.8,9.2-9,16.1-9C95.8,130.9,103.2,138.8,103.2,151.2z"/>
		<path d="M114.3,113.3h8.4v8.8h-8.4V113.3z M114.7,132h7.7v55h-7.7V132z"/>
		<path d="M130.3,174l6.6-2.8c3,7,8.2,10.6,15.9,10.6c7.5,0,12.9-3.6,12.9-9.8c0-6-5-8.3-11.5-9.5l-7.1-1.3
			c-8.9-1.6-15.6-5.7-15.6-14.2c0-9,7.1-16.1,19.6-16.1c9.1,0,16.9,3.9,21.4,12.2l-6.5,2.8c-3-5.9-8.2-8.7-14.6-8.7
			c-7.2,0-12.3,3.8-12.3,9.5c0,5.3,4.3,7.6,9.9,8.6l7,1.3c10.4,1.9,17.2,6.1,17.2,15c0,9.5-7.7,16.5-20.4,16.5
			C143.4,188.1,134.9,184.1,130.3,174z"/>
		<path d="M200.8,132h7.1v8.8c2.9-6.1,9.2-10,15.9-9.9c6.9-0.2,13.1,4.2,15.2,10.8c3.5-7.2,9.5-10.8,16.4-10.8
			c10.6,0,18.1,7.9,18.1,20.3V187h-7.7v-34.4c0-9.4-4.7-15.1-11.7-15.1c-8,0-13.1,7.1-13.1,16.3V187h-7.7v-34.4
			c0-9.4-4.6-15.1-11.7-15.1c-7.9,0-13.1,7.1-13.1,16.3V187h-7.7L200.8,132z"/>
		<path d="M306.9,188.6c-13.9,0-24.9-10.3-24.9-28.6v-1.1c0-18.3,10.8-28.6,24.3-28.6s24.3,10.3,24.3,28.5v2.2h-41
			c0.2,13,7.2,21,17.5,21c6.4,0.2,12.3-3.6,14.9-9.5l7.3,1.5C325.2,183.6,316.7,188.6,306.9,188.6z M322.9,155.8
			c-0.7-12.6-8-19.3-16.6-19.3s-15.9,6.7-16.5,19.3H322.9z"/>
		<path d="M336.6,172.9v-0.7c0-9.1,6.7-16.7,20.4-16.7h15.9v-4.4c0-8.8-4.9-13.9-13.2-13.9c-6.6,0-11.6,3.3-14.3,9.7l-7.1-1.5
			c3.9-10.2,12.1-14.5,21.7-14.5c12.8,0,20.3,7.6,20.3,19.7V187H373v-8.8c-4.1,6.3-11.2,10.1-18.7,9.9
			C344,188.1,336.6,182,336.6,172.9z M372.8,165.6v-5h-14.9c-9,0-13.6,4.8-13.6,11c0,6.4,5,10.4,11.9,10.4
			C365.6,182,372.8,175.1,372.8,165.6L372.8,165.6z"/>
		<path d="M392.1,132h7.1v8.8c3.4-6.7,9.7-9.9,16.7-9.9c11.3,0,18.7,7.9,18.7,20.3V187h-7.7v-34.1c0-9.6-5.1-15.4-12.8-15.4
			c-8.5,0-14.3,7.1-14.3,16.3V187h-7.7V132z"/>
		<path d="M441.5,174l6.6-2.8c3,7,8.2,10.6,16,10.6c7.5,0,12.9-3.6,12.9-9.8c0-6-5-8.3-11.5-9.5l-7.1-1.3
			c-8.9-1.6-15.6-5.7-15.6-14.2c0-9,7.1-16.1,19.6-16.1c9.1,0,16.9,3.9,21.4,12.2l-6.5,2.8c-3-5.9-8.2-8.7-14.6-8.7
			c-7.2,0-12.3,3.8-12.3,9.5c0,5.3,4.3,7.6,9.9,8.6l7,1.3c10.5,1.9,17.2,6.1,17.2,15c0,9.5-7.7,16.5-20.4,16.5
			C454.6,188.1,446.2,184.1,441.5,174z"/>
		<path d="M516.1,173.6v-35h-9.3V132h9.5v-16.5h7.2V132h15.8v6.6h-15.5v33.6c0,5.9,2.8,8.2,7.4,8.2h8.1v6.6h-9.9
			C521.5,187,516.1,183,516.1,173.6z"/>
		<path d="M588.8,151.2V187h-7.7v-34.1c0-9.6-5.1-15.3-12.8-15.3c-8.5,0-14.3,7-14.3,16.2V187h-7.7v-77h7.7v29.9
			c3.3-5.8,9.2-9,16.1-9C581.4,130.9,588.8,138.8,588.8,151.2z"/>
		<path d="M597.5,172.9v-0.7c0-9.1,6.7-16.7,20.3-16.7h15.9v-4.4c0-8.8-4.9-13.9-13.2-13.9c-6.6,0-11.6,3.3-14.3,9.7l-7.1-1.5
			c3.9-10.2,12.1-14.5,21.7-14.5c12.8,0,20.3,7.6,20.3,19.7V187H634v-8.8c-4.1,6.3-11.2,10.1-18.7,9.9
			C605,188.1,597.5,182,597.5,172.9z M633.7,165.6v-5h-15c-9,0-13.6,4.8-13.6,11c0,6.4,5,10.4,11.9,10.4
			C626.6,182,633.7,175.1,633.7,165.6L633.7,165.6z"/>
		<path d="M656.1,173.6v-35h-9.3V132h9.5v-16.5h7.2V132h15.8v6.6h-15.5v33.6c0,5.9,2.8,8.2,7.4,8.2h8.1v6.6h-9.9
			C661.5,187,656.1,183,656.1,173.6z"/>
		<path d="M710.7,173.6v-35h-9.3V132h9.5v-16.5h7.2V132h15.8v6.6h-15.5v33.6c0,5.9,2.8,8.2,7.4,8.2h8.1v6.6h-9.9
			C716.1,187,710.7,183,710.7,173.6z"/>
		<path d="M783.3,151.2V187h-7.7v-34.1c0-9.6-5.1-15.3-12.8-15.3c-8.5,0-14.3,7-14.3,16.2V187h-7.7v-77h7.7v29.9
			c3.3-5.8,9.2-9,16.1-9C775.9,130.9,783.3,138.8,783.3,151.2z"/>
		<path d="M816.5,188.6c-13.8,0-24.8-10.3-24.8-28.6v-1.1c0-18.3,10.8-28.6,24.3-28.6s24.3,10.3,24.3,28.5v2.2h-41.1
			c0.2,13,7.2,21.1,17.5,21.1c6.4,0.2,12.3-3.6,14.8-9.5l7.3,1.5C834.8,183.6,826.3,188.6,816.5,188.6z M832.5,155.8
			c-0.7-12.6-8-19.3-16.6-19.3s-15.9,6.7-16.5,19.3H832.5z"/>
		<path d="M874.6,138.6h-10.6V132h10.9v-7.8c0-10.4,6.8-14.2,14.1-14.2h7.4v6.6h-6.3c-4.9,0-8.1,2.2-8.1,8.4v7h14.4v6.6h-14.1V187
			h-7.7V138.6z"/>
		<path d="M903.3,113.3h8.4v8.8h-8.4V113.3z M903.7,132h7.7v55h-7.7V132z"/>
		<path d="M924,132h7.2v13.2c3.4-8.5,11.5-13.8,20.8-13.8v7.7c-12.5,0-20.3,9.4-20.3,22.6V187H924V132z"/>
		<path d="M955.8,174l6.6-2.8c3,7,8.2,10.6,16,10.6c7.5,0,12.9-3.6,12.9-9.8c0-6-5-8.3-11.5-9.5l-7.1-1.3
			c-8.9-1.6-15.6-5.7-15.6-14.2c0-9,7.2-16.1,19.6-16.1c9.1,0,16.9,3.9,21.4,12.2l-6.5,2.8c-3-5.9-8.2-8.7-14.6-8.7
			c-7.2,0-12.3,3.8-12.3,9.5c0,5.3,4.3,7.6,9.9,8.6l7,1.3c10.5,1.9,17.2,6.1,17.2,15c0,9.5-7.7,16.5-20.3,16.5
			C968.9,188.1,960.5,184.1,955.8,174z"/>
		<path d="M1011.4,173.6v-35h-9.3V132h9.5v-16.5h7.2V132h15.8v6.6h-15.5v33.6c0,5.9,2.8,8.2,7.4,8.2h8.1v6.6h-9.9
			C1016.8,187,1011.4,183,1011.4,173.6z"/>
		<path d="M1062,175.1V110h7.7v63.7c0,4.9,1.9,6.7,5.6,6.7h2.8v6.6h-4.7C1066.6,187,1062,183.5,1062,175.1z"/>
		<path d="M1105.6,188.6c-13.8,0-24.8-10.3-24.8-28.6v-1.1c0-18.3,10.8-28.6,24.3-28.6s24.3,10.3,24.3,28.5v2.2h-41.1
			c0.2,13,7.2,21.1,17.5,21.1c6.4,0.2,12.3-3.6,14.8-9.5l7.3,1.5C1123.9,183.6,1115.4,188.6,1105.6,188.6z M1121.6,155.8
			c-0.7-12.6-8-19.3-16.6-19.3s-15.9,6.7-16.5,19.3H1121.6z"/>
		<path d="M1141,173.6v-35h-9.3V132h9.5v-16.5h7.2V132h15.8v6.6h-15.5v33.6c0,5.9,2.8,8.2,7.4,8.2h8.1v6.6h-9.9
			C1146.4,187,1141,183,1141,173.6z"/>
		<path d="M1178.2,173.6v-35h-9.3V132h9.5v-16.5h7.2V132h15.8v6.6h-15.5v33.6c0,5.9,2.8,8.2,7.4,8.2h8.1v6.6h-9.9
			C1183.6,187,1178.2,183,1178.2,173.6z"/>
		<path d="M1228.8,188.6c-13.8,0-24.8-10.3-24.8-28.6v-1.1c0-18.3,10.8-28.6,24.3-28.6s24.3,10.3,24.3,28.5v2.2h-41.1
			c0.2,13,7.2,21.1,17.5,21.1c6.4,0.2,12.3-3.6,14.8-9.5l7.3,1.5C1247.2,183.6,1238.7,188.6,1228.8,188.6z M1244.8,155.8
			c-0.7-12.6-8-19.3-16.6-19.3s-15.9,6.7-16.5,19.3H1244.8z"/>
		<path d="M1261.9,132h7.2v13.2c3.4-8.5,11.5-13.8,20.8-13.8v7.7c-12.5,0-20.3,9.4-20.3,22.6V187h-7.7L1261.9,132z"/>
		<path d="M1318.1,113.3h8.4v8.8h-8.4V113.3z M1318.5,132h7.7v55h-7.7V132z"/>
		<path d="M1338.3,132h7.2v8.8c3.4-6.7,9.7-9.9,16.7-9.9c11.3,0,18.7,7.9,18.7,20.3V187h-7.7v-34.1c0-9.6-5.1-15.4-12.8-15.4
			c-8.5,0-14.3,7.1-14.3,16.3V187h-7.7L1338.3,132z"/>
		<path d="M1.6,282.9v-0.7c0-9.1,6.7-16.7,20.4-16.7h15.8v-4.4c0-8.8-4.9-13.9-13.2-13.9c-6.6,0-11.6,3.3-14.3,9.7l-7-1.5
			c3.9-10.2,12.1-14.5,21.7-14.5c12.8,0,20.3,7.6,20.3,19.7V297h-7.1v-8.8c-4.1,6.3-11.2,10.1-18.7,9.9C9.1,298.1,1.6,292,1.6,282.9
			z M37.9,275.6v-5H22.9c-9,0-13.6,4.8-13.6,11c0,6.4,5,10.4,11.9,10.4C30.7,292,37.8,285.1,37.9,275.6L37.9,275.6z"/>
		<path d="M72.7,284l6.6-2.8c3,7,8.2,10.6,15.9,10.6c7.5,0,12.9-3.6,12.9-9.8c0-6-5-8.3-11.5-9.5l-7.1-1.3
			c-8.9-1.6-15.6-5.7-15.6-14.2c0-9,7.2-16.1,19.6-16.1c9.1,0,16.9,3.9,21.4,12.2l-6.5,2.8c-3-5.9-8.2-8.7-14.6-8.7
			c-7.2,0-12.3,3.8-12.3,9.5c0,5.3,4.3,7.6,9.9,8.6l7,1.3c10.4,1.9,17.2,6.1,17.2,15c0,9.5-7.7,16.5-20.3,16.5
			C85.8,298.1,77.4,294.1,72.7,284z"/>
		<path d="M145.7,298.6c-13.8,0-24.8-10.3-24.8-28.6v-1.1c0-18.3,10.8-28.6,24.3-28.6s24.3,10.3,24.3,28.5v2.1h-41.1
			c0.2,13,7.2,21.1,17.5,21.1c6.4,0.2,12.3-3.6,14.9-9.5l7.3,1.5C164,293.6,155.5,298.6,145.7,298.6z M161.7,265.8
			c-0.7-12.6-8-19.3-16.6-19.3s-15.9,6.7-16.5,19.3H161.7z"/>
		<path d="M178.3,242h7.1v8.8c3.4-6.7,9.7-9.9,16.7-9.9c11.3,0,18.7,7.9,18.7,20.3V297h-7.7v-34.1c0-9.6-5.1-15.4-12.8-15.4
			c-8.5,0-14.3,7.1-14.3,16.3V297h-7.7V242z"/>
		<path d="M235.2,283.6v-35H226V242h9.5v-16.5h7.1V242h15.8v6.6h-15.5v33.5c0,5.9,2.8,8.2,7.4,8.2h8.1v6.6h-9.9
			C240.6,297,235.2,293,235.2,283.6z"/>
		<path d="M285.9,298.6c-13.8,0-24.8-10.3-24.8-28.6v-1.1c0-18.3,10.8-28.6,24.3-28.6s24.3,10.3,24.3,28.5v2.1h-41.1
			c0.2,13,7.2,21.1,17.5,21.1c6.4,0.2,12.3-3.6,14.9-9.5l7.3,1.5C304.2,293.6,295.7,298.6,285.9,298.6z M301.9,265.8
			c-0.7-12.6-8-19.3-16.6-19.3s-15.9,6.7-16.5,19.3H301.9z"/>
		<path d="M318.5,242h7.1v8.8c3.4-6.7,9.7-9.9,16.7-9.9c11.3,0,18.7,7.9,18.7,20.3V297h-7.7v-34.1c0-9.6-5.1-15.4-12.8-15.4
			c-8.5,0-14.3,7.1-14.3,16.3V297h-7.7V242z"/>
		<path d="M369.4,270v-1.1c0-18.1,10.8-28,23.7-28c9.6,0,18,5.6,21.5,16.2l-7.1,1.5c-2.7-7.4-8.4-11.1-14.4-11.1
			c-8.7,0-16,7.4-16,21.7v0.5c0,14.3,7.3,21.7,16,21.7c6,0,11.7-3.7,14.4-11.1l7.1,1.5c-3.6,10.7-11.9,16.2-21.5,16.2
			C380.2,298.1,369.4,288.2,369.4,270z"/>
		<path d="M443.9,298.6c-13.8,0-24.8-10.3-24.8-28.6v-1.1c0-18.3,10.8-28.6,24.3-28.6s24.3,10.3,24.3,28.5v2.1h-41.1
			c0.2,13,7.2,21.1,17.5,21.1c6.5,0.2,12.4-3.6,14.9-9.6l7.3,1.5C462.3,293.6,453.7,298.6,443.9,298.6z M459.9,265.8
			c-0.7-12.6-8-19.3-16.6-19.3s-15.9,6.7-16.5,19.3H459.9z"/>
		<path d="M513.6,223.3h8.4v8.8h-8.4V223.3z M514,242h7.7v55H514V242z"/>
		<path d="M529.6,284l6.6-2.8c3,7,8.2,10.6,16,10.6c7.5,0,12.9-3.6,12.9-9.8c0-6-5-8.3-11.5-9.5l-7.1-1.3
			c-8.9-1.6-15.6-5.7-15.6-14.2c0-9,7.2-16.1,19.6-16.1c9.1,0,16.9,3.9,21.4,12.2l-6.5,2.8c-3-5.9-8.2-8.7-14.6-8.7
			c-7.2,0-12.3,3.8-12.3,9.5c0,5.3,4.3,7.6,9.9,8.6l7,1.3c10.5,1.9,17.2,6.1,17.2,15c0,9.5-7.7,16.5-20.3,16.5
			C542.7,298.1,534.2,294.1,529.6,284z"/>
		<path d="M596.5,270v-1.1c0-18.1,10.8-28,23.7-28c9.6,0,18,5.6,21.5,16.2l-7.2,1.5c-2.7-7.4-8.4-11.1-14.4-11.1
			c-8.7,0-16,7.4-16,21.7v0.5c0,14.3,7.3,21.7,16,21.7c6,0,11.7-3.7,14.4-11.1l7.2,1.5c-3.6,10.7-11.9,16.2-21.5,16.2
			C607.3,298.1,596.5,288.2,596.5,270z"/>
		<path d="M647.5,282.9v-0.7c0-9.1,6.7-16.7,20.3-16.7h15.9v-4.4c0-8.8-4.9-13.9-13.2-13.9c-6.6,0-11.6,3.3-14.3,9.7l-7.1-1.5
			c3.9-10.2,12.1-14.5,21.7-14.5c12.8,0,20.3,7.6,20.3,19.7V297H684v-8.8c-4.1,6.3-11.2,10.1-18.7,9.9
			C654.9,298.1,647.5,292,647.5,282.9z M683.7,275.6v-5h-15c-9,0-13.6,4.8-13.6,11c0,6.4,5,10.4,11.9,10.4
			C676.6,292,683.7,285.1,683.7,275.6L683.7,275.6z"/>
		<path d="M703,242h7.1v10.1c3.2-7,10.2-11.4,17.9-11.2c12.2,0,22.8,9.1,22.8,27.5v2.2c0,18.4-10.7,27.5-22.6,27.5
			c-7.5,0.2-14.3-4-17.4-10.8V319H703V242z M743.1,269.8v-0.5c0-14.1-7.2-21.7-16.4-21.7s-16.2,7.6-16.2,21.7v0.5
			c0,14.2,7.2,21.7,16.2,21.7S743.1,284,743.1,269.8L743.1,269.8z"/>
		<path d="M759.6,223.3h8.4v8.8h-8.4V223.3z M760,242h7.7v55H760V242z"/>
		<path d="M784,283.6v-35h-9.3V242h9.5v-16.5h7.2V242h15.8v6.6h-15.5v33.5c0,5.9,2.8,8.2,7.4,8.2h8.1v6.6h-9.9
			C789.4,297,784,293,784,283.6z"/>
		<path d="M812.7,282.9v-0.7c0-9.1,6.7-16.7,20.3-16.7h15.9v-4.4c0-8.8-4.9-13.9-13.2-13.9c-6.6,0-11.6,3.3-14.3,9.7l-7.1-1.5
			c3.9-10.2,12.1-14.5,21.7-14.5c12.8,0,20.3,7.6,20.3,19.7V297h-7.2v-8.8c-4.1,6.3-11.2,10.1-18.7,9.9
			C820.1,298.1,812.7,292,812.7,282.9z M848.9,275.6v-5H834c-9,0-13.6,4.8-13.6,11c0,6.4,5,10.4,11.9,10.4
			C841.8,292,848.9,285.1,848.9,275.6L848.9,275.6z"/>
		<path d="M868.2,285.1V220h7.7v63.7c0,4.9,1.9,6.7,5.6,6.7h2.8v6.6h-4.7C872.8,297,868.2,293.5,868.2,285.1z"/>
		<path d="M891.1,223.3h8.4v8.8h-8.4V223.3z M891.4,242h7.7v55h-7.7V242z"/>
		<path d="M906.7,290.9l31.5-42.4h-31.5V242h41.1v6l-31.5,42.4h31.5v6.6h-41.1V290.9z"/>
		<path d="M975.9,298.6c-13.9,0-24.9-10.3-24.9-28.6v-1.1c0-18.3,10.8-28.6,24.3-28.6s24.3,10.3,24.3,28.5v2.2h-41
			c0.2,13,7.2,21.1,17.5,21.1c6.4,0.2,12.3-3.6,14.8-9.5l7.3,1.5C994.2,293.6,985.7,298.6,975.9,298.6z M991.9,265.8
			c-0.7-12.6-8-19.3-16.6-19.3s-15.9,6.7-16.5,19.3H991.9z"/>
		<path d="M1005.8,270.6v-2.2c0-18.4,10.7-27.5,22.6-27.5c7.5-0.2,14.3,4,17.4,10.8V220h7.7v77h-7.1v-10.1
			c-3.2,7-10.2,11.4-17.9,11.2C1016.4,298.1,1005.8,289,1005.8,270.6z M1046.1,269.8v-0.5c0-14.2-7.2-21.7-16.2-21.7
			s-16.4,7.5-16.4,21.7v0.5c0,14.1,7.2,21.7,16.4,21.7C1039.1,291.5,1046.1,283.9,1046.1,269.8L1046.1,269.8z"/>
		<path d="M1065.4,287.1h8.4v9.9h-8.4V287.1z"/>
		<path d="M1147.3,289.3v7.7h-38.2v-77h8.2v69.3H1147.3z"/>
		<path d="M1154.1,223.3h8.4v8.8h-8.4V223.3z M1154.5,242h7.7v55h-7.7V242z"/>
		<path d="M1174.2,220h7.7v47.6l24.6-25.6h9.4l-22,22.8l23.7,32.2h-9.1l-20-27.2l-6.9,7V297h-7.4V220z"/>
		<path d="M1242.9,298.6c-13.8,0-24.8-10.3-24.8-28.6v-1.1c0-18.3,10.8-28.6,24.3-28.6s24.3,10.3,24.3,28.5v2.1h-41.1
			c0.2,13,7.2,21.1,17.5,21.1c6.4,0.2,12.3-3.6,14.8-9.5l7.3,1.5C1261.2,293.6,1252.7,298.6,1242.9,298.6z M1258.9,265.8
			c-0.7-12.6-8-19.3-16.6-19.3s-15.9,6.7-16.5,19.3H1258.9z"/>
		<path d="M1299.6,283.6v-35h-9.3V242h9.5v-16.5h7.2V242h15.8v6.6h-15.5v33.5c0,5.9,2.8,8.2,7.4,8.2h8.1v6.6h-9.9
			C1305,297,1299.6,293,1299.6,283.6z"/>
		<path d="M1372.2,261.2V297h-7.7v-34.1c0-9.6-5.1-15.3-12.8-15.3c-8.5,0-14.3,7-14.3,16.2V297h-7.7v-77h7.7v29.9
			c3.3-5.8,9.2-9,16.1-9C1364.8,240.9,1372.2,248.8,1372.2,261.2z"/>
		<path d="M1383.3,223.3h8.4v8.8h-8.4V223.3z M1383.7,242h7.7v55h-7.7V242z"/>
		<path d="M1399.2,284l6.6-2.8c3,7,8.2,10.6,15.9,10.6c7.5,0,12.9-3.6,12.9-9.8c0-6-4.9-8.3-11.5-9.5l-7.1-1.3
			c-8.9-1.6-15.6-5.7-15.6-14.2c0-9,7.2-16.1,19.6-16.1c9.1,0,16.9,3.9,21.4,12.2l-6.5,2.8c-3-5.9-8.2-8.7-14.6-8.7
			c-7.2,0-12.3,3.8-12.3,9.5c0,5.3,4.3,7.6,9.9,8.6l7,1.3c10.4,1.9,17.2,6.1,17.2,15c0,9.5-7.7,16.5-20.3,16.5
			C1412.3,298.1,1403.9,294.1,1399.2,284z"/>
		<path d="M3.8,352h7.1v10.1c3.2-7,10.2-11.4,17.9-11.2c12.2,0,22.8,9.1,22.8,27.5v2.2c0,18.4-10.7,27.5-22.6,27.5
			c-7.5,0.2-14.3-4-17.4-10.8V429H3.8V352z M43.9,379.8v-0.5c0-14.1-7.2-21.7-16.4-21.7s-16.2,7.6-16.2,21.7v0.5
			c0,14.2,7.1,21.7,16.2,21.7S43.9,394,43.9,379.8z"/>
		<path d="M58,392.9v-0.7c0-9.1,6.7-16.7,20.3-16.7h15.8v-4.4c0-8.8-4.9-13.9-13.2-13.9c-6.6,0-11.6,3.3-14.3,9.7l-7.1-1.5
			c3.9-10.2,12.1-14.5,21.7-14.5c12.8,0,20.3,7.6,20.3,19.7V407h-7.1v-8.8c-4.1,6.3-11.2,10.1-18.7,9.9C65.4,408.1,58,402,58,392.9z
			 M94.2,385.6v-5h-15c-9,0-13.6,4.8-13.6,11c0,6.4,4.9,10.4,11.9,10.4C87,402,94.2,395.1,94.2,385.6L94.2,385.6z"/>
		<path d="M114,352h7.2v13.2c3.4-8.5,11.5-13.8,20.8-13.8v7.7c-12.5,0-20.3,9.4-20.3,22.5V407H114V352z"/>
		<path d="M146.3,392.9v-0.7c0-9.1,6.7-16.7,20.4-16.7h15.9v-4.4c0-8.8-4.9-13.9-13.2-13.9c-6.6,0-11.6,3.3-14.3,9.7l-7-1.5
			c3.9-10.2,12.1-14.5,21.7-14.5c12.8,0,20.3,7.6,20.3,19.7V407h-7.1v-8.8c-4.1,6.3-11.2,10.1-18.7,9.9
			C153.7,408.1,146.3,402,146.3,392.9z M182.5,385.6v-5h-14.9c-9,0-13.6,4.8-13.6,11c0,6.4,5,10.4,11.9,10.4
			C175.4,402,182.5,395.1,182.5,385.6L182.5,385.6z"/>
		<path d="M197.4,415.1c0-5.6,3.3-10.7,8.4-13.1c-3.1-1.8-5-5.2-5-8.8c0-5.1,3.5-8.9,8.1-10.3c-4.8-3-7.6-8.3-7.6-13.9
			c0-10.5,8.4-18.2,19.6-18.2c2.6,0,5.1,0.4,7.5,1.2h16.7v6.1H236c3,2.8,4.7,6.8,4.6,10.9c0,10.5-8.3,18.3-19.5,18.3h-6.8
			c-4.5,0-6.7,2.3-6.7,5.5c0,3,2.2,5.5,6.6,5.5h15.9c10,0,16.9,7,16.9,15.7c0,9.2-7.5,16.7-19,16.7h-12.3
			C204.3,430.6,197.4,423.6,197.4,415.1z M227.2,424.6c7.9,0,12.6-4.5,12.6-10.4c0-5.7-4.3-9.9-10.9-9.9h-13.3
			c-6.3,0-11.1,4.1-11.1,10c0,5.7,4.5,10.3,12.4,10.3L227.2,424.6z M233.7,369c0.1-7-5.5-12.8-12.5-13c-7-0.1-12.8,5.5-13,12.5
			c-0.1,7,5.5,12.8,12.5,13c0.1,0,0.2,0,0.2,0c6.9,0.2,12.6-5.3,12.7-12.1C233.7,369.3,233.7,369.1,233.7,369z"/>
		<path d="M254,352h7.1v13.2c3.4-8.5,11.5-13.8,20.8-13.8v7.7c-12.5,0-20.3,9.4-20.3,22.5V407H254V352z"/>
		<path d="M286.4,392.9v-0.7c0-9.1,6.7-16.7,20.4-16.7h15.9v-4.4c0-8.8-4.9-13.9-13.2-13.9c-6.6,0-11.6,3.3-14.3,9.7l-7.1-1.5
			c3.9-10.2,12.1-14.5,21.7-14.5c12.8,0,20.3,7.6,20.3,19.7V407h-7.1v-8.8c-4.1,6.3-11.2,10.1-18.7,9.9
			C293.8,408.1,286.4,402,286.4,392.9z M322.6,385.6v-5h-14.9c-9,0-13.6,4.8-13.6,11c0,6.4,4.9,10.4,11.9,10.4
			C315.4,402,322.6,395.1,322.6,385.6L322.6,385.6z"/>
		<path d="M341.9,352h7.1v10.1c3.2-7,10.2-11.4,17.9-11.2c12.2,0,22.8,9.1,22.8,27.5v2.2c0,18.4-10.7,27.5-22.6,27.5
			c-7.5,0.2-14.3-4-17.4-10.8V429h-7.7L341.9,352z M381.9,379.8v-0.5c0-14.1-7.2-21.7-16.4-21.7s-16.2,7.6-16.2,21.7v0.5
			c0,14.2,7.1,21.7,16.2,21.7S381.9,394,381.9,379.8z"/>
		<path d="M441.4,371.2V407h-7.7v-34.1c0-9.6-5.1-15.3-12.8-15.3c-8.5,0-14.3,7-14.3,16.2V407h-7.7v-77h7.7v29.9
			c3.3-5.8,9.2-9,16.1-9C434,350.9,441.4,358.8,441.4,371.2z"/>
		<path d="M473.8,352h7.1v13.2c3.4-8.5,11.5-13.8,20.8-13.8v7.7c-12.5,0-20.3,9.4-20.3,22.5V407h-7.7L473.8,352z"/>
		<path d="M509,333.3h8.4v8.8H509V333.3z M509.4,352h7.6v55h-7.7L509.4,352z"/>
		<path d="M525,415.1c0-5.6,3.3-10.7,8.5-13.1c-3.1-1.8-5-5.2-5-8.8c0-5.1,3.5-8.9,8.1-10.3c-4.8-3-7.7-8.3-7.6-13.9
			c0-10.5,8.4-18.2,19.6-18.2c2.6,0,5.1,0.4,7.5,1.3h16.7v6.1h-9.2c3,2.8,4.6,6.7,4.6,10.8c0,10.5-8.3,18.3-19.5,18.3h-6.8
			c-4.5,0-6.7,2.3-6.7,5.5c0,3,2.2,5.5,6.6,5.5h16c10,0,16.9,7,16.9,15.7c0,9.2-7.5,16.7-19,16.7h-12.3
			C531.9,430.6,525,423.6,525,415.1z M554.8,424.6c7.9,0,12.7-4.5,12.7-10.4c0-5.7-4.3-9.9-10.9-9.9h-13.2c-6.3,0-11.1,4.1-11.1,10
			c0,5.7,4.5,10.3,12.4,10.3L554.8,424.6z M561.3,369c0.1-7-5.4-12.9-12.5-13c-7-0.1-12.9,5.4-13,12.5c-0.1,7,5.4,12.9,12.5,13
			c0.1,0,0.2,0,0.3,0c6.9,0.2,12.6-5.3,12.7-12.1C561.3,369.2,561.3,369.1,561.3,369z"/>
		<path d="M623.7,371.2V407H616v-34.1c0-9.6-5.1-15.3-12.8-15.3c-8.5,0-14.3,7-14.3,16.2V407h-7.7v-77h7.7v29.9
			c3.3-5.8,9.2-9,16.1-9C616.3,350.9,623.7,358.8,623.7,371.2z"/>
		<path d="M638.1,393.6v-35h-9.3V352h9.5v-16.5h7.2V352h15.8v6.6h-15.5v33.5c0,5.9,2.8,8.2,7.4,8.2h8.1v6.6h-9.9
			C643.5,407,638.1,403,638.1,393.6z"/>
		<path d="M731,371.2V407h-7.7v-34.1c0-9.6-5.1-15.3-12.8-15.3c-8.5,0-14.3,7-14.3,16.2V407h-7.7v-77h7.7v29.9c3.3-5.8,9.2-9,16.1-9
			C723.6,350.9,731,358.8,731,371.2z"/>
		<path d="M764.2,408.6c-13.8,0-24.8-10.3-24.8-28.6v-1.1c0-18.3,10.8-28.6,24.3-28.6s24.3,10.3,24.3,28.5v2.1h-41.1
			c0.2,13,7.2,21.1,17.5,21.1c6.4,0.2,12.3-3.6,14.8-9.5l7.3,1.5C782.6,403.6,774,408.6,764.2,408.6z M780.2,375.8
			c-0.7-12.6-8-19.3-16.6-19.3s-15.9,6.7-16.5,19.3H780.2z"/>
		<path d="M797.3,352h7.2v13.2c3.4-8.5,11.5-13.8,20.8-13.8v7.7c-12.5,0-20.3,9.4-20.3,22.5V407h-7.7V352z"/>
		<path d="M853.4,408.6c-13.8,0-24.8-10.3-24.8-28.6v-1.1c0-18.3,10.8-28.6,24.3-28.6s24.3,10.3,24.3,28.5v2.1h-41.1
			c0.2,13,7.2,21.1,17.5,21.1c6.4,0.2,12.3-3.6,14.8-9.5l7.3,1.5C871.8,403.6,863.2,408.6,853.4,408.6z M869.4,375.8
			c-0.7-12.6-8-19.3-16.6-19.3s-15.9,6.7-16.5,19.3H869.4z"/>
		<path d="M884.8,397.1h8.4v9.9h-8.4V397.1z"/>
		<path class="st0" d="M62.6,587.7v1.7c0,25.3-13.8,37.7-33.9,37.7h-22v-77h22C48.8,550,62.6,562.4,62.6,587.7z M54.3,588
			c0-20.9-10-30.2-25.7-30.2H14.9v61.6h13.8c15.7,0,25.7-9.3,25.7-30.2L54.3,588z"/>
		<path class="st0" d="M68.8,589.3v-1.7c0-25.3,13.8-39.3,31.2-39.3s31.2,14,31.2,39.3v1.7c0,25.3-13.8,39.3-31.2,39.3
			S68.8,614.6,68.8,589.3z M122.8,589v-1.1c0-20.9-10-31.9-22.9-31.9S77,567,77,588v1c0,20.9,10,31.9,22.9,31.9S122.8,610,122.8,589
			L122.8,589z"/>
		<path class="st0" d="M199.6,550v77h-8.9l-41.1-63.8V627h-7.8v-77h8.9l41.1,63.8V550H199.6z"/>
		<path class="st0" d="M222,550v15.2c0,5.5-3.3,8.4-9.5,8.4v-4.4c3.1,0,4.4-1.2,4.4-4.3v-5.5h-3.3V550H222z"/>
		<path class="st0" d="M281.7,557.7h-21.9V627h-8.2v-69.3h-21.8V550h52L281.7,557.7z"/>
		<path class="st0" d="M312.5,602.5V550h8.2v51.6c0,13.9,7.8,19.3,17.9,19.3c9.3,0,17.9-5.4,17.9-19.3V550h8.2v52.5
			c0,17.7-12.1,26.1-26.1,26.1C323.8,628.6,312.5,620.2,312.5,602.5z"/>
		<path class="st0" d="M371.8,611.6l7.5-3.1c4.2,8.2,11.4,12.5,20.6,12.5c11,0,18.9-5.8,18.9-15.2c0-8.9-7.1-12.4-13.8-13.7
			l-10.5-1.9c-10.6-1.9-21.1-6.8-21.1-20v-0.7c0-12.6,10.9-20.9,25.4-20.9c11.3,0,21.2,5.2,27,15.9l-7.5,3.1
			c-4.4-8-11.5-11.8-19.7-11.8c-9.5,0-17,5.4-17,14.3c0,8.4,6.6,11.7,14.7,13.3l10.5,1.9c10.2,1.8,20.3,6.9,20.3,19.4v0.7
			c0,13.8-11.3,22.7-27.1,22.7C387.6,628.1,377.2,622.7,371.8,611.6z"/>
		<path class="st0" d="M444.8,557.7v26.1h28.9v7.2h-28.9v28.3h34.4v7.7h-42.6v-77h42.6v7.7H444.8z"/>
		<path class="st0" d="M550.3,604.5h-31l-7.5,22.5h-8.2l26.3-77h10.3l26.3,77h-8.7L550.3,604.5z M547.9,597.3l-9.3-28
			c-1.2-3.7-2.5-7.5-3.7-12.6c-1.2,5-2.5,8.9-3.7,12.6l-9.3,28H547.9z"/>
		<path class="st0" d="M613.6,619.3v7.7h-38.2v-77h8.2v69.3H613.6z"/>
		<path class="st0" d="M660.1,619.3v7.7h-38.2v-77h8.2v69.3H660.1z"/>
		<path class="st0" d="M683.8,589.3v-1.7c0-24.8,13.6-38.8,30.3-38.8c11.3,0,21,6.2,25.9,18.8l-7.8,2.3
			c-3.8-9.2-10.5-13.4-18.2-13.4c-12.6,0-22.1,10.9-22.1,31.3v1c0,20.4,9.5,31.3,22.1,31.3c7.6,0,14.4-4.2,18.2-13.4l7.8,2.3
			c-4.9,12.6-14.7,18.8-25.9,18.8C697.3,628.1,683.8,614.2,683.8,589.3z"/>
		<path class="st0" d="M788.8,604.5h-31l-7.5,22.5h-8.2l26.3-77h10.3l26.3,77h-8.7L788.8,604.5z M786.3,597.3l-9.3-28
			c-1.2-3.7-2.5-7.5-3.7-12.6c-1.2,5-2.5,8.9-3.7,12.6l-9.3,28H786.3z"/>
		<path class="st0" d="M861.4,571.2v0.7c0,13.7-9.6,21.3-23.6,21.3h-15.8V627h-8.2v-77h24C851.8,550,861.4,557.6,861.4,571.2z
			 M853.1,571.5c0-9.4-6.2-14.4-15.6-14.4h-15.4V586h15.4C846.8,586,853.1,581,853.1,571.5z"/>
		<path class="st0" d="M865.5,611.6l7.5-3.1c4.2,8.2,11.4,12.5,20.6,12.5c11,0,18.9-5.8,18.9-15.2c0-8.9-7.2-12.4-13.8-13.7
			l-10.5-1.9c-10.6-1.9-21.1-6.8-21.1-20v-0.7c0-12.6,10.9-20.9,25.4-20.9c11.3,0,21.2,5.2,27,15.9l-7.5,3.1
			c-4.4-8-11.5-11.8-19.7-11.8c-9.5,0-17,5.4-17,14.3c0,8.4,6.6,11.7,14.7,13.3l10.5,1.9c10.3,1.8,20.3,6.9,20.3,19.4v0.7
			c0,13.8-11.3,22.7-27.1,22.7C881.2,628.1,870.9,622.7,865.5,611.6z"/>
		<path class="st0" d="M929,617.1h8.4v9.9H929V617.1z"/>
		<path class="st0" d="M64.4,660v77h-8.9l-41.1-63.8V737H6.7v-77h8.9l41.1,63.8V660H64.4z"/>
		<path class="st0" d="M75.4,710v-1.1c0-18.3,10.8-28.6,24.3-28.6s24.3,10.3,24.3,28.6v1.1c0,18.3-10.8,28.6-24.3,28.6
			S75.4,728.4,75.4,710z M116.2,709.7v-0.5c0-14.5-7.3-22.3-16.6-22.3s-16.6,7.8-16.6,22.3v0.5c0,14.5,7.3,22.3,16.6,22.3
			S116.2,724.2,116.2,709.7L116.2,709.7z"/>
		<path class="st0" d="M135.7,723.6v-35h-9.3V682h9.5v-16.5h7.1V682h15.8v6.6h-15.5v33.5c0,5.9,2.8,8.2,7.4,8.2h8.1v6.6H149
			C141.1,737,135.7,733,135.7,723.6z"/>
		<path class="st0" d="M207.4,738.6c-13.8,0-24.8-10.3-24.8-28.6v-1.1c0-18.3,10.8-28.6,24.3-28.6s24.3,10.3,24.3,28.5v2.1H190
			c0.2,13,7.2,21.1,17.5,21.1c6.4,0.2,12.3-3.6,14.9-9.5l7.3,1.5C225.7,733.6,217.2,738.6,207.4,738.6z M223.4,705.8
			c-0.7-12.7-8-19.3-16.6-19.3s-15.9,6.7-16.5,19.3H223.4z"/>
		<path class="st0" d="M233.4,682h8.5l12.8,35.8c1.4,3.6,2.6,7.3,3.7,11.1c1-3.8,2.2-7.5,3.6-11.1l12.9-35.8h8L262,737h-7.7
			L233.4,682z"/>
		<path class="st0" d="M309.9,738.6c-13.8,0-24.8-10.3-24.8-28.6v-1.1c0-18.3,10.8-28.6,24.3-28.6s24.3,10.3,24.3,28.5v2.1h-41.1
			c0.2,13,7.2,21.1,17.5,21.1c6.5,0.2,12.4-3.6,14.9-9.6l7.3,1.5C328.3,733.6,319.7,738.6,309.9,738.6z M325.9,705.8
			c-0.7-12.7-8-19.3-16.6-19.3s-15.9,6.7-16.5,19.3H325.9z"/>
		<path class="st0" d="M342.5,682h7.1v8.8c3.4-6.7,9.7-9.9,16.7-9.9c11.3,0,18.7,7.9,18.7,20.3V737h-7.7v-34.1
			c0-9.6-5.1-15.4-12.8-15.4c-8.5,0-14.3,7.1-14.3,16.3V737h-7.7V682z"/>
		<path class="st0" d="M412.8,710v-1.1c0-18.3,10.8-28.6,24.3-28.6s24.3,10.3,24.3,28.6v1.1c0,18.3-10.8,28.6-24.3,28.6
			S412.8,728.4,412.8,710z M453.6,709.7v-0.5c0-14.5-7.3-22.3-16.6-22.3s-16.6,7.8-16.6,22.3v0.5c0,14.5,7.3,22.3,16.6,22.3
			S453.6,724.2,453.6,709.7L453.6,709.7z"/>
		<path class="st0" d="M470.5,682h7.1v8.8c3.4-6.7,9.7-9.9,16.7-9.9c11.3,0,18.7,7.9,18.7,20.3V737h-7.7v-34.1
			c0-9.6-5.1-15.4-12.8-15.4c-8.5,0-14.3,7.1-14.3,16.3V737h-7.7L470.5,682z"/>
		<path class="st0" d="M539.4,724l6.6-2.8c3,7,8.2,10.6,16,10.6c7.5,0,12.9-3.6,12.9-9.8c0-6-5-8.3-11.5-9.5l-7.1-1.3
			c-8.9-1.7-15.6-5.7-15.6-14.2c0-9,7.2-16.1,19.6-16.1c9.1,0,16.9,3.9,21.4,12.2l-6.5,2.8c-3-5.9-8.2-8.7-14.6-8.7
			c-7.2,0-12.3,3.8-12.3,9.5c0,5.3,4.3,7.6,9.9,8.6l7,1.3c10.5,1.9,17.2,6.1,17.2,15c0,9.5-7.7,16.5-20.3,16.5
			C552.5,738.1,544.1,734.1,539.4,724z"/>
		<path class="st0" d="M590,663.3h8.4v8.8H590V663.3z M590.4,682h7.7v55h-7.7V682z"/>
		<path class="st0" d="M610.2,682h7.2v8.8c3.4-6.7,9.7-9.9,16.7-9.9c11.3,0,18.7,7.9,18.7,20.3V737H645v-34.1
			c0-9.6-5.1-15.4-12.8-15.4c-8.5,0-14.3,7.1-14.3,16.3V737h-7.7V682z"/>
		<path class="st0" d="M659.7,745.1c0-5.6,3.3-10.7,8.4-13.1c-3.1-1.8-5-5.2-5-8.8c0-5.1,3.5-8.9,8.1-10.3c-4.8-3-7.6-8.3-7.6-13.9
			c0-10.5,8.4-18.2,19.6-18.2c2.6,0,5.1,0.4,7.5,1.3h16.7v6.1h-9.2c3,2.8,4.6,6.7,4.6,10.8c0,10.5-8.3,18.3-19.5,18.3h-6.8
			c-4.5,0-6.7,2.3-6.7,5.5c0,3,2.2,5.5,6.6,5.5h16c10,0,16.9,7,16.9,15.7c0,9.2-7.5,16.7-19,16.7H678
			C666.6,760.6,659.7,753.6,659.7,745.1z M689.5,754.6c7.9,0,12.7-4.5,12.7-10.4c0-5.7-4.3-9.9-10.9-9.9h-13.3
			c-6.3,0-11.1,4.1-11.1,10c0,5.7,4.5,10.3,12.4,10.3L689.5,754.6z M696,699c0.1-7-5.4-12.9-12.5-13c-7-0.1-12.9,5.4-13,12.5
			c-0.1,7,5.4,12.9,12.5,13c0.1,0,0.2,0,0.3,0c6.9,0.2,12.6-5.3,12.7-12.1C696,699.2,696,699.1,696,699z"/>
		<path class="st0" d="M715.3,725.1V660h7.7v63.7c0,4.9,1.9,6.7,5.6,6.7h2.8v6.6h-4.6C719.9,737,715.3,733.5,715.3,725.1z"/>
		<path class="st0" d="M758.9,738.6c-13.8,0-24.8-10.3-24.8-28.6v-1.1c0-18.3,10.8-28.6,24.3-28.6s24.3,10.3,24.3,28.5v2.1h-41.1
			c0.2,13,7.2,21.1,17.5,21.1c6.4,0.2,12.3-3.6,14.8-9.5l7.3,1.5C777.2,733.6,768.7,738.6,758.9,738.6z M774.9,705.8
			c-0.7-12.7-8-19.3-16.6-19.3s-15.9,6.7-16.5,19.3H774.9z"/>
		<path class="st0" d="M894.9,660l-17.3,77h-7.9l-12.7-46.9c-1.7-6.2-3-11.5-4.1-17.1c-1.1,5.6-2.5,10.9-4.1,17.1L836,737h-8
			l-17.3-77h8.5l10.4,46.5c1.3,6.2,2.4,11.4,3.2,16.9c1.2-5.5,2.4-10.6,4-16.9l12.6-46.5h7.2l12.5,46.5c1.7,6.1,2.9,11.5,4,16.9
			c0.9-5.4,1.9-10.7,3.3-16.9l10.3-46.5H894.9z"/>
		<path class="st0" d="M899.2,699.3v-1.7c0-25.3,13.8-39.3,31.2-39.3s31.2,14,31.2,39.3v1.7c0,25.3-13.8,39.3-31.2,39.3
			S899.2,724.6,899.2,699.3z M953.3,699v-1.1c0-20.9-10-31.9-22.9-31.9s-22.9,11-22.9,31.9v1.1c0,20.9,10,31.9,22.9,31.9
			S953.3,720,953.3,699L953.3,699z"/>
		<path class="st0" d="M988.2,700.8h-7.6V737h-8.2v-77h25.9c12.6,0,22.1,7.3,22.1,20.3v0.5c0,12.8-9.5,20-22.1,20h-0.4l28,36.2h-9.9
			L988.2,700.8z M980.6,694.2h17.2c8.4,0,14.2-5,14.2-13.6s-5.8-13.4-14.2-13.4h-17.2V694.2z"/>
		<path class="st0" d="M1090.6,697.7v1.7c0,25.3-13.8,37.7-33.9,37.7h-22v-77h22C1076.8,660,1090.6,672.4,1090.6,697.7z M1082.3,698
			c0-20.9-10-30.2-25.7-30.2h-13.8v61.6h13.8c15.7,0,25.7-9.3,25.7-30.2V698z"/>
		<path class="st0" d="M1093.9,721.6l7.5-3.1c4.2,8.2,11.4,12.5,20.6,12.5c11,0,18.9-5.8,18.9-15.2c0-8.9-7.2-12.4-13.8-13.7
			l-10.5-1.9c-10.6-1.9-21.1-6.8-21.1-20v-0.7c0-12.6,10.9-20.9,25.4-20.9c11.3,0,21.2,5.2,26.9,15.9l-7.5,3.1
			c-4.4-8-11.6-11.8-19.7-11.8c-9.5,0-17,5.4-17,14.3c0,8.4,6.6,11.7,14.7,13.3l10.5,1.9c10.3,1.8,20.3,6.9,20.3,19.4v0.7
			c0,13.8-11.3,22.7-27.1,22.7C1109.7,738.1,1099.3,732.7,1093.9,721.6z"/>
		<path class="st0" d="M1157.5,727.1h8.4v9.9h-8.4V727.1z"/>
	</g>
</g>
</svg>
