<?xml version="1.0" encoding="utf-8"?>
<!-- Generator: Adobe Illustrator 21.0.2, SVG Export Plug-In . SVG Version: 6.00 Build 0)  -->
<svg version="1.1" id="Lager_1" xmlns="http://www.w3.org/2000/svg" xmlns:xlink="http://www.w3.org/1999/xlink" x="0px" y="0px"
	 viewBox="0 0 990.9 421.5" style="enable-background:new 0 0 990.9 421.5;" xml:space="preserve">
<style type="text/css">
	.st0{fill:#FFC500;}
</style>
<title>weights</title>
<g>
	<path class="st0" d="M56,57.2v0.7c0,14.3-12,22.5-26.6,22.5H0v-77h28.3c14.4,0,24.9,7.8,24.9,21.4v0.7c0,6.7-2.9,11.5-7.6,14.7
		C52,43.2,56,48.8,56,57.2z M15.1,16.5v18.2h12.2c7.3,0,11.7-3.4,11.7-9.2c0-6-4.4-9.1-11.7-9.1H15.1z M40.9,57
		c0-6.5-4.7-10.2-12.4-10.2H15.1v20.4h13.4C36.2,67.2,40.9,63.6,40.9,57z"/>
	<path class="st0" d="M59.2,53.3v-0.9c0-18.2,11.9-28.7,26.5-28.7c14.6,0,26.5,10.4,26.5,28.7v0.9c0,18.2-11.9,28.7-26.5,28.7
		C71.1,82,59.2,71.6,59.2,53.3z M98.1,53.1v-0.5c0-10.9-5.5-16.8-12.4-16.8c-6.9,0-12.4,5.9-12.4,16.8v0.5
		c0,10.9,5.5,16.8,12.4,16.8C92.6,69.9,98.1,64,98.1,53.1z"/>
	<path class="st0" d="M117.7,66V3.4h14.1v60.1c0,3.3,1.4,4.8,3.8,4.8h3v12.1H132C123.2,80.4,117.7,75.4,117.7,66z"/>
	<path class="st0" d="M140.2,54.9v-4c0-17.8,11.5-26.6,23.4-26.6c7,0,12,3,14.9,6.5V3.4h14.1v77h-13.1v-5.5
		c-2.9,3.6-8.2,6.6-15.6,6.6C151.6,81.5,140.2,72.7,140.2,54.9z M179,53.1v-0.5c0-10.7-5.3-16.2-12.3-16.2
		c-7.1,0-12.4,5.5-12.4,16.2v0.5c0,10.5,5.3,16.2,12.4,16.2C173.7,69.4,179,63.7,179,53.1z"/>
	<path class="st0" d="M70.9,186.4H58.6v-57.3c-2.2,4.3-4.8,8.6-8.1,13.8l-15,24.3l-15-24.3c-3.3-5.2-6-9.7-8.1-13.9v57.4H0.8v-77
		h12.6l22.4,36.4l22.5-36.4h12.6V186.4z"/>
	<path class="st0" d="M105,188c-14.3,0-26.2-10.4-26.2-28.7v-0.9c0-18.3,11.5-28.7,25.7-28.7c14.1,0,25.7,10.4,25.7,28.8v3h-40
		c0.2,10.3,6.6,16.6,15.2,16.6c5.1,0,10.1-2.3,12.6-7.5l10.9,2C124.8,182.6,115.4,188,105,188z M118.6,154
		c-0.8-10-7.1-15.1-14.1-15.1c-7.1,0-13.2,5.1-13.9,15.1H118.6z"/>
	<path class="st0" d="M133.7,160.5v-3.3c0-18.1,11.2-26.9,23.2-26.9c7.4,0,12.9,3.6,15.9,8.2v-29.1h11.5v77h-10.7V179
		c-2.9,4.8-8.5,8.4-16.5,8.4C144.8,187.5,133.7,178.6,133.7,160.5z M173.2,159.1v-0.5c0-12.1-6-18.4-13.9-18.4s-14,6.3-14,18.4v0.5
		c0,12,6.1,18.4,14,18.4S173.2,171.1,173.2,159.1z"/>
	<path class="st0" d="M193.3,111h11.9v12.1h-11.9V111z M193.5,131.4h11.5v55h-11.5V131.4z"/>
	<path class="st0" d="M258.9,186.4h-10.7v-7.1c-3.5,5.8-9.5,8.2-15.6,8.2c-11.6,0-19.2-8-19.2-20.3v-35.8H225v33.1
		c0,8.2,4.1,13,10.6,13c7.1,0,11.7-5.9,11.7-13.9v-32.2h11.5V186.4z"/>
	<path class="st0" d="M268.2,131.4h10.7v7.1c2.8-4.4,8.1-8.2,15.6-8.2c6.6,0,11.9,3,14.7,8.7c3.7-6,9.6-8.7,15.8-8.7
		c11.5,0,19,8,19,20.3v35.8h-11.5v-33.5c0-8-3.6-12.7-9.7-12.7c-6.8,0-10.8,5.8-10.8,13.7v32.4h-11.5v-33.5c0-8-3.5-12.7-9.6-12.7
		c-6.8,0-10.9,5.8-10.9,13.7v32.4h-11.5V131.4z"/>
	<path class="st0" d="M17.9,256.1h-7.6v36.2H2v-77H28c12.6,0,22.1,7.3,22.1,20.3v0.5c0,12.8-9.5,20-22.1,20h-0.4l28,36.2h-9.9
		L17.9,256.1z M10.3,249.5h17.2c8.4,0,14.2-5,14.2-13.6c0-8.5-5.8-13.4-14.2-13.4H10.3V249.5z"/>
	<path class="st0" d="M80,294c-13.8,0-24.8-10.3-24.8-28.6v-1.1c0-18.3,10.8-28.6,24.3-28.6s24.3,10.3,24.3,28.5v2.1H62.6
		c0.2,13,7.2,21.1,17.5,21.1c6.3,0,11.9-3.1,14.8-9.5l7.3,1.5C98.3,289,89.8,294,80,294z M96,261.2c-0.7-12.6-8-19.3-16.6-19.3
		s-15.9,6.7-16.5,19.3H96z"/>
	<path class="st0" d="M106.4,300.4c0-6,3.4-10.6,8.4-13.1c-3-1.8-4.9-5-4.9-8.8c0-5.1,3.5-8.9,8.1-10.3c-4.6-2.8-7.6-8-7.6-13.9
		c0-10.4,8.4-18.2,19.6-18.2c2.8,0,5.2,0.5,7.5,1.3h16.7v6.1H145c2.8,2.7,4.6,6.4,4.6,10.8c0,10.4-8.3,18.3-19.5,18.3h-6.8
		c-4.5,0-6.7,2.3-6.7,5.5c0,3,2.2,5.5,6.6,5.5h15.9c10,0,16.9,7,16.9,15.7c0,9.2-7.5,16.7-19,16.7h-12.3
		C113.3,316,106.4,308.9,106.4,300.4z M136.2,310c7.9,0,12.6-4.5,12.6-10.4c0-5.7-4.3-9.9-10.9-9.9h-13.3c-6.3,0-11.1,4.1-11.1,10
		c0,5.7,4.5,10.3,12.4,10.3H136.2z M142.7,254.4c0-7.1-5.6-12.5-12.7-12.5s-12.7,5.4-12.7,12.5c0,6.9,5.6,12.5,12.7,12.5
		S142.7,261.3,142.7,254.4z"/>
	<path class="st0" d="M202.3,292.4h-7.1v-8.8c-3.4,6.7-9.7,9.9-16.7,9.9c-11.3,0-18.7-7.9-18.7-20.3v-35.8h7.7v34.1
		c0,9.6,5.1,15.3,12.8,15.3c8.5,0,14.3-7,14.3-16.2v-33.2h7.7V292.4z"/>
	<path class="st0" d="M212.8,280.4v-65.1h7.7v63.7c0,4.9,1.9,6.7,5.6,6.7h2.8v6.6h-4.7C217.3,292.4,212.8,288.9,212.8,280.4z"/>
	<path class="st0" d="M232.7,278.2v-0.7c0-9.1,6.7-16.7,20.3-16.7h15.9v-4.4c0-8.8-4.9-13.9-13.2-13.9c-6.6,0-11.6,3.3-14.3,9.7
		l-7.1-1.5c3.9-10.2,12.1-14.5,21.7-14.5c12.8,0,20.3,7.6,20.3,19.7v36.4h-7.1v-8.8c-3.6,5.5-9.8,9.9-18.7,9.9
		C240.1,293.5,232.7,287.4,232.7,278.2z M268.9,270.9V266h-14.9c-9,0-13.6,4.8-13.6,11c0,6.4,5,10.4,11.9,10.4
		C261.7,287.3,268.9,280.4,268.9,270.9z"/>
	<path class="st0" d="M287,237.4h7.1v13.2c3.4-8.5,11.5-13.7,20.8-13.7v7.7c-12.5,0-20.3,9.3-20.3,22.5v25.3H287V237.4z"/>
	<path class="st0" d="M38.6,394.5v3.8H3.3v-77h4.1v73.1H38.6z"/>
	<path class="st0" d="M44.6,326.3h4.8v5.5h-4.8V326.3z M45.1,343.4h3.8v55h-3.8V343.4z"/>
	<path class="st0" d="M56.1,406.7c0-6.5,4-11.6,9.8-13.8c-3.1-1.5-5.2-4.6-5.2-8.2c0-4.9,3.7-8.5,8.3-9.2c-5.8-2.9-9.5-8.6-9.5-15.6
		c0-10.2,8.1-17.9,18.7-17.9c2.7,0,5,0.5,7.2,1.3h15.3v3.2H90.3c4,3,6.5,7.8,6.5,13.4c0,10.3-8.1,18-18.7,18h-6
		c-5.3,0-8.2,2.8-8.2,6.6c0,3.6,2.7,6.6,7.8,6.6H87c9.3,0,15.9,6.6,15.9,14.9c0,8.8-7.3,15.9-18,15.9H73.7
		C62.7,422,56.1,414.9,56.1,406.7z M84.4,419c9.2,0,15-5.5,15-12.6c0-7-5.3-12.2-13.1-12.2h-13c-7.7,0-13.7,4.9-13.7,12.2
		c0,7,5.4,12.6,14.7,12.6H84.4z M93.4,359.9c0-8.2-6.7-14.9-15.2-14.9s-15.2,6.7-15.2,14.9c0,8.3,6.7,14.9,15.2,14.9
		S93.4,368.3,93.4,359.9z"/>
	<path class="st0" d="M148.1,362.5v35.8h-3.8v-35.1c0-11-6.1-17.5-15-17.5c-9.8,0-16.7,8.1-16.7,18.5v34.1h-3.8v-77h3.8v31.9
		c3.2-7.1,9.7-11,17.3-11C140.8,342.3,148.1,350,148.1,362.5z"/>
	<path class="st0" d="M161.5,386.7v-40.1h-10.4v-3.3h10.5v-16.5h3.6v16.5H182v3.3h-16.6V386c0,6.5,2.9,9.1,8,9.1h8.6v3.3h-9.3
		C166.3,398.4,161.5,395.2,161.5,386.7z"/>
</g>
<g>
	<path class="st0" d="M484.6,56.8c0,13.4-11.6,23.6-30.4,23.6h-30.8l19.2-77h25.9c13,0,20.9,8,20.9,19c0,9.3-5.5,15.9-12.9,19.5
		C481.4,45,484.6,49.8,484.6,56.8z M469.2,56.2c0-5.8-3.7-9.4-10.4-9.4h-11.8l-5.2,21H455C464.2,67.7,469.2,62.9,469.2,56.2z
		 M454.6,16l-4.9,19.2h11.2c8.4,0,13.7-4,13.7-10.6c0-5.2-3.2-8.6-9.9-8.6H454.6z"/>
	<path class="st0" d="M489.4,60c0-3.1,0.5-7.1,1.8-11.9c4.4-15.9,14.6-24.4,27.4-24.4c13.5,0,21.7,9.2,21.7,22
		c0,3.1-0.5,7.1-1.8,11.9C534.2,73.5,524,82,511.2,82C497.7,82,489.4,72.8,489.4,60z M525.6,54.4c0.8-3.5,1.2-6.1,1.2-8.3
		c0-7.6-3.6-10.7-8.5-10.7c-5,0-11,3.4-14.1,15.9c-0.7,3-1.2,5.8-1.2,8.2c0,7.8,3.7,10.8,8.5,10.8C516.2,70.4,522.5,67.2,525.6,54.4
		z"/>
	<path class="st0" d="M542.2,68c0-1.6,0.2-3.2,0.6-4.9l14.8-59.8h14.1l-14.8,59.4c-0.3,0.8-0.5,1.7-0.5,2.4c0,2.4,1.3,3.6,3.9,3.6h2
		l-2.9,11.6h-4.2C547.2,80.4,542.2,75.5,542.2,68z"/>
	<path class="st0" d="M567.5,60.2c0-3.8,0.6-8.1,1.7-12.2c3.6-12.7,12.7-23.6,26.6-23.6c6,0,10.4,1.9,13.4,5.5l6.6-26.5h14.1
		l-19.2,77h-12.1l1.5-6c-3.5,4.4-8.3,7.1-14.6,7.1C575.6,81.5,567.5,74.8,567.5,60.2z M603.5,54.4c0.7-2.8,1.1-5.5,1.1-7.9
		c0-7.4-3.7-10.6-8.4-10.6c-7.1,0-11.8,7.5-13.8,15.4c-0.8,3.1-1.3,6-1.3,8.2c0,6.8,3.7,10.3,8.5,10.3
		C596.4,69.8,601.4,62.9,603.5,54.4z"/>
	<path class="st0" d="M659,3.4h15.1l-19.2,77h-15.1L659,3.4z"/>
	<path class="st0" d="M671.4,67.3c0-1.7,0.3-4.3,0.8-6.4l5.9-23.5h-6.7l3-12.1h7.2l4.1-16.5h12.1l-4.1,16.5h13.2l-3,12.1h-12.6
		l-5.9,23.4c-0.2,0.9-0.3,1.8-0.3,2.6c0,3.4,1.7,5.3,5.9,5.3h5.1l-2.9,11.6h-7.5C676.4,80.4,671.4,75.3,671.4,67.3z"/>
	<path class="st0" d="M701.3,60.2c0-3.8,0.6-8.1,1.7-12.2c3.6-12.7,12.4-23.6,25.6-23.6c6.5,0,12.2,2.7,14.9,7.3l1.6-6.3h13.1
		l-13.7,55h-12.1l1.5-6c-3.5,4.4-8.4,7.1-14.7,7.1C709.6,81.5,701.3,74.9,701.3,60.2z M737.4,54.4c0.7-2.8,1.1-5.5,1.1-7.9
		c0-7.4-3.7-10.6-8.4-10.6c-7.1,0-11.8,7.5-13.8,15.4c-0.8,3.1-1.3,6-1.3,8.2c0,6.8,3.7,10.3,8.5,10.3
		C730.5,69.8,735.4,62.5,737.4,54.4z"/>
	<path class="st0" d="M756.9,68c0-1.6,0.2-3.2,0.6-4.9l14.8-59.8h14.1l-14.8,59.4c-0.3,0.8-0.5,1.7-0.5,2.4c0,2.4,1.3,3.6,3.9,3.6h2
		l-2.9,11.6h-4.2C761.9,80.4,756.9,75.5,756.9,68z"/>
	<path class="st0" d="M793,25.4h14.1l-13.7,55h-14.1L793,25.4z M798.3,3.9h14.2l-3.6,14.3h-14.2L798.3,3.9z"/>
	<path class="st0" d="M805.8,60c0-3.1,0.5-7.1,1.8-11.9c4.4-15.9,14.3-24.4,26.9-24.4c12,0,19.7,7.7,21,18.8L842,45
		c-0.3-7.2-3.8-9.6-7.9-9.6c-4.8,0-10.2,3.6-13.2,15.9c-0.8,3-1.2,5.7-1.2,8.3c0,7.7,3.1,10.7,7.7,10.7c3.1,0,7.2-1.6,10.5-7.9
		l13.2,2.5c-5.2,11.1-13.7,17-24.2,17C813.7,82,805.8,72.8,805.8,60z"/>
	<path class="st0" d="M491.5,186.4h-12.4l14-56.4c-3.2,4.4-5.6,7.3-10,12.6l-21,24.7l-8.6-24.7c-1.8-5.2-2.8-8.3-3.8-12.6
		l-14.1,56.4h-11.5l19.2-77h11.8l11.9,36.2l30.2-36.2h13.5L491.5,186.4z"/>
	<path class="st0" d="M517.6,160.4c-0.4,2.2-0.6,3.9-0.6,5.6c0,8.7,4.6,12.5,10.4,12.5c4.3,0,9.3-2.3,12.9-9.2l10.7,2.1
		c-5.1,10.8-13.8,16.6-24,16.6c-12.7,0-20.7-8.8-20.7-21.6c0-3.2,0.5-7.2,1.7-11.9c4.4-16.1,14.6-24.7,27-24.7
		c12.7,0,20.7,8.8,20.7,21.6c0,2.6-0.2,5.6-1,9.1H517.6z M519.4,152.9h25.7V152c0-8.9-4.2-13.6-10.3-13.6S522.6,142.9,519.4,152.9z"
		/>
	<path class="st0" d="M558.2,166.6c0-3.8,0.5-8,1.6-12.2c3.8-13.9,13.3-24,26.3-24c6.4,0,11.4,2.6,14.1,7.6l7.2-28.6h11.5l-19.2,77
		h-10l1.7-7.1c-3.9,5.3-9.3,8.2-15.6,8.2C566.1,187.5,558.2,180.7,558.2,166.6z M595,160.7c0.7-3.2,1.2-6,1.2-8.6
		c0-8.3-4.3-12.3-9.8-12.3c-7.6,0-13.3,7.5-15.9,17.2c-0.8,3.5-1.3,6.5-1.3,9c0,7.8,4.2,11.9,9.8,11.9
		C586.6,177.9,592.5,170.7,595,160.7z"/>
	<path class="st0" d="M623.6,131.4h11.5l-13.7,55h-11.5L623.6,131.4z M628.5,111h11.8l-3,12.1h-11.8L628.5,111z"/>
	<path class="st0" d="M634.5,171.9c0-2,0.3-4.2,1.1-7.3l8.2-33.2h11.5l-8,31.9c-0.7,2.7-0.9,4.5-0.9,6c0,5.7,3.3,8.7,7.7,8.7
		c6,0,10.7-5.5,12.6-13.1l8.3-33.5h11.5l-13.7,55h-9.9l1.7-7.1c-3.8,5.6-9.3,7.9-14.9,7.9C640.7,187.1,634.5,181.2,634.5,171.9z"/>
	<path class="st0" d="M696.6,131.4h9.9l-1.7,7.1c4.2-5.7,9.9-7.9,15.6-7.9c6.5,0,10.9,3,12.8,7.9c5.2-6,11.4-7.9,16.8-7.9
		c10.1,0,16.2,5.8,16.2,15.2c0,2-0.3,4.2-1.1,7.3l-8.2,33.2h-11.5l8-31.9c0.7-2.8,0.9-4.5,0.9-6c0-5.7-3.3-8.7-7.7-8.7
		c-6,0-10.5,5.2-12.4,12.8l-8.4,33.7h-11.5l8.1-32.4c0.7-2.7,0.9-4.5,0.9-6c0-5.5-3.2-8.2-7.5-8.2c-6.2,0-10.9,5.5-12.7,13.1
		l-8.4,33.5h-11.5L696.6,131.4z"/>
	<path class="st0" d="M805.3,109.4h12.4l-19.2,77h-12.4L805.3,109.4z"/>
	<path class="st0" d="M815.5,174.2c0-1.6,0.3-3.8,0.7-5.9l6.8-27h-7.3l2.5-9.9h7.7l4.1-16.5h10l-4.1,16.5h13.7l-2.5,9.9h-13.3
		l-6.7,26.9c-0.3,1-0.4,2-0.4,2.9c0,3.8,2.1,5.7,6.4,5.7h5.1l-2.5,9.5h-6.9C820.3,186.4,815.5,181.8,815.5,174.2z"/>
	<path class="st0" d="M843.9,166.6c0-3.8,0.5-8,1.7-12.2c3.8-13.9,13-24,25.6-24c6.9,0,12.7,3.1,15.3,9.1l2-8.1h10.7l-13.7,55h-10
		l1.7-7.1c-3.9,5.3-9.3,8.2-15.7,8.2C851.8,187.5,843.9,180.7,843.9,166.6z M880.7,160.7c0.7-3.2,1.2-6,1.2-8.6
		c0-8.3-4.3-12.3-9.8-12.3c-7.6,0-13.3,7.5-15.9,17.2c-0.8,3.5-1.3,6.5-1.3,9c0,7.8,4.2,11.9,9.8,11.9
		C872.5,177.9,878.3,170.4,880.7,160.7z"/>
	<path class="st0" d="M897.9,175.2c0-1.6,0.2-3,0.6-4.7l15.2-61.1h11.5l-15.2,60.8c-0.2,1-0.4,1.9-0.4,2.7c0,2.7,1.4,3.9,4.3,3.9h2
		l-2.4,9.5H910C902.6,186.4,897.9,182.1,897.9,175.2z"/>
	<path class="st0" d="M932.4,131.4h11.5l-13.7,55h-11.5L932.4,131.4z M937.3,111h11.8l-3,12.1h-11.8L937.3,111z"/>
	<path class="st0" d="M942.8,166.4c0-3.2,0.5-7.2,1.7-11.9c4.4-16.1,14.3-24.7,26.5-24.7c11.3,0,18.6,7.2,19.9,18l-10.9,2.1
		c-0.5-7.6-4.5-10.5-9.3-10.5c-5.8,0-12,4.7-15.2,17.8c-0.9,3.4-1.3,6.2-1.3,9.1c0,8.6,3.8,12.4,9.3,12.4c3.9,0,8.6-2.3,12.3-9.2
		l10.7,2.1c-5.1,10.8-13.6,16.6-23.5,16.6C950.5,188,942.8,179.2,942.8,166.4z"/>
	<path class="st0" d="M444.6,215.4h8.2l-19.2,77h-8.2L444.6,215.4z"/>
	<path class="st0" d="M451.5,281.5c0-1.5,0.2-3.4,0.6-5.1l8.2-32.4H452l1.7-6.6h8.6l4.1-16.5h6.7l-4.1,16.5h14.4l-1.7,6.6h-14.1
		l-8.1,32.2c-0.3,1.3-0.5,2.5-0.5,3.6c0,4.4,2.7,6.2,7.1,6.2h5l-1.6,6.4h-6C456.1,292.4,451.5,288.5,451.5,281.5z"/>
	<path class="st0" d="M477,273c0-3.6,0.6-7.8,1.7-12c4.1-15.8,13.7-24.7,25.3-24.7c7.5,0,13.7,3.9,15.9,11.8l2.7-10.7h7.2l-13.8,55
		h-6.7l2.2-8.6c-4.7,6.7-10.7,9.7-17.1,9.7C484.6,293.5,477,286.5,477,273z M515.1,267c0.9-3.7,1.3-6.9,1.3-9.6
		c0-9.6-5-14.7-11.9-14.7c-8.2,0-15.4,7.4-18.6,20.1c-1,3.8-1.5,7.1-1.5,9.8c0,9.5,5.1,14.5,11.9,14.5
		C504.8,287,512,279.2,515.1,267z"/>
	<path class="st0" d="M529.2,282.9c0-1.4,0.2-2.8,0.5-4.3l15.8-63.2h7.7l-15.7,62.9c-0.3,1.2-0.5,2.3-0.5,3.3c0,3,1.7,4.4,5.1,4.4h2
		l-1.7,6.4h-3C533.2,292.4,529.2,289.1,529.2,282.9z"/>
	<path class="st0" d="M561.6,237.4h7.7l-13.7,55h-7.7L561.6,237.4z M565.9,218.7h8.4l-2.2,8.8h-8.4L565.9,218.7z"/>
	<path class="st0" d="M569.1,272.8c0-3.4,0.5-7.1,1.7-11.8c4.3-16.6,14.4-25.3,25.8-25.3c10.1,0,17,6.5,18.4,16.8l-7.3,1.5
		c-0.9-8.2-5.4-11.8-11.5-11.8c-7.2,0-14.7,6.2-18.2,20.6c-0.9,3.8-1.4,7-1.4,10c0,9.9,4.7,14.8,11.5,14.8c5.2,0,10.7-3.3,14.8-11.1
		l7.2,1.5c-5.2,10.5-13.3,16-22.5,16C576.4,294,569.1,285.8,569.1,272.8z"/>
	<path class="st0" d="M462.9,394.8l-0.9,3.6h-35.3l19.2-77h4.1l-18.3,73.4H462.9z"/>
	<path class="st0" d="M481.7,343.4h3.8l-13.7,55h-3.8L481.7,343.4z M485.5,326.3h4.9l-1.4,5.5h-4.9L485.5,326.3z"/>
	<path class="st0" d="M480,408.3l3.3-1.6c2.8,7.4,8,11.5,16.3,11.5c9.5,0,15.9-5.5,19.2-18l2.9-11.9c-5.4,7.8-12.1,10.5-18.4,10.5
		c-9.9,0-17-6.7-17-19.3c0-3.5,0.6-7.7,1.7-12c4.5-17.5,14.7-25.3,25.2-25.3c8.2,0,14.6,4.7,16.6,14.4l3.3-13.3h3.6l-14.2,57
		c-3.7,14.8-11.4,21.1-22.7,21.1C490,421.5,483.4,417,480,408.3z M525.6,373.3c1-4.2,1.5-7.7,1.5-10.7c0-11-6-17.1-14-17.1
		c-8.9,0-17.5,7.3-21.5,22.9c-1,4.3-1.5,7.8-1.5,10.8c0,11.1,5.9,16.6,13.8,16.6C513.5,395.8,521.9,387.7,525.6,373.3z"/>
	<path class="st0" d="M553.4,321.4h3.9l-7.8,31.2c4.8-7.1,10.4-10.2,16.6-10.2c8.8,0,14.7,6,14.7,15.2c0,2.3-0.3,4.6-1.5,9.3
		l-7.9,31.4h-3.8l7.9-31.2c1.2-4.7,1.5-6.7,1.5-8.8c0-7.9-4.9-12.9-11.5-12.9c-8.7,0-16.2,8.4-18.7,18.6l-8.6,34.3h-3.8L553.4,321.4
		z"/>
	<path class="st0" d="M586.3,388.8c0-1.3,0.2-2.8,0.5-4.4l9.4-37.8h-9.3l0.8-3.3h9.4l4.1-16.5h3.5l-4.1,16.5h15.1l-0.8,3.3h-15
		l-9.3,37.5c-0.4,1.5-0.6,2.8-0.6,4.1c0,4.9,3.5,6.9,8,6.9h5l-0.8,3.2h-5C590.6,398.4,586.3,395.2,586.3,388.8z"/>
	<path class="st0" d="M649.8,321.4h4.1l-19.2,77h-4.1L649.8,321.4z"/>
	<path class="st0" d="M654,388.8c0-1.3,0.2-2.8,0.6-4.4l9.4-37.8h-9.3l0.8-3.3h9.4l4.1-16.5h3.5l-4.1,16.5h15.1l-0.8,3.3h-15
		l-9.3,37.5c-0.4,1.5-0.6,2.8-0.6,4.1c0,4.9,3.5,6.9,8,6.9h5l-0.8,3.2h-5C658.3,398.4,654,395.2,654,388.8z"/>
	<path class="st0" d="M676.4,379.6c0-3.5,0.6-7.7,1.7-12c4.5-17.5,14.7-25.3,25.2-25.3c8.2,0,14.6,4.7,16.6,14.4l3.3-13.3h3.6
		l-13.7,55h-3.5l2.6-10.2c-5.3,8.2-12,11.3-18.6,11.3C683.6,399.5,676.4,392.2,676.4,379.6z M715.7,373.3c1-4.2,1.5-7.7,1.5-10.7
		c0-11-6-17.1-14-17.1c-8.9,0-17.6,7.4-21.5,22.9c-1,4.3-1.5,7.8-1.5,10.8c0,11.1,5.9,17,13.8,17C703.3,396.2,712,388.1,715.7,373.3
		z"/>
	<path class="st0" d="M726.5,390.7c0-1.3,0.2-2.5,0.6-4l16.3-65.3h3.8l-16.2,64.9c-0.4,1.5-0.6,2.7-0.6,3.8c0,3.5,1.9,5,5.8,5h2
		l-0.8,3.2h-2.3C730.1,398.4,726.5,396.1,726.5,390.7z"/>
	<path class="st0" d="M757.4,343.4h3.8l-13.7,55h-3.9L757.4,343.4z M761.2,326.3h4.9l-1.4,5.5h-4.9L761.2,326.3z"/>
	<path class="st0" d="M762,379.4c0-3.6,0.6-7.2,1.7-11.8c4.2-17,14.4-25.8,25.2-25.8c9,0,15.3,5.8,16.9,15.5l-3.6,1
		c-1.3-8.7-6.4-13.3-13.6-13.3c-8.8,0-17.4,7.9-21.3,23.5c-1.1,4.3-1.6,7.7-1.6,11c0,11.3,5.7,17.4,13.9,17.4
		c6.4,0,12.8-4.4,17.4-13.1l3.6,0.9c-5.1,10.2-13,15.4-21.4,15.4C768.9,400,762,392.3,762,379.4z"/>
</g>
</svg>
