<svg xmlns="http://www.w3.org/2000/svg" viewBox="0 0 1627.34 745.21"><defs><style>.cls-1{fill:#f03529;}.cls-2{fill:#41b0ee;}.cls-3{fill:#673ab6;}.cls-4{fill:#ffc500;}.cls-5{fill:#60cd18;}.cls-6{fill:#45b400;}.cls-7{fill:#ffb400;}.cls-8{fill:#4f2c99;}.cls-9{fill:#d81a1a;}.cls-10{fill:#0092e1;}.cls-11{fill:#379d00;}.cls-12{fill:#f8a000;}.cls-13{fill:#3f2587;}.cls-14{fill:#bb000c;}.cls-15{fill:#007ac7;}.cls-16{fill:#fff;}</style></defs><title>accent-2</title><g id="Lager_2" data-name="Lager 2"><g id="Lager_1-2" data-name="Lager 1"><rect class="cls-1" x="332.33" y="447.21" width="298" height="149"/><rect class="cls-2" x="664.67" y="447.21" width="298" height="149"/><rect class="cls-3" x="997" y="447.21" width="298" height="149"/><rect class="cls-4" x="1329.34" y="447.21" width="298" height="149"/><rect class="cls-3" y="447.21" width="298" height="149"/><rect class="cls-5" x="332.33" y="596.21" width="298" height="149"/><rect class="cls-5" x="664.67" y="596.21" width="298" height="149"/><rect class="cls-5" x="997" y="596.21" width="298" height="149"/><rect class="cls-5" x="1329.34" y="596.21" width="298" height="149"/><rect class="cls-4" y="596.21" width="298" height="149"/><rect class="cls-2" x="1329.34" width="298" height="298"/><rect class="cls-1" x="997" width="298" height="298"/><rect class="cls-3" x="664.67" width="298" height="298"/><rect class="cls-4" x="332.33" width="298" height="298"/><rect class="cls-5" width="298" height="298"/><rect class="cls-6" y="298" width="149" height="149" transform="translate(-298 447) rotate(-90)"/><rect class="cls-7" x="332.33" y="298" width="149" height="149" transform="translate(34.33 779.33) rotate(-90)"/><rect class="cls-8" x="664.67" y="298" width="149" height="149" transform="translate(366.67 1111.67) rotate(-90)"/><rect class="cls-9" x="997" y="298" width="149" height="149" transform="translate(699 1444) rotate(-90)"/><rect class="cls-10" x="1329.34" y="298" width="149" height="149" transform="translate(1031.34 1776.34) rotate(-90)"/><rect class="cls-11" x="149" y="298" width="149" height="149" transform="translate(-149 596) rotate(-90)"/><rect class="cls-12" x="481.33" y="298" width="149" height="149" transform="translate(183.33 928.33) rotate(-90)"/><rect class="cls-13" x="813.67" y="298" width="149" height="149" transform="translate(515.67 1260.67) rotate(-90)"/><rect class="cls-14" x="1146" y="298" width="149" height="149" transform="translate(848 1593) rotate(-90)"/><rect class="cls-15" x="1478.34" y="298" width="149" height="149" transform="translate(1180.34 1925.34) rotate(-90)"/><rect class="cls-5" x="332.33" width="74.5" height="74.5"/><path class="cls-16" d="M359.3,32.35l-2.41,1.8A5.37,5.37,0,0,0,353.48,33c-.82,0-1.67.23-1.8.82s.4,1,1.31,1.26,2,.53,3.44.94c2.16.62,3.64,1.55,3.64,3.73,0,3-2.66,4.54-6.22,4.54a9.22,9.22,0,0,1-6.71-2.72l2.55-1.9a5.78,5.78,0,0,0,4.07,1.78c1.19,0,2.31-.26,2.45-.93s-.33-1-1.35-1.21-2.12-.48-3.2-.76c-2.94-.77-3.76-2.48-3.76-4,0-2.11,2-4.28,5.56-4.28a8.81,8.81,0,0,1,5.84,2.11m15.25-1.93H364V44.08h11.18V41h-7.45V38.49h5v-3.1h-5V33.52h6.83Zm-13,16.76h.62V27.32h-.62Zm14.9,0H377V27.32h-.62Zm2.48-3.1h8.78c2.35,0,4.25-1.41,4.25-3.68a3.58,3.58,0,0,0-2.78-3.46l-.16,0,.16,0a3.14,3.14,0,0,0,2-3c0-2.11-1.87-3.46-4.18-3.46h-8Zm3.72-11.17h3.18a1.24,1.24,0,1,1,0,2.48h-3.18ZM386.36,41h-3.74V38.49h3.74a1.24,1.24,0,0,1,0,2.48Z"/><rect class="cls-5" x="14.81" width="74.5" height="74.5"/><path class="cls-16" d="M41.78,32.35l-2.41,1.8A5.37,5.37,0,0,0,36,33c-.82,0-1.67.23-1.8.82s.4,1,1.31,1.26,2,.53,3.44.94c2.16.62,3.64,1.55,3.64,3.73,0,3-2.66,4.54-6.22,4.54a9.22,9.22,0,0,1-6.71-2.72l2.55-1.9a5.78,5.78,0,0,0,4.07,1.78c1.19,0,2.31-.26,2.45-.93s-.33-1-1.35-1.21-2.12-.48-3.2-.76c-2.94-.77-3.76-2.48-3.76-4,0-2.11,2-4.28,5.56-4.28a8.81,8.81,0,0,1,5.84,2.11M57,30.42H46.47V44.08H57.65V41H50.2V38.49h5v-3.1h-5V33.52H57ZM44,47.18h.62V27.32H44Zm14.9,0h.62V27.32h-.62Zm2.48-3.1h8.78c2.35,0,4.25-1.41,4.25-3.68a3.58,3.58,0,0,0-2.78-3.46l-.16,0,.16,0a3.14,3.14,0,0,0,2-3c0-2.11-1.87-3.46-4.18-3.46h-8ZM65.1,32.9h3.18a1.24,1.24,0,1,1,0,2.48H65.1ZM68.84,41H65.1V38.49h3.74a1.24,1.24,0,0,1,0,2.48Z"/><rect class="cls-5" x="664.67" width="74.5" height="74.5"/><path class="cls-16" d="M691.64,32.35l-2.41,1.8A5.37,5.37,0,0,0,685.81,33c-.82,0-1.67.23-1.8.82s.4,1,1.31,1.26,2,.53,3.44.94c2.16.62,3.64,1.55,3.64,3.73,0,3-2.66,4.54-6.22,4.54a9.22,9.22,0,0,1-6.71-2.72l2.55-1.9a5.78,5.78,0,0,0,4.07,1.78c1.19,0,2.31-.26,2.45-.93s-.33-1-1.35-1.21-2.12-.48-3.2-.76c-2.94-.77-3.76-2.48-3.76-4,0-2.11,2-4.28,5.56-4.28a8.81,8.81,0,0,1,5.84,2.11m15.25-1.93H696.33V44.08h11.17V41h-7.45V38.49h5v-3.1h-5V33.52h6.83Zm-13,16.76h.62V27.32h-.62Zm14.9,0h.62V27.32h-.62Zm2.48-3.1H720c2.35,0,4.25-1.41,4.25-3.68a3.58,3.58,0,0,0-2.78-3.46l-.16,0,.16,0a3.14,3.14,0,0,0,2-3c0-2.11-1.87-3.46-4.18-3.46h-8ZM715,32.9h3.18a1.24,1.24,0,1,1,0,2.48H715ZM718.7,41H715V38.49h3.74a1.24,1.24,0,0,1,0,2.48Z"/><rect class="cls-5" x="997" width="74.5" height="74.5"/><path class="cls-16" d="M1024,32.35l-2.41,1.8a5.37,5.37,0,0,0-3.41-1.17c-.82,0-1.67.23-1.8.82s.4,1,1.31,1.26,2,.53,3.44.94c2.16.62,3.64,1.55,3.64,3.73,0,3-2.66,4.54-6.22,4.54a9.22,9.22,0,0,1-6.71-2.72l2.55-1.9a5.78,5.78,0,0,0,4.07,1.78c1.19,0,2.31-.26,2.45-.93s-.33-1-1.35-1.21-2.12-.48-3.2-.76c-2.94-.77-3.76-2.48-3.76-4,0-2.11,2-4.28,5.56-4.28a8.81,8.81,0,0,1,5.84,2.11m15.25-1.93h-10.55V44.08h11.18V41h-7.45V38.49h5v-3.1h-5V33.52h6.83Zm-13,16.76h.62V27.32h-.62Zm14.9,0h.62V27.32h-.62Zm2.48-3.1h8.78c2.35,0,4.25-1.41,4.25-3.68a3.58,3.58,0,0,0-2.78-3.46l-.16,0,.16,0a3.14,3.14,0,0,0,2-3c0-2.11-1.87-3.46-4.18-3.46h-8Zm3.72-11.17h3.18a1.24,1.24,0,1,1,0,2.48h-3.18ZM1051,41h-3.74V38.49H1051a1.24,1.24,0,0,1,0,2.48Z"/><rect class="cls-5" x="1329.34" width="74.5" height="74.5"/><path class="cls-16" d="M1356.31,32.35l-2.41,1.8a5.37,5.37,0,0,0-3.41-1.17c-.82,0-1.67.23-1.8.82s.4,1,1.31,1.26,2,.53,3.44.94c2.16.62,3.64,1.55,3.64,3.73,0,3-2.66,4.54-6.22,4.54a9.22,9.22,0,0,1-6.71-2.72l2.55-1.9a5.78,5.78,0,0,0,4.07,1.78c1.19,0,2.31-.26,2.45-.93s-.33-1-1.35-1.21-2.12-.48-3.2-.76c-2.94-.77-3.76-2.48-3.76-4,0-2.11,2-4.28,5.56-4.28a8.81,8.81,0,0,1,5.84,2.11m15.25-1.93H1361V44.08h11.18V41h-7.45V38.49h5v-3.1h-5V33.52h6.83Zm-13,16.76h.62V27.32h-.62Zm14.9,0h.62V27.32h-.62Zm2.48-3.1h8.78c2.35,0,4.25-1.41,4.25-3.68a3.58,3.58,0,0,0-2.78-3.46l-.16,0,.16,0a3.14,3.14,0,0,0,2-3c0-2.11-1.87-3.46-4.18-3.46h-8Zm3.72-11.17h3.18a1.24,1.24,0,1,1,0,2.48h-3.18Zm3.74,8.07h-3.74V38.49h3.74a1.24,1.24,0,0,1,0,2.48Z"/></g></g></svg>