<?xml version="1.0" encoding="utf-8"?>
<!-- Generator: Adobe Illustrator 21.0.2, SVG Export Plug-In . SVG Version: 6.00 Build 0)  -->
<svg version="1.1" id="Lager_1" xmlns="http://www.w3.org/2000/svg" xmlns:xlink="http://www.w3.org/1999/xlink" x="0px" y="0px"
	 viewBox="0 0 686.7 686.7" style="enable-background:new 0 0 686.7 686.7;" xml:space="preserve">
<style type="text/css">
	.st0{fill:#FFFFFF;}
	.st1{fill:#673AB6;}
	.st2{fill:#60CD18;}
</style>
<title>amount-white</title>
<g id="Lager_2">
	<g id="Lager_1-2">
		<rect x="0.2" y="0.2" class="st0" width="686.2" height="686.2"/>
		<path d="M686.2,0.5v685.7H0.5V0.5H686.2 M686.7,0H0v686.7h686.7V0z"/>
		<rect x="343.3" y="343.3" class="st1" width="343.3" height="343.3"/>
		<rect x="515" y="515" class="st2" width="171.7" height="171.7"/>
		<path class="st0" d="M577.2,589.5l-5.5,4.2c-2.2-1.8-5-2.7-7.9-2.7c-1.9,0-3.8,0.5-4.2,1.9s0.9,2.3,3,2.9c2.4,0.7,4.6,1.2,7.9,2.2
			c5,1.4,8.4,3.6,8.4,8.6c0,6.9-6.1,10.5-14.3,10.5s-13.8-4.3-15.5-6.3l5.9-4.4c4.1,3.6,7,4.1,9.4,4.1c2.8,0,5.3-0.6,5.7-2.1
			c0.3-1.2-0.8-2.2-3.1-2.8c-2.7-0.6-4.9-1.1-7.4-1.8c-6.8-1.8-8.7-5.7-8.7-9.2c0-4.9,4.5-9.9,12.8-9.9
			C568.6,584.6,573.4,586.3,577.2,589.5 M612.3,585.1H588v31.5h25.8v-7.2h-17.2v-5.7H608v-7.2h-11.5v-4.3h15.7L612.3,585.1z
			 M582.3,623.7h1.4V578h-1.4V623.7z M616.6,623.7h1.4V578h-1.4L616.6,623.7z M622.3,616.6h20.2c5.4,0,9.8-3.3,9.8-8.5
			c0-4.1-2.7-6.8-6.4-8c-0.1,0-0.2,0-0.4,0c0.1,0,0.2,0,0.4-0.1c2.8-1.1,4.6-3.9,4.5-6.9c0-4.9-4.3-8-9.6-8h-18.5L622.3,616.6z
			 M630.9,590.8h7.3c1.6-0.1,3,1,3.1,2.6c0.1,1.6-1,3-2.6,3.1c-0.2,0-0.3,0-0.5,0h-7.3V590.8z M639.5,609.4h-8.6v-5.7h8.6
			c1.6,0,2.9,1.3,2.9,2.9C642.4,608.1,641.1,609.4,639.5,609.4L639.5,609.4z"/>
	</g>
</g>
</svg>
