<svg xmlns="http://www.w3.org/2000/svg" viewBox="0 0 686.68 686.68"><defs><style>.cls-1{fill:#673ab6;}.cls-2{fill:#60cd18;}.cls-3{fill:#fff;}</style></defs><title>amount-green</title><g id="Lager_2" data-name="Lager 2"><g id="Lager_1-2" data-name="Lager 1"><rect class="cls-1" width="686.68" height="686.68" transform="translate(686.68 686.68) rotate(-180)"/><rect class="cls-2" x="515.01" y="515.01" width="171.67" height="171.67"/><path class="cls-3" d="M577.15,589.55l-5.55,4.15a12.37,12.37,0,0,0-7.86-2.7c-1.89,0-3.85.54-4.16,1.89s.92,2.33,3,2.9c2.39.65,4.57,1.21,7.92,2.17,5,1.42,8.4,3.58,8.4,8.59,0,6.9-6.12,10.47-14.32,10.47s-13.79-4.27-15.46-6.27l5.87-4.39c4.12,3.59,7,4.1,9.39,4.1,2.75,0,5.32-.59,5.65-2.14.27-1.25-.77-2.24-3.11-2.79-2.65-.61-4.89-1.1-7.38-1.76-6.76-1.78-8.67-5.71-8.67-9.24,0-4.86,4.53-9.86,12.81-9.86a20.3,20.3,0,0,1,13.46,4.86m35.14-4.45H588v31.47h25.75v-7.15H596.55V603.7H608v-7.15H596.55v-4.29h15.74Zm-30,38.63h1.43V578h-1.43Zm34.33,0H618V578h-1.43Zm5.72-7.15h20.23c5.41,0,9.79-3.26,9.79-8.48,0-4.07-2.67-6.77-6.4-8a2.1,2.1,0,0,0-.36,0,2.26,2.26,0,0,0,.36-.06,7.23,7.23,0,0,0,4.51-6.94c0-4.87-4.31-8-9.63-8H622.3Zm8.58-25.75h7.32a2.87,2.87,0,1,1,0,5.72h-7.32Zm8.62,18.6h-8.62V603.7h8.62a2.86,2.86,0,0,1,0,5.72Z"/></g></g></svg>