<svg xmlns="http://www.w3.org/2000/svg" viewBox="0 0 360 360"><defs><style>.cls-1{fill:#ededed;}.cls-2{fill:#673ab5;}</style></defs><title>c-do-4</title><g id="Lager_2" data-name="Lager 2"><g id="Lager_1-2" data-name="Lager 1"><rect class="cls-1" width="360" height="360"/><path class="cls-2" d="M47.8,55.2V58H33.9V30h3V55.2Z"/><path class="cls-2" d="M49.52,48.2v-.4c0-6.67,3.93-10.4,8.83-10.4s8.83,3.73,8.83,10.4v.4c0,6.67-3.93,10.4-8.83,10.4S49.52,54.87,49.52,48.2Zm14.87-.1v-.2c0-5.27-2.67-8.1-6-8.1s-6,2.83-6,8.1v.2c0,5.27,2.67,8.1,6,8.1S64.39,53.37,64.39,48.1Z"/><path class="cls-2" d="M71.29,38h2.6v4.8a8,8,0,0,1,7.57-5v2.8c-4.54,0-7.37,3.4-7.37,8.2V58h-2.8Z"/><path class="cls-2" d="M92.3,58.6c-5,0-9-3.73-9-10.4v-.4c0-6.67,3.93-10.4,8.83-10.4s8.84,3.73,8.84,10.37v.77H86c.07,4.73,2.63,7.67,6.37,7.67a5.71,5.71,0,0,0,5.4-3.47l2.67.53A8.5,8.5,0,0,1,92.3,58.6Zm5.83-11.94c-.27-4.6-2.9-7-6-7s-5.77,2.43-6,7Z"/><path class="cls-2" d="M104.73,38h2.6v3.2a6.37,6.37,0,0,1,5.8-3.6,5.65,5.65,0,0,1,5.54,3.93,6.45,6.45,0,0,1,6-3.93c3.87,0,6.57,2.87,6.57,7.37V58h-2.8V45.5c0-3.4-1.7-5.5-4.27-5.5-2.9,0-4.77,2.57-4.77,5.93V58h-2.8V45.5c0-3.4-1.67-5.5-4.27-5.5-2.87,0-4.77,2.57-4.77,5.93V58h-2.8Z"/><path class="cls-2" d="M144.53,31.19h3.07v3.2h-3.07Zm.13,6.8h2.8V58h-2.8Z"/><path class="cls-2" d="M152.44,38H155v3.67a6.9,6.9,0,0,1,6.5-4.07c4.43,0,8.3,3.3,8.3,10v.8c0,6.7-3.9,10-8.24,10a6.76,6.76,0,0,1-6.33-3.93V66h-2.8ZM167,48.1v-.2c0-5.13-2.63-7.9-6-7.9s-5.9,2.77-5.9,7.9v.2c0,5.17,2.6,7.9,5.9,7.9S167,53.27,167,48.1Z"/><path class="cls-2" d="M172,53.27l2.4-1a5.88,5.88,0,0,0,5.8,3.87c2.73,0,4.7-1.3,4.7-3.57s-1.8-3-4.17-3.47l-2.57-.47c-3.23-.6-5.67-2.07-5.67-5.17,0-3.27,2.6-5.87,7.13-5.87A8.41,8.41,0,0,1,187.45,42l-2.37,1a5.65,5.65,0,0,0-5.3-3.17c-2.63,0-4.47,1.37-4.47,3.47,0,1.93,1.57,2.77,3.6,3.13l2.53.47c3.8.7,6.27,2.23,6.27,5.47,0,3.47-2.8,6-7.4,6A8.52,8.52,0,0,1,172,53.27Z"/><path class="cls-2" d="M206.23,58h-2.6V54.8a6.54,6.54,0,0,1-6.07,3.6c-4.1,0-6.8-2.87-6.8-7.37V38h2.8V50.4c0,3.5,1.87,5.57,4.67,5.57,3.1,0,5.2-2.53,5.2-5.9V38h2.8Z"/><path class="cls-2" d="M211.17,38h2.6v3.2a6.37,6.37,0,0,1,5.8-3.6,5.64,5.64,0,0,1,5.53,3.93,6.45,6.45,0,0,1,6-3.93c3.87,0,6.57,2.87,6.57,7.37V58h-2.8V45.5c0-3.4-1.7-5.5-4.27-5.5-2.9,0-4.77,2.57-4.77,5.93V58H223V45.5c0-3.4-1.67-5.5-4.27-5.5-2.87,0-4.77,2.57-4.77,5.93V58h-2.8Z"/><path class="cls-2" d="M31.57,88.4v-.8c0-6.7,3.9-10,8.23-10a6.76,6.76,0,0,1,6.33,3.93V70h2.8V98H46.37V94.33a6.9,6.9,0,0,1-6.5,4.07C35.43,98.4,31.57,95.1,31.57,88.4Zm14.67-.3v-.2c0-5.17-2.6-7.9-5.9-7.9s-6,2.73-6,7.9v.2c0,5.13,2.63,7.9,6,7.9S46.24,93.23,46.24,88.1Z"/><path class="cls-2" d="M52.85,88.2v-.4c0-6.67,3.93-10.4,8.83-10.4s8.83,3.73,8.83,10.4v.4c0,6.67-3.93,10.4-8.83,10.4S52.85,94.87,52.85,88.2Zm14.87-.1v-.2c0-5.27-2.67-8.1-6-8.1s-6,2.83-6,8.1v.2c0,5.27,2.67,8.1,6,8.1S67.72,93.37,67.72,88.1Z"/><path class="cls-2" d="M74.43,93.66V70h2.8V93.16c0,1.77.7,2.43,2,2.43h1V98H78.6C76.1,98,74.43,96.73,74.43,93.66Z"/><path class="cls-2" d="M81.86,88.2v-.4c0-6.67,3.93-10.4,8.83-10.4s8.83,3.73,8.83,10.4v.4c0,6.67-3.93,10.4-8.83,10.4S81.86,94.87,81.86,88.2Zm14.87-.1v-.2c0-5.27-2.67-8.1-6-8.1s-6,2.83-6,8.1v.2c0,5.27,2.67,8.1,6,8.1S96.73,93.37,96.73,88.1Z"/><path class="cls-2" d="M103.63,78h2.6v4.8a8,8,0,0,1,7.57-5v2.8c-4.53,0-7.37,3.4-7.37,8.2V98h-2.8Z"/><path class="cls-2" d="M124.23,93.27l2.4-1a5.88,5.88,0,0,0,5.8,3.87c2.73,0,4.7-1.3,4.7-3.57s-1.8-3-4.17-3.47l-2.57-.47c-3.23-.6-5.67-2.07-5.67-5.17,0-3.27,2.6-5.87,7.13-5.87A8.41,8.41,0,0,1,139.64,82l-2.37,1a5.65,5.65,0,0,0-5.3-3.17c-2.63,0-4.47,1.37-4.47,3.47,0,1.93,1.57,2.77,3.6,3.13l2.53.47c3.8.7,6.27,2.23,6.27,5.47,0,3.47-2.8,6-7.4,6A8.52,8.52,0,0,1,124.23,93.27Z"/><path class="cls-2" d="M143.23,71.19h3.07v3.2h-3.07Zm.13,6.8h2.8V98h-2.8Z"/><path class="cls-2" d="M152.69,93.13V80.4h-3.37V78h3.47V72h2.6v6h5.73v2.4h-5.63V92.6c0,2.13,1,3,2.7,3h2.93V98h-3.6C154.66,98,152.69,96.53,152.69,93.13Z"/><path class="cls-2" d="M172.19,92.86V92.6c0-3.3,2.43-6.07,7.4-6.07h5.77v-1.6c0-3.2-1.77-5.07-4.8-5.07a5.33,5.33,0,0,0-5.2,3.53l-2.57-.53a7.9,7.9,0,0,1,7.9-5.27c4.67,0,7.37,2.77,7.37,7.17V98h-2.6V94.8a7.85,7.85,0,0,1-6.8,3.6C174.89,98.4,172.19,96.2,172.19,92.86Zm13.17-2.67V88.4h-5.44c-3.27,0-4.93,1.73-4.93,4s1.8,3.77,4.33,3.77A5.84,5.84,0,0,0,185.36,90.2Z"/><path class="cls-2" d="M193,78h2.6v3.2a6.37,6.37,0,0,1,5.8-3.6,5.64,5.64,0,0,1,5.53,3.93,6.45,6.45,0,0,1,6-3.93c3.87,0,6.57,2.87,6.57,7.37V98h-2.8V85.5c0-3.4-1.7-5.5-4.27-5.5-2.9,0-4.77,2.57-4.77,5.93V98h-2.8V85.5c0-3.4-1.67-5.5-4.27-5.5-2.87,0-4.77,2.57-4.77,5.93V98H193Z"/><path class="cls-2" d="M232.11,98.6c-5,0-9-3.73-9-10.4v-.4c0-6.67,3.93-10.4,8.84-10.4s8.83,3.73,8.83,10.37v.77H225.81c.07,4.73,2.63,7.67,6.37,7.67a5.71,5.71,0,0,0,5.4-3.47l2.67.53A8.5,8.5,0,0,1,232.11,98.6Zm5.83-11.94c-.27-4.6-2.9-7-6-7s-5.77,2.43-6,7Z"/><path class="cls-2" d="M245.62,93.13V80.4h-3.37V78h3.47V72h2.6v6H254v2.4h-5.63V92.6c0,2.13,1,3,2.7,3H254V98h-3.6C247.58,98,245.62,96.53,245.62,93.13Z"/><path class="cls-2" d="M260.22,94.4v5.53c0,2-1.2,3.07-3.47,3.07v-1.6c1.13,0,1.6-.43,1.6-1.57v-2h-1.2V94.4Z"/><path class="cls-2" d="M31.57,128.2v-.4c0-6.57,3.93-10.2,8.63-10.2A8.08,8.08,0,0,1,48,123.5l-2.6.53a5.58,5.58,0,0,0-5.23-4c-3.17,0-5.83,2.7-5.83,7.9v.2c0,5.2,2.67,7.9,5.83,7.9a5.58,5.58,0,0,0,5.23-4l2.6.53a8,8,0,0,1-7.83,5.9C35.5,138.4,31.57,134.8,31.57,128.2Z"/><path class="cls-2" d="M50.2,128.2v-.4c0-6.67,3.93-10.4,8.84-10.4s8.83,3.73,8.83,10.4v.4c0,6.67-3.93,10.4-8.83,10.4S50.2,134.87,50.2,128.2Zm14.87-.1v-.2c0-5.27-2.67-8.1-6-8.1s-6,2.83-6,8.1v.2c0,5.27,2.67,8.1,6,8.1S65.07,133.37,65.07,128.1Z"/><path class="cls-2" d="M71.79,118h2.6v3.2a6.54,6.54,0,0,1,6.07-3.6c4.1,0,6.8,2.87,6.8,7.37v13h-2.8V125.6c0-3.5-1.87-5.6-4.67-5.6-3.1,0-5.2,2.57-5.2,5.93V138h-2.8Z"/><path class="cls-2" d="M90.33,133.27l2.4-1a5.88,5.88,0,0,0,5.8,3.87c2.73,0,4.7-1.3,4.7-3.57s-1.8-3-4.17-3.47l-2.57-.47c-3.23-.6-5.67-2.07-5.67-5.17,0-3.27,2.6-5.87,7.13-5.87a8.42,8.42,0,0,1,7.77,4.43l-2.37,1a5.65,5.65,0,0,0-5.3-3.17c-2.63,0-4.47,1.37-4.47,3.47,0,1.93,1.57,2.77,3.6,3.13l2.53.47c3.8.7,6.27,2.23,6.27,5.47,0,3.47-2.8,6-7.4,6A8.52,8.52,0,0,1,90.33,133.27Z"/><path class="cls-2" d="M117.43,138.6c-5,0-9-3.73-9-10.4v-.4c0-6.67,3.93-10.4,8.84-10.4s8.83,3.73,8.83,10.37v.77H111.13c.07,4.73,2.63,7.67,6.37,7.67a5.71,5.71,0,0,0,5.4-3.47l2.67.53A8.5,8.5,0,0,1,117.43,138.6Zm5.83-11.94c-.27-4.6-2.9-7-6-7s-5.77,2.43-6,7Z"/><path class="cls-2" d="M128.86,128.2v-.4c0-6.57,3.93-10.2,8.64-10.2a8.08,8.08,0,0,1,7.83,5.9l-2.6.53a5.58,5.58,0,0,0-5.23-4c-3.17,0-5.83,2.7-5.83,7.9v.2c0,5.2,2.67,7.9,5.83,7.9a5.58,5.58,0,0,0,5.23-4l2.6.53a8,8,0,0,1-7.83,5.9C132.79,138.4,128.86,134.8,128.86,128.2Z"/><path class="cls-2" d="M150.14,133.13V120.4h-3.37V118h3.47v-6h2.6v6h5.73v2.4h-5.63v12.2c0,2.13,1,3,2.7,3h2.93V138H155C152.11,138,150.14,136.53,150.14,133.13Z"/><path class="cls-2" d="M169.17,138.6c-5,0-9-3.73-9-10.4v-.4c0-6.67,3.93-10.4,8.84-10.4s8.83,3.73,8.83,10.37v.77H162.87c.07,4.73,2.63,7.67,6.37,7.67a5.71,5.71,0,0,0,5.4-3.47l2.67.53A8.5,8.5,0,0,1,169.17,138.6ZM175,126.66c-.27-4.6-2.9-7-6-7s-5.77,2.43-6,7Z"/><path class="cls-2" d="M182.68,133.13V120.4h-3.37V118h3.47v-6h2.6v6h5.73v2.4h-5.63v12.2c0,2.13,1,3,2.7,3h2.93V138h-3.6C184.64,138,182.68,136.53,182.68,133.13Z"/><path class="cls-2" d="M209.5,138h-2.6v-3.2a6.54,6.54,0,0,1-6.07,3.6c-4.1,0-6.8-2.87-6.8-7.37V118h2.8v12.4c0,3.5,1.87,5.57,4.67,5.57,3.1,0,5.2-2.53,5.2-5.9V118h2.8Z"/><path class="cls-2" d="M222.45,138.6c-5,0-9-3.73-9-10.4v-.4c0-6.67,3.93-10.4,8.83-10.4s8.83,3.73,8.83,10.37v.77H216.15c.07,4.73,2.63,7.67,6.37,7.67a5.71,5.71,0,0,0,5.4-3.47l2.67.53A8.5,8.5,0,0,1,222.45,138.6Zm5.83-11.94c-.27-4.6-2.9-7-6-7s-5.77,2.43-6,7Z"/><path class="cls-2" d="M235.07,118h2.6v4.8a8,8,0,0,1,7.57-5v2.8c-4.53,0-7.37,3.4-7.37,8.2V138h-2.8Z"/><path class="cls-2" d="M32.07,172.86v-.27c0-3.3,2.43-6.07,7.4-6.07h5.77v-1.6c0-3.2-1.77-5.07-4.8-5.07a5.33,5.33,0,0,0-5.2,3.53l-2.57-.53a7.9,7.9,0,0,1,7.9-5.27c4.67,0,7.37,2.77,7.37,7.17V178h-2.6v-3.2a7.85,7.85,0,0,1-6.8,3.6C34.77,178.4,32.07,176.2,32.07,172.86Zm13.17-2.67v-1.8H39.8c-3.27,0-4.93,1.73-4.93,4s1.8,3.77,4.33,3.77A5.84,5.84,0,0,0,45.24,170.2Z"/><path class="cls-2" d="M51.79,168.4v-.8c0-6.7,3.9-10,8.24-10a6.76,6.76,0,0,1,6.33,3.93V150h2.8v28H66.6v-3.67a6.9,6.9,0,0,1-6.5,4.07C55.66,178.4,51.79,175.1,51.79,168.4Zm14.67-.3v-.2c0-5.17-2.6-7.9-5.9-7.9s-6,2.73-6,7.9v.2c0,5.13,2.63,7.9,6,7.9S66.46,173.23,66.46,168.1Z"/><path class="cls-2" d="M74,151.19h3.07v3.2H74Zm.13,6.8H77v20h-2.8Z"/><path class="cls-2" d="M82,158h2.57v3.67A6.9,6.9,0,0,1,91,157.6c4.43,0,8.3,3.3,8.3,10v.8c0,6.7-3.9,10-8.24,10a6.76,6.76,0,0,1-6.33-3.93V186H82Zm14.57,10.1v-.2c0-5.13-2.63-7.9-6-7.9s-5.9,2.77-5.9,7.9v.2c0,5.17,2.6,7.9,5.9,7.9S96.54,173.27,96.54,168.1Z"/><path class="cls-2" d="M103.13,151.19h3.07v3.2h-3.07Zm.13,6.8h2.8v20h-2.8Z"/><path class="cls-2" d="M109.5,173.27l2.4-1a5.88,5.88,0,0,0,5.8,3.87c2.73,0,4.7-1.3,4.7-3.57s-1.8-3-4.17-3.47l-2.57-.47c-3.23-.6-5.67-2.07-5.67-5.17,0-3.27,2.6-5.87,7.13-5.87A8.42,8.42,0,0,1,124.9,162l-2.37,1a5.65,5.65,0,0,0-5.3-3.17c-2.63,0-4.47,1.37-4.47,3.47,0,1.93,1.57,2.77,3.6,3.13l2.53.47c3.8.7,6.27,2.23,6.27,5.47,0,3.47-2.8,6-7.4,6A8.52,8.52,0,0,1,109.5,173.27Z"/><path class="cls-2" d="M127.57,168.2v-.4c0-6.57,3.93-10.2,8.63-10.2a8.08,8.08,0,0,1,7.84,5.9l-2.6.53a5.58,5.58,0,0,0-5.23-4c-3.17,0-5.83,2.7-5.83,7.9v.2c0,5.2,2.67,7.9,5.83,7.9a5.58,5.58,0,0,0,5.23-4l2.6.53a8,8,0,0,1-7.84,5.9C131.5,178.4,127.57,174.8,127.57,168.2Z"/><path class="cls-2" d="M147.14,151.19h3.07v3.2h-3.07Zm.13,6.8h2.8v20h-2.8Z"/><path class="cls-2" d="M155.06,158h2.6v3.2a6.53,6.53,0,0,1,6.07-3.6c4.1,0,6.8,2.87,6.8,7.37v13h-2.8V165.6c0-3.5-1.87-5.6-4.67-5.6-3.1,0-5.2,2.57-5.2,5.93V178h-2.8Z"/><path class="cls-2" d="M173.67,180.93a5.23,5.23,0,0,1,3.07-4.77,3.66,3.66,0,0,1-1.8-3.2,3.89,3.89,0,0,1,2.93-3.73,5.91,5.91,0,0,1-2.77-5.07c0-3.8,3.07-6.63,7.13-6.63A8,8,0,0,1,185,158H191v2.23h-3.33a5.29,5.29,0,0,1,1.67,3.93c0,3.8-3,6.67-7.1,6.67h-2.47c-1.63,0-2.43.83-2.43,2s.8,2,2.4,2h5.8c3.63,0,6.13,2.53,6.13,5.7,0,3.33-2.73,6.07-6.9,6.07h-4.47C176.17,186.6,173.67,184,173.67,180.93Zm10.84,3.47c2.87,0,4.6-1.63,4.6-3.77s-1.57-3.6-4-3.6h-4.83a3.73,3.73,0,0,0-4,3.63c0,2.07,1.63,3.73,4.5,3.73Zm2.37-20.2a4.64,4.64,0,1,0-4.63,4.53A4.52,4.52,0,0,0,186.88,164.2Z"/><path class="cls-2" d="M211.24,178.6c-5,0-9-3.73-9-10.4v-.4c0-6.67,3.93-10.4,8.83-10.4s8.83,3.73,8.83,10.37v.77H204.94c.07,4.73,2.63,7.67,6.37,7.67a5.71,5.71,0,0,0,5.4-3.47l2.67.53A8.5,8.5,0,0,1,211.24,178.6Zm5.83-11.94c-.27-4.6-2.9-7-6-7s-5.77,2.43-6,7Z"/><path class="cls-2" d="M223.65,173.66V150h2.8v23.17c0,1.77.7,2.43,2,2.43h1V178h-1.7C225.32,178,223.65,176.73,223.65,173.66Z"/><path class="cls-2" d="M232.55,151.19h3.07v3.2h-3.07Zm.13,6.8h2.8v20h-2.8Z"/><path class="cls-2" d="M242,173.13V160.4h-3.37V158h3.47v-6h2.6v6h5.73v2.4h-5.63v12.2c0,2.13,1,3,2.7,3h2.93V178h-3.6C244,178,242,176.53,242,173.13Z"/><path class="cls-2" d="M253.77,174.4h3.07V178h-3.07Z"/><path class="cls-2" d="M30.57,212.4l2.73-1.13a7.94,7.94,0,0,0,7.5,4.53c4,0,6.87-2.1,6.87-5.53,0-3.23-2.6-4.5-5-5l-3.83-.7c-3.87-.7-7.67-2.47-7.67-7.27v-.27c0-4.57,4-7.6,9.23-7.6a10.73,10.73,0,0,1,9.8,5.77l-2.73,1.13a7.89,7.89,0,0,0-7.17-4.3c-3.47,0-6.2,2-6.2,5.2,0,3.07,2.4,4.27,5.33,4.83l3.83.7c3.73.67,7.4,2.5,7.4,7.07v.27c0,5-4.1,8.27-9.87,8.27C36.3,218.4,32.53,216.43,30.57,212.4Z"/><path class="cls-2" d="M62.26,218.6c-5,0-9-3.73-9-10.4v-.4c0-6.67,3.93-10.4,8.84-10.4s8.83,3.73,8.83,10.37v.77H56c.07,4.73,2.63,7.67,6.37,7.67a5.71,5.71,0,0,0,5.4-3.47l2.67.53A8.5,8.5,0,0,1,62.26,218.6Zm5.84-11.94c-.27-4.6-2.9-7-6-7s-5.77,2.43-6,7Z"/><path class="cls-2" d="M73.69,208.4v-.8c0-6.7,3.9-10,8.23-10a6.76,6.76,0,0,1,6.33,3.93V190h2.8v28H88.5v-3.67A6.9,6.9,0,0,1,82,218.4C77.56,218.4,73.69,215.1,73.69,208.4Zm14.67-.3v-.2c0-5.17-2.6-7.9-5.9-7.9s-6,2.73-6,7.9v.2c0,5.13,2.63,7.9,6,7.9S88.36,213.23,88.36,208.1Z"/><path class="cls-2" d="M103.49,208.4v-.8c0-6.7,3.9-10,8.24-10a6.76,6.76,0,0,1,6.33,3.93V190h2.8v28H118.3v-3.67a6.9,6.9,0,0,1-6.5,4.07C107.36,218.4,103.49,215.1,103.49,208.4Zm14.67-.3v-.2c0-5.17-2.6-7.9-5.9-7.9s-6,2.73-6,7.9v.2c0,5.13,2.63,7.9,6,7.9S118.16,213.23,118.16,208.1Z"/><path class="cls-2" d="M125.75,191.19h3.07v3.2h-3.07Zm.13,6.8h2.8v20h-2.8Z"/><path class="cls-2" d="M132.73,212.86v-.27c0-3.3,2.43-6.07,7.4-6.07h5.77v-1.6c0-3.2-1.77-5.07-4.8-5.07a5.33,5.33,0,0,0-5.2,3.53l-2.57-.53a7.9,7.9,0,0,1,7.9-5.27c4.67,0,7.37,2.77,7.37,7.17V218H146v-3.2a7.85,7.85,0,0,1-6.8,3.6C135.43,218.4,132.73,216.2,132.73,212.86Zm13.17-2.67v-1.8h-5.43c-3.27,0-4.94,1.73-4.94,4s1.8,3.77,4.33,3.77A5.83,5.83,0,0,0,145.9,210.2Z"/><path class="cls-2" d="M153.5,198h2.6v3.2a6.37,6.37,0,0,1,5.8-3.6,5.65,5.65,0,0,1,5.54,3.93,6.45,6.45,0,0,1,6-3.93c3.87,0,6.57,2.87,6.57,7.37v13h-2.8V205.5c0-3.4-1.7-5.5-4.27-5.5-2.9,0-4.77,2.57-4.77,5.93V218h-2.8V205.5c0-3.4-1.67-5.5-4.27-5.5-2.87,0-4.77,2.57-4.77,5.93V218h-2.8Z"/><path class="cls-2" d="M193.3,198h2.6v3.2a6.54,6.54,0,0,1,6.07-3.6c4.1,0,6.8,2.87,6.8,7.37v13H206V205.6c0-3.5-1.87-5.6-4.67-5.6-3.1,0-5.2,2.57-5.2,5.93V218h-2.8Z"/><path class="cls-2" d="M212.37,208.2v-.4c0-6.67,3.93-10.4,8.84-10.4s8.83,3.73,8.83,10.4v.4c0,6.67-3.93,10.4-8.83,10.4S212.37,214.87,212.37,208.2Zm14.87-.1v-.2c0-5.27-2.67-8.1-6-8.1s-6,2.83-6,8.1v.2c0,5.27,2.67,8.1,6,8.1S227.24,213.37,227.24,208.1Z"/><path class="cls-2" d="M234,198h2.6v3.2a6.54,6.54,0,0,1,6.07-3.6c4.1,0,6.8,2.87,6.8,7.37v13h-2.8V205.6c0-3.5-1.87-5.6-4.67-5.6-3.1,0-5.2,2.57-5.2,5.93V218H234Z"/><path class="cls-2" d="M269.32,218h-2.6v-3.2a6.54,6.54,0,0,1-6.07,3.6c-4.1,0-6.8-2.87-6.8-7.37V198h2.8v12.4c0,3.5,1.87,5.57,4.67,5.57,3.1,0,5.2-2.53,5.2-5.9V198h2.8Z"/><path class="cls-2" d="M32.87,238h2.6v3.2a6.37,6.37,0,0,1,5.8-3.6,5.65,5.65,0,0,1,5.54,3.93,6.45,6.45,0,0,1,6-3.93c3.87,0,6.57,2.87,6.57,7.37v13h-2.8V245.5c0-3.4-1.7-5.5-4.27-5.5-2.9,0-4.77,2.57-4.77,5.93V258H44.7V245.5c0-3.4-1.67-5.5-4.27-5.5-2.87,0-4.77,2.57-4.77,5.93V258h-2.8Z"/><path class="cls-2" d="M64.09,238h2.6v3.2a6.37,6.37,0,0,1,5.8-3.6A5.64,5.64,0,0,1,78,241.53a6.45,6.45,0,0,1,6-3.93c3.87,0,6.57,2.87,6.57,7.37v13h-2.8V245.5c0-3.4-1.7-5.5-4.27-5.5-2.9,0-4.77,2.57-4.77,5.93V258h-2.8V245.5c0-3.4-1.67-5.5-4.27-5.5-2.87,0-4.77,2.57-4.77,5.93V258h-2.8Z"/><path class="cls-2" d="M94.8,263.57h1.5c1.87,0,2.77-.87,3.6-3.13l1.23-3.3L92.79,238h3.1l4.83,11.54c.57,1.4,1.2,2.8,1.83,4.53.5-1.77.93-3.23,1.43-4.63L107.9,238h2.9l-8.47,23.44c-1.1,3-2.9,4.57-5.77,4.57H94.8Z"/><path class="cls-2" d="M123.06,238h2.6v3.2a6.54,6.54,0,0,1,6.07-3.6c4.1,0,6.8,2.87,6.8,7.37v13h-2.8V245.6c0-3.5-1.87-5.6-4.67-5.6-3.1,0-5.2,2.57-5.2,5.93V258h-2.8Z"/><path class="cls-2" d="M143.14,231.19h3.07v3.2h-3.07Zm.13,6.8h2.8v20h-2.8Z"/><path class="cls-2" d="M153.62,254.33V258h-2.57V230h2.8v11.54a6.76,6.76,0,0,1,6.33-3.93c4.33,0,8.24,3.3,8.24,10v.8c0,6.7-3.87,10-8.3,10A6.9,6.9,0,0,1,153.62,254.33Zm12-6.23v-.2c0-5.17-2.63-7.9-6-7.9s-5.9,2.73-5.9,7.9v.2c0,5.13,2.6,7.9,5.9,7.9S165.63,253.23,165.63,248.1Z"/><path class="cls-2" d="M187.81,245v13H185V245.6c0-3.5-1.87-5.57-4.67-5.57-3.1,0-5.2,2.53-5.2,5.9V258h-2.8V230h2.8v10.87A6.52,6.52,0,0,1,181,237.6C185.11,237.6,187.81,240.46,187.81,245Z"/><path class="cls-2" d="M208.88,258.6c-5,0-9-3.73-9-10.4v-.4c0-6.67,3.93-10.4,8.84-10.4s8.83,3.73,8.83,10.37v.77H202.58c.07,4.73,2.63,7.67,6.37,7.67a5.71,5.71,0,0,0,5.4-3.47l2.67.53A8.5,8.5,0,0,1,208.88,258.6Zm5.84-11.94c-.27-4.6-2.9-7-6-7s-5.77,2.43-6,7Z"/><path class="cls-2" d="M236.44,258h-2.6v-3.2a6.54,6.54,0,0,1-6.07,3.6c-4.1,0-6.8-2.87-6.8-7.37V238h2.8v12.4c0,3.5,1.87,5.57,4.67,5.57,3.1,0,5.2-2.53,5.2-5.9V238h2.8Z"/><path class="cls-2" d="M241.33,231.19h3.07v3.2h-3.07Zm.13,6.8h2.8v20h-2.8Z"/><path class="cls-2" d="M247.7,253.27l2.4-1a5.88,5.88,0,0,0,5.8,3.87c2.73,0,4.7-1.3,4.7-3.57s-1.8-3-4.17-3.47l-2.57-.47c-3.23-.6-5.67-2.07-5.67-5.17,0-3.27,2.6-5.87,7.13-5.87A8.41,8.41,0,0,1,263.1,242l-2.37,1a5.65,5.65,0,0,0-5.3-3.17c-2.63,0-4.47,1.37-4.47,3.47,0,1.93,1.57,2.77,3.6,3.13l2.53.47c3.8.7,6.27,2.23,6.27,5.47,0,3.47-2.8,6-7.4,6A8.52,8.52,0,0,1,247.7,253.27Z"/><path class="cls-2" d="M32.87,278h2.6v3.2a6.37,6.37,0,0,1,5.8-3.6,5.65,5.65,0,0,1,5.54,3.93,6.45,6.45,0,0,1,6-3.93c3.87,0,6.57,2.87,6.57,7.37v13h-2.8V285.5c0-3.4-1.7-5.5-4.27-5.5-2.9,0-4.77,2.57-4.77,5.93V298H44.7V285.5c0-3.4-1.67-5.5-4.27-5.5-2.87,0-4.77,2.57-4.77,5.93V298h-2.8Z"/><path class="cls-2" d="M63,288.2v-.4c0-6.67,3.93-10.4,8.83-10.4s8.84,3.73,8.84,10.4v.4c0,6.67-3.93,10.4-8.84,10.4S63,294.87,63,288.2Zm14.87-.1v-.2c0-5.27-2.67-8.1-6-8.1s-6,2.83-6,8.1v.2c0,5.27,2.67,8.1,6,8.1S77.85,293.37,77.85,288.1Z"/><path class="cls-2" d="M83.53,288.4v-.8c0-6.7,3.9-10,8.23-10a6.76,6.76,0,0,1,6.33,3.93V270h2.8v28H98.33v-3.67a6.9,6.9,0,0,1-6.5,4.07C87.4,298.4,83.53,295.1,83.53,288.4Zm14.67-.3v-.2c0-5.17-2.6-7.9-5.9-7.9s-6,2.73-6,7.9v.2c0,5.13,2.63,7.9,6,7.9S98.2,293.23,98.2,288.1Z"/><path class="cls-2" d="M116.13,293.13V280.4h-3.37V278h3.47v-6h2.6v6h5.73v2.4h-5.63v12.2c0,2.13,1,3,2.7,3h2.93V298H121C118.1,298,116.13,296.53,116.13,293.13Z"/><path class="cls-2" d="M127.61,271.19h3.07v3.2h-3.07Zm.13,6.8h2.8v20h-2.8Z"/><path class="cls-2" d="M135.53,278h2.6v3.2a6.54,6.54,0,0,1,6.07-3.6c4.1,0,6.8,2.87,6.8,7.37v13h-2.8V285.6c0-3.5-1.87-5.6-4.67-5.6-3.1,0-5.2,2.57-5.2,5.93V298h-2.8Z"/><path class="cls-2" d="M154.6,288.2v-.4c0-6.57,3.93-10.2,8.64-10.2a8.08,8.08,0,0,1,7.83,5.9l-2.6.53a5.58,5.58,0,0,0-5.23-4c-3.17,0-5.83,2.7-5.83,7.9v.2c0,5.2,2.67,7.9,5.83,7.9a5.58,5.58,0,0,0,5.23-4l2.6.53a8,8,0,0,1-7.83,5.9C158.53,298.4,154.6,294.8,154.6,288.2Z"/><path class="cls-2" d="M174.17,271.19h3.07v3.2h-3.07Zm.13,6.8h2.8v20h-2.8Z"/><path class="cls-2" d="M181,288.4v-.8c0-6.7,3.9-10,8.24-10a6.76,6.76,0,0,1,6.33,3.93V270h2.8v28H195.8v-3.67a6.9,6.9,0,0,1-6.5,4.07C184.86,298.4,181,295.1,181,288.4Zm14.67-.3v-.2c0-5.17-2.6-7.9-5.9-7.9s-6,2.73-6,7.9v.2c0,5.13,2.63,7.9,6,7.9S195.66,293.23,195.66,288.1Z"/><path class="cls-2" d="M218.54,298h-2.6v-3.2a6.53,6.53,0,0,1-6.07,3.6c-4.1,0-6.8-2.87-6.8-7.37V278h2.8v12.4c0,3.5,1.87,5.57,4.67,5.57,3.1,0,5.2-2.53,5.2-5.9V278h2.8Z"/><path class="cls-2" d="M223.48,278h2.6v3.2a6.54,6.54,0,0,1,6.07-3.6c4.1,0,6.8,2.87,6.8,7.37v13h-2.8V285.6c0-3.5-1.87-5.6-4.67-5.6-3.1,0-5.2,2.57-5.2,5.93V298h-2.8Z"/><path class="cls-2" d="M244.78,293.13V280.4h-3.37V278h3.47v-6h2.6v6h5.73v2.4h-5.63v12.2c0,2.13,1,3,2.7,3h2.93V298h-3.6C246.74,298,244.78,296.53,244.78,293.13Z"/><path class="cls-2" d="M256.54,294.4h3.07V298h-3.07Z"/></g></g></svg>