<svg xmlns="http://www.w3.org/2000/svg" viewBox="0 0 360 360"><defs><style>.cls-1{fill:#41afed;}.cls-2{fill:#60cc18;}.cls-3{fill:#ef3529;}</style></defs><title>c-dont-3</title><g id="Lager_2" data-name="Lager 2"><g id="Lager_1-2" data-name="Lager 1"><rect class="cls-1" width="360" height="360"/><path class="cls-2" d="M66.6,80.4V86H38.8V30h6V80.4Z"/><path class="cls-2" d="M69.26,66.4v-.8c0-13.33,7.87-20.8,17.67-20.8s17.67,7.47,17.67,20.8v.8c0,13.33-7.87,20.8-17.67,20.8S69.26,79.73,69.26,66.4ZM99,66.2v-.4c0-10.53-5.33-16.2-12.07-16.2S74.86,55.27,74.86,65.8v.4c0,10.53,5.33,16.2,12.07,16.2S99,76.73,99,66.2Z"/><path class="cls-2" d="M112.05,46h5.2v9.6a15.92,15.92,0,0,1,15.13-10v5.6c-9.07,0-14.73,6.8-14.73,16.4V86h-5.6Z"/><path class="cls-2" d="M153.25,87.2c-10.07,0-18.07-7.47-18.07-20.8v-.8c0-13.33,7.87-20.8,17.67-20.8s17.67,7.47,17.67,20.73v1.53H140.65c.13,9.47,5.27,15.33,12.73,15.33a11.42,11.42,0,0,0,10.8-6.93l5.33,1.07A17,17,0,0,1,153.25,87.2Zm11.67-23.87c-.53-9.2-5.8-14.07-12.07-14.07s-11.53,4.87-12,14.07Z"/><path class="cls-2" d="M177.35,46h5.2v6.4a12.73,12.73,0,0,1,11.6-7.2,11.29,11.29,0,0,1,11.07,7.87c2.53-5.27,6.93-7.87,11.93-7.87,7.73,0,13.13,5.73,13.13,14.73V86h-5.6V61c0-6.8-3.4-11-8.53-11-5.8,0-9.53,5.13-9.53,11.87V86H201V61c0-6.8-3.33-11-8.53-11-5.73,0-9.53,5.13-9.53,11.87V86h-5.6Z"/><path class="cls-2" d="M36.73,107.4h6.13v6.4H36.73ZM37,121h5.6v40H37Z"/><path class="cls-2" d="M51.77,121h5.13v7.33a13.8,13.8,0,0,1,13-8.13c8.87,0,16.6,6.6,16.6,20v1.6c0,13.4-7.8,20-16.47,20a13.52,13.52,0,0,1-12.67-7.87V177h-5.6ZM80.9,141.2v-.4C80.9,130.53,75.64,125,69,125s-11.8,5.53-11.8,15.8v.4c0,10.33,5.2,15.8,11.8,15.8S80.9,151.53,80.9,141.2Z"/><path class="cls-2" d="M90.24,151.53l4.8-2c2.2,5.07,6,7.73,11.6,7.73s9.4-2.6,9.4-7.13c0-4.33-3.6-6.07-8.33-6.93l-5.13-.93c-6.47-1.2-11.33-4.13-11.33-10.33,0-6.53,5.2-11.73,14.27-11.73,6.6,0,12.27,2.87,15.53,8.87l-4.73,2a11.3,11.3,0,0,0-10.6-6.33c-5.27,0-8.93,2.73-8.93,6.93,0,3.87,3.13,5.53,7.2,6.27l5.07.93c7.6,1.4,12.53,4.47,12.53,10.93,0,6.93-5.6,12-14.8,12C99.78,161.8,93.64,158.87,90.24,151.53Z"/><path class="cls-2" d="M157.88,161h-5.2v-6.4a13.07,13.07,0,0,1-12.13,7.2c-8.2,0-13.6-5.73-13.6-14.73V121h5.6v24.8c0,7,3.73,11.13,9.33,11.13,6.2,0,10.4-5.07,10.4-11.8V121h5.6Z"/><path class="cls-2" d="M167,121h5.2v6.4a12.73,12.73,0,0,1,11.6-7.2,11.29,11.29,0,0,1,11.07,7.87c2.53-5.27,6.93-7.87,11.93-7.87,7.73,0,13.13,5.73,13.13,14.73V161h-5.6V136c0-6.8-3.4-11-8.53-11-5.8,0-9.53,5.13-9.53,11.87V161h-5.6V136c0-6.8-3.33-11-8.53-11-5.73,0-9.53,5.13-9.53,11.87V161H167Z"/><rect class="cls-3" x="-73.14" y="179.5" width="506.29" height="1" transform="translate(-74.56 180) rotate(-45)"/><rect class="cls-3" x="179.5" y="-73.14" width="1" height="506.29" transform="translate(-74.56 180) rotate(-45)"/></g></g></svg>