<svg xmlns="http://www.w3.org/2000/svg" viewBox="0 0 360 360"><defs><style>.cls-1{fill:#ededed;}.cls-2{fill:#673ab5;}.cls-3{fill:#60cc18;}.cls-4{fill:#ef3529;}</style></defs><title>c-dont-4</title><g id="Lager_2" data-name="Lager 2"><g id="Lager_1-2" data-name="Lager 1"><rect class="cls-1" width="360" height="360"/><path class="cls-2" d="M48.32,55.2V58H34.41V30h3V55.2Z"/><path class="cls-2" d="M50,48.2v-.4c0-6.67,3.93-10.4,8.83-10.4s8.84,3.73,8.84,10.4v.4c0,6.67-3.93,10.4-8.84,10.4S50,54.87,50,48.2Zm14.87-.1v-.2c0-5.27-2.67-8.1-6-8.1s-6,2.83-6,8.1v.2c0,5.27,2.67,8.1,6,8.1S64.9,53.37,64.9,48.1Z"/><path class="cls-2" d="M71.81,38h2.6v4.8a8,8,0,0,1,7.57-5v2.8c-4.53,0-7.37,3.4-7.37,8.2V58h-2.8Z"/><path class="cls-2" d="M92.81,58.6c-5,0-9-3.73-9-10.4v-.4c0-6.67,3.93-10.4,8.84-10.4s8.83,3.73,8.83,10.37v.77H86.51c.07,4.73,2.63,7.67,6.37,7.67a5.71,5.71,0,0,0,5.4-3.47l2.67.53A8.5,8.5,0,0,1,92.81,58.6Zm5.84-11.94c-.27-4.6-2.9-7-6-7s-5.77,2.43-6,7Z"/><path class="cls-2" d="M105.24,38h2.6v3.2a6.37,6.37,0,0,1,5.8-3.6,5.64,5.64,0,0,1,5.53,3.93,6.45,6.45,0,0,1,6-3.93c3.87,0,6.57,2.87,6.57,7.37V58h-2.8V45.5c0-3.4-1.7-5.5-4.27-5.5-2.9,0-4.77,2.57-4.77,5.93V58h-2.8V45.5c0-3.4-1.67-5.5-4.27-5.5-2.87,0-4.77,2.57-4.77,5.93V58h-2.8Z"/><path class="cls-2" d="M145,31.19h3.07v3.2H145Zm.13,6.8H148V58h-2.8Z"/><path class="cls-2" d="M153,38h2.57v3.67A6.9,6.9,0,0,1,162,37.6c4.43,0,8.3,3.3,8.3,10v.8c0,6.7-3.9,10-8.24,10a6.76,6.76,0,0,1-6.33-3.93V66H153Zm14.57,10.1v-.2c0-5.13-2.63-7.9-6-7.9s-5.9,2.77-5.9,7.9v.2c0,5.17,2.6,7.9,5.9,7.9S167.52,53.27,167.52,48.1Z"/><path class="cls-2" d="M172.56,53.27l2.4-1a5.88,5.88,0,0,0,5.8,3.87c2.73,0,4.7-1.3,4.7-3.57s-1.8-3-4.17-3.47l-2.57-.47c-3.23-.6-5.67-2.07-5.67-5.17,0-3.27,2.6-5.87,7.13-5.87A8.41,8.41,0,0,1,188,42l-2.37,1a5.65,5.65,0,0,0-5.3-3.17c-2.63,0-4.47,1.37-4.47,3.47,0,1.93,1.57,2.77,3.6,3.13l2.53.47c3.8.7,6.27,2.23,6.27,5.47,0,3.47-2.8,6-7.4,6A8.52,8.52,0,0,1,172.56,53.27Z"/><path class="cls-2" d="M206.75,58h-2.6V54.8a6.53,6.53,0,0,1-6.07,3.6c-4.1,0-6.8-2.87-6.8-7.37V38h2.8V50.4c0,3.5,1.87,5.57,4.67,5.57,3.1,0,5.2-2.53,5.2-5.9V38h2.8Z"/><path class="cls-2" d="M211.68,38h2.6v3.2a6.37,6.37,0,0,1,5.8-3.6,5.64,5.64,0,0,1,5.53,3.93,6.45,6.45,0,0,1,6-3.93c3.87,0,6.57,2.87,6.57,7.37V58h-2.8V45.5c0-3.4-1.7-5.5-4.27-5.5-2.9,0-4.77,2.57-4.77,5.93V58h-2.8V45.5c0-3.4-1.67-5.5-4.27-5.5-2.87,0-4.77,2.57-4.77,5.93V58h-2.8Z"/><path class="cls-2" d="M32.08,88.4v-.8c0-6.7,3.9-10,8.24-10a6.76,6.76,0,0,1,6.33,3.93V70h2.8V98H46.88V94.33a6.9,6.9,0,0,1-6.5,4.07C35.95,98.4,32.08,95.1,32.08,88.4Zm14.67-.3v-.2c0-5.17-2.6-7.9-5.9-7.9s-6,2.73-6,7.9v.2c0,5.13,2.63,7.9,6,7.9S46.75,93.23,46.75,88.1Z"/><path class="cls-2" d="M53.37,88.2v-.4c0-6.67,3.93-10.4,8.83-10.4S71,81.13,71,87.8v.4c0,6.67-3.93,10.4-8.84,10.4S53.37,94.87,53.37,88.2Zm14.87-.1v-.2c0-5.27-2.67-8.1-6-8.1s-6,2.83-6,8.1v.2c0,5.27,2.67,8.1,6,8.1S68.24,93.37,68.24,88.1Z"/><path class="cls-2" d="M74.94,93.66V70h2.8V93.16c0,1.77.7,2.43,2,2.43h1V98h-1.7C76.61,98,74.94,96.73,74.94,93.66Z"/><path class="cls-2" d="M82.37,88.2v-.4c0-6.67,3.93-10.4,8.83-10.4S100,81.13,100,87.8v.4c0,6.67-3.93,10.4-8.84,10.4S82.37,94.87,82.37,88.2Zm14.87-.1v-.2c0-5.27-2.67-8.1-6-8.1s-6,2.83-6,8.1v.2c0,5.27,2.67,8.1,6,8.1S97.24,93.37,97.24,88.1Z"/><path class="cls-2" d="M104.15,78h2.6v4.8a8,8,0,0,1,7.57-5v2.8c-4.53,0-7.37,3.4-7.37,8.2V98h-2.8Z"/><path class="cls-2" d="M124.75,93.27l2.4-1a5.88,5.88,0,0,0,5.8,3.87c2.73,0,4.7-1.3,4.7-3.57s-1.8-3-4.17-3.47l-2.57-.47c-3.23-.6-5.67-2.07-5.67-5.17,0-3.27,2.6-5.87,7.13-5.87A8.41,8.41,0,0,1,140.15,82l-2.37,1a5.65,5.65,0,0,0-5.3-3.17c-2.63,0-4.47,1.37-4.47,3.47,0,1.93,1.57,2.77,3.6,3.13l2.53.47c3.8.7,6.27,2.23,6.27,5.47,0,3.47-2.8,6-7.4,6A8.52,8.52,0,0,1,124.75,93.27Z"/><path class="cls-2" d="M143.74,71.19h3.07v3.2h-3.07Zm.13,6.8h2.8V98h-2.8Z"/><path class="cls-2" d="M153.21,93.13V80.4h-3.37V78h3.47V72h2.6v6h5.73v2.4H156V92.6c0,2.13,1,3,2.7,3h2.93V98H158C155.17,98,153.21,96.53,153.21,93.13Z"/><path class="cls-2" d="M172.71,92.86V92.6c0-3.3,2.43-6.07,7.4-6.07h5.77v-1.6c0-3.2-1.77-5.07-4.8-5.07a5.33,5.33,0,0,0-5.2,3.53l-2.57-.53a7.9,7.9,0,0,1,7.9-5.27c4.67,0,7.37,2.77,7.37,7.17V98H186V94.8a7.85,7.85,0,0,1-6.8,3.6C175.41,98.4,172.71,96.2,172.71,92.86Zm13.17-2.67V88.4h-5.43c-3.27,0-4.93,1.73-4.93,4s1.8,3.77,4.33,3.77A5.84,5.84,0,0,0,185.88,90.2Z"/><path class="cls-2" d="M193.48,78h2.6v3.2a6.37,6.37,0,0,1,5.8-3.6,5.64,5.64,0,0,1,5.53,3.93,6.45,6.45,0,0,1,6-3.93c3.87,0,6.57,2.87,6.57,7.37V98h-2.8V85.5c0-3.4-1.7-5.5-4.27-5.5-2.9,0-4.77,2.57-4.77,5.93V98h-2.8V85.5c0-3.4-1.67-5.5-4.27-5.5-2.87,0-4.77,2.57-4.77,5.93V98h-2.8Z"/><path class="cls-2" d="M232.63,98.6c-5,0-9-3.73-9-10.4v-.4c0-6.67,3.93-10.4,8.83-10.4s8.83,3.73,8.83,10.37v.77H226.33c.07,4.73,2.63,7.67,6.37,7.67a5.71,5.71,0,0,0,5.4-3.47l2.67.53A8.5,8.5,0,0,1,232.63,98.6Zm5.83-11.94c-.27-4.6-2.9-7-6-7s-5.77,2.43-6,7Z"/><path class="cls-2" d="M246.13,93.13V80.4h-3.37V78h3.47V72h2.6v6h5.73v2.4h-5.63V92.6c0,2.13,1,3,2.7,3h2.93V98H251C248.09,98,246.13,96.53,246.13,93.13Z"/><path class="cls-2" d="M260.73,94.4v5.53c0,2-1.2,3.07-3.47,3.07v-1.6c1.13,0,1.6-.43,1.6-1.57v-2h-1.2V94.4Z"/><path class="cls-2" d="M32.08,128.2v-.4c0-6.57,3.93-10.2,8.64-10.2a8.08,8.08,0,0,1,7.83,5.9L46,124a5.58,5.58,0,0,0-5.23-4c-3.17,0-5.83,2.7-5.83,7.9v.2c0,5.2,2.67,7.9,5.83,7.9A5.58,5.58,0,0,0,46,132l2.6.53a8,8,0,0,1-7.83,5.9C36,138.4,32.08,134.8,32.08,128.2Z"/><path class="cls-2" d="M50.71,128.2v-.4c0-6.67,3.93-10.4,8.83-10.4s8.83,3.73,8.83,10.4v.4c0,6.67-3.93,10.4-8.83,10.4S50.71,134.87,50.71,128.2Zm14.87-.1v-.2c0-5.27-2.67-8.1-6-8.1s-6,2.83-6,8.1v.2c0,5.27,2.67,8.1,6,8.1S65.58,133.37,65.58,128.1Z"/><path class="cls-2" d="M72.3,118h2.6v3.2A6.54,6.54,0,0,1,81,117.6c4.1,0,6.8,2.87,6.8,7.37v13H85V125.6c0-3.5-1.87-5.6-4.67-5.6-3.1,0-5.2,2.57-5.2,5.93V138H72.3Z"/><path class="cls-2" d="M90.84,133.27l2.4-1a5.88,5.88,0,0,0,5.8,3.87c2.73,0,4.7-1.3,4.7-3.57s-1.8-3-4.17-3.47L97,128.63c-3.23-.6-5.67-2.07-5.67-5.17,0-3.27,2.6-5.87,7.13-5.87a8.41,8.41,0,0,1,7.77,4.43l-2.37,1a5.65,5.65,0,0,0-5.3-3.17c-2.63,0-4.47,1.37-4.47,3.47,0,1.93,1.57,2.77,3.6,3.13l2.53.47c3.8.7,6.27,2.23,6.27,5.47,0,3.47-2.8,6-7.4,6A8.52,8.52,0,0,1,90.84,133.27Z"/><path class="cls-2" d="M117.94,138.6c-5,0-9-3.73-9-10.4v-.4c0-6.67,3.93-10.4,8.83-10.4s8.83,3.73,8.83,10.37v.77H111.64c.07,4.73,2.63,7.67,6.37,7.67a5.71,5.71,0,0,0,5.4-3.47l2.67.53A8.5,8.5,0,0,1,117.94,138.6Zm5.83-11.94c-.27-4.6-2.9-7-6-7s-5.77,2.43-6,7Z"/><path class="cls-2" d="M129.37,128.2v-.4c0-6.57,3.93-10.2,8.64-10.2a8.08,8.08,0,0,1,7.83,5.9l-2.6.53a5.58,5.58,0,0,0-5.23-4c-3.17,0-5.83,2.7-5.83,7.9v.2c0,5.2,2.67,7.9,5.83,7.9a5.58,5.58,0,0,0,5.23-4l2.6.53a8,8,0,0,1-7.83,5.9C133.3,138.4,129.37,134.8,129.37,128.2Z"/><path class="cls-2" d="M150.66,133.13V120.4h-3.37V118h3.47v-6h2.6v6h5.73v2.4h-5.63v12.2c0,2.13,1,3,2.7,3h2.93V138h-3.6C152.62,138,150.66,136.53,150.66,133.13Z"/><path class="cls-2" d="M169.69,138.6c-5,0-9-3.73-9-10.4v-.4c0-6.67,3.93-10.4,8.84-10.4s8.83,3.73,8.83,10.37v.77H163.39c.07,4.73,2.63,7.67,6.37,7.67a5.71,5.71,0,0,0,5.4-3.47l2.67.53A8.5,8.5,0,0,1,169.69,138.6Zm5.83-11.94c-.27-4.6-2.9-7-6-7s-5.77,2.43-6,7Z"/><path class="cls-2" d="M183.19,133.13V120.4h-3.37V118h3.47v-6h2.6v6h5.73v2.4H186v12.2c0,2.13,1,3,2.7,3h2.93V138H188C185.16,138,183.19,136.53,183.19,133.13Z"/><path class="cls-2" d="M210,138h-2.6v-3.2a6.54,6.54,0,0,1-6.07,3.6c-4.1,0-6.8-2.87-6.8-7.37V118h2.8v12.4c0,3.5,1.87,5.57,4.67,5.57,3.1,0,5.2-2.53,5.2-5.9V118H210Z"/><path class="cls-2" d="M223,138.6c-5,0-9-3.73-9-10.4v-.4c0-6.67,3.93-10.4,8.83-10.4s8.84,3.73,8.84,10.37v.77H216.67c.07,4.73,2.63,7.67,6.37,7.67a5.71,5.71,0,0,0,5.4-3.47l2.67.53A8.5,8.5,0,0,1,223,138.6Zm5.83-11.94c-.27-4.6-2.9-7-6-7s-5.77,2.43-6,7Z"/><path class="cls-2" d="M235.58,118h2.6v4.8a8,8,0,0,1,7.57-5v2.8c-4.54,0-7.37,3.4-7.37,8.2V138h-2.8Z"/><path class="cls-2" d="M32.58,172.86v-.27c0-3.3,2.43-6.07,7.4-6.07h5.77v-1.6c0-3.2-1.77-5.07-4.8-5.07a5.33,5.33,0,0,0-5.2,3.53l-2.57-.53a7.9,7.9,0,0,1,7.9-5.27c4.67,0,7.37,2.77,7.37,7.17V178h-2.6v-3.2a7.85,7.85,0,0,1-6.8,3.6C35.28,178.4,32.58,176.2,32.58,172.86Zm13.17-2.67v-1.8H40.32c-3.27,0-4.93,1.73-4.93,4s1.8,3.77,4.33,3.77A5.84,5.84,0,0,0,45.75,170.2Z"/><path class="cls-2" d="M52.31,168.4v-.8c0-6.7,3.9-10,8.24-10a6.76,6.76,0,0,1,6.33,3.93V150h2.8v28H67.11v-3.67a6.9,6.9,0,0,1-6.5,4.07C56.17,178.4,52.31,175.1,52.31,168.4ZM67,168.1v-.2c0-5.17-2.6-7.9-5.9-7.9s-6,2.73-6,7.9v.2c0,5.13,2.63,7.9,6,7.9S67,173.23,67,168.1Z"/><path class="cls-2" d="M74.56,151.19h3.07v3.2H74.56Zm.13,6.8h2.8v20H74.7Z"/><path class="cls-2" d="M82.48,158H85v3.67a6.9,6.9,0,0,1,6.5-4.07c4.43,0,8.3,3.3,8.3,10v.8c0,6.7-3.9,10-8.23,10a6.76,6.76,0,0,1-6.33-3.93V186h-2.8ZM97,168.1v-.2c0-5.13-2.63-7.9-6-7.9s-5.9,2.77-5.9,7.9v.2c0,5.17,2.6,7.9,5.9,7.9S97,173.27,97,168.1Z"/><path class="cls-2" d="M103.64,151.19h3.07v3.2h-3.07Zm.13,6.8h2.8v20h-2.8Z"/><path class="cls-2" d="M110,173.27l2.4-1a5.88,5.88,0,0,0,5.8,3.87c2.73,0,4.7-1.3,4.7-3.57s-1.8-3-4.17-3.47l-2.57-.47c-3.23-.6-5.67-2.07-5.67-5.17,0-3.27,2.6-5.87,7.13-5.87a8.41,8.41,0,0,1,7.77,4.43L123,163a5.65,5.65,0,0,0-5.3-3.17c-2.63,0-4.47,1.37-4.47,3.47,0,1.93,1.57,2.77,3.6,3.13l2.53.47c3.8.7,6.27,2.23,6.27,5.47,0,3.47-2.8,6-7.4,6A8.52,8.52,0,0,1,110,173.27Z"/><path class="cls-2" d="M128.08,168.2v-.4c0-6.57,3.93-10.2,8.63-10.2a8.08,8.08,0,0,1,7.83,5.9L142,164a5.58,5.58,0,0,0-5.23-4c-3.17,0-5.83,2.7-5.83,7.9v.2c0,5.2,2.67,7.9,5.83,7.9a5.58,5.58,0,0,0,5.23-4l2.6.53a8,8,0,0,1-7.83,5.9C132,178.4,128.08,174.8,128.08,168.2Z"/><path class="cls-2" d="M147.66,151.19h3.07v3.2h-3.07Zm.13,6.8h2.8v20h-2.8Z"/><path class="cls-2" d="M155.57,158h2.6v3.2a6.54,6.54,0,0,1,6.07-3.6c4.1,0,6.8,2.87,6.8,7.37v13h-2.8V165.6c0-3.5-1.87-5.6-4.67-5.6-3.1,0-5.2,2.57-5.2,5.93V178h-2.8Z"/><path class="cls-2" d="M174.19,180.93a5.23,5.23,0,0,1,3.07-4.77,3.66,3.66,0,0,1-1.8-3.2,3.89,3.89,0,0,1,2.93-3.73,5.91,5.91,0,0,1-2.77-5.07c0-3.8,3.07-6.63,7.13-6.63a8,8,0,0,1,2.73.47h6.07v2.23h-3.33a5.3,5.3,0,0,1,1.67,3.93c0,3.8-3,6.67-7.1,6.67h-2.47c-1.63,0-2.43.83-2.43,2s.8,2,2.4,2h5.8c3.63,0,6.13,2.53,6.13,5.7,0,3.33-2.73,6.07-6.9,6.07h-4.47C176.69,186.6,174.19,184,174.19,180.93ZM185,184.4c2.87,0,4.6-1.63,4.6-3.77s-1.57-3.6-4-3.6h-4.83a3.73,3.73,0,0,0-4,3.63c0,2.07,1.63,3.73,4.5,3.73Zm2.37-20.2a4.64,4.64,0,1,0-4.63,4.53A4.52,4.52,0,0,0,187.39,164.2Z"/><path class="cls-2" d="M211.75,178.6c-5,0-9-3.73-9-10.4v-.4c0-6.67,3.93-10.4,8.83-10.4s8.84,3.73,8.84,10.37v.77H205.45c.07,4.73,2.63,7.67,6.37,7.67a5.71,5.71,0,0,0,5.4-3.47l2.67.53A8.5,8.5,0,0,1,211.75,178.6Zm5.83-11.94c-.27-4.6-2.9-7-6-7s-5.77,2.43-6,7Z"/><path class="cls-2" d="M224.16,173.66V150H227v23.17c0,1.77.7,2.43,2,2.43h1V178h-1.7C225.83,178,224.16,176.73,224.16,173.66Z"/><path class="cls-2" d="M233.06,151.19h3.07v3.2h-3.07Zm.13,6.8H236v20h-2.8Z"/><path class="cls-2" d="M242.52,173.13V160.4h-3.37V158h3.47v-6h2.6v6H251v2.4h-5.63v12.2c0,2.13,1,3,2.7,3H251V178h-3.6C244.49,178,242.52,176.53,242.52,173.13Z"/><path class="cls-2" d="M254.28,174.4h3.07V178h-3.07Z"/><path class="cls-3" d="M31.08,212.4l2.73-1.13a7.94,7.94,0,0,0,7.5,4.53c4,0,6.87-2.1,6.87-5.53,0-3.23-2.6-4.5-5-5l-3.83-.7c-3.87-.7-7.67-2.47-7.67-7.27v-.27c0-4.57,4-7.6,9.23-7.6a10.73,10.73,0,0,1,9.8,5.77L48,196.36a7.89,7.89,0,0,0-7.17-4.3c-3.47,0-6.2,2-6.2,5.2,0,3.07,2.4,4.27,5.33,4.83l3.83.7c3.73.67,7.4,2.5,7.4,7.07v.27c0,5-4.1,8.27-9.87,8.27C36.81,218.4,33,216.43,31.08,212.4Z"/><path class="cls-3" d="M62.78,218.6c-5,0-9-3.73-9-10.4v-.4c0-6.67,3.93-10.4,8.84-10.4s8.83,3.73,8.83,10.37v.77H56.48c.07,4.73,2.63,7.67,6.37,7.67a5.71,5.71,0,0,0,5.4-3.47l2.67.53A8.5,8.5,0,0,1,62.78,218.6Zm5.83-11.94c-.27-4.6-2.9-7-6-7s-5.77,2.43-6,7Z"/><path class="cls-3" d="M74.21,208.4v-.8c0-6.7,3.9-10,8.24-10a6.76,6.76,0,0,1,6.33,3.93V190h2.8v28H89v-3.67a6.9,6.9,0,0,1-6.5,4.07C78.08,218.4,74.21,215.1,74.21,208.4Zm14.67-.3v-.2c0-5.17-2.6-7.9-5.9-7.9s-6,2.73-6,7.9v.2c0,5.13,2.63,7.9,6,7.9S88.88,213.23,88.88,208.1Z"/><path class="cls-3" d="M104,208.4v-.8c0-6.7,3.9-10,8.23-10a6.76,6.76,0,0,1,6.33,3.93V190h2.8v28h-2.57v-3.67a6.9,6.9,0,0,1-6.5,4.07C107.87,218.4,104,215.1,104,208.4Zm14.67-.3v-.2c0-5.17-2.6-7.9-5.9-7.9s-6,2.73-6,7.9v.2c0,5.13,2.63,7.9,6,7.9S118.68,213.23,118.68,208.1Z"/><path class="cls-3" d="M126.26,191.19h3.07v3.2h-3.07Zm.13,6.8h2.8v20h-2.8Z"/><path class="cls-3" d="M133.24,212.86v-.27c0-3.3,2.43-6.07,7.4-6.07h5.77v-1.6c0-3.2-1.77-5.07-4.8-5.07a5.33,5.33,0,0,0-5.2,3.53l-2.57-.53a7.9,7.9,0,0,1,7.9-5.27c4.67,0,7.37,2.77,7.37,7.17V218h-2.6v-3.2a7.85,7.85,0,0,1-6.8,3.6C135.94,218.4,133.24,216.2,133.24,212.86Zm13.17-2.67v-1.8H141c-3.27,0-4.93,1.73-4.93,4s1.8,3.77,4.33,3.77A5.84,5.84,0,0,0,146.41,210.2Z"/><path class="cls-3" d="M154,198h2.6v3.2a6.37,6.37,0,0,1,5.8-3.6,5.64,5.64,0,0,1,5.53,3.93,6.45,6.45,0,0,1,6-3.93c3.87,0,6.57,2.87,6.57,7.37v13h-2.8V205.5c0-3.4-1.7-5.5-4.27-5.5-2.9,0-4.77,2.57-4.77,5.93V218h-2.8V205.5c0-3.4-1.67-5.5-4.27-5.5-2.87,0-4.77,2.57-4.77,5.93V218H154Z"/><path class="cls-3" d="M193.81,198h2.6v3.2a6.53,6.53,0,0,1,6.07-3.6c4.1,0,6.8,2.87,6.8,7.37v13h-2.8V205.6c0-3.5-1.87-5.6-4.67-5.6-3.1,0-5.2,2.57-5.2,5.93V218h-2.8Z"/><path class="cls-3" d="M212.88,208.2v-.4c0-6.67,3.93-10.4,8.83-10.4s8.83,3.73,8.83,10.4v.4c0,6.67-3.93,10.4-8.83,10.4S212.88,214.87,212.88,208.2Zm14.87-.1v-.2c0-5.27-2.67-8.1-6-8.1s-6,2.83-6,8.1v.2c0,5.27,2.67,8.1,6,8.1S227.75,213.37,227.75,208.1Z"/><path class="cls-3" d="M234.47,198h2.6v3.2a6.54,6.54,0,0,1,6.07-3.6c4.1,0,6.8,2.87,6.8,7.37v13h-2.8V205.6c0-3.5-1.87-5.6-4.67-5.6-3.1,0-5.2,2.57-5.2,5.93V218h-2.8Z"/><path class="cls-3" d="M269.83,218h-2.6v-3.2a6.53,6.53,0,0,1-6.07,3.6c-4.1,0-6.8-2.87-6.8-7.37V198h2.8v12.4c0,3.5,1.87,5.57,4.67,5.57,3.1,0,5.2-2.53,5.2-5.9V198h2.8Z"/><path class="cls-3" d="M33.38,238H36v3.2a6.37,6.37,0,0,1,5.8-3.6,5.65,5.65,0,0,1,5.54,3.93,6.45,6.45,0,0,1,6-3.93c3.87,0,6.57,2.87,6.57,7.37v13h-2.8V245.5c0-3.4-1.7-5.5-4.27-5.5-2.9,0-4.77,2.57-4.77,5.93V258h-2.8V245.5c0-3.4-1.67-5.5-4.27-5.5-2.87,0-4.77,2.57-4.77,5.93V258h-2.8Z"/><path class="cls-3" d="M64.6,238h2.6v3.2a6.37,6.37,0,0,1,5.8-3.6,5.65,5.65,0,0,1,5.54,3.93,6.45,6.45,0,0,1,6-3.93c3.87,0,6.57,2.87,6.57,7.37v13h-2.8V245.5c0-3.4-1.7-5.5-4.27-5.5-2.9,0-4.77,2.57-4.77,5.93V258h-2.8V245.5c0-3.4-1.67-5.5-4.27-5.5-2.87,0-4.77,2.57-4.77,5.93V258H64.6Z"/><path class="cls-3" d="M95.31,263.57h1.5c1.87,0,2.77-.87,3.6-3.13l1.23-3.3L93.31,238h3.1l4.83,11.54c.57,1.4,1.2,2.8,1.83,4.53.5-1.77.93-3.23,1.43-4.63l3.9-11.44h2.9l-8.47,23.44c-1.1,3-2.9,4.57-5.77,4.57H95.31Z"/><path class="cls-3" d="M123.57,238h2.6v3.2a6.54,6.54,0,0,1,6.07-3.6c4.1,0,6.8,2.87,6.8,7.37v13h-2.8V245.6c0-3.5-1.87-5.6-4.67-5.6-3.1,0-5.2,2.57-5.2,5.93V258h-2.8Z"/><path class="cls-3" d="M143.65,231.19h3.07v3.2h-3.07Zm.13,6.8h2.8v20h-2.8Z"/><path class="cls-3" d="M154.14,254.33V258h-2.57V230h2.8v11.54a6.76,6.76,0,0,1,6.33-3.93c4.33,0,8.24,3.3,8.24,10v.8c0,6.7-3.87,10-8.3,10A6.9,6.9,0,0,1,154.14,254.33Zm12-6.23v-.2c0-5.17-2.63-7.9-6-7.9s-5.9,2.73-5.9,7.9v.2c0,5.13,2.6,7.9,5.9,7.9S166.14,253.23,166.14,248.1Z"/><path class="cls-3" d="M188.33,245v13h-2.8V245.6c0-3.5-1.87-5.57-4.67-5.57-3.1,0-5.2,2.53-5.2,5.9V258h-2.8V230h2.8v10.87a6.52,6.52,0,0,1,5.87-3.27C185.63,237.6,188.33,240.46,188.33,245Z"/><path class="cls-3" d="M209.39,258.6c-5,0-9-3.73-9-10.4v-.4c0-6.67,3.93-10.4,8.84-10.4s8.83,3.73,8.83,10.37v.77H203.09c.07,4.73,2.63,7.67,6.37,7.67a5.71,5.71,0,0,0,5.4-3.47l2.67.53A8.5,8.5,0,0,1,209.39,258.6Zm5.83-11.94c-.27-4.6-2.9-7-6-7s-5.77,2.43-6,7Z"/><path class="cls-3" d="M237,258h-2.6v-3.2a6.54,6.54,0,0,1-6.07,3.6c-4.1,0-6.8-2.87-6.8-7.37V238h2.8v12.4c0,3.5,1.87,5.57,4.67,5.57,3.1,0,5.2-2.53,5.2-5.9V238H237Z"/><path class="cls-3" d="M241.84,231.19h3.07v3.2h-3.07ZM242,238h2.8v20H242Z"/><path class="cls-3" d="M248.21,253.27l2.4-1a5.88,5.88,0,0,0,5.8,3.87c2.73,0,4.7-1.3,4.7-3.57s-1.8-3-4.17-3.47l-2.57-.47c-3.23-.6-5.67-2.07-5.67-5.17,0-3.27,2.6-5.87,7.13-5.87a8.41,8.41,0,0,1,7.77,4.43l-2.37,1a5.65,5.65,0,0,0-5.3-3.17c-2.63,0-4.47,1.37-4.47,3.47,0,1.93,1.57,2.77,3.6,3.13l2.53.47c3.8.7,6.27,2.23,6.27,5.47,0,3.47-2.8,6-7.4,6A8.52,8.52,0,0,1,248.21,253.27Z"/><path class="cls-3" d="M33.38,278H36v3.2a6.37,6.37,0,0,1,5.8-3.6,5.65,5.65,0,0,1,5.54,3.93,6.45,6.45,0,0,1,6-3.93c3.87,0,6.57,2.87,6.57,7.37v13h-2.8V285.5c0-3.4-1.7-5.5-4.27-5.5-2.9,0-4.77,2.57-4.77,5.93V298h-2.8V285.5c0-3.4-1.67-5.5-4.27-5.5-2.87,0-4.77,2.57-4.77,5.93V298h-2.8Z"/><path class="cls-3" d="M63.5,288.2v-.4c0-6.67,3.93-10.4,8.84-10.4s8.83,3.73,8.83,10.4v.4c0,6.67-3.93,10.4-8.83,10.4S63.5,294.87,63.5,288.2Zm14.87-.1v-.2c0-5.27-2.67-8.1-6-8.1s-6,2.83-6,8.1v.2c0,5.27,2.67,8.1,6,8.1S78.37,293.37,78.37,288.1Z"/><path class="cls-3" d="M84,288.4v-.8c0-6.7,3.9-10,8.24-10a6.76,6.76,0,0,1,6.33,3.93V270h2.8v28H98.85v-3.67a6.9,6.9,0,0,1-6.5,4.07C87.91,298.4,84,295.1,84,288.4Zm14.67-.3v-.2c0-5.17-2.6-7.9-5.9-7.9s-6,2.73-6,7.9v.2c0,5.13,2.63,7.9,6,7.9S98.71,293.23,98.71,288.1Z"/><path class="cls-3" d="M116.64,293.13V280.4h-3.37V278h3.47v-6h2.6v6h5.73v2.4h-5.63v12.2c0,2.13,1,3,2.7,3h2.93V298h-3.6C118.61,298,116.64,296.53,116.64,293.13Z"/><path class="cls-3" d="M128.13,271.19h3.07v3.2h-3.07Zm.13,6.8h2.8v20h-2.8Z"/><path class="cls-3" d="M136,278h2.6v3.2a6.54,6.54,0,0,1,6.07-3.6c4.1,0,6.8,2.87,6.8,7.37v13h-2.8V285.6c0-3.5-1.87-5.6-4.67-5.6-3.1,0-5.2,2.57-5.2,5.93V298H136Z"/><path class="cls-3" d="M155.11,288.2v-.4c0-6.57,3.93-10.2,8.63-10.2a8.08,8.08,0,0,1,7.84,5.9L169,284a5.58,5.58,0,0,0-5.23-4c-3.17,0-5.83,2.7-5.83,7.9v.2c0,5.2,2.67,7.9,5.83,7.9a5.58,5.58,0,0,0,5.23-4l2.6.53a8,8,0,0,1-7.84,5.9C159,298.4,155.11,294.8,155.11,288.2Z"/><path class="cls-3" d="M174.69,271.19h3.07v3.2h-3.07Zm.13,6.8h2.8v20h-2.8Z"/><path class="cls-3" d="M181.51,288.4v-.8c0-6.7,3.9-10,8.24-10a6.76,6.76,0,0,1,6.33,3.93V270h2.8v28h-2.57v-3.67a6.9,6.9,0,0,1-6.5,4.07C185.38,298.4,181.51,295.1,181.51,288.4Zm14.67-.3v-.2c0-5.17-2.6-7.9-5.9-7.9s-6,2.73-6,7.9v.2c0,5.13,2.63,7.9,6,7.9S196.18,293.23,196.18,288.1Z"/><path class="cls-3" d="M219.06,298h-2.6v-3.2a6.54,6.54,0,0,1-6.07,3.6c-4.1,0-6.8-2.87-6.8-7.37V278h2.8v12.4c0,3.5,1.87,5.57,4.67,5.57,3.1,0,5.2-2.53,5.2-5.9V278h2.8Z"/><path class="cls-3" d="M224,278h2.6v3.2a6.54,6.54,0,0,1,6.07-3.6c4.1,0,6.8,2.87,6.8,7.37v13h-2.8V285.6c0-3.5-1.87-5.6-4.67-5.6-3.1,0-5.2,2.57-5.2,5.93V298H224Z"/><path class="cls-3" d="M245.29,293.13V280.4h-3.37V278h3.47v-6H248v6h5.73v2.4h-5.63v12.2c0,2.13,1,3,2.7,3h2.93V298h-3.6C247.26,298,245.29,296.53,245.29,293.13Z"/><path class="cls-3" d="M257,294.4h3.07V298H257Z"/><rect class="cls-4" x="-73.14" y="179.5" width="506.29" height="1" transform="translate(-74.56 180) rotate(-45)"/><rect class="cls-4" x="179.5" y="-73.14" width="1" height="506.29" transform="translate(-74.56 180) rotate(-45)"/></g></g></svg>