<svg xmlns="http://www.w3.org/2000/svg" viewBox="0 0 360 360"><defs><style>.cls-1{fill:#ededed;}.cls-2{fill:#60cc18;}.cls-3{fill:#ffc400;}.cls-4{fill:#673ab5;}.cls-5{fill:#d71a1a;}.cls-6{fill:#0091e0;}.cls-7{fill:#379c00;}.cls-8{fill:#3f2586;}.cls-9{fill:#41afed;}.cls-10{fill:#ef3529;}</style></defs><title>c-dont-2</title><g id="Lager_2" data-name="Lager 2"><g id="Lager_1-2" data-name="Lager 1"><rect class="cls-1" width="360" height="360"/><rect class="cls-2" x="0.51" y="120.79" width="119.33" height="119.33" transform="translate(-120.27 240.63) rotate(-90)"/><rect class="cls-3" y="1.45" width="119.33" height="119.33" transform="translate(-1.45 120.79) rotate(-90)"/><rect class="cls-4" x="119.85" y="120.79" width="119.33" height="119.33" transform="translate(-0.94 359.97) rotate(-90)"/><rect class="cls-5" x="179.51" y="180.45" width="119.33" height="238.67" transform="translate(-60.61 538.97) rotate(-90)"/><rect class="cls-6" x="0.51" y="240.12" width="119.33" height="119.33" transform="translate(-239.61 359.97) rotate(-90)"/><rect class="cls-7" x="239.18" y="120.79" width="119.33" height="119.33" transform="translate(118.39 479.3) rotate(-90)"/><rect class="cls-8" x="239.18" y="1.45" width="119.33" height="119.33" transform="translate(237.73 359.97) rotate(-90)"/><rect class="cls-9" x="119.85" y="1.45" width="119.33" height="119.33" transform="translate(118.39 240.63) rotate(-90)"/><rect class="cls-10" x="-73.63" y="179.95" width="506.29" height="1" transform="translate(-75.02 179.79) rotate(-45)"/><rect class="cls-10" x="179.01" y="-72.69" width="1" height="506.29" transform="translate(-75.02 179.79) rotate(-45)"/></g></g></svg>