<svg xmlns="http://www.w3.org/2000/svg" viewBox="0 0 422.87 422.87"><defs><style>.cls-1{fill:#60cd18;}.cls-2{fill:#fff;}</style></defs><title>color-bg</title><g id="Lager_2" data-name="Lager 2"><g id="Lager_1-2" data-name="Lager 1"><rect class="cls-1" width="422.87" height="422.87"/><path class="cls-2" d="M43.33,113.09H33l-1.83,6H25.8l9.1-28h6.93l9.1,28H45.17Zm-1.47-4.77-2.37-7.7c-.43-1.43-.87-3-1.3-5-.43,2-.9,3.6-1.33,5l-2.37,7.7Z"/><path class="cls-2" d="M52.9,113.89V91.12H58V113c0,1.2.5,1.73,1.4,1.73h1.1v4.4H58.1C54.9,119.12,52.9,117.32,52.9,113.89Z"/><path class="cls-2" d="M61.1,99.12h5.67l2.33,8.67c.27,1.1.53,2.07,1,4.2.6-2.13.87-3.07,1.2-4.17l2.47-8.7h4.77l2.57,8.7c.33,1.1.67,2.17,1.23,4.17.5-2,.77-3.07,1.1-4.17l2.47-8.7h5.3l-6.6,20H79.83l-3-10.5c-.2-.7-.47-1.73-.7-3-.3,1.23-.57,2.27-.77,3l-2.93,10.5H67.7Z"/><path class="cls-2" d="M92.38,113.69v-.27c0-3.27,2.3-6.37,7.74-6.37h5v-.6c0-2.4-1.3-3.7-3.53-3.7a3.77,3.77,0,0,0-3.83,2.57L93,104.45c1.6-4.3,5.17-5.73,8.83-5.73,5.23,0,8.24,2.9,8.24,7.53v12.87h-4.77v-2.2a8.39,8.39,0,0,1-6.23,2.6C94.91,119.52,92.38,117,92.38,113.69Zm12.7-2.77v-.57h-4.33c-2.23,0-3.23,1-3.23,2.53s1.17,2.6,3,2.6A4.31,4.31,0,0,0,105.08,110.92Z"/><path class="cls-2" d="M114.68,122.72h1.87a2.77,2.77,0,0,0,2.9-2.3l.37-1.07-8.13-20.24h5.7l3.77,10.57c.4,1.1.77,2.27,1.23,4.07.33-1.83.63-3.07.93-4.13l3.07-10.5h5.3l-7.77,23.1a6.61,6.61,0,0,1-6.8,4.9h-2.43Z"/><path class="cls-2" d="M132.55,114.22l4.4-1.73a4.62,4.62,0,0,0,4.53,3c2.07,0,3.2-.9,3.2-2.23s-1.1-1.83-2.53-2.1l-3-.53c-4.43-.83-6.2-2.83-6.2-5.5,0-3.3,2.57-6.4,7.93-6.4a9.42,9.42,0,0,1,8.57,4.6l-4.37,1.77a4.23,4.23,0,0,0-4-2.33c-2,0-3,.9-3,2.1,0,1,.87,1.6,2.4,1.9l3,.53c4.43.87,6.37,2.73,6.37,5.67,0,3.5-2.7,6.57-8.1,6.57A9.7,9.7,0,0,1,132.55,114.22Z"/><path class="cls-2" d="M164.22,117.12v2h-4.77v-28h5.13v10A7,7,0,0,1,170,98.72c4.33,0,8.5,3.2,8.5,9.67v1.47c0,6.47-4.13,9.67-8.64,9.67A7.13,7.13,0,0,1,164.22,117.12Zm9.17-7.9V109c0-3.9-1.93-5.9-4.5-5.9s-4.47,2-4.47,5.9v.2c0,3.83,1.93,5.9,4.47,5.9S173.39,113.06,173.39,109.22Z"/><path class="cls-2" d="M181.73,113.89V91.12h5.13V113c0,1.2.5,1.73,1.4,1.73h1.1v4.4h-2.43C183.73,119.12,181.73,117.32,181.73,113.89Z"/><path class="cls-2" d="M191.6,113.69v-.27c0-3.27,2.3-6.37,7.74-6.37h5v-.6c0-2.4-1.3-3.7-3.53-3.7a3.77,3.77,0,0,0-3.83,2.57l-4.73-.87c1.6-4.3,5.17-5.73,8.83-5.73,5.23,0,8.24,2.9,8.24,7.53v12.87H204.5v-2.2a8.39,8.39,0,0,1-6.23,2.6C194.13,119.52,191.6,117,191.6,113.69Zm12.7-2.77v-.57H200c-2.23,0-3.23,1-3.23,2.53s1.17,2.6,3,2.6A4.31,4.31,0,0,0,204.3,110.92Z"/><path class="cls-2" d="M212.47,109.29V109c0-6.53,4.33-10.24,9.44-10.24a8.7,8.7,0,0,1,8.64,6.67l-4.77.87a4.15,4.15,0,0,0-3.87-3.13c-2.3,0-4.3,2.07-4.3,5.9v.2c0,3.9,2,5.9,4.3,5.9a4.15,4.15,0,0,0,3.87-3.13l4.77.87a8.7,8.7,0,0,1-8.64,6.67C216.81,119.52,212.47,115.86,212.47,109.29Z"/><path class="cls-2" d="M233.27,91.12h5.13v10.67a22.5,22.5,0,0,1-.5,5.37l7-8h6.24l-7.54,8.27,7.63,11.74h-6l-5.2-8.34-1.77,1.93v6.4h-5Z"/><path class="cls-2" d="M259.27,109.29V109c0-6.63,4.33-10.44,9.64-10.44s9.64,3.8,9.64,10.44v.33c0,6.63-4.33,10.44-9.64,10.44S259.27,115.92,259.27,109.29Zm14.14-.07V109c0-4-2-6.1-4.5-6.1s-4.5,2.13-4.5,6.1v.2c0,4,2,6.1,4.5,6.1S273.4,113.19,273.4,109.22Z"/><path class="cls-2" d="M282,99.12h4.77v3.27c1.4-2.27,4-3.47,7.1-3.47v5.13c-4.27,0-6.73,2.6-6.73,6.87v8.2H282Z"/><path class="cls-2" d="M25.86,139.12h5.67l2.33,8.67c.27,1.1.53,2.07,1,4.2.6-2.13.87-3.07,1.2-4.17l2.47-8.7H43.3l2.57,8.7c.33,1.1.67,2.17,1.23,4.17.5-2,.77-3.07,1.1-4.17l2.47-8.7H56l-6.6,20H44.6l-3-10.5c-.2-.7-.47-1.73-.7-3-.3,1.23-.57,2.27-.77,3l-2.93,10.5H32.47Z"/><path class="cls-2" d="M75.88,146.09v13H70.75v-11.8c0-2.7-1.23-4.2-3.33-4.2-2.27,0-3.67,1.87-3.67,4.53v11.47H58.61v-28h5.13v9.67a6.73,6.73,0,0,1,5.07-2.07C73.15,138.72,75.88,141.65,75.88,146.09Z"/><path class="cls-2" d="M80,131.12h5.13v5.4H80Zm0,8h5.13v20H80Z"/><path class="cls-2" d="M90.54,153.16v-9.64H87.81v-4.4h2.9v-6h4.77v6h5.13v4.4H95.68v8.7c0,1.77.9,2.5,2.37,2.5h2.57v4.4H96.68C92.91,159.12,90.54,157.12,90.54,153.16Z"/><path class="cls-2" d="M112,159.72c-5.33,0-9.84-3.8-9.84-10.44V149c0-6.63,4.33-10.44,9.64-10.44s9.64,3.8,9.64,10.57v1.3H107.21a4.87,4.87,0,0,0,5,4.93,4.33,4.33,0,0,0,4-2.27l4.83.87A9.41,9.41,0,0,1,112,159.72Zm4.3-12.67c-.3-3-2.3-4.5-4.5-4.5s-4.17,1.53-4.43,4.5Z"/><path class="cls-2" d="M130.41,149.29V149c0-6.63,4.33-10.44,9.64-10.44s9.64,3.8,9.64,10.44v.33c0,6.63-4.33,10.44-9.64,10.44S130.41,155.92,130.41,149.29Zm14.14-.07V149c0-4-2-6.1-4.5-6.1s-4.5,2.13-4.5,6.1v.2c0,4,2,6.1,4.5,6.1S144.55,153.19,144.55,149.22Z"/><path class="cls-2" d="M153,139.12h4.77v2.2a6.41,6.41,0,0,1,5.43-2.6c4.33,0,7.07,2.93,7.07,7.37v13h-5.13v-11.8c0-2.7-1.23-4.2-3.33-4.2-2.27,0-3.67,1.87-3.67,4.53v11.47H153Z"/><path class="cls-2" d="M180,149.29V149c0-6.53,4.33-10.24,9.44-10.24a8.7,8.7,0,0,1,8.64,6.67l-4.77.87a4.15,4.15,0,0,0-3.87-3.13c-2.3,0-4.3,2.07-4.3,5.9v.2c0,3.9,2,5.9,4.3,5.9A4.15,4.15,0,0,0,193.3,152l4.77.87a8.7,8.7,0,0,1-8.64,6.67C184.33,159.52,180,155.86,180,149.29Z"/><path class="cls-2" d="M199.74,149.29V149c0-6.63,4.33-10.44,9.64-10.44S219,142.32,219,149v.33c0,6.63-4.33,10.44-9.64,10.44S199.74,155.92,199.74,149.29Zm14.14-.07V149c0-4-2-6.1-4.5-6.1s-4.5,2.13-4.5,6.1v.2c0,4,2,6.1,4.5,6.1S213.88,153.19,213.88,149.22Z"/><path class="cls-2" d="M222.13,153.89V131.12h5.13V153c0,1.2.5,1.73,1.4,1.73h1.1v4.4h-2.43C224.13,159.12,222.13,157.32,222.13,153.89Z"/><path class="cls-2" d="M231.36,149.29V149c0-6.63,4.33-10.44,9.64-10.44s9.64,3.8,9.64,10.44v.33c0,6.63-4.33,10.44-9.64,10.44S231.36,155.92,231.36,149.29Zm14.14-.07V149c0-4-2-6.1-4.5-6.1s-4.5,2.13-4.5,6.1v.2c0,4,2,6.1,4.5,6.1S245.5,153.19,245.5,149.22Z"/><path class="cls-2" d="M271,159.12h-4.77v-2.2a6.41,6.41,0,0,1-5.43,2.6c-4.33,0-7.07-2.93-7.07-7.37v-13h5.13v11.8c0,2.67,1.23,4.2,3.33,4.2,2.27,0,3.67-1.87,3.67-4.53V139.12H271Z"/><path class="cls-2" d="M275.51,139.12h4.77v3.27c1.4-2.27,4-3.47,7.1-3.47v5.13c-4.27,0-6.73,2.6-6.73,6.87v8.2h-5.13Z"/><path class="cls-2" d="M299,159.72c-5.33,0-9.84-3.8-9.84-10.44V149c0-6.63,4.33-10.44,9.64-10.44s9.64,3.8,9.64,10.57v1.3H294.13a4.87,4.87,0,0,0,5,4.93,4.33,4.33,0,0,0,4-2.27l4.83.87A9.41,9.41,0,0,1,299,159.72Zm4.3-12.67c-.3-3-2.3-4.5-4.5-4.5s-4.17,1.53-4.43,4.5Z"/><path class="cls-2" d="M310.71,149.85v-1.47c0-6.47,4.17-9.67,8.5-9.67a7,7,0,0,1,5.43,2.37v-10h5.13v28H325v-2a7.14,7.14,0,0,1-5.67,2.4C314.85,159.52,310.71,156.32,310.71,149.85Zm14.1-.63V149c0-3.9-1.93-5.9-4.47-5.9s-4.5,2-4.5,5.9v.2c0,3.83,1.93,5.9,4.5,5.9S324.81,153.06,324.81,149.22Z"/><path class="cls-2" d="M32.2,197.12v2H27.43v-28h5.13v10A7,7,0,0,1,38,178.72c4.33,0,8.5,3.2,8.5,9.67v1.47c0,6.47-4.13,9.67-8.64,9.67A7.13,7.13,0,0,1,32.2,197.12Zm9.17-7.9V189c0-3.9-1.93-5.9-4.5-5.9s-4.47,2-4.47,5.9v.2c0,3.83,1.93,5.9,4.47,5.9S41.37,193.06,41.37,189.22Z"/><path class="cls-2" d="M48.84,193.69v-.27c0-3.27,2.3-6.37,7.74-6.37h5v-.6c0-2.4-1.3-3.7-3.53-3.7a3.77,3.77,0,0,0-3.83,2.57l-4.73-.87c1.6-4.3,5.17-5.73,8.83-5.73,5.23,0,8.24,2.9,8.24,7.53v12.87H61.74v-2.2a8.39,8.39,0,0,1-6.23,2.6C51.37,199.52,48.84,197,48.84,193.69Zm12.7-2.77v-.57H57.21c-2.23,0-3.23,1-3.23,2.53s1.17,2.6,3,2.6A4.31,4.31,0,0,0,61.54,190.92Z"/><path class="cls-2" d="M69.71,189.29V189c0-6.53,4.33-10.24,9.44-10.24a8.7,8.7,0,0,1,8.64,6.67l-4.77.87a4.15,4.15,0,0,0-3.87-3.13c-2.3,0-4.3,2.07-4.3,5.9v.2c0,3.9,2,5.9,4.3,5.9A4.15,4.15,0,0,0,83,192l4.77.87a8.7,8.7,0,0,1-8.64,6.67C74,199.52,69.71,195.86,69.71,189.29Z"/><path class="cls-2" d="M90.5,171.12h5.13v10.67a22.5,22.5,0,0,1-.5,5.37l7-8h6.24l-7.54,8.27,7.63,11.74h-6l-5.2-8.34-1.77,1.93v6.4h-5Z"/><path class="cls-2" d="M129.93,201.42a6.3,6.3,0,0,1-6.5,6.3h-6.67a6.33,6.33,0,0,1-6.54-6.3,6.54,6.54,0,0,1,1.63-4.43,5.33,5.33,0,0,1-1.07-3.27,5,5,0,0,1,2.47-4.4,6.25,6.25,0,0,1-1.27-3.77c0-4,3.3-6.9,7.67-6.9a9,9,0,0,1,2.9.47h6.9v4.4H127a6.82,6.82,0,0,1,.3,2c0,3.9-3.27,6.87-7.67,6.87h-3c-1,0-1.5.5-1.5,1.33s.47,1.33,1.5,1.33h6.74A6.31,6.31,0,0,1,129.93,201.42Zm-4.77,0a2.26,2.26,0,0,0-2.43-2.3h-5.27a2.29,2.29,0,1,0,0,4.57h5.27A2.25,2.25,0,0,0,125.16,201.42Zm-8.6-15.87a3.1,3.1,0,0,0,6.2,0,3.1,3.1,0,0,0-6.2,0Z"/><path class="cls-2" d="M132.51,179.12h4.77v3.27c1.4-2.27,4-3.47,7.1-3.47v5.13c-4.27,0-6.73,2.6-6.73,6.87v8.2h-5.13Z"/><path class="cls-2" d="M146.13,189.29V189c0-6.63,4.33-10.44,9.64-10.44s9.64,3.8,9.64,10.44v.33c0,6.63-4.33,10.44-9.64,10.44S146.13,195.92,146.13,189.29Zm14.14-.07V189c0-4-2-6.1-4.5-6.1s-4.5,2.13-4.5,6.1v.2c0,4,2,6.1,4.5,6.1S160.26,193.19,160.26,189.22Z"/><path class="cls-2" d="M185.73,199.12H181v-2.2a6.41,6.41,0,0,1-5.43,2.6c-4.33,0-7.07-2.93-7.07-7.37v-13h5.13v11.8c0,2.67,1.23,4.2,3.33,4.2,2.27,0,3.67-1.87,3.67-4.53V179.12h5.13Z"/><path class="cls-2" d="M190.08,179.12h4.77v2.2a6.41,6.41,0,0,1,5.43-2.6c4.33,0,7.07,2.93,7.07,7.37v13h-5.13v-11.8c0-2.7-1.23-4.2-3.33-4.2-2.27,0-3.67,1.87-3.67,4.53v11.47h-5.13Z"/><path class="cls-2" d="M210.5,189.85v-1.47c0-6.47,4.17-9.67,8.5-9.67a7,7,0,0,1,5.43,2.37v-10h5.13v28H224.8v-2a7.14,7.14,0,0,1-5.67,2.4C214.63,199.52,210.5,196.32,210.5,189.85Zm14.1-.63V189c0-3.9-1.93-5.9-4.47-5.9s-4.5,2-4.5,5.9v.2c0,3.83,1.93,5.9,4.5,5.9S224.6,193.06,224.6,189.22Z"/><path class="cls-2" d="M232.45,194.22l4.4-1.73a4.62,4.62,0,0,0,4.53,3c2.07,0,3.2-.9,3.2-2.23s-1.1-1.83-2.53-2.1l-3-.53c-4.43-.83-6.2-2.83-6.2-5.5,0-3.3,2.57-6.4,7.93-6.4a9.42,9.42,0,0,1,8.57,4.6L245,185.09a4.23,4.23,0,0,0-4-2.33c-2,0-3,.9-3,2.1,0,1,.87,1.6,2.4,1.9l3,.53c4.43.87,6.37,2.73,6.37,5.67,0,3.5-2.7,6.57-8.1,6.57A9.7,9.7,0,0,1,232.45,194.22Z"/><path class="cls-2" d="M252.84,193.32H258v5.8h-5.13Z"/></g></g></svg>