<svg xmlns="http://www.w3.org/2000/svg" viewBox="0 0 1490 447"><defs><style>.cls-1{fill:#41b0ee;}.cls-2{fill:#f03529;}.cls-3{fill:#673ab6;}.cls-4{fill:#ffc500;}.cls-5{fill:#60cd18;}.cls-6{fill:#45b400;}.cls-7{fill:#ffb400;}.cls-8{fill:#4f2c99;}.cls-9{fill:#d81a1a;}.cls-10{fill:#0092e1;}.cls-11{fill:#379d00;}.cls-12{fill:#f8a000;}.cls-13{fill:#3f2587;}.cls-14{fill:#bb000c;}.cls-15{fill:#007ac7;}</style></defs><title>color-overview-2</title><g id="Lager_2" data-name="Lager 2"><g id="Lager_1-2" data-name="Lager 1"><rect class="cls-1" x="1192" width="298" height="298"/><rect class="cls-2" x="894" width="298" height="298"/><rect class="cls-3" x="596" width="298" height="298"/><rect class="cls-4" x="298" width="298" height="298"/><rect class="cls-5" width="298" height="298"/><rect class="cls-6" y="298" width="149" height="149" transform="translate(-298 447) rotate(-90)"/><rect class="cls-7" x="298" y="298" width="149" height="149" transform="translate(0 745) rotate(-90)"/><rect class="cls-8" x="596" y="298" width="149" height="149" transform="translate(298 1043) rotate(-90)"/><rect class="cls-9" x="894" y="298" width="149" height="149" transform="translate(596 1341) rotate(-90)"/><rect class="cls-10" x="1192" y="298" width="149" height="149" transform="translate(894 1639) rotate(-90)"/><rect class="cls-11" x="149" y="298" width="149" height="149" transform="translate(-149 596) rotate(-90)"/><rect class="cls-12" x="447" y="298" width="149" height="149" transform="translate(149 894) rotate(-90)"/><rect class="cls-13" x="745" y="298" width="149" height="149" transform="translate(447 1192) rotate(-90)"/><rect class="cls-14" x="1043" y="298" width="149" height="149" transform="translate(745 1490) rotate(-90)"/><rect class="cls-15" x="1341" y="298" width="149" height="149" transform="translate(1043 1788) rotate(-90)"/></g></g></svg>