<?xml version="1.0" encoding="utf-8"?>
<!-- Generator: Adobe Illustrator 21.0.2, SVG Export Plug-In . SVG Version: 6.00 Build 0)  -->
<svg version="1.1" id="Lager_1" xmlns="http://www.w3.org/2000/svg" xmlns:xlink="http://www.w3.org/1999/xlink" x="0px" y="0px"
	 viewBox="0 0 2980 2384" style="enable-background:new 0 0 2980 2384;" xml:space="preserve">
<style type="text/css">
	.st0{fill:#60CD18;}
	.st1{fill:#FFC500;}
	.st2{fill:#673AB6;}
	.st3{fill:#F03529;}
	.st4{fill:#41B0EE;}
	.st5{fill:#45B400;}
	.st6{fill:#FFB400;}
	.st7{fill:#4F2C99;}
	.st8{fill:#D81A1A;}
	.st9{fill:#0092E1;}
	.st10{fill:#379D00;}
	.st11{fill:#F8A000;}
	.st12{fill:#3F2587;}
	.st13{fill:#BB000C;}
	.st14{fill:#007AC7;}
	.st15{opacity:0.95;}
	.st16{opacity:0.9;}
	.st17{opacity:0.85;}
	.st18{opacity:0.8;}
	.st19{opacity:0.75;}
	.st20{opacity:0.7;}
	.st21{opacity:0.65;}
	.st22{opacity:0.6;}
	.st23{opacity:0.55;}
	.st24{opacity:0.5;}
	.st25{opacity:0.45;}
	.st26{opacity:0.4;}
	.st27{opacity:0.35;}
	.st28{opacity:0.3;}
	.st29{opacity:0.25;}
	.st30{opacity:0.2;}
	.st31{opacity:0.15;}
	.st32{opacity:0.1;}
	.st33{opacity:5.000000e-02;}
</style>
<title>graph-tints-1</title>
<g id="Lager_2">
	<g id="Lager_2-2">
		<rect y="149" class="st0" width="149" height="149"/>
		<rect y="596" class="st1" width="149" height="149"/>
		<rect y="1043" class="st2" width="149" height="149"/>
		<rect y="1490" class="st3" width="149" height="149"/>
		<rect y="1937" class="st4" width="149" height="149"/>
		<rect y="298" class="st5" width="149" height="149"/>
		<rect y="745" class="st6" width="149" height="149"/>
		<rect y="1192" class="st7" width="149" height="149"/>
		<rect y="1639" class="st8" width="149" height="149"/>
		<rect y="2086" class="st9" width="149" height="149"/>
		<rect y="447" class="st10" width="149" height="149"/>
		<rect y="894" class="st11" width="149" height="149"/>
		<rect y="1341" class="st12" width="149" height="149"/>
		<rect y="1788" class="st13" width="149" height="149"/>
		<rect y="2235" class="st14" width="149" height="149"/>
		<g class="st15">
			<rect x="149" y="149" class="st0" width="149" height="149"/>
			<rect x="149" y="596" class="st1" width="149" height="149"/>
			<rect x="149" y="1043" class="st2" width="149" height="149"/>
			<rect x="149" y="1490" class="st3" width="149" height="149"/>
			<rect x="149" y="1937" class="st4" width="149" height="149"/>
			<rect x="149" y="298" class="st5" width="149" height="149"/>
			<rect x="149" y="745" class="st6" width="149" height="149"/>
			<rect x="149" y="1192" class="st7" width="149" height="149"/>
			<rect x="149" y="1639" class="st8" width="149" height="149"/>
			<rect x="149" y="2086" class="st9" width="149" height="149"/>
			<rect x="149" y="447" class="st10" width="149" height="149"/>
			<rect x="149" y="894" class="st11" width="149" height="149"/>
			<rect x="149" y="1341" class="st12" width="149" height="149"/>
			<rect x="149" y="1788" class="st13" width="149" height="149"/>
			<rect x="149" y="2235" class="st14" width="149" height="149"/>
		</g>
		<g class="st16">
			<rect x="298" y="149" class="st0" width="149" height="149"/>
			<rect x="298" y="596" class="st1" width="149" height="149"/>
			<rect x="298" y="1043" class="st2" width="149" height="149"/>
			<rect x="298" y="1490" class="st3" width="149" height="149"/>
			<rect x="298" y="1937" class="st4" width="149" height="149"/>
			<rect x="298" y="298" class="st5" width="149" height="149"/>
			<rect x="298" y="745" class="st6" width="149" height="149"/>
			<rect x="298" y="1192" class="st7" width="149" height="149"/>
			<rect x="298" y="1639" class="st8" width="149" height="149"/>
			<rect x="298" y="2086" class="st9" width="149" height="149"/>
			<rect x="298" y="447" class="st10" width="149" height="149"/>
			<rect x="298" y="894" class="st11" width="149" height="149"/>
			<rect x="298" y="1341" class="st12" width="149" height="149"/>
			<rect x="298" y="1788" class="st13" width="149" height="149"/>
			<rect x="298" y="2235" class="st14" width="149" height="149"/>
		</g>
		<g class="st17">
			<rect x="447" y="149" class="st0" width="149" height="149"/>
			<rect x="447" y="596" class="st1" width="149" height="149"/>
			<rect x="447" y="1043" class="st2" width="149" height="149"/>
			<rect x="447" y="1490" class="st3" width="149" height="149"/>
			<rect x="447" y="1937" class="st4" width="149" height="149"/>
			<rect x="447" y="298" class="st5" width="149" height="149"/>
			<rect x="447" y="745" class="st6" width="149" height="149"/>
			<rect x="447" y="1192" class="st7" width="149" height="149"/>
			<rect x="447" y="1639" class="st8" width="149" height="149"/>
			<rect x="447" y="2086" class="st9" width="149" height="149"/>
			<rect x="447" y="447" class="st10" width="149" height="149"/>
			<rect x="447" y="894" class="st11" width="149" height="149"/>
			<rect x="447" y="1341" class="st12" width="149" height="149"/>
			<rect x="447" y="1788" class="st13" width="149" height="149"/>
			<rect x="447" y="2235" class="st14" width="149" height="149"/>
		</g>
		<g class="st18">
			<rect x="596" y="149" class="st0" width="149" height="149"/>
			<rect x="596" y="596" class="st1" width="149" height="149"/>
			<rect x="596" y="1043" class="st2" width="149" height="149"/>
			<rect x="596" y="1490" class="st3" width="149" height="149"/>
			<rect x="596" y="1937" class="st4" width="149" height="149"/>
			<rect x="596" y="298" class="st5" width="149" height="149"/>
			<rect x="596" y="745" class="st6" width="149" height="149"/>
			<rect x="596" y="1192" class="st7" width="149" height="149"/>
			<rect x="596" y="1639" class="st8" width="149" height="149"/>
			<rect x="596" y="2086" class="st9" width="149" height="149"/>
			<rect x="596" y="447" class="st10" width="149" height="149"/>
			<rect x="596" y="894" class="st11" width="149" height="149"/>
			<rect x="596" y="1341" class="st12" width="149" height="149"/>
			<rect x="596" y="1788" class="st13" width="149" height="149"/>
			<rect x="596" y="2235" class="st14" width="149" height="149"/>
		</g>
		<g class="st19">
			<rect x="745" y="149" class="st0" width="149" height="149"/>
			<rect x="745" y="596" class="st1" width="149" height="149"/>
			<rect x="745" y="1043" class="st2" width="149" height="149"/>
			<rect x="745" y="1490" class="st3" width="149" height="149"/>
			<rect x="745" y="1937" class="st4" width="149" height="149"/>
			<rect x="745" y="298" class="st5" width="149" height="149"/>
			<rect x="745" y="745" class="st6" width="149" height="149"/>
			<rect x="745" y="1192" class="st7" width="149" height="149"/>
			<rect x="745" y="1639" class="st8" width="149" height="149"/>
			<rect x="745" y="2086" class="st9" width="149" height="149"/>
			<rect x="745" y="447" class="st10" width="149" height="149"/>
			<rect x="745" y="894" class="st11" width="149" height="149"/>
			<rect x="745" y="1341" class="st12" width="149" height="149"/>
			<rect x="745" y="1788" class="st13" width="149" height="149"/>
			<rect x="745" y="2235" class="st14" width="149" height="149"/>
		</g>
		<g class="st20">
			<rect x="894" y="149" class="st0" width="149" height="149"/>
			<rect x="894" y="596" class="st1" width="149" height="149"/>
			<rect x="894" y="1043" class="st2" width="149" height="149"/>
			<rect x="894" y="1490" class="st3" width="149" height="149"/>
			<rect x="894" y="1937" class="st4" width="149" height="149"/>
			<rect x="894" y="298" class="st5" width="149" height="149"/>
			<rect x="894" y="745" class="st6" width="149" height="149"/>
			<rect x="894" y="1192" class="st7" width="149" height="149"/>
			<rect x="894" y="1639" class="st8" width="149" height="149"/>
			<rect x="894" y="2086" class="st9" width="149" height="149"/>
			<rect x="894" y="447" class="st10" width="149" height="149"/>
			<rect x="894" y="894" class="st11" width="149" height="149"/>
			<rect x="894" y="1341" class="st12" width="149" height="149"/>
			<rect x="894" y="1788" class="st13" width="149" height="149"/>
			<rect x="894" y="2235" class="st14" width="149" height="149"/>
		</g>
		<g class="st21">
			<rect x="1043" y="149" class="st0" width="149" height="149"/>
			<rect x="1043" y="596" class="st1" width="149" height="149"/>
			<rect x="1043" y="1043" class="st2" width="149" height="149"/>
			<rect x="1043" y="1490" class="st3" width="149" height="149"/>
			<rect x="1043" y="1937" class="st4" width="149" height="149"/>
			<rect x="1043" y="298" class="st5" width="149" height="149"/>
			<rect x="1043" y="745" class="st6" width="149" height="149"/>
			<rect x="1043" y="1192" class="st7" width="149" height="149"/>
			<rect x="1043" y="1639" class="st8" width="149" height="149"/>
			<rect x="1043" y="2086" class="st9" width="149" height="149"/>
			<rect x="1043" y="447" class="st10" width="149" height="149"/>
			<rect x="1043" y="894" class="st11" width="149" height="149"/>
			<rect x="1043" y="1341" class="st12" width="149" height="149"/>
			<rect x="1043" y="1788" class="st13" width="149" height="149"/>
			<rect x="1043" y="2235" class="st14" width="149" height="149"/>
		</g>
		<g class="st22">
			<rect x="1192" y="149" class="st0" width="149" height="149"/>
			<rect x="1192" y="596" class="st1" width="149" height="149"/>
			<rect x="1192" y="1043" class="st2" width="149" height="149"/>
			<rect x="1192" y="1490" class="st3" width="149" height="149"/>
			<rect x="1192" y="1937" class="st4" width="149" height="149"/>
			<rect x="1192" y="298" class="st5" width="149" height="149"/>
			<rect x="1192" y="745" class="st6" width="149" height="149"/>
			<rect x="1192" y="1192" class="st7" width="149" height="149"/>
			<rect x="1192" y="1639" class="st8" width="149" height="149"/>
			<rect x="1192" y="2086" class="st9" width="149" height="149"/>
			<rect x="1192" y="447" class="st10" width="149" height="149"/>
			<rect x="1192" y="894" class="st11" width="149" height="149"/>
			<rect x="1192" y="1341" class="st12" width="149" height="149"/>
			<rect x="1192" y="1788" class="st13" width="149" height="149"/>
			<rect x="1192" y="2235" class="st14" width="149" height="149"/>
		</g>
		<g class="st23">
			<rect x="1341" y="149" class="st0" width="149" height="149"/>
			<rect x="1341" y="596" class="st1" width="149" height="149"/>
			<rect x="1341" y="1043" class="st2" width="149" height="149"/>
			<rect x="1341" y="1490" class="st3" width="149" height="149"/>
			<rect x="1341" y="1937" class="st4" width="149" height="149"/>
			<rect x="1341" y="298" class="st5" width="149" height="149"/>
			<rect x="1341" y="745" class="st6" width="149" height="149"/>
			<rect x="1341" y="1192" class="st7" width="149" height="149"/>
			<rect x="1341" y="1639" class="st8" width="149" height="149"/>
			<rect x="1341" y="2086" class="st9" width="149" height="149"/>
			<rect x="1341" y="447" class="st10" width="149" height="149"/>
			<rect x="1341" y="894" class="st11" width="149" height="149"/>
			<rect x="1341" y="1341" class="st12" width="149" height="149"/>
			<rect x="1341" y="1788" class="st13" width="149" height="149"/>
			<rect x="1341" y="2235" class="st14" width="149" height="149"/>
		</g>
		<g class="st24">
			<rect x="1490" y="149" class="st0" width="149" height="149"/>
			<rect x="1490" y="596" class="st1" width="149" height="149"/>
			<rect x="1490" y="1043" class="st2" width="149" height="149"/>
			<rect x="1490" y="1490" class="st3" width="149" height="149"/>
			<rect x="1490" y="1937" class="st4" width="149" height="149"/>
			<rect x="1490" y="298" class="st5" width="149" height="149"/>
			<rect x="1490" y="745" class="st6" width="149" height="149"/>
			<rect x="1490" y="1192" class="st7" width="149" height="149"/>
			<rect x="1490" y="1639" class="st8" width="149" height="149"/>
			<rect x="1490" y="2086" class="st9" width="149" height="149"/>
			<rect x="1490" y="447" class="st10" width="149" height="149"/>
			<rect x="1490" y="894" class="st11" width="149" height="149"/>
			<rect x="1490" y="1341" class="st12" width="149" height="149"/>
			<rect x="1490" y="1788" class="st13" width="149" height="149"/>
			<rect x="1490" y="2235" class="st14" width="149" height="149"/>
		</g>
		<g class="st25">
			<rect x="1639" y="149" class="st0" width="149" height="149"/>
			<rect x="1639" y="596" class="st1" width="149" height="149"/>
			<rect x="1639" y="1043" class="st2" width="149" height="149"/>
			<rect x="1639" y="1490" class="st3" width="149" height="149"/>
			<rect x="1639" y="1937" class="st4" width="149" height="149"/>
			<rect x="1639" y="298" class="st5" width="149" height="149"/>
			<rect x="1639" y="745" class="st6" width="149" height="149"/>
			<rect x="1639" y="1192" class="st7" width="149" height="149"/>
			<rect x="1639" y="1639" class="st8" width="149" height="149"/>
			<rect x="1639" y="2086" class="st9" width="149" height="149"/>
			<rect x="1639" y="447" class="st10" width="149" height="149"/>
			<rect x="1639" y="894" class="st11" width="149" height="149"/>
			<rect x="1639" y="1341" class="st12" width="149" height="149"/>
			<rect x="1639" y="1788" class="st13" width="149" height="149"/>
			<rect x="1639" y="2235" class="st14" width="149" height="149"/>
		</g>
		<g class="st26">
			<rect x="1788" y="149" class="st0" width="149" height="149"/>
			<rect x="1788" y="596" class="st1" width="149" height="149"/>
			<rect x="1788" y="1043" class="st2" width="149" height="149"/>
			<rect x="1788" y="1490" class="st3" width="149" height="149"/>
			<rect x="1788" y="1937" class="st4" width="149" height="149"/>
			<rect x="1788" y="298" class="st5" width="149" height="149"/>
			<rect x="1788" y="745" class="st6" width="149" height="149"/>
			<rect x="1788" y="1192" class="st7" width="149" height="149"/>
			<rect x="1788" y="1639" class="st8" width="149" height="149"/>
			<rect x="1788" y="2086" class="st9" width="149" height="149"/>
			<rect x="1788" y="447" class="st10" width="149" height="149"/>
			<rect x="1788" y="894" class="st11" width="149" height="149"/>
			<rect x="1788" y="1341" class="st12" width="149" height="149"/>
			<rect x="1788" y="1788" class="st13" width="149" height="149"/>
			<rect x="1788" y="2235" class="st14" width="149" height="149"/>
		</g>
		<g class="st27">
			<rect x="1937" y="149" class="st0" width="149" height="149"/>
			<rect x="1937" y="596" class="st1" width="149" height="149"/>
			<rect x="1937" y="1043" class="st2" width="149" height="149"/>
			<rect x="1937" y="1490" class="st3" width="149" height="149"/>
			<rect x="1937" y="1937" class="st4" width="149" height="149"/>
			<rect x="1937" y="298" class="st5" width="149" height="149"/>
			<rect x="1937" y="745" class="st6" width="149" height="149"/>
			<rect x="1937" y="1192" class="st7" width="149" height="149"/>
			<rect x="1937" y="1639" class="st8" width="149" height="149"/>
			<rect x="1937" y="2086" class="st9" width="149" height="149"/>
			<rect x="1937" y="447" class="st10" width="149" height="149"/>
			<rect x="1937" y="894" class="st11" width="149" height="149"/>
			<rect x="1937" y="1341" class="st12" width="149" height="149"/>
			<rect x="1937" y="1788" class="st13" width="149" height="149"/>
			<rect x="1937" y="2235" class="st14" width="149" height="149"/>
		</g>
		<g class="st28">
			<rect x="2086" y="149" class="st0" width="149" height="149"/>
			<rect x="2086" y="596" class="st1" width="149" height="149"/>
			<rect x="2086" y="1043" class="st2" width="149" height="149"/>
			<rect x="2086" y="1490" class="st3" width="149" height="149"/>
			<rect x="2086" y="1937" class="st4" width="149" height="149"/>
			<rect x="2086" y="298" class="st5" width="149" height="149"/>
			<rect x="2086" y="745" class="st6" width="149" height="149"/>
			<rect x="2086" y="1192" class="st7" width="149" height="149"/>
			<rect x="2086" y="1639" class="st8" width="149" height="149"/>
			<rect x="2086" y="2086" class="st9" width="149" height="149"/>
			<rect x="2086" y="447" class="st10" width="149" height="149"/>
			<rect x="2086" y="894" class="st11" width="149" height="149"/>
			<rect x="2086" y="1341" class="st12" width="149" height="149"/>
			<rect x="2086" y="1788" class="st13" width="149" height="149"/>
			<rect x="2086" y="2235" class="st14" width="149" height="149"/>
		</g>
		<g class="st29">
			<rect x="2235" y="149" class="st0" width="149" height="149"/>
			<rect x="2235" y="596" class="st1" width="149" height="149"/>
			<rect x="2235" y="1043" class="st2" width="149" height="149"/>
			<rect x="2235" y="1490" class="st3" width="149" height="149"/>
			<rect x="2235" y="1937" class="st4" width="149" height="149"/>
			<rect x="2235" y="298" class="st5" width="149" height="149"/>
			<rect x="2235" y="745" class="st6" width="149" height="149"/>
			<rect x="2235" y="1192" class="st7" width="149" height="149"/>
			<rect x="2235" y="1639" class="st8" width="149" height="149"/>
			<rect x="2235" y="2086" class="st9" width="149" height="149"/>
			<rect x="2235" y="447" class="st10" width="149" height="149"/>
			<rect x="2235" y="894" class="st11" width="149" height="149"/>
			<rect x="2235" y="1341" class="st12" width="149" height="149"/>
			<rect x="2235" y="1788" class="st13" width="149" height="149"/>
			<rect x="2235" y="2235" class="st14" width="149" height="149"/>
		</g>
		<g class="st30">
			<rect x="2384" y="149" class="st0" width="149" height="149"/>
			<rect x="2384" y="596" class="st1" width="149" height="149"/>
			<rect x="2384" y="1043" class="st2" width="149" height="149"/>
			<rect x="2384" y="1490" class="st3" width="149" height="149"/>
			<rect x="2384" y="1937" class="st4" width="149" height="149"/>
			<rect x="2384" y="298" class="st5" width="149" height="149"/>
			<rect x="2384" y="745" class="st6" width="149" height="149"/>
			<rect x="2384" y="1192" class="st7" width="149" height="149"/>
			<rect x="2384" y="1639" class="st8" width="149" height="149"/>
			<rect x="2384" y="2086" class="st9" width="149" height="149"/>
			<rect x="2384" y="447" class="st10" width="149" height="149"/>
			<rect x="2384" y="894" class="st11" width="149" height="149"/>
			<rect x="2384" y="1341" class="st12" width="149" height="149"/>
			<rect x="2384" y="1788" class="st13" width="149" height="149"/>
			<rect x="2384" y="2235" class="st14" width="149" height="149"/>
		</g>
		<g class="st31">
			<rect x="2533" y="149" class="st0" width="149" height="149"/>
			<rect x="2533" y="596" class="st1" width="149" height="149"/>
			<rect x="2533" y="1043" class="st2" width="149" height="149"/>
			<rect x="2533" y="1490" class="st3" width="149" height="149"/>
			<rect x="2533" y="1937" class="st4" width="149" height="149"/>
			<rect x="2533" y="298" class="st5" width="149" height="149"/>
			<rect x="2533" y="745" class="st6" width="149" height="149"/>
			<rect x="2533" y="1192" class="st7" width="149" height="149"/>
			<rect x="2533" y="1639" class="st8" width="149" height="149"/>
			<rect x="2533" y="2086" class="st9" width="149" height="149"/>
			<rect x="2533" y="447" class="st10" width="149" height="149"/>
			<rect x="2533" y="894" class="st11" width="149" height="149"/>
			<rect x="2533" y="1341" class="st12" width="149" height="149"/>
			<rect x="2533" y="1788" class="st13" width="149" height="149"/>
			<rect x="2533" y="2235" class="st14" width="149" height="149"/>
		</g>
		<g class="st32">
			<rect x="2682" y="149" class="st0" width="149" height="149"/>
			<rect x="2682" y="596" class="st1" width="149" height="149"/>
			<rect x="2682" y="1043" class="st2" width="149" height="149"/>
			<rect x="2682" y="1490" class="st3" width="149" height="149"/>
			<rect x="2682" y="1937" class="st4" width="149" height="149"/>
			<rect x="2682" y="298" class="st5" width="149" height="149"/>
			<rect x="2682" y="745" class="st6" width="149" height="149"/>
			<rect x="2682" y="1192" class="st7" width="149" height="149"/>
			<rect x="2682" y="1639" class="st8" width="149" height="149"/>
			<rect x="2682" y="2086" class="st9" width="149" height="149"/>
			<rect x="2682" y="447" class="st10" width="149" height="149"/>
			<rect x="2682" y="894" class="st11" width="149" height="149"/>
			<rect x="2682" y="1341" class="st12" width="149" height="149"/>
			<rect x="2682" y="1788" class="st13" width="149" height="149"/>
			<rect x="2682" y="2235" class="st14" width="149" height="149"/>
		</g>
		<g class="st33">
			<rect x="2831" y="149" class="st0" width="149" height="149"/>
			<rect x="2831" y="596" class="st1" width="149" height="149"/>
			<rect x="2831" y="1043" class="st2" width="149" height="149"/>
			<rect x="2831" y="1490" class="st3" width="149" height="149"/>
			<rect x="2831" y="1937" class="st4" width="149" height="149"/>
			<rect x="2831" y="298" class="st5" width="149" height="149"/>
			<rect x="2831" y="745" class="st6" width="149" height="149"/>
			<rect x="2831" y="1192" class="st7" width="149" height="149"/>
			<rect x="2831" y="1639" class="st8" width="149" height="149"/>
			<rect x="2831" y="2086" class="st9" width="149" height="149"/>
			<rect x="2831" y="447" class="st10" width="149" height="149"/>
			<rect x="2831" y="894" class="st11" width="149" height="149"/>
			<rect x="2831" y="1341" class="st12" width="149" height="149"/>
			<rect x="2831" y="1788" class="st13" width="149" height="149"/>
			<rect x="2831" y="2235" class="st14" width="149" height="149"/>
		</g>
	</g>
</g>
<g>
	<path d="M37.3,76.4h5.4V64.7c0-1.1,0-2.3,0.1-3.5c-0.9,0.8-1.7,1.4-2.5,1.9l-2.5,1.7v-3.3l5.1-3.4h3v18.3h4.4v2.7h-13V76.4z"/>
	<path d="M67.4,68v1.1c0,7-3.4,10.2-7.5,10.2c-4.1,0-7.5-3.2-7.5-10.2V68c0-7,3.4-10.2,7.5-10.2C64,57.8,67.4,61,67.4,68z
		 M55.6,69.1c0,0.3,0,0.6,0,0.9l8.2-5.5c-0.7-2.8-2.2-4-3.9-4c-2.3,0-4.3,2.1-4.3,7.6V69.1z M64.2,68.1c0-0.3,0-0.6,0-0.9L56,72.7
		c0.7,2.8,2.2,4,3.9,4c2.4,0,4.3-2.1,4.3-7.6V68.1z"/>
	<path d="M84.7,68v1.1c0,7-3.4,10.2-7.5,10.2c-4.1,0-7.5-3.2-7.5-10.2V68c0-7,3.4-10.2,7.5-10.2C81.3,57.8,84.7,61,84.7,68z
		 M72.9,69.1c0,0.3,0,0.6,0,0.9l8.2-5.5c-0.7-2.8-2.2-4-3.9-4c-2.3,0-4.3,2.1-4.3,7.6V69.1z M81.6,68.1c0-0.3,0-0.6,0-0.9l-8.2,5.5
		c0.7,2.8,2.2,4,3.9,4c2.4,0,4.3-2.1,4.3-7.6V68.1z"/>
	<path d="M86.9,64.4v-0.6c0-3.9,2.2-5.9,4.8-5.9s4.8,2,4.8,5.9v0.6c0,3.9-2.2,5.9-4.8,5.9S86.9,68.3,86.9,64.4z M93.8,64.3v-0.5
		c0-2.5-0.9-3.6-2.2-3.6s-2.2,1.2-2.2,3.6v0.5c0,2.5,0.9,3.6,2.2,3.6S93.8,66.8,93.8,64.3z M98.5,68.6l6.8-10.5h2.9l-6.9,10.5
		l-6.8,10.5h-2.9L98.5,68.6z M103.4,73.4v-0.5c0-3.9,2.2-5.9,4.8-5.9c2.6,0,4.8,2,4.8,5.9v0.5c0,3.9-2.2,5.9-4.8,5.9
		C105.6,79.2,103.4,77.3,103.4,73.4z M110.3,73.3v-0.5c0-2.5-0.9-3.6-2.2-3.6c-1.2,0-2.2,1.2-2.2,3.6v0.5c0,2.5,0.9,3.6,2.2,3.6
		C109.4,77,110.3,75.8,110.3,73.3z"/>
</g>
<g>
	<path d="M199.9,75.4c1-1.3,2-2.7,3.4-4.2c-0.7,0.4-1.4,0.6-2.2,0.6c-3.5,0-6.7-2.5-6.7-6.9v-0.2c0-4.4,3.4-7.1,7.4-7.1
		c3.9,0,7.4,2.6,7.4,6.9v0.2c0,3-1.6,5.4-3,7.3l-5.2,7h-3.7L199.9,75.4z M206,64.8v-0.1c0-2.8-2-4.3-4.2-4.3c-2.2,0-4.2,1.6-4.2,4.3
		v0.1c0,2.8,2,4.3,4.2,4.3C204,69.1,206,67.6,206,64.8z"/>
	<path d="M210.9,74.1l3.1-0.6c0.6,2.4,2.5,3.3,4.2,3.3c2.2,0,4.1-1.6,4.1-4.4v-0.1c0-2.8-1.7-4.3-3.9-4.3c-1.7,0-2.9,0.9-3.5,2
		l-2.4-0.5V58.1H224V61h-8.7v3.5c0,0.7,0,1.4,0,2.2c0.8-0.8,2.1-1.4,3.7-1.4c3.6,0,6.6,2.4,6.6,6.8v0.2c0,4.5-3.4,7.1-7.4,7.1
		C215,79.5,211.9,77.9,210.9,74.1z"/>
	<path d="M226.9,64.4v-0.6c0-3.9,2.2-5.9,4.8-5.9s4.8,2,4.8,5.9v0.6c0,3.9-2.2,5.9-4.8,5.9S226.9,68.3,226.9,64.4z M233.9,64.3v-0.5
		c0-2.5-0.9-3.6-2.2-3.6s-2.2,1.2-2.2,3.6v0.5c0,2.5,0.9,3.6,2.2,3.6S233.9,66.8,233.9,64.3z M238.5,68.6l6.8-10.5h2.9l-6.9,10.5
		l-6.8,10.5h-2.9L238.5,68.6z M243.4,73.4v-0.5c0-3.9,2.2-5.9,4.8-5.9c2.6,0,4.8,2,4.8,5.9v0.5c0,3.9-2.2,5.9-4.8,5.9
		C245.6,79.2,243.4,77.3,243.4,73.4z M250.4,73.3v-0.5c0-2.5-0.9-3.6-2.2-3.6c-1.2,0-2.2,1.2-2.2,3.6v0.5c0,2.5,0.9,3.6,2.2,3.6
		C249.5,77,250.4,75.8,250.4,73.3z"/>
</g>
<g>
	<path d="M348.1,75.4c1-1.3,2-2.7,3.4-4.2c-0.7,0.4-1.4,0.6-2.2,0.6c-3.5,0-6.7-2.5-6.7-6.9v-0.2c0-4.4,3.4-7.1,7.4-7.1
		c3.9,0,7.4,2.6,7.4,6.9v0.2c0,3-1.6,5.4-3,7.3l-5.2,7h-3.7L348.1,75.4z M354.2,64.8v-0.1c0-2.8-2-4.3-4.2-4.3
		c-2.2,0-4.2,1.6-4.2,4.3v0.1c0,2.8,2,4.3,4.2,4.3C352.2,69.1,354.2,67.6,354.2,64.8z"/>
	<path d="M374.6,68v1.1c0,7-3.4,10.2-7.5,10.2c-4.1,0-7.5-3.2-7.5-10.2V68c0-7,3.4-10.2,7.5-10.2C371.2,57.8,374.6,61,374.6,68z
		 M362.8,69.1c0,0.3,0,0.6,0,0.9l8.2-5.5c-0.7-2.8-2.2-4-3.9-4c-2.3,0-4.3,2.1-4.3,7.6V69.1z M371.5,68.1c0-0.3,0-0.6,0-0.9
		l-8.2,5.5c0.7,2.8,2.2,4,3.9,4c2.4,0,4.3-2.1,4.3-7.6V68.1z"/>
	<path d="M376.8,64.4v-0.6c0-3.9,2.2-5.9,4.8-5.9s4.8,2,4.8,5.9v0.6c0,3.9-2.2,5.9-4.8,5.9S376.8,68.3,376.8,64.4z M383.7,64.3v-0.5
		c0-2.5-0.9-3.6-2.2-3.6s-2.2,1.2-2.2,3.6v0.5c0,2.5,0.9,3.6,2.2,3.6S383.7,66.8,383.7,64.3z M388.4,68.6l6.8-10.5h2.9l-6.9,10.5
		l-6.8,10.5h-2.9L388.4,68.6z M393.3,73.4v-0.5c0-3.9,2.2-5.9,4.8-5.9c2.6,0,4.8,2,4.8,5.9v0.5c0,3.9-2.2,5.9-4.8,5.9
		C395.5,79.2,393.3,77.3,393.3,73.4z M400.2,73.3v-0.5c0-2.5-0.9-3.6-2.2-3.6c-1.2,0-2.2,1.2-2.2,3.6v0.5c0,2.5,0.9,3.6,2.2,3.6
		C399.3,77,400.2,75.8,400.2,73.3z"/>
</g>
<g>
	<path d="M492,73.1v-0.2c0-2.4,1.3-4.2,3.3-5.2c-1.6-0.9-2.5-2.4-2.5-4.2v-0.2c0-3.5,3.1-5.6,6.6-5.6c3.4,0,6.6,2,6.6,5.6v0.2
		c0,1.8-0.9,3.3-2.5,4.2c2,1,3.3,2.8,3.3,5.2v0.2c0,4.1-3.5,6.3-7.4,6.3C495.6,79.5,492,77.2,492,73.1z M503.5,73v-0.1
		c0-2.4-2-3.8-4.1-3.8c-2.1,0-4.1,1.4-4.1,3.8V73c0,2.4,2,3.8,4.1,3.8C501.6,76.8,503.5,75.4,503.5,73z M503,63.6v-0.1
		c0-2-1.7-3.1-3.5-3.1c-1.8,0-3.5,1.1-3.5,3.1v0.1c0,2,1.7,3.2,3.5,3.2C501.2,66.8,503,65.7,503,63.6z"/>
	<path d="M509.3,74.1l3.1-0.6c0.6,2.4,2.5,3.3,4.2,3.3c2.2,0,4.1-1.6,4.1-4.4v-0.1c0-2.8-1.7-4.3-3.9-4.3c-1.7,0-2.9,0.9-3.5,2
		l-2.4-0.5V58.1h11.6V61h-8.7v3.5c0,0.7,0,1.4,0,2.2c0.8-0.8,2.1-1.4,3.7-1.4c3.6,0,6.6,2.4,6.6,6.8v0.2c0,4.5-3.4,7.1-7.4,7.1
		C513.4,79.5,510.3,77.9,509.3,74.1z"/>
	<path d="M525.3,64.4v-0.6c0-3.9,2.2-5.9,4.8-5.9s4.8,2,4.8,5.9v0.6c0,3.9-2.2,5.9-4.8,5.9S525.3,68.3,525.3,64.4z M532.3,64.3v-0.5
		c0-2.5-0.9-3.6-2.2-3.6s-2.2,1.2-2.2,3.6v0.5c0,2.5,0.9,3.6,2.2,3.6S532.3,66.8,532.3,64.3z M536.9,68.6l6.8-10.5h2.9l-6.9,10.5
		L533,79.1H530L536.9,68.6z M541.8,73.4v-0.5c0-3.9,2.2-5.9,4.8-5.9c2.6,0,4.8,2,4.8,5.9v0.5c0,3.9-2.2,5.9-4.8,5.9
		C544,79.2,541.8,77.3,541.8,73.4z M548.8,73.3v-0.5c0-2.5-0.9-3.6-2.2-3.6c-1.2,0-2.2,1.2-2.2,3.6v0.5c0,2.5,0.9,3.6,2.2,3.6
		C547.8,77,548.8,75.8,548.8,73.3z"/>
</g>
<g>
	<path d="M640.6,73.1v-0.2c0-2.4,1.3-4.2,3.3-5.2c-1.6-0.9-2.5-2.4-2.5-4.2v-0.2c0-3.5,3.1-5.6,6.6-5.6c3.4,0,6.6,2,6.6,5.6v0.2
		c0,1.8-0.9,3.3-2.5,4.2c2,1,3.3,2.8,3.3,5.2v0.2c0,4.1-3.5,6.3-7.4,6.3C644.1,79.5,640.6,77.2,640.6,73.1z M652.1,73v-0.1
		c0-2.4-2-3.8-4.1-3.8c-2.1,0-4.1,1.4-4.1,3.8V73c0,2.4,2,3.8,4.1,3.8C650.1,76.8,652.1,75.4,652.1,73z M651.5,63.6v-0.1
		c0-2-1.7-3.1-3.5-3.1c-1.8,0-3.5,1.1-3.5,3.1v0.1c0,2,1.7,3.2,3.5,3.2C649.8,66.8,651.5,65.7,651.5,63.6z"/>
	<path d="M672.6,68v1.1c0,7-3.4,10.2-7.5,10.2c-4.1,0-7.5-3.2-7.5-10.2V68c0-7,3.4-10.2,7.5-10.2C669.2,57.8,672.6,61,672.6,68z
		 M660.8,69.1c0,0.3,0,0.6,0,0.9l8.2-5.5c-0.7-2.8-2.2-4-3.9-4c-2.3,0-4.3,2.1-4.3,7.6V69.1z M669.5,68.1c0-0.3,0-0.6,0-0.9
		l-8.2,5.5c0.7,2.8,2.2,4,3.9,4c2.4,0,4.3-2.1,4.3-7.6V68.1z"/>
	<path d="M674.8,64.4v-0.6c0-3.9,2.2-5.9,4.8-5.9s4.8,2,4.8,5.9v0.6c0,3.9-2.2,5.9-4.8,5.9S674.8,68.3,674.8,64.4z M681.7,64.3v-0.5
		c0-2.5-0.9-3.6-2.2-3.6s-2.2,1.2-2.2,3.6v0.5c0,2.5,0.9,3.6,2.2,3.6S681.7,66.8,681.7,64.3z M686.4,68.6l6.8-10.5h2.9l-6.9,10.5
		l-6.8,10.5h-2.9L686.4,68.6z M691.3,73.4v-0.5c0-3.9,2.2-5.9,4.8-5.9c2.6,0,4.8,2,4.8,5.9v0.5c0,3.9-2.2,5.9-4.8,5.9
		C693.5,79.2,691.3,77.3,691.3,73.4z M698.2,73.3v-0.5c0-2.5-0.9-3.6-2.2-3.6c-1.2,0-2.2,1.2-2.2,3.6v0.5c0,2.5,0.9,3.6,2.2,3.6
		C697.3,77,698.2,75.8,698.2,73.3z"/>
</g>
<g>
	<path d="M801.3,60.9c-1,0-2,0.1-2.8,0.1h-7.6v-2.9h13.9v2.6l-8.5,18.4h-3.6L801.3,60.9z"/>
	<path d="M806.8,74.1l3.1-0.6c0.6,2.4,2.5,3.3,4.2,3.3c2.2,0,4.1-1.6,4.1-4.4v-0.1c0-2.8-1.7-4.3-3.9-4.3c-1.7,0-2.9,0.9-3.5,2
		l-2.4-0.5V58.1h11.6V61h-8.7v3.5c0,0.7,0,1.4,0,2.2c0.8-0.8,2.1-1.4,3.7-1.4c3.6,0,6.6,2.4,6.6,6.8v0.2c0,4.5-3.4,7.1-7.4,7.1
		C810.9,79.5,807.8,77.9,806.8,74.1z"/>
	<path d="M822.8,64.4v-0.6c0-3.9,2.2-5.9,4.8-5.9s4.8,2,4.8,5.9v0.6c0,3.9-2.2,5.9-4.8,5.9S822.8,68.3,822.8,64.4z M829.8,64.3v-0.5
		c0-2.5-0.9-3.6-2.2-3.6s-2.2,1.2-2.2,3.6v0.5c0,2.5,0.9,3.6,2.2,3.6S829.8,66.8,829.8,64.3z M834.4,68.6l6.8-10.5h2.9l-6.9,10.5
		l-6.8,10.5h-2.9L834.4,68.6z M839.3,73.4v-0.5c0-3.9,2.2-5.9,4.8-5.9c2.6,0,4.8,2,4.8,5.9v0.5c0,3.9-2.2,5.9-4.8,5.9
		C841.5,79.2,839.3,77.3,839.3,73.4z M846.3,73.3v-0.5c0-2.5-0.9-3.6-2.2-3.6c-1.2,0-2.2,1.2-2.2,3.6v0.5c0,2.5,0.9,3.6,2.2,3.6
		C845.4,77,846.3,75.8,846.3,73.3z"/>
</g>
<g>
	<path d="M949.8,60.9c-1,0-2,0.1-2.8,0.1h-7.6v-2.9h13.9v2.6l-8.5,18.4h-3.6L949.8,60.9z"/>
	<path d="M970.2,68v1.1c0,7-3.4,10.2-7.5,10.2c-4.1,0-7.5-3.2-7.5-10.2V68c0-7,3.4-10.2,7.5-10.2C966.8,57.8,970.2,61,970.2,68z
		 M958.4,69.1c0,0.3,0,0.6,0,0.9l8.2-5.5c-0.7-2.8-2.2-4-3.9-4c-2.3,0-4.3,2.1-4.3,7.6V69.1z M967,68.1c0-0.3,0-0.6,0-0.9l-8.2,5.5
		c0.7,2.8,2.2,4,3.9,4c2.4,0,4.3-2.1,4.3-7.6V68.1z"/>
	<path d="M972.3,64.4v-0.6c0-3.9,2.2-5.9,4.8-5.9s4.8,2,4.8,5.9v0.6c0,3.9-2.2,5.9-4.8,5.9S972.3,68.3,972.3,64.4z M979.3,64.3v-0.5
		c0-2.5-0.9-3.6-2.2-3.6s-2.2,1.2-2.2,3.6v0.5c0,2.5,0.9,3.6,2.2,3.6S979.3,66.8,979.3,64.3z M983.9,68.6l6.8-10.5h2.9l-6.9,10.5
		L980,79.1H977L983.9,68.6z M988.8,73.4v-0.5c0-3.9,2.2-5.9,4.8-5.9c2.6,0,4.8,2,4.8,5.9v0.5c0,3.9-2.2,5.9-4.8,5.9
		C991,79.2,988.8,77.3,988.8,73.4z M995.8,73.3v-0.5c0-2.5-0.9-3.6-2.2-3.6c-1.2,0-2.2,1.2-2.2,3.6v0.5c0,2.5,0.9,3.6,2.2,3.6
		C994.8,77,995.8,75.8,995.8,73.3z"/>
</g>
<g>
	<path d="M1088,72.5v-0.2c0-3,1.6-5.3,3-7.2l5.2-7h3.7l-2.7,3.6c-1,1.3-2,2.7-3.5,4.3c0.7-0.5,1.5-0.7,2.3-0.7
		c3.5,0,6.7,2.5,6.7,6.9v0.2c0,4.4-3.4,7.1-7.4,7.1C1091.5,79.5,1088,76.9,1088,72.5z M1099.6,72.5v-0.1c0-2.8-2-4.3-4.2-4.3
		c-2.2,0-4.2,1.5-4.2,4.3v0.1c0,2.8,2,4.3,4.2,4.3C1097.6,76.8,1099.6,75.2,1099.6,72.5z"/>
	<path d="M1105.3,74.1l3.1-0.6c0.6,2.4,2.5,3.3,4.2,3.3c2.2,0,4.1-1.6,4.1-4.4v-0.1c0-2.8-1.7-4.3-3.9-4.3c-1.7,0-2.9,0.9-3.5,2
		l-2.4-0.5V58.1h11.6V61h-8.7v3.5c0,0.7,0,1.4,0,2.2c0.8-0.8,2.1-1.4,3.7-1.4c3.6,0,6.6,2.4,6.6,6.8v0.2c0,4.5-3.4,7.1-7.4,7.1
		C1109.3,79.5,1106.3,77.9,1105.3,74.1z"/>
	<path d="M1121.3,64.4v-0.6c0-3.9,2.2-5.9,4.8-5.9s4.8,2,4.8,5.9v0.6c0,3.9-2.2,5.9-4.8,5.9S1121.3,68.3,1121.3,64.4z M1128.3,64.3
		v-0.5c0-2.5-0.9-3.6-2.2-3.6s-2.2,1.2-2.2,3.6v0.5c0,2.5,0.9,3.6,2.2,3.6S1128.3,66.8,1128.3,64.3z M1132.9,68.6l6.8-10.5h2.9
		l-6.9,10.5l-6.8,10.5h-2.9L1132.9,68.6z M1137.8,73.4v-0.5c0-3.9,2.2-5.9,4.8-5.9c2.6,0,4.8,2,4.8,5.9v0.5c0,3.9-2.2,5.9-4.8,5.9
		C1140,79.2,1137.8,77.3,1137.8,73.4z M1144.8,73.3v-0.5c0-2.5-0.9-3.6-2.2-3.6c-1.2,0-2.2,1.2-2.2,3.6v0.5c0,2.5,0.9,3.6,2.2,3.6
		C1143.8,77,1144.8,75.8,1144.8,73.3z"/>
</g>
<g>
	<path d="M1236.6,72.5v-0.2c0-3,1.6-5.3,3-7.2l5.2-7h3.7l-2.7,3.6c-1,1.3-2,2.7-3.5,4.3c0.7-0.5,1.5-0.7,2.3-0.7
		c3.5,0,6.7,2.5,6.7,6.9v0.2c0,4.4-3.4,7.1-7.4,7.1C1240,79.5,1236.6,76.9,1236.6,72.5z M1248.2,72.5v-0.1c0-2.8-2-4.3-4.2-4.3
		c-2.2,0-4.2,1.5-4.2,4.3v0.1c0,2.8,2,4.3,4.2,4.3C1246.2,76.8,1248.2,75.2,1248.2,72.5z"/>
	<path d="M1268.6,68v1.1c0,7-3.4,10.2-7.5,10.2c-4.1,0-7.5-3.2-7.5-10.2V68c0-7,3.4-10.2,7.5-10.2C1265.2,57.8,1268.6,61,1268.6,68z
		 M1256.8,69.1c0,0.3,0,0.6,0,0.9l8.2-5.5c-0.7-2.8-2.2-4-3.9-4c-2.3,0-4.3,2.1-4.3,7.6V69.1z M1265.5,68.1c0-0.3,0-0.6,0-0.9
		l-8.2,5.5c0.7,2.8,2.2,4,3.9,4c2.4,0,4.3-2.1,4.3-7.6V68.1z"/>
	<path d="M1270.8,64.4v-0.6c0-3.9,2.2-5.9,4.8-5.9s4.8,2,4.8,5.9v0.6c0,3.9-2.2,5.9-4.8,5.9S1270.8,68.3,1270.8,64.4z M1277.7,64.3
		v-0.5c0-2.5-0.9-3.6-2.2-3.6s-2.2,1.2-2.2,3.6v0.5c0,2.5,0.9,3.6,2.2,3.6S1277.7,66.8,1277.7,64.3z M1282.4,68.6l6.8-10.5h2.9
		l-6.9,10.5l-6.8,10.5h-2.9L1282.4,68.6z M1287.3,73.4v-0.5c0-3.9,2.2-5.9,4.8-5.9c2.6,0,4.8,2,4.8,5.9v0.5c0,3.9-2.2,5.9-4.8,5.9
		C1289.5,79.2,1287.3,77.3,1287.3,73.4z M1294.2,73.3v-0.5c0-2.5-0.9-3.6-2.2-3.6c-1.2,0-2.2,1.2-2.2,3.6v0.5c0,2.5,0.9,3.6,2.2,3.6
		C1293.3,77,1294.2,75.8,1294.2,73.3z"/>
</g>
<g>
	<path d="M1386.1,74.1l3.1-0.6c0.6,2.4,2.5,3.3,4.2,3.3c2.2,0,4.1-1.6,4.1-4.4v-0.1c0-2.8-1.7-4.3-3.9-4.3c-1.7,0-2.9,0.9-3.5,2
		l-2.4-0.5V58.1h11.6V61h-8.7v3.5c0,0.7,0,1.4,0,2.2c0.8-0.8,2.1-1.4,3.7-1.4c3.6,0,6.6,2.4,6.6,6.8v0.2c0,4.5-3.4,7.1-7.4,7.1
		C1390.2,79.5,1387.1,77.9,1386.1,74.1z"/>
	<path d="M1403.3,74.1l3.1-0.6c0.6,2.4,2.5,3.3,4.2,3.3c2.2,0,4.1-1.6,4.1-4.4v-0.1c0-2.8-1.7-4.3-3.9-4.3c-1.7,0-2.9,0.9-3.5,2
		l-2.4-0.5V58.1h11.6V61h-8.7v3.5c0,0.7,0,1.4,0,2.2c0.8-0.8,2.1-1.4,3.7-1.4c3.6,0,6.6,2.4,6.6,6.8v0.2c0,4.5-3.4,7.1-7.4,7.1
		C1407.3,79.5,1404.3,77.9,1403.3,74.1z"/>
	<path d="M1419.3,64.4v-0.6c0-3.9,2.2-5.9,4.8-5.9s4.8,2,4.8,5.9v0.6c0,3.9-2.2,5.9-4.8,5.9S1419.3,68.3,1419.3,64.4z M1426.3,64.3
		v-0.5c0-2.5-0.9-3.6-2.2-3.6s-2.2,1.2-2.2,3.6v0.5c0,2.5,0.9,3.6,2.2,3.6S1426.3,66.8,1426.3,64.3z M1430.9,68.6l6.8-10.5h2.9
		l-6.9,10.5l-6.8,10.5h-2.9L1430.9,68.6z M1435.8,73.4v-0.5c0-3.9,2.2-5.9,4.8-5.9c2.6,0,4.8,2,4.8,5.9v0.5c0,3.9-2.2,5.9-4.8,5.9
		C1438,79.2,1435.8,77.3,1435.8,73.4z M1442.8,73.3v-0.5c0-2.5-0.9-3.6-2.2-3.6c-1.2,0-2.2,1.2-2.2,3.6v0.5c0,2.5,0.9,3.6,2.2,3.6
		C1441.8,77,1442.8,75.8,1442.8,73.3z"/>
</g>
<g>
	<path d="M1534.7,74.1l3.1-0.6c0.6,2.4,2.5,3.3,4.2,3.3c2.2,0,4.1-1.6,4.1-4.4v-0.1c0-2.8-1.7-4.3-3.9-4.3c-1.7,0-2.9,0.9-3.5,2
		l-2.5-0.5V58.1h11.6V61h-8.7v3.5c0,0.7,0,1.4-0.1,2.2c0.8-0.8,2.1-1.4,3.7-1.4c3.6,0,6.6,2.4,6.6,6.8v0.2c0,4.5-3.4,7.1-7.4,7.1
		C1538.7,79.5,1535.7,77.9,1534.7,74.1z"/>
	<path d="M1566.6,68v1.1c0,7-3.4,10.2-7.5,10.2s-7.5-3.2-7.5-10.2V68c0-7,3.4-10.2,7.5-10.2S1566.6,61,1566.6,68z M1554.8,69.1
		c0,0.3,0,0.6,0,0.9l8.2-5.5c-0.7-2.8-2.2-4-3.9-4c-2.3,0-4.3,2.1-4.3,7.6V69.1z M1563.5,68.1c0-0.3,0-0.6,0-0.9l-8.2,5.5
		c0.7,2.8,2.2,4,3.9,4c2.4,0,4.3-2.1,4.3-7.6V68.1z"/>
	<path d="M1568.8,64.4v-0.6c0-3.9,2.2-5.9,4.8-5.9s4.8,2,4.8,5.9v0.6c0,3.9-2.2,5.9-4.8,5.9S1568.8,68.3,1568.8,64.4z M1575.7,64.3
		v-0.5c0-2.5-0.9-3.6-2.2-3.6s-2.2,1.2-2.2,3.6v0.5c0,2.5,0.9,3.6,2.2,3.6S1575.7,66.8,1575.7,64.3z M1580.4,68.6l6.8-10.5h2.9
		l-6.9,10.5l-6.8,10.5h-3L1580.4,68.6z M1585.3,73.4v-0.5c0-3.9,2.2-5.9,4.8-5.9s4.8,2,4.8,5.9v0.5c0,3.9-2.2,5.9-4.8,5.9
		S1585.3,77.3,1585.3,73.4z M1592.2,73.3v-0.5c0-2.5-0.9-3.6-2.2-3.6s-2.2,1.2-2.2,3.6v0.5c0,2.5,0.9,3.6,2.2,3.6
		S1592.2,75.8,1592.2,73.3z"/>
</g>
<g>
	<path d="M1693.7,74.4h-9.6V72l8.9-13.9h3.6l-8.9,13.6h6v-4.6h2.9v4.6h2v2.7h-2v4.6h-2.9V74.4z"/>
	<path d="M1701.3,74.1l3.1-0.6c0.6,2.4,2.5,3.3,4.2,3.3c2.2,0,4.1-1.6,4.1-4.4v-0.1c0-2.8-1.7-4.3-3.9-4.3c-1.7,0-2.9,0.9-3.5,2
		l-2.4-0.5V58.1h11.6V61h-8.7v3.5c0,0.7,0,1.4,0,2.2c0.8-0.8,2.1-1.4,3.7-1.4c3.6,0,6.6,2.4,6.6,6.8v0.2c0,4.5-3.4,7.1-7.4,7.1
		C1705.3,79.5,1702.3,77.9,1701.3,74.1z"/>
	<path d="M1717.3,64.4v-0.6c0-3.9,2.2-5.9,4.8-5.9s4.8,2,4.8,5.9v0.6c0,3.9-2.2,5.9-4.8,5.9S1717.3,68.3,1717.3,64.4z M1724.3,64.3
		v-0.5c0-2.5-0.9-3.6-2.2-3.6s-2.2,1.2-2.2,3.6v0.5c0,2.5,0.9,3.6,2.2,3.6S1724.3,66.8,1724.3,64.3z M1728.9,68.6l6.8-10.5h2.9
		l-6.9,10.5l-6.8,10.5h-3L1728.9,68.6z M1733.8,73.4v-0.5c0-3.9,2.2-5.9,4.8-5.9s4.8,2,4.8,5.9v0.5c0,3.9-2.2,5.9-4.8,5.9
		S1733.8,77.3,1733.8,73.4z M1740.7,73.3v-0.5c0-2.5-0.9-3.6-2.2-3.6s-2.2,1.2-2.2,3.6v0.5c0,2.5,0.9,3.6,2.2,3.6
		S1740.7,75.8,1740.7,73.3z"/>
</g>
<g>
	<path d="M1842.3,74.4h-9.6V72l8.9-13.9h3.6l-8.9,13.6h6v-4.6h2.9v4.6h2v2.7h-2v4.6h-2.9V74.4z"/>
	<path d="M1864.6,68v1.1c0,7-3.4,10.2-7.5,10.2s-7.5-3.2-7.5-10.2V68c0-7,3.4-10.2,7.5-10.2S1864.6,61,1864.6,68z M1852.8,69.1
		c0,0.3,0,0.6,0,0.9l8.2-5.5c-0.7-2.8-2.2-4-3.9-4c-2.3,0-4.3,2.1-4.3,7.6V69.1z M1861.4,68.1c0-0.3,0-0.6,0-0.9l-8.2,5.5
		c0.7,2.8,2.2,4,3.9,4c2.4,0,4.3-2.1,4.3-7.6V68.1z"/>
	<path d="M1866.7,64.4v-0.6c0-3.9,2.2-5.9,4.8-5.9s4.8,2,4.8,5.9v0.6c0,3.9-2.2,5.9-4.8,5.9S1866.7,68.3,1866.7,64.4z M1873.7,64.3
		v-0.5c0-2.5-0.9-3.6-2.2-3.6s-2.2,1.2-2.2,3.6v0.5c0,2.5,0.9,3.6,2.2,3.6S1873.7,66.8,1873.7,64.3z M1878.3,68.6l6.8-10.5h2.9
		l-6.9,10.5l-6.8,10.5h-3L1878.3,68.6z M1883.2,73.4v-0.5c0-3.9,2.2-5.9,4.8-5.9s4.8,2,4.8,5.9v0.5c0,3.9-2.2,5.9-4.8,5.9
		S1883.2,77.3,1883.2,73.4z M1890.2,73.3v-0.5c0-2.5-0.9-3.6-2.2-3.6s-2.2,1.2-2.2,3.6v0.5c0,2.5,0.9,3.6,2.2,3.6
		S1890.2,75.8,1890.2,73.3z"/>
</g>
<g>
	<path d="M1996.8,72.6v0.2c0,4.2-3.3,6.7-7.3,6.7c-3.1,0-6.3-1.6-7.3-5.4l3.1-0.6c0.6,2.4,2.5,3.3,4.2,3.3c2.2,0,4.1-1.6,4.1-4v-0.1
		c0-2.5-1.8-3.9-3.9-3.9c-0.9,0-1.7,0.3-2.3,0.7l-1.8-1.9l3.8-4.1c1-1,1.8-1.8,2.6-2.5c-1,0.1-1.9,0.1-3.1,0.1h-5.4v-2.9h12.1v2.6
		l-4.6,4.9c-0.2,0.3-0.5,0.5-0.8,0.8h0.1C1994,66.4,1996.8,68.7,1996.8,72.6z"/>
	<path d="M1999.3,74.1l3.1-0.6c0.6,2.4,2.5,3.3,4.2,3.3c2.2,0,4.1-1.6,4.1-4.4v-0.1c0-2.8-1.7-4.3-3.9-4.3c-1.7,0-2.9,0.9-3.5,2
		l-2.5-0.5V58.1h11.6V61h-8.7v3.5c0,0.7,0,1.4-0.1,2.2c0.8-0.8,2.1-1.4,3.7-1.4c3.6,0,6.6,2.4,6.6,6.8v0.2c0,4.5-3.4,7.1-7.4,7.1
		C2003.3,79.5,2000.3,77.9,1999.3,74.1z"/>
	<path d="M2015.3,64.4v-0.6c0-3.9,2.2-5.9,4.8-5.9s4.8,2,4.8,5.9v0.6c0,3.9-2.2,5.9-4.8,5.9S2015.3,68.3,2015.3,64.4z M2022.3,64.3
		v-0.5c0-2.5-0.9-3.6-2.2-3.6c-1.2,0-2.2,1.2-2.2,3.6v0.5c0,2.5,0.9,3.6,2.2,3.6C2021.3,68,2022.3,66.8,2022.3,64.3z M2026.9,68.6
		l6.8-10.5h2.9l-6.9,10.5l-6.8,10.5h-3L2026.9,68.6z M2031.8,73.4v-0.5c0-3.9,2.2-5.9,4.8-5.9c2.6,0,4.8,2,4.8,5.9v0.5
		c0,3.9-2.2,5.9-4.8,5.9C2034,79.2,2031.8,77.3,2031.8,73.4z M2038.8,73.3v-0.5c0-2.5-0.9-3.6-2.2-3.6c-1.2,0-2.2,1.2-2.2,3.6v0.5
		c0,2.5,0.9,3.6,2.2,3.6C2037.8,77,2038.8,75.8,2038.8,73.3z"/>
</g>
<g>
	<path d="M2145.3,72.6v0.2c0,4.2-3.3,6.7-7.3,6.7c-3.1,0-6.3-1.6-7.3-5.4l3.1-0.6c0.6,2.4,2.5,3.3,4.2,3.3c2.2,0,4.1-1.6,4.1-4v-0.1
		c0-2.5-1.8-3.9-3.9-3.9c-0.9,0-1.7,0.3-2.3,0.7l-1.8-1.9l3.8-4.1c1-1,1.8-1.8,2.6-2.5c-1,0.1-1.9,0.1-3.1,0.1h-5.4v-2.9h12.1v2.6
		l-4.6,4.9c-0.2,0.3-0.5,0.5-0.8,0.8h0.1C2142.5,66.4,2145.3,68.7,2145.3,72.6z"/>
	<path d="M2162.6,68v1.1c0,7-3.4,10.2-7.5,10.2c-4.1,0-7.5-3.2-7.5-10.2V68c0-7,3.4-10.2,7.5-10.2C2159.2,57.8,2162.6,61,2162.6,68z
		 M2150.8,69.1c0,0.3,0,0.6,0,0.9l8.2-5.5c-0.7-2.8-2.2-4-3.9-4c-2.3,0-4.3,2.1-4.3,7.6V69.1z M2159.5,68.1c0-0.3,0-0.6,0-0.9
		l-8.2,5.5c0.7,2.8,2.2,4,3.9,4c2.4,0,4.3-2.1,4.3-7.6V68.1z"/>
	<path d="M2164.8,64.4v-0.6c0-3.9,2.2-5.9,4.8-5.9s4.8,2,4.8,5.9v0.6c0,3.9-2.2,5.9-4.8,5.9S2164.8,68.3,2164.8,64.4z M2171.7,64.3
		v-0.5c0-2.5-0.9-3.6-2.2-3.6c-1.2,0-2.2,1.2-2.2,3.6v0.5c0,2.5,0.9,3.6,2.2,3.6C2170.8,68,2171.7,66.8,2171.7,64.3z M2176.4,68.6
		l6.8-10.5h2.9l-6.9,10.5l-6.8,10.5h-2.9L2176.4,68.6z M2181.3,73.4v-0.5c0-3.9,2.2-5.9,4.8-5.9s4.8,2,4.8,5.9v0.5
		c0,3.9-2.2,5.9-4.8,5.9S2181.3,77.3,2181.3,73.4z M2188.2,73.3v-0.5c0-2.5-0.9-3.6-2.2-3.6s-2.2,1.2-2.2,3.6v0.5
		c0,2.5,0.9,3.6,2.2,3.6S2188.2,75.8,2188.2,73.3z"/>
</g>
<g>
	<path d="M2280.7,76.5l8.4-8.6c1.3-1.4,2-2.6,2-3.9v-0.1c0-2.1-1.5-3.3-3.4-3.3c-2,0-3.6,1.5-3.8,4.1l-3.1-0.6
		c0.5-4.3,3.5-6.4,7.1-6.4c3.6,0,6.6,2.2,6.6,6.1V64c0,2-1.1,3.9-3.1,5.9l-3.8,3.8c-1,1-1.8,1.8-2.7,2.5c1.1-0.1,2-0.1,3.1-0.1h6.7
		v2.9h-13.9V76.5z"/>
	<path d="M2297,74.1l3.1-0.6c0.6,2.4,2.5,3.3,4.2,3.3c2.2,0,4.1-1.6,4.1-4.4v-0.1c0-2.8-1.7-4.3-3.9-4.3c-1.7,0-2.9,0.9-3.5,2
		l-2.4-0.5V58.1h11.6V61h-8.7v3.5c0,0.7,0,1.4,0,2.2c0.8-0.8,2.1-1.4,3.7-1.4c3.6,0,6.6,2.4,6.6,6.8v0.2c0,4.5-3.4,7.1-7.4,7.1
		C2301.1,79.5,2298,77.9,2297,74.1z"/>
	<path d="M2313.1,64.4v-0.6c0-3.9,2.2-5.9,4.8-5.9s4.8,2,4.8,5.9v0.6c0,3.9-2.2,5.9-4.8,5.9S2313.1,68.3,2313.1,64.4z M2320,64.3
		v-0.5c0-2.5-0.9-3.6-2.2-3.6s-2.2,1.2-2.2,3.6v0.5c0,2.5,0.9,3.6,2.2,3.6S2320,66.8,2320,64.3z M2324.7,68.6l6.8-10.5h2.9
		l-6.9,10.5l-6.8,10.5h-3L2324.7,68.6z M2329.6,73.4v-0.5c0-3.9,2.2-5.9,4.8-5.9s4.8,2,4.8,5.9v0.5c0,3.9-2.2,5.9-4.8,5.9
		S2329.6,77.3,2329.6,73.4z M2336.5,73.3v-0.5c0-2.5-0.9-3.6-2.2-3.6s-2.2,1.2-2.2,3.6v0.5c0,2.5,0.9,3.6,2.2,3.6
		S2336.5,75.8,2336.5,73.3z"/>
</g>
<g>
	<path d="M2429.2,76.5l8.4-8.6c1.3-1.4,2-2.6,2-3.9v-0.1c0-2.1-1.5-3.3-3.4-3.3c-2,0-3.6,1.5-3.8,4.1l-3.1-0.6
		c0.5-4.3,3.5-6.4,7.1-6.4c3.6,0,6.6,2.2,6.6,6.1V64c0,2-1.1,3.9-3.1,5.9l-3.8,3.8c-1,1-1.8,1.8-2.7,2.5c1.1-0.1,2-0.1,3.1-0.1h6.7
		v2.9h-13.9V76.5z"/>
	<path d="M2460.4,68v1.1c0,7-3.4,10.2-7.5,10.2c-4.1,0-7.5-3.2-7.5-10.2V68c0-7,3.4-10.2,7.5-10.2C2457,57.8,2460.4,61,2460.4,68z
		 M2448.6,69.1c0,0.3,0,0.6,0,0.9l8.2-5.5c-0.7-2.8-2.2-4-3.9-4c-2.3,0-4.3,2.1-4.3,7.6V69.1z M2457.3,68.1c0-0.3,0-0.6,0-0.9
		l-8.2,5.5c0.7,2.8,2.2,4,3.9,4c2.4,0,4.3-2.1,4.3-7.6V68.1z"/>
	<path d="M2462.6,64.4v-0.6c0-3.9,2.2-5.9,4.8-5.9s4.8,2,4.8,5.9v0.6c0,3.9-2.2,5.9-4.8,5.9S2462.6,68.3,2462.6,64.4z M2469.5,64.3
		v-0.5c0-2.5-0.9-3.6-2.2-3.6s-2.2,1.2-2.2,3.6v0.5c0,2.5,0.9,3.6,2.2,3.6S2469.5,66.8,2469.5,64.3z M2474.2,68.6l6.8-10.5h2.9
		l-6.9,10.5l-6.8,10.5h-2.9L2474.2,68.6z M2479.1,73.4v-0.5c0-3.9,2.2-5.9,4.8-5.9c2.6,0,4.8,2,4.8,5.9v0.5c0,3.9-2.2,5.9-4.8,5.9
		C2481.3,79.2,2479.1,77.3,2479.1,73.4z M2486,73.3v-0.5c0-2.5-0.9-3.6-2.2-3.6c-1.2,0-2.2,1.2-2.2,3.6v0.5c0,2.5,0.9,3.6,2.2,3.6
		C2485.1,77,2486,75.8,2486,73.3z"/>
</g>
<g>
	<path d="M2579.3,76.4h5.4V64.7c0-1.1,0-2.3,0-3.5c-0.9,0.8-1.7,1.4-2.5,1.9l-2.5,1.7v-3.3l5.1-3.4h3v18.3h4.4v2.7h-13V76.4z"/>
	<path d="M2594.9,74.1l3.2-0.6c0.6,2.4,2.5,3.3,4.2,3.3c2.2,0,4.1-1.6,4.1-4.4v-0.1c0-2.8-1.7-4.3-3.9-4.3c-1.7,0-2.9,0.9-3.5,2
		l-2.4-0.5V58.1h11.6V61h-8.7v3.5c0,0.7,0,1.4,0,2.2c0.8-0.8,2.1-1.4,3.7-1.4c3.6,0,6.6,2.4,6.6,6.8v0.2c0,4.5-3.4,7.1-7.4,7.1
		C2599,79.5,2595.9,77.9,2594.9,74.1z"/>
	<path d="M2610.9,64.4v-0.6c0-3.9,2.2-5.9,4.8-5.9s4.8,2,4.8,5.9v0.6c0,3.9-2.2,5.9-4.8,5.9S2610.9,68.3,2610.9,64.4z M2617.9,64.3
		v-0.5c0-2.5-0.9-3.6-2.2-3.6c-1.2,0-2.2,1.2-2.2,3.6v0.5c0,2.5,0.9,3.6,2.2,3.6C2617,68,2617.9,66.8,2617.9,64.3z M2622.5,68.6
		l6.8-10.5h2.9l-6.9,10.5l-6.8,10.5h-2.9L2622.5,68.6z M2627.4,73.4v-0.5c0-3.9,2.2-5.9,4.8-5.9s4.8,2,4.8,5.9v0.5
		c0,3.9-2.2,5.9-4.8,5.9S2627.4,77.3,2627.4,73.4z M2634.4,73.3v-0.5c0-2.5-0.9-3.6-2.2-3.6s-2.2,1.2-2.2,3.6v0.5
		c0,2.5,0.9,3.6,2.2,3.6S2634.4,75.8,2634.4,73.3z"/>
</g>
<g>
	<path d="M2728,76.4h5.4V64.7c0-1.1,0-2.3,0.1-3.5c-0.9,0.8-1.7,1.4-2.5,1.9l-2.5,1.7v-3.3l5.1-3.4h3v18.3h4.4v2.7h-13V76.4z"/>
	<path d="M2758.1,68v1.1c0,7-3.4,10.2-7.5,10.2c-4.1,0-7.5-3.2-7.5-10.2V68c0-7,3.4-10.2,7.5-10.2C2754.7,57.8,2758.1,61,2758.1,68z
		 M2746.3,69.1c0,0.3,0,0.6,0,0.9l8.2-5.5c-0.7-2.8-2.2-4-3.9-4c-2.3,0-4.3,2.1-4.3,7.6V69.1z M2754.9,68.1c0-0.3,0-0.6,0-0.9
		l-8.2,5.5c0.7,2.8,2.2,4,3.9,4c2.4,0,4.3-2.1,4.3-7.6V68.1z"/>
	<path d="M2760.2,64.4v-0.6c0-3.9,2.2-5.9,4.8-5.9s4.8,2,4.8,5.9v0.6c0,3.9-2.2,5.9-4.8,5.9S2760.2,68.3,2760.2,64.4z M2767.2,64.3
		v-0.5c0-2.5-0.9-3.6-2.2-3.6s-2.2,1.2-2.2,3.6v0.5c0,2.5,0.9,3.6,2.2,3.6S2767.2,66.8,2767.2,64.3z M2771.8,68.6l6.8-10.5h2.9
		l-6.9,10.5l-6.8,10.5h-2.9L2771.8,68.6z M2776.7,73.4v-0.5c0-3.9,2.2-5.9,4.8-5.9c2.6,0,4.8,2,4.8,5.9v0.5c0,3.9-2.2,5.9-4.8,5.9
		C2778.9,79.2,2776.7,77.3,2776.7,73.4z M2783.6,73.3v-0.5c0-2.5-0.9-3.6-2.2-3.6c-1.2,0-2.2,1.2-2.2,3.6v0.5c0,2.5,0.9,3.6,2.2,3.6
		C2782.7,77,2783.6,75.8,2783.6,73.3z"/>
</g>
<g>
	<path d="M2884.7,74.1l3.1-0.6c0.6,2.4,2.5,3.3,4.2,3.3c2.2,0,4.1-1.6,4.1-4.4v-0.1c0-2.8-1.7-4.3-3.9-4.3c-1.7,0-2.9,0.9-3.5,2
		l-2.5-0.5V58.1h11.6V61h-8.7v3.5c0,0.7,0,1.4,0,2.2c0.8-0.8,2.1-1.4,3.7-1.4c3.6,0,6.6,2.4,6.6,6.8v0.2c0,4.5-3.4,7.1-7.4,7.1
		C2888.8,79.5,2885.7,77.9,2884.7,74.1z"/>
	<path d="M2900.7,64.4v-0.6c0-3.9,2.2-5.9,4.8-5.9s4.8,2,4.8,5.9v0.6c0,3.9-2.2,5.9-4.8,5.9S2900.7,68.3,2900.7,64.4z M2907.7,64.3
		v-0.5c0-2.5-0.9-3.6-2.2-3.6c-1.2,0-2.2,1.2-2.2,3.6v0.5c0,2.5,0.9,3.6,2.2,3.6C2906.8,68,2907.7,66.8,2907.7,64.3z M2912.3,68.6
		l6.8-10.5h2.9l-6.9,10.5l-6.8,10.5h-3L2912.3,68.6z M2917.2,73.4v-0.5c0-3.9,2.2-5.9,4.8-5.9c2.6,0,4.8,2,4.8,5.9v0.5
		c0,3.9-2.2,5.9-4.8,5.9C2919.4,79.2,2917.2,77.3,2917.2,73.4z M2924.2,73.3v-0.5c0-2.5-0.9-3.6-2.2-3.6c-1.2,0-2.2,1.2-2.2,3.6v0.5
		c0,2.5,0.9,3.6,2.2,3.6C2923.3,77,2924.2,75.8,2924.2,73.3z"/>
</g>
</svg>
