<svg xmlns="http://www.w3.org/2000/svg" viewBox="0 0 422.87 422.87"><defs><style>.cls-1{fill:#1a1a1a;}.cls-2{fill:#ffc500;}</style></defs><title>neutral-bg</title><g id="Lager_2" data-name="Lager 2"><g id="Lager_1-2" data-name="Lager 1"><rect class="cls-1" width="422.87" height="422.87"/><path class="cls-2" d="M26.23,105.42v-.6c0-9,5.17-14.1,11.57-14.1,4.63,0,8.83,2.77,10.5,8.24L43,100.29c-.93-3-3-4.43-5.2-4.43-3.6,0-6.07,3.13-6.07,9.07v.4c0,5.93,2.47,9.07,6.07,9.07,2.17,0,4.27-1.4,5.2-4.47l5.3,1.37c-1.63,5.47-5.87,8.24-10.5,8.24C31.4,119.52,26.23,114.46,26.23,105.42Z"/><path class="cls-2" d="M50.11,109.29V109c0-6.63,4.33-10.44,9.64-10.44s9.64,3.8,9.64,10.44v.33c0,6.63-4.33,10.44-9.64,10.44S50.11,115.92,50.11,109.29Zm14.14-.07V109c0-4-2-6.1-4.5-6.1s-4.5,2.13-4.5,6.1v.2c0,4,2,6.1,4.5,6.1S64.25,113.19,64.25,109.22Z"/><path class="cls-2" d="M72.5,113.89V91.12h5.13V113c0,1.2.5,1.73,1.4,1.73h1.1v4.4H77.7C74.5,119.12,72.5,117.32,72.5,113.89Z"/><path class="cls-2" d="M81.74,109.29V109c0-6.63,4.33-10.44,9.64-10.44S101,102.32,101,109v.33c0,6.63-4.33,10.44-9.64,10.44S81.74,115.92,81.74,109.29Zm14.14-.07V109c0-4-2-6.1-4.5-6.1s-4.5,2.13-4.5,6.1v.2c0,4,2,6.1,4.5,6.1S95.87,113.19,95.87,109.22Z"/><path class="cls-2" d="M121.34,119.12h-4.77v-2.2a6.41,6.41,0,0,1-5.43,2.6c-4.33,0-7.07-2.93-7.07-7.37v-13h5.13v11.8c0,2.67,1.23,4.2,3.33,4.2,2.27,0,3.67-1.87,3.67-4.53V99.12h5.13Z"/><path class="cls-2" d="M125.88,99.12h4.77v3.27c1.4-2.27,4-3.47,7.1-3.47v5.13c-4.27,0-6.73,2.6-6.73,6.87v8.2h-5.13Z"/><path class="cls-2" d="M149.33,119.72c-5.33,0-9.84-3.8-9.84-10.44V109c0-6.63,4.33-10.44,9.64-10.44s9.64,3.8,9.64,10.57v1.3H144.5a4.87,4.87,0,0,0,5,4.93,4.33,4.33,0,0,0,4-2.27l4.83.87A9.41,9.41,0,0,1,149.33,119.72Zm4.3-12.67c-.3-3-2.3-4.5-4.5-4.5s-4.17,1.53-4.43,4.5Z"/><path class="cls-2" d="M161.08,109.85v-1.47c0-6.47,4.17-9.67,8.5-9.67a7,7,0,0,1,5.43,2.37v-10h5.13v28h-4.77v-2a7.14,7.14,0,0,1-5.67,2.4C165.22,119.52,161.08,116.32,161.08,109.85Zm14.1-.63V109c0-3.9-1.93-5.9-4.47-5.9s-4.5,2-4.5,5.9v.2c0,3.83,1.93,5.9,4.5,5.9S175.19,113.06,175.19,109.22Z"/><path class="cls-2" d="M192.75,113.16v-9.64H190v-4.4h2.9v-6h4.77v6h5.13v4.4h-4.93v8.7c0,1.77.9,2.5,2.37,2.5h2.57v4.4h-3.93C195.12,119.12,192.75,117.12,192.75,113.16Z"/><path class="cls-2" d="M214.25,119.72c-5.33,0-9.84-3.8-9.84-10.44V109c0-6.63,4.33-10.44,9.64-10.44s9.64,3.8,9.64,10.57v1.3H209.42a4.87,4.87,0,0,0,5,4.93,4.33,4.33,0,0,0,4-2.27l4.83.87A9.41,9.41,0,0,1,214.25,119.72Zm4.3-12.67c-.3-3-2.3-4.5-4.5-4.5s-4.17,1.53-4.43,4.5Z"/><path class="cls-2" d="M238.49,119.12l-1.6-2.4c-.83-1.3-1.7-2.7-2.63-4.33-.93,1.63-1.83,3.07-2.7,4.33l-1.6,2.4h-5.7l7.2-10.3-6.6-9.7h6.07l1.57,2.4c.63,1,1.33,2.17,2.07,3.5a35,35,0,0,1,2.07-3.5l1.63-2.4h5.67l-6.6,9.44,7.2,10.57Z"/><path class="cls-2" d="M248.8,113.16v-9.64h-2.73v-4.4H249v-6h4.77v6h5.13v4.4h-4.93v8.7c0,1.77.9,2.5,2.37,2.5h2.57v4.4h-3.93C251.16,119.12,248.8,117.12,248.8,113.16Z"/><path class="cls-2" d="M267.53,109.29V109c0-6.53,4.33-10.24,9.44-10.24a8.7,8.7,0,0,1,8.64,6.67l-4.77.87a4.15,4.15,0,0,0-3.87-3.13c-2.3,0-4.3,2.07-4.3,5.9v.2c0,3.9,2,5.9,4.3,5.9a4.15,4.15,0,0,0,3.87-3.13l4.77.87a8.7,8.7,0,0,1-8.64,6.67C271.86,119.52,267.53,115.86,267.53,109.29Z"/><path class="cls-2" d="M287.63,113.69v-.27c0-3.27,2.3-6.37,7.74-6.37h5v-.6c0-2.4-1.3-3.7-3.53-3.7a3.77,3.77,0,0,0-3.83,2.57l-4.73-.87c1.6-4.3,5.17-5.73,8.83-5.73,5.23,0,8.24,2.9,8.24,7.53v12.87h-4.77v-2.2a8.39,8.39,0,0,1-6.23,2.6C290.16,119.52,287.63,117,287.63,113.69Zm12.7-2.77v-.57H296c-2.23,0-3.23,1-3.23,2.53s1.17,2.6,3,2.6A4.31,4.31,0,0,0,300.33,110.92Z"/><path class="cls-2" d="M309.62,99.12h4.77v2.2a6.41,6.41,0,0,1,5.43-2.6c4.33,0,7.07,2.93,7.07,7.37v13h-5.13v-11.8c0-2.7-1.23-4.2-3.33-4.2-2.27,0-3.67,1.87-3.67,4.53v11.47h-5.13Z"/><path class="cls-2" d="M32.2,157.12v2H27.43v-28h5.13v10A7,7,0,0,1,38,138.72c4.33,0,8.5,3.2,8.5,9.67v1.47c0,6.47-4.13,9.67-8.64,9.67A7.13,7.13,0,0,1,32.2,157.12Zm9.17-7.9V149c0-3.9-1.93-5.9-4.5-5.9s-4.47,2-4.47,5.9v.2c0,3.83,1.93,5.9,4.47,5.9S41.37,153.06,41.37,149.22Z"/><path class="cls-2" d="M58.67,159.72c-5.33,0-9.84-3.8-9.84-10.44V149c0-6.63,4.33-10.44,9.64-10.44s9.64,3.8,9.64,10.57v1.3H53.83a4.87,4.87,0,0,0,5,4.93,4.33,4.33,0,0,0,4-2.27l4.83.87A9.41,9.41,0,0,1,58.67,159.72ZM63,147.05c-.3-3-2.3-4.5-4.5-4.5s-4.17,1.53-4.43,4.5Z"/><path class="cls-2" d="M95.1,159.12H90.34v-2.2a6.41,6.41,0,0,1-5.43,2.6c-4.33,0-7.07-2.93-7.07-7.37v-13H83v11.8c0,2.67,1.23,4.2,3.33,4.2,2.27,0,3.67-1.87,3.67-4.53V139.12H95.1Z"/><path class="cls-2" d="M98,154.22l4.4-1.73a4.62,4.62,0,0,0,4.53,3c2.07,0,3.2-.9,3.2-2.23s-1.1-1.83-2.53-2.1l-3-.53c-4.43-.83-6.2-2.83-6.2-5.5,0-3.3,2.57-6.4,7.93-6.4a9.42,9.42,0,0,1,8.57,4.6l-4.37,1.77a4.23,4.23,0,0,0-4-2.33c-2,0-3,.9-3,2.1,0,1,.87,1.6,2.4,1.9l3,.53c4.43.87,6.37,2.73,6.37,5.67,0,3.5-2.7,6.57-8.1,6.57A9.7,9.7,0,0,1,98,154.22Z"/><path class="cls-2" d="M127,159.72c-5.33,0-9.84-3.8-9.84-10.44V149c0-6.63,4.33-10.44,9.64-10.44s9.64,3.8,9.64,10.57v1.3H122.12a4.87,4.87,0,0,0,5,4.93,4.33,4.33,0,0,0,4-2.27l4.83.87A9.41,9.41,0,0,1,127,159.72Zm4.3-12.67c-.3-3-2.3-4.5-4.5-4.5s-4.17,1.53-4.43,4.5Z"/><path class="cls-2" d="M138.71,149.85v-1.47c0-6.47,4.17-9.67,8.5-9.67a7,7,0,0,1,5.43,2.37v-10h5.13v28H153v-2a7.14,7.14,0,0,1-5.67,2.4C142.84,159.52,138.71,156.32,138.71,149.85Zm14.1-.63V149c0-3.9-1.93-5.9-4.47-5.9s-4.5,2-4.5,5.9v.2c0,3.83,1.93,5.9,4.5,5.9S152.81,153.06,152.81,149.22Z"/><path class="cls-2" d="M167.91,149.29V149c0-6.63,4.33-10.44,9.64-10.44s9.64,3.8,9.64,10.44v.33c0,6.63-4.33,10.44-9.64,10.44S167.91,155.92,167.91,149.29Zm14.14-.07V149c0-4-2-6.1-4.5-6.1s-4.5,2.13-4.5,6.1v.2c0,4,2,6.1,4.5,6.1S182,153.19,182,149.22Z"/><path class="cls-2" d="M190.49,139.12h4.77v2.2a6.41,6.41,0,0,1,5.43-2.6c4.33,0,7.07,2.93,7.07,7.37v13h-5.13v-11.8c0-2.7-1.23-4.2-3.33-4.2-2.27,0-3.67,1.87-3.67,4.53v11.47h-5.13Z"/><path class="cls-2" d="M218.69,139.12h4.77v2.2a6.41,6.41,0,0,1,5.43-2.6c4.33,0,7.07,2.93,7.07,7.37v13h-5.13v-11.8c0-2.7-1.23-4.2-3.33-4.2-2.27,0-3.67,1.87-3.67,4.53v11.47h-5.13Z"/><path class="cls-2" d="M248.81,159.72c-5.33,0-9.84-3.8-9.84-10.44V149c0-6.63,4.33-10.44,9.64-10.44s9.64,3.8,9.64,10.57v1.3H244a4.87,4.87,0,0,0,5,4.93,4.33,4.33,0,0,0,4-2.27l4.83.87A9.41,9.41,0,0,1,248.81,159.72Zm4.3-12.67c-.3-3-2.3-4.5-4.5-4.5s-4.17,1.53-4.43,4.5Z"/><path class="cls-2" d="M278.5,159.12h-4.77v-2.2a6.41,6.41,0,0,1-5.43,2.6c-4.33,0-7.07-2.93-7.07-7.37v-13h5.13v11.8c0,2.67,1.23,4.2,3.33,4.2,2.27,0,3.67-1.87,3.67-4.53V139.12h5.13Z"/><path class="cls-2" d="M284,153.16v-9.64h-2.73v-4.4h2.9v-6h4.77v6H294v4.4h-4.93v8.7c0,1.77.9,2.5,2.37,2.5H294v4.4h-3.93C286.35,159.12,284,157.12,284,153.16Z"/><path class="cls-2" d="M297.41,139.12h4.77v3.27c1.4-2.27,4-3.47,7.1-3.47v5.13c-4.27,0-6.73,2.6-6.73,6.87v8.2h-5.13Z"/><path class="cls-2" d="M311.25,153.69v-.27c0-3.27,2.3-6.37,7.74-6.37h5v-.6c0-2.4-1.3-3.7-3.53-3.7a3.77,3.77,0,0,0-3.83,2.57l-4.73-.87c1.6-4.3,5.17-5.73,8.83-5.73,5.23,0,8.24,2.9,8.24,7.53v12.87h-4.77v-2.2a8.39,8.39,0,0,1-6.23,2.6C313.78,159.52,311.25,157,311.25,153.69Zm12.7-2.77v-.57h-4.33c-2.23,0-3.23,1-3.23,2.53s1.17,2.6,3,2.6A4.31,4.31,0,0,0,323.95,150.92Z"/><path class="cls-2" d="M333,153.89V131.12h5.13V153c0,1.2.5,1.73,1.4,1.73h1.1v4.4h-2.43C335,159.12,333,157.32,333,153.89Z"/><path class="cls-2" d="M32.2,197.12v2H27.43v-28h5.13v10A7,7,0,0,1,38,178.72c4.33,0,8.5,3.2,8.5,9.67v1.47c0,6.47-4.13,9.67-8.64,9.67A7.13,7.13,0,0,1,32.2,197.12Zm9.17-7.9V189c0-3.9-1.93-5.9-4.5-5.9s-4.47,2-4.47,5.9v.2c0,3.83,1.93,5.9,4.47,5.9S41.37,193.06,41.37,189.22Z"/><path class="cls-2" d="M48.84,193.69v-.27c0-3.27,2.3-6.37,7.74-6.37h5v-.6c0-2.4-1.3-3.7-3.53-3.7a3.77,3.77,0,0,0-3.83,2.57l-4.73-.87c1.6-4.3,5.17-5.73,8.83-5.73,5.23,0,8.24,2.9,8.24,7.53v12.87H61.74v-2.2a8.39,8.39,0,0,1-6.23,2.6C51.37,199.52,48.84,197,48.84,193.69Zm12.7-2.77v-.57H57.21c-2.23,0-3.23,1-3.23,2.53s1.17,2.6,3,2.6A4.31,4.31,0,0,0,61.54,190.92Z"/><path class="cls-2" d="M69.71,189.29V189c0-6.53,4.33-10.24,9.44-10.24a8.7,8.7,0,0,1,8.64,6.67l-4.77.87a4.15,4.15,0,0,0-3.87-3.13c-2.3,0-4.3,2.07-4.3,5.9v.2c0,3.9,2,5.9,4.3,5.9A4.15,4.15,0,0,0,83,192l4.77.87a8.7,8.7,0,0,1-8.64,6.67C74,199.52,69.71,195.86,69.71,189.29Z"/><path class="cls-2" d="M90.5,171.12h5.13v10.67a22.5,22.5,0,0,1-.5,5.37l7-8h6.24l-7.54,8.27,7.63,11.74h-6l-5.2-8.34-1.77,1.93v6.4h-5Z"/><path class="cls-2" d="M129.93,201.42a6.3,6.3,0,0,1-6.5,6.3h-6.67a6.33,6.33,0,0,1-6.54-6.3,6.54,6.54,0,0,1,1.63-4.43,5.33,5.33,0,0,1-1.07-3.27,5,5,0,0,1,2.47-4.4,6.25,6.25,0,0,1-1.27-3.77c0-4,3.3-6.9,7.67-6.9a9,9,0,0,1,2.9.47h6.9v4.4H127a6.82,6.82,0,0,1,.3,2c0,3.9-3.27,6.87-7.67,6.87h-3c-1,0-1.5.5-1.5,1.33s.47,1.33,1.5,1.33h6.74A6.31,6.31,0,0,1,129.93,201.42Zm-4.77,0a2.26,2.26,0,0,0-2.43-2.3h-5.27a2.29,2.29,0,1,0,0,4.57h5.27A2.25,2.25,0,0,0,125.16,201.42Zm-8.6-15.87a3.1,3.1,0,0,0,6.2,0,3.1,3.1,0,0,0-6.2,0Z"/><path class="cls-2" d="M132.51,179.12h4.77v3.27c1.4-2.27,4-3.47,7.1-3.47v5.13c-4.27,0-6.73,2.6-6.73,6.87v8.2h-5.13Z"/><path class="cls-2" d="M146.13,189.29V189c0-6.63,4.33-10.44,9.64-10.44s9.64,3.8,9.64,10.44v.33c0,6.63-4.33,10.44-9.64,10.44S146.13,195.92,146.13,189.29Zm14.14-.07V189c0-4-2-6.1-4.5-6.1s-4.5,2.13-4.5,6.1v.2c0,4,2,6.1,4.5,6.1S160.26,193.19,160.26,189.22Z"/><path class="cls-2" d="M185.73,199.12H181v-2.2a6.41,6.41,0,0,1-5.43,2.6c-4.33,0-7.07-2.93-7.07-7.37v-13h5.13v11.8c0,2.67,1.23,4.2,3.33,4.2,2.27,0,3.67-1.87,3.67-4.53V179.12h5.13Z"/><path class="cls-2" d="M190.08,179.12h4.77v2.2a6.41,6.41,0,0,1,5.43-2.6c4.33,0,7.07,2.93,7.07,7.37v13h-5.13v-11.8c0-2.7-1.23-4.2-3.33-4.2-2.27,0-3.67,1.87-3.67,4.53v11.47h-5.13Z"/><path class="cls-2" d="M210.5,189.85v-1.47c0-6.47,4.17-9.67,8.5-9.67a7,7,0,0,1,5.43,2.37v-10h5.13v28H224.8v-2a7.14,7.14,0,0,1-5.67,2.4C214.63,199.52,210.5,196.32,210.5,189.85Zm14.1-.63V189c0-3.9-1.93-5.9-4.47-5.9s-4.5,2-4.5,5.9v.2c0,3.83,1.93,5.9,4.5,5.9S224.6,193.06,224.6,189.22Z"/><path class="cls-2" d="M232.45,194.22l4.4-1.73a4.62,4.62,0,0,0,4.53,3c2.07,0,3.2-.9,3.2-2.23s-1.1-1.83-2.53-2.1l-3-.53c-4.43-.83-6.2-2.83-6.2-5.5,0-3.3,2.57-6.4,7.93-6.4a9.42,9.42,0,0,1,8.57,4.6L245,185.09a4.23,4.23,0,0,0-4-2.33c-2,0-3,.9-3,2.1,0,1,.87,1.6,2.4,1.9l3,.53c4.43.87,6.37,2.73,6.37,5.67,0,3.5-2.7,6.57-8.1,6.57A9.7,9.7,0,0,1,232.45,194.22Z"/><path class="cls-2" d="M252.84,193.32H258v5.8h-5.13Z"/></g></g></svg>