<svg id="Layer_1" data-name="Layer 1" xmlns="http://www.w3.org/2000/svg" viewBox="0 0 727.7 165.52"><title>dif_display_headline</title><path d="M13.7,39.46H71.45A16.2,16.2,0,0,1,82.86,44L93.74,55.08a16.74,16.74,0,0,1,4.74,11.23v43a16.74,16.74,0,0,1-4.74,11.23L82.86,131.62a16.2,16.2,0,0,1-11.41,4.56H33V176H13.7ZM79.17,67.37,70,58.07H33v59.5H70l9.13-9.3Z" transform="translate(-13.7 -10.5)"/><path d="M123.4,39.46h57.75A16.2,16.2,0,0,1,192.56,44l10.88,11.06a16.74,16.74,0,0,1,4.74,11.23v43a16.74,16.74,0,0,1-4.74,11.23l-10.88,11.06a15.72,15.72,0,0,1-7,4l22.64,28.61V176h-15.1L162,136.18H142.71V176H123.4Zm65.47,27.91-9.13-9.3h-37v59.5h37l9.13-9.3Z" transform="translate(-13.7 -10.5)"/><path d="M235.38,39.46h78.11V58.07h-58.8V97.91H299.8v18.61H254.68v40.9h58.8V176H235.38Z" transform="translate(-13.7 -10.5)"/><path d="M342.27,39.46h20l29.49,75.48h2.81l29.49-75.48h20V176H424.77V100l.7-16.15-16.85,42.3c-1.4,4-3.51,7.37-9.13,7.37H386.85c-5.62,0-7.72-3.33-9.13-7.37l-16.85-42.3.7,16.15v76H342.27Z" transform="translate(-13.7 -10.5)"/><path d="M472.15,39.46h48.1v17.9H505.85V158.12h14.39V176h-48.1v-17.9h14.39V57.37H472.15Z" transform="translate(-13.7 -10.5)"/><path d="M564.83,137.06l-9.48,39h-16.5V162.33l28.08-115.5c1.05-4,3.51-7.37,9.13-7.37h22.29c5.62,0,8.07,3.33,9.13,7.37l28.08,115.5V176h-16.5l-9.48-39ZM560.09,10.5h19.13V29.63H560.09Zm23.52,47.57-14,60.38h35.28l-14-60.38ZM595.37,10.5H614.5V29.63H595.37Z" transform="translate(-13.7 -10.5)"/><path d="M656.62,39.46h57.75A16.2,16.2,0,0,1,725.78,44l10.88,11.06a16.74,16.74,0,0,1,4.74,11.23v43a16.74,16.74,0,0,1-4.74,11.23l-10.88,11.06a15.71,15.71,0,0,1-7,4l22.64,28.61V176H726.31l-31.07-39.84H675.93V176H656.62Zm65.47,27.91L713,58.07h-37v59.5h37l9.13-9.3Z" transform="translate(-13.7 -10.5)"/></svg>