<?xml version="1.0" encoding="utf-8"?>
<!-- Generator: Adobe Illustrator 20.1.0, SVG Export Plug-In . SVG Version: 6.00 Build 0)  -->
<svg version="1.1" id="Layer_1" xmlns="http://www.w3.org/2000/svg" xmlns:xlink="http://www.w3.org/1999/xlink" x="0px" y="0px"
	 viewBox="0 0 800 840" style="enable-background:new 0 0 800 840;" xml:space="preserve">
<style type="text/css">
	.st0{fill:#CFB571;}
	.st1{fill:#FFEC0D;}
	.st2{fill:#0568AF;}
	.st3{fill:#E21F26;}
</style>
<g>
	<g id="Guld_sköld_1_">
		<path class="st0" d="M656.1,145.7l-2.4-10.4l-10.4,2.3c-128.5,27.4-236.9-36.9-238-37.6l-5.7-3.5l-5.6,3.5
			c-1.1,0.7-109.2,65.3-237.8,38.2l-10.4-2.3l-2.4,10.4c-0.4,2-11.3,49.8-8.8,128.7c7.7,247.7,167.2,408.6,260.3,464.6l5.6,3.3
			l5.6-3.5c93-56.3,252-217.6,259.1-465.3C667.5,195.5,656.5,147.7,656.1,145.7z"/>
	</g>
	<path class="st1" d="M500.1,157.9c-35-7.3-68.8-19.5-100.4-36.3c-24,13.3-120.3,60.3-237,39.8c-2.9,17.8-8.1,57.6-6.4,112.9
		C158,334,169.4,392.9,190,448.9L500.1,157.9z"/>
	<path class="st2" d="M400.6,717.8c88.7-56.3,232.7-206.8,242.6-435.4L287.5,616.2C326.4,662.7,367.3,696.8,400.6,717.8z"/>
	<path class="st3" d="M284.8,452.8l-1.6,1.6l36.3,38.5l1.5-1.5c8.9-8.4,12.7-23,0.1-36.4C309.4,442.9,294.4,444,284.8,452.8z"/>
	<path class="st3" d="M637,160.8c-39.2,6.8-79.2,7-118.5,0.4L196,464c20.5,50.5,48.1,97.9,82.1,140.5l365.7-343.4
		C644.3,212.5,639.7,177.2,637,160.8z M341.4,508.6l-25.8,24.2l-72.5-77l25.8-24.2c21.5-20.2,53.6-18.6,74,3.1
		S362.8,488.6,341.4,508.6z M404.9,452.8c-6.5,6.1-16.7,5.8-22.8-0.7c-6.1-6.5-5.8-16.7,0.7-22.8c6.5-6.1,16.7-5.8,22.8,0.7
		c0,0,0,0,0,0C411.6,436.5,411.3,446.7,404.9,452.8z M438.2,417.5l-72.4-77.2l22.2-20.8l72.4,77.2L438.2,417.5z M498,365.5
		c-6.5,6.1-16.7,5.8-22.8-0.7c-6.1-6.5-5.8-16.7,0.7-22.8s16.7-5.8,22.8,0.7c0,0,0,0,0,0C504.7,349.1,504.4,359.3,498,365.5
		L498,365.5z M553.5,309.2l-22,20.7L459,252.7l45.9-43.2l18.6,19.8l-23.9,22.4l12,12.6l23.6-22.2l18.6,19.8l-23.6,22.2L553.5,309.2z
		 M597.3,272.3c-6.5,6.1-16.7,5.8-22.8-0.7s-5.8-16.7,0.7-22.8c6.5-6.1,16.7-5.8,22.8,0.7c0,0,0,0,0,0c6.1,6.4,5.9,16.6-0.5,22.7
		C597.4,272.1,597.4,272.2,597.3,272.3L597.3,272.3z"/>
</g>
</svg>
