<svg xmlns="http://www.w3.org/2000/svg" viewBox="0 0 1700.79 1700.79"><defs><style>.cls-1{fill:#fff;}.cls-1,.cls-14,.cls-6{stroke:#b4b4b4;stroke-miterlimit:10;}.cls-11,.cls-15,.cls-2{fill:#cfb571;}.cls-3{fill:#ffec0d;}.cls-4{fill:#0568af;}.cls-5{fill:#e21f26;}.cls-14,.cls-6{fill:none;}.cls-7{fill:#998247;}.cls-8{fill:#fff100;}.cls-9{fill:#e4412b;}.cls-10{fill:#006bb5;}.cls-11{font-size:90.51px;}.cls-11,.cls-15{font-family:MaisonNeue-Demi, Maison Neue;}.cls-12{letter-spacing:-0.02em;}.cls-13{letter-spacing:-0.01em;}.cls-14{stroke-width:0.5px;}.cls-15{font-size:90.56px;}.cls-16{letter-spacing:-0.02em;}.cls-17{letter-spacing:-0.01em;}</style></defs><title>DIF_skold_clearspace_stacked</title><g id="Sheild_type" data-name="Sheild + type"><rect class="cls-1" width="502.97" height="570.81"/><g id="Guld_sköld" data-name="Guld sköld"><path class="cls-2" d="M402.2,124.05l-1.43-6.1-6.12,1.31c-75.65,16.15-139.39-21.74-140-22.12l-3.32-2-3.3,2c-.63.38-64.27,38.45-140,22.49l-6.12-1.29-1.41,6.1c-.27,1.17-6.61,29.29-5.17,75.77C99.86,346,193.75,440.69,248.52,473.69l3.3,2,3.3-2c54.68-33.13,148.32-128.1,152.46-273.87C408.89,153.33,402.47,125.22,402.2,124.05Z"/></g><path class="cls-3" d="M310.4,131.26a224.53,224.53,0,0,1-59.06-21.32c-14.16,7.78-70.81,35.51-139.51,23.42-1.73,10.45-4.74,33.92-3.73,66.46A324.1,324.1,0,0,0,128,302.5Z"/><path class="cls-4" d="M251.8,460.73C304,427.6,388.75,339,394.59,204.46L185.25,401C208.13,428.3,232.25,448.39,251.8,460.73Z"/><path class="cls-5" d="M183.71,304.83l-1,.91L204,328.4l.88-.83c5.2-4.89,7.48-13.51.06-21.4C198.17,298.93,189.3,299.57,183.71,304.83Z"/><path class="cls-5" d="M390.92,133a206.92,206.92,0,0,1-69.75.27L131.42,311.38a334.5,334.5,0,0,0,48.24,82.73L394.93,192C395.23,163.39,392.54,142.61,390.92,133ZM217,337.67l-15.15,14.25-42.69-45.4,15.15-14.25c12.64-11.89,31.54-10.94,43.54,1.82S229.56,325.83,217,337.67Zm37.34-32.83a9.5,9.5,0,1,1,.43-13.42A9.5,9.5,0,0,1,254.31,304.83ZM274,284l-42.63-45.43,13.07-12.27L287,271.78Zm35.15-30.64a9.5,9.5,0,1,1,.43-13.42A9.5,9.5,0,0,1,309.12,253.41Zm32.68-33.12-13,12.2-42.69-45.4,27.06-25.44,11,11.65-14.09,13.24,7,7.43,13.87-13,10.93,11.62-13.87,13Zm25.81-21.76A9.5,9.5,0,1,1,368,185.1,9.5,9.5,0,0,1,367.6,198.52Z"/><line class="cls-6" y1="95.14" x2="502.97" y2="95.14"/><line class="cls-6" x1="95.14" y1="570.81" x2="95.14"/><line class="cls-6" x1="95.14" y1="570.81" x2="95.14"/><line class="cls-6" x1="407.75" y1="570.81" x2="407.75"/><line class="cls-6" y1="190.27" x2="502.97" y2="190.27"/><line class="cls-6" y1="285.41" x2="502.97" y2="285.41"/><line class="cls-6" y1="380.54" x2="502.97" y2="380.54"/><line class="cls-6" y1="475.68" x2="502.97" y2="475.68"/><line class="cls-6" x1="502.97" x2="407.75" y2="95.14"/><line class="cls-6" x1="407.75" x2="502.97" y2="95.14"/><line class="cls-6" x1="95.22" y2="95.14"/><line class="cls-6" x2="95.22" y2="95.14"/><line class="cls-6" x1="502.97" y1="475.68" x2="407.75" y2="570.81"/><line class="cls-6" x1="407.75" y1="475.68" x2="502.97" y2="570.81"/><line class="cls-6" x1="95.22" y1="475.68" y2="570.81"/><line class="cls-6" y1="475.68" x2="95.22" y2="570.81"/><rect class="cls-1" x="568.06" width="636.19" height="570.81"/><line class="cls-6" x1="568.06" y1="95.14" x2="1204.25" y2="95.14"/><line class="cls-6" x1="663.19" y1="570.81" x2="663.19"/><line class="cls-6" x1="1108.25" y1="570.81" x2="1108.25"/><line class="cls-6" x1="634.9" x2="1137.88"/><line class="cls-6" x1="568.06" y1="190.27" x2="1204.25" y2="190.27"/><line class="cls-6" x1="568.06" y1="285.41" x2="1204.25" y2="285.41"/><line class="cls-6" x1="568.06" y1="380.54" x2="1204.25" y2="380.54"/><line class="cls-6" x1="568.06" y1="475.68" x2="1204.25" y2="475.68"/><line class="cls-6" x1="1203.48" x2="1108.25" y2="95.14"/><line class="cls-6" x1="1108.25" x2="1203.48" y2="95.14"/><line class="cls-6" x1="663.28" x2="568.06" y2="95.14"/><line class="cls-6" x1="568.06" x2="663.28" y2="95.14"/><line class="cls-6" x1="1203.48" y1="475.68" x2="1108.25" y2="570.81"/><line class="cls-6" x1="1108.25" y1="475.68" x2="1203.48" y2="570.81"/><line class="cls-6" x1="663.28" y1="475.68" x2="568.06" y2="570.81"/><line class="cls-6" x1="568.06" y1="475.68" x2="663.28" y2="570.81"/><path class="cls-7" d="M734.92,248.24H711.7s-11.29,13-11.32,13.15v18.15l5.39,5.12-5.39,5.12v18.64c.18.27,9.37,12.23,9.55,12.7h24.34s10.16-13,10.2-13.15V289.83l-5.39-5.12,5.39-5.12V260.95C744.28,260.68,735.09,248.72,734.92,248.24Zm4.49,29.25-7.23,7.32-.33,0,7.57,7.17v15.16c0,.09-7.59,10.12-7.59,10.12h-19c-.14-.36-7.21-9.57-7.35-9.78l0-.38V291.88l7.23-7.32.33,0-7.56-7.17V262.28c0-.09,8.72-10.12,8.72-10.12H732c.14.36,7.21,9.57,7.35,9.78l0,.38Z"/><path class="cls-7" d="M685.23,306V248.68H663.5l.11,14.88h4.77V306h-4.77v14.6h26.68V306Zm0,10.67H668.38v-6.46h4.77V259.51h-4.77v-6.89h12.36v57.57h4.49C685.23,312.67,685.3,314.75,685.23,316.64Z"/><path class="cls-7" d="M1103.2,306.1V248.81h-21.73l.11,14.88h4.77v42.4h-4.77v14.6h26.68V306.1Zm0,10.67h-16.85v-6.46h4.77V259.63h-4.77v-6.89h12.36v57.57h4.49C1103.2,312.8,1103.27,314.88,1103.2,316.77Z"/><path class="cls-7" d="M728.74,258.51H716.66L713,261.89v14.8l3.65,3.38,11.44,0,3.78-3.49V263Zm-2,17.13h-8.71v-13h8.71Z"/><path class="cls-7" d="M716.73,289.3,713,292.79v13.6l3.15,4.47h12.07l3.65-3.38v-14.8l-3.65-3.38Zm10,17.41h-8.71v-13h8.71Z"/><path class="cls-7" d="M1061,248.38h-23.21s-11.29,14.09-11.33,14.22v19.63l9.83,10.11h16.57V306.1h-8.43v-4.77h-18.12v9.83l10.26,9.83h24.15l9.83-10.11V262.12C1070.33,261.83,1061.14,248.89,1061,248.38Zm4.45,60.61-7.56,7.78h-18.59l-7.37-7.56v-3.67h8v2.66l3.09,2.68h11.51l3.43-3.85V287.72H1039l-7.57-7.75v-16.4c0-.1,8.72-10.95,8.72-10.95h17.87c.14.39,7.21,10.35,7.35,10.58Z"/><path class="cls-7" d="M1054.78,259.48h-12.07l-3.65,3.65v16l3.65,3.65h15.23V264.31Zm-2,18.53h-8.71V264h8.71Z"/><path class="cls-7" d="M706.77,224.26l.93-2.39c2.49-6.41,7.58-8,12.63-6s7.91,6.81,5.61,12.73l-1,2.7Zm-1.11,3,18.09,7-1,2.66,2.14.83,3.4-8.77c3.08-7.93-1.12-13.84-6.66-16-7.28-2.82-13.27,1.05-15.46,6.69L702.49,229l2.14.83Z"/><path class="cls-7" d="M712.31,205.13l4.25-8.35,2,1-1.36,2.67,17.27,8.78c3.29,1.67,4.94,4.07,3.19,7.51l-.75,1.48L734.41,217l.57-1.13c.72-1.42.51-2.54-.94-3.28l-18.22-9.26-1.46,2.87Z"/><path class="cls-7" d="M725.31,182.23l4.61-7.19,1.93,1.24-1.36,2.13,11.1,7.12c5,3.23,5.76,7.76,3.05,12s-7.13,5.45-12.16,2.23l-11.1-7.12L720,194.74l-1.93-1.24,4.61-7.19,1.93,1.24L723.08,190,735,197.58c3,1.94,5.64.93,7.27-1.61s1.45-5.34-1.57-7.28l-11.89-7.62-1.54,2.41Z"/><path class="cls-7" d="M738.18,168.46l2.27-2.69c1.67-2,3.93-4,6.42-1.93s1.56,4.84-.32,7.08l-2.27,2.69Zm18.42,11.82-1.75-1.48L753,181l-7-5.9,2.55-3c1.39-1.65,3-3,4.88-1.45l6.6,5.57,3.84-4.54-1.75-1.48-1.8,2.13L755.26,168a3.23,3.23,0,0,0-4.73.14l-.05,0c.79-2.68.73-4.73-1.55-6.66-2.79-2.36-6.08-2-8.88,1.24l-7.48,8.86,1.75,1.48,1.82-2.16L751,183.4l-1.82,2.16,1.75,1.48Z"/><path class="cls-7" d="M769.3,145.49a8,8,0,0,0-9.81.68,9.69,9.69,0,0,0,12.86,14.44,8.29,8.29,0,0,0,2-9.72l-4.69,4.18L768,153.13l8.66-7.71,1.72,1.94-2.08,1.86,5.48,6.15-1.94,1.72-1.9-2.13c-.34,3.42-1.32,5.71-3.65,7.79A12.53,12.53,0,0,1,757.59,144a11,11,0,0,1,7.53-2.79l-1.59-1.79,1.93-1.72L771,144Z"/><path class="cls-7" d="M776.82,123.65a1.81,1.81,0,0,1,.52-2.6,1.85,1.85,0,0,1,2.62.55,1.78,1.78,0,0,1-.54,2.62A1.75,1.75,0,0,1,776.82,123.65Zm3.41,1.81a3.38,3.38,0,0,0,1-4.69,3.37,3.37,0,1,0-5.64,3.7A3.35,3.35,0,0,0,780.23,125.47Zm-2.65,6.27,2.45-1.6,5,19.93-1.92,1.26,1.26,1.92,6.75-4.43-1.26-1.92-2.42,1.59-1.6-6,6.95-4.56,4.83,3.91-2.42,1.59,1.26,1.92,7-4.57-1.26-1.92L800.31,140l-16-12.69,2.42-1.59-1.26-1.92-9.11,6Zm13.34,4.65-5.64,3.7-2.81-10.4.06,0Z"/><path class="cls-7" d="M800.16,118.27l3.18-1.53c2.34-1.12,5.23-2.07,6.64.86s-.55,5.06-3.19,6.33l-3.18,1.53Zm12,18.32-1-2.07-2.58,1.24-4-8.24,3.56-1.71c1.95-.94,4-1.54,5,.67l3.74,7.79,5.36-2.58-1-2.07-2.52,1.21-2.88-6a3.23,3.23,0,0,0-4.37-1.81l0-.06c1.82-2.13,2.6-4,1.31-6.71-1.58-3.3-4.75-4.28-8.61-2.5l-10.45,5,1,2.07,2.55-1.22,8.4,17.49-2.55,1.22,1,2.07Z"/><path class="cls-7" d="M822.25,108.71l2.43-.79c6.54-2.13,11,.83,12.64,6s-.27,10.43-6.3,12.4l-2.75.9Zm-3,1,6,18.45-2.72.89.71,2.18,8.94-2.91c8.09-2.64,10-9.62,8.16-15.28-2.42-7.42-9.21-9.61-15-7.74l-9.57,3.12.71,2.18Z"/><path class="cls-7" d="M845.42,124.2,845,122l2.81-.54-3.64-19.06-2.81.54-.43-2.25,18.21-3.47,1.2,6.3-2.81.54-.77-4-9.5,1.81,1.43,7.51,8-1.53.49,2.55-8,1.53,1.72,9,9.5-1.81-.91-4.77,2.81-.53,1.34,7Z"/><path class="cls-7" d="M866.08,98.65l-2.65.17-.15-2.29,6.17-.39L880.62,113h.07l-1-15.25L877,98l-.15-2.29,8.42-.54.15,2.29-2.69.17,1.38,21.65-2.72.17-12-18h-.07l1,16.41,3-.19.15,2.29-8.66.55-.15-2.29,2.72-.17Z"/><path class="cls-7" d="M891.56,111.26a6.75,6.75,0,0,0,6.33,6.35c2.49.16,5.16-1.11,5.33-3.83.42-6.7-14.22-3.59-13.66-12.67.27-4.34,3.78-6.16,7.76-5.91a7.82,7.82,0,0,1,5.84,2.93l.13-2,2.59.16-.44,7-2.65-.17a5.78,5.78,0,0,0-5.37-5.2c-3.05-.19-4.74,1.33-4.86,3.26-.36,5.74,14.26,3,13.66,12.57a7.17,7.17,0,0,1-7.87,6.6,10.41,10.41,0,0,1-7.14-3l-.12,2-2.59-.16.51-8.12Z"/><path class="cls-7" d="M915.59,121.89l.46-2.25,2.83.58,3.86-19-2.77-.56.46-2.25,8.76,1.78-.46,2.25-2.9-.59-3.86,19,2.83.57-.46,2.25Z"/><path class="cls-7" d="M932.12,103l.66-2.2,17.6,5.26-1.84,6.14-2.74-.82,1.18-3.95-9.11-2.72-2.19,7.32,8,2.4L943,117l-8-2.4-2.63,8.79,3.25,1-.66,2.2-9.07-2.71.66-2.2,2.8.84,5.56-18.59Z"/><path class="cls-7" d="M961.64,113l1-2.06L979.16,119l-2.81,5.76-2.57-1.25,1.81-3.7L967,115.62l-3.36,6.87,7.52,3.68-1.14,2.33-7.52-3.68-4,8.24,3,1.49-1,2.06-8.51-4.16,1-2.06,2.63,1.28,8.52-17.44Z"/><path class="cls-7" d="M992.45,130a9.67,9.67,0,1,1-13.22,2.77A9.4,9.4,0,0,1,992.45,130Zm1.59-2.37a12.53,12.53,0,1,0,3.47,17.42A12.45,12.45,0,0,0,994,127.68Z"/><path class="cls-7" d="M1003.42,143.22l4.42-5,13.53,12-4.42,5-2.13-1.9,2.89-3.25-3.45-3.07-12.9,14.49,2.23,2-1.52,1.71-6.83-6.08,1.52-1.71,2.23,2,12.9-14.49-3.45-3.07-2.89,3.25Z"/><path class="cls-7" d="M1018.93,165.87l1.68,1.89c2.65,3,2.94,5.3.51,7.47s-4.56,1.93-7.41-1.27L1012,172Zm7.57-6.74,2.08,2.33c1.81,2,1.85,4.32-.11,6.06-1.56,1.39-4.19.89-5.63-.72l-2.19-2.46Zm-20.2,9.95,5.95,6.67c3.32,3.72,7,5.37,10.73,2.05,3.47-3.1,2.27-6.34,1.48-7.73l.05,0a5,5,0,0,0,6.4-.46c3-2.68,2.83-5.77-.69-9.71l-6-6.7-1.71,1.53,1.86,2.08-14.49,12.91-1.9-2.13Z"/><path class="cls-7" d="M1044.65,182.23a9.67,9.67,0,1,1-13.29-2.45A9.4,9.4,0,0,1,1044.65,182.23Zm2.37-1.59a12.53,12.53,0,1,0-3.39,17.44A12.45,12.45,0,0,0,1047,180.64Z"/><path class="cls-7" d="M1053.61,196.54l2.06-1,4,8.16-2.06,1-1.37-2.77-17.4,8.59,3.3,6.67,4.26-2.1,1.27,2.56-6.32,3.12-7.25-14.69,2.06-1,1.3,2.62,17.4-8.59Z"/><path class="cls-7" d="M1062.34,214.67l2.15-.79,3.14,8.55-2.15.79-1.07-2.9-18.21,6.7,2.57,7,4.46-1.64,1,2.68-6.61,2.43L1042,222.1l2.15-.79,1,2.74,18.21-6.7Z"/><path class="cls-7" d="M715,344.09a6.65,6.65,0,0,0-3.48,8.13c.78,2.33,2.92,4.31,5.46,3.46,6.28-2.09-2-14.32,6.55-17.15,4.07-1.35,7,1.19,8.26,4.91a7.72,7.72,0,0,1-.52,6.42l1.9-.63.8,2.42-6.59,2.19-.83-2.49a5.69,5.69,0,0,0,2.77-6.82c-1-2.86-3-3.84-4.77-3.24-5.38,1.79,2.52,14.14-6.46,17.12a7.06,7.06,0,0,1-8.93-4.76,10.26,10.26,0,0,1,.09-7.62l-1.86.62-.81-2.42,7.61-2.53Z"/><path class="cls-7" d="M729.82,358.88l5.85-2.95,8,15.94-5.85,2.95-1.27-2.51,3.83-1.93-2-4.06-17.08,8.6,1.33,2.63-2,1-4.05-8,2-1,1.33,2.63,17.08-8.6-2-4.06-3.83,1.93Z"/><path class="cls-7" d="M750.42,385.88a9.53,9.53,0,1,1-13.17-1.93A9.26,9.26,0,0,1,750.42,385.88Zm2.28-1.65a12.34,12.34,0,1,0-2.7,17.29A12.26,12.26,0,0,0,752.7,384.23Z"/><path class="cls-7" d="M770.19,415.45c1.66-3.1.69-6.37-1.74-8.76-3.65-3.57-9.09-3-12.73.75s-4.25,9.31-.6,12.88c2.83,2.77,5.83,3.36,9.35,1.82l2.06,2a10.59,10.59,0,0,1-13.33-1.77c-5-4.9-4.45-12.27.25-17.07s12-5.48,16.89-.7a11.31,11.31,0,0,1,3.46,6.91l1.4-1.43,1.83,1.79-5.13,5.24Z"/><path class="cls-7" d="M787.55,419.86l-1.32,1.83-2.41-1.75-5.34,7.37.05,0,12.1-2.48-2-1.48,1.33-1.83,6.87,5-1.33,1.83-1.75-1.27-12.37,2.52,0,.05,1.09,12.84,1.86,1.34-1.32,1.83-6.9-5,1.33-1.83,2,1.48-1.15-12.6-.05,0-5.59,7.72,2.39,1.73L773.67,439l-7.16-5.18,1.33-1.83,2.25,1.63,11.21-15.49-2.2-1.59,1.33-1.83Z"/><path class="cls-7" d="M787.5,448.6l1.05-2,2.4,1.27L799.88,431l-2.4-1.27,1.05-2,7.85,4.14-1.05,2-2.69-1.42L799,439.24l9.21,4.86,3.61-6.83-2.66-1.41,1.05-2,7.82,4.13L817,440l-2.4-1.27-8.93,16.91,2.4,1.27-1.05,2-7.85-4.14,1.05-2,2.69,1.42,4.13-7.82-9.21-4.86-4.13,7.82,2.66,1.41-1.06,2Z"/><path class="cls-7" d="M831.42,445.31a9.53,9.53,0,1,1-11.88,6A9.26,9.26,0,0,1,831.42,445.31Zm.91-2.67a12.34,12.34,0,1,0,7.76,15.69A12.26,12.26,0,0,0,832.33,442.65Z"/><path class="cls-7" d="M846.4,449.82l.41-2.22,8.82,1.65-.42,2.22-3-.56-3.52,18.79,7.21,1.35.86-4.6,2.77.52-1.28,6.82-15.87-3,.42-2.22,2.83.53,3.52-18.8Z"/><path class="cls-7" d="M870.53,472.82l3,.08-.06,2.26-8.74-.25.06-2.26,2.81.08.54-19.11-2.81-.08.06-2.26,7.63.22,5.6,16.31h.07l6.58-16,7.2.2-.06,2.26-2.81-.08L889,473.34l2.81.08-.06,2.26-8.64-.24.06-2.26,2.88.08.51-18h-.07l-7.39,18-1.6,0-6.42-18.36H871Z"/><path class="cls-7" d="M900,466.66a6.65,6.65,0,0,0,7.3,5c2.44-.31,4.79-2,4.46-4.69-.83-6.56-14.43-.84-15.56-9.74-.54-4.25,2.52-6.66,6.42-7.15a7.72,7.72,0,0,1,6.2,1.76l-.25-2,2.53-.32.87,6.89-2.6.33a5.69,5.69,0,0,0-6.16-4c-3,.38-4.34,2.17-4.11,4.05.71,5.62,14.36.26,15.55,9.65a7.06,7.06,0,0,1-6.4,7.84,10.27,10.27,0,0,1-7.46-1.56l.25,1.95-2.53.32-1-8Z"/><path class="cls-7" d="M932.45,460.66a6.65,6.65,0,0,0,8.06,3.63c2.34-.73,4.36-2.83,3.57-5.4-2-6.31-14.36,1.69-17-6.87-1.27-4.1,1.32-7,5.07-8.16a7.71,7.71,0,0,1,6.41.65l-.59-1.91,2.44-.76,2.06,6.63-2.5.78a5.69,5.69,0,0,0-6.77-2.9c-2.88.89-3.9,2.89-3.33,4.71,1.68,5.41,14.18-2.26,17,6.78a7.06,7.06,0,0,1-4.93,8.84,10.26,10.26,0,0,1-7.62-.23l.58,1.88-2.44.76L930,461.42Z"/><path class="cls-7" d="M947.58,446.21l-2.67-6,16.3-7.27,2.67,6-2.57,1.15-1.75-3.92L955.4,438l7.79,17.46,2.69-1.2.92,2.06L958.58,460l-.92-2.06,2.69-1.2-7.79-17.46-4.16,1.85,1.75,3.92Z"/><path class="cls-7" d="M975.79,427.12a9.53,9.53,0,1,1-2.86,13A9.26,9.26,0,0,1,975.79,427.12Zm-1.49-2.39a12.34,12.34,0,1,0,17.06,3.92A12.27,12.27,0,0,0,974.3,424.73Z"/><path class="cls-7" d="M988.82,418.38l-1.44-1.74,6.9-5.73,1.44,1.74-2.34,1.94,12.21,14.72,5.64-4.68-3-3.6,2.17-1.8,4.43,5.34-12.42,10.31-1.44-1.74,2.22-1.84L991,416.58Z"/><path class="cls-7" d="M1005.08,410.43l-4.7-4.56,12.43-12.8,4.7,4.56-2,2-3.08-3-3.17,3.26L1023,413.25l2.05-2.11,1.62,1.57-6.27,6.46-1.62-1.57,2.05-2.11-13.72-13.32-3.17,3.27,3.08,3Z"/><path class="cls-7" d="M1033.78,405l-1.83-1.32,1.59-2.2L1018,390.32l-1.59,2.2-1.83-1.32,5.19-7.2,1.83,1.32-1.78,2.47,6.27,4.52,6.09-8.44-6.27-4.52-1.76,2.44-1.83-1.32,5.17-7.17,1.83,1.32-1.59,2.2L1043.27,388l1.59-2.2,1.83,1.32-5.19,7.2-1.83-1.32,1.78-2.47-7.17-5.17-6.09,8.44,7.17,5.17,1.76-2.44,1.83,1.32Z"/><path class="cls-7" d="M1049.68,382l-2-1,1.27-2.51-17.07-8.62-1.27,2.51-2-1,8.23-16.31,5.64,2.85-1.27,2.51-3.62-1.83-4.29,8.5,6.72,3.39,3.62-7.16,2.28,1.15-3.62,7.16,8.07,4.07,4.29-8.51-4.27-2.15,1.27-2.51,6.28,3.17Z"/><path class="cls-7" d="M1044,354.63l-6.23-2,5.47-17,6.23,2-.86,2.68-4.08-1.32-1.4,4.33,18.2,5.86.9-2.8,2.15.69-2.76,8.57-2.15-.69.9-2.8-18.2-5.86-1.4,4.33,4.08,1.32Z"/><path class="cls-7" d="M902.33,176.39c24.8,10.8,56.25,13.65,84.14,7.59.48,0,.48.71.59,1.07,14,75.24-8,149.88-58.39,204.47-12.94,13.29-27.06,25.75-42.6,35.48l-.95-.24a216.39,216.39,0,0,1-33-25.52c-33.82-31-58.15-71.68-67.88-115a176.64,176.64,0,0,1-5.34-29.31A229.4,229.4,0,0,1,777.25,228c.12-4,0-8.07.47-11.87a61.24,61.24,0,0,1,.48-8.07c.59-7.24,1.66-14.72,3-22.07,7.59.95,15.43,2.37,23.38,2.37,29.31.95,56-6.53,79.39-21.24A177.6,177.6,0,0,0,902.33,176.39Z"/><path class="cls-8" d="M888.92,180.07a143.14,143.14,0,0,0,37,13.05l.24.24c-4.75,4.39-9.73,8.9-14.12,13.17l-23.85,22.55c-28.72,26.7-57.08,54.35-86.16,80.58-.12.12-.36.24-.59.47-14.48-35.25-19-75.24-13.41-113.81l.36-.24a147.33,147.33,0,0,0,95.18-18.39C885.6,177.81,887,179.35,888.92,180.07Z"/><path class="cls-9" d="M980.18,196.68a236.58,236.58,0,0,1,2.37,37.62l-4.39,4-17.68,16.73c-19.58,19.11-41.18,37.86-60.64,57.08-2.37,2.14-4.87,4.39-7,6.65l-.47.24c-17.8,16.85-36.31,34.3-54.35,51.15-.48,0-.48.71-1.07.47a228.11,228.11,0,0,1-33-54.11l.12-.48,40.7-38.33,69.42-65.27c6.29-5.7,12.58-12,19.11-17.56,1.66-.71,3.44.24,5.22.24a141.78,141.78,0,0,0,40.71-.95C980.78,194.19,979.83,195.85,980.18,196.68Z"/><path class="cls-7" d="M936.27,220.42v.36l-8.07,7.71,3.09,3.32c3-2,5.22-4.63,7.71-7,2.73,2.49,5.34,5.46,7.71,8.07v.24c-2.73,2.37-5,4.87-7.48,7.24,3.56,3.8,7,7.59,10.56,11.39a82.19,82.19,0,0,1-8.66,8.31c-9.73-10.68-19.94-20.41-29.55-31.33,1.54-1.78,3.68-3.32,5.46-5.1,3.8-4,7.83-7.12,11.51-11l.83.36Z"/><path class="cls-7" d="M968,228.37a6.84,6.84,0,0,1,.12,7.48,6.66,6.66,0,0,1-4.86,3.09,6.64,6.64,0,0,1-6.05-9.85,6.44,6.44,0,0,1,5.1-3.32C964.64,225.4,966.53,226.59,968,228.37Z"/><path class="cls-10" d="M982.2,245.57c-.59,4.51-1,9.26-1.54,13.77l.12.24a255.54,255.54,0,0,1-9.38,40.59h0a279.53,279.53,0,0,1-10.56,26.46c-9.61,19.7-22,39.52-37.74,55.89-11,11.51-22.55,22.19-35.72,31.33-2,1.9-3.56-.83-5.22-1.66a224,224,0,0,1-41.06-36.91l8.66-8.42,24.45-23.14L886.67,332l48.42-45.33,11.75-11,31.57-29.79,3.44-3.2C982.32,243.2,982,244.62,982.2,245.57Z"/><path class="cls-7" d="M913.73,285.57c-2.73,2.73-5.82,5.46-8.78,8.19-.48.12-.59-.59-.83-.95-9.49-10.21-19.46-20.53-28.48-30.62,2.85-2.85,5.82-5.34,8.9-8.19l7.12,7.48Z"/><path class="cls-7" d="M928.2,268a6.74,6.74,0,0,1-1.19,6.53c-1.31,2.14-3.92,2.61-6.29,2.25a6.82,6.82,0,0,1-5.1-5,7.08,7.08,0,0,1,2.61-6.53,6.41,6.41,0,0,1,6.65-.83A8,8,0,0,1,928.2,268Z"/><path class="cls-7" d="M868.51,304.91c3.44,5.7,4.63,13.88,1.42,20.17-1.42,3.09-4.39,5.7-6.76,8.19l-8.78,8.19-12-13.05-17.33-18.63c7.36-5.93,13.17-15.31,23.62-16C857,293.4,864,298.15,868.51,304.91Z"/><path class="cls-7" d="M892.13,300.52a6.8,6.8,0,0,1,0,6.41,6.47,6.47,0,0,1-5.34,3.32,6.59,6.59,0,0,1-6.05-3.32,7,7,0,0,1,.36-7,7.19,7.19,0,0,1,7.12-2.49A6.71,6.71,0,0,1,892.13,300.52Z"/><path class="cls-9" d="M858.9,312.62a10.28,10.28,0,0,1-.36,10c-.83.83-1.31,2.25-2.73,2.14l-14.24-15.31c.59-1.19,2-1.9,3.09-2.49a9.36,9.36,0,0,1,9,.12A13.93,13.93,0,0,1,858.9,312.62Z"/></g><g id="Guides"><rect class="cls-1" y="654.89" width="998.03" height="570.81"/><text class="cls-11" transform="translate(447.69 924.97)">Dju<tspan class="cls-12" x="135.77" y="0">r</tspan><tspan x="166.73" y="0">gården</tspan><tspan class="cls-13" x="0" y="95.09">F</tspan><tspan x="49.96" y="95.09">otboll</tspan></text><g id="Guld_sköld-2" data-name="Guld sköld"><path class="cls-2" d="M402.2,778.95l-1.43-6.1-6.12,1.31C319,790.32,255.27,752.42,254.64,752l-3.32-2-3.3,2c-.63.38-64.27,38.45-140,22.49l-6.12-1.29-1.41,6.1c-.27,1.17-6.61,29.29-5.17,75.77,4.52,145.75,98.4,240.48,153.17,273.47l3.3,2,3.3-2c54.68-33.13,148.32-128.1,152.46-273.87C408.89,808.22,402.47,780.12,402.2,778.95Z"/></g><path class="cls-3" d="M310.4,786.15a224.53,224.53,0,0,1-59.06-21.32c-14.16,7.78-70.81,35.51-139.51,23.42-1.73,10.45-4.74,33.92-3.73,66.46A324.1,324.1,0,0,0,128,957.39Z"/><path class="cls-4" d="M251.8,1115.62c52.2-33.13,137-121.71,142.79-256.27L185.25,1055.86C208.13,1083.19,232.25,1103.29,251.8,1115.62Z"/><path class="cls-5" d="M183.71,959.73l-1,.91L204,983.3l.88-.83c5.2-4.89,7.48-13.51.06-21.4C198.17,953.82,189.3,954.47,183.71,959.73Z"/><path class="cls-5" d="M390.92,787.89a206.92,206.92,0,0,1-69.75.27L131.42,966.27A334.5,334.5,0,0,0,179.67,1049L394.93,846.92C395.23,818.28,392.54,797.51,390.92,787.89ZM217,992.56l-15.15,14.25-42.69-45.4,15.15-14.25c12.64-11.89,31.54-10.94,43.54,1.82S229.56,980.73,217,992.56Zm37.34-32.83a9.5,9.5,0,1,1,.43-13.42A9.5,9.5,0,0,1,254.31,959.73ZM274,938.94l-42.63-45.43,13.07-12.27L287,926.68Zm35.15-30.64a9.5,9.5,0,1,1,.43-13.42A9.5,9.5,0,0,1,309.11,908.3Zm32.68-33.12-13,12.2L286.13,842l27.06-25.44,11,11.65-14.09,13.24,7,7.43,13.87-13,10.93,11.62-13.87,13Zm25.81-21.76A9.5,9.5,0,1,1,368,840,9.5,9.5,0,0,1,367.6,853.42Z"/><line class="cls-6" y1="750.03" x2="998.03" y2="750.03"/><line class="cls-6" x1="95.14" y1="1225.71" x2="95.14" y2="654.89"/><line class="cls-6" x1="502.97" y1="1225.71" x2="502.97" y2="654.89"/><line class="cls-14" x1="455.36" y1="1225.71" x2="455.36" y2="654.89"/><line class="cls-6" x1="407.84" y1="1225.71" x2="407.84" y2="654.89"/><line class="cls-6" x1="998.03" y1="845.17" y2="845.17"/><line class="cls-14" x1="998.03" y1="876.88" y2="876.88"/><line class="cls-14" x1="998.03" y1="908.59" y2="908.59"/><line class="cls-6" x1="998.03" y1="940.3" y2="940.3"/><line class="cls-14" x1="998.03" y1="972.01" y2="972.01"/><line class="cls-14" x1="998.03" y1="1003.73" y2="1003.73"/><line class="cls-6" x1="998.03" y1="1035.44" y2="1035.44"/><line class="cls-6" y1="1130.57" x2="998.03" y2="1130.57"/><line class="cls-6" x1="502.97" y1="654.89" x2="407.75" y2="750.03"/><line class="cls-6" x1="407.75" y1="654.89" x2="502.97" y2="750.03"/><line class="cls-6" x1="95.22" y1="654.89" y2="750.03"/><line class="cls-6" y1="654.89" x2="95.22" y2="750.03"/><line class="cls-6" x1="502.97" y1="1130.57" x2="407.75" y2="1225.71"/><line class="cls-6" x1="407.75" y1="1130.57" x2="502.97" y2="1225.71"/><line class="cls-6" x1="902.9" y1="1225.71" x2="902.9" y2="654.89"/><line class="cls-6" x1="998.03" y1="654.89" x2="902.81" y2="750.03"/><line class="cls-6" x1="902.81" y1="654.89" x2="998.03" y2="750.03"/><line class="cls-6" x1="998.03" y1="1130.57" x2="902.81" y2="1225.71"/><line class="cls-6" x1="902.81" y1="1130.57" x2="998.03" y2="1225.71"/><line class="cls-6" x1="95.22" y1="1130.57" y2="1225.71"/><line class="cls-6" y1="1130.57" x2="95.22" y2="1225.71"/><rect class="cls-1" x="1063.12" y="654.89" width="637.67" height="761.46"/><text class="cls-15" transform="translate(1150.34 1225.84)">Dju<tspan class="cls-16" x="135.84" y="0">r</tspan><tspan x="166.81" y="0">gården</tspan><tspan class="cls-17" x="85.71" y="95.13">F</tspan><tspan x="135.7" y="95.13">otboll</tspan></text><g id="Guld_sköld-3" data-name="Guld sköld"><path class="cls-2" d="M1532.19,779l-1.43-6.1-6.12,1.31c-75.69,16.16-139.46-21.76-140.09-22.13l-3.33-2-3.31,2c-.63.38-64.3,38.47-140,22.5l-6.12-1.29-1.41,6.1c-.27,1.17-6.62,29.31-5.17,75.81,4.52,145.83,98.45,240.6,153.24,273.61l3.3,2,3.3-2c54.7-33.15,148.4-128.17,152.53-274C1538.88,808.3,1532.46,780.18,1532.19,779Z"/></g><path class="cls-3" d="M1440.34,786.22a224.64,224.64,0,0,1-59.09-21.33c-14.16,7.78-70.84,35.53-139.58,23.43-1.73,10.45-4.74,33.94-3.73,66.5a324.26,324.26,0,0,0,19.9,102.73Z"/><path class="cls-4" d="M1381.71,1115.85c52.23-33.14,137-121.77,142.86-256.4l-209.44,196.61C1338,1083.41,1362.15,1103.51,1381.71,1115.85Z"/><path class="cls-5" d="M1313.58,959.88l-1,.91,21.31,22.66.88-.83c5.2-4.89,7.49-13.52.06-21.41C1328,954,1319.18,954.62,1313.58,959.88Z"/><path class="cls-5" d="M1520.9,788a207,207,0,0,1-69.78.27L1261.27,966.43a334.67,334.67,0,0,0,48.27,82.77L1524.91,847C1525.21,818.36,1522.52,797.58,1520.9,788Zm-174,204.78L1331.71,1007,1289,961.57l15.16-14.26c12.65-11.89,31.55-10.95,43.56,1.82S1359.46,980.89,1346.87,992.73Zm37.36-32.85a9.5,9.5,0,1,1,.43-13.43A9.5,9.5,0,0,1,1384.22,959.88Zm19.66-20.8-42.65-45.45,13.08-12.27L1417,926.81Zm35.17-30.66a9.5,9.5,0,1,1,.43-13.43A9.5,9.5,0,0,1,1439.05,908.43Zm32.69-33.14-13,12.21-42.71-45.42,27.07-25.46,11,11.66L1440,841.53l7,7.43,13.88-13,10.93,11.63-13.88,13Zm25.82-21.77a9.5,9.5,0,1,1,.43-13.43A9.5,9.5,0,0,1,1497.57,853.52Z"/><line class="cls-6" x1="1158.33" y1="1416.36" x2="1158.33" y2="654.9"/><line class="cls-6" x1="1605.6" y1="1416.36" x2="1605.6" y2="654.9"/><line class="cls-6" x1="1063.67" y1="750.08" x2="1700.79" y2="750.08"/><line class="cls-6" x1="1700.24" y1="845.26" x2="1063.12" y2="845.26"/><line class="cls-6" x1="1700.24" y1="940.44" x2="1063.12" y2="940.44"/><line class="cls-6" x1="1700.24" y1="1130.81" x2="1063.12" y2="1130.81"/><line class="cls-6" x1="1700.24" y1="1162.54" x2="1063.12" y2="1162.54"/><line class="cls-6" x1="1700.24" y1="1194.27" x2="1063.12" y2="1194.27"/><line class="cls-6" x1="1700.24" y1="1225.99" x2="1063.12" y2="1225.99"/><line class="cls-6" x1="1700.24" y1="1257.72" x2="1063.12" y2="1257.72"/><line class="cls-6" x1="1700.24" y1="1289.45" x2="1063.12" y2="1289.45"/><line class="cls-6" x1="1700.24" y1="1321.18" x2="1063.12" y2="1321.18"/><line class="cls-6" x1="1700.79" y1="1035.63" x2="1063.67" y2="1035.63"/><line class="cls-6" x1="1700.79" y1="654.89" x2="1605.52" y2="750.08"/><line class="cls-6" x1="1605.52" y1="654.89" x2="1700.79" y2="750.08"/><line class="cls-6" x1="1158.42" y1="654.89" x2="1063.15" y2="750.08"/><line class="cls-6" x1="1063.15" y1="654.89" x2="1158.42" y2="750.08"/><line class="cls-6" x1="1700.79" y1="1321.18" x2="1605.52" y2="1416.36"/><line class="cls-6" x1="1605.52" y1="1321.18" x2="1700.79" y2="1416.36"/><line class="cls-6" x1="1158.42" y1="1321.18" x2="1063.15" y2="1416.36"/><line class="cls-6" x1="1063.15" y1="1321.18" x2="1158.42" y2="1416.36"/></g></svg>