<svg xmlns="http://www.w3.org/2000/svg" viewBox="0 0 5119.37 1312.48"><defs><style>.cls-1{fill:#fff;}.cls-1,.cls-14,.cls-6{stroke:#b4b4b4;stroke-miterlimit:10;}.cls-11,.cls-15,.cls-2{fill:#cfb571;}.cls-3{fill:#ffec0d;}.cls-4{fill:#0568af;}.cls-5{fill:#e21f26;}.cls-14,.cls-6{fill:none;}.cls-7{fill:#998247;}.cls-8{fill:#fff100;}.cls-9{fill:#e4412b;}.cls-10{fill:#006bb5;}.cls-11{font-size:156.01px;}.cls-11,.cls-15{font-family:MaisonNeue-Demi, Maison Neue;}.cls-12{letter-spacing:-0.02em;}.cls-13{letter-spacing:-0.01em;}.cls-14{stroke-width:0.5px;}.cls-15{font-size:156.09px;}.cls-16{letter-spacing:-0.02em;}.cls-17{letter-spacing:-0.01em;}</style></defs><title>DIF_skold_clearspace</title><g id="Sheild_type" data-name="Sheild + type"><rect class="cls-1" width="866.94" height="983.87"/><g id="Guld_sköld" data-name="Guld sköld"><path class="cls-2" d="M693.25,213.82l-2.46-10.51-10.55,2.26C549.85,233.41,440,168.09,438.9,167.44L433.17,164l-5.7,3.48c-1.09.65-110.78,66.28-241.24,38.76L175.69,204l-2.43,10.51c-.46,2-11.4,50.49-8.91,130.6,7.78,251.22,169.61,414.49,264,471.37l5.69,3.42,5.68-3.44C534,759.34,695.38,595.65,702.5,344.39,704.78,264.28,693.71,215.84,693.25,213.82Z"/></g><path class="cls-3" d="M535,226.24c-50.94-10.83-88-29.22-101.8-36.74-24.4,13.41-122,61.2-240.47,40.36-3,18-8.17,58.46-6.43,114.56a558.63,558.63,0,0,0,34.28,177Z"/><path class="cls-4" d="M434,794.12C524,737,670.07,584.34,680.12,352.41L319.31,691.12C358.73,738.23,400.31,772.86,434,794.12Z"/><path class="cls-5" d="M316.64,525.42,315,527l36.72,39,1.52-1.43c9-8.43,12.9-23.28.1-36.89C341.56,515.24,326.28,516.35,316.64,525.42Z"/><path class="cls-5" d="M673.8,229.23a356.65,356.65,0,0,1-120.22.46l-327.05,307a576.56,576.56,0,0,0,83.15,142.59L680.71,331C681.23,281.62,676.59,245.81,673.8,229.23ZM374,582l-26.12,24.56-73.58-78.25,26.12-24.56c21.79-20.49,54.36-18.86,75,3.14S395.67,561.61,374,582Zm64.36-56.59a16.37,16.37,0,1,1,.74-23.14A16.37,16.37,0,0,1,438.34,525.42Zm33.87-35.82-73.48-78.3,22.53-21.14,73.48,78.3Zm60.59-52.81a16.37,16.37,0,1,1,.74-23.14A16.37,16.37,0,0,1,532.8,436.78Zm56.32-57.09-22.36,21-73.59-78.25,46.64-43.86,18.88,20.08-24.28,22.83,12.08,12.8,23.91-22.45,18.84,20-23.91,22.45Zm44.49-37.51a16.37,16.37,0,1,1,.74-23.14A16.37,16.37,0,0,1,633.61,342.18Z"/><line class="cls-6" y1="163.98" x2="866.94" y2="163.98"/><line class="cls-6" x1="163.98" y1="983.87" x2="163.98"/><line class="cls-6" x1="163.98" y1="983.87" x2="163.98"/><line class="cls-6" x1="702.81" y1="983.87" x2="702.81"/><line class="cls-6" y1="327.96" x2="866.94" y2="327.96"/><line class="cls-6" y1="491.93" x2="866.94" y2="491.93"/><line class="cls-6" y1="655.91" x2="866.94" y2="655.91"/><line class="cls-6" y1="819.89" x2="866.94" y2="819.89"/><line class="cls-6" x1="866.94" x2="702.81" y2="163.98"/><line class="cls-6" x1="702.81" x2="866.94" y2="163.98"/><line class="cls-6" x1="164.13" y2="163.98"/><line class="cls-6" x2="164.13" y2="163.98"/><line class="cls-6" x1="866.94" y1="819.89" x2="702.81" y2="983.87"/><line class="cls-6" x1="702.81" y1="819.89" x2="866.94" y2="983.87"/><line class="cls-6" x1="164.13" y1="819.89" y2="983.87"/><line class="cls-6" y1="819.89" x2="164.13" y2="983.87"/><rect class="cls-1" x="979.12" width="1096.56" height="983.87"/><line class="cls-6" x1="979.12" y1="163.98" x2="2075.67" y2="163.98"/><line class="cls-6" x1="1143.1" y1="983.87" x2="1143.1"/><line class="cls-6" x1="1910.21" y1="983.87" x2="1910.21"/><line class="cls-6" x1="1094.34" x2="1961.27"/><line class="cls-6" x1="979.12" y1="327.96" x2="2075.67" y2="327.96"/><line class="cls-6" x1="979.12" y1="491.93" x2="2075.67" y2="491.93"/><line class="cls-6" x1="979.12" y1="655.91" x2="2075.67" y2="655.91"/><line class="cls-6" x1="979.12" y1="819.89" x2="2075.67" y2="819.89"/><line class="cls-6" x1="2074.34" x2="1910.21" y2="163.98"/><line class="cls-6" x1="1910.21" x2="2074.34" y2="163.98"/><line class="cls-6" x1="1143.25" x2="979.12" y2="163.98"/><line class="cls-6" x1="979.12" x2="1143.25" y2="163.98"/><line class="cls-6" x1="2074.34" y1="819.89" x2="1910.21" y2="983.87"/><line class="cls-6" x1="1910.21" y1="819.89" x2="2074.34" y2="983.87"/><line class="cls-6" x1="1143.25" y1="819.89" x2="979.12" y2="983.87"/><line class="cls-6" x1="979.12" y1="819.89" x2="1143.25" y2="983.87"/><path class="cls-7" d="M1266.72,427.88h-40s-19.46,22.45-19.52,22.67v31.28l9.29,8.83-9.29,8.83v32.12c.32.46,16.16,21.09,16.46,21.9h42s17.51-22.45,17.57-22.66V499.56l-9.29-8.83,9.29-8.83V449.78C1282.86,449.32,1267,428.69,1266.72,427.88Zm7.73,50.41L1262,490.91l-.57-.09,13,12.35v26.14c0,.16-13.08,17.44-13.08,17.44h-32.74c-.23-.62-12.42-16.5-12.66-16.85l-.06-.66V503.09l12.47-12.62.57.08-13-12.35V452.07c0-.16,15-17.44,15-17.44h30.79c.23.62,12.42,16.5,12.67,16.85l.06.66Z"/><path class="cls-7" d="M1181.08,527.37V428.63h-37.45l.18,25.65H1152v73.09h-8.23v25.17h46V527.37Zm0,18.39h-29V534.63h8.23V447.29H1152V435.41h21.3v99.22h7.75C1181.08,538.93,1181.2,542.51,1181.08,545.77Z"/><path class="cls-7" d="M1901.5,527.6V428.86h-37.45l.18,25.65h8.23V527.6h-8.23v25.17h46V527.6Zm0,18.39h-29V534.86h8.23V447.51h-8.23V435.63h21.3v99.22h7.74C1901.5,539.15,1901.62,542.74,1901.5,546Z"/><path class="cls-7" d="M1256.07,445.57h-20.81l-6.29,5.82V476.9l6.29,5.82,19.72,0,6.52-6V453.27Zm-3.39,29.53h-15V452.73h15Z"/><path class="cls-7" d="M1235.38,498.64l-6.51,6v23.44l5.44,7.7h20.81l6.29-5.82V504.49l-6.29-5.82Zm17.3,30h-15V506.28h15Z"/><path class="cls-7" d="M1828.7,428.11h-40s-19.46,24.29-19.52,24.52v33.84l16.94,17.42h28.56V527.6h-14.52v-8.23H1768.9v16.94l17.69,16.94h41.63l16.94-17.42v-84C1844.84,451.3,1829,429,1828.7,428.11Zm7.67,104.47-13,13.41h-32l-12.7-13v-6.32h13.79v4.58l5.32,4.62h19.84l5.91-6.63V495.91h-32.55l-13-13.36V454.28c0-.17,15-18.87,15-18.87h30.79c.23.67,12.42,17.85,12.66,18.23Z"/><path class="cls-7" d="M1818.05,447.25h-20.81l-6.29,6.29v27.59l6.29,6.29h26.25V455.58Zm-3.39,31.94h-15V455h15Z"/><path class="cls-7" d="M1218.21,386.53l1.6-4.11c4.29-11.05,13.07-13.73,21.77-10.35s13.63,11.74,9.67,21.94l-1.8,4.65Zm-1.92,5.09,31.18,12.1-1.78,4.59,3.68,1.43,5.86-15.11c5.3-13.67-1.93-23.85-11.49-27.55-12.55-4.87-22.88,1.81-26.65,11.53l-6.28,16.18,3.68,1.43Z"/><path class="cls-7" d="M1227.76,353.57l7.32-14.4,3.52,1.79-2.34,4.6L1266,360.69c5.67,2.88,8.51,7,5.5,12.95l-1.3,2.55-4.39-2.23,1-1.94c1.24-2.45.87-4.37-1.63-5.65l-31.4-16-2.52,5Z"/><path class="cls-7" d="M1250.16,314.09l7.95-12.39,3.33,2.13-2.35,3.66,19.14,12.27c8.68,5.57,9.93,13.38,5.26,20.66s-12.29,9.4-21,3.84L1243.38,332l-2.35,3.66-3.33-2.13,7.95-12.39,3.33,2.13-2.66,4.15,20.49,13.14c5.21,3.34,9.72,1.61,12.53-2.78s2.51-9.21-2.7-12.55l-20.49-13.14-2.66,4.15Z"/><path class="cls-7" d="M1272.34,290.37l3.92-4.64c2.88-3.41,6.77-7,11.06-3.33s2.7,8.35-.56,12.2l-3.91,4.64Zm31.75,20.37-3-2.55-3.18,3.76-12-10.16,4.4-5.21c2.4-2.84,5.17-5.23,8.4-2.5l11.38,9.61,6.62-7.83-3-2.55-3.1,3.68-8.75-7.39c-2.63-2.22-6-2.25-8.15.24l-.09-.07c1.36-4.63,1.26-8.15-2.67-11.48-4.81-4.06-10.49-3.38-15.31,2.14l-12.89,15.27,3,2.55,3.14-3.72,25.55,21.58-3.14,3.72,3,2.55Z"/><path class="cls-7" d="M1326,250.77c-5-3.7-12.32-2.9-16.9,1.17-5.26,4.69-7.91,14.71-.63,22.88s17.54,6.69,22.8,2,6-12.07,3.48-16.76l-8.08,7.2-3-3.33,14.92-13.3,3,3.34-3.59,3.2,9.45,10.6-3.34,3-3.28-3.68c-.58,5.89-2.27,9.85-6.29,13.43a21.6,21.6,0,0,1-28.73-32.24,18.94,18.94,0,0,1,13-4.81l-2.74-3.08,3.33-3,9.56,10.73Z"/><path class="cls-7" d="M1338.94,213.13a3.12,3.12,0,0,1,.89-4.49,3.19,3.19,0,0,1,4.52.94,3.07,3.07,0,0,1-.94,4.52A3,3,0,0,1,1338.94,213.13Zm5.89,3.13a5.83,5.83,0,0,0,1.68-8.09,5.81,5.81,0,1,0-9.72,6.38A5.78,5.78,0,0,0,1344.83,216.26Zm-4.56,10.8,4.21-2.76,8.62,34.35-3.3,2.17,2.17,3.3,11.64-7.63-2.17-3.3-4.17,2.73-2.77-10.38,12-7.85,8.32,6.73-4.17,2.73,2.17,3.3,12-7.88-2.17-3.3-3.21,2.1-27.63-21.88,4.17-2.73-2.17-3.3-15.71,10.3Zm23,8-9.72,6.37-4.84-17.92.1-.06Z"/><path class="cls-7" d="M1379.17,203.85l5.47-2.63c4-1.93,9-3.57,11.45,1.49,2.51,5.21-1,8.72-5.5,10.9l-5.47,2.63Zm20.64,31.58-1.71-3.56-4.44,2.13-6.82-14.2,6.14-3c3.36-1.61,6.86-2.66,8.69,1.16l6.45,13.42,9.24-4.44-1.71-3.56-4.34,2.08-5-10.32c-1.49-3.1-4.59-4.53-7.53-3.12l0-.1c3.13-3.66,4.49-6.92,2.26-11.57-2.73-5.68-8.18-7.38-14.84-4.31l-18,8.66,1.71,3.56,4.39-2.11,14.48,30.15-4.39,2.11,1.71,3.56Z"/><path class="cls-7" d="M1417.26,187.37l4.19-1.37c11.27-3.67,18.9,1.43,21.79,10.3s-.46,18-10.86,21.37l-4.74,1.54Zm-5.16,1.74,10.37,31.8-4.68,1.53,1.22,3.76,15.41-5c13.94-4.54,17.24-16.58,14.06-26.33-4.17-12.79-15.88-16.57-25.79-13.34l-16.5,5.38,1.22,3.76Z"/><path class="cls-7" d="M1457.19,214.08l-.74-3.88,4.84-.92L1455,176.42l-4.84.92-.74-3.88,31.39-6,2.07,10.86-4.84.92-1.33-7-16.37,3.12,2.47,12.94,13.78-2.63.84,4.39-13.78,2.63,3,15.53,16.37-3.12-1.57-8.21,4.84-.92,2.31,12.09Z"/><path class="cls-7" d="M1492.8,170l-4.57.29-.25-3.94,10.63-.68,19.24,29.13h.12l-1.67-26.29-4.74.3-.25-3.94,14.52-.92.25,3.94-4.63.29,2.37,37.32-4.69.3-20.74-31h-.12l1.8,28.29,5.09-.32.25,3.94-14.92.95-.25-3.94,4.69-.3Z"/><path class="cls-7" d="M1536.71,191.77c.66,6,4.79,10.57,10.91,11,4.29.27,8.9-1.91,9.19-6.6.72-11.55-24.52-6.18-23.54-21.84.47-7.49,6.52-10.61,13.37-10.18,4.35.27,7.18,1.82,10.07,5l.22-3.49,4.46.28-.76,12.12-4.57-.29a10,10,0,0,0-9.26-9c-5.26-.33-8.18,2.3-8.38,5.62-.62,9.89,24.58,5.15,23.55,21.67-.45,7.14-6.65,11.81-13.57,11.37a18,18,0,0,1-12.3-5.13l-.21,3.43-4.46-.28.87-14Z"/><path class="cls-7" d="M1578.13,210.09l.79-3.87,4.88,1,6.65-32.78-4.77-1,.79-3.87,15.1,3.06-.79,3.87-5-1-6.65,32.78,4.88,1-.79,3.87Z"/><path class="cls-7" d="M1606.63,177.62l1.13-3.79,30.34,9.07-3.16,10.59-4.72-1.41,2-6.8-15.69-4.69-3.77,12.62,13.83,4.13-1.28,4.28-13.83-4.13L1607,212.63l5.6,1.67-1.13,3.79-15.64-4.68,1.13-3.79,4.83,1.44,9.58-32Z"/><path class="cls-7" d="M1657.51,194.73l1.74-3.55,28.46,13.9-4.85,9.93-4.43-2.16,3.12-6.38-14.72-7.19L1661,211.12l13,6.34-2,4-13-6.34-6.94,14.2,5.25,2.56-1.74,3.55L1641,228.28l1.73-3.55,4.53,2.21,14.68-30.05Z"/><path class="cls-7" d="M1710.61,224.15a16.67,16.67,0,1,1-22.79,4.77A16.2,16.2,0,0,1,1710.61,224.15Zm2.75-4.09a21.59,21.59,0,1,0,6,30A21.45,21.45,0,0,0,1713.36,220.07Z"/><path class="cls-7" d="M1729.52,246.86l7.61-8.55,23.32,20.75-7.62,8.55-3.68-3.27,5-5.6-5.95-5.29-22.24,25,3.85,3.43-2.63,3-11.77-10.47,2.63-3,3.85,3.43,22.24-25-5.95-5.29-5,5.6Z"/><path class="cls-7" d="M1756.25,285.9l2.9,3.25c4.57,5.13,5.07,9.13.88,12.87-4,3.58-7.86,3.32-12.78-2.19l-2.93-3.29Zm13-11.62,3.58,4c3.12,3.5,3.18,7.44-.2,10.45-2.69,2.4-7.23,1.53-9.7-1.25l-3.77-4.23Zm-34.82,17.15,10.25,11.5c5.72,6.41,12.08,9.25,18.5,3.54,6-5.34,3.92-10.93,2.55-13.32l.09-.08a8.52,8.52,0,0,0,11-.79c5.17-4.61,4.87-9.94-1.19-16.74L1765.42,264l-2.95,2.63,3.2,3.59-25,22.25-3.28-3.68Z"/><path class="cls-7" d="M1800.59,314.1a16.67,16.67,0,1,1-22.9-4.22A16.2,16.2,0,0,1,1800.59,314.1Zm4.09-2.74a21.59,21.59,0,1,0-5.84,30.05A21.45,21.45,0,0,0,1804.68,311.35Z"/><path class="cls-7" d="M1816,338.76l3.54-1.75,6.95,14.07-3.54,1.75-2.36-4.78-30,14.81,5.68,11.5,7.34-3.63,2.18,4.42-10.89,5.38-12.5-25.32,3.54-1.75,2.23,4.52,30-14.81Z"/><path class="cls-7" d="M1831.08,370l3.71-1.36,5.41,14.73-3.71,1.36-1.84-5-31.39,11.54,4.43,12,7.69-2.83,1.7,4.62-11.39,4.19-9.74-26.5,3.71-1.36,1.74,4.73,31.39-11.54Z"/><path class="cls-7" d="M1232.46,593.08c-5.25,2.82-7.9,8.27-6,14,1.34,4,5,7.43,9.42,6,10.82-3.6-3.39-24.68,11.29-29.56,7-2.33,12.1,2,14.23,8.47,1.35,4.07,1,7.23-.9,11.07l3.27-1.09,1.39,4.18-11.35,3.77-1.42-4.28a9.81,9.81,0,0,0,4.78-11.76c-1.64-4.93-5.12-6.62-8.22-5.59-9.27,3.08,4.35,24.37-11.13,29.51-6.69,2.22-13.24-1.72-15.39-8.21a17.69,17.69,0,0,1,.16-13.14l-3.21,1.07-1.39-4.18,13.12-4.36Z"/><path class="cls-7" d="M1257.94,618.58,1268,613.5,1281.86,641,1271.78,646l-2.18-4.33,6.6-3.33-3.53-7-29.43,14.83,2.29,4.54L1242,652.5l-7-13.86,3.48-1.75,2.29,4.54,29.43-14.83-3.53-7-6.6,3.33Z"/><path class="cls-7" d="M1293.44,665.11a16.43,16.43,0,1,1-22.7-3.32A16,16,0,0,1,1293.44,665.11Zm3.93-2.85a21.28,21.28,0,1,0-4.66,29.81A21.14,21.14,0,0,0,1297.37,662.26Z"/><path class="cls-7" d="M1327.52,716.08c2.85-5.34,1.19-11-3-15.09-6.29-6.15-15.66-5.13-21.93,1.29s-7.32,16-1,22.2c4.88,4.78,10,5.79,16.12,3.13l3.55,3.47c-7.45,4.31-16,3.73-23-3.05-8.64-8.44-7.66-21.15.43-29.42s20.69-9.45,29.12-1.21a19.5,19.5,0,0,1,6,11.91l2.41-2.46,3.15,3.08-8.84,9Z"/><path class="cls-7" d="M1357.44,723.69l-2.28,3.15-4.16-3-9.2,12.71.09.07,20.86-4.27-3.52-2.55,2.28-3.15,11.84,8.57-2.28,3.15-3-2.18-21.33,4.35-.07.09,1.89,22.13,3.2,2.32-2.28,3.16-11.89-8.61,2.28-3.15,3.52,2.55-2-21.71-.09-.07-9.63,13.3,4.11,3-2.28,3.16-12.34-8.94,2.28-3.16,3.89,2.81,19.32-26.7-3.79-2.75,2.28-3.15Z"/><path class="cls-7" d="M1357.35,773.21l1.82-3.44,4.14,2.19,15.39-29.15-4.14-2.19,1.82-3.44,13.52,7.14-1.82,3.44-4.64-2.45-6.22,11.78,15.87,8.38,6.22-11.78-4.59-2.43,1.82-3.44,13.47,7.11-1.82,3.44-4.14-2.19-15.39,29.14,4.14,2.19L1391,791l-13.53-7.14,1.82-3.44,4.64,2.45,7.12-13.47L1375.17,761l-7.11,13.48,4.59,2.42-1.82,3.44Z"/><path class="cls-7" d="M1433.06,767.55a16.43,16.43,0,1,1-20.47,10.37A16,16,0,0,1,1433.06,767.55Zm1.56-4.59A21.28,21.28,0,1,0,1448,790,21.14,21.14,0,0,0,1434.63,763Z"/><path class="cls-7" d="M1458.88,775.32l.71-3.83,15.2,2.85-.72,3.83-5.16-1-6.06,32.4,12.43,2.33,1.48-7.93,4.77.89-2.2,11.76L1452,811.52l.72-3.83,4.88.91,6.06-32.4Z"/><path class="cls-7" d="M1500.46,815l5.13.15-.11,3.89-15.06-.43.11-3.89,4.85.14.93-32.95-4.85-.14.11-3.89,13.14.37,9.65,28.11h.11l11.34-27.51,12.41.35-.11,3.89-4.85-.14-.93,32.95,4.85.14-.11,3.89-14.89-.42.11-3.89,5,.14.88-31H1528l-12.74,31-2.76-.08L1501.45,784h-.11Z"/><path class="cls-7" d="M1551.29,804.35c1.75,5.69,6.59,9.35,12.58,8.59,4.2-.53,8.26-3.49,7.68-8.09-1.43-11.31-24.87-1.45-26.82-16.79-.93-7.33,4.35-11.47,11.07-12.33a13.31,13.31,0,0,1,10.68,3l-.43-3.41,4.37-.55,1.5,11.87-4.48.57a9.81,9.81,0,0,0-10.61-7c-5.15.65-7.49,3.74-7.08,7,1.23,9.69,24.75.45,26.8,16.63.89,7-4.25,12.66-11,13.52a17.71,17.71,0,0,1-12.86-2.69l.43,3.36-4.37.55L1547,804.9Z"/><path class="cls-7" d="M1607.19,794c2.72,5.3,8.12,8,13.89,6.25,4-1.26,7.52-4.88,6.15-9.3-3.39-10.88-24.74,2.92-29.34-11.85-2.2-7.06,2.27-12.06,8.74-14.07,4.09-1.28,7.25-.84,11,1.11l-1-3.29,4.2-1.31,3.56,11.42-4.31,1.34a9.81,9.81,0,0,0-11.67-5c-5,1.54-6.72,5-5.75,8.11,2.9,9.32,24.44-3.89,29.29,11.68,2.1,6.73-2,13.21-8.5,15.23a17.69,17.69,0,0,1-13.13-.4l1,3.24-4.2,1.31-4.11-13.2Z"/><path class="cls-7" d="M1633.28,769.1l-4.6-10.31,28.09-12.53,4.6,10.31-4.43,2-3-6.75-7.16,3.2,13.43,30.1,4.64-2.07,1.59,3.56-14.17,6.32-1.59-3.56,4.64-2.07-13.43-30.1-7.16,3.2,3,6.75Z"/><path class="cls-7" d="M1681.9,736.19a16.43,16.43,0,1,1-4.93,22.41A16,16,0,0,1,1681.9,736.19Zm-2.57-4.12a21.28,21.28,0,1,0,29.4,6.76A21.14,21.14,0,0,0,1679.33,732.07Z"/><path class="cls-7" d="M1704.35,721.13l-2.49-3,11.9-9.88,2.49,3-4,3.35,21,25.36,9.73-8.07-5.15-6.21,3.74-3.1,7.64,9.21-21.41,17.77-2.49-3,3.82-3.17-21-25.36Z"/><path class="cls-7" d="M1732.38,707.43l-8.1-7.86,21.43-22.07,8.1,7.87-3.38,3.48-5.3-5.15-5.47,5.63,23.64,23,3.54-3.64,2.79,2.71-10.81,11.13-2.79-2.71,3.54-3.64-23.64-23-5.46,5.63,5.3,5.15Z"/><path class="cls-7" d="M1781.84,698.13l-3.16-2.28,2.74-3.8-26.73-19.28-2.74,3.8-3.16-2.28,8.95-12.4,3.16,2.28-3.07,4.25,10.8,7.79,10.5-14.55-10.8-7.79-3,4.21-3.16-2.28,8.92-12.36,3.16,2.28-2.74,3.8,26.73,19.28,2.74-3.8,3.16,2.28-8.95,12.4-3.16-2.28,3.07-4.26-12.36-8.91-10.5,14.55,12.36,8.92,3-4.21,3.16,2.28Z"/><path class="cls-7" d="M1809.25,658.4l-3.48-1.76,2.19-4.33-29.42-14.85-2.19,4.33-3.48-1.76,14.19-28.11,9.72,4.91-2.19,4.33-6.25-3.15-7.4,14.66,11.59,5.85,6.23-12.34,3.93,2-6.23,12.34,13.9,7,7.4-14.66-7.36-3.71,2.19-4.33,10.83,5.47Z"/><path class="cls-7" d="M1799.51,611.26l-10.74-3.46,9.43-29.28,10.74,3.46-1.49,4.62-7-2.27L1798,591.8l31.37,10.11,1.56-4.83,3.71,1.19L1829.89,613l-3.71-1.19,1.56-4.83-31.37-10.11-2.41,7.47,7,2.27Z"/><path class="cls-7" d="M1555.28,304c42.75,18.61,97,23.52,145,13.09.82,0,.82,1.23,1,1.84,24.14,129.68-13.7,258.34-100.64,352.43-22.3,22.91-46.64,44.39-73.43,61.16l-1.64-.41a373,373,0,0,1-56.86-44c-58.3-53.38-100.23-123.55-117-198.21a304.47,304.47,0,0,1-9.2-50.52c-2-15.34-2.66-31.3-2.86-46.43.2-7,0-13.91.82-20.45a105.56,105.56,0,0,1,.82-13.91c1-12.48,2.86-25.36,5.11-38,13.09,1.64,26.59,4.09,40.3,4.09,50.52,1.64,96.55-11.25,136.84-36.61C1534,293.8,1544.24,299.53,1555.28,304Z"/><path class="cls-8" d="M1532.17,310.37a246.72,246.72,0,0,0,63.82,22.5l.41.41c-8.18,7.57-16.77,15.34-24.34,22.7l-41.11,38.86c-49.5,46-98.39,93.68-148.5,138.89-.2.2-.61.41-1,.82-25-60.75-32.73-129.68-23.11-196.16l.61-.41c57.89,8.38,116.39-3.68,164-31.7C1526.44,306.48,1528.89,309.14,1532.17,310.37Z"/><path class="cls-9" d="M1689.46,339a407.78,407.78,0,0,1,4.09,64.84l-7.57,7-30.48,28.84c-33.75,32.93-71,65.25-104.52,98.39-4.09,3.68-8.39,7.57-12.07,11.45l-.82.41c-30.68,29-62.59,59.12-93.68,88.16-.82,0-.82,1.23-1.84.82a393.17,393.17,0,0,1-56.86-93.27l.2-.82,70.16-66.07,119.66-112.5c10.84-9.82,21.68-20.66,32.93-30.27,2.86-1.23,5.93.41,9,.41,22.7,3.07,47.66,2,70.16-1.64C1690.49,334.71,1688.85,337.57,1689.46,339Z"/><path class="cls-7" d="M1613.78,379.91v.61l-13.91,13.3,5.32,5.73c5.11-3.48,9-8,13.3-12.07,4.71,4.3,9.2,9.41,13.29,13.91v.41c-4.7,4.09-8.59,8.39-12.89,12.48,6.14,6.55,12.07,13.09,18.21,19.64-4.5,5.32-9.61,9.61-14.93,14.32-16.77-18.41-34.36-35.18-50.93-54,2.66-3.07,6.34-5.73,9.41-8.8,6.55-7,13.5-12.27,19.84-19l1.43.61Z"/><path class="cls-7" d="M1668.4,393.62c2.86,3.68,2.45,9.21.2,12.89-1.84,3.27-5.11,4.7-8.38,5.32A11.92,11.92,0,0,1,1650,406.3c-1.64-3.27-2.45-7.77-.21-11.45,1.43-3.27,5.32-5.32,8.8-5.73C1662.67,388.5,1665.94,390.55,1668.4,393.62Z"/><path class="cls-10" d="M1692.94,423.28c-1,7.77-1.64,16-2.66,23.73l.21.41c-3.27,23.93-9.21,47.45-16.16,70h0a481.8,481.8,0,0,1-18.2,45.61c-16.57,34-37.84,68.11-65,96.34-19,19.84-38.86,38.25-61.57,54-3.48,3.27-6.14-1.43-9-2.87-26.18-18-49.5-39.47-70.77-63.61l14.93-14.52,42.14-39.89,21.48-20.25L1611.74,494,1632,475l54.41-51.34,5.93-5.52C1693.15,419.19,1692.53,421.64,1692.94,423.28Z"/><path class="cls-7" d="M1574.92,492.21c-4.71,4.71-10,9.41-15.14,14.11-.82.2-1-1-1.43-1.64-16.36-17.59-33.55-35.39-49.09-52.77,4.91-4.91,10-9.21,15.34-14.11l12.27,12.89Z"/><path class="cls-7" d="M1599.87,461.94a11.63,11.63,0,0,1-2,11.25c-2.25,3.68-6.75,4.5-10.84,3.89a11.76,11.76,0,0,1-8.8-8.59,12.2,12.2,0,0,1,4.5-11.25,11.05,11.05,0,0,1,11.45-1.43A13.78,13.78,0,0,1,1599.87,461.94Z"/><path class="cls-7" d="M1497,525.55c5.93,9.82,8,23.93,2.45,34.77-2.45,5.32-7.57,9.82-11.66,14.12l-15.14,14.11L1452,566l-29.86-32.11c12.68-10.23,22.7-26.39,40.71-27.61C1477.15,505.71,1489.21,513.89,1497,525.55Z"/><path class="cls-7" d="M1537.69,518a11.72,11.72,0,0,1,0,11,11.14,11.14,0,0,1-9.2,5.73c-4.5.41-8.18-2.25-10.43-5.73a12.12,12.12,0,0,1,.61-12.07,12.4,12.4,0,0,1,12.27-4.29A11.57,11.57,0,0,1,1537.69,518Z"/><path class="cls-9" d="M1480.42,538.85a17.72,17.72,0,0,1-.61,17.18c-1.43,1.43-2.25,3.89-4.71,3.68l-24.54-26.38c1-2,3.48-3.27,5.32-4.3,4.71-2.45,11-2.66,15.55.2A24,24,0,0,1,1480.42,538.85Z"/></g><g id="Guides"><rect class="cls-1" x="2187.85" width="1720.24" height="983.87"/><text class="cls-11" transform="translate(2959.5 465.5)">Dju<tspan class="cls-12" x="234.02" y="0">r</tspan><tspan x="287.38" y="0">gården</tspan><tspan class="cls-13" x="0" y="163.89">F</tspan><tspan x="86.12" y="163.89">otboll</tspan></text><g id="Guld_sköld-2" data-name="Guld sköld"><path class="cls-2" d="M2881.1,213.82l-2.46-10.51-10.55,2.26c-130.4,27.84-240.26-37.48-241.35-38.13L2621,164l-5.7,3.48c-1.09.65-110.78,66.28-241.24,38.76L2363.54,204l-2.43,10.51c-.46,2-11.4,50.49-8.91,130.6,7.78,251.22,169.61,414.49,264,471.37l5.69,3.42,5.68-3.44c94.24-57.11,255.65-220.8,262.78-472.06C2892.63,264.28,2881.57,215.84,2881.1,213.82Z"/></g><path class="cls-3" d="M2722.86,226.24c-50.94-10.83-88-29.22-101.8-36.74-24.4,13.41-122,61.2-240.47,40.36-3,18-8.17,58.46-6.43,114.56a558.63,558.63,0,0,0,34.28,177Z"/><path class="cls-4" d="M2621.86,794.12c90-57.1,236.06-209.78,246.11-441.71L2507.16,691.12C2546.58,738.23,2588.16,772.86,2621.86,794.12Z"/><path class="cls-5" d="M2504.49,525.42l-1.67,1.57,36.72,39,1.52-1.43c9-8.43,12.9-23.28.1-36.89C2529.41,515.24,2514.13,516.35,2504.49,525.42Z"/><path class="cls-5" d="M2861.65,229.23a356.65,356.65,0,0,1-120.22.46l-327.05,307a576.56,576.56,0,0,0,83.15,142.59l371-348.31C2869.08,281.62,2864.44,245.81,2861.65,229.23ZM2561.84,582l-26.12,24.56-73.58-78.25,26.12-24.56c21.79-20.49,54.36-18.86,75,3.14S2583.53,561.61,2561.84,582Zm64.36-56.59a16.37,16.37,0,1,1,.74-23.14A16.37,16.37,0,0,1,2626.19,525.42Zm33.87-35.82-73.48-78.3,22.53-21.14,73.48,78.3Zm60.59-52.81a16.37,16.37,0,1,1,.74-23.14A16.37,16.37,0,0,1,2720.65,436.78ZM2777,379.69l-22.36,21L2681,322.47l46.64-43.86,18.88,20.08-24.28,22.83,12.08,12.8,23.91-22.45,18.84,20-23.91,22.45Zm44.49-37.51a16.37,16.37,0,1,1,.74-23.14A16.37,16.37,0,0,1,2821.46,342.18Z"/><line class="cls-6" x1="2187.85" y1="163.98" x2="3908.09" y2="163.98"/><line class="cls-6" x1="2351.83" y1="983.87" x2="2351.83"/><line class="cls-6" x1="3054.79" y1="983.87" x2="3054.79"/><line class="cls-14" x1="2972.73" y1="983.87" x2="2972.73"/><line class="cls-6" x1="2890.81" y1="983.87" x2="2890.81"/><line class="cls-6" x1="3908.09" y1="327.95" x2="2187.85" y2="327.95"/><line class="cls-14" x1="3908.09" y1="382.61" x2="2187.85" y2="382.61"/><line class="cls-14" x1="3908.09" y1="437.27" x2="2187.85" y2="437.27"/><line class="cls-6" x1="3908.09" y1="491.93" x2="2187.85" y2="491.93"/><line class="cls-14" x1="3908.09" y1="546.59" x2="2187.85" y2="546.59"/><line class="cls-14" x1="3908.09" y1="601.25" x2="2187.85" y2="601.25"/><line class="cls-6" x1="3908.09" y1="655.91" x2="2187.85" y2="655.91"/><line class="cls-6" x1="2187.85" y1="819.89" x2="3908.09" y2="819.89"/><line class="cls-6" x1="3054.79" x2="2890.66" y2="163.98"/><line class="cls-6" x1="2890.66" x2="3054.79" y2="163.98"/><line class="cls-6" x1="2351.98" x2="2187.85" y2="163.98"/><line class="cls-6" x1="2187.85" x2="2351.98" y2="163.98"/><line class="cls-6" x1="3054.79" y1="819.89" x2="2890.66" y2="983.87"/><line class="cls-6" x1="2890.66" y1="819.89" x2="3054.79" y2="983.87"/><line class="cls-6" x1="3744.11" y1="983.87" x2="3744.11"/><line class="cls-6" x1="3908.09" x2="3743.96" y2="163.98"/><line class="cls-6" x1="3743.96" x2="3908.09" y2="163.98"/><line class="cls-6" x1="3908.09" y1="819.89" x2="3743.96" y2="983.87"/><line class="cls-6" x1="3743.96" y1="819.89" x2="3908.09" y2="983.87"/><line class="cls-6" x1="2351.98" y1="819.89" x2="2187.85" y2="983.87"/><line class="cls-6" x1="2187.85" y1="819.89" x2="2351.98" y2="983.87"/><rect class="cls-1" x="4020.27" width="1099.1" height="1312.48"/><text class="cls-15" transform="translate(4170.61 984.1)">Dju<tspan class="cls-16" x="234.13" y="0">r</tspan><tspan x="287.52" y="0">gården</tspan><tspan class="cls-17" x="147.74" y="163.98">F</tspan><tspan x="233.9" y="163.98">otboll</tspan></text><g id="Guld_sköld-3" data-name="Guld sköld"><path class="cls-2" d="M4828.77,213.93l-2.46-10.51-10.55,2.26c-130.46,27.86-240.38-37.5-241.47-38.15l-5.73-3.46-5.7,3.48c-1.09.65-110.83,66.31-241.36,38.78l-10.56-2.23-2.43,10.52c-.46,2-11.4,50.51-8.92,130.66,7.79,251.35,169.69,414.7,264.13,471.6l5.69,3.43,5.69-3.44c94.29-57.14,255.78-220.91,262.91-472.29C4840.3,264.41,4829.24,215.95,4828.77,213.93Z"/></g><path class="cls-3" d="M4670.46,226.35c-51-10.83-88.06-29.23-101.85-36.76C4544.19,203,4446.5,250.83,4328,230c-3,18-8.17,58.49-6.43,114.61a558.91,558.91,0,0,0,34.3,177.06Z"/><path class="cls-4" d="M4569.4,794.52c90-57.12,236.18-209.89,246.24-441.93l-361,338.88C4494.09,738.59,4535.69,773.25,4569.4,794.52Z"/><path class="cls-5" d="M4452,525.68l-1.68,1.58L4487,566.32l1.52-1.43c9-8.43,12.9-23.3.1-36.91C4476.91,515.5,4461.62,516.61,4452,525.68Z"/><path class="cls-5" d="M4809.31,229.34a356.83,356.83,0,0,1-120.28.46L4361.81,537A576.85,576.85,0,0,0,4445,679.63l371.22-348.48C4816.75,281.76,4812.1,245.93,4809.31,229.34Zm-300,353-26.13,24.58-73.62-78.29L4435.73,504c21.8-20.5,54.39-18.87,75.09,3.14S4531,561.89,4509.35,582.3Zm64.39-56.62a16.38,16.38,0,1,1,.74-23.15A16.38,16.38,0,0,1,4573.74,525.68Zm33.88-35.84L4534.1,411.5l22.54-21.15,73.51,78.34ZM4668.24,437a16.38,16.38,0,1,1,.74-23.15A16.38,16.38,0,0,1,4668.24,437Zm56.35-57.12-22.37,21-73.62-78.29,46.66-43.88,18.89,20.09-24.29,22.84,12.08,12.81L4705.87,312l18.85,20-23.92,22.46Zm44.51-37.53a16.38,16.38,0,1,1,.74-23.15A16.38,16.38,0,0,1,4769.1,342.35Z"/><line class="cls-6" x1="4184.38" y1="1312.48" x2="4184.38"/><line class="cls-6" x1="4955.31" y1="1312.48" x2="4955.31"/><line class="cls-6" x1="4021.22" y1="164.06" x2="5119.37" y2="164.06"/><line class="cls-6" x1="5118.42" y1="328.12" x2="4020.27" y2="328.12"/><line class="cls-6" x1="5118.42" y1="492.18" x2="4020.27" y2="492.18"/><line class="cls-6" x1="5118.42" y1="820.3" x2="4020.27" y2="820.3"/><line class="cls-6" x1="5118.42" y1="874.98" x2="4020.27" y2="874.98"/><line class="cls-6" x1="5118.42" y1="929.67" x2="4020.27" y2="929.67"/><line class="cls-6" x1="5118.42" y1="984.36" x2="4020.27" y2="984.36"/><line class="cls-6" x1="5118.42" y1="1039.05" x2="4020.27" y2="1039.05"/><line class="cls-6" x1="5118.42" y1="1093.73" x2="4020.27" y2="1093.73"/><line class="cls-6" x1="5118.42" y1="1148.42" x2="4020.27" y2="1148.42"/><line class="cls-6" x1="5119.37" y1="656.24" x2="4021.22" y2="656.24"/><line class="cls-6" x1="5119.37" x2="4955.16" y2="164.06"/><line class="cls-6" x1="4955.16" x2="5119.37" y2="164.06"/><line class="cls-6" x1="4184.54" x2="4020.32" y2="164.06"/><line class="cls-6" x1="4020.32" x2="4184.54" y2="164.06"/><line class="cls-6" x1="5119.37" y1="1148.42" x2="4955.16" y2="1312.48"/><line class="cls-6" x1="4955.16" y1="1148.42" x2="5119.37" y2="1312.48"/><line class="cls-6" x1="4184.54" y1="1148.42" x2="4020.32" y2="1312.48"/><line class="cls-6" x1="4020.32" y1="1148.42" x2="4184.54" y2="1312.48"/></g></svg>