<svg xmlns="http://www.w3.org/2000/svg" viewBox="0 0 359.5 359.5"><defs><style>.cls-1{fill:#60cd18;}.cls-2{fill:#fff;}.cls-3{fill:none;stroke:#999;stroke-miterlimit:10;stroke-width:0.5px;}</style></defs><title>box-clearspace</title><g id="Lager_2" data-name="Lager 2"><g id="Lager_1-2" data-name="Lager 1"><rect class="cls-1" x="72.05" y="72.05" width="215.4" height="215.4"/><path class="cls-2" d="M150,165.59l-7,5.2a15.52,15.52,0,0,0-9.87-3.39c-2.37,0-4.83.68-5.22,2.37s1.16,2.93,3.79,3.64c3,.81,5.73,1.52,9.94,2.73,6.26,1.79,10.54,4.49,10.54,10.77,0,8.65-7.68,13.14-18,13.14s-17.3-5.36-19.4-7.86l7.36-5.51c5.17,4.51,8.77,5.15,11.78,5.15,3.45,0,6.68-.74,7.09-2.68.34-1.57-1-2.81-3.9-3.5-3.32-.77-6.13-1.39-9.26-2.21-8.49-2.23-10.88-7.16-10.88-11.59,0-6.1,5.68-12.37,16.07-12.37a25.47,25.47,0,0,1,16.89,6.1M194.11,160H163.6V199.5h32.31v-9H174.37v-7.18h14.36v-9H174.37V169h19.75Zm-37.7,48.47h1.8V151h-1.8Zm43.08,0h1.79V151H199.5Zm7.18-9h25.38c6.79,0,12.29-4.09,12.29-10.64,0-5.11-3.34-8.5-8-10a2.63,2.63,0,0,0-.45-.06,2.84,2.84,0,0,0,.45-.08A9.08,9.08,0,0,0,242,170c0-6.11-5.41-10-12.08-10H206.68Zm10.77-32.31h9.18a3.6,3.6,0,1,1,0,7.18h-9.18Zm10.81,23.34H217.45v-7.18h10.81a3.59,3.59,0,0,1,0,7.18Z"/><line class="cls-3" x1="0.25" y1="0.25" x2="72.05" y2="72.05"/><line class="cls-3" x1="0.25" y1="72.05" x2="72.05" y2="0.25"/><line class="cls-3" x1="0.25" y1="287.45" x2="72.05" y2="359.25"/><line class="cls-3" x1="0.25" y1="359.25" x2="72.05" y2="287.45"/><line class="cls-3" x1="287.45" y1="0.25" x2="359.25" y2="72.05"/><line class="cls-3" x1="287.45" y1="72.05" x2="359.25" y2="0.25"/><line class="cls-3" x1="287.45" y1="287.45" x2="359.25" y2="359.25"/><line class="cls-3" x1="287.45" y1="359.25" x2="359.25" y2="287.45"/><rect class="cls-3" x="0.25" y="0.25" width="359" height="359"/><line class="cls-3" x1="72.05" y1="0.25" x2="72.05" y2="359.25"/><line class="cls-3" x1="143.85" y1="0.25" x2="143.85" y2="359.25"/><line class="cls-3" x1="215.65" y1="0.25" x2="215.65" y2="359.25"/><line class="cls-3" x1="287.45" y1="0.25" x2="287.45" y2="359.25"/><line class="cls-3" x1="359.25" y1="72.05" x2="0.25" y2="72.05"/><line class="cls-3" x1="359.25" y1="143.85" x2="0.25" y2="143.85"/><line class="cls-3" x1="359.25" y1="215.65" x2="0.25" y2="215.65"/><line class="cls-3" x1="359.25" y1="287.45" x2="0.25" y2="287.45"/></g></g></svg>