<svg xmlns="http://www.w3.org/2000/svg" viewBox="0 0 360 360"><defs><style>.cls-1{fill:#eee;}.cls-2{fill:#60cd18;}.cls-3{fill:#fff;}</style></defs><title>centered-placement</title><g id="Lager_2" data-name="Lager 2"><g id="Lager_1-2" data-name="Lager 1"><rect class="cls-1" width="360" height="360"/><rect class="cls-2" x="140" y="140" width="80" height="80"/><path class="cls-3" d="M169.06,174.83l-2.59,1.93a5.76,5.76,0,0,0-3.67-1.26c-.88,0-1.8.25-1.94.88s.43,1.09,1.41,1.35,2.13.57,3.69,1c2.32.66,3.91,1.67,3.91,4,0,3.21-2.85,4.88-6.67,4.88a9.9,9.9,0,0,1-7.2-2.92l2.73-2a6.21,6.21,0,0,0,4.37,1.91c1.28,0,2.48-.28,2.63-1s-.36-1-1.45-1.3-2.28-.51-3.44-.82c-3.15-.83-4-2.66-4-4.31,0-2.27,2.11-4.59,6-4.59a9.46,9.46,0,0,1,6.27,2.27m16.49-2H174v14.41h11.74v-3.32h-7.69v-2.32h5.3v-3.18h-5.3v-2.3h7.48ZM171,190.54h.9V169.46H171Zm16.24,0h.9V169.46h-.9Zm3-3.33h9.26c2.48,0,4.48-1.49,4.48-3.88a3.78,3.78,0,0,0-2.93-3.65l-.17,0,.17,0a3.31,3.31,0,0,0,2.07-3.18c0-2.23-2-3.65-4.41-3.65h-8.47Zm4.07-11.42h3.24a1.27,1.27,0,1,1,0,2.53h-3.24Zm4,8.21h-4v-2.63h4a1.31,1.31,0,0,1,0,2.63Z"/></g></g></svg>