<svg xmlns="http://www.w3.org/2000/svg" viewBox="0 0 360 360"><defs><style>.cls-1{fill:#4d4d4d;}.cls-2{fill:#fff;}.cls-3,.cls-4{fill:none;stroke:#999;stroke-miterlimit:10;stroke-width:0.5px;}.cls-4{stroke-dasharray:2 2;}.cls-5{fill:#999;}</style></defs><title>construction</title><g id="Lager_2" data-name="Lager 2"><g id="Lager_1-2" data-name="Lager 1"><rect class="cls-1" width="360" height="360"/><path class="cls-2" d="M130.32,156.33,118.68,165c-5.5-4.73-12.58-5.66-16.49-5.66s-8.08,1.13-8.72,4,1.94,4.89,6.34,6.09c5,1.35,9.58,2.55,16.61,4.55,10.46,3,17.61,7.51,17.61,18,0,14.46-12.84,22-30,22s-28.92-9-32.42-13.14l12.31-9.2c8.65,7.54,14.66,8.6,19.68,8.6,5.77,0,11.16-1.24,11.85-4.48.56-2.62-1.61-4.7-6.52-5.84-5.56-1.28-10.25-2.32-15.48-3.69-14.18-3.72-18.18-12-18.18-19.38,0-10.2,9.5-20.68,26.86-20.68,17.81,0,28.23,10.2,28.23,10.2M204,147H153v66h54V198H171V186h24V171H171v-9h33Zm-63,81h3V132h-3Zm72,0h3V132h-3Zm12-15h42.42c11.34,0,20.53-6.84,20.53-17.78,0-8.54-5.59-14.21-13.42-16.7a4.4,4.4,0,0,0-.76-.1,4.75,4.75,0,0,0,.76-.13A15.17,15.17,0,0,0,284,163.73c0-10.21-9-16.73-20.19-16.73H225Zm18-54h15.34a6,6,0,1,1,0,12H243Zm18.07,39H243V186h18.07a6,6,0,0,1,0,12Z"/><line class="cls-3" x1="288" y1="360" x2="288"/><line class="cls-3" x1="72" y1="360" x2="72"/><line class="cls-3" x1="144" y1="360" x2="144"/><line class="cls-3" x1="216" y1="360" x2="216"/><line class="cls-3" y1="180" x2="1" y2="180"/><line class="cls-4" x1="3" y1="180" x2="358" y2="180"/><line class="cls-3" x1="359" y1="180" x2="360" y2="180"/><line class="cls-3" x1="180" x2="180" y2="1"/><line class="cls-4" x1="180" y1="3" x2="180" y2="358"/><line class="cls-3" x1="180" y1="359" x2="180" y2="360"/><path class="cls-5" d="M359.5.5v359H.5V.5h359M360,0H0V360H360V0Z"/></g></g></svg>