<?xml version="1.0" encoding="utf-8"?>
<!-- Generator: Adobe Illustrator 21.0.2, SVG Export Plug-In . SVG Version: 6.00 Build 0)  -->
<svg version="1.1" id="Lager_1" xmlns="http://www.w3.org/2000/svg" xmlns:xlink="http://www.w3.org/1999/xlink" x="0px" y="0px"
	 viewBox="0 0 360 360" style="enable-background:new 0 0 360 360;" xml:space="preserve">
<style type="text/css">
	.st0{fill:#41B0EE;}
	.st1{fill:#FFFFFF;}
	.st2{font-family:'SEBBasic-Medium';}
	.st3{font-size:30px;}
	.st4{letter-spacing:-1;}
	.st5{font-family:'SEBBasic-Regular';}
	.st6{fill:none;stroke:#FFFFFF;stroke-miterlimit:10;}
</style>
<title>dl-logo-cmyk</title>
<rect y="0" class="st0" width="360" height="360"/>
<text transform="matrix(1 0 0 1 27.05 48.46)" class="st1 st2 st3">L</text>
<text transform="matrix(1 0 0 1 41.57 48.46)" class="st1 st2 st3">o</text>
<text transform="matrix(1 0 0 1 57.39 48.46)" class="st1 st2 st3">g</text>
<text transform="matrix(1 0 0 1 73.28 48.46)" class="st1 st2 st3">o</text>
<text transform="matrix(1 0 0 1 89.21 48.46)" class="st1 st2 st3">t</text>
<text transform="matrix(1 0 0 1 100.39 48.46)" class="st1 st2 st3">y</text>
<text transform="matrix(1 0 0 1 116.26 48.46)" class="st1 st2 st3">p</text>
<text transform="matrix(1 0 0 1 133.29 48.46)" class="st1 st2 st3">e</text>
<text transform="matrix(1 0 0 1 149.64 48.46)" class="st1 st2 st3 st4"> </text>
<text transform="matrix(1 0 0 1 154.44 48.46)" class="st1 st2 st3">f</text>
<text transform="matrix(1 0 0 1 165.1 48.46)" class="st1 st2 st3">o</text>
<text transform="matrix(1 0 0 1 181.06 48.46)" class="st1 st2 st3">r</text>
<text transform="matrix(1 0 0 1 192.91 48.46)" class="st1 st2 st3 st4"> </text>
<text transform="matrix(1 0 0 1 197.71 48.46)" class="st1 st2 st3">p</text>
<text transform="matrix(1 0 0 1 214.49 48.46)" class="st1 st2 st3">r</text>
<text transform="matrix(1 0 0 1 225.83 48.46)" class="st1 st2 st3">i</text>
<text transform="matrix(1 0 0 1 232.85 48.46)" class="st1 st2 st3">n</text>
<text transform="matrix(1 0 0 1 248.76 48.46)" class="st1 st2 st3">t</text>
<text transform="matrix(1 0 0 1 259.86 48.46)" class="st1 st2 st3 st4"> </text>
<text transform="matrix(1 0 0 1 264.66 48.46)" class="st1 st2 st3">u</text>
<text transform="matrix(1 0 0 1 280.82 48.46)" class="st1 st2 st3">s</text>
<text transform="matrix(1 0 0 1 294.88 48.46)" class="st1 st2 st3">e </text>
<text transform="matrix(1 0 0 1 27.05 84.46)" class="st1 st5 st3">C</text>
<text transform="matrix(1 0 0 1 43.44 84.46)" class="st1 st5 st3 st4">M</text>
<text transform="matrix(1 0 0 1 66.11 84.46)" class="st1 st5 st3 st4">Y</text>
<text transform="matrix(1 0 0 1 83.5 84.46)" class="st1 st5 st3">K</text>
<text transform="matrix(1 0 0 1 102.1 84.46)" class="st1 st5 st3 st4"> </text>
<text transform="matrix(1 0 0 1 106.9 84.46)" class="st1 st5 st3">+</text>
<text transform="matrix(1 0 0 1 124.9 84.46)" class="st1 st5 st3 st4"> </text>
<text transform="matrix(1 0 0 1 129.7 84.46)" class="st1 st5 st3">P</text>
<text transform="matrix(1 0 0 1 145.8 84.46)" class="st1 st5 st3">a</text>
<text transform="matrix(1 0 0 1 160.87 84.46)" class="st1 st5 st3">n</text>
<text transform="matrix(1 0 0 1 175.81 84.46)" class="st1 st5 st3">t</text>
<text transform="matrix(1 0 0 1 185.52 84.46)" class="st1 st5 st3">o</text>
<text transform="matrix(1 0 0 1 200.82 84.46)" class="st1 st5 st3">n</text>
<text transform="matrix(1 0 0 1 216.18 84.46)" class="st1 st5 st3">e</text>
<text transform="matrix(1 0 0 1 231.52 84.46)" class="st1 st5 st3">®</text>
<polyline class="st6" points="164.3,248.6 95.7,317.2 27,248.6 "/>
<line class="st6" x1="95.7" y1="317.2" x2="95.7" y2="180"/>
<line class="st6" x1="27" y1="333.8" x2="164.3" y2="333.8"/>
</svg>
