<?xml version="1.0" encoding="utf-8"?>
<!-- Generator: Adobe Illustrator 21.0.2, SVG Export Plug-In . SVG Version: 6.00 Build 0)  -->
<svg version="1.1" id="Lager_1" xmlns="http://www.w3.org/2000/svg" xmlns:xlink="http://www.w3.org/1999/xlink" x="0px" y="0px"
	 viewBox="0 0 360 360" style="enable-background:new 0 0 360 360;" xml:space="preserve">
<style type="text/css">
	.st0{fill:#41B0EE;}
	.st1{fill:#FFFFFF;}
	.st2{font-family:'SEBBasic-Medium';}
	.st3{font-size:30px;}
	.st4{letter-spacing:-1;}
	.st5{fill:none;stroke:#FFFFFF;stroke-miterlimit:10;}
</style>
<title>dl-logo-full</title>
<rect y="0" class="st0" width="360" height="360"/>
<text transform="matrix(1 0 0 1 27.05 48.46)" class="st1 st2 st3 st4">F</text>
<text transform="matrix(1 0 0 1 42.1 48.46)" class="st1 st2 st3">u</text>
<text transform="matrix(1 0 0 1 58.21 48.46)" class="st1 st2 st3">l</text>
<text transform="matrix(1 0 0 1 65.95 48.46)" class="st1 st2 st3">l</text>
<text transform="matrix(1 0 0 1 74.05 48.46)" class="st1 st2 st3 st4"> </text>
<text transform="matrix(1 0 0 1 78.85 48.46)" class="st1 st2 st3">L</text>
<text transform="matrix(1 0 0 1 93.37 48.46)" class="st1 st2 st3">o</text>
<text transform="matrix(1 0 0 1 109.19 48.46)" class="st1 st2 st3">g</text>
<text transform="matrix(1 0 0 1 125.08 48.46)" class="st1 st2 st3">o</text>
<text transform="matrix(1 0 0 1 141 48.46)" class="st1 st2 st3">t</text>
<text transform="matrix(1 0 0 1 152.19 48.46)" class="st1 st2 st3">y</text>
<text transform="matrix(1 0 0 1 168.06 48.46)" class="st1 st2 st3">p</text>
<text transform="matrix(1 0 0 1 185.09 48.46)" class="st1 st2 st3">e</text>
<text transform="matrix(1 0 0 1 201.44 48.46)" class="st1 st2 st3 st4"> </text>
<text transform="matrix(1 0 0 1 206.24 48.46)" class="st1 st2 st3">P</text>
<text transform="matrix(1 0 0 1 223.27 48.46)" class="st1 st2 st3">a</text>
<text transform="matrix(1 0 0 1 239.3 48.46)" class="st1 st2 st3">c</text>
<text transform="matrix(1 0 0 1 254.07 48.46)" class="st1 st2 st3">k</text>
<text transform="matrix(1 0 0 1 268.98 48.46)" class="st1 st2 st3">a</text>
<text transform="matrix(1 0 0 1 284.71 48.46)" class="st1 st2 st3">g</text>
<text transform="matrix(1 0 0 1 300.6 48.46)" class="st1 st2 st3">e</text>
<polyline class="st5" points="164.3,248.6 95.7,317.2 27,248.6 "/>
<line class="st5" x1="95.7" y1="317.2" x2="95.7" y2="180"/>
<line class="st5" x1="27" y1="333.8" x2="164.3" y2="333.8"/>
</svg>
