<svg xmlns="http://www.w3.org/2000/svg" viewBox="0 0 360 360"><defs><style>.cls-1{fill:#673ab6;}.cls-2{fill:#60cd18;}.cls-3{fill:#fff;}</style></defs><title>Resurs 10</title><g id="Lager_2" data-name="Lager 2"><g id="Lager_1-2" data-name="Lager 1"><rect class="cls-1" width="360" height="360"/><rect class="cls-2" x="240" y="240" width="120" height="120"/><path class="cls-3" d="M283.44,292.11l-3.88,2.9a8.65,8.65,0,0,0-5.5-1.89c-1.32,0-2.69.38-2.91,1.32s.65,1.63,2.11,2c1.67.45,3.19.85,5.54,1.52,3.49,1,5.87,2.5,5.87,6,0,4.82-4.28,7.32-10,7.32a14.85,14.85,0,0,1-10.81-4.38l4.1-3.07c2.88,2.51,4.89,2.87,6.56,2.87,1.92,0,3.72-.41,3.95-1.49.19-.87-.54-1.57-2.17-1.95-1.85-.43-3.42-.77-5.16-1.23-4.73-1.24-6.06-4-6.06-6.46,0-3.4,3.17-6.89,9-6.89a14.19,14.19,0,0,1,9.41,3.4M308,289H291v22h18v-5H297v-4h8v-5h-8v-3h11Zm-21,27h1V284h-1Zm24,0h1V284h-1Zm4-5h14.14c3.78,0,6.84-2.28,6.84-5.93,0-2.85-1.86-4.74-4.47-5.57a1.47,1.47,0,0,0-.25,0,1.58,1.58,0,0,0,.25,0,5.06,5.06,0,0,0,3.15-4.85c0-3.4-3-5.58-6.73-5.58H315Zm6-18h5.11a2,2,0,1,1,0,4H321Zm6,13h-6v-4h6a2,2,0,0,1,0,4Z"/></g></g></svg>