<svg xmlns="http://www.w3.org/2000/svg" viewBox="0 0 200.5 200.5"><defs><style>.cls-1{fill:#60cd18;}.cls-2{fill:#fff;}.cls-3{fill:none;stroke:#999;stroke-miterlimit:10;stroke-width:0.5px;}</style></defs><title>Resurs 13</title><g id="Lager_2" data-name="Lager 2"><g id="Lager_1-2" data-name="Lager 1"><rect class="cls-1" x="40.25" y="40.25" width="120" height="120"/><path class="cls-2" d="M83.69,92.36l-3.88,2.9a8.65,8.65,0,0,0-5.5-1.89c-1.32,0-2.69.38-2.91,1.32s.65,1.63,2.11,2c1.67.45,3.19.85,5.54,1.52,3.49,1,5.87,2.5,5.87,6,0,4.82-4.28,7.32-10,7.32a14.85,14.85,0,0,1-10.81-4.38l4.1-3.07c2.88,2.51,4.89,2.87,6.56,2.87,1.92,0,3.72-.41,3.95-1.49.19-.87-.54-1.57-2.17-1.95-1.85-.43-3.42-.77-5.16-1.23-4.73-1.24-6.06-4-6.06-6.46,0-3.4,3.17-6.89,9-6.89a14.19,14.19,0,0,1,9.41,3.4m24.56-3.11h-17v22h18v-5h-12v-4h8v-5h-8v-3h11Zm-21,27h1v-32h-1Zm24,0h1v-32h-1Zm4-5h14.14c3.78,0,6.84-2.28,6.84-5.93,0-2.85-1.86-4.74-4.47-5.57a1.47,1.47,0,0,0-.25,0,1.58,1.58,0,0,0,.25,0,5.06,5.06,0,0,0,3.15-4.85c0-3.4-3-5.58-6.73-5.58H115.25Zm6-18h5.11a2,2,0,1,1,0,4h-5.11Zm6,13h-6v-4h6a2,2,0,0,1,0,4Z"/><line class="cls-3" x1="0.25" y1="0.25" x2="40.25" y2="40.25"/><line class="cls-3" x1="0.25" y1="40.25" x2="40.25" y2="0.25"/><line class="cls-3" x1="0.25" y1="160.25" x2="40.25" y2="200.25"/><line class="cls-3" x1="0.25" y1="200.25" x2="40.25" y2="160.25"/><line class="cls-3" x1="160.25" y1="0.25" x2="200.25" y2="40.25"/><line class="cls-3" x1="160.25" y1="40.25" x2="200.25" y2="0.25"/><line class="cls-3" x1="160.25" y1="160.25" x2="200.25" y2="200.25"/><line class="cls-3" x1="160.25" y1="200.25" x2="200.25" y2="160.25"/><rect class="cls-3" x="0.25" y="0.25" width="200" height="200"/><line class="cls-3" x1="40.25" y1="0.25" x2="40.25" y2="200.25"/><line class="cls-3" x1="80.25" y1="0.25" x2="80.25" y2="200.25"/><line class="cls-3" x1="120.25" y1="0.25" x2="120.25" y2="200.25"/><line class="cls-3" x1="160.25" y1="0.25" x2="160.25" y2="200.25"/><line class="cls-3" x1="200.25" y1="40.25" x2="0.25" y2="40.25"/><line class="cls-3" x1="200.25" y1="80.25" x2="0.25" y2="80.25"/><line class="cls-3" x1="200.25" y1="120.25" x2="0.25" y2="120.25"/><line class="cls-3" x1="200.25" y1="160.25" x2="0.25" y2="160.25"/></g></g></svg>