<svg xmlns="http://www.w3.org/2000/svg" viewBox="0 0 360 360"><defs><style>.cls-1{fill:#eee;}.cls-2{fill:#60cd18;}.cls-3{fill:#fff;}.cls-4{fill:none;stroke:#999;stroke-miterlimit:10;stroke-width:0.5px;}</style></defs><title>Resurs 7</title><g id="Lager_2" data-name="Lager 2"><g id="Lager_1-2" data-name="Lager 1"><rect class="cls-1" width="360" height="360"/><rect class="cls-2" x="220" y="220" width="120" height="120"/><path class="cls-3" d="M263.58,272.25l-3.88,2.9a8.65,8.65,0,0,0-5.5-1.89c-1.32,0-2.69.38-2.91,1.32s.65,1.63,2.11,2c1.67.45,3.19.85,5.54,1.52,3.49,1,5.87,2.5,5.87,6,0,4.82-4.28,7.32-10,7.32A14.85,14.85,0,0,1,244,287.07l4.1-3.07c2.88,2.51,4.89,2.87,6.56,2.87,1.92,0,3.72-.41,3.95-1.49.19-.87-.54-1.57-2.17-1.95-1.85-.43-3.42-.77-5.16-1.23-4.73-1.24-6.06-4-6.06-6.46,0-3.4,3.17-6.89,9-6.89a14.19,14.19,0,0,1,9.41,3.4m24.74-3.06H271v21.62h17.62v-5H277.09v-3.48h8v-4.77h-8v-3.44h11.22Zm-21.78,26.61h1.34V264.19h-1.34Zm24.37,0h1.34V264.19h-1.34Zm4.47-5h13.9c3.72,0,6.73-2.24,6.73-5.83,0-2.8-1.83-4.65-4.4-5.47a1.44,1.44,0,0,0-.25,0,1.55,1.55,0,0,0,.25,0,5,5,0,0,0,3.1-4.77c0-3.35-3-5.48-6.61-5.48H295.38Zm6.11-17.13h4.85a1.9,1.9,0,1,1,0,3.8h-4.85ZM307.42,286h-5.94v-3.94h5.94a2,2,0,0,1,0,3.94Z"/><polyline class="cls-4" points="340 0 340 340 0 340"/></g></g></svg>