<svg xmlns="http://www.w3.org/2000/svg" viewBox="0 0 360 360"><defs><style>.cls-1{fill:#ededed;}.cls-2{fill:#60cc18;}.cls-3{fill:#fff;}.cls-4{fill:#ef3529;}</style></defs><title>l-dont-3</title><g id="Lager_2" data-name="Lager 2"><g id="Lager_1-2" data-name="Lager 1"><rect class="cls-1" width="360" height="360"/><rect class="cls-2" x="86.13" y="90" width="180" height="180" transform="translate(-75.69 177.26) rotate(-45)"/><path class="cls-3" d="M150.2,189.2l-1,7.19a13,13,0,0,0-7.83,3.83c-1.4,1.4-2.46,3.26-1.68,4.49s2.42,1,4.39-.09c2.25-1.29,4.29-2.49,7.48-4.26,4.75-2.64,8.88-3.57,12.59.14,5.11,5.11,3.23,12.3-2.86,18.38s-13.39,7.05-16.11,6.82l1.1-7.6c5.72-.39,8.22-2.14,10-3.92,2-2,3.51-4.38,2.61-5.77-.73-1.13-2.23-1.09-4.37.24-2.42,1.51-4.44,2.8-6.78,4.17-6.33,3.7-10.66,2.2-13.28-.42-3.61-3.61-4-10.67,2.19-16.81a21.28,21.28,0,0,1,13.59-6.38m22.75-29.35-18,18,23.33,23.33,19.09-19.09-5.3-5.3-12.73,12.73-4.24-4.24,8.49-8.49-5.3-5.3L169.77,180l-3.18-3.18,11.67-11.67Zm6.36,50.91,1.06-1.06-33.94-33.94-1.06,1.06Zm25.46-25.46,1.06-1.06L171.89,150.3l-1.06,1.06Zm-1.06-9.55,15-15c4-4,4.84-9.68,1-13.55-3-3-7-3-10.65-1.16a2.2,2.2,0,0,0-.3.23,2.37,2.37,0,0,0,.22-.32,7.58,7.58,0,0,0-1.8-8.49c-3.61-3.61-9.11-2.72-13.05,1.22l-13.71,13.71ZM191,150.3l5.42-5.42a3,3,0,1,1,4.24,4.24l-5.42,5.42Zm20.18,7.4-6.39,6.39-4.24-4.24,6.39-6.39a3,3,0,0,1,4.24,4.24Z"/><rect class="cls-4" x="-73.14" y="179.5" width="506.29" height="1" transform="translate(-74.56 180) rotate(-45)"/><rect class="cls-4" x="179.5" y="-73.14" width="1" height="506.29" transform="translate(-74.56 180) rotate(-45)"/></g></g></svg>