<svg xmlns="http://www.w3.org/2000/svg" viewBox="0 0 360 360"><defs><style>.cls-1{fill:#ededed;}.cls-2{fill:#fff;}.cls-3{fill:#ef3529;}</style></defs><title>l-dont-4</title><g id="Lager_2" data-name="Lager 2"><g id="Lager_1-2" data-name="Lager 1"><rect class="cls-1" width="360" height="360"/><rect class="cls-2" width="180" height="180"/><path d="M65.16,78.16l-5.82,4.35a13,13,0,0,0-8.25-2.83c-2,0-4,.57-4.36,2s1,2.45,3.17,3c2.51.68,4.79,1.27,8.31,2.28C63.44,88.48,67,90.74,67,96c0,7.23-6.42,11-15,11s-14.46-4.48-16.21-6.57l6.15-4.6c4.32,3.77,7.33,4.3,9.84,4.3,2.88,0,5.58-.62,5.92-2.24.28-1.31-.8-2.35-3.26-2.92-2.78-.64-5.12-1.16-7.74-1.85-7.09-1.86-9.09-6-9.09-9.69,0-5.1,4.75-10.34,13.43-10.34a21.28,21.28,0,0,1,14.12,5.1M102,73.5H76.5v33h27V99h-18V93h12V85.5h-12V81H102ZM70.5,114H72V66H70.5Zm36,0H108V66h-1.5Zm6-7.5h21.21c5.67,0,10.27-3.42,10.27-8.89,0-4.27-2.79-7.1-6.71-8.35a2.2,2.2,0,0,0-.38,0,2.37,2.37,0,0,0,.38-.07A7.58,7.58,0,0,0,142,81.87c0-5.11-4.52-8.37-10.1-8.37H112.5Zm9-27h7.67a3,3,0,1,1,0,6H121.5Zm9,19.5h-9V93h9a3,3,0,0,1,0,6Z"/><rect class="cls-3" x="-73.14" y="179.5" width="506.29" height="1" transform="translate(-74.56 180) rotate(-45)"/><rect class="cls-3" x="179.5" y="-73.14" width="1" height="506.29" transform="translate(-74.56 180) rotate(-45)"/></g></g></svg>