<svg xmlns="http://www.w3.org/2000/svg" viewBox="0 0 213.5 150.5"><defs><style>.cls-1{fill:none;stroke:#999;stroke-miterlimit:10;stroke-width:0.5px;}</style></defs><title>Resurs 15</title><g id="Lager_2" data-name="Lager 2"><g id="Lager_1-2" data-name="Lager 1"><path d="M80.85,62.92l-6.06,4.53a13.51,13.51,0,0,0-8.59-2.95c-2.06,0-4.21.59-4.54,2.07s1,2.55,3.3,3.17c2.61.71,5,1.33,8.65,2.37,5.45,1.56,9.17,3.91,9.17,9.38,0,7.53-6.69,11.44-15.64,11.44s-15.06-4.67-16.88-6.84l6.41-4.79c4.5,3.92,7.63,4.48,10.25,4.48,3,0,5.81-.64,6.17-2.33.29-1.36-.84-2.45-3.4-3-2.89-.67-5.34-1.21-8.06-1.92-7.39-1.94-9.47-6.23-9.47-10.09,0-5.31,4.95-10.77,14-10.77a22.17,22.17,0,0,1,14.71,5.31m38.38-4.86H92.66V92.44h28.13V84.63H102V78.38h12.5V70.56H102V65.88h17.19ZM86.41,100.25H88v-50H86.41Zm37.5,0h1.56v-50h-1.56Zm6.25-7.81h22.09c5.91,0,10.69-3.56,10.69-9.26,0-4.45-2.91-7.4-7-8.7a2.29,2.29,0,0,0-.4,0,2.47,2.47,0,0,0,.4-.07,7.9,7.9,0,0,0,4.93-7.58c0-5.32-4.71-8.71-10.52-8.71h-20.2Zm9.38-28.12h8a3.13,3.13,0,1,1,0,6.25h-8Zm9.41,20.31h-9.41V78.38h9.41a3.13,3.13,0,0,1,0,6.25Z"/><line class="cls-1" x1="50.25" y1="0.25" x2="50.25" y2="150.25"/><line class="cls-1" x1="163.25" y1="0.25" x2="163.25" y2="150.25"/><line class="cls-1" x1="213.25" y1="50.25" x2="0.25" y2="50.25"/><line class="cls-1" x1="213.25" y1="100.25" x2="0.25" y2="100.25"/><line class="cls-1" x1="163.25" y1="50.25" x2="213.25" y2="100.25"/><line class="cls-1" x1="163.25" y1="100.25" x2="213.25" y2="50.25"/><line class="cls-1" x1="163.25" y1="100.25" x2="213.25" y2="150.25"/><line class="cls-1" x1="163.25" y1="150.25" x2="213.25" y2="100.25"/><line class="cls-1" x1="0.25" y1="0.25" x2="50.25" y2="50.25"/><line class="cls-1" x1="0.25" y1="50.25" x2="50.25" y2="0.25"/><line class="cls-1" x1="163.25" y1="0.25" x2="213.25" y2="50.25"/><line class="cls-1" x1="163.25" y1="50.25" x2="213.25" y2="0.25"/><line class="cls-1" x1="0.25" y1="100.25" x2="50.25" y2="150.25"/><line class="cls-1" x1="0.25" y1="150.25" x2="50.25" y2="100.25"/><rect class="cls-1" x="0.25" y="0.25" width="213" height="150"/></g></g></svg>