<?xml version="1.0" encoding="utf-8"?>
<!-- Generator: Adobe Illustrator 21.0.2, SVG Export Plug-In . SVG Version: 6.00 Build 0)  -->
<svg version="1.1" id="Lager_1" xmlns="http://www.w3.org/2000/svg" xmlns:xlink="http://www.w3.org/1999/xlink" x="0px" y="0px"
	 viewBox="0 0 360 360" style="enable-background:new 0 0 360 360;" xml:space="preserve">
<style type="text/css">
	.st0{fill:#FFFFFF;}
</style>
<title>placeholder</title>
<g id="Lager_2">
	<g id="Lager_1-2">
		<rect y="0" class="st0" width="360" height="360"/>
		<path d="M120.9,231.7l0.2,0.2c3.3,3.3,2.9,7.6-0.6,11.1l-4.3,4.3l9.2,9.1l-1.1,1.1l-19.8-19.8l5.4-5.4
			C113.3,228.8,117.6,228.4,120.9,231.7z M119.9,232.8c-2.9-2.9-6.3-2.5-9.2,0.4l-4.3,4.3l8.8,8.8l4.3-4.3
			C122.4,239.2,122.8,235.7,119.9,232.8L119.9,232.8z"/>
		<path d="M136.5,239.9l-17.1-17.1l1-1l16.9,16.9c1.5,1.5,2.6,1.4,3.8,0.3l0.7-0.7l0.9,0.9l-0.9,0.9
			C140.2,241.5,138.5,241.9,136.5,239.9z"/>
		<path d="M141.5,233.3l-0.2-0.2c-2.4-2.4-2.4-5.9,0.9-9.3l4.4-4.4l-1.6-1.6c-2.6-2.6-5.6-2.7-8.1-0.2c-1.9,1.8-2.5,4.7-1.4,7.1
			l-1.2,0.7c-1.4-3-0.7-6.5,1.7-8.7c3-3,6.7-2.9,9.7,0.1l9.5,9.5l-0.9,0.9l-2.7-2.7c0.9,2.8,0.1,5.9-2.1,8
			C147.2,235.1,143.8,235.6,141.5,233.3z M149.1,221.9l-1.8-1.8l-4.3,4.3c-2.7,2.7-2.7,5.7-0.8,7.6s4.7,1.6,6.8-0.4
			c2.7-2.6,2.8-6.8,0.3-9.5C149.2,222,149.2,222,149.1,221.9L149.1,221.9z"/>
		<path d="M151.9,216l-0.3-0.3c-4.7-4.7-4.6-9.9-1.4-13c2.4-2.4,6.1-2.9,9.1-1.3l-0.7,1.2c-2.5-1.4-5.5-1-7.5,1
			c-2.6,2.6-2.6,7,1.6,11.2l0.1,0.1c4.2,4.2,8.6,4.2,11.2,1.6c2-2,2.4-5.1,1-7.5l1.2-0.7c1.6,3,1.1,6.7-1.3,9.1
			C161.7,220.5,156.6,220.7,151.9,216z"/>
		<path d="M178.2,204.4c-3.4,3.4-8.7,3.4-13.4-1.3l-0.3-0.3c-4.7-4.7-4.7-10-1.4-13.3s8.5-3.3,13.2,1.3l0.3,0.3L165.7,202
			c4.1,4.1,8.6,4.6,11.7,1.5c2-1.9,2.5-4.8,1.4-7.3l1.2-0.7C181.3,198.5,180.6,202.1,178.2,204.4z M174.8,191.5
			c-4.1-3.8-8.4-3.7-11-1.1s-2.7,6.8,1.1,11L174.8,191.5z"/>
		<path d="M187.9,175.4l9.2,9.2l-1,1l-9-9c-2.8-2.8-6.1-2.9-8.4-0.6c-2.5,2.5-2.2,6.4,0.5,9.1l8.8,8.8l-1,1L167.1,175l1-1l8.2,8.2
			c-1-2.5-0.4-5.4,1.6-7.3C180.8,172.1,184.7,172.2,187.9,175.4z"/>
		<path d="M193.3,174.5l-0.3-0.3c-4.7-4.7-4.7-10-1.4-13.3s8.5-3.3,13.3,1.4l0.3,0.3c4.7,4.7,4.7,10,1.4,13.3S198,179.3,193.3,174.5
			z M204.1,163.6l-0.1-0.1c-4.3-4.3-8.8-4.4-11.5-1.6s-2.6,7.2,1.6,11.5l0.1,0.1c4.3,4.3,8.8,4.4,11.5,1.6S208.4,167.9,204.1,163.6z
			"/>
		<path d="M213,163.4l-17.1-17.1l1-1l16.9,16.9c1.5,1.5,2.6,1.4,3.8,0.3l0.7-0.7l0.9,0.9l-0.9,0.9C216.7,165,215,165.4,213,163.4z"
			/>
		<path d="M214.1,153.7l-0.3-0.3c-4.8-4.8-4.6-9.9-1.5-12.9c2.1-2.2,5.5-2.8,8.3-1.4l-8.8-8.8l1-1l19.8,19.8l-0.9,0.9l-3.3-3.3
			c1.5,2.8,0.9,6.3-1.4,8.5C224,158.3,218.9,158.6,214.1,153.7z M224.7,143l-0.1-0.1c-4.2-4.2-8.6-4.3-11.2-1.6s-2.6,7.1,1.6,11.3
			l0.1,0.1c4.2,4.2,8.6,4.3,11.3,1.6S228.9,147.2,224.7,143z"/>
		<path d="M242.5,140.1c-3.4,3.4-8.7,3.4-13.4-1.3l-0.3-0.3c-4.7-4.7-4.7-10-1.4-13.3s8.5-3.3,13.2,1.3l0.3,0.3L230,137.7
			c4.1,4.1,8.6,4.6,11.7,1.5c2-1.9,2.5-4.8,1.4-7.3l1.2-0.7C245.6,134.2,244.9,137.8,242.5,140.1z M239.1,127.1
			c-4.1-3.8-8.4-3.7-11-1.1s-2.7,6.8,1.1,11L239.1,127.1z"/>
		<path d="M237.4,116l0.9-0.9l4,4c-1.8-3.2-1.2-7.1,1.4-9.7l1,1c-3.3,3.3-2.7,8.2,0.9,11.8l6.9,6.9l-1,1L237.4,116z"/>
	</g>
</g>
</svg>
