<?xml version="1.0" encoding="utf-8"?>
<!-- Generator: Adobe Illustrator 21.0.2, SVG Export Plug-In . SVG Version: 6.00 Build 0)  -->
<svg version="1.1" id="Lager_1" xmlns="http://www.w3.org/2000/svg" xmlns:xlink="http://www.w3.org/1999/xlink" x="0px" y="0px"
	 viewBox="0 0 299.9 131.8" style="enable-background:new 0 0 299.9 131.8;" xml:space="preserve">
<style type="text/css">
	.st0{fill:#FFFFFF;}
</style>
<g>
	<g>
		<path class="st0" d="M81.5,33.6L65.3,45.7c-7.6-6.6-17.5-7.9-22.9-7.9c-5.5,0-11.2,1.6-12.1,5.5c-0.9,3.8,2.7,6.8,8.8,8.5
			c7,1.9,13.3,3.5,23.1,6.3c14.5,4.1,24.5,10.4,24.5,25c0,20.1-17.8,30.5-41.7,30.5S4.8,101.2,0,95.3l17.1-12.8
			c12,10.5,20.4,11.9,27.3,11.9c8,0,15.5-1.7,16.5-6.2c0.8-3.6-2.2-6.5-9.1-8.1c-7.7-1.8-14.2-3.2-21.5-5.1C10.6,69.8,5,58.4,5,48.1
			c0-14.2,13.2-28.7,37.3-28.7C67,19.5,81.5,33.6,81.5,33.6 M184.6,20.9h-72.1V111h73.4V90.2h-48.1V75.7h33.1V55.8h-33.1V41.5h46.8
			L184.6,20.9L184.6,20.9z M93.8,131.8h5.6V0h-5.6V131.8z M195.3,131.8h5.6V0h-5.6V131.8z M214,111h57.9c15.5,0,28-9.3,28-24.3
			c0-11.7-7.6-19.4-18.3-22.8c0,0-0.4-0.1-1-0.1c0.6-0.1,1-0.2,1-0.2c6.1-2.4,12.9-8.9,12.9-19.9c0-13.9-12.3-22.8-27.6-22.8h-53
			V111H214z M239.4,39.6h20.2c4.7,0,8.4,3.7,8.4,7.9s-3.8,7.9-8.4,7.9h-20.2V39.6z M264.1,90.9h-24.7V74.5h24.7
			c4.4,0,7.9,3.5,7.9,8.2C272.1,87.4,268.5,90.9,264.1,90.9z"/>
	</g>
</g>
</svg>
