<?xml version="1.0" encoding="utf-8"?>
<!-- Generator: Adobe Illustrator 21.0.0, SVG Export Plug-In . SVG Version: 6.00 Build 0)  -->
<svg version="1.1" id="Lager_1" xmlns="http://www.w3.org/2000/svg" xmlns:xlink="http://www.w3.org/1999/xlink" x="0px" y="0px"
	 viewBox="0 0 500 500" style="enable-background:new 0 0 500 500;" xml:space="preserve">
<g>
	<g>
		<path d="M181.6,217.7l-16.2,12.1c-7.6-6.6-17.5-7.9-22.9-7.9c-5.5,0-11.2,1.6-12.1,5.5c-0.9,3.8,2.7,6.8,8.8,8.5
			c7,1.9,13.3,3.5,23.1,6.3c14.5,4.1,24.5,10.4,24.5,25c0,20.1-17.8,30.5-41.7,30.5s-40.2-12.4-45-18.3l17.1-12.8
			c12,10.5,20.4,11.9,27.3,11.9c8,0,15.5-1.7,16.5-6.2c0.8-3.6-2.2-6.5-9.1-8.1c-7.7-1.8-14.2-3.2-21.5-5.1
			c-19.7-5.2-25.3-16.6-25.3-26.9c0-14.2,13.2-28.7,37.3-28.7C167.1,203.6,181.6,217.7,181.6,217.7 M284.7,205h-72.1v90.1H286v-20.8
			h-48.1v-14.5H271v-19.9h-33.1v-14.3h46.8L284.7,205L284.7,205z M193.9,315.9h5.6V184.1h-5.6V315.9z M295.4,315.9h5.6V184.1h-5.6
			V315.9z M314.1,295.1H372c15.5,0,28-9.3,28-24.3c0-11.7-7.6-19.4-18.3-22.8c0,0-0.4-0.1-1-0.1c0.6-0.1,1-0.2,1-0.2
			c6.1-2.4,12.9-8.9,12.9-19.9c0-13.9-12.3-22.8-27.6-22.8h-53v90.1H314.1z M339.5,223.7h20.2c4.7,0,8.4,3.7,8.4,7.9
			s-3.8,7.9-8.4,7.9h-20.2V223.7z M364.2,275h-24.7v-16.4h24.7c4.4,0,7.9,3.5,7.9,8.2C372.2,271.5,368.6,275,364.2,275z"/>
	</g>
</g>
</svg>
