<?xml version="1.0" encoding="utf-8"?>
<!-- Generator: Adobe Illustrator 21.0.2, SVG Export Plug-In . SVG Version: 6.00 Build 0)  -->
<svg version="1.1" id="Lager_1" xmlns="http://www.w3.org/2000/svg" xmlns:xlink="http://www.w3.org/1999/xlink" x="0px" y="0px"
	 viewBox="0 0 360 360" style="enable-background:new 0 0 360 360;" xml:space="preserve">
<style type="text/css">
	.st0{fill:#EEEEEE;}
	.st1{fill:#60CD18;}
	.st2{fill:#FFFFFF;}
</style>
<title>secondary-placement</title>
<g id="Lager_2">
	<g id="Lager_1-2">
		<rect class="st0" width="360" height="360"/>
		<rect x="280" class="st1" width="80" height="80"/>
		<path class="st2" d="M309.1,34.8l-2.6,1.9c-1-0.8-2.3-1.3-3.7-1.3c-0.9,0-1.8,0.2-1.9,0.9s0.4,1.1,1.4,1.3s2.1,0.6,3.7,1
			c2.3,0.7,3.9,1.7,3.9,4c0,3.2-2.9,4.9-6.7,4.9c-2.7,0-5.3-1-7.2-2.9l2.7-2c1.1,1.2,2.7,1.9,4.4,1.9c1.3,0,2.5-0.3,2.6-1
			s-0.4-1-1.5-1.3s-2.3-0.5-3.4-0.8c-3.1-0.8-4-2.7-4-4.3c0-2.3,2.1-4.6,6-4.6C305.1,32.6,307.4,33.4,309.1,34.8 M325.6,32.9H314
			v14.4h11.7v-3.3H318v-2.3h5.3v-3.2H318v-2.3h7.5L325.6,32.9z M311,50.5h0.9V29.5H311V50.5z M327.2,50.5h0.9V29.5h-0.9V50.5z
			 M330.2,47.2h9.3c2.5,0,4.5-1.5,4.5-3.9c0-1.7-1.2-3.3-2.9-3.7h-0.2h0.2c1.3-0.5,2.1-1.8,2.1-3.2c0-2.2-2-3.7-4.4-3.7h-8.5
			L330.2,47.2z M334.3,35.8h3.2c0.7-0.1,1.3,0.5,1.4,1.2c0.1,0.7-0.5,1.3-1.2,1.4c-0.1,0-0.2,0-0.2,0h-3.2V35.8z M338.3,44h-4v-2.6
			h4c0.7,0,1.3,0.6,1.3,1.3C339.6,43.4,339,44,338.3,44L338.3,44z"/>
	</g>
</g>
</svg>
