<svg xmlns="http://www.w3.org/2000/svg" viewBox="0 0 360.25 360.25"><defs><style>.cls-1{fill:#999;}.cls-2{fill:#60cd18;}.cls-3{fill:#fff;}</style></defs><title>social-media-logo</title><g id="Lager_2" data-name="Lager 2"><g id="Lager_1-2" data-name="Lager 1"><path class="cls-1" d="M359.75.5V359.75H.5V.5H359.75m.5-.5H0V360.25H360.25V0Z"/><circle class="cls-2" cx="180.25" cy="180" r="180"/><path class="cls-3" d="M131.13,156.82l-11.61,8.67c-5.48-4.72-12.55-5.64-16.45-5.64s-8.06,1.13-8.69,4,1.93,4.88,6.32,6.07c5,1.35,9.55,2.54,16.57,4.54,10.43,3,17.56,7.49,17.56,18,0,14.42-12.8,21.9-30,21.9S76,205.33,72.55,201.17L84.82,192c8.62,7.51,14.62,8.58,19.63,8.58,5.75,0,11.13-1.23,11.82-4.47.56-2.61-1.6-4.69-6.5-5.83-5.54-1.28-10.22-2.31-15.44-3.68-14.14-3.71-18.13-11.94-18.13-19.32,0-10.17,9.47-20.62,26.79-20.62,17.76,0,28.16,10.17,28.16,10.17m74-9.15H153.38v64.69h52.7V197.44H171.56V187h23.79V172.75H171.56v-10.3h33.58ZM140,227.28h4V132.72h-4Zm72.9,0h4V132.72h-4Zm13.37-14.93h41.57c11.12,0,20.12-6.7,20.12-17.43,0-8.37-5.48-13.92-13.16-16.37a4.31,4.31,0,0,0-.74-.09,4.65,4.65,0,0,0,.74-.13,14.87,14.87,0,0,0,9.27-14.27c0-10-8.86-16.4-19.79-16.4h-38Zm18.27-51.24H259a5.69,5.69,0,1,1,0,11.36H244.52ZM262.28,198H244.52v-11.8h17.76a5.9,5.9,0,0,1,0,11.79Z"/></g></g></svg>