<svg xmlns="http://www.w3.org/2000/svg" viewBox="0 0 360 360"><defs><style>.cls-1{fill:#eee;}.cls-2{fill:none;stroke:#999;stroke-miterlimit:10;stroke-width:0.5px;}</style></defs><title>wordmark-margin-placement</title><g id="Lager_2" data-name="Lager 2"><g id="Lager_1-2" data-name="Lager 1"><rect class="cls-1" width="360" height="360"/><path d="M198.8,257.71l-6.75,5a15,15,0,0,0-9.57-3.28c-2.29,0-4.69.66-5.06,2.3s1.12,2.84,3.67,3.53c2.91.79,5.56,1.48,9.64,2.64,6.07,1.73,10.21,4.35,10.21,10.44,0,8.39-7.44,12.74-17.42,12.74s-16.77-5.2-18.8-7.62l7.14-5.34c5,4.37,8.5,5,11.41,5,3.34,0,6.47-.72,6.87-2.6.33-1.52-.93-2.73-3.78-3.39-3.22-.74-5.94-1.34-9-2.14-8.23-2.16-10.55-6.94-10.55-11.24,0-5.92,5.51-12,15.58-12a24.68,24.68,0,0,1,16.37,5.92m43-5.32h-30.1V290h30.65v-8.67H222.31v-6.06h13.83V267H222.31v-6h19.53Zm-37.89,46.3h2.34v-55h-2.34Zm42.4,0h2.34v-55h-2.34Zm7.78-8.68H278.3c6.46,0,11.7-3.9,11.7-10.14,0-4.87-3.19-8.1-7.65-9.52a2.51,2.51,0,0,0-.43-.05,2.7,2.7,0,0,0,.43-.08,8.65,8.65,0,0,0,5.39-8.3c0-5.82-5.15-9.54-11.51-9.54H254.12Zm10.62-29.8h8.45a3.31,3.31,0,1,1,0,6.6h-8.45Zm10.33,21.43H264.74v-6.86h10.33a3.43,3.43,0,0,1,0,6.86Z"/><polyline class="cls-2" points="290 0 290 290 0 290"/></g></g></svg>