<?xml version="1.0" encoding="utf-8"?>
<!-- Generator: Adobe Illustrator 21.0.2, SVG Export Plug-In . SVG Version: 6.00 Build 0)  -->
<svg version="1.1" id="Layer_1" xmlns="http://www.w3.org/2000/svg" xmlns:xlink="http://www.w3.org/1999/xlink" x="0px" y="0px"
	 viewBox="0 0 408 500" style="enable-background:new 0 0 408 500;" xml:space="preserve">
<style type="text/css">
	.st0{fill:#32BAF2;}
</style>
<g>
	
		<rect x="202.4" y="171.5" transform="matrix(0.7292 -0.6843 0.6843 0.7292 -86.6748 203.5928)" class="st0" width="22.9" height="79.7"/>
	
		<ellipse transform="matrix(0.7292 -0.6843 0.6843 0.7292 -63.9911 238.6013)" class="st0" cx="269.5" cy="200.2" rx="12.2" ry="12.2"/>
	
		<ellipse transform="matrix(0.7292 -0.6843 0.6843 0.7292 -128.0061 208.4383)" class="st0" cx="199.4" cy="266" rx="12.2" ry="12.2"/>
	<path class="st0" d="M396.9,43.5l-1.8-7.8l-7.8,1.7C290.5,58,208.9,9.6,208.1,9.1l-4.3-2.6l-4.2,2.6c-0.8,0.5-82.2,49.2-179.1,28.8
		l-7.8-1.7L10.9,44c-0.3,1.5-8.5,37.5-6.6,96.9c5.8,186.5,125.9,307.7,196,349.9l4.2,2.5l4.2-2.6c70-42.4,189.8-163.9,195.1-350.4
		C405.5,81,397.2,45,396.9,43.5z M20.6,140.4c-1.3-41.6,2.6-71.7,4.8-85c87.9,15.5,160.4-20,178.5-30c10.2,5.6,37.8,19.2,75.6,27.3
		L46,271.8C31.6,232.8,22.1,188.9,20.6,140.4z M204.5,474.3c-25-15.8-55.9-41.5-85.1-76.5l267.8-251.4
		C379.7,318.6,271.2,431.9,204.5,474.3z M387.6,130.5L112.2,389C88.8,359.6,67,324.3,50.4,283.2L293.2,55.3
		c26.3,4.3,56.7,5.5,89.2-0.3C384.5,67.2,388,93.8,387.6,130.5z"/>
	<polygon class="st0" points="305.7,116.3 288,133 279,123.5 297,106.5 283,91.6 248.4,124.2 303,182.2 319.6,166.6 302,147.8 
		319.7,131.2 	"/>
	<path class="st0" d="M105.3,258.7L85.9,277l54.6,58.1l19.4-18.2c16.1-15.1,16.4-39.4,1.1-55.8C145.6,244.7,121.4,243.5,105.3,258.7
		z M144.5,303.9l-1.1,1.1l-27.3-29l1.2-1.2c7.2-6.7,18.5-7.6,27.2,1.7C154,286.6,151.1,297.7,144.5,303.9z"/>
	
		<ellipse transform="matrix(0.7292 -0.6843 0.6843 0.7292 4.3321 270.795)" class="st0" cx="344.3" cy="129.9" rx="12.2" ry="12.2"/>
</g>
</svg>
