<?xml version="1.0" encoding="utf-8"?>
<!-- Generator: Adobe Illustrator 21.0.2, SVG Export Plug-In . SVG Version: 6.00 Build 0)  -->
<svg version="1.1" id="Layer_1" xmlns="http://www.w3.org/2000/svg" xmlns:xlink="http://www.w3.org/1999/xlink" x="0px" y="0px"
	 viewBox="0 0 800 800" style="enable-background:new 0 0 800 800;" xml:space="preserve">
<style type="text/css">
	.st0{fill:#002554;}
	.st1{fill:#CFB571;}
</style>
<rect class="st0" width="800" height="800"/>
<g>
	
		<rect x="398.4" y="321.5" transform="matrix(0.7292 -0.6843 0.6843 0.7292 -136.2433 378.333)" class="st1" width="22.9" height="79.7"/>
	
		<ellipse transform="matrix(0.7292 -0.6843 0.6843 0.7292 -113.5597 413.3412)" class="st1" cx="465.5" cy="350.2" rx="12.2" ry="12.2"/>
	
		<ellipse transform="matrix(0.7292 -0.6843 0.6843 0.7292 -177.5746 383.179)" class="st1" cx="395.4" cy="416" rx="12.2" ry="12.2"/>
	<path class="st1" d="M592.9,193.5l-1.8-7.8l-7.8,1.7c-96.8,20.7-178.4-27.8-179.2-28.3l-4.3-2.6l-4.2,2.6
		c-0.8,0.5-82.2,49.2-179.1,28.8l-7.8-1.7l-1.8,7.8c-0.3,1.5-8.5,37.5-6.6,96.9c5.8,186.5,125.9,307.7,196,349.9l4.2,2.5l4.2-2.6
		c70-42.4,189.8-163.9,195.1-350.4C601.5,231,593.2,195,592.9,193.5z M216.6,290.4c-1.3-41.6,2.6-71.7,4.8-85
		c87.9,15.5,160.4-20,178.5-30c10.2,5.6,37.8,19.2,75.6,27.3L242,421.8C227.6,382.8,218.1,338.9,216.6,290.4z M400.5,624.3
		c-25-15.8-55.9-41.5-85.1-76.5l267.8-251.4C575.7,468.6,467.2,581.9,400.5,624.3z M583.6,280.5L308.2,539
		c-23.3-29.4-45.2-64.8-61.7-105.9l242.8-227.9c26.3,4.3,56.7,5.5,89.2-0.3C580.5,217.2,584,243.8,583.6,280.5z"/>
	<polygon class="st1" points="501.7,266.3 484,283 475,273.5 493,256.5 479,241.6 444.4,274.2 499,332.2 515.6,316.6 498,297.8 
		515.7,281.2 	"/>
	<path class="st1" d="M301.3,408.7L281.9,427l54.6,58.1l19.4-18.2c16.1-15.1,16.4-39.4,1.1-55.8
		C341.6,394.7,317.4,393.5,301.3,408.7z M340.5,453.9l-1.1,1.1l-27.3-29l1.2-1.2c7.2-6.7,18.5-7.6,27.2,1.7
		C350,436.6,347.1,447.7,340.5,453.9z"/>
	
		<ellipse transform="matrix(0.7292 -0.6843 0.6843 0.7292 -45.2366 445.5344)" class="st1" cx="540.3" cy="279.9" rx="12.2" ry="12.2"/>
</g>
</svg>
