<svg id="Layer_1" data-name="Layer 1" xmlns="http://www.w3.org/2000/svg" viewBox="0 0 600 520"><defs><style>.cls-1{fill:#cfb571;}.cls-2{fill:#ffec0d;}.cls-3{fill:#0568af;}.cls-4{fill:#e21f26;}</style></defs><title>DIF_primary_skold_4col</title><g id="Guld_sköld" data-name="Guld sköld"><path class="cls-1" d="M492.88,53.6l-1.8-7.8-7.8,1.7c-96.8,20.6-178.4-27.8-179.2-28.3l-4.3-2.6-4.2,2.6c-.8.5-82.2,49.2-179.1,28.8l-7.8-1.7-1.8,7.8c-.3,1.5-8.5,37.5-6.6,96.9,5.8,186.5,125.9,307.7,196,349.9l4.2,2.5,4.2-2.6c70-42.4,189.8-163.9,195.1-350.4C501.48,91.1,493.18,55.1,492.88,53.6Z"/></g><path class="cls-2" d="M375.38,62.8a286.71,286.71,0,0,1-75.6-27.3c-18.1,10-90.6,45.4-178.5,30-2.2,13.4-6.1,43.4-4.8,85a415.31,415.31,0,0,0,25.4,131.4Z"/><path class="cls-3" d="M300.48,484.4c66.8-42.4,175.2-155.7,182.7-327.9L215.28,407.9C244.58,442.9,275.38,468.6,300.48,484.4Z"/><path class="cls-4" d="M213.28,284.9l-1.2,1.2,27.3,29,1.1-1.1c6.7-6.3,9.6-17.3.1-27.4C231.78,277.4,220.48,278.2,213.28,284.9Z"/><path class="cls-4" d="M478.48,65a264.32,264.32,0,0,1-89.2.3l-242.9,228a426.57,426.57,0,0,0,61.8,105.8l275.4-258.6C484,103.9,480.48,77.3,478.48,65ZM255.88,326.9l-19.4,18.2-54.6-58,19.4-18.2c16.2-15.2,40.4-14,55.7,2.3S272,311.8,255.88,326.9Zm47.8-42a12.17,12.17,0,1,1,.5-17.2A12.26,12.26,0,0,1,303.68,284.9Zm25.1-26.6-54.5-58.1L291,184.5l54.5,58.1Zm45-39.2a12.17,12.17,0,1,1,.5-17.2A12.26,12.26,0,0,1,373.78,219.1Zm41.8-42.4L399,192.3l-54.6-58.1L379,101.7l14,14.9-18,16.9,9,9.5,17.8-16.7,14,14.9L398,157.9Zm33-27.8a12.17,12.17,0,1,1,.5-17.2A12.08,12.08,0,0,1,448.58,148.9Z"/></svg>