<svg xmlns="http://www.w3.org/2000/svg" xmlns:xlink="http://www.w3.org/1999/xlink" viewBox="0 0 754.81 410.35"><defs><style>.cls-1{fill:url(#Namnlös_övertoning_11);}.cls-2{fill:url(#Namnlös_övertoning_66);}.cls-3{fill:url(#Namnlös_övertoning_5);}.cls-4{fill:url(#Namnlös_övertoning_5-2);}.cls-5{fill:url(#Namnlös_övertoning_5-3);}.cls-6{fill:url(#Namnlös_övertoning_5-4);}</style><linearGradient id="Namnlös_övertoning_11" x1="346.92" y1="272.7" x2="687.14" y2="-67.52" gradientTransform="matrix(1, 0, 0, -1, 0, 410.35)" gradientUnits="userSpaceOnUse"><stop offset="0" stop-color="#379d00"/><stop offset="0.18" stop-color="#47b00a"/><stop offset="0.41" stop-color="#55c012"/><stop offset="0.66" stop-color="#5dca16"/><stop offset="1" stop-color="#60cd18"/></linearGradient><linearGradient id="Namnlös_övertoning_66" x1="18.56" y1="428.71" x2="260.75" y2="186.52" gradientTransform="matrix(1, 0, 0, -1, 0, 410.35)" gradientUnits="userSpaceOnUse"><stop offset="0" stop-color="#379d00"/><stop offset="1" stop-color="#60cd18"/></linearGradient><linearGradient id="Namnlös_övertoning_5" x1="4450.6" y1="446.39" x2="4600.46" y2="296.53" gradientTransform="translate(4600.46 596.31) rotate(180)" gradientUnits="userSpaceOnUse"><stop offset="0" stop-color="#379d00"/><stop offset="0.36" stop-color="#4bb50c"/><stop offset="0.73" stop-color="#5ac715"/><stop offset="1" stop-color="#60cd18"/></linearGradient><linearGradient id="Namnlös_övertoning_5-2" x1="-2923.7" y1="-9638.4" x2="-2830.4" y2="-9731.7" gradientTransform="matrix(0, 1, 1, 0, 10299.76, 3240.75)" xlink:href="#Namnlös_övertoning_5"/><linearGradient id="Namnlös_övertoning_5-3" x1="8469.62" y1="-6990.25" x2="8769.09" y2="-7289.73" gradientTransform="translate(7439.34 8619.54) rotate(-90)" xlink:href="#Namnlös_övertoning_5"/><linearGradient id="Namnlös_övertoning_5-4" x1="-1929.31" y1="1234.33" x2="-1742.72" y2="1047.73" gradientTransform="matrix(1, 0, 0, -1, 2590.75, 1364.86)" xlink:href="#Namnlös_övertoning_5"/></defs><title>bg-1</title><g id="Lager_2" data-name="Lager 2"><g id="Lager_1-2" data-name="Lager 1"><polygon class="cls-1" points="754.66 0 754.66 410.35 74.23 410.35 484.58 0 754.66 0"/><polygon class="cls-2" points="484.38 0.2 0 0.2 0 410.35 74.23 410.35 484.38 0.2"/><polygon class="cls-3" points="0 299.79 299.72 299.79 0 0.06 0 299.79"/><polygon class="cls-4" points="568.06 410.35 568.06 223.76 754.66 410.35 568.06 410.35"/><polygon class="cls-5" points="0 0.06 299.23 299.79 598.96 0.06 0 0.06"/><polygon class="cls-6" points="754.81 410.35 568.06 223.91 754.81 37.16 754.81 410.35"/></g></g></svg>