<svg xmlns="http://www.w3.org/2000/svg" viewBox="0 0 935.43 935.43"><defs><style>.cls-1{fill:#60cd18;}.cls-2{fill:#fff;}</style></defs><title>thumb-logo</title><g id="Lager_2" data-name="Lager 2"><g id="Lager_1-2" data-name="Lager 1"><rect class="cls-1" width="935.43" height="935.43"/><path class="cls-2" d="M338.62,406.2l-30.25,22.59c-14.28-12.29-32.69-14.7-42.85-14.7s-21,2.94-22.65,10.31c-1.61,7.15,5,12.72,16.46,15.82,13,3.52,24.89,6.62,43.17,11.83,27.18,7.76,45.76,19.51,45.76,46.78,0,37.58-33.35,57.06-78,57.06S195.07,532.61,186,521.75l32-23.91c22.47,19.58,38.09,22.34,51.14,22.34,15,0,29-3.22,30.79-11.64,1.46-6.81-4.18-12.22-16.94-15.18-14.44-3.33-26.62-6-40.22-9.59-36.86-9.67-47.25-31.1-47.25-50.35,0-26.5,24.67-53.73,69.79-53.73,46.27,0,73.36,26.5,73.36,26.5M530.07,382H397.56V553.46H537.87v-39H444.33V483.3h62.36v-39H444.33V420.94h85.75ZM366.38,592.44h7.8V343h-7.8Zm187.09,0h7.8V343h-7.8Zm31.18-39H694.85c29.47,0,53.35-17.76,53.35-46.2,0-22.19-14.52-36.92-34.88-43.39a11.42,11.42,0,0,0-2-.25,12.33,12.33,0,0,0,2-.34c11.66-4.62,24.58-16.91,24.58-37.84,0-26.54-23.48-43.47-52.47-43.47H584.64Zm46.77-140.31h39.87c9.18,0,16.61,7.24,16.61,15.58s-7.43,15.6-16.61,15.6H631.41Zm47,101.34h-47V483.3h47c8.31,0,15,6.73,15,15.59S686.68,514.48,678.37,514.48Z"/></g></g></svg>