<?xml version="1.0" encoding="utf-8"?>
<!-- Generator: Adobe Illustrator 21.0.2, SVG Export Plug-In . SVG Version: 6.00 Build 0)  -->
<svg version="1.1" id="Lager_1" xmlns="http://www.w3.org/2000/svg" xmlns:xlink="http://www.w3.org/1999/xlink" x="0px" y="0px"
	 viewBox="0 0 935.4 935.4" style="enable-background:new 0 0 935.4 935.4;" xml:space="preserve">
<style type="text/css">
	.st0{fill:#EEEEEE;}
</style>
<rect class="st0" width="935.4" height="935.4"/>
<path d="M276.2,435.4v244.1c0,6.7,5.4,12.2,12.2,12.2h208.8v-24.3H300.5V503.2h336.4v58.9h24.3v-21h134l47.5,47.5l17.2-17.2l-51-51
	c-2.3-2.3-5.4-3.6-8.6-3.6h-139v-81.4l0,0c0-6.7-5.4-12.2-12.2-12.2H288.3C281.6,423.2,276.2,428.7,276.2,435.4z M300.5,478.9v-31.3
	h336.4v31.3H300.5z"/>
<rect x="340.7" y="605.3" width="50.5" height="24.3"/>
<path d="M577.8,587.6c-27.8,0-50.7,21.6-52.4,49.3c-1.7,28.9,20.3,53.7,49.2,55.3c-3.3,5-5.7,10.4-7.1,16.2
	c-7.3,28.5,10,57.5,38.4,64.7c-6.3,9-9.7,19.7-9.7,30.7c0,29.4,23.9,53.2,53.3,53.2h201.8v-24.2h-116c3.2-4.9,5.5-10.2,6.9-15.9
	c7.3-28.5-10-57.5-38.4-64.7c12.6-17.8,13-41.5,1-59.8h15.6c6.2,51.7,50.1,90.7,102.2,90.7v-24.3c-43.4,0-78.5-35.2-78.6-78.6
	c0-6.7-5.4-12.2-12.2-12.2h-154c-15.5,0-28.1-12.6-28.1-28.1s12.6-28.1,28.1-28.1H704v-24.3L577.8,587.6L577.8,587.6z M649.5,832.7
	c-16,0-29-13-29-29s13-29,29-29h41.1c16,0,29,13,29,29s-13,29-29,29H649.5L649.5,832.7z M591.9,723.3c-0.9-16,11.3-29.7,27.2-30.7
	h41.1c14.7,0.9,26.4,12.6,27.2,27.2c0.9,16-11.3,29.7-27.2,30.7h-41.1C604.4,749.6,592.7,737.9,591.9,723.3z"/>
</svg>
