<?xml version="1.0" encoding="utf-8"?>
<!-- Generator: Adobe Illustrator 21.0.2, SVG Export Plug-In . SVG Version: 6.00 Build 0)  -->
<svg version="1.1" id="Lager_1" xmlns="http://www.w3.org/2000/svg" xmlns:xlink="http://www.w3.org/1999/xlink" x="0px" y="0px"
	 viewBox="0 0 935.4 935.4" style="enable-background:new 0 0 935.4 935.4;" xml:space="preserve">
<style type="text/css">
	.st0{fill:#2D2D2D;}
	.st1{fill:#FFFFFF;}
</style>
<title>thumb-typography</title>
<rect class="st0" width="935.4" height="935.4"/>
<g>
	<path class="st1" d="M171.9,826.6h-57.6l-10.2,33.7H73.9l50.9-156.5h38.7l50.9,156.5h-32.2L171.9,826.6z M163.7,800l-13.2-43
		c-2.4-8-4.8-17-7.3-28.1c-2.4,11.2-5,20.1-7.5,28.1l-13.2,43H163.7z"/>
	<path class="st1" d="M223.9,830v-1.5c0-18.3,12.9-35.6,43.2-35.6h27.8v-3.4c0-13.4-7.3-20.7-19.7-20.7c-10.4,0-17.9,4.8-21.4,14.3
		l-26.5-4.8c8.9-24,28.9-32,49.4-32c29.2,0,46,16.2,46,42.1v71.9H296V848c-6.9,7.1-17.9,14.5-34.8,14.5
		C238,862.6,223.9,848.6,223.9,830z M294.9,814.5v-3.2h-24.2c-12.5,0-18.1,5.8-18.1,14.2c0,8.8,6.5,14.5,17,14.5
		C283.9,840,294.9,830.5,294.9,814.5z"/>
	<path class="st1" d="M463.4,813.2v1.5c0,29.1-24.4,45.6-54,45.6h-59.8V703.8h57.6c29.2,0,50.7,15.8,50.7,43.4v1.5
		c0,13.6-6,23.3-15.5,29.8C455.2,784.9,463.4,796.2,463.4,813.2z M380.4,730.5v37.1h24.8c14.9,0,23.8-6.9,23.8-18.6
		c0-12.3-8.9-18.4-23.8-18.4H380.4z M432.7,812.8c0-13.2-9.5-20.7-25.1-20.7h-27.2v41.5h27.2C423.2,833.7,432.7,826.2,432.7,812.8z"
		/>
	<path class="st1" d="M510.9,849.1v11.2h-26.6V703.8H513v55.7c6.1-7.1,16.2-13.2,30.4-13.2c24.2,0,47.5,17.9,47.5,54v8.2
		c0,36.1-23.1,54-48.3,54C527.5,862.6,516.9,856.4,510.9,849.1z M562.2,805v-1.1c0-21.8-10.8-33-25.1-33c-14.2,0-25,11.2-25,33v1.1
		c0,21.4,10.8,33,25,33C551.4,838,562.2,826.4,562.2,805z"/>
	<path class="st1" d="M605,783.8v-3.4c0-50.5,28.9-78.8,64.6-78.8c25.9,0,49.4,15.5,58.7,46l-29.6,7.5c-5.2-17-17-24.8-29.1-24.8
		c-20.1,0-33.9,17.5-33.9,50.7v2.2c0,33.2,13.8,50.7,33.9,50.7c12.1,0,23.8-7.8,29.1-25l29.6,7.6c-9.1,30.6-32.8,46-58.7,46
		C633.9,862.6,605,834.2,605,783.8z"/>
	<path class="st1" d="M738,805.4v-1.9c0-36.5,24.2-57.2,52.7-57.2c22.5,0,41.2,13,48.3,37.3l-26.6,4.8
		c-3.7-11.6-12.7-17.5-21.6-17.5c-12.9,0-24,11.6-24,33v1.1c0,21.8,11.2,33,24,33c8.9,0,17.9-6,21.6-17.5l26.6,4.8
		c-7.1,24.2-25.7,37.3-48.3,37.3C762.2,862.6,738,842.1,738,805.4z"/>
</g>
</svg>
