<svg xmlns="http://www.w3.org/2000/svg" viewBox="0 0 935.43 935.43"><defs><style>.cls-1{fill:#eee;}</style></defs><title>thumb-pictograms</title><g id="Lager_2" data-name="Lager 2"><g id="Lager_1-2" data-name="Lager 1"><rect class="cls-1" width="935.43" height="935.43"/><path d="M666.76,423.25H306a12.16,12.16,0,0,0-12.16,12.16v81.43h-139a12.15,12.15,0,0,0-8.6,3.56l-51,51,17.19,17.19,47.47-47.47h134V562.1h24.31V503.19H654.6V667.35H458v24.31H666.76a12.16,12.16,0,0,0,12.16-12.16V435.41A12.16,12.16,0,0,0,666.76,423.25ZM318.19,478.87V447.56H654.6v31.31Z"/><rect x="563.83" y="605.33" width="50.54" height="24.31"/><path d="M377.29,587.66H251.07V612H377.29a28.06,28.06,0,1,1,0,56.13h-154a12.16,12.16,0,0,0-12.16,12.16,78.66,78.66,0,0,1-78.57,78.57v24.31a103,103,0,0,0,102.17-90.73h15.59a53.09,53.09,0,0,0,1,59.75,53.22,53.22,0,0,0-31.5,80.56h-116V857H305.58a53.22,53.22,0,0,0,43.55-83.86,53.22,53.22,0,0,0,31.3-80.87,52.37,52.37,0,0,0-3.15-104.65ZM305.58,832.72H264.48a28.95,28.95,0,1,1,0-57.9h41.11a28.95,28.95,0,0,1,0,57.9ZM336,750.51H294.86a29,29,0,0,1,0-57.9H336a29,29,0,0,1,0,57.9Z"/></g></g></svg>