<svg xmlns="http://www.w3.org/2000/svg" viewBox="0 0 935.43 935.43"><defs><style>.cls-1{fill:#eee;}</style></defs><title>thumb-typography</title><g id="Lager_2" data-name="Lager 2"><g id="Lager_1-2" data-name="Lager 1"><rect class="cls-1" width="935.43" height="935.43"/><path d="M195.08,198.24v1.27c0,24.78-20.81,38.91-46.06,38.91H98V105h49.08c24.94,0,43.2,13.5,43.2,37v1.27c0,11.59-5.08,19.85-13.18,25.41C188.1,174.1,195.08,183.78,195.08,198.24Zm-70.84-70.52v31.61h21.12c12.71,0,20.33-5.88,20.33-15.88,0-10.48-7.62-15.72-20.33-15.72Zm44.63,70.2c0-11.28-8.1-17.63-21.44-17.63H124.25v35.42h23.19C160.78,215.71,168.88,209.36,168.88,197.92Z"/><path d="M200.64,191.57V190c0-31.61,20.65-49.71,45.9-49.71s45.9,18.11,45.9,49.71v1.59c0,31.61-20.65,49.71-45.9,49.71S200.64,223.17,200.64,191.57Zm67.34-.32v-1c0-18.9-9.53-29.06-21.44-29.06S225.1,171.4,225.1,190.3v1c0,18.9,9.53,29.07,21.44,29.07S268,210.15,268,191.25Z"/><path d="M301.95,213.49V105H326.4V209.2c0,5.72,2.38,8.26,6.67,8.26h5.24v21H326.72C311.48,238.42,301.95,229.84,301.95,213.49Z"/><path d="M341,194.27v-7c0-30.81,19.85-46.06,40.5-46.06,12.07,0,20.81,5.24,25.89,11.28V105h24.46V238.42H409.17v-9.53c-5.08,6.19-14.14,11.44-27,11.44C360.73,240.33,341,225.08,341,194.27Zm67.18-3v-1c0-18.58-9.21-28.11-21.28-28.11-12.23,0-21.44,9.53-21.44,28.11v1c0,18.27,9.21,28.11,21.44,28.11C399,219.36,408.22,209.51,408.22,191.25Z"/><path d="M221,422.09H199.53V322.83c-3.81,7.46-8.26,14.93-14,24l-26,42.09-26-42.09c-5.72-9.05-10.32-16.84-14-24.14v99.42h-20V288.68h21.92l38.75,63.05,38.91-63.05H221Z"/><path d="M280,425c-24.78,0-45.42-17.95-45.42-49.71v-1.59c0-31.76,20-49.71,44.47-49.71s44.47,17.95,44.47,49.87v5.24H254.3c.32,17.79,11.43,28.75,26.36,28.75,8.89,0,17.47-4,21.76-13l18.9,3.49C314.34,415.58,298,425,280,425ZM303.54,366c-1.43-17.31-12.23-26.21-24.46-26.21s-22.87,8.89-24.14,26.21Z"/><path d="M329.64,377.31v-5.72c0-31.29,19.38-46.69,40.18-46.69,12.87,0,22.39,6.19,27.48,14.29V288.68h20V422.09H398.73V409.39C393.65,417.65,384,424,370.14,424,349,424,329.64,408.59,329.64,377.31Zm68.45-2.38v-1c0-21-10.48-31.92-24.14-31.92s-24.3,11-24.3,31.92v1c0,20.81,10.64,31.92,24.3,31.92S398.09,395.73,398.09,374.92Z"/><path d="M433.31,288.68h20v23.82h-20Zm0,38.12h20v95.3h-20Z"/><path d="M546.9,422.09H528.32V409.71c-6,10-16.52,14.29-27,14.29-20.17,0-33.19-13.82-33.19-35.1V326.8h20v57.34c0,14.29,7.15,22.55,18.42,22.55,12.39,0,20.33-10.16,20.33-24.14V326.8h20Z"/><path d="M563,326.8h18.58v12.39c4.92-7.62,14-14.29,27-14.29,11.44,0,20.65,5.24,25.41,15.09,6.35-10.48,16.68-15.09,27.32-15.09,19.85,0,32.88,13.82,32.88,35.1v62.1h-20v-58c0-13.82-6.19-22.08-16.84-22.08-11.75,0-18.74,10-18.74,23.82v56.22h-20v-58c0-13.82-6-22.08-16.68-22.08-11.75,0-18.9,10-18.9,23.82v56.22H563Z"/><path d="M129,543H115.83v62.74H101.54V472.35h44.95c21.76,0,38.28,12.71,38.28,35.1v1c0,22.24-16.52,34.62-38.28,34.62h-.64l48.44,62.74H177.14ZM115.83,531.6h29.86c14.61,0,24.62-8.58,24.62-23.51,0-14.77-10-23.19-24.62-23.19H115.83Z"/><path d="M236.59,608.63c-24,0-43-17.79-43-49.55v-1.91c0-31.77,18.74-49.55,42.09-49.55S277.73,525.4,277.73,557v3.65H206.58c.32,22.55,12.55,36.53,30.34,36.53,11,0,20.65-5.4,25.73-16.52l12.71,2.54C268.36,599.89,253.59,608.63,236.59,608.63Zm27.79-56.86c-1.27-21.92-13.82-33.51-28.75-33.51s-27.48,11.59-28.59,33.51Z"/><path d="M369.55,618.79c0,15.56-12.55,28-28.59,28h-30c-16,0-28.59-12.39-28.59-28a28.17,28.17,0,0,1,12.23-23.51,19.77,19.77,0,0,1-5.72-14.14,19.07,19.07,0,0,1,11.75-17.95A30.16,30.16,0,0,1,289.82,540c0-18.26,14.61-31.76,33.67-31.76a37.72,37.72,0,0,1,12.86,2.22h29.07v11.44h-14A30.71,30.71,0,0,1,357.16,540c0,17.95-14.61,31.61-33.67,31.61h-13c-6.51,0-10.16,4.13-10.16,9.53,0,5.56,3.65,9.53,10.16,9.53H341A28.17,28.17,0,0,1,369.55,618.79Zm-12.39,0c0-10-7.78-17.63-18.11-17.63H313c-10.64,0-18.27,7.46-18.27,17.63,0,10,7.62,17.47,18.27,17.47h26C349.38,636.26,357.16,628.64,357.16,618.79ZM301.73,540a21.76,21.76,0,0,0,43.52,0,21.76,21.76,0,0,0-43.52,0Z"/><path d="M448.83,605.77H436.44V590.52c-5.88,11.59-16.84,17.15-28.91,17.15-19.54,0-32.4-13.66-32.4-35.1v-62.1h13.34v59.08c0,16.68,8.89,26.52,22.23,26.52,14.77,0,24.78-12.07,24.78-28.11V510.47h13.34Z"/><path d="M466.89,585.12V472.35h13.34V582.74c0,8.42,3.34,11.59,9.69,11.59h4.92v11.44h-8.1C474.83,605.77,466.89,599.73,466.89,585.12Z"/><path d="M501.37,581.31V580c0-15.72,11.59-28.91,35.26-28.91h27.48v-7.62c0-15.25-8.42-24.14-22.87-24.14-11.44,0-20.17,5.72-24.78,16.84l-12.23-2.54c6.83-17.63,21-25.09,37.64-25.09,22.23,0,35.1,13.18,35.1,34.15v63.05H564.58V590.52c-6.19,9.53-17,17.15-32.4,17.15C514.24,607.67,501.37,597.19,501.37,581.31Zm62.74-12.71V560H538.22c-15.56,0-23.51,8.26-23.51,19.06,0,11.12,8.58,17.95,20.65,17.95C551.72,597,564.11,585.12,564.11,568.6Z"/><path d="M595.55,510.47h12.39v22.87c5.88-14.77,19.85-23.82,36.05-23.82v13.34c-21.6,0-35.1,16.2-35.1,39.07v43.84H595.55Z"/><path d="M164.91,782.77v6.67H103.76V656h7.15V782.77Z"/><path d="M176.12,656h6.67v18.11h-6.67Zm0,38.12h6.67v95.3h-6.67Z"/><path d="M278.16,803.58A27,27,0,0,1,251,830.42H221.94a27,27,0,0,1-27.16-26.84,26.59,26.59,0,0,1,15.88-24.3,16.92,16.92,0,0,1-7.15-13.82,16.4,16.4,0,0,1,12.86-16.2,30.42,30.42,0,0,1-14.77-26.37c0-17.63,14.14-31,32.08-31a34.8,34.8,0,0,1,12.23,2.22h26.84v5.72H255.45a30.22,30.22,0,0,1,10.32,23c0,17.79-14.14,31.13-32.08,31.13H221.46c-7.62,0-12.23,5.08-12.23,11.44s4.61,11.44,12.23,11.44H251C265.93,776.89,278.16,788.81,278.16,803.58Zm-6.19,0c0-12.07-9.69-21.44-22.24-21.44H223.21c-12.71,0-22.23,9.21-22.23,21.44,0,12.39,9.53,21.6,22.23,21.6h26.52C262.28,825.18,272,815.81,272,803.58Zm-38.28-54.79a25.89,25.89,0,1,0-25.89-25.89A25.79,25.79,0,0,0,233.69,748.78Z"/><path d="M355.57,727.34v62.1H348.9V728.61c0-19.06-10.64-30.34-26-30.34-17,0-28.91,14-28.91,32.08v59.08h-6.67V656h6.67V711.3c5.56-12.39,16.84-19.06,30-19.06C342.87,692.24,355.57,705.74,355.57,727.34Z"/><path d="M378.79,769.27V699.86H360.85v-5.72h18.26V665.56h6.19v28.59h28.91v5.72H385.46V768c0,11.28,5.08,15.72,13.82,15.72h14.93v5.72H398C387.05,789.44,378.79,784,378.79,769.27Z"/></g></g></svg>