<?xml version="1.0" encoding="utf-8"?>
<!-- Generator: Adobe Illustrator 21.0.2, SVG Export Plug-In . SVG Version: 6.00 Build 0)  -->
<svg version="1.1" id="Lager_1" xmlns="http://www.w3.org/2000/svg" xmlns:xlink="http://www.w3.org/1999/xlink" x="0px" y="0px"
	 viewBox="0 0 935.4 935.4" style="enable-background:new 0 0 935.4 935.4;" xml:space="preserve">
<style type="text/css">
	.st0{fill:#EEEEEE;}
	.st1{fill:#60CD18;}
	.st2{fill:#FFFFFF;}
</style>
<rect y="0" class="st0" width="935.4" height="935.4"/>
<title>thumb-logo</title>
<g id="Lager_2">
	<g id="Lager_1-2">
		<rect y="0" class="st1" width="935.4" height="935.4"/>
		<path class="st2" d="M338.6,406.2l-30.2,22.6c-14.3-12.3-32.7-14.7-42.9-14.7s-21,2.9-22.6,10.3c-1.6,7.1,5,12.7,16.5,15.8
			c13,3.5,24.9,6.6,43.2,11.8c27.2,7.8,45.8,19.5,45.8,46.8c0,37.6-33.4,57.1-78,57.1s-75.2-23.3-84.3-34.1l32-23.9
			c22.5,19.6,38.1,22.3,51.1,22.3c15,0,29-3.2,30.8-11.6c1.5-6.8-4.2-12.2-16.9-15.2c-14.4-3.3-26.6-6-40.2-9.6
			c-36.9-9.7-47.2-31.1-47.2-50.4c0-26.5,24.7-53.7,69.8-53.7C311.6,379.7,338.7,406.2,338.6,406.2 M530.1,382H397.6v171.5h140.3
			v-39h-93.5v-31.2h62.4v-39h-62.4v-23.4h85.7L530.1,382z M366.4,592.4h7.8V343h-7.8V592.4z M553.5,592.4h7.8V343h-7.8V592.4z
			 M584.6,553.4h110.2c29.5,0,53.3-17.8,53.3-46.2c0-22.2-14.5-36.9-34.9-43.4c-0.7-0.1-1.3-0.2-2-0.2c0.7-0.1,1.3-0.2,2-0.3
			c11.7-4.6,24.6-16.9,24.6-37.8c0-26.5-23.5-43.5-52.5-43.5H584.6L584.6,553.4z M631.4,413.1h39.9c9.2,0,16.6,7.2,16.6,15.6
			s-7.4,15.6-16.6,15.6h-39.9L631.4,413.1z M678.4,514.5h-47v-31.2h47c8.3,0,15,6.7,15,15.6S686.7,514.5,678.4,514.5L678.4,514.5z"
			/>
	</g>
</g>
</svg>
