<?xml version="1.0" encoding="utf-8"?>
<!-- Generator: Adobe Illustrator 20.1.0, SVG Export Plug-In . SVG Version: 6.00 Build 0)  -->
<svg version="1.1" id="Layer_1" xmlns="http://www.w3.org/2000/svg" xmlns:xlink="http://www.w3.org/1999/xlink" x="0px" y="0px"
	 viewBox="0 0 600 600" style="enable-background:new 0 0 600 600;" xml:space="preserve">
<style type="text/css">
	.st0{fill:#FFFFFF;}
	.st1{fill:#CFB571;}
	.st2{fill:#FFEC0D;}
	.st3{fill:#0568AF;}
	.st4{fill:#E21F26;}
</style>
<rect class="st0" width="600" height="600"/>
<g>
	<g id="Guld_sköld">
		<g>
			<path class="st1" d="M185.3,57.3l-0.7-2.8l-2.8,0.6C147,62.5,117.7,45,117.4,44.8l-1.5-0.9l-1.5,0.9C114,45,84.7,62.5,49.8,55.1
				L47,54.5l-0.7,2.8c-0.1,0.5-3.1,13.5-2.4,34.9c2,67.2,45.2,110.9,70.4,126.1l1.5,0.9l1.5-0.9c25.2-15.2,68.4-58.9,70.4-126.1
				C188.4,70.8,185.4,57.8,185.3,57.3z"/>
		</g>
	</g>
	<g id="DIF_färger">
		<path class="st2" d="M143,60.6c-13.6-2.9-23.5-7.8-27.2-9.9c-6.5,3.6-32.7,16.3-64.3,10.7C50.7,66.2,49.2,77,49.7,92
			c0.5,17.5,3.9,33.2,9.1,47.3L143,60.6z"/>
		<path class="st3" d="M115.8,212.4c24.1-15.2,63.2-56,66-118l-96.6,90.4C95.7,197.4,106.8,206.7,115.8,212.4z"/>
		<g>
			<path class="st4" d="M84.9,140.1l-0.5,0.4l9.8,10.4l0.4-0.4c2.4-2.2,3.4-6.2,0-9.9C91.6,137.3,87.5,137.7,84.9,140.1z"/>
			<path class="st4" d="M180.1,61.4c-11.7,2.1-22.7,1.6-32.1,0l-87.6,82c6,14.8,13.8,27.5,22.2,38.2l99.3-93
				C182.1,75.4,180.9,65.8,180.1,61.4z M100.2,155.2l-7,6.6l-19.7-20.9l7-6.6c5.8-5.5,14.5-5,20,0.8
				C106.2,141,106,149.8,100.2,155.2z M117.5,140.1c-1.8,1.7-4.6,1.6-6.3-0.2c-1.7-1.8-1.6-4.6,0.2-6.3s4.6-1.6,6.3,0.2
				C119.4,135.6,119.3,138.4,117.5,140.1z M126.8,130.3l-19.7-20.9l6-5.6l19.7,20.9L126.8,130.3z M143.1,116.1L143.1,116.1
				L143.1,116.1c-1.8,1.7-4.6,1.6-6.3-0.2c-1.7-1.8-1.6-4.6,0.2-6.3l0,0l0,0c1.8-1.7,4.6-1.6,6.3,0.2
				C144.9,111.5,144.9,114.4,143.1,116.1z M152.3,106.4l-19.7-20.9l11.5-10.8l5,5.4l-5.5,5.2l2.3,2.5l5.4-5.1l5,5.4l-5.4,5.1
				l7.3,7.7L152.3,106.4z M168.7,92.1c-1.8,1.7-4.6,1.6-6.3-0.2c-1.7-1.8-1.6-4.6,0.2-6.3c1.8-1.7,4.6-1.6,6.3,0.2
				C170.5,87.6,170.5,90.4,168.7,92.1z"/>
		</g>
	</g>
</g>
</svg>
