<?xml version="1.0" encoding="utf-8"?>
<!-- Generator: Adobe Illustrator 20.1.0, SVG Export Plug-In . SVG Version: 6.00 Build 0)  -->
<svg version="1.1" id="Layer_1" xmlns="http://www.w3.org/2000/svg" xmlns:xlink="http://www.w3.org/1999/xlink" x="0px" y="0px"
	 viewBox="0 0 600 600" style="enable-background:new 0 0 600 600;" xml:space="preserve">
<style type="text/css">
	.st0{fill:#FFFFFF;}
	.st1{fill:none;stroke:#E21F26;stroke-width:2;stroke-miterlimit:10;}
</style>
<rect class="st0" width="600" height="600"/>
<path d="M470.8,117.5l-1.6-6.9l-6.9,1.5c-85.7,18.2-157.8-24.8-158.6-25.3l-3.7-2.3l-3.7,2.3c-0.7,0.4-72.9,43.4-158.6,25.3
	l-6.9-1.5l-1.6,6.9c-0.3,1.3-7.6,33.2-5.9,85.8c4.9,165.1,111.1,272.5,173,310l3.7,2.3l3.7-2.3c62-37.4,168.2-144.8,173-310
	C478.3,150.6,471.2,118.8,470.8,117.5z"/>
<rect x="300.1" y="229" transform="matrix(0.7292 -0.6843 0.6843 0.7292 -96.8675 283.8114)" class="st0" width="20.2" height="70.6"/>
<path class="st0" d="M352,246c-4.5,4.1-4.6,11-0.5,15.4c4.1,4.4,11.1,4.6,15.5,0.5c4.5-4.2,4.6-11.1,0.4-15.4
	C363.3,242.1,356.4,241.9,352,246z"/>
<path class="st0" d="M289.3,305c-4.5,4.1-4.6,11-0.5,15.4c4.1,4.4,11,4.6,15.4,0.5c4.4-4.2,4.6-11.1,0.5-15.4
	C300.6,301,293.7,300.9,289.3,305z"/>
<path class="st0" d="M262.8,308.7c-13.6-14.5-35-15.5-49.3-2.1l-17.2,16.1l48.3,51.5l17.2-16.1C276.1,344.8,276.4,323.2,262.8,308.7
	z M248.1,346.6l-1,1L223,321.9l1.1-1.1c6.3-5.9,16.4-6.7,24,1.5C256.5,331.3,254,341.1,248.1,346.6z"/>
<polygon class="st0" points="399.9,192.8 387.5,179.6 374.2,192.1 368.5,186.1 382.1,173.4 369.7,160.2 341.4,186.7 389.7,238.2 
	404.4,224.3 386.5,205.3 "/>
<path d="M414.9,187.1c-4.5,4.1-4.6,11-0.5,15.4c4.1,4.4,11,4.6,15.4,0.5c4.5-4.1,4.6-11.1,0.5-15.4
	C426.2,183.1,419.4,183,414.9,187.1z"/>
<line class="st1" x1="0" y1="600" x2="600" y2="0"/>
<line class="st1" x1="600" y1="600" x2="0" y2="0"/>
</svg>
