<?xml version="1.0" encoding="utf-8"?>
<!-- Generator: Adobe Illustrator 20.1.0, SVG Export Plug-In . SVG Version: 6.00 Build 0)  -->
<svg version="1.1" id="Layer_1" xmlns="http://www.w3.org/2000/svg" xmlns:xlink="http://www.w3.org/1999/xlink" x="0px" y="0px"
	 viewBox="0 0 600 600" style="enable-background:new 0 0 600 600;" xml:space="preserve">
<style type="text/css">
	.st0{fill:#FFFFFF;}
	.st1{fill:#CFB571;}
	.st2{fill:#FFEC0D;}
	.st3{fill:#0568AF;}
	.st4{fill:#E21F26;}
</style>
<rect class="st0" width="600" height="600"/>
<g>
	<g id="Guld_sköld">
		<g>
			<path class="st1" d="M208.8,74.6l-0.7-2.9l-2.9,0.6c-36.5,7.7-67.2-10.6-67.5-10.8l-1.6-1l-1.6,1c-0.3,0.2-31,18.5-67.5,10.8
				L64,71.7l-0.7,2.9c-0.1,0.6-3.2,14.1-2.5,36.5c2.1,70.2,47.3,116,73.6,131.9l1.6,1l1.6-1c26.4-15.9,71.6-61.6,73.7-131.9
				C212,88.8,208.9,75.2,208.8,74.6z"/>
		</g>
	</g>
	<g id="DIF_färger">
		<path class="st2" d="M164.5,78.1c-14.2-3-24.6-8.2-28.5-10.3c-6.8,3.7-34.1,17.1-67.3,11.2c-0.8,5-2.3,16.3-1.8,32
			c0.5,18.3,4.1,34.8,9.5,49.5L164.5,78.1z"/>
		<path class="st3" d="M136,236.8c25.2-15.9,66.1-58.6,69-123.4L104,208C115,221.2,126.6,230.9,136,236.8z"/>
		<g>
			<path class="st4" d="M103.8,161.2l-0.5,0.4l10.3,10.9l0.4-0.4c2.5-2.4,3.6-6.5,0-10.3C110.7,158.4,106.5,158.7,103.8,161.2z"/>
			<path class="st4" d="M203.3,78.9c-12.3,2.2-23.7,1.7-33.6,0.1l-91.6,85.7c6.2,15.5,14.4,28.8,23.2,39.9l103.9-97.3
				C205.4,93.6,204.1,83.6,203.3,78.9z M119.8,177.1l-7.3,6.9L91.9,162l7.3-6.9c6.1-5.7,15.2-5.3,21,0.9
				C126,162.2,125.9,171.4,119.8,177.1z M137.8,161.2c-1.9,1.8-4.8,1.6-6.6-0.2c-1.8-1.9-1.7-4.8,0.2-6.6c1.9-1.8,4.8-1.7,6.6,0.2
				C139.8,156.5,139.7,159.5,137.8,161.2z M147.5,151L127,129.1l6.3-5.9l20.5,21.9L147.5,151z M164.6,136.1
				C164.6,136.1,164.6,136.1,164.6,136.1L164.6,136.1c-1.9,1.8-4.8,1.7-6.6-0.2c-1.8-1.9-1.7-4.8,0.2-6.6c0,0,0,0,0,0c0,0,0,0,0,0
				c1.9-1.8,4.8-1.7,6.6,0.2C166.5,131.4,166.5,134.4,164.6,136.1z M174.2,126l-20.5-21.9l12-11.3l5.3,5.6l-5.8,5.4l2.4,2.6l5.7-5.3
				l5.3,5.6l-5.7,5.3l7.6,8.1L174.2,126z M191.3,111.1c-1.9,1.8-4.8,1.6-6.6-0.2c-1.8-1.9-1.7-4.8,0.2-6.6c1.9-1.8,4.8-1.7,6.6,0.2
				C193.3,106.3,193.2,109.3,191.3,111.1z"/>
		</g>
	</g>
</g>
</svg>
