<?xml version="1.0" encoding="utf-8"?>
<!-- Generator: Adobe Illustrator 20.1.0, SVG Export Plug-In . SVG Version: 6.00 Build 0)  -->
<svg version="1.1" id="Layer_1" xmlns="http://www.w3.org/2000/svg" xmlns:xlink="http://www.w3.org/1999/xlink" x="0px" y="0px"
	 viewBox="0 0 600 337.5" style="enable-background:new 0 0 600 337.5;" xml:space="preserve">
<style type="text/css">
	.st0{fill:#002554;}
	.st1{fill:#CFB571;}
	.st2{fill:#FFEC0D;}
	.st3{fill:#0568AF;}
	.st4{fill:#E21F26;}
</style>
<rect class="st0" width="600" height="337.5"/>
<g>
	<g id="Guld_sköld">
		<g>
			<path class="st1" d="M363.4,102.5l-0.6-2.5l-2.5,0.5c-31.1,6.6-57.3-9-57.6-9.2l-1.4-0.8l-1.4,0.8c-0.3,0.2-26.5,15.8-57.6,9.2
				l-2.5-0.5l-0.6,2.5c-0.1,0.5-2.7,12-2.2,31.2c1.8,59.9,40.3,99,62.8,112.5l1.4,0.8l1.4-0.8c22.5-13.6,61.1-52.6,62.8-112.5
				C366.1,114.5,363.5,103,363.4,102.5z"/>
		</g>
	</g>
	<g id="DIF_färger">
		<path class="st2" d="M325.6,105.4c-12.2-2.6-21-7-24.3-8.8c-5.8,3.2-29.1,14.6-57.4,9.6c-0.7,4.3-2,13.9-1.6,27.3
			c0.5,15.6,3.5,29.7,8.1,42.2L325.6,105.4z"/>
		<path class="st3" d="M301.3,240.9c21.5-13.6,56.4-50,58.9-105.3L274,216.2C283.4,227.5,293.3,235.8,301.3,240.9z"/>
		<g>
			<path class="st4" d="M273.8,176.3l-0.4,0.4l8.7,9.3l0.4-0.3c2.1-2,3.1-5.6,0-8.8C279.7,173.9,276.1,174.2,273.8,176.3z"/>
			<path class="st4" d="M358.7,106.1c-10.5,1.9-20.2,1.5-28.7,0.1l-78.1,73.1c5.3,13.2,12.3,24.6,19.8,34l88.6-83
				C360.5,118.6,359.4,110.1,358.7,106.1z M287.4,189.9l-6.2,5.9L263.7,177l6.2-5.9c5.2-4.9,13-4.5,17.9,0.8
				C292.7,177.2,292.6,185,287.4,189.9z M302.8,176.4c-1.6,1.5-4.1,1.4-5.6-0.2c-1.5-1.6-1.4-4.1,0.2-5.6c1.6-1.5,4.1-1.4,5.6,0.2
				C304.5,172.3,304.5,174.8,302.8,176.4z M311.1,167.7L293.6,149l5.4-5l17.5,18.7L311.1,167.7z M325.7,154.9
				C325.7,155,325.7,155,325.7,154.9L325.7,154.9c-1.6,1.5-4.1,1.4-5.6-0.2c-1.5-1.6-1.4-4.1,0.2-5.6c0,0,0,0,0,0c0,0,0,0,0,0
				c1.6-1.5,4.1-1.4,5.6,0.2C327.3,150.9,327.3,153.4,325.7,154.9z M333.9,146.3l-17.5-18.7l10.3-9.6l4.5,4.8l-4.9,4.6l2.1,2.2
				l4.8-4.5l4.5,4.8l-4.8,4.5l6.5,6.9L333.9,146.3z M348.5,133.5c-1.6,1.5-4.1,1.4-5.6-0.2c-1.5-1.6-1.4-4.1,0.2-5.6
				c1.6-1.5,4.1-1.4,5.6,0.2C350.1,129.5,350.1,132,348.5,133.5z"/>
		</g>
	</g>
</g>
</svg>
