<?xml version="1.0" encoding="utf-8"?>
<!-- Generator: Adobe Illustrator 20.1.0, SVG Export Plug-In . SVG Version: 6.00 Build 0)  -->
<svg version="1.1" id="Layer_1" xmlns="http://www.w3.org/2000/svg" xmlns:xlink="http://www.w3.org/1999/xlink" x="0px" y="0px"
	 viewBox="0 0 652 366" style="enable-background:new 0 0 652 366;" xml:space="preserve">
<style type="text/css">
	.st0{fill:none;stroke:#B4B4B4;stroke-miterlimit:10;}
	.st1{fill:#CFB571;}
	.st2{fill:#FFEC0D;}
	.st3{fill:#0568AF;}
	.st4{fill:#E21F26;}
	.st5{font-family:'MaisonNeue-Bold';}
	.st6{font-size:60px;}
</style>
<rect x="11.6" y="69.8" class="st0" width="56.3" height="225.1"/>
<g>
	<g id="Guld_sköld">
		<g>
			<path class="st1" d="M249.5,87l-0.8-3.6l-3.6,0.8c-44.8,9.5-82.4-13-82.8-13.2l-2-1.2l-2,1.2c-0.4,0.2-38.1,22.7-82.8,13.2
				l-3.6-0.8L71.1,87c-0.2,0.7-3.9,17.3-3.1,44.8c2.6,86.2,58,142.3,90.4,161.9l2,1.2l2-1.2c32.4-19.6,87.8-75.7,90.4-161.9
				C253.5,104.3,249.7,87.7,249.5,87z"/>
		</g>
	</g>
	<g id="DIF_färger">
		<path class="st2" d="M195.2,91.2c-17.5-3.7-30.2-10.1-34.9-12.7c-8.4,4.6-41.9,21-82.6,13.7c-1,6.2-2.8,20.1-2.3,39.3
			c0.7,22.4,5,42.7,11.7,60.8L195.2,91.2z"/>
		<path class="st3" d="M160.3,286c30.9-19.6,81.1-71.9,84.7-151.5L121,250.6C134.5,266.8,148.7,278.7,160.3,286z"/>
		<g>
			<path class="st4" d="M120.7,193.2l-0.6,0.5l12.6,13.4l0.5-0.5c3.1-2.9,4.4-8,0.1-12.7C129.2,189.7,124,190.1,120.7,193.2z"/>
			<path class="st4" d="M242.9,92.2c-15,2.7-29.1,2.1-41.3,0.1L89.2,197.6c7.6,19,17.7,35.4,28.5,49l127.5-119.4
				C245.4,110.2,243.8,97.9,242.9,92.2z M140.3,212.7l-9,8.4l-25.2-26.9l9-8.4c7.5-7,18.7-6.4,25.8,1.1
				C148,194.5,147.8,205.7,140.3,212.7z M162.5,193.2c-2.3,2.2-5.9,2-8.1-0.3c-2.2-2.3-2.1-5.9,0.3-8.1c2.3-2.2,5.9-2.1,8.1,0.3
				C164.9,187.4,164.8,191.1,162.5,193.2z M174.4,180.7l-25.2-26.9l7.7-7.2l25.2,26.9L174.4,180.7z M195.3,162.4
				C195.3,162.4,195.3,162.5,195.3,162.4L195.3,162.4c-2.3,2.2-6,2-8.1-0.2c-2.2-2.3-2.1-5.9,0.3-8.1l0,0l0,0
				c2.3-2.2,5.9-2.1,8.1,0.3C197.7,156.6,197.6,160.3,195.3,162.4z M207.1,150l-25.2-26.9l14.8-13.8l6.5,6.9l-7.1,6.7l3,3.2l7-6.5
				l6.5,6.9l-7,6.5l9.3,10L207.1,150z M228.1,131.7c-2.3,2.2-5.9,2-8.1-0.3c-2.2-2.3-2.1-5.9,0.3-8.1c2.3-2.2,5.9-2.1,8.1,0.3
				C230.5,125.9,230.5,129.5,228.1,131.7z"/>
		</g>
	</g>
</g>
<text transform="matrix(1 0 0 1 279.9658 174.3333)" class="st1 st5 st6">Djurgården</text>
<text transform="matrix(1 0 0 1 279.9658 236.3333)" class="st1 st5 st6">Fotboll</text>
<rect x="67.9" y="69.8" class="st0" width="514.4" height="225.1"/>
<rect x="67.9" y="294.9" class="st0" width="514.4" height="56.3"/>
<rect x="11.6" y="294.9" class="st0" width="56.3" height="56.3"/>
<line class="st0" x1="11.6" y1="351.2" x2="67.9" y2="294.9"/>
<line class="st0" x1="11.6" y1="294.9" x2="67.9" y2="351.2"/>
<rect x="582.3" y="294.9" class="st0" width="56.3" height="56.3"/>
<line class="st0" x1="582.3" y1="351.2" x2="638.6" y2="294.9"/>
<line class="st0" x1="582.3" y1="294.9" x2="638.6" y2="351.2"/>
<rect x="67.9" y="13.5" class="st0" width="514.4" height="56.3"/>
<rect x="11.6" y="13.5" class="st0" width="56.3" height="56.3"/>
<line class="st0" x1="11.6" y1="69.8" x2="67.9" y2="13.5"/>
<line class="st0" x1="11.6" y1="13.5" x2="67.9" y2="69.8"/>
<rect x="582.3" y="13.5" class="st0" width="56.3" height="56.3"/>
<line class="st0" x1="582.3" y1="69.8" x2="638.6" y2="13.5"/>
<line class="st0" x1="582.3" y1="13.5" x2="638.6" y2="69.8"/>
<rect x="582.3" y="69.8" class="st0" width="56.3" height="225.1"/>
<line class="st0" x1="11.6" y1="238.6" x2="638.6" y2="238.6"/>
<line class="st0" x1="11.6" y1="182.4" x2="638.6" y2="182.4"/>
<line class="st0" x1="11.6" y1="126.1" x2="638.6" y2="126.1"/>
</svg>
