<?xml version="1.0" encoding="utf-8"?>
<!-- Generator: Adobe Illustrator 20.1.0, SVG Export Plug-In . SVG Version: 6.00 Build 0)  -->
<svg version="1.1" id="Layer_1" xmlns="http://www.w3.org/2000/svg" xmlns:xlink="http://www.w3.org/1999/xlink" x="0px" y="0px"
	 viewBox="0 0 600 600" style="enable-background:new 0 0 600 600;" xml:space="preserve">
<style type="text/css">
	.st0{fill:#FFFFFF;}
	.st1{fill:#CFB571;}
	.st2{fill:#FFEC0D;}
	.st3{fill:#0568AF;}
	.st4{fill:#E21F26;}
</style>
<rect class="st0" width="600" height="600"/>
<g>
	<g id="Guld_sköld">
		<g>
			<path class="st1" d="M536.8,370l-0.7-2.9l-2.9,0.6c-36.5,7.7-67.2-10.6-67.5-10.8l-1.6-1l-1.6,1c-0.3,0.2-31,18.5-67.5,10.8
				l-2.9-0.6l-0.7,2.9c-0.1,0.6-3.2,14.1-2.5,36.5c2.1,70.2,47.3,116,73.6,131.9l1.6,1l1.6-1c26.4-15.9,71.6-61.6,73.7-131.9
				C540,384.1,536.9,370.6,536.8,370z"/>
		</g>
	</g>
	<g id="DIF_färger">
		<path class="st2" d="M492.5,373.4c-14.2-3-24.6-8.2-28.5-10.3c-6.8,3.7-34.1,17.1-67.3,11.2c-0.8,5-2.3,16.3-1.8,32
			c0.5,18.3,4.1,34.8,9.5,49.5L492.5,373.4z"/>
		<path class="st3" d="M464.1,532.2c25.2-15.9,66.1-58.6,69-123.4l-101,94.6C443,516.5,454.6,526.2,464.1,532.2z"/>
		<g>
			<path class="st4" d="M431.8,456.6l-0.5,0.4l10.3,10.9l0.4-0.4c2.5-2.4,3.6-6.5,0-10.3C438.8,453.8,434.5,454.1,431.8,456.6z"/>
			<path class="st4" d="M531.3,374.3c-12.3,2.2-23.7,1.7-33.6,0.1l-91.6,85.7c6.2,15.5,14.4,28.8,23.2,39.9l103.9-97.3
				C533.4,389,532.1,379,531.3,374.3z M447.8,472.4l-7.3,6.9l-20.5-21.9l7.3-6.9c6.1-5.7,15.2-5.3,21,0.9
				C454,457.6,453.9,466.7,447.8,472.4z M465.8,456.6c-1.9,1.8-4.8,1.6-6.6-0.2c-1.8-1.9-1.7-4.8,0.2-6.6c1.9-1.8,4.8-1.7,6.6,0.2
				C467.8,451.9,467.7,454.8,465.8,456.6z M475.5,446.4L455,424.5l6.3-5.9l20.5,21.9L475.5,446.4z M492.6,431.5
				C492.6,431.5,492.6,431.5,492.6,431.5L492.6,431.5c-1.9,1.8-4.8,1.7-6.6-0.2c-1.8-1.9-1.7-4.8,0.2-6.6c0,0,0,0,0,0c0,0,0,0,0,0
				c1.9-1.8,4.8-1.7,6.6,0.2C494.5,426.8,494.5,429.7,492.6,431.5z M502.2,421.4l-20.5-21.9l12-11.3l5.3,5.6l-5.8,5.4l2.4,2.6
				l5.7-5.3l5.3,5.6l-5.7,5.3l7.6,8.1L502.2,421.4z M519.3,406.4c-1.9,1.8-4.8,1.6-6.6-0.2c-1.8-1.9-1.7-4.8,0.2-6.6
				c1.9-1.8,4.8-1.7,6.6,0.2C521.3,401.7,521.2,404.7,519.3,406.4z"/>
		</g>
	</g>
</g>
</svg>
