<?xml version="1.0" encoding="utf-8"?>
<!-- Generator: Adobe Illustrator 20.1.0, SVG Export Plug-In . SVG Version: 6.00 Build 0)  -->
<svg version="1.1" id="Layer_1" xmlns="http://www.w3.org/2000/svg" xmlns:xlink="http://www.w3.org/1999/xlink" x="0px" y="0px"
	 viewBox="0 0 600 600" style="enable-background:new 0 0 600 600;" xml:space="preserve">
<style type="text/css">
	.st0{fill:#FFFFFF;}
	.st1{fill:#CFB571;}
	.st2{fill:#FFEC0D;}
	.st3{fill:#0568AF;}
	.st4{fill:#E21F26;}
</style>
<rect class="st0" width="600" height="600"/>
<g>
	<g id="Guld_sköld">
		<g>
			<path class="st1" d="M461.9,127.6l-1.5-6.6l-6.6,1.4c-82,17.4-151-23.8-151.7-24.2l-3.6-2.2l-3.6,2.2
				c-0.7,0.4-69.7,41.5-151.7,24.2l-6.6-1.4l-1.5,6.6c-0.3,1.2-7.2,31.8-5.7,82.1c4.7,157.9,106.3,260.8,165.6,296.6l3.6,2.2
				l3.6-2.2c59.3-35.8,160.9-138.5,165.6-296.6C469.1,159.3,462.2,128.8,461.9,127.6z"/>
		</g>
	</g>
	<g id="DIF_färger">
		<path class="st2" d="M362.4,135.3c-32-6.8-55.4-18.4-64-23.2c-15.3,8.4-76.8,38.4-151.3,25.2c-1.9,11.3-5.3,36.7-4.2,72
			c1.2,41.1,9.2,78.1,21.4,111.2L362.4,135.3z"/>
		<path class="st3" d="M298.4,492.3c56.7-35.8,148.6-131.7,155.1-277.5L226.4,427.4C251.1,457,277.3,478.9,298.4,492.3z"/>
		<g>
			<path class="st4" d="M225.8,322.3l-1.1,1l23,24.6l1-1c5.7-5.3,8.1-14.6,0.1-23.2C241.5,315.8,231.9,316.6,225.8,322.3z"/>
			<path class="st4" d="M449.7,137.3c-27.5,4.9-53.3,3.8-75.5,0.1L168.2,330.3c14,34.7,32.4,64.8,52.2,89.8l233.6-218.8
				C454.3,170.2,451.4,147.7,449.7,137.3z M261.8,357.9l-16.4,15.5l-46.3-49.2l16.4-15.5c13.7-12.8,34.2-11.8,47.1,2
				C275.8,324.5,275.5,345.1,261.8,357.9z M302.5,322.3c-4.3,3.9-10.9,3.7-14.8-0.4c-3.9-4.3-3.8-10.9,0.4-14.8
				c4.3-3.9,10.9-3.8,14.8,0.4C306.8,311.7,306.6,318.2,302.5,322.3z M324.3,299.4L278,250.2l14-13.3l46.3,49.2L324.3,299.4z
				 M362.5,266L362.5,266L362.5,266c-4.3,3.9-10.9,3.7-14.9-0.4c-3.9-4.3-3.8-10.9,0.4-14.8l0,0l0,0c4.3-3.9,10.9-3.8,14.8,0.4
				C366.9,255.2,366.8,261.9,362.5,266z M384.2,243.2L338,194l27.1-25.3l11.8,12.6l-13,12.2l5.5,5.8l12.7-11.9l11.8,12.6l-12.7,11.9
				l17.1,18.2L384.2,243.2z M422.7,209.5c-4.3,3.9-10.9,3.7-14.8-0.4c-3.9-4.3-3.8-10.9,0.4-14.8c4.3-3.9,10.9-3.8,14.8,0.4
				C427.1,198.9,427,205.6,422.7,209.5z"/>
		</g>
	</g>
</g>
</svg>
