<?xml version="1.0" encoding="utf-8"?>
<!-- Generator: Adobe Illustrator 20.1.0, SVG Export Plug-In . SVG Version: 6.00 Build 0)  -->
<svg version="1.1" id="Layer_1" xmlns="http://www.w3.org/2000/svg" xmlns:xlink="http://www.w3.org/1999/xlink" x="0px" y="0px"
	 viewBox="0 0 600 600" style="enable-background:new 0 0 600 600;" xml:space="preserve">
<g>
	<rect x="300.1" y="212.7" transform="matrix(0.7292 -0.6843 0.6843 0.7292 -90.6456 283.2356)" width="24.8" height="86.8"/>
	<path d="M363.9,233.7c-5.5,5.1-5.7,13.5-0.6,19c5.1,5.4,13.6,5.7,19.1,0.6c5.5-5.2,5.7-13.7,0.5-19
		C377.8,228.8,369.4,228.6,363.9,233.7z"/>
	<path d="M286.8,306.2c-5.5,5.1-5.7,13.5-0.6,19c5,5.4,13.5,5.7,19,0.6c5.4-5.2,5.6-13.7,0.6-19
		C300.7,301.3,292.3,301.1,286.8,306.2z"/>
	<path d="M193.6,308.2L172.5,328l59.4,63.3l21.1-19.8c17.6-16.4,18-42.9,1.2-60.7C237.5,293,211.2,291.7,193.6,308.2z M236.1,357.4
		l-1.2,1.2L205.3,327l1.4-1.3c7.8-7.3,20.2-8.2,29.5,1.9C246.5,338.6,243.4,350.6,236.1,357.4z"/>
	<path d="M510.1,75.6l-2-8.5l-8.5,1.8c-105.4,22.4-194.1-30.5-195-31.1L300,35l-4.6,2.8c-0.9,0.5-89.6,53.4-195,31.1l-8.5-1.8
		l-2,8.5c-0.4,1.6-9.3,40.8-7.3,105.5c6,203,136.6,335.1,212.8,381.2l4.6,2.8l4.6-2.8c76.2-46,206.8-178.1,212.8-381.2
		C519.3,116.3,510.5,77.2,510.1,75.6z M100.3,180.6c-1.4-45.4,2.9-78.1,5.3-92.6c95.7,16.9,174.7-21.6,194.4-32.4
		c11.1,6.1,41.1,21,82.2,29.8L127.8,323.6C112.2,281.1,101.9,233.4,100.3,180.6z M300,544.2c-27.2-17.2-60.8-45.3-92.6-83.4
		l291.9-273.3C491,374.9,372.8,498.2,300,544.2z M499.8,170.2L199.6,451.3c-25.3-32-49-70.6-67-115.3L397.3,88.2
		c28.6,4.7,61.7,6.1,97.1-0.2C496.6,101.4,500.3,130.3,499.8,170.2z"/>
	<polygon points="422.8,168.2 407.6,152 391.2,167.4 384.2,160 400.9,144.3 385.7,128.1 350.9,160.7 410.3,224 428.4,207 
		406.4,183.6 	"/>
	<path d="M441.3,161.2c-5.5,5.1-5.7,13.5-0.6,19c5,5.4,13.5,5.7,19,0.6c5.5-5.1,5.7-13.7,0.6-19
		C455.2,156.3,446.8,156.1,441.3,161.2z"/>
</g>
</svg>
