<?xml version="1.0" encoding="utf-8"?>
<!-- Generator: Adobe Illustrator 20.1.0, SVG Export Plug-In . SVG Version: 6.00 Build 0)  -->
<svg version="1.1" id="Layer_1" xmlns="http://www.w3.org/2000/svg" xmlns:xlink="http://www.w3.org/1999/xlink" x="0px" y="0px"
	 viewBox="0 0 600 600" style="enable-background:new 0 0 600 600;" xml:space="preserve">
<style type="text/css">
	.st0{fill:#CFB571;}
	.st1{fill:#FFEC0D;}
	.st2{fill:#0568AF;}
	.st3{fill:#E21F26;}
</style>
<g>
	<g id="Guld_sköld">
		<g>
			<path class="st0" d="M510.1,75.6l-2-8.5l-8.5,1.8c-105.4,22.4-194.1-30.5-195-31.1L300,35l-4.6,2.8c-0.9,0.5-89.6,53.4-195,31.1
				l-8.5-1.8l-2,8.5c-0.4,1.6-9.3,40.8-7.3,105.5c6,203,136.6,335.1,212.8,381.2l4.6,2.8l4.6-2.8c76.2-46,206.8-178.1,212.8-381.2
				C519.3,116.3,510.5,77.2,510.1,75.6z"/>
		</g>
	</g>
	<g id="DIF_färger">
		<path class="st1" d="M382.2,85.4c-41.1-8.8-71.1-23.7-82.2-29.8c-19.7,10.8-98.7,49.3-194.4,32.4c-2.4,14.5-6.7,47.2-5.3,92.6
			c1.6,52.8,11.9,100.5,27.5,143L382.2,85.4z"/>
		<path class="st2" d="M300,544.2c72.8-46,191-169.3,199.3-356.7L207.4,460.8C239.2,498.9,272.8,527,300,544.2z"/>
		<g>
			<path class="st3" d="M206.7,325.7l-1.4,1.3l29.6,31.6l1.2-1.2c7.3-6.8,10.4-18.8,0.1-29.8C226.9,317.5,214.5,318.4,206.7,325.7z"
				/>
			<path class="st3" d="M494.4,88c-35.4,6.3-68.5,4.9-97.1,0.2L132.6,336c18,44.7,41.7,83.3,67,115.3l300.2-281.1
				C500.3,130.3,496.6,101.4,494.4,88z M253,371.5l-21.1,19.8L172.5,328l21.1-19.8c17.6-16.5,43.9-15.2,60.6,2.6
				C271,328.6,270.6,355.1,253,371.5z M305.2,325.8c-5.5,5.1-14,4.8-19-0.6c-5.1-5.5-4.9-13.9,0.6-19c5.5-5.1,13.9-4.9,19,0.6
				C310.8,312.1,310.6,320.6,305.2,325.8z M333.2,296.3L273.8,233l18.1-17l59.4,63.3L333.2,296.3z M382.4,253.3
				C382.4,253.3,382.4,253.3,382.4,253.3L382.4,253.3c-5.5,5.1-14,4.8-19.1-0.6c-5.1-5.5-4.9-13.9,0.6-19c0,0,0,0,0,0c0,0,0,0,0,0
				c5.5-5.1,13.9-4.9,19,0.6C388.1,239.6,387.9,248.1,382.4,253.3z M410.3,224l-59.4-63.3l34.8-32.6l15.2,16.2L384.2,160l7,7.4
				l16.4-15.4l15.2,16.2l-16.4,15.4l22,23.4L410.3,224z M459.7,180.8c-5.5,5.1-14,4.8-19-0.6c-5.1-5.5-4.9-13.9,0.6-19
				c5.5-5.1,13.9-4.9,19,0.6C465.4,167.1,465.2,175.7,459.7,180.8z"/>
		</g>
	</g>
</g>
</svg>
