<?xml version="1.0" encoding="utf-8"?>
<!-- Generator: Adobe Illustrator 20.1.0, SVG Export Plug-In . SVG Version: 6.00 Build 0)  -->
<svg version="1.1" id="Layer_1" xmlns="http://www.w3.org/2000/svg" xmlns:xlink="http://www.w3.org/1999/xlink" x="0px" y="0px"
	 viewBox="0 0 600 600" style="enable-background:new 0 0 600 600;" xml:space="preserve">
<style type="text/css">
	.st0{fill:#FFFFFF;}
	.st1{fill:#CFB571;}
	.st2{fill:#FFEC0D;}
	.st3{fill:#0568AF;}
	.st4{fill:#E21F26;}
	.st5{fill:none;stroke:#E21F26;stroke-width:2;stroke-miterlimit:10;}
</style>
<rect class="st0" width="600" height="600"/>
<g>
	<g id="Guld_sköld">
		<g>
			<path class="st1" d="M377.3,73.9l-4.3-5.2l-5.3,4.2c-65.5,52.3-145.7,46.4-146.5,46.3l-4.2-0.4l-2.2,3.6
				c-0.4,0.7-43.7,68.3-124.8,89.6l-6.5,1.7l1.6,6.6c0.3,1.2,7.8,31.7,31.7,76c74.9,139.1,211.8,185.6,280.9,191l4.2,0.4l2.2-3.6
				c37-58.6,81.8-195.9,15.2-339.4C398,99,378.1,74.8,377.3,73.9z"/>
		</g>
	</g>
	<g id="DIF_färger">
		<path class="st2" d="M291.8,125.3c-31.7,8.3-57.8,8.4-67.6,7.9c-9.9,14.4-51.5,68.7-124,90.3c3.4,11,11.7,35.2,28.5,66.3
			c19.5,36.2,43.2,65.7,68.9,89.8L291.8,125.3z"/>
		<path class="st3" d="M394.5,473.2c34.7-57.4,73.9-184.3,14.4-317.6L301,447.4C336.4,462.8,369.6,470.7,394.5,473.2z"/>
		<g>
			<path class="st4" d="M253.4,353.7l-0.5,1.4l31.6,11.7l0.4-1.3c2.7-7.3,0.7-16.7-10.3-20.8C264.6,340.9,256.3,345.9,253.4,353.7z"
				/>
			<path class="st4" d="M370.8,88c-22.4,16.7-46,27.3-67.5,33.9l-97.8,264.7c28.1,24.8,58,43.4,86.9,56.9l110.9-300.3
				C389.6,115.4,376.9,96.6,370.8,88z M301.6,369.4l-7.7,21.2l-63.4-23.3l7.7-21.2c6.5-17.6,25.3-25.9,43-19.3
				C299.1,333.3,308.1,351.8,301.6,369.4z M322,319.4c-2.1,5.4-8.1,8.2-13.4,6.3c-5.4-2.1-8.3-8-6.3-13.4c2.1-5.4,8-8.3,13.4-6.3
				S323.8,313.9,322,319.4z M331.3,289.1l-63.4-23.3l6.6-18.2l63.4,23.3L331.3,289.1z M350.4,242.2L350.4,242.2L350.4,242.2
				c-2.1,5.4-8.1,8.2-13.5,6.3c-5.4-2.1-8.3-8-6.3-13.4l0,0l0,0c2.1-5.4,8-8.3,13.4-6.3C349.5,230.5,352.5,236.6,350.4,242.2z
				 M359.6,212.1l-63.3-23.3l12.9-34.8l16.2,6l-6.2,16.7l7.5,2.7l6-16.3l16.2,6l-6,16.3l23.4,8.6L359.6,212.1z M379,164.7
				c-2.1,5.4-8.1,8.2-13.4,6.3c-5.4-2.1-8.3-8-6.3-13.4c2.1-5.4,8-8.3,13.4-6.3C378.2,153.2,381.1,159.3,379,164.7z"/>
		</g>
	</g>
</g>
<line class="st5" x1="0" y1="0" x2="600" y2="600"/>
<line class="st5" x1="0" y1="600" x2="600" y2="0"/>
</svg>
