<?xml version="1.0" encoding="utf-8"?>
<!-- Generator: Adobe Illustrator 20.1.0, SVG Export Plug-In . SVG Version: 6.00 Build 0)  -->
<svg version="1.1" id="Layer_1" xmlns="http://www.w3.org/2000/svg" xmlns:xlink="http://www.w3.org/1999/xlink" x="0px" y="0px"
	 viewBox="0 0 632 317" style="enable-background:new 0 0 632 317;" xml:space="preserve">
<style type="text/css">
	.st0{fill:#32BAF2;}
	.st1{fill:#002554;}
	.st2{font-family:'MaisonNeue-Bold';}
	.st3{font-size:60px;}
</style>
<rect class="st0" width="632" height="317"/>
<g>
	<path class="st1" d="M150.7,161.5c-2.4,2.2-2.5,5.8-0.3,8.1s5.8,2.5,8.1,0.3c2.3-2.1,2.4-5.8,0.3-8.1
		C156.6,159.4,153,159.3,150.7,161.5z"/>
	
		<rect x="156.4" y="121.9" transform="matrix(0.7298 -0.6837 0.6837 0.7298 -52.2738 148.4393)" class="st1" width="10.5" height="36.9"/>
	<path class="st1" d="M183.5,130.8c-2.4,2.2-2.5,5.8-0.3,8.1c2.1,2.2,5.8,2.4,8.1,0.2c2.3-2.1,2.4-5.8,0.3-8
		C189.4,128.7,185.8,128.6,183.5,130.8z"/>
	<path class="st1" d="M111.1,162.5l-9,8.4l25.2,26.9l9-8.4c7.5-7,7.7-18.2,0.6-25.8C129.8,156.1,118.6,155.5,111.1,162.5z
		 M129.2,183.3l-0.5,0.5l-12.6-13.4l0.6-0.5c3.3-3.1,8.5-3.5,12.6,0.7C133.6,175.3,132.3,180.4,129.2,183.3z"/>
	<path class="st1" d="M245.5,63.7l-0.8-3.6l-3.6,0.8c-44.8,9.5-82.4-13-82.8-13.2l-2-1.2l-2,1.2c-0.4,0.2-38.1,22.7-82.8,13.2
		l-3.6-0.8l-0.8,3.6c-0.2,0.7-3.9,17.3-3.1,44.8c2.6,86.2,58,142.3,90.4,161.9l2,1.2l2-1.2c32.4-19.6,87.8-75.7,90.4-161.9
		C249.5,81,245.7,64.4,245.5,63.7z M71.4,108.2c-0.5-19.2,1.3-33.1,2.3-39.3c40.7,7.3,74.2-9.1,82.6-13.7c4.7,2.6,17.4,9,34.9,12.7
		L83.1,169C76.4,150.9,72.1,130.6,71.4,108.2z M156.3,262.7c-11.6-7.3-25.8-19.2-39.3-35.4l124-116.1
		C237.4,190.8,187.2,243.1,156.3,262.7z M241.2,103.9L113.7,223.3c-10.8-13.6-20.9-30-28.5-49L197.6,69c12.2,2,26.3,2.6,41.3-0.1
		C239.8,74.6,241.4,86.9,241.2,103.9z"/>
	<polygon class="st1" points="208.6,103.2 202.1,96.3 195.1,102.8 192.1,99.6 199.2,92.9 192.7,86 177.9,99.8 203.1,126.7 
		210.9,119.7 201.6,109.7 	"/>
	<path class="st1" d="M216.3,100c-2.4,2.2-2.5,5.8-0.3,8.1c2.2,2.3,5.8,2.5,8.1,0.3c2.4-2.2,2.4-5.8,0.3-8.1
		C222.2,97.9,218.6,97.8,216.3,100z"/>
</g>
<text transform="matrix(1 0 0 1 275.9658 151)" class="st1 st2 st3">Djurgården</text>
<text transform="matrix(1 0 0 1 275.9658 213)" class="st1 st2 st3">Fotboll</text>
<rect x="804" y="-109.1" class="st1" width="267.6" height="267.6"/>
<rect x="1113" y="-109.1" class="st0" width="267.6" height="267.6"/>
</svg>
