<?xml version="1.0" encoding="utf-8"?>
<!-- Generator: Adobe Illustrator 20.1.0, SVG Export Plug-In . SVG Version: 6.00 Build 0)  -->
<svg version="1.1" id="Layer_1" xmlns="http://www.w3.org/2000/svg" xmlns:xlink="http://www.w3.org/1999/xlink" x="0px" y="0px"
	 viewBox="0 0 600 600" style="enable-background:new 0 0 600 600;" xml:space="preserve">
<style type="text/css">
	.st0{fill:#FFFFFF;}
</style>
<rect class="st0" width="600" height="600"/>
<g>
	<rect x="300.1" y="229" transform="matrix(0.7292 -0.6843 0.6843 0.7292 -96.8675 283.8114)" width="20.2" height="70.6"/>
	<path d="M352,246c-4.5,4.1-4.6,11-0.5,15.4c4.1,4.4,11.1,4.6,15.5,0.5c4.5-4.2,4.6-11.1,0.4-15.4C363.3,242.1,356.4,241.9,352,246z
		"/>
	<path d="M289.3,305c-4.5,4.1-4.6,11-0.5,15.4c4.1,4.4,11,4.6,15.4,0.5c4.4-4.2,4.6-11.1,0.5-15.4C300.6,301,293.7,300.9,289.3,305z
		"/>
	<path d="M213.5,306.6l-17.2,16.1l48.3,51.5l17.2-16.1c14.3-13.3,14.6-34.9,1-49.4C249.2,294.3,227.8,293.2,213.5,306.6z
		 M248.1,346.6l-1,1L223,321.9l1.1-1.1c6.3-5.9,16.4-6.7,24,1.5C256.5,331.3,254,341.1,248.1,346.6z"/>
	<path d="M470.8,117.5l-1.6-6.9l-6.9,1.5c-85.7,18.2-157.8-24.8-158.6-25.3l-3.7-2.3l-3.7,2.3c-0.7,0.4-72.9,43.4-158.6,25.3
		l-6.9-1.5l-1.6,6.9c-0.3,1.3-7.6,33.2-5.9,85.8c4.9,165.1,111.1,272.5,173,310l3.7,2.3l3.7-2.3c62-37.4,168.2-144.8,173-310
		C478.3,150.6,471.2,118.8,470.8,117.5z M137.6,202.9c-1.1-36.9,2.4-63.5,4.3-75.3C219.8,141.3,284,110,300,101.2
		c9,5,33.4,17.1,66.8,24.2L160,319.1C147.3,284.6,138.9,245.8,137.6,202.9z M300,498.5c-22.1-14-49.4-36.8-75.3-67.8l237.3-222.2
		C455.3,360.9,359.2,461.1,300,498.5z M462.5,194.4L218.4,423c-20.6-26-39.8-57.4-54.5-93.8l215.2-201.5c23.3,3.8,50.2,5,79-0.2
		C459.9,138.5,462.9,162,462.5,194.4z"/>
	<polygon points="399.9,192.8 387.5,179.6 374.2,192.1 368.5,186.1 382.1,173.4 369.7,160.2 341.4,186.7 389.7,238.2 404.4,224.3 
		386.5,205.3 	"/>
	<path d="M414.9,187.1c-4.5,4.1-4.6,11-0.5,15.4c4.1,4.4,11,4.6,15.4,0.5c4.5-4.1,4.6-11.1,0.5-15.4
		C426.2,183.1,419.4,183,414.9,187.1z"/>
</g>
</svg>
