<?xml version="1.0" encoding="utf-8"?>
<!-- Generator: Adobe Illustrator 20.1.0, SVG Export Plug-In . SVG Version: 6.00 Build 0)  -->
<svg version="1.1" id="Layer_1" xmlns="http://www.w3.org/2000/svg" xmlns:xlink="http://www.w3.org/1999/xlink" x="0px" y="0px"
	 viewBox="0 0 600 317" style="enable-background:new 0 0 600 317;" xml:space="preserve">
<style type="text/css">
	.st0{fill:#CFB571;}
	.st1{fill:#FFEC0D;}
	.st2{fill:#0568AF;}
	.st3{fill:#E21F26;}
	.st4{font-family:'MaisonNeue-Bold';}
	.st5{font-size:60px;}
</style>
<g>
	<g id="Guld_sköld">
		<g>
			<path class="st0" d="M235.5,63.7l-0.8-3.6l-3.6,0.8c-44.8,9.5-82.4-13-82.8-13.2l-2-1.2l-2,1.2c-0.4,0.2-38.1,22.7-82.8,13.2
				l-3.6-0.8l-0.8,3.6c-0.2,0.7-3.9,17.3-3.1,44.8c2.6,86.2,58,142.3,90.4,161.9l2,1.2l2-1.2c32.4-19.6,87.8-75.7,90.4-161.9
				C239.5,81,235.7,64.4,235.5,63.7z"/>
		</g>
	</g>
	<g id="DIF_färger">
		<path class="st1" d="M181.2,67.9c-17.5-3.7-30.2-10.1-34.9-12.7c-8.4,4.6-41.9,21-82.6,13.7c-1,6.2-2.8,20.1-2.3,39.3
			c0.7,22.4,5,42.7,11.7,60.8L181.2,67.9z"/>
		<path class="st2" d="M146.3,262.7c30.9-19.6,81.1-71.9,84.7-151.5L107,227.3C120.5,243.5,134.7,255.4,146.3,262.7z"/>
		<g>
			<path class="st3" d="M106.7,169.9l-0.6,0.5l12.6,13.4l0.5-0.5c3.1-2.9,4.4-8,0.1-12.7C115.2,166.4,110,166.8,106.7,169.9z"/>
			<path class="st3" d="M228.9,68.9c-15,2.7-29.1,2.1-41.3,0.1L75.2,174.3c7.6,19,17.7,35.4,28.5,49l127.5-119.4
				C231.4,86.9,229.8,74.6,228.9,68.9z M126.3,189.4l-9,8.4l-25.2-26.9l9-8.4c7.5-7,18.7-6.4,25.8,1.1
				C134,171.2,133.8,182.4,126.3,189.4z M148.5,169.9c-2.3,2.2-5.9,2-8.1-0.3c-2.2-2.3-2.1-5.9,0.3-8.1c2.3-2.2,5.9-2.1,8.1,0.3
				C150.9,164.1,150.8,167.8,148.5,169.9z M160.4,157.4l-25.2-26.9l7.7-7.2l25.2,26.9L160.4,157.4z M181.3,139.1
				C181.3,139.1,181.3,139.2,181.3,139.1L181.3,139.1c-2.3,2.2-6,2-8.1-0.2c-2.2-2.3-2.1-5.9,0.3-8.1c0,0,0,0,0,0s0,0,0,0
				c2.3-2.2,5.9-2.1,8.1,0.3C183.7,133.3,183.6,137,181.3,139.1z M193.1,126.7l-25.2-26.9L182.7,86l6.5,6.9l-7.1,6.7l3,3.2l7-6.5
				l6.5,6.9l-7,6.5l9.3,10L193.1,126.7z M214.1,108.4c-2.3,2.2-5.9,2-8.1-0.3c-2.2-2.3-2.1-5.9,0.3-8.1c2.3-2.2,5.9-2.1,8.1,0.3
				C216.5,102.6,216.5,106.2,214.1,108.4z"/>
		</g>
	</g>
</g>
<text transform="matrix(1 0 0 1 265.9658 151)"><tspan x="0" y="0" class="st0 st4 st5">Djurgården</tspan><tspan x="0" y="62" class="st0 st4 st5">Fotboll</tspan></text>
</svg>
