<?xml version="1.0" encoding="utf-8"?>
<!-- Generator: Adobe Illustrator 20.1.0, SVG Export Plug-In . SVG Version: 6.00 Build 0)  -->
<svg version="1.1" id="Layer_1" xmlns="http://www.w3.org/2000/svg" xmlns:xlink="http://www.w3.org/1999/xlink" x="0px" y="0px"
	 viewBox="0 0 600 600" style="enable-background:new 0 0 600 600;" xml:space="preserve">
<style type="text/css">
	.st0{fill:#CFB571;}
	.st1{fill:#FFEC0D;}
	.st2{fill:#0568AF;}
	.st3{fill:#E21F26;}
	.st4{font-family:'MaisonNeue-Bold';}
	.st5{font-size:60px;}
</style>
<g>
	<g id="Guld_sköld">
		<g>
			<path class="st0" d="M237.5,66.8l-0.8-3.6l-3.6,0.8c-44.8,9.5-82.4-13-82.8-13.2l-2-1.2l-2,1.2C146,51,108.3,73.5,63.5,64
				l-3.6-0.8l-0.8,3.6c-0.2,0.7-3.9,17.3-3.1,44.8c2.6,86.2,58,142.3,90.4,161.9l2,1.2l2-1.2c32.4-19.6,87.8-75.7,90.4-161.9
				C241.5,84.1,237.7,67.5,237.5,66.8z"/>
		</g>
	</g>
	<g id="DIF_färger">
		<path class="st1" d="M183.2,71c-17.5-3.7-30.2-10.1-34.9-12.7c-8.4,4.6-41.9,21-82.6,13.7c-1,6.2-2.8,20.1-2.3,39.3
			c0.7,22.4,5,42.7,11.7,60.8L183.2,71z"/>
		<path class="st2" d="M148.3,265.9c30.9-19.6,81.1-71.9,84.7-151.5L109,230.5C122.5,246.6,136.7,258.5,148.3,265.9z"/>
		<g>
			<path class="st3" d="M108.7,173.1l-0.6,0.5l12.6,13.4l0.5-0.5c3.1-2.9,4.4-8,0.1-12.7C117.2,169.6,112,170,108.7,173.1z"/>
			<path class="st3" d="M230.9,72.1c-15,2.7-29.1,2.1-41.3,0.1L77.2,177.4c7.6,19,17.7,35.4,28.5,49L233.2,107
				C233.4,90.1,231.8,77.8,230.9,72.1z M128.3,192.5l-9,8.4L94.1,174l9-8.4c7.5-7,18.7-6.4,25.8,1.1
				C136,174.3,135.8,185.5,128.3,192.5z M150.5,173.1c-2.3,2.2-5.9,2-8.1-0.3c-2.2-2.3-2.1-5.9,0.3-8.1c2.3-2.2,5.9-2.1,8.1,0.3
				C152.9,167.3,152.8,170.9,150.5,173.1z M162.4,160.6l-25.2-26.9l7.7-7.2l25.2,26.9L162.4,160.6z M183.3,142.3
				C183.3,142.3,183.3,142.3,183.3,142.3L183.3,142.3c-2.3,2.2-6,2-8.1-0.2c-2.2-2.3-2.1-5.9,0.3-8.1c0,0,0,0,0,0c0,0,0,0,0,0
				c2.3-2.2,5.9-2.1,8.1,0.3C185.7,136.5,185.6,140.1,183.3,142.3z M195.1,129.9L169.9,103l14.8-13.9l6.5,6.9l-7.1,6.7l3,3.2l7-6.5
				l6.5,6.9l-7,6.5l9.3,10L195.1,129.9z M216.1,111.5c-2.3,2.2-5.9,2-8.1-0.3c-2.2-2.3-2.1-5.9,0.3-8.1c2.3-2.2,5.9-2.1,8.1,0.3
				C218.5,105.7,218.5,109.3,216.1,111.5z"/>
		</g>
	</g>
</g>
<text transform="matrix(1 0 0 1 267.9658 154.1398)"><tspan x="0" y="0" class="st0 st4 st5">Djurgården</tspan><tspan x="0" y="62" class="st0 st4 st5">Fotboll</tspan></text>
<g>
	<g id="Guld_sköld_1_">
		<g>
			<path class="st0" d="M237.5,347.8l-0.8-3.6l-3.6,0.8c-44.8,9.5-82.4-13-82.8-13.2l-2-1.2l-2,1.2c-0.4,0.2-38.1,22.7-82.8,13.2
				l-3.6-0.8l-0.8,3.6c-0.2,0.7-3.9,17.3-3.1,44.8c2.6,86.2,58,142.3,90.4,161.9l2,1.2l2-1.2c32.4-19.6,87.8-75.7,90.4-161.9
				C241.5,365.1,237.7,348.5,237.5,347.8z"/>
		</g>
	</g>
	<g id="DIF_färger_1_">
		<path class="st1" d="M183.2,352c-17.5-3.7-30.2-10.1-34.9-12.7c-8.4,4.6-41.9,21-82.6,13.7c-1,6.2-2.8,20.1-2.3,39.3
			c0.7,22.4,5,42.7,11.7,60.8L183.2,352z"/>
		<path class="st2" d="M148.3,546.9c30.9-19.6,81.1-71.9,84.7-151.5L109,511.5C122.5,527.6,136.7,539.5,148.3,546.9z"/>
		<g>
			<path class="st3" d="M108.7,454.1l-0.6,0.5l12.6,13.4l0.5-0.5c3.1-2.9,4.4-8,0.1-12.7C117.2,450.6,112,451,108.7,454.1z"/>
			<path class="st3" d="M230.9,353.1c-15,2.7-29.1,2.1-41.3,0.1L77.2,458.4c7.6,19,17.7,35.4,28.5,49L233.2,388
				C233.4,371.1,231.8,358.8,230.9,353.1z M128.3,473.5l-9,8.4L94.1,455l9-8.4c7.5-7,18.7-6.4,25.8,1.1
				C136,455.3,135.8,466.5,128.3,473.5z M150.5,454.1c-2.3,2.2-5.9,2-8.1-0.3c-2.2-2.3-2.1-5.9,0.3-8.1c2.3-2.2,5.9-2.1,8.1,0.3
				C152.9,448.3,152.8,451.9,150.5,454.1z M162.4,441.6l-25.2-26.9l7.7-7.2l25.2,26.9L162.4,441.6z M183.3,423.3
				C183.3,423.3,183.3,423.3,183.3,423.3L183.3,423.3c-2.3,2.2-6,2-8.1-0.2c-2.2-2.3-2.1-5.9,0.3-8.1c0,0,0,0,0,0c0,0,0,0,0,0
				c2.3-2.2,5.9-2.1,8.1,0.3C185.7,417.5,185.6,421.1,183.3,423.3z M195.1,410.9L169.9,384l14.8-13.9l6.5,6.9l-7.1,6.7l3,3.2l7-6.5
				l6.5,6.9l-7,6.5l9.3,10L195.1,410.9z M216.1,392.5c-2.3,2.2-5.9,2-8.1-0.3c-2.2-2.3-2.1-5.9,0.3-8.1c2.3-2.2,5.9-2.1,8.1,0.3
				C218.5,386.7,218.5,390.3,216.1,392.5z"/>
		</g>
	</g>
</g>
<text transform="matrix(1 0 0 1 267.9658 435.1398)"><tspan x="0" y="0" class="st0 st4 st5">Djurgården</tspan><tspan x="0" y="62" class="st0 st4 st5">Hockey</tspan></text>
</svg>
