<?xml version="1.0" encoding="utf-8"?>
<!-- Generator: Adobe Illustrator 20.1.0, SVG Export Plug-In . SVG Version: 6.00 Build 0)  -->
<svg version="1.1" id="Layer_1" xmlns="http://www.w3.org/2000/svg" xmlns:xlink="http://www.w3.org/1999/xlink" x="0px" y="0px"
	 viewBox="0 0 948 912" style="enable-background:new 0 0 948 912;" xml:space="preserve">
<style type="text/css">
	.st0{fill:none;stroke:#B4B4B4;stroke-miterlimit:10;}
	.st1{fill:#CFB571;}
	.st2{fill:#FFEC0D;}
	.st3{fill:#0568AF;}
	.st4{fill:#E21F26;}
</style>
<rect x="67.4" y="184.8" class="st0" width="129.2" height="516.2"/>
<rect x="196.5" y="184.9" class="st0" width="540.8" height="516.2"/>
<path class="st1" d="M703.5,411.1l6.3-6.4l12.9-0.2l0.8,68l7.2-0.1l0.1,8.2l-25.6,0.3l-0.1-8.2l7.2-0.1l-0.7-58.2l-8.2,0.1
	L703.5,411.1z M705.8,397l-10.5,10.7l0.2,15.4l8.2-0.1l0.5,41.9L697,465l0.3,24.2l41.8-0.5l-0.3-24.2l-6.4,0.1l-0.8-67.9L705.8,397z
	"/>
<path class="st1" d="M279.3,429.5l-0.1-8.5l-8.2,0.1l0.1,8.5L279.3,429.5z M281.2,465.5l-0.2-15.1l-10.9,0.1l0.2,15.1L281.2,465.5z
	 M287.8,432.6l-2.4,3.1l-19.7,0.2l-3.2-3l-0.2-14.6l4.3-4.3l16.7-0.2l4.3,4.2L287.8,432.6z M289.4,467.7l-5.4,5.7l-17,0.2l-5-5.2
	l-0.3-21.9l3.1-3.3l21.2-0.3l3.2,3.3L289.4,467.7z M297.1,432.5l-0.2-18.1l-8.9-9.1l-25.8,0.3l-9.2,9.3l0.2,18.1l5.8,5.8l-8.1,8.6
	l0.3,23.1l11.9,11.3l25.8-0.3l11.5-11.6l-0.3-23.9l-8-8L297.1,432.5z M308.5,473.1l-15.8,16.4l-33.5,0.4l-16.3-16l-0.3-28.7l6.2-6.5
	l-3.6-3.7l-0.3-23.5l13.2-13.6l33.5-0.4l13.4,13.3l0.3,23.5l-3.6,3.8l6.5,6.4L308.5,473.1z"/>
<path class="st1" d="M201.3,412.7l6.3-6.4l12.9-0.2l0.8,68.1l7.2-0.1l0.1,8.3l-25.6,0.3v-8.3l7.2-0.1l-0.7-58.2l-8.2,0.1V412.7z
	 M203.6,398.5l-10.5,10.7l0.2,15.4l8.2-0.1l0.5,41.9l-7.2,0.1l0.3,24.2l41.8-0.5l-0.3-24.2l-6.4,0.1l-0.8-67.9L203.6,398.5z"/>
<path class="st1" d="M659.5,430.2l-0.1-8.7l-11.1,0.1l0.1,8.7L659.5,430.2z M667.8,437.3l-24.3,0.3l-3-3.1l-0.2-15.4l5.1-5.2
	l17.1-0.2l5.1,5L667.8,437.3z M667.4,405.2l-26.7,0.3l-11.5,11.6l0.2,19.7l8.4,8.4l29.9-0.4l0.3,23l-5.4,5.6l-16.6,0.2l-5.4-5.4
	v-3.7l-10.9,0.1l0.1,5.6l11.8,11.7l25.7-0.3l11.9-12l-0.6-53.1L667.4,405.2z M687.2,473l-15.9,16.4l-33.4,0.4l-15.4-15.5l-0.2-16.8
	l26.4-0.3l0.1,8.2l11.1-0.1l-0.2-13.2l-26.1,0.3L621.1,440l-0.3-25.8l15.9-16.6l33.8-0.4l15.9,16.2L687.2,473z"/>
<path class="st1" d="M239.5,351.7l-1.8,3.8l-4.9-2.3l5.9-12.8c4-8.6,8.2-10.4,10-11.5c1.5-0.9,9-4,17.5-0.1
	c6.7,3.1,9.5,9.8,9.8,11.3c1.2,5.1,1.9,9.2-1.8,17.2l-5.7,12.4l-4.8-2.3l1.8-3.8L239.5,351.7z M268.6,357.4l1.7-3.6
	c4.1-9-1-15.6-7.5-18.6c-5.7-2.7-14.4-2.8-18.9,7l-1.4,3.1L268.6,357.4z"/>
<path class="st1" d="M254.9,309.7l8.6-13.1l4.5,3l-2.3,3.4l25.1,16.7c5.9,4,7,7.6,3.6,12.7l-1.8,2.7l-5.8-3.9l1-1.6
	c1-1.5,1-2.7-1.3-4.3L261.8,309l-2.5,3.7L254.9,309.7z"/>
<path class="st1" d="M270.5,286.4l10.3-11.4l4,3.6l-2.9,3.2l13.2,12.1c3.5,3.2,7.3,7.6,12.7,1.6c4.9-5.4,0.2-8.8-3.3-12l-13.2-12.1
	l-2.9,3.2l-4-3.6l10.3-11.4l4,3.6l-2.6,2.9l15.5,14.1c7.7,7,5.4,15,1.2,19.6c-5.4,5.9-13.3,7.7-19.5,1.9L277.2,287l-2.6,2.9
	L270.5,286.4z"/>
<path class="st1" d="M328.5,282.2l-3.2-4.3l3.4-2.5l-17.1-23.2l-3.4,2.5l-3.2-4.3l13.6-10.1c2.1-1.6,6.5-5.4,12.4-3.7
	c2.8,0.8,4.2,2.8,4.6,3.3c2.7,3.7,2.7,7,0.4,10.9l0.1,0.1c4.2-1.8,6.2,0.2,7.6,2.2l5.3,7.2l3.1-2.3l3.2,4.3l-8.8,6.5l-8.2-11.1
	c-2.2-3-5.6-0.9-8,0.8l-3.4,2.5l7.5,10.1l3.5-2.6l3.2,4.3L328.5,282.2z M323.7,256.7l3.7-2.7c3.2-2.3,5.9-5.2,2.8-9.5
	c-2.9-3.9-6.9-1-9.9,1.3l-3,2.2L323.7,256.7z"/>
<path class="st1" d="M395,242.9l-5.2,2.4l-1.7-3.8c-1.6,4.3-4.8,7.7-8.8,9.6c-11.1,5-22,0.5-27-10.6c-4.4-9.7-0.3-22.4,10.2-27.1
	c4-1.8,7.2-2.1,11.3-1.3l-1.1-2.4l5.2-2.4l5.6,12.5l-5,2.3c-1.4-2.2-3.6-3.4-6.1-3.8c-2.5-0.4-5.1,0.1-7.2,1.1
	c-7.1,3.2-9.7,11.2-6.5,18.2c3.4,7.6,10.5,10.9,18.3,7.4c4.8-2.2,7.6-5.9,7.4-11.4l-8.3,3.8l-2.4-5.3l17.4-7.9l2.4,5.3l-3.8,1.7
	L395,242.9z"/>
<path class="st1" d="M403.6,239.9l-1.1-5.3l3.1-0.7l3.8-30.2l-4.2,0.9l-1.1-5.3l19.9-4.2l1.1,5.3l-4.2,0.9l15.2,26.3l2.9-0.6
	l1.1,5.3l-14.2,3l-1.1-5.3l4.2-0.9l-4.2-7l-11.7,2.4l-1,8.1l4.2-0.9l1.1,5.3L403.6,239.9z M406.4,190.1c-0.6-3.1,1.3-6.2,4.5-6.9
	c3.1-0.7,6.2,1.4,6.9,4.5c0.7,3.2-1.4,6.3-4.5,6.9C410.1,195.3,407.1,193.3,406.4,190.1 M412.7,191.9c1.7-0.4,2.7-1.9,2.4-3.6
	c-0.3-1.7-1.9-2.7-3.6-2.3s-2.7,1.9-2.3,3.6C409.5,191.3,411,192.3,412.7,191.9 M422.5,217.1l-7-12.2h-0.1l-1.7,14L422.5,217.1z"/>
<path class="st1" d="M445.7,231.9v-5.4h4.2l-0.2-28.8h-4.2v-5.4l16.9-0.1c2.7,0,8.4-0.5,12.2,4.4c1.8,2.3,1.8,4.8,1.8,5.4
	c0,4.6-2,7.3-6.1,9v0.1c4.5,1.1,4.9,3.9,4.9,6.3l0.1,8.9h3.8v5.4l-10.9,0.1l-0.1-13.9c0-3.7-4-4.1-6.9-4h-4.3l0.1,12.6h4.4v5.4
	L445.7,231.9z M456.8,208.4h4.6c3.9,0,7.8-0.7,7.8-6c0-4.9-5-4.8-8.7-4.8h-3.8L456.8,208.4z"/>
<path class="st1" d="M495.6,199.2l-4.1-0.8l1-5.3l13.8,2.7c9.3,1.8,12,5.5,13.5,7c1.3,1.3,6.1,7.8,4.3,17.1
	c-1.4,7.3-7.2,11.6-8.6,12.3c-4.7,2.4-8.4,4.1-17.1,2.4L485,232l1-5.3l4.1,0.8L495.6,199.2z M497.1,228.9l3.9,0.8
	c9.7,1.9,14.9-4.8,16.2-11.8c1.2-6.3-0.7-14.7-11.3-16.8l-3.4-0.6L497.1,228.9z"/>
<polygon class="st1" points="526.4,240.8 528.4,235.8 532.3,237.4 543,210.7 539.1,209.1 541,204.1 569.2,215.5 565.3,225.2 
	559.5,222.9 561.4,218.1 549.5,213.3 545.8,222.6 556,226.7 553.7,232.5 543.5,228.4 538.8,240.1 550.7,244.9 553.1,238.9 
	558.9,241.2 554.5,252.2 "/>
<polygon class="st1" points="585.2,235.2 585.1,235.1 571.7,256 575.4,258.4 572.5,262.9 560.3,254.9 563.2,250.4 566.2,252.4 
	581.8,228.2 578.7,226.2 581.6,221.7 592.5,228.7 589.8,256 589.9,256.1 600.2,240.1 596.8,237.9 599.7,233.4 612,241.4 
	609.1,245.9 605.7,243.7 587.2,272.4 582.4,269.3 "/>
<path class="st1" d="M609.5,273.6c-3.1,4.2-3.1,9.3,0.7,13.1c2.3,2.2,6,2.3,8.3-0.1c3.7-3.9,0.7-6.7-2.7-12.7
	c-0.8-1.5-6.6-8.5,0.5-15.9c2.5-2.7,9.7-5.8,16.4,0.6c2.2,2.1,3.4,5.1,3.5,8l1.7-1.8l4.1,4l-8.1,8.6l-4-3.8c1.1-1.8,1.7-3.8,1.6-5.6
	c-0.1-1.9-0.9-3.7-2.4-5.2c-2.3-2.2-5.3-2.4-7.7,0.1c-2.6,2.7,0.8,7,3.6,11.8c2.8,4.9,5.2,9.9-0.7,16.1c-5.1,5.4-12.3,5.2-17.5,0.2
	c-2.6-2.5-4.4-5.6-4.8-9.2l-1.7,1.8l-4.1-4l9.3-9.8L609.5,273.6z"/>
<polygon class="st1" points="631.9,318.7 636.3,315.7 638.6,319.2 662.5,303.3 660.2,299.8 664.7,296.8 673.1,309.6 668.7,312.6 
	666.4,309.2 642.6,325.1 644.8,328.5 640.3,331.5 "/>
<polygon class="st1" points="644,336.9 648.8,334.6 650.7,338.4 676.5,325.9 674.7,322.1 679.5,319.8 692.8,347.7 683.4,352.2 
	680.7,346.5 685.3,344.3 679.6,332.4 670.6,336.7 675.7,347.4 670.1,350.1 665,339.4 653.7,344.8 655.7,349 650.9,351.4 "/>
<path class="st1" d="M247.2,537.6c-3.7,1.9-5.5,5.5-4,9.5c0.9,2.4,3.5,3.7,5.9,2.8c4-1.5,2.8-4.5,2.5-10c-0.1-1.4-1.7-8.3,5.8-11.1
	c2.7-1,8.9-0.7,11.4,6.2c0.8,2.3,0.7,4.8-0.3,6.9l1.8-0.7l1.6,4.3l-8.7,3.2l-1.5-4.1c1.4-0.9,2.5-2.1,3.1-3.4
	c0.6-1.4,0.7-2.9,0.1-4.6c-0.9-2.4-3-3.6-5.5-2.6c-2.8,1-1.9,5.2-1.6,9.6c0.3,4.4,0.3,8.9-6,11.2c-5.5,2-10.5-0.6-12.5-6
	c-1-2.7-1.2-5.5-0.2-8.2l-1.8,0.7l-1.6-4.3l10-3.7L247.2,537.6z"/>
<polygon class="st1" points="266.2,554.3 273.8,550.2 285,570.8 277.3,575 274.9,570.6 278.9,568.5 277,565 257.1,575.9 
	258.9,579.2 255.1,581.2 248.9,569.6 252.6,567.6 254.4,570.9 274.3,560 272.5,556.6 268.5,558.7 "/>
<path class="st1" d="M272.5,581c7.2-5.5,17.2-4.3,22.9,3.3s4.1,17.6-3.1,23c-7.3,5.6-17.5,3.8-22.8-3.3
	C262.6,594.8,266.5,585.5,272.5,581 M275.4,585.8c-4.6,3.5-5.5,10-2,14.7c3.9,5.2,10.6,5.9,15.7,2.1c4.8-3.6,6-10.3,2.3-15.1
	C287.2,582,280.7,581.9,275.4,585.8"/>
<path class="st1" d="M316.3,622.8c0.9-1.6,1-3.4,0.6-5.1c-0.4-1.7-1.3-3.4-2.6-4.6c-4.7-4.5-10.9-3.4-15.1,1
	c-4.1,4.3-5,10.6-0.2,15.2c3.4,3.2,6.8,3.2,10.5,1.8l3.8,3.6c-6.5,4.2-12.9,3-17.8-1.7c-6.5-6.2-6.6-16.2-0.2-23
	c7.6-8,17.1-6,22.5-0.8c0.7,0.7,3.9,4.1,4.1,7.6l1.4-1.4l3.3,3.1l-7,7.4L316.3,622.8z"/>
<polygon class="st1" points="328.9,653.7 328.6,639 328.5,638.9 321.7,648.7 324.4,650.5 322,654 312.2,647.1 314.6,643.6 
	317.1,645.4 330.2,626.7 327.7,625 330.1,621.5 339.9,628.4 337.4,631.9 334.7,630 328.9,638.4 342,635 339.5,633.3 341.9,629.8 
	351.5,636.6 349,640.1 347.2,638.8 334,642.3 334,642.4 334.2,657.5 336.2,658.8 333.7,662.3 323.9,655.4 326.3,651.9 "/>
<polygon class="st1" points="340,666.2 341.9,662.4 344.8,663.9 355.1,643.5 352.1,642 354,638.2 364.9,643.7 363,647.5 360.1,646 
	356.5,653.1 366.5,658.1 370,651.1 367,649.6 368.9,645.8 379.9,651.3 378,655.1 375,653.6 364.8,674 367.8,675.5 365.9,679.3 
	354.9,673.7 356.8,669.9 359.8,671.4 364.2,662.5 354.3,657.5 349.8,666.4 352.8,667.9 350.9,671.7 "/>
<path class="st1" d="M374.9,666.3c2.9-8.6,11.8-13.3,20.7-10.3c8.9,3,13.2,12.2,10.4,20.8c-2.9,8.8-12.3,13.1-20.7,10.2
	C374.4,683.4,372.5,673.5,374.9,666.3 M380,668.7c-1.9,5.6,1.1,11.4,6.6,13.3c6.1,2,12.1-1.1,14.1-7.2c1.9-5.7-0.9-11.9-6.6-13.8
	C387.6,658.8,382.1,662.4,380,668.7"/>
<polygon class="st1" points="405.8,692.5 406.6,688.3 410,689 414.4,666.6 411,666 411.8,661.8 424.5,664.3 423.7,668.5 
	419.9,667.7 415.5,690.1 422.8,691.6 423.8,686.6 428.7,687.6 426.9,696.7 "/>
<polygon class="st1" points="435.8,671.1 438.9,671.3 437.8,694 434.7,693.9 434.5,698.1 446.2,698.7 446.5,694.5 443,694.3 
	444,673.6 444,673.6 450.8,695.1 454.2,695.3 463,674.5 463.1,674.5 462.1,695.2 458.6,695.1 458.4,699.3 470.1,699.9 470.3,695.6 
	467.2,695.5 468.3,672.7 471.4,672.9 471.6,668.6 460.3,668.1 453,685.7 452.9,685.7 447.8,667.5 436,666.9 "/>
<path class="st1" d="M481.9,688.1c0.9,4,4,6.7,8.2,6.3c2.5-0.2,4.5-2.4,4.2-5c-0.4-4.2-3.7-3.9-9-4.9c-1.3-0.3-8.5-0.4-9.3-8.5
	c-0.3-2.9,1.6-8.8,8.8-9.5c2.4-0.2,4.8,0.6,6.6,2l-0.2-1.9l4.5-0.4l0.9,9.3l-4.3,0.4c-0.5-1.6-1.4-3-2.5-3.8
	c-1.2-0.9-2.7-1.4-4.4-1.2c-2.5,0.3-4.2,2-3.9,4.7c0.3,3,4.6,3.1,8.9,4c4.3,0.8,8.6,2,9.3,8.7c0.6,5.8-3.2,10.1-8.9,10.6
	c-2.9,0.3-5.6-0.2-8-1.9l0.2,1.9l-4.5,0.5l-1-10.7L481.9,688.1z"/>
<path class="st1" d="M524.5,681c1.6,3.8,5.1,5.9,9.2,4.7c2.4-0.7,4-3.2,3.3-5.7c-1.2-4.1-4.3-3.1-9.7-3.2c-1.3,0-8.4,1.1-10.6-6.7
	c-0.8-2.8-0.1-9,7-11c2.3-0.7,4.8-0.3,6.9,0.8l-0.5-1.9l4.4-1.3l2.6,9l-4.1,1.2c-0.8-1.5-1.9-2.7-3.2-3.3c-1.3-0.7-2.9-0.9-4.5-0.4
	c-2.4,0.7-3.8,2.7-3,5.3c0.8,2.9,5,2.2,9.5,2.3c4.4,0,8.8,0.4,10.7,6.9c1.6,5.6-1.4,10.5-6.8,12.1c-2.8,0.8-5.5,0.8-8.2-0.4l0.5,1.9
	l-4.4,1.3l-2.9-10.3L524.5,681z"/>
<polygon class="st1" points="542.7,663.2 539.3,655.1 560.8,645.9 564.2,653.9 559.7,655.9 557.9,651.8 554.3,653.3 563.2,674.3 
	566.7,672.8 568.3,676.7 556.3,681.9 554.6,678 558.1,676.5 549.2,655.5 545.5,657.1 547.3,661.2 "/>
<path class="st1" d="M570.6,658.8c-4.7-7.8-2.5-17.6,5.6-22.5s17.8-2.2,22.5,5.5c4.8,7.9,2,17.9-5.6,22.5
	C583.2,670.2,574.5,665.3,570.6,658.8 M575.7,656.4c3,5,9.3,6.6,14.3,3.6c5.5-3.3,7-10,3.7-15.4c-3.1-5.2-9.6-7-14.7-3.9
	C573.1,644.2,572.3,650.7,575.7,656.4"/>
<polygon class="st1" points="611.3,651.5 608.6,648.2 611.3,645.9 597.1,628.2 594.4,630.4 591.7,627.1 601.7,618.9 604.4,622.2 
	601.4,624.6 615.7,642.4 621.5,637.7 618.3,633.8 622.2,630.7 628,637.9 "/>
<polygon class="st1" points="615,619.4 608.8,613.2 625.3,596.5 631.5,602.7 628,606.2 624.8,603.1 622,605.9 638.2,621.9 
	640.8,619.3 643.8,622.2 634.6,631.6 631.6,628.6 634.2,625.9 618.1,609.9 615.3,612.7 618.5,615.9 "/>
<polygon class="st1" points="653.2,612.2 649.7,609.7 651.7,607 633.4,593.5 631.4,596.2 628,593.7 635.2,583.8 638.7,586.3 
	636.7,589 643,593.6 649.6,584.6 643.3,579.9 641.3,582.6 637.9,580.1 645.1,570.2 648.5,572.7 646.6,575.4 664.9,588.8 
	666.9,586.1 670.3,588.6 663,598.6 659.6,596.1 661.6,593.4 653.6,587.5 647,596.5 655,602.4 657,599.7 660.4,602.2 "/>
<polygon class="st1" points="674.4,581.6 670.6,579.7 672.1,576.7 652,566.3 650.4,569.2 646.7,567.3 657.7,545.8 665,549.6 
	662.7,554.1 659.2,552.2 654.5,561.2 661.5,564.9 665.5,557.1 669.9,559.4 665.9,567.1 674.7,571.7 679.3,562.7 674.8,560.3 
	677.1,555.9 685.4,560.2 "/>
<polygon class="st1" points="667.4,545.1 659.1,542.3 666.6,520.1 674.9,522.9 673.3,527.6 669,526.2 667.8,529.9 689.3,537.2 
	690.5,533.6 694.5,535 690.3,547.5 686.3,546.1 687.5,542.6 666,535.2 664.7,539 669,540.4 "/>
<g>
	<g id="Guld_sköld">
		<g>
			<path class="st1" d="M592.3,325.9l-1.2-5.2l-5.2,1.1c-64.2,13.6-118.2-18.6-118.7-18.9l-2.8-1.7l-2.8,1.7
				c-0.5,0.3-54.5,32.5-118.7,18.9l-5.2-1.1l-1.2,5.2c-0.2,1-5.6,24.8-4.5,64.2c3.7,123.6,83.2,204,129.6,232l2.8,1.7l2.8-1.7
				c46.4-28,125.9-108.5,129.6-232C597.9,350.8,592.5,326.9,592.3,325.9z"/>
		</g>
	</g>
	<g id="DIF_färger">
		<path class="st2" d="M514.5,331.9c-25.1-5.4-43.3-14.4-50.1-18.1c-12,6.6-60.1,30-118.3,19.7c-1.5,8.9-4.1,28.8-3.2,56.3
			c1,32.1,7.2,61.2,16.7,87.1L514.5,331.9z"/>
		<path class="st3" d="M464.4,611.2c44.3-28,116.3-103,121.4-217.1L408.1,560.5C427.4,583.7,447.8,600.7,464.4,611.2z"/>
		<g>
			<path class="st4" d="M407.6,478.2l-0.8,0.8l18,19.2l0.7-0.7c4.4-4.1,6.4-11.4,0.1-18.1C419.9,473.2,412.4,473.8,407.6,478.2z"/>
			<path class="st4" d="M582.7,333.5c-21.6,3.8-41.7,3-59.1,0.2L362.5,484.5c10.9,27.2,25.4,50.7,40.8,70.2L586,383.6
				C586.4,359.3,584.1,341.7,582.7,333.5z M435.8,506.1l-12.9,12.1l-36.1-38.5l12.9-12.1c10.7-10.1,26.8-9.2,36.9,1.6
				C446.7,480,446.5,496.1,435.8,506.1z M467.6,478.3c-3.3,3.1-8.5,2.9-11.6-0.4s-3-8.5,0.4-11.6c3.3-3.1,8.5-3,11.6,0.4
				C471,469.9,470.9,475.1,467.6,478.3z M484.6,460.3l-36.1-38.5l11-10.4l36.1,38.5L484.6,460.3z M514.6,434.1L514.6,434.1
				L514.6,434.1c-3.3,3.1-8.5,2.9-11.6-0.4s-3-8.5,0.4-11.6l0,0l0,0c3.3-3.1,8.5-3,11.6,0.4C518,425.8,517.9,431,514.6,434.1z
				 M531.5,416.3l-36.1-38.5l21.2-19.9l9.3,9.9l-10.2,9.5l4.2,4.5l10-9.3l9.3,9.9l-10,9.3l13.4,14.3L531.5,416.3z M561.6,390
				c-3.3,3.1-8.5,2.9-11.6-0.4s-3-8.5,0.4-11.6c3.3-3.1,8.5-3,11.6,0.4C565.1,381.7,565,386.9,561.6,390z"/>
		</g>
	</g>
</g>
<rect x="737.3" y="701" class="st0" width="129.2" height="129.2"/>
<line class="st0" x1="866.5" y1="830.2" x2="737.3" y2="701"/>
<line class="st0" x1="737.3" y1="830.2" x2="866.5" y2="701"/>
<rect x="67.4" y="701" class="st0" width="129.2" height="129.2"/>
<line class="st0" x1="196.6" y1="830.2" x2="67.4" y2="701"/>
<line class="st0" x1="67.4" y1="830.2" x2="196.6" y2="701"/>
<rect x="196.5" y="701.1" class="st0" width="540.8" height="129.1"/>
<rect x="737.3" y="55.6" class="st0" width="129.2" height="129.2"/>
<line class="st0" x1="866.5" y1="184.8" x2="737.3" y2="55.6"/>
<line class="st0" x1="737.3" y1="184.8" x2="866.5" y2="55.6"/>
<rect x="67.4" y="55.6" class="st0" width="129.2" height="129.2"/>
<line class="st0" x1="196.6" y1="184.8" x2="67.4" y2="55.6"/>
<line class="st0" x1="67.4" y1="184.8" x2="196.6" y2="55.6"/>
<rect x="196.5" y="55.7" class="st0" width="540.8" height="129.1"/>
<line class="st0" x1="67.4" y1="572.1" x2="866.5" y2="572.1"/>
<line class="st0" x1="67.4" y1="443.1" x2="866.5" y2="443.1"/>
<line class="st0" x1="67.4" y1="314.1" x2="866.5" y2="314.1"/>
<rect x="737.3" y="184.8" class="st0" width="129.2" height="516.2"/>
</svg>
