<?xml version="1.0" encoding="utf-8"?>
<!-- Generator: Adobe Illustrator 20.1.0, SVG Export Plug-In . SVG Version: 6.00 Build 0)  -->
<svg version="1.1" id="Layer_1" xmlns="http://www.w3.org/2000/svg" xmlns:xlink="http://www.w3.org/1999/xlink" x="0px" y="0px"
	 viewBox="0 0 518.7 585.6" style="enable-background:new 0 0 518.7 585.6;" xml:space="preserve">
<style type="text/css">
	.st0{fill:#CFB571;}
	.st1{fill:#FFEC0D;}
	.st2{fill:#0568AF;}
	.st3{fill:#E21F26;}
	.st4{fill:none;stroke:#B4B4B4;stroke-miterlimit:10;}
</style>
<g>
	<g id="Guld_sköld">
		<g>
			<path class="st0" d="M408.2,133.7l-1.4-6l-6,1.3C326,144.9,263,107.3,262.4,106.9l-3.3-2l-3.3,2c-0.6,0.4-63.6,37.9-138.4,22.1
				l-6-1.3l-1.4,6c-0.3,1.1-6.6,29-5.2,74.9c4.3,144.1,97,237.9,151.1,270.6l3.3,2l3.3-2c54.1-32.7,146.8-126.4,151.1-270.6
				C414.7,162.6,408.4,134.8,408.2,133.7z"/>
		</g>
	</g>
	<g id="DIF_färger">
		<path class="st1" d="M317.4,140.7c-29.2-6.2-50.5-16.8-58.4-21.2c-14,7.7-70.1,35-138,23c-1.7,10.3-4.8,33.5-3.8,65.7
			c1.1,37.5,8.4,71.3,19.5,101.5L317.4,140.7z"/>
		<path class="st2" d="M259,466.4c51.7-32.7,135.6-120.2,141.5-253.2l-207.2,194C215.8,434.2,239.7,454.2,259,466.4z"/>
		<g>
			<path class="st3" d="M192.8,311.3l-1,0.9l21,22.4l0.9-0.9c5.2-4.8,7.4-13.3,0.1-21.2C207.1,305.4,198.3,306.1,192.8,311.3z"/>
			<path class="st3" d="M397,142.5c-25.1,4.5-48.6,3.5-68.9,0.1l-187.9,176c12.8,31.7,29.6,59.1,47.6,81.9l213.1-199.6
				C401.2,172.5,398.6,152,397,142.5z M225.6,343.8l-15,14.1L168.4,313l15-14.1c12.5-11.7,31.2-10.8,43,1.8
				C238.4,313.3,238.1,332.1,225.6,343.8z M262.7,311.3c-3.9,3.6-9.9,3.4-13.5-0.4c-3.6-3.9-3.5-9.9,0.4-13.5s9.9-3.5,13.5,0.4
				C266.7,301.6,266.5,307.6,262.7,311.3z M282.6,290.4l-42.2-44.9l12.8-12.1l42.2,44.9L282.6,290.4z M317.5,259.9L317.5,259.9
				L317.5,259.9c-3.9,3.6-9.9,3.4-13.6-0.4c-3.6-3.9-3.5-9.9,0.4-13.5l0,0l0,0c3.9-3.6,9.9-3.5,13.5,0.4
				C321.5,250.1,321.4,256.2,317.5,259.9z M337.3,239.1l-42.2-44.9l24.7-23.1l10.8,11.5l-11.9,11.1l5,5.3l11.6-10.9l10.8,11.5
				l-11.6,10.9l15.6,16.6L337.3,239.1z M372.4,208.4c-3.9,3.6-9.9,3.4-13.5-0.4c-3.6-3.9-3.5-9.9,0.4-13.5s9.9-3.5,13.5,0.4
				C376.4,198.7,376.3,204.8,372.4,208.4z"/>
		</g>
	</g>
</g>
<rect x="104.4" y="104.9" class="st4" width="309.1" height="376.3"/>
<rect x="10.6" y="10.8" class="st4" width="497" height="564"/>
<rect x="10.6" y="481.2" class="st4" width="93.8" height="93.8"/>
<line class="st4" x1="10.6" y1="574.8" x2="104.4" y2="481.2"/>
<line class="st4" x1="10.6" y1="481.2" x2="104.4" y2="575"/>
<rect x="413.5" y="481.2" class="st4" width="93.8" height="93.8"/>
<line class="st4" x1="413.5" y1="574.8" x2="507.3" y2="481.2"/>
<line class="st4" x1="413.5" y1="481.2" x2="507.3" y2="575"/>
<rect x="413.5" y="10.8" class="st4" width="93.8" height="93.8"/>
<line class="st4" x1="413.5" y1="104.4" x2="507.3" y2="10.8"/>
<line class="st4" x1="413.5" y1="10.8" x2="507.3" y2="104.6"/>
<rect x="10.6" y="10.8" class="st4" width="93.8" height="93.8"/>
<line class="st4" x1="10.6" y1="104.4" x2="104.4" y2="10.8"/>
<line class="st4" x1="10.6" y1="10.8" x2="104.4" y2="104.6"/>
<line class="st4" x1="10.6" y1="387.1" x2="507.6" y2="387.1"/>
<line class="st4" x1="10.6" y1="293" x2="507.6" y2="293"/>
<line class="st4" x1="10.6" y1="198.4" x2="507.6" y2="198.4"/>
</svg>
