<?xml version="1.0" encoding="utf-8"?>
<!-- Generator: Adobe Illustrator 20.1.0, SVG Export Plug-In . SVG Version: 6.00 Build 0)  -->
<svg version="1.1" id="Layer_1" xmlns="http://www.w3.org/2000/svg" xmlns:xlink="http://www.w3.org/1999/xlink" x="0px" y="0px"
	 viewBox="0 0 600 600" style="enable-background:new 0 0 600 600;" xml:space="preserve">
<style type="text/css">
	.st0{fill:#002554;}
	.st1{fill:#CFB571;}
</style>
<rect class="st0" width="600" height="600"/>
<g>
	
		<rect x="300.1" y="222.6" transform="matrix(0.7292 -0.6843 0.6843 0.7292 -94.4353 283.6086)" class="st1" width="22" height="77"/>
	<path class="st1" d="M356.7,241.2c-4.9,4.5-5.1,12-0.5,16.8c4.5,4.8,12.1,5.1,16.9,0.5c4.9-4.6,5.1-12.1,0.4-16.8
		C369,236.9,361.5,236.7,356.7,241.2z"/>
	<path class="st1" d="M288.3,305.5c-4.9,4.5-5.1,12-0.5,16.8c4.4,4.8,12,5.1,16.8,0.5c4.8-4.6,5-12.1,0.5-16.8
		C300.6,301.2,293.2,301,288.3,305.5z"/>
	<path class="st1" d="M205.7,307.3l-18.7,17.6l52.7,56.1l18.7-17.6c15.6-14.5,16-38,1.1-53.8C244.6,293.8,221.3,292.6,205.7,307.3z
		 M243.3,350.9l-1.1,1.1l-26.2-28l1.2-1.2c6.9-6.5,17.9-7.3,26.2,1.7C252.6,334.2,249.8,344.9,243.3,350.9z"/>
	<path class="st1" d="M486.3,101l-1.8-7.5l-7.5,1.6c-93.5,19.9-172.1-27-172.9-27.6L300,65l-4.1,2.5c-0.8,0.4-79.4,47.3-172.9,27.6
		l-7.5-1.6l-1.8,7.5c-0.4,1.4-8.2,36.2-6.5,93.5c5.3,180,121.1,297.1,188.7,338l4.1,2.5l4.1-2.5c67.6-40.8,183.4-157.9,188.7-338
		C494.4,137.1,486.6,102.5,486.3,101z M122.9,194.1c-1.2-40.3,2.6-69.2,4.7-82.1c84.9,15,154.9-19.2,172.4-28.7
		c9.8,5.4,36.4,18.6,72.9,26.4L147.3,320.9C133.5,283.2,124.3,241,122.9,194.1z M300,516.5c-24.1-15.3-53.9-40.2-82.1-73.9
		l258.8-242.3C469.4,366.4,364.5,475.7,300,516.5z M477.2,184.9L211,434.2c-22.4-28.4-43.4-62.6-59.4-102.2l234.7-219.7
		c25.4,4.2,54.7,5.4,86.1-0.2C474.3,123.9,477.6,149.5,477.2,184.9z"/>
	<polygon class="st1" points="408.9,183.1 395.4,168.8 380.9,182.4 374.7,175.9 389.5,162 376,147.6 345.1,176.5 397.8,232.6 
		413.8,217.5 394.3,196.8 	"/>
	<path class="st1" d="M425.3,176.9c-4.9,4.5-5.1,12-0.5,16.8c4.4,4.8,12,5.1,16.8,0.5c4.9-4.5,5.1-12.1,0.5-16.8
		C437.6,172.6,430.2,172.4,425.3,176.9z"/>
</g>
</svg>
