<?xml version="1.0" encoding="utf-8"?>
<!-- Generator: Adobe Illustrator 20.1.0, SVG Export Plug-In . SVG Version: 6.00 Build 0)  -->
<svg version="1.1" id="Layer_1" xmlns="http://www.w3.org/2000/svg" xmlns:xlink="http://www.w3.org/1999/xlink" x="0px" y="0px"
	 viewBox="0 0 201 190" style="enable-background:new 0 0 201 190;" xml:space="preserve">
<style type="text/css">
	.st0{clip-path:url(#SVGID_2_);}
	.st1{clip-path:url(#SVGID_4_);}
	.st2{clip-path:url(#SVGID_6_);fill:#231F20;}
	.st3{clip-path:url(#SVGID_8_);}
	.st4{clip-path:url(#SVGID_10_);fill:#231F20;}
	.st5{clip-path:url(#SVGID_12_);fill:none;stroke:#000000;stroke-width:0.5;}
	.st6{clip-path:url(#SVGID_12_);}
	.st7{clip-path:url(#SVGID_14_);}
	.st8{clip-path:url(#SVGID_16_);fill:#998247;}
	.st9{clip-path:url(#SVGID_16_);fill:#FFF100;}
	.st10{clip-path:url(#SVGID_16_);fill:#E4412B;}
	.st11{clip-path:url(#SVGID_16_);fill:#006BB5;}
	.st12{clip-path:url(#SVGID_18_);fill:#FFFFFF;}
	.st13{clip-path:url(#SVGID_20_);}
	.st14{clip-path:url(#SVGID_22_);fill:#998247;}
	.st15{clip-path:url(#SVGID_22_);fill:#FFF100;}
	.st16{clip-path:url(#SVGID_22_);fill:#E4412B;}
	.st17{clip-path:url(#SVGID_22_);fill:#006BB5;}
	.st18{clip-path:url(#SVGID_24_);fill:#FFFFFF;}
	.st19{clip-path:url(#SVGID_24_);}
	.st20{fill:#CFB571;}
	.st21{fill:#FFEC0D;}
	.st22{fill:#0568AF;}
	.st23{fill:#E21F26;}
</style>
<g>
	<defs>
		<rect id="SVGID_1_" x="2785" y="-213" width="32" height="24"/>
	</defs>
	<clipPath id="SVGID_2_">
		<use xlink:href="#SVGID_1_"  style="overflow:visible;"/>
	</clipPath>
	<g class="st0">
		<defs>
			<rect id="SVGID_3_" x="2785" y="-213" width="31.9" height="24"/>
		</defs>
		<clipPath id="SVGID_4_">
			<use xlink:href="#SVGID_3_"  style="overflow:visible;"/>
		</clipPath>
		<g class="st1">
			<defs>
				<rect id="SVGID_5_" x="2785" y="-213" width="32" height="24"/>
			</defs>
			<clipPath id="SVGID_6_">
				<use xlink:href="#SVGID_5_"  style="overflow:visible;"/>
			</clipPath>
			<rect x="2785" y="-213" class="st2" width="4.4" height="23.5"/>
			<path class="st2" d="M2792.4-208.5c0.1,8.9,5.6,16.5,13.4,19.5l2.1-3.9c-5.1-1.8-9-5.9-10.5-11.2h11.7v-4.5
				C2809.1-208.5,2792.4-208.5,2792.4-208.5"/>
		</g>
	</g>
</g>
<g>
	<defs>
		<rect id="SVGID_7_" x="2785" y="-213" width="32" height="24"/>
	</defs>
	<clipPath id="SVGID_8_">
		<use xlink:href="#SVGID_7_"  style="overflow:visible;"/>
	</clipPath>
	<g class="st3">
		<defs>
			<rect id="SVGID_9_" x="2785" y="-213" width="32" height="24"/>
		</defs>
		<clipPath id="SVGID_10_">
			<use xlink:href="#SVGID_9_"  style="overflow:visible;"/>
		</clipPath>
		<rect x="2812.5" y="-213" class="st4" width="4.4" height="23.5"/>
	</g>
</g>
<g>
	<defs>
		<rect id="SVGID_11_" x="2739" y="-234" width="1280" height="720"/>
	</defs>
	<clipPath id="SVGID_12_">
		<use xlink:href="#SVGID_11_"  style="overflow:visible;"/>
	</clipPath>
	<line class="st5" x1="2785" y1="449" x2="3976.3" y2="449"/>
	<g class="st6">
		<text transform="matrix(1 0 0 1 3679 -198)" style="font-family:'Graphik-Regular'; font-size:11px;">30</text>
	</g>
	<g class="st6">
		<text transform="matrix(1 0 0 1 3675 466)"><tspan x="0" y="0" style="font-family:'Graphik-Regular'; font-size:11px;">©</tspan><tspan x="9.3" y="0" style="font-family:'Graphik-Regular'; font-size:11px;">2</tspan><tspan x="15.3" y="0" style="font-family:'Graphik-Regular'; font-size:11px;">016 </tspan></text>
	</g>
	<g class="st6">
		<text transform="matrix(1 0 0 1 3711.9268 466)"><tspan x="0" y="0" style="font-family:'Graphik-Regular'; font-size:11px;">K</tspan><tspan x="6.5" y="0" style="font-family:'Graphik-Regular'; font-size:11px;">urppa Hosk</tspan></text>
	</g>
	<g class="st6">
		<text transform="matrix(1 0 0 1 3086 -202)"><tspan x="0" y="0" style="font-family:'Graphik-Regular'; font-size:11px;">K</tspan><tspan x="6.5" y="0" style="font-family:'Graphik-Regular'; font-size:11px;">urppa Hosk </tspan></text>
	</g>
	<g class="st6">
		<text transform="matrix(1 0 0 1 3086 -190)"><tspan x="0" y="0" style="font-family:'Graphik-Regular'; font-size:11px;">1</tspan><tspan x="4.4" y="0" style="font-family:'Graphik-Regular'; font-size:11px; letter-spacing:-1;">7</tspan><tspan x="9.1" y="0" style="font-family:'Graphik-Regular'; font-size:11px;">.</tspan><tspan x="11.6" y="0" style="font-family:'Graphik-Regular'; font-size:11px;">0</tspan><tspan x="19.1" y="0" style="font-family:'Graphik-Regular'; font-size:11px;">2</tspan><tspan x="25.1" y="0" style="font-family:'Graphik-Regular'; font-size:11px;">.</tspan><tspan x="27.5" y="0" style="font-family:'Graphik-Regular'; font-size:11px;">10</tspan></text>
	</g>
	<line class="st5" x1="2785" y1="-176" x2="3973" y2="-176"/>
	<g class="st6">
		<text transform="matrix(1 0 0 1 2784 -106)"><tspan x="0" y="0" style="font-family:'Graphik-Semibold'; font-size:40px; letter-spacing:-2;">S</tspan><tspan x="23.6" y="0" style="font-family:'Graphik-Semibold'; font-size:40px; letter-spacing:-3;">k</tspan><tspan x="42.8" y="0" style="font-family:'Graphik-Semibold'; font-size:40px; letter-spacing:-2;">öl</tspan><tspan x="74.6" y="0" style="font-family:'Graphik-Semibold'; font-size:40px;">d</tspan></text>
	</g>
	<g class="st6">
		<text transform="matrix(1 0 0 1 2882.1201 -106)" style="font-family:'Graphik-Semibold'; font-size:40px;"> </text>
	</g>
	<g class="st6">
		<text transform="matrix(1 0 0 1 2784 -70)"><tspan x="0" y="0" style="font-family:'Graphik-Regular'; font-size:40px; letter-spacing:-3;">F</tspan><tspan x="18.7" y="0" style="font-family:'Graphik-Regular'; font-size:40px; letter-spacing:-1;">ö</tspan><tspan x="40.9" y="0" style="font-family:'Graphik-Regular'; font-size:40px; letter-spacing:-2;">r</tspan><tspan x="53.4" y="0" style="font-family:'Graphik-Regular'; font-size:40px; letter-spacing:-1;">e</tspan><tspan x="74.3" y="0" style="font-family:'Graphik-Regular'; font-size:40px; letter-spacing:-1;">sl</tspan><tspan x="99.7" y="0" style="font-family:'Graphik-Regular'; font-size:40px; letter-spacing:-1;">a</tspan><tspan x="119.4" y="0" style="font-family:'Graphik-Regular'; font-size:40px; letter-spacing:-2;">g</tspan><tspan x="142.4" y="0" style="font-family:'Graphik-Regular'; font-size:40px; letter-spacing:-1;">n</tspan><tspan x="164.4" y="0" style="font-family:'Graphik-Regular'; font-size:40px; letter-spacing:-1;">a </tspan><tspan x="192.6" y="0" style="font-family:'Graphik-Regular'; font-size:40px; letter-spacing:-2;">v</tspan><tspan x="211.4" y="0" style="font-family:'Graphik-Regular'; font-size:40px; letter-spacing:-2;">e</tspan><tspan x="232.1" y="0" style="font-family:'Graphik-Regular'; font-size:40px; letter-spacing:-2;">r</tspan><tspan x="245" y="0" style="font-family:'Graphik-Regular'; font-size:40px; letter-spacing:-2;">s</tspan><tspan x="262.2" y="0" style="font-family:'Graphik-Regular'; font-size:40px; letter-spacing:-1;">ion</tspan><tspan x="314.6" y="0" style="font-family:'Graphik-Regular'; font-size:40px; letter-spacing:-2;">e</tspan><tspan x="335.3" y="0" style="font-family:'Graphik-Regular'; font-size:40px;">r</tspan></text>
	</g>
	<g class="st6">
		<text transform="matrix(1 0 0 1 3585 1)"><tspan x="0" y="0" style="font-family:'Graphik-Regular'; font-size:20px; letter-spacing:-1;">F</tspan><tspan x="9.3" y="0" style="font-family:'Graphik-Regular'; font-size:20px;">ö</tspan><tspan x="20.4" y="0" style="font-family:'Graphik-Regular'; font-size:20px; letter-spacing:-1;">r</tspan><tspan x="26.7" y="0" style="font-family:'Graphik-Regular'; font-size:20px; letter-spacing:-1;">e</tspan><tspan x="37" y="0" style="font-family:'Graphik-Regular'; font-size:20px;">nin</tspan><tspan x="63.1" y="0" style="font-family:'Graphik-Regular'; font-size:20px; letter-spacing:-1;">ga</tspan><tspan x="84.5" y="0" style="font-family:'Graphik-Regular'; font-size:20px;">r</tspan></text>
	</g>
	<g class="st6">
		<text transform="matrix(1 0 0 1 3187 0)"><tspan x="0" y="0" style="font-family:'Graphik-Regular'; font-size:20px; letter-spacing:-1;">D</tspan><tspan x="12.9" y="0" style="font-family:'Graphik-Regular'; font-size:20px;">j</tspan><tspan x="17" y="0" style="font-family:'Graphik-Regular'; font-size:20px; letter-spacing:-1;">u</tspan><tspan x="27.9" y="0" style="font-family:'Graphik-Regular'; font-size:20px; letter-spacing:-1;">r</tspan><tspan x="34.2" y="0" style="font-family:'Graphik-Regular'; font-size:20px; letter-spacing:-1;">gå</tspan><tspan x="55.5" y="0" style="font-family:'Graphik-Regular'; font-size:20px; letter-spacing:-1;">r</tspan><tspan x="61.7" y="0" style="font-family:'Graphik-Regular'; font-size:20px;">d</tspan><tspan x="73.3" y="0" style="font-family:'Graphik-Regular'; font-size:20px; letter-spacing:-1;">e</tspan><tspan x="83.7" y="0" style="font-family:'Graphik-Regular'; font-size:20px;">n</tspan><tspan x="94.6" y="0" style="font-family:'Graphik-Regular'; font-size:20px; letter-spacing:-1;">, ge</tspan><tspan x="125.5" y="0" style="font-family:'Graphik-Regular'; font-size:20px;">m</tspan><tspan x="142.7" y="0" style="font-family:'Graphik-Regular'; font-size:20px; letter-spacing:-1;">e</tspan><tspan x="153.1" y="0" style="font-family:'Graphik-Regular'; font-size:20px;">n</tspan><tspan x="164" y="0" style="font-family:'Graphik-Regular'; font-size:20px; letter-spacing:-1;">sa</tspan><tspan x="182.4" y="0" style="font-family:'Graphik-Regular'; font-size:20px;">mm</tspan><tspan x="216.9" y="0" style="font-family:'Graphik-Regular'; font-size:20px;">a</tspan></text>
	</g>
	<line class="st5" x1="2785" y1="-19.3" x2="3164.5" y2="-19.3"/>
	<line class="st5" x1="3185" y1="-19.3" x2="3554.5" y2="-19.3"/>
	<line class="st5" x1="3583.4" y1="-19.3" x2="3952.9" y2="-19.3"/>
	<g class="st6">
		<text transform="matrix(1 0 0 1 2789 0)"><tspan x="0" y="0" style="font-family:'Graphik-Regular'; font-size:20px; letter-spacing:-1;">D</tspan><tspan x="12.9" y="0" style="font-family:'Graphik-Regular'; font-size:20px;">j</tspan><tspan x="17" y="0" style="font-family:'Graphik-Regular'; font-size:20px; letter-spacing:-1;">u</tspan><tspan x="27.9" y="0" style="font-family:'Graphik-Regular'; font-size:20px; letter-spacing:-1;">r</tspan><tspan x="34.2" y="0" style="font-family:'Graphik-Regular'; font-size:20px; letter-spacing:-1;">gå</tspan><tspan x="55.5" y="0" style="font-family:'Graphik-Regular'; font-size:20px; letter-spacing:-1;">r</tspan><tspan x="61.7" y="0" style="font-family:'Graphik-Regular'; font-size:20px;">d</tspan><tspan x="73.3" y="0" style="font-family:'Graphik-Regular'; font-size:20px; letter-spacing:-1;">sall</tspan><tspan x="99.9" y="0" style="font-family:'Graphik-Regular'; font-size:20px;">i</tspan><tspan x="104.1" y="0" style="font-family:'Graphik-Regular'; font-size:20px; letter-spacing:-1;">a</tspan><tspan x="113.9" y="0" style="font-family:'Graphik-Regular'; font-size:20px;">n</tspan><tspan x="124.8" y="0" style="font-family:'Graphik-Regular'; font-size:20px; letter-spacing:-1;">se</tspan><tspan x="143.8" y="0" style="font-family:'Graphik-Regular'; font-size:20px;">n</tspan></text>
	</g>
</g>
<g>
	<defs>
		<rect id="SVGID_13_" x="3277" y="56" width="107" height="119"/>
	</defs>
	<clipPath id="SVGID_14_">
		<use xlink:href="#SVGID_13_"  style="overflow:visible;"/>
	</clipPath>
	<g class="st7">
		<defs>
			<rect id="SVGID_15_" x="3227" y="22" width="206" height="177"/>
		</defs>
		<clipPath id="SVGID_16_">
			<use xlink:href="#SVGID_15_"  style="overflow:visible;"/>
		</clipPath>
		<path class="st8" d="M3262.2,106.8l-3.3,3.4l-0.2,0l3.5,3.3v7c0,0-3.5,4.7-3.5,4.7l-8.8,0c-0.1-0.2-3.3-4.4-3.4-4.5l0-0.2v-7
			l3.3-3.4l0.2,0l-3.5-3.3v-7c0,0,4-4.7,4-4.7l8.3,0c0.1,0.2,3.3,4.4,3.4,4.5l0,0.2V106.8 M3260.2,93.2l-10.7,0c0,0-5.2,6-5.2,6.1
			v8.4l2.5,2.4l-2.5,2.4v8.6c0.1,0.1,4.3,5.7,4.4,5.9l11.3,0c0,0,4.7-6,4.7-6.1v-8.4l-2.5-2.4l2.5-2.4v-8.6
			C3264.5,99,3260.2,93.4,3260.2,93.2z"/>
		<path class="st8" d="M3237.2,124.9c-2.6,0-5.2,0-7.8,0c0-1,0-2,0-3c0.7,0,1.5,0,2.2,0c0-7.8,0-23.5,0-23.5h-2.2c0,0,0-2.2,0-3.2
			c1.9,0,3.8,0,5.7,0c0,8.9,0,17.8,0,26.6c0.7,0,1.4,0,2.1,0C3237.2,123,3237.2,124,3237.2,124.9 M3237.2,119.9c0-8.8,0-17.7,0-26.5
			c-3.3,0-10,0-10,0l0,6.9c0,0,1.5,0,2.2,0c0,6.5,0,13.1,0,19.6c-0.7,0-1.5,0-2.2,0c0,2.2,0,6.8,0,6.8h12.3c0,0,0-4.5,0-6.8
			C3238.8,119.9,3238,119.9,3237.2,119.9z"/>
		<path class="st8" d="M3430.4,124.9c-2.6,0-5.2,0-7.8,0c0-1,0-2,0-3c0.7,0,1.5,0,2.2,0c0-7.8,0-23.5,0-23.5h-2.2c0,0,0-2.2,0-3.2
			c1.9,0,3.8,0,5.7,0c0,8.9,0,17.8,0,26.6c0.7,0,1.4,0,2.1,0C3430.4,123.1,3430.4,124.1,3430.4,124.9 M3430.4,120
			c0-8.8,0-17.7,0-26.5c-3.3,0-10,0-10,0l0,6.9c0,0,1.5,0,2.2,0c0,6.5,0,13.1,0,19.6c-0.7,0-1.5,0-2.2,0c0,2.2,0,6.8,0,6.8h12.3
			c0,0,0-4.5,0-6.8C3431.9,120,3431.2,120,3430.4,120z"/>
		<path class="st8" d="M3256.4,105.9c-1.3,0-2.7,0-4,0c0-2,0-4,0-6c1.3,0,2.7,0,4,0C3256.4,101.9,3256.4,103.9,3256.4,105.9
			 M3257.3,98h-5.6l-1.7,1.6v6.8l1.7,1.6l5.3,0l1.7-1.6l0-6.3L3257.3,98z"/>
		<path class="st8" d="M3256.4,120.3c-1.3,0-2.7,0-4,0c0-2,0-4,0-6c1.3,0,2.7,0,4,0C3256.4,116.3,3256.4,118.3,3256.4,120.3
			 M3251.8,112.2l-1.7,1.6l0,6.3l1.5,2.1h5.6l1.7-1.6v-6.8l-1.7-1.6L3251.8,112.2z"/>
		<path class="st8" d="M3412.9,121.3l-3.5,3.6h-8.6l-3.4-3.5v-1.7c2,0,1.7,0,3.7,0c0,0.5,0,1.2,0,1.2l1.4,1.2h5.3l1.6-1.8
			c0,0,0-7.3,0-8.9h-8.7l-3.5-3.6v-7.6c0,0,4-5.1,4-5.1l8.3,0c0.1,0.2,3.3,4.8,3.4,4.9V121.3 M3410.9,93.3l-10.7,0
			c0,0-5.2,6.5-5.2,6.6v9.1l4.5,4.7h7.7c0,2.1,0,4.2,0,6.4c-1.3,0-2.6,0-3.9,0c0-0.7,0-1.5,0-2.2c-2.6,0-5.7,0-8.4,0v4.5l4.7,4.6
			h11.2l4.5-4.7V99.6C3415.2,99.5,3410.9,93.5,3410.9,93.3z"/>
		<path class="st8" d="M3407.1,107c-1.3,0-2.7,0-4,0c0-2.2,0-4.3,0-6.5c1.3,0,2.7,0,4,0C3407.1,102.7,3407.1,104.8,3407.1,107
			 M3408,98.4h-5.6l-1.7,1.7v7.4l1.7,1.7h7v-8.6L3408,98.4z"/>
		<path class="st8" d="M3246.6,83.5l8.4,3.2l-0.5,1.2l1,0.4l1.6-4.1c1.4-3.7-0.5-6.4-3.1-7.4c-3.4-1.3-6.1,0.5-7.1,3.1l-1.7,4.3
			l1,0.4L3246.6,83.5 M3247.2,82.1l0.4-1.1c1.1-3,3.5-3.7,5.8-2.8c2.3,0.9,3.7,3.2,2.6,5.9l-0.5,1.2L3247.2,82.1z"/>
		<path class="st8" d="M3249.7,73.3l2-3.9l0.9,0.5l-0.6,1.2l8,4.1c1.5,0.8,2.3,1.9,1.5,3.5l-0.3,0.7l-1.2-0.6l0.3-0.5
			c0.3-0.7,0.2-1.2-0.4-1.5l-8.4-4.3l-0.7,1.3L3249.7,73.3"/>
		<path class="st8" d="M3255.7,62.7l2.1-3.3l0.9,0.6l-0.6,1l5.1,3.3c2.3,1.5,2.7,3.6,1.4,5.5c-1.3,2-3.3,2.5-5.6,1l-5.1-3.3l-0.6,1
			l-0.9-0.6l2.1-3.3l0.9,0.6l-0.7,1.1l5.5,3.5c1.4,0.9,2.6,0.4,3.4-0.7c0.8-1.2,0.7-2.5-0.7-3.4l-5.5-3.5l-0.7,1.1L3255.7,62.7"/>
		<path class="st8" d="M3270.2,61.8l-0.8-0.7l-0.9,1l-3.2-2.7l1.2-1.4c0.6-0.8,1.4-1.4,2.3-0.7l3.1,2.6l1.8-2.1l-0.8-0.7l-0.8,1
			l-2.3-2c-0.7-0.6-1.6-0.6-2.2,0.1l0,0c0.4-1.2,0.3-2.2-0.7-3.1c-1.3-1.1-2.8-0.9-4.1,0.6l-3.5,4.1l0.8,0.7l0.8-1l6.9,5.8l-0.8,1
			l0.8,0.7L3270.2,61.8 M3261.7,56.3l1.1-1.2c0.8-0.9,1.8-1.9,3-0.9c1.2,1,0.7,2.2-0.1,3.3l-1.1,1.2L3261.7,56.3z"/>
		<path class="st8" d="M3276.1,45.7c-1.3-1-3.3-0.8-4.5,0.3c-1.4,1.3-2.1,4-0.2,6.1c2,2.2,4.7,1.8,6.1,0.5c1.4-1.2,1.6-3.2,0.9-4.5
			l-2.2,1.9l-0.8-0.9l4-3.6l0.8,0.9l-1,0.9l2.5,2.8l-0.9,0.8l-0.9-1c-0.2,1.6-0.6,2.6-1.7,3.6c-2.3,2.1-5.9,1.8-8.1-0.6
			c-2.1-2.4-2-6,0.4-8.1c0.9-0.8,2.2-1.3,3.5-1.3l-0.7-0.8l0.9-0.8l2.6,2.9L3276.1,45.7"/>
		<path class="st8" d="M3286,41.4l-2.6,1.7l-1.3-4.8l0,0L3286,41.4 M3279.9,39.3l1.1-0.7l2.3,9.2l-0.9,0.6l0.6,0.9l3.1-2l-0.6-0.9
			l-1.1,0.7l-0.7-2.8l3.2-2.1l2.2,1.8l-1.1,0.7l0.6,0.9l3.2-2.1l-0.6-0.9l-0.9,0.6l-7.4-5.9l1.1-0.7l-0.6-0.9l-4.2,2.8L3279.9,39.3z
			 M3281.1,36.4c0.7-0.5,0.9-1.4,0.5-2.2c-0.5-0.7-1.4-0.9-2.2-0.5c-0.7,0.5-0.9,1.5-0.4,2.2C3279.4,36.6,3280.4,36.9,3281.1,36.4z
			 M3279.5,35.5c-0.3-0.4-0.2-0.9,0.2-1.2c0.4-0.3,0.9-0.2,1.2,0.3c0.3,0.4,0.2,0.9-0.3,1.2C3280.3,36.1,3279.8,36,3279.5,35.5z"/>
		<path class="st8" d="M3295.9,41.5l-0.5-1l-1.2,0.6l-1.8-3.8l1.6-0.8c0.9-0.4,1.8-0.7,2.3,0.3l1.7,3.6l2.5-1.2l-0.5-1l-1.2,0.6
			l-1.3-2.8c-0.4-0.8-1.2-1.2-2-0.8l0,0c0.8-1,1.2-1.9,0.6-3.1c-0.7-1.5-2.2-2-4-1.2l-4.8,2.3l0.5,1l1.2-0.6l3.9,8.1l-1.2,0.6l0.5,1
			L3295.9,41.5 M3290.3,33.1l1.5-0.7c1.1-0.5,2.4-1,3.1,0.4c0.7,1.4-0.3,2.3-1.5,2.9l-1.5,0.7L3290.3,33.1z"/>
		<path class="st8" d="M3299.1,29.1l2.8,8.5l-1.3,0.4l0.3,1l4.1-1.3c3.7-1.2,4.6-4.5,3.8-7.1c-1.1-3.4-4.3-4.4-6.9-3.6l-4.4,1.4
			l0.3,1L3299.1,29.1 M3300.5,28.6l1.1-0.4c3-1,5.1,0.4,5.8,2.8c0.8,2.4-0.1,4.8-2.9,5.7l-1.3,0.4L3300.5,28.6z"/>
		<polyline class="st8" points="3311.2,35.8 3311,34.8 3312.3,34.5 3310.7,25.7 3309.4,25.9 3309.2,24.9 3317.6,23.3 3318.1,26.2 
			3316.8,26.5 3316.5,24.6 3312.1,25.4 3312.8,28.9 3316.4,28.2 3316.7,29.4 3313,30.1 3313.8,34.2 3318.2,33.4 3317.7,31.2 
			3319,30.9 3319.7,34.2 3311.2,35.8 		"/>
		<polyline class="st8" points="3320.8,24 3319.6,24.1 3319.5,23 3322.3,22.8 3327.5,30.6 3327.5,30.6 3327.1,23.6 3325.8,23.7 
			3325.8,22.6 3329.6,22.3 3329.7,23.4 3328.5,23.5 3329.1,33.5 3327.8,33.6 3322.3,25.3 3322.3,25.3 3322.7,32.9 3324.1,32.8 
			3324.2,33.8 3320.2,34.1 3320.1,33 3321.4,32.9 3320.8,24 		"/>
		<path class="st8" d="M3332.6,29.8c0.2,1.6,1.3,2.8,2.9,2.9c1.1,0.1,2.4-0.5,2.5-1.8c0.2-3.1-6.6-1.7-6.3-5.9
			c0.1-2,1.7-2.8,3.6-2.7c1.2,0.1,1.9,0.5,2.7,1.4l0.1-0.9l1.2,0.1l-0.2,3.3l-1.2-0.1c-0.1-1.3-1.2-2.3-2.5-2.4
			c-1.4-0.1-2.2,0.6-2.2,1.5c-0.2,2.7,6.6,1.4,6.3,5.8c-0.1,1.9-1.8,3.2-3.6,3.1c-1.4-0.1-2.2-0.4-3.3-1.4l-0.1,0.9l-1.2-0.1
			l0.2-3.8L3332.6,29.8"/>
		<polyline class="st8" points="3343.7,34.7 3343.9,33.7 3345.2,34 3347,25.2 3345.7,24.9 3345.9,23.9 3350,24.7 3349.7,25.7 
			3348.4,25.4 3346.6,34.2 3347.9,34.5 3347.7,35.6 3343.7,34.7 		"/>
		<polyline class="st8" points="3351.3,26 3351.6,25 3359.8,27.4 3358.9,30.3 3357.6,29.9 3358.2,28.1 3354,26.8 3353,30.2 
			3356.7,31.3 3356.3,32.5 3352.6,31.3 3351.4,35.4 3352.9,35.9 3352.6,36.9 3348.4,35.6 3348.7,34.6 3350,35 3352.6,26.4 
			3351.3,26 		"/>
		<polyline class="st8" points="3365,30.6 3365.4,29.7 3373.1,33.4 3371.8,36.1 3370.6,35.5 3371.4,33.8 3367.5,31.8 3365.9,35 
			3369.4,36.7 3368.9,37.8 3365.4,36.1 3363.5,39.9 3364.9,40.6 3364.5,41.5 3360.5,39.6 3361,38.7 3362.2,39.3 3366.1,31.2 
			3365,30.6 		"/>
		<path class="st8" d="M3379.9,37.4c-2.7-1.8-6.3-1.1-8.1,1.6c-1.8,2.7-1.1,6.2,1.6,8.1c2.7,1.8,6.3,1.1,8.1-1.6
			C3383.3,42.8,3382.7,39.2,3379.9,37.4 M3379.2,38.5c1.7,1.1,2.8,3.7,1.1,6.2c-1.6,2.4-4.4,2.4-6.1,1.3c-1.7-1.1-2.8-3.7-1.1-6.2
			C3374.7,37.4,3377.5,37.4,3379.2,38.5z"/>
		<polyline class="st8" points="3384.3,44.6 3386.3,42.3 3392.6,47.9 3390.5,50.2 3389.5,49.3 3390.9,47.8 3389.3,46.4 3383.3,53.1 
			3384.3,54 3383.6,54.8 3380.5,52 3381.2,51.2 3382.2,52.1 3388.2,45.4 3386.6,44 3385.3,45.5 3384.3,44.6 		"/>
		<path class="st8" d="M3385.6,56.6l2.7,3.1c1.5,1.7,3.2,2.5,5,1c1.6-1.4,1.1-2.9,0.7-3.6l0,0c0.8,0.6,1.9,0.7,3-0.2
			c1.4-1.2,1.3-2.7-0.3-4.5l-2.8-3.1l-0.8,0.7l0.9,1l-6.7,6l-0.9-1L3385.6,56.6 M3394.9,52l1,1.1c0.8,0.9,0.9,2-0.1,2.8
			c-0.7,0.6-1.9,0.4-2.6-0.3l-1-1.1L3394.9,52z M3391.4,55.1l0.8,0.9c1.2,1.4,1.4,2.5,0.2,3.5c-1.1,1-2.1,0.9-3.4-0.6l-0.8-0.9
			L3391.4,55.1z"/>
		<path class="st8" d="M3404.4,61.9c-1.8-2.7-5.4-3.4-8.1-1.6c-2.7,1.8-3.4,5.3-1.6,8.1c1.8,2.7,5.4,3.4,8.1,1.6
			C3405.5,68.2,3406.3,64.7,3404.4,61.9 M3403.3,62.7c1.1,1.7,1.2,4.5-1.3,6.1c-2.4,1.6-5,0.6-6.1-1.1c-1.1-1.7-1.2-4.5,1.3-6.1
			C3399.6,59.9,3402.2,61,3403.3,62.7z"/>
		<polyline class="st8" points="3407.5,69.3 3408.4,68.8 3410.3,72.6 3409.3,73.1 3408.7,71.8 3400.7,75.8 3402.2,78.9 3404.1,77.9 
			3404.7,79.1 3401.8,80.5 3398.5,73.7 3399.4,73.2 3400,74.5 3408.1,70.5 3407.5,69.3 		"/>
		<polyline class="st8" points="3411.5,77.7 3412.5,77.3 3414,81.3 3413,81.6 3412.5,80.3 3404,83.4 3405.2,86.6 3407.3,85.9 
			3407.8,87.1 3404.7,88.2 3402.1,81.1 3403.1,80.8 3403.5,82 3412,78.9 3411.5,77.7 		"/>
		<path class="st8" d="M3251,137.6c-1.4,0.8-2.1,2.2-1.6,3.8c0.4,1.1,1.3,2,2.5,1.6c2.9-1-0.9-6.6,3-7.9c1.9-0.6,3.2,0.5,3.8,2.3
			c0.4,1.1,0.3,1.9-0.2,3l0.9-0.3l0.4,1.1l-3,1l-0.4-1.1c1.1-0.6,1.7-1.9,1.3-3.2c-0.4-1.3-1.4-1.8-2.2-1.5c-2.5,0.8,1.2,6.5-3,7.9
			c-1.8,0.6-3.6-0.5-4.1-2.2c-0.4-1.3-0.4-2.2,0-3.5l-0.9,0.3l-0.4-1.1l3.5-1.2L3251,137.6"/>
		<polyline class="st8" points="3257.8,144.4 3260.5,143.1 3264.2,150.4 3261.5,151.8 3260.9,150.6 3262.7,149.8 3261.8,147.9 
			3253.9,151.9 3254.5,153.1 3253.5,153.5 3251.7,149.8 3252.6,149.4 3253.2,150.6 3261.1,146.6 3260.2,144.7 3258.4,145.6 
			3257.8,144.4 		"/>
		<path class="st8" d="M3268.4,156.2c-1.9-2.6-5.4-3.2-8-1.3c-2.6,1.9-3.2,5.4-1.2,8c1.9,2.6,5.4,3.2,8,1.3
			C3269.7,162.3,3270.3,158.8,3268.4,156.2 M3267.3,156.9c1.2,1.6,1.3,4.4-1,6.1c-2.3,1.7-4.9,0.7-6.1-0.9c-1.2-1.6-1.3-4.4,1-6.1
			C3263.6,154.3,3266.1,155.3,3267.3,156.9z"/>
		<path class="st8" d="M3276.5,170.6c0.8-1.4,0.3-3-0.8-4.1c-1.7-1.7-4.2-1.4-5.9,0.3c-1.7,1.7-2,4.3-0.3,6c1.3,1.3,2.7,1.6,4.3,0.8
			l1,0.9c-2,1.2-4.3,1-6.2-0.8c-2.3-2.3-2.1-5.7,0.1-7.9c2.2-2.2,5.5-2.5,7.8-0.3c0.9,0.8,1.5,2,1.6,3.2l0.6-0.7l0.8,0.8l-2.4,2.4
			L3276.5,170.6"/>
		<polyline class="st8" points="3284.5,172.7 3283.9,173.5 3282.8,172.7 3280.3,176.1 3280.3,176.1 3285.9,175 3285,174.3 
			3285.6,173.5 3288.8,175.8 3288.1,176.6 3287.3,176 3281.6,177.2 3281.6,177.2 3282.1,183.1 3283,183.8 3282.4,184.6 
			3279.2,182.3 3279.8,181.5 3280.7,182.1 3280.2,176.3 3280.2,176.3 3277.6,179.9 3278.7,180.7 3278.1,181.5 3274.8,179.1 
			3275.4,178.3 3276.4,179 3281.6,171.9 3280.6,171.1 3281.2,170.3 3284.5,172.7 		"/>
		<polyline class="st8" points="3284.5,186 3285,185 3286.1,185.6 3290.2,177.8 3289.1,177.2 3289.6,176.3 3293.2,178.2 
			3292.7,179.1 3291.5,178.5 3289.8,181.6 3294.1,183.9 3295.7,180.7 3294.5,180.1 3295,179.1 3298.6,181.1 3298.1,182 3297,181.4 
			3292.9,189.2 3294,189.8 3293.5,190.7 3289.9,188.8 3290.3,187.9 3291.6,188.5 3293.5,184.9 3289.2,182.7 3287.3,186.3 
			3288.6,186.9 3288.1,187.9 3284.5,186 		"/>
		<path class="st8" d="M3305.2,183.2c-3.1-1-6.2,0.6-7.3,3.6c-1,3,0.5,6.2,3.6,7.3c3.1,1,6.2-0.6,7.3-3.6
			C3309.8,187.5,3308.3,184.3,3305.2,183.2 M3304.8,184.4c1.9,0.7,3.6,2.8,2.6,5.6c-0.9,2.7-3.6,3.4-5.5,2.8
			c-1.9-0.6-3.6-2.8-2.6-5.6C3300.2,184.5,3302.9,183.8,3304.8,184.4z"/>
		<polyline class="st8" points="3311.7,186.5 3311.9,185.5 3316,186.3 3315.8,187.3 3314.4,187 3312.8,195.7 3316.1,196.4 
			3316.5,194.2 3317.8,194.5 3317.2,197.6 3309.8,196.2 3310,195.2 3311.3,195.5 3313,186.8 3311.7,186.5 		"/>
		<polyline class="st8" points="3322.8,197.2 3324.2,197.2 3324.2,198.3 3320.2,198.1 3320.2,197.1 3321.5,197.1 3321.7,188.3 
			3320.4,188.2 3320.5,187.2 3324,187.3 3326.6,194.9 3326.6,194.9 3329.6,187.5 3333,187.6 3332.9,188.6 3331.6,188.6 
			3331.4,197.4 3332.7,197.5 3332.7,198.5 3328.7,198.4 3328.7,197.3 3330,197.4 3330.3,189.1 3330.2,189.1 3326.8,197.4 
			3326.1,197.4 3323.1,188.9 3323.1,188.9 3322.8,197.2 		"/>
		<path class="st8" d="M3336.5,194.3c0.5,1.5,1.8,2.5,3.4,2.3c1.1-0.1,2.2-0.9,2.1-2.2c-0.4-3-6.7-0.4-7.2-4.5c-0.2-2,1.2-3.1,3-3.3
			c1.1-0.1,2,0.1,2.9,0.8l-0.1-0.9l1.2-0.1l0.4,3.2l-1.2,0.2c-0.4-1.2-1.6-2-2.8-1.9c-1.4,0.2-2,1-1.9,1.9c0.3,2.6,6.6,0.1,7.2,4.5
			c0.2,1.9-1.1,3.4-3,3.6c-1.4,0.2-2.2,0-3.4-0.7l0.1,0.9l-1.2,0.1l-0.5-3.7L3336.5,194.3"/>
		<path class="st8" d="M3351.5,191.5c0.7,1.4,2.2,2.2,3.7,1.7c1.1-0.3,2-1.3,1.6-2.5c-0.9-2.9-6.6,0.8-7.9-3.2
			c-0.6-1.9,0.6-3.2,2.3-3.8c1.1-0.3,1.9-0.2,3,0.3l-0.3-0.9l1.1-0.4l1,3.1l-1.2,0.4c-0.6-1.2-1.9-1.7-3.1-1.3
			c-1.3,0.4-1.8,1.3-1.5,2.2c0.8,2.5,6.6-1,7.9,3.1c0.6,1.8-0.5,3.5-2.3,4.1c-1.3,0.4-2.2,0.4-3.5-0.1l0.3,0.9l-1.1,0.4l-1.1-3.5
			L3351.5,191.5"/>
		<polyline class="st8" points="3358.5,184.9 3357.2,182.1 3364.8,178.7 3366,181.5 3364.8,182 3364,180.2 3362.1,181.1 
			3365.7,189.2 3366.9,188.6 3367.3,189.6 3363.5,191.2 3363.1,190.3 3364.4,189.7 3360.8,181.7 3358.8,182.5 3359.6,184.3 
			3358.5,184.9 		"/>
		<path class="st8" d="M3370.8,174.9c-2.7,1.7-3.5,5.2-1.9,7.9c1.7,2.7,5.1,3.5,7.9,1.8c2.7-1.7,3.5-5.2,1.9-7.9
			C3377,174,3373.6,173.2,3370.8,174.9 M3371.5,176c1.7-1.1,4.4-1,6,1.5c1.5,2.5,0.4,5-1.3,6c-1.7,1.1-4.4,1-6-1.5
			C3368.6,179.6,3369.8,177.1,3371.5,176z"/>
		<polyline class="st8" points="3377.5,172 3376.9,171.2 3380,168.5 3380.7,169.3 3379.6,170.2 3385.3,177 3387.9,174.9 
			3386.5,173.2 3387.5,172.4 3389.5,174.8 3383.8,179.6 3383.1,178.8 3384.2,178 3378.5,171.1 3377.5,172 		"/>
		<polyline class="st8" points="3385,168.3 3382.9,166.2 3388.6,160.3 3390.8,162.4 3389.9,163.3 3388.5,161.9 3387,163.4 
			3393.3,169.6 3394.3,168.6 3395,169.3 3392.1,172.3 3391.4,171.6 3392.3,170.6 3386,164.5 3384.5,166 3385.9,167.4 3385,168.3 		
			"/>
		<polyline class="st8" points="3398.3,165.8 3397.5,165.2 3398.2,164.2 3391,159 3390.3,160 3389.4,159.4 3391.8,156.1 
			3392.7,156.7 3391.9,157.8 3394.8,159.9 3397.6,156 3394.7,153.9 3393.9,155 3393,154.4 3395.4,151.1 3396.3,151.7 3395.5,152.7 
			3402.7,157.9 3403.4,156.9 3404.3,157.5 3401.9,160.8 3401,160.2 3401.8,159.1 3398.5,156.7 3395.7,160.6 3399,163 3399.8,161.9 
			3400.7,162.5 3398.3,165.8 		"/>
		<polyline class="st8" points="3405.7,155.1 3404.7,154.7 3405.3,153.5 3397.4,149.5 3396.8,150.7 3395.9,150.2 3399.7,142.6 
			3402.3,144 3401.7,145.1 3400,144.3 3398.1,148.2 3401.2,149.8 3402.8,146.5 3403.9,147 3402.2,150.3 3406,152.2 3407.9,148.3 
			3406,147.3 3406.6,146.1 3409.5,147.6 3405.7,155.1 		"/>
		<polyline class="st8" points="3403,142.5 3400.2,141.5 3402.7,133.7 3405.6,134.6 3405.2,135.8 3403.3,135.2 3402.6,137.2 
			3411.1,140 3411.5,138.7 3412.5,139 3411.2,142.9 3410.2,142.6 3410.6,141.3 3402.2,138.6 3401.6,140.6 3403.4,141.2 3403,142.5 
					"/>
		<path class="st8" d="M3337.5,60c11.5,5,26,6.3,38.9,3.5c0.2,0,0.2,0.3,0.3,0.5c6.5,34.8-3.7,69.4-27,94.6
			c-6,6.2-12.5,11.9-19.7,16.4l-0.4-0.1c-5.3-3.4-10.8-7.5-15.2-11.8c-15.6-14.3-26.9-33.2-31.4-53.2c-1.2-4.5-2-9-2.5-13.6
			c-0.5-4.1-0.7-8.4-0.8-12.5c0.1-1.9,0-3.7,0.2-5.5c-0.1-1.2,0.1-2.5,0.2-3.7c0.3-3.4,0.8-6.8,1.4-10.2c3.5,0.4,7.1,1.1,10.8,1.1
			c13.5,0.4,25.9-3,36.7-9.8C3331.8,57.2,3334.6,58.8,3337.5,60"/>
		<path class="st9" d="M3331.3,61.7c5.3,2.8,11.1,4.8,17.1,6l0.1,0.1c-2.2,2-4.5,4.1-6.5,6.1l-11,10.4
			c-13.3,12.4-26.4,25.2-39.8,37.3c-0.1,0.1-0.2,0.1-0.3,0.2c-6.7-16.3-8.8-34.8-6.2-52.7l0.2-0.1c15.5,2.3,31.2-1,44-8.5
			C3329.8,60.6,3330.5,61.3,3331.3,61.7"/>
		<path class="st10" d="M3373.5,69.4c0.9,5.8,1.2,11.6,1.1,17.4l-2,1.9l-8.2,7.7c-9.1,8.8-19,17.5-28,26.4c-1.1,1-2.2,2-3.2,3.1
			l-0.2,0.1c-8.2,7.8-16.8,15.9-25.1,23.7c-0.2,0-0.2,0.3-0.5,0.2c-6.4-7.8-11.4-16.1-15.2-25l0.1-0.2l18.8-17.7l32.1-30.2
			c2.9-2.6,5.8-5.5,8.8-8.1c0.8-0.3,1.6,0.1,2.4,0.1c6.1,0.8,12.8,0.5,18.8-0.4C3373.8,68.2,3373.4,69,3373.5,69.4"/>
		<path class="st8" d="M3353.2,80.3v0.2l-3.7,3.6l1.4,1.5c1.4-0.9,2.4-2.1,3.6-3.2c1.3,1.2,2.5,2.5,3.6,3.7v0.1
			c-1.3,1.1-2.3,2.3-3.5,3.4c1.6,1.8,3.2,3.5,4.9,5.3c-1.2,1.4-2.6,2.6-4,3.8c-4.5-4.9-9.2-9.4-13.7-14.5c0.7-0.8,1.7-1.5,2.5-2.4
			c1.8-1.9,3.6-3.3,5.3-5.1l0.4,0.2L3353.2,80.3"/>
		<path class="st8" d="M3367.9,84c0.8,1,0.7,2.5,0.1,3.5c-0.5,0.9-1.4,1.3-2.2,1.4c-1.2,0-2.1-0.5-2.7-1.5c-0.4-0.9-0.7-2.1-0.1-3.1
			c0.4-0.9,1.4-1.4,2.4-1.5C3366.3,82.6,3367.2,83.2,3367.9,84"/>
		<path class="st11" d="M3374.5,92c-0.3,2.1-0.4,4.3-0.7,6.4l0.1,0.1c-0.9,6.4-2.5,12.7-4.3,18.8c-1.5,4.2-3,8.1-4.9,12.2
			c-4.4,9.1-10.1,18.3-17.4,25.9c-5.1,5.3-10.4,10.3-16.5,14.5c-0.9,0.9-1.6-0.4-2.4-0.8c-7-4.8-13.3-10.6-19-17.1l4-3.9l11.3-10.7
			l5.8-5.4l22.4-21l5.4-5.1l14.6-13.8l1.6-1.5C3374.5,90.9,3374.4,91.5,3374.5,92"/>
		<path class="st8" d="M3342.8,110.5c-1.3,1.3-2.7,2.5-4.1,3.8c-0.2,0.1-0.3-0.3-0.4-0.4c-4.4-4.7-9-9.5-13.2-14.2
			c1.3-1.3,2.7-2.5,4.1-3.8l3.3,3.5L3342.8,110.5"/>
		<path class="st8" d="M3349.5,102.4c0.3,1.1,0.2,2.2-0.5,3c-0.6,1-1.8,1.2-2.9,1c-1.2-0.2-2.1-1.2-2.4-2.3c-0.2-1.2,0.3-2.4,1.2-3
			c0.8-0.7,2.1-0.9,3.1-0.4C3348.7,101.1,3349.2,101.7,3349.5,102.4"/>
		<path class="st8" d="M3321.9,119.5c1.6,2.6,2.1,6.4,0.7,9.3c-0.7,1.4-2,2.6-3.1,3.8l-4.1,3.8l-5.5-6l-8-8.6
			c3.4-2.7,6.1-7.1,10.9-7.4C3316.6,114.1,3319.8,116.3,3321.9,119.5"/>
		<path class="st8" d="M3332.8,117.4c0.5,0.9,0.5,2.1,0,3c-0.5,0.9-1.5,1.5-2.5,1.5c-1.2,0.1-2.2-0.6-2.8-1.5
			c-0.5-1-0.5-2.3,0.2-3.2c0.8-1,2.1-1.4,3.3-1.2C3331.7,116.2,3332.4,116.7,3332.8,117.4"/>
		<path class="st10" d="M3317.5,123c0.7,1.4,0.7,3.2-0.2,4.6c-0.4,0.4-0.6,1-1.3,1l-6.6-7.1c0.3-0.5,0.9-0.9,1.4-1.2
			c1.3-0.7,3-0.7,4.2,0.1C3316.1,121,3316.9,121.9,3317.5,123"/>
	</g>
</g>
<g>
	<defs>
		<rect id="SVGID_17_" x="2739" y="-234" width="1280" height="720"/>
	</defs>
	<clipPath id="SVGID_18_">
		<use xlink:href="#SVGID_17_"  style="overflow:visible;"/>
	</clipPath>
	<rect x="3355.5" y="158.3" class="st12" width="74.4" height="59.3"/>
</g>
<g>
	<defs>
		<rect id="SVGID_19_" x="3675" y="56" width="107" height="119"/>
	</defs>
	<clipPath id="SVGID_20_">
		<use xlink:href="#SVGID_19_"  style="overflow:visible;"/>
	</clipPath>
	<g class="st13">
		<defs>
			<rect id="SVGID_21_" x="3625" y="22" width="206" height="177"/>
		</defs>
		<clipPath id="SVGID_22_">
			<use xlink:href="#SVGID_21_"  style="overflow:visible;"/>
		</clipPath>
		<path class="st14" d="M3660.2,106.8l-3.3,3.4l-0.2,0l3.5,3.3v7c0,0-3.5,4.7-3.5,4.7l-8.8,0c-0.1-0.2-3.3-4.4-3.4-4.5l0-0.2v-7
			l3.3-3.4l0.2,0l-3.5-3.3v-7c0,0,4-4.7,4-4.7l8.3,0c0.1,0.2,3.3,4.4,3.4,4.5l0,0.2V106.8 M3658.2,93.2l-10.7,0c0,0-5.2,6-5.2,6.1
			v8.4l2.5,2.4l-2.5,2.4v8.6c0.1,0.1,4.3,5.7,4.4,5.9l11.3,0c0,0,4.7-6,4.7-6.1v-8.4l-2.5-2.4l2.5-2.4v-8.6
			C3662.5,99,3658.2,93.4,3658.2,93.2z"/>
		<path class="st14" d="M3635.2,124.9c-2.6,0-5.2,0-7.8,0c0-1,0-2,0-3c0.7,0,1.5,0,2.2,0c0-7.8,0-23.5,0-23.5h-2.2c0,0,0-2.2,0-3.2
			c1.9,0,3.8,0,5.7,0c0,8.9,0,17.8,0,26.6c0.7,0,1.4,0,2.1,0C3635.2,123,3635.2,124,3635.2,124.9 M3635.2,119.9c0-8.8,0-17.7,0-26.5
			c-3.3,0-10,0-10,0l0,6.9c0,0,1.5,0,2.2,0c0,6.5,0,13.1,0,19.6c-0.7,0-1.5,0-2.2,0c0,2.2,0,6.8,0,6.8h12.3c0,0,0-4.5,0-6.8
			C3636.8,119.9,3636,119.9,3635.2,119.9z"/>
		<path class="st14" d="M3828.4,124.9c-2.6,0-5.2,0-7.8,0c0-1,0-2,0-3c0.7,0,1.5,0,2.2,0c0-7.8,0-23.5,0-23.5h-2.2c0,0,0-2.2,0-3.2
			c1.9,0,3.8,0,5.7,0c0,8.9,0,17.8,0,26.6c0.7,0,1.4,0,2.1,0C3828.4,123.1,3828.4,124.1,3828.4,124.9 M3828.4,120
			c0-8.8,0-17.7,0-26.5c-3.3,0-10,0-10,0l0,6.9c0,0,1.5,0,2.2,0c0,6.5,0,13.1,0,19.6c-0.7,0-1.5,0-2.2,0c0,2.2,0,6.8,0,6.8h12.3
			c0,0,0-4.5,0-6.8C3829.9,120,3829.2,120,3828.4,120z"/>
		<path class="st14" d="M3654.4,105.9c-1.3,0-2.7,0-4,0c0-2,0-4,0-6c1.3,0,2.7,0,4,0C3654.4,101.9,3654.4,103.9,3654.4,105.9
			 M3655.3,98h-5.6l-1.7,1.6v6.8l1.7,1.6l5.3,0l1.7-1.6l0-6.3L3655.3,98z"/>
		<path class="st14" d="M3654.4,120.3c-1.3,0-2.7,0-4,0c0-2,0-4,0-6c1.3,0,2.7,0,4,0C3654.4,116.3,3654.4,118.3,3654.4,120.3
			 M3649.8,112.2l-1.7,1.6l0,6.3l1.5,2.1h5.6l1.7-1.6v-6.8l-1.7-1.6L3649.8,112.2z"/>
		<path class="st14" d="M3810.9,121.3l-3.5,3.6h-8.6l-3.4-3.5v-1.7c2,0,1.7,0,3.7,0c0,0.5,0,1.2,0,1.2l1.4,1.2h5.3l1.6-1.8
			c0,0,0-7.3,0-8.9h-8.7l-3.5-3.6v-7.6c0,0,4-5.1,4-5.1l8.3,0c0.1,0.2,3.3,4.8,3.4,4.9V121.3 M3808.9,93.3l-10.7,0
			c0,0-5.2,6.5-5.2,6.6v9.1l4.5,4.7h7.7c0,2.1,0,4.2,0,6.4c-1.3,0-2.6,0-3.9,0c0-0.7,0-1.5,0-2.2c-2.6,0-5.7,0-8.4,0v4.5l4.7,4.6
			h11.2l4.5-4.7V99.6C3813.2,99.5,3808.9,93.5,3808.9,93.3z"/>
		<path class="st14" d="M3805.1,107c-1.3,0-2.7,0-4,0c0-2.2,0-4.3,0-6.5c1.3,0,2.7,0,4,0C3805.1,102.7,3805.1,104.8,3805.1,107
			 M3806,98.4h-5.6l-1.7,1.7v7.4l1.7,1.7h7v-8.6L3806,98.4z"/>
		<path class="st14" d="M3644.6,83.5l8.4,3.2l-0.5,1.2l1,0.4l1.6-4.1c1.4-3.7-0.5-6.4-3.1-7.4c-3.4-1.3-6.1,0.5-7.1,3.1l-1.7,4.3
			l1,0.4L3644.6,83.5 M3645.2,82.1l0.4-1.1c1.1-3,3.5-3.7,5.8-2.8c2.3,0.9,3.7,3.2,2.6,5.9l-0.5,1.2L3645.2,82.1z"/>
		<path class="st14" d="M3647.7,73.3l2-3.9l0.9,0.5l-0.6,1.2l8,4.1c1.5,0.8,2.3,1.9,1.5,3.5l-0.3,0.7l-1.2-0.6l0.3-0.5
			c0.3-0.7,0.2-1.2-0.4-1.5l-8.4-4.3l-0.7,1.3L3647.7,73.3"/>
		<path class="st14" d="M3653.7,62.7l2.1-3.3l0.9,0.6l-0.6,1l5.1,3.3c2.3,1.5,2.7,3.6,1.4,5.5c-1.3,2-3.3,2.5-5.6,1l-5.1-3.3l-0.6,1
			l-0.9-0.6l2.1-3.3l0.9,0.6l-0.7,1.1l5.5,3.5c1.4,0.9,2.6,0.4,3.4-0.7c0.8-1.2,0.7-2.5-0.7-3.4l-5.5-3.5l-0.7,1.1L3653.7,62.7"/>
		<path class="st14" d="M3668.2,61.8l-0.8-0.7l-0.9,1l-3.2-2.7l1.2-1.4c0.6-0.8,1.4-1.4,2.3-0.7l3.1,2.6l1.8-2.1l-0.8-0.7l-0.8,1
			l-2.3-2c-0.7-0.6-1.6-0.6-2.2,0.1l0,0c0.4-1.2,0.3-2.2-0.7-3.1c-1.3-1.1-2.8-0.9-4.1,0.6l-3.5,4.1l0.8,0.7l0.8-1l6.9,5.8l-0.8,1
			l0.8,0.7L3668.2,61.8 M3659.7,56.3l1.1-1.2c0.8-0.9,1.8-1.9,3-0.9c1.2,1,0.7,2.2-0.1,3.3l-1.1,1.2L3659.7,56.3z"/>
		<path class="st14" d="M3674.1,45.7c-1.3-1-3.3-0.8-4.5,0.3c-1.4,1.3-2.1,4-0.2,6.1c2,2.2,4.7,1.8,6.1,0.5c1.4-1.2,1.6-3.2,0.9-4.5
			l-2.2,1.9l-0.8-0.9l4-3.6l0.8,0.9l-1,0.9l2.5,2.8l-0.9,0.8l-0.9-1c-0.2,1.6-0.6,2.6-1.7,3.6c-2.3,2.1-5.9,1.8-8.1-0.6
			c-2.1-2.4-2-6,0.4-8.1c0.9-0.8,2.2-1.3,3.5-1.3l-0.7-0.8l0.9-0.8l2.6,2.9L3674.1,45.7"/>
		<path class="st14" d="M3684,41.4l-2.6,1.7l-1.3-4.8l0,0L3684,41.4 M3677.9,39.3l1.1-0.7l2.3,9.2l-0.9,0.6l0.6,0.9l3.1-2l-0.6-0.9
			l-1.1,0.7l-0.7-2.8l3.2-2.1l2.2,1.8l-1.1,0.7l0.6,0.9l3.2-2.1l-0.6-0.9l-0.9,0.6l-7.4-5.9l1.1-0.7l-0.6-0.9l-4.2,2.8L3677.9,39.3z
			 M3679.1,36.4c0.7-0.5,0.9-1.4,0.5-2.2c-0.5-0.7-1.4-0.9-2.2-0.5c-0.7,0.5-0.9,1.5-0.4,2.2C3677.4,36.6,3678.4,36.9,3679.1,36.4z
			 M3677.5,35.5c-0.3-0.4-0.2-0.9,0.2-1.2c0.4-0.3,0.9-0.2,1.2,0.3c0.3,0.4,0.2,0.9-0.3,1.2C3678.3,36.1,3677.8,36,3677.5,35.5z"/>
		<path class="st14" d="M3693.9,41.5l-0.5-1l-1.2,0.6l-1.8-3.8l1.6-0.8c0.9-0.4,1.8-0.7,2.3,0.3l1.7,3.6l2.5-1.2l-0.5-1l-1.2,0.6
			l-1.3-2.8c-0.4-0.8-1.2-1.2-2-0.8l0,0c0.8-1,1.2-1.9,0.6-3.1c-0.7-1.5-2.2-2-4-1.2l-4.8,2.3l0.5,1l1.2-0.6l3.9,8.1l-1.2,0.6l0.5,1
			L3693.9,41.5 M3688.3,33.1l1.5-0.7c1.1-0.5,2.4-1,3.1,0.4c0.7,1.4-0.3,2.3-1.5,2.9l-1.5,0.7L3688.3,33.1z"/>
		<path class="st14" d="M3697.1,29.1l2.8,8.5l-1.3,0.4l0.3,1l4.1-1.3c3.7-1.2,4.6-4.5,3.8-7.1c-1.1-3.4-4.3-4.4-6.9-3.6l-4.4,1.4
			l0.3,1L3697.1,29.1 M3698.5,28.6l1.1-0.4c3-1,5.1,0.4,5.8,2.8c0.8,2.4-0.1,4.8-2.9,5.7l-1.3,0.4L3698.5,28.6z"/>
		<polyline class="st14" points="3709.2,35.8 3709,34.8 3710.3,34.5 3708.7,25.7 3707.4,25.9 3707.2,24.9 3715.6,23.3 3716.1,26.2 
			3714.8,26.5 3714.5,24.6 3710.1,25.4 3710.8,28.9 3714.4,28.2 3714.7,29.4 3711,30.1 3711.8,34.2 3716.2,33.4 3715.7,31.2 
			3717,30.9 3717.7,34.2 3709.2,35.8 		"/>
		<polyline class="st14" points="3718.8,24 3717.6,24.1 3717.5,23 3720.3,22.8 3725.5,30.6 3725.5,30.6 3725.1,23.6 3723.8,23.7 
			3723.8,22.6 3727.6,22.3 3727.7,23.4 3726.5,23.5 3727.1,33.5 3725.8,33.6 3720.3,25.3 3720.3,25.3 3720.7,32.9 3722.1,32.8 
			3722.2,33.8 3718.2,34.1 3718.1,33 3719.4,32.9 3718.8,24 		"/>
		<path class="st14" d="M3730.6,29.8c0.2,1.6,1.3,2.8,2.9,2.9c1.1,0.1,2.4-0.5,2.5-1.8c0.2-3.1-6.6-1.7-6.3-5.9
			c0.1-2,1.7-2.8,3.6-2.7c1.2,0.1,1.9,0.5,2.7,1.4l0.1-0.9l1.2,0.1l-0.2,3.3l-1.2-0.1c-0.1-1.3-1.2-2.3-2.5-2.4
			c-1.4-0.1-2.2,0.6-2.2,1.5c-0.2,2.7,6.6,1.4,6.3,5.8c-0.1,1.9-1.8,3.2-3.6,3.1c-1.4-0.1-2.2-0.4-3.3-1.4l-0.1,0.9l-1.2-0.1
			l0.2-3.8L3730.6,29.8"/>
		<polyline class="st14" points="3741.7,34.7 3741.9,33.7 3743.2,34 3745,25.2 3743.7,24.9 3743.9,23.9 3748,24.7 3747.7,25.7 
			3746.4,25.4 3744.6,34.2 3745.9,34.5 3745.7,35.6 3741.7,34.7 		"/>
		<polyline class="st14" points="3749.3,26 3749.6,25 3757.8,27.4 3756.9,30.3 3755.6,29.9 3756.2,28.1 3752,26.8 3751,30.2 
			3754.7,31.3 3754.3,32.5 3750.6,31.3 3749.4,35.4 3750.9,35.9 3750.6,36.9 3746.4,35.6 3746.7,34.6 3748,35 3750.6,26.4 
			3749.3,26 		"/>
		<polyline class="st14" points="3763,30.6 3763.4,29.7 3771.1,33.4 3769.8,36.1 3768.6,35.5 3769.4,33.8 3765.5,31.8 3763.9,35 
			3767.4,36.7 3766.9,37.8 3763.4,36.1 3761.5,39.9 3762.9,40.6 3762.5,41.5 3758.5,39.6 3759,38.7 3760.2,39.3 3764.1,31.2 
			3763,30.6 		"/>
		<path class="st14" d="M3777.9,37.4c-2.7-1.8-6.3-1.1-8.1,1.6c-1.8,2.7-1.1,6.2,1.6,8.1c2.7,1.8,6.3,1.1,8.1-1.6
			C3781.3,42.8,3780.7,39.2,3777.9,37.4 M3777.2,38.5c1.7,1.1,2.8,3.7,1.1,6.2c-1.6,2.4-4.4,2.4-6.1,1.3c-1.7-1.1-2.8-3.7-1.1-6.2
			C3772.7,37.4,3775.5,37.4,3777.2,38.5z"/>
		<polyline class="st14" points="3782.3,44.6 3784.3,42.3 3790.6,47.9 3788.5,50.2 3787.5,49.3 3788.9,47.8 3787.3,46.4 
			3781.3,53.1 3782.3,54 3781.6,54.8 3778.5,52 3779.2,51.2 3780.2,52.1 3786.2,45.4 3784.6,44 3783.3,45.5 3782.3,44.6 		"/>
		<path class="st14" d="M3783.6,56.6l2.7,3.1c1.5,1.7,3.2,2.5,5,1c1.6-1.4,1-2.9,0.7-3.6l0,0c0.8,0.6,1.9,0.7,3-0.2
			c1.4-1.2,1.3-2.7-0.3-4.5l-2.8-3.1l-0.8,0.7l0.9,1l-6.7,6l-0.9-1L3783.6,56.6 M3792.9,52l1,1.1c0.8,0.9,0.9,2-0.1,2.8
			c-0.7,0.6-1.9,0.4-2.6-0.3l-1-1.1L3792.9,52z M3789.4,55.1l0.8,0.9c1.2,1.4,1.4,2.5,0.2,3.5c-1.1,1-2.1,0.9-3.4-0.6l-0.8-0.9
			L3789.4,55.1z"/>
		<path class="st14" d="M3802.4,61.9c-1.8-2.7-5.4-3.4-8.1-1.6c-2.7,1.8-3.4,5.3-1.6,8.1c1.8,2.7,5.4,3.4,8.1,1.6
			C3803.5,68.2,3804.3,64.7,3802.4,61.9 M3801.3,62.7c1.1,1.7,1.2,4.5-1.3,6.1c-2.4,1.6-5,0.6-6.1-1.1c-1.1-1.7-1.2-4.5,1.3-6.1
			C3797.6,59.9,3800.2,61,3801.3,62.7z"/>
		<polyline class="st14" points="3805.5,69.3 3806.4,68.8 3808.3,72.6 3807.3,73.1 3806.7,71.8 3798.7,75.8 3800.2,78.9 
			3802.1,77.9 3802.7,79.1 3799.8,80.5 3796.5,73.7 3797.4,73.2 3798,74.5 3806.1,70.5 3805.5,69.3 		"/>
		<polyline class="st14" points="3809.5,77.7 3810.5,77.3 3812,81.3 3811,81.6 3810.5,80.3 3802,83.4 3803.2,86.6 3805.3,85.9 
			3805.8,87.1 3802.7,88.2 3800.1,81.1 3801.1,80.8 3801.5,82 3810,78.9 3809.5,77.7 		"/>
		<path class="st14" d="M3649,137.6c-1.4,0.8-2.1,2.2-1.6,3.8c0.4,1.1,1.3,2,2.5,1.6c2.9-1-0.9-6.6,3-7.9c1.9-0.6,3.2,0.5,3.8,2.3
			c0.4,1.1,0.3,1.9-0.2,3l0.9-0.3l0.4,1.1l-3,1l-0.4-1.1c1.1-0.6,1.7-1.9,1.3-3.2c-0.4-1.3-1.4-1.8-2.2-1.5c-2.5,0.8,1.2,6.5-3,7.9
			c-1.8,0.6-3.6-0.5-4.1-2.2c-0.4-1.3-0.4-2.2,0-3.5l-0.9,0.3l-0.4-1.1l3.5-1.2L3649,137.6"/>
		<polyline class="st14" points="3655.8,144.4 3658.5,143.1 3662.2,150.4 3659.5,151.8 3658.9,150.6 3660.7,149.8 3659.8,147.9 
			3651.9,151.9 3652.5,153.1 3651.5,153.5 3649.7,149.8 3650.6,149.4 3651.2,150.6 3659.1,146.6 3658.2,144.7 3656.4,145.6 
			3655.8,144.4 		"/>
		<path class="st14" d="M3666.4,156.2c-1.9-2.6-5.4-3.2-8-1.3c-2.6,1.9-3.2,5.4-1.2,8c1.9,2.6,5.4,3.2,8,1.3
			C3667.7,162.3,3668.3,158.8,3666.4,156.2 M3665.3,156.9c1.2,1.6,1.3,4.4-1,6.1c-2.3,1.7-4.9,0.7-6.1-0.9c-1.2-1.6-1.3-4.4,1-6.1
			C3661.6,154.3,3664.1,155.3,3665.3,156.9z"/>
		<path class="st14" d="M3674.5,170.6c0.8-1.4,0.3-3-0.8-4.1c-1.7-1.7-4.2-1.4-5.9,0.3c-1.7,1.7-2,4.3-0.3,6
			c1.3,1.3,2.7,1.6,4.3,0.8l1,0.9c-2,1.2-4.3,1-6.2-0.8c-2.3-2.3-2.1-5.7,0.1-7.9c2.2-2.2,5.5-2.5,7.8-0.3c0.9,0.8,1.5,2,1.6,3.2
			l0.6-0.7l0.8,0.8l-2.4,2.4L3674.5,170.6"/>
		<polyline class="st14" points="3682.5,172.7 3681.9,173.5 3680.8,172.7 3678.3,176.1 3678.3,176.1 3683.9,175 3683,174.3 
			3683.6,173.5 3686.8,175.8 3686.1,176.6 3685.3,176 3679.6,177.2 3679.6,177.2 3680.1,183.1 3681,183.8 3680.4,184.6 
			3677.2,182.3 3677.8,181.5 3678.7,182.1 3678.2,176.3 3678.2,176.3 3675.6,179.9 3676.7,180.7 3676.1,181.5 3672.8,179.1 
			3673.4,178.3 3674.4,179 3679.6,171.9 3678.6,171.1 3679.2,170.3 3682.5,172.7 		"/>
		<polyline class="st14" points="3682.5,186 3683,185 3684.1,185.6 3688.2,177.8 3687.1,177.2 3687.6,176.3 3691.2,178.2 
			3690.7,179.1 3689.5,178.5 3687.8,181.6 3692.1,183.9 3693.7,180.7 3692.5,180.1 3693,179.1 3696.6,181.1 3696.1,182 3695,181.4 
			3690.9,189.2 3692,189.8 3691.5,190.7 3687.9,188.8 3688.3,187.9 3689.6,188.5 3691.5,184.9 3687.2,182.7 3685.3,186.3 
			3686.6,186.9 3686.1,187.9 3682.5,186 		"/>
		<path class="st14" d="M3703.2,183.2c-3.1-1-6.2,0.6-7.3,3.6c-1,3,0.5,6.2,3.6,7.3c3.1,1,6.2-0.6,7.3-3.6
			C3707.8,187.5,3706.3,184.3,3703.2,183.2 M3702.8,184.4c1.9,0.7,3.6,2.8,2.6,5.6c-0.9,2.7-3.6,3.4-5.5,2.8
			c-1.9-0.6-3.6-2.8-2.6-5.6C3698.2,184.5,3700.9,183.8,3702.8,184.4z"/>
		<polyline class="st14" points="3709.7,186.5 3709.9,185.5 3714,186.3 3713.8,187.3 3712.4,187 3710.8,195.7 3714.1,196.4 
			3714.5,194.2 3715.8,194.5 3715.2,197.6 3707.8,196.2 3708,195.2 3709.3,195.5 3711,186.8 3709.7,186.5 		"/>
		<polyline class="st14" points="3720.8,197.2 3722.2,197.2 3722.2,198.3 3718.2,198.1 3718.2,197.1 3719.5,197.1 3719.7,188.3 
			3718.4,188.2 3718.5,187.2 3722,187.3 3724.6,194.9 3724.6,194.9 3727.6,187.5 3731,187.6 3730.9,188.6 3729.6,188.6 
			3729.4,197.4 3730.7,197.5 3730.7,198.5 3726.7,198.4 3726.7,197.3 3728,197.4 3728.3,189.1 3728.2,189.1 3724.8,197.4 
			3724.1,197.4 3721.1,188.9 3721.1,188.9 3720.8,197.2 		"/>
		<path class="st14" d="M3734.5,194.3c0.5,1.5,1.8,2.5,3.4,2.3c1.1-0.1,2.2-0.9,2.1-2.2c-0.4-3-6.7-0.4-7.2-4.5
			c-0.2-2,1.2-3.1,3-3.3c1.1-0.1,2,0.1,2.9,0.8l-0.1-0.9l1.2-0.1l0.4,3.2l-1.2,0.2c-0.4-1.2-1.6-2-2.8-1.9c-1.4,0.2-2,1-1.9,1.9
			c0.3,2.6,6.6,0.1,7.2,4.5c0.2,1.9-1.1,3.4-3,3.6c-1.4,0.2-2.2,0-3.4-0.7l0.1,0.9l-1.2,0.1l-0.5-3.7L3734.5,194.3"/>
		<path class="st14" d="M3749.5,191.5c0.7,1.4,2.2,2.2,3.7,1.7c1.1-0.3,2-1.3,1.6-2.5c-0.9-2.9-6.6,0.8-7.9-3.2
			c-0.6-1.9,0.6-3.2,2.3-3.8c1.1-0.3,1.9-0.2,3,0.3l-0.3-0.9l1.1-0.4l1,3.1l-1.2,0.4c-0.6-1.2-1.9-1.7-3.1-1.3
			c-1.3,0.4-1.8,1.3-1.5,2.2c0.8,2.5,6.6-1,7.9,3.1c0.6,1.8-0.5,3.5-2.3,4.1c-1.3,0.4-2.2,0.4-3.5-0.1l0.3,0.9l-1.1,0.4l-1.1-3.5
			L3749.5,191.5"/>
		<polyline class="st14" points="3756.5,184.9 3755.2,182.1 3762.8,178.7 3764,181.5 3762.8,182 3762,180.2 3760.1,181.1 
			3763.7,189.2 3764.9,188.6 3765.3,189.6 3761.5,191.2 3761.1,190.3 3762.4,189.7 3758.8,181.7 3756.8,182.5 3757.6,184.3 
			3756.5,184.9 		"/>
		<path class="st14" d="M3768.8,174.9c-2.7,1.7-3.5,5.2-1.9,7.9c1.7,2.7,5.1,3.5,7.9,1.8c2.7-1.7,3.5-5.2,1.9-7.9
			C3775,174,3771.6,173.2,3768.8,174.9 M3769.5,176c1.7-1.1,4.4-1,6,1.5c1.5,2.5,0.4,5-1.3,6c-1.7,1.1-4.4,1-6-1.5
			C3766.6,179.6,3767.8,177.1,3769.5,176z"/>
		<polyline class="st14" points="3775.5,172 3774.9,171.2 3778,168.5 3778.7,169.3 3777.6,170.2 3783.3,177 3785.9,174.9 
			3784.5,173.2 3785.5,172.4 3787.6,174.8 3781.8,179.6 3781.1,178.8 3782.2,178 3776.5,171.1 3775.5,172 		"/>
		<polyline class="st14" points="3783,168.3 3780.9,166.2 3786.6,160.3 3788.8,162.4 3787.9,163.3 3786.5,161.9 3785,163.4 
			3791.3,169.6 3792.3,168.6 3793,169.3 3790.1,172.3 3789.4,171.6 3790.3,170.6 3784,164.5 3782.5,166 3783.9,167.4 3783,168.3 		
			"/>
		<polyline class="st14" points="3796.3,165.8 3795.5,165.2 3796.2,164.2 3789,159 3788.3,160 3787.4,159.4 3789.8,156.1 
			3790.7,156.7 3789.9,157.8 3792.8,159.9 3795.6,156 3792.7,153.9 3791.9,155 3791,154.4 3793.4,151.1 3794.3,151.7 3793.5,152.7 
			3800.7,157.9 3801.4,156.9 3802.3,157.5 3799.9,160.8 3799,160.2 3799.8,159.1 3796.5,156.7 3793.7,160.6 3797,163 3797.8,161.9 
			3798.7,162.5 3796.3,165.8 		"/>
		<polyline class="st14" points="3803.7,155.1 3802.7,154.7 3803.3,153.5 3795.4,149.5 3794.8,150.7 3793.9,150.2 3797.7,142.6 
			3800.3,144 3799.7,145.1 3798.1,144.3 3796.1,148.2 3799.2,149.8 3800.8,146.5 3801.9,147 3800.2,150.3 3804,152.2 3805.9,148.3 
			3804,147.3 3804.6,146.1 3807.5,147.6 3803.7,155.1 		"/>
		<polyline class="st14" points="3801,142.5 3798.2,141.5 3800.7,133.7 3803.6,134.6 3803.2,135.8 3801.3,135.2 3800.6,137.2 
			3809.1,140 3809.5,138.7 3810.5,139 3809.2,142.9 3808.2,142.6 3808.6,141.3 3800.2,138.6 3799.6,140.6 3801.4,141.2 3801,142.5 
					"/>
		<path class="st14" d="M3735.5,60c11.5,5,26,6.3,38.9,3.5c0.2,0,0.2,0.3,0.3,0.5c6.5,34.8-3.7,69.4-27,94.6
			c-6,6.2-12.5,11.9-19.7,16.4l-0.4-0.1c-5.3-3.4-10.8-7.5-15.2-11.8c-15.6-14.3-26.9-33.2-31.4-53.2c-1.2-4.5-2-9-2.5-13.6
			c-0.5-4.1-0.7-8.4-0.8-12.5c0.1-1.9,0-3.7,0.2-5.5c-0.1-1.2,0.1-2.5,0.2-3.7c0.3-3.4,0.8-6.8,1.4-10.2c3.5,0.4,7.1,1.1,10.8,1.1
			c13.5,0.4,25.9-3,36.7-9.8C3729.8,57.2,3732.6,58.8,3735.5,60"/>
		<path class="st15" d="M3729.3,61.7c5.3,2.8,11.1,4.8,17.1,6l0.1,0.1c-2.2,2-4.5,4.1-6.5,6.1l-11,10.4
			c-13.3,12.4-26.4,25.2-39.8,37.3c-0.1,0.1-0.2,0.1-0.3,0.2c-6.7-16.3-8.8-34.8-6.2-52.7l0.2-0.1c15.5,2.3,31.2-1,44-8.5
			C3727.8,60.6,3728.5,61.3,3729.3,61.7"/>
		<path class="st16" d="M3771.5,69.4c0.9,5.8,1.2,11.6,1.1,17.4l-2,1.9l-8.2,7.7c-9,8.8-19,17.5-28,26.4c-1.1,1-2.2,2-3.2,3.1
			l-0.2,0.1c-8.2,7.8-16.8,15.9-25.1,23.7c-0.2,0-0.2,0.3-0.5,0.2c-6.4-7.8-11.4-16.1-15.2-25l0.1-0.2l18.8-17.7l32.1-30.2
			c2.9-2.6,5.8-5.5,8.8-8.1c0.8-0.3,1.6,0.1,2.4,0.1c6.1,0.8,12.8,0.5,18.8-0.4C3771.8,68.2,3771.4,69,3771.5,69.4"/>
		<path class="st14" d="M3751.2,80.3v0.2l-3.7,3.6l1.4,1.5c1.4-0.9,2.4-2.1,3.6-3.2c1.3,1.2,2.5,2.5,3.6,3.7v0.1
			c-1.3,1.1-2.3,2.3-3.5,3.4c1.6,1.8,3.2,3.5,4.9,5.3c-1.2,1.4-2.6,2.6-4,3.8c-4.5-4.9-9.2-9.4-13.7-14.5c0.7-0.8,1.7-1.5,2.5-2.4
			c1.8-1.9,3.6-3.3,5.3-5.1l0.4,0.2L3751.2,80.3"/>
		<path class="st14" d="M3765.9,84c0.8,1,0.7,2.5,0.1,3.5c-0.5,0.9-1.4,1.3-2.2,1.4c-1.2,0-2.1-0.5-2.7-1.5
			c-0.4-0.9-0.7-2.1-0.1-3.1c0.4-0.9,1.4-1.4,2.4-1.5C3764.3,82.6,3765.2,83.2,3765.9,84"/>
		<path class="st17" d="M3772.5,92c-0.3,2.1-0.4,4.3-0.7,6.4l0.1,0.1c-0.9,6.4-2.5,12.7-4.3,18.8c-1.5,4.2-3,8.1-4.9,12.2
			c-4.4,9.1-10.1,18.3-17.4,25.9c-5.1,5.3-10.4,10.3-16.5,14.5c-0.9,0.9-1.6-0.4-2.4-0.8c-7-4.8-13.3-10.6-19-17.1l4-3.9l11.3-10.7
			l5.8-5.4l22.4-21l5.4-5.1l14.6-13.8l1.6-1.5C3772.5,90.9,3772.4,91.5,3772.5,92"/>
		<path class="st14" d="M3740.8,110.5c-1.3,1.3-2.7,2.5-4.1,3.8c-0.2,0.1-0.3-0.3-0.4-0.4c-4.4-4.7-9-9.5-13.2-14.2
			c1.3-1.3,2.7-2.5,4.1-3.8l3.3,3.5L3740.8,110.5"/>
		<path class="st14" d="M3747.5,102.4c0.3,1.1,0.2,2.2-0.5,3c-0.6,1-1.8,1.2-2.9,1c-1.2-0.2-2.1-1.2-2.4-2.3c-0.2-1.2,0.3-2.4,1.2-3
			c0.8-0.7,2.1-0.9,3.1-0.4C3746.7,101.1,3747.2,101.7,3747.5,102.4"/>
		<path class="st14" d="M3719.9,119.5c1.6,2.6,2.1,6.4,0.7,9.3c-0.7,1.4-2,2.6-3.1,3.8l-4.1,3.8l-5.5-6l-8-8.6
			c3.4-2.7,6.1-7.1,10.9-7.4C3714.6,114.1,3717.8,116.3,3719.9,119.5"/>
		<path class="st14" d="M3730.8,117.4c0.5,0.9,0.5,2.1,0,3c-0.5,0.9-1.5,1.5-2.5,1.5c-1.2,0.1-2.2-0.6-2.8-1.5
			c-0.5-1-0.5-2.3,0.2-3.2c0.8-1,2.1-1.4,3.3-1.2C3729.7,116.2,3730.4,116.7,3730.8,117.4"/>
		<path class="st16" d="M3715.5,123c0.7,1.4,0.7,3.2-0.2,4.6c-0.4,0.4-0.6,1-1.3,1l-6.6-7.1c0.3-0.5,0.9-0.9,1.4-1.2
			c1.3-0.7,3-0.7,4.2,0.1C3714.1,121,3714.9,121.9,3715.5,123"/>
	</g>
</g>
<g>
	<defs>
		<rect id="SVGID_23_" x="2739" y="-234" width="1280" height="720"/>
	</defs>
	<clipPath id="SVGID_24_">
		<use xlink:href="#SVGID_23_"  style="overflow:visible;"/>
	</clipPath>
	<rect x="3758.2" y="158.3" class="st18" width="129.3" height="59.3"/>
	<rect x="3614.1" y="158.3" class="st18" width="74.4" height="59.3"/>
	<g class="st19">
		<text transform="matrix(1 0 0 1 3693 206)"><tspan x="0" y="0" style="font-family:'Graphik-Semibold'; font-size:22px; letter-spacing:-1;">H</tspan><tspan x="15.6" y="0" style="font-family:'Graphik-Semibold'; font-size:22px; letter-spacing:-1;">o</tspan><tspan x="28.1" y="0" style="font-family:'Graphik-Semibold'; font-size:22px; letter-spacing:-1;">c</tspan><tspan x="39.7" y="0" style="font-family:'Graphik-Semibold'; font-size:22px; letter-spacing:-1;">k</tspan><tspan x="50.3" y="0" style="font-family:'Graphik-Semibold'; font-size:22px; letter-spacing:-1;">e</tspan><tspan x="61.7" y="0" style="font-family:'Graphik-Semibold'; font-size:22px; letter-spacing:-1;">y</tspan><tspan x="73.1" y="0" style="font-family:'Graphik-Semibold'; font-size:22px;"> </tspan></text>
	</g>
	<rect x="3220.3" y="137.1" class="st18" width="74.4" height="59.3"/>
</g>
<path class="st20" d="M183.3,83.5l2.2-2.2l4.4-0.1l0.3,23.3l2.5,0l0,2.8l-8.8,0.1l0-2.8l2.5,0l-0.2-19.9l-2.8,0L183.3,83.5z
	 M184.1,78.6l-3.6,3.7l0.1,5.3l2.8,0l0.2,14.4l-2.5,0l0.1,8.3l14.3-0.2l-0.1-8.3l-2.2,0l-0.3-23.3L184.1,78.6z"/>
<path class="st20" d="M38,91.3l0-2.9l-2.8,0l0,2.9L38,91.3z M38.7,103.7l-0.1-5.2l-3.7,0l0.1,5.2L38.7,103.7z M40.9,92.4l-0.8,1
	l-6.7,0.1l-1.1-1l-0.1-5l1.5-1.5l5.7-0.1l1.5,1.4L40.9,92.4z M41.5,104.4l-1.9,2l-5.8,0.1l-1.8-1.8L32,97.2l1.1-1.1l7.3-0.1l1.1,1.1
	L41.5,104.4z M44.1,92.4l-0.1-6.2l-3-3.1l-8.9,0.1L29,86.4l0.1,6.2l2,2l-2.8,3l0.1,7.9l4.1,3.9l8.9-0.1l3.9-4L45.2,97l-2.8-2.7
	L44.1,92.4z M48,106.3l-5.4,5.6l-11.5,0.1l-5.6-5.5l-0.1-9.8l2.1-2.2l-1.2-1.3l-0.1-8.1l4.5-4.7l11.5-0.1l4.6,4.6l0.1,8.1l-1.2,1.3
	l2.2,2.2L48,106.3z"/>
<path class="st20" d="M11.3,85.6l2.2-2.2l4.4-0.1l0.3,23.3l2.5,0l0,2.8l-8.8,0.1l0-2.8l2.5,0l-0.2-19.9l-2.8,0L11.3,85.6z
	 M12.1,80.7l-3.6,3.7l0.1,5.3l2.8,0l0.2,14.4l-2.5,0l0.1,8.3l14.3-0.2l-0.1-8.3l-2.2,0l-0.3-23.3L12.1,80.7z"/>
<path class="st20" d="M168.3,90l0-3l-3.8,0l0,3L168.3,90z M171.1,92.5l-8.3,0.1l-1-1.1l-0.1-5.3l1.8-1.8l5.9-0.1l1.8,1.7L171.1,92.5
	z M171,81.4l-9.1,0.1l-3.9,4l0.1,6.7l2.9,2.9l10.3-0.1l0.1,7.9l-1.9,1.9l-5.7,0.1l-1.8-1.9l0-1.3l-3.7,0l0,1.9l4,4l8.8-0.1l4.1-4.1
	l-0.2-18.2L171,81.4z M177.8,104.7l-5.5,5.6l-11.4,0.1l-5.3-5.3l-0.1-5.7l9-0.1l0,2.8l3.8,0l-0.1-4.5l-8.9,0.1l-4.3-4.2l-0.1-8.9
	l5.5-5.7l11.6-0.1l5.5,5.5L177.8,104.7z"/>
<path class="st20" d="M24.4,63.1l-0.6,1.3l-1.7-0.8l2-4.4c1.4-3,2.8-3.6,3.4-3.9c0.5-0.3,3.1-1.4,6,0c2.3,1.1,3.2,3.4,3.4,3.9
	c0.4,1.8,0.7,3.1-0.6,5.9l-2,4.3l-1.7-0.8l0.6-1.3L24.4,63.1z M34.4,65.1l0.6-1.2c1.4-3.1-0.4-5.4-2.6-6.4c-2-0.9-4.9-1-6.5,2.4
	l-0.5,1.1L34.4,65.1z"/>
<path class="st20" d="M29.7,48.8l3-4.5l1.5,1l-0.8,1.2l8.6,5.7c2,1.4,2.4,2.6,1.2,4.4l-0.6,0.9l-2-1.3l0.4-0.5
	c0.3-0.5,0.4-0.9-0.4-1.5L32,48.5l-0.8,1.3L29.7,48.8z"/>
<path class="st20" d="M35,40.8l3.5-3.9l1.4,1.2l-1,1.1l4.5,4.1c1.2,1.1,2.5,2.6,4.3,0.6c1.7-1.9,0.1-3-1.1-4.1l-4.5-4.1l-1,1.1
	l-1.4-1.2l3.5-3.9l1.4,1.2l-0.9,1l5.3,4.8c2.6,2.4,1.8,5.1,0.4,6.7c-1.8,2-4.5,2.6-6.7,0.7l-5.5-5l-0.9,1L35,40.8z"/>
<path class="st20" d="M54.9,39.3l-1.1-1.5l1.2-0.9l-5.8-7.9l-1.2,0.9l-1.1-1.5l4.7-3.5c0.7-0.5,2.2-1.9,4.3-1.3c1,0.3,1.4,1,1.6,1.1
	c0.9,1.3,0.9,2.4,0.1,3.7l0,0c1.5-0.6,2.1,0.1,2.6,0.7l1.8,2.5l1.1-0.8l1.1,1.5l-3,2.2l-2.8-3.8c-0.8-1-1.9-0.3-2.7,0.3l-1.2,0.9
	l2.6,3.5l1.2-0.9l1.1,1.5L54.9,39.3z M53.2,30.6l1.3-0.9c1.1-0.8,2-1.8,0.9-3.3c-1-1.3-2.4-0.3-3.4,0.4l-1,0.8L53.2,30.6z"/>
<path class="st20" d="M77.7,25.9l-1.8,0.8l-0.6-1.3c-0.5,1.5-1.7,2.7-3,3.3c-3.8,1.7-7.5,0.2-9.2-3.6c-1.5-3.3-0.1-7.7,3.5-9.3
	c1.4-0.6,2.5-0.7,3.9-0.4L70,14.5l1.8-0.8l1.9,4.3L72,18.7c-0.5-0.8-1.2-1.2-2.1-1.3c-0.8-0.1-1.7,0-2.5,0.4
	c-2.4,1.1-3.3,3.8-2.2,6.2c1.2,2.6,3.6,3.7,6.3,2.5c1.6-0.8,2.6-2,2.5-3.9l-2.9,1.3l-0.8-1.8l6-2.7l0.8,1.8l-1.3,0.6L77.7,25.9z"/>
<path class="st20" d="M80.6,24.8L80.2,23l1.1-0.2l1.3-10.4l-1.4,0.3L80.8,11l6.8-1.4l0.4,1.8l-1.4,0.3l5.2,9l1-0.2l0.4,1.8l-4.9,1
	l-0.4-1.8l1.4-0.3l-1.4-2.4l-4,0.8l-0.4,2.8L85,22l0.4,1.8L80.6,24.8z M81.6,7.8c-0.2-1.1,0.5-2.1,1.5-2.4c1.1-0.2,2.1,0.5,2.4,1.5
	c0.2,1.1-0.5,2.2-1.5,2.4C82.9,9.6,81.8,8.9,81.6,7.8 M83.7,8.4c0.6-0.1,0.9-0.7,0.8-1.2c-0.1-0.6-0.7-0.9-1.2-0.8
	c-0.6,0.1-0.9,0.7-0.8,1.2C82.6,8.2,83.2,8.5,83.7,8.4 M87.1,17l-2.4-4.2l0,0L84,17.7L87.1,17z"/>
<path class="st20" d="M95,22.1l0-1.8l1.4,0l-0.1-9.9l-1.4,0l0-1.8l5.8,0c0.9,0,2.9-0.2,4.2,1.5c0.6,0.8,0.6,1.6,0.6,1.8
	c0,1.6-0.7,2.5-2.1,3.1v0c1.5,0.4,1.7,1.3,1.7,2.1l0,3.1l1.3,0l0,1.8l-3.7,0l0-4.8c0-1.3-1.4-1.4-2.4-1.4l-1.5,0l0,4.3l1.5,0l0,1.8
	L95,22.1z M98.8,14.1l1.6,0c1.3,0,2.7-0.2,2.7-2.1c0-1.7-1.7-1.7-3-1.6l-1.3,0L98.8,14.1z"/>
<path class="st20" d="M112.1,10.9l-1.4-0.3l0.3-1.8l4.7,0.9c3.2,0.6,4.1,1.9,4.6,2.4c0.4,0.4,2.1,2.7,1.5,5.8
	c-0.5,2.5-2.5,4-2.9,4.2c-1.6,0.8-2.9,1.4-5.8,0.8l-4.6-0.9l0.3-1.8l1.4,0.3L112.1,10.9z M112.6,21.1l1.3,0.3c3.3,0.6,5.1-1.6,5.5-4
	c0.4-2.1-0.3-5-3.9-5.7l-1.2-0.2L112.6,21.1z"/>
<polygon class="st20" points="122.7,25.2 123.3,23.4 124.7,24 128.3,14.8 127,14.3 127.7,12.6 137.3,16.5 136,19.8 134,19 
	134.7,17.4 130.6,15.7 129.3,18.9 132.8,20.3 132,22.3 128.5,20.9 126.9,24.9 131,26.5 131.8,24.5 133.8,25.3 132.3,29 "/>
<polygon class="st20" points="142.8,23.2 142.8,23.2 138.2,30.3 139.5,31.2 138.5,32.7 134.3,30 135.3,28.4 136.3,29.1 141.6,20.8 
	140.6,20.1 141.6,18.6 145.3,21 144.4,30.4 144.4,30.4 148,24.9 146.8,24.2 147.8,22.6 152,25.4 151,26.9 149.8,26.1 143.5,36 
	141.9,34.9 "/>
<path class="st20" d="M151.1,36.4c-1.1,1.4-1.1,3.2,0.3,4.5c0.8,0.8,2.1,0.8,2.8,0c1.3-1.3,0.2-2.3-0.9-4.3
	c-0.3-0.5-2.2-2.9,0.2-5.4c0.9-0.9,3.3-2,5.6,0.2c0.8,0.7,1.2,1.7,1.2,2.7l0.6-0.6l1.4,1.4l-2.8,2.9l-1.4-1.3
	c0.4-0.6,0.6-1.3,0.6-1.9c0-0.7-0.3-1.3-0.8-1.8c-0.8-0.8-1.8-0.8-2.6,0c-0.9,0.9,0.3,2.4,1.2,4c1,1.7,1.8,3.4-0.2,5.5
	c-1.7,1.8-4.2,1.8-6,0.1c-0.9-0.9-1.5-1.9-1.6-3.2l-0.6,0.6l-1.4-1.4l3.2-3.4L151.1,36.4z"/>
<polygon class="st20" points="158.8,51.8 160.3,50.8 161.1,52 169.3,46.5 168.5,45.4 170,44.3 172.9,48.7 171.4,49.7 170.6,48.6 
	162.5,54 163.2,55.2 161.7,56.2 "/>
<polygon class="st20" points="163,58.1 164.6,57.3 165.2,58.6 174.1,54.3 173.5,53 175.1,52.2 179.7,61.8 176.5,63.3 175.5,61.4 
	177.1,60.6 175.1,56.5 172.1,58 173.8,61.7 171.9,62.6 170.2,58.9 166.3,60.8 167,62.2 165.3,63 "/>
<path class="st20" d="M27,126.8c-1.3,0.7-1.9,1.9-1.4,3.3c0.3,0.8,1.2,1.3,2,1c1.4-0.5,1-1.6,0.8-3.4c0-0.5-0.6-2.9,2-3.8
	c0.9-0.3,3-0.2,3.9,2.1c0.3,0.8,0.2,1.6-0.1,2.4l0.6-0.2l0.5,1.5l-3,1.1l-0.5-1.4c0.5-0.3,0.9-0.7,1.1-1.2c0.2-0.5,0.2-1,0-1.6
	c-0.3-0.8-1-1.2-1.9-0.9c-1,0.4-0.6,1.8-0.5,3.3c0.1,1.5,0.1,3-2.1,3.8c-1.9,0.7-3.6-0.2-4.3-2c-0.3-0.9-0.4-1.9-0.1-2.8l-0.6,0.2
	l-0.5-1.5l3.4-1.3L27,126.8z"/>
<polygon class="st20" points="33.5,132.5 36.2,131.1 40,138.2 37.4,139.6 36.5,138.1 37.9,137.4 37.3,136.2 30.4,139.9 31,141.1 
	29.8,141.7 27.6,137.8 28.9,137.1 29.5,138.2 36.3,134.5 35.7,133.3 34.3,134 "/>
<path class="st20" d="M35.7,141.7c2.5-1.9,5.9-1.5,7.8,1.1c1.9,2.6,1.4,6-1.1,7.9c-2.5,1.9-6,1.3-7.8-1.1
	C32.3,146.4,33.7,143.2,35.7,141.7 M36.7,143.3c-1.6,1.2-1.9,3.4-0.7,5c1.3,1.8,3.6,2,5.4,0.7c1.6-1.2,2-3.5,0.8-5.2
	C40.8,142,38.5,142,36.7,143.3"/>
<path class="st20" d="M50.7,156c0.3-0.5,0.3-1.2,0.2-1.8c-0.1-0.6-0.5-1.2-0.9-1.6c-1.6-1.5-3.7-1.2-5.2,0.3
	c-1.4,1.5-1.7,3.6-0.1,5.2c1.2,1.1,2.3,1.1,3.6,0.6l1.3,1.2c-2.2,1.4-4.4,1-6.1-0.6c-2.2-2.1-2.3-5.5-0.1-7.9c2.6-2.7,5.9-2,7.7-0.3
	c0.2,0.2,1.3,1.4,1.4,2.6l0.5-0.5l1.1,1.1l-2.4,2.5L50.7,156z"/>
<polygon class="st20" points="55,166.6 54.9,161.5 54.9,161.5 52.6,164.8 53.5,165.5 52.7,166.7 49.3,164.3 50.1,163.1 51,163.7 
	55.5,157.3 54.6,156.7 55.4,155.6 58.8,157.9 57.9,159.1 57,158.4 55,161.3 59.5,160.2 58.6,159.6 59.5,158.4 62.8,160.7 
	61.9,161.9 61.3,161.5 56.8,162.7 56.8,162.7 56.8,167.9 57.5,168.3 56.7,169.5 53.3,167.2 54.1,166 "/>
<polygon class="st20" points="58.8,170.8 59.5,169.5 60.5,170.1 64,163.1 63,162.6 63.6,161.3 67.4,163.2 66.7,164.5 65.7,163.9 
	64.5,166.4 67.9,168.1 69.1,165.7 68.1,165.2 68.7,163.9 72.5,165.8 71.8,167.1 70.8,166.5 67.3,173.5 68.3,174 67.7,175.3 
	63.9,173.4 64.6,172.1 65.6,172.7 67.1,169.6 63.7,167.9 62.2,170.9 63.2,171.4 62.6,172.7 "/>
<path class="st20" d="M70.8,170.9c1-2.9,4-4.6,7.1-3.5c3.1,1,4.5,4.2,3.5,7.1c-1,3-4.2,4.5-7.1,3.5C70.6,176.7,70,173.4,70.8,170.9
	 M72.5,171.7c-0.6,1.9,0.4,3.9,2.3,4.6c2.1,0.7,4.1-0.4,4.8-2.5c0.7-2-0.3-4.1-2.3-4.7C75.1,168.3,73.2,169.6,72.5,171.7"/>
<polygon class="st20" points="81.4,179.9 81.6,178.4 82.8,178.7 84.3,171 83.1,170.8 83.4,169.3 87.8,170.2 87.5,171.6 86.2,171.4 
	84.7,179 87.2,179.5 87.5,177.9 89.2,178.2 88.6,181.3 "/>
<polygon class="st20" points="91.6,172.5 92.7,172.6 92.3,180.4 91.3,180.3 91.2,181.8 95.2,182 95.3,180.5 94.1,180.5 94.4,173.4 
	94.5,173.4 96.8,180.8 98,180.8 100.9,173.7 101,173.7 100.6,180.8 99.4,180.7 99.4,182.2 103.4,182.4 103.5,180.9 102.4,180.9 
	102.8,173.1 103.8,173.1 103.9,171.7 100,171.5 97.5,177.5 97.5,177.5 95.8,171.3 91.7,171.1 "/>
<path class="st20" d="M107.4,178.3c0.3,1.4,1.4,2.3,2.8,2.2c0.9-0.1,1.5-0.8,1.4-1.7c-0.1-1.4-1.3-1.3-3.1-1.7
	c-0.5-0.1-2.9-0.1-3.2-2.9c-0.1-1,0.5-3,3-3.3c0.8-0.1,1.6,0.2,2.3,0.7l-0.1-0.7l1.5-0.2l0.3,3.2l-1.5,0.1c-0.2-0.6-0.5-1-0.9-1.3
	c-0.4-0.3-0.9-0.5-1.5-0.4c-0.9,0.1-1.4,0.7-1.3,1.6c0.1,1,1.6,1.1,3,1.4c1.5,0.3,2.9,0.7,3.2,3c0.2,2-1.1,3.5-3,3.6
	c-1,0.1-1.9-0.1-2.7-0.6l0.1,0.7l-1.5,0.2l-0.4-3.6L107.4,178.3z"/>
<path class="st20" d="M122,175.9c0.6,1.3,1.7,2,3.1,1.6c0.8-0.2,1.4-1.1,1.1-2c-0.4-1.4-1.5-1.1-3.3-1.1c-0.5,0-2.9,0.4-3.6-2.3
	c-0.3-1,0-3.1,2.4-3.8c0.8-0.2,1.6-0.1,2.4,0.3l-0.2-0.6l1.5-0.4l0.9,3.1l-1.4,0.4c-0.3-0.5-0.6-0.9-1.1-1.1c-0.5-0.2-1-0.3-1.5-0.1
	c-0.8,0.2-1.3,0.9-1,1.8c0.3,1,1.7,0.8,3.2,0.8c1.5,0,3,0.1,3.7,2.4c0.6,1.9-0.5,3.6-2.3,4.1c-1,0.3-1.9,0.3-2.8-0.1l0.2,0.6
	l-1.5,0.4l-1-3.5L122,175.9z"/>
<polygon class="st20" points="128.3,169.8 127.1,167.1 134.5,163.9 135.6,166.7 134.1,167.3 133.5,165.9 132.2,166.4 135.3,173.6 
	136.5,173.1 137,174.5 132.9,176.2 132.3,174.9 133.5,174.4 130.5,167.2 129.2,167.7 129.8,169.2 "/>
<path class="st20" d="M137.8,168.3c-1.6-2.7-0.8-6,1.9-7.7c2.8-1.7,6.1-0.8,7.7,1.9c1.6,2.7,0.7,6.1-1.9,7.7
	C142.1,172.2,139.1,170.5,137.8,168.3 M139.6,167.5c1,1.7,3.2,2.3,4.9,1.2c1.9-1.1,2.4-3.4,1.3-5.3c-1.1-1.8-3.3-2.4-5-1.3
	C138.7,163.3,138.4,165.6,139.6,167.5"/>
<polygon class="st20" points="151.7,165.8 150.8,164.7 151.8,163.9 146.9,157.8 146,158.6 145,157.5 148.5,154.7 149.4,155.8 
	148.4,156.6 153.3,162.7 155.2,161.1 154.2,159.8 155.5,158.7 157.5,161.2 "/>
<polygon class="st20" points="153,154.8 150.9,152.7 156.5,147 158.7,149.1 157.5,150.3 156.4,149.2 155.4,150.2 161,155.7 
	161.9,154.8 162.9,155.8 159.7,159 158.7,158 159.6,157.1 154.1,151.6 153.1,152.5 154.2,153.6 "/>
<polygon class="st20" points="166.1,152.4 164.9,151.5 165.6,150.6 159.3,146 158.6,146.9 157.5,146 160,142.6 161.1,143.5 
	160.5,144.4 162.6,146 164.9,142.9 162.7,141.3 162,142.2 160.9,141.4 163.3,138 164.5,138.8 163.8,139.7 170.1,144.4 170.8,143.4 
	172,144.3 169.5,147.7 168.3,146.8 169,145.9 166.2,143.9 164,147 166.7,149 167.4,148.1 168.6,148.9 "/>
<polygon class="st20" points="173.4,141.9 172.1,141.2 172.6,140.2 165.7,136.6 165.2,137.6 163.9,137 167.6,129.6 170.1,130.9 
	169.4,132.5 168.1,131.8 166.6,134.9 169,136.1 170.3,133.5 171.8,134.3 170.4,136.9 173.5,138.5 175.1,135.4 173.5,134.6 
	174.3,133.1 177.1,134.5 "/>
<polygon class="st20" points="171,129.4 168.1,128.4 170.7,120.8 173.5,121.8 173,123.4 171.5,122.9 171.1,124.2 178.5,126.7 
	178.9,125.5 180.2,125.9 178.8,130.2 177.4,129.7 177.8,128.5 170.5,126 170.1,127.3 171.5,127.8 "/>
<g>
	<g id="Guld_sköld">
		<g>
			<path class="st20" d="M145.2,54.3l-0.4-1.8l-1.8,0.4c-22,4.7-40.5-6.4-40.7-6.5l-1-0.6l-1,0.6c-0.2,0.1-18.7,11.1-40.7,6.5
				L58,52.5l-0.4,1.8c-0.1,0.3-1.9,8.5-1.5,22c1.3,42.3,28.5,69.9,44.4,79.5l1,0.6l1-0.6c15.9-9.6,43.1-37.1,44.4-79.5
				C147.2,62.8,145.3,54.6,145.2,54.3z"/>
		</g>
	</g>
	<g id="DIF_färger">
		<path class="st21" d="M118.6,56.4c-8.6-1.8-14.8-4.9-17.1-6.2c-4.1,2.3-20.6,10.3-40.5,6.7c-0.5,3-1.4,9.8-1.1,19.3
			c0.3,11,2.5,21,5.7,29.8L118.6,56.4z"/>
		<path class="st22" d="M101.4,152c15.2-9.6,39.8-35.3,41.6-74.4l-60.9,57C88.8,142.6,95.8,148.4,101.4,152z"/>
		<g>
			<path class="st23" d="M82,106.5l-0.3,0.3l6.2,6.6l0.3-0.2c1.5-1.4,2.2-3.9,0-6.2C86.2,104.8,83.6,105,82,106.5z"/>
			<path class="st23" d="M142,56.9c-7.4,1.3-14.3,1-20.3,0.1l-55.2,51.7c3.7,9.3,8.7,17.4,14,24L143.1,74
				C143.2,65.7,142.4,59.7,142,56.9z M91.6,116l-4.4,4.1L74.9,107l4.4-4.1c3.7-3.4,9.2-3.2,12.6,0.5C95.4,107.1,95.3,112.6,91.6,116
				z M102.5,106.5c-1.1,1.1-2.9,1-4-0.1c-1.1-1.1-1-2.9,0.1-4c1.1-1.1,2.9-1,4,0.1C103.7,103.6,103.7,105.4,102.5,106.5z
				 M108.4,100.3L96,87.1l3.8-3.5l12.4,13.2L108.4,100.3z M118.6,91.4C118.6,91.4,118.6,91.4,118.6,91.4L118.6,91.4
				c-1.1,1.1-2.9,1-4-0.1c-1.1-1.1-1-2.9,0.1-4c0,0,0,0,0,0c0,0,0,0,0,0c1.1-1.1,2.9-1,4,0.1C119.8,88.5,119.8,90.3,118.6,91.4z
				 M124.4,85.3l-12.4-13.2l7.3-6.8l3.2,3.4l-3.5,3.3l1.5,1.5l3.4-3.2l3.2,3.4l-3.4,3.2l4.6,4.9L124.4,85.3z M134.7,76.3
				c-1.1,1.1-2.9,1-4-0.1c-1.1-1.1-1-2.9,0.1-4c1.1-1.1,2.9-1,4,0.1C135.9,73.4,135.9,75.2,134.7,76.3z"/>
		</g>
	</g>
</g>
</svg>
