<svg id="Layer_1" data-name="Layer 1" xmlns="http://www.w3.org/2000/svg" xmlns:xlink="http://www.w3.org/1999/xlink" viewBox="0 0 600 600"><defs><style>.cls-1{fill:none;}.cls-2{fill:#fff;}.cls-3{fill:#002554;}.cls-4{fill:#cfb571;}.cls-5{clip-path:url(#clip-path);}.cls-6{clip-path:url(#clip-path-2);}.cls-7{fill:#e21f26;}.cls-8{clip-path:url(#clip-path-3);}.cls-9{fill:#32baf2;}.cls-10{clip-path:url(#clip-path-4);}.cls-11{clip-path:url(#clip-path-5);}</style><clipPath id="clip-path"><rect class="cls-1" y="352.09" width="142.5" height="247.91"/></clipPath><clipPath id="clip-path-2"><rect class="cls-1" x="142.5" y="352.09" width="142.5" height="247.91" transform="translate(427.5 952.09) rotate(-180)"/></clipPath><clipPath id="clip-path-3"><rect class="cls-1" width="285" height="285"/></clipPath><clipPath id="clip-path-4"><rect class="cls-1" x="315" y="315" width="198.93" height="142.5"/></clipPath><clipPath id="clip-path-5"><rect class="cls-1" x="315" y="457.5" width="198.93" height="142.5"/></clipPath></defs><title>do&amp;apos;s_don&amp;apos;ts_graphicsystem</title><rect class="cls-2" width="600" height="600"/><rect class="cls-3" width="285" height="285"/><rect class="cls-3" y="315" width="285" height="285"/><rect class="cls-3" x="315" width="285" height="285" transform="translate(915 285) rotate(-180)"/><polygon class="cls-4" points="534.6 285 394.56 144.96 466.49 73.02 600 206.53 600 285 534.6 285"/><rect class="cls-1" x="58.06" y="-1.09" width="261.94" height="275.35"/><g class="cls-5"><polygon class="cls-4" points="0.23 574.61 176.37 398.46 142.79 364.88 0.23 507.44 0.23 574.61"/><polygon class="cls-4" points="107.95 600 242.93 465.02 209.34 431.43 40.77 600 107.95 600"/></g><g class="cls-6"><polygon class="cls-7" points="285.07 507.74 142.21 364.88 108.63 398.46 285.07 574.91 285.07 507.74"/><polygon class="cls-7" points="244.23 600 75.66 431.43 42.07 465.02 177.05 600 244.23 600"/></g><g class="cls-8"><rect class="cls-4" x="36.48" y="32.1" width="92.4" height="236.91" transform="translate(247.61 198.55) rotate(135)"/><rect class="cls-9" x="148.21" y="13.16" width="92.4" height="236.91" transform="translate(424.95 87.22) rotate(135)"/></g><rect class="cls-3" x="315" y="315" width="285" height="285"/><g class="cls-10"><polygon class="cls-9" points="340.45 315 314.85 315 314.85 390.95 431.87 507.97 482.65 457.19 340.45 315"/></g><g class="cls-11"><polygon class="cls-4" points="340.46 600 482.65 457.81 431.87 407.03 314.85 524.05 314.85 600 340.46 600"/></g></svg>