<svg xmlns="http://www.w3.org/2000/svg" viewBox="0 0 600 600"><defs><style>.cls-1{fill:#fff;}.cls-2{fill:#002554;}.cls-3{fill:#cfb571;}.cls-4{fill:none;stroke:#000;stroke-miterlimit:10;stroke-width:6px;}</style></defs><title>do&amp;apos;s_don&amp;apos;ts_graphicsystem</title><g id="Layer_1" data-name="Layer 1"><rect class="cls-1" width="600" height="600"/><rect class="cls-2" width="285" height="285"/><polygon class="cls-3" points="65.4 285 205.44 144.96 133.51 73.02 0 206.53 0 285 65.4 285"/><rect class="cls-2" x="315" width="285" height="285"/><polygon class="cls-3" points="380.4 285 520.44 144.96 448.51 73.02 315 206.53 315 285 380.4 285"/><rect class="cls-2" y="315" width="285" height="285"/><polygon class="cls-3" points="65.4 600 205.44 459.96 133.51 388.02 0 521.53 0 600 65.4 600"/><rect class="cls-2" x="315" y="315" width="285" height="285"/><polygon class="cls-3" points="380.4 600 520.44 459.96 448.51 388.02 315 521.53 315 600 380.4 600"/></g><g id="Don_t_stripe" data-name="Don&apos;t stripe"><line class="cls-4" y1="600" x2="600"/></g></svg>