<?xml version="1.0" encoding="utf-8"?>
<!-- Generator: Adobe Illustrator 21.1.0, SVG Export Plug-In . SVG Version: 6.00 Build 0)  -->
<svg version="1.1" id="Layer_1" xmlns="http://www.w3.org/2000/svg" xmlns:xlink="http://www.w3.org/1999/xlink" x="0px" y="0px"
	 viewBox="0 0 600 600" style="enable-background:new 0 0 600 600;" xml:space="preserve">
<style type="text/css">
	.st0{fill:#002554;}
	.st1{fill:#CFB571;}
	.st2{fill:#32BAF2;}
	.st3{fill:#FFFFFF;}
</style>
<title>expressive_use_02</title>
<rect y="0" class="st0" width="600" height="600"/>
<polygon class="st1" points="380.9,339 309.9,339.6 49.5,600 276.6,600 390.9,485.6 390.9,352.4 "/>
<polygon class="st2" points="383.7,132.1 384.2,87.9 312.6,88.4 0,401 0,600 49.5,600 405,244.5 310.2,229.9 "/>
<path class="st3" d="M368.6,96.4h-30.7l-17,17.4l-18.3-15.4l19.2-19.6c3.5-3.7,9.3-5.7,14.3-5.7h34.2c5.1,0,10.8,2,14.3,5.7
	l13.7,13.9c3.7,3.8,5.8,8.8,6,14.1v23.2c-0.2,5.3-2.3,10.3-6,14.1l-71.7,74.2v3.1h78.1v23.4H302.4v-24.5c0-7.9,2.4-13.7,6.4-17.6
	l71.3-73.9v-20.5L368.6,96.4z"/>
<path class="st3" d="M372.9,323.7c5.1,0,10.8,2,14.3,5.7l13.7,13.9c3.7,3.8,5.9,8.8,6,14.1v104.2c-0.1,5.3-2.3,10.3-6,14.1
	l-13.7,13.9c-3.5,3.8-9.3,5.7-14.3,5.7h-38.6c-5.1,0-10.8-2-14.4-5.7l-13.7-13.9c-3.7-3.8-5.8-8.8-6-14.1V357.5
	c0.2-5.3,2.3-10.3,6-14.1l13.7-13.9c3.5-3.8,9.3-5.7,14.4-5.7L372.9,323.7z M382.6,358.8l-11.5-11.7H336l-11.5,11.7v55.6l58-37.1
	L382.6,358.8z M336,472h35.1l11.5-11.7v-55.6l-58,37.1v18.5L336,472z"/>
</svg>
