<svg xmlns="http://www.w3.org/2000/svg" viewBox="0 0 1009.13 1009.13"><defs><style>.cls-1{font-size:89px;font-family:MaisonNeue-Demi, Maison Neue;}.cls-1,.cls-4{fill:#cfb571;}.cls-2{letter-spacing:-0.02em;}.cls-3{letter-spacing:-0.01em;}.cls-5{fill:#ffec0d;}.cls-6{fill:#0568af;}.cls-7{fill:#e21f26;}.cls-8,.cls-9{fill:none;stroke:#b4b4b4;stroke-miterlimit:10;}.cls-9{stroke-width:0.5px;}</style></defs><title>DIF_primary_skold_clearspace</title><g id="Guides"><text class="cls-1" transform="translate(453.33 276.64)">Dju<tspan class="cls-2" x="133.5" y="0">r</tspan><tspan x="163.94" y="0">gården</tspan><tspan class="cls-3" x="0" y="93.5">F</tspan><tspan x="49.13" y="93.5">otboll</tspan></text><g id="Guld_sköld" data-name="Guld sköld"><path class="cls-4" d="M408.61,133.07l-1.4-6-6,1.29C326.8,144.24,264.13,107,263.51,106.61l-3.27-2-3.25,2c-.62.37-63.2,37.81-137.62,22.11l-6-1.27-1.39,6c-.26,1.15-6.5,28.8-5.08,74.5,4.44,143.31,96.76,236.45,150.6,268.9l3.25,2,3.24-2c53.76-32.58,145.84-126,149.91-269.29C415.18,161.85,408.87,134.22,408.61,133.07Z"/></g><path class="cls-5" d="M318.34,140.15a220.77,220.77,0,0,1-58.07-21c-13.92,7.65-69.62,34.92-137.18,23-1.7,10.27-4.66,33.35-3.67,65.35a318.68,318.68,0,0,0,19.56,101Z"/><path class="cls-6" d="M260.72,464.11c51.33-32.57,134.66-119.67,140.4-252L195.29,405.35C217.78,432.22,241.5,452,260.72,464.11Z"/><path class="cls-7" d="M193.77,310.82l-1,.9L213.76,334l.86-.81c5.11-4.81,7.36-13.28.06-21C208,305,199.27,305.65,193.77,310.82Z"/><path class="cls-7" d="M397.51,141.86a203.45,203.45,0,0,1-68.58.26L142.36,317.26a328.9,328.9,0,0,0,47.43,81.34L401.46,199.9C401.75,171.74,399.11,151.32,397.51,141.86Zm-171,201.25-14.9,14-42-44.64,14.9-14c12.43-11.69,31-10.76,42.81,1.79S238.85,331.47,226.48,343.11Zm36.71-32.28a9.34,9.34,0,1,1,.42-13.2A9.34,9.34,0,0,1,263.19,310.82Zm19.32-20.44-41.92-44.67,12.85-12.06,41.92,44.67Zm34.57-30.13a9.34,9.34,0,1,1,.42-13.2A9.34,9.34,0,0,1,317.08,260.26Zm32.13-32.57-12.76,12-42-44.64,26.61-25,10.77,11.46-13.85,13,6.89,7.3L338.53,189l10.75,11.43-13.64,12.81Zm25.38-21.4a9.34,9.34,0,1,1,.42-13.2A9.34,9.34,0,0,1,374.59,206.29Z"/><line class="cls-8" x1="13.14" y1="104.63" x2="994.47" y2="104.63"/><line class="cls-8" x1="106.68" y1="572.35" x2="106.68" y2="11.09"/><line class="cls-8" x1="507.69" y1="572.35" x2="507.69" y2="11.09"/><line class="cls-9" x1="460.88" y1="572.35" x2="460.88" y2="11.09"/><line class="cls-8" x1="414.15" y1="572.35" x2="414.15" y2="11.09"/><line class="cls-8" x1="994.47" y1="198.18" x2="13.14" y2="198.18"/><line class="cls-9" x1="994.47" y1="229.36" x2="13.14" y2="229.36"/><line class="cls-9" x1="994.47" y1="260.54" x2="13.14" y2="260.54"/><line class="cls-8" x1="994.47" y1="291.72" x2="13.14" y2="291.72"/><line class="cls-9" x1="994.47" y1="322.9" x2="13.14" y2="322.9"/><line class="cls-9" x1="994.47" y1="354.08" x2="13.14" y2="354.08"/><line class="cls-8" x1="994.47" y1="385.26" x2="13.14" y2="385.26"/><line class="cls-8" x1="13.14" y1="478.81" x2="994.47" y2="478.81"/><line class="cls-8" x1="507.69" y1="11.09" x2="414.06" y2="104.63"/><line class="cls-8" x1="414.06" y1="11.09" x2="507.69" y2="104.63"/><line class="cls-8" x1="106.77" y1="11.09" x2="13.14" y2="104.63"/><line class="cls-8" x1="13.14" y1="11.09" x2="106.77" y2="104.63"/><line class="cls-8" x1="507.69" y1="478.81" x2="414.06" y2="572.35"/><line class="cls-8" x1="414.06" y1="478.81" x2="507.69" y2="572.35"/><line class="cls-8" x1="900.92" y1="572.35" x2="900.92" y2="11.09"/><line class="cls-8" x1="994.47" y1="11.09" x2="900.84" y2="104.63"/><line class="cls-8" x1="900.84" y1="11.09" x2="994.47" y2="104.63"/><line class="cls-8" x1="994.47" y1="478.81" x2="900.84" y2="572.35"/><line class="cls-8" x1="900.84" y1="478.81" x2="994.47" y2="572.35"/><line class="cls-8" x1="106.77" y1="478.81" x2="13.14" y2="572.35"/><line class="cls-8" x1="13.14" y1="478.81" x2="106.77" y2="572.35"/><rect class="cls-8" x="13.14" y="11.09" width="981.33" height="561.26"/></g></svg>