<svg xmlns="http://www.w3.org/2000/svg" viewBox="0 0 1009.13 1009.13"><defs><style>.cls-1{font-size:117.03px;font-family:MaisonNeue-Demi, Maison Neue;}.cls-1,.cls-4{fill:#cfb571;}.cls-2{letter-spacing:-0.02em;}.cls-3{letter-spacing:-0.01em;}.cls-5{fill:#ffec0d;}.cls-6{fill:#0568af;}.cls-7{fill:#e21f26;}.cls-8{fill:none;stroke:#b4b4b4;stroke-miterlimit:10;}</style></defs><title>DIF_primary_skold_clearspace</title><g id="Guides"><text class="cls-1" transform="translate(224.35 748.9)">Dju<tspan class="cls-2" x="175.54" y="0">r</tspan><tspan x="215.56" y="0">gården</tspan><tspan class="cls-3" x="110.76" y="122.94">F</tspan><tspan x="175.36" y="122.94">otboll</tspan></text><g id="Guld_sköld" data-name="Guld sköld"><path class="cls-4" d="M717.79,171.48l-1.84-7.88L708,165.29c-97.81,20.89-180.22-28.11-181-28.6l-4.3-2.6-4.27,2.61c-.82.49-83.1,49.71-181,29.07l-7.91-1.67L327.74,172c-.35,1.51-8.55,37.87-6.68,98,5.84,188.44,127.22,310.91,198,353.57l4.27,2.57,4.26-2.58c70.69-42.84,191.77-165.62,197.11-354.09C726.44,209.33,718.14,173,717.79,171.48Z"/></g><path class="cls-5" d="M599.1,180.79c-38.21-8.12-66-21.92-76.36-27.56-18.3,10.06-91.55,45.91-180.38,30.28-2.24,13.51-6.13,43.85-4.82,85.93a419,419,0,0,0,25.71,132.75Z"/><path class="cls-6" d="M523.33,606.76C590.82,563.93,700.4,449.4,707.94,275.43L437.3,529.5C466.87,564.83,498.06,590.81,523.33,606.76Z"/><path class="cls-7" d="M435.3,405.21,434,406.39l27.54,29.29,1.14-1.07c6.72-6.32,9.67-17.47.08-27.67C454,397.57,442.53,398.41,435.3,405.21Z"/><path class="cls-7" d="M703.2,183a267.52,267.52,0,0,1-90.18.35L367.7,413.67a432.48,432.48,0,0,0,62.37,107L708.38,259.36C708.77,222.33,705.29,195.47,703.2,183ZM478.31,447.66l-19.59,18.43-55.2-58.69L423.11,389c16.34-15.37,40.78-14.15,56.29,2.36S494.58,432.36,478.31,447.66Zm48.27-42.45a12.28,12.28,0,1,1,.55-17.36A12.28,12.28,0,0,1,526.58,405.21ZM552,378.33,496.87,319.6l16.9-15.86,55.12,58.73Zm45.45-39.62a12.28,12.28,0,1,1,.55-17.36A12.28,12.28,0,0,1,597.43,338.72Zm42.25-42.83-16.77,15.77L567.72,253l35-32.9,14.16,15.06-18.21,17.12,9.06,9.6L625.65,245l14.13,15-17.94,16.84Zm33.37-28.14a12.28,12.28,0,1,1,.55-17.36A12.28,12.28,0,0,1,673.06,267.76Z"/><line class="cls-8" x1="197.23" y1="134.09" x2="848.07" y2="134.09"/><line class="cls-8" x1="320.78" y1="995.09" x2="320.78" y2="11.09"/><line class="cls-8" x1="725.07" y1="995.09" x2="725.07" y2="11.09"/><line class="cls-8" x1="847.51" y1="257.09" x2="196.67" y2="257.09"/><line class="cls-8" x1="847.51" y1="380.09" x2="196.67" y2="380.09"/><line class="cls-8" x1="847.51" y1="626.09" x2="196.67" y2="626.09"/><line class="cls-8" x1="847.51" y1="667.09" x2="196.67" y2="667.09"/><line class="cls-8" x1="847.51" y1="708.09" x2="196.67" y2="708.09"/><line class="cls-8" x1="847.51" y1="749.09" x2="196.67" y2="749.09"/><line class="cls-8" x1="847.51" y1="790.09" x2="196.67" y2="790.09"/><line class="cls-8" x1="847.51" y1="831.09" x2="196.67" y2="831.09"/><line class="cls-8" x1="847.51" y1="872.09" x2="196.67" y2="872.09"/><line class="cls-8" x1="848.07" y1="503.09" x2="197.23" y2="503.09"/><line class="cls-8" x1="848.07" y1="11.09" x2="724.96" y2="134.09"/><line class="cls-8" x1="724.96" y1="11.09" x2="848.07" y2="134.09"/><line class="cls-8" x1="320.9" y1="11.09" x2="197.78" y2="134.09"/><line class="cls-8" x1="197.78" y1="11.09" x2="320.9" y2="134.09"/><line class="cls-8" x1="848.07" y1="872.09" x2="724.96" y2="995.09"/><line class="cls-8" x1="724.96" y1="872.09" x2="848.07" y2="995.09"/><line class="cls-8" x1="320.9" y1="872.09" x2="197.78" y2="995.09"/><line class="cls-8" x1="197.78" y1="872.09" x2="320.9" y2="995.09"/><rect class="cls-8" x="197.78" y="11.09" width="650.29" height="984"/></g></svg>