<?xml version="1.0" encoding="utf-8"?>
<!-- Generator: Adobe Illustrator 21.0.2, SVG Export Plug-In . SVG Version: 6.00 Build 0)  -->
<svg version="1.1" xmlns="http://www.w3.org/2000/svg" xmlns:xlink="http://www.w3.org/1999/xlink" x="0px" y="0px"
	 viewBox="0 0 522 775.2" style="enable-background:new 0 0 522 775.2;" xml:space="preserve">
<style type="text/css">
	.st0{fill:#CFB571;}
	.st1{fill:#FFEC0D;}
	.st2{fill:#0568AF;}
	.st3{fill:#E21F26;}
	.st4{fill:none;stroke:#B4B4B4;stroke-miterlimit:10;}
	.st5{fill:none;}
	.st6{font-family:'MaisonNeue-Demi';}
	.st7{font-size:89px;}
	.st8{fill:none;stroke:#B4B4B4;stroke-width:0.5;stroke-miterlimit:10;}
</style>
<g id="Sheild__x2B__type">
	<rect x="13.6" y="510.3" class="st5" width="494.1" height="158.6"/>
	<text transform="matrix(1 0 0 1 32.8679 575.287)"><tspan x="0" y="0" class="st0 st6 st7">Djurgården </tspan><tspan x="84.7" y="93.5" class="st0 st6 st7">Fotboll</tspan></text>
	<g>
		<g id="Guld_sköld_3_">
			<g>
				<path class="st0" d="M409,136.2l-1.4-6l-6,1.3c-74.4,15.9-137.1-21.4-137.7-21.8l-3.3-2l-3.2,2c-0.6,0.4-63.2,37.8-137.6,22.1
					l-6-1.3l-1.4,6c-0.3,1.2-6.5,28.8-5.1,74.5c4.4,143.3,96.8,236.5,150.6,268.9l3.2,2l3.2-2c53.8-32.6,145.8-126,149.9-269.3
					C415.6,164.9,409.3,137.3,409,136.2z"/>
			</g>
		</g>
		<g>
			<path class="st1" d="M318.8,143.2c-29.1-6.2-50.2-16.7-58.1-21c-13.9,7.7-69.6,34.9-137.2,23c-1.7,10.3-4.7,33.4-3.7,65.4
				c1.2,37.3,8.5,71,19.6,101L318.8,143.2z"/>
			<path class="st2" d="M261.1,467.2c51.3-32.6,134.7-119.7,140.4-252L195.7,408.4C218.2,435.3,241.9,455.1,261.1,467.2z"/>
			<g>
				<path class="st3" d="M194.2,313.9l-1,0.9l20.9,22.3l0.9-0.8c5.1-4.8,7.4-13.3,0.1-21C208.4,308.1,199.7,308.7,194.2,313.9z"/>
				<path class="st3" d="M397.9,144.9c-25,4.5-48.3,3.6-68.6,0.3L142.8,320.3c12.7,31.6,29.5,58.8,47.4,81.3L401.9,203
					C402.2,174.8,399.5,154.4,397.9,144.9z M226.9,346.2l-14.9,14l-42-44.6l14.9-14c12.4-11.7,31-10.8,42.8,1.8
					C239.5,315.9,239.3,334.6,226.9,346.2z M263.6,313.9c-3.8,3.5-9.7,3.3-13.2-0.4c-3.5-3.8-3.3-9.7,0.4-13.2
					c3.8-3.5,9.7-3.3,13.2,0.4C267.6,304.5,267.4,310.4,263.6,313.9z M282.9,293.5L241,248.8l12.9-12.1l41.9,44.7L282.9,293.5z
					 M317.5,263.3c-3.8,3.5-9.7,3.3-13.2-0.4c-3.5-3.8-3.3-9.7,0.4-13.2c3.8-3.5,9.7-3.3,13.2,0.4
					C321.4,253.9,321.3,259.8,317.5,263.3z M349.6,230.8l-12.8,12l-42-44.6l26.6-25l10.8,11.5l-13.9,13l6.9,7.3l13.6-12.8l10.7,11.4
					l-13.6,12.8L349.6,230.8z M375,209.4c-3.8,3.5-9.7,3.3-13.2-0.4c-3.5-3.8-3.3-9.7,0.4-13.2c3.8-3.5,9.7-3.3,13.2,0.4
					C379,199.9,378.8,205.8,375,209.4z"/>
			</g>
		</g>
	</g>
</g>
<g id="Guides">
	<line class="st4" x1="13.1" y1="107.7" x2="508.1" y2="107.7"/>
	<line class="st4" x1="107.1" y1="762.5" x2="107.1" y2="14.2"/>
	<line class="st4" x1="414.6" y1="762.5" x2="414.6" y2="14.2"/>
	<line class="st4" x1="507.7" y1="201.3" x2="12.7" y2="201.3"/>
	<line class="st4" x1="507.7" y1="294.8" x2="12.7" y2="294.8"/>
	<line class="st4" x1="507.7" y1="481.9" x2="12.7" y2="481.9"/>
	<line class="st8" x1="507.7" y1="513.1" x2="12.7" y2="513.1"/>
	<line class="st8" x1="507.7" y1="544.3" x2="12.7" y2="544.3"/>
	<line class="st4" x1="507.7" y1="575.4" x2="12.7" y2="575.4"/>
	<line class="st8" x1="507.7" y1="606.6" x2="12.7" y2="606.6"/>
	<line class="st8" x1="507.7" y1="637.8" x2="12.7" y2="637.8"/>
	<line class="st4" x1="507.7" y1="669" x2="12.7" y2="669"/>
	<line class="st4" x1="508.1" y1="388.3" x2="13.1" y2="388.3"/>
	<g>
		<line class="st4" x1="508.1" y1="14.2" x2="414.5" y2="107.7"/>
		<line class="st4" x1="414.5" y1="14.2" x2="508.1" y2="107.7"/>
	</g>
	<g>
		<line class="st4" x1="107.2" y1="14.2" x2="13.6" y2="107.7"/>
		<line class="st4" x1="13.6" y1="14.2" x2="107.2" y2="107.7"/>
	</g>
	<g>
		<line class="st4" x1="508.1" y1="669" x2="414.5" y2="762.5"/>
		<line class="st4" x1="414.5" y1="669" x2="508.1" y2="762.5"/>
	</g>
	<g>
		<line class="st4" x1="107.2" y1="669" x2="13.6" y2="762.5"/>
		<line class="st4" x1="13.6" y1="669" x2="107.2" y2="762.5"/>
	</g>
	<rect x="13.6" y="14.2" class="st4" width="494.6" height="748.3"/>
</g>
</svg>
