<?xml version="1.0" encoding="utf-8"?>
<!-- Generator: Adobe Illustrator 20.1.0, SVG Export Plug-In . SVG Version: 6.00 Build 0)  -->
<svg version="1.1" id="Layer_1" xmlns="http://www.w3.org/2000/svg" xmlns:xlink="http://www.w3.org/1999/xlink" x="0px" y="0px"
	 viewBox="0 0 600 600" style="enable-background:new 0 0 600 600;" xml:space="preserve">
<style type="text/css">
	.st0{fill:#FFFFFF;}
	.st1{fill:#CFB571;}
	.st2{fill:#FFEC0D;}
	.st3{fill:#0568AF;}
	.st4{fill:#E21F26;}
	.st5{fill:none;stroke:#32BAF2;stroke-miterlimit:10;}
	.st6{fill:#32BAF2;}
</style>
<rect class="st0" width="600" height="600"/>
<g>
	<g id="Guld_sköld_6_">
		<g>
			<path class="st1" d="M396.5,176.8l-0.9-3.9l-3.9,0.8c-48.4,10.3-89.2-13.9-89.6-14.2l-2.1-1.3l-2.1,1.3
				c-0.4,0.2-41.1,24.6-89.5,14.4l-3.9-0.8l-0.9,3.9c-0.2,0.7-4.2,18.7-3.3,48.5c2.9,93.2,63,153.8,98,175l2.1,1.3l2.1-1.3
				c35-21.2,94.9-82,97.5-175.2C400.7,195.6,396.6,177.6,396.5,176.8z"/>
		</g>
	</g>
	<g>
		<path class="st2" d="M337.7,181.4c-18.9-4-32.7-10.8-37.8-13.6c-9.1,5-45.3,22.7-89.3,15c-1.1,6.7-3,21.7-2.4,42.5
			c0.8,24.2,5.5,46.2,12.7,65.7L337.7,181.4z"/>
		<path class="st3" d="M300.2,392.2c33.4-21.2,87.6-77.9,91.4-164L257.7,354C272.3,371.5,287.7,384.3,300.2,392.2z"/>
		<g>
			<path class="st4" d="M256.7,292.5l-0.6,0.6l13.6,14.5l0.6-0.5c3.3-3.1,4.8-8.6,0-13.7C265.9,288.7,260.2,289.1,256.7,292.5z"/>
			<path class="st4" d="M389.2,182.6c-16.3,2.9-31.5,2.3-44.6,0.2l-121.4,114c8.3,20.5,19.2,38.2,30.9,52.9l137.7-129.3
				C392,202,390.3,188.7,389.2,182.6z M277.9,313.5l-9.7,9.1l-27.3-29l9.7-9.1c8.1-7.6,20.2-7,27.9,1.2
				C286.2,293.8,286,305.9,277.9,313.5z M301.8,292.5c-2.4,2.3-6.3,2.2-8.6-0.3c-2.3-2.4-2.2-6.3,0.3-8.6c2.4-2.3,6.3-2.2,8.6,0.3
				C304.4,286.4,304.3,290.2,301.8,292.5z M314.4,279.2l-27.3-29.1l8.4-7.8l27.3,29.1L314.4,279.2z M336.9,259.6
				c-2.4,2.3-6.3,2.2-8.6-0.3c-2.3-2.4-2.2-6.3,0.3-8.6c2.4-2.3,6.3-2.2,8.6,0.3C339.5,253.5,339.3,257.3,336.9,259.6z M357.8,238.4
				l-8.3,7.8l-27.3-29l17.3-16.3l7,7.5l-9,8.5l4.5,4.8l8.9-8.3l7,7.4L349,229L357.8,238.4z M374.3,224.5c-2.4,2.3-6.3,2.2-8.6-0.3
				c-2.3-2.4-2.2-6.3,0.3-8.6c2.4-2.3,6.3-2.2,8.6,0.3C376.9,218.3,376.8,222.2,374.3,224.5z"/>
		</g>
	</g>
</g>
<g>
	<g>
		<line class="st5" x1="200.5" y1="416.6" x2="399.5" y2="416.6"/>
		<g>
			<rect x="200" y="413.4" class="st6" width="1" height="6.5"/>
		</g>
		<g>
			<rect x="399" y="413.4" class="st6" width="1" height="6.5"/>
		</g>
	</g>
</g>
<g>
	<path d="M284.9,440.9V433l-2,1.2v-1.2l2.1-1.3h0.9v9.1H284.9z"/>
	<path d="M291.9,441.1c-1.1,0-1.9-0.4-2.5-1.3c-0.6-0.8-0.9-2-0.9-3.6c0-1.5,0.3-2.6,0.9-3.4c0.6-0.8,1.4-1.2,2.5-1.2
		s1.8,0.4,2.5,1.2c0.6,0.8,0.9,1.9,0.9,3.4c0,1.6-0.3,2.8-0.9,3.6C293.8,440.7,293,441.1,291.9,441.1z M290.2,439.1
		c0.4,0.7,1,1,1.7,1c0.7,0,1.3-0.3,1.7-1c0.4-0.7,0.6-1.6,0.6-2.9c0-1.2-0.2-2.1-0.6-2.7c-0.4-0.6-1-0.9-1.7-0.9s-1.3,0.3-1.7,0.9
		c-0.4,0.6-0.6,1.5-0.6,2.7C289.6,437.5,289.8,438.4,290.2,439.1z"/>
	<path d="M297,440.9V434h1v0.7h0c0.2-0.3,0.4-0.5,0.7-0.6c0.3-0.2,0.7-0.2,1-0.2c0.4,0,0.8,0.1,1.1,0.3c0.3,0.2,0.5,0.4,0.7,0.7h0
		c0.2-0.3,0.4-0.5,0.8-0.7c0.3-0.2,0.7-0.3,1.2-0.3c0.7,0,1.3,0.2,1.7,0.6c0.4,0.4,0.6,1,0.6,1.7v4.7h-1v-4.4c0-1.2-0.5-1.7-1.4-1.7
		c-0.5,0-0.8,0.1-1.1,0.4c-0.3,0.3-0.4,0.7-0.4,1.2v4.5h-1v-4.4c0-1.2-0.5-1.7-1.4-1.7c-0.5,0-0.9,0.2-1.1,0.5s-0.4,0.7-0.4,1.2v4.5
		H297z"/>
	<path d="M308,440.9V434h1v0.7h0c0.2-0.3,0.4-0.5,0.7-0.6c0.3-0.2,0.7-0.2,1-0.2c0.4,0,0.8,0.1,1.1,0.3c0.3,0.2,0.5,0.4,0.7,0.7h0
		c0.2-0.3,0.4-0.5,0.8-0.7c0.3-0.2,0.7-0.3,1.2-0.3c0.7,0,1.3,0.2,1.7,0.6s0.6,1,0.6,1.7v4.7h-1v-4.4c0-1.2-0.5-1.7-1.4-1.7
		c-0.5,0-0.8,0.1-1.1,0.4c-0.3,0.3-0.4,0.7-0.4,1.2v4.5h-1v-4.4c0-1.2-0.5-1.7-1.4-1.7c-0.5,0-0.9,0.2-1.1,0.5
		c-0.2,0.3-0.4,0.7-0.4,1.2v4.5H308z"/>
</g>
</svg>
