<svg id="Layer_1" data-name="Layer 1" xmlns="http://www.w3.org/2000/svg" viewBox="0 0 600 600"><defs><style>.cls-1{fill:#fff;}</style></defs><title>do&amp;apos;s_typografi_outline-02</title><rect class="cls-1" x="2.54" width="600" height="600"/><path d="M87.54,203H127a11.08,11.08,0,0,1,7.8,3.12l7.44,7.56a11.45,11.45,0,0,1,3.24,7.68v29.4a11.44,11.44,0,0,1-3.24,7.68L134.82,266a10.76,10.76,0,0,1-4.8,2.76l15.48,19.56v8H135.18l-21.24-27.24h-13.2v27.24H87.54ZM132.3,222.1l-6.24-6.36H100.74v40.68h25.32l6.24-6.36Z"/><path d="M182.58,296.38a11.08,11.08,0,0,1-7.8-3.12l-7.44-7.56A11.45,11.45,0,0,1,164.1,278V203h13.2V277.3l6.24,6.36H205l6.24-6.36V203h13.2v75a11.44,11.44,0,0,1-3.24,7.68l-7.44,7.56a11.07,11.07,0,0,1-7.8,3.12Z"/><path d="M300.9,235.42a11.44,11.44,0,0,1-3.24,7.68l-3.12,3.12,5.52,5.52a11.44,11.44,0,0,1,3.24,7.68V278a11.45,11.45,0,0,1-3.24,7.68l-7.44,7.56a11.08,11.08,0,0,1-7.8,3.12H245.34V203h37.08a11.08,11.08,0,0,1,7.8,3.12l7.44,7.56a11.45,11.45,0,0,1,3.24,7.68Zm-13.2-.72V222.1l-6.24-6.36H258.54v25.32h22.92Zm-29.16,19.08v29.88h25.32l6.24-6.36V260.14l-6.24-6.36Z"/><path d="M322.38,203h39.48a11.08,11.08,0,0,1,7.8,3.12l7.44,7.56a11.45,11.45,0,0,1,3.24,7.68v29.4a11.44,11.44,0,0,1-3.24,7.68L369.66,266a10.76,10.76,0,0,1-4.8,2.76l15.48,19.56v8H370l-21.24-27.24h-13.2v27.24h-13.2Zm44.76,19.08-6.24-6.36H335.58v40.68H360.9l6.24-6.36Z"/><path d="M397.26,203h32.88v12.24H420.3v68.88h9.84v12.24H397.26V284.14h9.84V215.26h-9.84Z"/><path d="M479.22,241.66l33.24,46.68v8H502.14L469.86,251l-7.32,7.32v38h-13.2V203h13.2V240.1L499.62,203h10.32v7.8Z"/><path d="M217.84,396.38v-28H228.6a8.43,8.43,0,0,1,5.94,2,6.75,6.75,0,0,1,2.22,5.2,5.58,5.58,0,0,1-3.48,5.6v.12a6.4,6.4,0,0,1,3.2,2.36,7.13,7.13,0,0,1,1.32,4.4,7.79,7.79,0,0,1-2.42,6.1q-2.42,2.18-7.46,2.18Zm3.32-16.16H228q5.48,0,5.48-4.4a3.9,3.9,0,0,0-1.46-3.26,6.45,6.45,0,0,0-4.06-1.14h-6.8Zm0,13.12h6.32a9.19,9.19,0,0,0,5.28-1.24,4.55,4.55,0,0,0,1.76-4,4.23,4.23,0,0,0-1.68-3.8,9.72,9.72,0,0,0-5.28-1.12h-6.4Z"/><path d="M244.6,396.38v-21.2h3.12v2.28h.08a4.46,4.46,0,0,1,1.88-2,5.19,5.19,0,0,1,2.52-.68,4.43,4.43,0,0,1,.94.1c.31.07.54.13.7.18l.2.12-.6,3.24a3.63,3.63,0,0,0-1.68-.32,3.34,3.34,0,0,0-3,1.34,7.78,7.78,0,0,0-.92,4.3v12.6Z"/><path d="M267.28,397a9,9,0,0,1-6.92-3q-2.72-3-2.72-8.24t2.8-8.2a9,9,0,0,1,6.84-3,8.77,8.77,0,0,1,6.74,3q2.74,3,2.74,8.2T274.08,394A8.77,8.77,0,0,1,267.28,397Zm0-3a5.53,5.53,0,0,0,4.46-2.18,11.26,11.26,0,0,0,0-12.12,5.51,5.51,0,0,0-4.48-2.18,5.74,5.74,0,0,0-4.6,2.14,11.24,11.24,0,0,0,0,12.2A5.74,5.74,0,0,0,267.28,394Zm-5.36-22.08V368.3h3.64v3.64Zm7.68,0V368.3h3.64v3.64Z"/><path d="M297.44,396.38v-2h-.08a7.72,7.72,0,0,1-2.46,1.82,8.92,8.92,0,0,1-10.44-2.22,12.44,12.44,0,0,1-2.5-8.16,12.09,12.09,0,0,1,2.62-8.14,8.3,8.3,0,0,1,6.58-3.06,7.34,7.34,0,0,1,5.88,2.64h.08v-10h3.28v29.2Zm-.32-7v-6.56a5.24,5.24,0,0,0-1.48-3.62,5.1,5.1,0,0,0-4-1.62,5.65,5.65,0,0,0-4.8,2.16,12.09,12.09,0,0,0,0,12.16,5.65,5.65,0,0,0,4.8,2.16,5.6,5.6,0,0,0,3.88-1.4A4.29,4.29,0,0,0,297.12,389.34Z"/><path d="M309.16,390.22V378.1h-3v-2.92h3V370h3.12v5.2h5.24v2.92h-5.2v11.72a4.91,4.91,0,0,0,.52,2.64,2.37,2.37,0,0,0,2.08.76h1.6v3.16h-1.76a5.47,5.47,0,0,1-4.34-1.54A6.87,6.87,0,0,1,309.16,390.22Z"/><path d="M337.88,389.86l2.64,1.72a10.52,10.52,0,0,1-3.42,3.86,9.35,9.35,0,0,1-5.46,1.54,9.1,9.1,0,0,1-7.08-3.06,11.69,11.69,0,0,1-2.76-8.14,11.86,11.86,0,0,1,2.7-8.14,8.88,8.88,0,0,1,7-3.06,8.73,8.73,0,0,1,6.88,3q2.64,3,2.64,8.2v1H325.08a8.29,8.29,0,0,0,1.7,5.16,5.71,5.71,0,0,0,4.78,2.12,7.14,7.14,0,0,0,2.24-.34,7.88,7.88,0,0,0,1.6-.68,4.77,4.77,0,0,0,1.18-1.12,12.18,12.18,0,0,0,.76-1Q337.48,390.62,337.88,389.86Zm-12.72-5.72h12.6a7.75,7.75,0,0,0-1.6-4.64,6.41,6.41,0,0,0-9.36.14A7.51,7.51,0,0,0,325.16,384.14Z"/><path d="M344.4,396.38l7.16-10.88-6.72-10.32h3.6l5.16,8.16h.08l5.16-8.16h3.56l-6.68,10.32,7.16,10.88h-3.64l-5.6-8.72h-.08L348,396.38Z"/><path d="M369.24,390.22V378.1h-3v-2.92h3V370h3.12v5.2h5.24v2.92h-5.2v11.72a4.91,4.91,0,0,0,.52,2.64,2.37,2.37,0,0,0,2.08.76h1.6v3.16h-1.76a5.47,5.47,0,0,1-4.34-1.54A6.87,6.87,0,0,1,369.24,390.22Z"/></svg>