<svg id="Layer_1" data-name="Layer 1" xmlns="http://www.w3.org/2000/svg" viewBox="0 0 600 600"><defs><style>.cls-1{fill:#fff;}</style></defs><title>do&amp;apos;s_don&amp;apos;ts_typografi_outline</title><rect class="cls-1" width="600" height="600"/><path d="M51.24,263.22H90.72a11.08,11.08,0,0,1,7.8,3.12L106,273.9a11.44,11.44,0,0,1,3.24,7.68V311a11.44,11.44,0,0,1-3.24,7.68l-7.44,7.56a11.08,11.08,0,0,1-7.8,3.12H64.44v27.24H51.24ZM96,282.3l-6.24-6.36H64.44v40.68H89.76L96,310.26Z"/><path d="M126.24,263.22h39.48a11.08,11.08,0,0,1,7.8,3.12L181,273.9a11.44,11.44,0,0,1,3.24,7.68V311a11.44,11.44,0,0,1-3.24,7.68l-7.44,7.56a10.75,10.75,0,0,1-4.8,2.76l15.48,19.56v8H173.88l-21.24-27.24h-13.2v27.24h-13.2ZM171,282.3l-6.24-6.36H139.44v40.68h25.32l6.24-6.36Z"/><path d="M202.8,263.22h53.4v12.72H216v27.24h30.84V315.9H216v28h40.2v12.72H202.8Z"/><path d="M275.88,263.22h13.68l20.16,51.6h1.92l20.16-51.6h13.68v93.36h-13.2v-52l.48-11L321.24,322.5c-1,2.76-2.4,5-6.24,5h-8.64c-3.84,0-5.28-2.28-6.24-5L288.6,293.58l.48,11v52h-13.2Z"/><path d="M364.68,263.22h32.88v12.24h-9.84v68.88h9.84v12.24H364.68V344.34h9.84V275.46h-9.84Z"/><path d="M428,329.94l-6.48,26.64H410.28v-9.36l19.2-79c.72-2.76,2.4-5,6.24-5H451c3.84,0,5.52,2.28,6.24,5l19.2,79v9.36H465.12l-6.48-26.64Zm-3.24-86.52h13.08V256.5H424.8Zm16.08,32.52-9.6,41.28H455.4l-9.6-41.28Zm8-32.52H462V256.5H448.92Z"/><path d="M490.8,263.22h39.48a11.08,11.08,0,0,1,7.8,3.12l7.44,7.56a11.45,11.45,0,0,1,3.24,7.68V311a11.44,11.44,0,0,1-3.24,7.68l-7.44,7.56a10.76,10.76,0,0,1-4.8,2.76l15.48,19.56v8H538.44L517.2,329.34H504v27.24H490.8Zm44.76,19.08-6.24-6.36H504v40.68h25.32l6.24-6.36Z"/></svg>