<svg id="Layer_1" data-name="Layer 1" xmlns="http://www.w3.org/2000/svg" viewBox="0 0 600 600"><defs><style>.cls-1{fill:#fff;}</style></defs><title>do&amp;apos;s_don&amp;apos;ts_typografi_outline</title><rect class="cls-1" width="600" height="600"/><path d="M73.08,137.57v-24.5H76v21.84H86.63v2.66Z"/><path d="M97.86,138.1a7.86,7.86,0,0,1-6.06-2.59,10.25,10.25,0,0,1-2.38-7.21,10.1,10.1,0,0,1,2.45-7.17,7.87,7.87,0,0,1,6-2.62,7.67,7.67,0,0,1,5.9,2.63,10.24,10.24,0,0,1,2.4,7.17,10.36,10.36,0,0,1-2.35,7.21A7.67,7.67,0,0,1,97.86,138.1Zm0-2.59a4.84,4.84,0,0,0,3.9-1.91,9.86,9.86,0,0,0,0-10.6,4.83,4.83,0,0,0-3.92-1.91,5,5,0,0,0-4,1.87,9.83,9.83,0,0,0,0,10.67A5,5,0,0,0,97.86,135.51Z"/><path d="M110.88,137.57V119h2.73v2h.07a3.89,3.89,0,0,1,1.65-1.71,4.54,4.54,0,0,1,2.21-.6,3.84,3.84,0,0,1,.82.09q.4.09.61.16l.18.11-.53,2.83a3.17,3.17,0,0,0-1.47-.28,2.92,2.92,0,0,0-2.59,1.17,6.79,6.79,0,0,0-.8,3.76v11Z"/><path d="M136,131.87l2.31,1.5a9.22,9.22,0,0,1-3,3.38,8.18,8.18,0,0,1-4.78,1.35,8,8,0,0,1-6.2-2.68,10.23,10.23,0,0,1-2.42-7.12,10.38,10.38,0,0,1,2.36-7.12,7.77,7.77,0,0,1,6.11-2.68,7.64,7.64,0,0,1,6,2.63,10.48,10.48,0,0,1,2.31,7.17v.84H124.81a7.26,7.26,0,0,0,1.49,4.51,5,5,0,0,0,4.18,1.85,6.27,6.27,0,0,0,2-.3,6.94,6.94,0,0,0,1.4-.59,4.16,4.16,0,0,0,1-1,10.71,10.71,0,0,0,.67-.89C135.62,132.6,135.78,132.31,136,131.87Zm-11.13-5h11a6.77,6.77,0,0,0-1.4-4.06,5.61,5.61,0,0,0-8.19.12A6.56,6.56,0,0,0,124.88,126.86Z"/><path d="M143.47,137.57V119h2.59v1.79h.07a4.88,4.88,0,0,1,2-1.66,6.09,6.09,0,0,1,2.76-.65,5.47,5.47,0,0,1,3,.79,5.61,5.61,0,0,1,1.91,1.94h.07a5.53,5.53,0,0,1,2-1.92,6.18,6.18,0,0,1,3.17-.81,6,6,0,0,1,6.4,6.44v12.63h-2.76V125.81q0-4.69-3.78-4.69a3.84,3.84,0,0,0-3,1.17,4.68,4.68,0,0,0-1.07,3.27v12h-2.76V125.81q0-4.69-3.78-4.69a3.6,3.6,0,0,0-3,1.24,5,5,0,0,0-1,3.2v12Z"/><path d="M182,115.28V112h3.29v3.25Zm.21,22.29V119H185v18.55Z"/><path d="M191.21,145.45V119h2.73v1.79H194a6.36,6.36,0,0,1,2.1-1.59,7,7,0,0,1,3.22-.72,7.32,7.32,0,0,1,5.78,2.68,10.53,10.53,0,0,1,2.31,7.12,10.73,10.73,0,0,1-2.24,7.14,7.28,7.28,0,0,1-5.84,2.66,6.81,6.81,0,0,1-3.15-.74,5.51,5.51,0,0,1-2-1.58h-.07v9.66Zm2.87-19.84v5.88a3.66,3.66,0,0,0,1.37,2.82,4.94,4.94,0,0,0,3.39,1.21,5.09,5.09,0,0,0,4.25-1.89,10.17,10.17,0,0,0,0-10.62,5.08,5.08,0,0,0-4.23-1.91,4.51,4.51,0,0,0-3.45,1.4A4.45,4.45,0,0,0,194.08,125.6Z"/><path d="M210.74,131.27l2.69-.53q.53,4.87,5.15,4.87a5.59,5.59,0,0,0,3.31-.8,2.52,2.52,0,0,0,1.1-2.14,2.37,2.37,0,0,0-1-2.1,17.08,17.08,0,0,0-4.32-1.61,13.09,13.09,0,0,1-4.83-2.13,4,4,0,0,1-1.4-3.22,4.66,4.66,0,0,1,1.71-3.59,6.87,6.87,0,0,1,4.73-1.52,7.42,7.42,0,0,1,4.83,1.45,7,7,0,0,1,2.38,3.87l-2.49.67a4.54,4.54,0,0,0-4.72-3.54,4.44,4.44,0,0,0-2.8.77,2.26,2.26,0,0,0-1,1.82,1.86,1.86,0,0,0,.95,1.71,23.18,23.18,0,0,0,4.34,1.54,12,12,0,0,1,5,2.33,4.85,4.85,0,0,1,1.38,3.55,5,5,0,0,1-1.77,3.82,9.37,9.37,0,0,1-10.92-.3A7.78,7.78,0,0,1,210.74,131.27Z"/><path d="M230.05,131.1V119h2.87v11.66a5.39,5.39,0,0,0,1,3.67,4.32,4.32,0,0,0,3.31,1.08,4,4,0,0,0,3.22-1.29,5.33,5.33,0,0,0,1.12-3.61V119h2.83v18.55h-2.8v-1.79h-.07a7.24,7.24,0,0,1-.53.63,6.37,6.37,0,0,1-1.63,1,6.08,6.08,0,0,1-2.78.65,6.47,6.47,0,0,1-4.81-1.75A7.17,7.17,0,0,1,230.05,131.1Z"/><path d="M250.35,137.57V119h2.59v1.79H253a4.88,4.88,0,0,1,2-1.66,6.09,6.09,0,0,1,2.76-.65,5.47,5.47,0,0,1,3,.79,5.61,5.61,0,0,1,1.91,1.94h.07a5.53,5.53,0,0,1,2-1.92,6.18,6.18,0,0,1,3.17-.81,6,6,0,0,1,6.4,6.44v12.63h-2.76V125.81q0-4.69-3.78-4.69a3.84,3.84,0,0,0-3,1.17,4.68,4.68,0,0,0-1.07,3.27v12H261V125.81q0-4.69-3.78-4.69a3.6,3.6,0,0,0-3,1.24,5,5,0,0,0-1,3.2v12Z"/><path d="M301.17,137.57v-1.79h-.07a6.73,6.73,0,0,1-2.15,1.59,7.8,7.8,0,0,1-9.13-1.94,10.89,10.89,0,0,1-2.19-7.14,10.57,10.57,0,0,1,2.29-7.12,7.26,7.26,0,0,1,5.76-2.68,6.42,6.42,0,0,1,5.15,2.31h.07V112h2.87v25.55Zm-.28-6.16v-5.74a4.58,4.58,0,0,0-1.29-3.17,4.46,4.46,0,0,0-3.46-1.42,5,5,0,0,0-4.2,1.89,10.58,10.58,0,0,0,0,10.64,5,5,0,0,0,4.2,1.89,4.89,4.89,0,0,0,3.4-1.22A3.75,3.75,0,0,0,300.89,131.41Z"/><path d="M316.92,138.1a7.86,7.86,0,0,1-6.05-2.59,10.25,10.25,0,0,1-2.38-7.21,10.1,10.1,0,0,1,2.45-7.17,7.87,7.87,0,0,1,6-2.62,7.67,7.67,0,0,1,5.9,2.63,10.24,10.24,0,0,1,2.4,7.17,10.35,10.35,0,0,1-2.35,7.21A7.67,7.67,0,0,1,316.92,138.1Zm0-2.59a4.84,4.84,0,0,0,3.9-1.91,9.86,9.86,0,0,0,0-10.6,4.83,4.83,0,0,0-3.92-1.91,5,5,0,0,0-4,1.87,9.83,9.83,0,0,0,0,10.67A5,5,0,0,0,316.92,135.51Z"/><path d="M329.94,137.57V112h2.91v25.55Z"/><path d="M346,138.1a7.86,7.86,0,0,1-6.05-2.59,10.25,10.25,0,0,1-2.38-7.21,10.1,10.1,0,0,1,2.45-7.17,7.87,7.87,0,0,1,6-2.62,7.67,7.67,0,0,1,5.9,2.63,10.24,10.24,0,0,1,2.4,7.17,10.35,10.35,0,0,1-2.35,7.21A7.67,7.67,0,0,1,346,138.1Zm0-2.59a4.84,4.84,0,0,0,3.9-1.91,9.86,9.86,0,0,0,0-10.6,4.83,4.83,0,0,0-3.92-1.91,5,5,0,0,0-4,1.87,9.83,9.83,0,0,0,0,10.67A5,5,0,0,0,346,135.51Z"/><path d="M359,137.57V119h2.73v2h.07a3.89,3.89,0,0,1,1.64-1.71,4.54,4.54,0,0,1,2.21-.6,3.84,3.84,0,0,1,.82.09q.4.09.61.16l.18.11-.53,2.83a3.17,3.17,0,0,0-1.47-.28,2.91,2.91,0,0,0-2.59,1.17,6.79,6.79,0,0,0-.81,3.76v11Z"/><path d="M378.66,131.27l2.69-.53q.53,4.87,5.15,4.87a5.6,5.6,0,0,0,3.31-.8,2.52,2.52,0,0,0,1.1-2.14,2.37,2.37,0,0,0-1-2.1,17.11,17.11,0,0,0-4.32-1.61,13.1,13.1,0,0,1-4.83-2.13,4,4,0,0,1-1.4-3.22A4.66,4.66,0,0,1,381,120a6.87,6.87,0,0,1,4.72-1.52A7.43,7.43,0,0,1,390.6,120a7,7,0,0,1,2.38,3.87l-2.48.67a4.54,4.54,0,0,0-4.73-3.54,4.45,4.45,0,0,0-2.8.77,2.27,2.27,0,0,0-1,1.82,1.86,1.86,0,0,0,.94,1.71,23.21,23.21,0,0,0,4.34,1.54,12,12,0,0,1,5,2.33,4.85,4.85,0,0,1,1.38,3.55,5,5,0,0,1-1.77,3.82,9.37,9.37,0,0,1-10.92-.3A7.78,7.78,0,0,1,378.66,131.27Z"/><path d="M398.16,115.28V112h3.29v3.25Zm.21,22.29V119h2.87v18.55Z"/><path d="M408.06,132.19V121.58h-2.59V119h2.66v-4.55h2.73V119h4.58v2.55H410.9v10.25a4.3,4.3,0,0,0,.46,2.31,2.08,2.08,0,0,0,1.82.67h1.4v2.76H413a4.79,4.79,0,0,1-3.8-1.35A6,6,0,0,1,408.06,132.19Z"/><path d="M439.53,137.57v-2h-.07a5.09,5.09,0,0,1-2,1.73,7.45,7.45,0,0,1-3.68.82,6.56,6.56,0,0,1-4.67-1.51,5,5,0,0,1-1.59-3.78,4.69,4.69,0,0,1,1.42-3.62,11.38,11.38,0,0,1,4.81-2.19l1.87-.49q.61-.18,1.42-.47a4.32,4.32,0,0,0,1.16-.58,2.76,2.76,0,0,0,.61-.7,1.74,1.74,0,0,0,.26-.95,2.46,2.46,0,0,0-1-2,4.55,4.55,0,0,0-2.92-.79,4.2,4.2,0,0,0-4.51,3.67l-2.59-.74a6.58,6.58,0,0,1,2.28-4,7.12,7.12,0,0,1,4.72-1.52,7.61,7.61,0,0,1,5.09,1.59q1.87,1.59,1.87,5v12.5Zm-5.11-8.37a8.56,8.56,0,0,0-3.24,1.44,2.56,2.56,0,0,0-.86,2q0,2.9,3.67,2.9a5.91,5.91,0,0,0,3.89-1.14,3.49,3.49,0,0,0,1.36-2.78V127h-.07Q438.69,128,434.42,129.21Z"/><path d="M447.65,137.57V119h2.59v1.79h.07a4.89,4.89,0,0,1,2-1.66,6.1,6.1,0,0,1,2.77-.65,5.47,5.47,0,0,1,3,.79,5.61,5.61,0,0,1,1.91,1.94H460a5.54,5.54,0,0,1,2-1.92,6.17,6.17,0,0,1,3.17-.81,6,6,0,0,1,6.41,6.44v12.63h-2.77V125.81q0-4.69-3.78-4.69a3.84,3.84,0,0,0-3,1.17,4.68,4.68,0,0,0-1.07,3.27v12h-2.76V125.81q0-4.69-3.78-4.69a3.6,3.6,0,0,0-3,1.24,5,5,0,0,0-1,3.2v12Z"/><path d="M490.24,131.87l2.31,1.5a9.23,9.23,0,0,1-3,3.38,8.18,8.18,0,0,1-4.78,1.35,8,8,0,0,1-6.2-2.68,10.23,10.23,0,0,1-2.42-7.12,10.37,10.37,0,0,1,2.36-7.12,7.77,7.77,0,0,1,6.11-2.68,7.64,7.64,0,0,1,6,2.63A10.48,10.48,0,0,1,493,128.3v.84H479a7.25,7.25,0,0,0,1.49,4.51,5,5,0,0,0,4.18,1.85,6.28,6.28,0,0,0,2-.3,7,7,0,0,0,1.4-.59,4.17,4.17,0,0,0,1-1,10.71,10.71,0,0,0,.67-.89Q489.89,132.54,490.24,131.87Zm-11.13-5h11a6.78,6.78,0,0,0-1.4-4.06,5.61,5.61,0,0,0-8.19.12A6.56,6.56,0,0,0,479.11,126.86Z"/><path d="M498.36,132.19V121.58h-2.59V119h2.66v-4.55h2.73V119h4.58v2.55h-4.55v10.25a4.3,4.3,0,0,0,.46,2.31,2.08,2.08,0,0,0,1.82.67h1.4v2.76h-1.54a4.79,4.79,0,0,1-3.8-1.35A6,6,0,0,1,498.36,132.19Z"/><path d="M510.65,141.28v-1.58a1.92,1.92,0,0,0,1.68-2.13h-1.68v-4.13h4.13V137Q514.77,141,510.65,141.28Z"/><path d="M84.91,168.47l2.77.56a8.29,8.29,0,0,1-2.55,5.14,7.38,7.38,0,0,1-5.18,1.93,7.81,7.81,0,0,1-6.09-2.61,10.36,10.36,0,0,1-2.35-7.19,10.2,10.2,0,0,1,2.42-7.16,7.82,7.82,0,0,1,6-2.64A7.25,7.25,0,0,1,85,158.39a8,8,0,0,1,2.54,4.9l-2.69.56a7.22,7.22,0,0,0-1.61-3.41,4.16,4.16,0,0,0-3.29-1.35A5,5,0,0,0,75.88,161a8.22,8.22,0,0,0-1.54,5.3,8.37,8.37,0,0,0,1.5,5.29A5,5,0,0,0,80,173.51,4.24,4.24,0,0,0,83.34,172,6.64,6.64,0,0,0,84.91,168.47Z"/><path d="M99.44,176.1a7.86,7.86,0,0,1-6.05-2.59A10.25,10.25,0,0,1,91,166.3a10.1,10.1,0,0,1,2.45-7.17,7.87,7.87,0,0,1,6-2.62,7.68,7.68,0,0,1,5.9,2.63,10.24,10.24,0,0,1,2.4,7.17,10.35,10.35,0,0,1-2.35,7.21A7.67,7.67,0,0,1,99.44,176.1Zm0-2.59a4.84,4.84,0,0,0,3.9-1.91,9.85,9.85,0,0,0,0-10.6,4.83,4.83,0,0,0-3.92-1.91,5,5,0,0,0-4,1.87,9.84,9.84,0,0,0,0,10.67A5,5,0,0,0,99.44,173.51Z"/><path d="M112.46,175.57V157h2.8v1.79h.07a5.56,5.56,0,0,1,2.2-1.66,7.24,7.24,0,0,1,3-.65,6.52,6.52,0,0,1,4.85,1.86,6.85,6.85,0,0,1,1.84,5v12.18h-2.83V164.31q0-5.18-4.27-5.18a4.9,4.9,0,0,0-3.48,1.23,4.42,4.42,0,0,0-1.31,3.39v11.83Z"/><path d="M131.6,169.27l2.7-.53q.52,4.87,5.14,4.87a5.6,5.6,0,0,0,3.31-.8,2.52,2.52,0,0,0,1.1-2.14,2.37,2.37,0,0,0-1-2.1A17.07,17.07,0,0,0,138.5,167a13.1,13.1,0,0,1-4.83-2.13,4,4,0,0,1-1.4-3.22A4.66,4.66,0,0,1,134,158a6.87,6.87,0,0,1,4.73-1.52,7.43,7.43,0,0,1,4.83,1.45,7,7,0,0,1,2.38,3.87l-2.48.67a4.54,4.54,0,0,0-4.72-3.54,4.45,4.45,0,0,0-2.8.77,2.27,2.27,0,0,0-1,1.82,1.86,1.86,0,0,0,.95,1.71,23.21,23.21,0,0,0,4.34,1.54,12,12,0,0,1,5,2.33,4.84,4.84,0,0,1,1.38,3.55,5,5,0,0,1-1.77,3.82,9.37,9.37,0,0,1-10.92-.3A7.78,7.78,0,0,1,131.6,169.27Z"/><path d="M163.94,169.87l2.31,1.5a9.23,9.23,0,0,1-3,3.38,8.19,8.19,0,0,1-4.78,1.35,8,8,0,0,1-6.19-2.68,10.23,10.23,0,0,1-2.42-7.12,10.37,10.37,0,0,1,2.36-7.12,7.77,7.77,0,0,1,6.11-2.68,7.64,7.64,0,0,1,6,2.63,10.49,10.49,0,0,1,2.31,7.17v.84H152.74a7.25,7.25,0,0,0,1.49,4.51,5,5,0,0,0,4.18,1.85,6.28,6.28,0,0,0,2-.3,7,7,0,0,0,1.4-.59,4.17,4.17,0,0,0,1-1,10.71,10.71,0,0,0,.67-.89C163.55,170.6,163.71,170.31,163.94,169.87Zm-11.13-5h11a6.77,6.77,0,0,0-1.4-4.06,5.61,5.61,0,0,0-8.19.12A6.56,6.56,0,0,0,152.81,164.86Z"/><path d="M183.57,168.47l2.76.56a8.29,8.29,0,0,1-2.55,5.14,7.38,7.38,0,0,1-5.18,1.93,7.81,7.81,0,0,1-6.09-2.61,10.36,10.36,0,0,1-2.35-7.19,10.2,10.2,0,0,1,2.42-7.16,7.82,7.82,0,0,1,6-2.64,7.26,7.26,0,0,1,5.06,1.89,8,8,0,0,1,2.54,4.9l-2.69.56a7.22,7.22,0,0,0-1.61-3.41,4.16,4.16,0,0,0-3.29-1.35,5,5,0,0,0-4.06,1.91,8.22,8.22,0,0,0-1.54,5.3,8.38,8.38,0,0,0,1.5,5.29,5,5,0,0,0,4.13,1.92A4.24,4.24,0,0,0,182,172,6.64,6.64,0,0,0,183.57,168.47Z"/><path d="M191.55,170.19V159.58H189V157h2.66v-4.55h2.73V157h4.58v2.55h-4.55v10.25a4.28,4.28,0,0,0,.46,2.31,2.07,2.07,0,0,0,1.82.67h1.4v2.76h-1.54a4.79,4.79,0,0,1-3.8-1.35A6,6,0,0,1,191.55,170.19Z"/><path d="M215.63,169.87l2.31,1.5a9.23,9.23,0,0,1-3,3.38,8.19,8.19,0,0,1-4.78,1.35,8,8,0,0,1-6.19-2.68,10.23,10.23,0,0,1-2.42-7.12,10.37,10.37,0,0,1,2.36-7.12A7.77,7.77,0,0,1,210,156.5a7.64,7.64,0,0,1,6,2.63,10.48,10.48,0,0,1,2.31,7.17v.84H204.44a7.26,7.26,0,0,0,1.49,4.51,5,5,0,0,0,4.18,1.85,6.27,6.27,0,0,0,2-.3,7,7,0,0,0,1.4-.59,4.19,4.19,0,0,0,1-1,10.61,10.61,0,0,0,.66-.89Q215.28,170.54,215.63,169.87Zm-11.13-5h11a6.77,6.77,0,0,0-1.4-4.06,5.61,5.61,0,0,0-8.19.12A6.56,6.56,0,0,0,204.5,164.86Z"/><path d="M223.75,170.19V159.58h-2.59V157h2.66v-4.55h2.73V157h4.58v2.55h-4.55v10.25a4.28,4.28,0,0,0,.46,2.31,2.07,2.07,0,0,0,1.82.67h1.4v2.76h-1.54a4.79,4.79,0,0,1-3.8-1.35A6,6,0,0,1,223.75,170.19Z"/><path d="M235.51,169.1V157h2.87v11.66a5.4,5.4,0,0,0,1,3.67,4.32,4.32,0,0,0,3.31,1.08,4,4,0,0,0,3.22-1.29,5.33,5.33,0,0,0,1.12-3.61V157h2.83v18.55h-2.8v-1.79H247a7.43,7.43,0,0,1-.53.63,6.39,6.39,0,0,1-1.63,1,6.08,6.08,0,0,1-2.78.65,6.47,6.47,0,0,1-4.81-1.75A7.18,7.18,0,0,1,235.51,169.1Z"/><path d="M268.66,169.87l2.31,1.5a9.22,9.22,0,0,1-3,3.38,8.18,8.18,0,0,1-4.78,1.35,8,8,0,0,1-6.2-2.68,10.23,10.23,0,0,1-2.42-7.12,10.38,10.38,0,0,1,2.36-7.12,7.77,7.77,0,0,1,6.11-2.68,7.64,7.64,0,0,1,6,2.63,10.48,10.48,0,0,1,2.31,7.17v.84H257.46a7.26,7.26,0,0,0,1.49,4.51,5,5,0,0,0,4.18,1.85,6.27,6.27,0,0,0,2-.3,6.94,6.94,0,0,0,1.4-.59,4.16,4.16,0,0,0,1-1,10.71,10.71,0,0,0,.67-.89C268.27,170.6,268.43,170.31,268.66,169.87Zm-11.13-5h11a6.77,6.77,0,0,0-1.4-4.06,5.61,5.61,0,0,0-8.19.12A6.56,6.56,0,0,0,257.53,164.86Z"/><path d="M276.11,175.57V157h2.73v2h.07a3.88,3.88,0,0,1,1.64-1.71,4.54,4.54,0,0,1,2.21-.6,3.86,3.86,0,0,1,.82.09c.27.06.47.11.61.16l.18.11-.53,2.83a3.16,3.16,0,0,0-1.47-.28,2.91,2.91,0,0,0-2.59,1.17,6.79,6.79,0,0,0-.81,3.76v11Z"/><path d="M307.93,175.57v-2h-.07a5.09,5.09,0,0,1-2,1.73,7.45,7.45,0,0,1-3.68.82,6.56,6.56,0,0,1-4.67-1.51,5,5,0,0,1-1.59-3.78,4.69,4.69,0,0,1,1.42-3.62,11.38,11.38,0,0,1,4.81-2.19l1.87-.49q.61-.18,1.42-.47a4.32,4.32,0,0,0,1.16-.58,2.76,2.76,0,0,0,.61-.7,1.74,1.74,0,0,0,.26-.95,2.46,2.46,0,0,0-1-2,4.55,4.55,0,0,0-2.92-.79,4.2,4.2,0,0,0-4.51,3.67l-2.59-.74a6.58,6.58,0,0,1,2.28-4,7.12,7.12,0,0,1,4.72-1.52,7.61,7.61,0,0,1,5.09,1.59q1.87,1.59,1.87,5v12.5Zm-5.11-8.37a8.56,8.56,0,0,0-3.24,1.44,2.56,2.56,0,0,0-.86,2q0,2.9,3.67,2.9a5.91,5.91,0,0,0,3.89-1.14,3.49,3.49,0,0,0,1.36-2.78V165h-.07Q307.09,166,302.82,167.21Z"/><path d="M328.37,175.57v-1.79h-.07a6.73,6.73,0,0,1-2.15,1.59,7.8,7.8,0,0,1-9.13-1.94,10.89,10.89,0,0,1-2.19-7.14,10.57,10.57,0,0,1,2.29-7.12,7.26,7.26,0,0,1,5.76-2.68,6.42,6.42,0,0,1,5.15,2.31h.07V150H331v25.55Zm-.28-6.16v-5.74a4.58,4.58,0,0,0-1.29-3.17,4.46,4.46,0,0,0-3.46-1.42,5,5,0,0,0-4.2,1.89,10.58,10.58,0,0,0,0,10.64,5,5,0,0,0,4.2,1.89,4.89,4.89,0,0,0,3.4-1.22A3.75,3.75,0,0,0,328.09,169.41Z"/><path d="M336.91,153.28V150h3.29v3.25Zm.21,22.29V157H340v18.55Z"/><path d="M346.15,183.45V157h2.73v1.79h.07a6.35,6.35,0,0,1,2.1-1.59,7,7,0,0,1,3.22-.72,7.31,7.31,0,0,1,5.78,2.68,10.52,10.52,0,0,1,2.31,7.12,10.73,10.73,0,0,1-2.24,7.14,7.28,7.28,0,0,1-5.85,2.66,6.8,6.8,0,0,1-3.15-.74,5.52,5.52,0,0,1-2-1.58H349v9.66ZM349,163.6v5.88a3.66,3.66,0,0,0,1.37,2.82,4.94,4.94,0,0,0,3.4,1.21,5.09,5.09,0,0,0,4.25-1.89A10.17,10.17,0,0,0,358,161a5.09,5.09,0,0,0-4.23-1.91,4.51,4.51,0,0,0-3.45,1.4A4.45,4.45,0,0,0,349,163.6Z"/><path d="M367.08,153.28V150h3.29v3.25Zm.21,22.29V157h2.87v18.55Z"/><path d="M374.92,169.27l2.69-.53q.53,4.87,5.15,4.87a5.6,5.6,0,0,0,3.31-.8,2.52,2.52,0,0,0,1.1-2.14,2.37,2.37,0,0,0-1-2.1,17.11,17.11,0,0,0-4.32-1.61,13.1,13.1,0,0,1-4.83-2.13,4,4,0,0,1-1.4-3.22A4.66,4.66,0,0,1,377.3,158,6.87,6.87,0,0,1,382,156.5a7.43,7.43,0,0,1,4.83,1.45,7,7,0,0,1,2.38,3.87l-2.48.67a4.54,4.54,0,0,0-4.73-3.54,4.45,4.45,0,0,0-2.8.77,2.27,2.27,0,0,0-1,1.82,1.86,1.86,0,0,0,.94,1.71,23.21,23.21,0,0,0,4.34,1.54,12,12,0,0,1,5,2.33,4.85,4.85,0,0,1,1.38,3.55,5,5,0,0,1-1.77,3.82,9.37,9.37,0,0,1-10.92-.3A7.78,7.78,0,0,1,374.92,169.27Z"/><path d="M406.59,168.47l2.76.56a8.3,8.3,0,0,1-2.55,5.14,7.38,7.38,0,0,1-5.18,1.93,7.81,7.81,0,0,1-6.09-2.61,10.37,10.37,0,0,1-2.34-7.19,10.2,10.2,0,0,1,2.42-7.16,7.82,7.82,0,0,1,6-2.64,7.25,7.25,0,0,1,5.06,1.89,8,8,0,0,1,2.54,4.9l-2.7.56a7.22,7.22,0,0,0-1.61-3.41,4.16,4.16,0,0,0-3.29-1.35,5,5,0,0,0-4.06,1.91,8.22,8.22,0,0,0-1.54,5.3,8.38,8.38,0,0,0,1.5,5.29,5,5,0,0,0,4.13,1.92A4.24,4.24,0,0,0,405,172,6.64,6.64,0,0,0,406.59,168.47Z"/><path d="M413.9,153.28V150h3.29v3.25Zm.21,22.29V157H417v18.55Z"/><path d="M423.14,175.57V157h2.8v1.79H426a5.57,5.57,0,0,1,2.21-1.66,7.24,7.24,0,0,1,3-.65,6.52,6.52,0,0,1,4.85,1.86,6.85,6.85,0,0,1,1.84,5v12.18h-2.83V164.31q0-5.18-4.27-5.18a4.9,4.9,0,0,0-3.48,1.23,4.42,4.42,0,0,0-1.31,3.39v11.83Z"/><path d="M443.86,178.94l2.42-1.23a6.68,6.68,0,0,0,1.73,2.71,5.32,5.32,0,0,0,6.6-.32,5.15,5.15,0,0,0,1.23-3.66V174h-.07a6.39,6.39,0,0,1-5.14,2.14,7.35,7.35,0,0,1-5.92-2.66,10.72,10.72,0,0,1-2.24-7.14,10.47,10.47,0,0,1,2.33-7.12,7.37,7.37,0,0,1,5.79-2.68,6.31,6.31,0,0,1,5.21,2.31h.07V157h2.8v18.83a8.44,8.44,0,0,1-2,6,7.19,7.19,0,0,1-5.48,2.08,7.71,7.71,0,0,1-4.71-1.38A7.36,7.36,0,0,1,443.86,178.94Zm12-9.45V163.6a4.45,4.45,0,0,0-1.31-3.12,4.55,4.55,0,0,0-3.48-1.4,5,5,0,0,0-4.22,1.91,10.28,10.28,0,0,0,0,10.62,5,5,0,0,0,4.24,1.89,5,5,0,0,0,3.43-1.21A3.66,3.66,0,0,0,455.83,169.48Z"/><path d="M486,169.87l2.31,1.5a9.23,9.23,0,0,1-3,3.38,8.18,8.18,0,0,1-4.78,1.35,8,8,0,0,1-6.2-2.68A10.23,10.23,0,0,1,472,166.3a10.37,10.37,0,0,1,2.36-7.12,7.77,7.77,0,0,1,6.11-2.68,7.64,7.64,0,0,1,6,2.63,10.48,10.48,0,0,1,2.31,7.17v.84H474.84a7.25,7.25,0,0,0,1.49,4.51,5,5,0,0,0,4.18,1.85,6.28,6.28,0,0,0,2-.3,7,7,0,0,0,1.4-.59,4.17,4.17,0,0,0,1-1,10.71,10.71,0,0,0,.67-.89Q485.69,170.54,486,169.87Zm-11.13-5h11a6.78,6.78,0,0,0-1.4-4.06,5.61,5.61,0,0,0-8.19.12A6.56,6.56,0,0,0,474.91,164.86Z"/><path d="M493.49,175.57V150h2.91v25.55Z"/><path d="M502.35,153.28V150h3.29v3.25Zm.21,22.29V157h2.87v18.55Z"/><path d="M512.25,170.19V159.58h-2.59V157h2.66v-4.55h2.73V157h4.58v2.55h-4.55v10.25a4.3,4.3,0,0,0,.46,2.31,2.08,2.08,0,0,0,1.82.67h1.4v2.76h-1.54a4.79,4.79,0,0,1-3.8-1.35A6,6,0,0,1,512.25,170.19Z"/><path d="M524.54,179.28v-1.58a1.92,1.92,0,0,0,1.68-2.13h-1.68v-4.13h4.13V175Q528.67,179,524.54,179.28Z"/><path d="M71.33,207.27l2.69-.53q.53,4.87,5.15,4.87a5.6,5.6,0,0,0,3.31-.8,2.52,2.52,0,0,0,1.1-2.14,2.37,2.37,0,0,0-1-2.1A17.12,17.12,0,0,0,78.23,205a13.09,13.09,0,0,1-4.83-2.13,4,4,0,0,1-1.4-3.22A4.66,4.66,0,0,1,73.71,196a6.87,6.87,0,0,1,4.72-1.52A7.43,7.43,0,0,1,83.27,196a7,7,0,0,1,2.38,3.87l-2.49.67a4.54,4.54,0,0,0-4.72-3.54,4.45,4.45,0,0,0-2.8.77,2.27,2.27,0,0,0-1,1.82,1.86,1.86,0,0,0,.95,1.71,23.16,23.16,0,0,0,4.34,1.54,12,12,0,0,1,5,2.33,4.85,4.85,0,0,1,1.38,3.55,5,5,0,0,1-1.77,3.82,7.64,7.64,0,0,1-5.3,1.61,7.69,7.69,0,0,1-5.62-1.91A7.78,7.78,0,0,1,71.33,207.27Z"/><path d="M103.67,207.87l2.31,1.5a9.22,9.22,0,0,1-3,3.38,8.18,8.18,0,0,1-4.78,1.35,8,8,0,0,1-6.2-2.68,10.23,10.23,0,0,1-2.42-7.12A10.38,10.38,0,0,1,92,197.18a7.77,7.77,0,0,1,6.11-2.68,7.64,7.64,0,0,1,6,2.63,10.48,10.48,0,0,1,2.31,7.17v.84H92.47A7.26,7.26,0,0,0,94,209.65a5,5,0,0,0,4.18,1.85,6.27,6.27,0,0,0,2-.3,6.94,6.94,0,0,0,1.4-.59,4.16,4.16,0,0,0,1-1,10.71,10.71,0,0,0,.67-.89C103.28,208.6,103.44,208.31,103.67,207.87Zm-11.13-5h11a6.77,6.77,0,0,0-1.4-4.06,5.61,5.61,0,0,0-8.19.12A6.56,6.56,0,0,0,92.54,202.86Z"/><path d="M123.45,213.57v-1.79h-.07a6.74,6.74,0,0,1-2.15,1.59,7.8,7.8,0,0,1-9.13-1.94,10.89,10.89,0,0,1-2.19-7.14,10.58,10.58,0,0,1,2.29-7.12A7.26,7.26,0,0,1,118,194.5a6.42,6.42,0,0,1,5.15,2.31h.07V188H126v25.55Zm-.28-6.16v-5.74a4.59,4.59,0,0,0-1.29-3.17,4.47,4.47,0,0,0-3.47-1.42,5,5,0,0,0-4.2,1.89,10.57,10.57,0,0,0,0,10.64,5,5,0,0,0,4.2,1.89,4.89,4.89,0,0,0,3.4-1.22A3.75,3.75,0,0,0,123.17,207.41Z"/><path d="M153.06,213.57v-1.79H153a6.74,6.74,0,0,1-2.15,1.59,7.8,7.8,0,0,1-9.13-1.94,10.89,10.89,0,0,1-2.19-7.14,10.57,10.57,0,0,1,2.29-7.12,7.26,7.26,0,0,1,5.76-2.68,6.42,6.42,0,0,1,5.15,2.31h.07V188h2.87v25.55Zm-.28-6.16v-5.74a4.59,4.59,0,0,0-1.29-3.17,4.47,4.47,0,0,0-3.47-1.42,5,5,0,0,0-4.2,1.89,10.58,10.58,0,0,0,0,10.64,5,5,0,0,0,4.2,1.89,4.89,4.89,0,0,0,3.4-1.22A3.75,3.75,0,0,0,152.78,207.41Z"/><path d="M161.6,191.28V188h3.29v3.25Zm.21,22.29V195h2.87v18.55Z"/><path d="M181.62,213.57v-2h-.07a5.1,5.1,0,0,1-2,1.73,7.45,7.45,0,0,1-3.67.82,6.56,6.56,0,0,1-4.67-1.51,5,5,0,0,1-1.59-3.78,4.69,4.69,0,0,1,1.42-3.62,11.38,11.38,0,0,1,4.81-2.19l1.87-.49q.61-.18,1.42-.47a4.32,4.32,0,0,0,1.16-.58,2.76,2.76,0,0,0,.61-.7,1.74,1.74,0,0,0,.26-.95,2.46,2.46,0,0,0-1-2,4.55,4.55,0,0,0-2.92-.79,4.2,4.2,0,0,0-4.51,3.67l-2.59-.74a6.57,6.57,0,0,1,2.27-4,7.12,7.12,0,0,1,4.73-1.52,7.6,7.6,0,0,1,5.09,1.59q1.87,1.59,1.87,5v12.5Zm-5.11-8.37a8.55,8.55,0,0,0-3.24,1.44,2.56,2.56,0,0,0-.86,2q0,2.9,3.67,2.9a5.91,5.91,0,0,0,3.88-1.14,3.49,3.49,0,0,0,1.37-2.78V203h-.07Q180.78,204,176.51,205.21Z"/><path d="M189.74,213.57V195h2.59v1.79h.07a4.88,4.88,0,0,1,2-1.66,6.09,6.09,0,0,1,2.76-.65,5.47,5.47,0,0,1,3,.79,5.61,5.61,0,0,1,1.91,1.94h.07a5.53,5.53,0,0,1,2-1.92,6.18,6.18,0,0,1,3.17-.81,6,6,0,0,1,6.4,6.44v12.63h-2.76V201.81q0-4.69-3.78-4.69a3.84,3.84,0,0,0-3,1.17,4.68,4.68,0,0,0-1.07,3.27v12h-2.76V201.81q0-4.69-3.78-4.69a3.6,3.6,0,0,0-3,1.24,5,5,0,0,0-1,3.2v12Z"/><path d="M228.24,213.57V195H231v1.79h.07a5.57,5.57,0,0,1,2.21-1.66,7.24,7.24,0,0,1,3-.65,6.52,6.52,0,0,1,4.85,1.86,6.85,6.85,0,0,1,1.84,5v12.18h-2.83V202.31q0-5.18-4.27-5.18a4.9,4.9,0,0,0-3.48,1.23,4.42,4.42,0,0,0-1.31,3.39v11.83Z"/><path d="M256,214.1a7.86,7.86,0,0,1-6.05-2.59,10.25,10.25,0,0,1-2.38-7.21,10.1,10.1,0,0,1,2.45-7.17,7.87,7.87,0,0,1,6-2.62,7.68,7.68,0,0,1,5.9,2.63,10.24,10.24,0,0,1,2.4,7.17,10.35,10.35,0,0,1-2.35,7.21A7.67,7.67,0,0,1,256,214.1Zm0-2.59a4.84,4.84,0,0,0,3.9-1.91,9.85,9.85,0,0,0,0-10.6,4.83,4.83,0,0,0-3.92-1.91,5,5,0,0,0-4,1.87,9.84,9.84,0,0,0,0,10.67A5,5,0,0,0,256,211.51Z"/><path d="M269,213.57V195h2.8v1.79h.07a5.56,5.56,0,0,1,2.2-1.66,7.24,7.24,0,0,1,3-.65,6.52,6.52,0,0,1,4.85,1.86,6.84,6.84,0,0,1,1.84,5v12.18h-2.83V202.31q0-5.18-4.27-5.18a4.9,4.9,0,0,0-3.48,1.23,4.42,4.42,0,0,0-1.31,3.39v11.83Z"/><path d="M289.38,207.1V195h2.87v11.66a5.39,5.39,0,0,0,1,3.67,4.32,4.32,0,0,0,3.31,1.08,4,4,0,0,0,3.22-1.29,5.34,5.34,0,0,0,1.12-3.61V195h2.83v18.55h-2.8v-1.79h-.07a7.24,7.24,0,0,1-.53.63,6.41,6.41,0,0,1-1.63,1,6.09,6.09,0,0,1-2.78.65,6.47,6.47,0,0,1-4.81-1.75A7.18,7.18,0,0,1,289.38,207.1Z"/><path d="M309.68,213.57V195h2.59v1.79h.07a4.89,4.89,0,0,1,2-1.66,6.1,6.1,0,0,1,2.77-.65,5.47,5.47,0,0,1,3,.79,5.61,5.61,0,0,1,1.91,1.94H322a5.54,5.54,0,0,1,2-1.92,6.17,6.17,0,0,1,3.17-.81,6,6,0,0,1,6.41,6.44v12.63h-2.77V201.81q0-4.69-3.78-4.69a3.84,3.84,0,0,0-3,1.17,4.68,4.68,0,0,0-1.07,3.27v12h-2.76V201.81q0-4.69-3.78-4.69a3.6,3.6,0,0,0-3,1.24,5,5,0,0,0-1,3.2v12Z"/><path d="M339.43,213.57V195H342v1.79h.07a4.89,4.89,0,0,1,2-1.66,6.1,6.1,0,0,1,2.77-.65,5.47,5.47,0,0,1,3,.79,5.61,5.61,0,0,1,1.91,1.94h.07a5.54,5.54,0,0,1,2-1.92,6.17,6.17,0,0,1,3.17-.81,6,6,0,0,1,6.41,6.44v12.63h-2.77V201.81q0-4.69-3.78-4.69a3.84,3.84,0,0,0-3,1.17,4.68,4.68,0,0,0-1.07,3.27v12H350V201.81q0-4.69-3.78-4.69a3.6,3.6,0,0,0-3,1.24,5,5,0,0,0-1,3.2v12Z"/><path d="M369.46,221.45l3.71-9.83-7-16.59h3l5.25,12.81h.07L379.26,195h2.94l-10,26.42Z"/><path d="M394.62,213.57V195h2.8v1.79h.07a5.57,5.57,0,0,1,2.21-1.66,7.24,7.24,0,0,1,3-.65,6.52,6.52,0,0,1,4.85,1.86,6.85,6.85,0,0,1,1.84,5v12.18h-2.83V202.31q0-5.18-4.27-5.18a4.9,4.9,0,0,0-3.48,1.23,4.42,4.42,0,0,0-1.31,3.39v11.83Z"/><path d="M415.17,191.28V188h3.29v3.25Zm.21,22.29V195h2.87v18.55Z"/><path d="M424.41,213.57V188h2.87v8.79h.07a6.42,6.42,0,0,1,5.14-2.31,7.23,7.23,0,0,1,5.78,2.7,10.64,10.64,0,0,1,2.28,7.1,10.9,10.9,0,0,1-2.19,7.14,7.8,7.8,0,0,1-9.14,1.94,6.75,6.75,0,0,1-2.15-1.59H427v1.79Zm2.87-11.9v5.74a3.75,3.75,0,0,0,1.37,2.87,4.89,4.89,0,0,0,3.4,1.22,5,5,0,0,0,4.2-1.89,10.57,10.57,0,0,0,0-10.64,5,5,0,0,0-4.2-1.89,4.46,4.46,0,0,0-3.47,1.42A4.58,4.58,0,0,0,427.28,201.67Z"/><path d="M445.27,213.57V188h2.87v8.85h.07a5.5,5.5,0,0,1,2.26-1.71,7.68,7.68,0,0,1,3.17-.67,6.58,6.58,0,0,1,4.81,1.8,6.91,6.91,0,0,1,1.84,5.16v12.11h-2.87V202.23q0-5.11-4.3-5.11a4.93,4.93,0,0,0-3.62,1.33,4.65,4.65,0,0,0-1.35,3.46v11.66Z"/><path d="M85.58,245.87l2.31,1.5a9.23,9.23,0,0,1-3,3.38,8.19,8.19,0,0,1-4.78,1.35,8,8,0,0,1-6.19-2.68,10.23,10.23,0,0,1-2.42-7.12,10.37,10.37,0,0,1,2.36-7.12A7.77,7.77,0,0,1,80,232.5a7.64,7.64,0,0,1,6,2.63,10.49,10.49,0,0,1,2.31,7.17v.84H74.38a7.25,7.25,0,0,0,1.49,4.51A5,5,0,0,0,80,249.51a6.28,6.28,0,0,0,2-.3,7,7,0,0,0,1.4-.59,4.17,4.17,0,0,0,1-1,10.71,10.71,0,0,0,.67-.89C85.19,246.6,85.34,246.31,85.58,245.87Zm-11.13-5h11a6.77,6.77,0,0,0-1.4-4.06,5.61,5.61,0,0,0-8.19.12A6.56,6.56,0,0,0,74.45,240.86Z"/><path d="M92.86,245.1V233h2.87v11.66a5.39,5.39,0,0,0,1,3.67,4.32,4.32,0,0,0,3.31,1.08,4,4,0,0,0,3.22-1.29,5.34,5.34,0,0,0,1.12-3.61V233h2.83v18.55h-2.8v-1.79h-.07a7.2,7.2,0,0,1-.52.63,6.42,6.42,0,0,1-1.63,1,6.08,6.08,0,0,1-2.78.65,6.46,6.46,0,0,1-4.81-1.75A7.17,7.17,0,0,1,92.86,245.1Z"/><path d="M113.16,229.28V226h3.29v3.25Zm.21,22.29V233h2.87v18.55Z"/><path d="M121,245.27l2.69-.53q.53,4.87,5.15,4.87a5.6,5.6,0,0,0,3.31-.8,2.52,2.52,0,0,0,1.1-2.14,2.37,2.37,0,0,0-1-2.1,17.12,17.12,0,0,0-4.32-1.61,13.09,13.09,0,0,1-4.83-2.13,4,4,0,0,1-1.4-3.22,4.66,4.66,0,0,1,1.71-3.59,6.87,6.87,0,0,1,4.72-1.52,7.43,7.43,0,0,1,4.83,1.45,7,7,0,0,1,2.38,3.87l-2.49.67a4.54,4.54,0,0,0-4.72-3.54,4.45,4.45,0,0,0-2.8.77,2.27,2.27,0,0,0-1,1.82,1.86,1.86,0,0,0,.95,1.71,23.16,23.16,0,0,0,4.34,1.54,12,12,0,0,1,5,2.33,4.85,4.85,0,0,1,1.38,3.55,5,5,0,0,1-1.77,3.82,9.37,9.37,0,0,1-10.92-.3A7.78,7.78,0,0,1,121,245.27Z"/><path d="M140.49,251.57V233h2.59v1.79h.07a4.89,4.89,0,0,1,2-1.66,6.1,6.1,0,0,1,2.77-.65,5.47,5.47,0,0,1,3,.79,5.61,5.61,0,0,1,1.91,1.94h.07a5.54,5.54,0,0,1,2-1.92,6.17,6.17,0,0,1,3.17-.81,6,6,0,0,1,6.41,6.44v12.63H161.7V239.81q0-4.69-3.78-4.69a3.84,3.84,0,0,0-3,1.17,4.68,4.68,0,0,0-1.07,3.27v12H151.1V239.81q0-4.69-3.78-4.69a3.6,3.6,0,0,0-3,1.24,5,5,0,0,0-1,3.2v12Z"/><path d="M177.45,252.1a7.86,7.86,0,0,1-6.05-2.59A10.25,10.25,0,0,1,169,242.3a10.1,10.1,0,0,1,2.45-7.17,7.87,7.87,0,0,1,6-2.62,7.68,7.68,0,0,1,5.9,2.63,10.24,10.24,0,0,1,2.4,7.17,10.35,10.35,0,0,1-2.35,7.21A7.67,7.67,0,0,1,177.45,252.1Zm0-2.59a4.84,4.84,0,0,0,3.9-1.91,9.85,9.85,0,0,0,0-10.6,4.83,4.83,0,0,0-3.92-1.91,5,5,0,0,0-4,1.87,9.84,9.84,0,0,0,0,10.67A5,5,0,0,0,177.45,249.51Z"/><path d="M202.79,251.57v-1.79h-.07a6.74,6.74,0,0,1-2.15,1.59,7.8,7.8,0,0,1-9.13-1.94,10.89,10.89,0,0,1-2.19-7.14,10.58,10.58,0,0,1,2.29-7.12,7.26,7.26,0,0,1,5.76-2.68,6.42,6.42,0,0,1,5.15,2.31h.07V226h2.87v25.55Zm-.28-6.16v-5.74a4.59,4.59,0,0,0-1.29-3.17,4.47,4.47,0,0,0-3.47-1.42,5,5,0,0,0-4.2,1.89,10.57,10.57,0,0,0,0,10.64,5,5,0,0,0,4.2,1.89,4.89,4.89,0,0,0,3.4-1.22A3.75,3.75,0,0,0,202.51,245.41Z"/><path d="M220.75,246.19V235.58h-2.59V233h2.66v-4.55h2.73V233h4.59v2.55h-4.55v10.25a4.3,4.3,0,0,0,.46,2.31,2.07,2.07,0,0,0,1.82.67h1.4v2.76h-1.54a4.79,4.79,0,0,1-3.8-1.35A6,6,0,0,1,220.75,246.19Z"/><path d="M232.68,229.28V226H236v3.25Zm.21,22.29V233h2.87v18.55Z"/><path d="M241.92,251.57V233h2.8v1.79h.07a5.56,5.56,0,0,1,2.2-1.66,7.24,7.24,0,0,1,3-.65,6.52,6.52,0,0,1,4.85,1.86,6.85,6.85,0,0,1,1.84,5v12.18h-2.83V240.31q0-5.18-4.27-5.18a4.9,4.9,0,0,0-3.48,1.23,4.42,4.42,0,0,0-1.31,3.39v11.83Z"/><path d="M274.64,244.47l2.76.56a8.3,8.3,0,0,1-2.55,5.14,7.38,7.38,0,0,1-5.18,1.93,7.81,7.81,0,0,1-6.09-2.61,10.37,10.37,0,0,1-2.34-7.19,10.21,10.21,0,0,1,2.42-7.16,7.82,7.82,0,0,1,6-2.64,7.26,7.26,0,0,1,5.06,1.89,8,8,0,0,1,2.54,4.9l-2.7.56a7.21,7.21,0,0,0-1.61-3.41,4.17,4.17,0,0,0-3.29-1.35,5,5,0,0,0-4.06,1.91,8.22,8.22,0,0,0-1.54,5.3,8.38,8.38,0,0,0,1.5,5.29,5,5,0,0,0,4.13,1.92,4.25,4.25,0,0,0,3.36-1.49A6.65,6.65,0,0,0,274.64,244.47Z"/><path d="M282,229.28V226h3.29v3.25Zm.21,22.29V233H285v18.55Z"/><path d="M303.52,251.57v-1.79h-.07a6.73,6.73,0,0,1-2.15,1.59,7.8,7.8,0,0,1-9.13-1.94A10.89,10.89,0,0,1,290,242.3a10.57,10.57,0,0,1,2.29-7.12A7.26,7.26,0,0,1,298,232.5a6.42,6.42,0,0,1,5.15,2.31h.07V226h2.87v25.55Zm-.28-6.16v-5.74a4.58,4.58,0,0,0-1.29-3.17,4.46,4.46,0,0,0-3.46-1.42,5,5,0,0,0-4.2,1.89,10.58,10.58,0,0,0,0,10.64,5,5,0,0,0,4.2,1.89,4.89,4.89,0,0,0,3.4-1.22A3.75,3.75,0,0,0,303.24,245.41Z"/><path d="M311.88,245.1V233h2.87v11.66a5.39,5.39,0,0,0,1,3.67,4.32,4.32,0,0,0,3.31,1.08,4,4,0,0,0,3.22-1.29,5.34,5.34,0,0,0,1.12-3.61V233h2.83v18.55h-2.8v-1.79h-.07a7.24,7.24,0,0,1-.53.63,6.41,6.41,0,0,1-1.63,1,6.09,6.09,0,0,1-2.78.65,6.47,6.47,0,0,1-4.81-1.75A7.18,7.18,0,0,1,311.88,245.1Z"/><path d="M332.18,251.57V233H335v1.79h.07a5.57,5.57,0,0,1,2.21-1.66,7.24,7.24,0,0,1,3-.65,6.52,6.52,0,0,1,4.85,1.86,6.85,6.85,0,0,1,1.84,5v12.18h-2.83V240.31q0-5.18-4.27-5.18a4.9,4.9,0,0,0-3.48,1.23,4.42,4.42,0,0,0-1.31,3.39v11.83Z"/><path d="M353.39,246.19V235.58H350.8V233h2.66v-4.55h2.73V233h4.58v2.55h-4.55v10.25a4.3,4.3,0,0,0,.46,2.31,2.08,2.08,0,0,0,1.82.67h1.4v2.76h-1.54a4.79,4.79,0,0,1-3.8-1.35A6,6,0,0,1,353.39,246.19Z"/><path d="M373.9,245.1V233h2.87v11.66a5.39,5.39,0,0,0,1,3.67,4.32,4.32,0,0,0,3.31,1.08,4,4,0,0,0,3.22-1.29,5.34,5.34,0,0,0,1.12-3.61V233h2.83v18.55h-2.8v-1.79h-.07a7.24,7.24,0,0,1-.53.63,6.41,6.41,0,0,1-1.63,1,6.09,6.09,0,0,1-2.78.65,6.47,6.47,0,0,1-4.81-1.75A7.18,7.18,0,0,1,373.9,245.1Z"/><path d="M394.87,246.19V235.58h-2.59V233h2.66v-4.55h2.73V233h4.58v2.55H397.7v10.25a4.3,4.3,0,0,0,.46,2.31,2.08,2.08,0,0,0,1.82.67h1.4v2.76h-1.54a4.79,4.79,0,0,1-3.8-1.35A6,6,0,0,1,394.87,246.19Z"/><path d="M415.55,251.57V226h2.91v25.55Z"/><path d="M435.19,251.57v-2h-.07a5.09,5.09,0,0,1-2,1.73,7.45,7.45,0,0,1-3.68.82,6.56,6.56,0,0,1-4.67-1.51,5,5,0,0,1-1.59-3.78,4.69,4.69,0,0,1,1.42-3.62,11.38,11.38,0,0,1,4.81-2.19l1.87-.49q.61-.18,1.42-.47a4.32,4.32,0,0,0,1.16-.58,2.76,2.76,0,0,0,.61-.7,1.74,1.74,0,0,0,.26-.95,2.46,2.46,0,0,0-1-2,4.55,4.55,0,0,0-2.92-.79,4.2,4.2,0,0,0-4.51,3.67l-2.59-.74a6.58,6.58,0,0,1,2.28-4,7.12,7.12,0,0,1,4.72-1.52,7.61,7.61,0,0,1,5.09,1.59q1.87,1.59,1.87,5v12.5Zm-5.11-8.37a8.56,8.56,0,0,0-3.24,1.44,2.56,2.56,0,0,0-.86,2q0,2.9,3.67,2.9a5.91,5.91,0,0,0,3.89-1.14,3.49,3.49,0,0,0,1.36-2.78V241h-.07Q434.35,242,430.08,243.21Z"/><path d="M450.52,252.1a7.86,7.86,0,0,1-6.05-2.59,10.25,10.25,0,0,1-2.38-7.21,10.1,10.1,0,0,1,2.45-7.17,7.87,7.87,0,0,1,6-2.62,7.67,7.67,0,0,1,5.9,2.63,10.24,10.24,0,0,1,2.4,7.17,10.35,10.35,0,0,1-2.35,7.21A7.67,7.67,0,0,1,450.52,252.1Zm0-2.59a4.84,4.84,0,0,0,3.9-1.91,9.86,9.86,0,0,0,0-10.6,4.83,4.83,0,0,0-3.92-1.91,5,5,0,0,0-4,1.87,9.83,9.83,0,0,0,0,10.67A5,5,0,0,0,450.52,249.51Z"/><path d="M463.53,251.57V233h2.73v2h.07a3.89,3.89,0,0,1,1.64-1.71,4.54,4.54,0,0,1,2.21-.6,3.84,3.84,0,0,1,.82.09q.4.09.61.16l.18.11-.53,2.83a3.17,3.17,0,0,0-1.47-.28,2.91,2.91,0,0,0-2.59,1.17,6.79,6.79,0,0,0-.81,3.76v11Z"/><path d="M488.67,245.87l2.31,1.5a9.23,9.23,0,0,1-3,3.38,8.18,8.18,0,0,1-4.78,1.35,8,8,0,0,1-6.2-2.68,10.23,10.23,0,0,1-2.42-7.12,10.37,10.37,0,0,1,2.36-7.12,7.77,7.77,0,0,1,6.11-2.68,7.64,7.64,0,0,1,6,2.63,10.48,10.48,0,0,1,2.31,7.17v.84H477.47a7.25,7.25,0,0,0,1.49,4.51,5,5,0,0,0,4.18,1.85,6.28,6.28,0,0,0,2-.3,7,7,0,0,0,1.4-.59,4.17,4.17,0,0,0,1-1,10.71,10.71,0,0,0,.67-.89Q488.31,246.54,488.67,245.87Zm-11.13-5h11a6.78,6.78,0,0,0-1.4-4.06,5.61,5.61,0,0,0-8.19.12A6.56,6.56,0,0,0,477.54,240.86Z"/><path d="M509,245.87l2.31,1.5a9.23,9.23,0,0,1-3,3.38,8.18,8.18,0,0,1-4.78,1.35,8,8,0,0,1-6.2-2.68,10.23,10.23,0,0,1-2.42-7.12,10.37,10.37,0,0,1,2.36-7.12,7.77,7.77,0,0,1,6.11-2.68,7.64,7.64,0,0,1,6,2.63,10.48,10.48,0,0,1,2.31,7.17v.84H497.77a7.25,7.25,0,0,0,1.49,4.51,5,5,0,0,0,4.18,1.85,6.28,6.28,0,0,0,2-.3,7,7,0,0,0,1.4-.59,4.17,4.17,0,0,0,1-1,10.71,10.71,0,0,0,.67-.89Q508.61,246.54,509,245.87Zm-11.13-5h11a6.78,6.78,0,0,0-1.4-4.06,5.61,5.61,0,0,0-8.19.12A6.56,6.56,0,0,0,497.84,240.86Z"/><path d="M517.08,246.19V235.58h-2.59V233h2.66v-4.55h2.73V233h4.58v2.55h-4.55v10.25a4.3,4.3,0,0,0,.46,2.31,2.08,2.08,0,0,0,1.82.67h1.4v2.76h-1.54a4.79,4.79,0,0,1-3.8-1.35A6,6,0,0,1,517.08,246.19Z"/><path d="M85.05,289.57v-1.79H85a6.74,6.74,0,0,1-2.15,1.59,7.8,7.8,0,0,1-9.13-1.94,10.89,10.89,0,0,1-2.19-7.14,10.57,10.57,0,0,1,2.29-7.12,7.26,7.26,0,0,1,5.76-2.68,6.42,6.42,0,0,1,5.15,2.31h.07V264h2.87v25.55Zm-.28-6.16v-5.74a4.59,4.59,0,0,0-1.29-3.17A4.47,4.47,0,0,0,80,273.09a5,5,0,0,0-4.2,1.89,10.58,10.58,0,0,0,0,10.64,5,5,0,0,0,4.2,1.89,4.89,4.89,0,0,0,3.4-1.22A3.75,3.75,0,0,0,84.77,283.41Z"/><path d="M100.8,290.1a7.86,7.86,0,0,1-6.05-2.59,10.25,10.25,0,0,1-2.38-7.21,10.1,10.1,0,0,1,2.45-7.17,7.87,7.87,0,0,1,6-2.62,7.68,7.68,0,0,1,5.9,2.63,10.24,10.24,0,0,1,2.4,7.17,10.35,10.35,0,0,1-2.35,7.21A7.67,7.67,0,0,1,100.8,290.1Zm0-2.59a4.84,4.84,0,0,0,3.9-1.91,9.85,9.85,0,0,0,0-10.6,4.83,4.83,0,0,0-3.92-1.91,5,5,0,0,0-4,1.87,9.84,9.84,0,0,0,0,10.67A5,5,0,0,0,100.8,287.51Z"/><path d="M113.82,289.57V264h2.9v25.55Z"/><path d="M129.89,290.1a7.86,7.86,0,0,1-6.05-2.59,10.25,10.25,0,0,1-2.38-7.21,10.1,10.1,0,0,1,2.45-7.17,7.87,7.87,0,0,1,6-2.62,7.68,7.68,0,0,1,5.9,2.63,10.24,10.24,0,0,1,2.4,7.17,10.35,10.35,0,0,1-2.35,7.21A7.67,7.67,0,0,1,129.89,290.1Zm0-2.59a4.84,4.84,0,0,0,3.9-1.91,9.85,9.85,0,0,0,0-10.6,4.83,4.83,0,0,0-3.92-1.91,5,5,0,0,0-4,1.87,9.84,9.84,0,0,0,0,10.67A5,5,0,0,0,129.89,287.51Z"/><path d="M142.91,289.57V271h2.73v2h.07a3.89,3.89,0,0,1,1.65-1.71,4.54,4.54,0,0,1,2.21-.6,3.85,3.85,0,0,1,.82.09c.27.06.47.11.61.16l.17.11-.53,2.83a3.16,3.16,0,0,0-1.47-.28,2.91,2.91,0,0,0-2.59,1.17,6.79,6.79,0,0,0-.8,3.76v11Z"/><path d="M168,283.87l2.31,1.5a9.22,9.22,0,0,1-3,3.38,8.18,8.18,0,0,1-4.78,1.35,8,8,0,0,1-6.2-2.68A10.23,10.23,0,0,1,154,280.3a10.38,10.38,0,0,1,2.36-7.12,7.77,7.77,0,0,1,6.11-2.68,7.64,7.64,0,0,1,6,2.63,10.49,10.49,0,0,1,2.31,7.17v.84H156.84a7.26,7.26,0,0,0,1.49,4.51,5,5,0,0,0,4.18,1.85,6.28,6.28,0,0,0,2-.3,7,7,0,0,0,1.4-.59,4.14,4.14,0,0,0,1-1,10.81,10.81,0,0,0,.67-.89Q167.69,284.54,168,283.87Zm-11.13-5h11a6.77,6.77,0,0,0-1.4-4.06,5.61,5.61,0,0,0-8.19.12A6.56,6.56,0,0,0,156.91,278.86Z"/><path d="M184.24,289.57V271h2.59v1.79h.07a4.88,4.88,0,0,1,2-1.66,6.09,6.09,0,0,1,2.76-.65,5.48,5.48,0,0,1,3,.79,5.61,5.61,0,0,1,1.91,1.94h.07a5.54,5.54,0,0,1,2-1.92,6.18,6.18,0,0,1,3.17-.81,6,6,0,0,1,6.41,6.44v12.63h-2.76V277.81q0-4.69-3.78-4.69a3.84,3.84,0,0,0-3,1.17,4.69,4.69,0,0,0-1.07,3.27v12h-2.77V277.81q0-4.69-3.78-4.69a3.6,3.6,0,0,0-3,1.24,5,5,0,0,0-1,3.2v12Z"/><path d="M224.77,289.57v-2h-.07a5.09,5.09,0,0,1-2,1.73,7.45,7.45,0,0,1-3.67.82,6.56,6.56,0,0,1-4.67-1.51,5,5,0,0,1-1.59-3.78,4.7,4.7,0,0,1,1.42-3.62A11.38,11.38,0,0,1,219,279l1.87-.49q.61-.18,1.42-.47a4.29,4.29,0,0,0,1.15-.58,2.76,2.76,0,0,0,.61-.7,1.75,1.75,0,0,0,.26-.95,2.45,2.45,0,0,0-1-2,4.55,4.55,0,0,0-2.92-.79,4.2,4.2,0,0,0-4.51,3.67l-2.59-.74a6.57,6.57,0,0,1,2.27-4,7.12,7.12,0,0,1,4.73-1.52,7.61,7.61,0,0,1,5.09,1.59q1.87,1.59,1.87,5v12.5Zm-5.11-8.37a8.56,8.56,0,0,0-3.24,1.44,2.56,2.56,0,0,0-.86,2q0,2.9,3.68,2.9a5.91,5.91,0,0,0,3.88-1.14,3.49,3.49,0,0,0,1.37-2.78V279h-.07Q223.93,280,219.66,281.21Z"/><path d="M233.06,292.94l2.42-1.23a6.68,6.68,0,0,0,1.73,2.71,5.32,5.32,0,0,0,6.6-.32,5.16,5.16,0,0,0,1.22-3.66V288H245a6.39,6.39,0,0,1-5.14,2.14,7.35,7.35,0,0,1-5.92-2.66,10.73,10.73,0,0,1-2.24-7.14,10.47,10.47,0,0,1,2.33-7.12,7.37,7.37,0,0,1,5.79-2.68,6.31,6.31,0,0,1,5.21,2.31h.07V271h2.8v18.83a8.44,8.44,0,0,1-2,6,7.19,7.19,0,0,1-5.48,2.08,7.71,7.71,0,0,1-4.71-1.38A7.37,7.37,0,0,1,233.06,292.94Zm12-9.45V277.6a4.45,4.45,0,0,0-1.31-3.12,4.55,4.55,0,0,0-3.48-1.4A5,5,0,0,0,236,275a10.28,10.28,0,0,0,0,10.62,5,5,0,0,0,4.24,1.89,5,5,0,0,0,3.43-1.21A3.66,3.66,0,0,0,245,283.48Z"/><path d="M253.64,289.57V271h2.8v1.79h.07a5.56,5.56,0,0,1,2.2-1.66,7.24,7.24,0,0,1,3-.65,6.52,6.52,0,0,1,4.85,1.86,6.85,6.85,0,0,1,1.84,5v12.18h-2.83V278.31q0-5.18-4.27-5.18a4.9,4.9,0,0,0-3.48,1.23,4.42,4.42,0,0,0-1.31,3.39v11.83Z"/><path d="M285,289.57v-2h-.07a5.09,5.09,0,0,1-2,1.73,7.45,7.45,0,0,1-3.68.82,6.56,6.56,0,0,1-4.67-1.51,5,5,0,0,1-1.59-3.78,4.7,4.7,0,0,1,1.42-3.62,11.39,11.39,0,0,1,4.81-2.19l1.87-.49q.61-.18,1.42-.47a4.32,4.32,0,0,0,1.16-.58,2.76,2.76,0,0,0,.61-.7,1.74,1.74,0,0,0,.26-.95,2.46,2.46,0,0,0-1-2,4.55,4.55,0,0,0-2.92-.79,4.2,4.2,0,0,0-4.51,3.67l-2.59-.74a6.58,6.58,0,0,1,2.28-4,7.12,7.12,0,0,1,4.72-1.52,7.61,7.61,0,0,1,5.09,1.59q1.87,1.59,1.87,5v12.5Zm-5.11-8.37a8.56,8.56,0,0,0-3.24,1.44,2.56,2.56,0,0,0-.86,2q0,2.9,3.67,2.9a5.91,5.91,0,0,0,3.89-1.14,3.49,3.49,0,0,0,1.36-2.78V279h-.07Q284.13,280,279.86,281.21Z"/><path d="M312.62,289.57v-2h-.07a5.09,5.09,0,0,1-2,1.73,7.45,7.45,0,0,1-3.68.82,6.56,6.56,0,0,1-4.67-1.51,5,5,0,0,1-1.59-3.78,4.69,4.69,0,0,1,1.42-3.62,11.38,11.38,0,0,1,4.81-2.19l1.87-.49q.61-.18,1.42-.47a4.32,4.32,0,0,0,1.16-.58,2.76,2.76,0,0,0,.61-.7,1.74,1.74,0,0,0,.26-.95,2.46,2.46,0,0,0-1-2,4.55,4.55,0,0,0-2.92-.79,4.2,4.2,0,0,0-4.51,3.67l-2.59-.74a6.58,6.58,0,0,1,2.28-4,7.12,7.12,0,0,1,4.72-1.52,7.61,7.61,0,0,1,5.09,1.59q1.87,1.59,1.87,5v12.5Zm-5.11-8.37a8.56,8.56,0,0,0-3.24,1.44,2.56,2.56,0,0,0-.86,2q0,2.9,3.67,2.9a5.91,5.91,0,0,0,3.89-1.14,3.49,3.49,0,0,0,1.36-2.78V279h-.07Q311.78,280,307.51,281.21Z"/><path d="M320.74,289.57V264h2.91v25.55Z"/><path d="M329.59,267.28V264h3.29v3.25Zm.21,22.29V271h2.87v18.55Z"/><path d="M351,297.45v-9.66h-.07a6.19,6.19,0,0,1-5.21,2.31,7.28,7.28,0,0,1-5.84-2.66,10.72,10.72,0,0,1-2.24-7.14,10.47,10.47,0,0,1,2.33-7.12,7.37,7.37,0,0,1,5.79-2.68,7,7,0,0,1,3.18.7,6.34,6.34,0,0,1,2.14,1.61h.07V271h2.7v26.42Zm0-14V277.6a4.45,4.45,0,0,0-1.31-3.12,4.55,4.55,0,0,0-3.48-1.4A5,5,0,0,0,342,275a10.28,10.28,0,0,0,0,10.62,5,5,0,0,0,4.24,1.89,5,5,0,0,0,3.43-1.21A3.66,3.66,0,0,0,351,283.48Z"/><path d="M359.59,283.1V271h2.87v11.66a5.39,5.39,0,0,0,1,3.67,4.32,4.32,0,0,0,3.31,1.08,4,4,0,0,0,3.22-1.29,5.34,5.34,0,0,0,1.12-3.61V271h2.83v18.55h-2.8v-1.79h-.07a7.24,7.24,0,0,1-.53.63,6.41,6.41,0,0,1-1.63,1,6.09,6.09,0,0,1-2.78.65,6.47,6.47,0,0,1-4.81-1.75A7.18,7.18,0,0,1,359.59,283.1Z"/><path d="M390.67,289.57v-2h-.07a5.09,5.09,0,0,1-2,1.73,7.45,7.45,0,0,1-3.68.82,6.56,6.56,0,0,1-4.67-1.51,5,5,0,0,1-1.59-3.78,4.69,4.69,0,0,1,1.42-3.62,11.38,11.38,0,0,1,4.81-2.19l1.87-.49q.61-.18,1.42-.47a4.32,4.32,0,0,0,1.16-.58,2.76,2.76,0,0,0,.61-.7,1.74,1.74,0,0,0,.26-.95,2.46,2.46,0,0,0-1-2,4.55,4.55,0,0,0-2.92-.79,4.2,4.2,0,0,0-4.51,3.67l-2.59-.74a6.58,6.58,0,0,1,2.28-4,7.12,7.12,0,0,1,4.72-1.52,7.61,7.61,0,0,1,5.09,1.59q1.87,1.59,1.87,5v12.5Zm-5.11-8.37a8.56,8.56,0,0,0-3.24,1.44,2.56,2.56,0,0,0-.86,2q0,2.9,3.67,2.9a5.91,5.91,0,0,0,3.89-1.14,3.49,3.49,0,0,0,1.36-2.78V279h-.07Q389.83,280,385.56,281.21Z"/><path d="M398.78,289.57V271h2.59v1.79h.07a4.89,4.89,0,0,1,2-1.66,6.1,6.1,0,0,1,2.77-.65,5.47,5.47,0,0,1,3,.79,5.61,5.61,0,0,1,1.91,1.94h.07a5.54,5.54,0,0,1,2-1.92,6.17,6.17,0,0,1,3.17-.81,6,6,0,0,1,6.41,6.44v12.63H420V277.81q0-4.69-3.78-4.69a3.84,3.84,0,0,0-3,1.17,4.68,4.68,0,0,0-1.07,3.27v12h-2.76V277.81q0-4.69-3.78-4.69a3.6,3.6,0,0,0-3,1.24,5,5,0,0,0-1,3.2v12Z"/><path d="M450.13,283.87l2.31,1.5a9.23,9.23,0,0,1-3,3.38,8.18,8.18,0,0,1-4.78,1.35,8,8,0,0,1-6.2-2.68,10.23,10.23,0,0,1-2.42-7.12,10.37,10.37,0,0,1,2.36-7.12,7.77,7.77,0,0,1,6.11-2.68,7.64,7.64,0,0,1,6,2.63,10.48,10.48,0,0,1,2.31,7.17v.84H438.93a7.25,7.25,0,0,0,1.49,4.51,5,5,0,0,0,4.18,1.85,6.28,6.28,0,0,0,2-.3,7,7,0,0,0,1.4-.59,4.17,4.17,0,0,0,1-1,10.71,10.71,0,0,0,.67-.89Q449.78,284.54,450.13,283.87Zm-11.13-5h11a6.78,6.78,0,0,0-1.4-4.06,5.61,5.61,0,0,0-8.19.12A6.56,6.56,0,0,0,439,278.86Z"/><path d="M457.58,289.57V271h2.73v2h.07a3.89,3.89,0,0,1,1.64-1.71,4.54,4.54,0,0,1,2.21-.6,3.84,3.84,0,0,1,.82.09q.4.09.61.16l.18.11-.53,2.83a3.17,3.17,0,0,0-1.47-.28,2.91,2.91,0,0,0-2.59,1.17,6.79,6.79,0,0,0-.81,3.76v11Z"/><path d="M480.65,289.57v-2h-.07a5.09,5.09,0,0,1-2,1.73,7.45,7.45,0,0,1-3.68.82,6.56,6.56,0,0,1-4.67-1.51,5,5,0,0,1-1.59-3.78,4.69,4.69,0,0,1,1.42-3.62,11.38,11.38,0,0,1,4.81-2.19l1.87-.49q.61-.18,1.42-.47a4.32,4.32,0,0,0,1.16-.58,2.76,2.76,0,0,0,.61-.7,1.74,1.74,0,0,0,.26-.95,2.46,2.46,0,0,0-1-2,4.55,4.55,0,0,0-2.92-.79,4.2,4.2,0,0,0-4.51,3.67L469.2,276a6.58,6.58,0,0,1,2.28-4,7.12,7.12,0,0,1,4.72-1.52,7.61,7.61,0,0,1,5.09,1.59q1.87,1.59,1.87,5v12.5Zm-5.11-8.37a8.56,8.56,0,0,0-3.24,1.44,2.56,2.56,0,0,0-.86,2q0,2.9,3.67,2.9a5.91,5.91,0,0,0,3.89-1.14,3.49,3.49,0,0,0,1.36-2.78V279h-.07Q479.81,280,475.54,281.21Z"/><path d="M489.43,284.19V273.58h-2.59V271h2.66v-4.55h2.73V271h4.58v2.55h-4.55v10.25a4.3,4.3,0,0,0,.46,2.31,2.08,2.08,0,0,0,1.82.67h1.4v2.76H494.4a4.79,4.79,0,0,1-3.8-1.35A6,6,0,0,1,489.43,284.19Z"/><path d="M73.08,327.57v-24.5H76v21.84H86.63v2.66Z"/><path d="M97.86,328.1a7.86,7.86,0,0,1-6.06-2.59,10.25,10.25,0,0,1-2.38-7.21,10.1,10.1,0,0,1,2.45-7.17,7.87,7.87,0,0,1,6-2.62,7.67,7.67,0,0,1,5.9,2.63,10.24,10.24,0,0,1,2.4,7.17,10.36,10.36,0,0,1-2.35,7.21A7.67,7.67,0,0,1,97.86,328.1Zm0-2.59a4.84,4.84,0,0,0,3.9-1.91,9.86,9.86,0,0,0,0-10.6,4.83,4.83,0,0,0-3.92-1.91,5,5,0,0,0-4,1.87,9.83,9.83,0,0,0,0,10.67A5,5,0,0,0,97.86,325.51Z"/><path d="M110.88,327.57V309h2.73v2h.07a3.89,3.89,0,0,1,1.65-1.71,4.54,4.54,0,0,1,2.21-.6,3.84,3.84,0,0,1,.82.09q.4.09.61.16l.18.11-.53,2.83a3.17,3.17,0,0,0-1.47-.28,2.92,2.92,0,0,0-2.59,1.17,6.79,6.79,0,0,0-.8,3.76v11Z"/><path d="M136,321.87l2.31,1.5a9.22,9.22,0,0,1-3,3.38,8.18,8.18,0,0,1-4.78,1.35,8,8,0,0,1-6.2-2.68,10.23,10.23,0,0,1-2.42-7.12,10.38,10.38,0,0,1,2.36-7.12,7.77,7.77,0,0,1,6.11-2.68,7.64,7.64,0,0,1,6,2.63,10.48,10.48,0,0,1,2.31,7.17v.84H124.81a7.26,7.26,0,0,0,1.49,4.51,5,5,0,0,0,4.18,1.85,6.27,6.27,0,0,0,2-.3,6.94,6.94,0,0,0,1.4-.59,4.16,4.16,0,0,0,1-1,10.71,10.71,0,0,0,.67-.89C135.62,322.6,135.78,322.31,136,321.87Zm-11.13-5h11a6.77,6.77,0,0,0-1.4-4.06,5.61,5.61,0,0,0-8.19.12A6.56,6.56,0,0,0,124.88,316.86Z"/><path d="M143.47,327.57V309h2.59v1.79h.07a4.88,4.88,0,0,1,2-1.66,6.09,6.09,0,0,1,2.76-.65,5.47,5.47,0,0,1,3,.79,5.61,5.61,0,0,1,1.91,1.94h.07a5.53,5.53,0,0,1,2-1.92,6.18,6.18,0,0,1,3.17-.81,6,6,0,0,1,6.4,6.44v12.63h-2.76V315.81q0-4.69-3.78-4.69a3.84,3.84,0,0,0-3,1.17,4.68,4.68,0,0,0-1.07,3.27v12h-2.76V315.81q0-4.69-3.78-4.69a3.6,3.6,0,0,0-3,1.24,5,5,0,0,0-1,3.2v12Z"/><path d="M182,305.28V302h3.29v3.25Zm.21,22.29V309H185v18.55Z"/><path d="M191.21,335.45V309h2.73v1.79H194a6.36,6.36,0,0,1,2.1-1.59,7,7,0,0,1,3.22-.72,7.32,7.32,0,0,1,5.78,2.68,10.53,10.53,0,0,1,2.31,7.12,10.73,10.73,0,0,1-2.24,7.14,7.28,7.28,0,0,1-5.84,2.66,6.81,6.81,0,0,1-3.15-.74,5.51,5.51,0,0,1-2-1.58h-.07v9.66Zm2.87-19.84v5.88a3.66,3.66,0,0,0,1.37,2.82,4.94,4.94,0,0,0,3.39,1.21,5.09,5.09,0,0,0,4.25-1.89,10.17,10.17,0,0,0,0-10.62,5.08,5.08,0,0,0-4.23-1.91,4.51,4.51,0,0,0-3.45,1.4A4.45,4.45,0,0,0,194.08,315.6Z"/><path d="M210.74,321.27l2.69-.53q.53,4.87,5.15,4.87a5.59,5.59,0,0,0,3.31-.8,2.52,2.52,0,0,0,1.1-2.14,2.37,2.37,0,0,0-1-2.1,17.08,17.08,0,0,0-4.32-1.61,13.09,13.09,0,0,1-4.83-2.13,4,4,0,0,1-1.4-3.22,4.66,4.66,0,0,1,1.71-3.59,6.87,6.87,0,0,1,4.73-1.52,7.42,7.42,0,0,1,4.83,1.45,7,7,0,0,1,2.38,3.87l-2.49.67a4.54,4.54,0,0,0-4.72-3.54,4.44,4.44,0,0,0-2.8.77,2.26,2.26,0,0,0-1,1.82,1.86,1.86,0,0,0,.95,1.71,23.18,23.18,0,0,0,4.34,1.54,12,12,0,0,1,5,2.33,4.85,4.85,0,0,1,1.38,3.55,5,5,0,0,1-1.77,3.82,9.37,9.37,0,0,1-10.92-.3A7.78,7.78,0,0,1,210.74,321.27Z"/><path d="M230.05,321.1V309h2.87v11.66a5.39,5.39,0,0,0,1,3.67,4.32,4.32,0,0,0,3.31,1.08,4,4,0,0,0,3.22-1.29,5.33,5.33,0,0,0,1.12-3.61V309h2.83v18.55h-2.8v-1.79h-.07a7.24,7.24,0,0,1-.53.63,6.37,6.37,0,0,1-1.63,1,6.08,6.08,0,0,1-2.78.65,6.47,6.47,0,0,1-4.81-1.75A7.17,7.17,0,0,1,230.05,321.1Z"/><path d="M250.35,327.57V309h2.59v1.79H253a4.88,4.88,0,0,1,2-1.66,6.09,6.09,0,0,1,2.76-.65,5.47,5.47,0,0,1,3,.79,5.61,5.61,0,0,1,1.91,1.94h.07a5.53,5.53,0,0,1,2-1.92,6.18,6.18,0,0,1,3.17-.81,6,6,0,0,1,6.4,6.44v12.63h-2.76V315.81q0-4.69-3.78-4.69a3.84,3.84,0,0,0-3,1.17,4.68,4.68,0,0,0-1.07,3.27v12H261V315.81q0-4.69-3.78-4.69a3.6,3.6,0,0,0-3,1.24,5,5,0,0,0-1,3.2v12Z"/><path d="M301.17,327.57v-1.79h-.07a6.73,6.73,0,0,1-2.15,1.59,7.8,7.8,0,0,1-9.13-1.94,10.89,10.89,0,0,1-2.19-7.14,10.57,10.57,0,0,1,2.29-7.12,7.26,7.26,0,0,1,5.76-2.68,6.42,6.42,0,0,1,5.15,2.31h.07V302h2.87v25.55Zm-.28-6.16v-5.74a4.58,4.58,0,0,0-1.29-3.17,4.46,4.46,0,0,0-3.46-1.42,5,5,0,0,0-4.2,1.89,10.58,10.58,0,0,0,0,10.64,5,5,0,0,0,4.2,1.89,4.89,4.89,0,0,0,3.4-1.22A3.75,3.75,0,0,0,300.89,321.41Z"/><path d="M316.92,328.1a7.86,7.86,0,0,1-6.05-2.59,10.25,10.25,0,0,1-2.38-7.21,10.1,10.1,0,0,1,2.45-7.17,7.87,7.87,0,0,1,6-2.62,7.67,7.67,0,0,1,5.9,2.63,10.24,10.24,0,0,1,2.4,7.17,10.35,10.35,0,0,1-2.35,7.21A7.67,7.67,0,0,1,316.92,328.1Zm0-2.59a4.84,4.84,0,0,0,3.9-1.91,9.86,9.86,0,0,0,0-10.6,4.83,4.83,0,0,0-3.92-1.91,5,5,0,0,0-4,1.87,9.83,9.83,0,0,0,0,10.67A5,5,0,0,0,316.92,325.51Z"/><path d="M329.94,327.57V302h2.91v25.55Z"/><path d="M346,328.1a7.86,7.86,0,0,1-6.05-2.59,10.25,10.25,0,0,1-2.38-7.21,10.1,10.1,0,0,1,2.45-7.17,7.87,7.87,0,0,1,6-2.62,7.67,7.67,0,0,1,5.9,2.63,10.24,10.24,0,0,1,2.4,7.17,10.35,10.35,0,0,1-2.35,7.21A7.67,7.67,0,0,1,346,328.1Zm0-2.59a4.84,4.84,0,0,0,3.9-1.91,9.86,9.86,0,0,0,0-10.6,4.83,4.83,0,0,0-3.92-1.91,5,5,0,0,0-4,1.87,9.83,9.83,0,0,0,0,10.67A5,5,0,0,0,346,325.51Z"/><path d="M359,327.57V309h2.73v2h.07a3.89,3.89,0,0,1,1.64-1.71,4.54,4.54,0,0,1,2.21-.6,3.84,3.84,0,0,1,.82.09q.4.09.61.16l.18.11-.53,2.83a3.17,3.17,0,0,0-1.47-.28,2.91,2.91,0,0,0-2.59,1.17,6.79,6.79,0,0,0-.81,3.76v11Z"/><path d="M378.66,321.27l2.69-.53q.53,4.87,5.15,4.87a5.6,5.6,0,0,0,3.31-.8,2.52,2.52,0,0,0,1.1-2.14,2.37,2.37,0,0,0-1-2.1,17.11,17.11,0,0,0-4.32-1.61,13.1,13.1,0,0,1-4.83-2.13,4,4,0,0,1-1.4-3.22A4.66,4.66,0,0,1,381,310a6.87,6.87,0,0,1,4.72-1.52A7.43,7.43,0,0,1,390.6,310a7,7,0,0,1,2.38,3.87l-2.48.67a4.54,4.54,0,0,0-4.73-3.54,4.45,4.45,0,0,0-2.8.77,2.27,2.27,0,0,0-1,1.82,1.86,1.86,0,0,0,.94,1.71,23.21,23.21,0,0,0,4.34,1.54,12,12,0,0,1,5,2.33,4.85,4.85,0,0,1,1.38,3.55,5,5,0,0,1-1.77,3.82,9.37,9.37,0,0,1-10.92-.3A7.78,7.78,0,0,1,378.66,321.27Z"/><path d="M398.16,305.28V302h3.29v3.25Zm.21,22.29V309h2.87v18.55Z"/><path d="M408.06,322.19V311.58h-2.59V309h2.66v-4.55h2.73V309h4.58v2.55H410.9v10.25a4.3,4.3,0,0,0,.46,2.31,2.08,2.08,0,0,0,1.82.67h1.4v2.76H413a4.79,4.79,0,0,1-3.8-1.35A6,6,0,0,1,408.06,322.19Z"/><path d="M439.53,327.57v-2h-.07a5.09,5.09,0,0,1-2,1.73,7.45,7.45,0,0,1-3.68.82,6.56,6.56,0,0,1-4.67-1.51,5,5,0,0,1-1.59-3.78,4.69,4.69,0,0,1,1.42-3.62,11.38,11.38,0,0,1,4.81-2.19l1.87-.49q.61-.18,1.42-.47a4.32,4.32,0,0,0,1.16-.58,2.76,2.76,0,0,0,.61-.7,1.74,1.74,0,0,0,.26-.95,2.46,2.46,0,0,0-1-2,4.55,4.55,0,0,0-2.92-.79,4.2,4.2,0,0,0-4.51,3.67l-2.59-.74a6.58,6.58,0,0,1,2.28-4,7.12,7.12,0,0,1,4.72-1.52,7.61,7.61,0,0,1,5.09,1.59q1.87,1.59,1.87,5v12.5Zm-5.11-8.37a8.56,8.56,0,0,0-3.24,1.44,2.56,2.56,0,0,0-.86,2q0,2.9,3.67,2.9a5.91,5.91,0,0,0,3.89-1.14,3.49,3.49,0,0,0,1.36-2.78V317h-.07Q438.69,318,434.42,319.21Z"/><path d="M447.65,327.57V309h2.59v1.79h.07a4.89,4.89,0,0,1,2-1.66,6.1,6.1,0,0,1,2.77-.65,5.47,5.47,0,0,1,3,.79,5.61,5.61,0,0,1,1.91,1.94H460a5.54,5.54,0,0,1,2-1.92,6.17,6.17,0,0,1,3.17-.81,6,6,0,0,1,6.41,6.44v12.63h-2.77V315.81q0-4.69-3.78-4.69a3.84,3.84,0,0,0-3,1.17,4.68,4.68,0,0,0-1.07,3.27v12h-2.76V315.81q0-4.69-3.78-4.69a3.6,3.6,0,0,0-3,1.24,5,5,0,0,0-1,3.2v12Z"/><path d="M490.24,321.87l2.31,1.5a9.23,9.23,0,0,1-3,3.38,8.18,8.18,0,0,1-4.78,1.35,8,8,0,0,1-6.2-2.68,10.23,10.23,0,0,1-2.42-7.12,10.37,10.37,0,0,1,2.36-7.12,7.77,7.77,0,0,1,6.11-2.68,7.64,7.64,0,0,1,6,2.63A10.48,10.48,0,0,1,493,318.3v.84H479a7.25,7.25,0,0,0,1.49,4.51,5,5,0,0,0,4.18,1.85,6.28,6.28,0,0,0,2-.3,7,7,0,0,0,1.4-.59,4.17,4.17,0,0,0,1-1,10.71,10.71,0,0,0,.67-.89Q489.89,322.54,490.24,321.87Zm-11.13-5h11a6.78,6.78,0,0,0-1.4-4.06,5.61,5.61,0,0,0-8.19.12A6.56,6.56,0,0,0,479.11,316.86Z"/><path d="M498.36,322.19V311.58h-2.59V309h2.66v-4.55h2.73V309h4.58v2.55h-4.55v10.25a4.3,4.3,0,0,0,.46,2.31,2.08,2.08,0,0,0,1.82.67h1.4v2.76h-1.54a4.79,4.79,0,0,1-3.8-1.35A6,6,0,0,1,498.36,322.19Z"/><path d="M510.65,331.28v-1.58a1.92,1.92,0,0,0,1.68-2.13h-1.68v-4.13h4.13V327Q514.77,331,510.65,331.28Z"/><path d="M84.91,358.47l2.77.56a8.29,8.29,0,0,1-2.55,5.14,7.38,7.38,0,0,1-5.18,1.93,7.81,7.81,0,0,1-6.09-2.61,10.36,10.36,0,0,1-2.35-7.19,10.2,10.2,0,0,1,2.42-7.16,7.82,7.82,0,0,1,6-2.64A7.25,7.25,0,0,1,85,348.39a8,8,0,0,1,2.54,4.9l-2.69.56a7.22,7.22,0,0,0-1.61-3.41,4.16,4.16,0,0,0-3.29-1.35A5,5,0,0,0,75.88,351a8.22,8.22,0,0,0-1.54,5.3,8.37,8.37,0,0,0,1.5,5.29A5,5,0,0,0,80,363.51,4.24,4.24,0,0,0,83.34,362,6.64,6.64,0,0,0,84.91,358.47Z"/><path d="M99.44,366.1a7.86,7.86,0,0,1-6.05-2.59A10.25,10.25,0,0,1,91,356.3a10.1,10.1,0,0,1,2.45-7.17,7.87,7.87,0,0,1,6-2.62,7.68,7.68,0,0,1,5.9,2.63,10.24,10.24,0,0,1,2.4,7.17,10.35,10.35,0,0,1-2.35,7.21A7.67,7.67,0,0,1,99.44,366.1Zm0-2.59a4.84,4.84,0,0,0,3.9-1.91,9.85,9.85,0,0,0,0-10.6,4.83,4.83,0,0,0-3.92-1.91,5,5,0,0,0-4,1.87,9.84,9.84,0,0,0,0,10.67A5,5,0,0,0,99.44,363.51Z"/><path d="M112.46,365.57V347h2.8v1.79h.07a5.56,5.56,0,0,1,2.2-1.66,7.24,7.24,0,0,1,3-.65,6.52,6.52,0,0,1,4.85,1.86,6.85,6.85,0,0,1,1.84,5v12.18h-2.83V354.31q0-5.18-4.27-5.18a4.9,4.9,0,0,0-3.48,1.23,4.42,4.42,0,0,0-1.31,3.39v11.83Z"/><path d="M131.6,359.27l2.7-.53q.52,4.87,5.14,4.87a5.6,5.6,0,0,0,3.31-.8,2.52,2.52,0,0,0,1.1-2.14,2.37,2.37,0,0,0-1-2.1A17.07,17.07,0,0,0,138.5,357a13.1,13.1,0,0,1-4.83-2.13,4,4,0,0,1-1.4-3.22A4.66,4.66,0,0,1,134,348a6.87,6.87,0,0,1,4.73-1.52,7.43,7.43,0,0,1,4.83,1.45,7,7,0,0,1,2.38,3.87l-2.48.67a4.54,4.54,0,0,0-4.72-3.54,4.45,4.45,0,0,0-2.8.77,2.27,2.27,0,0,0-1,1.82,1.86,1.86,0,0,0,.95,1.71,23.21,23.21,0,0,0,4.34,1.54,12,12,0,0,1,5,2.33,4.84,4.84,0,0,1,1.38,3.55,5,5,0,0,1-1.77,3.82,9.37,9.37,0,0,1-10.92-.3A7.78,7.78,0,0,1,131.6,359.27Z"/><path d="M163.94,359.87l2.31,1.5a9.23,9.23,0,0,1-3,3.38,8.19,8.19,0,0,1-4.78,1.35,8,8,0,0,1-6.19-2.68,10.23,10.23,0,0,1-2.42-7.12,10.37,10.37,0,0,1,2.36-7.12,7.77,7.77,0,0,1,6.11-2.68,7.64,7.64,0,0,1,6,2.63,10.49,10.49,0,0,1,2.31,7.17v.84H152.74a7.25,7.25,0,0,0,1.49,4.51,5,5,0,0,0,4.18,1.85,6.28,6.28,0,0,0,2-.3,7,7,0,0,0,1.4-.59,4.17,4.17,0,0,0,1-1,10.71,10.71,0,0,0,.67-.89C163.55,360.6,163.71,360.31,163.94,359.87Zm-11.13-5h11a6.77,6.77,0,0,0-1.4-4.06,5.61,5.61,0,0,0-8.19.12A6.56,6.56,0,0,0,152.81,354.86Z"/><path d="M183.57,358.47l2.76.56a8.29,8.29,0,0,1-2.55,5.14,7.38,7.38,0,0,1-5.18,1.93,7.81,7.81,0,0,1-6.09-2.61,10.36,10.36,0,0,1-2.35-7.19,10.2,10.2,0,0,1,2.42-7.16,7.82,7.82,0,0,1,6-2.64,7.26,7.26,0,0,1,5.06,1.89,8,8,0,0,1,2.54,4.9l-2.69.56a7.22,7.22,0,0,0-1.61-3.41,4.16,4.16,0,0,0-3.29-1.35,5,5,0,0,0-4.06,1.91,8.22,8.22,0,0,0-1.54,5.3,8.38,8.38,0,0,0,1.5,5.29,5,5,0,0,0,4.13,1.92A4.24,4.24,0,0,0,182,362,6.64,6.64,0,0,0,183.57,358.47Z"/><path d="M191.55,360.19V349.58H189V347h2.66v-4.55h2.73V347h4.58v2.55h-4.55v10.25a4.28,4.28,0,0,0,.46,2.31,2.07,2.07,0,0,0,1.82.67h1.4v2.76h-1.54a4.79,4.79,0,0,1-3.8-1.35A6,6,0,0,1,191.55,360.19Z"/><path d="M215.63,359.87l2.31,1.5a9.23,9.23,0,0,1-3,3.38,8.19,8.19,0,0,1-4.78,1.35,8,8,0,0,1-6.19-2.68,10.23,10.23,0,0,1-2.42-7.12,10.37,10.37,0,0,1,2.36-7.12A7.77,7.77,0,0,1,210,346.5a7.64,7.64,0,0,1,6,2.63,10.48,10.48,0,0,1,2.31,7.17v.84H204.44a7.26,7.26,0,0,0,1.49,4.51,5,5,0,0,0,4.18,1.85,6.27,6.27,0,0,0,2-.3,7,7,0,0,0,1.4-.59,4.19,4.19,0,0,0,1-1,10.61,10.61,0,0,0,.66-.89Q215.28,360.54,215.63,359.87Zm-11.13-5h11a6.77,6.77,0,0,0-1.4-4.06,5.61,5.61,0,0,0-8.19.12A6.56,6.56,0,0,0,204.5,354.86Z"/><path d="M223.75,360.19V349.58h-2.59V347h2.66v-4.55h2.73V347h4.58v2.55h-4.55v10.25a4.28,4.28,0,0,0,.46,2.31,2.07,2.07,0,0,0,1.82.67h1.4v2.76h-1.54a4.79,4.79,0,0,1-3.8-1.35A6,6,0,0,1,223.75,360.19Z"/><path d="M235.51,359.1V347h2.87v11.66a5.4,5.4,0,0,0,1,3.67,4.32,4.32,0,0,0,3.31,1.08,4,4,0,0,0,3.22-1.29,5.33,5.33,0,0,0,1.12-3.61V347h2.83v18.55h-2.8v-1.79H247a7.43,7.43,0,0,1-.53.63,6.39,6.39,0,0,1-1.63,1,6.08,6.08,0,0,1-2.78.65,6.47,6.47,0,0,1-4.81-1.75A7.18,7.18,0,0,1,235.51,359.1Z"/><path d="M268.66,359.87l2.31,1.5a9.22,9.22,0,0,1-3,3.38,8.18,8.18,0,0,1-4.78,1.35,8,8,0,0,1-6.2-2.68,10.23,10.23,0,0,1-2.42-7.12,10.38,10.38,0,0,1,2.36-7.12,7.77,7.77,0,0,1,6.11-2.68,7.64,7.64,0,0,1,6,2.63,10.48,10.48,0,0,1,2.31,7.17v.84H257.46a7.26,7.26,0,0,0,1.49,4.51,5,5,0,0,0,4.18,1.85,6.27,6.27,0,0,0,2-.3,6.94,6.94,0,0,0,1.4-.59,4.16,4.16,0,0,0,1-1,10.71,10.71,0,0,0,.67-.89C268.27,360.6,268.43,360.31,268.66,359.87Zm-11.13-5h11a6.77,6.77,0,0,0-1.4-4.06,5.61,5.61,0,0,0-8.19.12A6.56,6.56,0,0,0,257.53,354.86Z"/><path d="M276.11,365.57V347h2.73v2h.07a3.88,3.88,0,0,1,1.64-1.71,4.54,4.54,0,0,1,2.21-.6,3.86,3.86,0,0,1,.82.09c.27.06.47.11.61.16l.18.11-.53,2.83a3.16,3.16,0,0,0-1.47-.28,2.91,2.91,0,0,0-2.59,1.17,6.79,6.79,0,0,0-.81,3.76v11Z"/><path d="M307.93,365.57v-2h-.07a5.09,5.09,0,0,1-2,1.73,7.45,7.45,0,0,1-3.68.82,6.56,6.56,0,0,1-4.67-1.51,5,5,0,0,1-1.59-3.78,4.69,4.69,0,0,1,1.42-3.62,11.38,11.38,0,0,1,4.81-2.19l1.87-.49q.61-.18,1.42-.47a4.32,4.32,0,0,0,1.16-.58,2.76,2.76,0,0,0,.61-.7,1.74,1.74,0,0,0,.26-.95,2.46,2.46,0,0,0-1-2,4.55,4.55,0,0,0-2.92-.79,4.2,4.2,0,0,0-4.51,3.67l-2.59-.74a6.58,6.58,0,0,1,2.28-4,7.12,7.12,0,0,1,4.72-1.52,7.61,7.61,0,0,1,5.09,1.59q1.87,1.59,1.87,5v12.5Zm-5.11-8.37a8.56,8.56,0,0,0-3.24,1.44,2.56,2.56,0,0,0-.86,2q0,2.9,3.67,2.9a5.91,5.91,0,0,0,3.89-1.14,3.49,3.49,0,0,0,1.36-2.78V355h-.07Q307.09,356,302.82,357.21Z"/><path d="M328.37,365.57v-1.79h-.07a6.73,6.73,0,0,1-2.15,1.59,7.8,7.8,0,0,1-9.13-1.94,10.89,10.89,0,0,1-2.19-7.14,10.57,10.57,0,0,1,2.29-7.12,7.26,7.26,0,0,1,5.76-2.68,6.42,6.42,0,0,1,5.15,2.31h.07V340H331v25.55Zm-.28-6.16v-5.74a4.58,4.58,0,0,0-1.29-3.17,4.46,4.46,0,0,0-3.46-1.42,5,5,0,0,0-4.2,1.89,10.58,10.58,0,0,0,0,10.64,5,5,0,0,0,4.2,1.89,4.89,4.89,0,0,0,3.4-1.22A3.75,3.75,0,0,0,328.09,359.41Z"/><path d="M336.91,343.28V340h3.29v3.25Zm.21,22.29V347H340v18.55Z"/><path d="M346.15,373.45V347h2.73v1.79h.07a6.35,6.35,0,0,1,2.1-1.59,7,7,0,0,1,3.22-.72,7.31,7.31,0,0,1,5.78,2.68,10.52,10.52,0,0,1,2.31,7.12,10.73,10.73,0,0,1-2.24,7.14,7.28,7.28,0,0,1-5.85,2.66,6.8,6.8,0,0,1-3.15-.74,5.52,5.52,0,0,1-2-1.58H349v9.66ZM349,353.6v5.88a3.66,3.66,0,0,0,1.37,2.82,4.94,4.94,0,0,0,3.4,1.21,5.09,5.09,0,0,0,4.25-1.89A10.17,10.17,0,0,0,358,351a5.09,5.09,0,0,0-4.23-1.91,4.51,4.51,0,0,0-3.45,1.4A4.45,4.45,0,0,0,349,353.6Z"/><path d="M367.08,343.28V340h3.29v3.25Zm.21,22.29V347h2.87v18.55Z"/><path d="M374.92,359.27l2.69-.53q.53,4.87,5.15,4.87a5.6,5.6,0,0,0,3.31-.8,2.52,2.52,0,0,0,1.1-2.14,2.37,2.37,0,0,0-1-2.1,17.11,17.11,0,0,0-4.32-1.61,13.1,13.1,0,0,1-4.83-2.13,4,4,0,0,1-1.4-3.22A4.66,4.66,0,0,1,377.3,348,6.87,6.87,0,0,1,382,346.5a7.43,7.43,0,0,1,4.83,1.45,7,7,0,0,1,2.38,3.87l-2.48.67a4.54,4.54,0,0,0-4.73-3.54,4.45,4.45,0,0,0-2.8.77,2.27,2.27,0,0,0-1,1.82,1.86,1.86,0,0,0,.94,1.71,23.21,23.21,0,0,0,4.34,1.54,12,12,0,0,1,5,2.33,4.85,4.85,0,0,1,1.38,3.55,5,5,0,0,1-1.77,3.82,9.37,9.37,0,0,1-10.92-.3A7.78,7.78,0,0,1,374.92,359.27Z"/><path d="M406.59,358.47l2.76.56a8.3,8.3,0,0,1-2.55,5.14,7.38,7.38,0,0,1-5.18,1.93,7.81,7.81,0,0,1-6.09-2.61,10.37,10.37,0,0,1-2.34-7.19,10.2,10.2,0,0,1,2.42-7.16,7.82,7.82,0,0,1,6-2.64,7.25,7.25,0,0,1,5.06,1.89,8,8,0,0,1,2.54,4.9l-2.7.56a7.22,7.22,0,0,0-1.61-3.41,4.16,4.16,0,0,0-3.29-1.35,5,5,0,0,0-4.06,1.91,8.22,8.22,0,0,0-1.54,5.3,8.38,8.38,0,0,0,1.5,5.29,5,5,0,0,0,4.13,1.92A4.24,4.24,0,0,0,405,362,6.64,6.64,0,0,0,406.59,358.47Z"/><path d="M413.9,343.28V340h3.29v3.25Zm.21,22.29V347H417v18.55Z"/><path d="M423.14,365.57V347h2.8v1.79H426a5.57,5.57,0,0,1,2.21-1.66,7.24,7.24,0,0,1,3-.65,6.52,6.52,0,0,1,4.85,1.86,6.85,6.85,0,0,1,1.84,5v12.18h-2.83V354.31q0-5.18-4.27-5.18a4.9,4.9,0,0,0-3.48,1.23,4.42,4.42,0,0,0-1.31,3.39v11.83Z"/><path d="M443.86,368.94l2.42-1.23a6.68,6.68,0,0,0,1.73,2.71,5.32,5.32,0,0,0,6.6-.32,5.15,5.15,0,0,0,1.23-3.66V364h-.07a6.39,6.39,0,0,1-5.14,2.14,7.35,7.35,0,0,1-5.92-2.66,10.72,10.72,0,0,1-2.24-7.14,10.47,10.47,0,0,1,2.33-7.12,7.37,7.37,0,0,1,5.79-2.68,6.31,6.31,0,0,1,5.21,2.31h.07V347h2.8v18.83a8.44,8.44,0,0,1-2,6,7.19,7.19,0,0,1-5.48,2.08,7.71,7.71,0,0,1-4.71-1.38A7.36,7.36,0,0,1,443.86,368.94Zm12-9.45V353.6a4.45,4.45,0,0,0-1.31-3.12,4.55,4.55,0,0,0-3.48-1.4,5,5,0,0,0-4.22,1.91,10.28,10.28,0,0,0,0,10.62,5,5,0,0,0,4.24,1.89,5,5,0,0,0,3.43-1.21A3.66,3.66,0,0,0,455.83,359.48Z"/><path d="M486,359.87l2.31,1.5a9.23,9.23,0,0,1-3,3.38,8.18,8.18,0,0,1-4.78,1.35,8,8,0,0,1-6.2-2.68A10.23,10.23,0,0,1,472,356.3a10.37,10.37,0,0,1,2.36-7.12,7.77,7.77,0,0,1,6.11-2.68,7.64,7.64,0,0,1,6,2.63,10.48,10.48,0,0,1,2.31,7.17v.84H474.84a7.25,7.25,0,0,0,1.49,4.51,5,5,0,0,0,4.18,1.85,6.28,6.28,0,0,0,2-.3,7,7,0,0,0,1.4-.59,4.17,4.17,0,0,0,1-1,10.71,10.71,0,0,0,.67-.89Q485.69,360.54,486,359.87Zm-11.13-5h11a6.78,6.78,0,0,0-1.4-4.06,5.61,5.61,0,0,0-8.19.12A6.56,6.56,0,0,0,474.91,354.86Z"/><path d="M493.49,365.57V340h2.91v25.55Z"/><path d="M502.35,343.28V340h3.29v3.25Zm.21,22.29V347h2.87v18.55Z"/><path d="M512.25,360.19V349.58h-2.59V347h2.66v-4.55h2.73V347h4.58v2.55h-4.55v10.25a4.3,4.3,0,0,0,.46,2.31,2.08,2.08,0,0,0,1.82.67h1.4v2.76h-1.54a4.79,4.79,0,0,1-3.8-1.35A6,6,0,0,1,512.25,360.19Z"/><path d="M524.54,369.28v-1.58a1.92,1.92,0,0,0,1.68-2.13h-1.68v-4.13h4.13V365Q528.67,369,524.54,369.28Z"/><path d="M71.33,397.27l2.69-.53q.53,4.87,5.15,4.87a5.6,5.6,0,0,0,3.31-.8,2.52,2.52,0,0,0,1.1-2.14,2.37,2.37,0,0,0-1-2.1A17.12,17.12,0,0,0,78.23,395a13.09,13.09,0,0,1-4.83-2.13,4,4,0,0,1-1.4-3.22A4.66,4.66,0,0,1,73.71,386a6.87,6.87,0,0,1,4.72-1.52A7.43,7.43,0,0,1,83.27,386a7,7,0,0,1,2.38,3.87l-2.49.67a4.54,4.54,0,0,0-4.72-3.54,4.45,4.45,0,0,0-2.8.77,2.27,2.27,0,0,0-1,1.82,1.86,1.86,0,0,0,.95,1.71,23.16,23.16,0,0,0,4.34,1.54,12,12,0,0,1,5,2.33,4.85,4.85,0,0,1,1.38,3.55,5,5,0,0,1-1.77,3.82,7.64,7.64,0,0,1-5.3,1.61,7.69,7.69,0,0,1-5.62-1.91A7.78,7.78,0,0,1,71.33,397.27Z"/><path d="M103.67,397.87l2.31,1.5a9.22,9.22,0,0,1-3,3.38,8.18,8.18,0,0,1-4.78,1.35,8,8,0,0,1-6.2-2.68,10.23,10.23,0,0,1-2.42-7.12A10.38,10.38,0,0,1,92,387.18a7.77,7.77,0,0,1,6.11-2.68,7.64,7.64,0,0,1,6,2.63,10.48,10.48,0,0,1,2.31,7.17v.84H92.47A7.26,7.26,0,0,0,94,399.65a5,5,0,0,0,4.18,1.85,6.27,6.27,0,0,0,2-.3,6.94,6.94,0,0,0,1.4-.59,4.16,4.16,0,0,0,1-1,10.71,10.71,0,0,0,.67-.89C103.28,398.6,103.44,398.31,103.67,397.87Zm-11.13-5h11a6.77,6.77,0,0,0-1.4-4.06,5.61,5.61,0,0,0-8.19.12A6.56,6.56,0,0,0,92.54,392.86Z"/><path d="M123.45,403.57v-1.79h-.07a6.74,6.74,0,0,1-2.15,1.59,7.8,7.8,0,0,1-9.13-1.94,10.89,10.89,0,0,1-2.19-7.14,10.58,10.58,0,0,1,2.29-7.12A7.26,7.26,0,0,1,118,384.5a6.42,6.42,0,0,1,5.15,2.31h.07V378H126v25.55Zm-.28-6.16v-5.74a4.59,4.59,0,0,0-1.29-3.17,4.47,4.47,0,0,0-3.47-1.42,5,5,0,0,0-4.2,1.89,10.57,10.57,0,0,0,0,10.64,5,5,0,0,0,4.2,1.89,4.89,4.89,0,0,0,3.4-1.22A3.75,3.75,0,0,0,123.17,397.41Z"/><path d="M153.06,403.57v-1.79H153a6.74,6.74,0,0,1-2.15,1.59,7.8,7.8,0,0,1-9.13-1.94,10.89,10.89,0,0,1-2.19-7.14,10.57,10.57,0,0,1,2.29-7.12,7.26,7.26,0,0,1,5.76-2.68,6.42,6.42,0,0,1,5.15,2.31h.07V378h2.87v25.55Zm-.28-6.16v-5.74a4.59,4.59,0,0,0-1.29-3.17,4.47,4.47,0,0,0-3.47-1.42,5,5,0,0,0-4.2,1.89,10.58,10.58,0,0,0,0,10.64,5,5,0,0,0,4.2,1.89,4.89,4.89,0,0,0,3.4-1.22A3.75,3.75,0,0,0,152.78,397.41Z"/><path d="M161.6,381.28V378h3.29v3.25Zm.21,22.29V385h2.87v18.55Z"/><path d="M181.62,403.57v-2h-.07a5.1,5.1,0,0,1-2,1.73,7.45,7.45,0,0,1-3.67.82,6.56,6.56,0,0,1-4.67-1.51,5,5,0,0,1-1.59-3.78,4.69,4.69,0,0,1,1.42-3.62,11.38,11.38,0,0,1,4.81-2.19l1.87-.49q.61-.18,1.42-.47a4.32,4.32,0,0,0,1.16-.58,2.76,2.76,0,0,0,.61-.7,1.74,1.74,0,0,0,.26-.95,2.46,2.46,0,0,0-1-2,4.55,4.55,0,0,0-2.92-.79,4.2,4.2,0,0,0-4.51,3.67l-2.59-.74a6.57,6.57,0,0,1,2.27-4,7.12,7.12,0,0,1,4.73-1.52,7.6,7.6,0,0,1,5.09,1.59q1.87,1.59,1.87,5v12.5Zm-5.11-8.37a8.55,8.55,0,0,0-3.24,1.44,2.56,2.56,0,0,0-.86,2q0,2.9,3.67,2.9a5.91,5.91,0,0,0,3.88-1.14,3.49,3.49,0,0,0,1.37-2.78V393h-.07Q180.78,394,176.51,395.21Z"/><path d="M189.74,403.57V385h2.59v1.79h.07a4.88,4.88,0,0,1,2-1.66,6.09,6.09,0,0,1,2.76-.65,5.47,5.47,0,0,1,3,.79,5.61,5.61,0,0,1,1.91,1.94h.07a5.53,5.53,0,0,1,2-1.92,6.18,6.18,0,0,1,3.17-.81,6,6,0,0,1,6.4,6.44v12.63h-2.76V391.81q0-4.69-3.78-4.69a3.84,3.84,0,0,0-3,1.17,4.68,4.68,0,0,0-1.07,3.27v12h-2.76V391.81q0-4.69-3.78-4.69a3.6,3.6,0,0,0-3,1.24,5,5,0,0,0-1,3.2v12Z"/><path d="M228.24,403.57V385H231v1.79h.07a5.57,5.57,0,0,1,2.21-1.66,7.24,7.24,0,0,1,3-.65,6.52,6.52,0,0,1,4.85,1.86,6.85,6.85,0,0,1,1.84,5v12.18h-2.83V392.31q0-5.18-4.27-5.18a4.9,4.9,0,0,0-3.48,1.23,4.42,4.42,0,0,0-1.31,3.39v11.83Z"/><path d="M256,404.1a7.86,7.86,0,0,1-6.05-2.59,10.25,10.25,0,0,1-2.38-7.21,10.1,10.1,0,0,1,2.45-7.17,7.87,7.87,0,0,1,6-2.62,7.68,7.68,0,0,1,5.9,2.63,10.24,10.24,0,0,1,2.4,7.17,10.35,10.35,0,0,1-2.35,7.21A7.67,7.67,0,0,1,256,404.1Zm0-2.59a4.84,4.84,0,0,0,3.9-1.91,9.85,9.85,0,0,0,0-10.6,4.83,4.83,0,0,0-3.92-1.91,5,5,0,0,0-4,1.87,9.84,9.84,0,0,0,0,10.67A5,5,0,0,0,256,401.51Z"/><path d="M269,403.57V385h2.8v1.79h.07a5.56,5.56,0,0,1,2.2-1.66,7.24,7.24,0,0,1,3-.65,6.52,6.52,0,0,1,4.85,1.86,6.84,6.84,0,0,1,1.84,5v12.18h-2.83V392.31q0-5.18-4.27-5.18a4.9,4.9,0,0,0-3.48,1.23,4.42,4.42,0,0,0-1.31,3.39v11.83Z"/><path d="M289.38,397.1V385h2.87v11.66a5.39,5.39,0,0,0,1,3.67,4.32,4.32,0,0,0,3.31,1.08,4,4,0,0,0,3.22-1.29,5.34,5.34,0,0,0,1.12-3.61V385h2.83v18.55h-2.8v-1.79h-.07a7.24,7.24,0,0,1-.53.63,6.41,6.41,0,0,1-1.63,1,6.09,6.09,0,0,1-2.78.65,6.47,6.47,0,0,1-4.81-1.75A7.18,7.18,0,0,1,289.38,397.1Z"/><path d="M309.68,403.57V385h2.59v1.79h.07a4.89,4.89,0,0,1,2-1.66,6.1,6.1,0,0,1,2.77-.65,5.47,5.47,0,0,1,3,.79,5.61,5.61,0,0,1,1.91,1.94H322a5.54,5.54,0,0,1,2-1.92,6.17,6.17,0,0,1,3.17-.81,6,6,0,0,1,6.41,6.44v12.63h-2.77V391.81q0-4.69-3.78-4.69a3.84,3.84,0,0,0-3,1.17,4.68,4.68,0,0,0-1.07,3.27v12h-2.76V391.81q0-4.69-3.78-4.69a3.6,3.6,0,0,0-3,1.24,5,5,0,0,0-1,3.2v12Z"/><path d="M339.43,403.57V385H342v1.79h.07a4.89,4.89,0,0,1,2-1.66,6.1,6.1,0,0,1,2.77-.65,5.47,5.47,0,0,1,3,.79,5.61,5.61,0,0,1,1.91,1.94h.07a5.54,5.54,0,0,1,2-1.92,6.17,6.17,0,0,1,3.17-.81,6,6,0,0,1,6.41,6.44v12.63h-2.77V391.81q0-4.69-3.78-4.69a3.84,3.84,0,0,0-3,1.17,4.68,4.68,0,0,0-1.07,3.27v12H350V391.81q0-4.69-3.78-4.69a3.6,3.6,0,0,0-3,1.24,5,5,0,0,0-1,3.2v12Z"/><path d="M369.46,411.45l3.71-9.83-7-16.59h3l5.25,12.81h.07L379.26,385h2.94l-10,26.42Z"/><path d="M394.62,403.57V385h2.8v1.79h.07a5.57,5.57,0,0,1,2.21-1.66,7.24,7.24,0,0,1,3-.65,6.52,6.52,0,0,1,4.85,1.86,6.85,6.85,0,0,1,1.84,5v12.18h-2.83V392.31q0-5.18-4.27-5.18a4.9,4.9,0,0,0-3.48,1.23,4.42,4.42,0,0,0-1.31,3.39v11.83Z"/><path d="M415.17,381.28V378h3.29v3.25Zm.21,22.29V385h2.87v18.55Z"/><path d="M424.41,403.57V378h2.87v8.79h.07a6.42,6.42,0,0,1,5.14-2.31,7.23,7.23,0,0,1,5.78,2.7,10.64,10.64,0,0,1,2.28,7.1,10.9,10.9,0,0,1-2.19,7.14,7.8,7.8,0,0,1-9.14,1.94,6.75,6.75,0,0,1-2.15-1.59H427v1.79Zm2.87-11.9v5.74a3.75,3.75,0,0,0,1.37,2.87,4.89,4.89,0,0,0,3.4,1.22,5,5,0,0,0,4.2-1.89,10.57,10.57,0,0,0,0-10.64,5,5,0,0,0-4.2-1.89,4.46,4.46,0,0,0-3.47,1.42A4.58,4.58,0,0,0,427.28,391.67Z"/><path d="M445.27,403.57V378h2.87v8.85h.07a5.5,5.5,0,0,1,2.26-1.71,7.68,7.68,0,0,1,3.17-.67,6.58,6.58,0,0,1,4.81,1.8,6.91,6.91,0,0,1,1.84,5.16v12.11h-2.87V392.23q0-5.11-4.3-5.11a4.93,4.93,0,0,0-3.62,1.33,4.65,4.65,0,0,0-1.35,3.46v11.66Z"/><path d="M85.58,435.87l2.31,1.5a9.23,9.23,0,0,1-3,3.38,8.19,8.19,0,0,1-4.78,1.35,8,8,0,0,1-6.19-2.68,10.23,10.23,0,0,1-2.42-7.12,10.37,10.37,0,0,1,2.36-7.12A7.77,7.77,0,0,1,80,422.5a7.64,7.64,0,0,1,6,2.63,10.49,10.49,0,0,1,2.31,7.17v.84H74.38a7.25,7.25,0,0,0,1.49,4.51A5,5,0,0,0,80,439.51a6.28,6.28,0,0,0,2-.3,7,7,0,0,0,1.4-.59,4.17,4.17,0,0,0,1-1,10.71,10.71,0,0,0,.67-.89C85.19,436.6,85.34,436.31,85.58,435.87Zm-11.13-5h11a6.77,6.77,0,0,0-1.4-4.06,5.61,5.61,0,0,0-8.19.12A6.56,6.56,0,0,0,74.45,430.86Z"/><path d="M92.86,435.1V423h2.87v11.66a5.39,5.39,0,0,0,1,3.67,4.32,4.32,0,0,0,3.31,1.08,4,4,0,0,0,3.22-1.29,5.34,5.34,0,0,0,1.12-3.61V423h2.83v18.55h-2.8v-1.79h-.07a7.2,7.2,0,0,1-.52.63,6.42,6.42,0,0,1-1.63,1,6.08,6.08,0,0,1-2.78.65,6.46,6.46,0,0,1-4.81-1.75A7.17,7.17,0,0,1,92.86,435.1Z"/><path d="M113.16,419.28V416h3.29v3.25Zm.21,22.29V423h2.87v18.55Z"/><path d="M121,435.27l2.69-.53q.53,4.87,5.15,4.87a5.6,5.6,0,0,0,3.31-.8,2.52,2.52,0,0,0,1.1-2.14,2.37,2.37,0,0,0-1-2.1,17.12,17.12,0,0,0-4.32-1.61,13.09,13.09,0,0,1-4.83-2.13,4,4,0,0,1-1.4-3.22,4.66,4.66,0,0,1,1.71-3.59,6.87,6.87,0,0,1,4.72-1.52,7.43,7.43,0,0,1,4.83,1.45,7,7,0,0,1,2.38,3.87l-2.49.67a4.54,4.54,0,0,0-4.72-3.54,4.45,4.45,0,0,0-2.8.77,2.27,2.27,0,0,0-1,1.82,1.86,1.86,0,0,0,.95,1.71,23.16,23.16,0,0,0,4.34,1.54,12,12,0,0,1,5,2.33,4.85,4.85,0,0,1,1.38,3.55,5,5,0,0,1-1.77,3.82,9.37,9.37,0,0,1-10.92-.3A7.78,7.78,0,0,1,121,435.27Z"/><path d="M140.49,441.57V423h2.59v1.79h.07a4.89,4.89,0,0,1,2-1.66,6.1,6.1,0,0,1,2.77-.65,5.47,5.47,0,0,1,3,.79,5.61,5.61,0,0,1,1.91,1.94h.07a5.54,5.54,0,0,1,2-1.92,6.17,6.17,0,0,1,3.17-.81,6,6,0,0,1,6.41,6.44v12.63H161.7V429.81q0-4.69-3.78-4.69a3.84,3.84,0,0,0-3,1.17,4.68,4.68,0,0,0-1.07,3.27v12H151.1V429.81q0-4.69-3.78-4.69a3.6,3.6,0,0,0-3,1.24,5,5,0,0,0-1,3.2v12Z"/><path d="M177.45,442.1a7.86,7.86,0,0,1-6.05-2.59A10.25,10.25,0,0,1,169,432.3a10.1,10.1,0,0,1,2.45-7.17,7.87,7.87,0,0,1,6-2.62,7.68,7.68,0,0,1,5.9,2.63,10.24,10.24,0,0,1,2.4,7.17,10.35,10.35,0,0,1-2.35,7.21A7.67,7.67,0,0,1,177.45,442.1Zm0-2.59a4.84,4.84,0,0,0,3.9-1.91,9.85,9.85,0,0,0,0-10.6,4.83,4.83,0,0,0-3.92-1.91,5,5,0,0,0-4,1.87,9.84,9.84,0,0,0,0,10.67A5,5,0,0,0,177.45,439.51Z"/><path d="M202.79,441.57v-1.79h-.07a6.74,6.74,0,0,1-2.15,1.59,7.8,7.8,0,0,1-9.13-1.94,10.89,10.89,0,0,1-2.19-7.14,10.58,10.58,0,0,1,2.29-7.12,7.26,7.26,0,0,1,5.76-2.68,6.42,6.42,0,0,1,5.15,2.31h.07V416h2.87v25.55Zm-.28-6.16v-5.74a4.59,4.59,0,0,0-1.29-3.17,4.47,4.47,0,0,0-3.47-1.42,5,5,0,0,0-4.2,1.89,10.57,10.57,0,0,0,0,10.64,5,5,0,0,0,4.2,1.89,4.89,4.89,0,0,0,3.4-1.22A3.75,3.75,0,0,0,202.51,435.41Z"/><path d="M220.75,436.19V425.58h-2.59V423h2.66v-4.55h2.73V423h4.59v2.55h-4.55v10.25a4.3,4.3,0,0,0,.46,2.31,2.07,2.07,0,0,0,1.82.67h1.4v2.76h-1.54a4.79,4.79,0,0,1-3.8-1.35A6,6,0,0,1,220.75,436.19Z"/><path d="M232.68,419.28V416H236v3.25Zm.21,22.29V423h2.87v18.55Z"/><path d="M241.92,441.57V423h2.8v1.79h.07a5.56,5.56,0,0,1,2.2-1.66,7.24,7.24,0,0,1,3-.65,6.52,6.52,0,0,1,4.85,1.86,6.85,6.85,0,0,1,1.84,5v12.18h-2.83V430.31q0-5.18-4.27-5.18a4.9,4.9,0,0,0-3.48,1.23,4.42,4.42,0,0,0-1.31,3.39v11.83Z"/><path d="M274.64,434.47l2.76.56a8.3,8.3,0,0,1-2.55,5.14,7.38,7.38,0,0,1-5.18,1.93,7.81,7.81,0,0,1-6.09-2.61,10.37,10.37,0,0,1-2.34-7.19,10.21,10.21,0,0,1,2.42-7.16,7.82,7.82,0,0,1,6-2.64,7.26,7.26,0,0,1,5.06,1.89,8,8,0,0,1,2.54,4.9l-2.7.56a7.21,7.21,0,0,0-1.61-3.41,4.17,4.17,0,0,0-3.29-1.35,5,5,0,0,0-4.06,1.91,8.22,8.22,0,0,0-1.54,5.3,8.38,8.38,0,0,0,1.5,5.29,5,5,0,0,0,4.13,1.92,4.25,4.25,0,0,0,3.36-1.49A6.65,6.65,0,0,0,274.64,434.47Z"/><path d="M282,419.28V416h3.29v3.25Zm.21,22.29V423H285v18.55Z"/><path d="M303.52,441.57v-1.79h-.07a6.73,6.73,0,0,1-2.15,1.59,7.8,7.8,0,0,1-9.13-1.94A10.89,10.89,0,0,1,290,432.3a10.57,10.57,0,0,1,2.29-7.12A7.26,7.26,0,0,1,298,422.5a6.42,6.42,0,0,1,5.15,2.31h.07V416h2.87v25.55Zm-.28-6.16v-5.74a4.58,4.58,0,0,0-1.29-3.17,4.46,4.46,0,0,0-3.46-1.42,5,5,0,0,0-4.2,1.89,10.58,10.58,0,0,0,0,10.64,5,5,0,0,0,4.2,1.89,4.89,4.89,0,0,0,3.4-1.22A3.75,3.75,0,0,0,303.24,435.41Z"/><path d="M311.88,435.1V423h2.87v11.66a5.39,5.39,0,0,0,1,3.67,4.32,4.32,0,0,0,3.31,1.08,4,4,0,0,0,3.22-1.29,5.34,5.34,0,0,0,1.12-3.61V423h2.83v18.55h-2.8v-1.79h-.07a7.24,7.24,0,0,1-.53.63,6.41,6.41,0,0,1-1.63,1,6.09,6.09,0,0,1-2.78.65,6.47,6.47,0,0,1-4.81-1.75A7.18,7.18,0,0,1,311.88,435.1Z"/><path d="M332.18,441.57V423H335v1.79h.07a5.57,5.57,0,0,1,2.21-1.66,7.24,7.24,0,0,1,3-.65,6.52,6.52,0,0,1,4.85,1.86,6.85,6.85,0,0,1,1.84,5v12.18h-2.83V430.31q0-5.18-4.27-5.18a4.9,4.9,0,0,0-3.48,1.23,4.42,4.42,0,0,0-1.31,3.39v11.83Z"/><path d="M353.39,436.19V425.58H350.8V423h2.66v-4.55h2.73V423h4.58v2.55h-4.55v10.25a4.3,4.3,0,0,0,.46,2.31,2.08,2.08,0,0,0,1.82.67h1.4v2.76h-1.54a4.79,4.79,0,0,1-3.8-1.35A6,6,0,0,1,353.39,436.19Z"/><path d="M373.9,435.1V423h2.87v11.66a5.39,5.39,0,0,0,1,3.67,4.32,4.32,0,0,0,3.31,1.08,4,4,0,0,0,3.22-1.29,5.34,5.34,0,0,0,1.12-3.61V423h2.83v18.55h-2.8v-1.79h-.07a7.24,7.24,0,0,1-.53.63,6.41,6.41,0,0,1-1.63,1,6.09,6.09,0,0,1-2.78.65,6.47,6.47,0,0,1-4.81-1.75A7.18,7.18,0,0,1,373.9,435.1Z"/><path d="M394.87,436.19V425.58h-2.59V423h2.66v-4.55h2.73V423h4.58v2.55H397.7v10.25a4.3,4.3,0,0,0,.46,2.31,2.08,2.08,0,0,0,1.82.67h1.4v2.76h-1.54a4.79,4.79,0,0,1-3.8-1.35A6,6,0,0,1,394.87,436.19Z"/><path d="M415.55,441.57V416h2.91v25.55Z"/><path d="M435.19,441.57v-2h-.07a5.09,5.09,0,0,1-2,1.73,7.45,7.45,0,0,1-3.68.82,6.56,6.56,0,0,1-4.67-1.51,5,5,0,0,1-1.59-3.78,4.69,4.69,0,0,1,1.42-3.62,11.38,11.38,0,0,1,4.81-2.19l1.87-.49q.61-.18,1.42-.47a4.32,4.32,0,0,0,1.16-.58,2.76,2.76,0,0,0,.61-.7,1.74,1.74,0,0,0,.26-.95,2.46,2.46,0,0,0-1-2,4.55,4.55,0,0,0-2.92-.79,4.2,4.2,0,0,0-4.51,3.67l-2.59-.74a6.58,6.58,0,0,1,2.28-4,7.12,7.12,0,0,1,4.72-1.52,7.61,7.61,0,0,1,5.09,1.59q1.87,1.59,1.87,5v12.5Zm-5.11-8.37a8.56,8.56,0,0,0-3.24,1.44,2.56,2.56,0,0,0-.86,2q0,2.9,3.67,2.9a5.91,5.91,0,0,0,3.89-1.14,3.49,3.49,0,0,0,1.36-2.78V431h-.07Q434.35,432,430.08,433.21Z"/><path d="M450.52,442.1a7.86,7.86,0,0,1-6.05-2.59,10.25,10.25,0,0,1-2.38-7.21,10.1,10.1,0,0,1,2.45-7.17,7.87,7.87,0,0,1,6-2.62,7.67,7.67,0,0,1,5.9,2.63,10.24,10.24,0,0,1,2.4,7.17,10.35,10.35,0,0,1-2.35,7.21A7.67,7.67,0,0,1,450.52,442.1Zm0-2.59a4.84,4.84,0,0,0,3.9-1.91,9.86,9.86,0,0,0,0-10.6,4.83,4.83,0,0,0-3.92-1.91,5,5,0,0,0-4,1.87,9.83,9.83,0,0,0,0,10.67A5,5,0,0,0,450.52,439.51Z"/><path d="M463.53,441.57V423h2.73v2h.07a3.89,3.89,0,0,1,1.64-1.71,4.54,4.54,0,0,1,2.21-.6,3.84,3.84,0,0,1,.82.09q.4.09.61.16l.18.11-.53,2.83a3.17,3.17,0,0,0-1.47-.28,2.91,2.91,0,0,0-2.59,1.17,6.79,6.79,0,0,0-.81,3.76v11Z"/><path d="M488.67,435.87l2.31,1.5a9.23,9.23,0,0,1-3,3.38,8.18,8.18,0,0,1-4.78,1.35,8,8,0,0,1-6.2-2.68,10.23,10.23,0,0,1-2.42-7.12,10.37,10.37,0,0,1,2.36-7.12,7.77,7.77,0,0,1,6.11-2.68,7.64,7.64,0,0,1,6,2.63,10.48,10.48,0,0,1,2.31,7.17v.84H477.47a7.25,7.25,0,0,0,1.49,4.51,5,5,0,0,0,4.18,1.85,6.28,6.28,0,0,0,2-.3,7,7,0,0,0,1.4-.59,4.17,4.17,0,0,0,1-1,10.71,10.71,0,0,0,.67-.89Q488.31,436.54,488.67,435.87Zm-11.13-5h11a6.78,6.78,0,0,0-1.4-4.06,5.61,5.61,0,0,0-8.19.12A6.56,6.56,0,0,0,477.54,430.86Z"/><path d="M509,435.87l2.31,1.5a9.23,9.23,0,0,1-3,3.38,8.18,8.18,0,0,1-4.78,1.35,8,8,0,0,1-6.2-2.68,10.23,10.23,0,0,1-2.42-7.12,10.37,10.37,0,0,1,2.36-7.12,7.77,7.77,0,0,1,6.11-2.68,7.64,7.64,0,0,1,6,2.63,10.48,10.48,0,0,1,2.31,7.17v.84H497.77a7.25,7.25,0,0,0,1.49,4.51,5,5,0,0,0,4.18,1.85,6.28,6.28,0,0,0,2-.3,7,7,0,0,0,1.4-.59,4.17,4.17,0,0,0,1-1,10.71,10.71,0,0,0,.67-.89Q508.61,436.54,509,435.87Zm-11.13-5h11a6.78,6.78,0,0,0-1.4-4.06,5.61,5.61,0,0,0-8.19.12A6.56,6.56,0,0,0,497.84,430.86Z"/><path d="M517.08,436.19V425.58h-2.59V423h2.66v-4.55h2.73V423h4.58v2.55h-4.55v10.25a4.3,4.3,0,0,0,.46,2.31,2.08,2.08,0,0,0,1.82.67h1.4v2.76h-1.54a4.79,4.79,0,0,1-3.8-1.35A6,6,0,0,1,517.08,436.19Z"/><path d="M85.05,479.57v-1.79H85a6.74,6.74,0,0,1-2.15,1.59,7.8,7.8,0,0,1-9.13-1.94,10.89,10.89,0,0,1-2.19-7.14,10.57,10.57,0,0,1,2.29-7.12,7.26,7.26,0,0,1,5.76-2.68,6.42,6.42,0,0,1,5.15,2.31h.07V454h2.87v25.55Zm-.28-6.16v-5.74a4.59,4.59,0,0,0-1.29-3.17A4.47,4.47,0,0,0,80,463.09a5,5,0,0,0-4.2,1.89,10.58,10.58,0,0,0,0,10.64,5,5,0,0,0,4.2,1.89,4.89,4.89,0,0,0,3.4-1.22A3.75,3.75,0,0,0,84.77,473.41Z"/><path d="M100.8,480.1a7.86,7.86,0,0,1-6.05-2.59,10.25,10.25,0,0,1-2.38-7.21,10.1,10.1,0,0,1,2.45-7.17,7.87,7.87,0,0,1,6-2.62,7.68,7.68,0,0,1,5.9,2.63,10.24,10.24,0,0,1,2.4,7.17,10.35,10.35,0,0,1-2.35,7.21A7.67,7.67,0,0,1,100.8,480.1Zm0-2.59a4.84,4.84,0,0,0,3.9-1.91,9.85,9.85,0,0,0,0-10.6,4.83,4.83,0,0,0-3.92-1.91,5,5,0,0,0-4,1.87,9.84,9.84,0,0,0,0,10.67A5,5,0,0,0,100.8,477.51Z"/><path d="M113.82,479.57V454h2.9v25.55Z"/><path d="M129.89,480.1a7.86,7.86,0,0,1-6.05-2.59,10.25,10.25,0,0,1-2.38-7.21,10.1,10.1,0,0,1,2.45-7.17,7.87,7.87,0,0,1,6-2.62,7.68,7.68,0,0,1,5.9,2.63,10.24,10.24,0,0,1,2.4,7.17,10.35,10.35,0,0,1-2.35,7.21A7.67,7.67,0,0,1,129.89,480.1Zm0-2.59a4.84,4.84,0,0,0,3.9-1.91,9.85,9.85,0,0,0,0-10.6,4.83,4.83,0,0,0-3.92-1.91,5,5,0,0,0-4,1.87,9.84,9.84,0,0,0,0,10.67A5,5,0,0,0,129.89,477.51Z"/><path d="M142.91,479.57V461h2.73v2h.07a3.89,3.89,0,0,1,1.65-1.71,4.54,4.54,0,0,1,2.21-.6,3.85,3.85,0,0,1,.82.09c.27.06.47.11.61.16l.17.11-.53,2.83a3.16,3.16,0,0,0-1.47-.28,2.91,2.91,0,0,0-2.59,1.17,6.79,6.79,0,0,0-.8,3.76v11Z"/><path d="M168,473.87l2.31,1.5a9.22,9.22,0,0,1-3,3.38,8.18,8.18,0,0,1-4.78,1.35,8,8,0,0,1-6.2-2.68A10.23,10.23,0,0,1,154,470.3a10.38,10.38,0,0,1,2.36-7.12,7.77,7.77,0,0,1,6.11-2.68,7.64,7.64,0,0,1,6,2.63,10.49,10.49,0,0,1,2.31,7.17v.84H156.84a7.26,7.26,0,0,0,1.49,4.51,5,5,0,0,0,4.18,1.85,6.28,6.28,0,0,0,2-.3,7,7,0,0,0,1.4-.59,4.14,4.14,0,0,0,1-1,10.81,10.81,0,0,0,.67-.89Q167.69,474.54,168,473.87Zm-11.13-5h11a6.77,6.77,0,0,0-1.4-4.06,5.61,5.61,0,0,0-8.19.12A6.56,6.56,0,0,0,156.91,468.86Z"/><path d="M184.24,479.57V461h2.59v1.79h.07a4.88,4.88,0,0,1,2-1.66,6.09,6.09,0,0,1,2.76-.65,5.48,5.48,0,0,1,3,.79,5.61,5.61,0,0,1,1.91,1.94h.07a5.54,5.54,0,0,1,2-1.92,6.18,6.18,0,0,1,3.17-.81,6,6,0,0,1,6.41,6.44v12.63h-2.76V467.81q0-4.69-3.78-4.69a3.84,3.84,0,0,0-3,1.17,4.69,4.69,0,0,0-1.07,3.27v12h-2.77V467.81q0-4.69-3.78-4.69a3.6,3.6,0,0,0-3,1.24,5,5,0,0,0-1,3.2v12Z"/><path d="M224.77,479.57v-2h-.07a5.09,5.09,0,0,1-2,1.73,7.45,7.45,0,0,1-3.67.82,6.56,6.56,0,0,1-4.67-1.51,5,5,0,0,1-1.59-3.78,4.7,4.7,0,0,1,1.42-3.62A11.38,11.38,0,0,1,219,469l1.87-.49q.61-.18,1.42-.47a4.29,4.29,0,0,0,1.15-.58,2.76,2.76,0,0,0,.61-.7,1.75,1.75,0,0,0,.26-.95,2.45,2.45,0,0,0-1-2,4.55,4.55,0,0,0-2.92-.79,4.2,4.2,0,0,0-4.51,3.67l-2.59-.74a6.57,6.57,0,0,1,2.27-4,7.12,7.12,0,0,1,4.73-1.52,7.61,7.61,0,0,1,5.09,1.59q1.87,1.59,1.87,5v12.5Zm-5.11-8.37a8.56,8.56,0,0,0-3.24,1.44,2.56,2.56,0,0,0-.86,2q0,2.9,3.68,2.9a5.91,5.91,0,0,0,3.88-1.14,3.49,3.49,0,0,0,1.37-2.78V469h-.07Q223.93,470,219.66,471.21Z"/><path d="M233.06,482.94l2.42-1.23a6.68,6.68,0,0,0,1.73,2.71,5.32,5.32,0,0,0,6.6-.32,5.16,5.16,0,0,0,1.22-3.66V478H245a6.39,6.39,0,0,1-5.14,2.14,7.35,7.35,0,0,1-5.92-2.66,10.73,10.73,0,0,1-2.24-7.14,10.47,10.47,0,0,1,2.33-7.12,7.37,7.37,0,0,1,5.79-2.68,6.31,6.31,0,0,1,5.21,2.31h.07V461h2.8v18.83a8.44,8.44,0,0,1-2,6,7.19,7.19,0,0,1-5.48,2.08,7.71,7.71,0,0,1-4.71-1.38A7.37,7.37,0,0,1,233.06,482.94Zm12-9.45V467.6a4.45,4.45,0,0,0-1.31-3.12,4.55,4.55,0,0,0-3.48-1.4A5,5,0,0,0,236,465a10.28,10.28,0,0,0,0,10.62,5,5,0,0,0,4.24,1.89,5,5,0,0,0,3.43-1.21A3.66,3.66,0,0,0,245,473.48Z"/><path d="M253.64,479.57V461h2.8v1.79h.07a5.56,5.56,0,0,1,2.2-1.66,7.24,7.24,0,0,1,3-.65,6.52,6.52,0,0,1,4.85,1.86,6.85,6.85,0,0,1,1.84,5v12.18h-2.83V468.31q0-5.18-4.27-5.18a4.9,4.9,0,0,0-3.48,1.23,4.42,4.42,0,0,0-1.31,3.39v11.83Z"/><path d="M285,479.57v-2h-.07a5.09,5.09,0,0,1-2,1.73,7.45,7.45,0,0,1-3.68.82,6.56,6.56,0,0,1-4.67-1.51,5,5,0,0,1-1.59-3.78,4.7,4.7,0,0,1,1.42-3.62,11.39,11.39,0,0,1,4.81-2.19l1.87-.49q.61-.18,1.42-.47a4.32,4.32,0,0,0,1.16-.58,2.76,2.76,0,0,0,.61-.7,1.74,1.74,0,0,0,.26-.95,2.46,2.46,0,0,0-1-2,4.55,4.55,0,0,0-2.92-.79,4.2,4.2,0,0,0-4.51,3.67l-2.59-.74a6.58,6.58,0,0,1,2.28-4,7.12,7.12,0,0,1,4.72-1.52,7.61,7.61,0,0,1,5.09,1.59q1.87,1.59,1.87,5v12.5Zm-5.11-8.37a8.56,8.56,0,0,0-3.24,1.44,2.56,2.56,0,0,0-.86,2q0,2.9,3.67,2.9a5.91,5.91,0,0,0,3.89-1.14,3.49,3.49,0,0,0,1.36-2.78V469h-.07Q284.13,470,279.86,471.21Z"/><path d="M312.62,479.57v-2h-.07a5.09,5.09,0,0,1-2,1.73,7.45,7.45,0,0,1-3.68.82,6.56,6.56,0,0,1-4.67-1.51,5,5,0,0,1-1.59-3.78,4.69,4.69,0,0,1,1.42-3.62,11.38,11.38,0,0,1,4.81-2.19l1.87-.49q.61-.18,1.42-.47a4.32,4.32,0,0,0,1.16-.58,2.76,2.76,0,0,0,.61-.7,1.74,1.74,0,0,0,.26-.95,2.46,2.46,0,0,0-1-2,4.55,4.55,0,0,0-2.92-.79,4.2,4.2,0,0,0-4.51,3.67l-2.59-.74a6.58,6.58,0,0,1,2.28-4,7.12,7.12,0,0,1,4.72-1.52,7.61,7.61,0,0,1,5.09,1.59q1.87,1.59,1.87,5v12.5Zm-5.11-8.37a8.56,8.56,0,0,0-3.24,1.44,2.56,2.56,0,0,0-.86,2q0,2.9,3.67,2.9a5.91,5.91,0,0,0,3.89-1.14,3.49,3.49,0,0,0,1.36-2.78V469h-.07Q311.78,470,307.51,471.21Z"/><path d="M320.74,479.57V454h2.91v25.55Z"/><path d="M329.59,457.28V454h3.29v3.25Zm.21,22.29V461h2.87v18.55Z"/><path d="M351,487.45v-9.66h-.07a6.19,6.19,0,0,1-5.21,2.31,7.28,7.28,0,0,1-5.84-2.66,10.72,10.72,0,0,1-2.24-7.14,10.47,10.47,0,0,1,2.33-7.12,7.37,7.37,0,0,1,5.79-2.68,7,7,0,0,1,3.18.7,6.34,6.34,0,0,1,2.14,1.61h.07V461h2.7v26.42Zm0-14V467.6a4.45,4.45,0,0,0-1.31-3.12,4.55,4.55,0,0,0-3.48-1.4A5,5,0,0,0,342,465a10.28,10.28,0,0,0,0,10.62,5,5,0,0,0,4.24,1.89,5,5,0,0,0,3.43-1.21A3.66,3.66,0,0,0,351,473.48Z"/><path d="M359.59,473.1V461h2.87v11.66a5.39,5.39,0,0,0,1,3.67,4.32,4.32,0,0,0,3.31,1.08,4,4,0,0,0,3.22-1.29,5.34,5.34,0,0,0,1.12-3.61V461h2.83v18.55h-2.8v-1.79h-.07a7.24,7.24,0,0,1-.53.63,6.41,6.41,0,0,1-1.63,1,6.09,6.09,0,0,1-2.78.65,6.47,6.47,0,0,1-4.81-1.75A7.18,7.18,0,0,1,359.59,473.1Z"/><path d="M390.67,479.57v-2h-.07a5.09,5.09,0,0,1-2,1.73,7.45,7.45,0,0,1-3.68.82,6.56,6.56,0,0,1-4.67-1.51,5,5,0,0,1-1.59-3.78,4.69,4.69,0,0,1,1.42-3.62,11.38,11.38,0,0,1,4.81-2.19l1.87-.49q.61-.18,1.42-.47a4.32,4.32,0,0,0,1.16-.58,2.76,2.76,0,0,0,.61-.7,1.74,1.74,0,0,0,.26-.95,2.46,2.46,0,0,0-1-2,4.55,4.55,0,0,0-2.92-.79,4.2,4.2,0,0,0-4.51,3.67l-2.59-.74a6.58,6.58,0,0,1,2.28-4,7.12,7.12,0,0,1,4.72-1.52,7.61,7.61,0,0,1,5.09,1.59q1.87,1.59,1.87,5v12.5Zm-5.11-8.37a8.56,8.56,0,0,0-3.24,1.44,2.56,2.56,0,0,0-.86,2q0,2.9,3.67,2.9a5.91,5.91,0,0,0,3.89-1.14,3.49,3.49,0,0,0,1.36-2.78V469h-.07Q389.83,470,385.56,471.21Z"/><path d="M398.78,479.57V461h2.59v1.79h.07a4.89,4.89,0,0,1,2-1.66,6.1,6.1,0,0,1,2.77-.65,5.47,5.47,0,0,1,3,.79,5.61,5.61,0,0,1,1.91,1.94h.07a5.54,5.54,0,0,1,2-1.92,6.17,6.17,0,0,1,3.17-.81,6,6,0,0,1,6.41,6.44v12.63H420V467.81q0-4.69-3.78-4.69a3.84,3.84,0,0,0-3,1.17,4.68,4.68,0,0,0-1.07,3.27v12h-2.76V467.81q0-4.69-3.78-4.69a3.6,3.6,0,0,0-3,1.24,5,5,0,0,0-1,3.2v12Z"/><path d="M450.13,473.87l2.31,1.5a9.23,9.23,0,0,1-3,3.38,8.18,8.18,0,0,1-4.78,1.35,8,8,0,0,1-6.2-2.68,10.23,10.23,0,0,1-2.42-7.12,10.37,10.37,0,0,1,2.36-7.12,7.77,7.77,0,0,1,6.11-2.68,7.64,7.64,0,0,1,6,2.63,10.48,10.48,0,0,1,2.31,7.17v.84H438.93a7.25,7.25,0,0,0,1.49,4.51,5,5,0,0,0,4.18,1.85,6.28,6.28,0,0,0,2-.3,7,7,0,0,0,1.4-.59,4.17,4.17,0,0,0,1-1,10.71,10.71,0,0,0,.67-.89Q449.78,474.54,450.13,473.87Zm-11.13-5h11a6.78,6.78,0,0,0-1.4-4.06,5.61,5.61,0,0,0-8.19.12A6.56,6.56,0,0,0,439,468.86Z"/><path d="M457.58,479.57V461h2.73v2h.07a3.89,3.89,0,0,1,1.64-1.71,4.54,4.54,0,0,1,2.21-.6,3.84,3.84,0,0,1,.82.09q.4.09.61.16l.18.11-.53,2.83a3.17,3.17,0,0,0-1.47-.28,2.91,2.91,0,0,0-2.59,1.17,6.79,6.79,0,0,0-.81,3.76v11Z"/><path d="M480.65,479.57v-2h-.07a5.09,5.09,0,0,1-2,1.73,7.45,7.45,0,0,1-3.68.82,6.56,6.56,0,0,1-4.67-1.51,5,5,0,0,1-1.59-3.78,4.69,4.69,0,0,1,1.42-3.62,11.38,11.38,0,0,1,4.81-2.19l1.87-.49q.61-.18,1.42-.47a4.32,4.32,0,0,0,1.16-.58,2.76,2.76,0,0,0,.61-.7,1.74,1.74,0,0,0,.26-.95,2.46,2.46,0,0,0-1-2,4.55,4.55,0,0,0-2.92-.79,4.2,4.2,0,0,0-4.51,3.67L469.2,466a6.58,6.58,0,0,1,2.28-4,7.12,7.12,0,0,1,4.72-1.52,7.61,7.61,0,0,1,5.09,1.59q1.87,1.59,1.87,5v12.5Zm-5.11-8.37a8.56,8.56,0,0,0-3.24,1.44,2.56,2.56,0,0,0-.86,2q0,2.9,3.67,2.9a5.91,5.91,0,0,0,3.89-1.14,3.49,3.49,0,0,0,1.36-2.78V469h-.07Q479.81,470,475.54,471.21Z"/><path d="M489.43,474.19V463.58h-2.59V461h2.66v-4.55h2.73V461h4.58v2.55h-4.55v10.25a4.3,4.3,0,0,0,.46,2.31,2.08,2.08,0,0,0,1.82.67h1.4v2.76H494.4a4.79,4.79,0,0,1-3.8-1.35A6,6,0,0,1,489.43,474.19Z"/></svg>