<svg xmlns="http://www.w3.org/2000/svg" viewBox="0 0 600 600"><defs><style>.cls-1{fill:#fff;}.cls-2{fill:none;stroke:#000;stroke-miterlimit:10;stroke-width:6px;}</style></defs><title>do&amp;apos;s_don&amp;apos;ts_typografi_outline</title><g id="Layer_1" data-name="Layer 1"><rect class="cls-1" width="600" height="600"/><path d="M106.43,241.65h17.1l25.2,64.5h2.4l25.2-64.5h17.1v116.7h-16.5V293.4l.6-13.8-14.4,36.15c-1.35,3.45-3,6.3-7.8,6.3h-10.8c-4.8,0-6.45-2.85-7.8-6.3l-14.4-36.15.6,13.8v64.95h-16.5Z"/><path d="M214.13,325l-8.1,33.3h-14.1v-11.7l24-98.7c.9-3.45,3-6.3,7.8-6.3h19c4.8,0,6.9,2.85,7.8,6.3l24,98.7v11.7h-14.1l-8.1-33.3Zm16-67.5-12,51.6h30.15l-12-51.6Z"/><path d="M266.17,241.65h75v15.9H311.92v100.8h-16.5V257.55H266.17Z"/><path d="M415.27,342.45l-11.7,12a13.85,13.85,0,0,1-9.75,3.9H364a13.84,13.84,0,0,1-9.75-3.9l-9.3-9.45a14.3,14.3,0,0,1-4-9.6V264.6a14.3,14.3,0,0,1,4-9.6l9.3-9.45a13.84,13.84,0,0,1,9.75-3.9h29.85a13.84,13.84,0,0,1,9.75,3.9l11.7,12-12.45,10.5-10.2-10.5H365.17l-7.8,7.95v69l7.8,7.95h27.45l10.2-10.5Z"/><path d="M477.07,306.9h-41.4v51.45h-16.5V241.65h16.5V291h41.4V241.65h16.5v116.7h-16.5Z"/></g><g id="Don_t" data-name="Don&apos;t"><line class="cls-2" y1="600" x2="600"/></g></svg>