<svg xmlns="http://www.w3.org/2000/svg" viewBox="0 0 600 600"><defs><style>.cls-1{fill:#32baf2;}.cls-2{fill:#cfb571;}.cls-3{fill:#e21f26;}.cls-4{fill:none;stroke:#000;stroke-miterlimit:10;stroke-width:6px;}</style></defs><title>do&amp;apos;s_don&amp;apos;ts_typografi_outline</title><g id="Layer_1" data-name="Layer 1"><rect class="cls-1" width="600" height="600"/><path class="cls-2" d="M85.46,152.28h15.77l23.24,59.49h2.22l23.23-59.49h15.77V259.91H150.48V200l.55-12.73-13.29,33.34c-1.1,3.18-2.77,5.81-7.19,5.81h-10c-4.43,0-6.1-2.63-7.2-5.81l-13.28-33.34.55,12.73v59.9H85.46Z"/><path class="cls-2" d="M207.8,229.2l-7.47,30.71h-13V249.12l22.14-91c.82-3.18,2.77-5.81,7.19-5.81h17.57c4.43,0,6.37,2.63,7.2,5.81l22.13,91v10.79h-13l-7.47-30.71Zm14.8-62.25-11.06,47.59h27.81l-11.07-47.59Z"/><path class="cls-2" d="M268.8,152.28H338v14.66H311v93H295.78v-93h-27Z"/><path class="cls-2" d="M424.32,245.25l-10.79,11.07a12.77,12.77,0,0,1-9,3.59H377a12.79,12.79,0,0,1-9-3.59l-8.57-8.72a13.18,13.18,0,0,1-3.74-8.85v-65.3a13.18,13.18,0,0,1,3.74-8.85l8.57-8.71a12.77,12.77,0,0,1,9-3.6h27.52a12.75,12.75,0,0,1,9,3.6l10.79,11.06-11.48,9.69-9.41-9.69H378.11l-7.19,7.33v63.64l7.19,7.33h25.32l9.41-9.68Z"/><path class="cls-2" d="M499.32,212.46H461.14v47.45H445.93V152.28h15.21v45.51h38.18V152.28h15.22V259.91H499.32Z"/><path class="cls-3" d="M85.46,340.09h15.77l23.24,59.49h2.22l23.23-59.49h15.77V447.72H150.48v-59.9l.55-12.73-13.29,33.34c-1.1,3.18-2.77,5.81-7.19,5.81h-10c-4.43,0-6.1-2.63-7.2-5.81l-13.28-33.34.55,12.73v59.9H85.46Z"/><path class="cls-3" d="M207.8,417l-7.47,30.71h-13V436.93l22.14-91c.82-3.18,2.77-5.81,7.19-5.81h17.57c4.43,0,6.37,2.63,7.2,5.81l22.13,91v10.79h-13L243.08,417Zm14.8-62.25-11.06,47.59h27.81l-11.07-47.59Z"/><path class="cls-3" d="M268.8,340.09H338v14.66H311v93H295.78v-93h-27Z"/><path class="cls-3" d="M424.32,433.06l-10.79,11.07a12.77,12.77,0,0,1-9,3.59H377a12.79,12.79,0,0,1-9-3.59l-8.57-8.72a13.18,13.18,0,0,1-3.74-8.85v-65.3a13.18,13.18,0,0,1,3.74-8.85l8.57-8.71a12.77,12.77,0,0,1,9-3.6h27.52a12.75,12.75,0,0,1,9,3.6l10.79,11.06-11.48,9.69-9.41-9.69H378.11l-7.19,7.33v63.64l7.19,7.33h25.32l9.41-9.68Z"/><path class="cls-3" d="M499.32,400.27H461.14v47.45H445.93V340.09h15.21V385.6h38.18V340.09h15.22V447.72H499.32Z"/></g><g id="Don_t" data-name="Don&apos;t"><line class="cls-4" y1="600" x2="600"/></g></svg>