<svg xmlns="http://www.w3.org/2000/svg" viewBox="0 0 600 600"><defs><style>.cls-1{fill:#fff;}.cls-2{fill:#cfb571;}.cls-3{fill:#ffec0d;}.cls-4{fill:#0568af;}.cls-5{fill:#e21f26;}.cls-6{fill:none;stroke:#000;stroke-miterlimit:10;stroke-width:6px;}</style></defs><title>do&amp;apos;s_don&amp;apos;ts_typografi_outline</title><g id="Layer_1" data-name="Layer 1"><rect class="cls-1" width="600" height="600"/><g id="Guld_sköld" data-name="Guld sköld"><path class="cls-2" d="M408.8,103.67l-1-4.4-4.42.94c-54.62,11.66-100.63-15.7-101.09-16l-2.4-1.45-2.39,1.46c-.46.27-46.4,27.76-101,16.24L192,99.55l-1,4.4c-.19.84-4.77,21.15-3.73,54.7,3.26,105.23,71,173.61,110.58,197.43l2.38,1.43,2.38-1.44c39.47-23.92,107.08-92.48,110.07-197.72C413.63,124.8,409,104.51,408.8,103.67Z"/></g><path class="cls-3" d="M342.53,108.87a162.1,162.1,0,0,1-42.64-15.39c-10.22,5.62-51.12,25.64-100.72,16.91-1.25,7.54-3.42,24.49-2.69,48a234,234,0,0,0,14.36,74.12Z"/><path class="cls-4" d="M300.22,346.73c37.69-23.91,98.87-87.87,103.08-185L252.18,303.59C268.69,323.32,286.11,337.82,300.22,346.73Z"/><path class="cls-5" d="M251.06,234.18l-.7.66,15.38,16.35.63-.6c3.75-3.53,5.4-9.75,0-15.45C261.5,229.92,255.1,230.38,251.06,234.18Z"/><path class="cls-5" d="M400.66,110.12a149.38,149.38,0,0,1-50.36.19l-137,128.59a241.49,241.49,0,0,0,34.83,59.72L403.55,152.74A248.29,248.29,0,0,0,400.66,110.12ZM275.08,257.89l-10.94,10.29L233.32,235.4l10.94-10.29c9.13-8.58,22.77-7.9,31.43,1.32S284.16,249.34,275.08,257.89Zm27-23.7a6.86,6.86,0,1,1,.31-9.69A6.86,6.86,0,0,1,302,234.18Zm14.18-15-30.78-32.8,9.44-8.86,30.78,32.8Zm25.38-22.12a6.86,6.86,0,1,1,.31-9.69A6.86,6.86,0,0,1,341.6,197.06Zm23.59-23.91-9.37,8.81L325,149.18l19.54-18.37,7.91,8.41-10.17,9.56,5.06,5.36,10-9.4,7.89,8.39-10,9.4Zm18.63-15.71a6.86,6.86,0,1,1,.31-9.69A6.86,6.86,0,0,1,383.82,157.43Z"/><path d="M133,422.27l-19.74-12.6c-1.14-.72-1.62-2.46-1.62-3.84v-6.12a5.72,5.72,0,0,1,1.62-3.84l3.72-3.78a5.54,5.54,0,0,1,3.9-1.56h9.54a5.54,5.54,0,0,1,3.9,1.56l4.68,4.8-5,4.2-4.08-4.2h-8.58l-3.12,3.18v4.8L138,417.47c1.14.72,1.62,2.46,1.62,3.84V428a5.72,5.72,0,0,1-1.62,3.84l-3.72,3.78a5.54,5.54,0,0,1-3.9,1.56H119a5.54,5.54,0,0,1-3.9-1.56l-5.46-5.58,5-4.2,4.86,5H129.9l3.12-3.18Z"/><path d="M146.46,390.53h30v6.36h-11.7v40.32h-6.6V396.89h-11.7Z"/><path d="M205.08,390.53a5.54,5.54,0,0,1,3.9,1.56l3.72,3.78a5.72,5.72,0,0,1,1.62,3.84V428a5.72,5.72,0,0,1-1.62,3.84L209,435.65a5.54,5.54,0,0,1-3.9,1.56h-11.7a5.54,5.54,0,0,1-3.9-1.56l-3.72-3.78a5.72,5.72,0,0,1-1.62-3.84V399.71a5.72,5.72,0,0,1,1.62-3.84l3.72-3.78a5.54,5.54,0,0,1,3.9-1.56Zm-11.22,40.32H204.6l3.12-3.18v-27.6l-3.12-3.18H193.86l-3.12,3.18v27.6Z"/><path d="M254.52,430.85l-4.68,4.8a5.54,5.54,0,0,1-3.9,1.56H234a5.54,5.54,0,0,1-3.9-1.56l-3.72-3.78a5.72,5.72,0,0,1-1.62-3.84V399.71a5.72,5.72,0,0,1,1.62-3.84l3.72-3.78a5.54,5.54,0,0,1,3.9-1.56h11.94a5.54,5.54,0,0,1,3.9,1.56l4.68,4.8-5,4.2-4.08-4.2h-11l-3.12,3.18v27.6l3.12,3.18h11l4.08-4.2Z"/><path d="M278.82,409.85l16.62,23.34v4h-5.16l-16.14-22.68-3.66,3.66v19h-6.6V390.53h6.6v18.54L289,390.53h5.16v3.9Z"/><path d="M325.8,416.63H309.24v20.58h-6.6V390.53h6.6v19.74H325.8V390.53h6.6v46.68h-6.6Z"/><path d="M363.78,390.53a5.54,5.54,0,0,1,3.9,1.56l3.72,3.78a5.72,5.72,0,0,1,1.62,3.84V428a5.72,5.72,0,0,1-1.62,3.84l-3.72,3.78a5.54,5.54,0,0,1-3.9,1.56h-11.7a5.54,5.54,0,0,1-3.9-1.56l-3.72-3.78a5.72,5.72,0,0,1-1.62-3.84V399.71a5.72,5.72,0,0,1,1.62-3.84l3.72-3.78a5.54,5.54,0,0,1,3.9-1.56Zm-11.22,40.32H363.3l3.12-3.18v-27.6l-3.12-3.18H352.56l-3.12,3.18v27.6Z"/><path d="M383.46,390.53h6.6v40.32H408.3v6.36H383.46Z"/><path d="M416.82,390.53h6.84l10.08,25.8h1l10.08-25.8h6.84v46.68H445v-26l.24-5.52-5.76,14.46c-.48,1.38-1.2,2.52-3.12,2.52h-4.32c-1.92,0-2.64-1.14-3.12-2.52l-5.76-14.46.24,5.52v26h-6.6Z"/><path d="M483.72,422.27,464,409.67c-1.14-.72-1.62-2.46-1.62-3.84v-6.12a5.72,5.72,0,0,1,1.62-3.84l3.72-3.78a5.54,5.54,0,0,1,3.9-1.56h9.54a5.54,5.54,0,0,1,3.9,1.56l4.68,4.8-5,4.2-4.08-4.2h-8.58L469,400.07v4.8l19.74,12.6c1.14.72,1.62,2.46,1.62,3.84V428a5.72,5.72,0,0,1-1.62,3.84L485,435.65a5.54,5.54,0,0,1-3.9,1.56H469.74a5.54,5.54,0,0,1-3.9-1.56l-5.46-5.58,5-4.2,4.86,5H480.6l3.12-3.18Z"/><path d="M180.63,502.27l-19.74-12.6c-1.14-.72-1.62-2.46-1.62-3.84v-6.12a5.72,5.72,0,0,1,1.62-3.84l3.72-3.78a5.54,5.54,0,0,1,3.9-1.56h9.54a5.54,5.54,0,0,1,3.9,1.56l4.68,4.8-5,4.2-4.08-4.2H169l-3.12,3.18v4.8l19.74,12.6c1.14.72,1.62,2.46,1.62,3.84V508a5.72,5.72,0,0,1-1.62,3.84l-3.72,3.78a5.54,5.54,0,0,1-3.9,1.56H166.65a5.54,5.54,0,0,1-3.9-1.56l-5.46-5.58,5-4.2,4.86,5h10.38l3.12-3.18Z"/><path d="M194.07,470.53h30v6.36h-11.7v40.32h-6.6V476.89h-11.7Z"/><path d="M252.69,470.53a5.54,5.54,0,0,1,3.9,1.56l3.72,3.78a5.72,5.72,0,0,1,1.62,3.84V508a5.72,5.72,0,0,1-1.62,3.84l-3.72,3.78a5.54,5.54,0,0,1-3.9,1.56H241a5.54,5.54,0,0,1-3.9-1.56l-3.72-3.78a5.72,5.72,0,0,1-1.62-3.84V479.71a5.72,5.72,0,0,1,1.62-3.84l3.72-3.78a5.54,5.54,0,0,1,3.9-1.56Zm-11.22,40.32h10.74l3.12-3.18v-27.6l-3.12-3.18H241.47l-3.12,3.18v27.6Z"/><path d="M272.37,470.53H279v40.32h18.24v6.36H272.37Z"/><path d="M303,470.53h30v6.36h-11.7v40.32h-6.6V476.89H303Z"/><path d="M363.81,496.63H347.25v20.58h-6.6V470.53h6.6v19.74h16.56V470.53h6.6v46.68h-6.6Z"/><path d="M380.85,470.53h26.7v6.36h-20.1v13.62h15.42v6.36H387.45v14h20.1v6.36h-26.7Z"/><path d="M414.63,470.53h30v6.36h-11.7v40.32h-6.6V476.89h-11.7Z"/></g><g id="Don_t" data-name="Don&apos;t"><line class="cls-6" x1="1" y1="600" x2="601"/></g></svg>