<svg xmlns="http://www.w3.org/2000/svg" viewBox="0 0 600 600"><defs><style>.cls-1{fill:#fff;}.cls-2{fill:none;stroke:#000;stroke-miterlimit:10;stroke-width:6px;}</style></defs><title>do&amp;apos;s_don&amp;apos;ts_typografi_outline</title><g id="Layer_1" data-name="Layer 1"><rect class="cls-1" width="600" height="600"/><path d="M115.73,210.35a10.13,10.13,0,0,1-1.89,5.82l-4.34,5.73a5.78,5.78,0,0,1-4.55,2.37H80.52v-70.8H105a5.78,5.78,0,0,1,4.55,2.37l4.34,5.73a10.13,10.13,0,0,1,1.89,5.82ZM88.22,163.12v51.51h16.17L108,209.8V167.94l-3.64-4.82Z"/><path d="M136.66,224.27a5.78,5.78,0,0,1-4.55-2.37l-5.46-7.28,5.81-6.37,4.76,6.37h8.33l3.64-4.82V163.12H135.75v-9.65h21.14v56.88a10.13,10.13,0,0,1-1.89,5.82l-4.34,5.73a5.78,5.78,0,0,1-4.55,2.37Z"/><path d="M179.85,224.27a5.78,5.78,0,0,1-4.55-2.37L171,216.17a10.13,10.13,0,0,1-1.89-5.82V153.47h7.7V209.8l3.64,4.82h12.53l3.64-4.82V153.47h7.7v56.88a10.13,10.13,0,0,1-1.89,5.82l-4.34,5.73a5.78,5.78,0,0,1-4.55,2.37Z"/><path d="M216.46,153.47h23a5.78,5.78,0,0,1,4.55,2.37l4.34,5.73a10.13,10.13,0,0,1,1.89,5.82v22.3a10.13,10.13,0,0,1-1.89,5.82L244,201.25a6.14,6.14,0,0,1-2.8,2.09l9,14.83v6.1h-6l-12.39-20.66h-7.7v20.66h-7.7Zm26.11,14.47-3.64-4.82H224.16V194h14.77l3.64-4.82Z"/><path d="M271.9,224.27a5.78,5.78,0,0,1-4.55-2.37L263,216.17a10.13,10.13,0,0,1-1.89-5.82v-43a10.13,10.13,0,0,1,1.89-5.82l4.34-5.73a5.78,5.78,0,0,1,4.55-2.37h13.93a5.78,5.78,0,0,1,4.55,2.37l5.46,7.28L290,169.49l-4.76-6.37H272.46l-3.64,4.82V209.8l3.64,4.82h12.81l3.64-4.82V193.42h-9.73v-9.65h17.43v26.57a10.14,10.14,0,0,1-1.89,5.82l-4.34,5.73a5.78,5.78,0,0,1-4.55,2.37Z"/><path d="M314.39,204.07l-3.78,20.2H304v-7.1l11.55-61.52a15.05,15.05,0,0,1-1.89-7.46c0-6.92,4.27-12.47,9.59-12.47s9.59,5.55,9.59,12.47a15.71,15.71,0,0,1-1.82,7.37l11.55,61.61v7.1H336l-3.78-20.2ZM322,162.21l-5.74,32.22h14.07l-5.74-32.22Zm1.19-7.55c2.87,0,5-2.82,5-6.37,0-3.73-2.17-6.55-5-6.55s-4.9,2.82-4.9,6.55C318.31,151.83,320.48,154.66,323.21,154.66Z"/><path d="M351,153.47h23a5.78,5.78,0,0,1,4.55,2.37l4.34,5.73a10.13,10.13,0,0,1,1.89,5.82v22.3a10.13,10.13,0,0,1-1.89,5.82l-4.34,5.73a6.13,6.13,0,0,1-2.8,2.09l9,14.83v6.1h-6L366.4,203.61h-7.7v20.66H351Zm26.11,14.47-3.64-4.82H358.69V194h14.77l3.64-4.82Z"/><path d="M430.87,210.35a10.13,10.13,0,0,1-1.89,5.82l-4.34,5.73a5.78,5.78,0,0,1-4.55,2.37H395.65v-70.8h24.43a5.78,5.78,0,0,1,4.55,2.37l4.34,5.73a10.13,10.13,0,0,1,1.89,5.82Zm-27.51-47.23v51.51h16.17l3.64-4.82V167.94l-3.64-4.82Z"/><path d="M443,153.47h31.15v9.65H450.74v20.66h18v9.65h-18v21.2h23.45v9.65H443Z"/><path d="M485.67,153.47h7.91l18.2,37.68V153.47h7.7v70.8h-7.7v-15l-18.41-38v53.05h-7.7Z"/><path d="M290.62,273.47h6.58v7.1L286,340.45c-.42,2.09-1.4,3.82-3.64,3.82h-8.89c-2.24,0-3.22-1.73-3.64-3.82l-11.2-59.88v-7.1h6.58l11.27,61.15h2.87Z"/><path d="M331.57,321.61l-23-19.11c-1.33-1.09-1.89-3.73-1.89-5.82V287.4a10.14,10.14,0,0,1,1.89-5.82l4.34-5.73a5.78,5.78,0,0,1,4.55-2.37h11.13a5.78,5.78,0,0,1,4.55,2.37l5.46,7.28-5.81,6.37L328,283.12H318l-3.64,4.82v7.28l23,19.11c1.33,1.09,1.89,3.73,1.89,5.82v10.19a10.13,10.13,0,0,1-1.89,5.82L333,341.91a5.78,5.78,0,0,1-4.55,2.37H315.26a5.78,5.78,0,0,1-4.55-2.37l-6.37-8.46,5.81-6.37,5.67,7.55h12.11l3.64-4.82Z"/><path d="M211.77,441.61l-23-19.11c-1.33-1.09-1.89-3.73-1.89-5.82V407.4a10.13,10.13,0,0,1,1.89-5.82l4.34-5.73a5.78,5.78,0,0,1,4.55-2.37h11.13a5.78,5.78,0,0,1,4.55,2.37l5.46,7.28L213,409.49l-4.76-6.37h-10l-3.64,4.82v7.28l23,19.11c1.33,1.09,1.89,3.73,1.89,5.82v10.19a10.13,10.13,0,0,1-1.89,5.82l-4.34,5.73a5.78,5.78,0,0,1-4.55,2.37H195.46a5.78,5.78,0,0,1-4.55-2.37l-6.37-8.46,5.81-6.37,5.67,7.55h12.11l3.64-4.82Z"/><path d="M229.69,393.47h19.18v9.28h-5.74V455h5.74v9.28H229.69V455h5.74V402.75h-5.74Z"/><path d="M260.07,393.47h23a5.78,5.78,0,0,1,4.55,2.37l4.34,5.73a10.12,10.12,0,0,1,1.89,5.82v22.3a10.12,10.12,0,0,1-1.89,5.82l-4.34,5.73a6.13,6.13,0,0,1-2.8,2.09l9,14.83v6.1h-6l-12.39-20.66h-7.7v20.66h-7.7Zm26.11,14.47-3.64-4.82H267.77V434h14.77l3.64-4.82Z"/><path d="M303.75,393.47h19.18v9.28h-5.74V455h5.74v9.28H303.75V455h5.74V402.75h-5.74Z"/><path d="M344.91,464.27a5.78,5.78,0,0,1-4.55-2.37L336,456.17a10.13,10.13,0,0,1-1.89-5.82V393.47h7.7V449.8l3.64,4.82H358l3.64-4.82V393.47h7.7v56.88a10.13,10.13,0,0,1-1.89,5.82l-4.34,5.73a5.78,5.78,0,0,1-4.55,2.37Z"/><path d="M406.79,441.61l-23-19.11c-1.33-1.09-1.89-3.73-1.89-5.82V407.4a10.12,10.12,0,0,1,1.89-5.82l4.34-5.73a5.78,5.78,0,0,1,4.55-2.37h11.13a5.78,5.78,0,0,1,4.55,2.37l5.46,7.28L408,409.49l-4.76-6.37h-10l-3.64,4.82v7.28l23,19.11c1.33,1.09,1.89,3.73,1.89,5.82v10.19a10.13,10.13,0,0,1-1.89,5.82l-4.34,5.73a5.78,5.78,0,0,1-4.55,2.37H390.48a5.78,5.78,0,0,1-4.55-2.37l-6.37-8.46,5.81-6.37,5.67,7.55h12.11l3.64-4.82Z"/></g><g id="Don_t" data-name="Don&apos;t"><line class="cls-2" y1="600" x2="600"/></g></svg>