<svg xmlns="http://www.w3.org/2000/svg" viewBox="0 0 600 600"><defs><style>.cls-1{fill:#fff;}.cls-2{fill:none;stroke:#000;stroke-miterlimit:10;stroke-width:6px;}</style></defs><title>do&amp;apos;s_don&amp;apos;ts_typografi_outline</title><g id="Layer_1" data-name="Layer 1"><rect class="cls-1" width="600" height="600"/><path d="M126.1,172.08h29.61a8.31,8.31,0,0,1,5.85,2.34l5.58,5.67a8.58,8.58,0,0,1,2.43,5.76v22a8.58,8.58,0,0,1-2.43,5.76l-5.58,5.67a8.31,8.31,0,0,1-5.85,2.34H136V242.1h-9.9Zm33.57,14.31L155,181.62H136v30.51h19l4.68-4.77Z"/><path d="M182.35,172.08H212a8.31,8.31,0,0,1,5.85,2.34l5.58,5.67a8.59,8.59,0,0,1,2.43,5.76v22a8.59,8.59,0,0,1-2.43,5.76l-5.58,5.67a8.06,8.06,0,0,1-3.6,2.07l11.61,14.67v6h-7.74l-15.93-20.43h-9.9V242.1h-9.9Zm33.57,14.31-4.68-4.77h-19v30.51h19l4.68-4.77Z"/><path d="M239.77,172.08h40v9.54H249.67V202H272.8v9.54H249.67v21h30.15v9.54h-40Z"/><path d="M294.58,172.08h10.26L320,210.78h1.44l15.12-38.7h10.26v70h-9.9v-39l.36-8.28-8.64,21.69c-.72,2.07-1.8,3.78-4.68,3.78h-6.48c-2.88,0-4-1.71-4.68-3.78l-8.64-21.69.36,8.28v39h-9.9Z"/><path d="M361.18,172.08h24.66v9.18h-7.38v51.66h7.38v9.18H361.18v-9.18h7.38V181.26h-7.38Z"/><path d="M408.7,222.12l-4.86,20h-8.46v-7l14.4-59.22c.54-2.07,1.8-3.78,4.68-3.78h11.43c2.88,0,4.14,1.71,4.68,3.78L445,235.08v7h-8.46l-4.86-20Zm-2.43-64.89h9.81V167h-9.81Zm12.06,24.39-7.2,31h18.09l-7.2-31Zm6-24.39h9.81V167h-9.81Z"/><path d="M455.77,172.08h29.61a8.31,8.31,0,0,1,5.85,2.34l5.58,5.67a8.58,8.58,0,0,1,2.43,5.76v22a8.58,8.58,0,0,1-2.43,5.76l-5.58,5.67a8.06,8.06,0,0,1-3.6,2.07l11.61,14.67v6h-7.74l-15.93-20.43h-9.9V242.1h-9.9Zm33.57,14.31-4.68-4.77h-19v30.51h19l4.68-4.77Z"/><path d="M98,342.1V310.6h9.86a13.67,13.67,0,0,1,5.08.95,13.34,13.34,0,0,1,4.32,2.79,12.89,12.89,0,0,1,3.08,4.93,20.12,20.12,0,0,1,1.15,7,21.86,21.86,0,0,1-1.17,7.51,11.55,11.55,0,0,1-3.2,4.93,13.41,13.41,0,0,1-4.39,2.54,15.8,15.8,0,0,1-5.15.81Zm3.73-3.42h5.54q10.26,0,10.26-12.37,0-5.94-2.68-9.11a9.06,9.06,0,0,0-7.31-3.17h-5.81Z"/><path d="M124.88,350.87v-3.51h.76a2,2,0,0,0,1.53-.52,3,3,0,0,0,.49-2V318.25h3.69v26.68q0,3.24-1.26,4.59a4.87,4.87,0,0,1-3.74,1.35Zm2.47-37.44v-4.18h4.19v4.18Z"/><path d="M139,333.77V318.25h3.69v15q0,3.33,1.28,4.73t4.25,1.39a5.18,5.18,0,0,0,4.14-1.67,6.86,6.86,0,0,0,1.44-4.63v-14.8h3.65V342.1h-3.6V339.8h-.09a9.6,9.6,0,0,1-.67.81,8.2,8.2,0,0,1-2.09,1.33,7.8,7.8,0,0,1-3.58.83,8.31,8.31,0,0,1-6.19-2.25Q139,338.27,139,333.77Z"/><path d="M165.07,342.1V318.25h3.51v2.56h.09a5,5,0,0,1,2.12-2.21,5.83,5.83,0,0,1,2.83-.76,5,5,0,0,1,1.06.11q.52.11.79.2l.22.14-.68,3.64a4.08,4.08,0,0,0-1.89-.36,3.75,3.75,0,0,0-3.33,1.51,8.75,8.75,0,0,0-1,4.84V342.1Z"/><path d="M180.19,346.42l3.11-1.58a8.58,8.58,0,0,0,2.23,3.49,6.84,6.84,0,0,0,8.48-.41,6.63,6.63,0,0,0,1.58-4.7V340h-.09a8.22,8.22,0,0,1-6.62,2.75,9.45,9.45,0,0,1-7.61-3.42q-2.88-3.42-2.88-9.18a13.46,13.46,0,0,1,3-9.16,9.47,9.47,0,0,1,7.45-3.44,8.11,8.11,0,0,1,6.71,3h.09v-2.29h3.6v24.21q0,5.08-2.54,7.76a9.25,9.25,0,0,1-7,2.68,9.92,9.92,0,0,1-6.05-1.78A9.48,9.48,0,0,1,180.19,346.42Zm15.39-12.15v-7.56a5.72,5.72,0,0,0-1.69-4,5.85,5.85,0,0,0-4.48-1.8,6.48,6.48,0,0,0-5.42,2.45A13.22,13.22,0,0,0,184,337a6.49,6.49,0,0,0,5.44,2.43,6.41,6.41,0,0,0,4.41-1.55A4.71,4.71,0,0,0,195.58,334.27Z"/><path d="M220.51,342.1v-2.61h-.09a6.55,6.55,0,0,1-2.57,2.23,9.57,9.57,0,0,1-4.72,1.06q-4,0-6-1.93a6.4,6.4,0,0,1-2-4.86,6,6,0,0,1,1.82-4.66,14.62,14.62,0,0,1,6.19-2.81q1.62-.41,2.41-.63t1.82-.61a5.55,5.55,0,0,0,1.48-.74,3.55,3.55,0,0,0,.79-.9,2.25,2.25,0,0,0,.34-1.21,3.15,3.15,0,0,0-1.24-2.54,5.85,5.85,0,0,0-3.76-1q-4.77,0-5.81,4.73l-3.33-.95a8.37,8.37,0,0,1,2.2-4.46,8.22,8.22,0,0,1,4.5-2.38,4.32,4.32,0,0,1-1.84-3.82,4.58,4.58,0,0,1,1.26-3.24,4.4,4.4,0,0,1,6.32,0,4.61,4.61,0,0,1,1.24,3.26,4.26,4.26,0,0,1-1.89,3.87q6.16,1.26,6.17,8.19V342.1Zm-6.57-10.75a11,11,0,0,0-4.16,1.84,3.29,3.29,0,0,0-1.1,2.57q0,3.74,4.73,3.73a7.6,7.6,0,0,0,5-1.46,4.49,4.49,0,0,0,1.75-3.58v-5.94h-.09Q219.43,329.81,213.94,331.34Zm1.13-14.76a2,2,0,0,0,1.53-.7,2.82,2.82,0,0,0,.63-2,2.58,2.58,0,0,0-.63-1.87,2,2,0,0,0-1.53-.65,2,2,0,0,0-1.51.63,2.63,2.63,0,0,0-.61,1.89,2.81,2.81,0,0,0,.63,2A1.94,1.94,0,0,0,215.06,316.58Z"/><path d="M230.95,342.1V318.25h3.51v2.56h.09a5,5,0,0,1,2.12-2.21,5.84,5.84,0,0,1,2.83-.76,5,5,0,0,1,1.06.11c.34.08.61.14.79.2l.22.14-.67,3.64a4.09,4.09,0,0,0-1.89-.36,3.75,3.75,0,0,0-3.33,1.51,8.74,8.74,0,0,0-1,4.84V342.1Z"/><path d="M262.58,342.1V339.8h-.09a8.69,8.69,0,0,1-2.77,2,10,10,0,0,1-11.75-2.5q-2.81-3.42-2.81-9.18t2.95-9.16a9.34,9.34,0,0,1,7.4-3.44,8.26,8.26,0,0,1,6.61,3h.09V309.25h3.69V342.1Zm-.36-7.92V326.8a5.9,5.9,0,0,0-1.67-4.07,5.74,5.74,0,0,0-4.46-1.82,6.36,6.36,0,0,0-5.4,2.43,13.6,13.6,0,0,0,0,13.68,6.36,6.36,0,0,0,5.4,2.43,6.29,6.29,0,0,0,4.37-1.58A4.82,4.82,0,0,0,262.22,334.18Z"/><path d="M290.08,334.76l3,1.93A11.85,11.85,0,0,1,289.2,341a10.52,10.52,0,0,1-6.14,1.73,10.24,10.24,0,0,1-8-3.44,13.15,13.15,0,0,1-3.11-9.16,13.34,13.34,0,0,1,3-9.16,10,10,0,0,1,7.85-3.44,9.82,9.82,0,0,1,7.74,3.38q3,3.38,3,9.23v1.08H275.68a9.33,9.33,0,0,0,1.91,5.8,6.42,6.42,0,0,0,5.38,2.38,8.07,8.07,0,0,0,2.52-.38,8.89,8.89,0,0,0,1.8-.77,5.33,5.33,0,0,0,1.33-1.26,13.84,13.84,0,0,0,.85-1.15Q289.63,335.62,290.08,334.76Zm-14.31-6.43h14.17a8.72,8.72,0,0,0-1.8-5.22,7.21,7.21,0,0,0-10.53.16A8.43,8.43,0,0,0,275.77,328.33Z"/><path d="M299.66,342.1V318.25h3.6v2.29h.09a7.16,7.16,0,0,1,2.83-2.14,9.31,9.31,0,0,1,3.87-.83,8.38,8.38,0,0,1,6.23,2.39,8.8,8.8,0,0,1,2.36,6.48V342.1H315V327.61q0-6.66-5.49-6.66a6.3,6.3,0,0,0-4.48,1.58,5.68,5.68,0,0,0-1.69,4.37V342.1Z"/><path d="M344.26,342.1l-9.63-23.85h3.78l7.29,18.67h.09l7.29-18.67h3.78l-9.63,23.85Z"/><path d="M359.56,334l3.46-.68q.68,6.26,6.62,6.26a7.19,7.19,0,0,0,4.25-1,3.24,3.24,0,0,0,1.42-2.75,3,3,0,0,0-1.33-2.7,22,22,0,0,0-5.56-2.07,16.84,16.84,0,0,1-6.21-2.75,5.15,5.15,0,0,1-1.8-4.14,6,6,0,0,1,2.21-4.61,8.83,8.83,0,0,1,6.08-2,9.55,9.55,0,0,1,6.21,1.87,9,9,0,0,1,3.06,5l-3.19.85a5.84,5.84,0,0,0-6.08-4.54,5.71,5.71,0,0,0-3.6,1,2.91,2.91,0,0,0-1.26,2.34,2.39,2.39,0,0,0,1.21,2.21,29.9,29.9,0,0,0,5.58,2q4.63,1.31,6.37,3a6.23,6.23,0,0,1,1.78,4.57,6.43,6.43,0,0,1-2.27,4.91q-2.27,2.07-6.82,2.07-4.73,0-7.22-2.45A10,10,0,0,1,359.56,334Z"/><path d="M394.07,334l3.46-.68q.68,6.26,6.62,6.26a7.19,7.19,0,0,0,4.25-1,3.24,3.24,0,0,0,1.42-2.75,3,3,0,0,0-1.33-2.7,22,22,0,0,0-5.56-2.07,16.84,16.84,0,0,1-6.21-2.75,5.15,5.15,0,0,1-1.8-4.14,6,6,0,0,1,2.21-4.61,8.83,8.83,0,0,1,6.08-2,9.55,9.55,0,0,1,6.21,1.87,9,9,0,0,1,3.06,5l-3.19.85a5.84,5.84,0,0,0-6.08-4.54,5.71,5.71,0,0,0-3.6,1,2.91,2.91,0,0,0-1.26,2.34,2.39,2.39,0,0,0,1.21,2.21,29.9,29.9,0,0,0,5.58,2q4.63,1.31,6.37,3a6.23,6.23,0,0,1,1.78,4.57A6.43,6.43,0,0,1,411,340.7q-2.27,2.07-6.82,2.07-4.73,0-7.22-2.45A10,10,0,0,1,394.07,334Z"/><path d="M419.14,313.43v-4.18h4.23v4.18Zm.27,28.66V318.25h3.69V342.1Z"/><path d="M431,342.1V318.25h3.51v2.56h.09a5,5,0,0,1,2.12-2.21,5.83,5.83,0,0,1,2.83-.76,5,5,0,0,1,1.06.11q.52.11.79.2l.23.14-.68,3.64a4.08,4.08,0,0,0-1.89-.36,3.75,3.75,0,0,0-3.33,1.51,8.74,8.74,0,0,0-1,4.84V342.1Z"/><path d="M446.81,313.43v-4.18H451v4.18Zm.27,28.66V318.25h3.69V342.1Z"/><path d="M458.47,333.77V318.25h3.69v15q0,3.33,1.28,4.73t4.25,1.39a5.17,5.17,0,0,0,4.14-1.67,6.86,6.86,0,0,0,1.44-4.63v-14.8h3.64V342.1h-3.6V339.8h-.09a9.5,9.5,0,0,1-.68.81,8.18,8.18,0,0,1-2.09,1.33,7.81,7.81,0,0,1-3.58.83,8.31,8.31,0,0,1-6.19-2.25Q458.47,338.27,458.47,333.77Z"/><path d="M482.77,334l3.46-.68q.68,6.26,6.62,6.26a7.19,7.19,0,0,0,4.25-1,3.24,3.24,0,0,0,1.42-2.75,3,3,0,0,0-1.33-2.7,22,22,0,0,0-5.56-2.07,16.84,16.84,0,0,1-6.21-2.75,5.15,5.15,0,0,1-1.8-4.14,6,6,0,0,1,2.21-4.61,8.83,8.83,0,0,1,6.08-2,9.55,9.55,0,0,1,6.21,1.87,9,9,0,0,1,3.06,5l-3.19.85a5.84,5.84,0,0,0-6.08-4.54,5.71,5.71,0,0,0-3.6,1,2.91,2.91,0,0,0-1.26,2.34,2.39,2.39,0,0,0,1.21,2.21,29.9,29.9,0,0,0,5.58,2q4.63,1.31,6.37,3A6.23,6.23,0,0,1,502,335.8a6.43,6.43,0,0,1-2.27,4.91q-2.27,2.07-6.82,2.07-4.73,0-7.22-2.45A10,10,0,0,1,482.77,334Z"/><path d="M161.92,392.1V368.25h3.33v2.29h.09a6.26,6.26,0,0,1,2.52-2.14,7.84,7.84,0,0,1,3.55-.83,7,7,0,0,1,3.85,1,7.22,7.22,0,0,1,2.45,2.5h.09a7.14,7.14,0,0,1,2.63-2.48,8,8,0,0,1,4.07-1,7.69,7.69,0,0,1,8.24,8.28V392.1h-3.55V377q0-6-4.86-6a4.94,4.94,0,0,0-3.85,1.51,6,6,0,0,0-1.37,4.21V392.1h-3.56V377q0-6-4.86-6a4.62,4.62,0,0,0-3.87,1.6,6.45,6.45,0,0,0-1.26,4.12V392.1Z"/><path d="M214,392.1v-2.61h-.09a6.55,6.55,0,0,1-2.57,2.23,9.57,9.57,0,0,1-4.72,1.06q-4,0-6-1.93a6.4,6.4,0,0,1-2-4.86,6,6,0,0,1,1.82-4.66,14.62,14.62,0,0,1,6.19-2.81q1.62-.41,2.41-.63t1.82-.61a5.56,5.56,0,0,0,1.48-.74,3.55,3.55,0,0,0,.79-.9,2.25,2.25,0,0,0,.34-1.21,3.15,3.15,0,0,0-1.24-2.54,5.85,5.85,0,0,0-3.76-1q-4.77,0-5.81,4.73l-3.33-.95a8.38,8.38,0,0,1,2.2-4.46,8.22,8.22,0,0,1,4.5-2.38,4.32,4.32,0,0,1-1.84-3.83,4.58,4.58,0,0,1,1.26-3.24,4.4,4.4,0,0,1,6.32,0A4.61,4.61,0,0,1,213,364a4.26,4.26,0,0,1-1.89,3.87q6.16,1.26,6.16,8.19V392.1Zm-6.57-10.75a11,11,0,0,0-4.16,1.84,3.29,3.29,0,0,0-1.1,2.57q0,3.74,4.72,3.73a7.6,7.6,0,0,0,5-1.46,4.49,4.49,0,0,0,1.75-3.58v-5.94h-.09Q212.95,379.81,207.46,381.34Zm1.13-14.76a2,2,0,0,0,1.53-.7,2.82,2.82,0,0,0,.63-2,2.58,2.58,0,0,0-.63-1.87,2,2,0,0,0-1.53-.65,2,2,0,0,0-1.51.63,2.62,2.62,0,0,0-.61,1.89,2.82,2.82,0,0,0,.63,2A1.94,1.94,0,0,0,208.59,366.58Z"/><path d="M224.47,392.1V368.25h3.6v2.29h.09A7.15,7.15,0,0,1,231,368.4a9.31,9.31,0,0,1,3.87-.83A8.38,8.38,0,0,1,241.1,370a8.81,8.81,0,0,1,2.36,6.48V392.1h-3.65V377.61q0-6.66-5.49-6.66a6.3,6.3,0,0,0-4.48,1.58,5.68,5.68,0,0,0-1.69,4.37V392.1Z"/><path d="M266.72,392.1V389.8h-.09a8.69,8.69,0,0,1-2.77,2,10,10,0,0,1-11.75-2.5q-2.81-3.42-2.81-9.18t2.95-9.16a9.34,9.34,0,0,1,7.4-3.44,8.26,8.26,0,0,1,6.61,3h.09V359.25h3.69V392.1Zm-.36-7.92V376.8a5.89,5.89,0,0,0-1.67-4.07,5.74,5.74,0,0,0-4.46-1.82,6.36,6.36,0,0,0-5.4,2.43,13.6,13.6,0,0,0,0,13.68,6.36,6.36,0,0,0,5.4,2.43,6.29,6.29,0,0,0,4.37-1.58A4.81,4.81,0,0,0,266.36,384.18Z"/><path d="M291.56,392.1v-2.61h-.09a6.54,6.54,0,0,1-2.56,2.23,9.58,9.58,0,0,1-4.73,1.06q-4,0-6-1.93a6.4,6.4,0,0,1-2-4.86,6,6,0,0,1,1.82-4.66,14.62,14.62,0,0,1,6.19-2.81q1.62-.41,2.41-.63t1.82-.61a5.55,5.55,0,0,0,1.48-.74,3.55,3.55,0,0,0,.79-.9,2.25,2.25,0,0,0,.34-1.21,3.15,3.15,0,0,0-1.24-2.54,5.85,5.85,0,0,0-3.76-1q-4.77,0-5.81,4.73l-3.33-.95a8.45,8.45,0,0,1,2.92-5.11,9.15,9.15,0,0,1,6.08-2,9.79,9.79,0,0,1,6.55,2q2.41,2,2.41,6.41V392.1ZM285,381.34a11,11,0,0,0-4.16,1.84,3.29,3.29,0,0,0-1.1,2.57q0,3.74,4.73,3.73a7.6,7.6,0,0,0,5-1.46,4.49,4.49,0,0,0,1.75-3.58v-5.94h-.09Q290.48,379.81,285,381.34Z"/><path d="M302.23,396.42l3.11-1.58a8.59,8.59,0,0,0,2.23,3.49,6.83,6.83,0,0,0,8.48-.41,6.63,6.63,0,0,0,1.58-4.7V390h-.09a8.22,8.22,0,0,1-6.61,2.75,9.45,9.45,0,0,1-7.61-3.42q-2.88-3.42-2.88-9.18a13.46,13.46,0,0,1,3-9.16,9.47,9.47,0,0,1,7.45-3.44,8.11,8.11,0,0,1,6.7,3h.09v-2.29h3.6v24.21q0,5.08-2.54,7.76a9.25,9.25,0,0,1-7,2.68,9.92,9.92,0,0,1-6.05-1.78A9.47,9.47,0,0,1,302.23,396.42Zm15.39-12.15v-7.56a5.72,5.72,0,0,0-1.69-4,5.85,5.85,0,0,0-4.48-1.8,6.48,6.48,0,0,0-5.42,2.45A13.22,13.22,0,0,0,306,387a6.48,6.48,0,0,0,5.45,2.43,6.41,6.41,0,0,0,4.41-1.55A4.71,4.71,0,0,0,317.62,384.27Z"/><path d="M338.14,381.75l3.64-.72q.54,4.32,2.34,6.35a6.79,6.79,0,0,0,5.36,2,7,7,0,0,0,5.2-1.78,6,6,0,0,0,1.78-4.39q0-6.39-6.88-6.39h-2.25V373.6h.95a12.77,12.77,0,0,0,1.89-.13,15.22,15.22,0,0,0,2.25-.56,4.12,4.12,0,0,0,2.16-1.55,4.65,4.65,0,0,0,.81-2.79,4.9,4.9,0,0,0-1.58-3.87,6.22,6.22,0,0,0-4.27-1.39,5.86,5.86,0,0,0-4.3,1.58,7.25,7.25,0,0,0-2,4.41l-3.51-.63a9.44,9.44,0,0,1,3.08-6.34,9.74,9.74,0,0,1,6.73-2.38,10.14,10.14,0,0,1,6.75,2.23,7.64,7.64,0,0,1,2.66,6.19,6.27,6.27,0,0,1-1.51,4.34,6.88,6.88,0,0,1-3.4,2.18V375a7.53,7.53,0,0,1,4.25,2.74,9.59,9.59,0,0,1-1.19,12.4,10.82,10.82,0,0,1-7.6,2.68,11.16,11.16,0,0,1-7.74-2.7Q338.77,387.37,338.14,381.75Z"/><path d="M366.8,373.56v-5.31h5.31v5.31Zm0,18.54v-5.31h5.31v5.31Z"/><path d="M396.73,384.76l3,1.93a11.85,11.85,0,0,1-3.85,4.34,10.52,10.52,0,0,1-6.14,1.73,10.24,10.24,0,0,1-8-3.44,13.15,13.15,0,0,1-3.11-9.16,13.34,13.34,0,0,1,3-9.16,10,10,0,0,1,7.85-3.44,9.82,9.82,0,0,1,7.74,3.38q3,3.38,3,9.23v1.08H382.33a9.33,9.33,0,0,0,1.91,5.8,6.42,6.42,0,0,0,5.38,2.38,8.07,8.07,0,0,0,2.52-.38,8.89,8.89,0,0,0,1.8-.77,5.33,5.33,0,0,0,1.33-1.26,13.84,13.84,0,0,0,.85-1.15Q396.28,385.62,396.73,384.76Zm-14.31-6.43h14.17a8.72,8.72,0,0,0-1.8-5.22,7.21,7.21,0,0,0-10.53.16A8.43,8.43,0,0,0,382.42,378.33Z"/><path d="M431.42,392.1v-2.61h-.09a6.54,6.54,0,0,1-2.56,2.23,9.58,9.58,0,0,1-4.73,1.06q-4,0-6-1.93a6.4,6.4,0,0,1-2-4.86,6,6,0,0,1,1.82-4.66,14.62,14.62,0,0,1,6.19-2.81q1.62-.41,2.41-.63t1.82-.61a5.55,5.55,0,0,0,1.48-.74,3.55,3.55,0,0,0,.79-.9,2.25,2.25,0,0,0,.34-1.21,3.15,3.15,0,0,0-1.24-2.54,5.85,5.85,0,0,0-3.76-1q-4.77,0-5.81,4.73l-3.33-.95a8.45,8.45,0,0,1,2.92-5.11,9.15,9.15,0,0,1,6.08-2,9.79,9.79,0,0,1,6.55,2q2.41,2,2.41,6.41V392.1Zm-6.57-10.75a11,11,0,0,0-4.16,1.84,3.29,3.29,0,0,0-1.1,2.57q0,3.74,4.73,3.73a7.6,7.6,0,0,0,5-1.46,4.49,4.49,0,0,0,1.75-3.58v-5.94H431Q430.34,379.81,424.85,381.34Z"/><path d="M441.86,402.22v-34h3.51v2.29h.09a8.17,8.17,0,0,1,2.7-2,9,9,0,0,1,4.14-.92,9.4,9.4,0,0,1,7.43,3.44q3,3.44,3,9.16t-2.88,9.18a9.36,9.36,0,0,1-7.52,3.42,8.75,8.75,0,0,1-4-.94,7.1,7.1,0,0,1-2.61-2h-.09v12.42Zm3.69-25.51v7.56a4.71,4.71,0,0,0,1.75,3.62,6.35,6.35,0,0,0,4.37,1.55,6.55,6.55,0,0,0,5.47-2.43,13.08,13.08,0,0,0,0-13.66,6.54,6.54,0,0,0-5.45-2.45,5.79,5.79,0,0,0-4.43,1.8A5.72,5.72,0,0,0,445.55,376.71Z"/><path d="M468.77,392.1V368.25h3.51v2.56h.09a5,5,0,0,1,2.12-2.21,5.83,5.83,0,0,1,2.83-.76,5,5,0,0,1,1.06.11q.52.11.79.2l.23.14-.68,3.64a4.08,4.08,0,0,0-1.89-.36,3.75,3.75,0,0,0-3.33,1.51,8.74,8.74,0,0,0-1,4.84V392.1Z"/><path d="M484.57,363.43v-4.18h4.23v4.18Zm.27,28.67V368.25h3.69V392.1Z"/><path d="M496.45,392.1V359.25h3.73V392.1Z"/><path d="M151.89,442.1V414.87l-6.79,4.27v-4l7.25-4.5h3v31.5Z"/><path d="M165.84,434.85l3.46-1.08q1.39,5.63,6.57,5.63,7.47,0,7.52-12.92h-.09a4.93,4.93,0,0,1-.68,1.24,10,10,0,0,1-1.44,1.55,7.7,7.7,0,0,1-2.54,1.44,10.36,10.36,0,0,1-3.58.58,10.25,10.25,0,0,1-7.49-2.95,10.41,10.41,0,0,1-3-7.76A10.27,10.27,0,0,1,175,409.92a10.47,10.47,0,0,1,8.71,4.12q3.22,4.12,3.22,12.35,0,8.55-3.06,12.46a9.73,9.73,0,0,1-8.05,3.92,9.89,9.89,0,0,1-6.53-2.16A10.33,10.33,0,0,1,165.84,434.85Zm9.45-6.88a6.78,6.78,0,0,0,5.11-2,7.13,7.13,0,0,0,2-5.17,7.41,7.41,0,0,0-2-5.33A7,7,0,0,0,175,413.3a6.57,6.57,0,0,0-4.9,2,7.27,7.27,0,0,0-1.94,5.31,7.4,7.4,0,0,0,1.94,5.38A6.86,6.86,0,0,0,175.29,428Z"/><path d="M194.14,423.56v-5.31h5.31v5.31Zm0,18.54v-5.31h5.31v5.31Z"/><path d="M217.72,442.77a10,10,0,0,1-8.64-4.37Q206,434,206,425.94q0-7.74,3.24-11.88a10.78,10.78,0,0,1,17,0q3.22,4.14,3.22,11.88,0,8.1-3.1,12.46A10,10,0,0,1,217.72,442.77Zm-5.89-7a6.69,6.69,0,0,0,11.79,0q2-3.53,2-9.92,0-6-2.07-9.29a6.89,6.89,0,0,0-11.7,0q-2.07,3.24-2.07,9.31Q209.8,432.29,211.83,435.82Z"/><path d="M245.67,442.77a10,10,0,0,1-8.64-4.37q-3.11-4.36-3.11-12.46,0-7.74,3.24-11.88a10.78,10.78,0,0,1,17,0q3.22,4.14,3.22,11.88,0,8.1-3.11,12.46A10,10,0,0,1,245.67,442.77Zm-5.9-7a6.69,6.69,0,0,0,11.79,0q2-3.53,2-9.92,0-6-2.07-9.29a6.89,6.89,0,0,0-11.7,0q-2.07,3.24-2.07,9.31Q237.75,432.29,239.77,435.82Z"/><path d="M275.54,435.17V421.53h-3.33v-3.28h3.42V412.4h3.51v5.85H285v3.28h-5.85v13.19a5.51,5.51,0,0,0,.58,3,2.67,2.67,0,0,0,2.34.86h1.8v3.55h-2q-3.37,0-4.88-1.73A7.73,7.73,0,0,1,275.54,435.17Z"/><path d="M306.5,434.76l3,1.93a11.85,11.85,0,0,1-3.85,4.34,10.52,10.52,0,0,1-6.14,1.73,10.24,10.24,0,0,1-8-3.44,13.15,13.15,0,0,1-3.11-9.16,13.34,13.34,0,0,1,3-9.16,10,10,0,0,1,7.85-3.44,9.82,9.82,0,0,1,7.74,3.38q3,3.38,3,9.23v1.08H292.1a9.33,9.33,0,0,0,1.91,5.8,6.42,6.42,0,0,0,5.38,2.38,8.07,8.07,0,0,0,2.52-.38,8.89,8.89,0,0,0,1.8-.77A5.33,5.33,0,0,0,305,437a13.84,13.84,0,0,0,.85-1.15Q306.05,435.62,306.5,434.76Zm-14.31-6.43h14.17a8.72,8.72,0,0,0-1.8-5.22,7.21,7.21,0,0,0-10.53.16A8.43,8.43,0,0,0,292.19,428.33Z"/><path d="M316.09,442.1V409.25h3.73V442.1Z"/><path d="M344,434.76l3,1.93a11.85,11.85,0,0,1-3.85,4.34,10.52,10.52,0,0,1-6.14,1.73,10.24,10.24,0,0,1-8-3.44,13.15,13.15,0,0,1-3.11-9.16,13.34,13.34,0,0,1,3-9.16,10,10,0,0,1,7.85-3.44,9.82,9.82,0,0,1,7.74,3.38q3,3.38,3,9.23v1.08H329.59a9.33,9.33,0,0,0,1.91,5.8,6.42,6.42,0,0,0,5.38,2.38,8.07,8.07,0,0,0,2.52-.38,8.89,8.89,0,0,0,1.8-.77,5.33,5.33,0,0,0,1.33-1.26,13.84,13.84,0,0,0,.85-1.15Q343.54,435.62,344,434.76Zm-14.31-6.43h14.17a8.72,8.72,0,0,0-1.8-5.22,7.21,7.21,0,0,0-10.53.16A8.43,8.43,0,0,0,329.68,428.33Z"/><path d="M352.63,442.1v-2.83a11.94,11.94,0,0,1,1.62-6.75q1.49-2.34,7-5.26l2.54-1.4q.65-.36,1.93-1.17a9.94,9.94,0,0,0,1.71-1.26q.43-.45,1-1.21a3.91,3.91,0,0,0,.79-1.55,8.05,8.05,0,0,0,.18-1.78,5.45,5.45,0,0,0-1.6-3.94,6.4,6.4,0,0,0-4.79-1.64,6.63,6.63,0,0,0-5,1.91,8,8,0,0,0-2,5.38l-3.6-.36a10.36,10.36,0,0,1,3.13-7.58,10.73,10.73,0,0,1,7.58-2.72,9.81,9.81,0,0,1,7.29,2.63,8.88,8.88,0,0,1,2.61,6.5,10.25,10.25,0,0,1-.58,3.62,7.23,7.23,0,0,1-2.11,2.88A20.82,20.82,0,0,1,368,427.4q-.83.52-3.08,1.73l-.63.36-1.46.79-1.33.72-1.06.61a10.31,10.31,0,0,0-1,.63l-.74.59a5.32,5.32,0,0,0-.72.67,5.43,5.43,0,0,0-.5.67,7.81,7.81,0,0,0-.9,4.18h16.56v3.74Z"/><path d="M404.78,442.1v-2.61h-.09a6.54,6.54,0,0,1-2.56,2.23,9.58,9.58,0,0,1-4.73,1.06q-4,0-6-1.93a6.4,6.4,0,0,1-2-4.86,6,6,0,0,1,1.82-4.66,14.62,14.62,0,0,1,6.19-2.81q1.62-.41,2.41-.63t1.82-.61a5.55,5.55,0,0,0,1.48-.74,3.55,3.55,0,0,0,.79-.9,2.25,2.25,0,0,0,.34-1.21,3.15,3.15,0,0,0-1.24-2.54,5.85,5.85,0,0,0-3.76-1q-4.77,0-5.81,4.73l-3.33-.95a8.45,8.45,0,0,1,2.92-5.11,9.15,9.15,0,0,1,6.08-2,9.79,9.79,0,0,1,6.55,2q2.41,2,2.41,6.41V442.1Zm-6.57-10.75a11,11,0,0,0-4.16,1.84,3.29,3.29,0,0,0-1.1,2.57q0,3.74,4.73,3.73a7.6,7.6,0,0,0,5-1.46,4.49,4.49,0,0,0,1.75-3.58v-5.94h-.09Q403.7,429.81,398.21,431.34Z"/><path d="M415.22,442.1V418.25h3.51v2.56h.09a5,5,0,0,1,2.12-2.21,5.83,5.83,0,0,1,2.83-.76,5,5,0,0,1,1.06.11q.52.11.79.2l.23.14-.68,3.64a4.08,4.08,0,0,0-1.89-.36,3.75,3.75,0,0,0-3.33,1.51,8.74,8.74,0,0,0-1,4.84V442.1Z"/><path d="M447.53,434.76l3,1.93a11.85,11.85,0,0,1-3.85,4.34,10.52,10.52,0,0,1-6.14,1.73,10.24,10.24,0,0,1-8-3.44,13.15,13.15,0,0,1-3.11-9.16,13.34,13.34,0,0,1,3-9.16,10,10,0,0,1,7.85-3.44,9.82,9.82,0,0,1,7.74,3.38q3,3.38,3,9.23v1.08H433.13a9.33,9.33,0,0,0,1.91,5.8,6.42,6.42,0,0,0,5.38,2.38,8.07,8.07,0,0,0,2.52-.38,8.89,8.89,0,0,0,1.8-.77,5.33,5.33,0,0,0,1.33-1.26,13.84,13.84,0,0,0,.85-1.15Q447.08,435.62,447.53,434.76Zm-14.31-6.43H447.4a8.72,8.72,0,0,0-1.8-5.22,7.21,7.21,0,0,0-10.53.16A8.43,8.43,0,0,0,433.22,428.33Z"/><path d="M457.12,442.1V418.25h3.6v2.29h.09a7.16,7.16,0,0,1,2.83-2.14,9.31,9.31,0,0,1,3.87-.83,8.38,8.38,0,0,1,6.23,2.39,8.8,8.8,0,0,1,2.36,6.48V442.1h-3.65V427.61q0-6.66-5.49-6.66a6.3,6.3,0,0,0-4.48,1.58,5.68,5.68,0,0,0-1.69,4.37V442.1Z"/><path d="M497.39,442.1v-2.61h-.09a6.54,6.54,0,0,1-2.56,2.23,9.58,9.58,0,0,1-4.73,1.06q-4,0-6-1.93a6.4,6.4,0,0,1-2-4.86,6,6,0,0,1,1.82-4.66,14.62,14.62,0,0,1,6.19-2.81q1.62-.41,2.41-.63t1.82-.61a5.55,5.55,0,0,0,1.48-.74,3.55,3.55,0,0,0,.79-.9,2.25,2.25,0,0,0,.34-1.21,3.15,3.15,0,0,0-1.24-2.54,5.85,5.85,0,0,0-3.76-1q-4.77,0-5.81,4.73l-3.33-.95a8.45,8.45,0,0,1,2.92-5.11,9.15,9.15,0,0,1,6.08-2,9.79,9.79,0,0,1,6.55,2q2.41,2,2.41,6.41V442.1Zm-6.57-10.75a11,11,0,0,0-4.16,1.84,3.29,3.29,0,0,0-1.1,2.57q0,3.74,4.73,3.73a7.6,7.6,0,0,0,5-1.46,4.49,4.49,0,0,0,1.75-3.58v-5.94h-.09Q496.31,429.81,490.82,431.34Z"/></g><g id="Don_t" data-name="Don&apos;t"><line class="cls-2" y1="600" x2="600"/></g></svg>