<svg xmlns="http://www.w3.org/2000/svg" viewBox="0 0 600 600"><defs><style>.cls-1{fill:#fff;}.cls-2{fill:none;stroke:#000;stroke-miterlimit:10;stroke-width:6px;}</style></defs><title>do&amp;apos;s_don&amp;apos;ts_typografi_outline</title><g id="Layer_1" data-name="Layer 1"><rect class="cls-1" width="600" height="600"/><path d="M72.06,207.14h32.88a58,58,0,0,1,12.3,1.26,29.21,29.21,0,0,1,10.2,4.2,21,21,0,0,1,7,7.92A26.83,26.83,0,0,1,137,232.94a24.93,24.93,0,0,1-4.68,15.3q-4.68,6.3-13.68,8l21.6,35.88H117.78l-17.76-34H90.78v34H72.06ZM90.78,242.3h11q2.52,0,5.34-.18a16.73,16.73,0,0,0,5.1-1.08,8.85,8.85,0,0,0,3.78-2.82,8.59,8.59,0,0,0,1.5-5.4,9,9,0,0,0-1.32-5.16,8.83,8.83,0,0,0-3.36-2.94,15,15,0,0,0-4.68-1.38A38.15,38.15,0,0,0,103,223H90.78Z"/><path d="M225.06,259.34a41,41,0,0,1-2.28,13.92,30.63,30.63,0,0,1-6.78,11,31,31,0,0,1-11.22,7.32,47,47,0,0,1-31.08,0,31,31,0,0,1-11.22-7.32,30.6,30.6,0,0,1-6.78-11,41,41,0,0,1-2.28-13.92v-52.2h18.72v51.48a20.66,20.66,0,0,0,1.26,7.32,17.44,17.44,0,0,0,3.54,5.82,16,16,0,0,0,5.46,3.84,17.12,17.12,0,0,0,6.9,1.38,16.71,16.71,0,0,0,6.84-1.38,16.21,16.21,0,0,0,5.4-3.84,17.49,17.49,0,0,0,3.54-5.82,20.68,20.68,0,0,0,1.26-7.32V207.14h18.72Z"/><path d="M245.94,207.14h31.68a80.17,80.17,0,0,1,11.1.78,30.33,30.33,0,0,1,10,3.12,19.2,19.2,0,0,1,7.2,6.54q2.76,4.2,2.76,11.16a17.82,17.82,0,0,1-4,11.94,22.1,22.1,0,0,1-10.62,6.78v.24a24.3,24.3,0,0,1,7.62,2.34,20.36,20.36,0,0,1,5.88,4.44,19,19,0,0,1,3.78,6.3,22.17,22.17,0,0,1,1.32,7.68,20.42,20.42,0,0,1-2.88,11.22,22.65,22.65,0,0,1-7.44,7.26,32.58,32.58,0,0,1-10.26,4,54.88,54.88,0,0,1-11.34,1.2h-34.8Zm18.72,34h13.56a19,19,0,0,0,4.26-.48,11.77,11.77,0,0,0,3.78-1.56,8.13,8.13,0,0,0,2.7-2.88,8.64,8.64,0,0,0,1-4.32,7.84,7.84,0,0,0-1.14-4.38,8,8,0,0,0-2.94-2.7,14.08,14.08,0,0,0-4.08-1.38,24.55,24.55,0,0,0-4.44-.42H264.66Zm0,35.16h16.8a20.61,20.61,0,0,0,4.38-.48,11.54,11.54,0,0,0,4-1.68A9.56,9.56,0,0,0,292.8,271a9,9,0,0,0,1.14-4.68,7.51,7.51,0,0,0-1.5-4.86,9.55,9.55,0,0,0-3.78-2.82,19.44,19.44,0,0,0-4.92-1.32,36.54,36.54,0,0,0-4.92-.36H264.66Z"/><path d="M327.3,207.14h32.88a58,58,0,0,1,12.3,1.26,29.21,29.21,0,0,1,10.2,4.2,21,21,0,0,1,7,7.92,26.84,26.84,0,0,1,2.58,12.42,24.93,24.93,0,0,1-4.68,15.3q-4.68,6.3-13.68,8l21.6,35.88H373l-17.76-34H346v34H327.3ZM346,242.3h11q2.52,0,5.34-.18a16.72,16.72,0,0,0,5.1-1.08,8.84,8.84,0,0,0,3.78-2.82,8.59,8.59,0,0,0,1.5-5.4,9,9,0,0,0-1.32-5.16,8.83,8.83,0,0,0-3.36-2.94,15,15,0,0,0-4.68-1.38,38.14,38.14,0,0,0-5.16-.36H346Z"/><path d="M408.42,207.14h18.72v85H408.42Z"/><path d="M448.5,207.14h18.72v35.28l33-35.28H524.7l-37.8,39.48,41,45.48H501.78l-34.56-40.32V292.1H448.5Z"/><path d="M171.5,392.1V345.57H189a21.61,21.61,0,0,1,8.55,1.41,11,11,0,0,1,5,4.35,11.46,11.46,0,0,1,1.83,6.14,10.55,10.55,0,0,1-1.62,5.62,11.55,11.55,0,0,1-4.89,4.25,12.16,12.16,0,0,1,6.49,4.22,11.31,11.31,0,0,1,2.27,7,13.59,13.59,0,0,1-1.38,6.08,11.78,11.78,0,0,1-3.41,4.33,14.25,14.25,0,0,1-5.09,2.3,31,31,0,0,1-7.51.78Zm6.16-27h10.06a22.42,22.42,0,0,0,5.87-.54,6.53,6.53,0,0,0,3.54-2.32,6.68,6.68,0,0,0,1.19-4.06,7.48,7.48,0,0,0-1.11-4.08,5.62,5.62,0,0,0-3.17-2.41,26.53,26.53,0,0,0-7.08-.65h-9.3Zm0,21.49h11.58a26.6,26.6,0,0,0,4.19-.22,10,10,0,0,0,3.55-1.27,6.73,6.73,0,0,0,2.35-2.59,8.1,8.1,0,0,0,.92-3.92,7.73,7.73,0,0,0-1.33-4.52,7,7,0,0,0-3.7-2.7,22.93,22.93,0,0,0-6.81-.78H177.66Z"/><path d="M216.27,392.1V358.39h5.14v5.11a13.93,13.93,0,0,1,3.63-4.73,6.34,6.34,0,0,1,3.67-1.14,11.15,11.15,0,0,1,5.87,1.84l-2,5.3a8.17,8.17,0,0,0-4.19-1.24,5.44,5.44,0,0,0-3.36,1.13,6.1,6.1,0,0,0-2.13,3.13,22.25,22.25,0,0,0-1,6.67V392.1Z"/><path d="M237.8,375.25q0-9.36,5.21-13.87a15.69,15.69,0,0,1,10.6-3.75A15.12,15.12,0,0,1,265,362.19q4.41,4.55,4.41,12.58,0,6.51-2,10.24a13.82,13.82,0,0,1-5.68,5.79,16.54,16.54,0,0,1-8.14,2.06,15.15,15.15,0,0,1-11.44-4.54Q237.8,383.78,237.8,375.25Zm5.87,0q0,6.47,2.82,9.7a9.41,9.41,0,0,0,14.19,0q2.82-3.24,2.82-9.87,0-6.25-2.84-9.47a9.42,9.42,0,0,0-14.17,0Q243.67,368.77,243.67,375.25Zm1-23.45v-6.51h6v6.51Zm11.84,0v-6.51h6v6.51Z"/><path d="M299.89,392.1v-4.25a10.48,10.48,0,0,1-9.43,5,13.22,13.22,0,0,1-7.41-2.22,14.6,14.6,0,0,1-5.24-6.21,21.45,21.45,0,0,1-1.86-9.16,24,24,0,0,1,1.68-9.16,13.25,13.25,0,0,1,5-6.3,13.48,13.48,0,0,1,7.52-2.19,11.24,11.24,0,0,1,9.3,4.63V345.57h5.68V392.1Zm-18.06-16.82q0,6.47,2.73,9.68a8.23,8.23,0,0,0,6.44,3.21,8.08,8.08,0,0,0,6.36-3.06Q300,382,300,375.75q0-6.92-2.67-10.16a8.2,8.2,0,0,0-6.57-3.24,7.91,7.91,0,0,0-6.36,3.11Q281.83,368.58,281.83,375.28Z"/><path d="M328.6,387l.83,5a21.24,21.24,0,0,1-4.32.51,9.78,9.78,0,0,1-4.82-1,5.51,5.51,0,0,1-2.41-2.59q-.7-1.6-.7-6.75V362.84H313v-4.44h4.19V350l5.68-3.43v11.77h5.74v4.44h-5.74v19.71a10,10,0,0,0,.3,3.14,2.37,2.37,0,0,0,1,1.11,3.79,3.79,0,0,0,2,.41A18.69,18.69,0,0,0,328.6,387Z"/><path d="M359.21,381.24l5.9.73a14.4,14.4,0,0,1-5.17,8,15.55,15.55,0,0,1-9.65,2.86q-7.39,0-11.73-4.55t-4.33-12.77q0-8.5,4.38-13.2a14.83,14.83,0,0,1,11.36-4.7,14.41,14.41,0,0,1,11,4.6q4.28,4.6,4.28,12.95,0,.51,0,1.52H340.13q.32,5.55,3.14,8.51a9.35,9.35,0,0,0,7,3,8.74,8.74,0,0,0,5.36-1.65A11,11,0,0,0,359.21,381.24ZM340.45,372h18.82a11.42,11.42,0,0,0-2.16-6.38,8.76,8.76,0,0,0-7.08-3.3,9.08,9.08,0,0,0-6.62,2.63A10.42,10.42,0,0,0,340.45,372Z"/><path d="M370.43,392.1l12.31-17.52-11.39-16.19h7.14l5.17,7.9q1.46,2.25,2.35,3.78,1.4-2.09,2.57-3.71l5.68-8h6.82l-11.65,15.87L402,392.1h-7L388,381.63l-1.84-2.83-8.86,13.3Z"/><path d="M421.16,387l.83,5a21.24,21.24,0,0,1-4.32.51,9.78,9.78,0,0,1-4.82-1,5.51,5.51,0,0,1-2.41-2.59q-.7-1.6-.7-6.75V362.84h-4.19v-4.44h4.19V350l5.68-3.43v11.77h5.74v4.44h-5.74v19.71a10,10,0,0,0,.3,3.14,2.37,2.37,0,0,0,1,1.11,3.79,3.79,0,0,0,2,.41A18.69,18.69,0,0,0,421.16,387Z"/></g><g id="Don_t" data-name="Don&apos;t"><line class="cls-2" y1="600" x2="600"/></g></svg>