<svg xmlns="http://www.w3.org/2000/svg" viewBox="0 0 600 600"><defs><style>.cls-1{fill:#fff;}.cls-2{fill:none;stroke:#000;stroke-miterlimit:10;stroke-width:6px;}</style></defs><title>do&amp;apos;s_don&amp;apos;ts_typografi_outline</title><g id="Layer_1" data-name="Layer 1"><rect class="cls-1" width="600" height="600"/><path d="M79.57,236.23l-2.43,10H72.91v-3.51l7.2-29.61a2.24,2.24,0,0,1,2.34-1.89h5.71a2.24,2.24,0,0,1,2.34,1.89l7.2,29.61v3.51H93.48l-2.43-10ZM84.39,216l-3.6,15.48h9L86.23,216Z"/><path d="M103.11,211.21h5v30.24h13.68v4.77H103.11Z"/><path d="M128.13,211.21h5v30.24h13.68v4.77H128.13Z"/><path d="M169.39,235l-14.8-9.45a3.5,3.5,0,0,1-1.21-2.88v-4.59a4.29,4.29,0,0,1,1.21-2.88l2.79-2.83a4.15,4.15,0,0,1,2.92-1.17h7.16a4.15,4.15,0,0,1,2.92,1.17l3.51,3.6-3.74,3.15L167.09,216h-6.43l-2.34,2.39V222l14.8,9.45a3.5,3.5,0,0,1,1.21,2.88v5a4.29,4.29,0,0,1-1.21,2.88L170.33,245a4.16,4.16,0,0,1-2.92,1.17h-8.5A4.15,4.15,0,0,1,156,245l-4.09-4.18,3.73-3.15,3.64,3.74H167l2.34-2.38Z"/><path d="M200.13,211.21h4.23v3.51l-7.2,29.61a2.24,2.24,0,0,1-2.34,1.89H189.1a2.24,2.24,0,0,1-2.34-1.89l-7.2-29.61v-3.51h4.23L191,241.45h1.84Z"/><path d="M210.21,211.21h20V216H215.16v10.21h11.56V231H215.16v10.48h15.07v4.77h-20Z"/><path d="M237.61,211.21h5.08l11.7,18.63V211.21h5v35h-5v-7.42L242.56,220v26.23h-4.95Z"/><path d="M283.42,235l-14.8-9.45a3.5,3.5,0,0,1-1.21-2.88v-4.59a4.29,4.29,0,0,1,1.21-2.88l2.79-2.83a4.15,4.15,0,0,1,2.92-1.17h7.15a4.15,4.15,0,0,1,2.92,1.17l3.51,3.6-3.73,3.15L281.13,216h-6.44l-2.34,2.39V222l14.8,9.45a3.5,3.5,0,0,1,1.21,2.88v5a4.29,4.29,0,0,1-1.21,2.88L284.36,245a4.15,4.15,0,0,1-2.92,1.17h-8.5A4.16,4.16,0,0,1,270,245l-4.09-4.18,3.74-3.15,3.64,3.74h7.79l2.34-2.38Z"/><path d="M306.77,225.7l12.46,17.5v3h-3.87l-12.1-17L300.52,232v14.26h-5v-35h5v13.9l13.9-13.9h3.87v2.92Z"/><path d="M338.32,211.21h14.8a4.15,4.15,0,0,1,2.92,1.17l2.79,2.83a4.29,4.29,0,0,1,1.21,2.88v11a4.29,4.29,0,0,1-1.21,2.88L356,234.83a4.15,4.15,0,0,1-2.92,1.17h-9.85v10.21h-4.95Zm16.78,7.16L352.76,216h-9.5v15.25h9.5l2.34-2.38Z"/><path d="M366.44,211.21h14.8a4.15,4.15,0,0,1,2.92,1.17l2.79,2.83a4.29,4.29,0,0,1,1.21,2.88v11A4.29,4.29,0,0,1,387,232l-2.79,2.83a4,4,0,0,1-1.8,1l5.8,7.33v3h-3.87l-8-10.21h-5v10.21h-4.95Zm16.78,7.16L380.89,216h-9.5v15.25h9.5l2.34-2.38Z"/><path d="M395.15,211.21h20V216H400.1v10.21h11.56V231H400.1v10.48h15.07v4.77h-20Z"/><path d="M422.56,211.21h5.13l7.56,19.35H436l7.56-19.35h5.13v35h-5V226.73l.18-4.14-4.32,10.84a2.31,2.31,0,0,1-2.34,1.89H434a2.31,2.31,0,0,1-2.34-1.89l-4.32-10.84.18,4.14v19.48h-4.95Z"/><path d="M455.86,211.21h12.33v4.59H464.5v25.83h3.69v4.59H455.86v-4.59h3.69V215.8h-3.69Z"/><path d="M479.62,236.23l-2.43,10H473v-3.51l7.2-29.61a2.24,2.24,0,0,1,2.34-1.89h5.71a2.24,2.24,0,0,1,2.34,1.89l7.2,29.61v3.51h-4.23l-2.43-10Zm-1.21-32.44h4.9v4.91h-4.9Zm6,12.19-3.6,15.48h9L486.28,216Zm3-12.19h4.9v4.91h-4.9Z"/><path d="M503.15,211.21H518a4.15,4.15,0,0,1,2.92,1.17l2.79,2.83a4.29,4.29,0,0,1,1.21,2.88v11a4.29,4.29,0,0,1-1.21,2.88l-2.79,2.83a4,4,0,0,1-1.8,1l5.8,7.33v3H521l-8-10.21h-5v10.21h-4.95Zm16.78,7.16L517.6,216h-9.5v15.25h9.5l2.34-2.38Z"/><path d="M62.13,289.33a4.29,4.29,0,0,1-1.21,2.88L58.13,295a4.15,4.15,0,0,1-2.92,1.17H39.5v-35H55.2a4.15,4.15,0,0,1,2.92,1.17l2.79,2.83a4.29,4.29,0,0,1,1.21,2.88ZM44.45,266v25.47h10.4l2.34-2.38v-20.7L54.84,266Z"/><path d="M75.59,296.22A4.15,4.15,0,0,1,72.66,295l-3.51-3.6,3.73-3.15,3.06,3.15H81.3l2.34-2.38V266H75v-4.77H88.59v28.12a4.29,4.29,0,0,1-1.21,2.88L84.59,295a4.16,4.16,0,0,1-2.92,1.17Z"/><path d="M103.35,296.22a4.16,4.16,0,0,1-2.92-1.17l-2.79-2.83a4.29,4.29,0,0,1-1.21-2.88V261.21h5v27.85l2.34,2.38h8.05l2.34-2.38V261.21h5v28.12a4.29,4.29,0,0,1-1.21,2.88L115.05,295a4.16,4.16,0,0,1-2.92,1.17Z"/><path d="M126.89,261.21h14.8a4.15,4.15,0,0,1,2.92,1.17l2.79,2.83a4.29,4.29,0,0,1,1.21,2.88v11a4.29,4.29,0,0,1-1.21,2.88l-2.79,2.83a4,4,0,0,1-1.8,1l5.8,7.33v3h-3.87l-8-10.21h-5v10.21h-5Zm16.79,7.16L141.33,266h-9.49v15.25h9.49l2.34-2.38Z"/><path d="M162.53,296.22A4.15,4.15,0,0,1,159.6,295l-2.79-2.83a4.29,4.29,0,0,1-1.21-2.88V268.09a4.29,4.29,0,0,1,1.21-2.88l2.79-2.83a4.15,4.15,0,0,1,2.92-1.17h9a4.16,4.16,0,0,1,2.93,1.17l3.51,3.6-3.74,3.15L171.12,266h-8.23l-2.34,2.39v20.7l2.34,2.38h8.23l2.34-2.38V281h-6.25v-4.77h11.2v13.14a4.29,4.29,0,0,1-1.21,2.88L174.41,295a4.16,4.16,0,0,1-2.93,1.17Z"/><path d="M189.84,286.23l-2.43,10h-4.23v-3.51l7.42-30.42a6.17,6.17,0,1,1,11.11-3.69,6.4,6.4,0,0,1-1.17,3.64L208,292.71v3.51h-4.23l-2.43-10Zm4.91-20.7-3.69,15.93h9l-3.69-15.93Zm.76-3.74a3.2,3.2,0,1,0-3.15-3.15A3.15,3.15,0,0,0,195.51,261.79Z"/><path d="M213.38,261.21h14.8a4.16,4.16,0,0,1,2.92,1.17l2.79,2.83a4.29,4.29,0,0,1,1.22,2.88v11A4.29,4.29,0,0,1,233.9,282l-2.79,2.83a4,4,0,0,1-1.8,1l5.8,7.33v3h-3.87l-8-10.21h-5v10.21h-4.95Zm16.78,7.16L227.82,266h-9.5v15.25h9.5l2.34-2.38Z"/><path d="M264.72,289.33a4.29,4.29,0,0,1-1.21,2.88L260.72,295a4.16,4.16,0,0,1-2.92,1.17H242.09v-35h15.71a4.16,4.16,0,0,1,2.92,1.17l2.79,2.83a4.29,4.29,0,0,1,1.21,2.88ZM247,266v25.47h10.39l2.34-2.38v-20.7L257.43,266Z"/><path d="M272.55,261.21h20V266H277.5v10.21h11.56V281H277.5v10.48h15.07v4.77h-20Z"/><path d="M300,261.21H305l11.7,18.63V261.21h4.95v35h-4.95v-7.42L304.9,270v26.23H300Z"/><path d="M361.78,261.21H366v3.51l-7.2,29.61a2.24,2.24,0,0,1-2.34,1.89h-5.71a2.24,2.24,0,0,1-2.34-1.89l-7.2-29.61v-3.51h4.23l7.24,30.24h1.84Z"/><path d="M388.11,285l-14.8-9.45a3.5,3.5,0,0,1-1.21-2.88v-4.59a4.29,4.29,0,0,1,1.21-2.88l2.79-2.83a4.15,4.15,0,0,1,2.92-1.17h7.15a4.16,4.16,0,0,1,2.93,1.17l3.51,3.6-3.74,3.15L385.81,266h-6.43L377,268.36V272l14.8,9.45a3.5,3.5,0,0,1,1.21,2.88v5a4.29,4.29,0,0,1-1.21,2.88L389.05,295a4.15,4.15,0,0,1-2.92,1.17h-8.5A4.15,4.15,0,0,1,374.7,295l-4.1-4.18,3.74-3.15,3.64,3.74h7.79l2.34-2.38Z"/><path d="M430.18,285l-14.8-9.45a3.5,3.5,0,0,1-1.21-2.88v-4.59a4.29,4.29,0,0,1,1.21-2.88l2.79-2.83a4.15,4.15,0,0,1,2.92-1.17h7.15a4.16,4.16,0,0,1,2.93,1.17l3.51,3.6-3.74,3.15L427.89,266h-6.43l-2.34,2.39V272l14.8,9.45a3.5,3.5,0,0,1,1.21,2.88v5a4.29,4.29,0,0,1-1.21,2.88L431.13,295a4.15,4.15,0,0,1-2.92,1.17h-8.5a4.15,4.15,0,0,1-2.92-1.17l-4.1-4.18,3.74-3.15,3.64,3.74h7.79l2.34-2.38Z"/><path d="M441.7,261.21H454v4.59h-3.69v25.83H454v4.59H441.7v-4.59h3.69V265.8H441.7Z"/><path d="M461.23,261.21H476a4.15,4.15,0,0,1,2.92,1.17l2.79,2.83a4.29,4.29,0,0,1,1.21,2.88v11a4.29,4.29,0,0,1-1.21,2.88L479,284.83a4,4,0,0,1-1.8,1l5.8,7.33v3H479.1l-8-10.21h-5v10.21h-4.95ZM478,268.36,475.68,266h-9.5v15.25h9.5l2.34-2.38Z"/><path d="M489.31,261.21h12.33v4.59H498v25.83h3.69v4.59H489.31v-4.59H493V265.8h-3.69Z"/><path d="M515.77,296.22a4.15,4.15,0,0,1-2.92-1.17l-2.79-2.83a4.29,4.29,0,0,1-1.21-2.88V261.21h4.95v27.85l2.34,2.38h8.05l2.34-2.38V261.21h5v28.12a4.29,4.29,0,0,1-1.21,2.88L527.47,295a4.15,4.15,0,0,1-2.92,1.17Z"/><path d="M555.55,285l-14.8-9.45a3.5,3.5,0,0,1-1.21-2.88v-4.59a4.29,4.29,0,0,1,1.21-2.88l2.79-2.83a4.15,4.15,0,0,1,2.92-1.17h7.15a4.16,4.16,0,0,1,2.93,1.17l3.51,3.6-3.74,3.15L553.26,266h-6.43l-2.34,2.39V272l14.8,9.45a3.5,3.5,0,0,1,1.21,2.88v5a4.29,4.29,0,0,1-1.21,2.88L556.5,295a4.15,4.15,0,0,1-2.92,1.17h-8.5a4.15,4.15,0,0,1-2.92-1.17l-4.1-4.18,3.74-3.15,3.64,3.74h7.79l2.34-2.38Z"/><path d="M99.57,311.21h5.13l7.56,19.35H113l7.56-19.35h5.13v35h-5V326.73l.18-4.14-4.32,10.84c-.41,1-.9,1.89-2.34,1.89H111c-1.44,0-1.93-.85-2.34-1.89l-4.32-10.84.18,4.14v19.48h-5Z"/><path d="M137.73,336.23l-2.43,10h-4.23v-3.51l7.42-30.42a6.17,6.17,0,1,1,11.11-3.69,6.4,6.4,0,0,1-1.17,3.64l7.42,30.46v3.51h-4.23l-2.43-10Zm4.91-20.7-3.69,15.93h9l-3.69-15.93Zm.76-3.74a3.2,3.2,0,1,0-3.15-3.15A3.15,3.15,0,0,0,143.4,311.79Z"/><path d="M161.27,311.21h5.08l11.7,18.63V311.21h5v35h-5v-7.42L166.22,320v26.23h-4.95Z"/><path d="M213.47,339.33a4.29,4.29,0,0,1-1.21,2.88L209.46,345a4.15,4.15,0,0,1-2.92,1.17h-15.7v-35h15.7a4.15,4.15,0,0,1,2.92,1.17l2.79,2.83a4.29,4.29,0,0,1,1.21,2.88ZM195.78,316v25.47h10.4l2.34-2.38v-20.7L206.18,316Z"/><path d="M225.53,336.23l-2.43,10h-4.23v-3.51l7.2-29.61a2.24,2.24,0,0,1,2.34-1.89h5.71a2.24,2.24,0,0,1,2.34,1.89l7.2,29.61v3.51h-4.23l-2.43-10ZM230.34,316l-3.6,15.48h9L232.19,316Z"/><path d="M256,346.22a4.16,4.16,0,0,1-2.92-1.17l-2.79-2.83a4.29,4.29,0,0,1-1.21-2.88V318.09a4.29,4.29,0,0,1,1.21-2.88l2.79-2.83a4.16,4.16,0,0,1,2.92-1.17h9a4.15,4.15,0,0,1,2.92,1.17l3.51,3.6-3.73,3.15L264.59,316h-8.23L254,318.36v20.7l2.34,2.38h8.23l2.34-2.38V331h-6.25v-4.77h11.2v13.14a4.29,4.29,0,0,1-1.21,2.88L267.87,345a4.15,4.15,0,0,1-2.92,1.17Z"/><path d="M299.15,341.45H307l2.34-2.38v-6L307,330.69h-5.94v-4.77h5.49l2.34-2.38v-5.17L306.57,316h-6.48L297,319.13,293.3,316l3.51-3.6a4.16,4.16,0,0,1,2.92-1.17h7.2a4.15,4.15,0,0,1,2.92,1.17l2.79,2.83a4.29,4.29,0,0,1,1.21,2.88v5.71a4.29,4.29,0,0,1-1.21,2.88L311.3,328l1.8,1.89a4.29,4.29,0,0,1,1.21,2.88v6.52a4.29,4.29,0,0,1-1.21,2.88L310.31,345a4.15,4.15,0,0,1-2.92,1.17h-8.59a4.15,4.15,0,0,1-2.92-1.17l-3.51-3.6,3.73-3.15Z"/><path d="M323.54,321.38h5.26v5.71h-5.26Zm0,19.12h5.26v5.71h-5.26Z"/><path d="M338,311.21h20V316H343v10.21h11.56V331H343v10.48H358v4.77H338Z"/><path d="M383.34,336.23l-2.43,10h-4.23v-3.51l7.2-29.61a2.24,2.24,0,0,1,2.34-1.89h5.71a2.24,2.24,0,0,1,2.34,1.89l7.2,29.61v3.51h-4.23l-2.43-10ZM388.15,316l-3.6,15.48h9L390,316Z"/><path d="M406.88,311.21h14.8a4.15,4.15,0,0,1,2.92,1.17l2.79,2.83a4.29,4.29,0,0,1,1.21,2.88v11a4.29,4.29,0,0,1-1.21,2.88l-2.79,2.83a4.15,4.15,0,0,1-2.92,1.17h-9.85v10.21h-4.95Zm16.78,7.16L421.32,316h-9.5v15.25h9.5l2.34-2.38Z"/><path d="M435,311.21h14.8a4.15,4.15,0,0,1,2.92,1.17l2.79,2.83a4.29,4.29,0,0,1,1.21,2.88v11a4.29,4.29,0,0,1-1.21,2.88l-2.79,2.83a4,4,0,0,1-1.8,1l5.8,7.33v3h-3.87l-8-10.21h-5v10.21H435Zm16.78,7.16L449.44,316h-9.5v15.25h9.5l2.34-2.38Z"/><path d="M463.08,311.21h12.33v4.59h-3.69v25.83h3.69v4.59H463.08v-4.59h3.69V315.8h-3.69Z"/><path d="M482.61,311.21h4.95v30.24h13.68v4.77H482.61Z"/><path d="M87.87,391.63h5.81V366h-.81l-3.06,3.15L86.07,366l3.51-3.6a4.16,4.16,0,0,1,2.92-1.17h6.12v30.42h5.71v4.59H87.87Z"/><path d="M119.15,396.22l9.13-13.9h-6.84a4.15,4.15,0,0,1-2.92-1.17l-2.79-2.83a4.29,4.29,0,0,1-1.21-2.88v-7.33a4.29,4.29,0,0,1,1.21-2.88l2.79-2.83a4.15,4.15,0,0,1,2.92-1.17h7.88a3.92,3.92,0,0,1,2.74,1.17l2.79,2.83a4.29,4.29,0,0,1,1.21,2.88v9.58a6,6,0,0,1-1.3,3.69L125,396.22Zm12-18.67v-9.18L128.78,366h-7l-2.34,2.39v6.79l2.34,2.39Z"/><path d="M145.29,371.38h5.26v5.71h-5.26Zm0,19.12h5.26v5.71h-5.26Z"/><path d="M174.59,361.21a4.16,4.16,0,0,1,2.92,1.17l2.79,2.83a4.29,4.29,0,0,1,1.22,2.88v21.24a4.29,4.29,0,0,1-1.22,2.88L177.51,395a4.16,4.16,0,0,1-2.92,1.17h-7.87a4.15,4.15,0,0,1-2.92-1.17L161,392.21a4.29,4.29,0,0,1-1.21-2.88V368.09a4.29,4.29,0,0,1,1.21-2.88l2.79-2.83a4.15,4.15,0,0,1,2.92-1.17Zm2,7.16L174.23,366h-7.15l-2.34,2.39V379.7l11.83-7.56Zm-9.49,23.08h7.15l2.34-2.38V377.72l-11.83,7.56v3.78Z"/><path d="M204.15,361.21a4.15,4.15,0,0,1,2.92,1.17l2.79,2.83a4.29,4.29,0,0,1,1.21,2.88v21.24a4.29,4.29,0,0,1-1.21,2.88L207.08,395a4.15,4.15,0,0,1-2.92,1.17h-7.87a4.16,4.16,0,0,1-2.92-1.17l-2.79-2.83a4.29,4.29,0,0,1-1.21-2.88V368.09a4.29,4.29,0,0,1,1.21-2.88l2.79-2.83a4.16,4.16,0,0,1,2.92-1.17Zm2,7.16L203.79,366h-7.15l-2.34,2.39V379.7l11.83-7.56Zm-9.5,23.08h7.15l2.34-2.38V377.72l-11.83,7.56v3.78Z"/><path d="M230.52,361.21H253V366h-8.77v30.24H239.3V366h-8.78Z"/><path d="M258.78,361.21h20V366H263.73v10.21H275.3V381H263.73v10.48h15.08v4.77h-20Z"/><path d="M286.19,361.21h4.95v30.24h13.68v4.77H286.19Z"/><path d="M311.21,361.21h20V366H316.16v10.21h11.56V381H316.16v10.48h15.07v4.77h-20Z"/><path d="M352.16,366H345.9l-3.46,3.56-3.73-3.15,3.92-4a4.15,4.15,0,0,1,2.92-1.17h7a4.15,4.15,0,0,1,2.92,1.17l2.79,2.83a4.29,4.29,0,0,1,1.21,2.88v4.72a4.29,4.29,0,0,1-1.21,2.88l-14.62,15.12v.63h15.93v4.77H338.66v-5a4.87,4.87,0,0,1,1.3-3.6l14.53-15.07v-4.18Z"/><path d="M385.27,386.23l-2.43,10h-4.23v-3.51l7.2-29.61a2.24,2.24,0,0,1,2.34-1.89h5.71a2.24,2.24,0,0,1,2.34,1.89l7.2,29.61v3.51h-4.23l-2.43-10ZM390.09,366l-3.6,15.48h9L391.93,366Z"/><path d="M408.81,361.21h14.8a4.15,4.15,0,0,1,2.92,1.17l2.79,2.83a4.29,4.29,0,0,1,1.21,2.88v11a4.29,4.29,0,0,1-1.21,2.88l-2.79,2.83a4,4,0,0,1-1.8,1l5.8,7.33v3h-3.87l-8-10.21h-5v10.21h-4.95Zm16.78,7.16L423.25,366h-9.5v15.25h9.5l2.34-2.38Z"/><path d="M437.52,361.21h20V366H442.47v10.21H454V381H442.47v10.48h15.07v4.77h-20Z"/><path d="M464.92,361.21H470l11.7,18.63V361.21h4.95v35h-4.95v-7.42L469.87,370v26.23h-4.95Z"/><path d="M498.72,386.23l-2.43,10h-4.23v-3.51l7.2-29.61a2.24,2.24,0,0,1,2.34-1.89h5.71a2.24,2.24,0,0,1,2.34,1.89l7.2,29.61v3.51h-4.23l-2.43-10ZM503.53,366l-3.6,15.48h9L505.38,366Z"/></g><g id="Don_t" data-name="Don&apos;t"><line class="cls-2" y1="600" x2="600"/></g></svg>