<svg xmlns="http://www.w3.org/2000/svg" viewBox="0 0 600 600"><defs><style>.cls-1{fill:#fff;}.cls-2{fill:none;stroke:#000;stroke-miterlimit:10;stroke-width:6px;}</style></defs><title>do&amp;apos;s_don&amp;apos;ts_typografi_outline</title><g id="Layer_1" data-name="Layer 1"><rect class="cls-1" width="600" height="600"/><path d="M79.94,137.57v-24.5h2.9v21.84H93.49v2.66Z"/><path d="M104.72,138.1a7.86,7.86,0,0,1-6.05-2.59,10.25,10.25,0,0,1-2.38-7.21,10.1,10.1,0,0,1,2.45-7.17,7.87,7.87,0,0,1,6-2.62,7.68,7.68,0,0,1,5.9,2.63,10.24,10.24,0,0,1,2.4,7.17,10.35,10.35,0,0,1-2.34,7.21A7.67,7.67,0,0,1,104.72,138.1Zm0-2.59a4.83,4.83,0,0,0,3.9-1.91,9.85,9.85,0,0,0,0-10.6,4.82,4.82,0,0,0-3.92-1.91,5,5,0,0,0-4,1.87,9.83,9.83,0,0,0,0,10.67A5,5,0,0,0,104.72,135.51Z"/><path d="M117.74,137.57V119h2.73v2h.07a3.89,3.89,0,0,1,1.64-1.71,4.54,4.54,0,0,1,2.21-.6,3.84,3.84,0,0,1,.82.09c.27.06.47.11.61.16l.17.11-.52,2.83a3.17,3.17,0,0,0-1.47-.28,2.91,2.91,0,0,0-2.59,1.17,6.79,6.79,0,0,0-.8,3.76v11Z"/><path d="M142.87,131.87l2.31,1.5a9.23,9.23,0,0,1-3,3.38,8.19,8.19,0,0,1-4.78,1.35,8,8,0,0,1-6.19-2.68,10.23,10.23,0,0,1-2.42-7.12,10.37,10.37,0,0,1,2.36-7.12,7.77,7.77,0,0,1,6.11-2.68,7.64,7.64,0,0,1,6,2.63,10.49,10.49,0,0,1,2.31,7.17v.84H131.67a7.25,7.25,0,0,0,1.49,4.51,5,5,0,0,0,4.18,1.85,6.28,6.28,0,0,0,2-.3,7,7,0,0,0,1.4-.59,4.17,4.17,0,0,0,1-1,10.71,10.71,0,0,0,.67-.89C142.48,132.6,142.64,132.31,142.87,131.87Zm-11.13-5h11a6.77,6.77,0,0,0-1.4-4.06,5.61,5.61,0,0,0-8.19.12A6.56,6.56,0,0,0,131.74,126.86Z"/><path d="M150.33,137.57V119h2.59v1.79H153a4.89,4.89,0,0,1,2-1.66,6.1,6.1,0,0,1,2.76-.65,5.48,5.48,0,0,1,3,.79,5.6,5.6,0,0,1,1.91,1.94h.07a5.54,5.54,0,0,1,2-1.92,6.17,6.17,0,0,1,3.17-.81,6,6,0,0,1,6.41,6.44v12.63h-2.77V125.81q0-4.69-3.78-4.69a3.84,3.84,0,0,0-3,1.17,4.68,4.68,0,0,0-1.07,3.27v12h-2.77V125.81q0-4.69-3.78-4.69a3.6,3.6,0,0,0-3,1.24,5,5,0,0,0-1,3.2v12Z"/><path d="M188.82,115.28V112h3.29v3.25Zm.21,22.29V119h2.87v18.55Z"/><path d="M198.06,145.45V119h2.73v1.79h.07a6.36,6.36,0,0,1,2.1-1.59,7,7,0,0,1,3.22-.72,7.31,7.31,0,0,1,5.77,2.68,10.52,10.52,0,0,1,2.31,7.12,10.73,10.73,0,0,1-2.24,7.14,7.28,7.28,0,0,1-5.84,2.66,6.8,6.8,0,0,1-3.15-.74,5.52,5.52,0,0,1-2-1.58h-.07v9.66Zm2.87-19.84v5.88a3.66,3.66,0,0,0,1.36,2.82,4.94,4.94,0,0,0,3.4,1.21,5.1,5.1,0,0,0,4.25-1.89,10.17,10.17,0,0,0,0-10.62,5.09,5.09,0,0,0-4.24-1.91,4.51,4.51,0,0,0-3.45,1.4A4.45,4.45,0,0,0,200.94,125.6Z"/><path d="M217.59,131.27l2.7-.53q.52,4.87,5.14,4.87a5.6,5.6,0,0,0,3.31-.8,2.52,2.52,0,0,0,1.1-2.14,2.37,2.37,0,0,0-1-2.1,17.1,17.1,0,0,0-4.32-1.61,13.09,13.09,0,0,1-4.83-2.13,4,4,0,0,1-1.4-3.22A4.65,4.65,0,0,1,220,120a6.86,6.86,0,0,1,4.72-1.52,7.43,7.43,0,0,1,4.83,1.45,7,7,0,0,1,2.38,3.87l-2.49.67a4.54,4.54,0,0,0-4.72-3.54,4.45,4.45,0,0,0-2.8.77,2.27,2.27,0,0,0-1,1.82,1.86,1.86,0,0,0,.95,1.71,23.18,23.18,0,0,0,4.34,1.54,12,12,0,0,1,5,2.33,4.84,4.84,0,0,1,1.38,3.55,5,5,0,0,1-1.77,3.82,9.37,9.37,0,0,1-10.92-.3A7.79,7.79,0,0,1,217.59,131.27Z"/><path d="M236.91,131.1V119h2.87v11.66a5.39,5.39,0,0,0,1,3.67,4.32,4.32,0,0,0,3.31,1.08,4,4,0,0,0,3.22-1.29,5.34,5.34,0,0,0,1.12-3.61V119h2.83v18.55h-2.8v-1.79h-.07a7.2,7.2,0,0,1-.52.63,6.42,6.42,0,0,1-1.63,1,6.08,6.08,0,0,1-2.78.65,6.46,6.46,0,0,1-4.81-1.75A7.17,7.17,0,0,1,236.91,131.1Z"/><path d="M257.21,137.57V119h2.59v1.79h.07a4.89,4.89,0,0,1,2-1.66,6.1,6.1,0,0,1,2.77-.65,5.47,5.47,0,0,1,3,.79,5.6,5.6,0,0,1,1.91,1.94h.07a5.53,5.53,0,0,1,2-1.92,6.17,6.17,0,0,1,3.17-.81,6,6,0,0,1,6.41,6.44v12.63h-2.77V125.81q0-4.69-3.78-4.69a3.85,3.85,0,0,0-3,1.17,4.69,4.69,0,0,0-1.07,3.27v12h-2.77V125.81q0-4.69-3.78-4.69a3.6,3.6,0,0,0-3,1.24,5,5,0,0,0-1,3.2v12Z"/><path d="M308,137.57v-1.79H308a6.73,6.73,0,0,1-2.15,1.59,7.8,7.8,0,0,1-9.13-1.94,10.89,10.89,0,0,1-2.19-7.14,10.57,10.57,0,0,1,2.29-7.12,7.26,7.26,0,0,1,5.76-2.68,6.42,6.42,0,0,1,5.15,2.31h.07V112h2.87v25.55Zm-.28-6.16v-5.74a4.58,4.58,0,0,0-1.29-3.17,4.46,4.46,0,0,0-3.46-1.42,5,5,0,0,0-4.2,1.89,10.58,10.58,0,0,0,0,10.64,5,5,0,0,0,4.2,1.89,4.89,4.89,0,0,0,3.4-1.22A3.75,3.75,0,0,0,307.75,131.41Z"/><path d="M323.78,138.1a7.86,7.86,0,0,1-6.05-2.59,10.25,10.25,0,0,1-2.38-7.21,10.1,10.1,0,0,1,2.45-7.17,7.87,7.87,0,0,1,6-2.62,7.67,7.67,0,0,1,5.9,2.63,10.24,10.24,0,0,1,2.4,7.17,10.35,10.35,0,0,1-2.35,7.21A7.67,7.67,0,0,1,323.78,138.1Zm0-2.59a4.84,4.84,0,0,0,3.9-1.91,9.86,9.86,0,0,0,0-10.6,4.83,4.83,0,0,0-3.92-1.91,5,5,0,0,0-4,1.87,9.83,9.83,0,0,0,0,10.67A5,5,0,0,0,323.78,135.51Z"/><path d="M336.8,137.57V112h2.91v25.55Z"/><path d="M352.87,138.1a7.86,7.86,0,0,1-6.05-2.59,10.25,10.25,0,0,1-2.38-7.21,10.1,10.1,0,0,1,2.45-7.17,7.87,7.87,0,0,1,6-2.62,7.67,7.67,0,0,1,5.9,2.63,10.24,10.24,0,0,1,2.4,7.17,10.35,10.35,0,0,1-2.35,7.21A7.67,7.67,0,0,1,352.87,138.1Zm0-2.59a4.84,4.84,0,0,0,3.9-1.91,9.86,9.86,0,0,0,0-10.6,4.83,4.83,0,0,0-3.92-1.91,5,5,0,0,0-4,1.87,9.83,9.83,0,0,0,0,10.67A5,5,0,0,0,352.87,135.51Z"/><path d="M365.89,137.57V119h2.73v2h.07a3.89,3.89,0,0,1,1.64-1.71,4.54,4.54,0,0,1,2.21-.6,3.84,3.84,0,0,1,.82.09q.4.09.61.16l.18.11-.53,2.83a3.17,3.17,0,0,0-1.47-.28,2.91,2.91,0,0,0-2.59,1.17,6.79,6.79,0,0,0-.81,3.76v11Z"/><path d="M385.52,131.27l2.69-.53q.53,4.87,5.15,4.87a5.6,5.6,0,0,0,3.31-.8,2.52,2.52,0,0,0,1.1-2.14,2.37,2.37,0,0,0-1-2.1,17.11,17.11,0,0,0-4.32-1.61,13.1,13.1,0,0,1-4.83-2.13,4,4,0,0,1-1.4-3.22A4.66,4.66,0,0,1,387.9,120a6.87,6.87,0,0,1,4.72-1.52,7.43,7.43,0,0,1,4.83,1.45,7,7,0,0,1,2.38,3.87l-2.48.67a4.54,4.54,0,0,0-4.73-3.54,4.45,4.45,0,0,0-2.8.77,2.27,2.27,0,0,0-1,1.82,1.86,1.86,0,0,0,.94,1.71,23.21,23.21,0,0,0,4.34,1.54,12,12,0,0,1,5,2.33,4.85,4.85,0,0,1,1.38,3.55,5,5,0,0,1-1.77,3.82,9.37,9.37,0,0,1-10.92-.3A7.78,7.78,0,0,1,385.52,131.27Z"/><path d="M405,115.28V112h3.29v3.25Zm.21,22.29V119h2.87v18.55Z"/><path d="M414.92,132.19V121.58h-2.59V119H415v-4.55h2.73V119h4.58v2.55h-4.55v10.25a4.3,4.3,0,0,0,.46,2.31,2.08,2.08,0,0,0,1.82.67h1.4v2.76h-1.54a4.79,4.79,0,0,1-3.8-1.35A6,6,0,0,1,414.92,132.19Z"/><path d="M446.39,137.57v-2h-.07a5.09,5.09,0,0,1-2,1.73,7.45,7.45,0,0,1-3.68.82,6.56,6.56,0,0,1-4.67-1.51,5,5,0,0,1-1.59-3.78,4.69,4.69,0,0,1,1.42-3.62,11.38,11.38,0,0,1,4.81-2.19l1.87-.49q.61-.18,1.42-.47a4.32,4.32,0,0,0,1.16-.58,2.76,2.76,0,0,0,.61-.7,1.74,1.74,0,0,0,.26-.95,2.46,2.46,0,0,0-1-2,4.55,4.55,0,0,0-2.92-.79,4.2,4.2,0,0,0-4.51,3.67l-2.59-.74a6.58,6.58,0,0,1,2.28-4,7.12,7.12,0,0,1,4.72-1.52,7.61,7.61,0,0,1,5.09,1.59q1.87,1.59,1.87,5v12.5Zm-5.11-8.37a8.56,8.56,0,0,0-3.24,1.44,2.56,2.56,0,0,0-.86,2q0,2.9,3.67,2.9a5.91,5.91,0,0,0,3.89-1.14,3.49,3.49,0,0,0,1.36-2.78V127H446Q445.54,128,441.27,129.21Z"/><path d="M454.5,137.57V119h2.59v1.79h.07a4.89,4.89,0,0,1,2-1.66,6.1,6.1,0,0,1,2.77-.65,5.47,5.47,0,0,1,3,.79,5.61,5.61,0,0,1,1.91,1.94h.07a5.54,5.54,0,0,1,2-1.92,6.17,6.17,0,0,1,3.17-.81,6,6,0,0,1,6.41,6.44v12.63h-2.77V125.81q0-4.69-3.78-4.69a3.84,3.84,0,0,0-3,1.17,4.68,4.68,0,0,0-1.07,3.27v12h-2.76V125.81q0-4.69-3.78-4.69a3.6,3.6,0,0,0-3,1.24,5,5,0,0,0-1,3.2v12Z"/><path d="M497.1,131.87l2.31,1.5a9.23,9.23,0,0,1-3,3.38,8.18,8.18,0,0,1-4.78,1.35,8,8,0,0,1-6.2-2.68A10.23,10.23,0,0,1,483,128.3a10.37,10.37,0,0,1,2.36-7.12,7.77,7.77,0,0,1,6.11-2.68,7.64,7.64,0,0,1,6,2.63,10.48,10.48,0,0,1,2.31,7.17v.84H485.9a7.25,7.25,0,0,0,1.49,4.51,5,5,0,0,0,4.18,1.85,6.28,6.28,0,0,0,2-.3,7,7,0,0,0,1.4-.59,4.17,4.17,0,0,0,1-1,10.71,10.71,0,0,0,.67-.89Q496.75,132.54,497.1,131.87Zm-11.13-5h11a6.78,6.78,0,0,0-1.4-4.06,5.61,5.61,0,0,0-8.19.12A6.56,6.56,0,0,0,486,126.86Z"/><path d="M505.22,132.19V121.58h-2.59V119h2.66v-4.55H508V119h4.58v2.55h-4.55v10.25a4.3,4.3,0,0,0,.46,2.31,2.08,2.08,0,0,0,1.82.67h1.4v2.76h-1.54a4.79,4.79,0,0,1-3.8-1.35A6,6,0,0,1,505.22,132.19Z"/><path d="M517.5,141.28v-1.58a1.92,1.92,0,0,0,1.68-2.13H517.5v-4.13h4.13V137Q521.63,141,517.5,141.28Z"/><path d="M84.82,168.47l2.77.56A8.3,8.3,0,0,1,85,174.17a7.38,7.38,0,0,1-5.18,1.93,7.81,7.81,0,0,1-6.09-2.61,10.37,10.37,0,0,1-2.34-7.19,10.21,10.21,0,0,1,2.41-7.16,7.82,7.82,0,0,1,6-2.64,7.25,7.25,0,0,1,5.06,1.89,8,8,0,0,1,2.54,4.9l-2.7.56a7.21,7.21,0,0,0-1.61-3.41,4.16,4.16,0,0,0-3.29-1.35A5,5,0,0,0,75.8,161a8.22,8.22,0,0,0-1.54,5.3,8.37,8.37,0,0,0,1.51,5.29,5,5,0,0,0,4.13,1.92A4.25,4.25,0,0,0,83.25,172,6.65,6.65,0,0,0,84.82,168.47Z"/><path d="M99.35,176.1a7.86,7.86,0,0,1-6.06-2.59,10.25,10.25,0,0,1-2.38-7.21,10.1,10.1,0,0,1,2.45-7.17,7.87,7.87,0,0,1,6-2.62,7.67,7.67,0,0,1,5.9,2.63,10.24,10.24,0,0,1,2.4,7.17,10.36,10.36,0,0,1-2.35,7.21A7.67,7.67,0,0,1,99.35,176.1Zm0-2.59a4.84,4.84,0,0,0,3.9-1.91,9.86,9.86,0,0,0,0-10.6,4.83,4.83,0,0,0-3.92-1.91,5,5,0,0,0-4,1.87,9.83,9.83,0,0,0,0,10.67A5,5,0,0,0,99.35,173.51Z"/><path d="M112.37,175.57V157h2.8v1.79h.07a5.57,5.57,0,0,1,2.21-1.66,7.24,7.24,0,0,1,3-.65,6.52,6.52,0,0,1,4.85,1.86,6.85,6.85,0,0,1,1.84,5v12.18H124.3V164.31q0-5.18-4.27-5.18a4.9,4.9,0,0,0-3.48,1.23,4.42,4.42,0,0,0-1.31,3.39v11.83Z"/><path d="M131.51,169.27l2.69-.53q.53,4.87,5.15,4.87a5.59,5.59,0,0,0,3.31-.8,2.52,2.52,0,0,0,1.1-2.14,2.37,2.37,0,0,0-1-2.1,17.08,17.08,0,0,0-4.32-1.61,13.09,13.09,0,0,1-4.83-2.13,4,4,0,0,1-1.4-3.22,4.66,4.66,0,0,1,1.71-3.59,6.87,6.87,0,0,1,4.73-1.52,7.42,7.42,0,0,1,4.83,1.45,7,7,0,0,1,2.38,3.87l-2.49.67a4.54,4.54,0,0,0-4.72-3.54,4.44,4.44,0,0,0-2.8.77,2.26,2.26,0,0,0-1,1.82,1.86,1.86,0,0,0,.95,1.71,23.18,23.18,0,0,0,4.34,1.54,12,12,0,0,1,5,2.33,4.85,4.85,0,0,1,1.38,3.55,5,5,0,0,1-1.77,3.82,9.37,9.37,0,0,1-10.92-.3A7.78,7.78,0,0,1,131.51,169.27Z"/><path d="M163.85,169.87l2.31,1.5a9.22,9.22,0,0,1-3,3.38,8.18,8.18,0,0,1-4.78,1.35,8,8,0,0,1-6.2-2.68,10.23,10.23,0,0,1-2.41-7.12,10.38,10.38,0,0,1,2.36-7.12,7.77,7.77,0,0,1,6.11-2.68,7.64,7.64,0,0,1,6,2.63,10.49,10.49,0,0,1,2.31,7.17v.84H152.65a7.26,7.26,0,0,0,1.49,4.51,5,5,0,0,0,4.18,1.85,6.28,6.28,0,0,0,2-.3,7,7,0,0,0,1.4-.59,4.14,4.14,0,0,0,1-1,10.81,10.81,0,0,0,.67-.89Q163.5,170.54,163.85,169.87Zm-11.13-5h11a6.77,6.77,0,0,0-1.4-4.06,5.61,5.61,0,0,0-8.19.12A6.56,6.56,0,0,0,152.72,164.86Z"/><path d="M183.49,168.47l2.77.56a8.29,8.29,0,0,1-2.55,5.14,7.38,7.38,0,0,1-5.18,1.93,7.81,7.81,0,0,1-6.09-2.61,10.36,10.36,0,0,1-2.35-7.19,10.2,10.2,0,0,1,2.42-7.16,7.82,7.82,0,0,1,6-2.64,7.25,7.25,0,0,1,5.06,1.89,8,8,0,0,1,2.54,4.9l-2.69.56a7.22,7.22,0,0,0-1.61-3.41,4.16,4.16,0,0,0-3.29-1.35,5,5,0,0,0-4.06,1.91,8.22,8.22,0,0,0-1.54,5.3,8.37,8.37,0,0,0,1.5,5.29,5,5,0,0,0,4.13,1.92,4.24,4.24,0,0,0,3.36-1.49A6.64,6.64,0,0,0,183.49,168.47Z"/><path d="M191.47,170.19V159.58h-2.59V157h2.66v-4.55h2.73V157h4.58v2.55H194.3v10.25a4.29,4.29,0,0,0,.46,2.31,2.07,2.07,0,0,0,1.82.67H198v2.76h-1.54a4.79,4.79,0,0,1-3.8-1.35A6,6,0,0,1,191.47,170.19Z"/><path d="M215.55,169.87l2.31,1.5a9.23,9.23,0,0,1-3,3.38,8.19,8.19,0,0,1-4.78,1.35,8,8,0,0,1-6.19-2.68,10.23,10.23,0,0,1-2.42-7.12,10.37,10.37,0,0,1,2.36-7.12,7.77,7.77,0,0,1,6.11-2.68,7.64,7.64,0,0,1,6,2.63,10.49,10.49,0,0,1,2.31,7.17v.84H204.35a7.25,7.25,0,0,0,1.49,4.51,5,5,0,0,0,4.18,1.85,6.28,6.28,0,0,0,2-.3,7,7,0,0,0,1.4-.59,4.17,4.17,0,0,0,1-1,10.71,10.71,0,0,0,.67-.89C215.16,170.6,215.31,170.31,215.55,169.87Zm-11.13-5h11a6.77,6.77,0,0,0-1.4-4.06,5.61,5.61,0,0,0-8.19.12A6.56,6.56,0,0,0,204.42,164.86Z"/><path d="M223.67,170.19V159.58h-2.59V157h2.66v-4.55h2.73V157h4.58v2.55H226.5v10.25a4.29,4.29,0,0,0,.46,2.31,2.07,2.07,0,0,0,1.82.67h1.4v2.76h-1.54a4.79,4.79,0,0,1-3.8-1.35A6,6,0,0,1,223.67,170.19Z"/><path d="M235.43,169.1V157h2.87v11.66a5.39,5.39,0,0,0,1,3.67,4.32,4.32,0,0,0,3.31,1.08,4,4,0,0,0,3.22-1.29,5.34,5.34,0,0,0,1.12-3.61V157h2.83v18.55H247v-1.79h-.07a7.2,7.2,0,0,1-.52.63,6.42,6.42,0,0,1-1.63,1,6.08,6.08,0,0,1-2.78.65,6.46,6.46,0,0,1-4.81-1.75A7.17,7.17,0,0,1,235.43,169.1Z"/><path d="M268.57,169.87l2.31,1.5a9.24,9.24,0,0,1-3,3.38,8.19,8.19,0,0,1-4.78,1.35,8,8,0,0,1-6.2-2.68,10.23,10.23,0,0,1-2.42-7.12,10.37,10.37,0,0,1,2.36-7.12A7.76,7.76,0,0,1,263,156.5a7.64,7.64,0,0,1,6,2.63,10.48,10.48,0,0,1,2.31,7.17v.84H257.37a7.25,7.25,0,0,0,1.49,4.51,5,5,0,0,0,4.18,1.85,6.27,6.27,0,0,0,2-.3,6.93,6.93,0,0,0,1.4-.59,4.19,4.19,0,0,0,1-1,10.61,10.61,0,0,0,.66-.89Q268.22,170.54,268.57,169.87Zm-11.13-5h11a6.78,6.78,0,0,0-1.4-4.06,5.61,5.61,0,0,0-8.19.12A6.56,6.56,0,0,0,257.44,164.86Z"/><path d="M276,175.57V157h2.73v2h.07a3.89,3.89,0,0,1,1.64-1.71,4.54,4.54,0,0,1,2.21-.6,3.84,3.84,0,0,1,.82.09q.4.09.61.16l.18.11-.53,2.83a3.17,3.17,0,0,0-1.47-.28,2.91,2.91,0,0,0-2.59,1.17,6.79,6.79,0,0,0-.81,3.76v11Z"/><path d="M307.84,175.57v-2h-.07a5.09,5.09,0,0,1-2,1.73,7.45,7.45,0,0,1-3.68.82,6.56,6.56,0,0,1-4.67-1.51,5,5,0,0,1-1.59-3.78,4.69,4.69,0,0,1,1.42-3.62,11.38,11.38,0,0,1,4.81-2.19l1.87-.49q.61-.18,1.42-.47a4.32,4.32,0,0,0,1.16-.58,2.76,2.76,0,0,0,.61-.7,1.74,1.74,0,0,0,.26-.95,2.46,2.46,0,0,0-1-2,4.55,4.55,0,0,0-2.92-.79,4.2,4.2,0,0,0-4.51,3.67L296.4,162a6.58,6.58,0,0,1,2.28-4,7.12,7.12,0,0,1,4.72-1.52,7.61,7.61,0,0,1,5.09,1.59q1.87,1.59,1.87,5v12.5Zm-5.11-8.37a8.56,8.56,0,0,0-3.24,1.44,2.56,2.56,0,0,0-.86,2q0,2.9,3.67,2.9a5.91,5.91,0,0,0,3.89-1.14,3.49,3.49,0,0,0,1.36-2.78V165h-.07Q307,166,302.73,167.21Z"/><path d="M328.28,175.57v-1.79h-.07a6.73,6.73,0,0,1-2.15,1.59,7.8,7.8,0,0,1-9.13-1.94,10.89,10.89,0,0,1-2.19-7.14,10.57,10.57,0,0,1,2.29-7.12,7.26,7.26,0,0,1,5.76-2.68,6.42,6.42,0,0,1,5.15,2.31H328V150h2.87v25.55Zm-.28-6.16v-5.74a4.58,4.58,0,0,0-1.29-3.17,4.46,4.46,0,0,0-3.46-1.42A5,5,0,0,0,319,161a10.58,10.58,0,0,0,0,10.64,5,5,0,0,0,4.2,1.89,4.89,4.89,0,0,0,3.4-1.22A3.75,3.75,0,0,0,328,169.41Z"/><path d="M336.82,153.28V150h3.29v3.25Zm.21,22.29V157h2.87v18.55Z"/><path d="M346.06,183.45V157h2.73v1.79h.07a6.35,6.35,0,0,1,2.1-1.59,7,7,0,0,1,3.22-.72,7.31,7.31,0,0,1,5.78,2.68,10.52,10.52,0,0,1,2.31,7.12,10.73,10.73,0,0,1-2.24,7.14,7.28,7.28,0,0,1-5.85,2.66,6.8,6.8,0,0,1-3.15-.74,5.52,5.52,0,0,1-2-1.58h-.07v9.66Zm2.87-19.84v5.88a3.66,3.66,0,0,0,1.37,2.82,4.94,4.94,0,0,0,3.4,1.21,5.09,5.09,0,0,0,4.25-1.89,10.17,10.17,0,0,0,0-10.62,5.09,5.09,0,0,0-4.23-1.91,4.51,4.51,0,0,0-3.45,1.4A4.45,4.45,0,0,0,348.93,163.6Z"/><path d="M367,153.28V150h3.29v3.25Zm.21,22.29V157h2.87v18.55Z"/><path d="M374.83,169.27l2.69-.53q.53,4.87,5.15,4.87a5.6,5.6,0,0,0,3.31-.8,2.52,2.52,0,0,0,1.1-2.14,2.37,2.37,0,0,0-1-2.1,17.11,17.11,0,0,0-4.32-1.61,13.1,13.1,0,0,1-4.83-2.13,4,4,0,0,1-1.4-3.22,4.66,4.66,0,0,1,1.71-3.59,6.87,6.87,0,0,1,4.72-1.52,7.43,7.43,0,0,1,4.83,1.45,7,7,0,0,1,2.38,3.87l-2.48.67a4.54,4.54,0,0,0-4.73-3.54,4.45,4.45,0,0,0-2.8.77,2.27,2.27,0,0,0-1,1.82,1.86,1.86,0,0,0,.94,1.71,23.21,23.21,0,0,0,4.34,1.54,12,12,0,0,1,5,2.33,4.85,4.85,0,0,1,1.38,3.55,5,5,0,0,1-1.77,3.82,9.37,9.37,0,0,1-10.92-.3A7.78,7.78,0,0,1,374.83,169.27Z"/><path d="M406.5,168.47l2.76.56a8.3,8.3,0,0,1-2.55,5.14,7.38,7.38,0,0,1-5.18,1.93,7.81,7.81,0,0,1-6.09-2.61,10.37,10.37,0,0,1-2.34-7.19,10.2,10.2,0,0,1,2.42-7.16,7.82,7.82,0,0,1,6-2.64,7.25,7.25,0,0,1,5.06,1.89,8,8,0,0,1,2.54,4.9l-2.7.56a7.22,7.22,0,0,0-1.61-3.41,4.16,4.16,0,0,0-3.29-1.35,5,5,0,0,0-4.06,1.91,8.22,8.22,0,0,0-1.54,5.3,8.38,8.38,0,0,0,1.5,5.29,5,5,0,0,0,4.13,1.92,4.24,4.24,0,0,0,3.36-1.49A6.64,6.64,0,0,0,406.5,168.47Z"/><path d="M413.82,153.28V150h3.29v3.25Zm.21,22.29V157h2.87v18.55Z"/><path d="M423.06,175.57V157h2.8v1.79h.07a5.57,5.57,0,0,1,2.21-1.66,7.24,7.24,0,0,1,3-.65,6.52,6.52,0,0,1,4.85,1.86,6.85,6.85,0,0,1,1.84,5v12.18H435V164.31q0-5.18-4.27-5.18a4.9,4.9,0,0,0-3.48,1.23,4.42,4.42,0,0,0-1.31,3.39v11.83Z"/><path d="M443.78,178.94l2.42-1.23a6.68,6.68,0,0,0,1.73,2.71,5.32,5.32,0,0,0,6.6-.32,5.15,5.15,0,0,0,1.23-3.66V174h-.07a6.39,6.39,0,0,1-5.14,2.14,7.35,7.35,0,0,1-5.92-2.66,10.72,10.72,0,0,1-2.24-7.14,10.47,10.47,0,0,1,2.33-7.12,7.37,7.37,0,0,1,5.79-2.68,6.31,6.31,0,0,1,5.21,2.31h.07V157h2.8v18.83a8.44,8.44,0,0,1-2,6,7.19,7.19,0,0,1-5.48,2.08,7.71,7.71,0,0,1-4.71-1.38A7.36,7.36,0,0,1,443.78,178.94Zm12-9.45V163.6a4.45,4.45,0,0,0-1.31-3.12,4.55,4.55,0,0,0-3.48-1.4,5,5,0,0,0-4.22,1.91,10.28,10.28,0,0,0,0,10.62,5,5,0,0,0,4.24,1.89,5,5,0,0,0,3.43-1.21A3.66,3.66,0,0,0,455.75,169.48Z"/><path d="M486,169.87l2.31,1.5a9.23,9.23,0,0,1-3,3.38,8.18,8.18,0,0,1-4.78,1.35,8,8,0,0,1-6.2-2.68,10.23,10.23,0,0,1-2.42-7.12,10.37,10.37,0,0,1,2.36-7.12,7.77,7.77,0,0,1,6.11-2.68,7.64,7.64,0,0,1,6,2.63,10.48,10.48,0,0,1,2.31,7.17v.84H474.75a7.25,7.25,0,0,0,1.49,4.51,5,5,0,0,0,4.18,1.85,6.28,6.28,0,0,0,2-.3,7,7,0,0,0,1.4-.59,4.17,4.17,0,0,0,1-1,10.71,10.71,0,0,0,.67-.89Q485.6,170.54,486,169.87Zm-11.13-5h11a6.78,6.78,0,0,0-1.4-4.06,5.61,5.61,0,0,0-8.19.12A6.56,6.56,0,0,0,474.82,164.86Z"/><path d="M493.41,175.57V150h2.91v25.55Z"/><path d="M502.26,153.28V150h3.29v3.25Zm.21,22.29V157h2.87v18.55Z"/><path d="M512.17,170.19V159.58h-2.59V157h2.66v-4.55H515V157h4.58v2.55H515v10.25a4.3,4.3,0,0,0,.46,2.31,2.08,2.08,0,0,0,1.82.67h1.4v2.76h-1.54a4.79,4.79,0,0,1-3.8-1.35A6,6,0,0,1,512.17,170.19Z"/><path d="M524.45,179.28v-1.58a1.92,1.92,0,0,0,1.68-2.13h-1.68v-4.13h4.13V175Q528.58,179,524.45,179.28Z"/><path d="M104.13,207.27l2.7-.53q.52,4.87,5.14,4.87a5.6,5.6,0,0,0,3.31-.8,2.52,2.52,0,0,0,1.1-2.14,2.37,2.37,0,0,0-1-2.1A17.1,17.1,0,0,0,111,205a13.09,13.09,0,0,1-4.83-2.13,4,4,0,0,1-1.4-3.22,4.65,4.65,0,0,1,1.71-3.59,6.86,6.86,0,0,1,4.72-1.52,7.43,7.43,0,0,1,4.83,1.45,7,7,0,0,1,2.38,3.87l-2.49.67a4.54,4.54,0,0,0-4.72-3.54,4.45,4.45,0,0,0-2.8.77,2.27,2.27,0,0,0-1,1.82,1.86,1.86,0,0,0,.95,1.71,23.18,23.18,0,0,0,4.34,1.54,12,12,0,0,1,5,2.33,4.84,4.84,0,0,1,1.38,3.55,5,5,0,0,1-1.77,3.82,9.37,9.37,0,0,1-10.92-.3A7.79,7.79,0,0,1,104.13,207.27Z"/><path d="M136.47,207.87l2.31,1.5a9.23,9.23,0,0,1-3,3.38A8.19,8.19,0,0,1,131,214.1a8,8,0,0,1-6.19-2.68,10.23,10.23,0,0,1-2.42-7.12,10.37,10.37,0,0,1,2.36-7.12,7.77,7.77,0,0,1,6.11-2.68,7.64,7.64,0,0,1,6,2.63,10.48,10.48,0,0,1,2.31,7.17v.84H125.27a7.26,7.26,0,0,0,1.49,4.51,5,5,0,0,0,4.18,1.85,6.27,6.27,0,0,0,2-.3,7,7,0,0,0,1.4-.59,4.19,4.19,0,0,0,1-1,10.61,10.61,0,0,0,.66-.89Q136.12,208.54,136.47,207.87Zm-11.13-5h11a6.77,6.77,0,0,0-1.4-4.06,5.61,5.61,0,0,0-8.19.12A6.56,6.56,0,0,0,125.34,202.86Z"/><path d="M156.24,213.57v-1.79h-.07a6.75,6.75,0,0,1-2.15,1.59,7.8,7.8,0,0,1-9.13-1.94,10.9,10.9,0,0,1-2.19-7.14,10.58,10.58,0,0,1,2.29-7.12,7.26,7.26,0,0,1,5.76-2.68,6.42,6.42,0,0,1,5.14,2.31H156V188h2.87v25.55Zm-.28-6.16v-5.74a4.58,4.58,0,0,0-1.29-3.17,4.46,4.46,0,0,0-3.46-1.42A4.94,4.94,0,0,0,147,199a10.57,10.57,0,0,0,0,10.64,5,5,0,0,0,4.2,1.89,4.89,4.89,0,0,0,3.39-1.22A3.75,3.75,0,0,0,156,207.41Z"/><path d="M185.85,213.57v-1.79h-.07a6.74,6.74,0,0,1-2.15,1.59,7.8,7.8,0,0,1-9.13-1.94,10.89,10.89,0,0,1-2.19-7.14,10.58,10.58,0,0,1,2.29-7.12,7.26,7.26,0,0,1,5.76-2.68,6.42,6.42,0,0,1,5.15,2.31h.07V188h2.87v25.55Zm-.28-6.16v-5.74a4.59,4.59,0,0,0-1.29-3.17,4.47,4.47,0,0,0-3.47-1.42,5,5,0,0,0-4.2,1.89,10.57,10.57,0,0,0,0,10.64,5,5,0,0,0,4.2,1.89,4.89,4.89,0,0,0,3.4-1.22A3.75,3.75,0,0,0,185.57,207.41Z"/><path d="M194.39,191.28V188h3.29v3.25Zm.21,22.29V195h2.87v18.55Z"/><path d="M214.41,213.57v-2h-.07a5.09,5.09,0,0,1-2,1.73,7.45,7.45,0,0,1-3.67.82,6.56,6.56,0,0,1-4.67-1.51,5,5,0,0,1-1.59-3.78,4.7,4.7,0,0,1,1.42-3.62,11.38,11.38,0,0,1,4.81-2.19l1.87-.49q.61-.18,1.42-.47a4.29,4.29,0,0,0,1.15-.58,2.76,2.76,0,0,0,.61-.7,1.75,1.75,0,0,0,.26-.95,2.45,2.45,0,0,0-1-2,4.55,4.55,0,0,0-2.92-.79,4.2,4.2,0,0,0-4.51,3.67L203,200a6.57,6.57,0,0,1,2.27-4A7.12,7.12,0,0,1,210,194.5a7.61,7.61,0,0,1,5.09,1.59q1.87,1.59,1.87,5v12.5Zm-5.11-8.37a8.56,8.56,0,0,0-3.24,1.44,2.56,2.56,0,0,0-.86,2q0,2.9,3.68,2.9a5.91,5.91,0,0,0,3.88-1.14,3.49,3.49,0,0,0,1.37-2.78V203h-.07Q213.57,204,209.3,205.21Z"/><path d="M222.53,213.57V195h2.59v1.79h.07a4.89,4.89,0,0,1,2-1.66,6.1,6.1,0,0,1,2.77-.65,5.47,5.47,0,0,1,3,.79,5.61,5.61,0,0,1,1.91,1.94h.07a5.54,5.54,0,0,1,2-1.92,6.17,6.17,0,0,1,3.17-.81,6,6,0,0,1,6.41,6.44v12.63h-2.77V201.81q0-4.69-3.78-4.69a3.84,3.84,0,0,0-3,1.17,4.68,4.68,0,0,0-1.07,3.27v12h-2.76V201.81q0-4.69-3.78-4.69a3.6,3.6,0,0,0-3,1.24,5,5,0,0,0-1,3.2v12Z"/><path d="M261,213.57V195h2.8v1.79h.07a5.57,5.57,0,0,1,2.21-1.66,7.24,7.24,0,0,1,3-.65,6.52,6.52,0,0,1,4.85,1.86,6.85,6.85,0,0,1,1.84,5v12.18H273V202.31q0-5.18-4.27-5.18a4.9,4.9,0,0,0-3.48,1.23,4.42,4.42,0,0,0-1.31,3.39v11.83Z"/><path d="M288.78,214.1a7.86,7.86,0,0,1-6.05-2.59,10.25,10.25,0,0,1-2.38-7.21,10.1,10.1,0,0,1,2.45-7.17,7.87,7.87,0,0,1,6-2.62,7.67,7.67,0,0,1,5.9,2.63,10.24,10.24,0,0,1,2.4,7.17,10.35,10.35,0,0,1-2.35,7.21A7.67,7.67,0,0,1,288.78,214.1Zm0-2.59a4.84,4.84,0,0,0,3.9-1.91,9.86,9.86,0,0,0,0-10.6,4.83,4.83,0,0,0-3.92-1.91,5,5,0,0,0-4,1.87,9.83,9.83,0,0,0,0,10.67A5,5,0,0,0,288.78,211.51Z"/><path d="M301.8,213.57V195h2.8v1.79h.07a5.57,5.57,0,0,1,2.21-1.66,7.24,7.24,0,0,1,3-.65,6.52,6.52,0,0,1,4.85,1.86,6.85,6.85,0,0,1,1.84,5v12.18h-2.83V202.31q0-5.18-4.27-5.18a4.9,4.9,0,0,0-3.48,1.23,4.42,4.42,0,0,0-1.31,3.39v11.83Z"/><path d="M322.17,207.1V195H325v11.66a5.39,5.39,0,0,0,1,3.67,4.32,4.32,0,0,0,3.31,1.08,4,4,0,0,0,3.22-1.29,5.34,5.34,0,0,0,1.12-3.61V195h2.83v18.55h-2.8v-1.79h-.07a7.24,7.24,0,0,1-.53.63,6.41,6.41,0,0,1-1.63,1,6.09,6.09,0,0,1-2.78.65,6.47,6.47,0,0,1-4.81-1.75A7.18,7.18,0,0,1,322.17,207.1Z"/><path d="M342.47,213.57V195h2.59v1.79h.07a4.89,4.89,0,0,1,2-1.66,6.1,6.1,0,0,1,2.77-.65,5.47,5.47,0,0,1,3,.79,5.61,5.61,0,0,1,1.91,1.94h.07a5.54,5.54,0,0,1,2-1.92,6.17,6.17,0,0,1,3.17-.81,6,6,0,0,1,6.41,6.44v12.63h-2.77V201.81q0-4.69-3.78-4.69a3.84,3.84,0,0,0-3,1.17,4.68,4.68,0,0,0-1.07,3.27v12h-2.76V201.81q0-4.69-3.78-4.69a3.6,3.6,0,0,0-3,1.24,5,5,0,0,0-1,3.2v12Z"/><path d="M372.22,213.57V195h2.59v1.79h.07a4.89,4.89,0,0,1,2-1.66,6.1,6.1,0,0,1,2.77-.65,5.47,5.47,0,0,1,3,.79,5.61,5.61,0,0,1,1.91,1.94h.07a5.54,5.54,0,0,1,2-1.92,6.17,6.17,0,0,1,3.17-.81,6,6,0,0,1,6.41,6.44v12.63h-2.77V201.81q0-4.69-3.78-4.69a3.84,3.84,0,0,0-3,1.17,4.68,4.68,0,0,0-1.07,3.27v12h-2.76V201.81q0-4.69-3.78-4.69a3.6,3.6,0,0,0-3,1.24,5,5,0,0,0-1,3.2v12Z"/><path d="M402.25,221.45l3.71-9.83L399,195h3l5.25,12.81h.07L412.05,195H415l-10,26.42Z"/><path d="M427.42,213.57V195h2.8v1.79h.07a5.57,5.57,0,0,1,2.21-1.66,7.24,7.24,0,0,1,3-.65,6.52,6.52,0,0,1,4.85,1.86,6.85,6.85,0,0,1,1.84,5v12.18h-2.83V202.31q0-5.18-4.27-5.18a4.9,4.9,0,0,0-3.48,1.23,4.42,4.42,0,0,0-1.31,3.39v11.83Z"/><path d="M448,191.28V188h3.29v3.25Zm.21,22.29V195H451v18.55Z"/><path d="M457.2,213.57V188h2.87v8.79h.07a6.42,6.42,0,0,1,5.14-2.31,7.23,7.23,0,0,1,5.78,2.7,10.64,10.64,0,0,1,2.28,7.1,10.9,10.9,0,0,1-2.19,7.14,7.8,7.8,0,0,1-9.14,1.94,6.75,6.75,0,0,1-2.15-1.59h-.07v1.79Zm2.87-11.9v5.74a3.75,3.75,0,0,0,1.37,2.87,4.89,4.89,0,0,0,3.4,1.22,5,5,0,0,0,4.2-1.89A10.57,10.57,0,0,0,469,199a5,5,0,0,0-4.2-1.89,4.46,4.46,0,0,0-3.47,1.42A4.58,4.58,0,0,0,460.07,201.67Z"/><path d="M478.06,213.57V188h2.87v8.85H481a5.5,5.5,0,0,1,2.26-1.71,7.68,7.68,0,0,1,3.17-.67,6.58,6.58,0,0,1,4.81,1.8,6.91,6.91,0,0,1,1.84,5.16v12.11h-2.87V202.23q0-5.11-4.3-5.11a4.93,4.93,0,0,0-3.62,1.33,4.65,4.65,0,0,0-1.35,3.46v11.66Z"/><path d="M86.89,245.87l2.31,1.5a9.22,9.22,0,0,1-3,3.38,8.18,8.18,0,0,1-4.78,1.35,8,8,0,0,1-6.2-2.68,10.23,10.23,0,0,1-2.42-7.12,10.38,10.38,0,0,1,2.36-7.12,7.77,7.77,0,0,1,6.11-2.68,7.64,7.64,0,0,1,6,2.63,10.48,10.48,0,0,1,2.31,7.17v.84H75.69a7.26,7.26,0,0,0,1.49,4.51,5,5,0,0,0,4.18,1.85,6.27,6.27,0,0,0,2-.3,6.94,6.94,0,0,0,1.4-.59,4.16,4.16,0,0,0,1-1,10.71,10.71,0,0,0,.67-.89C86.5,246.6,86.66,246.31,86.89,245.87Zm-11.13-5h11a6.77,6.77,0,0,0-1.4-4.06,5.61,5.61,0,0,0-8.19.12A6.56,6.56,0,0,0,75.76,240.86Z"/><path d="M94.17,245.1V233H97v11.66a5.39,5.39,0,0,0,1,3.67,4.32,4.32,0,0,0,3.31,1.08,4,4,0,0,0,3.22-1.29,5.33,5.33,0,0,0,1.12-3.61V233h2.83v18.55h-2.8v-1.79h-.07a7.24,7.24,0,0,1-.53.63,6.37,6.37,0,0,1-1.63,1,6.08,6.08,0,0,1-2.78.65,6.47,6.47,0,0,1-4.81-1.75A7.17,7.17,0,0,1,94.17,245.1Z"/><path d="M114.47,229.28V226h3.29v3.25Zm.21,22.29V233h2.87v18.55Z"/><path d="M122.31,245.27l2.7-.53q.52,4.87,5.14,4.87a5.6,5.6,0,0,0,3.31-.8,2.52,2.52,0,0,0,1.1-2.14,2.37,2.37,0,0,0-1-2.1A17.07,17.07,0,0,0,129.2,243a13.1,13.1,0,0,1-4.83-2.13,4,4,0,0,1-1.4-3.22,4.66,4.66,0,0,1,1.71-3.59,6.87,6.87,0,0,1,4.73-1.52,7.43,7.43,0,0,1,4.83,1.45,7,7,0,0,1,2.38,3.87l-2.48.67a4.54,4.54,0,0,0-4.72-3.54,4.45,4.45,0,0,0-2.8.77,2.27,2.27,0,0,0-1,1.82,1.86,1.86,0,0,0,.95,1.71,23.21,23.21,0,0,0,4.34,1.54,12,12,0,0,1,5,2.33,4.84,4.84,0,0,1,1.38,3.55,5,5,0,0,1-1.77,3.82,9.37,9.37,0,0,1-10.92-.3A7.78,7.78,0,0,1,122.31,245.27Z"/><path d="M141.8,251.57V233h2.59v1.79h.07a4.88,4.88,0,0,1,2-1.66,6.09,6.09,0,0,1,2.76-.65,5.48,5.48,0,0,1,3,.79,5.61,5.61,0,0,1,1.91,1.94h.07a5.54,5.54,0,0,1,2-1.92,6.18,6.18,0,0,1,3.17-.81,6,6,0,0,1,6.41,6.44v12.63H163V239.81q0-4.69-3.78-4.69a3.84,3.84,0,0,0-3,1.17,4.69,4.69,0,0,0-1.07,3.27v12h-2.77V239.81q0-4.69-3.78-4.69a3.6,3.6,0,0,0-3,1.24,5,5,0,0,0-1,3.2v12Z"/><path d="M178.76,252.1a7.86,7.86,0,0,1-6.06-2.59,10.26,10.26,0,0,1-2.38-7.21,10.1,10.1,0,0,1,2.45-7.17,7.88,7.88,0,0,1,6-2.62,7.68,7.68,0,0,1,5.9,2.63,10.24,10.24,0,0,1,2.4,7.17,10.36,10.36,0,0,1-2.34,7.21A7.68,7.68,0,0,1,178.76,252.1Zm0-2.59a4.83,4.83,0,0,0,3.9-1.91,9.85,9.85,0,0,0,0-10.6,4.82,4.82,0,0,0-3.92-1.91,5,5,0,0,0-4,1.87,9.83,9.83,0,0,0,0,10.67A5,5,0,0,0,178.76,249.51Z"/><path d="M204.1,251.57v-1.79H204a6.75,6.75,0,0,1-2.15,1.59,7.8,7.8,0,0,1-9.13-1.94,10.9,10.9,0,0,1-2.19-7.14,10.58,10.58,0,0,1,2.29-7.12,7.26,7.26,0,0,1,5.76-2.68,6.42,6.42,0,0,1,5.14,2.31h.07V226h2.87v25.55Zm-.28-6.16v-5.74a4.58,4.58,0,0,0-1.29-3.17,4.46,4.46,0,0,0-3.46-1.42,5,5,0,0,0-4.2,1.89,10.58,10.58,0,0,0,0,10.64,5,5,0,0,0,4.2,1.89,4.89,4.89,0,0,0,3.39-1.22A3.75,3.75,0,0,0,203.82,245.41Z"/><path d="M222.06,246.19V235.58h-2.59V233h2.66v-4.55h2.73V233h4.58v2.55h-4.55v10.25a4.28,4.28,0,0,0,.46,2.31,2.07,2.07,0,0,0,1.82.67h1.4v2.76H227a4.79,4.79,0,0,1-3.8-1.35A6,6,0,0,1,222.06,246.19Z"/><path d="M234,229.28V226h3.29v3.25Zm.21,22.29V233h2.87v18.55Z"/><path d="M243.23,251.57V233H246v1.79h.07a5.57,5.57,0,0,1,2.21-1.66,7.23,7.23,0,0,1,3-.65,6.52,6.52,0,0,1,4.85,1.86,6.85,6.85,0,0,1,1.84,5v12.18h-2.84V240.31q0-5.18-4.27-5.18a4.9,4.9,0,0,0-3.48,1.23,4.42,4.42,0,0,0-1.31,3.39v11.83Z"/><path d="M276,244.47l2.76.56a8.3,8.3,0,0,1-2.55,5.14A7.38,7.38,0,0,1,271,252.1a7.81,7.81,0,0,1-6.09-2.61,10.37,10.37,0,0,1-2.34-7.19,10.2,10.2,0,0,1,2.42-7.16,7.82,7.82,0,0,1,6-2.64,7.25,7.25,0,0,1,5.06,1.89,8,8,0,0,1,2.54,4.9l-2.7.56a7.22,7.22,0,0,0-1.61-3.41,4.16,4.16,0,0,0-3.29-1.35,5,5,0,0,0-4.06,1.91,8.22,8.22,0,0,0-1.54,5.3,8.38,8.38,0,0,0,1.5,5.29,5,5,0,0,0,4.13,1.92,4.24,4.24,0,0,0,3.36-1.49A6.64,6.64,0,0,0,276,244.47Z"/><path d="M283.27,229.28V226h3.29v3.25Zm.21,22.29V233h2.87v18.55Z"/><path d="M304.83,251.57v-1.79h-.07a6.73,6.73,0,0,1-2.15,1.59,7.8,7.8,0,0,1-9.13-1.94,10.89,10.89,0,0,1-2.19-7.14,10.57,10.57,0,0,1,2.29-7.12,7.26,7.26,0,0,1,5.76-2.68,6.42,6.42,0,0,1,5.15,2.31h.07V226h2.87v25.55Zm-.28-6.16v-5.74a4.58,4.58,0,0,0-1.29-3.17,4.46,4.46,0,0,0-3.46-1.42,5,5,0,0,0-4.2,1.89,10.58,10.58,0,0,0,0,10.64,5,5,0,0,0,4.2,1.89,4.89,4.89,0,0,0,3.4-1.22A3.75,3.75,0,0,0,304.55,245.41Z"/><path d="M313.19,245.1V233h2.87v11.66a5.39,5.39,0,0,0,1,3.67,4.32,4.32,0,0,0,3.31,1.08,4,4,0,0,0,3.22-1.29,5.34,5.34,0,0,0,1.12-3.61V233h2.83v18.55h-2.8v-1.79h-.07a7.24,7.24,0,0,1-.53.63,6.41,6.41,0,0,1-1.63,1,6.09,6.09,0,0,1-2.78.65,6.47,6.47,0,0,1-4.81-1.75A7.18,7.18,0,0,1,313.19,245.1Z"/><path d="M333.49,251.57V233h2.8v1.79h.07a5.57,5.57,0,0,1,2.21-1.66,7.24,7.24,0,0,1,3-.65,6.52,6.52,0,0,1,4.85,1.86,6.85,6.85,0,0,1,1.84,5v12.18h-2.83V240.31q0-5.18-4.27-5.18a4.9,4.9,0,0,0-3.48,1.23,4.42,4.42,0,0,0-1.31,3.39v11.83Z"/><path d="M354.7,246.19V235.58h-2.59V233h2.66v-4.55h2.73V233h4.58v2.55h-4.55v10.25a4.3,4.3,0,0,0,.46,2.31,2.08,2.08,0,0,0,1.82.67h1.4v2.76h-1.54a4.79,4.79,0,0,1-3.8-1.35A6,6,0,0,1,354.7,246.19Z"/><path d="M375.21,245.1V233h2.87v11.66a5.39,5.39,0,0,0,1,3.67,4.32,4.32,0,0,0,3.31,1.08,4,4,0,0,0,3.22-1.29,5.34,5.34,0,0,0,1.12-3.61V233h2.83v18.55h-2.8v-1.79h-.07a7.24,7.24,0,0,1-.53.63,6.41,6.41,0,0,1-1.63,1,6.09,6.09,0,0,1-2.78.65,6.47,6.47,0,0,1-4.81-1.75A7.18,7.18,0,0,1,375.21,245.1Z"/><path d="M396.18,246.19V235.58h-2.59V233h2.66v-4.55H399V233h4.58v2.55H399v10.25a4.3,4.3,0,0,0,.46,2.31,2.08,2.08,0,0,0,1.82.67h1.4v2.76h-1.54a4.79,4.79,0,0,1-3.8-1.35A6,6,0,0,1,396.18,246.19Z"/><path d="M416.86,251.57V226h2.91v25.55Z"/><path d="M436.5,251.57v-2h-.07a5.09,5.09,0,0,1-2,1.73,7.45,7.45,0,0,1-3.68.82,6.56,6.56,0,0,1-4.67-1.51,5,5,0,0,1-1.59-3.78,4.69,4.69,0,0,1,1.42-3.62,11.38,11.38,0,0,1,4.81-2.19l1.87-.49q.61-.18,1.42-.47a4.32,4.32,0,0,0,1.16-.58,2.76,2.76,0,0,0,.61-.7,1.74,1.74,0,0,0,.26-.95,2.46,2.46,0,0,0-1-2,4.55,4.55,0,0,0-2.92-.79,4.2,4.2,0,0,0-4.51,3.67l-2.59-.74a6.58,6.58,0,0,1,2.28-4,7.12,7.12,0,0,1,4.72-1.52,7.61,7.61,0,0,1,5.09,1.59q1.87,1.59,1.87,5v12.5Zm-5.11-8.37a8.56,8.56,0,0,0-3.24,1.44,2.56,2.56,0,0,0-.86,2q0,2.9,3.67,2.9a5.91,5.91,0,0,0,3.89-1.14,3.49,3.49,0,0,0,1.36-2.78V241h-.07Q435.66,242,431.39,243.21Z"/><path d="M451.83,252.1a7.86,7.86,0,0,1-6.05-2.59,10.25,10.25,0,0,1-2.38-7.21,10.1,10.1,0,0,1,2.45-7.17,7.87,7.87,0,0,1,6-2.62,7.67,7.67,0,0,1,5.9,2.63,10.24,10.24,0,0,1,2.4,7.17,10.35,10.35,0,0,1-2.35,7.21A7.67,7.67,0,0,1,451.83,252.1Zm0-2.59a4.84,4.84,0,0,0,3.9-1.91,9.86,9.86,0,0,0,0-10.6,4.83,4.83,0,0,0-3.92-1.91,5,5,0,0,0-4,1.87,9.83,9.83,0,0,0,0,10.67A5,5,0,0,0,451.83,249.51Z"/><path d="M464.85,251.57V233h2.73v2h.07a3.89,3.89,0,0,1,1.64-1.71,4.54,4.54,0,0,1,2.21-.6,3.84,3.84,0,0,1,.82.09q.4.09.61.16l.18.11-.53,2.83a3.17,3.17,0,0,0-1.47-.28,2.91,2.91,0,0,0-2.59,1.17,6.79,6.79,0,0,0-.81,3.76v11Z"/><path d="M490,245.87l2.31,1.5a9.23,9.23,0,0,1-3,3.38,8.18,8.18,0,0,1-4.78,1.35,8,8,0,0,1-6.2-2.68,10.23,10.23,0,0,1-2.42-7.12,10.37,10.37,0,0,1,2.36-7.12,7.77,7.77,0,0,1,6.11-2.68,7.64,7.64,0,0,1,6,2.63,10.48,10.48,0,0,1,2.31,7.17v.84H478.78a7.25,7.25,0,0,0,1.49,4.51,5,5,0,0,0,4.18,1.85,6.28,6.28,0,0,0,2-.3,7,7,0,0,0,1.4-.59,4.17,4.17,0,0,0,1-1,10.71,10.71,0,0,0,.67-.89Q489.63,246.54,490,245.87Zm-11.13-5h11a6.78,6.78,0,0,0-1.4-4.06,5.61,5.61,0,0,0-8.19.12A6.56,6.56,0,0,0,478.85,240.86Z"/><path d="M510.28,245.87l2.31,1.5a9.23,9.23,0,0,1-3,3.38,8.18,8.18,0,0,1-4.78,1.35,8,8,0,0,1-6.2-2.68,10.23,10.23,0,0,1-2.42-7.12,10.37,10.37,0,0,1,2.36-7.12,7.77,7.77,0,0,1,6.11-2.68,7.64,7.64,0,0,1,6,2.63A10.48,10.48,0,0,1,513,242.3v.84H499.08a7.25,7.25,0,0,0,1.49,4.51,5,5,0,0,0,4.18,1.85,6.28,6.28,0,0,0,2-.3,7,7,0,0,0,1.4-.59,4.17,4.17,0,0,0,1-1,10.71,10.71,0,0,0,.67-.89Q509.93,246.54,510.28,245.87Zm-11.13-5h11a6.78,6.78,0,0,0-1.4-4.06,5.61,5.61,0,0,0-8.19.12A6.56,6.56,0,0,0,499.15,240.86Z"/><path d="M518.4,246.19V235.58h-2.59V233h2.66v-4.55h2.73V233h4.58v2.55h-4.55v10.25a4.3,4.3,0,0,0,.46,2.31,2.08,2.08,0,0,0,1.82.67h1.4v2.76h-1.54a4.79,4.79,0,0,1-3.8-1.35A6,6,0,0,1,518.4,246.19Z"/><path d="M100.19,289.57v-1.79h-.07A6.75,6.75,0,0,1,98,289.38a7.8,7.8,0,0,1-9.13-1.94,10.9,10.9,0,0,1-2.19-7.14,10.58,10.58,0,0,1,2.29-7.12,7.26,7.26,0,0,1,5.76-2.68,6.42,6.42,0,0,1,5.14,2.31h.07V264h2.87v25.55Zm-.28-6.16v-5.74a4.58,4.58,0,0,0-1.29-3.17,4.46,4.46,0,0,0-3.46-1.42,4.94,4.94,0,0,0-4.2,1.89,10.57,10.57,0,0,0,0,10.64,5,5,0,0,0,4.2,1.89,4.89,4.89,0,0,0,3.39-1.22A3.75,3.75,0,0,0,99.91,283.41Z"/><path d="M115.94,290.1a7.86,7.86,0,0,1-6.06-2.59,10.26,10.26,0,0,1-2.38-7.21,10.1,10.1,0,0,1,2.45-7.17,7.88,7.88,0,0,1,6-2.62,7.68,7.68,0,0,1,5.9,2.63,10.24,10.24,0,0,1,2.4,7.17,10.36,10.36,0,0,1-2.34,7.21A7.68,7.68,0,0,1,115.94,290.1Zm0-2.59a4.83,4.83,0,0,0,3.9-1.91,9.85,9.85,0,0,0,0-10.6,4.82,4.82,0,0,0-3.92-1.91,5,5,0,0,0-4,1.87,9.83,9.83,0,0,0,0,10.67A5,5,0,0,0,115.94,287.51Z"/><path d="M129,289.57V264h2.91v25.55Z"/><path d="M145,290.1a7.86,7.86,0,0,1-6.06-2.59,10.26,10.26,0,0,1-2.38-7.21,10.1,10.1,0,0,1,2.45-7.17,7.88,7.88,0,0,1,6-2.62,7.68,7.68,0,0,1,5.9,2.63,10.24,10.24,0,0,1,2.4,7.17,10.36,10.36,0,0,1-2.34,7.21A7.68,7.68,0,0,1,145,290.1Zm0-2.59a4.83,4.83,0,0,0,3.9-1.91,9.85,9.85,0,0,0,0-10.6,4.82,4.82,0,0,0-3.92-1.91,5,5,0,0,0-4,1.87,9.83,9.83,0,0,0,0,10.67A5,5,0,0,0,145,287.51Z"/><path d="M158,289.57V271h2.73v2h.07a3.89,3.89,0,0,1,1.64-1.71,4.54,4.54,0,0,1,2.21-.6,3.83,3.83,0,0,1,.82.09q.4.09.61.16l.17.11-.52,2.83a3.17,3.17,0,0,0-1.47-.28,2.92,2.92,0,0,0-2.59,1.17,6.79,6.79,0,0,0-.8,3.76v11Z"/><path d="M183.17,283.87l2.31,1.5a9.23,9.23,0,0,1-3,3.38,8.19,8.19,0,0,1-4.78,1.35,8,8,0,0,1-6.19-2.68,10.23,10.23,0,0,1-2.42-7.12,10.37,10.37,0,0,1,2.36-7.12,7.77,7.77,0,0,1,6.11-2.68,7.64,7.64,0,0,1,6,2.63,10.48,10.48,0,0,1,2.31,7.17v.84H172a7.26,7.26,0,0,0,1.49,4.51,5,5,0,0,0,4.18,1.85,6.27,6.27,0,0,0,2-.3,7,7,0,0,0,1.4-.59,4.19,4.19,0,0,0,1-1,10.61,10.61,0,0,0,.66-.89Q182.82,284.54,183.17,283.87Zm-11.13-5h11a6.77,6.77,0,0,0-1.4-4.06,5.61,5.61,0,0,0-8.19.12A6.56,6.56,0,0,0,172,278.86Z"/><path d="M199.38,289.57V271H202v1.79H202a4.89,4.89,0,0,1,2-1.66,6.1,6.1,0,0,1,2.77-.65,5.47,5.47,0,0,1,3,.79,5.61,5.61,0,0,1,1.91,1.94h.07a5.54,5.54,0,0,1,2-1.92,6.17,6.17,0,0,1,3.17-.81,6,6,0,0,1,6.41,6.44v12.63h-2.77V277.81q0-4.69-3.78-4.69a3.84,3.84,0,0,0-3,1.17,4.68,4.68,0,0,0-1.07,3.27v12H210V277.81q0-4.69-3.78-4.69a3.6,3.6,0,0,0-3,1.24,5,5,0,0,0-1,3.2v12Z"/><path d="M239.91,289.57v-2h-.07a5.09,5.09,0,0,1-2,1.73,7.45,7.45,0,0,1-3.67.82,6.56,6.56,0,0,1-4.67-1.51,5,5,0,0,1-1.59-3.78,4.69,4.69,0,0,1,1.42-3.62,11.38,11.38,0,0,1,4.81-2.19l1.87-.49q.61-.18,1.42-.47a4.35,4.35,0,0,0,1.16-.58,2.77,2.77,0,0,0,.61-.7,1.75,1.75,0,0,0,.26-.95,2.45,2.45,0,0,0-1-2,4.55,4.55,0,0,0-2.92-.79,4.2,4.2,0,0,0-4.52,3.67l-2.59-.74a6.57,6.57,0,0,1,2.28-4,7.12,7.12,0,0,1,4.72-1.52,7.6,7.6,0,0,1,5.09,1.59q1.87,1.59,1.87,5v12.5Zm-5.11-8.37a8.56,8.56,0,0,0-3.24,1.44,2.55,2.55,0,0,0-.86,2q0,2.9,3.67,2.9a5.91,5.91,0,0,0,3.88-1.14,3.49,3.49,0,0,0,1.37-2.78V279h-.07Q239.07,280,234.8,281.21Z"/><path d="M248.2,292.94l2.41-1.23a6.69,6.69,0,0,0,1.73,2.71,5.32,5.32,0,0,0,6.6-.32,5.15,5.15,0,0,0,1.23-3.66V288h-.07A6.39,6.39,0,0,1,255,290.1a7.35,7.35,0,0,1-5.91-2.66,10.72,10.72,0,0,1-2.24-7.14,10.47,10.47,0,0,1,2.33-7.12,7.36,7.36,0,0,1,5.79-2.68,6.31,6.31,0,0,1,5.21,2.31h.07V271H263v18.83a8.44,8.44,0,0,1-2,6,7.19,7.19,0,0,1-5.48,2.08,7.71,7.71,0,0,1-4.71-1.38A7.36,7.36,0,0,1,248.2,292.94Zm12-9.45V277.6a4.45,4.45,0,0,0-1.31-3.12,4.55,4.55,0,0,0-3.48-1.4,5,5,0,0,0-4.22,1.91,10.28,10.28,0,0,0,0,10.62,5,5,0,0,0,4.24,1.89,5,5,0,0,0,3.43-1.21A3.66,3.66,0,0,0,260.17,283.48Z"/><path d="M268.78,289.57V271h2.8v1.79h.07a5.57,5.57,0,0,1,2.21-1.66,7.24,7.24,0,0,1,3-.65,6.52,6.52,0,0,1,4.85,1.86,6.85,6.85,0,0,1,1.84,5v12.18h-2.83V278.31q0-5.18-4.27-5.18a4.9,4.9,0,0,0-3.48,1.23,4.42,4.42,0,0,0-1.31,3.39v11.83Z"/><path d="M300.11,289.57v-2H300a5.09,5.09,0,0,1-2,1.73,7.45,7.45,0,0,1-3.68.82,6.56,6.56,0,0,1-4.67-1.51,5,5,0,0,1-1.59-3.78,4.69,4.69,0,0,1,1.42-3.62,11.38,11.38,0,0,1,4.81-2.19l1.87-.49q.61-.18,1.42-.47a4.32,4.32,0,0,0,1.16-.58,2.76,2.76,0,0,0,.61-.7,1.74,1.74,0,0,0,.26-.95,2.46,2.46,0,0,0-1-2,4.55,4.55,0,0,0-2.92-.79,4.2,4.2,0,0,0-4.51,3.67l-2.59-.74a6.58,6.58,0,0,1,2.28-4,7.12,7.12,0,0,1,4.72-1.52,7.61,7.61,0,0,1,5.09,1.59q1.87,1.59,1.87,5v12.5ZM295,281.21a8.56,8.56,0,0,0-3.24,1.44,2.56,2.56,0,0,0-.86,2q0,2.9,3.67,2.9a5.91,5.91,0,0,0,3.89-1.14,3.49,3.49,0,0,0,1.36-2.78V279h-.07Q299.27,280,295,281.21Z"/><path d="M327.76,289.57v-2h-.07a5.09,5.09,0,0,1-2,1.73,7.45,7.45,0,0,1-3.68.82,6.56,6.56,0,0,1-4.67-1.51,5,5,0,0,1-1.59-3.78,4.69,4.69,0,0,1,1.42-3.62A11.38,11.38,0,0,1,322,279l1.87-.49q.61-.18,1.42-.47a4.32,4.32,0,0,0,1.16-.58,2.76,2.76,0,0,0,.61-.7,1.74,1.74,0,0,0,.26-.95,2.46,2.46,0,0,0-1-2,4.55,4.55,0,0,0-2.92-.79,4.2,4.2,0,0,0-4.51,3.67l-2.59-.74a6.58,6.58,0,0,1,2.28-4,7.12,7.12,0,0,1,4.72-1.52,7.61,7.61,0,0,1,5.09,1.59q1.87,1.59,1.87,5v12.5Zm-5.11-8.37a8.56,8.56,0,0,0-3.24,1.44,2.56,2.56,0,0,0-.86,2q0,2.9,3.67,2.9a5.91,5.91,0,0,0,3.89-1.14,3.49,3.49,0,0,0,1.36-2.78V279h-.07Q326.92,280,322.65,281.21Z"/><path d="M335.87,289.57V264h2.91v25.55Z"/><path d="M344.73,267.28V264H348v3.25Zm.21,22.29V271h2.87v18.55Z"/><path d="M366.11,297.45v-9.66H366a6.19,6.19,0,0,1-5.21,2.31,7.28,7.28,0,0,1-5.84-2.66,10.72,10.72,0,0,1-2.24-7.14,10.47,10.47,0,0,1,2.33-7.12,7.37,7.37,0,0,1,5.79-2.68,7,7,0,0,1,3.18.7,6.34,6.34,0,0,1,2.14,1.61h.07V271h2.7v26.42Zm0-14V277.6a4.45,4.45,0,0,0-1.31-3.12,4.55,4.55,0,0,0-3.48-1.4A5,5,0,0,0,357.1,275a10.28,10.28,0,0,0,0,10.62,5,5,0,0,0,4.24,1.89,5,5,0,0,0,3.43-1.21A3.66,3.66,0,0,0,366.11,283.48Z"/><path d="M374.72,283.1V271h2.87v11.66a5.39,5.39,0,0,0,1,3.67,4.32,4.32,0,0,0,3.31,1.08,4,4,0,0,0,3.22-1.29,5.34,5.34,0,0,0,1.12-3.61V271h2.83v18.55h-2.8v-1.79h-.07a7.24,7.24,0,0,1-.53.63,6.41,6.41,0,0,1-1.63,1,6.09,6.09,0,0,1-2.78.65,6.47,6.47,0,0,1-4.81-1.75A7.18,7.18,0,0,1,374.72,283.1Z"/><path d="M405.8,289.57v-2h-.07a5.09,5.09,0,0,1-2,1.73,7.45,7.45,0,0,1-3.68.82,6.56,6.56,0,0,1-4.67-1.51,5,5,0,0,1-1.59-3.78,4.69,4.69,0,0,1,1.42-3.62A11.38,11.38,0,0,1,400,279l1.87-.49q.61-.18,1.42-.47a4.32,4.32,0,0,0,1.16-.58,2.76,2.76,0,0,0,.61-.7,1.74,1.74,0,0,0,.26-.95,2.46,2.46,0,0,0-1-2,4.55,4.55,0,0,0-2.92-.79,4.2,4.2,0,0,0-4.51,3.67l-2.59-.74a6.58,6.58,0,0,1,2.28-4,7.12,7.12,0,0,1,4.72-1.52,7.61,7.61,0,0,1,5.09,1.59q1.87,1.59,1.87,5v12.5Zm-5.11-8.37a8.56,8.56,0,0,0-3.24,1.44,2.56,2.56,0,0,0-.86,2q0,2.9,3.67,2.9a5.91,5.91,0,0,0,3.89-1.14,3.49,3.49,0,0,0,1.36-2.78V279h-.07Q405,280,400.69,281.21Z"/><path d="M413.92,289.57V271h2.59v1.79h.07a4.89,4.89,0,0,1,2-1.66,6.1,6.1,0,0,1,2.77-.65,5.47,5.47,0,0,1,3,.79,5.61,5.61,0,0,1,1.91,1.94h.07a5.54,5.54,0,0,1,2-1.92,6.17,6.17,0,0,1,3.17-.81,6,6,0,0,1,6.41,6.44v12.63h-2.77V277.81q0-4.69-3.78-4.69a3.84,3.84,0,0,0-3,1.17,4.68,4.68,0,0,0-1.07,3.27v12h-2.76V277.81q0-4.69-3.78-4.69a3.6,3.6,0,0,0-3,1.24,5,5,0,0,0-1,3.2v12Z"/><path d="M465.27,283.87l2.31,1.5a9.23,9.23,0,0,1-3,3.38,8.18,8.18,0,0,1-4.78,1.35,8,8,0,0,1-6.2-2.68,10.23,10.23,0,0,1-2.42-7.12,10.37,10.37,0,0,1,2.36-7.12,7.77,7.77,0,0,1,6.11-2.68,7.64,7.64,0,0,1,6,2.63A10.48,10.48,0,0,1,468,280.3v.84H454.07a7.25,7.25,0,0,0,1.49,4.51,5,5,0,0,0,4.18,1.85,6.28,6.28,0,0,0,2-.3,7,7,0,0,0,1.4-.59,4.17,4.17,0,0,0,1-1,10.71,10.71,0,0,0,.67-.89Q464.92,284.54,465.27,283.87Zm-11.13-5h11a6.78,6.78,0,0,0-1.4-4.06,5.61,5.61,0,0,0-8.19.12A6.56,6.56,0,0,0,454.14,278.86Z"/><path d="M472.72,289.57V271h2.73v2h.07a3.89,3.89,0,0,1,1.64-1.71,4.54,4.54,0,0,1,2.21-.6,3.84,3.84,0,0,1,.82.09q.4.09.61.16l.18.11-.53,2.83a3.17,3.17,0,0,0-1.47-.28,2.91,2.91,0,0,0-2.59,1.17,6.79,6.79,0,0,0-.81,3.76v11Z"/><path d="M495.79,289.57v-2h-.07a5.09,5.09,0,0,1-2,1.73,7.45,7.45,0,0,1-3.68.82,6.56,6.56,0,0,1-4.67-1.51,5,5,0,0,1-1.59-3.78,4.69,4.69,0,0,1,1.42-3.62A11.38,11.38,0,0,1,490,279l1.87-.49q.61-.18,1.42-.47a4.32,4.32,0,0,0,1.16-.58,2.76,2.76,0,0,0,.61-.7,1.74,1.74,0,0,0,.26-.95,2.46,2.46,0,0,0-1-2,4.55,4.55,0,0,0-2.92-.79,4.2,4.2,0,0,0-4.51,3.67l-2.59-.74a6.58,6.58,0,0,1,2.28-4,7.12,7.12,0,0,1,4.72-1.52,7.61,7.61,0,0,1,5.09,1.59q1.87,1.59,1.87,5v12.5Zm-5.11-8.37a8.56,8.56,0,0,0-3.24,1.44,2.56,2.56,0,0,0-.86,2q0,2.9,3.67,2.9a5.91,5.91,0,0,0,3.89-1.14,3.49,3.49,0,0,0,1.36-2.78V279h-.07Q494.95,280,490.68,281.21Z"/><path d="M504.57,284.19V273.58H502V271h2.66v-4.55h2.73V271H512v2.55h-4.55v10.25a4.3,4.3,0,0,0,.46,2.31,2.08,2.08,0,0,0,1.82.67h1.4v2.76h-1.54a4.79,4.79,0,0,1-3.8-1.35A6,6,0,0,1,504.57,284.19Z"/><path d="M79.94,327.57v-24.5h2.9v21.84H93.49v2.66Z"/><path d="M104.72,328.1a7.86,7.86,0,0,1-6.05-2.59,10.25,10.25,0,0,1-2.38-7.21,10.1,10.1,0,0,1,2.45-7.17,7.87,7.87,0,0,1,6-2.62,7.68,7.68,0,0,1,5.9,2.63,10.24,10.24,0,0,1,2.4,7.17,10.35,10.35,0,0,1-2.34,7.21A7.67,7.67,0,0,1,104.72,328.1Zm0-2.59a4.83,4.83,0,0,0,3.9-1.91,9.85,9.85,0,0,0,0-10.6,4.82,4.82,0,0,0-3.92-1.91,5,5,0,0,0-4,1.87,9.83,9.83,0,0,0,0,10.67A5,5,0,0,0,104.72,325.51Z"/><path d="M117.74,327.57V309h2.73v2h.07a3.89,3.89,0,0,1,1.64-1.71,4.54,4.54,0,0,1,2.21-.6,3.84,3.84,0,0,1,.82.09c.27.06.47.11.61.16l.17.11-.52,2.83a3.17,3.17,0,0,0-1.47-.28,2.91,2.91,0,0,0-2.59,1.17,6.79,6.79,0,0,0-.8,3.76v11Z"/><path d="M142.87,321.87l2.31,1.5a9.23,9.23,0,0,1-3,3.38,8.19,8.19,0,0,1-4.78,1.35,8,8,0,0,1-6.19-2.68,10.23,10.23,0,0,1-2.42-7.12,10.37,10.37,0,0,1,2.36-7.12,7.77,7.77,0,0,1,6.11-2.68,7.64,7.64,0,0,1,6,2.63,10.49,10.49,0,0,1,2.31,7.17v.84H131.67a7.25,7.25,0,0,0,1.49,4.51,5,5,0,0,0,4.18,1.85,6.28,6.28,0,0,0,2-.3,7,7,0,0,0,1.4-.59,4.17,4.17,0,0,0,1-1,10.71,10.71,0,0,0,.67-.89C142.48,322.6,142.64,322.31,142.87,321.87Zm-11.13-5h11a6.77,6.77,0,0,0-1.4-4.06,5.61,5.61,0,0,0-8.19.12A6.56,6.56,0,0,0,131.74,316.86Z"/><path d="M150.33,327.57V309h2.59v1.79H153a4.89,4.89,0,0,1,2-1.66,6.1,6.1,0,0,1,2.76-.65,5.48,5.48,0,0,1,3,.79,5.6,5.6,0,0,1,1.91,1.94h.07a5.54,5.54,0,0,1,2-1.92,6.17,6.17,0,0,1,3.17-.81,6,6,0,0,1,6.41,6.44v12.63h-2.77V315.81q0-4.69-3.78-4.69a3.84,3.84,0,0,0-3,1.17,4.68,4.68,0,0,0-1.07,3.27v12h-2.77V315.81q0-4.69-3.78-4.69a3.6,3.6,0,0,0-3,1.24,5,5,0,0,0-1,3.2v12Z"/><path d="M188.82,305.28V302h3.29v3.25Zm.21,22.29V309h2.87v18.55Z"/><path d="M198.06,335.45V309h2.73v1.79h.07a6.36,6.36,0,0,1,2.1-1.59,7,7,0,0,1,3.22-.72,7.31,7.31,0,0,1,5.77,2.68,10.52,10.52,0,0,1,2.31,7.12,10.73,10.73,0,0,1-2.24,7.14,7.28,7.28,0,0,1-5.84,2.66,6.8,6.8,0,0,1-3.15-.74,5.52,5.52,0,0,1-2-1.58h-.07v9.66Zm2.87-19.84v5.88a3.66,3.66,0,0,0,1.36,2.82,4.94,4.94,0,0,0,3.4,1.21,5.1,5.1,0,0,0,4.25-1.89,10.17,10.17,0,0,0,0-10.62,5.09,5.09,0,0,0-4.24-1.91,4.51,4.51,0,0,0-3.45,1.4A4.45,4.45,0,0,0,200.94,315.6Z"/><path d="M217.59,321.27l2.7-.53q.52,4.87,5.14,4.87a5.6,5.6,0,0,0,3.31-.8,2.52,2.52,0,0,0,1.1-2.14,2.37,2.37,0,0,0-1-2.1,17.1,17.1,0,0,0-4.32-1.61,13.09,13.09,0,0,1-4.83-2.13,4,4,0,0,1-1.4-3.22A4.65,4.65,0,0,1,220,310a6.86,6.86,0,0,1,4.72-1.52,7.43,7.43,0,0,1,4.83,1.45,7,7,0,0,1,2.38,3.87l-2.49.67a4.54,4.54,0,0,0-4.72-3.54,4.45,4.45,0,0,0-2.8.77,2.27,2.27,0,0,0-1,1.82,1.86,1.86,0,0,0,.95,1.71,23.18,23.18,0,0,0,4.34,1.54,12,12,0,0,1,5,2.33,4.84,4.84,0,0,1,1.38,3.55,5,5,0,0,1-1.77,3.82,9.37,9.37,0,0,1-10.92-.3A7.79,7.79,0,0,1,217.59,321.27Z"/><path d="M236.91,321.1V309h2.87v11.66a5.39,5.39,0,0,0,1,3.67,4.32,4.32,0,0,0,3.31,1.08,4,4,0,0,0,3.22-1.29,5.34,5.34,0,0,0,1.12-3.61V309h2.83v18.55h-2.8v-1.79h-.07a7.2,7.2,0,0,1-.52.63,6.42,6.42,0,0,1-1.63,1,6.08,6.08,0,0,1-2.78.65,6.46,6.46,0,0,1-4.81-1.75A7.17,7.17,0,0,1,236.91,321.1Z"/><path d="M257.21,327.57V309h2.59v1.79h.07a4.89,4.89,0,0,1,2-1.66,6.1,6.1,0,0,1,2.77-.65,5.47,5.47,0,0,1,3,.79,5.6,5.6,0,0,1,1.91,1.94h.07a5.53,5.53,0,0,1,2-1.92,6.17,6.17,0,0,1,3.17-.81,6,6,0,0,1,6.41,6.44v12.63h-2.77V315.81q0-4.69-3.78-4.69a3.85,3.85,0,0,0-3,1.17,4.69,4.69,0,0,0-1.07,3.27v12h-2.77V315.81q0-4.69-3.78-4.69a3.6,3.6,0,0,0-3,1.24,5,5,0,0,0-1,3.2v12Z"/><path d="M308,327.57v-1.79H308a6.73,6.73,0,0,1-2.15,1.59,7.8,7.8,0,0,1-9.13-1.94,10.89,10.89,0,0,1-2.19-7.14,10.57,10.57,0,0,1,2.29-7.12,7.26,7.26,0,0,1,5.76-2.68,6.42,6.42,0,0,1,5.15,2.31h.07V302h2.87v25.55Zm-.28-6.16v-5.74a4.58,4.58,0,0,0-1.29-3.17,4.46,4.46,0,0,0-3.46-1.42,5,5,0,0,0-4.2,1.89,10.58,10.58,0,0,0,0,10.64,5,5,0,0,0,4.2,1.89,4.89,4.89,0,0,0,3.4-1.22A3.75,3.75,0,0,0,307.75,321.41Z"/><path d="M323.78,328.1a7.86,7.86,0,0,1-6.05-2.59,10.25,10.25,0,0,1-2.38-7.21,10.1,10.1,0,0,1,2.45-7.17,7.87,7.87,0,0,1,6-2.62,7.67,7.67,0,0,1,5.9,2.63,10.24,10.24,0,0,1,2.4,7.17,10.35,10.35,0,0,1-2.35,7.21A7.67,7.67,0,0,1,323.78,328.1Zm0-2.59a4.84,4.84,0,0,0,3.9-1.91,9.86,9.86,0,0,0,0-10.6,4.83,4.83,0,0,0-3.92-1.91,5,5,0,0,0-4,1.87,9.83,9.83,0,0,0,0,10.67A5,5,0,0,0,323.78,325.51Z"/><path d="M336.8,327.57V302h2.91v25.55Z"/><path d="M352.87,328.1a7.86,7.86,0,0,1-6.05-2.59,10.25,10.25,0,0,1-2.38-7.21,10.1,10.1,0,0,1,2.45-7.17,7.87,7.87,0,0,1,6-2.62,7.67,7.67,0,0,1,5.9,2.63,10.24,10.24,0,0,1,2.4,7.17,10.35,10.35,0,0,1-2.35,7.21A7.67,7.67,0,0,1,352.87,328.1Zm0-2.59a4.84,4.84,0,0,0,3.9-1.91,9.86,9.86,0,0,0,0-10.6,4.83,4.83,0,0,0-3.92-1.91,5,5,0,0,0-4,1.87,9.83,9.83,0,0,0,0,10.67A5,5,0,0,0,352.87,325.51Z"/><path d="M365.89,327.57V309h2.73v2h.07a3.89,3.89,0,0,1,1.64-1.71,4.54,4.54,0,0,1,2.21-.6,3.84,3.84,0,0,1,.82.09q.4.09.61.16l.18.11-.53,2.83a3.17,3.17,0,0,0-1.47-.28,2.91,2.91,0,0,0-2.59,1.17,6.79,6.79,0,0,0-.81,3.76v11Z"/><path d="M385.52,321.27l2.69-.53q.53,4.87,5.15,4.87a5.6,5.6,0,0,0,3.31-.8,2.52,2.52,0,0,0,1.1-2.14,2.37,2.37,0,0,0-1-2.1,17.11,17.11,0,0,0-4.32-1.61,13.1,13.1,0,0,1-4.83-2.13,4,4,0,0,1-1.4-3.22A4.66,4.66,0,0,1,387.9,310a6.87,6.87,0,0,1,4.72-1.52,7.43,7.43,0,0,1,4.83,1.45,7,7,0,0,1,2.38,3.87l-2.48.67a4.54,4.54,0,0,0-4.73-3.54,4.45,4.45,0,0,0-2.8.77,2.27,2.27,0,0,0-1,1.82,1.86,1.86,0,0,0,.94,1.71,23.21,23.21,0,0,0,4.34,1.54,12,12,0,0,1,5,2.33,4.85,4.85,0,0,1,1.38,3.55,5,5,0,0,1-1.77,3.82,9.37,9.37,0,0,1-10.92-.3A7.78,7.78,0,0,1,385.52,321.27Z"/><path d="M405,305.28V302h3.29v3.25Zm.21,22.29V309h2.87v18.55Z"/><path d="M414.92,322.19V311.58h-2.59V309H415v-4.55h2.73V309h4.58v2.55h-4.55v10.25a4.3,4.3,0,0,0,.46,2.31,2.08,2.08,0,0,0,1.82.67h1.4v2.76h-1.54a4.79,4.79,0,0,1-3.8-1.35A6,6,0,0,1,414.92,322.19Z"/><path d="M446.39,327.57v-2h-.07a5.09,5.09,0,0,1-2,1.73,7.45,7.45,0,0,1-3.68.82,6.56,6.56,0,0,1-4.67-1.51,5,5,0,0,1-1.59-3.78,4.69,4.69,0,0,1,1.42-3.62,11.38,11.38,0,0,1,4.81-2.19l1.87-.49q.61-.18,1.42-.47a4.32,4.32,0,0,0,1.16-.58,2.76,2.76,0,0,0,.61-.7,1.74,1.74,0,0,0,.26-.95,2.46,2.46,0,0,0-1-2,4.55,4.55,0,0,0-2.92-.79,4.2,4.2,0,0,0-4.51,3.67l-2.59-.74a6.58,6.58,0,0,1,2.28-4,7.12,7.12,0,0,1,4.72-1.52,7.61,7.61,0,0,1,5.09,1.59q1.87,1.59,1.87,5v12.5Zm-5.11-8.37a8.56,8.56,0,0,0-3.24,1.44,2.56,2.56,0,0,0-.86,2q0,2.9,3.67,2.9a5.91,5.91,0,0,0,3.89-1.14,3.49,3.49,0,0,0,1.36-2.78V317H446Q445.54,318,441.27,319.21Z"/><path d="M454.5,327.57V309h2.59v1.79h.07a4.89,4.89,0,0,1,2-1.66,6.1,6.1,0,0,1,2.77-.65,5.47,5.47,0,0,1,3,.79,5.61,5.61,0,0,1,1.91,1.94h.07a5.54,5.54,0,0,1,2-1.92,6.17,6.17,0,0,1,3.17-.81,6,6,0,0,1,6.41,6.44v12.63h-2.77V315.81q0-4.69-3.78-4.69a3.84,3.84,0,0,0-3,1.17,4.68,4.68,0,0,0-1.07,3.27v12h-2.76V315.81q0-4.69-3.78-4.69a3.6,3.6,0,0,0-3,1.24,5,5,0,0,0-1,3.2v12Z"/><path d="M497.1,321.87l2.31,1.5a9.23,9.23,0,0,1-3,3.38,8.18,8.18,0,0,1-4.78,1.35,8,8,0,0,1-6.2-2.68A10.23,10.23,0,0,1,483,318.3a10.37,10.37,0,0,1,2.36-7.12,7.77,7.77,0,0,1,6.11-2.68,7.64,7.64,0,0,1,6,2.63,10.48,10.48,0,0,1,2.31,7.17v.84H485.9a7.25,7.25,0,0,0,1.49,4.51,5,5,0,0,0,4.18,1.85,6.28,6.28,0,0,0,2-.3,7,7,0,0,0,1.4-.59,4.17,4.17,0,0,0,1-1,10.71,10.71,0,0,0,.67-.89Q496.75,322.54,497.1,321.87Zm-11.13-5h11a6.78,6.78,0,0,0-1.4-4.06,5.61,5.61,0,0,0-8.19.12A6.56,6.56,0,0,0,486,316.86Z"/><path d="M505.22,322.19V311.58h-2.59V309h2.66v-4.55H508V309h4.58v2.55h-4.55v10.25a4.3,4.3,0,0,0,.46,2.31,2.08,2.08,0,0,0,1.82.67h1.4v2.76h-1.54a4.79,4.79,0,0,1-3.8-1.35A6,6,0,0,1,505.22,322.19Z"/><path d="M517.5,331.28v-1.58a1.92,1.92,0,0,0,1.68-2.13H517.5v-4.13h4.13V327Q521.63,331,517.5,331.28Z"/><path d="M84.82,358.47l2.76.56A8.3,8.3,0,0,1,85,364.17a7.38,7.38,0,0,1-5.18,1.93,7.81,7.81,0,0,1-6.09-2.61,10.37,10.37,0,0,1-2.34-7.19,10.21,10.21,0,0,1,2.42-7.16,7.82,7.82,0,0,1,6-2.64,7.26,7.26,0,0,1,5.06,1.89,8,8,0,0,1,2.54,4.9l-2.7.56a7.21,7.21,0,0,0-1.61-3.41,4.17,4.17,0,0,0-3.29-1.35A5,5,0,0,0,75.79,351a8.22,8.22,0,0,0-1.54,5.3,8.38,8.38,0,0,0,1.5,5.29,5,5,0,0,0,4.13,1.92A4.25,4.25,0,0,0,83.25,362,6.65,6.65,0,0,0,84.82,358.47Z"/><path d="M99.35,366.1a7.86,7.86,0,0,1-6.06-2.59,10.26,10.26,0,0,1-2.38-7.21,10.1,10.1,0,0,1,2.45-7.17,7.88,7.88,0,0,1,6-2.62,7.68,7.68,0,0,1,5.9,2.63,10.24,10.24,0,0,1,2.4,7.17,10.36,10.36,0,0,1-2.34,7.21A7.68,7.68,0,0,1,99.35,366.1Zm0-2.59a4.83,4.83,0,0,0,3.9-1.91,9.85,9.85,0,0,0,0-10.6,4.82,4.82,0,0,0-3.92-1.91,5,5,0,0,0-4,1.87,9.83,9.83,0,0,0,0,10.67A5,5,0,0,0,99.35,363.51Z"/><path d="M112.37,365.57V347h2.8v1.79h.07a5.57,5.57,0,0,1,2.21-1.66,7.23,7.23,0,0,1,3-.65,6.52,6.52,0,0,1,4.85,1.86,6.85,6.85,0,0,1,1.84,5v12.18H124.3V354.31q0-5.18-4.27-5.18a4.9,4.9,0,0,0-3.48,1.23,4.42,4.42,0,0,0-1.31,3.39v11.83Z"/><path d="M131.51,359.27l2.69-.53q.53,4.87,5.15,4.87a5.6,5.6,0,0,0,3.31-.8,2.52,2.52,0,0,0,1.1-2.14,2.37,2.37,0,0,0-1-2.1,17.12,17.12,0,0,0-4.32-1.61,13.09,13.09,0,0,1-4.83-2.13,4,4,0,0,1-1.4-3.22,4.66,4.66,0,0,1,1.71-3.59,6.87,6.87,0,0,1,4.72-1.52,7.43,7.43,0,0,1,4.83,1.45,7,7,0,0,1,2.38,3.87l-2.49.67a4.54,4.54,0,0,0-4.72-3.54,4.45,4.45,0,0,0-2.8.77,2.27,2.27,0,0,0-1,1.82,1.86,1.86,0,0,0,.95,1.71,23.16,23.16,0,0,0,4.34,1.54,12,12,0,0,1,5,2.33,4.85,4.85,0,0,1,1.38,3.55,5,5,0,0,1-1.77,3.82,9.37,9.37,0,0,1-10.92-.3A7.78,7.78,0,0,1,131.51,359.27Z"/><path d="M163.85,359.87l2.31,1.5a9.22,9.22,0,0,1-3,3.38,8.18,8.18,0,0,1-4.78,1.35,8,8,0,0,1-6.2-2.68,10.23,10.23,0,0,1-2.42-7.12,10.38,10.38,0,0,1,2.36-7.12,7.77,7.77,0,0,1,6.11-2.68,7.64,7.64,0,0,1,6,2.63,10.48,10.48,0,0,1,2.31,7.17v.84H152.65a7.26,7.26,0,0,0,1.49,4.51,5,5,0,0,0,4.18,1.85,6.27,6.27,0,0,0,2-.3,6.94,6.94,0,0,0,1.4-.59,4.16,4.16,0,0,0,1-1,10.71,10.71,0,0,0,.67-.89C163.46,360.6,163.62,360.31,163.85,359.87Zm-11.13-5h11a6.77,6.77,0,0,0-1.4-4.06,5.61,5.61,0,0,0-8.19.12A6.56,6.56,0,0,0,152.72,354.86Z"/><path d="M183.49,358.47l2.77.56a8.3,8.3,0,0,1-2.55,5.14,7.38,7.38,0,0,1-5.18,1.93,7.81,7.81,0,0,1-6.09-2.61,10.37,10.37,0,0,1-2.34-7.19,10.21,10.21,0,0,1,2.41-7.16,7.82,7.82,0,0,1,6-2.64,7.25,7.25,0,0,1,5.06,1.89,8,8,0,0,1,2.54,4.9l-2.7.56a7.21,7.21,0,0,0-1.61-3.41,4.16,4.16,0,0,0-3.29-1.35,5,5,0,0,0-4.06,1.91,8.22,8.22,0,0,0-1.54,5.3,8.37,8.37,0,0,0,1.51,5.29,5,5,0,0,0,4.13,1.92,4.25,4.25,0,0,0,3.36-1.49A6.65,6.65,0,0,0,183.49,358.47Z"/><path d="M191.47,360.19V349.58h-2.59V347h2.66v-4.55h2.73V347h4.59v2.55H194.3v10.25a4.3,4.3,0,0,0,.46,2.31,2.07,2.07,0,0,0,1.82.67H198v2.76h-1.54a4.79,4.79,0,0,1-3.8-1.35A6,6,0,0,1,191.47,360.19Z"/><path d="M215.55,359.87l2.31,1.5a9.22,9.22,0,0,1-3,3.38,8.18,8.18,0,0,1-4.78,1.35,8,8,0,0,1-6.2-2.68,10.23,10.23,0,0,1-2.41-7.12,10.38,10.38,0,0,1,2.36-7.12,7.77,7.77,0,0,1,6.11-2.68,7.64,7.64,0,0,1,6,2.63,10.49,10.49,0,0,1,2.31,7.17v.84H204.35a7.26,7.26,0,0,0,1.49,4.51,5,5,0,0,0,4.18,1.85,6.28,6.28,0,0,0,2-.3,7,7,0,0,0,1.4-.59,4.14,4.14,0,0,0,1-1,10.81,10.81,0,0,0,.67-.89Q215.2,360.54,215.55,359.87Zm-11.13-5h11a6.77,6.77,0,0,0-1.4-4.06,5.61,5.61,0,0,0-8.19.12A6.56,6.56,0,0,0,204.42,354.86Z"/><path d="M223.67,360.19V349.58h-2.59V347h2.66v-4.55h2.73V347h4.59v2.55H226.5v10.25a4.3,4.3,0,0,0,.46,2.31,2.07,2.07,0,0,0,1.82.67h1.4v2.76h-1.54a4.79,4.79,0,0,1-3.8-1.35A6,6,0,0,1,223.67,360.19Z"/><path d="M235.43,359.1V347h2.87v11.66a5.39,5.39,0,0,0,1,3.67,4.32,4.32,0,0,0,3.31,1.08,4,4,0,0,0,3.22-1.29,5.34,5.34,0,0,0,1.12-3.61V347h2.84v18.55H247v-1.79h-.07a7,7,0,0,1-.52.63,6.4,6.4,0,0,1-1.63,1,6.08,6.08,0,0,1-2.78.65,6.46,6.46,0,0,1-4.81-1.75A7.17,7.17,0,0,1,235.43,359.1Z"/><path d="M268.57,359.87l2.31,1.5a9.23,9.23,0,0,1-3,3.38,8.18,8.18,0,0,1-4.78,1.35,8,8,0,0,1-6.2-2.68,10.23,10.23,0,0,1-2.42-7.12,10.37,10.37,0,0,1,2.36-7.12A7.77,7.77,0,0,1,263,346.5a7.64,7.64,0,0,1,6,2.63,10.48,10.48,0,0,1,2.31,7.17v.84H257.37a7.25,7.25,0,0,0,1.49,4.51,5,5,0,0,0,4.18,1.85,6.28,6.28,0,0,0,2-.3,7,7,0,0,0,1.4-.59,4.17,4.17,0,0,0,1-1,10.71,10.71,0,0,0,.67-.89Q268.22,360.54,268.57,359.87Zm-11.13-5h11a6.78,6.78,0,0,0-1.4-4.06,5.61,5.61,0,0,0-8.19.12A6.56,6.56,0,0,0,257.44,354.86Z"/><path d="M276,365.57V347h2.73v2h.07a3.89,3.89,0,0,1,1.64-1.71,4.54,4.54,0,0,1,2.21-.6,3.84,3.84,0,0,1,.82.09q.4.09.61.16l.18.11-.53,2.83a3.17,3.17,0,0,0-1.47-.28,2.91,2.91,0,0,0-2.59,1.17,6.79,6.79,0,0,0-.81,3.76v11Z"/><path d="M307.84,365.57v-2h-.07a5.09,5.09,0,0,1-2,1.73,7.45,7.45,0,0,1-3.68.82,6.56,6.56,0,0,1-4.67-1.51,5,5,0,0,1-1.59-3.78,4.69,4.69,0,0,1,1.42-3.62,11.38,11.38,0,0,1,4.81-2.19l1.87-.49q.61-.18,1.42-.47a4.32,4.32,0,0,0,1.16-.58,2.76,2.76,0,0,0,.61-.7,1.74,1.74,0,0,0,.26-.95,2.46,2.46,0,0,0-1-2,4.55,4.55,0,0,0-2.92-.79,4.2,4.2,0,0,0-4.51,3.67L296.4,352a6.58,6.58,0,0,1,2.28-4,7.12,7.12,0,0,1,4.72-1.52,7.61,7.61,0,0,1,5.09,1.59q1.87,1.59,1.87,5v12.5Zm-5.11-8.37a8.56,8.56,0,0,0-3.24,1.44,2.56,2.56,0,0,0-.86,2q0,2.9,3.67,2.9a5.91,5.91,0,0,0,3.89-1.14,3.49,3.49,0,0,0,1.36-2.78V355h-.07Q307,356,302.73,357.21Z"/><path d="M328.28,365.57v-1.79h-.07a6.73,6.73,0,0,1-2.15,1.59,7.8,7.8,0,0,1-9.13-1.94,10.89,10.89,0,0,1-2.19-7.14,10.57,10.57,0,0,1,2.29-7.12,7.26,7.26,0,0,1,5.76-2.68,6.42,6.42,0,0,1,5.15,2.31H328V340h2.87v25.55Zm-.28-6.16v-5.74a4.58,4.58,0,0,0-1.29-3.17,4.46,4.46,0,0,0-3.46-1.42A5,5,0,0,0,319,351a10.58,10.58,0,0,0,0,10.64,5,5,0,0,0,4.2,1.89,4.89,4.89,0,0,0,3.4-1.22A3.75,3.75,0,0,0,328,359.41Z"/><path d="M336.82,343.28V340h3.29v3.25Zm.21,22.29V347h2.87v18.55Z"/><path d="M346.06,373.45V347h2.73v1.79h.07a6.35,6.35,0,0,1,2.1-1.59,7,7,0,0,1,3.22-.72,7.31,7.31,0,0,1,5.78,2.68,10.52,10.52,0,0,1,2.31,7.12,10.73,10.73,0,0,1-2.24,7.14,7.28,7.28,0,0,1-5.85,2.66,6.8,6.8,0,0,1-3.15-.74,5.52,5.52,0,0,1-2-1.58h-.07v9.66Zm2.87-19.84v5.88a3.66,3.66,0,0,0,1.37,2.82,4.94,4.94,0,0,0,3.4,1.21,5.09,5.09,0,0,0,4.25-1.89,10.17,10.17,0,0,0,0-10.62,5.09,5.09,0,0,0-4.23-1.91,4.51,4.51,0,0,0-3.45,1.4A4.45,4.45,0,0,0,348.93,353.6Z"/><path d="M367,343.28V340h3.29v3.25Zm.21,22.29V347h2.87v18.55Z"/><path d="M374.83,359.27l2.69-.53q.53,4.87,5.15,4.87a5.6,5.6,0,0,0,3.31-.8,2.52,2.52,0,0,0,1.1-2.14,2.37,2.37,0,0,0-1-2.1,17.11,17.11,0,0,0-4.32-1.61,13.1,13.1,0,0,1-4.83-2.13,4,4,0,0,1-1.4-3.22,4.66,4.66,0,0,1,1.71-3.59,6.87,6.87,0,0,1,4.72-1.52,7.43,7.43,0,0,1,4.83,1.45,7,7,0,0,1,2.38,3.87l-2.48.67a4.54,4.54,0,0,0-4.73-3.54,4.45,4.45,0,0,0-2.8.77,2.27,2.27,0,0,0-1,1.82,1.86,1.86,0,0,0,.94,1.71,23.21,23.21,0,0,0,4.34,1.54,12,12,0,0,1,5,2.33,4.85,4.85,0,0,1,1.38,3.55,5,5,0,0,1-1.77,3.82,9.37,9.37,0,0,1-10.92-.3A7.78,7.78,0,0,1,374.83,359.27Z"/><path d="M406.5,358.47l2.76.56a8.3,8.3,0,0,1-2.55,5.14,7.38,7.38,0,0,1-5.18,1.93,7.81,7.81,0,0,1-6.09-2.61,10.37,10.37,0,0,1-2.34-7.19,10.2,10.2,0,0,1,2.42-7.16,7.82,7.82,0,0,1,6-2.64,7.25,7.25,0,0,1,5.06,1.89,8,8,0,0,1,2.54,4.9l-2.7.56a7.22,7.22,0,0,0-1.61-3.41,4.16,4.16,0,0,0-3.29-1.35,5,5,0,0,0-4.06,1.91,8.22,8.22,0,0,0-1.54,5.3,8.38,8.38,0,0,0,1.5,5.29,5,5,0,0,0,4.13,1.92,4.24,4.24,0,0,0,3.36-1.49A6.64,6.64,0,0,0,406.5,358.47Z"/><path d="M413.82,343.28V340h3.29v3.25Zm.21,22.29V347h2.87v18.55Z"/><path d="M423.06,365.57V347h2.8v1.79h.07a5.57,5.57,0,0,1,2.21-1.66,7.24,7.24,0,0,1,3-.65,6.52,6.52,0,0,1,4.85,1.86,6.85,6.85,0,0,1,1.84,5v12.18H435V354.31q0-5.18-4.27-5.18a4.9,4.9,0,0,0-3.48,1.23,4.42,4.42,0,0,0-1.31,3.39v11.83Z"/><path d="M443.78,368.94l2.42-1.23a6.68,6.68,0,0,0,1.73,2.71,5.32,5.32,0,0,0,6.6-.32,5.15,5.15,0,0,0,1.23-3.66V364h-.07a6.39,6.39,0,0,1-5.14,2.14,7.35,7.35,0,0,1-5.92-2.66,10.72,10.72,0,0,1-2.24-7.14,10.47,10.47,0,0,1,2.33-7.12,7.37,7.37,0,0,1,5.79-2.68,6.31,6.31,0,0,1,5.21,2.31h.07V347h2.8v18.83a8.44,8.44,0,0,1-2,6,7.19,7.19,0,0,1-5.48,2.08,7.71,7.71,0,0,1-4.71-1.38A7.36,7.36,0,0,1,443.78,368.94Zm12-9.45V353.6a4.45,4.45,0,0,0-1.31-3.12,4.55,4.55,0,0,0-3.48-1.4,5,5,0,0,0-4.22,1.91,10.28,10.28,0,0,0,0,10.62,5,5,0,0,0,4.24,1.89,5,5,0,0,0,3.43-1.21A3.66,3.66,0,0,0,455.75,359.48Z"/><path d="M486,359.87l2.31,1.5a9.23,9.23,0,0,1-3,3.38,8.18,8.18,0,0,1-4.78,1.35,8,8,0,0,1-6.2-2.68,10.23,10.23,0,0,1-2.42-7.12,10.37,10.37,0,0,1,2.36-7.12,7.77,7.77,0,0,1,6.11-2.68,7.64,7.64,0,0,1,6,2.63,10.48,10.48,0,0,1,2.31,7.17v.84H474.75a7.25,7.25,0,0,0,1.49,4.51,5,5,0,0,0,4.18,1.85,6.28,6.28,0,0,0,2-.3,7,7,0,0,0,1.4-.59,4.17,4.17,0,0,0,1-1,10.71,10.71,0,0,0,.67-.89Q485.6,360.54,486,359.87Zm-11.13-5h11a6.78,6.78,0,0,0-1.4-4.06,5.61,5.61,0,0,0-8.19.12A6.56,6.56,0,0,0,474.82,354.86Z"/><path d="M493.41,365.57V340h2.91v25.55Z"/><path d="M502.26,343.28V340h3.29v3.25Zm.21,22.29V347h2.87v18.55Z"/><path d="M512.16,360.19V349.58h-2.59V347h2.66v-4.55H515V347h4.58v2.55H515v10.25a4.3,4.3,0,0,0,.46,2.31,2.08,2.08,0,0,0,1.82.67h1.4v2.76h-1.54a4.79,4.79,0,0,1-3.8-1.35A6,6,0,0,1,512.16,360.19Z"/><path d="M524.45,369.28v-1.58a1.92,1.92,0,0,0,1.68-2.13h-1.68v-4.13h4.13V365Q528.58,369,524.45,369.28Z"/><path d="M104.13,397.27l2.7-.53q.52,4.87,5.14,4.87a5.6,5.6,0,0,0,3.31-.8,2.52,2.52,0,0,0,1.1-2.14,2.37,2.37,0,0,0-1-2.1A17.07,17.07,0,0,0,111,395a13.1,13.1,0,0,1-4.83-2.13,4,4,0,0,1-1.4-3.22,4.66,4.66,0,0,1,1.71-3.59,6.87,6.87,0,0,1,4.73-1.52,7.43,7.43,0,0,1,4.83,1.45,7,7,0,0,1,2.38,3.87l-2.48.67a4.54,4.54,0,0,0-4.72-3.54,4.45,4.45,0,0,0-2.8.77,2.27,2.27,0,0,0-1,1.82,1.86,1.86,0,0,0,.95,1.71,23.21,23.21,0,0,0,4.34,1.54,12,12,0,0,1,5,2.33,4.84,4.84,0,0,1,1.38,3.55,5,5,0,0,1-1.77,3.82,9.37,9.37,0,0,1-10.92-.3A7.78,7.78,0,0,1,104.13,397.27Z"/><path d="M136.47,397.87l2.31,1.5a9.23,9.23,0,0,1-3,3.38A8.19,8.19,0,0,1,131,404.1a8,8,0,0,1-6.19-2.68,10.23,10.23,0,0,1-2.42-7.12,10.37,10.37,0,0,1,2.36-7.12,7.77,7.77,0,0,1,6.11-2.68,7.64,7.64,0,0,1,6,2.63,10.49,10.49,0,0,1,2.31,7.17v.84H125.27a7.25,7.25,0,0,0,1.49,4.51,5,5,0,0,0,4.18,1.85,6.28,6.28,0,0,0,2-.3,7,7,0,0,0,1.4-.59,4.17,4.17,0,0,0,1-1,10.71,10.71,0,0,0,.67-.89C136.07,398.6,136.23,398.31,136.47,397.87Zm-11.13-5h11a6.77,6.77,0,0,0-1.4-4.06,5.61,5.61,0,0,0-8.19.12A6.56,6.56,0,0,0,125.33,392.86Z"/><path d="M156.24,403.57v-1.79h-.07a6.75,6.75,0,0,1-2.15,1.59,7.8,7.8,0,0,1-9.13-1.94,10.9,10.9,0,0,1-2.19-7.14,10.58,10.58,0,0,1,2.29-7.12,7.26,7.26,0,0,1,5.76-2.68,6.42,6.42,0,0,1,5.14,2.31H156V378h2.87v25.55Zm-.28-6.16v-5.74a4.58,4.58,0,0,0-1.29-3.17,4.46,4.46,0,0,0-3.46-1.42A5,5,0,0,0,147,389a10.58,10.58,0,0,0,0,10.64,5,5,0,0,0,4.2,1.89,4.89,4.89,0,0,0,3.39-1.22A3.75,3.75,0,0,0,156,397.41Z"/><path d="M185.85,403.57v-1.79h-.07a6.75,6.75,0,0,1-2.15,1.59,7.8,7.8,0,0,1-9.13-1.94,10.9,10.9,0,0,1-2.19-7.14,10.58,10.58,0,0,1,2.29-7.12,7.26,7.26,0,0,1,5.76-2.68,6.42,6.42,0,0,1,5.14,2.31h.07V378h2.87v25.55Zm-.28-6.16v-5.74a4.58,4.58,0,0,0-1.29-3.17,4.46,4.46,0,0,0-3.46-1.42,4.94,4.94,0,0,0-4.2,1.89,10.57,10.57,0,0,0,0,10.64,5,5,0,0,0,4.2,1.89,4.89,4.89,0,0,0,3.39-1.22A3.75,3.75,0,0,0,185.57,397.41Z"/><path d="M194.39,381.28V378h3.29v3.25Zm.21,22.29V385h2.87v18.55Z"/><path d="M214.41,403.57v-2h-.07a5.09,5.09,0,0,1-2,1.73,7.45,7.45,0,0,1-3.68.82,6.55,6.55,0,0,1-4.67-1.51,5,5,0,0,1-1.59-3.78,4.7,4.7,0,0,1,1.42-3.62,11.38,11.38,0,0,1,4.81-2.19l1.87-.49q.61-.18,1.42-.47a4.32,4.32,0,0,0,1.15-.58,2.78,2.78,0,0,0,.61-.7,1.76,1.76,0,0,0,.26-.95,2.45,2.45,0,0,0-1-2,4.55,4.55,0,0,0-2.92-.79,4.2,4.2,0,0,0-4.52,3.67L203,390a6.58,6.58,0,0,1,2.28-4A7.12,7.12,0,0,1,210,384.5a7.61,7.61,0,0,1,5.09,1.59q1.87,1.59,1.87,5v12.5Zm-5.11-8.37a8.57,8.57,0,0,0-3.24,1.44,2.55,2.55,0,0,0-.86,2q0,2.9,3.68,2.9a5.91,5.91,0,0,0,3.88-1.14,3.49,3.49,0,0,0,1.37-2.78V393h-.07Q213.57,394,209.3,395.21Z"/><path d="M222.53,403.57V385h2.59v1.79h.07a4.89,4.89,0,0,1,2-1.66,6.1,6.1,0,0,1,2.76-.65,5.48,5.48,0,0,1,3,.79,5.6,5.6,0,0,1,1.91,1.94h.07a5.54,5.54,0,0,1,2-1.92,6.17,6.17,0,0,1,3.17-.81,6,6,0,0,1,6.41,6.44v12.63h-2.77V391.81q0-4.69-3.78-4.69a3.84,3.84,0,0,0-3,1.17,4.68,4.68,0,0,0-1.07,3.27v12h-2.77V391.81q0-4.69-3.78-4.69a3.6,3.6,0,0,0-3,1.24,5,5,0,0,0-1,3.2v12Z"/><path d="M261,403.57V385h2.8v1.79h.07a5.57,5.57,0,0,1,2.21-1.66,7.24,7.24,0,0,1,3-.65,6.52,6.52,0,0,1,4.85,1.86,6.85,6.85,0,0,1,1.84,5v12.18H273V392.31q0-5.18-4.27-5.18a4.9,4.9,0,0,0-3.48,1.23,4.42,4.42,0,0,0-1.31,3.39v11.83Z"/><path d="M288.78,404.1a7.86,7.86,0,0,1-6.05-2.59,10.25,10.25,0,0,1-2.38-7.21,10.1,10.1,0,0,1,2.45-7.17,7.87,7.87,0,0,1,6-2.62,7.67,7.67,0,0,1,5.9,2.63,10.24,10.24,0,0,1,2.4,7.17,10.35,10.35,0,0,1-2.35,7.21A7.67,7.67,0,0,1,288.78,404.1Zm0-2.59a4.84,4.84,0,0,0,3.9-1.91,9.86,9.86,0,0,0,0-10.6,4.83,4.83,0,0,0-3.92-1.91,5,5,0,0,0-4,1.87,9.83,9.83,0,0,0,0,10.67A5,5,0,0,0,288.78,401.51Z"/><path d="M301.8,403.57V385h2.8v1.79h.07a5.57,5.57,0,0,1,2.21-1.66,7.24,7.24,0,0,1,3-.65,6.52,6.52,0,0,1,4.85,1.86,6.85,6.85,0,0,1,1.84,5v12.18h-2.83V392.31q0-5.18-4.27-5.18a4.9,4.9,0,0,0-3.48,1.23,4.42,4.42,0,0,0-1.31,3.39v11.83Z"/><path d="M322.17,397.1V385H325v11.66a5.39,5.39,0,0,0,1,3.67,4.32,4.32,0,0,0,3.31,1.08,4,4,0,0,0,3.22-1.29,5.34,5.34,0,0,0,1.12-3.61V385h2.83v18.55h-2.8v-1.79h-.07a7.24,7.24,0,0,1-.53.63,6.41,6.41,0,0,1-1.63,1,6.09,6.09,0,0,1-2.78.65,6.47,6.47,0,0,1-4.81-1.75A7.18,7.18,0,0,1,322.17,397.1Z"/><path d="M342.47,403.57V385h2.59v1.79h.07a4.89,4.89,0,0,1,2-1.66,6.1,6.1,0,0,1,2.77-.65,5.47,5.47,0,0,1,3,.79,5.61,5.61,0,0,1,1.91,1.94h.07a5.54,5.54,0,0,1,2-1.92,6.17,6.17,0,0,1,3.17-.81,6,6,0,0,1,6.41,6.44v12.63h-2.77V391.81q0-4.69-3.78-4.69a3.84,3.84,0,0,0-3,1.17,4.68,4.68,0,0,0-1.07,3.27v12h-2.76V391.81q0-4.69-3.78-4.69a3.6,3.6,0,0,0-3,1.24,5,5,0,0,0-1,3.2v12Z"/><path d="M372.22,403.57V385h2.59v1.79h.07a4.89,4.89,0,0,1,2-1.66,6.1,6.1,0,0,1,2.77-.65,5.47,5.47,0,0,1,3,.79,5.61,5.61,0,0,1,1.91,1.94h.07a5.54,5.54,0,0,1,2-1.92,6.17,6.17,0,0,1,3.17-.81,6,6,0,0,1,6.41,6.44v12.63h-2.77V391.81q0-4.69-3.78-4.69a3.84,3.84,0,0,0-3,1.17,4.68,4.68,0,0,0-1.07,3.27v12h-2.76V391.81q0-4.69-3.78-4.69a3.6,3.6,0,0,0-3,1.24,5,5,0,0,0-1,3.2v12Z"/><path d="M402.25,411.45l3.71-9.83L399,385h3l5.25,12.81h.07L412.05,385H415l-10,26.42Z"/><path d="M427.42,403.57V385h2.8v1.79h.07a5.57,5.57,0,0,1,2.21-1.66,7.24,7.24,0,0,1,3-.65,6.52,6.52,0,0,1,4.85,1.86,6.85,6.85,0,0,1,1.84,5v12.18h-2.83V392.31q0-5.18-4.27-5.18a4.9,4.9,0,0,0-3.48,1.23,4.42,4.42,0,0,0-1.31,3.39v11.83Z"/><path d="M448,381.28V378h3.29v3.25Zm.21,22.29V385H451v18.55Z"/><path d="M457.2,403.57V378h2.87v8.79h.07a6.42,6.42,0,0,1,5.14-2.31,7.23,7.23,0,0,1,5.78,2.7,10.64,10.64,0,0,1,2.28,7.1,10.9,10.9,0,0,1-2.19,7.14,7.8,7.8,0,0,1-9.14,1.94,6.75,6.75,0,0,1-2.15-1.59h-.07v1.79Zm2.87-11.9v5.74a3.75,3.75,0,0,0,1.37,2.87,4.89,4.89,0,0,0,3.4,1.22,5,5,0,0,0,4.2-1.89A10.57,10.57,0,0,0,469,389a5,5,0,0,0-4.2-1.89,4.46,4.46,0,0,0-3.47,1.42A4.58,4.58,0,0,0,460.07,391.67Z"/><path d="M478.06,403.57V378h2.87v8.85H481a5.5,5.5,0,0,1,2.26-1.71,7.68,7.68,0,0,1,3.17-.67,6.58,6.58,0,0,1,4.81,1.8,6.91,6.91,0,0,1,1.84,5.16v12.11h-2.87V392.23q0-5.11-4.3-5.11a4.93,4.93,0,0,0-3.62,1.33,4.65,4.65,0,0,0-1.35,3.46v11.66Z"/><path d="M86.89,435.87l2.31,1.5a9.22,9.22,0,0,1-3,3.38,8.18,8.18,0,0,1-4.78,1.35,8,8,0,0,1-6.2-2.68,10.23,10.23,0,0,1-2.42-7.12,10.38,10.38,0,0,1,2.36-7.12,7.77,7.77,0,0,1,6.11-2.68,7.64,7.64,0,0,1,6,2.63,10.48,10.48,0,0,1,2.31,7.17v.84H75.69a7.26,7.26,0,0,0,1.49,4.51,5,5,0,0,0,4.18,1.85,6.27,6.27,0,0,0,2-.3,6.94,6.94,0,0,0,1.4-.59,4.16,4.16,0,0,0,1-1,10.71,10.71,0,0,0,.67-.89C86.5,436.6,86.66,436.31,86.89,435.87Zm-11.13-5h11a6.77,6.77,0,0,0-1.4-4.06,5.61,5.61,0,0,0-8.19.12A6.56,6.56,0,0,0,75.76,430.86Z"/><path d="M94.17,435.1V423H97v11.66a5.39,5.39,0,0,0,1,3.67,4.32,4.32,0,0,0,3.31,1.08,4,4,0,0,0,3.22-1.29,5.33,5.33,0,0,0,1.12-3.61V423h2.83v18.55h-2.8v-1.79h-.07a7.24,7.24,0,0,1-.53.63,6.37,6.37,0,0,1-1.63,1,6.08,6.08,0,0,1-2.78.65,6.47,6.47,0,0,1-4.81-1.75A7.17,7.17,0,0,1,94.17,435.1Z"/><path d="M114.47,419.28V416h3.29v3.25Zm.21,22.29V423h2.87v18.55Z"/><path d="M122.31,435.27l2.7-.53q.52,4.87,5.14,4.87a5.6,5.6,0,0,0,3.31-.8,2.52,2.52,0,0,0,1.1-2.14,2.37,2.37,0,0,0-1-2.1A17.07,17.07,0,0,0,129.2,433a13.1,13.1,0,0,1-4.83-2.13,4,4,0,0,1-1.4-3.22,4.66,4.66,0,0,1,1.71-3.59,6.87,6.87,0,0,1,4.73-1.52,7.43,7.43,0,0,1,4.83,1.45,7,7,0,0,1,2.38,3.87l-2.48.67a4.54,4.54,0,0,0-4.72-3.54,4.45,4.45,0,0,0-2.8.77,2.27,2.27,0,0,0-1,1.82,1.86,1.86,0,0,0,.95,1.71,23.21,23.21,0,0,0,4.34,1.54,12,12,0,0,1,5,2.33,4.84,4.84,0,0,1,1.38,3.55,5,5,0,0,1-1.77,3.82,9.37,9.37,0,0,1-10.92-.3A7.78,7.78,0,0,1,122.31,435.27Z"/><path d="M141.8,441.57V423h2.59v1.79h.07a4.88,4.88,0,0,1,2-1.66,6.09,6.09,0,0,1,2.76-.65,5.48,5.48,0,0,1,3,.79,5.61,5.61,0,0,1,1.91,1.94h.07a5.54,5.54,0,0,1,2-1.92,6.18,6.18,0,0,1,3.17-.81,6,6,0,0,1,6.41,6.44v12.63H163V429.81q0-4.69-3.78-4.69a3.84,3.84,0,0,0-3,1.17,4.69,4.69,0,0,0-1.07,3.27v12h-2.77V429.81q0-4.69-3.78-4.69a3.6,3.6,0,0,0-3,1.24,5,5,0,0,0-1,3.2v12Z"/><path d="M178.76,442.1a7.86,7.86,0,0,1-6.06-2.59,10.26,10.26,0,0,1-2.38-7.21,10.1,10.1,0,0,1,2.45-7.17,7.88,7.88,0,0,1,6-2.62,7.68,7.68,0,0,1,5.9,2.63,10.24,10.24,0,0,1,2.4,7.17,10.36,10.36,0,0,1-2.34,7.21A7.68,7.68,0,0,1,178.76,442.1Zm0-2.59a4.83,4.83,0,0,0,3.9-1.91,9.85,9.85,0,0,0,0-10.6,4.82,4.82,0,0,0-3.92-1.91,5,5,0,0,0-4,1.87,9.83,9.83,0,0,0,0,10.67A5,5,0,0,0,178.76,439.51Z"/><path d="M204.1,441.57v-1.79H204a6.75,6.75,0,0,1-2.15,1.59,7.8,7.8,0,0,1-9.13-1.94,10.9,10.9,0,0,1-2.19-7.14,10.58,10.58,0,0,1,2.29-7.12,7.26,7.26,0,0,1,5.76-2.68,6.42,6.42,0,0,1,5.14,2.31h.07V416h2.87v25.55Zm-.28-6.16v-5.74a4.58,4.58,0,0,0-1.29-3.17,4.46,4.46,0,0,0-3.46-1.42,5,5,0,0,0-4.2,1.89,10.58,10.58,0,0,0,0,10.64,5,5,0,0,0,4.2,1.89,4.89,4.89,0,0,0,3.39-1.22A3.75,3.75,0,0,0,203.82,435.41Z"/><path d="M222.06,436.19V425.58h-2.59V423h2.66v-4.55h2.73V423h4.58v2.55h-4.55v10.25a4.28,4.28,0,0,0,.46,2.31,2.07,2.07,0,0,0,1.82.67h1.4v2.76H227a4.79,4.79,0,0,1-3.8-1.35A6,6,0,0,1,222.06,436.19Z"/><path d="M234,419.28V416h3.29v3.25Zm.21,22.29V423h2.87v18.55Z"/><path d="M243.23,441.57V423H246v1.79h.07a5.57,5.57,0,0,1,2.21-1.66,7.23,7.23,0,0,1,3-.65,6.52,6.52,0,0,1,4.85,1.86,6.85,6.85,0,0,1,1.84,5v12.18h-2.84V430.31q0-5.18-4.27-5.18a4.9,4.9,0,0,0-3.48,1.23,4.42,4.42,0,0,0-1.31,3.39v11.83Z"/><path d="M276,434.47l2.76.56a8.3,8.3,0,0,1-2.55,5.14A7.38,7.38,0,0,1,271,442.1a7.81,7.81,0,0,1-6.09-2.61,10.37,10.37,0,0,1-2.34-7.19,10.2,10.2,0,0,1,2.42-7.16,7.82,7.82,0,0,1,6-2.64,7.25,7.25,0,0,1,5.06,1.89,8,8,0,0,1,2.54,4.9l-2.7.56a7.22,7.22,0,0,0-1.61-3.41,4.16,4.16,0,0,0-3.29-1.35,5,5,0,0,0-4.06,1.91,8.22,8.22,0,0,0-1.54,5.3,8.38,8.38,0,0,0,1.5,5.29,5,5,0,0,0,4.13,1.92,4.24,4.24,0,0,0,3.36-1.49A6.64,6.64,0,0,0,276,434.47Z"/><path d="M283.27,419.28V416h3.29v3.25Zm.21,22.29V423h2.87v18.55Z"/><path d="M304.83,441.57v-1.79h-.07a6.73,6.73,0,0,1-2.15,1.59,7.8,7.8,0,0,1-9.13-1.94,10.89,10.89,0,0,1-2.19-7.14,10.57,10.57,0,0,1,2.29-7.12,7.26,7.26,0,0,1,5.76-2.68,6.42,6.42,0,0,1,5.15,2.31h.07V416h2.87v25.55Zm-.28-6.16v-5.74a4.58,4.58,0,0,0-1.29-3.17,4.46,4.46,0,0,0-3.46-1.42,5,5,0,0,0-4.2,1.89,10.58,10.58,0,0,0,0,10.64,5,5,0,0,0,4.2,1.89,4.89,4.89,0,0,0,3.4-1.22A3.75,3.75,0,0,0,304.55,435.41Z"/><path d="M313.19,435.1V423h2.87v11.66a5.39,5.39,0,0,0,1,3.67,4.32,4.32,0,0,0,3.31,1.08,4,4,0,0,0,3.22-1.29,5.34,5.34,0,0,0,1.12-3.61V423h2.83v18.55h-2.8v-1.79h-.07a7.24,7.24,0,0,1-.53.63,6.41,6.41,0,0,1-1.63,1,6.09,6.09,0,0,1-2.78.65,6.47,6.47,0,0,1-4.81-1.75A7.18,7.18,0,0,1,313.19,435.1Z"/><path d="M333.49,441.57V423h2.8v1.79h.07a5.57,5.57,0,0,1,2.21-1.66,7.24,7.24,0,0,1,3-.65,6.52,6.52,0,0,1,4.85,1.86,6.85,6.85,0,0,1,1.84,5v12.18h-2.83V430.31q0-5.18-4.27-5.18a4.9,4.9,0,0,0-3.48,1.23,4.42,4.42,0,0,0-1.31,3.39v11.83Z"/><path d="M354.7,436.19V425.58h-2.59V423h2.66v-4.55h2.73V423h4.58v2.55h-4.55v10.25a4.3,4.3,0,0,0,.46,2.31,2.08,2.08,0,0,0,1.82.67h1.4v2.76h-1.54a4.79,4.79,0,0,1-3.8-1.35A6,6,0,0,1,354.7,436.19Z"/><path d="M375.21,435.1V423h2.87v11.66a5.39,5.39,0,0,0,1,3.67,4.32,4.32,0,0,0,3.31,1.08,4,4,0,0,0,3.22-1.29,5.34,5.34,0,0,0,1.12-3.61V423h2.83v18.55h-2.8v-1.79h-.07a7.24,7.24,0,0,1-.53.63,6.41,6.41,0,0,1-1.63,1,6.09,6.09,0,0,1-2.78.65,6.47,6.47,0,0,1-4.81-1.75A7.18,7.18,0,0,1,375.21,435.1Z"/><path d="M396.18,436.19V425.58h-2.59V423h2.66v-4.55H399V423h4.58v2.55H399v10.25a4.3,4.3,0,0,0,.46,2.31,2.08,2.08,0,0,0,1.82.67h1.4v2.76h-1.54a4.79,4.79,0,0,1-3.8-1.35A6,6,0,0,1,396.18,436.19Z"/><path d="M416.86,441.57V416h2.91v25.55Z"/><path d="M436.5,441.57v-2h-.07a5.09,5.09,0,0,1-2,1.73,7.45,7.45,0,0,1-3.68.82,6.56,6.56,0,0,1-4.67-1.51,5,5,0,0,1-1.59-3.78,4.69,4.69,0,0,1,1.42-3.62,11.38,11.38,0,0,1,4.81-2.19l1.87-.49q.61-.18,1.42-.47a4.32,4.32,0,0,0,1.16-.58,2.76,2.76,0,0,0,.61-.7,1.74,1.74,0,0,0,.26-.95,2.46,2.46,0,0,0-1-2,4.55,4.55,0,0,0-2.92-.79,4.2,4.2,0,0,0-4.51,3.67l-2.59-.74a6.58,6.58,0,0,1,2.28-4,7.12,7.12,0,0,1,4.72-1.52,7.61,7.61,0,0,1,5.09,1.59q1.87,1.59,1.87,5v12.5Zm-5.11-8.37a8.56,8.56,0,0,0-3.24,1.44,2.56,2.56,0,0,0-.86,2q0,2.9,3.67,2.9a5.91,5.91,0,0,0,3.89-1.14,3.49,3.49,0,0,0,1.36-2.78V431h-.07Q435.66,432,431.39,433.21Z"/><path d="M451.83,442.1a7.86,7.86,0,0,1-6.05-2.59,10.25,10.25,0,0,1-2.38-7.21,10.1,10.1,0,0,1,2.45-7.17,7.87,7.87,0,0,1,6-2.62,7.67,7.67,0,0,1,5.9,2.63,10.24,10.24,0,0,1,2.4,7.17,10.35,10.35,0,0,1-2.35,7.21A7.67,7.67,0,0,1,451.83,442.1Zm0-2.59a4.84,4.84,0,0,0,3.9-1.91,9.86,9.86,0,0,0,0-10.6,4.83,4.83,0,0,0-3.92-1.91,5,5,0,0,0-4,1.87,9.83,9.83,0,0,0,0,10.67A5,5,0,0,0,451.83,439.51Z"/><path d="M464.85,441.57V423h2.73v2h.07a3.89,3.89,0,0,1,1.64-1.71,4.54,4.54,0,0,1,2.21-.6,3.84,3.84,0,0,1,.82.09q.4.09.61.16l.18.11-.53,2.83a3.17,3.17,0,0,0-1.47-.28,2.91,2.91,0,0,0-2.59,1.17,6.79,6.79,0,0,0-.81,3.76v11Z"/><path d="M490,435.87l2.31,1.5a9.23,9.23,0,0,1-3,3.38,8.18,8.18,0,0,1-4.78,1.35,8,8,0,0,1-6.2-2.68,10.23,10.23,0,0,1-2.42-7.12,10.37,10.37,0,0,1,2.36-7.12,7.77,7.77,0,0,1,6.11-2.68,7.64,7.64,0,0,1,6,2.63,10.48,10.48,0,0,1,2.31,7.17v.84H478.78a7.25,7.25,0,0,0,1.49,4.51,5,5,0,0,0,4.18,1.85,6.28,6.28,0,0,0,2-.3,7,7,0,0,0,1.4-.59,4.17,4.17,0,0,0,1-1,10.71,10.71,0,0,0,.67-.89Q489.63,436.54,490,435.87Zm-11.13-5h11a6.78,6.78,0,0,0-1.4-4.06,5.61,5.61,0,0,0-8.19.12A6.56,6.56,0,0,0,478.85,430.86Z"/><path d="M510.28,435.87l2.31,1.5a9.23,9.23,0,0,1-3,3.38,8.18,8.18,0,0,1-4.78,1.35,8,8,0,0,1-6.2-2.68,10.23,10.23,0,0,1-2.42-7.12,10.37,10.37,0,0,1,2.36-7.12,7.77,7.77,0,0,1,6.11-2.68,7.64,7.64,0,0,1,6,2.63A10.48,10.48,0,0,1,513,432.3v.84H499.08a7.25,7.25,0,0,0,1.49,4.51,5,5,0,0,0,4.18,1.85,6.28,6.28,0,0,0,2-.3,7,7,0,0,0,1.4-.59,4.17,4.17,0,0,0,1-1,10.71,10.71,0,0,0,.67-.89Q509.93,436.54,510.28,435.87Zm-11.13-5h11a6.78,6.78,0,0,0-1.4-4.06,5.61,5.61,0,0,0-8.19.12A6.56,6.56,0,0,0,499.15,430.86Z"/><path d="M518.4,436.19V425.58h-2.59V423h2.66v-4.55h2.73V423h4.58v2.55h-4.55v10.25a4.3,4.3,0,0,0,.46,2.31,2.08,2.08,0,0,0,1.82.67h1.4v2.76h-1.54a4.79,4.79,0,0,1-3.8-1.35A6,6,0,0,1,518.4,436.19Z"/><path d="M100.19,479.57v-1.79h-.07A6.75,6.75,0,0,1,98,479.38a7.8,7.8,0,0,1-9.13-1.94,10.9,10.9,0,0,1-2.19-7.14,10.58,10.58,0,0,1,2.29-7.12,7.26,7.26,0,0,1,5.76-2.68,6.42,6.42,0,0,1,5.14,2.31h.07V454h2.87v25.55Zm-.28-6.16v-5.74a4.58,4.58,0,0,0-1.29-3.17,4.46,4.46,0,0,0-3.46-1.42,4.94,4.94,0,0,0-4.2,1.89,10.57,10.57,0,0,0,0,10.64,5,5,0,0,0,4.2,1.89,4.89,4.89,0,0,0,3.39-1.22A3.75,3.75,0,0,0,99.91,473.41Z"/><path d="M115.94,480.1a7.86,7.86,0,0,1-6.06-2.59,10.26,10.26,0,0,1-2.38-7.21,10.1,10.1,0,0,1,2.45-7.17,7.88,7.88,0,0,1,6-2.62,7.68,7.68,0,0,1,5.9,2.63,10.24,10.24,0,0,1,2.4,7.17,10.36,10.36,0,0,1-2.34,7.21A7.68,7.68,0,0,1,115.94,480.1Zm0-2.59a4.83,4.83,0,0,0,3.9-1.91,9.85,9.85,0,0,0,0-10.6,4.82,4.82,0,0,0-3.92-1.91,5,5,0,0,0-4,1.87,9.83,9.83,0,0,0,0,10.67A5,5,0,0,0,115.94,477.51Z"/><path d="M129,479.57V454h2.91v25.55Z"/><path d="M145,480.1a7.86,7.86,0,0,1-6.06-2.59,10.26,10.26,0,0,1-2.38-7.21,10.1,10.1,0,0,1,2.45-7.17,7.88,7.88,0,0,1,6-2.62,7.68,7.68,0,0,1,5.9,2.63,10.24,10.24,0,0,1,2.4,7.17,10.36,10.36,0,0,1-2.34,7.21A7.68,7.68,0,0,1,145,480.1Zm0-2.59a4.83,4.83,0,0,0,3.9-1.91,9.85,9.85,0,0,0,0-10.6,4.82,4.82,0,0,0-3.92-1.91,5,5,0,0,0-4,1.87,9.83,9.83,0,0,0,0,10.67A5,5,0,0,0,145,477.51Z"/><path d="M158,479.57V461h2.73v2h.07a3.89,3.89,0,0,1,1.64-1.71,4.54,4.54,0,0,1,2.21-.6,3.83,3.83,0,0,1,.82.09q.4.09.61.16l.17.11-.52,2.83a3.17,3.17,0,0,0-1.47-.28,2.92,2.92,0,0,0-2.59,1.17,6.79,6.79,0,0,0-.8,3.76v11Z"/><path d="M183.17,473.87l2.31,1.5a9.23,9.23,0,0,1-3,3.38,8.19,8.19,0,0,1-4.78,1.35,8,8,0,0,1-6.19-2.68,10.23,10.23,0,0,1-2.42-7.12,10.37,10.37,0,0,1,2.36-7.12,7.77,7.77,0,0,1,6.11-2.68,7.64,7.64,0,0,1,6,2.63,10.48,10.48,0,0,1,2.31,7.17v.84H172a7.26,7.26,0,0,0,1.49,4.51,5,5,0,0,0,4.18,1.85,6.27,6.27,0,0,0,2-.3,7,7,0,0,0,1.4-.59,4.19,4.19,0,0,0,1-1,10.61,10.61,0,0,0,.66-.89Q182.82,474.54,183.17,473.87Zm-11.13-5h11a6.77,6.77,0,0,0-1.4-4.06,5.61,5.61,0,0,0-8.19.12A6.56,6.56,0,0,0,172,468.86Z"/><path d="M199.38,479.57V461H202v1.79H202a4.89,4.89,0,0,1,2-1.66,6.1,6.1,0,0,1,2.77-.65,5.47,5.47,0,0,1,3,.79,5.61,5.61,0,0,1,1.91,1.94h.07a5.54,5.54,0,0,1,2-1.92,6.17,6.17,0,0,1,3.17-.81,6,6,0,0,1,6.41,6.44v12.63h-2.77V467.81q0-4.69-3.78-4.69a3.84,3.84,0,0,0-3,1.17,4.68,4.68,0,0,0-1.07,3.27v12H210V467.81q0-4.69-3.78-4.69a3.6,3.6,0,0,0-3,1.24,5,5,0,0,0-1,3.2v12Z"/><path d="M239.91,479.57v-2h-.07a5.09,5.09,0,0,1-2,1.73,7.45,7.45,0,0,1-3.67.82,6.56,6.56,0,0,1-4.67-1.51,5,5,0,0,1-1.59-3.78,4.69,4.69,0,0,1,1.42-3.62,11.38,11.38,0,0,1,4.81-2.19l1.87-.49q.61-.18,1.42-.47a4.35,4.35,0,0,0,1.16-.58,2.77,2.77,0,0,0,.61-.7,1.75,1.75,0,0,0,.26-.95,2.45,2.45,0,0,0-1-2,4.55,4.55,0,0,0-2.92-.79,4.2,4.2,0,0,0-4.52,3.67l-2.59-.74a6.57,6.57,0,0,1,2.28-4,7.12,7.12,0,0,1,4.72-1.52,7.6,7.6,0,0,1,5.09,1.59q1.87,1.59,1.87,5v12.5Zm-5.11-8.37a8.56,8.56,0,0,0-3.24,1.44,2.55,2.55,0,0,0-.86,2q0,2.9,3.67,2.9a5.91,5.91,0,0,0,3.88-1.14,3.49,3.49,0,0,0,1.37-2.78V469h-.07Q239.07,470,234.8,471.21Z"/><path d="M248.2,482.94l2.41-1.23a6.69,6.69,0,0,0,1.73,2.71,5.32,5.32,0,0,0,6.6-.32,5.15,5.15,0,0,0,1.23-3.66V478h-.07A6.39,6.39,0,0,1,255,480.1a7.35,7.35,0,0,1-5.91-2.66,10.72,10.72,0,0,1-2.24-7.14,10.47,10.47,0,0,1,2.33-7.12,7.36,7.36,0,0,1,5.79-2.68,6.31,6.31,0,0,1,5.21,2.31h.07V461H263v18.83a8.44,8.44,0,0,1-2,6,7.19,7.19,0,0,1-5.48,2.08,7.71,7.71,0,0,1-4.71-1.38A7.36,7.36,0,0,1,248.2,482.94Zm12-9.45V467.6a4.45,4.45,0,0,0-1.31-3.12,4.55,4.55,0,0,0-3.48-1.4,5,5,0,0,0-4.22,1.91,10.28,10.28,0,0,0,0,10.62,5,5,0,0,0,4.24,1.89,5,5,0,0,0,3.43-1.21A3.66,3.66,0,0,0,260.17,473.48Z"/><path d="M268.78,479.57V461h2.8v1.79h.07a5.57,5.57,0,0,1,2.21-1.66,7.24,7.24,0,0,1,3-.65,6.52,6.52,0,0,1,4.85,1.86,6.85,6.85,0,0,1,1.84,5v12.18h-2.83V468.31q0-5.18-4.27-5.18a4.9,4.9,0,0,0-3.48,1.23,4.42,4.42,0,0,0-1.31,3.39v11.83Z"/><path d="M300.11,479.57v-2H300a5.09,5.09,0,0,1-2,1.73,7.45,7.45,0,0,1-3.68.82,6.56,6.56,0,0,1-4.67-1.51,5,5,0,0,1-1.59-3.78,4.69,4.69,0,0,1,1.42-3.62,11.38,11.38,0,0,1,4.81-2.19l1.87-.49q.61-.18,1.42-.47a4.32,4.32,0,0,0,1.16-.58,2.76,2.76,0,0,0,.61-.7,1.74,1.74,0,0,0,.26-.95,2.46,2.46,0,0,0-1-2,4.55,4.55,0,0,0-2.92-.79,4.2,4.2,0,0,0-4.51,3.67l-2.59-.74a6.58,6.58,0,0,1,2.28-4,7.12,7.12,0,0,1,4.72-1.52,7.61,7.61,0,0,1,5.09,1.59q1.87,1.59,1.87,5v12.5ZM295,471.21a8.56,8.56,0,0,0-3.24,1.44,2.56,2.56,0,0,0-.86,2q0,2.9,3.67,2.9a5.91,5.91,0,0,0,3.89-1.14,3.49,3.49,0,0,0,1.36-2.78V469h-.07Q299.27,470,295,471.21Z"/><path d="M327.76,479.57v-2h-.07a5.09,5.09,0,0,1-2,1.73,7.45,7.45,0,0,1-3.68.82,6.56,6.56,0,0,1-4.67-1.51,5,5,0,0,1-1.59-3.78,4.69,4.69,0,0,1,1.42-3.62A11.38,11.38,0,0,1,322,469l1.87-.49q.61-.18,1.42-.47a4.32,4.32,0,0,0,1.16-.58,2.76,2.76,0,0,0,.61-.7,1.74,1.74,0,0,0,.26-.95,2.46,2.46,0,0,0-1-2,4.55,4.55,0,0,0-2.92-.79,4.2,4.2,0,0,0-4.51,3.67l-2.59-.74a6.58,6.58,0,0,1,2.28-4,7.12,7.12,0,0,1,4.72-1.52,7.61,7.61,0,0,1,5.09,1.59q1.87,1.59,1.87,5v12.5Zm-5.11-8.37a8.56,8.56,0,0,0-3.24,1.44,2.56,2.56,0,0,0-.86,2q0,2.9,3.67,2.9a5.91,5.91,0,0,0,3.89-1.14,3.49,3.49,0,0,0,1.36-2.78V469h-.07Q326.92,470,322.65,471.21Z"/><path d="M335.87,479.57V454h2.91v25.55Z"/><path d="M344.73,457.28V454H348v3.25Zm.21,22.29V461h2.87v18.55Z"/><path d="M366.11,487.45v-9.66H366a6.19,6.19,0,0,1-5.21,2.31,7.28,7.28,0,0,1-5.84-2.66,10.72,10.72,0,0,1-2.24-7.14,10.47,10.47,0,0,1,2.33-7.12,7.37,7.37,0,0,1,5.79-2.68,7,7,0,0,1,3.18.7,6.34,6.34,0,0,1,2.14,1.61h.07V461h2.7v26.42Zm0-14V467.6a4.45,4.45,0,0,0-1.31-3.12,4.55,4.55,0,0,0-3.48-1.4A5,5,0,0,0,357.1,465a10.28,10.28,0,0,0,0,10.62,5,5,0,0,0,4.24,1.89,5,5,0,0,0,3.43-1.21A3.66,3.66,0,0,0,366.11,473.48Z"/><path d="M374.72,473.1V461h2.87v11.66a5.39,5.39,0,0,0,1,3.67,4.32,4.32,0,0,0,3.31,1.08,4,4,0,0,0,3.22-1.29,5.34,5.34,0,0,0,1.12-3.61V461h2.83v18.55h-2.8v-1.79h-.07a7.24,7.24,0,0,1-.53.63,6.41,6.41,0,0,1-1.63,1,6.09,6.09,0,0,1-2.78.65,6.47,6.47,0,0,1-4.81-1.75A7.18,7.18,0,0,1,374.72,473.1Z"/><path d="M405.8,479.57v-2h-.07a5.09,5.09,0,0,1-2,1.73,7.45,7.45,0,0,1-3.68.82,6.56,6.56,0,0,1-4.67-1.51,5,5,0,0,1-1.59-3.78,4.69,4.69,0,0,1,1.42-3.62A11.38,11.38,0,0,1,400,469l1.87-.49q.61-.18,1.42-.47a4.32,4.32,0,0,0,1.16-.58,2.76,2.76,0,0,0,.61-.7,1.74,1.74,0,0,0,.26-.95,2.46,2.46,0,0,0-1-2,4.55,4.55,0,0,0-2.92-.79,4.2,4.2,0,0,0-4.51,3.67l-2.59-.74a6.58,6.58,0,0,1,2.28-4,7.12,7.12,0,0,1,4.72-1.52,7.61,7.61,0,0,1,5.09,1.59q1.87,1.59,1.87,5v12.5Zm-5.11-8.37a8.56,8.56,0,0,0-3.24,1.44,2.56,2.56,0,0,0-.86,2q0,2.9,3.67,2.9a5.91,5.91,0,0,0,3.89-1.14,3.49,3.49,0,0,0,1.36-2.78V469h-.07Q405,470,400.69,471.21Z"/><path d="M413.92,479.57V461h2.59v1.79h.07a4.89,4.89,0,0,1,2-1.66,6.1,6.1,0,0,1,2.77-.65,5.47,5.47,0,0,1,3,.79,5.61,5.61,0,0,1,1.91,1.94h.07a5.54,5.54,0,0,1,2-1.92,6.17,6.17,0,0,1,3.17-.81,6,6,0,0,1,6.41,6.44v12.63h-2.77V467.81q0-4.69-3.78-4.69a3.84,3.84,0,0,0-3,1.17,4.68,4.68,0,0,0-1.07,3.27v12h-2.76V467.81q0-4.69-3.78-4.69a3.6,3.6,0,0,0-3,1.24,5,5,0,0,0-1,3.2v12Z"/><path d="M465.27,473.87l2.31,1.5a9.23,9.23,0,0,1-3,3.38,8.18,8.18,0,0,1-4.78,1.35,8,8,0,0,1-6.2-2.68,10.23,10.23,0,0,1-2.42-7.12,10.37,10.37,0,0,1,2.36-7.12,7.77,7.77,0,0,1,6.11-2.68,7.64,7.64,0,0,1,6,2.63A10.48,10.48,0,0,1,468,470.3v.84H454.07a7.25,7.25,0,0,0,1.49,4.51,5,5,0,0,0,4.18,1.85,6.28,6.28,0,0,0,2-.3,7,7,0,0,0,1.4-.59,4.17,4.17,0,0,0,1-1,10.71,10.71,0,0,0,.67-.89Q464.92,474.54,465.27,473.87Zm-11.13-5h11a6.78,6.78,0,0,0-1.4-4.06,5.61,5.61,0,0,0-8.19.12A6.56,6.56,0,0,0,454.14,468.86Z"/><path d="M472.72,479.57V461h2.73v2h.07a3.89,3.89,0,0,1,1.64-1.71,4.54,4.54,0,0,1,2.21-.6,3.84,3.84,0,0,1,.82.09q.4.09.61.16l.18.11-.53,2.83a3.17,3.17,0,0,0-1.47-.28,2.91,2.91,0,0,0-2.59,1.17,6.79,6.79,0,0,0-.81,3.76v11Z"/><path d="M495.79,479.57v-2h-.07a5.09,5.09,0,0,1-2,1.73,7.45,7.45,0,0,1-3.68.82,6.56,6.56,0,0,1-4.67-1.51,5,5,0,0,1-1.59-3.78,4.69,4.69,0,0,1,1.42-3.62A11.38,11.38,0,0,1,490,469l1.87-.49q.61-.18,1.42-.47a4.32,4.32,0,0,0,1.16-.58,2.76,2.76,0,0,0,.61-.7,1.74,1.74,0,0,0,.26-.95,2.46,2.46,0,0,0-1-2,4.55,4.55,0,0,0-2.92-.79,4.2,4.2,0,0,0-4.51,3.67l-2.59-.74a6.58,6.58,0,0,1,2.28-4,7.12,7.12,0,0,1,4.72-1.52,7.61,7.61,0,0,1,5.09,1.59q1.87,1.59,1.87,5v12.5Zm-5.11-8.37a8.56,8.56,0,0,0-3.24,1.44,2.56,2.56,0,0,0-.86,2q0,2.9,3.67,2.9a5.91,5.91,0,0,0,3.89-1.14,3.49,3.49,0,0,0,1.36-2.78V469h-.07Q494.95,470,490.68,471.21Z"/><path d="M504.57,474.19V463.58H502V461h2.66v-4.55h2.73V461H512v2.55h-4.55v10.25a4.3,4.3,0,0,0,.46,2.31,2.08,2.08,0,0,0,1.82.67h1.4v2.76h-1.54a4.79,4.79,0,0,1-3.8-1.35A6,6,0,0,1,504.57,474.19Z"/></g><g id="Don_t" data-name="Don&apos;t"><line class="cls-2" y1="600" x2="600"/></g></svg>