<svg id="Layer_1" data-name="Layer 1" xmlns="http://www.w3.org/2000/svg" viewBox="0 0 553.17 146.24"><defs><style>.cls-1{fill:none;stroke:#32baf2;stroke-miterlimit:10;}.cls-2{fill:#32baf2;}</style></defs><title>dif_display_leading</title><line class="cls-1" y1="62.29" x2="553.17" y2="62.29"/><line class="cls-1" y1="83.55" x2="553.17" y2="83.55"/><path d="M40.61,55.76,14.29,39c-1.52-1-2.16-3.28-2.16-5.12V25.68a7.63,7.63,0,0,1,2.16-5.12l5-5a7.38,7.38,0,0,1,5.2-2.08H37.17a7.38,7.38,0,0,1,5.2,2.08l6.24,6.4L42,27.52l-5.44-5.6H25.09l-4.16,4.24v6.4l26.32,16.8c1.52,1,2.16,3.28,2.16,5.12v9a7.63,7.63,0,0,1-2.16,5.12l-5,5a7.39,7.39,0,0,1-5.2,2.08H22a7.39,7.39,0,0,1-5.2-2.08L9.49,66.16l6.64-5.6,6.48,6.64H36.45L40.61,63Z" transform="translate(-7.97 -13.44)"/><path d="M58.53,13.44h40v8.48H82.93V75.68h-8.8V21.92H58.53Z" transform="translate(-7.97 -13.44)"/><path d="M136.69,13.44a7.38,7.38,0,0,1,5.2,2.08l5,5A7.63,7.63,0,0,1,149,25.68V63.44a7.63,7.63,0,0,1-2.16,5.12l-5,5a7.39,7.39,0,0,1-5.2,2.08h-15.6a7.39,7.39,0,0,1-5.2-2.08l-5-5a7.63,7.63,0,0,1-2.16-5.12V25.68a7.63,7.63,0,0,1,2.16-5.12l5-5a7.38,7.38,0,0,1,5.2-2.08Zm-15,53.76H136L140.21,63V26.16L136,21.92H121.73l-4.16,4.24V63Z" transform="translate(-7.97 -13.44)"/><path d="M202.61,67.2l-6.24,6.4a7.38,7.38,0,0,1-5.2,2.08H175.25A7.39,7.39,0,0,1,170,73.6l-5-5a7.63,7.63,0,0,1-2.16-5.12V25.68a7.63,7.63,0,0,1,2.16-5.12l5-5a7.38,7.38,0,0,1,5.2-2.08h15.92a7.38,7.38,0,0,1,5.2,2.08l6.24,6.4L196,27.52l-5.44-5.6H175.89l-4.16,4.24V63l4.16,4.24h14.64L196,61.6Z" transform="translate(-7.97 -13.44)"/><path d="M235,39.2l22.16,31.12v5.36h-6.88L228.77,45.44l-4.88,4.88V75.68h-8.8V13.44h8.8V38.16l24.72-24.72h6.88v5.2Z" transform="translate(-7.97 -13.44)"/><path d="M297.65,48.24H275.57V75.68h-8.8V13.44h8.8V39.76h22.08V13.44h8.8V75.68h-8.8Z" transform="translate(-7.97 -13.44)"/><path d="M348.29,13.44a7.38,7.38,0,0,1,5.2,2.08l5,5a7.63,7.63,0,0,1,2.16,5.12V63.44a7.63,7.63,0,0,1-2.16,5.12l-5,5a7.39,7.39,0,0,1-5.2,2.08h-15.6a7.39,7.39,0,0,1-5.2-2.08l-5-5a7.63,7.63,0,0,1-2.16-5.12V25.68a7.63,7.63,0,0,1,2.16-5.12l5-5a7.38,7.38,0,0,1,5.2-2.08Zm-15,53.76h14.32L351.81,63V26.16l-4.16-4.24H333.33l-4.16,4.24V63Z" transform="translate(-7.97 -13.44)"/><path d="M374.52,13.44h8.8V67.2h24.32v8.48H374.52Z" transform="translate(-7.97 -13.44)"/><path d="M419,13.44h9.12l13.44,34.4h1.28l13.44-34.4h9.12V75.68h-8.8V41l.32-7.36L449.25,53c-.64,1.84-1.6,3.36-4.16,3.36h-5.76c-2.56,0-3.52-1.52-4.16-3.36l-7.68-19.28.32,7.36V75.68H419Z" transform="translate(-7.97 -13.44)"/><path d="M508.2,55.76,481.88,39c-1.52-1-2.16-3.28-2.16-5.12V25.68a7.63,7.63,0,0,1,2.16-5.12l5-5a7.38,7.38,0,0,1,5.2-2.08h12.72a7.38,7.38,0,0,1,5.2,2.08l6.24,6.4-6.64,5.6-5.44-5.6H492.68l-4.16,4.24v6.4l26.32,16.8c1.52,1,2.16,3.28,2.16,5.12v9a7.63,7.63,0,0,1-2.16,5.12l-5,5a7.39,7.39,0,0,1-5.2,2.08H489.56a7.39,7.39,0,0,1-5.2-2.08l-7.28-7.44,6.64-5.6,6.48,6.64H504L508.2,63Z" transform="translate(-7.97 -13.44)"/><path d="M40.61,139.76,14.29,123c-1.52-1-2.16-3.28-2.16-5.12v-8.16a7.63,7.63,0,0,1,2.16-5.12l5-5a7.38,7.38,0,0,1,5.2-2.08H37.17a7.38,7.38,0,0,1,5.2,2.08l6.24,6.4L42,111.52l-5.44-5.6H25.09l-4.16,4.24v6.4l26.32,16.8c1.52,1,2.16,3.28,2.16,5.12v9a7.63,7.63,0,0,1-2.16,5.12l-5,5a7.38,7.38,0,0,1-5.2,2.08H22a7.38,7.38,0,0,1-5.2-2.08l-7.28-7.44,6.64-5.6,6.48,6.64H36.45L40.61,147Z" transform="translate(-7.97 -13.44)"/><path d="M58.53,97.44h40v8.48H82.93v53.76h-8.8V105.92H58.53Z" transform="translate(-7.97 -13.44)"/><path d="M136.69,97.44a7.38,7.38,0,0,1,5.2,2.08l5,5a7.63,7.63,0,0,1,2.16,5.12v37.76a7.63,7.63,0,0,1-2.16,5.12l-5,5a7.38,7.38,0,0,1-5.2,2.08h-15.6a7.38,7.38,0,0,1-5.2-2.08l-5-5a7.63,7.63,0,0,1-2.16-5.12V109.68a7.63,7.63,0,0,1,2.16-5.12l5-5a7.38,7.38,0,0,1,5.2-2.08Zm-15,53.76H136l4.16-4.24v-36.8L136,105.92H121.73l-4.16,4.24V147Z" transform="translate(-7.97 -13.44)"/><path d="M162.93,97.44h8.8V151.2H196v8.48H162.93Z" transform="translate(-7.97 -13.44)"/><path d="M203.73,97.44h40v8.48h-15.6v53.76h-8.8V105.92h-15.6Z" transform="translate(-7.97 -13.44)"/><path d="M284.85,132.24H262.77v27.44H254V97.44h8.8v26.32h22.08V97.44h8.8v62.24h-8.8Z" transform="translate(-7.97 -13.44)"/><path d="M307.57,97.44h35.6v8.48h-26.8v18.16h20.56v8.48H316.37V151.2h26.8v8.48h-35.6Z" transform="translate(-7.97 -13.44)"/><path d="M352.6,97.44h40v8.48H377v53.76h-8.8V105.92H352.6Z" transform="translate(-7.97 -13.44)"/><line class="cls-1" x1="529.7" y1="63.38" x2="529.7" y2="82.47"/><polygon class="cls-2" points="525.61 66.69 526.34 67.37 529.7 63.76 533.05 67.37 533.78 66.69 529.7 62.29 525.61 66.69"/><polygon class="cls-2" points="525.61 79.16 526.34 78.47 529.7 82.08 533.05 78.47 533.78 79.16 529.7 83.55 525.61 79.16"/></svg>