<?xml version="1.0" encoding="utf-8"?>
<!-- Generator: Adobe Illustrator 21.0.2, SVG Export Plug-In . SVG Version: 6.00 Build 0)  -->
<svg version="1.1" id="Layer_1" xmlns="http://www.w3.org/2000/svg" xmlns:xlink="http://www.w3.org/1999/xlink" x="0px" y="0px"
	 viewBox="0 0 600 520" style="enable-background:new 0 0 600 520;" xml:space="preserve">
<style type="text/css">
	.st0{fill:#CFB571;}
	.st1{fill:#FFEC0D;}
	.st2{fill:#0568AF;}
	.st3{fill:#E21F26;}
	.st4{fill:#998247;}
	.st5{fill:#FFF100;}
	.st6{fill:#E4412B;}
	.st7{fill:#006BB5;}
</style>
<g>
	<path class="st4" d="M106.9,212.5l-29.7,0c0,0-14.4,16.7-14.5,16.8v23.2l6.9,6.6l-6.9,6.6v23.2v0.6c0.2,0.3,12,15.7,12.2,16.3
		l31.1,0c0,0,13-16.7,13-16.8v-23.2l-6.9-6.6l6.9-6.6v-23.2v-0.6C118.9,228.4,107.1,213.1,106.9,212.5z M112.6,249.9l-9.3,9.4
		l-0.4-0.1l9.7,9.2v19.4c0,0.1-9.7,12.9-9.7,12.9l-24.3,0c-0.2-0.5-9.2-12.2-9.4-12.5l0-0.5v-19.4l9.3-9.4l0.4,0.1l-9.7-9.2v-19.4
		c0-0.1,11.1-12.9,11.1-12.9l22.9,0c0.2,0.5,9.2,12.2,9.4,12.5l0,0.5V249.9z"/>
	<path class="st4" d="M43.3,286.3c0-24.4,0-48.9,0-73.3c-9.1,0-27.8,0-27.8,0l0.1,19c0,0,4.1,0,6.1,0c0,18.1,0,36.1,0,54.2
		c-2,0-4.1,0-6.1,0c0,6.2,0,18.7,0,18.7h34.1c0,0,0-12.5,0-18.7C47.6,286.3,45.5,286.3,43.3,286.3z M43.3,300c-7.2,0-14.3,0-21.6,0
		c0-2.7,0-5.5,0-8.3c2,0,4.1,0,6.1,0c0-21.6,0-64.8,0-64.8h-6.1c0,0,0-6,0-8.8c5.3,0,10.5,0,15.8,0c0,24.5,0,49.1,0,73.6
		c1.9,0,3.8,0,5.7,0C43.3,294.9,43.4,297.5,43.3,300z"/>
	<path class="st4" d="M578,286.5c0-24.4,0-48.9,0-73.3c-9.1,0-27.8,0-27.8,0l0.1,19c0,0,4.1,0,6.1,0c0,18.1,0,36.1,0,54.2
		c-2,0-4.1,0-6.1,0c0,6.2,0,18.7,0,18.7h34.1c0,0,0-12.5,0-18.7C582.3,286.5,580.1,286.5,578,286.5z M578,300.1
		c-7.2,0-14.3,0-21.6,0c0-2.7,0-5.5,0-8.3c2,0,4.1,0,6.1,0c0-21.6,0-64.8,0-64.8h-6.1c0,0,0-6,0-8.8c5.3,0,10.5,0,15.8,0
		c0,24.5,0,49.1,0,73.6c1.9,0,3.8,0,5.7,0C578,295,578.1,297.7,578,300.1z"/>
	<g>
		<path class="st4" d="M99,225.6H83.5l-4.7,4.3v18.9l4.7,4.3l14.6,0l4.8-4.5l0-17.4L99,225.6z M96.5,247.5c-3.7,0-7.4,0-11.1,0
			c0-5.5,0-11.1,0-16.6c3.7,0,7.4,0,11.1,0C96.5,236.4,96.5,242,96.5,247.5z"/>
		<path class="st4" d="M83.6,265l-4.8,4.5l0,17.4l4,5.7h15.4l4.7-4.3v-18.9l-4.7-4.3L83.6,265z M96.5,287.2c-3.7,0-7.4,0-11.1,0
			c0-5.5,0-11.1,0-16.6c3.7,0,7.4,0,11.1,0C96.5,276.2,96.5,281.7,96.5,287.2z"/>
	</g>
	<path class="st4" d="M524,212.6l-29.7,0c0,0-14.4,18-14.5,18.2v25.1l12.6,12.9h21.2c0,5.9,0,11.7,0,17.6c-3.6,0-7.2,0-10.8,0
		c0-2,0-4.1,0-6.1c-7.3,0-15.9,0-23.2,0v12.6l13.1,12.6h30.9l12.6-12.9v-62.4C536,229.8,524.2,213.3,524,212.6z M529.7,290.2
		l-9.7,10h-23.8l-9.4-9.7v-4.7c5.6,0,4.6,0,10.2,0c0,1.5,0,3.4,0,3.4l4,3.4h14.7l4.4-4.9c0,0,0-20.2,0-24.7h-24.2l-9.7-9.9v-21
		c0-0.1,11.2-14,11.2-14l22.9,0c0.2,0.5,9.2,13.2,9.4,13.5V290.2z"/>
	<path class="st4" d="M516.1,226.8h-15.4l-4.7,4.7V252l4.7,4.7h19.5V233L516.1,226.8z M513.6,250.5c-3.7,0-7.4,0-11.1,0
		c0-6,0-12,0-18c3.7,0,7.4,0,11.1,0C513.6,238.6,513.6,244.6,513.6,250.5z"/>
	<path class="st4" d="M70.9,181.8l1.2-3.1c3.2-8.2,9.7-10.2,16.2-7.7c6.4,2.5,10.1,8.7,7.2,16.3l-1.3,3.4L70.9,181.8z M69.5,185.6
		l23.1,9l-1.3,3.4L94,199l4.4-11.2c3.9-10.1-1.4-17.7-8.5-20.5c-9.3-3.6-17,1.3-19.8,8.6l-4.7,12l2.7,1.1L69.5,185.6z"/>
	<path class="st4" d="M78,157.3l5.4-10.7L86,148l-1.7,3.4l22.1,11.2c4.2,2.1,6.3,5.2,4.1,9.6l-1,1.9l-3.3-1.7l0.7-1.4
		c0.9-1.8,0.6-3.2-1.2-4.2L82.5,155l-1.9,3.7L78,157.3z"/>
	<path class="st4" d="M94.6,128l5.9-9.2l2.5,1.6l-1.7,2.7l14.2,9.1c6.4,4.1,7.4,9.9,3.9,15.3c-3.5,5.4-9.1,7-15.6,2.8l-14.2-9.1
		l-1.7,2.7l-2.5-1.6l5.9-9.2l2.5,1.6l-2,3.1l15.2,9.8c3.9,2.5,7.2,1.2,9.3-2.1c2.1-3.3,1.9-6.8-2-9.3L99,126.5l-2,3.1L94.6,128z"/>
	<path class="st4" d="M111.1,110.4l2.9-3.4c2.1-2.5,5-5.2,8.2-2.5c3.3,2.8,2,6.2-0.4,9.1l-2.9,3.4L111.1,110.4z M134.6,125.5
		l-2.2-1.9l-2.4,2.8l-8.9-7.5l3.3-3.9c1.8-2.1,3.8-3.9,6.2-1.9l8.4,7.1l4.9-5.8l-2.2-1.9l-2.3,2.7l-6.5-5.5c-1.9-1.6-4.5-1.7-6,0.2
		l-0.1-0.1c1-3.4,0.9-6.1-2-8.5c-3.6-3-7.8-2.5-11.4,1.6l-9.6,11.3l2.2,1.9l2.3-2.8l19,16l-2.3,2.8l2.2,1.9L134.6,125.5z"/>
	<path class="st4" d="M150.9,81c-3.7-2.7-9.1-2.2-12.5,0.9c-3.9,3.5-5.9,10.9-0.5,17c5.4,6.1,13,5,16.9,1.5c3.9-3.4,4.4-9,2.6-12.4
		l-6,5.3l-2.2-2.5l11.1-9.9l2.2,2.5l-2.7,2.4l7,7.9l-2.5,2.2l-2.4-2.7c-0.4,4.4-1.7,7.3-4.7,10c-6.5,5.8-16.5,5.1-22.4-1.5
		c-5.9-6.6-5.4-16.6,1.1-22.4c2.6-2.3,6-3.7,9.6-3.6l-2-2.3l2.5-2.2l7.1,8L150.9,81z"/>
	<path class="st4" d="M160.5,53.1c-0.8-1.2-0.5-2.5,0.7-3.3c1.2-0.7,2.6-0.5,3.4,0.7c0.8,1.2,0.5,2.6-0.7,3.4
		C162.6,54.6,161.3,54.3,160.5,53.1z M164.9,55.4c2-1.3,2.6-4,1.2-6c-1.3-2-4-2.6-6-1.2c-2,1.3-2.5,4-1.2,6
		C160.2,56.1,162.8,56.7,164.9,55.4z M161.5,63.4l3.1-2.1l6.4,25.5l-2.5,1.6l1.6,2.5l8.6-5.7l-1.6-2.5l-3.1,2l-2.1-7.7l8.9-5.8
		l6.2,5l-3.1,2l1.6,2.5l8.9-5.8l-1.6-2.5l-2.4,1.6L170,57.8l3.1-2l-1.6-2.5L159.9,61L161.5,63.4z M178.5,69.4l-7.2,4.7l-3.6-13.3
		l0.1,0L178.5,69.4z"/>
	<path class="st4" d="M190.3,46.2l4.1-2c3-1.4,6.7-2.7,8.5,1.1c1.9,3.9-0.7,6.5-4.1,8.1l-4.1,2L190.3,46.2z M205.7,69.6l-1.3-2.6
		l-3.3,1.6L196,58l4.6-2.2c2.5-1.2,5.1-2,6.5,0.9l4.8,10l6.9-3.3l-1.3-2.6l-3.2,1.5l-3.7-7.7c-1.1-2.3-3.4-3.4-5.6-2.3l0-0.1
		c2.3-2.7,3.3-5.1,1.7-8.6c-2-4.2-6.1-5.5-11-3.2l-13.4,6.4l1.3,2.6l3.3-1.6l10.7,22.4l-3.3,1.6l1.3,2.6L205.7,69.6z"/>
	<path class="st4" d="M218.6,34l3.1-1c8.4-2.7,14,1.1,16.2,7.6c2.1,6.5-0.3,13.3-8.1,15.9l-3.5,1.1L218.6,34z M214.8,35.3l7.7,23.6
		L219,60l0.9,2.8l11.4-3.7c10.3-3.4,12.8-12.3,10.4-19.5c-3.1-9.5-11.8-12.3-19.1-9.9l-12.2,4l0.9,2.8L214.8,35.3z"/>
	<path class="st4" d="M248.2,53.8l-0.6-2.9l3.6-0.7l-4.7-24.4l-3.6,0.7l-0.5-2.9l23.3-4.4l1.5,8.1l-3.6,0.7l-1-5.2l-12.1,2.3
		l1.8,9.6l10.2-2l0.6,3.3l-10.2,2l2.2,11.5l12.1-2.3l-1.2-6.1l3.6-0.7l1.7,9L248.2,53.8z"/>
	<path class="st4" d="M274.7,21.1l-3.4,0.2l-0.2-2.9l7.9-0.5l14.3,21.6l0.1,0L292.1,20l-3.5,0.2l-0.2-2.9l10.8-0.7l0.2,2.9l-3.4,0.2
		l1.8,27.7l-3.5,0.2l-15.4-23l-0.1,0l1.3,21l3.8-0.2l0.2,2.9L273,49l-0.2-2.9l3.5-0.2L274.7,21.1z"/>
	<path class="st4" d="M307.3,37.2c0.5,4.5,3.6,7.8,8.1,8.1c3.2,0.2,6.6-1.4,6.8-4.9c0.5-8.6-18.2-4.6-17.5-16.2
		c0.3-5.6,4.8-7.9,9.9-7.6c3.2,0.2,5.3,1.4,7.5,3.7l0.2-2.6l3.3,0.2l-0.6,9l-3.4-0.2c-0.4-3.6-3.3-6.4-6.9-6.6
		c-3.9-0.2-6.1,1.7-6.2,4.2c-0.5,7.3,18.2,3.8,17.5,16.1c-0.3,5.3-4.9,8.8-10.1,8.4c-3.9-0.2-6.2-1.2-9.1-3.8l-0.2,2.5l-3.3-0.2
		L304,37L307.3,37.2z"/>
	<path class="st4" d="M338,50.8l0.6-2.9l3.6,0.7l4.9-24.3l-3.5-0.7l0.6-2.9l11.2,2.3l-0.6,2.9l-3.7-0.8l-4.9,24.3l3.6,0.7l-0.6,2.9
		L338,50.8z"/>
	<path class="st4" d="M359.2,26.7l0.8-2.8l22.5,6.7l-2.3,7.9l-3.5-1l1.5-5.1l-11.6-3.5l-2.8,9.4l10.3,3.1l-1,3.2l-10.3-3.1
		l-3.4,11.2l4.2,1.2l-0.8,2.8l-11.6-3.5l0.8-2.8l3.6,1.1l7.1-23.8L359.2,26.7z"/>
	<path class="st4" d="M396.9,39.4l1.3-2.6l21.1,10.3l-3.6,7.4l-3.3-1.6l2.3-4.7l-10.9-5.3l-4.3,8.8l9.6,4.7l-1.5,3l-9.6-4.7
		l-5.2,10.5l3.9,1.9l-1.3,2.6l-10.9-5.3l1.3-2.6l3.4,1.6L400.2,41L396.9,39.4z"/>
	<path class="st4" d="M436.3,61.3c4.7,3.2,7.7,10.3,3.1,17c-4.5,6.7-12.2,6.7-16.9,3.5c-4.7-3.2-7.7-10.3-3.1-17
		C423.9,58.1,431.6,58.1,436.3,61.3z M438.4,58.2c-7.6-5.1-17.4-3.1-22.3,4.3c-5,7.4-3.1,17.2,4.4,22.3c7.6,5.1,17.4,3.1,22.3-4.3
		C447.8,73.1,445.9,63.3,438.4,58.2z"/>
	<path class="st4" d="M450.4,78.1l5.7-6.3l17.3,15.4l-5.7,6.3l-2.7-2.4l3.7-4.2l-4.4-3.9l-16.5,18.5l2.9,2.5l-2,2.2l-8.7-7.8l2-2.2
		l2.9,2.5l16.5-18.5l-4.4-3.9l-3.7,4.2L450.4,78.1z"/>
	<path class="st4" d="M470.2,107.1l2.1,2.4c3.4,3.8,3.8,6.8,0.7,9.6c-3,2.7-5.8,2.5-9.5-1.6l-2.2-2.4L470.2,107.1z M479.9,98.5
		l2.7,3c2.3,2.6,2.4,5.5-0.1,7.8c-2,1.8-5.4,1.1-7.2-0.9l-2.8-3.1L479.9,98.5z M454,111.2l7.6,8.5c4.2,4.8,9,6.9,13.7,2.6
		c4.4-4,2.9-8.1,1.9-9.9l0.1-0.1c2.3,1.5,5.4,1.9,8.2-0.6c3.8-3.4,3.6-7.4-0.9-12.4l-7.6-8.6l-2.2,2l2.4,2.7L458.7,112l-2.4-2.7
		L454,111.2z"/>
	<path class="st4" d="M503.1,128c3.1,4.7,3.2,12.4-3.5,16.9c-6.7,4.5-13.8,1.6-17-3.1c-3.1-4.7-3.2-12.4,3.5-16.9
		C492.9,120.4,500,123.3,503.1,128z M506.1,126c-5.1-7.6-14.9-9.4-22.3-4.4c-7.4,4.9-9.4,14.8-4.3,22.3c5.1,7.6,14.9,9.4,22.3,4.4
		C509.2,143.3,511.2,133.5,506.1,126z"/>
	<path class="st4" d="M514.6,146.3l2.6-1.3l5.2,10.4l-2.6,1.3l-1.7-3.5l-22.3,11l4.2,8.5l5.4-2.7l1.6,3.3l-8.1,4l-9.3-18.8l2.6-1.3
		l1.7,3.4l22.3-11L514.6,146.3z"/>
	<path class="st4" d="M525.7,169.5l2.8-1l4,10.9l-2.8,1l-1.4-3.7l-23.3,8.6l3.3,8.9l5.7-2.1l1.3,3.4l-8.5,3.1l-7.2-19.7l2.8-1
		l1.3,3.5l23.3-8.6L525.7,169.5z"/>
	<path class="st4" d="M81.5,335.1c-3.9,2.1-5.9,6.1-4.4,10.4c1,3,3.7,5.5,7,4.4c8-2.7-2.5-18.3,8.4-21.9c5.2-1.7,9,1.5,10.6,6.3
		c1,3,0.7,5.4-0.7,8.2l2.4-0.8l1,3.1l-8.4,2.8l-1.1-3.2c3.2-1.7,4.7-5.3,3.5-8.7c-1.2-3.7-3.8-4.9-6.1-4.2
		c-6.9,2.3,3.2,18.1-8.3,21.9c-5,1.7-9.8-1.3-11.4-6.1c-1.2-3.6-1.2-6.1,0.1-9.7l-2.4,0.8l-1-3.1l9.7-3.2L81.5,335.1z"/>
	<path class="st4" d="M100.4,354l7.5-3.8l10.3,20.4l-7.5,3.8l-1.6-3.2l4.9-2.5l-2.6-5.2l-21.8,11l1.7,3.4l-2.6,1.3l-5.2-10.3
		l2.6-1.3l1.7,3.4l21.8-11l-2.6-5.2l-4.9,2.5L100.4,354z"/>
	<path class="st4" d="M126.7,388.5c3.3,4.5,3.6,12.1-2.9,16.8c-6.5,4.7-13.6,2-16.9-2.5c-3.3-4.5-3.6-12.1,2.9-16.8
		C116.3,381.4,123.4,384,126.7,388.5z M129.6,386.4c-5.3-7.3-15-8.7-22.1-3.6c-7.1,5.1-8.7,14.9-3.5,22.1c5.3,7.3,15,8.7,22.1,3.6
		C133.3,403.4,134.9,393.7,129.6,386.4z"/>
	<path class="st4" d="M152,426.4c2.1-4,0.9-8.2-2.2-11.2c-4.7-4.6-11.6-3.8-16.3,1c-4.7,4.8-5.4,11.9-0.8,16.5
		c3.6,3.5,7.5,4.3,12,2.3l2.6,2.6c-5.5,3.2-11.9,2.8-17.1-2.3c-6.4-6.3-5.7-15.7,0.3-21.8c6-6.1,15.4-7,21.6-0.9
		c2.4,2.3,4.1,5.5,4.4,8.8l1.8-1.8l2.3,2.3l-6.6,6.7L152,426.4z"/>
	<path class="st4" d="M174.2,432l-1.7,2.3l-3.1-2.2l-6.8,9.4l0.1,0l15.5-3.2l-2.6-1.9l1.7-2.3l8.8,6.4l-1.7,2.3l-2.2-1.6l-15.8,3.2
		l0,0.1l1.4,16.4l2.4,1.7l-1.7,2.3l-8.8-6.4l1.7-2.3l2.6,1.9l-1.5-16.1l-0.1,0l-7.1,9.9l3.1,2.2l-1.7,2.3l-9.2-6.6l1.7-2.3l2.9,2.1
		l14.3-19.8l-2.8-2l1.7-2.3L174.2,432z"/>
	<path class="st4" d="M174.2,468.8l1.3-2.6l3.1,1.6l11.4-21.6l-3.1-1.6l1.3-2.6l10,5.3l-1.3,2.6l-3.4-1.8l-4.6,8.7l11.8,6.2l4.6-8.7
		l-3.4-1.8l1.3-2.6l10,5.3l-1.3,2.6l-3.1-1.6l-11.4,21.6l3.1,1.6l-1.3,2.6l-10-5.3l1.3-2.6l3.4,1.8l5.3-10l-11.8-6.2l-5.3,10
		l3.4,1.8l-1.4,2.6L174.2,468.8z"/>
	<path class="st4" d="M230.3,464.6c5.3,1.8,9.9,7.8,7.3,15.4c-2.6,7.6-9.9,9.5-15.2,7.7c-5.3-1.8-9.9-7.8-7.3-15.4
		C217.7,464.7,225.1,462.8,230.3,464.6z M231.5,461.1c-8.5-2.9-17.3,1.5-20.1,9.8c-2.8,8.3,1.4,17.2,9.9,20.1
		c8.5,2.9,17.3-1.5,20.1-9.8C244.3,472.9,240,464,231.5,461.1z"/>
	<path class="st4" d="M249.5,470.3l0.5-2.8l11.3,2.1l-0.5,2.8l-3.8-0.7l-4.5,24l9.2,1.7l1.1-5.9l3.5,0.7l-1.6,8.7l-20.3-3.8l0.5-2.8
		l3.6,0.7l4.5-24L249.5,470.3z"/>
	<path class="st4" d="M280.4,499.7l3.8,0.1l-0.1,2.9l-11.2-0.3l0.1-2.9l3.6,0.1l0.7-24.5l-3.6-0.1l0.1-2.9l9.8,0.3l7.2,20.9l0.1,0
		l8.4-20.4l9.2,0.3l-0.1,2.9l-3.6-0.1l-0.7,24.5l3.6,0.1l-0.1,2.9l-11.1-0.3l0.1-2.9l3.7,0.1l0.7-23l-0.1,0l-9.5,23l-2.1-0.1
		l-8.2-23.5l-0.1,0L280.4,499.7z"/>
	<path class="st4" d="M318.1,491.9c1.3,4.2,4.9,6.9,9.3,6.4c3.1-0.4,6.1-2.6,5.7-6c-1.1-8.4-18.5-1.1-19.9-12.5
		c-0.7-5.4,3.2-8.5,8.2-9.1c3.2-0.4,5.4,0.3,7.9,2.2l-0.3-2.5l3.2-0.4l1.1,8.8l-3.3,0.4c-1-3.4-4.3-5.6-7.9-5.2
		c-3.8,0.5-5.6,2.8-5.3,5.2c0.9,7.2,18.4,0.3,19.9,12.3c0.7,5.2-3.2,9.4-8.2,10c-3.8,0.5-6.2,0-9.5-2l0.3,2.5l-3.2,0.4l-1.3-10.2
		L318.1,491.9z"/>
	<path class="st4" d="M359.6,484.2c2,3.9,6,6,10.3,4.6c3-0.9,5.6-3.6,4.6-6.9c-2.5-8.1-18.4,2.2-21.8-8.8c-1.6-5.2,1.7-8.9,6.5-10.4
		c3-0.9,5.4-0.6,8.2,0.8l-0.8-2.4l3.1-1l2.6,8.5l-3.2,1c-1.6-3.2-5.3-4.8-8.7-3.7c-3.7,1.1-5,3.7-4.3,6c2.2,6.9,18.1-2.9,21.7,8.7
		c1.6,5-1.5,9.8-6.3,11.3c-3.6,1.1-6.1,1.1-9.7-0.3l0.7,2.4l-3.1,1l-3.1-9.8L359.6,484.2z"/>
	<path class="st4" d="M378.9,465.7l-3.4-7.6l20.8-9.3l3.4,7.6l-3.3,1.5l-2.2-5l-5.3,2.4l10,22.3l3.4-1.5l1.2,2.6l-10.5,4.7l-1.2-2.6
		l3.4-1.5l-10-22.3l-5.3,2.4l2.2,5L378.9,465.7z"/>
	<path class="st4" d="M415,441.3c4.7-2.9,12.3-2.7,16.5,4.1c4.2,6.8,1.1,13.7-3.7,16.6c-4.7,2.9-12.3,2.7-16.5-4.1
		C407.1,451.1,410.3,444.2,415,441.3z M413.1,438.2c-7.6,4.7-9.8,14.4-5.1,21.8c4.6,7.4,14.2,9.8,21.8,5c7.6-4.7,9.8-14.4,5.1-21.8
		C430.3,435.8,420.7,433.5,413.1,438.2z"/>
	<path class="st4" d="M431.7,430.1l-1.8-2.2l8.8-7.3l1.8,2.2l-3,2.5l15.6,18.8l7.2-6l-3.8-4.6l2.8-2.3l5.7,6.8l-15.9,13.2l-1.8-2.2
		l2.8-2.4l-15.6-18.8L431.7,430.1z"/>
	<path class="st4" d="M452.5,419.9l-6-5.8l15.9-16.4l6,5.8l-2.5,2.6l-3.9-3.8l-4.1,4.2l17.5,17l2.6-2.7l2.1,2l-8,8.3l-2.1-2l2.6-2.7
		l-17.5-17l-4.1,4.2l3.9,3.8L452.5,419.9z"/>
	<path class="st4" d="M489.2,413l-2.3-1.7l2-2.8l-19.8-14.3l-2,2.8l-2.3-1.7l6.6-9.2l2.3,1.7l-2.3,3.2l8,5.8l7.8-10.8l-8-5.8
		l-2.3,3.1l-2.3-1.7l6.6-9.2l2.3,1.7l-2,2.8l19.8,14.3l2-2.8l2.3,1.7l-6.6,9.2l-2.3-1.7l2.3-3.2l-9.2-6.6l-7.8,10.8l9.2,6.6l2.3-3.1
		l2.3,1.7L489.2,413z"/>
	<path class="st4" d="M509.5,383.5l-2.6-1.3l1.6-3.2l-21.8-11l-1.6,3.2l-2.6-1.3l10.5-20.9l7.2,3.6l-1.6,3.2l-4.6-2.3l-5.5,10.9
		l8.6,4.3l4.6-9.2l2.9,1.5l-4.6,9.2l10.3,5.2l5.5-10.9l-5.5-2.8l1.6-3.2l8,4.1L509.5,383.5z"/>
	<path class="st4" d="M502.3,348.6l-8-2.6l7-21.7l8,2.6l-1.1,3.4l-5.2-1.7l-1.8,5.5l23.3,7.5l1.2-3.6l2.8,0.9l-3.5,11l-2.8-0.9
		l1.2-3.6l-23.3-7.5l-1.8,5.5l5.2,1.7L502.3,348.6z"/>
	<path class="st4" d="M321,120.5c31.7,13.8,72,17.5,107.6,9.7c0.6,0,0.6,0.9,0.8,1.4c17.9,96.2-10.2,191.7-74.7,261.6
		c-16.5,17-34.6,32.9-54.5,45.4l-1.2-0.3c-14.7-9.3-29.8-20.8-42.2-32.6c-43.3-39.6-74.4-91.7-86.8-147.1
		c-3.3-12.4-5.6-24.7-6.8-37.5c-1.5-11.4-2-23.2-2.1-34.5c0.2-5.2,0-10.3,0.6-15.2c-0.2-3.3,0.3-7,0.6-10.3
		c0.8-9.3,2.1-18.8,3.8-28.2c9.7,1.2,19.7,3,29.9,3c37.5,1.2,71.7-8.3,101.6-27.2C305.3,112.9,312.9,117.2,321,120.5z"/>
	<path class="st5" d="M303.9,125.2c14.7,7.7,30.8,13.2,47.4,16.7l0.3,0.3c-6.1,5.6-12.4,11.4-18.1,16.9L303,187.9
		c-36.7,34.2-73,69.5-110.2,103.1c-0.2,0.2-0.5,0.3-0.8,0.6c-18.5-45.1-24.3-96.2-17.2-145.6l0.5-0.3c43,6.2,86.4-2.7,121.8-23.5
		C299.6,122.4,301.5,124.3,303.9,125.2z"/>
	<path class="st6" d="M420.6,146.5c2.4,16.1,3.2,32.2,3,48.1l-5.6,5.2l-22.6,21.4c-25,24.4-52.7,48.4-77.6,73c-3,2.7-6.2,5.6-9,8.5
		l-0.6,0.3c-22.8,21.6-46.5,43.9-69.5,65.4c-0.6,0-0.6,0.9-1.4,0.6c-17.6-21.6-31.6-44.6-42.2-69.2l0.2-0.6l52.1-49l88.8-83.5
		c8-7.3,16.1-15.3,24.4-22.5c2.1-0.9,4.4,0.3,6.7,0.3c16.9,2.3,35.4,1.5,52.1-1.2C421.4,143.3,420.2,145.4,420.6,146.5z"/>
	<path class="st4" d="M364.5,176.9v0.5l-10.3,9.9l3.9,4.3c3.8-2.6,6.7-5.9,9.9-9c3.5,3.2,6.8,7,9.9,10.3v0.3c-3.5,3-6.4,6.2-9.6,9.3
		c4.6,4.9,9,9.7,13.5,14.6c-3.3,3.9-7.1,7.1-11.1,10.6c-12.4-13.7-25.5-26.1-37.8-40.1c2-2.3,4.7-4.3,7-6.5
		c4.9-5.2,10-9.1,14.7-14.1l1.1,0.5L364.5,176.9z"/>
	<path class="st4" d="M405,187c2.1,2.7,1.8,6.8,0.2,9.6c-1.4,2.4-3.8,3.5-6.2,3.9c-3.2,0-5.9-1.5-7.6-4.1c-1.2-2.4-1.8-5.8-0.2-8.5
		c1.1-2.4,3.9-3.9,6.5-4.3C400.7,183.2,403.2,184.8,405,187z"/>
	<path class="st7" d="M423.2,209c-0.8,5.8-1.2,11.8-2,17.6l0.2,0.3c-2.4,17.8-6.8,35.2-12,51.9l0,0c-4.1,11.7-8.2,22.5-13.5,33.9
		c-12.3,25.2-28.1,50.6-48.3,71.5c-14.1,14.7-28.8,28.4-45.7,40.1c-2.6,2.4-4.6-1.1-6.7-2.1c-19.4-13.4-36.7-29.3-52.5-47.2
		l11.1-10.8l31.3-29.6l15.9-15l61.9-58l15-14.1l40.4-38.1l4.4-4.1C423.4,206,422.9,207.8,423.2,209z"/>
	<path class="st4" d="M335.6,260.2c-3.5,3.5-7.4,7-11.2,10.5c-0.6,0.2-0.8-0.8-1.1-1.2c-12.1-13.1-24.9-26.3-36.4-39.2
		c3.6-3.6,7.4-6.8,11.4-10.5l9.1,9.6L335.6,260.2z"/>
	<path class="st4" d="M354.1,237.7c0.9,3,0.5,6.1-1.5,8.3c-1.7,2.7-5,3.3-8,2.9c-3.2-0.6-5.8-3.3-6.5-6.4c-0.5-3.2,0.9-6.5,3.3-8.3
		c2.3-1.8,5.8-2.4,8.5-1.1C351.9,234.2,353.2,235.9,354.1,237.7z"/>
	<path class="st4" d="M277.8,284.9c4.4,7.3,5.9,17.8,1.8,25.8c-1.8,3.9-5.6,7.3-8.7,10.5l-11.2,10.5L244.4,315l-22.2-23.8
		c9.4-7.6,16.9-19.6,30.2-20.5C263.1,270.2,272,276.3,277.8,284.9z"/>
	<path class="st4" d="M308,279.3c1.4,2.4,1.4,5.9,0,8.2c-1.4,2.6-4.1,4.1-6.8,4.2c-3.3,0.3-6.1-1.7-7.7-4.2c-1.4-2.7-1.4-6.4,0.5-9
		c2.1-2.7,5.9-3.9,9.1-3.2C305,276,306.9,277.4,308,279.3z"/>
	<path class="st6" d="M265.5,294.8c2,3.9,2,9-0.5,12.8c-1.1,1.1-1.7,2.9-3.5,2.7l-18.2-19.6c0.8-1.5,2.6-2.4,3.9-3.2
		c3.5-1.8,8.2-2,11.5,0.2C261.7,289.4,263.8,291.8,265.5,294.8z"/>
</g>
</svg>
