<svg xmlns="http://www.w3.org/2000/svg" viewBox="0 0 1500 1500"><defs><style>.cls-1{fill:#60cd18;}.cls-2{fill:#ffc500;}.cls-3{fill:#673ab6;}.cls-4{fill:#f03529;}.cls-5{fill:#41b0ee;}.cls-6{fill:#ffb400;}.cls-7{fill:#4f2c99;}.cls-8{fill:#d81a1a;}.cls-9{fill:#3f2587;}.cls-10{opacity:0.1;}</style></defs><title>colour-bg</title><g id="Lager_2" data-name="Lager 2"><g id="backgrounds"><polygon class="cls-1" points="1500 1500 1204.73 1204.73 909.46 1500 1500 1500"/><polygon class="cls-2" points="892.24 1500 909.46 1500 1204.73 1204.73 900.85 900.85 596.97 1204.73 892.24 1500"/><rect class="cls-3" x="382.09" y="685.97" width="429.75" height="429.75" transform="translate(-462.15 685.98) rotate(-45)"/><polygon class="cls-4" points="0 607.76 293.09 900.85 596.97 596.97 293.09 293.09 0 586.18 0 607.76"/><polygon class="cls-5" points="293.09 293.09 0 0 0 586.18 293.09 293.09"/><polygon class="cls-6" points="892.24 1500 596.97 1204.73 301.7 1500 892.24 1500"/><polygon class="cls-7" points="0 1215.52 284.48 1500 301.7 1500 596.97 1204.73 293.09 900.85 0 1193.94 0 1215.52"/><polygon class="cls-8" points="293.09 900.85 0 607.76 0 1193.94 293.09 900.85"/><polygon class="cls-9" points="0 1215.52 0 1500 284.48 1500 0 1215.52"/><polygon class="cls-10" points="1482.58 1500 1500 1500 0 0 0 17.42 1482.58 1500"/></g></g></svg>