<svg xmlns="http://www.w3.org/2000/svg" xmlns:xlink="http://www.w3.org/1999/xlink" viewBox="0 0 3224.79 1753.15"><defs><style>.cls-1{fill:url(#Namnlös_övertoning_28);}.cls-2{fill:url(#Namnlös_övertoning_38);}.cls-3{fill:url(#Namnlös_övertoning_23);}.cls-4{fill:url(#Namnlös_övertoning_23-2);}.cls-5{fill:url(#Namnlös_övertoning_23-3);}.cls-6{fill:url(#Namnlös_övertoning_23-4);}</style><linearGradient id="Namnlös_övertoning_28" x1="1482.17" y1="1165.04" x2="2935.68" y2="-288.47" gradientUnits="userSpaceOnUse"><stop offset="0" stop-color="#bb000c"/><stop offset="0.01" stop-color="#bc010d"/><stop offset="0.21" stop-color="#d31819"/><stop offset="0.43" stop-color="#e32822"/><stop offset="0.68" stop-color="#ed3227"/><stop offset="1" stop-color="#f03529"/></linearGradient><linearGradient id="Namnlös_övertoning_38" x1="79.28" y1="1831.57" x2="1113.99" y2="796.86" gradientUnits="userSpaceOnUse"><stop offset="0" stop-color="#bb000c"/><stop offset="1" stop-color="#f03529"/></linearGradient><linearGradient id="Namnlös_övertoning_23" x1="3385.81" y1="1298.58" x2="4026.06" y2="658.33" gradientTransform="matrix(-1, 0, 0, 1, 4026.06, -185.96)" gradientUnits="userSpaceOnUse"><stop offset="0" stop-color="#bb000c"/><stop offset="0.4" stop-color="#d71c1c"/><stop offset="0.75" stop-color="#ea2f25"/><stop offset="1" stop-color="#f03529"/></linearGradient><linearGradient id="Namnlös_övertoning_23-2" x1="8.04" y1="-3662.78" x2="406.63" y2="-4061.38" gradientTransform="translate(6488.33 406.63) rotate(-90)" xlink:href="#Namnlös_övertoning_23"/><linearGradient id="Namnlös_övertoning_23-3" x1="5510.38" y1="-1709.23" x2="6789.85" y2="-2988.7" gradientTransform="matrix(0, 1, 1, 0, 3627.91, -4397.76)" xlink:href="#Namnlös_övertoning_23"/><linearGradient id="Namnlös_övertoning_23-4" x1="235.12" y1="2149.98" x2="1032.32" y2="1352.78" gradientTransform="translate(2590.75 -954.51)" xlink:href="#Namnlös_övertoning_23"/></defs><title>fifth-bg</title><g id="Lager_2" data-name="Lager 2"><g id="backgrounds"><polygon class="cls-1" points="3224.14 1753.15 3224.14 0 317.13 0 2070.28 1753.15 3224.14 1753.15"/><polygon class="cls-2" points="2069.41 1752.29 0 1752.29 0 0 317.13 0 2069.41 1752.29"/><polygon class="cls-3" points="0 472.37 1280.5 472.37 0 1752.88 0 472.37"/><polygon class="cls-4" points="2426.95 0 2426.95 797.19 3224.14 0 2426.95 0"/><polygon class="cls-5" points="0 1752.88 1278.42 472.37 2558.93 1752.88 0 1752.88"/><polygon class="cls-6" points="3224.79 0 2426.95 796.54 3224.79 1594.38 3224.79 0"/></g></g></svg>