<svg xmlns="http://www.w3.org/2000/svg" viewBox="0 0 1500 1500"><defs><style>.cls-1{fill:#eee;}.cls-2{fill:#60cd18;}.cls-3{fill:#fff;}.cls-4{opacity:0.1;}</style></defs><title>logo-bg</title><g id="Lager_2" data-name="Lager 2"><g id="backgrounds"><polygon class="cls-1" points="1500 1500 0 1500 0 0 1500 1500"/><polygon class="cls-2" points="611.02 610.81 0 610.81 0 1500 889.19 1500 889.19 888.3 611.02 610.81"/><path class="cls-3" d="M322.94,998l-28.76,21.47c-13.58-11.68-31.08-14-40.74-14s-20,2.79-21.53,9.8c-1.53,6.8,4.79,12.09,15.65,15,12.39,3.35,23.66,6.29,41,11.25,25.83,7.37,43.5,18.55,43.5,44.47,0,35.72-31.71,54.24-74.19,54.24s-71.42-22.14-80.07-32.46l30.4-22.73c21.36,18.61,36.2,21.24,48.61,21.24,14.24,0,27.56-3.06,29.27-11.06,1.39-6.47-4-11.61-16.11-14.43-13.72-3.17-25.31-5.72-38.23-9.12-35-9.2-44.92-29.56-44.92-47.86,0-25.19,23.45-51.07,66.34-51.07,44,0,69.74,25.19,69.74,25.19m183.29-22.68H378v160.22H508.59V1098.6H423.06v-25.81H482v-35.35H423.06v-25.51h83.17Zm-161.37,197.2h10V938.29h-10Zm180.56,0h10V938.29h-10Zm33.12-37h103c27.53,0,49.84-16.59,49.84-43.17,0-20.73-13.57-34.49-32.59-40.54a10.67,10.67,0,0,0-1.84-.23,11.52,11.52,0,0,0,1.84-.32c10.9-4.32,23-15.8,23-35.35,0-24.8-21.94-40.62-49-40.62H558.54Zm45.24-126.9h36c8.28,0,15,6.54,15,14.05s-6.7,14.08-15,14.08h-36Zm44,91.29h-44v-29.22h44c7.78,0,14.09,6.3,14.09,14.61S655.56,1099.92,647.78,1099.92Z"/><polygon class="cls-4" points="1482.58 1500 1500 1500 0 0 0 17.42 1482.58 1500"/></g></g></svg>