<svg xmlns="http://www.w3.org/2000/svg" viewBox="0 0 1500 1500"><defs><style>.cls-1{fill:#eee;}.cls-2{fill:none;}.cls-3{opacity:0.1;}</style></defs><title>picto-bg</title><g id="Lager_2" data-name="Lager 2"><g id="backgrounds"><polygon class="cls-1" points="1500 1500 0 1500 0 0 1500 1500"/><polygon class="cls-2" points="515.66 756.87 756.87 756.87 700.05 700.05 515.66 700.05 515.66 756.87"/><path class="cls-2" d="M547.64,1113.22H478.33a50.82,50.82,0,1,0,0,101.65h69.31a50.82,50.82,0,0,0,0-101.65Z"/><path class="cls-2" d="M496.42,1251.85H427.1a50.82,50.82,0,1,0,0,101.65h69.31a50.82,50.82,0,0,0,0-101.65Z"/><path d="M753.48,1074.65v37h351.91a18.48,18.48,0,0,0,5.42-.81l-36.16-36.16Z"/><path d="M515.66,756.87V700.05H700.05l-37-37H497.17a18.49,18.49,0,0,0-18.49,18.49v139.3H242.3a18.47,18.47,0,0,0-13.07,5.42l-86,86,26.14,26.14L250,857.84H478.69v37.33h37V793.84H793.84l-37-37Z"/><polygon points="961.6 988.57 961.6 1025.55 1025.55 1025.55 988.57 988.57 961.6 988.57"/><path d="M617.32,940.28H422.83v37H617.32a49.33,49.33,0,0,1,0,98.65H357.64a18.49,18.49,0,0,0-18.49,18.49c0,74.16-60.33,134.49-134.5,134.49v37c88.31,0,161.23-67.09,170.48-153h32a87.16,87.16,0,0,0,1.28,104,87.6,87.6,0,0,0-52.76,136.57H134.73v37H496.42a87.63,87.63,0,0,0,69.92-140.67,87.59,87.59,0,0,0,52.45-137,86.27,86.27,0,0,0-1.46-172.53ZM496.42,1353.49H427.1a50.82,50.82,0,1,1,0-101.65h69.31a50.82,50.82,0,0,1,0,101.65Zm51.22-138.62H478.33a50.82,50.82,0,1,1,0-101.65h69.31a50.82,50.82,0,0,1,0,101.65Z"/><polygon class="cls-3" points="1482.58 1500 1500 1500 0 0 0 17.42 1482.58 1500"/></g></g></svg>