<svg xmlns="http://www.w3.org/2000/svg" viewBox="0 0 1500 1500"><defs><style>.cls-1{fill:#eee;}.cls-2{fill:none;}.cls-3{fill:#673ab6;}.cls-4{opacity:0.1;}</style></defs><title>typo-bg</title><g id="Lager_2" data-name="Lager 2"><g id="backgrounds"><polygon class="cls-1" points="1500 1500 0 1500 0 0 1500 1500"/><polygon class="cls-2" points="515.66 756.87 756.87 756.87 700.05 700.05 515.66 700.05 515.66 756.87"/><path class="cls-2" d="M547.64,1113.22H478.33a50.82,50.82,0,1,0,0,101.65h69.31a50.82,50.82,0,0,0,0-101.65Z"/><path class="cls-2" d="M496.42,1251.85H427.1a50.82,50.82,0,1,0,0,101.65h69.31a50.82,50.82,0,0,0,0-101.65Z"/><path class="cls-2" d="M1211.77,1248.74a162.77,162.77,0,0,0,33.55-3.41L1130,1130c-6.9,11.33-10.24,24.82-10.24,39.88C1119.74,1217.39,1155.14,1248.74,1211.77,1248.74Z"/><path class="cls-2" d="M438.13,1031.3h223.5l-71.8-233.62c-13.15-43.49-26.29-92-39.44-152.71-13.15,60.68-27.31,109.22-40.45,152.71Z"/><path class="cls-3" d="M450.27,509.46,174.17,1359H338l55.62-183.05h312.5L761.75,1359h175L733.4,733.4,509.46,509.46ZM589.83,797.69l71.8,233.62H438.13l71.8-233.62c13.15-43.49,27.31-92,40.45-152.71C563.53,705.66,576.68,754.2,589.83,797.69Z"/><path class="cls-3" d="M1211.77,1248.74c-56.63,0-92-31.35-92-78.88,0-15.05,3.34-28.54,10.24-39.88l-92.54-92.54C986.9,1074.17,964,1129.27,964,1186v8.09c0,101.13,76.86,177,202.27,177,68.23,0,118.67-22.24,155.45-49.4l-76.38-76.38A162.77,162.77,0,0,1,1211.77,1248.74Z"/><polygon class="cls-4" points="1482.58 1500 1500 1500 0 0 0 17.42 1482.58 1500"/></g></g></svg>